<?xml version="1.0" encoding="UTF-8" standalone="no"?>
<!DOCTYPE svg PUBLIC "-//W3C//DTD SVG 1.1//EN"
"http://www.w3.org/Graphics/SVG/1.1/DTD/svg11.dtd">
<svg viewBox="0 0 935 1210" version="1.1" xmlns="http://www.w3.org/2000/svg" xmlns:xlink="http://www.w3.org/1999/xlink">
<defs>
<style type="text/css"><![CDATA[
.g1_660{
fill: #FFFFFF;
}
.g2_660{
}
]]></style>
</defs>
<path d="M165,1149.3l687.5,0l0,-21.2l-687.5,0l0,21.2Z" class="g1_660" />
<path d="M68.8,1149.3l82.5,0l0,-21.2l-82.5,0l0,21.2Z" class="g1_660" />
<path d="M68.9,1066.4l0,-0.8Z" class="g2_660" />
<path d="M68.9,1066.4l220.4,0l0,-0.8l-220.4,0l0,0.8Z" class="g2_660" />
<path d="M70.1,325.1l0.8,0l0,-199.4l-0.8,0l0,199.4Z" class="g2_660" />
<path d="M391.7,325.8l0.7,0l0,-200.9l-0.7,0l0,200.9Z" class="g2_660" />
<path d="M429.6,325.8l0.7,0l0,-200.9l-0.7,0l0,200.9Z" class="g2_660" />
<path d="M502.9,325.8l0.7,0l0,-200.9l-0.7,0l0,200.9Z" class="g2_660" />
<path d="M574.3,325.8l0.7,0l0,-200.9l-0.7,0l0,200.9Z" class="g2_660" />
<path d="M850.3,325.1l0.7,0l0,-199.4l-0.7,0l0,199.4Z" class="g2_660" />
<path d="M70.1,125.7l780.9,0l0,-0.8l-780.9,0l0,0.8Z" class="g2_660" />
<path d="M70.1,179.1l780.9,0l0,-0.7l-780.9,0l0,0.7Z" class="g2_660" />
<path d="M70.1,252.4l780.9,0l0,-0.7l-780.9,0l0,0.7Z" class="g2_660" />
<path d="M70.1,325.8l780.9,0l0,-0.7l-780.9,0l0,0.7Z" class="g2_660" />
<path d="M70.9,428.9l0.7,0l0,-48.1l-0.7,0l0,48.1Z" class="g2_660" />
<path d="M138.1,429.7l0.8,0l0,-49.6l-0.8,0l0,49.6Z" class="g2_660" />
<path d="M317.4,429.7l0.8,0l0,-49.6l-0.8,0l0,49.6Z" class="g2_660" />
<path d="M506.5,429.7l0.7,0l0,-49.6l-0.7,0l0,49.6Z" class="g2_660" />
<path d="M677.8,429.7l0.7,0l0,-49.6l-0.7,0l0,49.6Z" class="g2_660" />
<path d="M849.6,428.9l0.7,0l0,-48.1l-0.7,0l0,48.1Z" class="g2_660" />
<path d="M70.8,380.8l779.5,0l0,-0.8L70.8,380l0,0.8Z" class="g2_660" />
<path d="M70.8,405.3l779.5,0l0,-0.8l-779.5,0l0,0.8Z" class="g2_660" />
<path d="M70.8,429.7l779.5,0l0,-0.7L70.8,429l0,0.7Z" class="g2_660" />
</svg>