<?xml version="1.0" encoding="UTF-8" standalone="no"?>
<!DOCTYPE svg PUBLIC "-//W3C//DTD SVG 1.1//EN"
"http://www.w3.org/Graphics/SVG/1.1/DTD/svg11.dtd">
<svg viewBox="0 0 935 1210" version="1.1" xmlns="http://www.w3.org/2000/svg" xmlns:xlink="http://www.w3.org/1999/xlink">
<defs>
<style type="text/css"><![CDATA[
.g1_380{
fill: #FFFFFF;
}
.g2_380{
}
]]></style>
</defs>
<path d="M165,1149.3l687.5,0l0,-21.2l-687.5,0l0,21.2Z" class="g1_380" />
<path d="M68.8,1149.3l82.5,0l0,-21.2l-82.5,0l0,21.2Z" class="g1_380" />
<path d="M69.6,231.8l0.7,0l0,-106.1l-0.7,0l0,106.1Z" class="g2_380" />
<path d="M219.1,232.7l0.7,0l0,-107.8l-0.7,0l0,107.8Z" class="g2_380" />
<path d="M388.9,232.7l0.7,0l0,-107.8l-0.7,0l0,107.8Z" class="g2_380" />
<path d="M426.6,232.7l0.8,0l0,-107.8l-0.8,0l0,107.8Z" class="g2_380" />
<path d="M500,232.7l0.8,0l0,-107.8l-0.8,0l0,107.8Z" class="g2_380" />
<path d="M571.5,232.7l0.7,0l0,-107.8l-0.7,0l0,107.8Z" class="g2_380" />
<path d="M850.8,231.8l0.8,0l0,-106.1l-0.8,0l0,106.1Z" class="g2_380" />
<path d="M69.5,125.7l782.1,0l0,-0.8l-782.1,0l0,0.8Z" class="g2_380" />
<path d="M69.5,163.8l782.1,0l0,-0.7l-782.1,0l0,0.7Z" class="g2_380" />
<path d="M69.5,186.7l782.1,0l0,-0.7L69.5,186l0,0.7Z" class="g2_380" />
<path d="M69.5,209.6l782.1,0l0,-0.7l-782.1,0l0,0.7Z" class="g2_380" />
<path d="M69.5,232.6l782.1,0l0,-0.8l-782.1,0l0,0.8Z" class="g2_380" />
<path d="M69.7,335.8l0.7,0l0,-48.1l-0.7,0l0,48.1Z" class="g2_380" />
<path d="M150.5,336.5l0.8,0l0,-49.7l-0.8,0l0,49.7Z" class="g2_380" />
<path d="M325.7,336.5l0.7,0l0,-49.7l-0.7,0l0,49.7Z" class="g2_380" />
<path d="M505.4,336.5l0.7,0l0,-49.7l-0.7,0l0,49.7Z" class="g2_380" />
<path d="M674.8,336.5l0.7,0l0,-49.7l-0.7,0l0,49.7Z" class="g2_380" />
<path d="M850.8,335.8l0.7,0l0,-48.1l-0.7,0l0,48.1Z" class="g2_380" />
<path d="M69.7,287.6l781.8,0l0,-0.8l-781.8,0l0,0.8Z" class="g2_380" />
<path d="M69.7,312l781.8,0l0,-0.7l-781.8,0l0,0.7Z" class="g2_380" />
<path d="M69.7,336.5l781.8,0l0,-0.7l-781.8,0l0,0.7Z" class="g2_380" />
</svg>