<?xml version="1.0" encoding="UTF-8" standalone="no"?>
<!DOCTYPE svg PUBLIC "-//W3C//DTD SVG 1.1//EN"
"http://www.w3.org/Graphics/SVG/1.1/DTD/svg11.dtd">
<svg viewBox="0 0 935 1210" version="1.1" xmlns="http://www.w3.org/2000/svg" xmlns:xlink="http://www.w3.org/1999/xlink">
<defs>
<style type="text/css"><![CDATA[
.g1_1992{
fill: #FFFFFF;
}
.g2_1992{
}
]]></style>
</defs>
<path d="M165,1149.3l687.5,0l0,-21.2l-687.5,0l0,21.2Z" class="g1_1992" />
<path d="M68.8,1149.3l82.5,0l0,-21.2l-82.5,0l0,21.2Z" class="g1_1992" />
<path d="M70.4,887.3l0.7,0l0,-596.6l-0.7,0l0,596.6Z" class="g2_1992" />
<path d="M206.7,888.1l0.7,0l0,-598.2l-0.7,0l0,598.2Z" class="g2_1992" />
<path d="M539.2,888.1l0.7,0l0,-598.2l-0.7,0l0,598.2Z" class="g2_1992" />
<path d="M850,887.3l0.8,0l0,-596.6l-0.8,0l0,596.6Z" class="g2_1992" />
<path d="M70.4,290.7l780.4,0l0,-0.8l-780.4,0l0,0.8Z" class="g2_1992" />
<path d="M70.4,319.6l780.4,0l0,-0.7l-780.4,0l0,0.7Z" class="g2_1992" />
<path d="M70.4,888.1l780.4,0l0,-0.8l-780.4,0l0,0.8Z" class="g2_1992" />
</svg>