<?xml version="1.0" encoding="UTF-8" standalone="no"?>
<!DOCTYPE svg PUBLIC "-//W3C//DTD SVG 1.1//EN"
"http://www.w3.org/Graphics/SVG/1.1/DTD/svg11.dtd">
<svg viewBox="0 0 935 1210" version="1.1" xmlns="http://www.w3.org/2000/svg" xmlns:xlink="http://www.w3.org/1999/xlink">
<defs>
<style type="text/css"><![CDATA[
.g1_2093{
fill: #FFFFFF;
}
.g2_2093{
}
]]></style>
</defs>
<path d="M68.9,1149.3l783.8,0l0,-21.2l-783.8,0l0,21.2Z" class="g1_2093" />
<path d="M69.9,221.2l0.8,0l0,-97.1l-0.8,0l0,97.1Z" class="g2_2093" />
<path d="M446.2,221.9l0.8,0l0,-98.5l-0.8,0l0,98.5Z" class="g2_2093" />
<path d="M851.6,221.2l0.7,0l0,-97.1l-0.7,0l0,97.1Z" class="g2_2093" />
<path d="M69.9,124.1l782.4,0l0,-0.7l-782.4,0l0,0.7Z" class="g2_2093" />
<path d="M69.9,148.6l782.4,0l0,-0.7l-782.4,0l0,0.7Z" class="g2_2093" />
<path d="M69.9,173l782.4,0l0,-0.8l-782.4,0l0,0.8Z" class="g2_2093" />
<path d="M69.9,197.4l782.4,0l0,-0.7l-782.4,0l0,0.7Z" class="g2_2093" />
<path d="M69.9,221.9l782.4,0l0,-0.7l-782.4,0l0,0.7Z" class="g2_2093" />
<path d="M69.9,595.5l0.8,0L70.7,474l-0.8,0l0,121.5Z" class="g2_2093" />
<path d="M447.9,596.2l0.7,0l0,-122.9l-0.7,0l0,122.9Z" class="g2_2093" />
<path d="M850.9,595.5l0.8,0l0,-121.5l-0.8,0l0,121.5Z" class="g2_2093" />
<path d="M69.9,474l781.9,0l0,-0.7l-781.9,0l0,0.7Z" class="g2_2093" />
<path d="M69.9,498.5l781.9,0l0,-0.8l-781.9,0l0,0.8Z" class="g2_2093" />
<path d="M69.9,522.9l781.9,0l0,-0.8l-781.9,0l0,0.8Z" class="g2_2093" />
<path d="M69.9,547.3l781.9,0l0,-0.7l-781.9,0l0,0.7Z" class="g2_2093" />
<path d="M69.9,571.8l781.9,0l0,-0.7l-781.9,0l0,0.7Z" class="g2_2093" />
<path d="M69.9,596.2l781.9,0l0,-0.7l-781.9,0l0,0.7Z" class="g2_2093" />
<path d="M69.9,1079.8l0.8,0l0,-283.4l-0.8,0l0,283.4Z" class="g2_2093" />
<path d="M449.5,1080.6l0.8,0l0,-284.9l-0.8,0l0,284.9Z" class="g2_2093" />
<path d="M854.4,1079.8l0.8,0l0,-283.4l-0.8,0l0,283.4Z" class="g2_2093" />
<path d="M69.9,796.4l785.3,0l0,-0.7l-785.3,0l0,0.7Z" class="g2_2093" />
<path d="M69.9,820.8l785.3,0l0,-0.7l-785.3,0l0,0.7Z" class="g2_2093" />
<path d="M69.9,845.3l785.3,0l0,-0.8l-785.3,0l0,0.8Z" class="g2_2093" />
<path d="M69.9,869.7l785.3,0l0,-0.7L69.9,869l0,0.7Z" class="g2_2093" />
<path d="M69.9,894.1l785.3,0l0,-0.7l-785.3,0l0,0.7Z" class="g2_2093" />
<path d="M69.9,933.9l785.3,0l0,-0.7l-785.3,0l0,0.7Z" class="g2_2093" />
<path d="M69.9,958.3l785.3,0l0,-0.7l-785.3,0l0,0.7Z" class="g2_2093" />
<path d="M69.9,982.8l785.3,0l0,-0.8L69.9,982l0,0.8Z" class="g2_2093" />
<path d="M69.9,1007.2l785.3,0l0,-0.7l-785.3,0l0,0.7Z" class="g2_2093" />
<path d="M69.9,1031.6l785.3,0l0,-0.7l-785.3,0l0,0.7Z" class="g2_2093" />
<path d="M69.9,1056.1l785.3,0l0,-0.7l-785.3,0l0,0.7Z" class="g2_2093" />
<path d="M69.9,1080.6l785.3,0l0,-0.8l-785.3,0l0,0.8Z" class="g2_2093" />
</svg>