<?xml version="1.0" encoding="UTF-8" standalone="no"?>
<!DOCTYPE svg PUBLIC "-//W3C//DTD SVG 1.1//EN"
"http://www.w3.org/Graphics/SVG/1.1/DTD/svg11.dtd">
<svg viewBox="0 0 935 1210" version="1.1" xmlns="http://www.w3.org/2000/svg" xmlns:xlink="http://www.w3.org/1999/xlink">
<defs>
<style type="text/css"><![CDATA[
.g1_510{
fill: #FFFFFF;
}
.g2_510{
}
]]></style>
</defs>
<path d="M165,1149.3l687.5,0l0,-21.2l-687.5,0l0,21.2Z" class="g1_510" />
<path d="M68.8,1149.3l82.5,0l0,-21.2l-82.5,0l0,21.2Z" class="g1_510" />
<path d="M68.8,218.1l0.8,0l0,-83.3l-0.8,0l0,83.3Z" class="g2_510" />
<path d="M208.8,218.9l0.7,0l0,-84.8l-0.7,0l0,84.8Z" class="g2_510" />
<path d="M345.1,218.9l0.8,0l0,-84.8l-0.8,0l0,84.8Z" class="g2_510" />
<path d="M424.2,218.9l0.8,0l0,-84.8l-0.8,0l0,84.8Z" class="g2_510" />
<path d="M525.2,218.9l0.8,0l0,-84.8l-0.8,0l0,84.8Z" class="g2_510" />
<path d="M851.6,218.1l0.7,0l0,-83.3l-0.7,0l0,83.3Z" class="g2_510" />
<path d="M68.8,134.8l783.5,0l0,-0.7l-783.5,0l0,0.7Z" class="g2_510" />
<path d="M68.8,173l783.5,0l0,-0.8l-783.5,0l0,0.8Z" class="g2_510" />
<path d="M68.8,195.9l783.5,0l0,-0.7l-783.5,0l0,0.7Z" class="g2_510" />
<path d="M68.8,218.8l783.5,0l0,-0.7l-783.5,0l0,0.7Z" class="g2_510" />
</svg>