<?xml version="1.0" encoding="UTF-8" standalone="no"?>
<!DOCTYPE svg PUBLIC "-//W3C//DTD SVG 1.1//EN"
"http://www.w3.org/Graphics/SVG/1.1/DTD/svg11.dtd">
<svg viewBox="0 0 935 1210" version="1.1" xmlns="http://www.w3.org/2000/svg" xmlns:xlink="http://www.w3.org/1999/xlink">
<defs>
<style type="text/css"><![CDATA[
.g1_95{
fill: #FFFFFF;
}
.g2_95{
}
]]></style>
</defs>
<path d="M68.9,1149.3l783.8,0l0,-21.2l-783.8,0l0,21.2Z" class="g1_95" />
<path d="M69.3,774.2l0.7,0L70,176.1l-0.7,0l0,598.1Z" class="g2_95" />
<path d="M209,775l0.7,0l0,-599.6l-0.7,0L209,775Z" class="g2_95" />
<path d="M245.7,775l0.7,0l0,-599.6l-0.7,0l0,599.6Z" class="g2_95" />
<path d="M287.7,775l0.7,0l0,-599.6l-0.7,0l0,599.6Z" class="g2_95" />
<path d="M327,775l0.7,0l0,-599.6l-0.7,0L327,775Z" class="g2_95" />
<path d="M362.5,775l0.8,0l0,-599.6l-0.8,0l0,599.6Z" class="g2_95" />
<path d="M852.7,774.2l0.7,0l0,-598.1l-0.7,0l0,598.1Z" class="g2_95" />
<path d="M69.3,176.1l784.1,0l0,-0.7l-784.1,0l0,0.7Z" class="g2_95" />
<path d="M69.3,279.9l784.1,0l0,-0.7l-784.1,0l0,0.7Z" class="g2_95" />
<path d="M209,304.4l644.4,0l0,-0.7l-644.4,0l0,0.7Z" class="g2_95" />
<path d="M209,438.9l644.4,0l0,-0.7l-644.4,0l0,0.7Z" class="g2_95" />
<path d="M209,463.3l644.4,0l0,-0.8l-644.4,0l0,0.8Z" class="g2_95" />
<path d="M209,487.8l644.4,0l0,-0.8L209,487l0,0.8Z" class="g2_95" />
<path d="M69.3,512.2l784.1,0l0,-0.7l-784.1,0l0,0.7Z" class="g2_95" />
<path d="M69.3,553.5l784.1,0l0,-0.8l-784.1,0l0,0.8Z" class="g2_95" />
<path d="M209,577.9l644.4,0l0,-0.8l-644.4,0l0,0.8Z" class="g2_95" />
<path d="M69.3,602.3l784.1,0l0,-0.7l-784.1,0l0,0.7Z" class="g2_95" />
<path d="M209,626.8l644.4,0l0,-0.7l-644.4,0l0,0.7Z" class="g2_95" />
<path d="M209,651.2l644.4,0l0,-0.7l-644.4,0l0,0.7Z" class="g2_95" />
<path d="M69.3,692.4l784.1,0l0,-0.7l-784.1,0l0,0.7Z" class="g2_95" />
<path d="M69.3,733.7l784.1,0l0,-0.7L69.3,733l0,0.7Z" class="g2_95" />
<path d="M69.3,774.9l784.1,0l0,-0.7l-784.1,0l0,0.7Z" class="g2_95" />
</svg>