<?xml version="1.0" encoding="UTF-8" standalone="no"?>
<!DOCTYPE svg PUBLIC "-//W3C//DTD SVG 1.1//EN"
"http://www.w3.org/Graphics/SVG/1.1/DTD/svg11.dtd">
<svg viewBox="0 0 935 1210" version="1.1" xmlns="http://www.w3.org/2000/svg" xmlns:xlink="http://www.w3.org/1999/xlink">
<defs>
<style type="text/css"><![CDATA[
.g1_2149{
fill: #FFFFFF;
}
.g2_2149{
}
]]></style>
</defs>
<path d="M68.9,1149.3l783.8,0l0,-21.2l-783.8,0l0,21.2Z" class="g1_2149" />
<path d="M69.9,1084.4l0.8,0l0,-977.1l-0.8,0l0,977.1Z" class="g2_2149" />
<path d="M445.2,1085.2l0.8,0l0,-978.6l-0.8,0l0,978.6Z" class="g2_2149" />
<path d="M851.3,1084.4l0.7,0l0,-977.1l-0.7,0l0,977.1Z" class="g2_2149" />
<path d="M69.9,107.3l782.1,0l0,-0.7l-782.1,0l0,0.7Z" class="g2_2149" />
<path d="M69.9,131.7l782.1,0l0,-0.7L69.9,131l0,0.7Z" class="g2_2149" />
<path d="M69.9,156.2l782.1,0l0,-0.7l-782.1,0l0,0.7Z" class="g2_2149" />
<path d="M69.9,180.7l782.1,0l0,-0.8l-782.1,0l0,0.8Z" class="g2_2149" />
<path d="M69.9,205.1l782.1,0l0,-0.8l-782.1,0l0,0.8Z" class="g2_2149" />
<path d="M69.9,229.5l782.1,0l0,-0.7l-782.1,0l0,0.7Z" class="g2_2149" />
<path d="M69.9,254L852,254l0,-0.7l-782.1,0l0,0.7Z" class="g2_2149" />
<path d="M69.9,278.4l782.1,0l0,-0.7l-782.1,0l0,0.7Z" class="g2_2149" />
<path d="M69.9,302.9l782.1,0l0,-0.8l-782.1,0l0,0.8Z" class="g2_2149" />
<path d="M69.9,327.3l782.1,0l0,-0.7l-782.1,0l0,0.7Z" class="g2_2149" />
<path d="M69.9,351.7l782.1,0l0,-0.7L69.9,351l0,0.7Z" class="g2_2149" />
<path d="M69.9,376.2l782.1,0l0,-0.7l-782.1,0l0,0.7Z" class="g2_2149" />
<path d="M69.9,400.7l782.1,0l0,-0.8l-782.1,0l0,0.8Z" class="g2_2149" />
<path d="M69.9,425.2l782.1,0l0,-0.8l-782.1,0l0,0.8Z" class="g2_2149" />
<path d="M69.9,449.5l782.1,0l0,-0.7l-782.1,0l0,0.7Z" class="g2_2149" />
<path d="M69.9,474L852,474l0,-0.7l-782.1,0l0,0.7Z" class="g2_2149" />
<path d="M69.9,498.5l782.1,0l0,-0.8l-782.1,0l0,0.8Z" class="g2_2149" />
<path d="M69.9,522.9l782.1,0l0,-0.8l-782.1,0l0,0.8Z" class="g2_2149" />
<path d="M69.9,547.3l782.1,0l0,-0.7l-782.1,0l0,0.7Z" class="g2_2149" />
<path d="M69.9,571.8l782.1,0l0,-0.7l-782.1,0l0,0.7Z" class="g2_2149" />
<path d="M69.9,596.2l782.1,0l0,-0.7l-782.1,0l0,0.7Z" class="g2_2149" />
<path d="M69.9,620.7l782.1,0l0,-0.8l-782.1,0l0,0.8Z" class="g2_2149" />
<path d="M69.9,645.2l782.1,0l0,-0.8l-782.1,0l0,0.8Z" class="g2_2149" />
<path d="M69.9,669.5l782.1,0l0,-0.7l-782.1,0l0,0.7Z" class="g2_2149" />
<path d="M69.9,694L852,694l0,-0.7l-782.1,0l0,0.7Z" class="g2_2149" />
<path d="M69.9,718.5l782.1,0l0,-0.7l-782.1,0l0,0.7Z" class="g2_2149" />
<path d="M69.9,742.9l782.1,0l0,-0.8l-782.1,0l0,0.8Z" class="g2_2149" />
<path d="M69.9,767.3l782.1,0l0,-0.7l-782.1,0l0,0.7Z" class="g2_2149" />
<path d="M69.9,791.8l782.1,0l0,-0.7l-782.1,0l0,0.7Z" class="g2_2149" />
<path d="M69.9,816.2l782.1,0l0,-0.7l-782.1,0l0,0.7Z" class="g2_2149" />
<path d="M69.9,840.7l782.1,0l0,-0.8l-782.1,0l0,0.8Z" class="g2_2149" />
<path d="M69.9,865.2l782.1,0l0,-0.8l-782.1,0l0,0.8Z" class="g2_2149" />
<path d="M69.9,889.5l782.1,0l0,-0.7l-782.1,0l0,0.7Z" class="g2_2149" />
<path d="M69.9,914L852,914l0,-0.7l-782.1,0l0,0.7Z" class="g2_2149" />
<path d="M69.9,938.5l782.1,0l0,-0.7l-782.1,0l0,0.7Z" class="g2_2149" />
<path d="M69.9,962.9l782.1,0l0,-0.8l-782.1,0l0,0.8Z" class="g2_2149" />
<path d="M69.9,987.3l782.1,0l0,-0.7l-782.1,0l0,0.7Z" class="g2_2149" />
<path d="M69.9,1011.8l782.1,0l0,-0.7l-782.1,0l0,0.7Z" class="g2_2149" />
<path d="M69.9,1036.2l782.1,0l0,-0.7l-782.1,0l0,0.7Z" class="g2_2149" />
<path d="M69.9,1060.7l782.1,0l0,-0.8l-782.1,0l0,0.8Z" class="g2_2149" />
<path d="M69.9,1085.2l782.1,0l0,-0.8l-782.1,0l0,0.8Z" class="g2_2149" />
</svg>