<?xml version="1.0" encoding="UTF-8" standalone="no"?>
<!DOCTYPE svg PUBLIC "-//W3C//DTD SVG 1.1//EN"
"http://www.w3.org/Graphics/SVG/1.1/DTD/svg11.dtd">
<svg viewBox="0 0 935 1210" version="1.1" xmlns="http://www.w3.org/2000/svg" xmlns:xlink="http://www.w3.org/1999/xlink">
<defs>
<style type="text/css"><![CDATA[
.g1_2184{
fill: #FFFFFF;
}
.g2_2184{
}
]]></style>
</defs>
<path d="M68.8,1149.3l783.7,0l0,-21.2l-783.7,0l0,21.2Z" class="g1_2184" />
<path d="M69,398.4l0.8,0l0,-274.3l-0.8,0l0,274.3Z" class="g2_2184" />
<path d="M260.9,399.1l0.7,0l0,-275.7l-0.7,0l0,275.7Z" class="g2_2184" />
<path d="M851.4,398.4l0.7,0l0,-274.3l-0.7,0l0,274.3Z" class="g2_2184" />
<path d="M69,124.1l783.1,0l0,-0.7L69,123.4l0,0.7Z" class="g2_2184" />
<path d="M69,147l783.1,0l0,-0.7L69,146.3l0,0.7Z" class="g2_2184" />
<path d="M260.9,169.9l591.2,0l0,-0.7l-591.2,0l0,0.7Z" class="g2_2184" />
<path d="M260.9,192.9l591.2,0l0,-0.8l-591.2,0l0,0.8Z" class="g2_2184" />
<path d="M260.9,215.8l591.2,0l0,-0.8l-591.2,0l0,0.8Z" class="g2_2184" />
<path d="M260.9,238.7l591.2,0l0,-0.7l-591.2,0l0,0.7Z" class="g2_2184" />
<path d="M69,261.6l783.1,0l0,-0.7L69,260.9l0,0.7Z" class="g2_2184" />
<path d="M69,284.5l783.1,0l0,-0.7L69,283.8l0,0.7Z" class="g2_2184" />
<path d="M69,307.4l783.1,0l0,-0.7L69,306.7l0,0.7Z" class="g2_2184" />
<path d="M69,330.4l783.1,0l0,-0.8L69,329.6l0,0.8Z" class="g2_2184" />
<path d="M69,353.3l783.1,0l0,-0.7L69,352.6l0,0.7Z" class="g2_2184" />
<path d="M69,376.2l783.1,0l0,-0.7L69,375.5l0,0.7Z" class="g2_2184" />
<path d="M69,399.1l783.1,0l0,-0.7L69,398.4l0,0.7Z" class="g2_2184" />
<path d="M69.2,1095.1l0.7,0L69.9,500l-0.7,0l0,595.1Z" class="g2_2184" />
<path d="M186.8,1095.9l0.8,0l0,-596.7l-0.8,0l0,596.7Z" class="g2_2184" />
<path d="M851.1,1095.1l0.8,0l0,-595.1l-0.8,0l0,595.1Z" class="g2_2184" />
<path d="M69.2,499.9l782.7,0l0,-0.7l-782.7,0l0,0.7Z" class="g2_2184" />
<path d="M69.2,522.9l782.7,0l0,-0.8l-782.7,0l0,0.8Z" class="g2_2184" />
<path d="M69.2,545.8l782.7,0l0,-0.7l-782.7,0l0,0.7Z" class="g2_2184" />
<path d="M69.2,568.7l782.7,0l0,-0.7L69.2,568l0,0.7Z" class="g2_2184" />
<path d="M69.2,605.4l782.7,0l0,-0.8l-782.7,0l0,0.8Z" class="g2_2184" />
<path d="M69.2,642l782.7,0l0,-0.7l-782.7,0l0,0.7Z" class="g2_2184" />
<path d="M69.2,664.9l782.7,0l0,-0.7l-782.7,0l0,0.7Z" class="g2_2184" />
<path d="M69.2,687.9l782.7,0l0,-0.8l-782.7,0l0,0.8Z" class="g2_2184" />
<path d="M69.2,710.8l782.7,0l0,-0.8L69.2,710l0,0.8Z" class="g2_2184" />
<path d="M69.2,733.7l782.7,0l0,-0.7L69.2,733l0,0.7Z" class="g2_2184" />
<path d="M69.2,756.6l782.7,0l0,-0.7l-782.7,0l0,0.7Z" class="g2_2184" />
<path d="M69.2,779.5l782.7,0l0,-0.7l-782.7,0l0,0.7Z" class="g2_2184" />
<path d="M69.2,816.2l782.7,0l0,-0.7l-782.7,0l0,0.7Z" class="g2_2184" />
<path d="M69.2,852.9l782.7,0l0,-0.8l-782.7,0l0,0.8Z" class="g2_2184" />
<path d="M69.2,875.8l782.7,0l0,-0.7l-782.7,0l0,0.7Z" class="g2_2184" />
<path d="M69.2,912.5l782.7,0l0,-0.8l-782.7,0l0,0.8Z" class="g2_2184" />
<path d="M69.2,935.4l782.7,0l0,-0.8l-782.7,0l0,0.8Z" class="g2_2184" />
<path d="M69.2,958.3l782.7,0l0,-0.7l-782.7,0l0,0.7Z" class="g2_2184" />
<path d="M69.2,981.2l782.7,0l0,-0.7l-782.7,0l0,0.7Z" class="g2_2184" />
<path d="M69.2,1004.1l782.7,0l0,-0.7l-782.7,0l0,0.7Z" class="g2_2184" />
<path d="M69.2,1027l782.7,0l0,-0.7l-782.7,0l0,0.7Z" class="g2_2184" />
<path d="M69.2,1050l782.7,0l0,-0.8l-782.7,0l0,0.8Z" class="g2_2184" />
<path d="M69.2,1072.9l782.7,0l0,-0.8l-782.7,0l0,0.8Z" class="g2_2184" />
<path d="M69.2,1095.8l782.7,0l0,-0.8l-782.7,0l0,0.8Z" class="g2_2184" />
</svg>