<?xml version="1.0" encoding="UTF-8" standalone="no"?>
<!DOCTYPE svg PUBLIC "-//W3C//DTD SVG 1.1//EN"
"http://www.w3.org/Graphics/SVG/1.1/DTD/svg11.dtd">
<svg viewBox="0 0 935 1210" version="1.1" xmlns="http://www.w3.org/2000/svg" xmlns:xlink="http://www.w3.org/1999/xlink">
<defs>
<style type="text/css"><![CDATA[
.g1_2042{
fill: #FFFFFF;
}
.g2_2042{
}
]]></style>
</defs>
<path d="M68.8,1149l784.5,0l0,-21.4l-784.5,0l0,21.4Z" class="g1_2042" />
<path d="M67.5,899.5l2.3,0l0,-81.7l-2.3,0l0,81.7Z" class="g2_2042" />
<path d="M165.6,901.8l2.2,0l0,-63.4l-2.2,0l0,63.4Z" class="g2_2042" />
<path d="M263.6,901.8l2.3,0l0,-63.4l-2.3,0l0,63.4Z" class="g2_2042" />
<path d="M361.7,901.8l2.3,0l0,-63.4l-2.3,0l0,63.4Z" class="g2_2042" />
<path d="M459.8,901.8l2.3,0l0,-63.4l-2.3,0l0,63.4Z" class="g2_2042" />
<path d="M557.9,901.8l2.3,0l0,-63.4l-2.3,0l0,63.4Z" class="g2_2042" />
<path d="M656,901.8l2.3,0l0,-63.4l-2.3,0l0,63.4Z" class="g2_2042" />
<path d="M754.1,901.8l2.3,0l0,-63.4l-2.3,0l0,63.4Z" class="g2_2042" />
<path d="M852.2,899.5l2.3,0l0,-81.7l-2.3,0l0,81.7Z" class="g2_2042" />
<path d="M67.4,817.9l787,0l0,-2.3l-787,0l0,2.3Z" class="g2_2042" />
<path d="M67.4,840.8l787,0l0,-2.3l-787,0l0,2.3Z" class="g2_2042" />
<path d="M67.4,863.7l787,0l0,-2.3l-787,0l0,2.3Z" class="g2_2042" />
<path d="M67.4,901.8l787,0l0,-2.3l-787,0l0,2.3Z" class="g2_2042" />
</svg>