<?xml version="1.0" encoding="UTF-8" standalone="no"?>
<!DOCTYPE svg PUBLIC "-//W3C//DTD SVG 1.1//EN"
"http://www.w3.org/Graphics/SVG/1.1/DTD/svg11.dtd">
<svg viewBox="0 0 935 1210" version="1.1" xmlns="http://www.w3.org/2000/svg" xmlns:xlink="http://www.w3.org/1999/xlink">
<defs>
<style type="text/css"><![CDATA[
.g1_1375{
fill: #FFFFFF;
}
.g2_1375{
}
]]></style>
</defs>
<path d="M68.9,1149.3l686.3,0l0,-21.2l-686.3,0l0,21.2Z" class="g1_1375" />
<path d="M771.3,1149.3l83.7,0l0,-21.2l-83.7,0l0,21.2Z" class="g1_1375" />
<path d="M69.9,413.7l0.8,0l0,-288l-0.8,0l0,288Z" class="g2_1375" />
<path d="M290.1,414.4l0.8,0l0,-289.5l-0.8,0l0,289.5Z" class="g2_1375" />
<path d="M333.3,414.4l0.7,0l0,-289.5l-0.7,0l0,289.5Z" class="g2_1375" />
<path d="M409.6,414.4l0.7,0l0,-289.5l-0.7,0l0,289.5Z" class="g2_1375" />
<path d="M495,414.4l0.7,0l0,-289.5l-0.7,0l0,289.5Z" class="g2_1375" />
<path d="M850.3,413.7l0.7,0l0,-288l-0.7,0l0,288Z" class="g2_1375" />
<path d="M69.9,125.7l781.2,0l0,-0.8l-781.2,0l0,0.8Z" class="g2_1375" />
<path d="M69.9,176.1l781.2,0l0,-0.7l-781.2,0l0,0.7Z" class="g2_1375" />
<path d="M69.9,215.8l781.2,0l0,-0.8L69.9,215l0,0.8Z" class="g2_1375" />
<path d="M69.9,255.5l781.2,0l0,-0.8l-781.2,0l0,0.8Z" class="g2_1375" />
<path d="M69.9,295.3l781.2,0l0,-0.8l-781.2,0l0,0.8Z" class="g2_1375" />
<path d="M69.9,334.9l781.2,0l0,-0.7l-781.2,0l0,0.7Z" class="g2_1375" />
<path d="M69.9,374.6l781.2,0l0,-0.7l-781.2,0l0,0.7Z" class="g2_1375" />
<path d="M69.9,414.4l781.2,0l0,-0.7l-781.2,0l0,0.7Z" class="g2_1375" />
<path d="M71.5,517.6l0.7,0l0,-48.2l-0.7,0l0,48.2Z" class="g2_1375" />
<path d="M162.6,518.3l0.8,0l0,-49.6l-0.8,0l0,49.6Z" class="g2_1375" />
<path d="M330.7,518.3l0.8,0l0,-49.6l-0.8,0l0,49.6Z" class="g2_1375" />
<path d="M500.8,518.3l0.7,0l0,-49.6l-0.7,0l0,49.6Z" class="g2_1375" />
<path d="M675.9,518.3l0.7,0l0,-49.6l-0.7,0l0,49.6Z" class="g2_1375" />
<path d="M850.5,517.6l0.7,0l0,-48.2l-0.7,0l0,48.2Z" class="g2_1375" />
<path d="M71.5,469.4l779.7,0l0,-0.7l-779.7,0l0,0.7Z" class="g2_1375" />
<path d="M71.5,493.9l779.7,0l0,-0.7l-779.7,0l0,0.7Z" class="g2_1375" />
<path d="M71.5,518.3l779.7,0l0,-0.7l-779.7,0l0,0.7Z" class="g2_1375" />
</svg>