<?xml version="1.0" encoding="UTF-8" standalone="no"?>
<!DOCTYPE svg PUBLIC "-//W3C//DTD SVG 1.1//EN"
"http://www.w3.org/Graphics/SVG/1.1/DTD/svg11.dtd">
<svg viewBox="0 0 935 1210" version="1.1" xmlns="http://www.w3.org/2000/svg" xmlns:xlink="http://www.w3.org/1999/xlink">
<defs>
<style type="text/css"><![CDATA[
.g1_54{
fill: #FFFFFF;
}
.g2_54{
}
]]></style>
</defs>
<path d="M68.8,1149.3l783.7,0l0,-21.2l-783.7,0l0,21.2Z" class="g1_54" />
<path d="M67.8,1067.6l2.3,0l0,-330l-2.3,0l0,330Z" class="g2_54" />
<path d="M208.7,1068.4l0.8,0l0,-242.9l-0.8,0l0,242.9Z" class="g2_54" />
<path d="M248.2,1068.4l0.8,0l0,-266.7l-0.8,0l0,266.7Z" class="g2_54" />
<path d="M292.3,1068.4l0.8,0l0,-266.7l-0.8,0l0,266.7Z" class="g2_54" />
<path d="M353.7,1068.4l2.3,0l0,-333.1l-2.3,0l0,333.1Z" class="g2_54" />
<path d="M416.5,802.5l0.8,0l0,-67.2l-0.8,0l0,67.2Z" class="g2_54" />
<path d="M416.5,1068.4l0.8,0l0,-242.9l-0.8,0l0,242.9Z" class="g2_54" />
<path d="M478.7,802.5l0.7,0l0,-67.2l-0.7,0l0,67.2Z" class="g2_54" />
<path d="M478.7,1068.4l0.7,0l0,-242.9l-0.7,0l0,242.9Z" class="g2_54" />
<path d="M540.8,802.5l0.8,0l0,-67.2l-0.8,0l0,67.2Z" class="g2_54" />
<path d="M540.8,1068.4l0.8,0l0,-242.9l-0.8,0l0,242.9Z" class="g2_54" />
<path d="M602.9,802.5l0.7,0l0,-67.2l-0.7,0l0,67.2Z" class="g2_54" />
<path d="M602.9,1068.4l0.7,0l0,-242.9l-0.7,0l0,242.9Z" class="g2_54" />
<path d="M665,802.5l0.8,0l0,-67.2l-0.8,0l0,67.2Z" class="g2_54" />
<path d="M665,1068.4l0.8,0l0,-242.9l-0.8,0l0,242.9Z" class="g2_54" />
<path d="M727.2,802.5l0.7,0l0,-67.2l-0.7,0l0,67.2Z" class="g2_54" />
<path d="M727.2,1068.4l0.7,0l0,-242.9l-0.7,0l0,242.9Z" class="g2_54" />
<path d="M789.3,802.5l0.8,0l0,-67.2l-0.8,0l0,67.2Z" class="g2_54" />
<path d="M789.3,1068.4l0.8,0l0,-242.9l-0.8,0l0,242.9Z" class="g2_54" />
<path d="M850.7,1067.6l2.3,0l0,-330l-2.3,0l0,330Z" class="g2_54" />
<path d="M67.7,737.6l785.3,0l0,-2.2l-785.3,0l0,2.2Z" class="g2_54" />
<path d="M67.7,802.4l785.3,0l0,-0.7l-785.3,0l0,0.7Z" class="g2_54" />
<path d="M67.7,827.8l785.3,0l0,-2.3l-785.3,0l0,2.3Z" class="g2_54" />
<path d="M67.7,947.7l785.3,0l0,-0.8l-785.3,0l0,0.8Z" class="g2_54" />
<path d="M67.7,1068.3l785.3,0l0,-0.8l-785.3,0l0,0.8Z" class="g2_54" />
</svg>