<?xml version="1.0" encoding="UTF-8" standalone="no"?>
<!DOCTYPE svg PUBLIC "-//W3C//DTD SVG 1.1//EN"
"http://www.w3.org/Graphics/SVG/1.1/DTD/svg11.dtd">
<svg viewBox="0 0 935 1210" version="1.1" xmlns="http://www.w3.org/2000/svg" xmlns:xlink="http://www.w3.org/1999/xlink">
<defs>
<style type="text/css"><![CDATA[
.g1_539{
fill: #FFFFFF;
}
.g2_539{
}
]]></style>
</defs>
<path d="M68.9,1149.3l686.3,0l0,-21.2l-686.3,0l0,21.2Z" class="g1_539" />
<path d="M771.3,1149.3l83.7,0l0,-21.2l-83.7,0l0,21.2Z" class="g1_539" />
<path d="M71.5,348l0.7,0l0,-222.3l-0.7,0l0,222.3Z" class="g2_539" />
<path d="M389.6,348.7l0.7,0l0,-223.8l-0.7,0l0,223.8Z" class="g2_539" />
<path d="M427.4,348.7l0.8,0l0,-223.8l-0.8,0l0,223.8Z" class="g2_539" />
<path d="M500.9,348.7l0.7,0l0,-223.8l-0.7,0l0,223.8Z" class="g2_539" />
<path d="M572.2,348.7l0.7,0l0,-223.8l-0.7,0l0,223.8Z" class="g2_539" />
<path d="M850.5,348l0.7,0l0,-222.3l-0.7,0l0,222.3Z" class="g2_539" />
<path d="M71.5,125.7l779.8,0l0,-0.8l-779.8,0l0,0.8Z" class="g2_539" />
<path d="M71.5,179.1l779.8,0l0,-0.7l-779.8,0l0,0.7Z" class="g2_539" />
<path d="M71.5,235.7l779.8,0l0,-0.8l-779.8,0l0,0.8Z" class="g2_539" />
<path d="M71.5,292.1l779.8,0l0,-0.7l-779.8,0l0,0.7Z" class="g2_539" />
<path d="M71.5,348.7l779.8,0l0,-0.7L71.5,348l0,0.7Z" class="g2_539" />
<path d="M70.5,476.3l0.7,0l0,-72.6l-0.7,0l0,72.6Z" class="g2_539" />
<path d="M143.5,477l0.7,0l0,-74l-0.7,0l0,74Z" class="g2_539" />
<path d="M311.3,477l0.7,0l0,-74l-0.7,0l0,74Z" class="g2_539" />
<path d="M498.8,477l0.7,0l0,-74l-0.7,0l0,74Z" class="g2_539" />
<path d="M675.5,477l0.7,0l0,-74l-0.7,0l0,74Z" class="g2_539" />
<path d="M851.5,476.3l0.7,0l0,-72.6l-0.7,0l0,72.6Z" class="g2_539" />
<path d="M70.5,403.7l781.8,0l0,-0.7L70.5,403l0,0.7Z" class="g2_539" />
<path d="M70.5,428.2l781.8,0l0,-0.8l-781.8,0l0,0.8Z" class="g2_539" />
<path d="M70.5,452.7l781.8,0l0,-0.8l-781.8,0l0,0.8Z" class="g2_539" />
<path d="M70.5,477l781.8,0l0,-0.7l-781.8,0l0,0.7Z" class="g2_539" />
</svg>