<?xml version="1.0" encoding="UTF-8" standalone="no"?>
<!DOCTYPE svg PUBLIC "-//W3C//DTD SVG 1.1//EN"
"http://www.w3.org/Graphics/SVG/1.1/DTD/svg11.dtd">
<svg viewBox="0 0 935 1210" version="1.1" xmlns="http://www.w3.org/2000/svg" xmlns:xlink="http://www.w3.org/1999/xlink">
<defs>
<style type="text/css"><![CDATA[
.g1_166{
fill: #FFFFFF;
}
.g2_166{
}
]]></style>
</defs>
<path d="M165,1149.3l687.5,0l0,-21.2l-687.5,0l0,21.2Z" class="g1_166" />
<path d="M68.8,1149.3l82.5,0l0,-21.2l-82.5,0l0,21.2Z" class="g1_166" />
<path d="M68.6,479.3l0.7,0l0,-353.6l-0.7,0l0,353.6Z" class="g2_166" />
<path d="M298,480.2l0.7,0l0,-355.3l-0.7,0l0,355.3Z" class="g2_166" />
<path d="M344.3,480.2l0.7,0l0,-355.3l-0.7,0l0,355.3Z" class="g2_166" />
<path d="M418.7,480.2l0.8,0l0,-355.3l-0.8,0l0,355.3Z" class="g2_166" />
<path d="M504.7,480.2l0.7,0l0,-355.3l-0.7,0l0,355.3Z" class="g2_166" />
<path d="M852.4,479.3l0.7,0l0,-353.6l-0.7,0l0,353.6Z" class="g2_166" />
<path d="M68.6,125.7l784.5,0l0,-0.8l-784.5,0l0,0.8Z" class="g2_166" />
<path d="M68.6,176.1l784.5,0l0,-0.7l-784.5,0l0,0.7Z" class="g2_166" />
<path d="M68.6,212.8l784.5,0l0,-0.8L68.6,212l0,0.8Z" class="g2_166" />
<path d="M68.6,266.2l784.5,0l0,-0.7l-784.5,0l0,0.7Z" class="g2_166" />
<path d="M68.6,319.6l784.5,0l0,-0.7l-784.5,0l0,0.7Z" class="g2_166" />
<path d="M68.6,373.2l784.5,0l0,-0.8l-784.5,0l0,0.8Z" class="g2_166" />
<path d="M68.6,426.6l784.5,0l0,-0.7l-784.5,0l0,0.7Z" class="g2_166" />
<path d="M68.6,480.2l784.5,0l0,-0.8l-784.5,0l0,0.8Z" class="g2_166" />
<path d="M69.8,632.1l0.7,0l0,-96.9l-0.7,0l0,96.9Z" class="g2_166" />
<path d="M209.7,632.9l0.8,0l0,-98.6l-0.8,0l0,98.6Z" class="g2_166" />
<path d="M357.1,632.9l0.8,0l0,-98.6l-0.8,0l0,98.6Z" class="g2_166" />
<path d="M567.4,632.9l0.8,0l0,-98.6l-0.8,0l0,98.6Z" class="g2_166" />
<path d="M716.5,632.9l0.7,0l0,-98.6l-0.7,0l0,98.6Z" class="g2_166" />
<path d="M850.7,632.1l0.7,0l0,-96.9l-0.7,0l0,96.9Z" class="g2_166" />
<path d="M69.8,535.2l781.6,0l0,-0.8l-781.6,0l0,0.8Z" class="g2_166" />
<path d="M69.8,559.5l781.6,0l0,-0.7l-781.6,0l0,0.7Z" class="g2_166" />
<path d="M69.8,584l781.6,0l0,-0.7l-781.6,0l0,0.7Z" class="g2_166" />
<path d="M69.8,608.5l781.6,0l0,-0.8l-781.6,0l0,0.8Z" class="g2_166" />
<path d="M69.8,632.9l781.6,0l0,-0.8l-781.6,0l0,0.8Z" class="g2_166" />
</svg>