<?xml version="1.0" encoding="UTF-8" standalone="no"?>
<!DOCTYPE svg PUBLIC "-//W3C//DTD SVG 1.1//EN"
"http://www.w3.org/Graphics/SVG/1.1/DTD/svg11.dtd">
<svg viewBox="0 0 935 1210" version="1.1" xmlns="http://www.w3.org/2000/svg" xmlns:xlink="http://www.w3.org/1999/xlink">
<defs>
<style type="text/css"><![CDATA[
.g1_2112{
fill: #FFFFFF;
}
.g2_2112{
}
]]></style>
</defs>
<path d="M68.8,1149.3l783.7,0l0,-21.2l-783.7,0l0,21.2Z" class="g1_2112" />
<path d="M68.6,615.4l0.7,0l0,-485.1l-0.7,0l0,485.1Z" class="g2_2112" />
<path d="M446,616.1l0.7,0l0,-486.6l-0.7,0l0,486.6Z" class="g2_2112" />
<path d="M852.5,615.4l0.7,0l0,-485.1l-0.7,0l0,485.1Z" class="g2_2112" />
<path d="M68.6,130.3l784.7,0l0,-0.8l-784.7,0l0,0.8Z" class="g2_2112" />
<path d="M68.6,154.6l784.7,0l0,-0.7l-784.7,0l0,0.7Z" class="g2_2112" />
<path d="M68.6,179.1l784.7,0l0,-0.7l-784.7,0l0,0.7Z" class="g2_2112" />
<path d="M68.6,203.6l784.7,0l0,-0.7l-784.7,0l0,0.7Z" class="g2_2112" />
<path d="M68.6,228l784.7,0l0,-0.8l-784.7,0l0,0.8Z" class="g2_2112" />
<path d="M68.6,252.4l784.7,0l0,-0.7l-784.7,0l0,0.7Z" class="g2_2112" />
<path d="M68.6,276.9l784.7,0l0,-0.7l-784.7,0l0,0.7Z" class="g2_2112" />
<path d="M68.6,301.3l784.7,0l0,-0.7l-784.7,0l0,0.7Z" class="g2_2112" />
<path d="M68.6,325.8l784.7,0l0,-0.7l-784.7,0l0,0.7Z" class="g2_2112" />
<path d="M68.6,350.3l784.7,0l0,-0.8l-784.7,0l0,0.8Z" class="g2_2112" />
<path d="M68.6,389.9l784.7,0l0,-0.7l-784.7,0l0,0.7Z" class="g2_2112" />
<path d="M68.6,414.4l784.7,0l0,-0.7l-784.7,0l0,0.7Z" class="g2_2112" />
<path d="M68.6,438.9l784.7,0l0,-0.7l-784.7,0l0,0.7Z" class="g2_2112" />
<path d="M68.6,478.6l784.7,0l0,-0.7l-784.7,0l0,0.7Z" class="g2_2112" />
<path d="M68.6,503.1l784.7,0l0,-0.8l-784.7,0l0,0.8Z" class="g2_2112" />
<path d="M68.6,527.4l784.7,0l0,-0.7l-784.7,0l0,0.7Z" class="g2_2112" />
<path d="M68.6,567.2l784.7,0l0,-0.7l-784.7,0l0,0.7Z" class="g2_2112" />
<path d="M68.6,591.6l784.7,0l0,-0.7l-784.7,0l0,0.7Z" class="g2_2112" />
<path d="M68.6,616.1l784.7,0l0,-0.7l-784.7,0l0,0.7Z" class="g2_2112" />
<path d="M68.6,1089l0.7,0l0,-326.2l-0.7,0l0,326.2Z" class="g2_2112" />
<path d="M445.9,1089.7l0.7,0l0,-327.7l-0.7,0l0,327.7Z" class="g2_2112" />
<path d="M851.6,1089l0.7,0l0,-326.2l-0.7,0l0,326.2Z" class="g2_2112" />
<path d="M68.6,762.8l783.7,0l0,-0.8L68.6,762l0,0.8Z" class="g2_2112" />
<path d="M68.6,787.2l783.7,0l0,-0.7l-783.7,0l0,0.7Z" class="g2_2112" />
<path d="M68.6,811.6l783.7,0l0,-0.7l-783.7,0l0,0.7Z" class="g2_2112" />
<path d="M68.6,836.1l783.7,0l0,-0.7l-783.7,0l0,0.7Z" class="g2_2112" />
<path d="M68.6,860.6l783.7,0l0,-0.8l-783.7,0l0,0.8Z" class="g2_2112" />
<path d="M68.6,901.8l783.7,0l0,-0.7l-783.7,0l0,0.7Z" class="g2_2112" />
<path d="M68.6,926.2l783.7,0l0,-0.7l-783.7,0l0,0.7Z" class="g2_2112" />
<path d="M68.6,950.7l783.7,0l0,-0.8l-783.7,0l0,0.8Z" class="g2_2112" />
<path d="M68.6,975.2l783.7,0l0,-0.8l-783.7,0l0,0.8Z" class="g2_2112" />
<path d="M68.6,999.5l783.7,0l0,-0.7l-783.7,0l0,0.7Z" class="g2_2112" />
<path d="M68.6,1040.8l783.7,0l0,-0.8l-783.7,0l0,0.8Z" class="g2_2112" />
<path d="M68.6,1065.3l783.7,0l0,-0.8l-783.7,0l0,0.8Z" class="g2_2112" />
<path d="M68.6,1089.7l783.7,0l0,-0.7l-783.7,0l0,0.7Z" class="g2_2112" />
</svg>