<?xml version="1.0" encoding="UTF-8" standalone="no"?>
<!DOCTYPE svg PUBLIC "-//W3C//DTD SVG 1.1//EN"
"http://www.w3.org/Graphics/SVG/1.1/DTD/svg11.dtd">
<svg viewBox="0 0 935 1210" version="1.1" xmlns="http://www.w3.org/2000/svg" xmlns:xlink="http://www.w3.org/1999/xlink">
<defs>
<style type="text/css"><![CDATA[
.g1_150{
fill: #FFFFFF;
}
.g2_150{
}
]]></style>
</defs>
<path d="M165,1149.3l687.5,0l0,-21.2l-687.5,0l0,21.2Z" class="g1_150" />
<path d="M68.8,1149.3l82.5,0l0,-21.2l-82.5,0l0,21.2Z" class="g1_150" />
<path d="M68.6,251.7l0.7,0l0,-126l-0.7,0l0,126Z" class="g2_150" />
<path d="M267.2,252.4l0.7,0l0,-127.5l-0.7,0l0,127.5Z" class="g2_150" />
<path d="M308.3,252.4l0.7,0l0,-127.5l-0.7,0l0,127.5Z" class="g2_150" />
<path d="M382.7,252.4l0.7,0l0,-127.5l-0.7,0l0,127.5Z" class="g2_150" />
<path d="M450.4,252.4l0.7,0l0,-127.5l-0.7,0l0,127.5Z" class="g2_150" />
<path d="M850.2,251.7l0.7,0l0,-126l-0.7,0l0,126Z" class="g2_150" />
<path d="M68.6,125.7l782.3,0l0,-0.8l-782.3,0l0,0.8Z" class="g2_150" />
<path d="M68.6,179.1l782.3,0l0,-0.7l-782.3,0l0,0.7Z" class="g2_150" />
<path d="M68.6,215.8l782.3,0l0,-0.8L68.6,215l0,0.8Z" class="g2_150" />
<path d="M68.6,252.4l782.3,0l0,-0.7l-782.3,0l0,0.7Z" class="g2_150" />
<path d="M73.7,355.6l0.7,0l0,-48.2l-0.7,0l0,48.2Z" class="g2_150" />
<path d="M171.4,356.4l0.8,0l0,-49.7l-0.8,0l0,49.7Z" class="g2_150" />
<path d="M335.8,356.4l0.7,0l0,-49.7l-0.7,0l0,49.7Z" class="g2_150" />
<path d="M507.9,356.4l0.8,0l0,-49.7l-0.8,0l0,49.7Z" class="g2_150" />
<path d="M680.5,356.4l0.8,0l0,-49.7l-0.8,0l0,49.7Z" class="g2_150" />
<path d="M846.7,355.6l0.8,0l0,-48.2l-0.8,0l0,48.2Z" class="g2_150" />
<path d="M73.7,307.4l773.8,0l0,-0.7l-773.8,0l0,0.7Z" class="g2_150" />
<path d="M73.7,331.9l773.8,0l0,-0.7l-773.8,0l0,0.7Z" class="g2_150" />
<path d="M73.7,356.3l773.8,0l0,-0.7l-773.8,0l0,0.7Z" class="g2_150" />
</svg>