<?xml version="1.0" encoding="UTF-8" standalone="no"?>
<!DOCTYPE svg PUBLIC "-//W3C//DTD SVG 1.1//EN"
"http://www.w3.org/Graphics/SVG/1.1/DTD/svg11.dtd">
<svg viewBox="0 0 935 1210" version="1.1" xmlns="http://www.w3.org/2000/svg" xmlns:xlink="http://www.w3.org/1999/xlink">
<defs>
<style type="text/css"><![CDATA[
.g1_833{
fill: #FFFFFF;
}
.g2_833{
}
]]></style>
</defs>
<path d="M68.9,1149.3l686.3,0l0,-21.2l-686.3,0l0,21.2Z" class="g1_833" />
<path d="M771.3,1149.3l83.7,0l0,-21.2l-83.7,0l0,21.2Z" class="g1_833" />
<path d="M68.6,558.8l0.7,0l0,-451.5l-0.7,0l0,451.5Z" class="g2_833" />
<path d="M385.6,559.5l0.8,0l0,-452.9l-0.8,0l0,452.9Z" class="g2_833" />
<path d="M423.4,559.5l0.7,0l0,-452.9l-0.7,0l0,452.9Z" class="g2_833" />
<path d="M496.8,559.5l0.8,0l0,-452.9l-0.8,0l0,452.9Z" class="g2_833" />
<path d="M575.1,559.5l0.8,0l0,-452.9l-0.8,0l0,452.9Z" class="g2_833" />
<path d="M853.4,558.8l0.7,0l0,-451.5l-0.7,0l0,451.5Z" class="g2_833" />
<path d="M68.6,107.3l785.6,0l0,-0.7l-785.6,0l0,0.7Z" class="g2_833" />
<path d="M68.6,163.8l785.6,0l0,-0.7l-785.6,0l0,0.7Z" class="g2_833" />
<path d="M68.6,220.4l785.6,0l0,-0.8l-785.6,0l0,0.8Z" class="g2_833" />
<path d="M68.6,276.9l785.6,0l0,-0.7l-785.6,0l0,0.7Z" class="g2_833" />
<path d="M68.6,333.4l785.6,0l0,-0.7l-785.6,0l0,0.7Z" class="g2_833" />
<path d="M68.6,389.9l785.6,0l0,-0.7l-785.6,0l0,0.7Z" class="g2_833" />
<path d="M68.6,446.5l785.6,0l0,-0.7l-785.6,0l0,0.7Z" class="g2_833" />
<path d="M68.6,503.1l785.6,0l0,-0.8l-785.6,0l0,0.8Z" class="g2_833" />
<path d="M68.6,559.5l785.6,0l0,-0.7l-785.6,0l0,0.7Z" class="g2_833" />
<path d="M71.6,786.5l0.7,0l0,-97.1l-0.7,0l0,97.1Z" class="g2_833" />
<path d="M146.1,787.2l0.8,0l0,-98.5l-0.8,0l0,98.5Z" class="g2_833" />
<path d="M318.7,787.2l0.8,0l0,-98.5l-0.8,0l0,98.5Z" class="g2_833" />
<path d="M500.7,787.2l0.7,0l0,-98.5l-0.7,0l0,98.5Z" class="g2_833" />
<path d="M668.6,787.2l0.8,0l0,-98.5l-0.8,0l0,98.5Z" class="g2_833" />
<path d="M850.4,786.5l0.7,0l0,-97.1l-0.7,0l0,97.1Z" class="g2_833" />
<path d="M71.6,689.4l779.5,0l0,-0.7l-779.5,0l0,0.7Z" class="g2_833" />
<path d="M71.6,713.9l779.5,0l0,-0.7l-779.5,0l0,0.7Z" class="g2_833" />
<path d="M71.6,738.3l779.5,0l0,-0.8l-779.5,0l0,0.8Z" class="g2_833" />
<path d="M71.6,762.8l779.5,0l0,-0.8L71.6,762l0,0.8Z" class="g2_833" />
<path d="M71.6,787.2l779.5,0l0,-0.7l-779.5,0l0,0.7Z" class="g2_833" />
</svg>