<?xml version="1.0" encoding="UTF-8" standalone="no"?>
<!DOCTYPE svg PUBLIC "-//W3C//DTD SVG 1.1//EN"
"http://www.w3.org/Graphics/SVG/1.1/DTD/svg11.dtd">
<svg viewBox="0 0 935 1210" version="1.1" xmlns="http://www.w3.org/2000/svg" xmlns:xlink="http://www.w3.org/1999/xlink">
<defs>
<style type="text/css"><![CDATA[
.g1_98{
fill: #FFFFFF;
}
.g2_98{
}
]]></style>
</defs>
<path d="M68.8,1149.3l783.7,0l0,-21.2l-783.7,0l0,21.2Z" class="g1_98" />
<path d="M68.5,833.8l0.7,0L69.2,202l-0.7,0l0,631.8Z" class="g2_98" />
<path d="M208.2,834.6l0.7,0l0,-633.3l-0.7,0l0,633.3Z" class="g2_98" />
<path d="M244.8,834.6l0.8,0l0,-633.3l-0.8,0l0,633.3Z" class="g2_98" />
<path d="M286.8,834.6l0.8,0l0,-633.3l-0.8,0l0,633.3Z" class="g2_98" />
<path d="M326.1,834.6l0.8,0l0,-633.3l-0.8,0l0,633.3Z" class="g2_98" />
<path d="M361.7,834.6l0.8,0l0,-633.3l-0.8,0l0,633.3Z" class="g2_98" />
<path d="M852,833.8l0.7,0l0,-631.8l-0.7,0l0,631.8Z" class="g2_98" />
<path d="M68.5,202l784.2,0l0,-0.7l-784.2,0l0,0.7Z" class="g2_98" />
<path d="M68.5,305.9l784.2,0l0,-0.7l-784.2,0l0,0.7Z" class="g2_98" />
<path d="M208.2,330.4l644.5,0l0,-0.8l-644.5,0l0,0.8Z" class="g2_98" />
<path d="M208.2,464.8l644.5,0l0,-0.7l-644.5,0l0,0.7Z" class="g2_98" />
<path d="M208.2,489.3l644.5,0l0,-0.7l-644.5,0l0,0.7Z" class="g2_98" />
<path d="M208.2,513.7l644.5,0l0,-0.7l-644.5,0l0,0.7Z" class="g2_98" />
<path d="M68.5,538.2l784.2,0l0,-0.8l-784.2,0l0,0.8Z" class="g2_98" />
<path d="M68.5,579.4l784.2,0l0,-0.7l-784.2,0l0,0.7Z" class="g2_98" />
<path d="M208.2,603.9l644.5,0l0,-0.7l-644.5,0l0,0.7Z" class="g2_98" />
<path d="M68.5,645.2l784.2,0l0,-0.8l-784.2,0l0,0.8Z" class="g2_98" />
<path d="M208.2,686.4l644.5,0l0,-0.7l-644.5,0l0,0.7Z" class="g2_98" />
<path d="M208.2,710.8l644.5,0l0,-0.8l-644.5,0l0,0.8Z" class="g2_98" />
<path d="M68.5,752l784.2,0l0,-0.7l-784.2,0l0,0.7Z" class="g2_98" />
<path d="M68.5,793.3l784.2,0l0,-0.7l-784.2,0l0,0.7Z" class="g2_98" />
<path d="M68.5,834.5l784.2,0l0,-0.7l-784.2,0l0,0.7Z" class="g2_98" />
</svg>