<?xml version="1.0" encoding="UTF-8" standalone="no"?>
<!DOCTYPE svg PUBLIC "-//W3C//DTD SVG 1.1//EN"
"http://www.w3.org/Graphics/SVG/1.1/DTD/svg11.dtd">
<svg viewBox="0 0 935 1210" version="1.1" xmlns="http://www.w3.org/2000/svg" xmlns:xlink="http://www.w3.org/1999/xlink">
<defs>
<style type="text/css"><![CDATA[
.g1_2118{
fill: #FFFFFF;
}
.g2_2118{
}
]]></style>
</defs>
<path d="M68.8,1149.3l783.7,0l0,-21.2l-783.7,0l0,21.2Z" class="g1_2118" />
<path d="M68.6,664.2l0.7,0l0,-540.1l-0.7,0l0,540.1Z" class="g2_2118" />
<path d="M467.2,664.9l0.8,0l0,-541.5l-0.8,0l0,541.5Z" class="g2_2118" />
<path d="M849.8,664.2l0.8,0l0,-540.1l-0.8,0l0,540.1Z" class="g2_2118" />
<path d="M68.6,124.1l782,0l0,-0.7l-782,0l0,0.7Z" class="g2_2118" />
<path d="M68.6,148.6l782,0l0,-0.7l-782,0l0,0.7Z" class="g2_2118" />
<path d="M68.6,173l782,0l0,-0.8l-782,0l0,0.8Z" class="g2_2118" />
<path d="M68.6,214.2l782,0l0,-0.7l-782,0l0,0.7Z" class="g2_2118" />
<path d="M68.6,255.5l782,0l0,-0.8l-782,0l0,0.8Z" class="g2_2118" />
<path d="M68.6,279.9l782,0l0,-0.7l-782,0l0,0.7Z" class="g2_2118" />
<path d="M68.6,304.4l782,0l0,-0.7l-782,0l0,0.7Z" class="g2_2118" />
<path d="M68.6,328.8l782,0l0,-0.7l-782,0l0,0.7Z" class="g2_2118" />
<path d="M68.6,353.3l782,0l0,-0.7l-782,0l0,0.7Z" class="g2_2118" />
<path d="M68.6,377.8l782,0l0,-0.8l-782,0l0,0.8Z" class="g2_2118" />
<path d="M68.6,419l782,0l0,-0.7l-782,0l0,0.7Z" class="g2_2118" />
<path d="M68.6,460.3l782,0l0,-0.8l-782,0l0,0.8Z" class="g2_2118" />
<path d="M68.6,501.5l782,0l0,-0.7l-782,0l0,0.7Z" class="g2_2118" />
<path d="M68.6,542.8l782,0l0,-0.8l-782,0l0,0.8Z" class="g2_2118" />
<path d="M68.6,567.2l782,0l0,-0.7l-782,0l0,0.7Z" class="g2_2118" />
<path d="M68.6,591.6l782,0l0,-0.7l-782,0l0,0.7Z" class="g2_2118" />
<path d="M68.6,616.1l782,0l0,-0.7l-782,0l0,0.7Z" class="g2_2118" />
<path d="M68.6,640.6l782,0l0,-0.8l-782,0l0,0.8Z" class="g2_2118" />
<path d="M68.6,664.9l782,0l0,-0.7l-782,0l0,0.7Z" class="g2_2118" />
<path d="M68.6,1098.2l0.7,0L69.3,853l-0.7,0l0,245.2Z" class="g2_2118" />
<path d="M445.7,1098.9l0.7,0l0,-246.8l-0.7,0l0,246.8Z" class="g2_2118" />
<path d="M849.9,1098.2l0.8,0l0,-245.2l-0.8,0l0,245.2Z" class="g2_2118" />
<path d="M68.6,852.9l782.1,0l0,-0.8l-782.1,0l0,0.8Z" class="g2_2118" />
<path d="M68.6,877.3l782.1,0l0,-0.7l-782.1,0l0,0.7Z" class="g2_2118" />
<path d="M68.6,901.8l782.1,0l0,-0.7l-782.1,0l0,0.7Z" class="g2_2118" />
<path d="M68.6,943.1l782.1,0l0,-0.8l-782.1,0l0,0.8Z" class="g2_2118" />
<path d="M68.6,967.5l782.1,0l0,-0.8l-782.1,0l0,0.8Z" class="g2_2118" />
<path d="M68.6,991.9l782.1,0l0,-0.7l-782.1,0l0,0.7Z" class="g2_2118" />
<path d="M68.6,1033.2l782.1,0l0,-0.8l-782.1,0l0,0.8Z" class="g2_2118" />
<path d="M68.6,1057.7l782.1,0l0,-0.8l-782.1,0l0,0.8Z" class="g2_2118" />
<path d="M68.6,1098.9l782.1,0l0,-0.7l-782.1,0l0,0.7Z" class="g2_2118" />
</svg>