<?xml version="1.0" encoding="UTF-8" standalone="no"?>
<!DOCTYPE svg PUBLIC "-//W3C//DTD SVG 1.1//EN"
"http://www.w3.org/Graphics/SVG/1.1/DTD/svg11.dtd">
<svg viewBox="0 0 935 1210" version="1.1" xmlns="http://www.w3.org/2000/svg" xmlns:xlink="http://www.w3.org/1999/xlink">
<defs>
<style type="text/css"><![CDATA[
.g1_1128{
fill: #FFFFFF;
}
.g2_1128{
}
]]></style>
</defs>
<path d="M165,1149.3l687.5,0l0,-21.2l-687.5,0l0,21.2Z" class="g1_1128" />
<path d="M68.8,1149.3l82.5,0l0,-21.2l-82.5,0l0,21.2Z" class="g1_1128" />
<path d="M66.1,525.2l0.7,0l0,-399.5l-0.7,0l0,399.5Z" class="g2_1128" />
<path d="M386.6,526l0.7,0l0,-401.1l-0.7,0l0,401.1Z" class="g2_1128" />
<path d="M424.3,526l0.8,0l0,-401.1l-0.8,0l0,401.1Z" class="g2_1128" />
<path d="M497.7,526l0.8,0l0,-401.1l-0.8,0l0,401.1Z" class="g2_1128" />
<path d="M576,526l0.8,0l0,-401.1l-0.8,0L576,526Z" class="g2_1128" />
<path d="M854.3,525.2l0.8,0l0,-399.5l-0.8,0l0,399.5Z" class="g2_1128" />
<path d="M66.1,125.7l789,0l0,-0.8l-789,0l0,0.8Z" class="g2_1128" />
<path d="M66.1,179.1l789,0l0,-0.7l-789,0l0,0.7Z" class="g2_1128" />
<path d="M66.1,223.4l789,0l0,-0.7l-789,0l0,0.7Z" class="g2_1128" />
<path d="M66.1,267.8l789,0l0,-0.8l-789,0l0,0.8Z" class="g2_1128" />
<path d="M66.1,312l789,0l0,-0.7l-789,0l0,0.7Z" class="g2_1128" />
<path d="M66.1,356.3l789,0l0,-0.7l-789,0l0,0.7Z" class="g2_1128" />
<path d="M66.1,412.9l789,0l0,-0.8l-789,0l0,0.8Z" class="g2_1128" />
<path d="M66.1,469.4l789,0l0,-0.7l-789,0l0,0.7Z" class="g2_1128" />
<path d="M66.1,526l789,0l0,-0.8l-789,0l0,0.8Z" class="g2_1128" />
<path d="M69.7,755.9l0.7,0l0,-97l-0.7,0l0,97Z" class="g2_1128" />
<path d="M141.6,756.6l0.8,0l0,-98.5l-0.8,0l0,98.5Z" class="g2_1128" />
<path d="M314.7,756.6l0.7,0l0,-98.5l-0.7,0l0,98.5Z" class="g2_1128" />
<path d="M487.5,756.6l0.7,0l0,-98.5l-0.7,0l0,98.5Z" class="g2_1128" />
<path d="M672.3,756.6l0.7,0l0,-98.5l-0.7,0l0,98.5Z" class="g2_1128" />
<path d="M850.8,755.9l0.7,0l0,-97l-0.7,0l0,97Z" class="g2_1128" />
<path d="M69.7,658.9l781.8,0l0,-0.7l-781.8,0l0,0.7Z" class="g2_1128" />
<path d="M69.7,683.3l781.8,0l0,-0.7l-781.8,0l0,0.7Z" class="g2_1128" />
<path d="M69.7,707.8l781.8,0l0,-0.8L69.7,707l0,0.8Z" class="g2_1128" />
<path d="M69.7,732.2l781.8,0l0,-0.7l-781.8,0l0,0.7Z" class="g2_1128" />
<path d="M69.7,756.6l781.8,0l0,-0.7l-781.8,0l0,0.7Z" class="g2_1128" />
</svg>