<?xml version="1.0" encoding="UTF-8" standalone="no"?>
<!DOCTYPE svg PUBLIC "-//W3C//DTD SVG 1.1//EN"
"http://www.w3.org/Graphics/SVG/1.1/DTD/svg11.dtd">
<svg viewBox="0 0 935 1210" version="1.1" xmlns="http://www.w3.org/2000/svg" xmlns:xlink="http://www.w3.org/1999/xlink">
<defs>
<style type="text/css"><![CDATA[
.g1_42{
fill: #FFFFFF;
}
.g2_42{
}
]]></style>
</defs>
<path d="M68.8,1149.3l783.7,0l0,-21.2l-783.7,0l0,21.2Z" class="g1_42" />
<path d="M170.5,557.6l0.7,0l0,-179.8l-0.7,0l0,179.8Z" class="g2_42" />
<path d="M749.8,557.6l0.8,0l0,-179.8l-0.8,0l0,179.8Z" class="g2_42" />
<path d="M170.5,377.8l580.1,0l0,-0.8l-580.1,0l0,0.8Z" class="g2_42" />
<path d="M170.5,558.3l580.1,0l0,-0.7l-580.1,0l0,0.7Z" class="g2_42" />
<path d="M176,412l569,0l0,-1.5l-569,0l0,1.5Z" class="g2_42" />
<path d="M743.4,453.3l1.6,0l0,-42.1l-1.6,0l0,42.1Z" class="g2_42" />
<path d="M175.3,453.3l568.8,0l0,-1.6l-568.8,0l0,1.6Z" class="g2_42" />
<path d="M175.3,452.5l1.5,0l0,-42l-1.5,0l0,42Z" class="g2_42" />
<path d="M307.7,411.2l0.5,0l0,-0.2l-0.5,0l0,0.2Z" class="g2_42" />
<path d="M307.7,452.7l0.5,0l0,-41.5l-0.5,0l0,41.5Z" class="g2_42" />
<path d="M395,410.2l0.4,0l0,-0.2l-0.4,0l0,0.2Z" class="g2_42" />
<path d="M395,451.6l0.4,0l0,-41.4l-0.4,0l0,41.4Z" class="g2_42" />
<path d="M475.7,411.2l0.4,0l0,-0.2l-0.4,0l0,0.2Z" class="g2_42" />
<path d="M475.7,452.7l0.4,0l0,-41.5l-0.4,0l0,41.5Z" class="g2_42" />
<path d="M549.5,412.1l0.5,0l0,-0.1l-0.5,0l0,0.1Z" class="g2_42" />
<path d="M549.5,453.6l0.5,0l0,-41.5l-0.5,0l0,41.5Z" class="g2_42" />
<path d="M655.7,412.1l0.4,0l0,-0.1l-0.4,0l0,0.1Z" class="g2_42" />
<path d="M655.7,453.6l0.4,0l0,-41.5l-0.4,0l0,41.5Z" class="g2_42" />
<path d="M660.1,511.4l84.2,0l0,-52.7l-84.2,0l0,52.7Z" class="g1_42" />
<path d="M563.2,512.3l84.2,0l0,-52.7l-84.2,0l0,52.7Z" class="g1_42" />
<path d="M480.4,486.6l71.8,0l0,-27l-71.8,0l0,27Z" class="g1_42" />
<path d="M398.8,511.2l72.5,0l0,-49.7l-72.5,0l0,49.7Z" class="g1_42" />
<path d="M323.6,530.1l53.7,0l0,-72.3l-53.7,0l0,72.3Z" class="g1_42" />
<path d="M249.2,518.7l52.4,0l0,-59.1l-52.4,0l0,59.1Z" class="g1_42" />
<path d="M243.4,411.4l0.4,0l0,-0.2l-0.4,0l0,0.2Z" class="g2_42" />
<path d="M243.4,452.8l0.4,0l0,-41.4l-0.4,0l0,41.4Z" class="g2_42" />
</svg>