<?xml version="1.0" encoding="UTF-8" standalone="no"?>
<!DOCTYPE svg PUBLIC "-//W3C//DTD SVG 1.1//EN"
"http://www.w3.org/Graphics/SVG/1.1/DTD/svg11.dtd">
<svg viewBox="0 0 935 1210" version="1.1" xmlns="http://www.w3.org/2000/svg" xmlns:xlink="http://www.w3.org/1999/xlink">
<defs>
<style type="text/css"><![CDATA[
.g1_73{
fill: #FFFFFF;
}
.g2_73{
}
]]></style>
</defs>
<path d="M68.9,1149.3l783.8,0l0,-21.2l-783.8,0l0,21.2Z" class="g1_73" />
<path d="M76.5,203.4l272.6,0l0,-27.7l-272.6,0l0,27.7Z" class="g1_73" />
<path d="M349.1,203.4l159.6,0l0,-27.7l-159.6,0l0,27.7Z" class="g1_73" />
<path d="M508.7,175.7l337.6,0l0,27.7l-337.6,0Z" class="g1_73" />
<path d="M76.5,227.9l124.9,0l0,-24.5l-124.9,0l0,24.5Z" class="g1_73" />
<path d="M201.4,227.9l147.7,0l0,-24.5l-147.7,0l0,24.5Z" class="g1_73" />
<path d="M349.1,227.9l159.6,0l0,-24.5l-159.6,0l0,24.5Z" class="g1_73" />
<path d="M508.7,203.4l337.6,0l0,24.5l-337.6,0Z" class="g1_73" />
<path d="M76.5,252.4l124.9,0l0,-24.5l-124.9,0l0,24.5Z" class="g1_73" />
<path d="M201.4,252.4l147.7,0l0,-24.5l-147.7,0l0,24.5Z" class="g1_73" />
<path d="M349.1,252.4l159.6,0l0,-24.5l-159.6,0l0,24.5Z" class="g1_73" />
<path d="M508.7,227.9l337.6,0l0,24.5l-337.6,0Z" class="g1_73" />
<path d="M76.5,276.8l124.9,0l0,-24.4l-124.9,0l0,24.4Z" class="g1_73" />
<path d="M201.4,276.8l147.7,0l0,-24.4l-147.7,0l0,24.4Z" class="g1_73" />
<path d="M349.1,276.8l159.6,0l0,-24.4l-159.6,0l0,24.4Z" class="g1_73" />
<path d="M508.7,252.4l337.6,0l0,24.4l-337.6,0Z" class="g1_73" />
<path d="M76.5,304.9l124.9,0l0,-28.1l-124.9,0l0,28.1Z" class="g1_73" />
<path d="M201.4,304.9l147.7,0l0,-28.1l-147.7,0l0,28.1Z" class="g1_73" />
<path d="M349.1,304.9l159.6,0l0,-28.1l-159.6,0l0,28.1Z" class="g1_73" />
<path d="M76.5,334.5l769.8,0l0,-29.6l-769.8,0l0,29.6Z" class="g1_73" />
<path d="M77.5,327.8l53.4,0l0,-12.4l-53.4,0l0,12.4Z" class="g1_73" />
<path d="M508.7,276.8l337.6,0l0,28.1l-337.6,0Z" class="g1_73" />
<path d="M76.1,304.5l0.7,0l0,-128.4l-0.7,0l0,128.4Z" class="g2_73" />
<path d="M201,305.2l0.8,0l0,-129.8l-0.8,0l0,129.8Z" class="g2_73" />
<path d="M348.7,305.2l0.7,0l0,-129.8l-0.7,0l0,129.8Z" class="g2_73" />
<path d="M508.3,305.2l0.7,0l0,-129.8l-0.7,0l0,129.8Z" class="g2_73" />
<path d="M845.9,304.5l0.7,0l0,-128.4l-0.7,0l0,128.4Z" class="g2_73" />
<path d="M76.1,176.1l770.5,0l0,-0.7l-770.5,0l0,0.7Z" class="g2_73" />
<path d="M76.1,203.8l770.5,0l0,-0.8L76.1,203l0,0.8Z" class="g2_73" />
<path d="M76.1,228.3l770.5,0l0,-0.8l-770.5,0l0,0.8Z" class="g2_73" />
<path d="M76.1,252.7l770.5,0l0,-0.7L76.1,252l0,0.7Z" class="g2_73" />
<path d="M76.1,277.2l770.5,0l0,-0.7l-770.5,0l0,0.7Z" class="g2_73" />
<path d="M76.1,305.2l770.5,0l0,-0.7l-770.5,0l0,0.7Z" class="g2_73" />
</svg>