<?xml version="1.0" encoding="UTF-8" standalone="no"?>
<!DOCTYPE svg PUBLIC "-//W3C//DTD SVG 1.1//EN"
"http://www.w3.org/Graphics/SVG/1.1/DTD/svg11.dtd">
<svg viewBox="0 0 935 1210" version="1.1" xmlns="http://www.w3.org/2000/svg" xmlns:xlink="http://www.w3.org/1999/xlink">
<defs>
<style type="text/css"><![CDATA[
.g1_1898{
fill: #FFFFFF;
}
.g2_1898{
}
]]></style>
</defs>
<path d="M165,1149.3l687.5,0l0,-21.2l-687.5,0l0,21.2Z" class="g1_1898" />
<path d="M68.8,1149.3l82.5,0l0,-21.2l-82.5,0l0,21.2Z" class="g1_1898" />
<path d="M68.6,335.8l0.7,0l0,-210.1l-0.7,0l0,210.1Z" class="g2_1898" />
<path d="M300.3,336.5l0.7,0l0,-211.6l-0.7,0l0,211.6Z" class="g2_1898" />
<path d="M344.9,336.5l0.8,0l0,-211.6l-0.8,0l0,211.6Z" class="g2_1898" />
<path d="M417.2,336.5l0.7,0l0,-211.6l-0.7,0l0,211.6Z" class="g2_1898" />
<path d="M503.1,336.5l0.7,0l0,-211.6l-0.7,0l0,211.6Z" class="g2_1898" />
<path d="M855.8,335.8l0.7,0l0,-210.1l-0.7,0l0,210.1Z" class="g2_1898" />
<path d="M68.6,125.7l787.9,0l0,-0.8l-787.9,0l0,0.8Z" class="g2_1898" />
<path d="M68.6,176.1l787.9,0l0,-0.7l-787.9,0l0,0.7Z" class="g2_1898" />
<path d="M68.6,229.5l787.9,0l0,-0.7l-787.9,0l0,0.7Z" class="g2_1898" />
<path d="M68.6,283l787.9,0l0,-0.8l-787.9,0l0,0.8Z" class="g2_1898" />
<path d="M68.6,336.5l787.9,0l0,-0.7l-787.9,0l0,0.7Z" class="g2_1898" />
<path d="M70.7,439.6l0.7,0l0,-48.1l-0.7,0l0,48.1Z" class="g2_1898" />
<path d="M180.1,440.4l0.8,0l0,-49.6l-0.8,0l0,49.6Z" class="g2_1898" />
<path d="M343,440.4l0.8,0l0,-49.6l-0.8,0l0,49.6Z" class="g2_1898" />
<path d="M509.6,440.4l0.7,0l0,-49.6l-0.7,0l0,49.6Z" class="g2_1898" />
<path d="M680.4,440.4l0.8,0l0,-49.6l-0.8,0l0,49.6Z" class="g2_1898" />
<path d="M849.7,439.6l0.7,0l0,-48.1l-0.7,0l0,48.1Z" class="g2_1898" />
<path d="M70.7,391.5l779.7,0l0,-0.7l-779.7,0l0,0.7Z" class="g2_1898" />
<path d="M70.7,416l779.7,0l0,-0.7l-779.7,0l0,0.7Z" class="g2_1898" />
<path d="M70.7,440.4l779.7,0l0,-0.8l-779.7,0l0,0.8Z" class="g2_1898" />
<path d="M69.3,982.7l0.7,0l0,-72.6l-0.7,0l0,72.6Z" class="g2_1898" />
<path d="M273.9,983.4l0.7,0l0,-74.1l-0.7,0l0,74.1Z" class="g2_1898" />
<path d="M682.3,983.4l0.7,0l0,-74.1l-0.7,0l0,74.1Z" class="g2_1898" />
<path d="M851,982.7l0.8,0l0,-72.6l-0.8,0l0,72.6Z" class="g2_1898" />
<path d="M69.3,910.1l782.5,0l0,-0.8l-782.5,0l0,0.8Z" class="g2_1898" />
<path d="M69.3,934.5l782.5,0l0,-0.8l-782.5,0l0,0.8Z" class="g2_1898" />
<path d="M69.3,958.9l782.5,0l0,-0.7l-782.5,0l0,0.7Z" class="g2_1898" />
<path d="M69.3,983.4l782.5,0l0,-0.7l-782.5,0l0,0.7Z" class="g2_1898" />
</svg>