<?xml version="1.0" encoding="UTF-8" standalone="no"?>
<!DOCTYPE svg PUBLIC "-//W3C//DTD SVG 1.1//EN"
"http://www.w3.org/Graphics/SVG/1.1/DTD/svg11.dtd">
<svg viewBox="0 0 935 1210" version="1.1" xmlns="http://www.w3.org/2000/svg" xmlns:xlink="http://www.w3.org/1999/xlink">
<defs>
<style type="text/css"><![CDATA[
.g1_972{
fill: #FFFFFF;
}
.g2_972{
}
]]></style>
</defs>
<path d="M165,1149.3l687.5,0l0,-21.2l-687.5,0l0,21.2Z" class="g1_972" />
<path d="M68.8,1149.3l82.5,0l0,-21.2l-82.5,0l0,21.2Z" class="g1_972" />
<path d="M68.6,916.3l0.7,0l0,-790.6l-0.7,0l0,790.6Z" class="g2_972" />
<path d="M310.4,842.2l0.7,0l0,-717.3l-0.7,0l0,717.3Z" class="g2_972" />
<path d="M356.2,842.2l0.8,0l0,-717.3l-0.8,0l0,717.3Z" class="g2_972" />
<path d="M430.7,842.2l0.8,0l0,-717.3l-0.8,0l0,717.3Z" class="g2_972" />
<path d="M517.8,842.2l0.8,0l0,-717.3l-0.8,0l0,717.3Z" class="g2_972" />
<path d="M852.4,916.3l0.7,0l0,-790.6l-0.7,0l0,790.6Z" class="g2_972" />
<path d="M68.6,125.7l784.5,0l0,-0.8l-784.5,0l0,0.8Z" class="g2_972" />
<path d="M68.6,176.1l784.5,0l0,-0.7l-784.5,0l0,0.7Z" class="g2_972" />
<path d="M68.6,217.3l784.5,0l0,-0.7l-784.5,0l0,0.7Z" class="g2_972" />
<path d="M68.6,270.8l784.5,0l0,-0.7l-784.5,0l0,0.7Z" class="g2_972" />
<path d="M68.6,307.4l784.5,0l0,-0.7l-784.5,0l0,0.7Z" class="g2_972" />
<path d="M68.6,360.9l784.5,0l0,-0.7l-784.5,0l0,0.7Z" class="g2_972" />
<path d="M68.6,414.4l784.5,0l0,-0.7l-784.5,0l0,0.7Z" class="g2_972" />
<path d="M68.6,467.9l784.5,0l0,-0.8l-784.5,0l0,0.8Z" class="g2_972" />
<path d="M68.6,521.4l784.5,0l0,-0.7l-784.5,0l0,0.7Z" class="g2_972" />
<path d="M68.6,574.8l784.5,0l0,-0.7l-784.5,0l0,0.7Z" class="g2_972" />
<path d="M68.6,628.3l784.5,0l0,-0.7l-784.5,0l0,0.7Z" class="g2_972" />
<path d="M68.6,681.8l784.5,0l0,-0.7l-784.5,0l0,0.7Z" class="g2_972" />
<path d="M68.6,735.3l784.5,0l0,-0.8l-784.5,0l0,0.8Z" class="g2_972" />
<path d="M68.6,788.7l784.5,0l0,-0.7L68.6,788l0,0.7Z" class="g2_972" />
<path d="M68.6,842.2l784.5,0l0,-0.7l-784.5,0l0,0.7Z" class="g2_972" />
<path d="M68.6,917l784.5,0l0,-0.7l-784.5,0l0,0.7Z" class="g2_972" />
<path d="M68.3,1069.1l0.7,0l0,-97l-0.7,0l0,97Z" class="g2_972" />
<path d="M203.2,1069.8l0.8,0l0,-98.5l-0.8,0l0,98.5Z" class="g2_972" />
<path d="M352.5,1069.8l0.7,0l0,-98.5l-0.7,0l0,98.5Z" class="g2_972" />
<path d="M565.3,1069.8l0.7,0l0,-98.5l-0.7,0l0,98.5Z" class="g2_972" />
<path d="M716.3,1069.8l0.7,0l0,-98.5l-0.7,0l0,98.5Z" class="g2_972" />
<path d="M852.1,1069.1l0.8,0l0,-97l-0.8,0l0,97Z" class="g2_972" />
<path d="M68.2,972l784.7,0l0,-0.7l-784.7,0l0,0.7Z" class="g2_972" />
<path d="M68.2,996.5l784.7,0l0,-0.7l-784.7,0l0,0.7Z" class="g2_972" />
<path d="M68.2,1021l784.7,0l0,-0.7l-784.7,0l0,0.7Z" class="g2_972" />
<path d="M68.2,1045.4l784.7,0l0,-0.8l-784.7,0l0,0.8Z" class="g2_972" />
<path d="M68.2,1069.8l784.7,0l0,-0.7l-784.7,0l0,0.7Z" class="g2_972" />
</svg>