<?xml version="1.0" encoding="UTF-8" standalone="no"?>
<!DOCTYPE svg PUBLIC "-//W3C//DTD SVG 1.1//EN"
"http://www.w3.org/Graphics/SVG/1.1/DTD/svg11.dtd">
<svg viewBox="0 0 935 1210" version="1.1" xmlns="http://www.w3.org/2000/svg" xmlns:xlink="http://www.w3.org/1999/xlink">
<defs>
<style type="text/css"><![CDATA[
.g1_1651{
fill: #FFFFFF;
}
.g2_1651{
}
]]></style>
</defs>
<path d="M68.9,1149.3l686.3,0l0,-21.2l-686.3,0l0,21.2Z" class="g1_1651" />
<path d="M771.3,1149.3l83.7,0l0,-21.2l-83.7,0l0,21.2Z" class="g1_1651" />
<path d="M69.9,262.4l0.8,0l0,-136.7l-0.8,0l0,136.7Z" class="g2_1651" />
<path d="M282.3,263.2l0.8,0l0,-138.3l-0.8,0l0,138.3Z" class="g2_1651" />
<path d="M325.2,263.2l0.8,0l0,-138.3l-0.8,0l0,138.3Z" class="g2_1651" />
<path d="M397.4,263.2l0.7,0l0,-138.3l-0.7,0l0,138.3Z" class="g2_1651" />
<path d="M477.4,263.2l0.7,0l0,-138.3l-0.7,0l0,138.3Z" class="g2_1651" />
<path d="M853.2,262.4l0.8,0l0,-136.7l-0.8,0l0,136.7Z" class="g2_1651" />
<path d="M69.9,125.7l784.1,0l0,-0.8l-784.1,0l0,0.8Z" class="g2_1651" />
<path d="M69.9,176.1l784.1,0l0,-0.7l-784.1,0l0,0.7Z" class="g2_1651" />
<path d="M69.9,263.2l784.1,0l0,-0.8l-784.1,0l0,0.8Z" class="g2_1651" />
<path d="M70.6,366.3l0.7,0l0,-48.1l-0.7,0l0,48.1Z" class="g2_1651" />
<path d="M183.2,367l0.8,0l0,-49.6l-0.8,0l0,49.6Z" class="g2_1651" />
<path d="M345.6,367l0.7,0l0,-49.6l-0.7,0l0,49.6Z" class="g2_1651" />
<path d="M514.2,367l0.7,0l0,-49.6l-0.7,0l0,49.6Z" class="g2_1651" />
<path d="M683.8,367l0.8,0l0,-49.6l-0.8,0l0,49.6Z" class="g2_1651" />
<path d="M851.4,366.3l0.7,0l0,-48.1l-0.7,0l0,48.1Z" class="g2_1651" />
<path d="M70.6,318.2l781.5,0l0,-0.8l-781.5,0l0,0.8Z" class="g2_1651" />
<path d="M70.6,342.6l781.5,0l0,-0.8l-781.5,0l0,0.8Z" class="g2_1651" />
<path d="M70.6,367l781.5,0l0,-0.7l-781.5,0l0,0.7Z" class="g2_1651" />
</svg>