<?xml version="1.0" encoding="UTF-8" standalone="no"?>
<!DOCTYPE svg PUBLIC "-//W3C//DTD SVG 1.1//EN"
"http://www.w3.org/Graphics/SVG/1.1/DTD/svg11.dtd">
<svg viewBox="0 0 935 1210" version="1.1" xmlns="http://www.w3.org/2000/svg" xmlns:xlink="http://www.w3.org/1999/xlink">
<defs>
<style type="text/css"><![CDATA[
.g1_1121{
fill: #FFFFFF;
}
.g2_1121{
}
]]></style>
</defs>
<path d="M68.9,1149.3l686.3,0l0,-21.2l-686.3,0l0,21.2Z" class="g1_1121" />
<path d="M771.3,1149.3l83.7,0l0,-21.2l-83.7,0l0,21.2Z" class="g1_1121" />
<path d="M65.7,1069.1l0.8,0l0,-937.3l-0.8,0l0,937.3Z" class="g2_1121" />
<path d="M388.5,1069.8l0.7,0l0,-938.8l-0.7,0l0,938.8Z" class="g2_1121" />
<path d="M426.3,1069.8l0.8,0l0,-938.8l-0.8,0l0,938.8Z" class="g2_1121" />
<path d="M499.7,1069.8l0.7,0l0,-938.8l-0.7,0l0,938.8Z" class="g2_1121" />
<path d="M580.2,1069.8l0.8,0L581,131l-0.8,0l0,938.8Z" class="g2_1121" />
<path d="M856.3,1069.1l0.7,0l0,-937.3l-0.7,0l0,937.3Z" class="g2_1121" />
<path d="M65.7,131.7l791.3,0l0,-0.7L65.7,131l0,0.7Z" class="g2_1121" />
<path d="M65.7,185.3l791.3,0l0,-0.8l-791.3,0l0,0.8Z" class="g2_1121" />
<path d="M65.7,229.5l791.3,0l0,-0.7l-791.3,0l0,0.7Z" class="g2_1121" />
<path d="M65.7,273.8l791.3,0l0,-0.7l-791.3,0l0,0.7Z" class="g2_1121" />
<path d="M65.7,318.2l791.3,0l0,-0.8l-791.3,0l0,0.8Z" class="g2_1121" />
<path d="M65.7,374.6l791.3,0l0,-0.7l-791.3,0l0,0.7Z" class="g2_1121" />
<path d="M65.7,431.2l791.3,0l0,-0.7l-791.3,0l0,0.7Z" class="g2_1121" />
<path d="M65.7,487.8l791.3,0l0,-0.8L65.7,487l0,0.8Z" class="g2_1121" />
<path d="M65.7,527.4l791.3,0l0,-0.7l-791.3,0l0,0.7Z" class="g2_1121" />
<path d="M65.7,571.8l791.3,0l0,-0.7l-791.3,0l0,0.7Z" class="g2_1121" />
<path d="M65.7,611.5l791.3,0l0,-0.7l-791.3,0l0,0.7Z" class="g2_1121" />
<path d="M65.7,651.2l791.3,0l0,-0.7l-791.3,0l0,0.7Z" class="g2_1121" />
<path d="M65.7,691L857,691l0,-0.7l-791.3,0l0,0.7Z" class="g2_1121" />
<path d="M65.7,730.7l791.3,0l0,-0.8l-791.3,0l0,0.8Z" class="g2_1121" />
<path d="M65.7,787.2l791.3,0l0,-0.7l-791.3,0l0,0.7Z" class="g2_1121" />
<path d="M65.7,843.7l791.3,0l0,-0.7L65.7,843l0,0.7Z" class="g2_1121" />
<path d="M65.7,900.3l791.3,0l0,-0.8l-791.3,0l0,0.8Z" class="g2_1121" />
<path d="M65.7,956.8l791.3,0l0,-0.7l-791.3,0l0,0.7Z" class="g2_1121" />
<path d="M65.7,1013.3l791.3,0l0,-0.7l-791.3,0l0,0.7Z" class="g2_1121" />
<path d="M65.7,1069.8l791.3,0l0,-0.7l-791.3,0l0,0.7Z" class="g2_1121" />
</svg>