<?xml version="1.0" encoding="UTF-8" standalone="no"?>
<!DOCTYPE svg PUBLIC "-//W3C//DTD SVG 1.1//EN"
"http://www.w3.org/Graphics/SVG/1.1/DTD/svg11.dtd">
<svg viewBox="0 0 935 1210" version="1.1" xmlns="http://www.w3.org/2000/svg" xmlns:xlink="http://www.w3.org/1999/xlink">
<defs>
<style type="text/css"><![CDATA[
.g1_1333{
fill: #FFFFFF;
}
.g2_1333{
}
]]></style>
</defs>
<path d="M68.9,1149.3l686.3,0l0,-21.2l-686.3,0l0,21.2Z" class="g1_1333" />
<path d="M771.3,1149.3l83.7,0l0,-21.2l-83.7,0l0,21.2Z" class="g1_1333" />
<path d="M69.9,288.4l0.8,0l0,-162.7l-0.8,0l0,162.7Z" class="g2_1333" />
<path d="M249.8,289.1l0.7,0l0,-164.2l-0.7,0l0,164.2Z" class="g2_1333" />
<path d="M294.7,289.1l0.7,0l0,-164.2l-0.7,0l0,164.2Z" class="g2_1333" />
<path d="M354.3,289.1l0.7,0l0,-164.2l-0.7,0l0,164.2Z" class="g2_1333" />
<path d="M421.9,289.1l0.8,0l0,-164.2l-0.8,0l0,164.2Z" class="g2_1333" />
<path d="M851.6,288.4l0.7,0l0,-162.7l-0.7,0l0,162.7Z" class="g2_1333" />
<path d="M69.9,125.7l782.4,0l0,-0.8l-782.4,0l0,0.8Z" class="g2_1333" />
<path d="M69.9,179.1l782.4,0l0,-0.7l-782.4,0l0,0.7Z" class="g2_1333" />
<path d="M69.9,215.8l782.4,0l0,-0.8L69.9,215l0,0.8Z" class="g2_1333" />
<path d="M69.9,252.4l782.4,0l0,-0.7l-782.4,0l0,0.7Z" class="g2_1333" />
<path d="M69.9,289.1l782.4,0l0,-0.7l-782.4,0l0,0.7Z" class="g2_1333" />
<path d="M71.6,392.2l0.7,0l0,-48.1l-0.7,0l0,48.1Z" class="g2_1333" />
<path d="M138.4,393.1l0.8,0l0,-49.7l-0.8,0l0,49.7Z" class="g2_1333" />
<path d="M315.4,393.1l0.8,0l0,-49.7l-0.8,0l0,49.7Z" class="g2_1333" />
<path d="M492,393.1l0.7,0l0,-49.7l-0.7,0l0,49.7Z" class="g2_1333" />
<path d="M665.7,393.1l0.7,0l0,-49.7l-0.7,0l0,49.7Z" class="g2_1333" />
<path d="M850.4,392.2l0.7,0l0,-48.1l-0.7,0l0,48.1Z" class="g2_1333" />
<path d="M71.6,344.1l779.5,0l0,-0.7l-779.5,0l0,0.7Z" class="g2_1333" />
<path d="M71.6,368.6l779.5,0l0,-0.7l-779.5,0l0,0.7Z" class="g2_1333" />
<path d="M71.6,393l779.5,0l0,-0.8l-779.5,0l0,0.8Z" class="g2_1333" />
</svg>