<?xml version="1.0" encoding="UTF-8" standalone="no"?>
<!DOCTYPE svg PUBLIC "-//W3C//DTD SVG 1.1//EN"
"http://www.w3.org/Graphics/SVG/1.1/DTD/svg11.dtd">
<svg viewBox="0 0 935 1210" version="1.1" xmlns="http://www.w3.org/2000/svg" xmlns:xlink="http://www.w3.org/1999/xlink">
<defs>
<style type="text/css"><![CDATA[
.g1_527{
fill: #FFFFFF;
}
.g2_527{
}
]]></style>
</defs>
<path d="M68.9,1149.3l686.3,0l0,-21.2l-686.3,0l0,21.2Z" class="g1_527" />
<path d="M771.3,1149.3l83.7,0l0,-21.2l-83.7,0l0,21.2Z" class="g1_527" />
<path d="M70.9,208.9l0.8,0l0,-77.1l-0.8,0l0,77.1Z" class="g2_527" />
<path d="M208.5,209.7l0.7,0l0,-78.7l-0.7,0l0,78.7Z" class="g2_527" />
<path d="M342.5,209.7l0.7,0l0,-78.7l-0.7,0l0,78.7Z" class="g2_527" />
<path d="M421.5,209.7l0.7,0l0,-78.7l-0.7,0l0,78.7Z" class="g2_527" />
<path d="M513.8,209.7l0.7,0l0,-78.7l-0.7,0l0,78.7Z" class="g2_527" />
<path d="M851.1,208.9l0.8,0l0,-77.1l-0.8,0l0,77.1Z" class="g2_527" />
<path d="M70.9,131.7l781,0l0,-0.7l-781,0l0,0.7Z" class="g2_527" />
<path d="M70.9,169.9l781,0l0,-0.7l-781,0l0,0.7Z" class="g2_527" />
<path d="M70.9,209.6l781,0l0,-0.7l-781,0l0,0.7Z" class="g2_527" />
<path d="M72.9,688.7l0.7,0l0,-219.3l-0.7,0l0,219.3Z" class="g2_527" />
<path d="M156.7,689.4l2.3,0l0,-194.8l-2.3,0l0,194.8Z" class="g2_527" />
<path d="M230.4,689.4l2.3,0l0,-197.1l-2.3,0l0,197.1Z" class="g2_527" />
<path d="M422.4,689.4l0.7,0l0,-197.1l-0.7,0l0,197.1Z" class="g2_527" />
<path d="M495.9,689.4l0.7,0l0,-197.1l-0.7,0l0,197.1Z" class="g2_527" />
<path d="M569.5,689.4l0.8,0l0,-197.1l-0.8,0l0,197.1Z" class="g2_527" />
<path d="M760.8,689.4l0.8,0l0,-197.1l-0.8,0l0,197.1Z" class="g2_527" />
<path d="M849.1,688.7l0.7,0l0,-219.3l-0.7,0l0,219.3Z" class="g2_527" />
<path d="M72.9,469.4l776.9,0l0,-0.7l-776.9,0l0,0.7Z" class="g2_527" />
<path d="M156.7,494.7l693.1,0l0,-2.3l-693.1,0l0,2.3Z" class="g2_527" />
<path d="M156.7,519.1l693.1,0l0,-2.3l-693.1,0l0,2.3Z" class="g2_527" />
<path d="M156.7,542.8l693.1,0l0,-0.8l-693.1,0l0,0.8Z" class="g2_527" />
<path d="M156.7,567.2l693.1,0l0,-0.7l-693.1,0l0,0.7Z" class="g2_527" />
<path d="M156.7,591.6l693.1,0l0,-0.7l-693.1,0l0,0.7Z" class="g2_527" />
<path d="M156.7,616.1l693.1,0l0,-0.7l-693.1,0l0,0.7Z" class="g2_527" />
<path d="M156.7,640.6l693.1,0l0,-0.8l-693.1,0l0,0.8Z" class="g2_527" />
<path d="M156.7,664.9l693.1,0l0,-0.7l-693.1,0l0,0.7Z" class="g2_527" />
<path d="M72.9,689.4l776.9,0l0,-0.7l-776.9,0l0,0.7Z" class="g2_527" />
<path d="M152.9,307.5l0.4,0l0,-0.7l-0.4,0l0,0.7Z" class="g2_527" />
<path d="M152.9,307.5l0,-0.7l-6.4,0l-0.1,0.3l0.4,0.4Z" class="g2_527" />
<path d="M142.5,322.6l0,0.3l-0.8,-0.1l0.1,-0.4Z" class="g2_527" />
<path d="M147.1,307.3l-0.7,-0.2l-4.6,15.3l0.7,0.2Z" class="g2_527" />
<path d="M141.9,322.8l0.2,0.2l0.6,-0.4l-0.2,-0.3Z" class="g2_527" />
<path d="M141.9,322.8l0.6,-0.5l-3,-4.4l-0.3,-0.5l-0.3,0.5l0,0.5Z" class="g2_527" />
<path d="M138,320.6l-0.2,0.2l-0.7,-0.4l0.2,-0.3Z" class="g2_527" />
<path d="M139.5,318.4l-0.6,-0.5l-1.6,2.2l0.7,0.5Z" class="g2_527" />
<path d="M246.1,307.5l0.4,0l0,-0.7l-0.4,0l0,0.7Z" class="g2_527" />
<path d="M246.1,307.5l0,-0.7l-6.4,0l-0.1,0.3l0.4,0.4Z" class="g2_527" />
<path d="M235.8,322.6l-0.1,0.3l-0.8,-0.1l0.1,-0.4Z" class="g2_527" />
<path d="M240.4,307.3l-0.8,-0.2L235,322.4l0.8,0.2Z" class="g2_527" />
<path d="M235.1,322.8l0.2,0.2l0.6,-0.4l-0.1,-0.3Z" class="g2_527" />
<path d="M235.1,322.8l0.7,-0.5l-3.1,-4.4l-0.2,-0.5l-0.4,0.5l0,0.5Z" class="g2_527" />
<path d="M231.2,320.6l-0.2,0.2l-0.6,-0.4l0.1,-0.3Z" class="g2_527" />
<path d="M232.7,318.4l-0.6,-0.5l-1.6,2.2l0.7,0.5Z" class="g2_527" />
<path d="M323.1,499.7l0.3,0l0,-0.6l-0.3,0l0,0.6Z" class="g2_527" />
<path d="M323.1,499.7l0,-0.6l-5,0l-0.1,0.2l0.3,0.4Z" class="g2_527" />
<path d="M314.9,511.7l-0.1,0.3l-0.6,-0.2l0.1,-0.3Z" class="g2_527" />
<path d="M318.5,499.5L318,499.3l-3.7,12.2l0.6,0.2Z" class="g2_527" />
<path d="M314.4,511.8l0.1,0.2l0.5,-0.3l-0.1,-0.2Z" class="g2_527" />
<path d="M314.4,511.8l0.5,-0.3L312.4,508l-0.2,-0.3l-0.3,0.3l0,0.3Z" class="g2_527" />
<path d="M311.2,510l-0.1,0.2l-0.4,-0.3l0,-0.1Z" class="g2_527" />
<path d="M312.4,508.3L311.9,508l-1.2,1.8l0.5,0.2Z" class="g2_527" />
<path d="M694.1,499.7l0.3,0l0,-0.6l-0.3,0l0,0.6Z" class="g2_527" />
<path d="M694.1,499.7l0,-0.6l-5,0l-0.1,0.2l0.2,0.4Z" class="g2_527" />
<path d="M685.9,511.7l-0.1,0.3l-0.6,-0.2l0.1,-0.3Z" class="g2_527" />
<path d="M689.5,499.5L689,499.3l-3.7,12.2l0.6,0.2Z" class="g2_527" />
<path d="M685.4,511.8l0.1,0.2l0.4,-0.3l-0.1,-0.2Z" class="g2_527" />
<path d="M685.4,511.8l0.4,-0.3L683.4,508l-0.2,-0.3l-0.3,0.3l0,0.3Z" class="g2_527" />
<path d="M682.2,510l-0.1,0.2l-0.5,-0.3l0.1,-0.1Z" class="g2_527" />
<path d="M683.4,508.3L682.9,508l-1.2,1.8l0.5,0.2Z" class="g2_527" />
</svg>