<?xml version="1.0" encoding="UTF-8" standalone="no"?>
<!DOCTYPE svg PUBLIC "-//W3C//DTD SVG 1.1//EN"
"http://www.w3.org/Graphics/SVG/1.1/DTD/svg11.dtd">
<svg viewBox="0 0 935 1210" version="1.1" xmlns="http://www.w3.org/2000/svg" xmlns:xlink="http://www.w3.org/1999/xlink">
<defs>
<style type="text/css"><![CDATA[
.g1_1733{
fill: #FFFFFF;
}
.g2_1733{
}
]]></style>
</defs>
<path d="M68.9,1149.3l686.3,0l0,-21.2l-686.3,0l0,21.2Z" class="g1_1733" />
<path d="M771.3,1149.3l83.7,0l0,-21.2l-83.7,0l0,21.2Z" class="g1_1733" />
<path d="M158.5,540.7l0.7,0l0,-201.2l-0.7,0l0,201.2Z" class="g2_1733" />
<path d="M763.5,540.7l0.7,0l0,-201.2l-0.7,0l0,201.2Z" class="g2_1733" />
<path d="M158.5,339.5l605.7,0l0,-0.7l-605.7,0l0,0.7Z" class="g2_1733" />
<path d="M158.5,541.4l605.7,0l0,-0.8l-605.7,0l0,0.8Z" class="g2_1733" />
<path d="M158.5,801.2l0.7,0l0,-155.9l-0.7,0l0,155.9Z" class="g2_1733" />
<path d="M763.5,801.2l0.7,0l0,-155.9l-0.7,0l0,155.9Z" class="g2_1733" />
<path d="M158.5,645.3l605.7,0l0,-0.7l-605.7,0l0,0.7Z" class="g2_1733" />
<path d="M158.5,801.9l605.7,0l0,-0.7l-605.7,0l0,0.7Z" class="g2_1733" />
<path d="M207.9,518.8l56.7,0l0,-36.1l-56.7,0l0,36.1Z" class="g1_1733" />
<path d="M207.9,483.1l57.1,0l0,-0.7l-57.1,0l0,0.7Z" class="g2_1733" />
<path d="M264.3,519.2l0.7,0l0,-36.5l-0.7,0l0,36.5Z" class="g2_1733" />
<path d="M207.5,519.2l57.1,0l0,-0.7l-57.1,0l0,0.7Z" class="g2_1733" />
<path d="M207.5,518.8l0.8,0l0,-36.4l-0.8,0l0,36.4Z" class="g2_1733" />
<path d="M321.4,518.8l56.7,0l0,-36.1l-56.7,0l0,36.1Z" class="g1_1733" />
<path d="M321.4,483.1l57.1,0l0,-0.7l-57.1,0l0,0.7Z" class="g2_1733" />
<path d="M377.8,519.2l0.7,0l0,-36.5l-0.7,0l0,36.5Z" class="g2_1733" />
<path d="M321,519.2l57.1,0l0,-0.7l-57.1,0l0,0.7Z" class="g2_1733" />
<path d="M321,518.8l0.7,0l0,-36.4l-0.7,0l0,36.4Z" class="g2_1733" />
<path d="M434.8,518.8l56.7,0l0,-36.1l-56.7,0l0,36.1Z" class="g1_1733" />
<path d="M434.8,483.1l57.1,0l0,-0.7l-57.1,0l0,0.7Z" class="g2_1733" />
<path d="M491.2,519.2l0.7,0l0,-36.5l-0.7,0l0,36.5Z" class="g2_1733" />
<path d="M434.4,519.2l57.1,0l0,-0.7l-57.1,0l0,0.7Z" class="g2_1733" />
<path d="M434.4,518.8l0.7,0l0,-36.4l-0.7,0l0,36.4Z" class="g2_1733" />
<path d="M548.3,518.8l56.7,0l0,-36.1l-56.7,0l0,36.1Z" class="g1_1733" />
<path d="M548.3,483.1l57.1,0l0,-0.7l-57.1,0l0,0.7Z" class="g2_1733" />
<path d="M604.6,519.2l0.8,0l0,-36.5l-0.8,0l0,36.5Z" class="g2_1733" />
<path d="M547.9,519.2l57.1,0l0,-0.7l-57.1,0l0,0.7Z" class="g2_1733" />
<path d="M547.9,518.8l0.7,0l0,-36.4l-0.7,0l0,36.4Z" class="g2_1733" />
<path fill-rule="evenodd" d="M483.4,465.1l0.2,0.2l0.9,0.3l0.8,-0.3l0.3,-0.2l0.1,-0.3c0.3,-0.8,0.5,-0.5,0.1,-1.3l-0.1,-0.3l-0.1,-0.3L485,462.6l-0.3,0l-0.2,-0.1l-0.3,0.1l-0.3,0l-0.5,0.3l-0.4,0.6l0,0.2l-0.1,0.3l0.1,0.3l0,0.3l0.4,0.5Z" class="g2_1733" />
<path d="M484.5,464l4.6,4.6l0.7,0.8l-0.8,0.5l-20.9,11.5l-2.4,1.3l1.3,-2.4l11.5,-20.8l0.6,-0.8l0.7,0.6l0.1,1l-11.6,20.8L467,480.3l0.3,-0.2l20.9,-11.6l0.8,1.4l-1,-0.2l-4.6,-4.6Z" class="g2_1733" />
<path d="M479.8,459.3l4.7,4.7l-1.1,1.1l-4.7,-4.7Z" class="g2_1733" />
<path fill-rule="evenodd" d="M483.9,464.6l4.7,4.5l-20.9,11.6l11.5,-20.8Z" class="g2_1733" />
<path d="M549.4,401.3l-2.2,-2.1L483.5,463l2.1,2.1Z" class="g2_1733" />
<path d="M605,400.2l56.7,0l0,-20.6l-56.7,0l0,20.6Z" class="g1_1733" />
<path d="M605,380l57.1,0l0,-0.8l-57.1,0l0,0.8Z" class="g2_1733" />
<path d="M661.4,400.6l0.7,0l0,-21l-0.7,0l0,21Z" class="g2_1733" />
<path d="M604.6,400.6l57.1,0l0,-0.7l-57.1,0l0,0.7Z" class="g2_1733" />
<path d="M604.6,400.2l0.8,0l0,-21l-0.8,0l0,21Z" class="g2_1733" />
<path fill-rule="evenodd" d="M613.2,465.1l0.3,-0.5l0,-0.3l0.1,-0.3l-0.1,-0.3l0,-0.2l-0.3,-0.6l-0.3,-0.2c-0.4,-0.3,-0.9,-0.2,-1.4,-0.1l-0.5,0.3l-0.2,0.3l-0.1,0.3l-0.2,0.5l0.3,0.8l0.2,0.3l0.2,0.2l0.9,0.3l0.8,-0.3l0.3,-0.2Z" class="g2_1733" />
<path d="M612.1,464l4.6,-4.7l0.8,-0.6l0.5,0.8l11.6,20.8l1.2,2.4l-2.3,-1.3L607.6,469.9l-0.9,-0.6l0.7,-0.7l0.9,-0.1l20.9,11.6l-0.7,1.3l-0.3,-0.3L616.6,460.3l1.4,-0.8l-0.2,0.9l-4.6,4.7Z" class="g2_1733" />
<path d="M607.4,468.6l4.7,-4.6l1.1,1.1l-4.7,4.6Z" class="g2_1733" />
<path fill-rule="evenodd" d="M612.6,464.6l4.7,-4.7l11.5,20.8L607.9,469.1Z" class="g2_1733" />
<path d="M549.4,399.2l-2.2,2.1L611,465.1l2.2,-2.1Z" class="g2_1733" />
<path fill-rule="evenodd" d="M566.6,458.9l0.3,-0.1l0.2,-0.2c1.2,-1,0.5,-2.7,-1.1,-2.7l-0.3,0.1l-0.3,0.1c-1.4,0.7,-0.8,2.9,0.6,2.9l0.3,0l0.3,-0.1Z" class="g2_1733" />
<path d="M566.2,457.5l6.3,-2l0.9,-0.2l0.1,0.9l0.5,23.9l0,2.7l-1.4,-2.3L559.4,460.6l-0.5,-0.8l1,-0.4l0.8,0.4l13.1,19.9l-1.2,0.8l-0.1,-0.4l-0.6,-23.9l1.6,0l-0.6,0.9l-6.2,2Z" class="g2_1733" />
<path d="M559.9,459.4l6.3,-1.9l0.5,1.6l-6.3,1.9Z" class="g2_1733" />
<path fill-rule="evenodd" d="M566.4,458.2l6.2,-2l0.6,23.9L560.1,460.2Z" class="g2_1733" />
<path d="M549.7,399.8l-2.9,0.9L564.7,458l2.9,-1Z" class="g2_1733" />
<path fill-rule="evenodd" d="M526.1,459.3l0.2,0.1l0.7,0l0.3,-0.1l0.1,-0.1l0.3,-0.2l0.2,-0.2l0.1,-0.3l0.1,-0.3c0,-0.7,0,-0.8,-0.5,-1.3l-0.2,-0.2l-0.2,-0.2l-0.4,-0.1c-1.5,0,-2.3,1.5,-1.3,2.7l0.3,0.2l0.3,0Z" class="g2_1733" />
<path d="M526.6,458.1l6.2,2.3l0.9,0.3l-0.7,0.8l-14.2,19.2l-1.5,2.1l0.2,-2.6l1.9,-23.9l0.2,-1l0.9,0.4l0.4,0.7L519,480.2l-1.5,0l0.1,-0.5l14.3,-19.2l1.1,1l-0.8,0.2l-6.1,-2.3Z" class="g2_1733" />
<path d="M520.5,455.7l6.1,2.4l-0.5,1.3l-6.2,-2.3Z" class="g2_1733" />
<path fill-rule="evenodd" d="M526.3,458.7l6.2,2.3l-14.2,19.2l1.9,-23.9Z" class="g2_1733" />
<path d="M549.7,400.8l-2.8,-1.1l-21.6,57.7l2.8,1.1Z" class="g2_1733" />
<path d="M548.3,400.2l56.7,0l0,-20.6l-56.7,0l0,20.6Z" class="g1_1733" />
<path d="M548.3,380l57.1,0l0,-0.8l-57.1,0l0,0.8Z" class="g2_1733" />
<path d="M604.6,400.6l0.8,0l0,-21l-0.8,0l0,21Z" class="g2_1733" />
<path d="M547.9,400.6l57.1,0l0,-0.7l-57.1,0l0,0.7Z" class="g2_1733" />
<path d="M547.9,400.2l0.7,0l0,-21l-0.7,0l0,21Z" class="g2_1733" />
<path d="M491.5,400.2l56.8,0l0,-20.6l-56.8,0l0,20.6Z" class="g1_1733" />
<path d="M491.5,380l57.1,0l0,-0.8l-57.1,0l0,0.8Z" class="g2_1733" />
<path d="M547.9,400.6l0.7,0l0,-21l-0.7,0l0,21Z" class="g2_1733" />
<path d="M491.2,400.6l57.1,0l0,-0.7l-57.1,0l0,0.7Z" class="g2_1733" />
<path d="M491.2,400.2l0.7,0l0,-21l-0.7,0l0,21Z" class="g2_1733" />
<path d="M434.8,400.2l56.7,0l0,-20.6l-56.7,0l0,20.6Z" class="g1_1733" />
<path d="M434.8,380l57.1,0l0,-0.8l-57.1,0l0,0.8Z" class="g2_1733" />
<path d="M491.2,400.6l0.7,0l0,-21l-0.7,0l0,21Z" class="g2_1733" />
<path d="M434.4,400.6l57.1,0l0,-0.7l-57.1,0l0,0.7Z" class="g2_1733" />
<path d="M434.4,400.2l0.7,0l0,-21l-0.7,0l0,21Z" class="g2_1733" />
<path d="M378.1,400.2l56.7,0l0,-20.6l-56.7,0l0,20.6Z" class="g1_1733" />
<path d="M378.1,380l57,0l0,-0.8l-57,0l0,0.8Z" class="g2_1733" />
<path d="M434.4,400.6l0.7,0l0,-21l-0.7,0l0,21Z" class="g2_1733" />
<path d="M377.8,400.6l57,0l0,-0.7l-57,0l0,0.7Z" class="g2_1733" />
<path d="M377.8,400.2l0.7,0l0,-21l-0.7,0l0,21Z" class="g2_1733" />
<path d="M321.4,400.2l56.7,0l0,-20.6l-56.7,0l0,20.6Z" class="g1_1733" />
<path d="M321.4,380l57.1,0l0,-0.8l-57.1,0l0,0.8Z" class="g2_1733" />
<path d="M377.8,400.6l0.7,0l0,-21l-0.7,0l0,21Z" class="g2_1733" />
<path d="M321,400.6l57.1,0l0,-0.7l-57.1,0l0,0.7Z" class="g2_1733" />
<path d="M321,400.2l0.7,0l0,-21l-0.7,0l0,21Z" class="g2_1733" />
<path d="M264.6,400.2l56.8,0l0,-20.6l-56.8,0l0,20.6Z" class="g1_1733" />
<path d="M264.6,380l57.2,0l0,-0.8l-57.2,0l0,0.8Z" class="g2_1733" />
<path d="M321,400.6l0.7,0l0,-21l-0.7,0l0,21Z" class="g2_1733" />
<path d="M264.3,400.6l57.1,0l0,-0.7l-57.1,0l0,0.7Z" class="g2_1733" />
<path d="M264.3,400.2l0.7,0l0,-21l-0.7,0l0,21Z" class="g2_1733" />
<path d="M207.9,400.2l56.7,0l0,-20.6l-56.7,0l0,20.6Z" class="g1_1733" />
<path d="M207.9,380l57.1,0l0,-0.8l-57.1,0l0,0.8Z" class="g2_1733" />
<path d="M264.3,400.6l0.7,0l0,-21l-0.7,0l0,21Z" class="g2_1733" />
<path d="M207.5,400.6l57.1,0l0,-0.7l-57.1,0l0,0.7Z" class="g2_1733" />
<path d="M207.5,400.2l0.8,0l0,-21l-0.8,0l0,21Z" class="g2_1733" />
<path d="M605,518.8l56.7,0l0,-36.1l-56.7,0l0,36.1Z" class="g1_1733" />
<path d="M605,483.1l57.1,0l0,-0.7l-57.1,0l0,0.7Z" class="g2_1733" />
<path d="M661.4,519.2l0.7,0l0,-36.5l-0.7,0l0,36.5Z" class="g2_1733" />
<path d="M604.6,519.2l57.1,0l0,-0.7l-57.1,0l0,0.7Z" class="g2_1733" />
<path d="M604.6,518.8l0.8,0l0,-36.4l-0.8,0l0,36.4Z" class="g2_1733" />
<path d="M264.6,518.8l56.8,0l0,-36.1l-56.8,0l0,36.1Z" class="g1_1733" />
<path d="M264.6,483.1l57.2,0l0,-0.7l-57.2,0l0,0.7Z" class="g2_1733" />
<path d="M321,519.2l0.7,0l0,-36.5l-0.7,0l0,36.5Z" class="g2_1733" />
<path d="M264.3,519.2l57.1,0l0,-0.7l-57.1,0l0,0.7Z" class="g2_1733" />
<path d="M264.3,518.8l0.7,0l0,-36.4l-0.7,0l0,36.4Z" class="g2_1733" />
<path d="M378.1,518.8l56.7,0l0,-36.1l-56.7,0l0,36.1Z" class="g1_1733" />
<path d="M378.1,483.1l57,0l0,-0.7l-57,0l0,0.7Z" class="g2_1733" />
<path d="M434.4,519.2l0.7,0l0,-36.5l-0.7,0l0,36.5Z" class="g2_1733" />
<path d="M377.8,519.2l57,0l0,-0.7l-57,0l0,0.7Z" class="g2_1733" />
<path d="M377.8,518.8l0.7,0l0,-36.4l-0.7,0l0,36.4Z" class="g2_1733" />
<path d="M491.5,518.8l56.8,0l0,-36.1l-56.8,0l0,36.1Z" class="g1_1733" />
<path d="M491.5,483.1l57.1,0l0,-0.7l-57.1,0l0,0.7Z" class="g2_1733" />
<path d="M547.9,519.2l0.7,0l0,-36.5l-0.7,0l0,36.5Z" class="g2_1733" />
<path d="M491.2,519.2l57.1,0l0,-0.7l-57.1,0l0,0.7Z" class="g2_1733" />
<path d="M491.2,518.8l0.7,0l0,-36.4l-0.7,0l0,36.4Z" class="g2_1733" />
<path fill-rule="evenodd" d="M256.5,465.1l0.3,0.2l0.2,0.1c1.4,0.6,2.5,-0.9,1.9,-2.2l-0.2,-0.3l-0.3,-0.2c-1.2,-0.8,-2.8,0.5,-2.3,1.9l0.4,0.5Z" class="g2_1733" />
<path d="M257.6,464l4.7,4.6l0.6,0.8l-0.8,0.5l-20.9,11.5l-2.4,1.3l1.3,-2.4l11.5,-20.8l0.6,-0.8l0.7,0.6l0.1,1l-11.5,20.8l-1.4,-0.8l0.3,-0.2l20.9,-11.6l0.8,1.4l-0.9,-0.2l-4.7,-4.6Z" class="g2_1733" />
<path d="M252.9,459.3l4.7,4.7l-1.1,1.1l-4.7,-4.7Z" class="g2_1733" />
<path fill-rule="evenodd" d="M257,464.6l4.7,4.5l-20.9,11.6l11.6,-20.8Z" class="g2_1733" />
<path d="M322.5,401.3l-2.1,-2.1L256.6,463l2.1,2.1Z" class="g2_1733" />
<path fill-rule="evenodd" d="M386.3,465.1l0.2,-0.3l0.1,-0.2c0.6,-1.4,-1,-2.7,-2.2,-1.9l-0.3,0.2l-0.2,0.3l-0.1,0.3l-0.2,0.5l0.3,0.8l0.2,0.3l0.3,0.2l0.8,0.3l0.8,-0.3l0.3,-0.2Z" class="g2_1733" />
<path d="M385.2,464l4.7,-4.7l0.7,-0.6l0.5,0.8l11.6,20.8l1.3,2.4l-2.4,-1.3L380.7,469.9l-0.8,-0.6l0.6,-0.7l0.9,-0.1l20.9,11.6l-0.7,1.3l-0.3,-0.3L389.8,460.3l1.3,-0.8l-0.1,0.9l-4.7,4.7Z" class="g2_1733" />
<path d="M380.5,468.6l4.7,-4.6l1.1,1.1l-4.7,4.6Z" class="g2_1733" />
<path fill-rule="evenodd" d="M385.7,464.6l4.7,-4.7L402,480.7L381.1,469.1Z" class="g2_1733" />
<path d="M322.5,399.2l-2.1,2.1l63.8,63.8l2.1,-2.1Z" class="g2_1733" />
<path fill-rule="evenodd" d="M339.7,458.9l0.3,-0.1l0.3,-0.2c1.1,-1.1,0.3,-2.7,-1.2,-2.7l-0.6,0.2c-1.3,0.7,-0.8,2.9,0.7,2.9l0.2,0l0.3,-0.1Z" class="g2_1733" />
<path d="M339.3,457.5l6.3,-2l0.9,-0.2l0.1,0.9l0.5,23.9l0,2.7l-1.4,-2.3L332.6,460.6L332,459.8l1,-0.4l0.8,0.4L347,479.7l-1.3,0.8l-0.1,-0.4L345,456.2l1.6,0l-0.6,0.9l-6.2,2Z" class="g2_1733" />
<path d="M333,459.4l6.3,-1.9l0.5,1.6l-6.3,1.9Z" class="g2_1733" />
<path fill-rule="evenodd" d="M339.5,458.2l6.3,-2l0.5,23.9L333.2,460.2Z" class="g2_1733" />
<path d="M322.9,399.8l-3,0.9L337.8,458l2.9,-1Z" class="g2_1733" />
<path fill-rule="evenodd" d="M299.2,459.3l0.3,0.1l0.6,0l0.3,-0.1l0.2,-0.1l0.2,-0.2l0.2,-0.2l0.1,-0.3l0.1,-0.3c0,-0.7,0.1,-0.8,-0.4,-1.3l-0.2,-0.2l-0.3,-0.2l-0.4,-0.1l-0.2,0l-0.9,0.3l-0.2,0.2l-0.3,0.5l-0.1,0.3l0,0.6l0.1,0.3l0.2,0.2l0.1,0.3l0.3,0.2l0.3,0Z" class="g2_1733" />
<path d="M299.7,458.1l6.2,2.3l0.9,0.3l-0.6,0.8L292,480.7l-1.6,2.1l0.2,-2.6l1.9,-23.9l0.2,-1l0.9,0.4l0.5,0.7l-2,23.8l-1.5,0l0.2,-0.5L305,460.5l1.2,1l-0.9,0.2l-6.1,-2.3Z" class="g2_1733" />
<path d="M293.6,455.7l6.1,2.4l-0.5,1.3l-6.1,-2.3Z" class="g2_1733" />
<path fill-rule="evenodd" d="M299.5,458.7l6.1,2.3l-14.2,19.2l1.9,-23.9Z" class="g2_1733" />
<path d="M322.9,400.8L320,399.7l-21.6,57.7l2.8,1.1Z" class="g2_1733" />
<path d="M321.3,745.9l33.9,0l0,-55l-33.9,0l0,55Z" class="g1_1733" />
<path d="M321.3,691.7l34.7,0l0,-1.5l-34.7,0l0,1.5Z" class="g2_1733" />
<path d="M354.5,746.7l1.5,0l0,-55.8l-1.5,0l0,55.8Z" class="g2_1733" />
<path d="M320.6,746.7l34.6,0l0,-1.5l-34.6,0l0,1.5Z" class="g2_1733" />
<path d="M320.6,745.9l1.5,0l0,-55.7l-1.5,0l0,55.7Z" class="g2_1733" />
<path d="M552.4,745.9l33.9,0l0,-55l-33.9,0l0,55Z" class="g1_1733" />
<path d="M552.4,691.7l34.7,0l0,-1.5l-34.7,0l0,1.5Z" class="g2_1733" />
<path d="M585.6,746.7l1.5,0l0,-55.8l-1.5,0l0,55.8Z" class="g2_1733" />
<path d="M551.6,746.7l34.7,0l0,-1.5l-34.7,0l0,1.5Z" class="g2_1733" />
<path d="M551.6,745.9l1.6,0l0,-55.7l-1.6,0l0,55.7Z" class="g2_1733" />
<path d="M715.8,745.9l33.9,0l0,-55l-33.9,0l0,55Z" class="g1_1733" />
<path d="M715.8,691.7l34.8,0l0,-1.5l-34.8,0l0,1.5Z" class="g2_1733" />
<path d="M749,746.7l1.6,0l0,-55.8l-1.6,0l0,55.8Z" class="g2_1733" />
<path d="M715.1,746.7l34.6,0l0,-1.5l-34.6,0l0,1.5Z" class="g2_1733" />
<path d="M715.1,745.9l1.5,0l0,-55.7l-1.5,0l0,55.7Z" class="g2_1733" />
<path d="M192,745.9l126.9,0l0,-55l-126.9,0l0,55Z" class="g1_1733" />
<path d="M192,691.3l127.3,0l0,-0.8l-127.3,0l0,0.8Z" class="g2_1733" />
<path d="M318.5,746.3l0.8,0l0,-55.4l-0.8,0l0,55.4Z" class="g2_1733" />
<path d="M191.7,746.3l127.2,0l0,-0.8l-127.2,0l0,0.8Z" class="g2_1733" />
<path d="M191.7,745.9l0.7,0l0,-55.4l-0.7,0l0,55.4Z" class="g2_1733" />
<path d="M422,745.1l126.8,0l0,-55l-126.8,0l0,55Z" class="g1_1733" />
<path d="M422,690.4l127.2,0l0,-0.7l-127.2,0l0,0.7Z" class="g2_1733" />
<path d="M548.4,745.4l0.8,0l0,-55.3l-0.8,0l0,55.3Z" class="g2_1733" />
<path d="M421.7,745.4l127.1,0l0,-0.7l-127.1,0l0,0.7Z" class="g2_1733" />
<path d="M421.7,745.1l0.7,0l0,-55.4l-0.7,0l0,55.4Z" class="g2_1733" />
<path d="M587,745.1l126.8,0l0,-55l-126.8,0l0,55Z" class="g1_1733" />
<path d="M587,690.4l127.2,0l0,-0.7l-127.2,0l0,0.7Z" class="g2_1733" />
<path d="M713.4,745.4l0.8,0l0,-55.3l-0.8,0l0,55.3Z" class="g2_1733" />
<path d="M586.7,745.4l127.1,0l0,-0.7l-127.1,0l0,0.7Z" class="g2_1733" />
<path d="M586.7,745.1l0.7,0l0,-55.4l-0.7,0l0,55.4Z" class="g2_1733" />
</svg>