<?xml version="1.0" encoding="UTF-8" standalone="no"?>
<!DOCTYPE svg PUBLIC "-//W3C//DTD SVG 1.1//EN"
"http://www.w3.org/Graphics/SVG/1.1/DTD/svg11.dtd">
<svg viewBox="0 0 935 1210" version="1.1" xmlns="http://www.w3.org/2000/svg" xmlns:xlink="http://www.w3.org/1999/xlink">
<defs>
<style type="text/css"><![CDATA[
.g1_508{
fill: #FFFFFF;
}
.g2_508{
}
]]></style>
</defs>
<path d="M165,1149.3l687.5,0l0,-21.2l-687.5,0l0,21.2Z" class="g1_508" />
<path d="M68.8,1149.3l82.5,0l0,-21.2l-82.5,0l0,21.2Z" class="g1_508" />
<path d="M69.9,192.1l0.7,0l0,-60.3l-0.7,0l0,60.3Z" class="g2_508" />
<path d="M205.3,192.9l0.8,0l0,-61.9l-0.8,0l0,61.9Z" class="g2_508" />
<path d="M352.1,192.9l0.7,0l0,-61.9l-0.7,0l0,61.9Z" class="g2_508" />
<path d="M433,192.9l0.8,0l0,-61.9l-0.8,0l0,61.9Z" class="g2_508" />
<path d="M530.2,192.9l0.7,0l0,-61.9l-0.7,0l0,61.9Z" class="g2_508" />
<path d="M850.6,192.1l0.7,0l0,-60.3l-0.7,0l0,60.3Z" class="g2_508" />
<path d="M69.9,131.7l781.4,0l0,-0.7L69.9,131l0,0.7Z" class="g2_508" />
<path d="M69.9,169.9l781.4,0l0,-0.7l-781.4,0l0,0.7Z" class="g2_508" />
<path d="M69.9,192.9l781.4,0l0,-0.8l-781.4,0l0,0.8Z" class="g2_508" />
<path d="M70.3,494.6l0.7,0L71,312l-0.7,0l0,182.6Z" class="g2_508" />
<path d="M410.1,495.4l0.8,0l0,-184.1l-0.8,0l0,184.1Z" class="g2_508" />
<path d="M564,495.4l0.8,0l0,-184.1l-0.8,0l0,184.1Z" class="g2_508" />
<path d="M707.1,495.4l0.8,0l0,-184.1l-0.8,0l0,184.1Z" class="g2_508" />
<path d="M850.1,494.6l0.7,0l0,-182.6l-0.7,0l0,182.6Z" class="g2_508" />
<path d="M70.2,312l780.6,0l0,-0.7l-780.6,0l0,0.7Z" class="g2_508" />
<path d="M70.2,334.9l780.6,0l0,-0.7l-780.6,0l0,0.7Z" class="g2_508" />
<path d="M70.2,357.9l780.6,0l0,-0.8l-780.6,0l0,0.8Z" class="g2_508" />
<path d="M70.2,380.8l780.6,0l0,-0.8L70.2,380l0,0.8Z" class="g2_508" />
<path d="M70.2,403.7l780.6,0l0,-0.7L70.2,403l0,0.7Z" class="g2_508" />
<path d="M70.2,426.6l780.6,0l0,-0.7l-780.6,0l0,0.7Z" class="g2_508" />
<path d="M70.2,449.5l780.6,0l0,-0.7l-780.6,0l0,0.7Z" class="g2_508" />
<path d="M70.2,472.4l780.6,0l0,-0.7l-780.6,0l0,0.7Z" class="g2_508" />
<path d="M70.2,495.4l780.6,0l0,-0.8l-780.6,0l0,0.8Z" class="g2_508" />
</svg>