<?xml version="1.0" encoding="UTF-8" standalone="no"?>
<!DOCTYPE svg PUBLIC "-//W3C//DTD SVG 1.1//EN"
"http://www.w3.org/Graphics/SVG/1.1/DTD/svg11.dtd">
<svg viewBox="0 0 935 1210" version="1.1" xmlns="http://www.w3.org/2000/svg" xmlns:xlink="http://www.w3.org/1999/xlink">
<defs>
<style type="text/css"><![CDATA[
.g1_1587{
fill: #FFFFFF;
}
.g2_1587{
}
]]></style>
</defs>
<path d="M68.9,1149.3l686.3,0l0,-21.2l-686.3,0l0,21.2Z" class="g1_1587" />
<path d="M771.3,1149.3l83.7,0l0,-21.2l-83.7,0l0,21.2Z" class="g1_1587" />
<path d="M72.5,195.2l0.7,0l0,-72.6l-0.7,0l0,72.6Z" class="g2_1587" />
<path d="M207.2,196l0.7,0l0,-74.2l-0.7,0l0,74.2Z" class="g2_1587" />
<path d="M363.7,196l0.8,0l0,-74.2l-0.8,0l0,74.2Z" class="g2_1587" />
<path d="M527.7,196l0.8,0l0,-74.2l-0.8,0l0,74.2Z" class="g2_1587" />
<path d="M690.7,196l0.7,0l0,-74.2l-0.7,0l0,74.2Z" class="g2_1587" />
<path d="M849.6,195.2l0.7,0l0,-72.6l-0.7,0l0,72.6Z" class="g2_1587" />
<path d="M72.4,122.6l777.9,0l0,-0.8l-777.9,0l0,0.8Z" class="g2_1587" />
<path d="M72.4,147l777.9,0l0,-0.7l-777.9,0l0,0.7Z" class="g2_1587" />
<path d="M72.4,171.5l777.9,0l0,-0.7l-777.9,0l0,0.7Z" class="g2_1587" />
<path d="M72.4,195.9l777.9,0l0,-0.7l-777.9,0l0,0.7Z" class="g2_1587" />
</svg>