<?xml version="1.0" encoding="UTF-8" standalone="no"?>
<!DOCTYPE svg PUBLIC "-//W3C//DTD SVG 1.1//EN"
"http://www.w3.org/Graphics/SVG/1.1/DTD/svg11.dtd">
<svg viewBox="0 0 935 1210" version="1.1" xmlns="http://www.w3.org/2000/svg" xmlns:xlink="http://www.w3.org/1999/xlink">
<defs>
<style type="text/css"><![CDATA[
.g1_1990{
fill: #FFFFFF;
}
.g2_1990{
}
]]></style>
</defs>
<path d="M165,1149.3l687.5,0l0,-21.2l-687.5,0l0,21.2Z" class="g1_1990" />
<path d="M68.8,1149.3l82.5,0l0,-21.2l-82.5,0l0,21.2Z" class="g1_1990" />
<path d="M68.6,224.2l0.7,0l0,-83.2l-0.7,0l0,83.2Z" class="g2_1990" />
<path d="M161.2,224.9l0.8,0l0,-84.7l-0.8,0l0,84.7Z" class="g2_1990" />
<path d="M293.9,224.9l0.7,0l0,-84.7l-0.7,0l0,84.7Z" class="g2_1990" />
<path d="M850.6,224.2l0.7,0l0,-83.2l-0.7,0l0,83.2Z" class="g2_1990" />
<path d="M68.6,140.9l782.7,0l0,-0.7l-782.7,0l0,0.7Z" class="g2_1990" />
<path d="M68.6,163.8l782.7,0l0,-0.7l-782.7,0l0,0.7Z" class="g2_1990" />
<path d="M68.6,224.9l782.7,0l0,-0.7l-782.7,0l0,0.7Z" class="g2_1990" />
</svg>