<?xml version="1.0" encoding="UTF-8" standalone="no"?>
<!DOCTYPE svg PUBLIC "-//W3C//DTD SVG 1.1//EN"
"http://www.w3.org/Graphics/SVG/1.1/DTD/svg11.dtd">
<svg viewBox="0 0 935 1210" version="1.1" xmlns="http://www.w3.org/2000/svg" xmlns:xlink="http://www.w3.org/1999/xlink">
<defs>
<style type="text/css"><![CDATA[
.g1_2066{
fill: #FFFFFF;
}
.g2_2066{
}
]]></style>
</defs>
<path d="M68.8,1149.3l783.7,0l0,-21.2l-783.7,0l0,21.2Z" class="g1_2066" />
<path d="M68.6,1003.4l0.7,0l0,-879.3l-0.7,0l0,879.3Z" class="g2_2066" />
<path d="M467,1004.2l0.7,0l0,-880.8l-0.7,0l0,880.8Z" class="g2_2066" />
<path d="M850,1003.4l0.8,0l0,-879.3l-0.8,0l0,879.3Z" class="g2_2066" />
<path d="M68.6,124.1l782.2,0l0,-0.7l-782.2,0l0,0.7Z" class="g2_2066" />
<path d="M68.6,148.6l782.2,0l0,-0.7l-782.2,0l0,0.7Z" class="g2_2066" />
<path d="M68.6,173l782.2,0l0,-0.8l-782.2,0l0,0.8Z" class="g2_2066" />
<path d="M68.6,197.4l782.2,0l0,-0.7l-782.2,0l0,0.7Z" class="g2_2066" />
<path d="M68.6,221.9l782.2,0l0,-0.7l-782.2,0l0,0.7Z" class="g2_2066" />
<path d="M68.6,246.3l782.2,0l0,-0.7l-782.2,0l0,0.7Z" class="g2_2066" />
<path d="M68.6,270.8l782.2,0l0,-0.7l-782.2,0l0,0.7Z" class="g2_2066" />
<path d="M68.6,295.3l782.2,0l0,-0.8l-782.2,0l0,0.8Z" class="g2_2066" />
<path d="M68.6,319.6l782.2,0l0,-0.7l-782.2,0l0,0.7Z" class="g2_2066" />
<path d="M68.6,344.1l782.2,0l0,-0.7l-782.2,0l0,0.7Z" class="g2_2066" />
<path d="M68.6,368.6l782.2,0l0,-0.7l-782.2,0l0,0.7Z" class="g2_2066" />
<path d="M68.6,393l782.2,0l0,-0.8l-782.2,0l0,0.8Z" class="g2_2066" />
<path d="M68.6,417.4l782.2,0l0,-0.7l-782.2,0l0,0.7Z" class="g2_2066" />
<path d="M68.6,441.9l782.2,0l0,-0.7l-782.2,0l0,0.7Z" class="g2_2066" />
<path d="M68.6,466.4l782.2,0l0,-0.7l-782.2,0l0,0.7Z" class="g2_2066" />
<path d="M68.6,490.8l782.2,0l0,-0.8L68.6,490l0,0.8Z" class="g2_2066" />
<path d="M68.6,515.3l782.2,0l0,-0.8l-782.2,0l0,0.8Z" class="g2_2066" />
<path d="M68.6,539.7l782.2,0l0,-0.7L68.6,539l0,0.7Z" class="g2_2066" />
<path d="M68.6,564.1l782.2,0l0,-0.7l-782.2,0l0,0.7Z" class="g2_2066" />
<path d="M68.6,588.6l782.2,0l0,-0.7l-782.2,0l0,0.7Z" class="g2_2066" />
<path d="M68.6,613.1l782.2,0l0,-0.8l-782.2,0l0,0.8Z" class="g2_2066" />
<path d="M68.6,637.4l782.2,0l0,-0.7l-782.2,0l0,0.7Z" class="g2_2066" />
<path d="M68.6,661.9l782.2,0l0,-0.7l-782.2,0l0,0.7Z" class="g2_2066" />
<path d="M68.6,686.4l782.2,0l0,-0.7l-782.2,0l0,0.7Z" class="g2_2066" />
<path d="M68.6,710.8l782.2,0l0,-0.8L68.6,710l0,0.8Z" class="g2_2066" />
<path d="M68.6,735.3l782.2,0l0,-0.8l-782.2,0l0,0.8Z" class="g2_2066" />
<path d="M68.6,759.7l782.2,0l0,-0.7L68.6,759l0,0.7Z" class="g2_2066" />
<path d="M68.6,784.1l782.2,0l0,-0.7l-782.2,0l0,0.7Z" class="g2_2066" />
<path d="M68.6,808.6l782.2,0l0,-0.7l-782.2,0l0,0.7Z" class="g2_2066" />
<path d="M68.6,833.1l782.2,0l0,-0.8l-782.2,0l0,0.8Z" class="g2_2066" />
<path d="M68.6,857.5l782.2,0l0,-0.8l-782.2,0l0,0.8Z" class="g2_2066" />
<path d="M68.6,881.9l782.2,0l0,-0.7l-782.2,0l0,0.7Z" class="g2_2066" />
<path d="M68.6,906.4l782.2,0l0,-0.7l-782.2,0l0,0.7Z" class="g2_2066" />
<path d="M68.6,930.8l782.2,0l0,-0.7l-782.2,0l0,0.7Z" class="g2_2066" />
<path d="M68.6,955.3l782.2,0l0,-0.8l-782.2,0l0,0.8Z" class="g2_2066" />
<path d="M68.6,979.7l782.2,0l0,-0.7L68.6,979l0,0.7Z" class="g2_2066" />
<path d="M68.6,1004.1l782.2,0l0,-0.7l-782.2,0l0,0.7Z" class="g2_2066" />
</svg>