<?xml version="1.0" encoding="UTF-8" standalone="no"?>
<!DOCTYPE svg PUBLIC "-//W3C//DTD SVG 1.1//EN"
"http://www.w3.org/Graphics/SVG/1.1/DTD/svg11.dtd">
<svg viewBox="0 0 935 1210" version="1.1" xmlns="http://www.w3.org/2000/svg" xmlns:xlink="http://www.w3.org/1999/xlink">
<defs>
<style type="text/css"><![CDATA[
.g1_281{
fill: #FFFFFF;
}
.g2_281{
}
]]></style>
</defs>
<path d="M68.9,1149.3l686.3,0l0,-21.2l-686.3,0l0,21.2Z" class="g1_281" />
<path d="M771.3,1149.3l83.7,0l0,-21.2l-83.7,0l0,21.2Z" class="g1_281" />
<path d="M71.4,587.9l0.7,0l0,-463.8l-0.7,0l0,463.8Z" class="g2_281" />
<path d="M470.2,588.6l0.7,0l0,-465.2l-0.7,0l0,465.2Z" class="g2_281" />
<path d="M850.6,587.9l0.7,0l0,-463.8l-0.7,0l0,463.8Z" class="g2_281" />
<path d="M71.4,124.1l779.9,0l0,-0.7l-779.9,0l0,0.7Z" class="g2_281" />
<path d="M71.4,148.6l779.9,0l0,-0.7l-779.9,0l0,0.7Z" class="g2_281" />
<path d="M71.4,173l779.9,0l0,-0.8l-779.9,0l0,0.8Z" class="g2_281" />
<path d="M71.4,199.4l779.9,0l0,-4.6l-779.9,0l0,4.6Z" class="g2_281" />
<path d="M71.4,221.9l779.9,0l0,-0.7l-779.9,0l0,0.7Z" class="g2_281" />
<path d="M71.4,246.3l779.9,0l0,-0.7l-779.9,0l0,0.7Z" class="g2_281" />
<path d="M71.4,270.8l779.9,0l0,-0.7l-779.9,0l0,0.7Z" class="g2_281" />
<path d="M71.4,295.3l779.9,0l0,-0.8l-779.9,0l0,0.8Z" class="g2_281" />
<path d="M71.4,319.6l779.9,0l0,-0.7l-779.9,0l0,0.7Z" class="g2_281" />
<path d="M71.4,344.1l779.9,0l0,-0.7l-779.9,0l0,0.7Z" class="g2_281" />
<path d="M71.4,368.6l779.9,0l0,-0.7l-779.9,0l0,0.7Z" class="g2_281" />
<path d="M71.4,394.9l779.9,0l0,-4.6l-779.9,0l0,4.6Z" class="g2_281" />
<path d="M71.4,417.4l779.9,0l0,-0.7l-779.9,0l0,0.7Z" class="g2_281" />
<path d="M71.4,441.9l779.9,0l0,-0.7l-779.9,0l0,0.7Z" class="g2_281" />
<path d="M71.4,466.4l779.9,0l0,-0.7l-779.9,0l0,0.7Z" class="g2_281" />
<path d="M71.4,490.8l779.9,0l0,-0.8L71.4,490l0,0.8Z" class="g2_281" />
<path d="M71.4,515.3l779.9,0l0,-0.8l-779.9,0l0,0.8Z" class="g2_281" />
<path d="M71.4,539.7l779.9,0l0,-0.7L71.4,539l0,0.7Z" class="g2_281" />
<path d="M71.4,564.1l779.9,0l0,-0.7l-779.9,0l0,0.7Z" class="g2_281" />
<path d="M71.4,588.6l779.9,0l0,-0.7l-779.9,0l0,0.7Z" class="g2_281" />
</svg>