<?xml version="1.0" encoding="UTF-8" standalone="no"?>
<!DOCTYPE svg PUBLIC "-//W3C//DTD SVG 1.1//EN"
"http://www.w3.org/Graphics/SVG/1.1/DTD/svg11.dtd">
<svg viewBox="0 0 935 1210" version="1.1" xmlns="http://www.w3.org/2000/svg" xmlns:xlink="http://www.w3.org/1999/xlink">
<defs>
<style type="text/css"><![CDATA[
.g1_2115{
fill: #FFFFFF;
}
.g2_2115{
}
]]></style>
</defs>
<path d="M68.9,1149.3l783.8,0l0,-21.2l-783.8,0l0,21.2Z" class="g1_2115" />
<path d="M69.9,262.4l0.8,0l0,-138.3l-0.8,0l0,138.3Z" class="g2_2115" />
<path d="M447.2,263.2l0.8,0l0,-139.8l-0.8,0l0,139.8Z" class="g2_2115" />
<path d="M853,262.4l0.7,0l0,-138.3l-0.7,0l0,138.3Z" class="g2_2115" />
<path d="M69.9,124.1l783.8,0l0,-0.7l-783.8,0l0,0.7Z" class="g2_2115" />
<path d="M69.9,148.6l783.8,0l0,-0.7l-783.8,0l0,0.7Z" class="g2_2115" />
<path d="M69.9,173l783.8,0l0,-0.8l-783.8,0l0,0.8Z" class="g2_2115" />
<path d="M69.9,197.4l783.8,0l0,-0.7l-783.8,0l0,0.7Z" class="g2_2115" />
<path d="M69.9,238.7l783.8,0l0,-0.7L69.9,238l0,0.7Z" class="g2_2115" />
<path d="M69.9,263.2l783.8,0l0,-0.8l-783.8,0l0,0.8Z" class="g2_2115" />
<path d="M69.9,1076.7l0.8,0l0,-677.6l-0.8,0l0,677.6Z" class="g2_2115" />
<path d="M448.4,1077.5l0.8,0l0,-679.1l-0.8,0l0,679.1Z" class="g2_2115" />
<path d="M852.1,1076.7l0.8,0l0,-677.6l-0.8,0l0,677.6Z" class="g2_2115" />
<path d="M69.9,399.1l783,0l0,-0.7l-783,0l0,0.7Z" class="g2_2115" />
<path d="M69.9,423.6l783,0l0,-0.7l-783,0l0,0.7Z" class="g2_2115" />
<path d="M69.9,448.1l783,0l0,-0.8l-783,0l0,0.8Z" class="g2_2115" />
<path d="M69.9,489.3l783,0l0,-0.7l-783,0l0,0.7Z" class="g2_2115" />
<path d="M69.9,513.7l783,0l0,-0.7l-783,0l0,0.7Z" class="g2_2115" />
<path d="M69.9,553.5l783,0l0,-0.8l-783,0l0,0.8Z" class="g2_2115" />
<path d="M69.9,594.7l783,0l0,-0.7l-783,0l0,0.7Z" class="g2_2115" />
<path d="M69.9,619.1l783,0l0,-0.7l-783,0l0,0.7Z" class="g2_2115" />
<path d="M69.9,643.6l783,0l0,-0.7l-783,0l0,0.7Z" class="g2_2115" />
<path d="M69.9,684.8l783,0l0,-0.7l-783,0l0,0.7Z" class="g2_2115" />
<path d="M69.9,709.3l783,0l0,-0.7l-783,0l0,0.7Z" class="g2_2115" />
<path d="M69.9,749l783,0l0,-0.7l-783,0l0,0.7Z" class="g2_2115" />
<path d="M69.9,790.3l783,0l0,-0.8l-783,0l0,0.8Z" class="g2_2115" />
<path d="M69.9,814.7l783,0l0,-0.7l-783,0l0,0.7Z" class="g2_2115" />
<path d="M69.9,839.1l783,0l0,-0.7l-783,0l0,0.7Z" class="g2_2115" />
<path d="M69.9,880.4l783,0l0,-0.8l-783,0l0,0.8Z" class="g2_2115" />
<path d="M69.9,904.8l783,0l0,-0.7l-783,0l0,0.7Z" class="g2_2115" />
<path d="M69.9,929.3l783,0l0,-0.7l-783,0l0,0.7Z" class="g2_2115" />
<path d="M69.9,970.6l783,0l0,-0.8l-783,0l0,0.8Z" class="g2_2115" />
<path d="M69.9,1011.8l783,0l0,-0.7l-783,0l0,0.7Z" class="g2_2115" />
<path d="M69.9,1036.2l783,0l0,-0.7l-783,0l0,0.7Z" class="g2_2115" />
<path d="M69.9,1077.5l783,0l0,-0.8l-783,0l0,0.8Z" class="g2_2115" />
</svg>