<?xml version="1.0" encoding="UTF-8" standalone="no"?>
<!DOCTYPE svg PUBLIC "-//W3C//DTD SVG 1.1//EN"
"http://www.w3.org/Graphics/SVG/1.1/DTD/svg11.dtd">
<svg viewBox="0 0 935 1210" version="1.1" xmlns="http://www.w3.org/2000/svg" xmlns:xlink="http://www.w3.org/1999/xlink">
<defs>
<style type="text/css"><![CDATA[
.g1_1690{
fill: #FFFFFF;
}
.g2_1690{
}
]]></style>
</defs>
<path d="M165,1149.3l687.5,0l0,-21.2l-687.5,0l0,21.2Z" class="g1_1690" />
<path d="M68.8,1149.3l82.5,0l0,-21.2l-82.5,0l0,21.2Z" class="g1_1690" />
<path d="M157.7,284.8l0.7,0l0,-159.1l-0.7,0l0,159.1Z" class="g2_1690" />
<path d="M762.8,284.8l0.7,0l0,-159.1l-0.7,0l0,159.1Z" class="g2_1690" />
<path d="M157.7,125.7l605.8,0l0,-0.8l-605.8,0l0,0.8Z" class="g2_1690" />
<path d="M157.7,285.5l605.8,0l0,-0.7l-605.8,0l0,0.7Z" class="g2_1690" />
<path fill-rule="evenodd" d="M552.8,216.9l0.3,-0.1l0.4,-0.1c1.3,-0.5,1.1,-2.7,-0.4,-2.8l-0.3,-0.1L552,214l-0.3,0.2l-0.1,0.3l-0.3,0.8c0.2,0.5,0.2,1.1,0.7,1.3l0.8,0.3Z" class="g2_1690" />
<path d="M552.8,215.3l7.6,0l-0.2,1l-6.6,22.9l-0.8,2.6l-0.7,-2.6l-6.6,-22.9l-0.3,-1l1,0l0.8,0.6l6.6,22.9l-1.5,0.4l0,-0.4l6.6,-22.9l1.5,0.4l-0.8,0.6l-6.6,0Z" class="g2_1690" />
<path d="M546.2,216.9l6.6,0l0,-1.6l-6.6,0l0,1.6Z" class="g2_1690" />
<path fill-rule="evenodd" d="M552.8,216.1l6.6,0L552.8,239l-6.6,-22.9Z" class="g2_1690" />
<path d="M551.4,215.3l3,0l0,-34.3l-3,0l0,34.3Z" class="g2_1690" />
<path d="M445.7,180.3l226.9,0l0,-20.6l-226.9,0l0,20.6Z" class="g1_1690" />
<path d="M445.7,160.1l227.2,0l0,-0.8l-227.2,0l0,0.8Z" class="g2_1690" />
<path d="M672.2,180.7l0.7,0l0,-21l-0.7,0l0,21Z" class="g2_1690" />
<path d="M445.3,180.7l227.3,0l0,-0.8l-227.3,0l0,0.8Z" class="g2_1690" />
<path d="M445.3,180.3l0.7,0l0,-21l-0.7,0l0,21Z" class="g2_1690" />
<path fill-rule="evenodd" d="M350.1,235.3l0.1,0.3l0.1,0.3l0.2,0.1l0.2,0.2l0.3,0.2l0.3,0l0.3,0.1l0.6,-0.2c0.6,-0.3,0.6,-0.6,0.8,-1.2l0,-0.5l-0.1,-0.4L352.7,234l-0.2,-0.2l-0.2,-0.2L352,233.5l-0.3,-0.1l-0.3,0l-0.3,0.1c-0.5,0.1,-0.8,0.5,-1,0.9l-0.1,0.4l0,0.2l0.1,0.3Z" class="g2_1690" />
<path d="M351.5,234.9l1.7,6.4l0.3,1l-1.1,-0.1l-23.9,-0.3l-2.6,-0.1l2.3,-1.4l20.4,-12.2l0.9,-0.6l0.3,1l-0.4,0.8L329,241.7l-0.8,-1.3l0.4,0l23.9,0.3l-0.1,1.5l-0.8,-0.6L350,235.3Z" class="g2_1690" />
<path d="M349.8,228.6l1.7,6.3l-1.5,0.4L348.2,229Z" class="g2_1690" />
<path fill-rule="evenodd" d="M350.8,235.1l1.7,6.4l-23.9,-0.4l20.5,-12.3Z" class="g2_1690" />
<path d="M553.3,182.5l-0.8,-2.9L351.2,233.5l0.8,2.9Z" class="g2_1690" />
<path d="M449.7,262.3l226.9,0l0,-20.6l-226.9,0l0,20.6Z" class="g1_1690" />
<path d="M449.7,242.1l227.3,0l0,-0.7l-227.3,0l0,0.7Z" class="g2_1690" />
<path d="M676.2,262.7l0.8,0l0,-21l-0.8,0l0,21Z" class="g2_1690" />
<path d="M449.3,262.7l227.3,0l0,-0.7l-227.3,0l0,0.7Z" class="g2_1690" />
<path d="M449.3,262.3l0.8,0l0,-20.9l-0.8,0l0,20.9Z" class="g2_1690" />
<path d="M222.8,262.3l226.9,0l0,-20.6l-226.9,0l0,20.6Z" class="g1_1690" />
<path d="M222.8,242.1l227.3,0l0,-0.7l-227.3,0l0,0.7Z" class="g2_1690" />
<path d="M449.3,262.7l0.8,0l0,-21l-0.8,0l0,21Z" class="g2_1690" />
<path d="M222.5,262.7l227.2,0l0,-0.7l-227.2,0l0,0.7Z" class="g2_1690" />
<path d="M222.5,262.3l0.7,0l0,-20.9l-0.7,0l0,20.9Z" class="g2_1690" />
</svg>