<?xml version="1.0" encoding="UTF-8" standalone="no"?>
<!DOCTYPE svg PUBLIC "-//W3C//DTD SVG 1.1//EN"
"http://www.w3.org/Graphics/SVG/1.1/DTD/svg11.dtd">
<svg viewBox="0 0 935 1210" version="1.1" xmlns="http://www.w3.org/2000/svg" xmlns:xlink="http://www.w3.org/1999/xlink">
<defs>
<style type="text/css"><![CDATA[
.g1_635{
fill: #FFFFFF;
}
.g2_635{
}
]]></style>
</defs>
<path d="M68.9,1149.3l686.3,0l0,-21.2l-686.3,0l0,21.2Z" class="g1_635" />
<path d="M771.3,1149.3l83.7,0l0,-21.2l-83.7,0l0,21.2Z" class="g1_635" />
<path d="M70.9,186l0.7,0l0,-60.3l-0.7,0l0,60.3Z" class="g2_635" />
<path d="M220.5,186.8l0.7,0l0,-61.9l-0.7,0l0,61.9Z" class="g2_635" />
<path d="M390.2,186.8l0.8,0l0,-61.9l-0.8,0l0,61.9Z" class="g2_635" />
<path d="M428,186.8l0.7,0l0,-61.9l-0.7,0l0,61.9Z" class="g2_635" />
<path d="M501.4,186.8l0.7,0l0,-61.9l-0.7,0l0,61.9Z" class="g2_635" />
<path d="M572.8,186.8l0.8,0l0,-61.9l-0.8,0l0,61.9Z" class="g2_635" />
<path d="M851.1,186l0.8,0l0,-60.3l-0.8,0l0,60.3Z" class="g2_635" />
<path d="M70.9,125.7l781,0l0,-0.8l-781,0l0,0.8Z" class="g2_635" />
<path d="M70.9,163.8l781,0l0,-0.7l-781,0l0,0.7Z" class="g2_635" />
<path d="M70.9,186.7l781,0l0,-0.7l-781,0l0,0.7Z" class="g2_635" />
<path d="M69.9,289.9l0.7,0l0,-48.1l-0.7,0l0,48.1Z" class="g2_635" />
<path d="M142.8,290.7l0.8,0l0,-49.7l-0.8,0l0,49.7Z" class="g2_635" />
<path d="M312.1,290.7l0.8,0l0,-49.7l-0.8,0l0,49.7Z" class="g2_635" />
<path d="M493.2,290.7l0.7,0l0,-49.7l-0.7,0l0,49.7Z" class="g2_635" />
<path d="M676,290.7l0.8,0l0,-49.7l-0.8,0l0,49.7Z" class="g2_635" />
<path d="M852.1,289.9l0.8,0l0,-48.1l-0.8,0l0,48.1Z" class="g2_635" />
<path d="M69.9,241.7l783,0l0,-0.7l-783,0l0,0.7Z" class="g2_635" />
<path d="M69.9,266.2l783,0l0,-0.7l-783,0l0,0.7Z" class="g2_635" />
<path d="M69.9,290.7l783,0l0,-0.8l-783,0l0,0.8Z" class="g2_635" />
</svg>