<?xml version="1.0" encoding="UTF-8" standalone="no"?>
<!DOCTYPE svg PUBLIC "-//W3C//DTD SVG 1.1//EN"
"http://www.w3.org/Graphics/SVG/1.1/DTD/svg11.dtd">
<svg viewBox="0 0 935 1210" version="1.1" xmlns="http://www.w3.org/2000/svg" xmlns:xlink="http://www.w3.org/1999/xlink">
<defs>
<style type="text/css"><![CDATA[
.g1_279{
fill: #FFFFFF;
}
.g2_279{
}
]]></style>
</defs>
<path d="M68.9,1149.3l686.3,0l0,-21.2l-686.3,0l0,21.2Z" class="g1_279" />
<path d="M771.3,1149.3l83.7,0l0,-21.2l-83.7,0l0,21.2Z" class="g1_279" />
<path d="M69.9,352.6l0.8,0l0,-226.9l-0.8,0l0,226.9Z" class="g2_279" />
<path d="M310.4,353.3l0.7,0l0,-228.4l-0.7,0l0,228.4Z" class="g2_279" />
<path d="M361.7,353.3l0.8,0l0,-228.4l-0.8,0l0,228.4Z" class="g2_279" />
<path d="M436.2,353.3l0.8,0l0,-228.4l-0.8,0l0,228.4Z" class="g2_279" />
<path d="M515,353.3l0.7,0l0,-228.4l-0.7,0l0,228.4Z" class="g2_279" />
<path d="M852.6,352.6l0.7,0l0,-226.9l-0.7,0l0,226.9Z" class="g2_279" />
<path d="M69.9,125.7l783.4,0l0,-0.8l-783.4,0l0,0.8Z" class="g2_279" />
<path d="M69.9,176.1l783.4,0l0,-0.7l-783.4,0l0,0.7Z" class="g2_279" />
<path d="M69.9,229.5l783.4,0l0,-0.7l-783.4,0l0,0.7Z" class="g2_279" />
<path d="M69.9,283l783.4,0l0,-0.8l-783.4,0l0,0.8Z" class="g2_279" />
<path d="M69.9,353.3l783.4,0l0,-0.7l-783.4,0l0,0.7Z" class="g2_279" />
<path d="M71.1,505.4l0.8,0l0,-97.1l-0.8,0l0,97.1Z" class="g2_279" />
<path d="M162.1,506.1l0.7,0l0,-98.5l-0.7,0l0,98.5Z" class="g2_279" />
<path d="M330.3,506.1l0.7,0l0,-98.5l-0.7,0l0,98.5Z" class="g2_279" />
<path d="M510.3,506.1l0.7,0l0,-98.5l-0.7,0l0,98.5Z" class="g2_279" />
<path d="M679.1,506.1l0.7,0l0,-98.5l-0.7,0l0,98.5Z" class="g2_279" />
<path d="M850.8,505.4l0.8,0l0,-97.1l-0.8,0l0,97.1Z" class="g2_279" />
<path d="M71.1,408.3l780.5,0l0,-0.8l-780.5,0l0,0.8Z" class="g2_279" />
<path d="M71.1,432.8l780.5,0l0,-0.8L71.1,432l0,0.8Z" class="g2_279" />
<path d="M71.1,457.2l780.5,0l0,-0.7l-780.5,0l0,0.7Z" class="g2_279" />
<path d="M71.1,481.6l780.5,0l0,-0.7l-780.5,0l0,0.7Z" class="g2_279" />
<path d="M71.1,506.1l780.5,0l0,-0.7l-780.5,0l0,0.7Z" class="g2_279" />
</svg>