<?xml version="1.0" encoding="UTF-8" standalone="no"?>
<!DOCTYPE svg PUBLIC "-//W3C//DTD SVG 1.1//EN"
"http://www.w3.org/Graphics/SVG/1.1/DTD/svg11.dtd">
<svg viewBox="0 0 935 1210" version="1.1" xmlns="http://www.w3.org/2000/svg" xmlns:xlink="http://www.w3.org/1999/xlink">
<defs>
<style type="text/css"><![CDATA[
.g1_2029{
fill: #FFFFFF;
}
.g2_2029{
fill: #E6E6E6;
}
.g3_2029{
}
]]></style>
</defs>
<path d="M68.9,1149l783.8,0l0,-21.4l-783.8,0l0,21.4Z" class="g1_2029" />
<path d="M72,164.3l62.5,0l0,-17.6l-62.5,0l0,17.6Z" class="g1_2029" />
<path d="M72,204.7l62.5,0l0,-38.5l-62.5,0l0,38.5Z" class="g1_2029" />
<path d="M134.5,181.8l528.1,0l0,-15.6l-528.1,0l0,15.6Z" class="g1_2029" />
<path d="M72,239.9l62.5,0l0,-35.2l-62.5,0l0,35.2Z" class="g1_2029" />
<path d="M134.5,222.3l528.1,0l0,-17.6l-528.1,0l0,17.6Z" class="g1_2029" />
<path d="M72,275l62.5,0l0,-35.1l-62.5,0L72,275Z" class="g1_2029" />
<path d="M134.5,257.4l528.1,0l0,-17.5l-528.1,0l0,17.5Z" class="g1_2029" />
<path d="M72,310.1l62.5,0l0,-35.1L72,275l0,35.1Z" class="g1_2029" />
<path d="M134.5,292.6l528.1,0l0,-17.6l-528.1,0l0,17.6Z" class="g1_2029" />
<path d="M72,356.8l62.5,0l0,-46.7l-62.5,0l0,46.7Z" class="g1_2029" />
<path d="M134.5,327.7l715.9,0l0,-17.6l-715.9,0l0,17.6Z" class="g1_2029" />
<path d="M72,391.9l62.5,0l0,-35.1l-62.5,0l0,35.1Z" class="g1_2029" />
<path d="M134.5,374.3l715.9,0l0,-17.5l-715.9,0l0,17.5Z" class="g1_2029" />
<path d="M72,443.8l62.5,0l0,-51.9l-62.5,0l0,51.9Z" class="g1_2029" />
<path d="M72,490.4l62.5,0l0,-46.6l-62.5,0l0,46.6Z" class="g1_2029" />
<path d="M134.5,461.5l715.9,0l0,-17.6l-715.9,0l0,17.6Z" class="g1_2029" />
<path d="M134.5,508l354.3,0l0,-17.6l-354.3,0l0,17.6Z" class="g2_2029" />
<path d="M488.8,508l173.8,0l0,-17.6l-173.8,0l0,17.6Z" class="g1_2029" />
<path d="M662.6,490.4l187.8,0l0,17.6l-187.8,0Z" class="g1_2029" />
<path d="M134.5,537.1l86.9,0l0,-29.1l-86.9,0l0,29.1Z" class="g2_2029" />
<path d="M221.4,537.1l88.4,0l0,-29.1l-88.4,0l0,29.1Z" class="g2_2029" />
<path d="M309.8,537.1l92.1,0l0,-29.1l-92.1,0l0,29.1Z" class="g2_2029" />
<path d="M401.9,537.1l86.9,0l0,-29.1l-86.9,0l0,29.1Z" class="g2_2029" />
<path d="M72,577.5l62.5,0l0,-40.4l-62.5,0l0,40.4Z" class="g1_2029" />
<path d="M221.4,537.1l629,0l0,17.5l-629,0Z" class="g1_2029" />
<path d="M72,612.7l62.5,0l0,-35.2l-62.5,0l0,35.2Z" class="g1_2029" />
<path d="M134.5,595.1l354.3,0l0,-17.6l-354.3,0l0,17.6Z" class="g1_2029" />
<path d="M72,647.8l62.5,0l0,-35.1l-62.5,0l0,35.1Z" class="g1_2029" />
<path d="M134.5,630.2l715.9,0l0,-17.5l-715.9,0l0,17.5Z" class="g1_2029" />
<path d="M134.5,665.4l175.3,0l0,-17.6l-175.3,0l0,17.6Z" class="g2_2029" />
<path d="M662.6,647.8l187.8,0l0,17.6l-187.8,0Z" class="g2_2029" />
<path d="M134.5,688.3l86.9,0l0,-22.9l-86.9,0l0,22.9Z" class="g2_2029" />
<path d="M221.4,688.3l88.4,0l0,-22.9l-88.4,0l0,22.9Z" class="g2_2029" />
<path d="M662.6,688.3l86.9,0l0,-22.9l-86.9,0l0,22.9Z" class="g2_2029" />
<path d="M749.5,688.3l100.9,0l0,-22.9l-100.9,0l0,22.9Z" class="g2_2029" />
<path d="M134.5,705.8l354.3,0l0,-17.5l-354.3,0l0,17.5Z" class="g2_2029" />
<path d="M134.5,728.8l86.9,0l0,-23l-86.9,0l0,23Z" class="g2_2029" />
<path d="M221.4,728.8l88.4,0l0,-23l-88.4,0l0,23Z" class="g2_2029" />
<path d="M309.8,728.8l92.1,0l0,-23l-92.1,0l0,23Z" class="g2_2029" />
<path d="M401.9,728.8l86.9,0l0,-23l-86.9,0l0,23Z" class="g2_2029" />
<path d="M72,775.4l62.5,0l0,-46.6l-62.5,0l0,46.6Z" class="g1_2029" />
<path d="M488.8,746.3l173.8,0l0,-17.5l-173.8,0l0,17.5Z" class="g1_2029" />
<path d="M662.6,728.8l187.8,0l0,17.5l-187.8,0Z" class="g1_2029" />
<path d="M72,815.8l62.5,0l0,-40.4l-62.5,0l0,40.4Z" class="g1_2029" />
<path d="M221.4,792.9l88.4,0l0,-17.5l-88.4,0l0,17.5Z" class="g1_2029" />
<path d="M662.6,775.4l187.8,0l0,17.5l-187.8,0Z" class="g2_2029" />
<path d="M662.6,815.8l86.9,0l0,-22.9l-86.9,0l0,22.9Z" class="g2_2029" />
<path d="M749.5,815.8l100.9,0l0,-22.9l-100.9,0l0,22.9Z" class="g2_2029" />
<path d="M70.9,814.7l2.3,0l0,-666.8l-2.3,0l0,666.8Z" class="g3_2029" />
<path d="M133.4,817l2.3,0l0,-671.4l-2.3,0l0,671.4Z" class="g3_2029" />
<path d="M221,165.4l0.7,0l0,-19.8l-0.7,0l0,19.8Z" class="g3_2029" />
<path d="M221,205.2l0.7,0l0,-23.4l-0.7,0l0,23.4Z" class="g3_2029" />
<path d="M221,240.3l0.7,0l0,-18l-0.7,0l0,18Z" class="g3_2029" />
<path d="M221,275.4l0.7,0l0,-18l-0.7,0l0,18Z" class="g3_2029" />
<path d="M221,310.6l0.7,0l0,-18l-0.7,0l0,18Z" class="g3_2029" />
<path d="M221,357.1l0.7,0l0,-29.4l-0.7,0l0,29.4Z" class="g3_2029" />
<path d="M221,444.2l0.7,0l0,-69.9l-0.7,0l0,69.9Z" class="g3_2029" />
<path d="M221,490.8l0.7,0l0,-29.4l-0.7,0l0,29.4Z" class="g3_2029" />
<path d="M221,577.9l0.7,0l0,-69.9l-0.7,0l0,69.9Z" class="g3_2029" />
<path d="M221,613.1l0.7,0l0,-18l-0.7,0l0,18Z" class="g3_2029" />
<path d="M221,648.2l0.7,0l0,-18l-0.7,0l0,18Z" class="g3_2029" />
<path d="M221,688.7l0.7,0l0,-23.3l-0.7,0l0,23.3Z" class="g3_2029" />
<path d="M221,817l0.7,0l0,-111.2l-0.7,0L221,817Z" class="g3_2029" />
<path d="M309.5,165.4l0.7,0l0,-19.8l-0.7,0l0,19.8Z" class="g3_2029" />
<path d="M309.5,205.2l0.7,0l0,-23.4l-0.7,0l0,23.4Z" class="g3_2029" />
<path d="M309.5,240.3l0.7,0l0,-18l-0.7,0l0,18Z" class="g3_2029" />
<path d="M309.5,275.4l0.7,0l0,-18l-0.7,0l0,18Z" class="g3_2029" />
<path d="M309.5,310.6l0.7,0l0,-18l-0.7,0l0,18Z" class="g3_2029" />
<path d="M309.5,357.1l0.7,0l0,-29.4l-0.7,0l0,29.4Z" class="g3_2029" />
<path d="M309.5,444.2l0.7,0l0,-69.9l-0.7,0l0,69.9Z" class="g3_2029" />
<path d="M309.5,490.8l0.7,0l0,-29.4l-0.7,0l0,29.4Z" class="g3_2029" />
<path d="M309.5,537.4l0.7,0l0,-29.4l-0.7,0l0,29.4Z" class="g3_2029" />
<path d="M309.5,577.9l0.7,0l0,-23.3l-0.7,0l0,23.3Z" class="g3_2029" />
<path d="M309.5,613.1l0.7,0l0,-18l-0.7,0l0,18Z" class="g3_2029" />
<path d="M309.5,688.7l0.7,0l0,-58.5l-0.7,0l0,58.5Z" class="g3_2029" />
<path d="M309.5,817l0.7,0l0,-111.2l-0.7,0l0,111.2Z" class="g3_2029" />
<path d="M401.5,165.4l0.7,0l0,-19.8l-0.7,0l0,19.8Z" class="g3_2029" />
<path d="M401.5,205.2l0.7,0l0,-23.4l-0.7,0l0,23.4Z" class="g3_2029" />
<path d="M401.5,240.3l0.7,0l0,-18l-0.7,0l0,18Z" class="g3_2029" />
<path d="M401.5,275.4l0.7,0l0,-18l-0.7,0l0,18Z" class="g3_2029" />
<path d="M401.5,310.6l0.7,0l0,-18l-0.7,0l0,18Z" class="g3_2029" />
<path d="M401.5,357.1l0.7,0l0,-29.4l-0.7,0l0,29.4Z" class="g3_2029" />
<path d="M401.5,444.2l0.7,0l0,-69.9l-0.7,0l0,69.9Z" class="g3_2029" />
<path d="M401.5,490.8l0.7,0l0,-29.4l-0.7,0l0,29.4Z" class="g3_2029" />
<path d="M401.5,537.4l0.7,0l0,-29.4l-0.7,0l0,29.4Z" class="g3_2029" />
<path d="M401.5,577.9l0.7,0l0,-23.3l-0.7,0l0,23.3Z" class="g3_2029" />
<path d="M401.5,613.1l0.7,0l0,-18l-0.7,0l0,18Z" class="g3_2029" />
<path d="M401.5,688.7l0.7,0l0,-58.5l-0.7,0l0,58.5Z" class="g3_2029" />
<path d="M401.5,817l0.7,0l0,-111.2l-0.7,0l0,111.2Z" class="g3_2029" />
<path d="M488.4,165.4l0.7,0l0,-19.8l-0.7,0l0,19.8Z" class="g3_2029" />
<path d="M488.4,205.2l0.7,0l0,-23.4l-0.7,0l0,23.4Z" class="g3_2029" />
<path d="M488.4,240.3l0.7,0l0,-18l-0.7,0l0,18Z" class="g3_2029" />
<path d="M488.4,275.4l0.7,0l0,-18l-0.7,0l0,18Z" class="g3_2029" />
<path d="M488.4,310.6l0.7,0l0,-18l-0.7,0l0,18Z" class="g3_2029" />
<path d="M488.4,357.1l0.7,0l0,-29.4l-0.7,0l0,29.4Z" class="g3_2029" />
<path d="M488.4,444.2l0.7,0l0,-69.9l-0.7,0l0,69.9Z" class="g3_2029" />
<path d="M488.4,537.4l0.7,0l0,-75.9l-0.7,0l0,75.9Z" class="g3_2029" />
<path d="M488.4,613.1l0.7,0l0,-58.5l-0.7,0l0,58.5Z" class="g3_2029" />
<path d="M488.4,817l0.7,0l0,-186.8l-0.7,0l0,186.8Z" class="g3_2029" />
<path d="M575.3,165.4l0.7,0l0,-19.8l-0.7,0l0,19.8Z" class="g3_2029" />
<path d="M575.3,205.2l0.7,0l0,-23.4l-0.7,0l0,23.4Z" class="g3_2029" />
<path d="M575.3,240.3l0.7,0l0,-18l-0.7,0l0,18Z" class="g3_2029" />
<path d="M575.3,275.4l0.7,0l0,-18l-0.7,0l0,18Z" class="g3_2029" />
<path d="M575.3,310.6l0.7,0l0,-18l-0.7,0l0,18Z" class="g3_2029" />
<path d="M575.3,357.1l0.7,0l0,-29.4l-0.7,0l0,29.4Z" class="g3_2029" />
<path d="M575.3,444.2l0.7,0l0,-69.9l-0.7,0l0,69.9Z" class="g3_2029" />
<path d="M575.3,490.8l0.7,0l0,-29.4l-0.7,0l0,29.4Z" class="g3_2029" />
<path d="M575.3,537.4l0.7,0L576,508l-0.7,0l0,29.4Z" class="g3_2029" />
<path d="M575.3,613.1l0.7,0l0,-58.5l-0.7,0l0,58.5Z" class="g3_2029" />
<path d="M575.3,729.1l0.7,0l0,-98.9l-0.7,0l0,98.9Z" class="g3_2029" />
<path d="M575.3,817l0.7,0l0,-70.7l-0.7,0l0,70.7Z" class="g3_2029" />
<path d="M662.2,310.6l0.7,0l0,-165l-0.7,0l0,165Z" class="g3_2029" />
<path d="M662.2,357.1l0.7,0l0,-29.4l-0.7,0l0,29.4Z" class="g3_2029" />
<path d="M662.2,444.2l0.7,0l0,-69.9l-0.7,0l0,69.9Z" class="g3_2029" />
<path d="M662.2,537.4l0.7,0l0,-75.9l-0.7,0l0,75.9Z" class="g3_2029" />
<path d="M662.2,613.1l0.7,0l0,-58.5l-0.7,0l0,58.5Z" class="g3_2029" />
<path d="M662.2,817l0.7,0l0,-186.8l-0.7,0l0,186.8Z" class="g3_2029" />
<path d="M749.1,310.6l0.7,0l0,-165l-0.7,0l0,165Z" class="g3_2029" />
<path d="M749.1,357.1l0.7,0l0,-29.4l-0.7,0l0,29.4Z" class="g3_2029" />
<path d="M749.1,444.2l0.7,0l0,-69.9l-0.7,0l0,69.9Z" class="g3_2029" />
<path d="M749.1,490.8l0.7,0l0,-29.4l-0.7,0l0,29.4Z" class="g3_2029" />
<path d="M749.1,537.4l0.7,0l0,-29.4l-0.7,0l0,29.4Z" class="g3_2029" />
<path d="M749.1,613.1l0.7,0l0,-58.5l-0.7,0l0,58.5Z" class="g3_2029" />
<path d="M749.1,648.2l0.7,0l0,-18l-0.7,0l0,18Z" class="g3_2029" />
<path d="M749.1,729.1l0.7,0l0,-63.7l-0.7,0l0,63.7Z" class="g3_2029" />
<path d="M749.1,775.8l0.7,0l0,-29.5l-0.7,0l0,29.5Z" class="g3_2029" />
<path d="M749.1,817l0.7,0l0,-24.1l-0.7,0l0,24.1Z" class="g3_2029" />
<path d="M849.3,814.7l2.3,0l0,-666.8l-2.3,0l0,666.8Z" class="g3_2029" />
<path d="M70.8,147.9l780.8,0l0,-2.3l-780.8,0l0,2.3Z" class="g3_2029" />
<path d="M70.8,165.5l780.8,0l0,-2.3l-780.8,0l0,2.3Z" class="g3_2029" />
<path d="M70.8,205.1l780.8,0l0,-0.8l-780.8,0l0,0.8Z" class="g3_2029" />
<path d="M70.8,240.3l780.8,0l0,-0.8l-780.8,0l0,0.8Z" class="g3_2029" />
<path d="M70.8,275.4l780.8,0l0,-0.8l-780.8,0l0,0.8Z" class="g3_2029" />
<path d="M70.8,310.5l780.8,0l0,-0.8l-780.8,0l0,0.8Z" class="g3_2029" />
<path d="M70.8,357.1l780.8,0l0,-0.7l-780.8,0l0,0.7Z" class="g3_2029" />
<path d="M70.8,392.2l780.8,0l0,-0.7l-780.8,0l0,0.7Z" class="g3_2029" />
<path d="M70.8,444.2l780.8,0l0,-0.7l-780.8,0l0,0.7Z" class="g3_2029" />
<path d="M70.8,490.8l780.8,0l0,-0.8L70.8,490l0,0.8Z" class="g3_2029" />
<path d="M70.8,537.4l780.8,0l0,-0.7l-780.8,0l0,0.7Z" class="g3_2029" />
<path d="M70.8,577.9l780.8,0l0,-0.8l-780.8,0l0,0.8Z" class="g3_2029" />
<path d="M70.8,613.1l780.8,0l0,-0.8l-780.8,0l0,0.8Z" class="g3_2029" />
<path d="M70.8,648.2l780.8,0l0,-0.8l-780.8,0l0,0.8Z" class="g3_2029" />
<path d="M70.8,688.7l780.8,0l0,-0.7L70.8,688l0,0.7Z" class="g3_2029" />
<path d="M70.8,729.1l780.8,0l0,-0.7l-780.8,0l0,0.7Z" class="g3_2029" />
<path d="M70.8,775.8l780.8,0l0,-0.8L70.8,775l0,0.8Z" class="g3_2029" />
<path d="M70.8,817l780.8,0l0,-2.3l-780.8,0l0,2.3Z" class="g3_2029" />
</svg>