<?xml version="1.0" encoding="UTF-8" standalone="no"?>
<!DOCTYPE svg PUBLIC "-//W3C//DTD SVG 1.1//EN"
"http://www.w3.org/Graphics/SVG/1.1/DTD/svg11.dtd">
<svg viewBox="0 0 935 1210" version="1.1" xmlns="http://www.w3.org/2000/svg" xmlns:xlink="http://www.w3.org/1999/xlink">
<defs>
<style type="text/css"><![CDATA[
.g1_1644{
fill: #FFFFFF;
}
.g2_1644{
}
]]></style>
</defs>
<path d="M165,1149.3l687.5,0l0,-21.2l-687.5,0l0,21.2Z" class="g1_1644" />
<path d="M68.8,1149.3l82.5,0l0,-21.2l-82.5,0l0,21.2Z" class="g1_1644" />
<path d="M68.6,386.2l0.7,0l0,-260.5l-0.7,0l0,260.5Z" class="g2_1644" />
<path d="M254.9,386.9l0.8,0l0,-262l-0.8,0l0,262Z" class="g2_1644" />
<path d="M297.8,386.9l0.8,0l0,-262l-0.8,0l0,262Z" class="g2_1644" />
<path d="M370,386.9l0.7,0l0,-262l-0.7,0l0,262Z" class="g2_1644" />
<path d="M454,386.9l0.8,0l0,-262l-0.8,0l0,262Z" class="g2_1644" />
<path d="M855.9,386.2l0.7,0l0,-260.5l-0.7,0l0,260.5Z" class="g2_1644" />
<path d="M68.6,125.7l788,0l0,-0.8l-788,0l0,0.8Z" class="g2_1644" />
<path d="M68.6,176.1l788,0l0,-0.7l-788,0l0,0.7Z" class="g2_1644" />
<path d="M68.6,246.3l788,0l0,-0.7l-788,0l0,0.7Z" class="g2_1644" />
<path d="M68.6,316.6l788,0l0,-0.7l-788,0l0,0.7Z" class="g2_1644" />
<path d="M68.6,386.9l788,0l0,-0.7l-788,0l0,0.7Z" class="g2_1644" />
<path d="M69.6,490.1l0.7,0l0,-48.2l-0.7,0l0,48.2Z" class="g2_1644" />
<path d="M185.3,490.8l0.7,0l0,-49.6l-0.7,0l0,49.6Z" class="g2_1644" />
<path d="M341.5,490.8l0.8,0l0,-49.6l-0.8,0l0,49.6Z" class="g2_1644" />
<path d="M512,490.8l0.7,0l0,-49.6l-0.7,0l0,49.6Z" class="g2_1644" />
<path d="M683.6,490.8l0.7,0l0,-49.6l-0.7,0l0,49.6Z" class="g2_1644" />
<path d="M850.8,490.1l0.8,0l0,-48.2l-0.8,0l0,48.2Z" class="g2_1644" />
<path d="M69.6,441.9l782,0l0,-0.7l-782,0l0,0.7Z" class="g2_1644" />
<path d="M69.6,466.4l782,0l0,-0.7l-782,0l0,0.7Z" class="g2_1644" />
<path d="M69.6,490.8l782,0l0,-0.8l-782,0l0,0.8Z" class="g2_1644" />
<path d="M213,968.3l0.8,0l0,-121.5l-0.8,0l0,121.5Z" class="g2_1644" />
<path d="M358.1,969l0.7,0l0,-122.9l-0.7,0l0,122.9Z" class="g2_1644" />
<path d="M583.1,969l0.7,0l0,-122.9l-0.7,0l0,122.9Z" class="g2_1644" />
<path d="M707.4,968.3l0.7,0l0,-121.5l-0.7,0l0,121.5Z" class="g2_1644" />
<path d="M213,846.8l495.1,0l0,-0.7l-495.1,0l0,0.7Z" class="g2_1644" />
<path d="M213,871.2l495.1,0l0,-0.7l-495.1,0l0,0.7Z" class="g2_1644" />
<path d="M213,895.7l370.8,0l0,-0.8l-370.8,0l0,0.8Z" class="g2_1644" />
<path d="M213,920.2l370.8,0l0,-0.8l-370.8,0l0,0.8Z" class="g2_1644" />
<path d="M213,944.5l370.8,0l0,-0.7l-370.8,0l0,0.7Z" class="g2_1644" />
<path d="M213,969l495.1,0l0,-0.7l-495.1,0l0,0.7Z" class="g2_1644" />
</svg>