<?xml version="1.0" encoding="UTF-8" standalone="no"?>
<!DOCTYPE svg PUBLIC "-//W3C//DTD SVG 1.1//EN"
"http://www.w3.org/Graphics/SVG/1.1/DTD/svg11.dtd">
<svg viewBox="0 0 935 1210" version="1.1" xmlns="http://www.w3.org/2000/svg" xmlns:xlink="http://www.w3.org/1999/xlink">
<defs>
<style type="text/css"><![CDATA[
.g1_909{
fill: #FFFFFF;
}
.g2_909{
}
]]></style>
</defs>
<path d="M68.9,1149.3l686.3,0l0,-21.2l-686.3,0l0,21.2Z" class="g1_909" />
<path d="M771.3,1149.3l83.7,0l0,-21.2l-83.7,0l0,21.2Z" class="g1_909" />
<path d="M67.5,1076.7l0.7,0l0,-951l-0.7,0l0,951Z" class="g2_909" />
<path d="M359.2,1077.5l0.8,0l0,-952.6l-0.8,0l0,952.6Z" class="g2_909" />
<path d="M397.1,1077.5l0.7,0l0,-952.6l-0.7,0l0,952.6Z" class="g2_909" />
<path d="M470.4,1077.5l0.8,0l0,-952.6l-0.8,0l0,952.6Z" class="g2_909" />
<path d="M553.3,1077.5l0.7,0l0,-952.6l-0.7,0l0,952.6Z" class="g2_909" />
<path d="M854.5,1076.7l0.7,0l0,-951l-0.7,0l0,951Z" class="g2_909" />
<path d="M67.5,125.7l787.7,0l0,-0.8l-787.7,0l0,0.8Z" class="g2_909" />
<path d="M67.5,179.1l787.7,0l0,-0.7l-787.7,0l0,0.7Z" class="g2_909" />
<path d="M67.5,223.4l787.7,0l0,-0.7l-787.7,0l0,0.7Z" class="g2_909" />
<path d="M67.5,267.8l787.7,0l0,-0.8L67.5,267l0,0.8Z" class="g2_909" />
<path d="M67.5,312l787.7,0l0,-0.7l-787.7,0l0,0.7Z" class="g2_909" />
<path d="M67.5,356.3l787.7,0l0,-0.7l-787.7,0l0,0.7Z" class="g2_909" />
<path d="M67.5,400.7l787.7,0l0,-0.8l-787.7,0l0,0.8Z" class="g2_909" />
<path d="M67.5,444.9l787.7,0l0,-0.7l-787.7,0l0,0.7Z" class="g2_909" />
<path d="M67.5,489.3l787.7,0l0,-0.7l-787.7,0l0,0.7Z" class="g2_909" />
<path d="M67.5,533.6l787.7,0l0,-0.7l-787.7,0l0,0.7Z" class="g2_909" />
<path d="M67.5,577.9l787.7,0l0,-0.8l-787.7,0l0,0.8Z" class="g2_909" />
<path d="M67.5,622.2l787.7,0l0,-0.7l-787.7,0l0,0.7Z" class="g2_909" />
<path d="M67.5,666.5l787.7,0l0,-0.7l-787.7,0l0,0.7Z" class="g2_909" />
<path d="M67.5,710.8l787.7,0l0,-0.8L67.5,710l0,0.8Z" class="g2_909" />
<path d="M67.5,784.1l787.7,0l0,-0.7l-787.7,0l0,0.7Z" class="g2_909" />
<path d="M67.5,857.5l787.7,0l0,-0.8l-787.7,0l0,0.8Z" class="g2_909" />
<path d="M67.5,930.8l787.7,0l0,-0.7l-787.7,0l0,0.7Z" class="g2_909" />
<path d="M67.5,1004.1l787.7,0l0,-0.7l-787.7,0l0,0.7Z" class="g2_909" />
<path d="M67.5,1077.5l787.7,0l0,-0.8l-787.7,0l0,0.8Z" class="g2_909" />
</svg>