<?xml version="1.0" encoding="UTF-8" standalone="no"?>
<!DOCTYPE svg PUBLIC "-//W3C//DTD SVG 1.1//EN"
"http://www.w3.org/Graphics/SVG/1.1/DTD/svg11.dtd">
<svg viewBox="0 0 935 1210" version="1.1" xmlns="http://www.w3.org/2000/svg" xmlns:xlink="http://www.w3.org/1999/xlink">
<defs>
<style type="text/css"><![CDATA[
.g1_91{
fill: #FFFFFF;
}
.g2_91{
}
]]></style>
</defs>
<path d="M68.9,1149.3l783.8,0l0,-21.2l-783.8,0l0,21.2Z" class="g1_91" />
<path d="M69.9,771.2l0.7,0l0,-607.3l-0.7,0l0,607.3Z" class="g2_91" />
<path d="M209.6,771.9l0.7,0l0,-608.8l-0.7,0l0,608.8Z" class="g2_91" />
<path d="M246.2,771.9l0.8,0l0,-608.8l-0.8,0l0,608.8Z" class="g2_91" />
<path d="M288.2,771.9l0.7,0l0,-608.8l-0.7,0l0,608.8Z" class="g2_91" />
<path d="M327.5,771.9l0.8,0l0,-608.8l-0.8,0l0,608.8Z" class="g2_91" />
<path d="M363.1,771.9l0.7,0l0,-608.8l-0.7,0l0,608.8Z" class="g2_91" />
<path d="M852.1,771.2l0.8,0l0,-607.3l-0.8,0l0,607.3Z" class="g2_91" />
<path d="M69.9,163.8l783,0l0,-0.7l-783,0l0,0.7Z" class="g2_91" />
<path d="M69.9,267.8l783,0l0,-0.8l-783,0l0,0.8Z" class="g2_91" />
<path d="M209.6,292.1l643.3,0l0,-0.7l-643.3,0l0,0.7Z" class="g2_91" />
<path d="M209.6,426.6l643.3,0l0,-0.7l-643.3,0l0,0.7Z" class="g2_91" />
<path d="M209.6,451.1l643.3,0l0,-0.7l-643.3,0l0,0.7Z" class="g2_91" />
<path d="M209.6,475.6l643.3,0l0,-0.8l-643.3,0l0,0.8Z" class="g2_91" />
<path d="M69.9,499.9l783,0l0,-0.7l-783,0l0,0.7Z" class="g2_91" />
<path d="M69.9,541.2l783,0l0,-0.7l-783,0l0,0.7Z" class="g2_91" />
<path d="M209.6,565.7l643.3,0l0,-0.8l-643.3,0l0,0.8Z" class="g2_91" />
<path d="M69.9,606.9l783,0l0,-0.7l-783,0l0,0.7Z" class="g2_91" />
<path d="M209.6,648.2l643.3,0l0,-0.8l-643.3,0l0,0.8Z" class="g2_91" />
<path d="M69.9,672.7l783,0l0,-0.8l-783,0l0,0.8Z" class="g2_91" />
<path d="M69.9,713.9l783,0l0,-0.7l-783,0l0,0.7Z" class="g2_91" />
<path d="M69.9,771.9l783,0l0,-0.7l-783,0l0,0.7Z" class="g2_91" />
</svg>