<?xml version="1.0" encoding="UTF-8" standalone="no"?>
<!DOCTYPE svg PUBLIC "-//W3C//DTD SVG 1.1//EN"
"http://www.w3.org/Graphics/SVG/1.1/DTD/svg11.dtd">
<svg viewBox="0 0 935 1210" version="1.1" xmlns="http://www.w3.org/2000/svg" xmlns:xlink="http://www.w3.org/1999/xlink">
<defs>
<style type="text/css"><![CDATA[
.g1_573{
fill: #FFFFFF;
}
.g2_573{
}
]]></style>
</defs>
<path d="M68.9,1149.3l686.3,0l0,-21.2l-686.3,0l0,21.2Z" class="g1_573" />
<path d="M771.3,1149.3l83.7,0l0,-21.2l-83.7,0l0,21.2Z" class="g1_573" />
<path d="M70.3,1031.3l0,-0.8Z" class="g2_573" />
<path d="M70.3,1031.3l220.4,0l0,-0.8l-220.4,0l0,0.8Z" class="g2_573" />
<path d="M69.8,186l0.7,0l0,-60.3l-0.7,0l0,60.3Z" class="g2_573" />
<path d="M220.9,186.8l0.8,0l0,-61.9l-0.8,0l0,61.9Z" class="g2_573" />
<path d="M392.5,186.8l0.7,0l0,-61.9l-0.7,0l0,61.9Z" class="g2_573" />
<path d="M430.3,186.8l0.7,0l0,-61.9l-0.7,0l0,61.9Z" class="g2_573" />
<path d="M503.7,186.8l0.7,0l0,-61.9l-0.7,0l0,61.9Z" class="g2_573" />
<path d="M575.1,186.8l0.8,0l0,-61.9l-0.8,0l0,61.9Z" class="g2_573" />
<path d="M852.2,186l0.8,0l0,-60.3l-0.8,0l0,60.3Z" class="g2_573" />
<path d="M69.8,125.7l783.2,0l0,-0.8l-783.2,0l0,0.8Z" class="g2_573" />
<path d="M69.8,163.8l783.2,0l0,-0.7l-783.2,0l0,0.7Z" class="g2_573" />
<path d="M69.8,186.7l783.2,0l0,-0.7L69.8,186l0,0.7Z" class="g2_573" />
<path d="M69.9,332.7l0.7,0l0,-48.2l-0.7,0l0,48.2Z" class="g2_573" />
<path d="M131.9,333.5l0.7,0l0,-49.7l-0.7,0l0,49.7Z" class="g2_573" />
<path d="M309,333.5l0.7,0l0,-49.7l-0.7,0l0,49.7Z" class="g2_573" />
<path d="M487.4,333.5l0.7,0l0,-49.7l-0.7,0l0,49.7Z" class="g2_573" />
<path d="M667.5,333.5l0.7,0l0,-49.7l-0.7,0l0,49.7Z" class="g2_573" />
<path d="M852.1,332.7l0.8,0l0,-48.2l-0.8,0l0,48.2Z" class="g2_573" />
<path d="M69.9,284.5l783,0l0,-0.7l-783,0l0,0.7Z" class="g2_573" />
<path d="M69.9,309l783,0l0,-0.7l-783,0l0,0.7Z" class="g2_573" />
<path d="M69.9,333.4l783,0l0,-0.7l-783,0l0,0.7Z" class="g2_573" />
</svg>