<?xml version="1.0" encoding="UTF-8" standalone="no"?>
<!DOCTYPE svg PUBLIC "-//W3C//DTD SVG 1.1//EN"
"http://www.w3.org/Graphics/SVG/1.1/DTD/svg11.dtd">
<svg viewBox="0 0 935 1210" version="1.1" xmlns="http://www.w3.org/2000/svg" xmlns:xlink="http://www.w3.org/1999/xlink">
<defs>
<style type="text/css"><![CDATA[
.g1_93{
fill: #FFFFFF;
}
.g2_93{
}
]]></style>
</defs>
<path d="M68.9,1149.3l783.8,0l0,-21.2l-783.8,0l0,21.2Z" class="g1_93" />
<path d="M69.9,578.7l0.7,0L70.6,202l-0.7,0l0,376.7Z" class="g2_93" />
<path d="M209.6,579.4l0.7,0l0,-378.1l-0.7,0l0,378.1Z" class="g2_93" />
<path d="M246.2,579.4l0.8,0l0,-378.1l-0.8,0l0,378.1Z" class="g2_93" />
<path d="M288.2,579.4l0.7,0l0,-378.1l-0.7,0l0,378.1Z" class="g2_93" />
<path d="M327.5,579.4l0.8,0l0,-378.1l-0.8,0l0,378.1Z" class="g2_93" />
<path d="M363.1,579.4l0.7,0l0,-378.1l-0.7,0l0,378.1Z" class="g2_93" />
<path d="M852.1,578.7l0.8,0l0,-376.7l-0.8,0l0,376.7Z" class="g2_93" />
<path d="M69.9,202l783,0l0,-0.7l-783,0l0,0.7Z" class="g2_93" />
<path d="M69.9,305.9l783,0l0,-0.7l-783,0l0,0.7Z" class="g2_93" />
<path d="M209.6,330.4l643.3,0l0,-0.8l-643.3,0l0,0.8Z" class="g2_93" />
<path d="M209.6,464.8l643.3,0l0,-0.7l-643.3,0l0,0.7Z" class="g2_93" />
<path d="M209.6,489.3l643.3,0l0,-0.7l-643.3,0l0,0.7Z" class="g2_93" />
<path d="M209.6,513.7l643.3,0l0,-0.7l-643.3,0l0,0.7Z" class="g2_93" />
<path d="M69.9,538.2l783,0l0,-0.8l-783,0l0,0.8Z" class="g2_93" />
<path d="M69.9,579.4l783,0l0,-0.7l-783,0l0,0.7Z" class="g2_93" />
</svg>