<?xml version="1.0" encoding="UTF-8" standalone="no"?>
<!DOCTYPE svg PUBLIC "-//W3C//DTD SVG 1.1//EN"
"http://www.w3.org/Graphics/SVG/1.1/DTD/svg11.dtd">
<svg viewBox="0 0 935 1210" version="1.1" xmlns="http://www.w3.org/2000/svg" xmlns:xlink="http://www.w3.org/1999/xlink">
<defs>
<style type="text/css"><![CDATA[
.g1_695{
fill: #FFFFFF;
}
.g2_695{
}
]]></style>
</defs>
<path d="M68.9,1149.3l686.3,0l0,-21.2l-686.3,0l0,21.2Z" class="g1_695" />
<path d="M771.3,1149.3l83.7,0l0,-21.2l-83.7,0l0,21.2Z" class="g1_695" />
<path d="M69.8,340.4l0.7,0l0,-214.7l-0.7,0l0,214.7Z" class="g2_695" />
<path d="M391.3,341.1l0.8,0l0,-216.2l-0.8,0l0,216.2Z" class="g2_695" />
<path d="M429.2,341.1l0.7,0l0,-216.2l-0.7,0l0,216.2Z" class="g2_695" />
<path d="M502.5,341.1l0.7,0l0,-216.2l-0.7,0l0,216.2Z" class="g2_695" />
<path d="M573.9,341.1l0.8,0l0,-216.2l-0.8,0l0,216.2Z" class="g2_695" />
<path d="M852.2,340.4l0.8,0l0,-214.7l-0.8,0l0,214.7Z" class="g2_695" />
<path d="M69.8,125.7l783.2,0l0,-0.8l-783.2,0l0,0.8Z" class="g2_695" />
<path d="M69.8,163.8l783.2,0l0,-0.7l-783.2,0l0,0.7Z" class="g2_695" />
<path d="M69.8,208.2l783.2,0l0,-0.8l-783.2,0l0,0.8Z" class="g2_695" />
<path d="M69.8,252.4l783.2,0l0,-0.7l-783.2,0l0,0.7Z" class="g2_695" />
<path d="M69.8,296.7l783.2,0l0,-0.7L69.8,296l0,0.7Z" class="g2_695" />
<path d="M69.8,341.1l783.2,0l0,-0.7l-783.2,0l0,0.7Z" class="g2_695" />
<path d="M70.5,468.7l0.7,0l0,-72.6l-0.7,0l0,72.6Z" class="g2_695" />
<path d="M143.8,469.4l0.8,0l0,-74l-0.8,0l0,74Z" class="g2_695" />
<path d="M315.6,469.4l0.7,0l0,-74l-0.7,0l0,74Z" class="g2_695" />
<path d="M500.7,469.4l0.7,0l0,-74l-0.7,0l0,74Z" class="g2_695" />
<path d="M671.6,469.4l0.7,0l0,-74l-0.7,0l0,74Z" class="g2_695" />
<path d="M851.5,468.7l0.7,0l0,-72.6l-0.7,0l0,72.6Z" class="g2_695" />
<path d="M70.5,396.1l781.8,0l0,-0.7l-781.8,0l0,0.7Z" class="g2_695" />
<path d="M70.5,420.6l781.8,0l0,-0.8l-781.8,0l0,0.8Z" class="g2_695" />
<path d="M70.5,444.9l781.8,0l0,-0.7l-781.8,0l0,0.7Z" class="g2_695" />
<path d="M70.5,469.4l781.8,0l0,-0.7l-781.8,0l0,0.7Z" class="g2_695" />
</svg>