<?xml version="1.0" encoding="UTF-8" standalone="no"?>
<!DOCTYPE svg PUBLIC "-//W3C//DTD SVG 1.1//EN"
"http://www.w3.org/Graphics/SVG/1.1/DTD/svg11.dtd">
<svg viewBox="0 0 935 1210" version="1.1" xmlns="http://www.w3.org/2000/svg" xmlns:xlink="http://www.w3.org/1999/xlink">
<defs>
<style type="text/css"><![CDATA[
.g1_411{
fill: #FFFFFF;
}
.g2_411{
}
]]></style>
</defs>
<path d="M68.9,1149.3l686.3,0l0,-21.2l-686.3,0l0,21.2Z" class="g1_411" />
<path d="M771.3,1149.3l83.7,0l0,-21.2l-83.7,0l0,21.2Z" class="g1_411" />
<path d="M69.9,192.1l0.7,0l0,-60.3l-0.7,0l0,60.3Z" class="g2_411" />
<path d="M209.1,192.9l0.7,0l0,-61.9l-0.7,0l0,61.9Z" class="g2_411" />
<path d="M373.2,192.9l0.7,0l0,-61.9l-0.7,0l0,61.9Z" class="g2_411" />
<path d="M452.5,192.9l0.7,0l0,-61.9l-0.7,0l0,61.9Z" class="g2_411" />
<path d="M548.5,192.9l0.8,0l0,-61.9l-0.8,0l0,61.9Z" class="g2_411" />
<path d="M852.1,192.1l0.8,0l0,-60.3l-0.8,0l0,60.3Z" class="g2_411" />
<path d="M69.9,131.7l783,0l0,-0.7l-783,0l0,0.7Z" class="g2_411" />
<path d="M69.9,169.9l783,0l0,-0.7l-783,0l0,0.7Z" class="g2_411" />
<path d="M69.9,192.9l783,0l0,-0.8l-783,0l0,0.8Z" class="g2_411" />
<path d="M71.7,483.9l0.7,0l0,-113.8l-0.7,0l0,113.8Z" class="g2_411" />
<path d="M448.4,484.7l0.8,0l0,-115.4l-0.8,0l0,115.4Z" class="g2_411" />
<path d="M850.4,483.9l0.7,0l0,-113.8l-0.7,0l0,113.8Z" class="g2_411" />
<path d="M71.6,370.1l779.5,0l0,-0.8l-779.5,0l0,0.8Z" class="g2_411" />
<path d="M71.6,393l779.5,0l0,-0.8l-779.5,0l0,0.8Z" class="g2_411" />
<path d="M71.6,416l779.5,0l0,-0.7l-779.5,0l0,0.7Z" class="g2_411" />
<path d="M71.6,438.9l779.5,0l0,-0.7l-779.5,0l0,0.7Z" class="g2_411" />
<path d="M71.6,461.8l779.5,0l0,-0.7l-779.5,0l0,0.7Z" class="g2_411" />
<path d="M71.6,484.7l779.5,0l0,-0.7L71.6,484l0,0.7Z" class="g2_411" />
</svg>