<?xml version="1.0" encoding="UTF-8" standalone="no"?>
<!DOCTYPE svg PUBLIC "-//W3C//DTD SVG 1.1//EN"
"http://www.w3.org/Graphics/SVG/1.1/DTD/svg11.dtd">
<svg viewBox="0 0 935 1210" version="1.1" xmlns="http://www.w3.org/2000/svg" xmlns:xlink="http://www.w3.org/1999/xlink">
<defs>
<style type="text/css"><![CDATA[
.g1_1689{
fill: #FFFFFF;
}
.g2_1689{
}
]]></style>
</defs>
<path d="M68.9,1149.3l686.3,0l0,-21.2l-686.3,0l0,21.2Z" class="g1_1689" />
<path d="M771.3,1149.3l83.7,0l0,-21.2l-83.7,0l0,21.2Z" class="g1_1689" />
<path d="M158.5,300.5l0.7,0l0,-176.4l-0.7,0l0,176.4Z" class="g2_1689" />
<path d="M763.5,300.5l0.7,0l0,-176.4l-0.7,0l0,176.4Z" class="g2_1689" />
<path d="M158.5,124.1l605.7,0l0,-0.7l-605.7,0l0,0.7Z" class="g2_1689" />
<path d="M158.5,301.2l605.7,0l0,-0.7l-605.7,0l0,0.7Z" class="g2_1689" />
<path d="M158.5,560.8l0.7,0l0,-177.1l-0.7,0l0,177.1Z" class="g2_1689" />
<path d="M763.5,560.8l0.7,0l0,-177.1l-0.7,0l0,177.1Z" class="g2_1689" />
<path d="M158.5,383.7l605.7,0l0,-0.7l-605.7,0l0,0.7Z" class="g2_1689" />
<path d="M158.5,561.6l605.7,0l0,-0.8l-605.7,0l0,0.8Z" class="g2_1689" />
<path d="M158.5,829.9l0.7,0l0,-185.8l-0.7,0l0,185.8Z" class="g2_1689" />
<path d="M763.5,829.9l0.7,0l0,-185.8l-0.7,0l0,185.8Z" class="g2_1689" />
<path d="M158.5,644.1l605.7,0l0,-0.8l-605.7,0l0,0.8Z" class="g2_1689" />
<path d="M158.5,830.7l605.7,0l0,-0.7l-605.7,0l0,0.7Z" class="g2_1689" />
<path d="M158.5,1073.3l0.7,0l0,-160.1l-0.7,0l0,160.1Z" class="g2_1689" />
<path d="M763.5,1073.3l0.7,0l0,-160.1l-0.7,0l0,160.1Z" class="g2_1689" />
<path d="M158.5,913.2l605.7,0l0,-0.8l-605.7,0l0,0.8Z" class="g2_1689" />
<path d="M158.5,1074.1l605.7,0l0,-0.8l-605.7,0l0,0.8Z" class="g2_1689" />
<path fill-rule="evenodd" d="M499.6,243.6l0.2,0.2l0.1,0.3c1.2,0.9,2.9,-0.1,2.5,-1.6l-0.1,-0.3L502.1,242c-0.8,-1.3,-2.8,-0.5,-2.7,1l0.1,0.3l0.1,0.3Z" class="g2_1689" />
<path d="M500.9,242.9l3,5.8l0.4,0.9l-1,0.2L480,254.5l-2.7,0.5l2,-1.8l17.4,-16.3l0.8,-0.7l0.4,0.8l-0.2,1l-17.4,16.3l-1,-1.1l0.4,-0.2l23.4,-4.7l0.2,1.5l-0.8,-0.4l-3,-5.8Z" class="g2_1689" />
<path d="M497.9,237l3,5.9l-1.4,0.7l-2.9,-5.8Z" class="g2_1689" />
<path fill-rule="evenodd" d="M500.2,243.3l3.1,5.8l-23.4,4.6l17.4,-16.3Z" class="g2_1689" />
<path d="M648.4,168.8L647,166.1L500.3,241.6l1.4,2.7Z" class="g2_1689" />
<path d="M621.9,167.4l56.6,0l0,-20.6l-56.6,0l0,20.6Z" class="g1_1689" />
<path d="M621.9,147.1l57,0l0,-0.7l-57,0l0,0.7Z" class="g2_1689" />
<path d="M678.2,167.7l0.7,0l0,-20.9l-0.7,0l0,20.9Z" class="g2_1689" />
<path d="M621.5,167.7l57,0l0,-0.7l-57,0l0,0.7Z" class="g2_1689" />
<path d="M621.5,167.4l0.7,0l0,-21l-0.7,0l0,21Z" class="g2_1689" />
<path fill-rule="evenodd" d="M647.8,230.1l0.4,0l0.3,-0.1c1.3,-0.5,1.2,-2.6,-0.3,-2.9l-0.7,0c-1.4,0.5,-1.6,2.1,-0.2,2.9l0.2,0.1l0.3,0Z" class="g2_1689" />
<path d="M647.9,228.6l6.5,0.1l1,0.1l-0.3,0.9l-6.7,22.8l-0.8,2.6l-0.7,-2.6l-6.3,-23l-0.3,-1l1,0l0.7,0.6l6.4,23l-1.5,0.4l0,-0.4l6.8,-22.8l1.4,0.4l-0.7,0.6l-6.5,-0.1Z" class="g2_1689" />
<path d="M641.3,228.5l6.6,0.1l0,1.6l-6.6,-0.1Z" class="g2_1689" />
<path fill-rule="evenodd" d="M647.9,229.3l6.5,0.1l-6.8,22.9l-6.3,-23Z" class="g2_1689" />
<path d="M650,167.4l-3,0l-0.6,61.2l3.1,0Z" class="g2_1689" />
<path fill-rule="evenodd" d="M604.5,234.1l0.5,0.2c1.5,0.4,2.4,-1.6,1.3,-2.6l-0.2,-0.2l-0.3,-0.1l-0.2,0l-0.4,-0.1l-0.3,0.1l-0.5,0.1l-0.2,0.2l-0.4,0.6l-0.1,0.3l0,0.5l0.1,0.3l0.2,0.3l0.2,0.2l0.3,0.2Z" class="g2_1689" />
<path d="M605.2,232.8l5.5,3.6l0.8,0.7l-0.7,0.6l-18,15.7l-2,1.7l0.8,-2.6l7,-22.8l0.3,-1l0.8,0.6l0.4,0.9l-7,22.8l-1.5,-0.5l0.2,-0.3l18,-15.7l1,1.2l-0.9,0.1l-5.5,-3.6Z" class="g2_1689" />
<path d="M599.7,229.3l5.5,3.5l-0.8,1.4l-5.5,-3.6Z" class="g2_1689" />
<path fill-rule="evenodd" d="M604.8,233.5l5.5,3.6l-17.9,15.6l6.9,-22.8Z" class="g2_1689" />
<path d="M648.9,168.2l-2.6,-1.6L604,232l2.6,1.7Z" class="g2_1689" />
<path fill-rule="evenodd" d="M553.8,239.8l0.3,0.2l0.2,0.2c1.3,0.8,2.9,-0.7,2.1,-2L556.3,238l-0.4,-0.5l-0.6,-0.2l-0.4,0l-0.5,0.2l-0.3,0.2c-0.3,0.3,-0.6,0.8,-0.5,1.3l0,0.3l0.1,0.2l0.1,0.3Z" class="g2_1689" />
<path d="M555,238.9l4.1,5.1l0.6,0.8l-0.9,0.4l-22.2,8.9l-2.5,1l1.6,-2.2l14.1,-19.1l0.7,-1l0.5,0.9l0,0.9l-14.1,19.2l-1.2,-0.9l0.4,-0.3l22.1,-8.9l0.6,1.5l-0.9,-0.3l-4.1,-5Z" class="g2_1689" />
<path d="M551,233.7l4,5.2l-1.2,1l-4,-5.2Z" class="g2_1689" />
<path fill-rule="evenodd" d="M554.5,239.3l4,5.2l-22.2,8.9l14.2,-19.3Z" class="g2_1689" />
<path d="M648.5,168.6l-1.8,-2.4l-92.6,71.5l1.9,2.4Z" class="g2_1689" />
<path d="M621.9,275.6l56.6,0l0,-20.6l-56.6,0l0,20.6Z" class="g1_1689" />
<path d="M621.9,255.4l57,0l0,-0.8l-57,0l0,0.8Z" class="g2_1689" />
<path d="M678.2,276l0.7,0l0,-21l-0.7,0l0,21Z" class="g2_1689" />
<path d="M621.5,276l57,0l0,-0.7l-57,0l0,0.7Z" class="g2_1689" />
<path d="M621.5,275.6l0.7,0l0,-21l-0.7,0l0,21Z" class="g2_1689" />
<path d="M508.4,275.6l56.7,0l0,-20.6l-56.7,0l0,20.6Z" class="g1_1689" />
<path d="M508.4,255.4l57.1,0l0,-0.8l-57.1,0l0,0.8Z" class="g2_1689" />
<path d="M564.8,276l0.7,0l0,-21l-0.7,0l0,21Z" class="g2_1689" />
<path d="M508,276l57.1,0l0,-0.7l-57.1,0l0,0.7Z" class="g2_1689" />
<path d="M508,275.6l0.8,0l0,-21l-0.8,0l0,21Z" class="g2_1689" />
<path d="M565.1,275.6l56.8,0l0,-20.6l-56.8,0l0,20.6Z" class="g1_1689" />
<path d="M565.1,255.4l57.1,0l0,-0.8l-57.1,0l0,0.8Z" class="g2_1689" />
<path d="M621.5,276l0.7,0l0,-21l-0.7,0l0,21Z" class="g2_1689" />
<path d="M564.8,276l57.1,0l0,-0.7l-57.1,0l0,0.7Z" class="g2_1689" />
<path d="M564.8,275.6l0.7,0l0,-21l-0.7,0l0,21Z" class="g2_1689" />
<path d="M395,275.6l56.6,0l0,-20.6L395,255l0,20.6Z" class="g1_1689" />
<path d="M395,255.4l57,0l0,-0.8l-57,0l0,0.8Z" class="g2_1689" />
<path d="M451.3,276l0.7,0l0,-21l-0.7,0l0,21Z" class="g2_1689" />
<path d="M394.6,276l57,0l0,-0.7l-57,0l0,0.7Z" class="g2_1689" />
<path d="M394.6,275.6l0.8,0l0,-21l-0.8,0l0,21Z" class="g2_1689" />
<path d="M451.6,275.6l56.8,0l0,-20.6l-56.8,0l0,20.6Z" class="g1_1689" />
<path d="M451.6,255.4l57.2,0l0,-0.8l-57.2,0l0,0.8Z" class="g2_1689" />
<path d="M508,276l0.8,0l0,-21l-0.8,0l0,21Z" class="g2_1689" />
<path d="M451.3,276l57.1,0l0,-0.7l-57.1,0l0,0.7Z" class="g2_1689" />
<path d="M451.3,275.6l0.7,0l0,-21l-0.7,0l0,21Z" class="g2_1689" />
<path d="M281.5,275.6l56.7,0l0,-20.6l-56.7,0l0,20.6Z" class="g1_1689" />
<path d="M281.5,255.4l57.1,0l0,-0.8l-57.1,0l0,0.8Z" class="g2_1689" />
<path d="M337.9,276l0.7,0l0,-21l-0.7,0l0,21Z" class="g2_1689" />
<path d="M281.1,276l57.2,0l0,-0.7l-57.2,0l0,0.7Z" class="g2_1689" />
<path d="M281.1,275.6l0.8,0l0,-21l-0.8,0l0,21Z" class="g2_1689" />
<path d="M338.2,275.6l56.8,0L395,255l-56.8,0l0,20.6Z" class="g1_1689" />
<path d="M338.2,255.4l57.2,0l0,-0.8l-57.2,0l0,0.8Z" class="g2_1689" />
<path d="M394.6,276l0.8,0l0,-21l-0.8,0l0,21Z" class="g2_1689" />
<path d="M337.9,276l57.1,0l0,-0.7l-57.1,0l0,0.7Z" class="g2_1689" />
<path d="M337.9,275.6l0.7,0l0,-21l-0.7,0l0,21Z" class="g2_1689" />
<path d="M224.8,275.6l56.7,0l0,-20.6l-56.7,0l0,20.6Z" class="g1_1689" />
<path d="M224.8,255.4l57.1,0l0,-0.8l-57.1,0l0,0.8Z" class="g2_1689" />
<path d="M281.1,276l0.8,0l0,-21l-0.8,0l0,21Z" class="g2_1689" />
<path d="M224.4,276l57.1,0l0,-0.7l-57.1,0l0,0.7Z" class="g2_1689" />
<path d="M224.4,275.6l0.7,0l0,-21l-0.7,0l0,21Z" class="g2_1689" />
<path fill-rule="evenodd" d="M449.1,245.8l0.1,0.3l0.1,0.3c1.3,0.9,2.7,0.2,2.7,-1.4l-0.1,-0.2l-0.2,-0.3c-0.6,-1.3,-2.9,-0.7,-2.7,0.8l0,0.3l0.1,0.2Z" class="g2_1689" />
<path d="M450.4,245.3l2.4,6.1l0.4,1l-1,0.1l-23.7,2.3l-2.7,0.2l2.1,-1.5l18.9,-14.6l0.8,-0.7l0.4,1l-0.2,0.9l-18.9,14.5l-1,-1.1l0.5,-0.2L452.1,251l0.1,1.5L451.5,252L449,245.8Z" class="g2_1689" />
<path d="M448,239.2l2.4,6.1l-1.4,0.5l-2.4,-6.1Z" class="g2_1689" />
<path fill-rule="evenodd" d="M449.7,245.6l2.5,6.1L428.4,254l18.9,-14.6Z" class="g2_1689" />
<path d="M648.2,168.9L647.1,166L449.9,243.9l1.1,2.9Z" class="g2_1689" />
<path fill-rule="evenodd" d="M387.8,247.7l0.1,0.3l0.2,0.2c1,1.1,2.8,0.3,2.7,-1.2l-0.2,-0.5c-0.7,-1.3,-2.6,-1.1,-2.8,0.5l0,0.3l0,0.4Z" class="g2_1689" />
<path d="M389.3,247.2l1.9,6.4l0.2,0.9l-1,0.1L366.7,255l-2.8,0l2.3,-1.4l19.9,-13.1l0.8,-0.5l0.4,1l-0.4,0.8l-19.9,13l-0.8,-1.2l0.5,-0.1L390.5,253l-0.1,1.6L389.7,254l-1.9,-6.3Z" class="g2_1689" />
<path d="M387.3,241l2,6.2l-1.5,0.5l-2.1,-6.3Z" class="g2_1689" />
<path fill-rule="evenodd" d="M388.6,247.4l1.9,6.3l-23.8,0.5l19.9,-13Z" class="g2_1689" />
<path d="M648.1,168.9l-0.9,-3L388.9,245.8l0.9,2.9Z" class="g2_1689" />
<path fill-rule="evenodd" d="M336.5,248.7l0.2,0.3l0.1,0.2c0.9,1.3,2.9,0.5,2.7,-1l0,-0.2l-0.2,-0.3l0,-0.3L339,247.2L338.8,247l-0.3,-0.1l-0.3,0L338,246.8l-0.4,0.1c-0.4,0,-0.9,0.5,-1,1l-0.1,0.2l0,0.6Z" class="g2_1689" />
<path d="M338,248.3l1.7,6.3l0.2,1.1l-1,-0.1l-23.8,-0.5L312.4,255l2.3,-1.4l20.4,-12.1l1,-0.5l0.2,1l-0.3,0.8l-20.5,12.1l-0.8,-1.3l0.5,-0.1l23.8,0.6l-0.1,1.5L338.2,255l-1.8,-6.3Z" class="g2_1689" />
<path d="M336.3,242l1.7,6.3l-1.6,0.4l-1.6,-6.3Z" class="g2_1689" />
<path fill-rule="evenodd" d="M337.2,248.5l1.8,6.3l-23.8,-0.5l20.4,-12.1Z" class="g2_1689" />
<path d="M648,168.9l-0.7,-3l-309.7,81l0.7,2.9Z" class="g2_1689" />
<path fill-rule="evenodd" d="M274.9,249.6L275,250l0.1,0.2l0.3,0.2l0.2,0.2l0.8,0.3l0.3,-0.1l0.3,-0.1l0.3,-0.2l0.4,-0.3l0.1,-0.3l0,-0.3l0.1,-0.3L277.8,249l-0.1,-0.6l-0.2,-0.2l-0.6,-0.3l-0.2,-0.1l-0.3,0l-0.4,0.1c-0.6,0.1,-0.8,0.2,-1,0.9l-0.2,0.5l0.1,0.3Z" class="g2_1689" />
<path d="M276.4,249.3l1.3,6.5l0.1,1l-0.9,-0.1l-23.7,-1.5l-2.7,-0.1l2.3,-1.3l20.9,-11.3l0.9,-0.5l0.3,0.9l-0.4,0.8l-20.9,11.4l-0.8,-1.3l0.5,-0.1l23.7,1.5l-0.1,1.5l-0.7,-0.6l-1.4,-6.4Z" class="g2_1689" />
<path d="M274.9,242.9l1.5,6.4l-1.6,0.4l-1.5,-6.4Z" class="g2_1689" />
<path fill-rule="evenodd" d="M275.6,249.5l1.4,6.4l-23.7,-1.4l20.9,-11.4Z" class="g2_1689" />
<path d="M648,168.9l-0.6,-3l-371.3,82l0.6,2.9Z" class="g2_1689" />
<path fill-rule="evenodd" d="M499.6,505l0.2,0.3l0.1,0.1c1.2,1,2.9,0,2.5,-1.5l-0.1,-0.3l-0.2,-0.3c-0.8,-1.1,-2.8,-0.5,-2.7,1l0.1,0.4l0.1,0.3Z" class="g2_1689" />
<path d="M500.9,504.3l3,5.8l0.4,0.9l-1,0.2L480,515.8l-2.7,0.6l2,-1.9l17.4,-16.3l0.8,-0.6l0.4,0.8l-0.2,0.9l-17.4,16.3l-1,-1.1l0.4,-0.2l23.4,-4.5l0.2,1.4l-0.8,-0.3l-3,-5.9Z" class="g2_1689" />
<path d="M497.9,498.4l3,5.9l-1.4,0.7l-2.9,-5.9Z" class="g2_1689" />
<path fill-rule="evenodd" d="M500.2,504.6l3.1,5.9l-23.4,4.6l17.4,-16.3Z" class="g2_1689" />
<path d="M648.4,430.1L647,427.4L500.3,503l1.4,2.6Z" class="g2_1689" />
<path d="M621.9,428.7l56.6,0l0,-20.6l-56.6,0l0,20.6Z" class="g1_1689" />
<path d="M621.9,408.5l57,0l0,-0.8l-57,0l0,0.8Z" class="g2_1689" />
<path d="M678.2,429.1l0.7,0l0,-21l-0.7,0l0,21Z" class="g2_1689" />
<path d="M621.5,429.1l57,0l0,-0.7l-57,0l0,0.7Z" class="g2_1689" />
<path d="M621.5,428.7l0.7,0l0,-21l-0.7,0l0,21Z" class="g2_1689" />
<path fill-rule="evenodd" d="M647.8,491.5l0.4,-0.1l0.5,-0.2l0.2,-0.1l0.4,-0.6l0.1,-0.3l0,-0.5c-0.2,-0.6,-0.2,-0.9,-0.9,-1.1l-0.6,-0.2l-0.4,0c-1.4,0.4,-1.6,2.4,-0.2,2.9l0.5,0.2Z" class="g2_1689" />
<path d="M647.9,490l6.5,0.1l1,0l-0.3,1l-6.7,22.8l-0.8,2.6l-0.7,-2.6l-6.3,-23l-0.3,-1l1,0l0.7,0.5l6.4,23l-1.5,0.5l0,-0.5l6.8,-22.8l1.4,0.5l-0.7,0.5l-6.5,-0.1Z" class="g2_1689" />
<path d="M641.3,489.9l6.6,0.1l0,1.5l-6.6,-0.1Z" class="g2_1689" />
<path fill-rule="evenodd" d="M647.9,490.7l6.5,0.1l-6.8,22.8l-6.3,-23Z" class="g2_1689" />
<path d="M650,428.7l-3,0L646.4,490l3.1,0Z" class="g2_1689" />
<path fill-rule="evenodd" d="M604.5,495.5l0.2,0.1l0.3,0.1c1.6,0.1,2.3,-1.5,1.3,-2.6l-0.2,-0.2l-0.3,-0.1c-1.4,-0.7,-2.7,1.3,-1.8,2.2l0.2,0.3l0.3,0.2Z" class="g2_1689" />
<path d="M605.2,494.2l5.5,3.5l0.8,0.7l-0.7,0.6l-18,15.7l-2,1.7l0.8,-2.5l7,-22.8l0.3,-1.1l0.8,0.6l0.4,0.9l-7,22.8l-1.5,-0.4l0.2,-0.4l18,-15.7l1,1.2l-0.9,0.1l-5.5,-3.6Z" class="g2_1689" />
<path d="M599.7,490.6l5.5,3.6l-0.8,1.3L598.9,492Z" class="g2_1689" />
<path fill-rule="evenodd" d="M604.8,494.8l5.5,3.6l-17.9,15.7l6.9,-22.9Z" class="g2_1689" />
<path d="M648.9,429.6l-2.6,-1.7L604,493.4l2.6,1.6Z" class="g2_1689" />
<path fill-rule="evenodd" d="M553.8,501.1l0.3,0.3l0.2,0.1c1.4,0.9,2.8,-0.9,2.1,-1.9l-0.1,-0.3l-0.4,-0.5l-0.6,-0.1l-0.4,0l-0.5,0.1l-0.3,0.2l-0.2,0.2l-0.1,0.3l-0.2,0.5l0,0.6l0.1,0.3l0.1,0.2Z" class="g2_1689" />
<path d="M555,500.2l4.1,5.3l0.6,0.8l-0.9,0.3l-22.2,8.8l-2.5,1.1l1.6,-2.2l14.1,-19.2l0.7,-0.9L551,495l0,0.9l-14.1,19.3l-1.2,-0.9l0.4,-0.3l22.1,-8.8l0.6,1.4l-0.9,-0.2l-4.1,-5.2Z" class="g2_1689" />
<path d="M551,495l4,5.2l-1.2,1l-4,-5.2Z" class="g2_1689" />
<path fill-rule="evenodd" d="M554.5,500.7l4,5.2l-22.2,8.8l14.2,-19.2Z" class="g2_1689" />
<path d="M648.5,429.9l-1.8,-2.4L554.1,499l1.9,2.4Z" class="g2_1689" />
<path d="M621.9,537l56.6,0l0,-20.6l-56.6,0l0,20.6Z" class="g1_1689" />
<path d="M621.9,516.7l57,0l0,-0.7l-57,0l0,0.7Z" class="g2_1689" />
<path d="M678.2,537.4l0.7,0l0,-21l-0.7,0l0,21Z" class="g2_1689" />
<path d="M621.5,537.4l57,0l0,-0.8l-57,0l0,0.8Z" class="g2_1689" />
<path d="M621.5,537l0.7,0l0,-21l-0.7,0l0,21Z" class="g2_1689" />
<path d="M508.4,537l56.7,0l0,-20.6l-56.7,0l0,20.6Z" class="g1_1689" />
<path d="M508.4,516.7l57.1,0l0,-0.7l-57.1,0l0,0.7Z" class="g2_1689" />
<path d="M564.8,537.4l0.7,0l0,-21l-0.7,0l0,21Z" class="g2_1689" />
<path d="M508,537.4l57.1,0l0,-0.8l-57.1,0l0,0.8Z" class="g2_1689" />
<path d="M508,537l0.8,0l0,-21l-0.8,0l0,21Z" class="g2_1689" />
<path d="M565.1,537l56.8,0l0,-20.6l-56.8,0l0,20.6Z" class="g1_1689" />
<path d="M565.1,516.7l57.1,0l0,-0.7l-57.1,0l0,0.7Z" class="g2_1689" />
<path d="M621.5,537.4l0.7,0l0,-21l-0.7,0l0,21Z" class="g2_1689" />
<path d="M564.8,537.4l57.1,0l0,-0.8l-57.1,0l0,0.8Z" class="g2_1689" />
<path d="M564.8,537l0.7,0l0,-21l-0.7,0l0,21Z" class="g2_1689" />
<path d="M395,537l56.6,0l0,-20.6l-56.6,0l0,20.6Z" class="g1_1689" />
<path d="M395,516.7l57,0l0,-0.7l-57,0l0,0.7Z" class="g2_1689" />
<path d="M451.3,537.4l0.7,0l0,-21l-0.7,0l0,21Z" class="g2_1689" />
<path d="M394.6,537.4l57,0l0,-0.8l-57,0l0,0.8Z" class="g2_1689" />
<path d="M394.6,537l0.8,0l0,-21l-0.8,0l0,21Z" class="g2_1689" />
<path d="M451.6,537l56.8,0l0,-20.6l-56.8,0l0,20.6Z" class="g1_1689" />
<path d="M451.6,516.7l57.2,0l0,-0.7l-57.2,0l0,0.7Z" class="g2_1689" />
<path d="M508,537.4l0.8,0l0,-21l-0.8,0l0,21Z" class="g2_1689" />
<path d="M451.3,537.4l57.1,0l0,-0.8l-57.1,0l0,0.8Z" class="g2_1689" />
<path d="M451.3,537l0.7,0l0,-21l-0.7,0l0,21Z" class="g2_1689" />
<path d="M281.5,537l56.7,0l0,-20.6l-56.7,0l0,20.6Z" class="g1_1689" />
<path d="M281.5,516.7l57.1,0l0,-0.7l-57.1,0l0,0.7Z" class="g2_1689" />
<path d="M337.9,537.4l0.7,0l0,-21l-0.7,0l0,21Z" class="g2_1689" />
<path d="M281.1,537.4l57.2,0l0,-0.8l-57.2,0l0,0.8Z" class="g2_1689" />
<path d="M281.1,537l0.8,0l0,-21l-0.8,0l0,21Z" class="g2_1689" />
<path d="M338.2,537l56.8,0l0,-20.6l-56.8,0l0,20.6Z" class="g1_1689" />
<path d="M338.2,516.7l57.2,0l0,-0.7l-57.2,0l0,0.7Z" class="g2_1689" />
<path d="M394.6,537.4l0.8,0l0,-21l-0.8,0l0,21Z" class="g2_1689" />
<path d="M337.9,537.4l57.1,0l0,-0.8l-57.1,0l0,0.8Z" class="g2_1689" />
<path d="M337.9,537l0.7,0l0,-21l-0.7,0l0,21Z" class="g2_1689" />
<path d="M224.8,537l56.7,0l0,-20.6l-56.7,0l0,20.6Z" class="g1_1689" />
<path d="M224.8,516.7l57.1,0l0,-0.7l-57.1,0l0,0.7Z" class="g2_1689" />
<path d="M281.1,537.4l0.8,0l0,-21l-0.8,0l0,21Z" class="g2_1689" />
<path d="M224.4,537.4l57.1,0l0,-0.8l-57.1,0l0,0.8Z" class="g2_1689" />
<path d="M224.4,537l0.7,0l0,-21l-0.7,0l0,21Z" class="g2_1689" />
<path fill-rule="evenodd" d="M521.6,769.8l0.4,0.5l0.6,0.2l0.3,0l0.3,-0.1l0.3,-0.1l0.3,-0.2l0.2,-0.2c0.3,-0.4,0.4,-0.9,0.3,-1.4l-0.2,-0.2l0,-0.3l-0.5,-0.5L523,767.3l-0.3,0l-0.6,0.2l-0.2,0.2l-0.2,0.2l-0.2,0.3l-0.1,0.2l-0.1,0.3l0,0.6l0.1,0.2l0.2,0.3Z" class="g2_1689" />
<path d="M522.8,768.9l4,5.2l0.6,0.8l-0.9,0.4l-22.2,8.8l-2.5,1l1.6,-2.2l14.1,-19.1l0.7,-0.9l0.5,0.8l0,0.9l-14.1,19.2l-1.2,-0.9l0.4,-0.2L526,773.8l0.5,1.5L525.6,775l-4,-5.1Z" class="g2_1689" />
<path d="M518.7,763.7l4.1,5.2l-1.2,1l-4,-5.2Z" class="g2_1689" />
<path fill-rule="evenodd" d="M522.2,769.4l4.1,5.2l-22.2,8.8l14.1,-19.3Z" class="g2_1689" />
<path d="M616.3,698.6l-1.9,-2.4l-92.5,71.5l1.8,2.4Z" class="g2_1689" />
<path d="M558.6,697.4l113.4,0l0,-20.6l-113.4,0l0,20.6Z" class="g1_1689" />
<path d="M558.6,677.1l113.8,0l0,-0.7l-113.8,0l0,0.7Z" class="g2_1689" />
<path d="M671.6,697.8l0.8,0l0,-21l-0.8,0l0,21Z" class="g2_1689" />
<path d="M558.2,697.8l113.8,0l0,-0.8l-113.8,0l0,0.8Z" class="g2_1689" />
<path d="M558.2,697.4l0.8,0l0,-21l-0.8,0l0,21Z" class="g2_1689" />
<path fill-rule="evenodd" d="M615.4,760.2l0.8,-0.3l0.3,-0.2l0.1,-0.2l0.1,-0.3l0.1,-0.3l0,-0.5c-0.1,-0.6,-0.3,-1,-0.9,-1.1l-0.5,-0.2l-0.4,0.1c-1.5,0.2,-1.6,2.3,-0.3,2.8l0.3,0.1l0.4,0.1Z" class="g2_1689" />
<path d="M615.4,758.6l7.5,0l-0.3,1l-6.5,23l-0.7,2.5l-0.8,-2.5l-6.6,-23l-0.3,-1l1.1,0l0.7,0.6l6.6,22.9l-1.5,0.5l0,-0.5l6.5,-22.9l1.5,0.4l-0.7,0.6l-6.5,0Z" class="g2_1689" />
<path d="M608.8,760.2l6.6,0l0,-1.6l-6.6,0l0,1.6Z" class="g2_1689" />
<path fill-rule="evenodd" d="M615.4,759.4l6.5,0l-6.5,22.9l-6.6,-22.9Z" class="g2_1689" />
<path d="M613.9,758.6l3,0l0,-61.2l-3,0l0,61.2Z" class="g2_1689" />
<path fill-rule="evenodd" d="M411.7,776l0.3,0.6c1,1.1,2.8,0.1,2.6,-1.3l-0.1,-0.4l-0.1,-0.2c-1,-1.2,-2.8,-0.6,-2.8,0.8l0,0.3l0.1,0.2Z" class="g2_1689" />
<path d="M413,775.5l2.4,6.1l0.3,1.1l-0.9,0L391,784.9l-2.6,0.1l2.1,-1.5l19,-14.3l0.9,-0.7l0.3,1l-0.2,0.9l-19,14.3l-1,-1.2l0.5,-0.2l23.7,-2.1l0.1,1.5l-0.7,-0.5L411.7,776Z" class="g2_1689" />
<path d="M410.7,769.5l2.3,6l-1.3,0.6L409.3,770Z" class="g2_1689" />
<path fill-rule="evenodd" d="M412.4,775.8l2.4,6.1L391.1,784L410,769.7Z" class="g2_1689" />
<path d="M615.9,698.9L614.8,696L412.6,774.1l1.1,2.9Z" class="g2_1689" />
<path fill-rule="evenodd" d="M294,778.9l0.1,0.4l0.1,0.1c0.8,1.3,2.9,0.6,2.8,-0.9l0,-0.3l-0.2,-0.3l-0.1,-0.3l-0.3,-0.2l-0.1,-0.2l-0.6,-0.1l-0.6,0c-0.5,0,-1,0.5,-1,1l-0.1,0.2l0,0.6Z" class="g2_1689" />
<path d="M295.4,778.5l1.7,6.4l0.1,1l-0.9,0l-23.9,-0.8l-2.6,0l2.3,-1.3l20.6,-12.1l0.9,-0.5l0.3,1l-0.4,0.8l-20.6,12l-0.8,-1.2l0.4,-0.1l23.9,0.7l-0.1,1.5l-0.8,-0.6l-1.6,-6.4Z" class="g2_1689" />
<path d="M293.9,772.2l1.5,6.3l-1.5,0.4l-1.6,-6.3Z" class="g2_1689" />
<path fill-rule="evenodd" d="M294.7,778.7l1.7,6.4l-23.9,-0.7l20.6,-12Z" class="g2_1689" />
<path d="M615.7,698.9l-0.7,-3L295.1,777.1l0.7,2.9Z" class="g2_1689" />
<path d="M558.6,805.7l113.4,0L672,785l-113.4,0l0,20.7Z" class="g1_1689" />
<path d="M558.6,785.4l113.8,0l0,-0.7l-113.8,0l0,0.7Z" class="g2_1689" />
<path d="M671.6,806l0.8,0l0,-21l-0.8,0l0,21Z" class="g2_1689" />
<path d="M558.2,806L672,806l0,-0.7l-113.8,0l0,0.7Z" class="g2_1689" />
<path d="M558.2,805.7l0.8,0l0,-21l-0.8,0l0,21Z" class="g2_1689" />
<path d="M445.1,805.7l113.5,0l0,-20.7l-113.5,0l0,20.7Z" class="g1_1689" />
<path d="M445.1,785.4l113.9,0l0,-0.7l-113.9,0l0,0.7Z" class="g2_1689" />
<path d="M558.2,806l0.8,0l0,-21l-0.8,0l0,21Z" class="g2_1689" />
<path d="M444.8,806l113.8,0l0,-0.7l-113.8,0l0,0.7Z" class="g2_1689" />
<path d="M444.8,805.7l0.7,0l0,-21l-0.7,0l0,21Z" class="g2_1689" />
<path d="M331.7,805.7l113.4,0l0,-20.7l-113.4,0l0,20.7Z" class="g1_1689" />
<path d="M331.7,785.4l113.8,0l0,-0.7l-113.8,0l0,0.7Z" class="g2_1689" />
<path d="M444.8,806l0.7,0l0,-21l-0.7,0l0,21Z" class="g2_1689" />
<path d="M331.4,806l113.7,0l0,-0.7l-113.7,0l0,0.7Z" class="g2_1689" />
<path d="M331.4,805.7l0.7,0l0,-21l-0.7,0l0,21Z" class="g2_1689" />
<path d="M218.3,805.7l113.4,0l0,-20.7l-113.4,0l0,20.7Z" class="g1_1689" />
<path d="M218.3,785.4l113.8,0l0,-0.7l-113.8,0l0,0.7Z" class="g2_1689" />
<path d="M331.4,806l0.7,0l0,-21l-0.7,0l0,21Z" class="g2_1689" />
<path d="M217.9,806l113.8,0l0,-0.7l-113.8,0l0,0.7Z" class="g2_1689" />
<path d="M217.9,805.7l0.7,0l0,-21l-0.7,0l0,21Z" class="g2_1689" />
<path fill-rule="evenodd" d="M553.7,1006.4l0.8,-0.3l0.3,-0.1l0.1,-0.3l0.1,-0.2l0.1,-0.4l0,-0.5c-0.2,-0.6,-0.2,-0.9,-0.9,-1.1l-0.5,-0.2l-0.4,0.1c-1.4,0.2,-1.7,2.3,-0.3,2.8l0.3,0.1l0.4,0.1Z" class="g2_1689" />
<path d="M553.7,1004.9l7.5,0l-0.3,1l-6.5,22.9l-0.7,2.5l-0.8,-2.5l-6.6,-22.9l-0.2,-1l1,0l0.7,0.5l6.6,22.9l-1.5,0.5l0,-0.5l6.5,-22.9l1.5,0.5l-0.7,0.5l-6.5,0Z" class="g2_1689" />
<path d="M547.1,1006.4l6.6,0l0,-1.5l-6.6,0l0,1.5Z" class="g2_1689" />
<path fill-rule="evenodd" d="M553.7,1005.6l6.5,0l-6.5,22.9l-6.6,-22.9Z" class="g2_1689" />
<path d="M552.2,1004.9l3,0l0,-35.3l-3,0l0,35.3Z" class="g2_1689" />
<path d="M449.5,968.8l226.9,0l0,-20.6l-226.9,0l0,20.6Z" class="g1_1689" />
<path d="M449.5,948.6l227.3,0l0,-0.8l-227.3,0l0,0.8Z" class="g2_1689" />
<path d="M676,969.2l0.8,0l0,-21l-0.8,0l0,21Z" class="g2_1689" />
<path d="M449.2,969.2l227.2,0l0,-0.7l-227.2,0l0,0.7Z" class="g2_1689" />
<path d="M449.2,968.8l0.7,0l0,-21l-0.7,0l0,21Z" class="g2_1689" />
<path fill-rule="evenodd" d="M350.8,1024.7l0.1,0.3l0.2,0.3c1,1.1,2.7,0.5,2.7,-1l-0.1,-0.4l-0.1,-0.3l-0.1,-0.1l-0.2,-0.3L353,1023l-0.5,-0.2l-0.3,0l-0.3,0.1l-0.4,0.1l-0.1,0.2l-0.3,0.2l-0.1,0.2l-0.2,0.2l-0.1,0.4l0,0.3l0.1,0.2Z" class="g2_1689" />
<path d="M352.3,1024.4l1.7,6.3l0.2,1l-1,-0.1l-23.8,-0.3l-2.7,0l2.3,-1.4l20.3,-12.3l1,-0.6l0.2,1.1l-0.3,0.8l-20.4,12.3l-0.8,-1.3l0.5,-0.1l23.8,0.4l-0.1,1.4l-0.7,-0.5l-1.8,-6.4Z" class="g2_1689" />
<path d="M350.5,1018.1l1.8,6.3l-1.6,0.3l-1.7,-6.3Z" class="g2_1689" />
<path fill-rule="evenodd" d="M351.5,1024.6l1.8,6.3l-23.8,-0.4l20.3,-12.3Z" class="g2_1689" />
<path d="M554.1,971.1l-0.8,-2.9l-201.4,54.7l0.8,2.9Z" class="g2_1689" />
<path d="M450.5,1051.9l226.9,0l0,-20.6l-226.9,0l0,20.6Z" class="g1_1689" />
<path d="M450.5,1031.6l227.3,0l0,-0.7l-227.3,0l0,0.7Z" class="g2_1689" />
<path d="M677.1,1052.2l0.7,0l0,-20.9l-0.7,0l0,20.9Z" class="g2_1689" />
<path d="M450.2,1052.2l227.2,0l0,-0.7l-227.2,0l0,0.7Z" class="g2_1689" />
<path d="M450.2,1051.9l0.7,0l0,-21l-0.7,0l0,21Z" class="g2_1689" />
<path d="M223.7,1051.9l226.8,0l0,-20.6l-226.8,0l0,20.6Z" class="g1_1689" />
<path d="M223.7,1031.6l227.2,0l0,-0.7l-227.2,0l0,0.7Z" class="g2_1689" />
<path d="M450.2,1052.2l0.7,0l0,-20.9l-0.7,0l0,20.9Z" class="g2_1689" />
<path d="M223.3,1052.2l227.2,0l0,-0.7l-227.2,0l0,0.7Z" class="g2_1689" />
<path d="M223.3,1051.9l0.7,0l0,-21l-0.7,0l0,21Z" class="g2_1689" />
</svg>