<?xml version="1.0" encoding="UTF-8" standalone="no"?>
<!DOCTYPE svg PUBLIC "-//W3C//DTD SVG 1.1//EN"
"http://www.w3.org/Graphics/SVG/1.1/DTD/svg11.dtd">
<svg viewBox="0 0 935 1210" version="1.1" xmlns="http://www.w3.org/2000/svg" xmlns:xlink="http://www.w3.org/1999/xlink">
<defs>
<style type="text/css"><![CDATA[
.g1_1655{
fill: #FFFFFF;
}
.g2_1655{
}
.g3_1655{
fill: #E6E6E6;
}
.g4_1655{
fill: none;
stroke: #000000;
stroke-width: 0.15277778;
stroke-linecap: butt;
stroke-linejoin: miter;
}
]]></style>
</defs>
<path d="M68.9,1149.3l686.3,0l0,-21.2l-686.3,0l0,21.2Z" class="g1_1655" />
<path d="M771.3,1149.3l83.7,0l0,-21.2l-83.7,0l0,21.2Z" class="g1_1655" />
<path d="M69.9,386.2l0.8,0l0,-260.5l-0.8,0l0,260.5Z" class="g2_1655" />
<path d="M276.8,386.9l0.8,0l0,-262l-0.8,0l0,262Z" class="g2_1655" />
<path d="M321,386.9l0.7,0l0,-262l-0.7,0l0,262Z" class="g2_1655" />
<path d="M395.5,386.9l0.8,0l0,-262l-0.8,0l0,262Z" class="g2_1655" />
<path d="M479.6,386.9l0.7,0l0,-262l-0.7,0l0,262Z" class="g2_1655" />
<path d="M855,386.2l0.7,0l0,-260.5l-0.7,0l0,260.5Z" class="g2_1655" />
<path d="M69.9,125.7l785.9,0l0,-0.8l-785.9,0l0,0.8Z" class="g2_1655" />
<path d="M69.9,176.1l785.9,0l0,-0.7l-785.9,0l0,0.7Z" class="g2_1655" />
<path d="M69.9,246.3l785.9,0l0,-0.7l-785.9,0l0,0.7Z" class="g2_1655" />
<path d="M69.9,316.6l785.9,0l0,-0.7l-785.9,0l0,0.7Z" class="g2_1655" />
<path d="M69.9,386.9l785.9,0l0,-0.7l-785.9,0l0,0.7Z" class="g2_1655" />
<path d="M72.3,490.1l0.8,0l0,-48.2l-0.8,0l0,48.2Z" class="g2_1655" />
<path d="M196.1,490.8l0.7,0l0,-49.6l-0.7,0l0,49.6Z" class="g2_1655" />
<path d="M355.1,490.8l0.8,0l0,-49.6l-0.8,0l0,49.6Z" class="g2_1655" />
<path d="M523.3,490.8l0.8,0l0,-49.6l-0.8,0l0,49.6Z" class="g2_1655" />
<path d="M683.9,490.8l0.8,0l0,-49.6l-0.8,0l0,49.6Z" class="g2_1655" />
<path d="M849.7,490.1l0.7,0l0,-48.2l-0.7,0l0,48.2Z" class="g2_1655" />
<path d="M72.3,441.9l778.2,0l0,-0.7l-778.2,0l0,0.7Z" class="g2_1655" />
<path d="M72.3,466.4l778.2,0l0,-0.7l-778.2,0l0,0.7Z" class="g2_1655" />
<path d="M72.3,490.8l778.2,0l0,-0.8L72.3,490l0,0.8Z" class="g2_1655" />
<path d="M80,854.6l0.8,0L80.8,691L80,691l0,163.6Z" class="g2_1655" />
<path d="M842,854.6l0.7,0l0,-163.6l-0.7,0l0,163.6Z" class="g2_1655" />
<path d="M80,691l762.7,0l0,-0.7L80,690.3l0,0.7Z" class="g2_1655" />
<path d="M80,855.3l762.7,0l0,-0.7L80,854.6l0,0.7Z" class="g2_1655" />
<path d="M172.6,752.1l283.3,0l0,-19.5l-283.3,0l0,19.5Z" class="g3_1655" />
<path d="M172.6,732.6l283.3,0l0,19.5l-283.3,0l0,-19.5" class="g4_1655" />
<path d="M171.8,732.7l570.2,0l0,-0.7l-570.2,0l0,0.7Z" class="g2_1655" />
<path d="M741.3,753l0.7,0l0,-20.7l-0.7,0l0,20.7Z" class="g2_1655" />
<path d="M171.4,753l570.3,0l0,-0.8l-570.3,0l0,0.8Z" class="g2_1655" />
<path d="M171.4,752.6l0.8,0l0,-20.6l-0.8,0l0,20.6Z" class="g2_1655" />
<path d="M598.9,732.7l0.7,0l0,-0.4l-0.7,0l0,0.4Z" class="g2_1655" />
<path d="M598.9,753l0.7,0l0,-20.3l-0.7,0l0,20.3Z" class="g2_1655" />
<path d="M456.4,732.7l0.7,0l0,-0.4l-0.7,0l0,0.4Z" class="g2_1655" />
<path d="M456.4,753l0.7,0l0,-20.3l-0.7,0l0,20.3Z" class="g2_1655" />
<path d="M398,786.2l-7.6,2.1" class="g4_1655" />
<path d="M399.1,790.6l-8.7,-2.3l6.3,-6.4" class="g4_1655" />
<path d="M517.9,753.2L398,786.2" class="g4_1655" />
<path d="M676.8,762.8l0,7.9" class="g4_1655" />
<path d="M681.4,762.8l-4.6,7.9l-4.5,-7.9" class="g4_1655" />
<path d="M676.8,751.7l0,11.1" class="g4_1655" />
</svg>