<?xml version="1.0" encoding="UTF-8" standalone="no"?>
<!DOCTYPE svg PUBLIC "-//W3C//DTD SVG 1.1//EN"
"http://www.w3.org/Graphics/SVG/1.1/DTD/svg11.dtd">
<svg viewBox="0 0 935 1210" version="1.1" xmlns="http://www.w3.org/2000/svg" xmlns:xlink="http://www.w3.org/1999/xlink">
<defs>
<style type="text/css"><![CDATA[
.g1_1481{
fill: #FFFFFF;
}
.g2_1481{
}
.g3_1481{
fill: none;
stroke: #000000;
stroke-width: 1.0740278;
stroke-linecap: round;
stroke-linejoin: round;
}
.g4_1481{
fill: #FACCA7;
}
.g5_1481{
fill: #FFFFCC;
}
.g6_1481{
fill: none;
stroke: #FF0000;
stroke-width: 1.0740278;
stroke-linecap: round;
stroke-linejoin: round;
}
]]></style>
</defs>
<path d="M68.9,1149.3l686.3,0l0,-21.2l-686.3,0l0,21.2Z" class="g1_1481" />
<path d="M771.3,1149.3l83.7,0l0,-21.2l-83.7,0l0,21.2Z" class="g1_1481" />
<path d="M158.5,689.7l0.7,0l0,-299.8l-0.7,0l0,299.8Z" class="g2_1481" />
<path d="M763.5,689.7l0.7,0l0,-299.8l-0.7,0l0,299.8Z" class="g2_1481" />
<path d="M158.5,389.9l605.7,0l0,-0.7l-605.7,0l0,0.7Z" class="g2_1481" />
<path d="M158.5,690.5l605.7,0l0,-0.7l-605.7,0l0,0.7Z" class="g2_1481" />
<path d="M379.1,469.8l123.8,0l0,-13.8" class="g3_1481" />
<path fill-rule="evenodd" d="M497.2,457.1l5.7,-14.8l4.6,14.8l-10.3,0Z" class="g2_1481" />
<path d="M379.1,497.3l150.2,0l0,-41.3" class="g3_1481" />
<path fill-rule="evenodd" d="M524.7,457.1l4.6,-14.8l5.7,14.8l-10.3,0Z" class="g2_1481" />
<path d="M379.1,524.8l177.7,0l0,-68.8" class="g3_1481" />
<path fill-rule="evenodd" d="M552.2,457.1l4.6,-14.8l5.8,14.8l-10.4,0Z" class="g2_1481" />
<path d="M379.1,552.3l205.2,0l0,-96.3" class="g3_1481" />
<path fill-rule="evenodd" d="M579.7,457.1l4.6,-14.8l5.8,14.8l-10.4,0Z" class="g2_1481" />
<path d="M379.1,579.8l232.7,0l0,-123.8" class="g3_1481" />
<path fill-rule="evenodd" d="M607.2,457.1l4.6,-14.8l5.8,14.8l-10.4,0Z" class="g2_1481" />
<path d="M379.1,607.3l260.2,0l0,-151.3" class="g3_1481" />
<path fill-rule="evenodd" d="M634.7,457.1l4.6,-14.8l4.6,14.8l-9.2,0Z" class="g2_1481" />
<path d="M379.1,633.6l287.7,0l0,-177.6" class="g3_1481" />
<path fill-rule="evenodd" d="M662.2,457.1l4.6,-14.8l4.6,14.8l-9.2,0Z" class="g2_1481" />
<path d="M379.1,661.1l315.2,0l0,-205.1" class="g3_1481" />
<path fill-rule="evenodd" d="M689.7,457.1l4.6,-14.8l4.6,14.8l-9.2,0Z" class="g2_1481" />
<path d="M489.1,442.3l27.5,0l0,-27.5l-27.5,0l0,27.5Z" class="g4_1481" />
<path d="M489.1,442.3l27.5,0l0,-27.5l-27.5,0l0,27.5Z" class="g3_1481" />
<path d="M516.6,442.3l26.4,0l0,-27.5l-26.4,0l0,27.5Z" class="g4_1481" />
<path d="M516.6,442.3l26.4,0l0,-27.5l-26.4,0l0,27.5Z" class="g3_1481" />
<path d="M543,442.3l27.5,0l0,-27.5l-27.5,0l0,27.5Z" class="g4_1481" />
<path d="M543,442.3l27.5,0l0,-27.5l-27.5,0l0,27.5Z" class="g3_1481" />
<path d="M570.5,442.3l27.5,0l0,-27.5l-27.5,0l0,27.5Z" class="g4_1481" />
<path d="M570.5,442.3l27.5,0l0,-27.5l-27.5,0l0,27.5Z" class="g3_1481" />
<path d="M598,442.3l27.5,0l0,-27.5l-27.5,0l0,27.5Z" class="g4_1481" />
<path d="M598,442.3l27.5,0l0,-27.5l-27.5,0l0,27.5Z" class="g3_1481" />
<path d="M625.5,442.3l27.5,0l0,-27.5l-27.5,0l0,27.5Z" class="g4_1481" />
<path d="M625.5,442.3l27.5,0l0,-27.5l-27.5,0l0,27.5Z" class="g3_1481" />
<path d="M653,442.3l27.5,0l0,-27.5l-27.5,0l0,27.5Z" class="g4_1481" />
<path d="M653,442.3l27.5,0l0,-27.5l-27.5,0l0,27.5Z" class="g3_1481" />
<path d="M680.5,442.3l27.5,0l0,-27.5l-27.5,0l0,27.5Z" class="g4_1481" />
<path d="M680.5,442.3l27.5,0l0,-27.5l-27.5,0l0,27.5Z" class="g3_1481" />
<path d="M214.1,483.5l165,0l0,-27.5l-165,0l0,27.5Z" class="g5_1481" />
<path d="M214.1,483.5l165,0l0,-27.5l-165,0l0,27.5Z" class="g6_1481" />
<path d="M214.1,538.5l165,0l0,-27.5l-165,0l0,27.5Z" class="g5_1481" />
<path d="M214.1,538.5l165,0l0,-27.5l-165,0l0,27.5Z" class="g6_1481" />
<path d="M214.1,566l165,0l0,-27.5l-165,0l0,27.5Z" class="g5_1481" />
<path d="M214.1,566l165,0l0,-27.5l-165,0l0,27.5Z" class="g6_1481" />
<path d="M214.1,511l165,0l0,-27.5l-165,0l0,27.5Z" class="g5_1481" />
<path d="M214.1,511l165,0l0,-27.5l-165,0l0,27.5Z" class="g6_1481" />
<path d="M214.1,592.4l165,0l0,-26.4l-165,0l0,26.4Z" class="g5_1481" />
<path d="M214.1,592.4l165,0l0,-26.4l-165,0l0,26.4Z" class="g6_1481" />
<path d="M214.1,619.9l165,0l0,-27.5l-165,0l0,27.5Z" class="g5_1481" />
<path d="M214.1,619.9l165,0l0,-27.5l-165,0l0,27.5Z" class="g6_1481" />
<path d="M214.1,647.4l165,0l0,-27.5l-165,0l0,27.5Z" class="g5_1481" />
<path d="M214.1,647.4l165,0l0,-27.5l-165,0l0,27.5Z" class="g6_1481" />
<path d="M214.1,674.9l165,0l0,-27.5l-165,0l0,27.5Z" class="g5_1481" />
<path d="M214.1,674.9l165,0l0,-27.5l-165,0l0,27.5Z" class="g6_1481" />
</svg>