<?xml version="1.0" encoding="UTF-8" standalone="no"?>
<!DOCTYPE svg PUBLIC "-//W3C//DTD SVG 1.1//EN"
"http://www.w3.org/Graphics/SVG/1.1/DTD/svg11.dtd">
<svg viewBox="0 0 935 1210" version="1.1" xmlns="http://www.w3.org/2000/svg" xmlns:xlink="http://www.w3.org/1999/xlink">
<defs>
<style type="text/css"><![CDATA[
.g1_1857{
fill: #FFFFFF;
}
.g2_1857{
}
.g3_1857{
fill: none;
stroke: #000000;
stroke-width: 0.15277778;
stroke-linecap: butt;
stroke-linejoin: miter;
}
]]></style>
</defs>
<path d="M68.9,1149.3l686.3,0l0,-21.2l-686.3,0l0,21.2Z" class="g1_1857" />
<path d="M771.3,1149.3l83.7,0l0,-21.2l-83.7,0l0,21.2Z" class="g1_1857" />
<path d="M69.9,386.2l0.8,0l0,-260.5l-0.8,0l0,260.5Z" class="g2_1857" />
<path d="M272.6,386.9l0.8,0l0,-262l-0.8,0l0,262Z" class="g2_1857" />
<path d="M316.5,386.9l0.8,0l0,-262l-0.8,0l0,262Z" class="g2_1857" />
<path d="M389.1,386.9l0.8,0l0,-262l-0.8,0l0,262Z" class="g2_1857" />
<path d="M477.3,386.9l0.7,0l0,-262l-0.7,0l0,262Z" class="g2_1857" />
<path d="M855.3,386.2l0.8,0l0,-260.5l-0.8,0l0,260.5Z" class="g2_1857" />
<path d="M69.9,125.7l786.2,0l0,-0.8l-786.2,0l0,0.8Z" class="g2_1857" />
<path d="M69.9,176.1l786.2,0l0,-0.7l-786.2,0l0,0.7Z" class="g2_1857" />
<path d="M69.9,246.3l786.2,0l0,-0.7l-786.2,0l0,0.7Z" class="g2_1857" />
<path d="M69.9,316.6l786.2,0l0,-0.7l-786.2,0l0,0.7Z" class="g2_1857" />
<path d="M69.9,386.9l786.2,0l0,-0.7l-786.2,0l0,0.7Z" class="g2_1857" />
<path d="M68.7,490.1l0.7,0l0,-48.2l-0.7,0l0,48.2Z" class="g2_1857" />
<path d="M213.6,490.8l0.7,0l0,-49.6l-0.7,0l0,49.6Z" class="g2_1857" />
<path d="M369.1,490.8l0.8,0l0,-49.6l-0.8,0l0,49.6Z" class="g2_1857" />
<path d="M551.1,490.8l0.7,0l0,-49.6l-0.7,0l0,49.6Z" class="g2_1857" />
<path d="M710.1,490.8l0.8,0l0,-49.6l-0.8,0l0,49.6Z" class="g2_1857" />
<path d="M853.3,490.1l0.8,0l0,-48.2l-0.8,0l0,48.2Z" class="g2_1857" />
<path d="M68.7,441.9l785.5,0l0,-0.7l-785.5,0l0,0.7Z" class="g2_1857" />
<path d="M68.7,466.4l785.5,0l0,-0.7l-785.5,0l0,0.7Z" class="g2_1857" />
<path d="M68.7,490.8l785.5,0l0,-0.8L68.7,490l0,0.8Z" class="g2_1857" />
<path d="M67.3,1045.6l0.7,0L68,881.9l-0.7,0l0,163.7Z" class="g2_1857" />
<path d="M854.7,1045.6l0.7,0l0,-163.7l-0.7,0l0,163.7Z" class="g2_1857" />
<path d="M67.3,881.9l788.1,0l0,-0.7l-788.1,0l0,0.7Z" class="g2_1857" />
<path d="M67.3,1046.4l788.1,0l0,-0.8l-788.1,0l0,0.8Z" class="g2_1857" />
<path d="M142.2,923.6l570.2,0l0,-0.7l-570.2,0l0,0.7Z" class="g2_1857" />
<path d="M711.7,943.9l0.7,0l0,-20.6l-0.7,0l0,20.6Z" class="g2_1857" />
<path d="M141.8,943.9l570.3,0l0,-0.7l-570.3,0l0,0.7Z" class="g2_1857" />
<path d="M141.8,943.5l0.7,0l0,-20.6l-0.7,0l0,20.6Z" class="g2_1857" />
<path d="M569.3,923.6l0.7,0l0,-0.3l-0.7,0l0,0.3Z" class="g2_1857" />
<path d="M569.3,943.9l0.7,0l0,-20.3l-0.7,0l0,20.3Z" class="g2_1857" />
<path d="M426.7,923.6l0.7,0l0,-0.3l-0.7,0l0,0.3Z" class="g2_1857" />
<path d="M426.7,943.9l0.7,0l0,-20.3l-0.7,0l0,20.3Z" class="g2_1857" />
<path d="M210.3,975.1l-6.4,4.5" class="g3_1857" />
<path d="M212.8,978.8l-8.9,0.8l3.7,-8.2" class="g3_1857" />
<path d="M243.7,951.8l-33.4,23.3" class="g3_1857" />
<path d="M672.9,963l6.2,4.8" class="g3_1857" />
<path d="M675.8,959.4l3.3,8.4l-8.9,-1.3" class="g3_1857" />
<path d="M647.2,942.6L672.9,963" class="g3_1857" />
<path d="M500,925.1l0.8,0l0,-0.4l-0.8,0l0,0.4Z" class="g2_1857" />
<path d="M500,943l0.8,0l0,-17.9l-0.8,0l0,17.9Z" class="g2_1857" />
<path d="M535.4,968.4l0.9,7.8" class="g3_1857" />
<path d="M539.9,967.9l-3.6,8.3l-5.4,-7.3" class="g3_1857" />
<path d="M532.6,943.4l2.8,25" class="g3_1857" />
<path d="M428.8,962l-7,3.5" class="g3_1857" />
<path d="M430.7,966.2l-8.9,-0.7l5,-7.5" class="g3_1857" />
<path d="M462.2,945.7L428.8,962" class="g3_1857" />
</svg>