<?xml version="1.0" encoding="UTF-8" standalone="no"?>
<!DOCTYPE svg PUBLIC "-//W3C//DTD SVG 1.1//EN"
"http://www.w3.org/Graphics/SVG/1.1/DTD/svg11.dtd">
<svg viewBox="0 0 935 1210" version="1.1" xmlns="http://www.w3.org/2000/svg" xmlns:xlink="http://www.w3.org/1999/xlink">
<defs>
<style type="text/css"><![CDATA[
.g1_2082{
fill: #FFFFFF;
}
.g2_2082{
}
]]></style>
</defs>
<path d="M68.8,1149.3l783.7,0l0,-21.2l-783.7,0l0,21.2Z" class="g1_2082" />
<path d="M68.6,1076.7l0.7,0l0,-952.6l-0.7,0l0,952.6Z" class="g2_2082" />
<path d="M467.6,1077.5l0.7,0l0,-954.1l-0.7,0l0,954.1Z" class="g2_2082" />
<path d="M851.1,1076.7l0.8,0l0,-952.6l-0.8,0l0,952.6Z" class="g2_2082" />
<path d="M68.6,124.1l783.4,0l0,-0.7l-783.4,0l0,0.7Z" class="g2_2082" />
<path d="M68.6,148.6l783.4,0l0,-0.7l-783.4,0l0,0.7Z" class="g2_2082" />
<path d="M68.6,173L852,173l0,-0.8l-783.4,0l0,0.8Z" class="g2_2082" />
<path d="M68.6,197.4l783.4,0l0,-0.7l-783.4,0l0,0.7Z" class="g2_2082" />
<path d="M68.6,221.9l783.4,0l0,-0.7l-783.4,0l0,0.7Z" class="g2_2082" />
<path d="M68.6,246.3l783.4,0l0,-0.7l-783.4,0l0,0.7Z" class="g2_2082" />
<path d="M68.6,270.8l783.4,0l0,-0.7l-783.4,0l0,0.7Z" class="g2_2082" />
<path d="M68.6,295.3l783.4,0l0,-0.8l-783.4,0l0,0.8Z" class="g2_2082" />
<path d="M68.6,319.6l783.4,0l0,-0.7l-783.4,0l0,0.7Z" class="g2_2082" />
<path d="M68.6,344.1l783.4,0l0,-0.7l-783.4,0l0,0.7Z" class="g2_2082" />
<path d="M68.6,368.6l783.4,0l0,-0.7l-783.4,0l0,0.7Z" class="g2_2082" />
<path d="M68.6,393L852,393l0,-0.8l-783.4,0l0,0.8Z" class="g2_2082" />
<path d="M68.6,417.4l783.4,0l0,-0.7l-783.4,0l0,0.7Z" class="g2_2082" />
<path d="M68.6,441.9l783.4,0l0,-0.7l-783.4,0l0,0.7Z" class="g2_2082" />
<path d="M68.6,466.4l783.4,0l0,-0.7l-783.4,0l0,0.7Z" class="g2_2082" />
<path d="M68.6,490.8l783.4,0l0,-0.8L68.6,490l0,0.8Z" class="g2_2082" />
<path d="M68.6,515.3l783.4,0l0,-0.8l-783.4,0l0,0.8Z" class="g2_2082" />
<path d="M68.6,539.7l783.4,0l0,-0.7L68.6,539l0,0.7Z" class="g2_2082" />
<path d="M68.6,564.1l783.4,0l0,-0.7l-783.4,0l0,0.7Z" class="g2_2082" />
<path d="M68.6,588.6l783.4,0l0,-0.7l-783.4,0l0,0.7Z" class="g2_2082" />
<path d="M68.6,613.1l783.4,0l0,-0.8l-783.4,0l0,0.8Z" class="g2_2082" />
<path d="M68.6,637.4l783.4,0l0,-0.7l-783.4,0l0,0.7Z" class="g2_2082" />
<path d="M68.6,661.9l783.4,0l0,-0.7l-783.4,0l0,0.7Z" class="g2_2082" />
<path d="M68.6,686.4l783.4,0l0,-0.7l-783.4,0l0,0.7Z" class="g2_2082" />
<path d="M68.6,710.8l783.4,0l0,-0.8L68.6,710l0,0.8Z" class="g2_2082" />
<path d="M68.6,735.3l783.4,0l0,-0.8l-783.4,0l0,0.8Z" class="g2_2082" />
<path d="M68.6,759.7l783.4,0l0,-0.7L68.6,759l0,0.7Z" class="g2_2082" />
<path d="M68.6,784.1l783.4,0l0,-0.7l-783.4,0l0,0.7Z" class="g2_2082" />
<path d="M68.6,808.6l783.4,0l0,-0.7l-783.4,0l0,0.7Z" class="g2_2082" />
<path d="M68.6,833.1l783.4,0l0,-0.8l-783.4,0l0,0.8Z" class="g2_2082" />
<path d="M68.6,857.5l783.4,0l0,-0.8l-783.4,0l0,0.8Z" class="g2_2082" />
<path d="M68.6,881.9l783.4,0l0,-0.7l-783.4,0l0,0.7Z" class="g2_2082" />
<path d="M68.6,906.4l783.4,0l0,-0.7l-783.4,0l0,0.7Z" class="g2_2082" />
<path d="M68.6,930.8l783.4,0l0,-0.7l-783.4,0l0,0.7Z" class="g2_2082" />
<path d="M68.6,955.3l783.4,0l0,-0.8l-783.4,0l0,0.8Z" class="g2_2082" />
<path d="M68.6,979.7l783.4,0l0,-0.7L68.6,979l0,0.7Z" class="g2_2082" />
<path d="M68.6,1004.1l783.4,0l0,-0.7l-783.4,0l0,0.7Z" class="g2_2082" />
<path d="M68.6,1028.6l783.4,0l0,-0.7l-783.4,0l0,0.7Z" class="g2_2082" />
<path d="M68.6,1053.1l783.4,0l0,-0.8l-783.4,0l0,0.8Z" class="g2_2082" />
<path d="M68.6,1077.5l783.4,0l0,-0.8l-783.4,0l0,0.8Z" class="g2_2082" />
</svg>