<?xml version="1.0" encoding="UTF-8" standalone="no"?>
<!DOCTYPE svg PUBLIC "-//W3C//DTD SVG 1.1//EN"
"http://www.w3.org/Graphics/SVG/1.1/DTD/svg11.dtd">
<svg viewBox="0 0 935 1210" version="1.1" xmlns="http://www.w3.org/2000/svg" xmlns:xlink="http://www.w3.org/1999/xlink">
<defs>
<style type="text/css"><![CDATA[
.g1_637{
fill: #FFFFFF;
}
.g2_637{
}
]]></style>
</defs>
<path d="M68.9,1149.3l686.3,0l0,-21.2l-686.3,0l0,21.2Z" class="g1_637" />
<path d="M771.3,1149.3l83.7,0l0,-21.2l-83.7,0l0,21.2Z" class="g1_637" />
<path d="M71.5,186l0.7,0l0,-60.3l-0.7,0l0,60.3Z" class="g2_637" />
<path d="M220,186.8l0.7,0l0,-61.9l-0.7,0l0,61.9Z" class="g2_637" />
<path d="M388.5,186.8l0.7,0l0,-61.9l-0.7,0l0,61.9Z" class="g2_637" />
<path d="M426.3,186.8l0.8,0l0,-61.9l-0.8,0l0,61.9Z" class="g2_637" />
<path d="M499.7,186.8l0.7,0l0,-61.9l-0.7,0l0,61.9Z" class="g2_637" />
<path d="M571.1,186.8l0.7,0l0,-61.9l-0.7,0l0,61.9Z" class="g2_637" />
<path d="M850.5,186l0.7,0l0,-60.3l-0.7,0l0,60.3Z" class="g2_637" />
<path d="M71.5,125.7l779.8,0l0,-0.8l-779.8,0l0,0.8Z" class="g2_637" />
<path d="M71.5,163.8l779.8,0l0,-0.7l-779.8,0l0,0.7Z" class="g2_637" />
<path d="M71.5,186.7l779.8,0l0,-0.7L71.5,186l0,0.7Z" class="g2_637" />
<path d="M71.6,289.9l0.7,0l0,-48.1l-0.7,0l0,48.1Z" class="g2_637" />
<path d="M148.9,290.7l0.7,0l0,-49.7l-0.7,0l0,49.7Z" class="g2_637" />
<path d="M319.3,290.7l0.7,0L320,241l-0.7,0l0,49.7Z" class="g2_637" />
<path d="M498.9,290.7l0.8,0l0,-49.7l-0.8,0l0,49.7Z" class="g2_637" />
<path d="M670.8,290.7l0.8,0l0,-49.7l-0.8,0l0,49.7Z" class="g2_637" />
<path d="M850.4,289.9l0.7,0l0,-48.1l-0.7,0l0,48.1Z" class="g2_637" />
<path d="M71.6,241.7l779.5,0l0,-0.7L71.6,241l0,0.7Z" class="g2_637" />
<path d="M71.6,266.2l779.5,0l0,-0.7l-779.5,0l0,0.7Z" class="g2_637" />
<path d="M71.6,290.7l779.5,0l0,-0.8l-779.5,0l0,0.8Z" class="g2_637" />
</svg>