<?xml version="1.0" encoding="UTF-8" standalone="no"?>
<!DOCTYPE svg PUBLIC "-//W3C//DTD SVG 1.1//EN"
"http://www.w3.org/Graphics/SVG/1.1/DTD/svg11.dtd">
<svg viewBox="0 0 935 1210" version="1.1" xmlns="http://www.w3.org/2000/svg" xmlns:xlink="http://www.w3.org/1999/xlink">
<defs>
<style type="text/css"><![CDATA[
.g1_1909{
fill: #FFFFFF;
}
.g2_1909{
}
]]></style>
</defs>
<path d="M68.9,1149.3l686.3,0l0,-21.2l-686.3,0l0,21.2Z" class="g1_1909" />
<path d="M771.3,1149.3l83.7,0l0,-21.2l-83.7,0l0,21.2Z" class="g1_1909" />
<path d="M69.9,432l0.8,0l0,-263.5l-0.8,0l0,263.5Z" class="g2_1909" />
<path d="M298.5,432.8l0.7,0l0,-265.1l-0.7,0l0,265.1Z" class="g2_1909" />
<path d="M341.8,432.8l0.8,0l0,-265.1l-0.8,0l0,265.1Z" class="g2_1909" />
<path d="M416.3,432.8l0.7,0l0,-265.1l-0.7,0l0,265.1Z" class="g2_1909" />
<path d="M500.2,432.8l0.8,0l0,-265.1l-0.8,0l0,265.1Z" class="g2_1909" />
<path d="M854,432l0.7,0l0,-263.5l-0.7,0L854,432Z" class="g2_1909" />
<path d="M69.9,168.4l784.8,0l0,-0.7l-784.8,0l0,0.7Z" class="g2_1909" />
<path d="M69.9,218.8l784.8,0l0,-0.7l-784.8,0l0,0.7Z" class="g2_1909" />
<path d="M69.9,272.3l784.8,0l0,-0.7l-784.8,0l0,0.7Z" class="g2_1909" />
<path d="M69.9,325.8l784.8,0l0,-0.7l-784.8,0l0,0.7Z" class="g2_1909" />
<path d="M69.9,379.2l784.8,0l0,-0.7l-784.8,0l0,0.7Z" class="g2_1909" />
<path d="M69.9,432.8l784.8,0l0,-0.8L69.9,432l0,0.8Z" class="g2_1909" />
<path d="M71.4,561.8l0.7,0l0,-64.9l-0.7,0l0,64.9Z" class="g2_1909" />
<path d="M168.2,562.7l0.7,0l0,-66.5l-0.7,0l0,66.5Z" class="g2_1909" />
<path d="M345,562.7l0.8,0l0,-66.5l-0.8,0l0,66.5Z" class="g2_1909" />
<path d="M510.5,562.7l0.7,0l0,-66.5l-0.7,0l0,66.5Z" class="g2_1909" />
<path d="M681.7,562.7l0.8,0l0,-66.5l-0.8,0l0,66.5Z" class="g2_1909" />
<path d="M850.6,561.8l0.7,0l0,-64.9l-0.7,0l0,64.9Z" class="g2_1909" />
<path d="M71.4,496.9l779.9,0l0,-0.7l-779.9,0l0,0.7Z" class="g2_1909" />
<path d="M71.4,521.4l779.9,0l0,-0.7l-779.9,0l0,0.7Z" class="g2_1909" />
<path d="M71.4,562.7l779.9,0l0,-0.8l-779.9,0l0,0.8Z" class="g2_1909" />
</svg>