<?xml version="1.0" encoding="UTF-8" standalone="no"?>
<!DOCTYPE svg PUBLIC "-//W3C//DTD SVG 1.1//EN"
"http://www.w3.org/Graphics/SVG/1.1/DTD/svg11.dtd">
<svg viewBox="0 0 935 1210" version="1.1" xmlns="http://www.w3.org/2000/svg" xmlns:xlink="http://www.w3.org/1999/xlink">
<defs>
<clipPath id="c0_1439"><path d="M70.3,278.7l0,-29.6l782.2,0l0,29.6Z" /></clipPath>
<style type="text/css"><![CDATA[
.g1_1439{
fill: #FFFFFF;
}
.g2_1439{
}
]]></style>
</defs>
<path d="M68.9,1149.3l686.3,0l0,-21.2l-686.3,0l0,21.2Z" class="g1_1439" />
<path d="M771.3,1149.3l83.7,0l0,-21.2l-83.7,0l0,21.2Z" class="g1_1439" />
<g clip-path="url(#c0_1439)">
<path d="M70.3,278.7l782.2,0l0,-29.6l-782.2,0l0,29.6Z" class="g1_1439" />
</g>
<path d="M71.2,272l53.6,0l0,-12.5l-53.6,0l0,12.5Z" class="g1_1439" />
<path d="M69.9,248.7l0.8,0l0,-123l-0.8,0l0,123Z" class="g2_1439" />
<path d="M319.4,249.4l0.7,0l0,-124.5l-0.7,0l0,124.5Z" class="g2_1439" />
<path d="M362.9,249.4l0.7,0l0,-124.5l-0.7,0l0,124.5Z" class="g2_1439" />
<path d="M437.3,249.4l0.8,0l0,-124.5l-0.8,0l0,124.5Z" class="g2_1439" />
<path d="M517.2,249.4l0.7,0l0,-124.5l-0.7,0l0,124.5Z" class="g2_1439" />
<path d="M852.1,248.7l0.8,0l0,-123l-0.8,0l0,123Z" class="g2_1439" />
<path d="M69.9,125.7l783.1,0l0,-0.8l-783.1,0l0,0.8Z" class="g2_1439" />
<path d="M69.9,176.1l783.1,0l0,-0.7l-783.1,0l0,0.7Z" class="g2_1439" />
<path d="M69.9,212.8l783.1,0l0,-0.8L69.9,212l0,0.8Z" class="g2_1439" />
<path d="M69.9,249.4l783.1,0l0,-0.7l-783.1,0l0,0.7Z" class="g2_1439" />
<path d="M69.4,418.8l0.7,0l0,-48.1l-0.7,0l0,48.1Z" class="g2_1439" />
<path d="M185.9,419.6l0.7,0l0,-49.6l-0.7,0l0,49.6Z" class="g2_1439" />
<path d="M356.4,419.6l0.7,0l0,-49.6l-0.7,0l0,49.6Z" class="g2_1439" />
<path d="M522.8,419.6l0.7,0l0,-49.6l-0.7,0l0,49.6Z" class="g2_1439" />
<path d="M690.2,419.6l0.8,0L691,370l-0.8,0l0,49.6Z" class="g2_1439" />
<path d="M852.6,418.8l0.7,0l0,-48.1l-0.7,0l0,48.1Z" class="g2_1439" />
<path d="M69.4,370.7l783.9,0l0,-0.7L69.4,370l0,0.7Z" class="g2_1439" />
<path d="M69.4,395.1l783.9,0l0,-0.8l-783.9,0l0,0.8Z" class="g2_1439" />
<path d="M69.4,419.6l783.9,0l0,-0.8l-783.9,0l0,0.8Z" class="g2_1439" />
</svg>