<?xml version="1.0" encoding="UTF-8" standalone="no"?>
<!DOCTYPE svg PUBLIC "-//W3C//DTD SVG 1.1//EN"
"http://www.w3.org/Graphics/SVG/1.1/DTD/svg11.dtd">
<svg viewBox="0 0 935 1210" version="1.1" xmlns="http://www.w3.org/2000/svg" xmlns:xlink="http://www.w3.org/1999/xlink">
<defs>
<style type="text/css"><![CDATA[
.g1_367{
fill: #FFFFFF;
}
.g2_367{
}
]]></style>
</defs>
<path d="M68.9,1149.3l686.3,0l0,-21.2l-686.3,0l0,21.2Z" class="g1_367" />
<path d="M771.3,1149.3l83.7,0l0,-21.2l-83.7,0l0,21.2Z" class="g1_367" />
<path d="M69.9,568l0.8,0l0,-421l-0.8,0l0,421Z" class="g2_367" />
<path d="M310.3,568.7l0.7,0l0,-422.4l-0.7,0l0,422.4Z" class="g2_367" />
<path d="M353.8,568.7l0.8,0l0,-422.4l-0.8,0l0,422.4Z" class="g2_367" />
<path d="M428.4,568.7l0.7,0l0,-422.4l-0.7,0l0,422.4Z" class="g2_367" />
<path d="M513.6,568.7l0.7,0l0,-422.4l-0.7,0l0,422.4Z" class="g2_367" />
<path d="M853.4,568l0.7,0l0,-421l-0.7,0l0,421Z" class="g2_367" />
<path d="M69.9,147l784.2,0l0,-0.7l-784.2,0l0,0.7Z" class="g2_367" />
<path d="M69.9,197.4l784.2,0l0,-0.7l-784.2,0l0,0.7Z" class="g2_367" />
<path d="M69.9,250.9l784.2,0l0,-0.7l-784.2,0l0,0.7Z" class="g2_367" />
<path d="M69.9,304.4l784.2,0l0,-0.7l-784.2,0l0,0.7Z" class="g2_367" />
<path d="M69.9,357.9l784.2,0l0,-0.8l-784.2,0l0,0.8Z" class="g2_367" />
<path d="M69.9,428.2l784.2,0l0,-0.8l-784.2,0l0,0.8Z" class="g2_367" />
<path d="M69.9,498.5l784.2,0l0,-0.8l-784.2,0l0,0.8Z" class="g2_367" />
<path d="M69.9,568.7l784.2,0l0,-0.7L69.9,568l0,0.7Z" class="g2_367" />
<path d="M72.6,696.3l0.7,0l0,-72.6l-0.7,0l0,72.6Z" class="g2_367" />
<path d="M174.4,697l0.7,0l0,-74l-0.7,0l0,74Z" class="g2_367" />
<path d="M333.1,697l0.8,0l0,-74l-0.8,0l0,74Z" class="g2_367" />
<path d="M504.2,697l0.7,0l0,-74l-0.7,0l0,74Z" class="g2_367" />
<path d="M676,697l0.7,0l0,-74l-0.7,0l0,74Z" class="g2_367" />
<path d="M849.4,696.3l0.7,0l0,-72.6l-0.7,0l0,72.6Z" class="g2_367" />
<path d="M72.6,623.7l777.6,0l0,-0.7L72.6,623l0,0.7Z" class="g2_367" />
<path d="M72.6,648.2l777.6,0l0,-0.8l-777.6,0l0,0.8Z" class="g2_367" />
<path d="M72.6,672.7l777.6,0l0,-0.8l-777.6,0l0,0.8Z" class="g2_367" />
<path d="M72.6,697l777.6,0l0,-0.7l-777.6,0l0,0.7Z" class="g2_367" />
</svg>