<?xml version="1.0" encoding="UTF-8" standalone="no"?>
<!DOCTYPE svg PUBLIC "-//W3C//DTD SVG 1.1//EN"
"http://www.w3.org/Graphics/SVG/1.1/DTD/svg11.dtd">
<svg viewBox="0 0 935 1210" version="1.1" xmlns="http://www.w3.org/2000/svg" xmlns:xlink="http://www.w3.org/1999/xlink">
<defs>
<style type="text/css"><![CDATA[
.g1_688{
fill: #FFFFFF;
}
.g2_688{
}
]]></style>
</defs>
<path d="M165,1149.3l687.5,0l0,-21.2l-687.5,0l0,21.2Z" class="g1_688" />
<path d="M68.8,1149.3l82.5,0l0,-21.2l-82.5,0l0,21.2Z" class="g1_688" />
<path d="M68.9,933.4l0,-0.7Z" class="g2_688" />
<path d="M68.9,933.4l220.4,0l0,-0.7l-220.4,0l0,0.7Z" class="g2_688" />
<path d="M69.7,479.3l0.7,0L70.4,309l-0.7,0l0,170.3Z" class="g2_688" />
<path d="M138.4,480.2l0.8,0l0,-171.9l-0.8,0l0,171.9Z" class="g2_688" />
<path d="M312.3,480.2l0.7,0l0,-171.9l-0.7,0l0,171.9Z" class="g2_688" />
<path d="M498.3,480.2l0.7,0l0,-171.9l-0.7,0l0,171.9Z" class="g2_688" />
<path d="M676.1,480.2l0.8,0l0,-171.9l-0.8,0l0,171.9Z" class="g2_688" />
<path d="M850.8,479.3l0.7,0l0,-170.3l-0.7,0l0,170.3Z" class="g2_688" />
<path d="M69.7,309l781.8,0l0,-0.7l-781.8,0l0,0.7Z" class="g2_688" />
<path d="M69.7,333.4l781.8,0l0,-0.7l-781.8,0l0,0.7Z" class="g2_688" />
<path d="M69.7,357.9l781.8,0l0,-0.8l-781.8,0l0,0.8Z" class="g2_688" />
<path d="M69.7,382.3l781.8,0l0,-0.7l-781.8,0l0,0.7Z" class="g2_688" />
<path d="M69.7,406.8l781.8,0l0,-0.7l-781.8,0l0,0.7Z" class="g2_688" />
<path d="M69.7,431.2l781.8,0l0,-0.7l-781.8,0l0,0.7Z" class="g2_688" />
<path d="M69.7,455.7l781.8,0l0,-0.8l-781.8,0l0,0.8Z" class="g2_688" />
<path d="M69.7,480.2l781.8,0l0,-0.8l-781.8,0l0,0.8Z" class="g2_688" />
</svg>