<?xml version="1.0" encoding="UTF-8" standalone="no"?>
<!DOCTYPE svg PUBLIC "-//W3C//DTD SVG 1.1//EN"
"http://www.w3.org/Graphics/SVG/1.1/DTD/svg11.dtd">
<svg viewBox="0 0 935 1210" version="1.1" xmlns="http://www.w3.org/2000/svg" xmlns:xlink="http://www.w3.org/1999/xlink">
<defs>
<style type="text/css"><![CDATA[
.g1_1216{
fill: #FFFFFF;
}
.g2_1216{
}
]]></style>
</defs>
<path d="M165,1149.3l687.5,0l0,-21.2l-687.5,0l0,21.2Z" class="g1_1216" />
<path d="M68.8,1149.3l82.5,0l0,-21.2l-82.5,0l0,21.2Z" class="g1_1216" />
<path d="M70.7,398.4l0.7,0l0,-272.7l-0.7,0l0,272.7Z" class="g2_1216" />
<path d="M390,399.1l0.7,0l0,-274.2l-0.7,0l0,274.2Z" class="g2_1216" />
<path d="M427.8,399.1l0.7,0l0,-274.2l-0.7,0l0,274.2Z" class="g2_1216" />
<path d="M501.1,399.1l0.8,0l0,-274.2l-0.8,0l0,274.2Z" class="g2_1216" />
<path d="M572.6,399.1l0.7,0l0,-274.2l-0.7,0l0,274.2Z" class="g2_1216" />
<path d="M849.8,398.4l0.7,0l0,-272.7l-0.7,0l0,272.7Z" class="g2_1216" />
<path d="M70.7,125.7l779.8,0l0,-0.8l-779.8,0l0,0.8Z" class="g2_1216" />
<path d="M70.7,179.1l779.8,0l0,-0.7l-779.8,0l0,0.7Z" class="g2_1216" />
<path d="M70.7,252.4l779.8,0l0,-0.7l-779.8,0l0,0.7Z" class="g2_1216" />
<path d="M70.7,325.8l779.8,0l0,-0.7l-779.8,0l0,0.7Z" class="g2_1216" />
<path d="M70.7,399.1l779.8,0l0,-0.7l-779.8,0l0,0.7Z" class="g2_1216" />
<path d="M70.2,502.2l0.8,0l0,-48.1l-0.8,0l0,48.1Z" class="g2_1216" />
<path d="M138.9,503.1l0.7,0l0,-49.7l-0.7,0l0,49.7Z" class="g2_1216" />
<path d="M310.2,503.1l0.7,0l0,-49.7l-0.7,0l0,49.7Z" class="g2_1216" />
<path d="M483.5,503.1l0.8,0l0,-49.7l-0.8,0l0,49.7Z" class="g2_1216" />
<path d="M673.6,503.1l0.7,0l0,-49.7l-0.7,0l0,49.7Z" class="g2_1216" />
<path d="M850.1,502.2l0.7,0l0,-48.1l-0.7,0l0,48.1Z" class="g2_1216" />
<path d="M70.2,454.1l780.7,0l0,-0.7l-780.7,0l0,0.7Z" class="g2_1216" />
<path d="M70.2,478.6l780.7,0l0,-0.7l-780.7,0l0,0.7Z" class="g2_1216" />
<path d="M70.2,503.1l780.7,0l0,-0.8l-780.7,0l0,0.8Z" class="g2_1216" />
</svg>