<?xml version="1.0" encoding="UTF-8" standalone="no"?>
<!DOCTYPE svg PUBLIC "-//W3C//DTD SVG 1.1//EN"
"http://www.w3.org/Graphics/SVG/1.1/DTD/svg11.dtd">
<svg viewBox="0 0 935 1210" version="1.1" xmlns="http://www.w3.org/2000/svg" xmlns:xlink="http://www.w3.org/1999/xlink">
<defs>
<style type="text/css"><![CDATA[
.g1_505{
fill: #FFFFFF;
}
.g2_505{
}
]]></style>
</defs>
<path d="M68.9,1149.3l686.3,0l0,-21.2l-686.3,0l0,21.2Z" class="g1_505" />
<path d="M771.3,1149.3l83.7,0l0,-21.2l-83.7,0l0,21.2Z" class="g1_505" />
<path d="M69.9,283.8l0.7,0l0,-152l-0.7,0l0,152Z" class="g2_505" />
<path d="M195.3,284.5l0.7,0L196,131l-0.7,0l0,153.5Z" class="g2_505" />
<path d="M346.4,284.5l0.7,0l0,-153.5l-0.7,0l0,153.5Z" class="g2_505" />
<path d="M419.6,284.5l0.7,0l0,-153.5l-0.7,0l0,153.5Z" class="g2_505" />
<path d="M500,284.5l0.8,0l0,-153.5l-0.8,0l0,153.5Z" class="g2_505" />
<path d="M852.1,283.8l0.8,0l0,-152l-0.8,0l0,152Z" class="g2_505" />
<path d="M69.9,131.7l783,0l0,-0.7l-783,0l0,0.7Z" class="g2_505" />
<path d="M69.9,169.9l783,0l0,-0.7l-783,0l0,0.7Z" class="g2_505" />
<path d="M69.9,192.9l783,0l0,-0.8l-783,0l0,0.8Z" class="g2_505" />
<path d="M69.9,215.8l783,0l0,-0.8l-783,0l0,0.8Z" class="g2_505" />
<path d="M69.9,238.7l783,0l0,-0.7l-783,0l0,0.7Z" class="g2_505" />
<path d="M69.9,261.6l783,0l0,-0.7l-783,0l0,0.7Z" class="g2_505" />
<path d="M69.9,284.5l783,0l0,-0.7l-783,0l0,0.7Z" class="g2_505" />
<path d="M71,534.3l0.8,0l0,-113.7l-0.8,0l0,113.7Z" class="g2_505" />
<path d="M447.9,535.2l0.7,0l0,-115.5l-0.7,0l0,115.5Z" class="g2_505" />
<path d="M588.9,535.2l0.7,0l0,-115.5l-0.7,0l0,115.5Z" class="g2_505" />
<path d="M719.9,535.2l0.8,0l0,-115.5l-0.8,0l0,115.5Z" class="g2_505" />
<path d="M850.9,534.3l0.8,0l0,-113.7l-0.8,0l0,113.7Z" class="g2_505" />
<path d="M71,420.6l780.7,0l0,-0.8L71,419.8l0,0.8Z" class="g2_505" />
<path d="M71,443.5l780.7,0l0,-0.8L71,442.7l0,0.8Z" class="g2_505" />
<path d="M71,466.4l780.7,0l0,-0.7L71,465.7l0,0.7Z" class="g2_505" />
<path d="M71,489.3l780.7,0l0,-0.7L71,488.6l0,0.7Z" class="g2_505" />
<path d="M71,512.2l780.7,0l0,-0.7L71,511.5l0,0.7Z" class="g2_505" />
<path d="M71,535.2l780.7,0l0,-0.8L71,534.4l0,0.8Z" class="g2_505" />
</svg>