<?xml version="1.0" encoding="UTF-8" standalone="no"?>
<!DOCTYPE svg PUBLIC "-//W3C//DTD SVG 1.1//EN"
"http://www.w3.org/Graphics/SVG/1.1/DTD/svg11.dtd">
<svg viewBox="0 0 935 1210" version="1.1" xmlns="http://www.w3.org/2000/svg" xmlns:xlink="http://www.w3.org/1999/xlink">
<defs>
<style type="text/css"><![CDATA[
.g1_617{
fill: #FFFFFF;
}
.g2_617{
}
]]></style>
</defs>
<path d="M68.9,1149.3l686.3,0l0,-21.2l-686.3,0l0,21.2Z" class="g1_617" />
<path d="M771.3,1149.3l83.7,0l0,-21.2l-83.7,0l0,21.2Z" class="g1_617" />
<path d="M69.8,208.9l0.7,0l0,-83.2l-0.7,0l0,83.2Z" class="g2_617" />
<path d="M220.9,209.7l0.8,0l0,-84.8l-0.8,0l0,84.8Z" class="g2_617" />
<path d="M392.5,209.7l0.7,0l0,-84.8l-0.7,0l0,84.8Z" class="g2_617" />
<path d="M430.3,209.7l0.7,0l0,-84.8l-0.7,0l0,84.8Z" class="g2_617" />
<path d="M503.7,209.7l0.7,0l0,-84.8l-0.7,0l0,84.8Z" class="g2_617" />
<path d="M575.1,209.7l0.8,0l0,-84.8l-0.8,0l0,84.8Z" class="g2_617" />
<path d="M852.2,208.9l0.8,0l0,-83.2l-0.8,0l0,83.2Z" class="g2_617" />
<path d="M69.8,125.7l783.2,0l0,-0.8l-783.2,0l0,0.8Z" class="g2_617" />
<path d="M69.8,163.8l783.2,0l0,-0.7l-783.2,0l0,0.7Z" class="g2_617" />
<path d="M69.8,186.7l783.2,0l0,-0.7L69.8,186l0,0.7Z" class="g2_617" />
<path d="M69.8,209.6l783.2,0l0,-0.7l-783.2,0l0,0.7Z" class="g2_617" />
<path d="M69.3,352.6l0.7,0l0,-48.2l-0.7,0l0,48.2Z" class="g2_617" />
<path d="M160.9,353.3l0.7,0l0,-49.6l-0.7,0l0,49.6Z" class="g2_617" />
<path d="M336.3,353.3l0.8,0l0,-49.6l-0.8,0l0,49.6Z" class="g2_617" />
<path d="M509,353.3l0.8,0l0,-49.6l-0.8,0l0,49.6Z" class="g2_617" />
<path d="M678.9,353.3l0.7,0l0,-49.6l-0.7,0l0,49.6Z" class="g2_617" />
<path d="M852.7,352.6l0.7,0l0,-48.2l-0.7,0l0,48.2Z" class="g2_617" />
<path d="M69.3,304.4l784.1,0l0,-0.7l-784.1,0l0,0.7Z" class="g2_617" />
<path d="M69.3,328.8l784.1,0l0,-0.7l-784.1,0l0,0.7Z" class="g2_617" />
<path d="M69.3,353.3l784.1,0l0,-0.7l-784.1,0l0,0.7Z" class="g2_617" />
</svg>