<?xml version="1.0" encoding="UTF-8" standalone="no"?>
<!DOCTYPE svg PUBLIC "-//W3C//DTD SVG 1.1//EN"
"http://www.w3.org/Graphics/SVG/1.1/DTD/svg11.dtd">
<svg viewBox="0 0 935 1210" version="1.1" xmlns="http://www.w3.org/2000/svg" xmlns:xlink="http://www.w3.org/1999/xlink">
<defs>
<style type="text/css"><![CDATA[
.g1_1948{
fill: #FFFFFF;
}
.g2_1948{
}
]]></style>
</defs>
<path d="M165,1149.3l687.5,0l0,-21.2l-687.5,0l0,21.2Z" class="g1_1948" />
<path d="M68.8,1149.3l82.5,0l0,-21.2l-82.5,0l0,21.2Z" class="g1_1948" />
<path d="M70.7,265.5l0.7,0l0,-139.8l-0.7,0l0,139.8Z" class="g2_1948" />
<path d="M220.8,266.2l0.8,0l0,-141.3l-0.8,0l0,141.3Z" class="g2_1948" />
<path d="M391.1,266.2l0.8,0l0,-141.3l-0.8,0l0,141.3Z" class="g2_1948" />
<path d="M428.9,266.2l0.7,0l0,-141.3l-0.7,0l0,141.3Z" class="g2_1948" />
<path d="M502.3,266.2l0.8,0l0,-141.3l-0.8,0l0,141.3Z" class="g2_1948" />
<path d="M573.7,266.2l0.8,0l0,-141.3l-0.8,0l0,141.3Z" class="g2_1948" />
<path d="M849.8,265.5l0.7,0l0,-139.8l-0.7,0l0,139.8Z" class="g2_1948" />
<path d="M70.7,125.7l779.8,0l0,-0.8l-779.8,0l0,0.8Z" class="g2_1948" />
<path d="M70.7,163.8l779.8,0l0,-0.7l-779.8,0l0,0.7Z" class="g2_1948" />
<path d="M70.7,203.6l779.8,0l0,-0.7l-779.8,0l0,0.7Z" class="g2_1948" />
<path d="M70.7,243.3l779.8,0l0,-0.7l-779.8,0l0,0.7Z" class="g2_1948" />
<path d="M70.7,266.2l779.8,0l0,-0.7l-779.8,0l0,0.7Z" class="g2_1948" />
<path d="M70.9,369.3l0.7,0l0,-48.1l-0.7,0l0,48.1Z" class="g2_1948" />
<path d="M144.4,370.2l0.7,0l0,-49.7l-0.7,0l0,49.7Z" class="g2_1948" />
<path d="M307.3,370.2l0.7,0l0,-49.7l-0.7,0l0,49.7Z" class="g2_1948" />
<path d="M484,370.2l0.7,0l0,-49.7l-0.7,0l0,49.7Z" class="g2_1948" />
<path d="M666,370.2l0.7,0l0,-49.7l-0.7,0l0,49.7Z" class="g2_1948" />
<path d="M849.6,369.3l0.7,0l0,-48.1l-0.7,0l0,48.1Z" class="g2_1948" />
<path d="M70.8,321.2l779.5,0l0,-0.7l-779.5,0l0,0.7Z" class="g2_1948" />
<path d="M70.8,345.7l779.5,0l0,-0.8l-779.5,0l0,0.8Z" class="g2_1948" />
<path d="M70.8,370.1l779.5,0l0,-0.8l-779.5,0l0,0.8Z" class="g2_1948" />
</svg>