<?xml version="1.0" encoding="UTF-8" standalone="no"?>
<!DOCTYPE svg PUBLIC "-//W3C//DTD SVG 1.1//EN"
"http://www.w3.org/Graphics/SVG/1.1/DTD/svg11.dtd">
<svg viewBox="0 0 935 1210" version="1.1" xmlns="http://www.w3.org/2000/svg" xmlns:xlink="http://www.w3.org/1999/xlink">
<defs>
<style type="text/css"><![CDATA[
.g1_1224{
fill: #FFFFFF;
}
.g2_1224{
}
]]></style>
</defs>
<path d="M165,1149.3l687.5,0l0,-21.2l-687.5,0l0,21.2Z" class="g1_1224" />
<path d="M68.8,1149.3l82.5,0l0,-21.2l-82.5,0l0,21.2Z" class="g1_1224" />
<path d="M70.7,375.5l0.7,0l0,-249.8l-0.7,0l0,249.8Z" class="g2_1224" />
<path d="M386.6,376.2l0.7,0l0,-251.3l-0.7,0l0,251.3Z" class="g2_1224" />
<path d="M426.6,376.2l0.8,0l0,-251.3l-0.8,0l0,251.3Z" class="g2_1224" />
<path d="M500,376.2l0.8,0l0,-251.3l-0.8,0l0,251.3Z" class="g2_1224" />
<path d="M571.5,376.2l0.7,0l0,-251.3l-0.7,0l0,251.3Z" class="g2_1224" />
<path d="M849.8,375.5l0.7,0l0,-249.8l-0.7,0l0,249.8Z" class="g2_1224" />
<path d="M70.7,125.7l779.8,0l0,-0.8l-779.8,0l0,0.8Z" class="g2_1224" />
<path d="M70.7,179.1l779.8,0l0,-0.7l-779.8,0l0,0.7Z" class="g2_1224" />
<path d="M70.7,252.4l779.8,0l0,-0.7l-779.8,0l0,0.7Z" class="g2_1224" />
<path d="M70.7,376.2l779.8,0l0,-0.7l-779.8,0l0,0.7Z" class="g2_1224" />
<path d="M70.2,503.8l0.8,0l0,-72.6l-0.8,0l0,72.6Z" class="g2_1224" />
<path d="M135.9,504.5l0.8,0l0,-74l-0.8,0l0,74Z" class="g2_1224" />
<path d="M307.7,504.5l0.8,0l0,-74l-0.8,0l0,74Z" class="g2_1224" />
<path d="M479.2,504.5l0.8,0l0,-74l-0.8,0l0,74Z" class="g2_1224" />
<path d="M660.5,504.5l0.7,0l0,-74l-0.7,0l0,74Z" class="g2_1224" />
<path d="M850.1,503.8l0.7,0l0,-72.6l-0.7,0l0,72.6Z" class="g2_1224" />
<path d="M70.2,431.2l780.7,0l0,-0.7l-780.7,0l0,0.7Z" class="g2_1224" />
<path d="M70.2,455.7l780.7,0l0,-0.8l-780.7,0l0,0.8Z" class="g2_1224" />
<path d="M70.2,480.2l780.7,0l0,-0.8l-780.7,0l0,0.8Z" class="g2_1224" />
<path d="M70.2,504.5l780.7,0l0,-0.7l-780.7,0l0,0.7Z" class="g2_1224" />
</svg>