<?xml version="1.0" encoding="UTF-8" standalone="no"?>
<!DOCTYPE svg PUBLIC "-//W3C//DTD SVG 1.1//EN"
"http://www.w3.org/Graphics/SVG/1.1/DTD/svg11.dtd">
<svg viewBox="0 0 935 1210" version="1.1" xmlns="http://www.w3.org/2000/svg" xmlns:xlink="http://www.w3.org/1999/xlink">
<defs>
<style type="text/css"><![CDATA[
.g1_644{
fill: #FFFFFF;
}
.g2_644{
}
]]></style>
</defs>
<path d="M165,1149.3l687.5,0l0,-21.2l-687.5,0l0,21.2Z" class="g1_644" />
<path d="M68.8,1149.3l82.5,0l0,-21.2l-82.5,0l0,21.2Z" class="g1_644" />
<path d="M68.9,265.5l0.8,0l0,-139.8l-0.8,0l0,139.8Z" class="g2_644" />
<path d="M219.6,266.2l0.8,0l0,-141.3l-0.8,0l0,141.3Z" class="g2_644" />
<path d="M390.5,266.2l0.7,0l0,-141.3l-0.7,0l0,141.3Z" class="g2_644" />
<path d="M428.4,266.2l0.7,0l0,-141.3l-0.7,0l0,141.3Z" class="g2_644" />
<path d="M501.8,266.2l0.7,0l0,-141.3l-0.7,0l0,141.3Z" class="g2_644" />
<path d="M573.1,266.2l0.7,0l0,-141.3l-0.7,0l0,141.3Z" class="g2_644" />
<path d="M851.4,265.5l0.7,0l0,-139.8l-0.7,0l0,139.8Z" class="g2_644" />
<path d="M68.9,125.7l783.3,0l0,-0.8l-783.3,0l0,0.8Z" class="g2_644" />
<path d="M68.9,163.8l783.3,0l0,-0.7l-783.3,0l0,0.7Z" class="g2_644" />
<path d="M68.9,186.7l783.3,0l0,-0.7L68.9,186l0,0.7Z" class="g2_644" />
<path d="M68.9,226.5l783.3,0l0,-0.7l-783.3,0l0,0.7Z" class="g2_644" />
<path d="M68.9,266.2l783.3,0l0,-0.7l-783.3,0l0,0.7Z" class="g2_644" />
<path d="M70.2,369.3l0.8,0l0,-48.1l-0.8,0l0,48.1Z" class="g2_644" />
<path d="M138.5,370.2l0.7,0l0,-49.7l-0.7,0l0,49.7Z" class="g2_644" />
<path d="M313.9,370.2l0.7,0l0,-49.7l-0.7,0l0,49.7Z" class="g2_644" />
<path d="M498.7,370.2l0.7,0l0,-49.7l-0.7,0l0,49.7Z" class="g2_644" />
<path d="M664.3,370.2l0.7,0l0,-49.7l-0.7,0l0,49.7Z" class="g2_644" />
<path d="M850.1,369.3l0.7,0l0,-48.1l-0.7,0l0,48.1Z" class="g2_644" />
<path d="M70.2,321.2l780.7,0l0,-0.7l-780.7,0l0,0.7Z" class="g2_644" />
<path d="M70.2,345.7l780.7,0l0,-0.8l-780.7,0l0,0.8Z" class="g2_644" />
<path d="M70.2,370.1l780.7,0l0,-0.8l-780.7,0l0,0.8Z" class="g2_644" />
</svg>