<?xml version="1.0" encoding="UTF-8" standalone="no"?>
<!DOCTYPE svg PUBLIC "-//W3C//DTD SVG 1.1//EN"
"http://www.w3.org/Graphics/SVG/1.1/DTD/svg11.dtd">
<svg viewBox="0 0 935 1210" version="1.1" xmlns="http://www.w3.org/2000/svg" xmlns:xlink="http://www.w3.org/1999/xlink">
<defs>
<style type="text/css"><![CDATA[
.g1_1561{
fill: #FFFFFF;
}
.g2_1561{
}
]]></style>
</defs>
<path d="M68.9,1149.3l686.3,0l0,-21.2l-686.3,0l0,21.2Z" class="g1_1561" />
<path d="M771.3,1149.3l83.7,0l0,-21.2l-83.7,0l0,21.2Z" class="g1_1561" />
<path d="M69.9,1066.1l0.8,0L70.7,147l-0.8,0l0,919.1Z" class="g2_1561" />
<path d="M288,1066.8l0.7,0l0,-920.5l-0.7,0l0,920.5Z" class="g2_1561" />
<path d="M334,1066.8l0.8,0l0,-920.5l-0.8,0l0,920.5Z" class="g2_1561" />
<path d="M408.6,1066.8l0.7,0l0,-920.5l-0.7,0l0,920.5Z" class="g2_1561" />
<path d="M493.4,1066.8l0.8,0l0,-920.5l-0.8,0l0,920.5Z" class="g2_1561" />
<path d="M855.1,1066.1l0.7,0l0,-919.1l-0.7,0l0,919.1Z" class="g2_1561" />
<path d="M69.9,147l785.9,0l0,-0.7l-785.9,0l0,0.7Z" class="g2_1561" />
<path d="M69.9,197.4l785.9,0l0,-0.7l-785.9,0l0,0.7Z" class="g2_1561" />
<path d="M69.9,250.9l785.9,0l0,-0.7l-785.9,0l0,0.7Z" class="g2_1561" />
<path d="M69.9,304.4l785.9,0l0,-0.7l-785.9,0l0,0.7Z" class="g2_1561" />
<path d="M69.9,357.9l785.9,0l0,-0.8l-785.9,0l0,0.8Z" class="g2_1561" />
<path d="M69.9,411.4l785.9,0l0,-0.7l-785.9,0l0,0.7Z" class="g2_1561" />
<path d="M69.9,464.8l785.9,0l0,-0.7l-785.9,0l0,0.7Z" class="g2_1561" />
<path d="M69.9,518.3l785.9,0l0,-0.7l-785.9,0l0,0.7Z" class="g2_1561" />
<path d="M69.9,588.6l785.9,0l0,-0.7l-785.9,0l0,0.7Z" class="g2_1561" />
<path d="M69.9,642l785.9,0l0,-0.7l-785.9,0l0,0.7Z" class="g2_1561" />
<path d="M69.9,712.3l785.9,0l0,-0.7l-785.9,0l0,0.7Z" class="g2_1561" />
<path d="M69.9,782.7l785.9,0l0,-0.8l-785.9,0l0,0.8Z" class="g2_1561" />
<path d="M69.9,836.1l785.9,0l0,-0.7l-785.9,0l0,0.7Z" class="g2_1561" />
<path d="M69.9,906.4l785.9,0l0,-0.7l-785.9,0l0,0.7Z" class="g2_1561" />
<path d="M69.9,959.8l785.9,0l0,-0.7l-785.9,0l0,0.7Z" class="g2_1561" />
<path d="M69.9,1013.3l785.9,0l0,-0.7l-785.9,0l0,0.7Z" class="g2_1561" />
<path d="M69.9,1066.8l785.9,0l0,-0.7l-785.9,0l0,0.7Z" class="g2_1561" />
</svg>