<?xml version="1.0" encoding="UTF-8" standalone="no"?>
<!DOCTYPE svg PUBLIC "-//W3C//DTD SVG 1.1//EN"
"http://www.w3.org/Graphics/SVG/1.1/DTD/svg11.dtd">
<svg viewBox="0 0 935 1210" version="1.1" xmlns="http://www.w3.org/2000/svg" xmlns:xlink="http://www.w3.org/1999/xlink">
<defs>
<style type="text/css"><![CDATA[
.g1_871{
fill: #FFFFFF;
}
.g2_871{
}
]]></style>
</defs>
<path d="M68.9,1149.3l686.3,0l0,-21.2l-686.3,0l0,21.2Z" class="g1_871" />
<path d="M771.3,1149.3l83.7,0l0,-21.2l-83.7,0l0,21.2Z" class="g1_871" />
<path d="M67.5,758.9l0.7,0l0,-633.2l-0.7,0l0,633.2Z" class="g2_871" />
<path d="M363.8,759.7l0.8,0l0,-634.8l-0.8,0l0,634.8Z" class="g2_871" />
<path d="M406.3,759.7l0.7,0l0,-634.8l-0.7,0l0,634.8Z" class="g2_871" />
<path d="M479.6,759.7l0.7,0l0,-634.8l-0.7,0l0,634.8Z" class="g2_871" />
<path d="M559.1,759.7l0.7,0l0,-634.8l-0.7,0l0,634.8Z" class="g2_871" />
<path d="M854.5,758.9l0.7,0l0,-633.2l-0.7,0l0,633.2Z" class="g2_871" />
<path d="M67.5,125.7l787.7,0l0,-0.8l-787.7,0l0,0.8Z" class="g2_871" />
<path d="M67.5,179.1l787.7,0l0,-0.7l-787.7,0l0,0.7Z" class="g2_871" />
<path d="M67.5,235.7l787.7,0l0,-0.8l-787.7,0l0,0.8Z" class="g2_871" />
<path d="M67.5,292.1l787.7,0l0,-0.7l-787.7,0l0,0.7Z" class="g2_871" />
<path d="M67.5,365.5l787.7,0l0,-0.8l-787.7,0l0,0.8Z" class="g2_871" />
<path d="M67.5,472.4l787.7,0l0,-0.7l-787.7,0l0,0.7Z" class="g2_871" />
<path d="M67.5,545.8l787.7,0l0,-0.7l-787.7,0l0,0.7Z" class="g2_871" />
<path d="M67.5,652.8l787.7,0l0,-0.8L67.5,652l0,0.8Z" class="g2_871" />
<path d="M67.5,759.7l787.7,0l0,-0.7L67.5,759l0,0.7Z" class="g2_871" />
<path d="M71.6,989.6l0.7,0l0,-96.9l-0.7,0l0,96.9Z" class="g2_871" />
<path d="M140.1,990.5l0.7,0l0,-98.6l-0.7,0l0,98.6Z" class="g2_871" />
<path d="M310.7,990.5l0.7,0l0,-98.6l-0.7,0l0,98.6Z" class="g2_871" />
<path d="M495.8,990.5l0.8,0l0,-98.6l-0.8,0l0,98.6Z" class="g2_871" />
<path d="M672.8,990.5l0.8,0l0,-98.6l-0.8,0l0,98.6Z" class="g2_871" />
<path d="M850.4,989.6l0.7,0l0,-96.9l-0.7,0l0,96.9Z" class="g2_871" />
<path d="M71.6,892.7l779.5,0l0,-0.8l-779.5,0l0,0.8Z" class="g2_871" />
<path d="M71.6,917l779.5,0l0,-0.7l-779.5,0l0,0.7Z" class="g2_871" />
<path d="M71.6,941.5l779.5,0l0,-0.7l-779.5,0l0,0.7Z" class="g2_871" />
<path d="M71.6,966l779.5,0l0,-0.7l-779.5,0l0,0.7Z" class="g2_871" />
<path d="M71.6,990.4l779.5,0l0,-0.8l-779.5,0l0,0.8Z" class="g2_871" />
</svg>