<?xml version="1.0" encoding="UTF-8" standalone="no"?>
<!DOCTYPE svg PUBLIC "-//W3C//DTD SVG 1.1//EN"
"http://www.w3.org/Graphics/SVG/1.1/DTD/svg11.dtd">
<svg viewBox="0 0 935 1210" version="1.1" xmlns="http://www.w3.org/2000/svg" xmlns:xlink="http://www.w3.org/1999/xlink">
<defs>
<style type="text/css"><![CDATA[
.g1_314{
fill: #FFFFFF;
}
.g2_314{
}
]]></style>
</defs>
<path d="M165,1149.3l687.5,0l0,-21.2l-687.5,0l0,21.2Z" class="g1_314" />
<path d="M68.8,1149.3l82.5,0l0,-21.2l-82.5,0l0,21.2Z" class="g1_314" />
<path d="M68.6,1079.8l0.7,0l0,-955.7l-0.7,0l0,955.7Z" class="g2_314" />
<path d="M122,1080.6l0.7,0l0,-957.2l-0.7,0l0,957.2Z" class="g2_314" />
<path d="M193.8,1080.6l0.7,0l0,-957.2l-0.7,0l0,957.2Z" class="g2_314" />
<path d="M851.9,1079.8l0.7,0l0,-955.7l-0.7,0l0,955.7Z" class="g2_314" />
<path d="M68.6,124.1l784,0l0,-0.7l-784,0l0,0.7Z" class="g2_314" />
<path d="M68.6,147l784,0l0,-0.7l-784,0l0,0.7Z" class="g2_314" />
<path d="M68.6,169.9l784,0l0,-0.7l-784,0l0,0.7Z" class="g2_314" />
<path d="M68.6,192.9l784,0l0,-0.8l-784,0l0,0.8Z" class="g2_314" />
<path d="M68.6,215.8l784,0l0,-0.8l-784,0l0,0.8Z" class="g2_314" />
<path d="M68.6,238.7l784,0l0,-0.7l-784,0l0,0.7Z" class="g2_314" />
<path d="M68.6,261.6l784,0l0,-0.7l-784,0l0,0.7Z" class="g2_314" />
<path d="M68.6,284.5l784,0l0,-0.7l-784,0l0,0.7Z" class="g2_314" />
<path d="M68.6,307.4l784,0l0,-0.7l-784,0l0,0.7Z" class="g2_314" />
<path d="M68.6,330.4l784,0l0,-0.8l-784,0l0,0.8Z" class="g2_314" />
<path d="M68.6,353.3l784,0l0,-0.7l-784,0l0,0.7Z" class="g2_314" />
<path d="M68.6,376.2l784,0l0,-0.7l-784,0l0,0.7Z" class="g2_314" />
<path d="M68.6,399.1l784,0l0,-0.7l-784,0l0,0.7Z" class="g2_314" />
<path d="M68.6,422l784,0l0,-0.7l-784,0l0,0.7Z" class="g2_314" />
<path d="M68.6,444.9l784,0l0,-0.7l-784,0l0,0.7Z" class="g2_314" />
<path d="M68.6,484.7l784,0l0,-0.7l-784,0l0,0.7Z" class="g2_314" />
<path d="M68.6,507.7l784,0l0,-0.8l-784,0l0,0.8Z" class="g2_314" />
<path d="M68.6,530.6l784,0l0,-0.8l-784,0l0,0.8Z" class="g2_314" />
<path d="M68.6,553.5l784,0l0,-0.8l-784,0l0,0.8Z" class="g2_314" />
<path d="M68.6,576.4l784,0l0,-0.7l-784,0l0,0.7Z" class="g2_314" />
<path d="M68.6,599.3l784,0l0,-0.7l-784,0l0,0.7Z" class="g2_314" />
<path d="M68.6,622.2l784,0l0,-0.7l-784,0l0,0.7Z" class="g2_314" />
<path d="M68.6,645.2l784,0l0,-0.8l-784,0l0,0.8Z" class="g2_314" />
<path d="M68.6,668.1l784,0l0,-0.8l-784,0l0,0.8Z" class="g2_314" />
<path d="M68.6,691l784,0l0,-0.7l-784,0l0,0.7Z" class="g2_314" />
<path d="M68.6,713.9l784,0l0,-0.7l-784,0l0,0.7Z" class="g2_314" />
<path d="M68.6,736.8l784,0l0,-0.7l-784,0l0,0.7Z" class="g2_314" />
<path d="M68.6,759.7l784,0l0,-0.7l-784,0l0,0.7Z" class="g2_314" />
<path d="M68.6,782.7l784,0l0,-0.8l-784,0l0,0.8Z" class="g2_314" />
<path d="M68.6,805.6l784,0l0,-0.8l-784,0l0,0.8Z" class="g2_314" />
<path d="M68.6,828.5l784,0l0,-0.8l-784,0l0,0.8Z" class="g2_314" />
<path d="M68.6,851.4l784,0l0,-0.7l-784,0l0,0.7Z" class="g2_314" />
<path d="M68.6,874.3l784,0l0,-0.7l-784,0l0,0.7Z" class="g2_314" />
<path d="M68.6,897.2l784,0l0,-0.7l-784,0l0,0.7Z" class="g2_314" />
<path d="M68.6,920.2l784,0l0,-0.8l-784,0l0,0.8Z" class="g2_314" />
<path d="M68.6,943.1l784,0l0,-0.8l-784,0l0,0.8Z" class="g2_314" />
<path d="M68.6,966l784,0l0,-0.7l-784,0l0,0.7Z" class="g2_314" />
<path d="M68.6,988.9l784,0l0,-0.7l-784,0l0,0.7Z" class="g2_314" />
<path d="M68.6,1011.8l784,0l0,-0.7l-784,0l0,0.7Z" class="g2_314" />
<path d="M68.6,1034.7l784,0l0,-0.7l-784,0l0,0.7Z" class="g2_314" />
<path d="M68.6,1057.7l784,0l0,-0.8l-784,0l0,0.8Z" class="g2_314" />
<path d="M68.6,1080.6l784,0l0,-0.8l-784,0l0,0.8Z" class="g2_314" />
</svg>