<?xml version="1.0" encoding="UTF-8" standalone="no"?>
<!DOCTYPE svg PUBLIC "-//W3C//DTD SVG 1.1//EN"
"http://www.w3.org/Graphics/SVG/1.1/DTD/svg11.dtd">
<svg viewBox="0 0 935 1210" version="1.1" xmlns="http://www.w3.org/2000/svg" xmlns:xlink="http://www.w3.org/1999/xlink">
<defs>
<style type="text/css"><![CDATA[
.g1_956{
fill: #FFFFFF;
}
.g2_956{
}
]]></style>
</defs>
<path d="M165,1149.3l687.5,0l0,-21.2l-687.5,0l0,21.2Z" class="g1_956" />
<path d="M68.8,1149.3l82.5,0l0,-21.2l-82.5,0l0,21.2Z" class="g1_956" />
<path d="M68.6,1072.1l0.7,0l0,-946.4l-0.7,0l0,946.4Z" class="g2_956" />
<path d="M320.9,1073l0.8,0l0,-948.1l-0.8,0l0,948.1Z" class="g2_956" />
<path d="M368.1,1073l0.8,0l0,-948.1l-0.8,0l0,948.1Z" class="g2_956" />
<path d="M442.6,1073l0.7,0l0,-948.1l-0.7,0l0,948.1Z" class="g2_956" />
<path d="M530.3,1073l0.7,0l0,-948.1l-0.7,0l0,948.1Z" class="g2_956" />
<path d="M851.1,1072.1l0.8,0l0,-946.4l-0.8,0l0,946.4Z" class="g2_956" />
<path d="M68.6,125.7l783.3,0l0,-0.8l-783.3,0l0,0.8Z" class="g2_956" />
<path d="M68.6,176.1l783.3,0l0,-0.7l-783.3,0l0,0.7Z" class="g2_956" />
<path d="M68.6,217.3l783.3,0l0,-0.7l-783.3,0l0,0.7Z" class="g2_956" />
<path d="M68.6,270.8l783.3,0l0,-0.7l-783.3,0l0,0.7Z" class="g2_956" />
<path d="M68.6,324.2l783.3,0l0,-0.7l-783.3,0l0,0.7Z" class="g2_956" />
<path d="M68.6,377.8l783.3,0l0,-0.8L68.6,377l0,0.8Z" class="g2_956" />
<path d="M68.6,431.2l783.3,0l0,-0.7l-783.3,0l0,0.7Z" class="g2_956" />
<path d="M68.6,484.7l783.3,0l0,-0.7L68.6,484l0,0.7Z" class="g2_956" />
<path d="M68.6,538.2l783.3,0l0,-0.8l-783.3,0l0,0.8Z" class="g2_956" />
<path d="M68.6,591.6l783.3,0l0,-0.7l-783.3,0l0,0.7Z" class="g2_956" />
<path d="M68.6,645.2l783.3,0l0,-0.8l-783.3,0l0,0.8Z" class="g2_956" />
<path d="M68.6,698.6l783.3,0l0,-0.7l-783.3,0l0,0.7Z" class="g2_956" />
<path d="M68.6,752l783.3,0l0,-0.7l-783.3,0l0,0.7Z" class="g2_956" />
<path d="M68.6,805.6l783.3,0l0,-0.8l-783.3,0l0,0.8Z" class="g2_956" />
<path d="M68.6,859l783.3,0l0,-0.7l-783.3,0l0,0.7Z" class="g2_956" />
<path d="M68.6,912.5l783.3,0l0,-0.8l-783.3,0l0,0.8Z" class="g2_956" />
<path d="M68.6,966l783.3,0l0,-0.7l-783.3,0l0,0.7Z" class="g2_956" />
<path d="M68.6,1019.4l783.3,0l0,-0.7l-783.3,0l0,0.7Z" class="g2_956" />
<path d="M68.6,1072.9l783.3,0l0,-0.8l-783.3,0l0,0.8Z" class="g2_956" />
</svg>