<?xml version="1.0" encoding="UTF-8" standalone="no"?>
<!DOCTYPE svg PUBLIC "-//W3C//DTD SVG 1.1//EN"
"http://www.w3.org/Graphics/SVG/1.1/DTD/svg11.dtd">
<svg viewBox="0 0 935 1210" version="1.1" xmlns="http://www.w3.org/2000/svg" xmlns:xlink="http://www.w3.org/1999/xlink">
<defs>
<style type="text/css"><![CDATA[
.g1_1131{
fill: #FFFFFF;
}
.g2_1131{
}
]]></style>
</defs>
<path d="M68.9,1149.3l686.3,0l0,-21.2l-686.3,0l0,21.2Z" class="g1_1131" />
<path d="M771.3,1149.3l83.7,0l0,-21.2l-83.7,0l0,21.2Z" class="g1_1131" />
<path d="M69.8,985.1l0.7,0l0,-859.4l-0.7,0l0,859.4Z" class="g2_1131" />
<path d="M375.3,985.9l0.7,0l0,-861l-0.7,0l0,861Z" class="g2_1131" />
<path d="M413.1,985.9l0.8,0l0,-861l-0.8,0l0,861Z" class="g2_1131" />
<path d="M486.5,985.9l0.7,0l0,-861l-0.7,0l0,861Z" class="g2_1131" />
<path d="M566,985.9l0.7,0l0,-861l-0.7,0l0,861Z" class="g2_1131" />
<path d="M852.2,985.1l0.8,0l0,-859.4l-0.8,0l0,859.4Z" class="g2_1131" />
<path d="M69.8,125.7l783.2,0l0,-0.8l-783.2,0l0,0.8Z" class="g2_1131" />
<path d="M69.8,179.1l783.2,0l0,-0.7l-783.2,0l0,0.7Z" class="g2_1131" />
<path d="M69.8,223.4l783.2,0l0,-0.7l-783.2,0l0,0.7Z" class="g2_1131" />
<path d="M69.8,279.9l783.2,0l0,-0.7l-783.2,0l0,0.7Z" class="g2_1131" />
<path d="M69.8,336.5l783.2,0l0,-0.7l-783.2,0l0,0.7Z" class="g2_1131" />
<path d="M69.8,393L853,393l0,-0.8l-783.2,0l0,0.8Z" class="g2_1131" />
<path d="M69.8,449.5l783.2,0l0,-0.7l-783.2,0l0,0.7Z" class="g2_1131" />
<path d="M69.8,506.1l783.2,0l0,-0.7l-783.2,0l0,0.7Z" class="g2_1131" />
<path d="M69.8,562.7l783.2,0l0,-0.8l-783.2,0l0,0.8Z" class="g2_1131" />
<path d="M69.8,619.1l783.2,0l0,-0.7l-783.2,0l0,0.7Z" class="g2_1131" />
<path d="M69.8,692.4l783.2,0l0,-0.7l-783.2,0l0,0.7Z" class="g2_1131" />
<path d="M69.8,765.8l783.2,0l0,-0.7l-783.2,0l0,0.7Z" class="g2_1131" />
<path d="M69.8,839.1l783.2,0l0,-0.7l-783.2,0l0,0.7Z" class="g2_1131" />
<path d="M69.8,912.5l783.2,0l0,-0.8l-783.2,0l0,0.8Z" class="g2_1131" />
<path d="M69.8,985.8l783.2,0l0,-0.7l-783.2,0l0,0.7Z" class="g2_1131" />
</svg>