<?xml version="1.0" encoding="UTF-8" standalone="no"?>
<!DOCTYPE svg PUBLIC "-//W3C//DTD SVG 1.1//EN"
"http://www.w3.org/Graphics/SVG/1.1/DTD/svg11.dtd">
<svg viewBox="0 0 935 1210" version="1.1" xmlns="http://www.w3.org/2000/svg" xmlns:xlink="http://www.w3.org/1999/xlink">
<defs>
<style type="text/css"><![CDATA[
.g1_712{
fill: #FFFFFF;
}
.g2_712{
}
]]></style>
</defs>
<path d="M165,1149.3l687.5,0l0,-21.2l-687.5,0l0,21.2Z" class="g1_712" />
<path d="M68.8,1149.3l82.5,0l0,-21.2l-82.5,0l0,21.2Z" class="g1_712" />
<path d="M157.7,282.2l0.7,0l0,-158.1l-0.7,0l0,158.1Z" class="g2_712" />
<path d="M762.8,282.2l0.7,0l0,-158.1l-0.7,0l0,158.1Z" class="g2_712" />
<path d="M157.7,124.1l605.8,0l0,-0.7l-605.8,0l0,0.7Z" class="g2_712" />
<path d="M157.7,283l605.8,0l0,-0.8l-605.8,0l0,0.8Z" class="g2_712" />
<path d="M249.2,270.4l113.4,0l0,-20.6l-113.4,0l0,20.6Z" class="g1_712" />
<path d="M249.2,250.2l113.8,0l0,-0.8l-113.8,0l0,0.8Z" class="g2_712" />
<path d="M362.3,270.8l0.7,0l0,-21l-0.7,0l0,21Z" class="g2_712" />
<path d="M248.8,270.8l113.8,0l0,-0.7l-113.8,0l0,0.7Z" class="g2_712" />
<path d="M248.8,270.4l0.7,0l0,-21l-0.7,0l0,21Z" class="g2_712" />
<path d="M362.6,270.4l113.4,0l0,-20.6l-113.4,0l0,20.6Z" class="g1_712" />
<path d="M362.6,250.2l113.8,0l0,-0.8l-113.8,0l0,0.8Z" class="g2_712" />
<path d="M475.7,270.8l0.7,0l0,-21l-0.7,0l0,21Z" class="g2_712" />
<path d="M362.3,270.8l113.7,0l0,-0.7l-113.7,0l0,0.7Z" class="g2_712" />
<path d="M362.3,270.4l0.7,0l0,-21l-0.7,0l0,21Z" class="g2_712" />
<path d="M476,270.4l113.5,0l0,-20.6l-113.5,0l0,20.6Z" class="g1_712" />
<path d="M476,250.2l113.9,0l0,-0.8l-113.9,0l0,0.8Z" class="g2_712" />
<path d="M589.1,270.8l0.8,0l0,-21l-0.8,0l0,21Z" class="g2_712" />
<path d="M475.7,270.8l113.8,0l0,-0.7l-113.8,0l0,0.7Z" class="g2_712" />
<path d="M475.7,270.4l0.7,0l0,-21l-0.7,0l0,21Z" class="g2_712" />
<path d="M589.5,270.4l113.4,0l0,-20.6l-113.4,0l0,20.6Z" class="g1_712" />
<path d="M589.5,250.2l113.8,0l0,-0.8l-113.8,0l0,0.8Z" class="g2_712" />
<path d="M702.5,270.8l0.8,0l0,-21l-0.8,0l0,21Z" class="g2_712" />
<path d="M589.1,270.8l113.8,0l0,-0.7l-113.8,0l0,0.7Z" class="g2_712" />
<path d="M589.1,270.4l0.8,0l0,-21l-0.8,0l0,21Z" class="g2_712" />
<path d="M249.2,167.3l113.4,0l0,-20.6l-113.4,0l0,20.6Z" class="g1_712" />
<path d="M249.2,147L363,147l0,-0.7l-113.8,0l0,0.7Z" class="g2_712" />
<path d="M362.3,167.7l0.7,0l0,-21l-0.7,0l0,21Z" class="g2_712" />
<path d="M248.8,167.7l113.8,0l0,-0.8l-113.8,0l0,0.8Z" class="g2_712" />
<path d="M248.8,167.3l0.7,0l0,-21l-0.7,0l0,21Z" class="g2_712" />
<path d="M362.6,167.3l113.4,0l0,-20.6l-113.4,0l0,20.6Z" class="g1_712" />
<path d="M362.6,147l113.8,0l0,-0.7l-113.8,0l0,0.7Z" class="g2_712" />
<path d="M475.7,167.7l0.7,0l0,-21l-0.7,0l0,21Z" class="g2_712" />
<path d="M362.3,167.7l113.7,0l0,-0.8l-113.7,0l0,0.8Z" class="g2_712" />
<path d="M362.3,167.3l0.7,0l0,-21l-0.7,0l0,21Z" class="g2_712" />
<path fill-rule="evenodd" d="M537.9,224.9l0.4,0l0.2,-0.1c1.3,-0.6,1.3,-2.5,-0.2,-3l-0.7,0c-1.5,0.3,-1.7,2.5,-0.2,3l0.2,0.1l0.3,0Z" class="g2_712" />
<path d="M537.9,223.4l7.6,0l-0.3,1l-6.6,22.9l-0.7,2.6l-0.7,-2.6l-6.5,-22.9l-0.3,-1l1,0l0.7,0.5l6.5,23l-1.4,0.4l0,-0.4l6.6,-23l1.4,0.5l-0.7,0.5l-6.6,0Z" class="g2_712" />
<path d="M531.4,224.9l6.5,0l0,-1.5l-6.5,0l0,1.5Z" class="g2_712" />
<path fill-rule="evenodd" d="M537.9,224.1l6.6,0L537.9,247l-6.5,-22.9Z" class="g2_712" />
<path d="M536.4,223.4l3.1,0l0,-14.9l-3.1,0l0,14.9Z" class="g2_712" />
<path fill-rule="evenodd" d="M424.5,224.9l0.3,0l0.3,-0.1c1.3,-0.6,1.1,-2.6,-0.3,-3l-0.7,0c-1.4,0.4,-1.6,2.4,-0.2,3l0.2,0.1l0.4,0Z" class="g2_712" />
<path d="M424.5,223.4l7.5,0l-0.3,1l-6.5,22.9l-0.7,2.6l-0.7,-2.6l-6.6,-22.9l-0.3,-1l1,0l0.7,0.5l6.6,23l-1.4,0.4l0,-0.4l6.5,-23l1.4,0.5l-0.7,0.5l-6.5,0Z" class="g2_712" />
<path d="M417.9,224.9l6.6,0l0,-1.5l-6.6,0l0,1.5Z" class="g2_712" />
<path fill-rule="evenodd" d="M424.5,224.1l6.5,0L424.5,247l-6.6,-22.9Z" class="g2_712" />
<path d="M423,223.4l3.1,0l0,-56.1l-3.1,0l0,56.1Z" class="g2_712" />
<path fill-rule="evenodd" d="M311,224.9l0.3,0l0.4,-0.1c1.3,-0.6,1.1,-2.7,-0.4,-3l-0.5,0c-1.6,0.3,-1.7,2.5,-0.3,3l0.3,0.1l0.2,0Z" class="g2_712" />
<path d="M311,223.4l7.6,0l-0.2,1l-6.6,22.9l-0.8,2.6l-0.7,-2.6l-6.6,-22.9l-0.3,-1l1,0l0.8,0.5l6.6,23l-1.5,0.4l0,-0.4l6.6,-23l1.5,0.5l-0.8,0.5l-6.6,0Z" class="g2_712" />
<path d="M304.4,224.9l6.6,0l0,-1.5l-6.6,0l0,1.5Z" class="g2_712" />
<path fill-rule="evenodd" d="M311,224.1l6.6,0L311,247l-6.6,-22.9Z" class="g2_712" />
<path d="M309.6,223.4l3,0l0,-14.9l-3,0l0,14.9Z" class="g2_712" />
<path d="M476,167.3l113.5,0l0,-20.6l-113.5,0l0,20.6Z" class="g1_712" />
<path d="M476,147l113.9,0l0,-0.7l-113.9,0l0,0.7Z" class="g2_712" />
<path d="M589.1,167.7l0.8,0l0,-21l-0.8,0l0,21Z" class="g2_712" />
<path d="M475.7,167.7l113.8,0l0,-0.8l-113.8,0l0,0.8Z" class="g2_712" />
<path d="M475.7,167.3l0.7,0l0,-21l-0.7,0l0,21Z" class="g2_712" />
<path d="M589.5,167.3l113.4,0l0,-20.6l-113.4,0l0,20.6Z" class="g1_712" />
<path d="M589.5,147l113.8,0l0,-0.7l-113.8,0l0,0.7Z" class="g2_712" />
<path d="M702.5,167.7l0.8,0l0,-21l-0.8,0l0,21Z" class="g2_712" />
<path d="M589.1,167.7l113.8,0l0,-0.8l-113.8,0l0,0.8Z" class="g2_712" />
<path d="M589.1,167.3l0.8,0l0,-21l-0.8,0l0,21Z" class="g2_712" />
<path fill-rule="evenodd" d="M651.4,224.9l0.3,0l0.2,-0.1c1.4,-0.5,1.2,-2.7,-0.2,-3l-0.7,0c-1.4,0.4,-1.6,2.4,-0.3,3l0.3,0.1l0.4,0Z" class="g2_712" />
<path d="M651.4,223.4l7.5,0l-0.3,1l-6.5,22.9l-0.7,2.6l-0.8,-2.6l-6.5,-22.9l-0.3,-1l1,0l0.7,0.5l6.6,23l-1.5,0.4l0,-0.4l6.6,-23l1.4,0.5l-0.7,0.5l-6.5,0Z" class="g2_712" />
<path d="M644.8,224.9l6.6,0l0,-1.5l-6.6,0l0,1.5Z" class="g2_712" />
<path fill-rule="evenodd" d="M651.4,224.1l6.5,0L651.4,247l-6.6,-22.9Z" class="g2_712" />
<path d="M649.9,223.4l3,0l0,-56.1l-3,0l0,56.1Z" class="g2_712" />
<path d="M311,210.1l113.5,0l0,-3l-113.5,0l0,3Z" class="g2_712" />
<path d="M537.9,210.1l113.5,0l0,-3l-113.5,0l0,3Z" class="g2_712" />
</svg>