<?xml version="1.0" encoding="UTF-8" standalone="no"?>
<!DOCTYPE svg PUBLIC "-//W3C//DTD SVG 1.1//EN"
"http://www.w3.org/Graphics/SVG/1.1/DTD/svg11.dtd">
<svg viewBox="0 0 935 1210" version="1.1" xmlns="http://www.w3.org/2000/svg" xmlns:xlink="http://www.w3.org/1999/xlink">
<defs>
<style type="text/css"><![CDATA[
.g1_1316{
fill: #FFFFFF;
}
.g2_1316{
}
]]></style>
</defs>
<path d="M165,1149.3l687.5,0l0,-21.2l-687.5,0l0,21.2Z" class="g1_1316" />
<path d="M68.8,1149.3l82.5,0l0,-21.2l-82.5,0l0,21.2Z" class="g1_1316" />
<path d="M68.6,302.1l0.7,0l0,-176.4l-0.7,0l0,176.4Z" class="g2_1316" />
<path d="M300.8,302.9l0.7,0l0,-178l-0.7,0l0,178Z" class="g2_1316" />
<path d="M348.2,302.9l0.8,0l0,-178l-0.8,0l0,178Z" class="g2_1316" />
<path d="M422.7,302.9l0.7,0l0,-178l-0.7,0l0,178Z" class="g2_1316" />
<path d="M501.5,302.9l0.7,0l0,-178l-0.7,0l0,178Z" class="g2_1316" />
<path d="M851.2,302.1l0.7,0l0,-176.4l-0.7,0l0,176.4Z" class="g2_1316" />
<path d="M68.6,125.7l783.4,0l0,-0.8l-783.4,0l0,0.8Z" class="g2_1316" />
<path d="M68.6,176.1l783.4,0l0,-0.7l-783.4,0l0,0.7Z" class="g2_1316" />
<path d="M68.6,212.8l783.4,0l0,-0.8L68.6,212l0,0.8Z" class="g2_1316" />
<path d="M68.6,249.4l783.4,0l0,-0.7l-783.4,0l0,0.7Z" class="g2_1316" />
<path d="M68.6,302.9l783.4,0l0,-0.8l-783.4,0l0,0.8Z" class="g2_1316" />
<path d="M70.3,454.9l0.7,0l0,-97l-0.7,0l0,97Z" class="g2_1316" />
<path d="M182,455.7l0.7,0l0,-98.6l-0.7,0l0,98.6Z" class="g2_1316" />
<path d="M343.5,455.7l0.7,0l0,-98.6l-0.7,0l0,98.6Z" class="g2_1316" />
<path d="M512.7,455.7l0.7,0l0,-98.6l-0.7,0l0,98.6Z" class="g2_1316" />
<path d="M680.4,455.7l0.8,0l0,-98.6l-0.8,0l0,98.6Z" class="g2_1316" />
<path d="M850.1,454.9l0.7,0l0,-97l-0.7,0l0,97Z" class="g2_1316" />
<path d="M70.3,357.9l780.5,0l0,-0.8l-780.5,0l0,0.8Z" class="g2_1316" />
<path d="M70.3,382.3l780.5,0l0,-0.7l-780.5,0l0,0.7Z" class="g2_1316" />
<path d="M70.3,406.8l780.5,0l0,-0.7l-780.5,0l0,0.7Z" class="g2_1316" />
<path d="M70.3,431.2l780.5,0l0,-0.7l-780.5,0l0,0.7Z" class="g2_1316" />
<path d="M70.3,455.7l780.5,0l0,-0.8l-780.5,0l0,0.8Z" class="g2_1316" />
</svg>