<?xml version="1.0" encoding="UTF-8" standalone="no"?>
<!DOCTYPE svg PUBLIC "-//W3C//DTD SVG 1.1//EN"
"http://www.w3.org/Graphics/SVG/1.1/DTD/svg11.dtd">
<svg viewBox="0 0 935 1210" version="1.1" xmlns="http://www.w3.org/2000/svg" xmlns:xlink="http://www.w3.org/1999/xlink">
<defs>
<style type="text/css"><![CDATA[
.g1_1664{
fill: #FFFFFF;
}
.g2_1664{
}
]]></style>
</defs>
<path d="M165,1149.3l687.5,0l0,-21.2l-687.5,0l0,21.2Z" class="g1_1664" />
<path d="M68.8,1149.3l82.5,0l0,-21.2l-82.5,0l0,21.2Z" class="g1_1664" />
<path d="M68.6,262.4l0.7,0l0,-136.7l-0.7,0l0,136.7Z" class="g2_1664" />
<path d="M303.3,263.2l0.8,0l0,-138.3l-0.8,0l0,138.3Z" class="g2_1664" />
<path d="M348.2,263.2l0.8,0l0,-138.3l-0.8,0l0,138.3Z" class="g2_1664" />
<path d="M421.6,263.2l0.7,0l0,-138.3l-0.7,0l0,138.3Z" class="g2_1664" />
<path d="M504.6,263.2l0.8,0l0,-138.3l-0.8,0l0,138.3Z" class="g2_1664" />
<path d="M850.2,262.4l0.7,0l0,-136.7l-0.7,0l0,136.7Z" class="g2_1664" />
<path d="M68.6,125.7l782.3,0l0,-0.8l-782.3,0l0,0.8Z" class="g2_1664" />
<path d="M68.6,176.1l782.3,0l0,-0.7l-782.3,0l0,0.7Z" class="g2_1664" />
<path d="M68.6,263.2l782.3,0l0,-0.8l-782.3,0l0,0.8Z" class="g2_1664" />
<path d="M69.8,366.3l0.7,0l0,-48.1l-0.7,0l0,48.1Z" class="g2_1664" />
<path d="M178.4,367l0.7,0l0,-49.6l-0.7,0l0,49.6Z" class="g2_1664" />
<path d="M345.6,367l0.7,0l0,-49.6l-0.7,0l0,49.6Z" class="g2_1664" />
<path d="M515.7,367l0.8,0l0,-49.6l-0.8,0l0,49.6Z" class="g2_1664" />
<path d="M685.9,367l0.8,0l0,-49.6l-0.8,0l0,49.6Z" class="g2_1664" />
<path d="M850.6,366.3l0.7,0l0,-48.1l-0.7,0l0,48.1Z" class="g2_1664" />
<path d="M69.8,318.2l781.5,0l0,-0.8l-781.5,0l0,0.8Z" class="g2_1664" />
<path d="M69.8,342.6l781.5,0l0,-0.8l-781.5,0l0,0.8Z" class="g2_1664" />
<path d="M69.8,367l781.5,0l0,-0.7l-781.5,0l0,0.7Z" class="g2_1664" />
</svg>