<?xml version="1.0" encoding="UTF-8" standalone="no"?>
<!DOCTYPE svg PUBLIC "-//W3C//DTD SVG 1.1//EN"
"http://www.w3.org/Graphics/SVG/1.1/DTD/svg11.dtd">
<svg viewBox="0 0 935 1210" version="1.1" xmlns="http://www.w3.org/2000/svg" xmlns:xlink="http://www.w3.org/1999/xlink">
<defs>
<style type="text/css"><![CDATA[
.g1_70{
fill: #FFFFFF;
}
.g2_70{
}
]]></style>
</defs>
<path d="M68.8,1149.3l783.7,0l0,-21.2l-783.7,0l0,21.2Z" class="g1_70" />
<path d="M157.7,539.8l0.7,0l0,-108.6l-0.7,0l0,108.6Z" class="g2_70" />
<path d="M762.8,539.8l0.7,0l0,-108.6l-0.7,0l0,108.6Z" class="g2_70" />
<path d="M157.7,431.2l605.8,0l0,-0.7l-605.8,0l0,0.7Z" class="g2_70" />
<path d="M157.7,540.6l605.8,0l0,-0.8l-605.8,0l0,0.8Z" class="g2_70" />
<path d="M157.7,864.6l0.7,0l0,-191.1l-0.7,0l0,191.1Z" class="g2_70" />
<path d="M762.8,864.6l0.7,0l0,-191.1l-0.7,0l0,191.1Z" class="g2_70" />
<path d="M157.7,673.5l605.8,0l0,-0.8l-605.8,0l0,0.8Z" class="g2_70" />
<path d="M157.7,865.3l605.8,0l0,-0.7l-605.8,0l0,0.7Z" class="g2_70" />
<path d="M675.2,488.7l75.6,0l0,-20.7l-75.6,0l0,20.7Z" class="g1_70" />
<path d="M675.2,468.4l76,0l0,-0.7l-76,0l0,0.7Z" class="g2_70" />
<path d="M750.5,489l0.7,0l0,-20.9l-0.7,0l0,20.9Z" class="g2_70" />
<path d="M674.9,489l75.9,0l0,-0.7l-75.9,0l0,0.7Z" class="g2_70" />
<path d="M674.9,488.7l0.7,0l0,-21l-0.7,0l0,21Z" class="g2_70" />
<path d="M176.1,488.7l57.3,0l0,-20.7l-57.3,0l0,20.7Z" class="g1_70" />
<path d="M176.1,468.4l57.7,0l0,-0.7l-57.7,0l0,0.7Z" class="g2_70" />
<path d="M233,489l0.8,0l0,-20.9l-0.8,0l0,20.9Z" class="g2_70" />
<path d="M175.7,489l57.7,0l0,-0.7l-57.7,0l0,0.7Z" class="g2_70" />
<path d="M175.7,488.7l0.8,0l0,-21l-0.8,0l0,21Z" class="g2_70" />
<path d="M584.8,488.7l83,0l0,-20.7l-83,0l0,20.7Z" class="g1_70" />
<path d="M584.8,468.4l83.4,0l0,-0.7l-83.4,0l0,0.7Z" class="g2_70" />
<path d="M667.4,489l0.8,0l0,-20.9l-0.8,0l0,20.9Z" class="g2_70" />
<path d="M584.5,489l83.3,0l0,-0.7l-83.3,0l0,0.7Z" class="g2_70" />
<path d="M584.5,488.7l0.7,0l0,-21l-0.7,0l0,21Z" class="g2_70" />
<path d="M533.8,488.7l38,0l0,-20.7l-38,0l0,20.7Z" class="g1_70" />
<path d="M533.8,468.4l38.4,0l0,-0.7l-38.4,0l0,0.7Z" class="g2_70" />
<path d="M571.5,489l0.7,0l0,-20.9l-0.7,0l0,20.9Z" class="g2_70" />
<path d="M533.4,489l38.4,0l0,-0.7l-38.4,0l0,0.7Z" class="g2_70" />
<path d="M533.4,488.7l0.7,0l0,-21l-0.7,0l0,21Z" class="g2_70" />
<path d="M440.3,488.7l63.7,0L504,468l-63.7,0l0,20.7Z" class="g1_70" />
<path d="M440.3,468.4l64,0l0,-0.7l-64,0l0,0.7Z" class="g2_70" />
<path d="M503.6,489l0.7,0l0,-20.9l-0.7,0l0,20.9Z" class="g2_70" />
<path d="M439.9,489l64.1,0l0,-0.7l-64.1,0l0,0.7Z" class="g2_70" />
<path d="M439.9,488.7l0.7,0l0,-21l-0.7,0l0,21Z" class="g2_70" />
<path d="M346.7,488.7l63.7,0l0,-20.7l-63.7,0l0,20.7Z" class="g1_70" />
<path d="M346.7,468.4l64.1,0l0,-0.7l-64.1,0l0,0.7Z" class="g2_70" />
<path d="M410,489l0.8,0l0,-20.9l-0.8,0l0,20.9Z" class="g2_70" />
<path d="M346.3,489l64.1,0l0,-0.7l-64.1,0l0,0.7Z" class="g2_70" />
<path d="M346.3,488.7l0.7,0l0,-21l-0.7,0l0,21Z" class="g2_70" />
<path d="M263.3,488.7l53.6,0l0,-20.7l-53.6,0l0,20.7Z" class="g1_70" />
<path d="M263.3,468.4l54,0l0,-0.7l-54,0l0,0.7Z" class="g2_70" />
<path d="M316.5,489l0.8,0l0,-20.9l-0.8,0l0,20.9Z" class="g2_70" />
<path d="M262.9,489l54,0l0,-0.7l-54,0l0,0.7Z" class="g2_70" />
<path d="M262.9,488.7l0.7,0l0,-21l-0.7,0l0,21Z" class="g2_70" />
<path d="M585.1,530.2l83,0l0,-20.6l-83,0l0,20.6Z" class="g1_70" />
<path d="M585.1,509.9l83.3,0l0,-0.7l-83.3,0l0,0.7Z" class="g2_70" />
<path d="M667.7,530.6l0.7,0l0,-21l-0.7,0l0,21Z" class="g2_70" />
<path d="M584.7,530.6l83.4,0l0,-0.8l-83.4,0l0,0.8Z" class="g2_70" />
<path d="M584.7,530.2l0.8,0l0,-21l-0.8,0l0,21Z" class="g2_70" />
<path d="M256.8,720.9l53.9,0l0,-20.7l-53.9,0l0,20.7Z" class="g1_70" />
<path d="M256.8,700.6l54.3,0l0,-0.7l-54.3,0l0,0.7Z" class="g2_70" />
<path d="M310.4,721.2l0.7,0l0,-21l-0.7,0l0,21Z" class="g2_70" />
<path d="M256.4,721.2l54.4,0l0,-0.7l-54.4,0l0,0.7Z" class="g2_70" />
<path d="M256.4,720.9l0.7,0l0,-21l-0.7,0l0,21Z" class="g2_70" />
<path d="M323.3,720.9l54.8,0l0,-20.7l-54.8,0l0,20.7Z" class="g1_70" />
<path d="M323.3,700.6l55.2,0l0,-0.7l-55.2,0l0,0.7Z" class="g2_70" />
<path d="M377.8,721.2l0.7,0l0,-21l-0.7,0l0,21Z" class="g2_70" />
<path d="M322.9,721.2l55.2,0l0,-0.7l-55.2,0l0,0.7Z" class="g2_70" />
<path d="M322.9,720.9l0.8,0l0,-21l-0.8,0l0,21Z" class="g2_70" />
<path d="M390.7,720.9l54.8,0l0,-20.7l-54.8,0l0,20.7Z" class="g1_70" />
<path d="M390.7,700.6l55.2,0l0,-0.7l-55.2,0l0,0.7Z" class="g2_70" />
<path d="M445.1,721.2l0.8,0l0,-21l-0.8,0l0,21Z" class="g2_70" />
<path d="M390.3,721.2l55.2,0l0,-0.7l-55.2,0l0,0.7Z" class="g2_70" />
<path d="M390.3,720.9l0.7,0l0,-21l-0.7,0l0,21Z" class="g2_70" />
<path d="M458.1,720.9l54.9,0l0,-20.7l-54.9,0l0,20.7Z" class="g1_70" />
<path d="M458.1,700.6l55.2,0l0,-0.7l-55.2,0l0,0.7Z" class="g2_70" />
<path d="M512.6,721.2l0.7,0l0,-21l-0.7,0l0,21Z" class="g2_70" />
<path d="M457.7,721.2l55.3,0l0,-0.7l-55.3,0l0,0.7Z" class="g2_70" />
<path d="M457.7,720.9l0.7,0l0,-21l-0.7,0l0,21Z" class="g2_70" />
<path d="M328.8,765.1l318.6,0l0,-20.6l-318.6,0l0,20.6Z" class="g1_70" />
<path d="M328.8,744.9l319,0l0,-0.8l-319,0l0,0.8Z" class="g2_70" />
<path d="M647.1,765.5l0.7,0l0,-21l-0.7,0l0,21Z" class="g2_70" />
<path d="M328.4,765.5l319,0l0,-0.7l-319,0l0,0.7Z" class="g2_70" />
<path d="M328.4,765.1l0.8,0l0,-20.9l-0.8,0l0,20.9Z" class="g2_70" />
<path d="M368.1,745l0.8,0l0,-0.4l-0.8,0l0,0.4Z" class="g2_70" />
<path d="M368.1,766l0.8,0l0,-21l-0.8,0l0,21Z" class="g2_70" />
<path d="M408.7,745l0.7,0l0,-0.4l-0.7,0l0,0.4Z" class="g2_70" />
<path d="M408.7,766l0.7,0l0,-21l-0.7,0l0,21Z" class="g2_70" />
<path d="M449.3,745l0.7,0l0,-0.4l-0.7,0l0,0.4Z" class="g2_70" />
<path d="M449.3,766l0.7,0l0,-21l-0.7,0l0,21Z" class="g2_70" />
<path d="M489.8,745l0.7,0l0,-0.4l-0.7,0l0,0.4Z" class="g2_70" />
<path d="M489.8,766l0.7,0l0,-21l-0.7,0l0,21Z" class="g2_70" />
<path d="M530.4,745l0.7,0l0,-0.4l-0.7,0l0,0.4Z" class="g2_70" />
<path d="M530.4,766l0.7,0l0,-21l-0.7,0l0,21Z" class="g2_70" />
<path d="M570.9,745l0.7,0l0,-0.4l-0.7,0l0,0.4Z" class="g2_70" />
<path d="M570.9,766l0.7,0l0,-21l-0.7,0l0,21Z" class="g2_70" />
<path d="M611.5,745l0.7,0l0,-0.4l-0.7,0l0,0.4Z" class="g2_70" />
<path d="M611.5,766l0.7,0l0,-21l-0.7,0l0,21Z" class="g2_70" />
<path d="M327.9,808.6l318.6,0l0,-20.6l-318.6,0l0,20.6Z" class="g1_70" />
<path d="M327.9,788.3l319,0l0,-0.7l-319,0l0,0.7Z" class="g2_70" />
<path d="M646.2,809l0.7,0l0,-21l-0.7,0l0,21Z" class="g2_70" />
<path d="M327.5,809l319,0l0,-0.8l-319,0l0,0.8Z" class="g2_70" />
<path d="M327.5,808.6l0.8,0l0,-21l-0.8,0l0,21Z" class="g2_70" />
<path d="M367.2,788.3l0.7,0l0,-0.3l-0.7,0l0,0.3Z" class="g2_70" />
<path d="M367.2,809.3l0.7,0l0,-21l-0.7,0l0,21Z" class="g2_70" />
<path d="M407.7,788.3l0.8,0l0,-0.3l-0.8,0l0,0.3Z" class="g2_70" />
<path d="M407.7,809.3l0.8,0l0,-21l-0.8,0l0,21Z" class="g2_70" />
<path d="M448.3,788.3l0.8,0l0,-0.3l-0.8,0l0,0.3Z" class="g2_70" />
<path d="M448.3,809.3l0.8,0l0,-21l-0.8,0l0,21Z" class="g2_70" />
<path d="M488.9,788.3l0.7,0l0,-0.3l-0.7,0l0,0.3Z" class="g2_70" />
<path d="M488.9,809.3l0.7,0l0,-21l-0.7,0l0,21Z" class="g2_70" />
<path d="M529.5,788.3l0.7,0l0,-0.3l-0.7,0l0,0.3Z" class="g2_70" />
<path d="M529.5,809.3l0.7,0l0,-21l-0.7,0l0,21Z" class="g2_70" />
<path d="M570,788.3l0.7,0l0,-0.3l-0.7,0l0,0.3Z" class="g2_70" />
<path d="M570,809.3l0.7,0l0,-21l-0.7,0l0,21Z" class="g2_70" />
<path d="M610.6,788.3l0.7,0l0,-0.3l-0.7,0l0,0.3Z" class="g2_70" />
<path d="M610.6,809.3l0.7,0l0,-21l-0.7,0l0,21Z" class="g2_70" />
<path d="M327.9,852l318.6,0l0,-20.7l-318.6,0l0,20.7Z" class="g1_70" />
<path d="M327.9,831.7l319,0l0,-0.7l-319,0l0,0.7Z" class="g2_70" />
<path d="M646.2,852.3l0.7,0l0,-21l-0.7,0l0,21Z" class="g2_70" />
<path d="M327.5,852.3l319,0l0,-0.7l-319,0l0,0.7Z" class="g2_70" />
<path d="M327.5,852l0.8,0l0,-21l-0.8,0l0,21Z" class="g2_70" />
<path d="M367.2,831.8l0.7,0l0,-0.4l-0.7,0l0,0.4Z" class="g2_70" />
<path d="M367.2,852.8l0.7,0l0,-21l-0.7,0l0,21Z" class="g2_70" />
<path d="M407.7,831.8l0.8,0l0,-0.4l-0.8,0l0,0.4Z" class="g2_70" />
<path d="M407.7,852.8l0.8,0l0,-21l-0.8,0l0,21Z" class="g2_70" />
<path d="M448.3,831.8l0.8,0l0,-0.4l-0.8,0l0,0.4Z" class="g2_70" />
<path d="M448.3,852.8l0.8,0l0,-21l-0.8,0l0,21Z" class="g2_70" />
<path d="M488.9,831.8l0.7,0l0,-0.4l-0.7,0l0,0.4Z" class="g2_70" />
<path d="M488.9,852.8l0.7,0l0,-21l-0.7,0l0,21Z" class="g2_70" />
<path d="M529.5,831.8l0.7,0l0,-0.4l-0.7,0l0,0.4Z" class="g2_70" />
<path d="M529.5,852.8l0.7,0l0,-21l-0.7,0l0,21Z" class="g2_70" />
<path d="M570,831.8l0.7,0l0,-0.4l-0.7,0l0,0.4Z" class="g2_70" />
<path d="M570,852.8l0.7,0l0,-21l-0.7,0l0,21Z" class="g2_70" />
<path d="M610.6,831.8l0.7,0l0,-0.4l-0.7,0l0,0.4Z" class="g2_70" />
<path d="M610.6,852.8l0.7,0l0,-21l-0.7,0l0,21Z" class="g2_70" />
</svg>