<?xml version="1.0" encoding="UTF-8" standalone="no"?>
<!DOCTYPE svg PUBLIC "-//W3C//DTD SVG 1.1//EN"
"http://www.w3.org/Graphics/SVG/1.1/DTD/svg11.dtd">
<svg viewBox="0 0 935 1210" version="1.1" xmlns="http://www.w3.org/2000/svg" xmlns:xlink="http://www.w3.org/1999/xlink">
<defs>
<style type="text/css"><![CDATA[
.g1_1858{
fill: #FFFFFF;
}
.g2_1858{
}
]]></style>
</defs>
<path d="M165,1149.3l687.5,0l0,-21.2l-687.5,0l0,21.2Z" class="g1_1858" />
<path d="M68.8,1149.3l82.5,0l0,-21.2l-82.5,0l0,21.2Z" class="g1_1858" />
<path d="M74.6,407.6l0.7,0l0,-243.7l-0.7,0l0,243.7Z" class="g2_1858" />
<path d="M348.7,408.3l0.7,0l0,-245.2l-0.7,0l0,245.2Z" class="g2_1858" />
<path d="M557.4,408.3l0.8,0l0,-245.2l-0.8,0l0,245.2Z" class="g2_1858" />
<path d="M845.8,407.6l0.7,0l0,-243.7l-0.7,0l0,243.7Z" class="g2_1858" />
<path d="M74.6,163.8l771.9,0l0,-0.7l-771.9,0l0,0.7Z" class="g2_1858" />
<path d="M74.6,188.3l771.9,0l0,-0.7l-771.9,0l0,0.7Z" class="g2_1858" />
<path d="M74.6,212.8l771.9,0l0,-0.8L74.6,212l0,0.8Z" class="g2_1858" />
<path d="M348.6,237.1l497.9,0l0,-0.7l-497.9,0l0,0.7Z" class="g2_1858" />
<path d="M348.6,261.6l497.9,0l0,-0.7l-497.9,0l0,0.7Z" class="g2_1858" />
<path d="M348.6,286.1l497.9,0l0,-0.7l-497.9,0l0,0.7Z" class="g2_1858" />
<path d="M74.6,310.5l771.9,0l0,-0.8l-771.9,0l0,0.8Z" class="g2_1858" />
<path d="M348.6,334.9l497.9,0l0,-0.7l-497.9,0l0,0.7Z" class="g2_1858" />
<path d="M74.6,359.4l771.9,0l0,-0.7l-771.9,0l0,0.7Z" class="g2_1858" />
<path d="M74.6,383.8l771.9,0l0,-0.7l-771.9,0l0,0.7Z" class="g2_1858" />
<path d="M74.6,408.3l771.9,0l0,-0.8l-771.9,0l0,0.8Z" class="g2_1858" />
</svg>