<?xml version="1.0" encoding="UTF-8" standalone="no"?>
<!DOCTYPE svg PUBLIC "-//W3C//DTD SVG 1.1//EN"
"http://www.w3.org/Graphics/SVG/1.1/DTD/svg11.dtd">
<svg viewBox="0 0 935 1210" version="1.1" xmlns="http://www.w3.org/2000/svg" xmlns:xlink="http://www.w3.org/1999/xlink">
<defs>
<style type="text/css"><![CDATA[
.g1_993{
fill: #FFFFFF;
}
.g2_993{
}
]]></style>
</defs>
<path d="M68.9,1149.3l686.3,0l0,-21.2l-686.3,0l0,21.2Z" class="g1_993" />
<path d="M771.3,1149.3l83.7,0l0,-21.2l-83.7,0l0,21.2Z" class="g1_993" />
<path d="M69.9,905.7l0.8,0l0,-798.4l-0.8,0l0,798.4Z" class="g2_993" />
<path d="M302.1,906.4l0.8,0l0,-799.8l-0.8,0l0,799.8Z" class="g2_993" />
<path d="M349.3,906.4l0.8,0l0,-799.8l-0.8,0l0,799.8Z" class="g2_993" />
<path d="M423.9,906.4l0.7,0l0,-799.8l-0.7,0l0,799.8Z" class="g2_993" />
<path d="M512.2,906.4l0.8,0l0,-799.8l-0.8,0l0,799.8Z" class="g2_993" />
<path d="M855.5,905.7l0.8,0l0,-798.4l-0.8,0l0,798.4Z" class="g2_993" />
<path d="M69.9,107.3l786.4,0l0,-0.7l-786.4,0l0,0.7Z" class="g2_993" />
<path d="M69.9,157.8l786.4,0l0,-0.8L69.9,157l0,0.8Z" class="g2_993" />
<path d="M69.9,211.2l786.4,0l0,-0.7l-786.4,0l0,0.7Z" class="g2_993" />
<path d="M69.9,264.6l786.4,0l0,-0.7l-786.4,0l0,0.7Z" class="g2_993" />
<path d="M69.9,318.2l786.4,0l0,-0.8l-786.4,0l0,0.8Z" class="g2_993" />
<path d="M69.9,371.6l786.4,0l0,-0.7l-786.4,0l0,0.7Z" class="g2_993" />
<path d="M69.9,425.2l786.4,0l0,-0.8l-786.4,0l0,0.8Z" class="g2_993" />
<path d="M69.9,478.6l786.4,0l0,-0.7l-786.4,0l0,0.7Z" class="g2_993" />
<path d="M69.9,532l786.4,0l0,-0.7l-786.4,0l0,0.7Z" class="g2_993" />
<path d="M69.9,585.6l786.4,0l0,-0.8l-786.4,0l0,0.8Z" class="g2_993" />
<path d="M69.9,639l786.4,0l0,-0.7l-786.4,0l0,0.7Z" class="g2_993" />
<path d="M69.9,692.4l786.4,0l0,-0.7l-786.4,0l0,0.7Z" class="g2_993" />
<path d="M69.9,746l786.4,0l0,-0.7l-786.4,0l0,0.7Z" class="g2_993" />
<path d="M69.9,799.4l786.4,0l0,-0.7l-786.4,0l0,0.7Z" class="g2_993" />
<path d="M69.9,852.9l786.4,0l0,-0.8l-786.4,0l0,0.8Z" class="g2_993" />
<path d="M69.9,906.4l786.4,0l0,-0.7l-786.4,0l0,0.7Z" class="g2_993" />
</svg>