<?xml version="1.0" encoding="UTF-8" standalone="no"?>
<!DOCTYPE svg PUBLIC "-//W3C//DTD SVG 1.1//EN"
"http://www.w3.org/Graphics/SVG/1.1/DTD/svg11.dtd">
<svg viewBox="0 0 935 1210" version="1.1" xmlns="http://www.w3.org/2000/svg" xmlns:xlink="http://www.w3.org/1999/xlink">
<defs>
<style type="text/css"><![CDATA[
.g1_1838{
fill: #FFFFFF;
}
.g2_1838{
}
]]></style>
</defs>
<path d="M165,1149.3l687.5,0l0,-21.2l-687.5,0l0,21.2Z" class="g1_1838" />
<path d="M68.8,1149.3l82.5,0l0,-21.2l-82.5,0l0,21.2Z" class="g1_1838" />
<path d="M68.6,245.6l0.7,0l0,-119.9l-0.7,0l0,119.9Z" class="g2_1838" />
<path d="M274.2,246.4l0.7,0l0,-121.5l-0.7,0l0,121.5Z" class="g2_1838" />
<path d="M320,246.4l0.7,0l0,-121.5l-0.7,0l0,121.5Z" class="g2_1838" />
<path d="M394.4,246.4l0.8,0l0,-121.5l-0.8,0l0,121.5Z" class="g2_1838" />
<path d="M481.5,246.4l0.8,0l0,-121.5l-0.8,0l0,121.5Z" class="g2_1838" />
<path d="M849.4,245.6l0.7,0l0,-119.9l-0.7,0l0,119.9Z" class="g2_1838" />
<path d="M68.6,125.7l781.5,0l0,-0.8l-781.5,0l0,0.8Z" class="g2_1838" />
<path d="M68.6,176.1l781.5,0l0,-0.7l-781.5,0l0,0.7Z" class="g2_1838" />
<path d="M68.6,246.3l781.5,0l0,-0.7l-781.5,0l0,0.7Z" class="g2_1838" />
<path d="M67.4,349.5l0.7,0l0,-48.1l-0.7,0l0,48.1Z" class="g2_1838" />
<path d="M206.3,350.3l0.8,0l0,-49.7l-0.8,0l0,49.7Z" class="g2_1838" />
<path d="M355.1,350.3l0.8,0l0,-49.7l-0.8,0l0,49.7Z" class="g2_1838" />
<path d="M567.2,350.3l0.8,0l0,-49.7l-0.8,0l0,49.7Z" class="g2_1838" />
<path d="M717.7,350.3l0.7,0l0,-49.7l-0.7,0l0,49.7Z" class="g2_1838" />
<path d="M853,349.5l0.8,0l0,-48.1l-0.8,0l0,48.1Z" class="g2_1838" />
<path d="M67.4,301.3l786.4,0l0,-0.7l-786.4,0l0,0.7Z" class="g2_1838" />
<path d="M67.4,325.8l786.4,0l0,-0.7l-786.4,0l0,0.7Z" class="g2_1838" />
<path d="M67.4,350.3l786.4,0l0,-0.8l-786.4,0l0,0.8Z" class="g2_1838" />
</svg>