<?xml version="1.0" encoding="UTF-8" standalone="no"?>
<!DOCTYPE svg PUBLIC "-//W3C//DTD SVG 1.1//EN"
"http://www.w3.org/Graphics/SVG/1.1/DTD/svg11.dtd">
<svg viewBox="0 0 935 1210" version="1.1" xmlns="http://www.w3.org/2000/svg" xmlns:xlink="http://www.w3.org/1999/xlink">
<defs>
<style type="text/css"><![CDATA[
.g1_385{
fill: #FFFFFF;
}
.g2_385{
}
]]></style>
</defs>
<path d="M68.9,1149.3l686.3,0l0,-21.2l-686.3,0l0,21.2Z" class="g1_385" />
<path d="M771.3,1149.3l83.7,0l0,-21.2l-83.7,0l0,21.2Z" class="g1_385" />
<path d="M70.3,329.6l0.7,0L71,131.8l-0.7,0l0,197.8Z" class="g2_385" />
<path d="M220.5,330.4l0.7,0l0,-199.4l-0.7,0l0,199.4Z" class="g2_385" />
<path d="M390.8,330.4l0.7,0l0,-199.4l-0.7,0l0,199.4Z" class="g2_385" />
<path d="M428.6,330.4l0.8,0l0,-199.4l-0.8,0l0,199.4Z" class="g2_385" />
<path d="M502,330.4l0.7,0l0,-199.4l-0.7,0l0,199.4Z" class="g2_385" />
<path d="M573.4,330.4l0.7,0l0,-199.4l-0.7,0l0,199.4Z" class="g2_385" />
<path d="M851.7,329.6l0.7,0l0,-197.8l-0.7,0l0,197.8Z" class="g2_385" />
<path d="M70.3,131.7l782.1,0l0,-0.7L70.3,131l0,0.7Z" class="g2_385" />
<path d="M70.3,169.9l782.1,0l0,-0.7l-782.1,0l0,0.7Z" class="g2_385" />
<path d="M70.3,192.9l782.1,0l0,-0.8l-782.1,0l0,0.8Z" class="g2_385" />
<path d="M70.3,215.8l782.1,0l0,-0.8L70.3,215l0,0.8Z" class="g2_385" />
<path d="M70.3,238.7l782.1,0l0,-0.7L70.3,238l0,0.7Z" class="g2_385" />
<path d="M70.3,261.6l782.1,0l0,-0.7l-782.1,0l0,0.7Z" class="g2_385" />
<path d="M70.3,284.5l782.1,0l0,-0.7l-782.1,0l0,0.7Z" class="g2_385" />
<path d="M70.3,307.4l782.1,0l0,-0.7l-782.1,0l0,0.7Z" class="g2_385" />
<path d="M70.3,330.4l782.1,0l0,-0.8l-782.1,0l0,0.8Z" class="g2_385" />
<path d="M70.5,497.7l0.7,0l0,-72.6l-0.7,0l0,72.6Z" class="g2_385" />
<path d="M152.1,498.5l0.7,0l0,-74.2l-0.7,0l0,74.2Z" class="g2_385" />
<path d="M330.5,498.5l0.7,0l0,-74.2l-0.7,0l0,74.2Z" class="g2_385" />
<path d="M514.7,498.5l0.7,0l0,-74.2l-0.7,0l0,74.2Z" class="g2_385" />
<path d="M678.5,498.5l0.7,0l0,-74.2l-0.7,0l0,74.2Z" class="g2_385" />
<path d="M851.5,497.7l0.7,0l0,-72.6l-0.7,0l0,72.6Z" class="g2_385" />
<path d="M70.5,425.2l781.8,0l0,-0.8l-781.8,0l0,0.8Z" class="g2_385" />
<path d="M70.5,449.5l781.8,0l0,-0.7l-781.8,0l0,0.7Z" class="g2_385" />
<path d="M70.5,474l781.8,0l0,-0.7l-781.8,0l0,0.7Z" class="g2_385" />
<path d="M70.5,498.5l781.8,0l0,-0.8l-781.8,0l0,0.8Z" class="g2_385" />
</svg>