<?xml version="1.0" encoding="UTF-8" standalone="no"?>
<!DOCTYPE svg PUBLIC "-//W3C//DTD SVG 1.1//EN"
"http://www.w3.org/Graphics/SVG/1.1/DTD/svg11.dtd">
<svg viewBox="0 0 935 1210" version="1.1" xmlns="http://www.w3.org/2000/svg" xmlns:xlink="http://www.w3.org/1999/xlink">
<defs>
<style type="text/css"><![CDATA[
.g1_1359{
fill: #FFFFFF;
}
.g2_1359{
}
]]></style>
</defs>
<path d="M68.9,1149.3l686.3,0l0,-21.2l-686.3,0l0,21.2Z" class="g1_1359" />
<path d="M771.3,1149.3l83.7,0l0,-21.2l-83.7,0l0,21.2Z" class="g1_1359" />
<path d="M67.4,815.5l0.7,0l0,-657.7l-0.7,0l0,657.7Z" class="g2_1359" />
<path d="M114.5,816.3l0.7,0l0,-659.3l-0.7,0l0,659.3Z" class="g2_1359" />
<path d="M207,816.3l0.7,0l0,-634.9l-0.7,0l0,634.9Z" class="g2_1359" />
<path d="M299.5,816.3l0.7,0l0,-634.9l-0.7,0l0,634.9Z" class="g2_1359" />
<path d="M392.1,816.3l0.7,0l0,-634.9l-0.7,0l0,634.9Z" class="g2_1359" />
<path d="M484.6,816.3l0.7,0l0,-634.9l-0.7,0l0,634.9Z" class="g2_1359" />
<path d="M577,816.3l0.8,0l0,-634.9l-0.8,0l0,634.9Z" class="g2_1359" />
<path d="M669.5,816.3l0.8,0l0,-634.9l-0.8,0l0,634.9Z" class="g2_1359" />
<path d="M762.1,816.3l0.7,0l0,-634.9l-0.7,0l0,634.9Z" class="g2_1359" />
<path d="M854.6,815.5l0.7,0l0,-657.7l-0.7,0l0,657.7Z" class="g2_1359" />
<path d="M67.4,157.8l787.9,0l0,-0.8L67.4,157l0,0.8Z" class="g2_1359" />
<path d="M67.4,182.1l787.9,0l0,-0.7l-787.9,0l0,0.7Z" class="g2_1359" />
<path d="M67.4,206.6l787.9,0l0,-0.7l-787.9,0l0,0.7Z" class="g2_1359" />
<path d="M67.4,231.1l787.9,0l0,-0.7l-787.9,0l0,0.7Z" class="g2_1359" />
<path d="M67.4,272.3l787.9,0l0,-0.7l-787.9,0l0,0.7Z" class="g2_1359" />
<path d="M67.4,313.6l787.9,0l0,-0.7l-787.9,0l0,0.7Z" class="g2_1359" />
<path d="M67.4,354.8l787.9,0l0,-0.7l-787.9,0l0,0.7Z" class="g2_1359" />
<path d="M67.4,396.1l787.9,0l0,-0.7l-787.9,0l0,0.7Z" class="g2_1359" />
<path d="M67.4,437.3l787.9,0l0,-0.7l-787.9,0l0,0.7Z" class="g2_1359" />
<path d="M67.4,478.6l787.9,0l0,-0.7l-787.9,0l0,0.7Z" class="g2_1359" />
<path d="M67.4,519.8l787.9,0l0,-0.7l-787.9,0l0,0.7Z" class="g2_1359" />
<path d="M67.4,561.1l787.9,0l0,-0.7l-787.9,0l0,0.7Z" class="g2_1359" />
<path d="M67.4,602.3l787.9,0l0,-0.7l-787.9,0l0,0.7Z" class="g2_1359" />
<path d="M67.4,626.8l787.9,0l0,-0.7l-787.9,0l0,0.7Z" class="g2_1359" />
<path d="M67.4,668.1l787.9,0l0,-0.8l-787.9,0l0,0.8Z" class="g2_1359" />
<path d="M67.4,692.4l787.9,0l0,-0.7l-787.9,0l0,0.7Z" class="g2_1359" />
<path d="M67.4,733.7l787.9,0l0,-0.7L67.4,733l0,0.7Z" class="g2_1359" />
<path d="M67.4,774.9l787.9,0l0,-0.7l-787.9,0l0,0.7Z" class="g2_1359" />
<path d="M67.4,816.2l787.9,0l0,-0.7l-787.9,0l0,0.7Z" class="g2_1359" />
</svg>