<?xml version="1.0" encoding="UTF-8" standalone="no"?>
<!DOCTYPE svg PUBLIC "-//W3C//DTD SVG 1.1//EN"
"http://www.w3.org/Graphics/SVG/1.1/DTD/svg11.dtd">
<svg viewBox="0 0 935 1210" version="1.1" xmlns="http://www.w3.org/2000/svg" xmlns:xlink="http://www.w3.org/1999/xlink">
<defs>
<style type="text/css"><![CDATA[
.g1_1512{
fill: #FFFFFF;
}
.g2_1512{
}
]]></style>
</defs>
<path d="M165,1149.3l687.5,0l0,-21.2l-687.5,0l0,21.2Z" class="g1_1512" />
<path d="M68.8,1149.3l82.5,0l0,-21.2l-82.5,0l0,21.2Z" class="g1_1512" />
<path d="M68.6,1049.2l0.7,0L69.3,147l-0.7,0l0,902.2Z" class="g2_1512" />
<path d="M290.2,1050l0.7,0l0,-903.7l-0.7,0l0,903.7Z" class="g2_1512" />
<path d="M338.3,1050l0.8,0l0,-903.7l-0.8,0l0,903.7Z" class="g2_1512" />
<path d="M410.6,1050l0.7,0l0,-903.7l-0.7,0l0,903.7Z" class="g2_1512" />
<path d="M495.4,1050l0.7,0l0,-903.7l-0.7,0l0,903.7Z" class="g2_1512" />
<path d="M853.1,1049.2l0.8,0l0,-902.2l-0.8,0l0,902.2Z" class="g2_1512" />
<path d="M68.6,147l785.3,0l0,-0.7l-785.3,0l0,0.7Z" class="g2_1512" />
<path d="M68.6,197.4l785.3,0l0,-0.7l-785.3,0l0,0.7Z" class="g2_1512" />
<path d="M68.6,250.9l785.3,0l0,-0.7l-785.3,0l0,0.7Z" class="g2_1512" />
<path d="M68.6,304.4l785.3,0l0,-0.7l-785.3,0l0,0.7Z" class="g2_1512" />
<path d="M68.6,357.9l785.3,0l0,-0.8l-785.3,0l0,0.8Z" class="g2_1512" />
<path d="M68.6,411.4l785.3,0l0,-0.7l-785.3,0l0,0.7Z" class="g2_1512" />
<path d="M68.6,464.8l785.3,0l0,-0.7l-785.3,0l0,0.7Z" class="g2_1512" />
<path d="M68.6,518.3l785.3,0l0,-0.7l-785.3,0l0,0.7Z" class="g2_1512" />
<path d="M68.6,588.6l785.3,0l0,-0.7l-785.3,0l0,0.7Z" class="g2_1512" />
<path d="M68.6,642l785.3,0l0,-0.7l-785.3,0l0,0.7Z" class="g2_1512" />
<path d="M68.6,695.6l785.3,0l0,-0.8l-785.3,0l0,0.8Z" class="g2_1512" />
<path d="M68.6,765.8l785.3,0l0,-0.7l-785.3,0l0,0.7Z" class="g2_1512" />
<path d="M68.6,819.3l785.3,0l0,-0.7l-785.3,0l0,0.7Z" class="g2_1512" />
<path d="M68.6,872.8l785.3,0l0,-0.8L68.6,872l0,0.8Z" class="g2_1512" />
<path d="M68.6,943.1l785.3,0l0,-0.8l-785.3,0l0,0.8Z" class="g2_1512" />
<path d="M68.6,996.5l785.3,0l0,-0.7l-785.3,0l0,0.7Z" class="g2_1512" />
<path d="M68.6,1050l785.3,0l0,-0.8l-785.3,0l0,0.8Z" class="g2_1512" />
</svg>