<?xml version="1.0" encoding="UTF-8" standalone="no"?>
<!DOCTYPE svg PUBLIC "-//W3C//DTD SVG 1.1//EN"
"http://www.w3.org/Graphics/SVG/1.1/DTD/svg11.dtd">
<svg viewBox="0 0 935 1210" version="1.1" xmlns="http://www.w3.org/2000/svg" xmlns:xlink="http://www.w3.org/1999/xlink">
<defs>
<style type="text/css"><![CDATA[
.g1_1144{
fill: #FFFFFF;
}
.g2_1144{
}
]]></style>
</defs>
<path d="M165,1149.3l687.5,0l0,-21.2l-687.5,0l0,21.2Z" class="g1_1144" />
<path d="M68.8,1149.3l82.5,0l0,-21.2l-82.5,0l0,21.2Z" class="g1_1144" />
<path d="M68.9,592.4l0.8,0l0,-485.1l-0.8,0l0,485.1Z" class="g2_1144" />
<path d="M383.6,593.2l0.8,0l0,-486.6l-0.8,0l0,486.6Z" class="g2_1144" />
<path d="M421.5,593.2l0.7,0l0,-486.6l-0.7,0l0,486.6Z" class="g2_1144" />
<path d="M494.9,593.2l0.7,0l0,-486.6l-0.7,0l0,486.6Z" class="g2_1144" />
<path d="M574.3,593.2l0.7,0l0,-486.6l-0.7,0l0,486.6Z" class="g2_1144" />
<path d="M851.4,592.4l0.7,0l0,-485.1l-0.7,0l0,485.1Z" class="g2_1144" />
<path d="M68.9,107.3l783.3,0l0,-0.7l-783.3,0l0,0.7Z" class="g2_1144" />
<path d="M68.9,163.8l783.3,0l0,-0.7l-783.3,0l0,0.7Z" class="g2_1144" />
<path d="M68.9,220.4l783.3,0l0,-0.8l-783.3,0l0,0.8Z" class="g2_1144" />
<path d="M68.9,293.7l783.3,0l0,-0.7L68.9,293l0,0.7Z" class="g2_1144" />
<path d="M68.9,367l783.3,0l0,-0.7l-783.3,0l0,0.7Z" class="g2_1144" />
<path d="M68.9,423.6l783.3,0l0,-0.7l-783.3,0l0,0.7Z" class="g2_1144" />
<path d="M68.9,480.2l783.3,0l0,-0.8l-783.3,0l0,0.8Z" class="g2_1144" />
<path d="M68.9,536.6l783.3,0l0,-0.7l-783.3,0l0,0.7Z" class="g2_1144" />
<path d="M68.9,593.2l783.3,0l0,-0.8l-783.3,0l0,0.8Z" class="g2_1144" />
<path d="M70.9,844.5l0.7,0l0,-121.4l-0.7,0l0,121.4Z" class="g2_1144" />
<path d="M135.9,845.3l0.8,0l0,-123.1l-0.8,0l0,123.1Z" class="g2_1144" />
<path d="M314.8,845.3l0.7,0l0,-123.1l-0.7,0l0,123.1Z" class="g2_1144" />
<path d="M491,845.3l0.7,0l0,-123.1l-0.7,0l0,123.1Z" class="g2_1144" />
<path d="M667.7,845.3l0.7,0l0,-123.1l-0.7,0l0,123.1Z" class="g2_1144" />
<path d="M849.6,844.5l0.7,0l0,-121.4l-0.7,0l0,121.4Z" class="g2_1144" />
<path d="M70.8,723.1l779.5,0l0,-0.8l-779.5,0l0,0.8Z" class="g2_1144" />
<path d="M70.8,747.4l779.5,0l0,-0.7l-779.5,0l0,0.7Z" class="g2_1144" />
<path d="M70.8,771.9l779.5,0l0,-0.7l-779.5,0l0,0.7Z" class="g2_1144" />
<path d="M70.8,796.4l779.5,0l0,-0.7l-779.5,0l0,0.7Z" class="g2_1144" />
<path d="M70.8,820.8l779.5,0l0,-0.7l-779.5,0l0,0.7Z" class="g2_1144" />
<path d="M70.8,845.3l779.5,0l0,-0.8l-779.5,0l0,0.8Z" class="g2_1144" />
</svg>