<?xml version="1.0" encoding="UTF-8" standalone="no"?>
<!DOCTYPE svg PUBLIC "-//W3C//DTD SVG 1.1//EN"
"http://www.w3.org/Graphics/SVG/1.1/DTD/svg11.dtd">
<svg viewBox="0 0 935 1210" version="1.1" xmlns="http://www.w3.org/2000/svg" xmlns:xlink="http://www.w3.org/1999/xlink">
<defs>
<style type="text/css"><![CDATA[
.g1_789{
fill: #FFFFFF;
}
.g2_789{
}
]]></style>
</defs>
<path d="M68.9,1149.3l686.3,0l0,-21.2l-686.3,0l0,21.2Z" class="g1_789" />
<path d="M771.3,1149.3l83.7,0l0,-21.2l-83.7,0l0,21.2Z" class="g1_789" />
<path d="M171.3,850.8l0.8,0l0,-631.9l-0.8,0l0,631.9Z" class="g2_789" />
<path d="M750.7,850.8l0.7,0l0,-631.9l-0.7,0l0,631.9Z" class="g2_789" />
<path d="M171.3,218.8l580.1,0l0,-0.7l-580.1,0l0,0.7Z" class="g2_789" />
<path d="M171.3,851.5l580.1,0l0,-0.7l-580.1,0l0,0.7Z" class="g2_789" />
<path d="M242.5,300.8l110,0l0,-27.5l-110,0l0,27.5Z" class="g1_789" />
<path d="M242.5,273.6l110.4,0l0,-0.7l-110.4,0l0,0.7Z" class="g2_789" />
<path d="M352.2,301.1l0.7,0l0,-27.8l-0.7,0l0,27.8Z" class="g2_789" />
<path d="M242.2,301.1l110.4,0l0,-0.7l-110.4,0l0,0.7Z" class="g2_789" />
<path d="M242.2,300.8l0.7,0l0,-27.9l-0.7,0l0,27.9Z" class="g2_789" />
<path d="M352.5,300.8l110.1,0l0,-27.5l-110.1,0l0,27.5Z" class="g1_789" />
<path d="M352.5,273.6l110.4,0l0,-0.7l-110.4,0l0,0.7Z" class="g2_789" />
<path d="M462.2,301.1l0.7,0l0,-27.8l-0.7,0l0,27.8Z" class="g2_789" />
<path d="M352.2,301.1l110.4,0l0,-0.7l-110.4,0l0,0.7Z" class="g2_789" />
<path d="M352.2,300.8l0.7,0l0,-27.9l-0.7,0l0,27.9Z" class="g2_789" />
<path d="M462.6,300.8l110,0l0,-27.5l-110,0l0,27.5Z" class="g1_789" />
<path d="M462.6,273.6l110.3,0l0,-0.7l-110.3,0l0,0.7Z" class="g2_789" />
<path d="M572.2,301.1l0.7,0l0,-27.8l-0.7,0l0,27.8Z" class="g2_789" />
<path d="M462.2,301.1l110.3,0l0,-0.7l-110.3,0l0,0.7Z" class="g2_789" />
<path d="M462.2,300.8l0.7,0l0,-27.9l-0.7,0l0,27.9Z" class="g2_789" />
<path d="M572.6,300.8l110,0l0,-27.5l-110,0l0,27.5Z" class="g1_789" />
<path d="M572.6,273.6l110.3,0l0,-0.7l-110.3,0l0,0.7Z" class="g2_789" />
<path d="M682.2,301.1l0.7,0l0,-27.8l-0.7,0l0,27.8Z" class="g2_789" />
<path d="M572.2,301.1l110.3,0l0,-0.7l-110.3,0l0,0.7Z" class="g2_789" />
<path d="M572.2,300.8l0.7,0l0,-27.9l-0.7,0l0,27.9Z" class="g2_789" />
<path d="M567,343.3l-0.6,0.5l1.4,1.2l0.5,-0.5Z" class="g2_789" />
<path d="M567.3,344.5l1,-2.9l0.5,-1.4l0.9,1.3l5.7,8.4l1.5,2.2L574.5,351l-9.2,-4l-1.5,-0.7l1.4,-0.7l0.8,0l9.1,4l-0.6,1.4l-0.4,-0.3l-5.7,-8.3l1.3,-0.9l0.1,0.7l-1,2.8Z" class="g2_789" />
<path d="M565.2,345.6l2.5,-1.5l1.1,0.9l-0.1,0.3l-0.3,0.1l-2.4,1.5Z" class="g2_789" />
<path fill-rule="evenodd" d="M568.1,344.8l1,-2.9l5.7,8.4l-9.2,-4.1Z" class="g2_789" />
<path d="M520.4,305l-0.3,-0.2l-0.4,0.5l0.2,0.2Z" class="g2_789" />
<path d="M567,343.3l0.2,0.2l-0.4,0.5l-0.3,-0.2Z" class="g2_789" />
<path d="M520.4,305l-0.5,0.5l46.6,38.3l0.5,-0.5Z" class="g2_789" />
<path d="M625.8,416.1l-0.1,-1.6l0,0.1l-0.3,-1.5l0,0.1l-0.5,-1.4l-0.7,-1.4l0,0.1l-1,-1.3l-1.1,-1.3l0.1,0L621,406.7l-1.4,-1.1l0,0.1L618,404.8l-1.7,-0.9l0.1,0l-1.9,-0.7l-1.9,-0.7l-2,-0.4l0.1,0l-2.1,-0.4l-2.1,-0.3l-2.3,-0.1l-2.2,0.1l0.1,0l-2.2,0.3l-2.1,0.4l-2.1,0.4l0.1,0l-1.9,0.7l-1.8,0.7l-1.8,0.9l-1.5,0.9l0.1,-0.1l-1.4,1.1l-1.3,1.2l-1.1,1.3l0.1,0l-0.9,1.3l0,-0.1l-0.8,1.4l-0.5,1.4l0,-0.1l-0.4,1.5l0,-0.1l-0.1,1.6l0.1,1.5l0,-0.1L583,419l0.5,1.5l0,-0.1l0.8,1.4l0.9,1.3l-0.1,0l1.1,1.2l0,-0.1l1.3,1.2l1.4,1.1l-0.1,0l1.5,0.9l-0.3,0.7l-1.6,-0.9l0,-0.1c-4.1,-2.8,-7.3,-7.6,-6.5,-12.7l0.4,-1.4l0.1,0l0.5,-1.5l0,-0.1l0.7,-1.4l1,-1.3l1.1,-1.2l0,-0.1l1.3,-1.2l1.4,-1.1l1.6,-0.9l1.7,-1l0.1,0l1.8,-0.7l0,-0.1l2,-0.6l2,-0.5l0.1,0l2.1,-0.3l2.2,-0.3l2.2,-0.1l2.3,0.1l0.1,0l2.1,0.3l2.1,0.3l2,0.5l0.1,0l1.9,0.6l0,0.1l1.8,0.7c3.2,1.6,5,2.7,7.2,5.5l0.1,0l0.9,1.3c0.8,1.3,1.4,3.1,1.7,4.5l0,1.6Z" class="g2_789" />
<path d="M590.3,427.4l1.8,1l1.8,0.7l0,-0.1l1.9,0.6l-0.1,0l2.1,0.6l2.1,0.4l2.2,0.1l-0.1,0l2.2,0.1l2.3,-0.1l2.1,-0.1l2.1,-0.4l-0.1,0l2,-0.6l1.9,-0.6l0,0.1l1.9,-0.7l-0.1,0l1.7,-1l1.6,-0.9l1.4,-1.1l1.2,-1.2l-0.1,0.1l1.1,-1.2l1,-1.3l0.7,-1.4l0,0.1l0.5,-1.5l0.3,-1.5l0,0.1l0.1,-1.5l0.7,0l-0.1,1.5l0,0.1c-0.8,5.3,-5.1,9.2,-9.8,11.3l-1.8,0.7l-1.9,0.7l-0.1,0l-2,0.5l-2.1,0.4l-2.1,0.2l-0.1,0l-2.3,0.1L602,431.5c-3,-0.1,-5.6,-0.7,-8.4,-1.8L591.8,429l-0.1,0L590,428.1Z" class="g2_789" />
<path d="M627.9,486.3l51.4,0l0,-27.6l-51.4,0l0,27.6Z" class="g1_789" />
<path d="M627.9,459.1l51.7,0l0,-0.8l-51.7,0l0,0.8Z" class="g2_789" />
<path d="M678.9,486.7l0.7,0l0,-28l-0.7,0l0,28Z" class="g2_789" />
<path d="M627.6,486.7l51.7,0l0,-0.8l-51.7,0l0,0.8Z" class="g2_789" />
<path d="M627.6,486.3l0.7,0l0,-28l-0.7,0l0,28Z" class="g2_789" />
<path d="M576.9,486.3l51.3,0l0,-27.6l-51.3,0l0,27.6Z" class="g1_789" />
<path d="M576.9,459.1l51.7,0l0,-0.8l-51.7,0l0,0.8Z" class="g2_789" />
<path d="M627.8,486.7l0.8,0l0,-28l-0.8,0l0,28Z" class="g2_789" />
<path d="M576.5,486.7l51.7,0l0,-0.8l-51.7,0l0,0.8Z" class="g2_789" />
<path d="M576.5,486.3l0.7,0l0,-28l-0.7,0l0,28Z" class="g2_789" />
<path d="M525.8,486.3l51.3,0l0,-27.6l-51.3,0l0,27.6Z" class="g1_789" />
<path d="M525.8,459.1l51.7,0l0,-0.8l-51.7,0l0,0.8Z" class="g2_789" />
<path d="M576.8,486.7l0.7,0l0,-28l-0.7,0l0,28Z" class="g2_789" />
<path d="M525.4,486.7l51.7,0l0,-0.8l-51.7,0l0,0.8Z" class="g2_789" />
<path d="M525.4,486.3l0.8,0l0,-28l-0.8,0l0,28Z" class="g2_789" />
<path d="M474.8,486.3l51.4,0l0,-27.6l-51.4,0l0,27.6Z" class="g1_789" />
<path d="M474.8,459.1l51.7,0l0,-0.8l-51.7,0l0,0.8Z" class="g2_789" />
<path d="M525.8,486.7l0.7,0l0,-28l-0.7,0l0,28Z" class="g2_789" />
<path d="M474.5,486.7l51.7,0l0,-0.8l-51.7,0l0,0.8Z" class="g2_789" />
<path d="M474.5,486.3l0.7,0l0,-28l-0.7,0l0,28Z" class="g2_789" />
<path d="M423.8,486.3l51.3,0l0,-27.6l-51.3,0l0,27.6Z" class="g1_789" />
<path d="M423.8,459.1l51.7,0l0,-0.8l-51.7,0l0,0.8Z" class="g2_789" />
<path d="M474.7,486.7l0.8,0l0,-28l-0.8,0l0,28Z" class="g2_789" />
<path d="M423.4,486.7l51.7,0l0,-0.8l-51.7,0l0,0.8Z" class="g2_789" />
<path d="M423.4,486.3l0.7,0l0,-28l-0.7,0l0,28Z" class="g2_789" />
<path d="M372.7,486.3l51.3,0l0,-27.6l-51.3,0l0,27.6Z" class="g1_789" />
<path d="M372.7,459.1l51.7,0l0,-0.8l-51.7,0l0,0.8Z" class="g2_789" />
<path d="M423.7,486.7l0.7,0l0,-28l-0.7,0l0,28Z" class="g2_789" />
<path d="M372.4,486.7l51.6,0l0,-0.8l-51.6,0l0,0.8Z" class="g2_789" />
<path d="M372.4,486.3l0.7,0l0,-28l-0.7,0l0,28Z" class="g2_789" />
<path d="M321.7,486.3l51.3,0l0,-27.6l-51.3,0l0,27.6Z" class="g1_789" />
<path d="M321.7,459.1l51.7,0l0,-0.8l-51.7,0l0,0.8Z" class="g2_789" />
<path d="M372.6,486.7l0.8,0l0,-28l-0.8,0l0,28Z" class="g2_789" />
<path d="M321.3,486.7l51.7,0l0,-0.8l-51.7,0l0,0.8Z" class="g2_789" />
<path d="M321.3,486.3l0.7,0l0,-28l-0.7,0l0,28Z" class="g2_789" />
<path d="M270.7,486.3l51.3,0l0,-27.6l-51.3,0l0,27.6Z" class="g1_789" />
<path d="M270.7,459.1l51.7,0l0,-0.8l-51.7,0l0,0.8Z" class="g2_789" />
<path d="M321.7,486.7l0.7,0l0,-28l-0.7,0l0,28Z" class="g2_789" />
<path d="M270.3,486.7l51.7,0l0,-0.8l-51.7,0l0,0.8Z" class="g2_789" />
<path d="M270.3,486.3l0.8,0l0,-28l-0.8,0l0,28Z" class="g2_789" />
<path d="M307,425.7l92.6,0l0,-27.5l-92.6,0l0,27.5Z" class="g1_789" />
<path d="M307,398.6l92.9,0l0,-0.8l-92.9,0l0,0.8Z" class="g2_789" />
<path d="M399.2,426.1l0.7,0l0,-27.9l-0.7,0l0,27.9Z" class="g2_789" />
<path d="M306.6,426.1l93,0l0,-0.8l-93,0l0,0.8Z" class="g2_789" />
<path d="M306.6,425.7l0.8,0l0,-27.9l-0.8,0l0,27.9Z" class="g2_789" />
<path d="M338.8,419.1l92.6,0l0,-27.5l-92.6,0l0,27.5Z" class="g1_789" />
<path d="M338.8,392l93,0l0,-0.8l-93,0l0,0.8Z" class="g2_789" />
<path d="M431,419.5l0.8,0l0,-27.9l-0.8,0l0,27.9Z" class="g2_789" />
<path d="M338.4,419.5l93,0l0,-0.8l-93,0l0,0.8Z" class="g2_789" />
<path d="M338.4,419.1l0.8,0l0,-27.9l-0.8,0l0,27.9Z" class="g2_789" />
<path d="M370.5,412.5l92.6,0l0,-27.5l-92.6,0l0,27.5Z" class="g1_789" />
<path d="M370.5,385.4l93,0l0,-0.8l-93,0l0,0.8Z" class="g2_789" />
<path d="M462.7,412.9l0.8,0l0,-27.9l-0.8,0l0,27.9Z" class="g2_789" />
<path d="M370.2,412.9l92.9,0l0,-0.8l-92.9,0l0,0.8Z" class="g2_789" />
<path d="M370.2,412.5l0.7,0l0,-27.9l-0.7,0l0,27.9Z" class="g2_789" />
<path d="M402.2,405.8l92.6,0l0,-27.5l-92.6,0l0,27.5Z" class="g1_789" />
<path d="M402.2,378.7l93,0l0,-0.8l-93,0l0,0.8Z" class="g2_789" />
<path d="M494.5,406.2l0.7,0l0,-27.9l-0.7,0l0,27.9Z" class="g2_789" />
<path d="M401.9,406.2l92.9,0l0,-0.8l-92.9,0l0,0.8Z" class="g2_789" />
<path d="M401.9,405.8l0.7,0l0,-27.9l-0.7,0l0,27.9Z" class="g2_789" />
<path d="M434,399.2l92.5,0l0,-27.5l-92.5,0l0,27.5Z" class="g1_789" />
<path d="M434,372.1l92.9,0l0,-0.8l-92.9,0l0,0.8Z" class="g2_789" />
<path d="M526.2,399.6l0.7,0l0,-27.9l-0.7,0l0,27.9Z" class="g2_789" />
<path d="M433.6,399.6l92.9,0l0,-0.8l-92.9,0l0,0.8Z" class="g2_789" />
<path d="M433.6,399.2l0.7,0l0,-27.9l-0.7,0l0,27.9Z" class="g2_789" />
<path d="M465.7,392.6l92.6,0l0,-27.5l-92.6,0l0,27.5Z" class="g1_789" />
<path d="M465.7,365.5l93,0l0,-0.8l-93,0l0,0.8Z" class="g2_789" />
<path d="M558,393l0.7,0l0,-27.9l-0.7,0l0,27.9Z" class="g2_789" />
<path d="M465.3,393l93,0l0,-0.8l-93,0l0,0.8Z" class="g2_789" />
<path d="M465.3,392.6l0.7,0l0,-27.9l-0.7,0l0,27.9Z" class="g2_789" />
<path d="M497.5,385.9l92.6,0l0,-27.5l-92.6,0l0,27.5Z" class="g1_789" />
<path d="M497.5,358.8l92.9,0l0,-0.7l-92.9,0l0,0.7Z" class="g2_789" />
<path d="M589.7,386.3l0.7,0l0,-27.9l-0.7,0l0,27.9Z" class="g2_789" />
<path d="M497.1,386.3l93,0l0,-0.7l-93,0l0,0.7Z" class="g2_789" />
<path d="M497.1,385.9l0.7,0l0,-27.9l-0.7,0l0,27.9Z" class="g2_789" />
<path d="M529.2,379.3l92.6,0l0,-27.5l-92.6,0l0,27.5Z" class="g1_789" />
<path d="M529.2,352.2l92.9,0l0,-0.7l-92.9,0l0,0.7Z" class="g2_789" />
<path d="M621.4,379.7l0.7,0l0,-27.9l-0.7,0l0,27.9Z" class="g2_789" />
<path d="M528.8,379.7l93,0l0,-0.7l-93,0l0,0.7Z" class="g2_789" />
<path d="M528.8,379.3l0.8,0l0,-27.8l-0.8,0l0,27.8Z" class="g2_789" />
<path d="M573.8,353.8l0.8,0l0,-0.3l-0.8,0l0,0.3Z" class="g2_789" />
<path d="M573.8,379.9l0.8,0l0,-26.1l-0.8,0l0,26.1Z" class="g2_789" />
<path d="M597,353.2l0.8,0l0,-0.4l-0.8,0l0,0.4Z" class="g2_789" />
<path d="M597,379.9l0.8,0l0,-26.7l-0.8,0l0,26.7Z" class="g2_789" />
<path d="M549.6,352l0.8,0l0,-0.4l-0.8,0l0,0.4Z" class="g2_789" />
<path d="M549.6,379.6l0.8,0l0,-27.6l-0.8,0l0,27.6Z" class="g2_789" />
<path d="M462.6,299.9l109,0l0,-26.6l-109,0l0,26.6Z" class="g1_789" />
<path d="M462.6,273.6l109.4,0l0,-0.7l-109.4,0l0,0.7Z" class="g2_789" />
<path d="M571.3,300.3l0.7,0l0,-27l-0.7,0l0,27Z" class="g2_789" />
<path d="M462.2,300.3l109.4,0l0,-0.7l-109.4,0l0,0.7Z" class="g2_789" />
<path d="M462.2,299.9l0.7,0l0,-27l-0.7,0l0,27Z" class="g2_789" />
<path d="M515.2,273.8l0.7,0l0,-0.4l-0.7,0l0,0.4Z" class="g2_789" />
<path d="M515.2,300.8l0.7,0l0,-27l-0.7,0l0,27Z" class="g2_789" />
<path d="M542.6,273.7l0.7,0l0,-0.4l-0.7,0l0,0.4Z" class="g2_789" />
<path d="M542.6,300.8l0.7,0l0,-27.1l-0.7,0l0,27.1Z" class="g2_789" />
<path d="M486.8,273.2l0.7,0l0,-0.4l-0.7,0l0,0.4Z" class="g2_789" />
<path d="M486.8,300.2l0.7,0l0,-27l-0.7,0l0,27Z" class="g2_789" />
<path d="M588.5,322.9l-0.1,-1.7l0,0.1L588,319.6L587.3,318l0,0.1l-1.1,-1.6L585,315.1l0.1,0l-1.5,-1.4l-1.8,-1.3l0,0.1l-1.9,-1.2l-2.2,-1.1l0.1,0l-2.3,-1L573,308.4l-2.6,-0.8l-2.9,-0.5l0.1,0l-2.8,-0.5l-3.1,-0.2l-3.1,-0.1l-3,0.1l0.1,0l-3,0.2l-3,0.5l-2.7,0.5l-2.7,0.8l0.1,0l-2.5,0.8l-2.3,1l-2.2,1.1l-1.9,1.2l0.1,-0.1l-1.7,1.3l-1.6,1.4l-1.3,1.4l0.1,-0.1l-1,1.6l-0.7,1.6l-0.5,1.7l-0.2,1.6l0.2,1.7l0,-0.1l0.5,1.7l0.7,1.6l0,-0.1l1,1.6l-0.1,0l1.3,1.5l0,-0.1l1.6,1.4l1.7,1.3l-0.1,0l1.9,1.2l2.2,1.1l-0.3,0.6l-0.1,0l-2.1,-1.1L535.2,334l0,-0.1l-1.8,-1.2l-1.6,-1.4l-1.3,-1.6l0,-0.1l-1,-1.5l-0.8,-1.6l-0.1,-0.1l-0.4,-1.7L528,322.9l0.2,-1.7l0,-0.1l0.4,-1.7l0.1,0l0.8,-1.7l0,-0.1l1,-1.5l1.3,-1.5l0,-0.1l1.6,-1.4l1.8,-1.3l1.9,-1.1l2.1,-1.1l0.1,0l2.4,-1l0,-0.1l2.4,-0.9l2.7,-0.7l2.7,-0.5l0.1,0l3,-0.5l3,-0.3l3,-0.1l3.1,0.1c3.6,0.2,8,1,11.5,2l0.1,0l2.5,0.9l0,0.1l2.3,1c3,1.4,6.8,3.6,8.7,6.5l0.1,0l1.1,1.5l0,0.1l0.7,1.7l0.4,1.7l0,0.1l0.1,1.7Z" class="g2_789" />
<path d="M539.6,335.7l2.3,1l0,-0.1l2.5,0.8l-0.1,0l2.7,0.8l2.7,0.5l3,0.5l3,0.2l-0.1,0l6.1,0l3.1,-0.2l2.8,-0.5l-0.1,0l2.9,-0.5l2.6,-0.8l2.5,-0.8l0,0.1l2.3,-1l-0.1,0l2.2,-1.1l1.9,-1.2l1.7,-1.3l1.6,-1.4l-0.1,0.1l1.2,-1.5l1.1,-1.6l0,0.1l0.7,-1.6l-0.1,0l0.5,-1.7l0,0.1l0.1,-1.8l0.7,0l-0.1,1.8l0,0.1l-0.4,1.7l0,0.1l-0.8,1.6l0,0.1l-1.1,1.5c-9,11.6,-32.4,12.7,-45.1,7.6l-2.4,-1Z" class="g2_789" />
<path d="M585.6,442.2l-0.8,0.2l0.6,1.6l0.7,-0.2Z" class="g2_789" />
<path d="M585.2,443.4l2.3,-1.9l1.2,-1.1l0.2,1.6l0.7,10.1l0.2,2.7l-1.6,-2.1l-5.9,-8.2l-1,-1.4l1.5,0l0.7,0.4l5.9,8.1l-1.2,1.1L588,452.2l-0.7,-10.1l1.6,-0.1l-0.3,0.6l-2.3,1.9Z" class="g2_789" />
<path d="M582.8,443.1l3,0l0.5,1.4l-0.3,0.2l-0.2,0.1l-3,0Z" class="g2_789" />
<path fill-rule="evenodd" d="M585.7,443.9L588,442l0.8,10.1l-6,-8.2Z" class="g2_789" />
<path d="M565.1,387.1L565,386.7l-0.7,0.3l0.1,0.4Z" class="g2_789" />
<path d="M585.6,442.2l0.1,0.4l-0.8,0.2l-0.1,-0.3Z" class="g2_789" />
<path d="M565.1,387.1l-0.7,0.3l20.4,55.1l0.8,-0.3Z" class="g2_789" />
<path d="M492.8,360.2l-0.7,-0.3l-0.8,1.6l0.8,0.4Z" class="g2_789" />
<path d="M491.7,360.9l2.9,0.2l1.7,0.1l-1.1,1.2l-6.4,7.7l-1.8,2.1l0.4,-2.7l1.4,-10L489,358l1.1,1.1l0.2,0.6l-1.3,10l-1.6,-0.2l0.2,-0.4l6.4,-7.7l1.2,1l-0.7,0.3l-2.9,-0.2Z" class="g2_789" />
<path d="M490.1,359.1l2.2,2.1l-0.7,1.3l-0.3,-0.1L489,360.2Z" class="g2_789" />
<path fill-rule="evenodd" d="M491.7,361.7l2.9,0.2l-6.4,7.7l1.4,-10Z" class="g2_789" />
<path d="M516.2,307.5l0.1,-0.2L515.6,307l-0.1,0.3Z" class="g2_789" />
<path d="M492.8,360.2l-0.1,0.3l-0.6,-0.3l0.1,-0.2Z" class="g2_789" />
<path d="M516.2,307.5l-0.7,-0.2L492.2,360l0.6,0.2Z" class="g2_789" />
<path d="M549.3,442.9l-0.8,0.2l0.6,1.8l0.7,-0.2Z" class="g2_789" />
<path d="M549,444.1l2.3,-1.9l1.2,-0.9l0.1,1.5l0.4,10.1l0.1,2.7l-1.5,-2.2l-5.7,-8.3L545,443.9l1.5,0l0.7,0.4l5.6,8.3l-1.2,0.8L551.5,453L551,442.9l1.6,-0.1l-0.4,0.7l-2.3,1.9Z" class="g2_789" />
<path d="M546.5,443.8l3,0.1l0.4,1.5l-0.2,0.2l-0.2,0l-3,-0.1Z" class="g2_789" />
<path fill-rule="evenodd" d="M549.5,444.8l2.2,-2l0.5,10.1l-5.7,-8.2Z" class="g2_789" />
<path d="M532.5,393l-0.1,-0.4l-0.7,0.3l0.1,0.3Z" class="g2_789" />
<path d="M549.3,442.9l0.1,0.4l-0.8,0.3l-0.1,-0.4Z" class="g2_789" />
<path d="M532.5,393l-0.7,0.2l16.7,50l0.8,-0.3Z" class="g2_789" />
<path d="M639.8,445.5l-0.5,0.5l1.2,1.3l0.5,-0.5Z" class="g2_789" />
<path d="M640,446.7l1.4,-2.6l0.7,-1.4l0.8,1.5l4.4,9l1.2,2.4l-2.3,-1.4l-8.6,-5.3L636.3,448l1.4,-0.6l0.8,0.1l8.5,5.3l-0.8,1.4l-0.3,-0.4l-4.4,-8.9l1.4,-0.7l0,0.7l-1.4,2.5Z" class="g2_789" />
<path d="M637.7,447.4l2.8,-1.1l1,1.1l-0.2,0.3l-0.3,0.1l-2.7,1.1Z" class="g2_789" />
<path fill-rule="evenodd" d="M640.7,447.1l1.4,-2.6l4.4,9L638,448.2Z" class="g2_789" />
<path d="M581.3,380.3l-0.2,-0.2l-0.6,0.4l0.2,0.3Z" class="g2_789" />
<path d="M639.8,445.6l0.2,0.3l-0.5,0.4L639.3,446Z" class="g2_789" />
<path d="M581.3,380.3l-0.6,0.5L639.3,446l0.5,-0.4Z" class="g2_789" />
<path d="M521.7,357.1l-0.8,0l0.1,1.8l0.8,0Z" class="g2_789" />
<path d="M521.1,358.1l2.8,-1.1l1.4,-0.6l-0.4,1.6l-2.4,9.9l-0.6,2.5L521,367.9l-3.2,-9.7l-0.5,-1.4l1.5,0.4l0.5,0.6l3.2,9.6l-1.5,0.5l0,-0.5l2.4,-9.8l1.5,0.4l-0.5,0.5l-2.7,1.1Z" class="g2_789" />
<path d="M518.8,357.2l2.9,0.9l0,1.5l-0.3,0.1l-0.3,-0.1l-2.8,-0.9Z" class="g2_789" />
<path fill-rule="evenodd" d="M521.4,358.9l2.7,-1.1l-2.3,9.8L518.6,358Z" class="g2_789" />
<path d="M518.8,308l0.8,0l0,-0.4l-0.8,0l0,0.4Z" class="g2_789" />
<path d="M520.9,357.5l0.8,0l0,-0.4l-0.8,0l0,0.4Z" class="g2_789" />
<path d="M519.6,308l-0.8,0l2.1,49.1l0.8,0Z" class="g2_789" />
<path d="M460.9,368.6L460.4,368l-1.1,1.4l0.5,0.6Z" class="g2_789" />
<path d="M459.8,369l2.7,1l1.5,0.4l-1.4,0.9l-8.2,5.7l-2.2,1.6l1.1,-2.5l3.9,-9.3l0.7,-1.4l0.7,1.4l0,0.7l-3.9,9.2l-1.4,-0.6l0.3,-0.4l8.2,-5.6l0.8,1.2l-0.6,0.1l-2.7,-1Z" class="g2_789" />
<path d="M458.6,366.8l1.6,2.5l-0.9,1.1L459,370.3l-0.1,-0.2l-1.6,-2.6Z" class="g2_789" />
<path fill-rule="evenodd" d="M459.5,369.7l2.8,1l-8.3,5.7l4,-9.3Z" class="g2_789" />
<path d="M511.8,306.2l0.2,-0.3l-0.6,-0.5l-0.2,0.3Z" class="g2_789" />
<path d="M460.9,368.6l-0.2,0.3l-0.5,-0.5l0.2,-0.3Z" class="g2_789" />
<path d="M511.8,306.2l-0.6,-0.5l-50.8,62.4l0.5,0.5Z" class="g2_789" />
<path d="M502.1,443.2l0.8,0l0,-1.7l-0.8,0l0,1.7Z" class="g2_789" />
<path d="M502.2,442.5l2.9,-1l1.5,-0.6l-0.5,1.6l-2.8,9.7l-0.7,2.6l-0.7,-2.6L499,442.5l-0.4,-1.6l1.4,0.6l0.5,0.5l2.8,9.7l-1.4,0.5l0,-0.5l2.7,-9.7l1.5,0.5l-0.5,0.4l-2.8,1Z" class="g2_789" />
<path d="M500,441.5l2.8,1l0,1.4l-0.3,0.1l-0.3,-0.1l-2.7,-1Z" class="g2_789" />
<path fill-rule="evenodd" d="M502.5,443.2l2.9,-1l-2.8,9.7l-2.8,-9.7Z" class="g2_789" />
<path d="M501.8,401.6l0.7,0l0,-0.4l-0.7,0l0,0.4Z" class="g2_789" />
<path d="M502.1,441.8l0.8,0l0,-0.3l-0.8,0l0,0.3Z" class="g2_789" />
<path d="M502.5,401.6l-0.7,0l0.4,39.9l0.7,0Z" class="g2_789" />
<path d="M460,443.8l-0.8,-0.4l-0.7,1.6l0.7,0.4Z" class="g2_789" />
<path d="M459,444.4l2.9,0.2l1.6,0.2l-1.1,1.2l-6.6,7.6l-1.8,2l0.4,-2.7L456,443l0.2,-1.5l1.1,1.1l0.2,0.7l-1.5,9.9l-1.6,-0.3l0.3,-0.3l6.6,-7.7l1.1,1.1l-0.7,0.2L458.8,446Z" class="g2_789" />
<path d="M457.3,442.6l2.1,2.1l-0.6,1.3l-0.3,0l-2.3,-2.3Z" class="g2_789" />
<path fill-rule="evenodd" d="M458.9,445.2l2.9,0.2l-6.6,7.6l1.6,-9.9Z" class="g2_789" />
<path d="M476.2,408.5l0.1,-0.3l-0.6,-0.3l-0.1,0.3Z" class="g2_789" />
<path d="M460,443.8l-0.1,0.2l-0.7,-0.2l0.1,-0.3Z" class="g2_789" />
<path d="M476.2,408.5l-0.6,-0.3l-16.3,35.3l0.7,0.3Z" class="g2_789" />
<path d="M419,444.9l-0.5,-0.6l-1.3,1.3l0.5,0.5Z" class="g2_789" />
<path d="M417.8,445.1l2.7,1.3l1.4,0.7l-1.5,0.8l-11.3,5.9l1.3,-2.3l5.1,-8.8l0.9,-1.3l0.6,1.4l-0.1,0.7l-5.1,8.7l-1.4,-0.7l0.4,-0.3l8.9,-4.7l0.7,1.4l-0.7,0l-2.6,-1.3Z" class="g2_789" />
<path d="M417,442.8l1.2,2.8l-1.1,1l-0.2,-0.2l-0.2,-0.3l-1.2,-2.7Z" class="g2_789" />
<path fill-rule="evenodd" d="M417.4,445.9l2.7,1.2l-9,4.7l5.2,-8.7Z" class="g2_789" />
<path d="M450.8,414.4l0.3,-0.2l-0.6,-0.6l-0.2,0.3Z" class="g2_789" />
<path d="M419,444.9l-0.3,0.2l-0.5,-0.5l0.3,-0.3Z" class="g2_789" />
<path d="M450.8,414.4l-0.5,-0.5l-31.8,30.4l0.5,0.6Z" class="g2_789" />
<path d="M374.7,448.9l-0.3,-0.6l-1.5,1l0.4,0.5Z" class="g2_789" />
<path d="M373.5,448.9l2.3,1.8l1.3,1l-1.5,0.4l-9.8,2.8l-2.5,0.7l1.7,-1.9l6.8,-7.6l1.1,-1.1l0.3,1.4l-0.2,0.7l-6.8,7.6l-1.2,-1l0.4,-0.3l9.7,-2.8l0.5,1.5L374.9,452l-2.3,-1.8Z" class="g2_789" />
<path d="M373.2,446.4l0.6,3l-1.2,0.8L372.4,450l0,-0.3l-0.7,-2.9Z" class="g2_789" />
<path fill-rule="evenodd" d="M373.1,449.5l2.3,1.9l-9.7,2.7l6.7,-7.5Z" class="g2_789" />
<path d="M420.7,420.3l0.3,-0.2l-0.3,-0.6l-0.3,0.1Z" class="g2_789" />
<path d="M374.7,449l-0.2,0.2l-0.4,-0.7l0.3,-0.2Z" class="g2_789" />
<path d="M420.7,420.3l-0.3,-0.7l-46,28.7l0.3,0.7Z" class="g2_789" />
<path d="M317.2,452.3L317,451.6l-1.7,0.6l0.2,0.7Z" class="g2_789" />
<path d="M316,452l1.9,2.2l1.1,1.2l-1.6,0.2l-10.1,0.7l-2.8,0.2l2.2,-1.6l8.2,-5.8l1.4,-1l0,1.5l-0.4,0.7l-8.2,5.8l-1,-1.2l0.5,-0.1L317.3,454l0.1,1.6l-0.6,-0.3l-1.9,-2.2Z" class="g2_789" />
<path d="M316.3,449.6l0,3l-1.4,0.5l-0.2,-0.3l-0.1,-0.2l0,-3Z" class="g2_789" />
<path fill-rule="evenodd" d="M315.4,452.6l2,2.2l-10.1,0.7l8.1,-5.9Z" class="g2_789" />
<path d="M383.4,427.9l0.4,-0.1l-0.3,-0.7l-0.3,0.1Z" class="g2_789" />
<path d="M317.3,452.3l-0.4,0.1l-0.3,-0.8l0.4,0Z" class="g2_789" />
<path d="M383.4,427.9l-0.2,-0.7L317,451.6l0.3,0.7Z" class="g2_789" />
<path d="M433.3,369.4l-0.5,-0.5l-1.4,1.1l0.5,0.5Z" class="g2_789" />
<path d="M432,369.6l2.6,1.5l1.4,0.7l-1.5,0.6l-9.2,4.2l-2.4,1.1l1.5,-2.2l5.6,-8.4l0.8,-1.4l0.6,1.5l-0.1,0.7l-5.6,8.4l-1.3,-0.8l0.3,-0.3l9.2,-4.1l0.6,1.3l-0.6,-0.1l-2.6,-1.4Z" class="g2_789" />
<path d="M431.4,367.2l1,2.8l-1.1,0.9L431,370.8l-0.1,-0.3l-1,-2.7Z" class="g2_789" />
<path fill-rule="evenodd" d="M431.7,370.2l2.5,1.5l-9.1,4.1l5.6,-8.3Z" class="g2_789" />
<path d="M507.6,306.4l0.2,-0.1l-0.4,-0.6l-0.3,0.2Z" class="g2_789" />
<path d="M433.3,369.4l-0.3,0.2L432.6,369l0.3,-0.1Z" class="g2_789" />
<path d="M507.6,306.4l-0.5,-0.5l-74.2,63l0.4,0.5Z" class="g2_789" />
<path d="M398.5,378l-0.4,-0.5l-1.4,1l0.4,0.5Z" class="g2_789" />
<path d="M397.4,378.1l2.4,1.8l1.2,0.9l-1.5,0.4l-9.5,3.3l-2.5,0.8l1.6,-2l6.3,-7.8l1,-1.2l0.4,1.4l-0.2,0.7l-6.3,7.8l-1.2,-0.9l0.4,-0.3l9.5,-3.2l0.5,1.4l-0.7,-0.1l-2.3,-1.7Z" class="g2_789" />
<path d="M396.8,375.7l0.9,2.8l-1.2,0.9l-0.2,-0.2l-0.1,-0.3l-0.8,-2.8Z" class="g2_789" />
<path fill-rule="evenodd" d="M396.9,378.8l2.4,1.7l-9.5,3.2l6.3,-7.8Z" class="g2_789" />
<path d="M502.1,306.5l0.2,-0.1l-0.4,-0.7l-0.3,0.2Z" class="g2_789" />
<path d="M398.6,378.1l-0.3,0.2l-0.5,-0.6l0.3,-0.2Z" class="g2_789" />
<path d="M502.1,306.5l-0.5,-0.6L398.1,377.5l0.5,0.6Z" class="g2_789" />
<path d="M364.6,383.7l-0.4,-0.5l-1.6,0.9l0.4,0.5Z" class="g2_789" />
<path d="M363.3,383.7l2.3,1.9l1.2,1l-1.6,0.4l-9.8,2.5l-2.6,0.7l1.9,-1.9l6.9,-7.3l1.1,-1.2l0.3,1.5l-0.2,0.7l-6.9,7.3l-1.2,-1l0.4,-0.3l9.8,-2.5l0.3,1.5l-0.6,-0.1L362.4,385Z" class="g2_789" />
<path d="M363,381.3l0.6,3l-1.2,0.7l-0.3,-0.2l0,-0.4l-0.6,-2.9Z" class="g2_789" />
<path fill-rule="evenodd" d="M362.8,384.4l2.3,1.9l-9.8,2.5l7,-7.4Z" class="g2_789" />
<path d="M497.4,305.6l0.3,-0.2l-0.4,-0.6L497,305Z" class="g2_789" />
<path d="M364.6,383.8l-0.3,0.2l-0.4,-0.7l0.3,-0.1Z" class="g2_789" />
<path d="M497.4,305.6L497,305L364.2,383.2l0.4,0.6Z" class="g2_789" />
<path d="M328.4,389.2l-0.3,-0.7l-1.6,0.8l0.4,0.7Z" class="g2_789" />
<path d="M327.2,389.1l3.4,3l-1.6,0.3l-9.9,2.1l-2.5,0.6l1.9,-1.8l7.2,-7.1l1.1,-1.1l0.2,1.6l-0.2,0.6l-7.2,7l-1.1,-1l0.3,-0.2l9.9,-2.1l0.3,1.4l-0.6,-0.2l-2.3,-2Z" class="g2_789" />
<path d="M327,386.7l0.4,2.9l-1.2,0.6L326,390l0,-0.2l-0.5,-3Z" class="g2_789" />
<path fill-rule="evenodd" d="M326.7,389.7l2.2,2l-9.9,2.1l7.2,-7.1Z" class="g2_789" />
<path d="M485.5,305.6l0.2,-0.2l-0.3,-0.6l-0.3,0.2Z" class="g2_789" />
<path d="M328.4,389.2l-0.2,0.2l-0.4,-0.6l0.3,-0.2Z" class="g2_789" />
<path d="M485.5,305.6L485.1,305l-157,83.6l0.3,0.6Z" class="g2_789" />
<path d="M572,268l0.7,0l0,-6.2l-0.7,0l0,6.2Z" class="g2_789" />
<path d="M621.5,345l0.7,0l0,-7.1l-0.7,0l0,7.1Z" class="g2_789" />
<path d="M251.1,603.6l110,0l0,-27.5l-110,0l0,27.5Z" class="g1_789" />
<path d="M251.1,576.5l110.3,0l0,-0.7l-110.3,0l0,0.7Z" class="g2_789" />
<path d="M360.7,604l0.7,0l0,-27.9l-0.7,0l0,27.9Z" class="g2_789" />
<path d="M250.7,604l110.4,0l0,-0.7l-110.4,0l0,0.7Z" class="g2_789" />
<path d="M250.7,603.6l0.7,0l0,-27.8l-0.7,0l0,27.8Z" class="g2_789" />
<path d="M361.1,603.6l110,0l0,-27.5l-110,0l0,27.5Z" class="g1_789" />
<path d="M361.1,576.5l110.3,0l0,-0.7l-110.3,0l0,0.7Z" class="g2_789" />
<path d="M470.7,604l0.7,0l0,-27.9l-0.7,0l0,27.9Z" class="g2_789" />
<path d="M360.7,604l110.4,0l0,-0.7l-110.4,0l0,0.7Z" class="g2_789" />
<path d="M360.7,603.6l0.7,0l0,-27.8l-0.7,0l0,27.8Z" class="g2_789" />
<path d="M471.1,603.6l110.1,0l0,-27.5l-110.1,0l0,27.5Z" class="g1_789" />
<path d="M471.1,576.5l110.4,0l0,-0.7l-110.4,0l0,0.7Z" class="g2_789" />
<path d="M580.8,604l0.7,0l0,-27.9l-0.7,0l0,27.9Z" class="g2_789" />
<path d="M470.7,604l110.5,0l0,-0.7l-110.5,0l0,0.7Z" class="g2_789" />
<path d="M470.7,603.6l0.7,0l0,-27.8l-0.7,0l0,27.8Z" class="g2_789" />
<path d="M581.2,603.6l110,0l0,-27.5l-110,0l0,27.5Z" class="g1_789" />
<path d="M581.2,576.5l110.3,0l0,-0.7l-110.3,0l0,0.7Z" class="g2_789" />
<path d="M690.8,604l0.7,0l0,-27.9l-0.7,0l0,27.9Z" class="g2_789" />
<path d="M580.8,604l110.4,0l0,-0.7l-110.4,0l0,0.7Z" class="g2_789" />
<path d="M580.8,603.6l0.7,0l0,-27.8l-0.7,0l0,27.8Z" class="g2_789" />
<path d="M575.6,646.2l-0.6,0.5l1.4,1.1l0.5,-0.5Z" class="g2_789" />
<path d="M575.9,647.3l1,-2.8l0.4,-1.6l0.9,1.5l5.8,8.3l1.6,2.2l-2.5,-1.1l-9.3,-4.1l-1.4,-0.6l1.3,-0.7l0.8,0l9.2,4l-0.6,1.4l-0.4,-0.3L577,645.2l1.2,-0.8l0.1,0.7l-0.9,2.7Z" class="g2_789" />
<path d="M573.7,648.4l2.6,-1.5l1.1,0.9l-0.1,0.3l-0.3,0.1l-2.5,1.4Z" class="g2_789" />
<path fill-rule="evenodd" d="M576.7,647.5l0.9,-2.7l5.8,8.2l-9.3,-4Z" class="g2_789" />
<path d="M528.9,607.7l-0.3,-0.1l-0.4,0.5l0.3,0.2Z" class="g2_789" />
<path d="M575.6,646.2l0.2,0.1l-0.4,0.6l-0.3,-0.2Z" class="g2_789" />
<path d="M528.9,607.7l-0.4,0.6l46.6,38.4l0.5,-0.5Z" class="g2_789" />
<path d="M634.3,718.9l-0.1,-1.5l0,0.1L634,715.9l0.1,0.1l-0.6,-1.4l-0.7,-1.4l0,0.1l-1,-1.3l-1.1,-1.3l0.1,0l-1.2,-1.1l-1.5,-1.1l0,0.1l-1.6,-1l-1.6,-0.9l0.1,0L623.2,706l-2,-0.6l-2,-0.6l0.1,0l-2.1,-0.3L615,704.2l-4.5,0l0.1,0l-2.2,0.3l-2.1,0.3l-2,0.6l0.1,0l-2,0.6l-1.8,0.7l-1.6,0.9l-1.6,1l0.1,-0.1l-1.5,1.1l-1.3,1.1l-1.1,1.3l0.1,0l-0.9,1.3l0,-0.1l-0.7,1.4l-0.6,1.4l0,-0.1l-0.2,1.6l-0.2,1.5l0,-0.1l0.2,1.5l0.2,1.6l0,-0.1l0.6,1.4l0,-0.1l0.7,1.4l0.9,1.3l-0.1,0l1.1,1.3l0,-0.1l1.3,1.2l1.5,1l-0.1,0l1.6,1l-0.4,0.6l-1.6,-1l-1.4,-1l0,-0.1l-1.3,-1.1l-0.1,0l-1.1,-1.3l-0.9,-1.3l0,-0.1l-0.8,-1.4l-0.5,-1.5l-0.1,0l-0.3,-1.6L590.3,719l0,-0.1l0.2,-1.5l0.3,-1.6l0.1,-0.1l0.5,-1.3l0,-0.1l0.8,-1.5l0.9,-1.3l1.1,-1.3l0.1,-0.1l1.3,-1.1l1.4,-1.1l1.6,-1l1.6,-0.8l0.1,0l1.9,-0.7l0,-0.1l1.9,-0.7l2,-0.5l0.1,0l2.1,-0.4l2.2,-0.3l4.6,0l2.2,0.3l2.1,0.4l2,0.5l0.1,0l1.9,0.7l0,0.1l1.9,0.7c3.6,1.7,5.7,3.4,8,6.7l0.1,0l0.8,1.5l0,0.1l0.5,1.3l0,0.1l0.3,1.6l0.1,1.5Z" class="g2_789" />
<path d="M599,730.3l1.6,0.8l1.8,0.9l0,-0.1l2,0.6l-0.1,0l2,0.5l2.1,0.3l2.2,0.3l-0.1,0l2.2,0.1l2.3,-0.1l2.2,-0.3l2.1,-0.3l-0.1,0l2,-0.5l2,-0.6l0,0.1l1.8,-0.9l-0.1,0l1.6,-0.8l1.6,-1l1.5,-1l-0.1,0l1.2,-1.2l0,0.1l1.1,-1.3l1,-1.3l0.7,-1.4l0,0.1l0.6,-1.4L634,722l0.2,-1.6l0.1,-1.5l0.8,0l-0.1,1.5c-0.3,3.7,-2.5,5.9,-5,8.4l0,0.1l-1.4,1l-0.1,0c-3.3,2.4,-7.2,3.7,-11.2,4.2l-2.2,0.2l-0.1,0c-4.2,0.4,-10.9,-0.5,-14.7,-2.5l-0.1,0L598.6,731Z" class="g2_789" />
<path d="M636.4,789.1l51.4,0l0,-27.5l-51.4,0l0,27.5Z" class="g1_789" />
<path d="M636.4,761.9l51.7,0l0,-0.7l-51.7,0l0,0.7Z" class="g2_789" />
<path d="M687.4,789.4l0.7,0l0,-27.8l-0.7,0l0,27.8Z" class="g2_789" />
<path d="M636.1,789.4l51.7,0l0,-0.7l-51.7,0l0,0.7Z" class="g2_789" />
<path d="M636.1,789.1l0.7,0l0,-27.9l-0.7,0l0,27.9Z" class="g2_789" />
<path d="M585.4,789.1l51.3,0l0,-27.5l-51.3,0l0,27.5Z" class="g1_789" />
<path d="M585.4,761.9l51.7,0l0,-0.7l-51.7,0l0,0.7Z" class="g2_789" />
<path d="M636.3,789.4l0.8,0l0,-27.8l-0.8,0l0,27.8Z" class="g2_789" />
<path d="M585,789.4l51.7,0l0,-0.7l-51.7,0l0,0.7Z" class="g2_789" />
<path d="M585,789.1l0.7,0l0,-27.9l-0.7,0l0,27.9Z" class="g2_789" />
<path d="M534.4,789.1l51.3,0l0,-27.5l-51.3,0l0,27.5Z" class="g1_789" />
<path d="M534.4,761.9l51.7,0l0,-0.7l-51.7,0l0,0.7Z" class="g2_789" />
<path d="M585.4,789.4l0.7,0l0,-27.8l-0.7,0l0,27.8Z" class="g2_789" />
<path d="M534.1,789.4l51.6,0l0,-0.7l-51.6,0l0,0.7Z" class="g2_789" />
<path d="M534.1,789.1l0.7,0l0,-27.9l-0.7,0l0,27.9Z" class="g2_789" />
<path d="M483.4,789.1l51.3,0l0,-27.5l-51.3,0l0,27.5Z" class="g1_789" />
<path d="M483.4,761.9l51.7,0l0,-0.7l-51.7,0l0,0.7Z" class="g2_789" />
<path d="M534.3,789.4l0.8,0l0,-27.8l-0.8,0l0,27.8Z" class="g2_789" />
<path d="M483,789.4l51.7,0l0,-0.7l-51.7,0l0,0.7Z" class="g2_789" />
<path d="M483,789.1l0.7,0l0,-27.9l-0.7,0l0,27.9Z" class="g2_789" />
<path d="M432.3,789.1l51.3,0l0,-27.5l-51.3,0l0,27.5Z" class="g1_789" />
<path d="M432.3,761.9l51.7,0l0,-0.7l-51.7,0l0,0.7Z" class="g2_789" />
<path d="M483.3,789.4l0.7,0l0,-27.8l-0.7,0l0,27.8Z" class="g2_789" />
<path d="M431.9,789.4l51.7,0l0,-0.7l-51.7,0l0,0.7Z" class="g2_789" />
<path d="M431.9,789.1l0.8,0l0,-27.9l-0.8,0l0,27.9Z" class="g2_789" />
<path d="M381.2,789.1l51.5,0l0,-27.5l-51.5,0l0,27.5Z" class="g1_789" />
<path d="M381.2,761.9l51.8,0l0,-0.7l-51.8,0l0,0.7Z" class="g2_789" />
<path d="M432.3,789.4l0.7,0l0,-27.8l-0.7,0l0,27.8Z" class="g2_789" />
<path d="M380.9,789.4l51.8,0l0,-0.7l-51.8,0l0,0.7Z" class="g2_789" />
<path d="M380.9,789.1l0.7,0l0,-27.9l-0.7,0l0,27.9Z" class="g2_789" />
<path d="M330.3,789.1l51.3,0l0,-27.5l-51.3,0l0,27.5Z" class="g1_789" />
<path d="M330.3,761.9l51.7,0l0,-0.7l-51.7,0l0,0.7Z" class="g2_789" />
<path d="M381.2,789.4l0.8,0l0,-27.8l-0.8,0l0,27.8Z" class="g2_789" />
<path d="M329.9,789.4l51.7,0l0,-0.7l-51.7,0l0,0.7Z" class="g2_789" />
<path d="M329.9,789.1l0.7,0l0,-27.9l-0.7,0l0,27.9Z" class="g2_789" />
<path d="M279.2,789.1l51.3,0l0,-27.5l-51.3,0l0,27.5Z" class="g1_789" />
<path d="M279.2,761.9l51.7,0l0,-0.7l-51.7,0l0,0.7Z" class="g2_789" />
<path d="M330.2,789.4l0.7,0l0,-27.8l-0.7,0l0,27.8Z" class="g2_789" />
<path d="M278.9,789.4l51.7,0l0,-0.7l-51.7,0l0,0.7Z" class="g2_789" />
<path d="M278.9,789.1l0.7,0l0,-27.9l-0.7,0l0,27.9Z" class="g2_789" />
<path d="M315.6,728.6l92.6,0l0,-27.5l-92.6,0l0,27.5Z" class="g1_789" />
<path d="M315.6,701.4l93,0l0,-0.7l-93,0l0,0.7Z" class="g2_789" />
<path d="M407.8,728.9l0.8,0l0,-27.8l-0.8,0l0,27.8Z" class="g2_789" />
<path d="M315.2,728.9l93,0l0,-0.7l-93,0l0,0.7Z" class="g2_789" />
<path d="M315.2,728.6l0.8,0l0,-27.9l-0.8,0l0,27.9Z" class="g2_789" />
<path d="M347.3,722l92.6,0l0,-27.5l-92.6,0l0,27.5Z" class="g1_789" />
<path d="M347.3,694.8l93,0l0,-0.7l-93,0l0,0.7Z" class="g2_789" />
<path d="M439.5,722.3l0.8,0l0,-27.8l-0.8,0l0,27.8Z" class="g2_789" />
<path d="M347,722.3l92.9,0l0,-0.7l-92.9,0l0,0.7Z" class="g2_789" />
<path d="M347,722l0.7,0l0,-27.9l-0.7,0l0,27.9Z" class="g2_789" />
<path d="M379,715.3l92.6,0l0,-27.5l-92.6,0l0,27.5Z" class="g1_789" />
<path d="M379,688.1l93,0l0,-0.7l-93,0l0,0.7Z" class="g2_789" />
<path d="M471.3,715.6l0.7,0l0,-27.8l-0.7,0l0,27.8Z" class="g2_789" />
<path d="M378.7,715.6l92.9,0l0,-0.7l-92.9,0l0,0.7Z" class="g2_789" />
<path d="M378.7,715.3l0.7,0l0,-27.9l-0.7,0l0,27.9Z" class="g2_789" />
<path d="M410.8,708.7l92.5,0l0,-27.5l-92.5,0l0,27.5Z" class="g1_789" />
<path d="M410.8,681.5l92.9,0l0,-0.7l-92.9,0l0,0.7Z" class="g2_789" />
<path d="M503,709l0.7,0l0,-27.8l-0.7,0l0,27.8Z" class="g2_789" />
<path d="M410.4,709l92.9,0l0,-0.7l-92.9,0l0,0.7Z" class="g2_789" />
<path d="M410.4,708.7l0.7,0l0,-27.9l-0.7,0l0,27.9Z" class="g2_789" />
<path d="M442.6,702l92.6,0l0,-27.5l-92.6,0l0,27.5Z" class="g1_789" />
<path d="M442.6,674.9l92.9,0l0,-0.8l-92.9,0l0,0.8Z" class="g2_789" />
<path d="M534.8,702.4l0.7,0l0,-27.9l-0.7,0l0,27.9Z" class="g2_789" />
<path d="M442.2,702.4l93,0l0,-0.8l-93,0l0,0.8Z" class="g2_789" />
<path d="M442.2,702l0.7,0l0,-27.9l-0.7,0l0,27.9Z" class="g2_789" />
<path d="M474.3,695.4l92.6,0l0,-27.5l-92.6,0l0,27.5Z" class="g1_789" />
<path d="M474.3,668.2l92.9,0l0,-0.7l-92.9,0l0,0.7Z" class="g2_789" />
<path d="M566.5,695.7l0.7,0l0,-27.8l-0.7,0l0,27.8Z" class="g2_789" />
<path d="M473.9,695.7l93,0l0,-0.7l-93,0l0,0.7Z" class="g2_789" />
<path d="M473.9,695.4l0.7,0l0,-27.9l-0.7,0l0,27.9Z" class="g2_789" />
<path d="M506,688.8l92.6,0l0,-27.5l-92.6,0l0,27.5Z" class="g1_789" />
<path d="M506,661.6l93,0l0,-0.7l-93,0l0,0.7Z" class="g2_789" />
<path d="M598.2,689.1l0.8,0l0,-27.8l-0.8,0l0,27.8Z" class="g2_789" />
<path d="M505.6,689.1l93,0l0,-0.7l-93,0l0,0.7Z" class="g2_789" />
<path d="M505.6,688.8l0.8,0l0,-27.9l-0.8,0l0,27.9Z" class="g2_789" />
<path d="M537.7,682.1l92.6,0l0,-27.5l-92.6,0l0,27.5Z" class="g1_789" />
<path d="M537.7,655l93,0l0,-0.8l-93,0l0,0.8Z" class="g2_789" />
<path d="M629.9,682.5l0.8,0l0,-27.9l-0.8,0l0,27.9Z" class="g2_789" />
<path d="M537.4,682.5l92.9,0l0,-0.8l-92.9,0l0,0.8Z" class="g2_789" />
<path d="M537.4,682.1l0.7,0l0,-27.9l-0.7,0l0,27.9Z" class="g2_789" />
<path d="M582.4,682.6l0.7,0l0,-26.4l-0.7,0l0,26.4Z" class="g2_789" />
<path d="M605.5,682.6l0.8,0l0,-26.9l-0.8,0l0,26.9Z" class="g2_789" />
<path d="M558.2,682.4l0.8,0l0,-28l-0.8,0l0,28Z" class="g2_789" />
<path d="M471.2,602.7l109,0l0,-26.7l-109,0l0,26.7Z" class="g1_789" />
<path d="M471.2,576.4l109.4,0l0,-0.7l-109.4,0l0,0.7Z" class="g2_789" />
<path d="M579.9,603.1l0.7,0l0,-27.1l-0.7,0l0,27.1Z" class="g2_789" />
<path d="M470.8,603.1l109.4,0l0,-0.8l-109.4,0l0,0.8Z" class="g2_789" />
<path d="M470.8,602.7l0.7,0l0,-27l-0.7,0l0,27Z" class="g2_789" />
<path d="M523.8,603.7l0.7,0l0,-27.4l-0.7,0l0,27.4Z" class="g2_789" />
<path d="M551.1,603.5l0.7,0l0,-27.4l-0.7,0l0,27.4Z" class="g2_789" />
<path d="M495.4,603l0.7,0l0,-27.4l-0.7,0l0,27.4Z" class="g2_789" />
<path d="M597.1,625.8l-0.2,-1.7l-0.4,-1.7l0.1,0.1l-0.8,-1.6l-1,-1.6l0,0.1l-1.3,-1.5l0.1,0l-1.5,-1.4l-1.8,-1.3l0,0.1l-1.9,-1.2L586.3,613l0.1,0L584,612l-2.5,-0.9l-2.6,-0.7l-2.8,-0.5l0.1,0l-2.9,-0.4l-3,-0.3l-3.1,-0.1l-3.1,0.1l0.1,0l-3,0.3l-2.9,0.4l-2.8,0.5l-2.7,0.7l0.1,0l-2.4,0.9l-2.3,1l-2.2,1.1l-2,1.2l0.1,-0.1l-1.7,1.3l-1.5,1.4l-1.3,1.5l0.1,-0.1l-1,1.6l-0.8,1.6l0,-0.1l-0.5,1.7l0,-0.1l0,1.7l0,1.8l0,-0.1l0.5,1.6l0,-0.1l0.8,1.7l1,1.5l-0.1,0l1.3,1.5l0,-0.1l1.5,1.4l1.7,1.4l-0.1,0l2,1.1l2.2,1.1l-0.3,0.7l-0.1,0l-2.2,-1.1l-1.9,-1.2l0,-0.1l-1.8,-1.4c-2.7,-2.2,-5.5,-5.9,-5.3,-9.7l0.1,-1.7l0,-0.1c1.3,-5.5,6.1,-9.4,11.1,-11.6l0.1,0l2.3,-1l0,-0.1l2.5,-0.8l2.6,-0.7l2.9,-0.6l2.9,-0.3l3,-0.3l3.1,-0.1l3.1,0.1c3.9,0.3,7.6,0.7,11.4,1.9l0.1,0l2.5,0.8l0,0.1l2.4,1c3.6,1.9,6.2,3.4,8.7,6.6l0.1,0l1,1.6l0,0.1l0.7,1.6l0.5,1.7l0,0.1l0.2,1.7Z" class="g2_789" />
<path d="M548.2,638.5l2.3,1l0,-0.1l2.4,0.9l-0.1,0l2.7,0.6l2.8,0.7l2.9,0.3l3,0.3l-0.1,0l3.1,0.1l3.1,-0.1l3,-0.3l2.9,-0.3l-0.1,0l2.8,-0.7l2.6,-0.6l2.5,-0.9l0,0.1l2.4,-1l-0.1,0l2.1,-1.1l1.9,-1.1l1.8,-1.4l1.5,-1.4l-0.1,0.1l1.3,-1.5l1,-1.5l0,0.1l0.8,-1.7l-0.1,0l0.4,-1.6l0,0.1l0.2,-1.8l0,0.1l0.7,-0.1l0,0.1c-1.6,18,-35.1,20.1,-47.6,14.3l-2.3,-0.9Z" class="g2_789" />
<path d="M594.1,745l-0.7,0.2l0.6,1.6l0.7,-0.2Z" class="g2_789" />
<path d="M593.8,746.2l2.2,-2l1.2,-1.2l0.2,1.8l0.8,10.1l0.1,2.5l-1.5,-2l-6,-8.1l-1,-1.4l1.5,0l0.7,0.4l6,8.1l-1.2,1L596.7,755l-0.9,-10.1l1.6,-0.1l-0.3,0.5l-2.2,2Z" class="g2_789" />
<path d="M591.3,745.9l3.1,0l0.5,1.4l-0.3,0.1l-0.2,0.1l-3.1,0Z" class="g2_789" />
<path fill-rule="evenodd" d="M594.4,746.7l2.2,-1.9l0.8,10.1l-6.1,-8.2Z" class="g2_789" />
<path d="M573.7,690l0,-0.4l-0.8,0.3l0.1,0.3Z" class="g2_789" />
<path d="M594.1,745l0.1,0.3l-0.8,0.3l0,-0.4Z" class="g2_789" />
<path d="M573.7,690l-0.7,0.2l20.4,55l0.7,-0.2Z" class="g2_789" />
<path d="M501.3,663l-0.7,-0.3l-0.6,1.6l0.7,0.4Z" class="g2_789" />
<path d="M500.3,663.7l3,0.1l1.6,0.1l-1.1,1.3l-6.5,7.8l-1.7,2l0.3,-2.6l1.4,-10l0.2,-1.5l1.1,0.9l0.3,0.8l-1.4,10l-1.6,-0.2l0.2,-0.4l6.5,-7.8l1.2,1l-0.6,0.3l-3,-0.2Z" class="g2_789" />
<path d="M498.6,661.8l2.2,2.1l-0.6,1.4l-0.3,-0.1L499.8,665l-2.2,-2Z" class="g2_789" />
<path fill-rule="evenodd" d="M500.3,664.5l3,0.2l-6.6,7.8l1.4,-10Z" class="g2_789" />
<path d="M524.7,610.4l0.1,-0.3l-0.6,-0.2l-0.1,0.2Z" class="g2_789" />
<path d="M501.3,663l-0.1,0.3L500.6,663l0.1,-0.2Z" class="g2_789" />
<path d="M524.7,610.4l-0.6,-0.3l-23.4,52.7l0.6,0.2Z" class="g2_789" />
<path d="M557.8,745.8l-0.7,0.2l0.5,1.6l0.7,-0.2Z" class="g2_789" />
<path d="M557.5,746.9l2.3,-1.8l1.2,-0.9l0.1,1.5l0.5,10.1l0,2.7l-1.5,-2.2l-5.7,-8.4l-0.9,-1.3l1.5,0l0.7,0.5l5.7,8.3l-1.3,0.9L560,755.9l-0.5,-10.1l1.6,-0.1l-0.4,0.7l-2.3,1.8Z" class="g2_789" />
<path d="M555,746.6l3,0.1l0.4,1.5l-0.2,0.2l-0.2,0l-3,-0.1Z" class="g2_789" />
<path fill-rule="evenodd" d="M558,747.5l2.3,-1.8l0.4,10.1L555,747.4Z" class="g2_789" />
<path d="M541,695.7l-0.1,-0.3l-0.7,0.3l0.1,0.3Z" class="g2_789" />
<path d="M557.8,745.8l0.1,0.4l-0.8,0.2l0,-0.3Z" class="g2_789" />
<path d="M541,695.7l-0.7,0.3l16.8,50.1l0.7,-0.3Z" class="g2_789" />
<path d="M648.5,748.3l-0.6,0.5l1.2,1.3l0.5,-0.5Z" class="g2_789" />
<path d="M648.6,749.5l1.4,-2.6l0.7,-1.4l0.8,1.5l4.4,9.1l1.2,2.4l-2.3,-1.4l-8.5,-5.3L645,750.9l1.3,-0.5l0.8,0l8.5,5.3l-0.8,1.4l-0.3,-0.4l-4.4,-9.1l1.4,-0.6l0,0.6l-1.4,2.6Z" class="g2_789" />
<path d="M646.3,750.4l2.7,-1.2l1.1,1l-0.2,0.3l-0.3,0.1l-2.7,1.2Z" class="g2_789" />
<path fill-rule="evenodd" d="M649.4,749.8l1.3,-2.5l4.4,9L646.6,751Z" class="g2_789" />
<path d="M589.8,683.2l-0.2,-0.3l-0.5,0.5l0.1,0.2Z" class="g2_789" />
<path d="M648.5,748.4l0.1,0.2l-0.5,0.5l-0.2,-0.3Z" class="g2_789" />
<path d="M589.8,683.2l-0.6,0.4l58.7,65.2l0.6,-0.4Z" class="g2_789" />
<path d="M529.6,661.7l0.7,0l0,-1.8l-0.7,0l0,1.8Z" class="g2_789" />
<path d="M529.6,661l2.8,-1.2l1.4,-0.7l-0.4,1.7l-2.3,9.8l-0.6,2.6l-0.9,-2.6l-3.2,-9.5l-0.5,-1.5l1.5,0.5l0.5,0.5l3.2,9.6l-1.5,0.4l0,-0.4l2.3,-9.8l1.5,0.4l-0.5,0.5l-2.7,1.2Z" class="g2_789" />
<path d="M527.4,660.1l2.8,0.9l0,1.5l-0.3,0.1l-3,-1Z" class="g2_789" />
<path fill-rule="evenodd" d="M529.9,661.7l2.8,-1.1l-2.3,9.8l-3.2,-9.6Z" class="g2_789" />
<path d="M527.4,610.8l0.7,0l0,-0.4l-0.7,0l0,0.4Z" class="g2_789" />
<path d="M529.6,660.3l0.7,0l0,-0.4l-0.7,0l0,0.4Z" class="g2_789" />
<path d="M528.1,610.8l-0.7,0l2.2,49.1l0.7,0Z" class="g2_789" />
<path d="M469.4,671.5l-0.5,-0.6l-1.1,1.4l0.5,0.5Z" class="g2_789" />
<path d="M468.3,671.8l2.8,0.9l1.5,0.5l-1.4,0.9l-8.3,5.8l-2.2,1.5l1.1,-2.4l4,-9.3l0.6,-1.5l0.7,1.4l0,0.8l-3.9,9.1L461.8,679l0.3,-0.4l8.2,-5.8l0.9,1.3l-0.7,0.1l-2.7,-0.9Z" class="g2_789" />
<path d="M467.1,669.6l1.6,2.6l-0.9,1.1l-0.3,-0.1l-0.1,-0.3l-1.5,-2.5Z" class="g2_789" />
<path fill-rule="evenodd" d="M468,672.6l2.8,0.9l-8.3,5.8l4,-9.3Z" class="g2_789" />
<path d="M520.4,608.9l0.2,-0.2L520,608.2l-0.2,0.3Z" class="g2_789" />
<path d="M469.4,671.5l-0.2,0.2l-0.5,-0.4l0.2,-0.3Z" class="g2_789" />
<path d="M520.4,608.9l-0.6,-0.4L468.9,671l0.5,0.5Z" class="g2_789" />
<path d="M510.8,746l0.7,0l0,-1.8l-0.7,0l0,1.8Z" class="g2_789" />
<path d="M510.9,745.2l2.7,-1l1.5,-0.6l-0.5,1.6L512,755l-0.8,2.4L510.5,755l-2.9,-9.7l-0.5,-1.4l1.4,0.4l0.5,0.6l3,9.6l-1.5,0.5l0,-0.5l2.7,-9.7l1.4,0.4l-0.4,0.5l-2.8,1Z" class="g2_789" />
<path d="M508.5,744.3l2.8,1l0.1,1.4l-0.3,0.1l-0.2,-0.1L508,745.8Z" class="g2_789" />
<path fill-rule="evenodd" d="M511.1,746l2.8,-1l-2.7,9.7l-2.9,-9.6Z" class="g2_789" />
<path d="M510.3,704.5l0.7,0l0,-0.4l-0.7,0l0,0.4Z" class="g2_789" />
<path d="M510.8,744.6l0.7,0l0,-0.4l-0.7,0l0,0.4Z" class="g2_789" />
<path d="M511,704.5l-0.7,0l0.5,39.7l0.7,0Z" class="g2_789" />
<path d="M468.5,746.5l-0.7,-0.3l-0.8,1.6l0.8,0.4Z" class="g2_789" />
<path d="M467.5,747.2l2.9,0.2l1.6,0.1l-1.1,1.3l-6.5,7.6l-1.8,2l0.4,-2.6l1.5,-10l0.3,-1.6l1.1,1.1l0.1,0.8l-1.4,10L463,755.8l0.3,-0.4l6.5,-7.6l1.1,1l-0.7,0.3l-2.9,-0.3Z" class="g2_789" />
<path d="M465.9,745.3l2.1,2.1l-0.7,1.4L467,748.7l-2.2,-2.3Z" class="g2_789" />
<path fill-rule="evenodd" d="M467.4,748l2.9,0.3l-6.5,7.6l1.5,-10Z" class="g2_789" />
<path d="M484.8,711.3l0.1,-0.2l-0.6,-0.3l-0.1,0.3Z" class="g2_789" />
<path d="M468.5,746.5l-0.1,0.3l-0.6,-0.3l0.1,-0.2Z" class="g2_789" />
<path d="M484.8,711.3l-0.6,-0.2l-16.3,35.2l0.6,0.2Z" class="g2_789" />
<path d="M427.5,747.7L427,747.2l-1.3,1.2l0.6,0.5Z" class="g2_789" />
<path d="M426.3,747.9l2.7,1.3l1.4,0.7l-1.5,0.8l-8.9,4.6l-2.3,1.2l1.3,-2.3l5,-8.7l0.9,-1.3l0.6,1.4l-0.1,0.7l-5,8.7L419,754.2l0.4,-0.2l8.9,-4.7l0.6,1.4l-0.6,0l-2.7,-1.3Z" class="g2_789" />
<path d="M425.5,745.6l1.2,2.8l-1.1,1l-0.2,-0.2l-0.2,-0.3L424,746.2Z" class="g2_789" />
<path fill-rule="evenodd" d="M426,748.6l2.6,1.3l-8.9,4.7l5.1,-8.7Z" class="g2_789" />
<path d="M459.3,717.2l0.3,-0.3l-0.5,-0.5l-0.3,0.3Z" class="g2_789" />
<path d="M427.5,747.7l-0.2,0.3l-0.6,-0.5l0.3,-0.3Z" class="g2_789" />
<path d="M459.3,717.2l-0.5,-0.5L427,747.2l0.5,0.5Z" class="g2_789" />
<path d="M383.3,751.7l-0.4,-0.6l-1.5,0.9l0.4,0.6Z" class="g2_789" />
<path d="M382.1,751.7l2.3,1.8l1.2,1l-1.5,0.4l-12.2,3.5l1.7,-2l6.7,-7.4l1.1,-1.2l0.3,1.5l-0.2,0.7l-6.7,7.4l-1.2,-1l0.4,-0.2l9.6,-2.8l0.5,1.5l-0.7,-0.1L381.1,753Z" class="g2_789" />
<path d="M381.7,749.3l0.6,2.8l-1.2,0.9l-0.2,-0.2l0,-0.3l-0.7,-2.9Z" class="g2_789" />
<path fill-rule="evenodd" d="M381.6,752.3l2.3,1.8l-9.6,2.8l6.7,-7.4Z" class="g2_789" />
<path d="M429.3,723.2l0.3,-0.2l-0.4,-0.7l-0.3,0.2Z" class="g2_789" />
<path d="M383.3,751.8l-0.3,0.1l-0.4,-0.6l0.3,-0.2Z" class="g2_789" />
<path d="M429.3,723.2l-0.4,-0.7l-46,28.6l0.4,0.7Z" class="g2_789" />
<path d="M325.7,755.2l-0.2,-0.8l-1.6,0.6l0.1,0.7Z" class="g2_789" />
<path d="M324.5,754.8l1.9,2.3l1.1,1.2l-1.6,0.2l-10.1,0.7l-2.7,0.2l2.1,-1.6l8.2,-6l1.4,-1l0,1.6l-0.4,0.6l-8.1,6l-1.1,-1.2l0.5,-0.2l10.1,-0.7l0.1,1.6l-0.6,-0.3l-1.9,-2.3Z" class="g2_789" />
<path d="M324.8,752.4l0,2.9l-1.4,0.6l-0.2,-0.3l-0.1,-0.3l0,-2.9Z" class="g2_789" />
<path fill-rule="evenodd" d="M323.9,755.3l2,2.3l-10.1,0.8l8.1,-6Z" class="g2_789" />
<path d="M392.1,730.8l0.3,-0.1l-0.3,-0.8l-0.3,0.1Z" class="g2_789" />
<path d="M325.8,755.2l-0.4,0l-0.3,-0.7l0.4,-0.1Z" class="g2_789" />
<path d="M392.1,730.8L391.8,730l-66.3,24.4l0.3,0.8Z" class="g2_789" />
<path d="M441.8,672.2l-0.5,-0.6l-1.4,1.2l0.6,0.6Z" class="g2_789" />
<path d="M440.5,672.5l2.6,1.4l1.4,0.8l-1.5,0.6l-9.1,4.1l-2.5,1.1l1.5,-2.2l5.6,-8.4l0.9,-1.4l0.5,1.5l-0.1,0.7l-5.6,8.5l-1.3,-0.9l0.3,-0.2l9.2,-4.2l0.6,1.4l-0.6,-0.1l-2.6,-1.4Z" class="g2_789" />
<path d="M439.9,670l1,2.8l-1.1,1l-0.3,-0.1l0,-0.3l-1.1,-2.9Z" class="g2_789" />
<path fill-rule="evenodd" d="M440.2,673.1l2.5,1.5l-9.1,4.1l5.6,-8.4Z" class="g2_789" />
<path d="M516.1,609.2l0.3,-0.2l-0.5,-0.5l-0.3,0.2Z" class="g2_789" />
<path d="M441.8,672.2l-0.2,0.2l-0.5,-0.6l0.3,-0.2Z" class="g2_789" />
<path d="M516.1,609.2l-0.5,-0.5l-74.2,62.9l0.4,0.6Z" class="g2_789" />
<path d="M407.1,680.9l-0.4,-0.5l-1.4,1l0.3,0.5Z" class="g2_789" />
<path d="M405.9,681l2.4,1.6l1.3,1L408,684l-9.5,3.2l-2.5,0.9l1.7,-2.1l6.4,-7.8l1,-1.2l0.3,1.5l-0.1,0.7l-6.5,7.7L397.7,686l0.3,-0.2l9.5,-3.3L408,684l-0.6,-0.1L405,682.3Z" class="g2_789" />
<path d="M405.4,678.5l0.8,3l-1.2,0.8l-0.2,-0.2l-0.1,-0.3L404,678.9Z" class="g2_789" />
<path fill-rule="evenodd" d="M405.4,681.6l2.4,1.7l-9.5,3.2l6.4,-7.8Z" class="g2_789" />
<path d="M510.6,609.3l0.3,-0.2l-0.5,-0.6l-0.3,0.2Z" class="g2_789" />
<path d="M407.2,681l-0.3,0.2l-0.5,-0.7l0.3,-0.2Z" class="g2_789" />
<path d="M510.6,609.3l-0.5,-0.6L406.7,680.4l0.5,0.6Z" class="g2_789" />
<path d="M373.1,686.6L372.7,686l-1.5,0.9l0.3,0.6Z" class="g2_789" />
<path d="M371.8,686.6l2.3,1.8l1.4,1l-1.8,0.4l-9.7,2.6l-2.5,0.6l1.8,-1.8l6.9,-7.4l1.1,-1.2l0.2,1.6l-0.2,0.6l-6.8,7.4l-1.2,-1l0.4,-0.3l9.8,-2.6l0.2,1.5l-0.5,-0.1l-2.3,-1.8Z" class="g2_789" />
<path d="M371.5,684.2l0.6,2.9l-1.2,0.8l-0.3,-0.2l0,-0.4l-0.5,-2.9Z" class="g2_789" />
<path fill-rule="evenodd" d="M371.3,687.2l2.3,1.9l-9.7,2.5l6.9,-7.3Z" class="g2_789" />
<path d="M505.9,608.4l0.3,-0.2l-0.4,-0.6l-0.3,0.1Z" class="g2_789" />
<path d="M373.1,686.7l-0.3,0.2l-0.4,-0.7l0.3,-0.2Z" class="g2_789" />
<path d="M505.9,608.4l-0.4,-0.7L372.7,686l0.4,0.7Z" class="g2_789" />
<path d="M337,692.1l-0.4,-0.8l-1.6,0.9l0.4,0.7Z" class="g2_789" />
<path d="M335.8,692l2.2,1.9l1.2,0.9l-1.7,0.4l-9.8,2.1l-2.6,0.7l2,-2l7.2,-6.9l1.1,-1.1l0.2,1.5l-0.2,0.7l-7.2,6.9L327.1,696l0.3,-0.2l9.8,-2.1l0.3,1.5L336.9,695l-2.2,-1.9Z" class="g2_789" />
<path d="M335.6,689.5l0.4,3l-1.3,0.6l-0.2,-0.2l0,-0.3l-0.4,-2.9Z" class="g2_789" />
<path fill-rule="evenodd" d="M335.2,692.5l2.2,2l-9.8,2.1l7.3,-7Z" class="g2_789" />
<path d="M494,608.4l0.3,-0.2l-0.4,-0.6l-0.3,0.1Z" class="g2_789" />
<path d="M337,692.1l-0.3,0.2l-0.4,-0.7l0.3,-0.2Z" class="g2_789" />
<path d="M494,608.4l-0.4,-0.7l-157,83.7l0.4,0.7Z" class="g2_789" />
<path d="M580.5,564.9l0.8,0l0,-0.3l-0.8,0l0,0.3Z" class="g2_789" />
<path d="M580.5,570.8l0.8,0l0,-5.9l-0.8,0l0,5.9Z" class="g2_789" />
<path d="M630,641l0.8,0l0,-0.3l-0.8,0l0,0.3Z" class="g2_789" />
<path d="M630,647.8l0.8,0l0,-6.8l-0.8,0l0,6.8Z" class="g2_789" />
</svg>