<?xml version="1.0" encoding="UTF-8" standalone="no"?>
<!DOCTYPE svg PUBLIC "-//W3C//DTD SVG 1.1//EN"
"http://www.w3.org/Graphics/SVG/1.1/DTD/svg11.dtd">
<svg viewBox="0 0 935 1210" version="1.1" xmlns="http://www.w3.org/2000/svg" xmlns:xlink="http://www.w3.org/1999/xlink">
<defs>
<style type="text/css"><![CDATA[
.g1_535{
fill: #FFFFFF;
}
.g2_535{
}
]]></style>
</defs>
<path d="M68.9,1149.3l686.3,0l0,-21.2l-686.3,0l0,21.2Z" class="g1_535" />
<path d="M771.3,1149.3l83.7,0l0,-21.2l-83.7,0l0,21.2Z" class="g1_535" />
<path d="M69.2,186l0.7,0l0,-60.3l-0.7,0l0,60.3Z" class="g2_535" />
<path d="M220.9,186.8l0.8,0l0,-61.9l-0.8,0l0,61.9Z" class="g2_535" />
<path d="M393.1,186.8l0.7,0l0,-61.9l-0.7,0l0,61.9Z" class="g2_535" />
<path d="M430.9,186.8l0.8,0l0,-61.9l-0.8,0l0,61.9Z" class="g2_535" />
<path d="M504.3,186.8l0.7,0l0,-61.9l-0.7,0l0,61.9Z" class="g2_535" />
<path d="M575.7,186.8l0.7,0l0,-61.9l-0.7,0l0,61.9Z" class="g2_535" />
<path d="M852.8,186l0.7,0l0,-60.3l-0.7,0l0,60.3Z" class="g2_535" />
<path d="M69.2,125.7l784.4,0l0,-0.8l-784.4,0l0,0.8Z" class="g2_535" />
<path d="M69.2,163.8l784.4,0l0,-0.7l-784.4,0l0,0.7Z" class="g2_535" />
<path d="M69.2,186.7l784.4,0l0,-0.7L69.2,186l0,0.7Z" class="g2_535" />
<path d="M70.5,289.9l0.7,0l0,-48.1l-0.7,0l0,48.1Z" class="g2_535" />
<path d="M141,290.7l0.7,0l0,-49.7l-0.7,0l0,49.7Z" class="g2_535" />
<path d="M307.1,290.7l0.7,0l0,-49.7l-0.7,0l0,49.7Z" class="g2_535" />
<path d="M491.3,290.7l0.8,0l0,-49.7l-0.8,0l0,49.7Z" class="g2_535" />
<path d="M668.7,290.7l0.7,0l0,-49.7l-0.7,0l0,49.7Z" class="g2_535" />
<path d="M851.5,289.9l0.7,0l0,-48.1l-0.7,0l0,48.1Z" class="g2_535" />
<path d="M70.5,241.7l781.8,0l0,-0.7L70.5,241l0,0.7Z" class="g2_535" />
<path d="M70.5,266.2l781.8,0l0,-0.7l-781.8,0l0,0.7Z" class="g2_535" />
<path d="M70.5,290.7l781.8,0l0,-0.8l-781.8,0l0,0.8Z" class="g2_535" />
</svg>