<?xml version="1.0" encoding="UTF-8" standalone="no"?>
<!DOCTYPE svg PUBLIC "-//W3C//DTD SVG 1.1//EN"
"http://www.w3.org/Graphics/SVG/1.1/DTD/svg11.dtd">
<svg viewBox="0 0 935 1210" version="1.1" xmlns="http://www.w3.org/2000/svg" xmlns:xlink="http://www.w3.org/1999/xlink">
<defs>
<style type="text/css"><![CDATA[
.g1_754{
fill: #FFFFFF;
}
.g2_754{
}
]]></style>
</defs>
<path d="M165,1149.3l687.5,0l0,-21.2l-687.5,0l0,21.2Z" class="g1_754" />
<path d="M68.8,1149.3l82.5,0l0,-21.2l-82.5,0l0,21.2Z" class="g1_754" />
<path d="M69.6,202.9l0.7,0l0,-77.2l-0.7,0l0,77.2Z" class="g2_754" />
<path d="M219.6,203.6l0.8,0l0,-78.7l-0.8,0l0,78.7Z" class="g2_754" />
<path d="M390,203.6l0.7,0l0,-78.7l-0.7,0l0,78.7Z" class="g2_754" />
<path d="M427.8,203.6l0.7,0l0,-78.7l-0.7,0l0,78.7Z" class="g2_754" />
<path d="M501.1,203.6l0.8,0l0,-78.7l-0.8,0l0,78.7Z" class="g2_754" />
<path d="M572.6,203.6l0.7,0l0,-78.7l-0.7,0l0,78.7Z" class="g2_754" />
<path d="M850.8,202.9l0.8,0l0,-77.2l-0.8,0l0,77.2Z" class="g2_754" />
<path d="M69.5,125.7l782.1,0l0,-0.8l-782.1,0l0,0.8Z" class="g2_754" />
<path d="M69.5,163.8l782.1,0l0,-0.7l-782.1,0l0,0.7Z" class="g2_754" />
<path d="M69.5,203.6l782.1,0l0,-0.7l-782.1,0l0,0.7Z" class="g2_754" />
<path d="M69.1,306.7l0.8,0l0,-48.1l-0.8,0l0,48.1Z" class="g2_754" />
<path d="M139.2,307.4l0.7,0l0,-49.5l-0.7,0l0,49.5Z" class="g2_754" />
<path d="M320.8,307.4l0.8,0l0,-49.5l-0.8,0l0,49.5Z" class="g2_754" />
<path d="M497.6,307.4l0.7,0l0,-49.5l-0.7,0l0,49.5Z" class="g2_754" />
<path d="M676,307.4l0.7,0l0,-49.5l-0.7,0l0,49.5Z" class="g2_754" />
<path d="M851.3,306.7l0.7,0l0,-48.1l-0.7,0l0,48.1Z" class="g2_754" />
<path d="M69.1,258.6l782.9,0l0,-0.7l-782.9,0l0,0.7Z" class="g2_754" />
<path d="M69.1,283L852,283l0,-0.8l-782.9,0l0,0.8Z" class="g2_754" />
<path d="M69.1,307.4l782.9,0l0,-0.7l-782.9,0l0,0.7Z" class="g2_754" />
</svg>