<?xml version="1.0" encoding="UTF-8" standalone="no"?>
<!DOCTYPE svg PUBLIC "-//W3C//DTD SVG 1.1//EN"
"http://www.w3.org/Graphics/SVG/1.1/DTD/svg11.dtd">
<svg viewBox="0 0 935 1210" version="1.1" xmlns="http://www.w3.org/2000/svg" xmlns:xlink="http://www.w3.org/1999/xlink">
<defs>
<style type="text/css"><![CDATA[
.g1_197{
fill: #FFFFFF;
}
.g2_197{
}
]]></style>
</defs>
<path d="M68.9,1149.3l686.3,0l0,-21.2l-686.3,0l0,21.2Z" class="g1_197" />
<path d="M771.3,1149.3l83.7,0l0,-21.2l-83.7,0l0,21.2Z" class="g1_197" />
<path d="M69.9,231.8l0.8,0l0,-106.1l-0.8,0l0,106.1Z" class="g2_197" />
<path d="M255.2,232.7l0.7,0l0,-107.8l-0.7,0l0,107.8Z" class="g2_197" />
<path d="M312.5,232.7l0.7,0l0,-107.8l-0.7,0l0,107.8Z" class="g2_197" />
<path d="M386.9,232.7l0.8,0l0,-107.8l-0.8,0l0,107.8Z" class="g2_197" />
<path d="M454.6,232.7l0.7,0l0,-107.8l-0.7,0l0,107.8Z" class="g2_197" />
<path d="M850.8,231.8l0.7,0l0,-106.1l-0.7,0l0,106.1Z" class="g2_197" />
<path d="M69.9,125.7l781.6,0l0,-0.8l-781.6,0l0,0.8Z" class="g2_197" />
<path d="M69.9,179.1l781.6,0l0,-0.7l-781.6,0l0,0.7Z" class="g2_197" />
<path d="M69.9,232.6l781.6,0l0,-0.8l-781.6,0l0,0.8Z" class="g2_197" />
<path d="M71.6,352.6l0.7,0l0,-64.9l-0.7,0l0,64.9Z" class="g2_197" />
<path d="M165.9,353.3l0.8,0l0,-66.5l-0.8,0l0,66.5Z" class="g2_197" />
<path d="M381.5,353.3l0.7,0l0,-66.5l-0.7,0l0,66.5Z" class="g2_197" />
<path d="M613.6,353.3l0.7,0l0,-66.5l-0.7,0l0,66.5Z" class="g2_197" />
<path d="M850.4,352.6l0.7,0l0,-64.9l-0.7,0l0,64.9Z" class="g2_197" />
<path d="M71.6,287.6l779.5,0l0,-0.8l-779.5,0l0,0.8Z" class="g2_197" />
<path d="M71.6,312l779.5,0l0,-0.7l-779.5,0l0,0.7Z" class="g2_197" />
<path d="M71.6,353.3l779.5,0l0,-0.7l-779.5,0l0,0.7Z" class="g2_197" />
</svg>