<?xml version="1.0" encoding="UTF-8" standalone="no"?>
<!DOCTYPE svg PUBLIC "-//W3C//DTD SVG 1.1//EN"
"http://www.w3.org/Graphics/SVG/1.1/DTD/svg11.dtd">
<svg viewBox="0 0 935 1210" version="1.1" xmlns="http://www.w3.org/2000/svg" xmlns:xlink="http://www.w3.org/1999/xlink">
<defs>
<style type="text/css"><![CDATA[
.g1_453{
fill: #FFFFFF;
}
.g2_453{
}
]]></style>
</defs>
<path d="M68.9,1149.3l686.3,0l0,-21.2l-686.3,0l0,21.2Z" class="g1_453" />
<path d="M771.3,1149.3l83.7,0l0,-21.2l-83.7,0l0,21.2Z" class="g1_453" />
<path d="M69.6,238l0.7,0l0,-106.2l-0.7,0l0,106.2Z" class="g2_453" />
<path d="M202.6,238.7l0.7,0l0,-107.7l-0.7,0l0,107.7Z" class="g2_453" />
<path d="M369.4,238.7l0.8,0l0,-107.7l-0.8,0l0,107.7Z" class="g2_453" />
<path d="M455.4,238.7l0.7,0l0,-107.7l-0.7,0l0,107.7Z" class="g2_453" />
<path d="M553.8,238.7l0.7,0l0,-107.7l-0.7,0l0,107.7Z" class="g2_453" />
<path d="M852.4,238l0.7,0l0,-106.2l-0.7,0l0,106.2Z" class="g2_453" />
<path d="M69.6,131.7l783.5,0l0,-0.7L69.6,131l0,0.7Z" class="g2_453" />
<path d="M69.6,169.9l783.5,0l0,-0.7l-783.5,0l0,0.7Z" class="g2_453" />
<path d="M69.6,192.9l783.5,0l0,-0.8l-783.5,0l0,0.8Z" class="g2_453" />
<path d="M69.6,215.8l783.5,0l0,-0.8L69.6,215l0,0.8Z" class="g2_453" />
<path d="M69.6,238.7l783.5,0l0,-0.7L69.6,238l0,0.7Z" class="g2_453" />
<path d="M69.4,542l0.7,0l0,-159.7l-0.7,0l0,159.7Z" class="g2_453" />
<path d="M448.3,542.8l0.8,0l0,-161.2l-0.8,0l0,161.2Z" class="g2_453" />
<path d="M852.7,542l0.7,0l0,-159.7l-0.7,0l0,159.7Z" class="g2_453" />
<path d="M69.3,382.3l784.1,0l0,-0.7l-784.1,0l0,0.7Z" class="g2_453" />
<path d="M69.3,405.3l784.1,0l0,-0.8l-784.1,0l0,0.8Z" class="g2_453" />
<path d="M69.3,428.2l784.1,0l0,-0.8l-784.1,0l0,0.8Z" class="g2_453" />
<path d="M69.3,451.1l784.1,0l0,-0.7l-784.1,0l0,0.7Z" class="g2_453" />
<path d="M69.3,474l784.1,0l0,-0.7l-784.1,0l0,0.7Z" class="g2_453" />
<path d="M69.3,496.9l784.1,0l0,-0.7l-784.1,0l0,0.7Z" class="g2_453" />
<path d="M69.3,519.8l784.1,0l0,-0.7l-784.1,0l0,0.7Z" class="g2_453" />
<path d="M69.3,542.8l784.1,0l0,-0.8L69.3,542l0,0.8Z" class="g2_453" />
</svg>