<?xml version="1.0" encoding="UTF-8" standalone="no"?>
<!DOCTYPE svg PUBLIC "-//W3C//DTD SVG 1.1//EN"
"http://www.w3.org/Graphics/SVG/1.1/DTD/svg11.dtd">
<svg viewBox="0 0 935 1210" version="1.1" xmlns="http://www.w3.org/2000/svg" xmlns:xlink="http://www.w3.org/1999/xlink">
<defs>
<style type="text/css"><![CDATA[
.g1_237{
fill: #FFFFFF;
}
.g2_237{
}
]]></style>
</defs>
<path d="M68.9,1149.3l686.3,0l0,-21.2l-686.3,0l0,21.2Z" class="g1_237" />
<path d="M771.3,1149.3l83.7,0l0,-21.2l-83.7,0l0,21.2Z" class="g1_237" />
<path d="M69.2,253.3l0.7,0L69.9,147l-0.7,0l0,106.3Z" class="g2_237" />
<path d="M219.9,254l0.7,0l0,-107.7l-0.7,0l0,107.7Z" class="g2_237" />
<path d="M390.8,254l0.7,0l0,-107.7l-0.7,0l0,107.7Z" class="g2_237" />
<path d="M428.6,254l0.8,0l0,-107.7l-0.8,0l0,107.7Z" class="g2_237" />
<path d="M502,254l0.7,0l0,-107.7l-0.7,0L502,254Z" class="g2_237" />
<path d="M573.4,254l0.7,0l0,-107.7l-0.7,0l0,107.7Z" class="g2_237" />
<path d="M852.8,253.3l0.7,0l0,-106.3l-0.7,0l0,106.3Z" class="g2_237" />
<path d="M69.2,147l784.3,0l0,-0.7l-784.3,0l0,0.7Z" class="g2_237" />
<path d="M69.2,185.3l784.3,0l0,-0.8l-784.3,0l0,0.8Z" class="g2_237" />
<path d="M69.2,208.2l784.3,0l0,-0.8l-784.3,0l0,0.8Z" class="g2_237" />
<path d="M69.2,231.1l784.3,0l0,-0.7l-784.3,0l0,0.7Z" class="g2_237" />
<path d="M69.2,254l784.3,0l0,-0.7l-784.3,0l0,0.7Z" class="g2_237" />
<path d="M71,357.1l0.8,0l0,-48.1L71,309l0,48.1Z" class="g2_237" />
<path d="M136.9,357.9l0.7,0l0,-49.6l-0.7,0l0,49.6Z" class="g2_237" />
<path d="M308.1,357.9l0.7,0l0,-49.6l-0.7,0l0,49.6Z" class="g2_237" />
<path d="M486.1,357.9l0.7,0l0,-49.6l-0.7,0l0,49.6Z" class="g2_237" />
<path d="M664.8,357.9l0.7,0l0,-49.6l-0.7,0l0,49.6Z" class="g2_237" />
<path d="M850.9,357.1l0.8,0l0,-48.1l-0.8,0l0,48.1Z" class="g2_237" />
<path d="M71,309l780.7,0l0,-0.7L71,308.3l0,0.7Z" class="g2_237" />
<path d="M71,333.4l780.7,0l0,-0.7L71,332.7l0,0.7Z" class="g2_237" />
<path d="M71,357.9l780.7,0l0,-0.8L71,357.1l0,0.8Z" class="g2_237" />
</svg>