<?xml version="1.0" encoding="UTF-8" standalone="no"?>
<!DOCTYPE svg PUBLIC "-//W3C//DTD SVG 1.1//EN"
"http://www.w3.org/Graphics/SVG/1.1/DTD/svg11.dtd">
<svg viewBox="0 0 935 1210" version="1.1" xmlns="http://www.w3.org/2000/svg" xmlns:xlink="http://www.w3.org/1999/xlink">
<defs>
<style type="text/css"><![CDATA[
.g1_1348{
fill: #FFFFFF;
}
.g2_1348{
}
]]></style>
</defs>
<path d="M165,1149.3l687.5,0l0,-21.2l-687.5,0l0,21.2Z" class="g1_1348" />
<path d="M68.8,1149.3l82.5,0l0,-21.2l-82.5,0l0,21.2Z" class="g1_1348" />
<path d="M68.6,479.3l0.7,0l0,-353.6l-0.7,0l0,353.6Z" class="g2_1348" />
<path d="M286.5,480.2l0.8,0l0,-355.3l-0.8,0l0,355.3Z" class="g2_1348" />
<path d="M332.1,480.2l0.7,0l0,-355.3l-0.7,0l0,355.3Z" class="g2_1348" />
<path d="M406.6,480.2l0.8,0l0,-355.3l-0.8,0l0,355.3Z" class="g2_1348" />
<path d="M495.1,480.2l0.7,0l0,-355.3l-0.7,0l0,355.3Z" class="g2_1348" />
<path d="M852,479.3l0.7,0l0,-353.6l-0.7,0l0,353.6Z" class="g2_1348" />
<path d="M68.6,125.7l784.1,0l0,-0.8l-784.1,0l0,0.8Z" class="g2_1348" />
<path d="M68.6,176.1l784.1,0l0,-0.7l-784.1,0l0,0.7Z" class="g2_1348" />
<path d="M68.6,212.8l784.1,0l0,-0.8L68.6,212l0,0.8Z" class="g2_1348" />
<path d="M68.6,266.2l784.1,0l0,-0.7l-784.1,0l0,0.7Z" class="g2_1348" />
<path d="M68.6,319.6l784.1,0l0,-0.7l-784.1,0l0,0.7Z" class="g2_1348" />
<path d="M68.6,373.2l784.1,0l0,-0.8l-784.1,0l0,0.8Z" class="g2_1348" />
<path d="M68.6,426.6l784.1,0l0,-0.7l-784.1,0l0,0.7Z" class="g2_1348" />
<path d="M68.6,480.2l784.1,0l0,-0.8l-784.1,0l0,0.8Z" class="g2_1348" />
<path d="M70.5,632.1l0.7,0l0,-96.9l-0.7,0l0,96.9Z" class="g2_1348" />
<path d="M180.3,632.9l0.7,0l0,-98.6l-0.7,0l0,98.6Z" class="g2_1348" />
<path d="M338.7,632.9l0.7,0l0,-98.6l-0.7,0l0,98.6Z" class="g2_1348" />
<path d="M509,632.9l0.8,0l0,-98.6l-0.8,0l0,98.6Z" class="g2_1348" />
<path d="M678.2,632.9l0.8,0l0,-98.6l-0.8,0l0,98.6Z" class="g2_1348" />
<path d="M849.9,632.1l0.8,0l0,-96.9l-0.8,0l0,96.9Z" class="g2_1348" />
<path d="M70.5,535.2l780.2,0l0,-0.8l-780.2,0l0,0.8Z" class="g2_1348" />
<path d="M70.5,559.5l780.2,0l0,-0.7l-780.2,0l0,0.7Z" class="g2_1348" />
<path d="M70.5,584l780.2,0l0,-0.7l-780.2,0l0,0.7Z" class="g2_1348" />
<path d="M70.5,608.5l780.2,0l0,-0.8l-780.2,0l0,0.8Z" class="g2_1348" />
<path d="M70.5,632.9l780.2,0l0,-0.8l-780.2,0l0,0.8Z" class="g2_1348" />
</svg>