<?xml version="1.0" encoding="UTF-8" standalone="no"?>
<!DOCTYPE svg PUBLIC "-//W3C//DTD SVG 1.1//EN"
"http://www.w3.org/Graphics/SVG/1.1/DTD/svg11.dtd">
<svg viewBox="0 0 935 1210" version="1.1" xmlns="http://www.w3.org/2000/svg" xmlns:xlink="http://www.w3.org/1999/xlink">
<defs>
<style type="text/css"><![CDATA[
.g1_623{
fill: #FFFFFF;
}
.g2_623{
}
]]></style>
</defs>
<path d="M68.9,1149.3l686.3,0l0,-21.2l-686.3,0l0,21.2Z" class="g1_623" />
<path d="M771.3,1149.3l83.7,0l0,-21.2l-83.7,0l0,21.2Z" class="g1_623" />
<path d="M70.3,470.2l0.7,0L71,134.8l-0.7,0l0,335.4Z" class="g2_623" />
<path d="M219.4,471l0.7,0l0,-336.9l-0.7,0l0,336.9Z" class="g2_623" />
<path d="M388.5,471l0.7,0l0,-336.9l-0.7,0l0,336.9Z" class="g2_623" />
<path d="M426.3,471l0.8,0l0,-336.9l-0.8,0l0,336.9Z" class="g2_623" />
<path d="M499.7,471l0.7,0l0,-336.9l-0.7,0l0,336.9Z" class="g2_623" />
<path d="M571.1,471l0.7,0l0,-336.9l-0.7,0l0,336.9Z" class="g2_623" />
<path d="M851.7,470.2l0.7,0l0,-335.4l-0.7,0l0,335.4Z" class="g2_623" />
<path d="M70.3,134.8l782.1,0l0,-0.7l-782.1,0l0,0.7Z" class="g2_623" />
<path d="M70.3,173l782.1,0l0,-0.8l-782.1,0l0,0.8Z" class="g2_623" />
<path d="M70.3,195.9l782.1,0l0,-0.7l-782.1,0l0,0.7Z" class="g2_623" />
<path d="M70.3,218.8l782.1,0l0,-0.7l-782.1,0l0,0.7Z" class="g2_623" />
<path d="M70.3,241.7l782.1,0l0,-0.7L70.3,241l0,0.7Z" class="g2_623" />
<path d="M70.3,264.6l782.1,0l0,-0.7l-782.1,0l0,0.7Z" class="g2_623" />
<path d="M70.3,287.6l782.1,0l0,-0.8l-782.1,0l0,0.8Z" class="g2_623" />
<path d="M70.3,310.5l782.1,0l0,-0.8l-782.1,0l0,0.8Z" class="g2_623" />
<path d="M70.3,333.4l782.1,0l0,-0.7l-782.1,0l0,0.7Z" class="g2_623" />
<path d="M70.3,356.3l782.1,0l0,-0.7l-782.1,0l0,0.7Z" class="g2_623" />
<path d="M70.3,379.2l782.1,0l0,-0.7l-782.1,0l0,0.7Z" class="g2_623" />
<path d="M70.3,402.2l782.1,0l0,-0.7l-782.1,0l0,0.7Z" class="g2_623" />
<path d="M70.3,425.2l782.1,0l0,-0.8l-782.1,0l0,0.8Z" class="g2_623" />
<path d="M70.3,448.1l782.1,0l0,-0.8l-782.1,0l0,0.8Z" class="g2_623" />
<path d="M70.3,471l782.1,0l0,-0.8l-782.1,0l0,0.8Z" class="g2_623" />
<path d="M69.9,571l0.7,0l0,-48.1l-0.7,0l0,48.1Z" class="g2_623" />
<path d="M145.7,571.8l0.7,0l0,-49.7l-0.7,0l0,49.7Z" class="g2_623" />
<path d="M316.7,571.8l0.7,0l0,-49.7l-0.7,0l0,49.7Z" class="g2_623" />
<path d="M495.8,571.8l0.8,0l0,-49.7l-0.8,0l0,49.7Z" class="g2_623" />
<path d="M667.1,571.8l0.8,0l0,-49.7l-0.8,0l0,49.7Z" class="g2_623" />
<path d="M852.1,571l0.8,0l0,-48.1l-0.8,0l0,48.1Z" class="g2_623" />
<path d="M69.9,522.9l783,0l0,-0.8l-783,0l0,0.8Z" class="g2_623" />
<path d="M69.9,547.3l783,0l0,-0.7l-783,0l0,0.7Z" class="g2_623" />
<path d="M69.9,571.8l783,0l0,-0.7l-783,0l0,0.7Z" class="g2_623" />
</svg>