<?xml version="1.0" encoding="UTF-8" standalone="no"?>
<!DOCTYPE svg PUBLIC "-//W3C//DTD SVG 1.1//EN"
"http://www.w3.org/Graphics/SVG/1.1/DTD/svg11.dtd">
<svg viewBox="0 0 935 1210" version="1.1" xmlns="http://www.w3.org/2000/svg" xmlns:xlink="http://www.w3.org/1999/xlink">
<defs>
<style type="text/css"><![CDATA[
.g1_1877{
fill: #FFFFFF;
}
.g2_1877{
fill: #0860A8;
}
.g3_1877{
}
]]></style>
</defs>
<path d="M68.9,1149.3l686.3,0l0,-21.2l-686.3,0l0,21.2Z" class="g1_1877" />
<path d="M771.3,1149.3l83.7,0l0,-21.2l-83.7,0l0,21.2Z" class="g1_1877" />
<path d="M544.9,941.2l262.7,0l0,-0.8l-262.7,0l0,0.8Z" class="g2_1877" />
<path d="M70.3,958.1l738.9,0l0,-0.8l-738.9,0l0,0.8Z" class="g2_1877" />
<path d="M69.9,386.2l0.8,0l0,-260.5l-0.8,0l0,260.5Z" class="g3_1877" />
<path d="M287.9,386.9l0.8,0l0,-262l-0.8,0l0,262Z" class="g3_1877" />
<path d="M332.6,386.9l0.7,0l0,-262l-0.7,0l0,262Z" class="g3_1877" />
<path d="M407.1,386.9l0.7,0l0,-262l-0.7,0l0,262Z" class="g3_1877" />
<path d="M490.4,386.9l0.8,0l0,-262l-0.8,0l0,262Z" class="g3_1877" />
<path d="M854.9,386.2l0.7,0l0,-260.5l-0.7,0l0,260.5Z" class="g3_1877" />
<path d="M69.9,125.7l785.7,0l0,-0.8l-785.7,0l0,0.8Z" class="g3_1877" />
<path d="M69.9,176.1l785.7,0l0,-0.7l-785.7,0l0,0.7Z" class="g3_1877" />
<path d="M69.9,246.3l785.7,0l0,-0.7l-785.7,0l0,0.7Z" class="g3_1877" />
<path d="M69.9,316.6l785.7,0l0,-0.7l-785.7,0l0,0.7Z" class="g3_1877" />
<path d="M69.9,386.9l785.7,0l0,-0.7l-785.7,0l0,0.7Z" class="g3_1877" />
<path d="M71.6,490.1l0.7,0l0,-48.2l-0.7,0l0,48.2Z" class="g3_1877" />
<path d="M180.9,490.8l0.7,0l0,-49.6l-0.7,0l0,49.6Z" class="g3_1877" />
<path d="M345.1,490.8l0.8,0l0,-49.6l-0.8,0l0,49.6Z" class="g3_1877" />
<path d="M522.3,490.8l0.8,0l0,-49.6l-0.8,0l0,49.6Z" class="g3_1877" />
<path d="M681.5,490.8l0.7,0l0,-49.6l-0.7,0l0,49.6Z" class="g3_1877" />
<path d="M850.4,490.1l0.7,0l0,-48.2l-0.7,0l0,48.2Z" class="g3_1877" />
<path d="M71.6,441.9l779.6,0l0,-0.7l-779.6,0l0,0.7Z" class="g3_1877" />
<path d="M71.6,466.4l779.6,0l0,-0.7l-779.6,0l0,0.7Z" class="g3_1877" />
<path d="M71.6,490.8l779.6,0l0,-0.8L71.6,490l0,0.8Z" class="g3_1877" />
</svg>