<?xml version="1.0" encoding="UTF-8" standalone="no"?>
<!DOCTYPE svg PUBLIC "-//W3C//DTD SVG 1.1//EN"
"http://www.w3.org/Graphics/SVG/1.1/DTD/svg11.dtd">
<svg viewBox="0 0 935 1210" version="1.1" xmlns="http://www.w3.org/2000/svg" xmlns:xlink="http://www.w3.org/1999/xlink">
<defs>
<style type="text/css"><![CDATA[
.g1_145{
fill: #FFFFFF;
}
.g2_145{
}
]]></style>
</defs>
<path d="M68.9,1149.3l686.3,0l0,-21.2l-686.3,0l0,21.2Z" class="g1_145" />
<path d="M771.3,1149.3l83.7,0l0,-21.2l-83.7,0l0,21.2Z" class="g1_145" />
<path d="M69.8,335.8l0.7,0l0,-210.1l-0.7,0l0,210.1Z" class="g2_145" />
<path d="M394.8,336.5l0.7,0l0,-211.6l-0.7,0l0,211.6Z" class="g2_145" />
<path d="M432.7,336.5l0.7,0l0,-211.6l-0.7,0l0,211.6Z" class="g2_145" />
<path d="M506,336.5l0.7,0l0,-211.6l-0.7,0l0,211.6Z" class="g2_145" />
<path d="M577.3,336.5l0.8,0l0,-211.6l-0.8,0l0,211.6Z" class="g2_145" />
<path d="M852.2,335.8l0.8,0l0,-210.1l-0.8,0l0,210.1Z" class="g2_145" />
<path d="M69.8,125.7l783.2,0l0,-0.8l-783.2,0l0,0.8Z" class="g2_145" />
<path d="M69.8,179.1l783.2,0l0,-0.7l-783.2,0l0,0.7Z" class="g2_145" />
<path d="M69.8,223.4l783.2,0l0,-0.7l-783.2,0l0,0.7Z" class="g2_145" />
<path d="M69.8,279.9l783.2,0l0,-0.7l-783.2,0l0,0.7Z" class="g2_145" />
<path d="M69.8,336.5l783.2,0l0,-0.7l-783.2,0l0,0.7Z" class="g2_145" />
<path d="M69.3,464.1l0.7,0l0,-72.6l-0.7,0l0,72.6Z" class="g2_145" />
<path d="M136.1,464.8l0.8,0l0,-74l-0.8,0l0,74Z" class="g2_145" />
<path d="M311.6,464.8l0.7,0l0,-74l-0.7,0l0,74Z" class="g2_145" />
<path d="M489,464.8l0.8,0l0,-74l-0.8,0l0,74Z" class="g2_145" />
<path d="M668.2,464.8l0.8,0l0,-74l-0.8,0l0,74Z" class="g2_145" />
<path d="M852.7,464.1l0.7,0l0,-72.6l-0.7,0l0,72.6Z" class="g2_145" />
<path d="M69.3,391.5l784.1,0l0,-0.7l-784.1,0l0,0.7Z" class="g2_145" />
<path d="M69.3,416l784.1,0l0,-0.7l-784.1,0l0,0.7Z" class="g2_145" />
<path d="M69.3,440.4l784.1,0l0,-0.8l-784.1,0l0,0.8Z" class="g2_145" />
<path d="M69.3,464.8l784.1,0l0,-0.7l-784.1,0l0,0.7Z" class="g2_145" />
</svg>