<?xml version="1.0" encoding="UTF-8" standalone="no"?>
<!DOCTYPE svg PUBLIC "-//W3C//DTD SVG 1.1//EN"
"http://www.w3.org/Graphics/SVG/1.1/DTD/svg11.dtd">
<svg viewBox="0 0 935 1210" version="1.1" xmlns="http://www.w3.org/2000/svg" xmlns:xlink="http://www.w3.org/1999/xlink">
<defs>
<clipPath id="c0_1648"><path d="M179.2,186.4l0,0l0.1,0Z" /></clipPath>
<clipPath id="c1_1648"><path d="M281.1,186.4l0,0l0.1,0Z" /></clipPath>
<clipPath id="c2_1648"><path d="M295.4,186.4l0,0l0.1,0Z" /></clipPath>
<clipPath id="c3_1648"><path d="M309.8,186.4l0,0l0.1,0Z" /></clipPath>
<clipPath id="c4_1648"><path d="M324.2,186.4l0,0l0.1,0Z" /></clipPath>
<clipPath id="c5_1648"><path d="M338.5,186.4l0,0l0.1,0Z" /></clipPath>
<clipPath id="c6_1648"><path d="M352.9,186.4l0,0l0.1,0Z" /></clipPath>
<clipPath id="c7_1648"><path d="M367.2,186.4l0,0l0.1,0Z" /></clipPath>
<clipPath id="c8_1648"><path d="M381.6,186.4l0,0l0.1,0Z" /></clipPath>
<clipPath id="c9_1648"><path d="M395.9,186.4l0,0l0.1,0Z" /></clipPath>
<clipPath id="c10_1648"><path d="M410.3,186.4l0,0l0.1,0Z" /></clipPath>
<clipPath id="c11_1648"><path d="M424.7,186.4l0,0l0.1,0Z" /></clipPath>
<clipPath id="c12_1648"><path d="M439,186.4l0,0l0.1,0Z" /></clipPath>
<clipPath id="c13_1648"><path d="M453.4,186.4l0,0l0.1,0Z" /></clipPath>
<clipPath id="c14_1648"><path d="M467.7,186.4l0,0l0.1,0Z" /></clipPath>
<clipPath id="c15_1648"><path d="M482.1,186.4l0,0l0.1,0Z" /></clipPath>
<clipPath id="c16_1648"><path d="M496.4,186.4l0,0l0.1,0Z" /></clipPath>
<clipPath id="c17_1648"><path d="M510.8,186.4l0,0l0.1,0Z" /></clipPath>
<clipPath id="c18_1648"><path d="M525.2,186.4l0,0Z" /></clipPath>
<clipPath id="c19_1648"><path d="M539.5,186.4l0,0l0.1,0Z" /></clipPath>
<clipPath id="c20_1648"><path d="M553.8,186.4l0,0l0.1,0Z" /></clipPath>
<clipPath id="c21_1648"><path d="M568.2,186.4l0,0Z" /></clipPath>
<clipPath id="c22_1648"><path d="M582.5,186.4l0,0l0.1,0Z" /></clipPath>
<clipPath id="c23_1648"><path d="M596.9,186.4l0,0l0.1,0Z" /></clipPath>
<clipPath id="c24_1648"><path d="M611.2,186.4l0,0l0.1,0Z" /></clipPath>
<clipPath id="c25_1648"><path d="M625.6,186.4l0,0l0.1,0Z" /></clipPath>
<clipPath id="c26_1648"><path d="M639.9,186.4l0,0l0.1,0Z" /></clipPath>
<clipPath id="c27_1648"><path d="M654.3,186.4l0,0l0.1,0Z" /></clipPath>
<clipPath id="c28_1648"><path d="M668.6,186.4l0,0l0.1,0Z" /></clipPath>
<clipPath id="c29_1648"><path d="M683,186.4l0,0l0.1,0Z" /></clipPath>
<clipPath id="c30_1648"><path d="M697.4,186.4l0,0l0.1,0Z" /></clipPath>
<clipPath id="c31_1648"><path d="M711.7,186.4l0,0l0.1,0Z" /></clipPath>
<clipPath id="c32_1648"><path d="M726.1,186.4l0,0l0.1,0Z" /></clipPath>
<clipPath id="c33_1648"><path d="M740.4,186.4l0,0l0.1,0Z" /></clipPath>
<style type="text/css"><![CDATA[
.g1_1648{
fill: #FFFFFF;
}
.g2_1648{
}
.g3_1648{
fill: #FFFF9A;
}
.g4_1648{
fill: #CCFFCC;
}
.g5_1648{
fill: #CCFFFF;
}
.g6_1648{
fill: none;
stroke: #C0C0C0;
stroke-width: 0.15277778;
stroke-linecap: butt;
stroke-linejoin: miter;
}
.g7_1648{
fill: #C0C0C0;
}
.g8_1648{
fill: none;
stroke: #000000;
stroke-width: 0.15277778;
stroke-linecap: butt;
stroke-linejoin: miter;
}
.g9_1648{
fill: #FF0000;
stroke: #FF0000;
stroke-width: 0.71824455;
stroke-linecap: round;
stroke-linejoin: round;
}
]]></style>
</defs>
<path d="M165,1149.3l687.5,0l0,-21.2l-687.5,0l0,21.2Z" class="g1_1648" />
<path d="M68.8,1149.3l82.5,0l0,-21.2l-82.5,0l0,21.2Z" class="g1_1648" />
<path d="M83.3,356.4l0.8,0l0,-192.5l-0.8,0l0,192.5Z" class="g2_1648" />
<path d="M837.1,356.4l0.7,0l0,-192.5l-0.7,0l0,192.5Z" class="g2_1648" />
<path d="M83.3,163.8l754.5,0l0,-0.7l-754.5,0l0,0.7Z" class="g2_1648" />
<path d="M83.3,357.1l754.5,0l0,-0.7l-754.5,0l0,0.7Z" class="g2_1648" />
<path d="M179.2,344.6l562.7,0l0,-158.2l-562.7,0l0,158.2Z" class="g1_1648" />
<path d="M281.1,213.8l15.1,0l0,-26.7l-15.1,0l0,26.7Z" class="g3_1648" />
<path d="M295.4,213.8l115.6,0l0,-26.7l-115.6,0l0,26.7Z" class="g4_1648" />
<path d="M410.3,213.8l330.8,0l0,-26.7l-330.8,0l0,26.7Z" class="g5_1648" />
<path d="M295.4,226.7l115.6,0l0,-13.8l-115.6,0l0,13.8Z" class="g4_1648" />
<path d="M625.6,238.9l115.5,0l0,13.6l-115.5,0Z" class="g4_1648" />
<path d="M281.1,278.4l345.3,0l0,-13.7l-345.3,0l0,13.7Z" class="g3_1648" />
<path d="M625.6,264.7l115.5,0l0,13.7l-115.5,0Z" class="g4_1648" />
<path d="M281.1,304.2l445.7,0l0,-13.6l-445.7,0l0,13.6Z" class="g3_1648" />
<path d="M726.1,304.2l15,0l0,-13.6l-15,0l0,13.6Z" class="g4_1648" />
<path d="M281.1,330.1l15.1,0l0,-13.7l-15.1,0l0,13.7Z" class="g3_1648" />
<path d="M295.4,330.1l115.6,0l0,-13.7l-115.6,0l0,13.7Z" class="g4_1648" />
<path d="M410.3,330.1l330.8,0l0,-13.7l-330.8,0l0,13.7Z" class="g5_1648" />
<g clip-path="url(#c0_1648)">
<path d="M179.2,186.4l0,-0.8" class="g6_1648" />
</g>
<g clip-path="url(#c1_1648)">
<path d="M281.1,186.4l0,-0.8" class="g6_1648" />
</g>
<g clip-path="url(#c2_1648)">
<path d="M295.4,186.4l0,-0.8" class="g6_1648" />
</g>
<g clip-path="url(#c3_1648)">
<path d="M309.8,186.4l0,-0.8" class="g6_1648" />
</g>
<g clip-path="url(#c4_1648)">
<path d="M324.2,186.4l0,-0.8" class="g6_1648" />
</g>
<g clip-path="url(#c5_1648)">
<path d="M338.5,186.4l0,-0.8" class="g6_1648" />
</g>
<g clip-path="url(#c6_1648)">
<path d="M352.9,186.4l0,-0.8" class="g6_1648" />
</g>
<g clip-path="url(#c7_1648)">
<path d="M367.2,186.4l0,-0.8" class="g6_1648" />
</g>
<g clip-path="url(#c8_1648)">
<path d="M381.6,186.4l0,-0.8" class="g6_1648" />
</g>
<g clip-path="url(#c9_1648)">
<path d="M395.9,186.4l0,-0.8" class="g6_1648" />
</g>
<g clip-path="url(#c10_1648)">
<path d="M410.3,186.4l0,-0.8" class="g6_1648" />
</g>
<g clip-path="url(#c11_1648)">
<path d="M424.7,186.4l0,-0.8" class="g6_1648" />
</g>
<g clip-path="url(#c12_1648)">
<path d="M439,186.4l0,-0.8" class="g6_1648" />
</g>
<g clip-path="url(#c13_1648)">
<path d="M453.4,186.4l0,-0.8" class="g6_1648" />
</g>
<g clip-path="url(#c14_1648)">
<path d="M467.7,186.4l0,-0.8" class="g6_1648" />
</g>
<g clip-path="url(#c15_1648)">
<path d="M482.1,186.4l0,-0.8" class="g6_1648" />
</g>
<g clip-path="url(#c16_1648)">
<path d="M496.4,186.4l0,-0.8" class="g6_1648" />
</g>
<g clip-path="url(#c17_1648)">
<path d="M510.8,186.4l0,-0.8" class="g6_1648" />
</g>
<g clip-path="url(#c18_1648)">
<path d="M525.2,186.4l0,-0.8" class="g6_1648" />
</g>
<g clip-path="url(#c19_1648)">
<path d="M539.5,186.4l0,-0.8" class="g6_1648" />
</g>
<g clip-path="url(#c20_1648)">
<path d="M553.8,186.4l0,-0.8" class="g6_1648" />
</g>
<g clip-path="url(#c21_1648)">
<path d="M568.2,186.4l0,-0.8" class="g6_1648" />
</g>
<g clip-path="url(#c22_1648)">
<path d="M582.5,186.4l0,-0.8" class="g6_1648" />
</g>
<g clip-path="url(#c23_1648)">
<path d="M596.9,186.4l0,-0.8" class="g6_1648" />
</g>
<g clip-path="url(#c24_1648)">
<path d="M611.2,186.4l0,-0.8" class="g6_1648" />
</g>
<g clip-path="url(#c25_1648)">
<path d="M625.6,186.4l0,-0.8" class="g6_1648" />
</g>
<g clip-path="url(#c26_1648)">
<path d="M639.9,186.4l0,-0.8" class="g6_1648" />
</g>
<g clip-path="url(#c27_1648)">
<path d="M654.3,186.4l0,-0.8" class="g6_1648" />
</g>
<g clip-path="url(#c28_1648)">
<path d="M668.6,186.4l0,-0.8" class="g6_1648" />
</g>
<g clip-path="url(#c29_1648)">
<path d="M683,186.4l0,-0.8" class="g6_1648" />
</g>
<g clip-path="url(#c30_1648)">
<path d="M697.4,186.4l0,-0.8" class="g6_1648" />
</g>
<g clip-path="url(#c31_1648)">
<path d="M711.7,186.4l0,-0.8" class="g6_1648" />
</g>
<g clip-path="url(#c32_1648)">
<path d="M726.1,186.4l0,-0.8" class="g6_1648" />
</g>
<path d="M179.9,187.1l561.2,0l0,-0.7l-561.2,0l0,0.7Z" class="g2_1648" />
<g clip-path="url(#c33_1648)">
<path d="M740.4,186.4l0,-0.8" class="g6_1648" />
</g>
<path d="M179.9,199.3l100.5,0" class="g6_1648" />
<path d="M179.9,200l100.5,0l0,-0.7l-100.5,0l0,0.7Z" class="g7_1648" />
<path d="M281.9,199.3l12.9,0" class="g8_1648" />
<path d="M281.9,200l12.9,0l0,-0.7l-12.9,0l0,0.7Z" class="g2_1648" />
<path d="M296.2,199.3l113.4,0" class="g8_1648" />
<path d="M296.2,200l113.4,0l0,-0.7l-113.4,0l0,0.7Z" class="g2_1648" />
<path d="M411,199.3l328.8,0" class="g8_1648" />
<path d="M411,200l328.8,0l0,-0.7l-328.8,0l0,0.7Z" class="g2_1648" />
<path d="M179.9,212.9l100.5,0" class="g6_1648" />
<path d="M179.9,213.8l100.5,0l0,-0.9l-100.5,0l0,0.9Z" class="g7_1648" />
<path d="M309.8,187.1l0,12.9" class="g8_1648" />
<path d="M309.8,200l0.8,0l0,-12.9l-0.8,0l0,12.9Z" class="g2_1648" />
<path d="M324.2,187.1l0,12.9" class="g8_1648" />
<path d="M324.2,200l0.7,0l0,-12.9l-0.7,0l0,12.9Z" class="g2_1648" />
<path d="M338.5,187.1l0,12.9" class="g8_1648" />
<path d="M338.5,200l0.8,0l0,-12.9l-0.8,0l0,12.9Z" class="g2_1648" />
<path d="M352.9,187.1l0,12.9" class="g8_1648" />
<path d="M352.9,200l0.7,0l0,-12.9l-0.7,0l0,12.9Z" class="g2_1648" />
<path d="M367.2,187.1l0,12.9" class="g8_1648" />
<path d="M367.2,200l0.7,0l0,-12.9l-0.7,0l0,12.9Z" class="g2_1648" />
<path d="M381.6,187.1l0,12.9" class="g8_1648" />
<path d="M381.6,200l0.7,0l0,-12.9l-0.7,0l0,12.9Z" class="g2_1648" />
<path d="M395.9,187.1l0,12.9" class="g8_1648" />
<path d="M395.9,200l0.7,0l0,-12.9l-0.7,0l0,12.9Z" class="g2_1648" />
<path d="M424.7,187.1l0,12.9" class="g8_1648" />
<path d="M424.7,200l0.6,0l0,-12.9l-0.6,0l0,12.9Z" class="g2_1648" />
<path d="M439,187.1l0,12.9" class="g8_1648" />
<path d="M439,200l0.7,0l0,-12.9l-0.7,0l0,12.9Z" class="g2_1648" />
<path d="M453.4,187.1l0,12.9" class="g8_1648" />
<path d="M453.4,200l0.7,0l0,-12.9l-0.7,0l0,12.9Z" class="g2_1648" />
<path d="M467.7,187.1l0,12.9" class="g8_1648" />
<path d="M467.7,200l0.7,0l0,-12.9l-0.7,0l0,12.9Z" class="g2_1648" />
<path d="M482.1,187.1l0,12.9" class="g8_1648" />
<path d="M482.1,200l0.7,0l0,-12.9l-0.7,0l0,12.9Z" class="g2_1648" />
<path d="M496.4,187.1l0,12.9" class="g8_1648" />
<path d="M496.4,200l0.7,0l0,-12.9l-0.7,0l0,12.9Z" class="g2_1648" />
<path d="M510.8,187.1l0,12.9" class="g8_1648" />
<path d="M510.8,200l0.7,0l0,-12.9l-0.7,0l0,12.9Z" class="g2_1648" />
<path d="M525.2,187.1l0,12.9" class="g8_1648" />
<path d="M525.2,200l0.6,0l0,-12.9l-0.6,0l0,12.9Z" class="g2_1648" />
<path d="M539.5,187.1l0,12.9" class="g8_1648" />
<path d="M539.5,200l0.7,0l0,-12.9l-0.7,0l0,12.9Z" class="g2_1648" />
<path d="M553.8,187.1l0,12.9" class="g8_1648" />
<path d="M553.8,200l0.8,0l0,-12.9l-0.8,0l0,12.9Z" class="g2_1648" />
<path d="M568.2,187.1l0,12.9" class="g8_1648" />
<path d="M568.2,200l0.7,0l0,-12.9l-0.7,0l0,12.9Z" class="g2_1648" />
<path d="M582.5,187.1l0,12.9" class="g8_1648" />
<path d="M582.5,200l0.8,0l0,-12.9l-0.8,0l0,12.9Z" class="g2_1648" />
<path d="M596.9,187.1l0,12.9" class="g8_1648" />
<path d="M596.9,200l0.7,0l0,-12.9l-0.7,0l0,12.9Z" class="g2_1648" />
<path d="M611.2,187.1l0,12.9" class="g8_1648" />
<path d="M611.2,200l0.8,0l0,-12.9l-0.8,0l0,12.9Z" class="g2_1648" />
<path d="M625.6,187.1l0,12.9" class="g8_1648" />
<path d="M625.6,200l0.8,0l0,-12.9l-0.8,0l0,12.9Z" class="g2_1648" />
<path d="M639.9,187.1l0,12.9" class="g8_1648" />
<path d="M639.9,200l0.8,0l0,-12.9l-0.8,0l0,12.9Z" class="g2_1648" />
<path d="M654.3,187.1l0,12.9" class="g8_1648" />
<path d="M654.3,200l0.8,0l0,-12.9l-0.8,0l0,12.9Z" class="g2_1648" />
<path d="M668.6,187.1l0,12.9" class="g8_1648" />
<path d="M668.6,200l0.8,0l0,-12.9l-0.8,0l0,12.9Z" class="g2_1648" />
<path d="M683,187.1l0,12.9" class="g8_1648" />
<path d="M683,200l0.7,0l0,-12.9l-0.7,0l0,12.9Z" class="g2_1648" />
<path d="M697.4,187.1l0,12.9" class="g8_1648" />
<path d="M697.4,200l0.6,0l0,-12.9l-0.6,0l0,12.9Z" class="g2_1648" />
<path d="M711.7,187.1l0,12.9" class="g8_1648" />
<path d="M711.7,200l0.7,0l0,-12.9l-0.7,0l0,12.9Z" class="g2_1648" />
<path d="M726.1,187.1l0,12.9" class="g8_1648" />
<path d="M726.1,200l0.7,0l0,-12.9l-0.7,0l0,12.9Z" class="g2_1648" />
<path d="M281.9,213.8l459.2,0l0,-1.6l-459.2,0l0,1.6Z" class="g2_1648" />
<path d="M179.9,226l100.5,0" class="g6_1648" />
<path d="M179.9,226.7l100.5,0l0,-0.7l-100.5,0l0,0.7Z" class="g7_1648" />
<path d="M281.9,226l12.9,0" class="g8_1648" />
<path d="M281.9,226.7l12.9,0l0,-0.7l-12.9,0l0,0.7Z" class="g2_1648" />
<path d="M296.2,226l113.4,0" class="g8_1648" />
<path d="M296.2,226.7l113.4,0l0,-0.7l-113.4,0l0,0.7Z" class="g2_1648" />
<path d="M411,226l328.8,0" class="g8_1648" />
<path d="M411,226.7l328.8,0l0,-0.7L411,226l0,0.7Z" class="g2_1648" />
<path d="M179.9,238.9l100.5,0" class="g6_1648" />
<path d="M179.9,239.6l100.5,0l0,-0.7l-100.5,0l0,0.7Z" class="g7_1648" />
<path d="M281.9,238.9l12.9,0" class="g8_1648" />
<path d="M281.9,239.6l12.9,0l0,-0.7l-12.9,0l0,0.7Z" class="g2_1648" />
<path d="M296.2,238.9l113.4,0" class="g8_1648" />
<path d="M296.2,239.6l113.4,0l0,-0.7l-113.4,0l0,0.7Z" class="g2_1648" />
<path d="M411,238.9l328.8,0" class="g8_1648" />
<path d="M411,239.6l328.8,0l0,-0.7l-328.8,0l0,0.7Z" class="g2_1648" />
<path d="M179.9,251.8l100.5,0" class="g6_1648" />
<path d="M179.9,252.5l100.5,0l0,-0.7l-100.5,0l0,0.7Z" class="g7_1648" />
<path d="M281.9,251.8l12.9,0" class="g8_1648" />
<path d="M281.9,252.5l12.9,0l0,-0.7l-12.9,0l0,0.7Z" class="g2_1648" />
<path d="M296.2,251.8l113.4,0" class="g8_1648" />
<path d="M296.2,252.5l113.4,0l0,-0.7l-113.4,0l0,0.7Z" class="g2_1648" />
<path d="M411,251.8l328.8,0" class="g8_1648" />
<path d="M411,252.5l328.8,0l0,-0.7l-328.8,0l0,0.7Z" class="g2_1648" />
<path d="M179.9,264.7l100.5,0" class="g6_1648" />
<path d="M179.9,265.5l100.5,0l0,-0.8l-100.5,0l0,0.8Z" class="g7_1648" />
<path d="M281.9,264.7l12.9,0" class="g8_1648" />
<path d="M281.9,265.5l12.9,0l0,-0.8l-12.9,0l0,0.8Z" class="g2_1648" />
<path d="M296.2,264.7l113.4,0" class="g8_1648" />
<path d="M296.2,265.5l113.4,0l0,-0.8l-113.4,0l0,0.8Z" class="g2_1648" />
<path d="M411,264.7l328.8,0" class="g8_1648" />
<path d="M411,265.5l328.8,0l0,-0.8l-328.8,0l0,0.8Z" class="g2_1648" />
<path d="M179.9,277.7l100.5,0" class="g6_1648" />
<path d="M179.9,278.4l100.5,0l0,-0.7l-100.5,0l0,0.7Z" class="g7_1648" />
<path d="M281.9,277.7l12.9,0" class="g8_1648" />
<path d="M281.9,278.4l12.9,0l0,-0.7l-12.9,0l0,0.7Z" class="g2_1648" />
<path d="M296.2,277.7l113.4,0" class="g8_1648" />
<path d="M296.2,278.4l113.4,0l0,-0.7l-113.4,0l0,0.7Z" class="g2_1648" />
<path d="M411,277.7l328.8,0" class="g8_1648" />
<path d="M411,278.4l328.8,0l0,-0.7l-328.8,0l0,0.7Z" class="g2_1648" />
<path d="M179.9,290.6l100.5,0" class="g6_1648" />
<path d="M179.9,291.3l100.5,0l0,-0.7l-100.5,0l0,0.7Z" class="g7_1648" />
<path d="M281.9,290.6l12.9,0" class="g8_1648" />
<path d="M281.9,291.3l12.9,0l0,-0.7l-12.9,0l0,0.7Z" class="g2_1648" />
<path d="M296.2,290.6l113.4,0" class="g8_1648" />
<path d="M296.2,291.3l113.4,0l0,-0.7l-113.4,0l0,0.7Z" class="g2_1648" />
<path d="M411,290.6l328.8,0" class="g8_1648" />
<path d="M411,291.3l328.8,0l0,-0.7l-328.8,0l0,0.7Z" class="g2_1648" />
<path d="M179.9,303.5l100.5,0" class="g6_1648" />
<path d="M179.9,304.2l100.5,0l0,-0.7l-100.5,0l0,0.7Z" class="g7_1648" />
<path d="M281.9,303.5l12.9,0" class="g8_1648" />
<path d="M281.9,304.2l12.9,0l0,-0.7l-12.9,0l0,0.7Z" class="g2_1648" />
<path d="M296.2,303.5l113.4,0" class="g8_1648" />
<path d="M296.2,304.2l113.4,0l0,-0.7l-113.4,0l0,0.7Z" class="g2_1648" />
<path d="M411,303.5l328.8,0" class="g8_1648" />
<path d="M411,304.2l328.8,0l0,-0.7l-328.8,0l0,0.7Z" class="g2_1648" />
<path d="M179.9,316.4l100.5,0" class="g6_1648" />
<path d="M179.9,317.2l100.5,0l0,-0.8l-100.5,0l0,0.8Z" class="g7_1648" />
<path d="M281.9,316.4l12.9,0" class="g8_1648" />
<path d="M281.9,317.2l12.9,0l0,-0.8l-12.9,0l0,0.8Z" class="g2_1648" />
<path d="M296.2,316.4l113.4,0" class="g8_1648" />
<path d="M296.2,317.2l113.4,0l0,-0.8l-113.4,0l0,0.8Z" class="g2_1648" />
<path d="M411,316.4l328.8,0" class="g8_1648" />
<path d="M411,317.2l328.8,0l0,-0.8l-328.8,0l0,0.8Z" class="g2_1648" />
<path d="M179.9,329.4l100.5,0" class="g6_1648" />
<path d="M179.9,330.1l100.5,0l0,-0.7l-100.5,0l0,0.7Z" class="g7_1648" />
<path d="M281.9,329.4l12.9,0" class="g8_1648" />
<path d="M281.9,330.1l12.9,0l0,-0.7l-12.9,0l0,0.7Z" class="g2_1648" />
<path d="M296.2,329.4l113.4,0" class="g8_1648" />
<path d="M296.2,330.1l113.4,0l0,-0.7l-113.4,0l0,0.7Z" class="g2_1648" />
<path d="M411,329.4l328.8,0" class="g8_1648" />
<path d="M411,330.1l328.8,0l0,-0.7l-328.8,0l0,0.7Z" class="g2_1648" />
<path d="M179.2,343.8l0.7,0l0,-157.4l-0.7,0l0,157.4Z" class="g2_1648" />
<path d="M280.4,343.8l1.5,0l0,-156.7l-1.5,0l0,156.7Z" class="g2_1648" />
<path d="M294.8,343.8l1.4,0l0,-156.7l-1.4,0l0,156.7Z" class="g2_1648" />
<path d="M309.8,213.8l0,128.5" class="g8_1648" />
<path d="M309.8,342.3l0.8,0l0,-128.5l-0.8,0l0,128.5Z" class="g2_1648" />
<path d="M324.2,213.8l0,128.5" class="g8_1648" />
<path d="M324.2,342.3l0.7,0l0,-128.5l-0.7,0l0,128.5Z" class="g2_1648" />
<path d="M338.5,213.8l0,128.5" class="g8_1648" />
<path d="M338.5,342.3l0.8,0l0,-128.5l-0.8,0l0,128.5Z" class="g2_1648" />
<path d="M352.9,213.8l0,128.5" class="g8_1648" />
<path d="M352.9,342.3l0.7,0l0,-128.5l-0.7,0l0,128.5Z" class="g2_1648" />
<path d="M367.2,213.8l0,128.5" class="g8_1648" />
<path d="M367.2,342.3l0.7,0l0,-128.5l-0.7,0l0,128.5Z" class="g2_1648" />
<path d="M381.6,213.8l0,128.5" class="g8_1648" />
<path d="M381.6,342.3l0.7,0l0,-128.5l-0.7,0l0,128.5Z" class="g2_1648" />
<path d="M395.9,213.8l0,128.5" class="g8_1648" />
<path d="M395.9,342.3l0.7,0l0,-128.5l-0.7,0l0,128.5Z" class="g2_1648" />
<path d="M409.6,343.8l1.4,0l0,-156.7l-1.4,0l0,156.7Z" class="g2_1648" />
<path d="M424.7,213.8l0,128.5" class="g8_1648" />
<path d="M424.7,342.3l0.6,0l0,-128.5l-0.6,0l0,128.5Z" class="g2_1648" />
<path d="M439,213.8l0,128.5" class="g8_1648" />
<path d="M439,342.3l0.7,0l0,-128.5l-0.7,0l0,128.5Z" class="g2_1648" />
<path d="M453.4,213.8l0,128.5" class="g8_1648" />
<path d="M453.4,342.3l0.7,0l0,-128.5l-0.7,0l0,128.5Z" class="g2_1648" />
<path d="M467.7,213.8l0,128.5" class="g8_1648" />
<path d="M467.7,342.3l0.7,0l0,-128.5l-0.7,0l0,128.5Z" class="g2_1648" />
<path d="M482.1,213.8l0,128.5" class="g8_1648" />
<path d="M482.1,342.3l0.7,0l0,-128.5l-0.7,0l0,128.5Z" class="g2_1648" />
<path d="M496.4,213.8l0,128.5" class="g8_1648" />
<path d="M496.4,342.3l0.7,0l0,-128.5l-0.7,0l0,128.5Z" class="g2_1648" />
<path d="M510.8,213.8l0,128.5" class="g8_1648" />
<path d="M510.8,342.3l0.7,0l0,-128.5l-0.7,0l0,128.5Z" class="g2_1648" />
<path d="M525.2,213.8l0,128.5" class="g8_1648" />
<path d="M525.2,342.3l0.6,0l0,-128.5l-0.6,0l0,128.5Z" class="g2_1648" />
<path d="M539.5,213.8l0,128.5" class="g8_1648" />
<path d="M539.5,342.3l0.7,0l0,-128.5l-0.7,0l0,128.5Z" class="g2_1648" />
<path d="M553.8,213.8l0,128.5" class="g8_1648" />
<path d="M553.8,342.3l0.8,0l0,-128.5l-0.8,0l0,128.5Z" class="g2_1648" />
<path d="M568.2,213.8l0,128.5" class="g8_1648" />
<path d="M568.2,342.3l0.7,0l0,-128.5l-0.7,0l0,128.5Z" class="g2_1648" />
<path d="M582.5,213.8l0,128.5" class="g8_1648" />
<path d="M582.5,342.3l0.8,0l0,-128.5l-0.8,0l0,128.5Z" class="g2_1648" />
<path d="M596.9,213.8l0,128.5" class="g8_1648" />
<path d="M596.9,342.3l0.7,0l0,-128.5l-0.7,0l0,128.5Z" class="g2_1648" />
<path d="M611.2,213.8l0,128.5" class="g8_1648" />
<path d="M611.2,342.3l0.8,0l0,-128.5l-0.8,0l0,128.5Z" class="g2_1648" />
<path d="M625.6,213.8l0,128.5" class="g8_1648" />
<path d="M625.6,342.3l0.8,0l0,-128.5l-0.8,0l0,128.5Z" class="g2_1648" />
<path d="M639.9,213.8l0,128.5" class="g8_1648" />
<path d="M639.9,342.3l0.8,0l0,-128.5l-0.8,0l0,128.5Z" class="g2_1648" />
<path d="M654.3,213.8l0,128.5" class="g8_1648" />
<path d="M654.3,342.3l0.8,0l0,-128.5l-0.8,0l0,128.5Z" class="g2_1648" />
<path d="M668.6,213.8l0,128.5" class="g8_1648" />
<path d="M668.6,342.3l0.8,0l0,-128.5l-0.8,0l0,128.5Z" class="g2_1648" />
<path d="M683,213.8l0,128.5" class="g8_1648" />
<path d="M683,342.3l0.7,0l0,-128.5l-0.7,0l0,128.5Z" class="g2_1648" />
<path d="M697.4,213.8l0,128.5" class="g8_1648" />
<path d="M697.4,342.3l0.6,0l0,-128.5l-0.6,0l0,128.5Z" class="g2_1648" />
<path d="M711.7,213.8l0,128.5" class="g8_1648" />
<path d="M711.7,342.3l0.7,0l0,-128.5l-0.7,0l0,128.5Z" class="g2_1648" />
<path d="M726.1,213.8l0,128.5" class="g8_1648" />
<path d="M726.1,342.3l0.7,0l0,-128.5l-0.7,0l0,128.5Z" class="g2_1648" />
<path d="M179.9,343.8l561.2,0l0,-1.5l-561.2,0l0,1.5Z" class="g2_1648" />
<path d="M739.8,343.8l1.3,0l0,-156.7l-1.3,0l0,156.7Z" class="g2_1648" />
<path d="M309.8,223.7l312.3,13.6l0.6,0l0,0.8l-0.6,0L309.8,224.4l-0.7,0l0,-0.7l0.7,0Zm310.1,10.6l5.7,3.8l-6.5,2.3l0.8,-6.1Z" class="g9_1648" />
</svg>