<?xml version="1.0" encoding="UTF-8" standalone="no"?>
<!DOCTYPE svg PUBLIC "-//W3C//DTD SVG 1.1//EN"
"http://www.w3.org/Graphics/SVG/1.1/DTD/svg11.dtd">
<svg viewBox="0 0 935 1210" version="1.1" xmlns="http://www.w3.org/2000/svg" xmlns:xlink="http://www.w3.org/1999/xlink">
<defs>
<style type="text/css"><![CDATA[
.g1_1950{
fill: #FFFFFF;
}
.g2_1950{
}
]]></style>
</defs>
<path d="M165,1149.3l687.5,0l0,-21.2l-687.5,0l0,21.2Z" class="g1_1950" />
<path d="M68.8,1149.3l82.5,0l0,-21.2l-82.5,0l0,21.2Z" class="g1_1950" />
<path d="M70.1,673.4l0.8,0l0,-541.6l-0.8,0l0,541.6Z" class="g2_1950" />
<path d="M220.3,674.1l0.7,0L221,131l-0.7,0l0,543.1Z" class="g2_1950" />
<path d="M390.5,674.1l0.7,0l0,-543.1l-0.7,0l0,543.1Z" class="g2_1950" />
<path d="M428.4,674.1l0.7,0l0,-543.1l-0.7,0l0,543.1Z" class="g2_1950" />
<path d="M501.8,674.1l0.7,0l0,-543.1l-0.7,0l0,543.1Z" class="g2_1950" />
<path d="M573.1,674.1l0.7,0l0,-543.1l-0.7,0l0,543.1Z" class="g2_1950" />
<path d="M850.3,673.4l0.7,0l0,-541.6l-0.7,0l0,541.6Z" class="g2_1950" />
<path d="M70.1,131.7l780.9,0l0,-0.7L70.1,131l0,0.7Z" class="g2_1950" />
<path d="M70.1,169.9l780.9,0l0,-0.7l-780.9,0l0,0.7Z" class="g2_1950" />
<path d="M70.1,192.9l780.9,0l0,-0.8l-780.9,0l0,0.8Z" class="g2_1950" />
<path d="M70.1,215.8l780.9,0l0,-0.8L70.1,215l0,0.8Z" class="g2_1950" />
<path d="M70.1,238.7l780.9,0l0,-0.7L70.1,238l0,0.7Z" class="g2_1950" />
<path d="M70.1,261.6l780.9,0l0,-0.7l-780.9,0l0,0.7Z" class="g2_1950" />
<path d="M70.1,284.5l780.9,0l0,-0.7l-780.9,0l0,0.7Z" class="g2_1950" />
<path d="M70.1,307.4l780.9,0l0,-0.7l-780.9,0l0,0.7Z" class="g2_1950" />
<path d="M70.1,330.4l780.9,0l0,-0.8l-780.9,0l0,0.8Z" class="g2_1950" />
<path d="M70.1,353.3l780.9,0l0,-0.7l-780.9,0l0,0.7Z" class="g2_1950" />
<path d="M70.1,376.2l780.9,0l0,-0.7l-780.9,0l0,0.7Z" class="g2_1950" />
<path d="M70.1,399.1l780.9,0l0,-0.7l-780.9,0l0,0.7Z" class="g2_1950" />
<path d="M70.1,422L851,422l0,-0.7l-780.9,0l0,0.7Z" class="g2_1950" />
<path d="M70.1,444.9l780.9,0l0,-0.7l-780.9,0l0,0.7Z" class="g2_1950" />
<path d="M70.1,467.9l780.9,0l0,-0.8l-780.9,0l0,0.8Z" class="g2_1950" />
<path d="M70.1,490.8l780.9,0l0,-0.8L70.1,490l0,0.8Z" class="g2_1950" />
<path d="M70.1,513.7l780.9,0l0,-0.7L70.1,513l0,0.7Z" class="g2_1950" />
<path d="M70.1,536.6l780.9,0l0,-0.7l-780.9,0l0,0.7Z" class="g2_1950" />
<path d="M70.1,559.5l780.9,0l0,-0.7l-780.9,0l0,0.7Z" class="g2_1950" />
<path d="M70.1,582.4l780.9,0l0,-0.7l-780.9,0l0,0.7Z" class="g2_1950" />
<path d="M70.1,605.4l780.9,0l0,-0.8l-780.9,0l0,0.8Z" class="g2_1950" />
<path d="M70.1,628.3l780.9,0l0,-0.7l-780.9,0l0,0.7Z" class="g2_1950" />
<path d="M70.1,651.2l780.9,0l0,-0.7l-780.9,0l0,0.7Z" class="g2_1950" />
<path d="M70.1,674.1l780.9,0l0,-0.7l-780.9,0l0,0.7Z" class="g2_1950" />
<path d="M70.9,890.4l0.7,0l0,-121.5l-0.7,0l0,121.5Z" class="g2_1950" />
<path d="M141,891.1l0.7,0l0,-123l-0.7,0l0,123Z" class="g2_1950" />
<path d="M308.8,891.1l0.8,0l0,-123l-0.8,0l0,123Z" class="g2_1950" />
<path d="M485.7,891.1l0.8,0l0,-123l-0.8,0l0,123Z" class="g2_1950" />
<path d="M656.2,891.1l0.8,0l0,-123l-0.8,0l0,123Z" class="g2_1950" />
<path d="M849.6,890.4l0.7,0l0,-121.5l-0.7,0l0,121.5Z" class="g2_1950" />
<path d="M70.8,768.9l779.5,0l0,-0.7l-779.5,0l0,0.7Z" class="g2_1950" />
<path d="M70.8,793.3l779.5,0l0,-0.7l-779.5,0l0,0.7Z" class="g2_1950" />
<path d="M70.8,817.8l779.5,0l0,-0.8L70.8,817l0,0.8Z" class="g2_1950" />
<path d="M70.8,842.2l779.5,0l0,-0.7l-779.5,0l0,0.7Z" class="g2_1950" />
<path d="M70.8,866.6l779.5,0l0,-0.7l-779.5,0l0,0.7Z" class="g2_1950" />
<path d="M70.8,891.1l779.5,0l0,-0.7l-779.5,0l0,0.7Z" class="g2_1950" />
</svg>