<?xml version="1.0" encoding="UTF-8" standalone="no"?>
<!DOCTYPE svg PUBLIC "-//W3C//DTD SVG 1.1//EN"
"http://www.w3.org/Graphics/SVG/1.1/DTD/svg11.dtd">
<svg viewBox="0 0 935 1210" version="1.1" xmlns="http://www.w3.org/2000/svg" xmlns:xlink="http://www.w3.org/1999/xlink">
<defs>
<style type="text/css"><![CDATA[
.g1_2001{
fill: #FFFFFF;
}
.g2_2001{
}
]]></style>
</defs>
<path d="M68.9,1149.3l686.3,0l0,-21.2l-686.3,0l0,21.2Z" class="g1_2001" />
<path d="M771.3,1149.3l83.7,0l0,-21.2l-83.7,0l0,21.2Z" class="g1_2001" />
<path d="M69.9,250.2l0.8,0L70.7,141l-0.8,0l0,109.2Z" class="g2_2001" />
<path d="M853.5,250.2l0.7,0l0,-109.2l-0.7,0l0,109.2Z" class="g2_2001" />
<path d="M69.9,140.9l784.3,0l0,-0.7l-784.3,0l0,0.7Z" class="g2_2001" />
<path d="M69.9,250.9l784.3,0l0,-0.7l-784.3,0l0,0.7Z" class="g2_2001" />
</svg>