<?xml version="1.0" encoding="UTF-8" standalone="no"?>
<!DOCTYPE svg PUBLIC "-//W3C//DTD SVG 1.1//EN"
"http://www.w3.org/Graphics/SVG/1.1/DTD/svg11.dtd">
<svg viewBox="0 0 935 1210" version="1.1" xmlns="http://www.w3.org/2000/svg" xmlns:xlink="http://www.w3.org/1999/xlink">
<defs>
<clipPath id="c0_1931"><path d="M70.3,281.7l0,-29.6l781.1,0l0,29.6Z" /></clipPath>
<style type="text/css"><![CDATA[
.g1_1931{
fill: #FFFFFF;
}
.g2_1931{
}
]]></style>
</defs>
<path d="M68.9,1149.3l686.3,0l0,-21.2l-686.3,0l0,21.2Z" class="g1_1931" />
<path d="M771.3,1149.3l83.7,0l0,-21.2l-83.7,0l0,21.2Z" class="g1_1931" />
<g clip-path="url(#c0_1931)">
<path d="M70.3,281.7l781.1,0l0,-29.6l-781.1,0l0,29.6Z" class="g1_1931" />
</g>
<path d="M71.2,275l53.6,0l0,-12.4l-53.6,0l0,12.4Z" class="g1_1931" />
<path d="M69.9,251.7l0.8,0l0,-126l-0.8,0l0,126Z" class="g2_1931" />
<path d="M297.5,252.4l0.8,0l0,-127.5l-0.8,0l0,127.5Z" class="g2_1931" />
<path d="M372.1,252.4l0.7,0l0,-127.5l-0.7,0l0,127.5Z" class="g2_1931" />
<path d="M439.6,252.4l0.8,0l0,-127.5l-0.8,0l0,127.5Z" class="g2_1931" />
<path d="M851,251.7l0.8,0l0,-126l-0.8,0l0,126Z" class="g2_1931" />
<path d="M69.9,125.7l781.9,0l0,-0.8l-781.9,0l0,0.8Z" class="g2_1931" />
<path d="M69.9,179.1l781.9,0l0,-0.7l-781.9,0l0,0.7Z" class="g2_1931" />
<path d="M69.9,215.8l781.9,0l0,-0.8L69.9,215l0,0.8Z" class="g2_1931" />
<path d="M69.9,252.4l781.9,0l0,-0.7l-781.9,0l0,0.7Z" class="g2_1931" />
</svg>