<?xml version="1.0" encoding="UTF-8" standalone="no"?>
<!DOCTYPE svg PUBLIC "-//W3C//DTD SVG 1.1//EN"
"http://www.w3.org/Graphics/SVG/1.1/DTD/svg11.dtd">
<svg viewBox="0 0 935 1210" version="1.1" xmlns="http://www.w3.org/2000/svg" xmlns:xlink="http://www.w3.org/1999/xlink">
<defs>
<style type="text/css"><![CDATA[
.g1_1034{
fill: #FFFFFF;
}
.g2_1034{
}
]]></style>
</defs>
<path d="M165,1149.3l687.5,0l0,-21.2l-687.5,0l0,21.2Z" class="g1_1034" />
<path d="M68.8,1149.3l82.5,0l0,-21.2l-82.5,0l0,21.2Z" class="g1_1034" />
<path d="M67.8,674.9l0.8,0l0,-549.2l-0.8,0l0,549.2Z" class="g2_1034" />
<path d="M364.2,675.7l0.7,0l0,-550.8l-0.7,0l0,550.8Z" class="g2_1034" />
<path d="M402.1,675.7l0.7,0l0,-550.8l-0.7,0l0,550.8Z" class="g2_1034" />
<path d="M475.4,675.7l0.7,0l0,-550.8l-0.7,0l0,550.8Z" class="g2_1034" />
<path d="M560.5,675.7l0.8,0l0,-550.8l-0.8,0l0,550.8Z" class="g2_1034" />
<path d="M852.6,674.9l0.7,0l0,-549.2l-0.7,0l0,549.2Z" class="g2_1034" />
<path d="M67.8,125.7l785.5,0l0,-0.8l-785.5,0l0,0.8Z" class="g2_1034" />
<path d="M67.8,179.1l785.5,0l0,-0.7l-785.5,0l0,0.7Z" class="g2_1034" />
<path d="M67.8,235.7l785.5,0l0,-0.8l-785.5,0l0,0.8Z" class="g2_1034" />
<path d="M67.8,309l785.5,0l0,-0.7l-785.5,0l0,0.7Z" class="g2_1034" />
<path d="M67.8,382.3l785.5,0l0,-0.7l-785.5,0l0,0.7Z" class="g2_1034" />
<path d="M67.8,455.7l785.5,0l0,-0.8l-785.5,0l0,0.8Z" class="g2_1034" />
<path d="M67.8,529l785.5,0l0,-0.7l-785.5,0l0,0.7Z" class="g2_1034" />
<path d="M67.8,602.3l785.5,0l0,-0.7l-785.5,0l0,0.7Z" class="g2_1034" />
<path d="M67.8,675.7l785.5,0l0,-0.8l-785.5,0l0,0.8Z" class="g2_1034" />
<path d="M69.7,905.7l0.7,0l0,-97.1l-0.7,0l0,97.1Z" class="g2_1034" />
<path d="M133.7,906.4l0.7,0l0,-98.5l-0.7,0l0,98.5Z" class="g2_1034" />
<path d="M305.4,906.4l0.8,0l0,-98.5l-0.8,0l0,98.5Z" class="g2_1034" />
<path d="M481.6,906.4l0.8,0l0,-98.5l-0.8,0l0,98.5Z" class="g2_1034" />
<path d="M664.2,906.4l0.8,0l0,-98.5l-0.8,0l0,98.5Z" class="g2_1034" />
<path d="M850.8,905.7l0.7,0l0,-97.1l-0.7,0l0,97.1Z" class="g2_1034" />
<path d="M69.7,808.6l781.8,0l0,-0.7l-781.8,0l0,0.7Z" class="g2_1034" />
<path d="M69.7,833.1l781.8,0l0,-0.8l-781.8,0l0,0.8Z" class="g2_1034" />
<path d="M69.7,857.5l781.8,0l0,-0.8l-781.8,0l0,0.8Z" class="g2_1034" />
<path d="M69.7,881.9l781.8,0l0,-0.7l-781.8,0l0,0.7Z" class="g2_1034" />
<path d="M69.7,906.4l781.8,0l0,-0.7l-781.8,0l0,0.7Z" class="g2_1034" />
</svg>