<?xml version="1.0" encoding="UTF-8" standalone="no"?>
<!DOCTYPE svg PUBLIC "-//W3C//DTD SVG 1.1//EN"
"http://www.w3.org/Graphics/SVG/1.1/DTD/svg11.dtd">
<svg viewBox="0 0 935 1210" version="1.1" xmlns="http://www.w3.org/2000/svg" xmlns:xlink="http://www.w3.org/1999/xlink">
<defs>
<style type="text/css"><![CDATA[
.g1_1911{
fill: #FFFFFF;
}
.g2_1911{
}
]]></style>
</defs>
<path d="M68.9,1149.3l686.3,0l0,-21.2l-686.3,0l0,21.2Z" class="g1_1911" />
<path d="M771.3,1149.3l83.7,0l0,-21.2l-83.7,0l0,21.2Z" class="g1_1911" />
<path d="M69.9,691.7l0.8,0L70.7,147l-0.8,0l0,544.7Z" class="g2_1911" />
<path d="M316.2,692.4l0.7,0l0,-546.1l-0.7,0l0,546.1Z" class="g2_1911" />
<path d="M359.7,692.4l0.7,0l0,-546.1l-0.7,0l0,546.1Z" class="g2_1911" />
<path d="M434.1,692.4l0.8,0l0,-546.1l-0.8,0l0,546.1Z" class="g2_1911" />
<path d="M521.9,692.4l0.7,0l0,-546.1l-0.7,0l0,546.1Z" class="g2_1911" />
<path d="M858.9,691.7l0.7,0l0,-544.7l-0.7,0l0,544.7Z" class="g2_1911" />
<path d="M69.9,147l789.8,0l0,-0.7l-789.8,0l0,0.7Z" class="g2_1911" />
<path d="M69.9,197.4l789.8,0l0,-0.7l-789.8,0l0,0.7Z" class="g2_1911" />
<path d="M69.9,267.8l789.8,0l0,-0.8L69.9,267l0,0.8Z" class="g2_1911" />
<path d="M69.9,338l789.8,0l0,-0.8l-789.8,0l0,0.8Z" class="g2_1911" />
<path d="M69.9,408.3l789.8,0l0,-0.8l-789.8,0l0,0.8Z" class="g2_1911" />
<path d="M69.9,478.6l789.8,0l0,-0.7l-789.8,0l0,0.7Z" class="g2_1911" />
<path d="M69.9,532l789.8,0l0,-0.7l-789.8,0l0,0.7Z" class="g2_1911" />
<path d="M69.9,585.6l789.8,0l0,-0.8l-789.8,0l0,0.8Z" class="g2_1911" />
<path d="M69.9,639l789.8,0l0,-0.7l-789.8,0l0,0.7Z" class="g2_1911" />
<path d="M69.9,692.4l789.8,0l0,-0.7l-789.8,0l0,0.7Z" class="g2_1911" />
<path d="M71.5,795.7l0.7,0l0,-48.3l-0.7,0l0,48.3Z" class="g2_1911" />
<path d="M193.2,796.4l0.8,0l0,-49.7l-0.8,0l0,49.7Z" class="g2_1911" />
<path d="M359.6,796.4l0.7,0l0,-49.7l-0.7,0l0,49.7Z" class="g2_1911" />
<path d="M527.4,796.4l0.7,0l0,-49.7l-0.7,0l0,49.7Z" class="g2_1911" />
<path d="M688.9,796.4l0.7,0l0,-49.7l-0.7,0l0,49.7Z" class="g2_1911" />
<path d="M850.5,795.7l0.7,0l0,-48.3l-0.7,0l0,48.3Z" class="g2_1911" />
<path d="M71.5,747.4l779.7,0l0,-0.7l-779.7,0l0,0.7Z" class="g2_1911" />
<path d="M71.5,771.9l779.7,0l0,-0.7l-779.7,0l0,0.7Z" class="g2_1911" />
<path d="M71.5,796.4l779.7,0l0,-0.7l-779.7,0l0,0.7Z" class="g2_1911" />
</svg>