<?xml version="1.0" encoding="UTF-8" standalone="no"?>
<!DOCTYPE svg PUBLIC "-//W3C//DTD SVG 1.1//EN"
"http://www.w3.org/Graphics/SVG/1.1/DTD/svg11.dtd">
<svg viewBox="0 0 935 1210" version="1.1" xmlns="http://www.w3.org/2000/svg" xmlns:xlink="http://www.w3.org/1999/xlink">
<defs>
<style type="text/css"><![CDATA[
.g1_838{
fill: #FFFFFF;
}
.g2_838{
}
]]></style>
</defs>
<path d="M165,1149.3l687.5,0l0,-21.2l-687.5,0l0,21.2Z" class="g1_838" />
<path d="M68.8,1149.3l82.5,0l0,-21.2l-82.5,0l0,21.2Z" class="g1_838" />
<path d="M67.3,1064.5l0.7,0L68,131.8l-0.7,0l0,932.7Z" class="g2_838" />
<path d="M376.2,1065.3l0.7,0l0,-934.3l-0.7,0l0,934.3Z" class="g2_838" />
<path d="M414.1,1065.3l0.7,0l0,-934.3l-0.7,0l0,934.3Z" class="g2_838" />
<path d="M487.4,1065.3l0.7,0l0,-934.3l-0.7,0l0,934.3Z" class="g2_838" />
<path d="M576,1065.3l0.8,0l0,-934.3l-0.8,0l0,934.3Z" class="g2_838" />
<path d="M853.1,1064.5l0.8,0l0,-932.7l-0.8,0l0,932.7Z" class="g2_838" />
<path d="M67.2,131.7l786.7,0l0,-0.7L67.2,131l0,0.7Z" class="g2_838" />
<path d="M67.2,185.3l786.7,0l0,-0.8l-786.7,0l0,0.8Z" class="g2_838" />
<path d="M67.2,258.6l786.7,0l0,-0.7l-786.7,0l0,0.7Z" class="g2_838" />
<path d="M67.2,331.9l786.7,0l0,-0.7l-786.7,0l0,0.7Z" class="g2_838" />
<path d="M67.2,405.3l786.7,0l0,-0.8l-786.7,0l0,0.8Z" class="g2_838" />
<path d="M67.2,478.6l786.7,0l0,-0.7l-786.7,0l0,0.7Z" class="g2_838" />
<path d="M67.2,551.9l786.7,0l0,-0.7l-786.7,0l0,0.7Z" class="g2_838" />
<path d="M67.2,625.3l786.7,0l0,-0.8l-786.7,0l0,0.8Z" class="g2_838" />
<path d="M67.2,698.6l786.7,0l0,-0.7l-786.7,0l0,0.7Z" class="g2_838" />
<path d="M67.2,771.9l786.7,0l0,-0.7l-786.7,0l0,0.7Z" class="g2_838" />
<path d="M67.2,845.3l786.7,0l0,-0.8l-786.7,0l0,0.8Z" class="g2_838" />
<path d="M67.2,918.6l786.7,0l0,-0.7l-786.7,0l0,0.7Z" class="g2_838" />
<path d="M67.2,991.9l786.7,0l0,-0.7l-786.7,0l0,0.7Z" class="g2_838" />
<path d="M67.2,1065.3l786.7,0l0,-0.8l-786.7,0l0,0.8Z" class="g2_838" />
</svg>