<?xml version="1.0" encoding="UTF-8" standalone="no"?>
<!DOCTYPE svg PUBLIC "-//W3C//DTD SVG 1.1//EN"
"http://www.w3.org/Graphics/SVG/1.1/DTD/svg11.dtd">
<svg viewBox="0 0 935 1210" version="1.1" xmlns="http://www.w3.org/2000/svg" xmlns:xlink="http://www.w3.org/1999/xlink">
<defs>
<style type="text/css"><![CDATA[
.g1_2158{
fill: #FFFFFF;
}
.g2_2158{
}
]]></style>
</defs>
<path d="M68.8,1149.3l783.7,0l0,-21.2l-783.7,0l0,21.2Z" class="g1_2158" />
<path d="M68.6,1078.3l0.7,0l0,-971l-0.7,0l0,971Z" class="g2_2158" />
<path d="M443.8,1079l0.8,0l0,-972.4l-0.8,0l0,972.4Z" class="g2_2158" />
<path d="M849.9,1078.3l0.8,0l0,-971l-0.8,0l0,971Z" class="g2_2158" />
<path d="M68.6,107.3l782.1,0l0,-0.7l-782.1,0l0,0.7Z" class="g2_2158" />
<path d="M68.6,131.7l782.1,0l0,-0.7L68.6,131l0,0.7Z" class="g2_2158" />
<path d="M68.6,156.2l782.1,0l0,-0.7l-782.1,0l0,0.7Z" class="g2_2158" />
<path d="M68.6,180.7l782.1,0l0,-0.8l-782.1,0l0,0.8Z" class="g2_2158" />
<path d="M68.6,205.1l782.1,0l0,-0.8l-782.1,0l0,0.8Z" class="g2_2158" />
<path d="M68.6,229.5l782.1,0l0,-0.7l-782.1,0l0,0.7Z" class="g2_2158" />
<path d="M68.6,254l782.1,0l0,-0.7l-782.1,0l0,0.7Z" class="g2_2158" />
<path d="M68.6,278.4l782.1,0l0,-0.7l-782.1,0l0,0.7Z" class="g2_2158" />
<path d="M68.6,319.6l782.1,0l0,-0.7l-782.1,0l0,0.7Z" class="g2_2158" />
<path d="M68.6,344.1l782.1,0l0,-0.7l-782.1,0l0,0.7Z" class="g2_2158" />
<path d="M68.6,368.6l782.1,0l0,-0.7l-782.1,0l0,0.7Z" class="g2_2158" />
<path d="M68.6,393l782.1,0l0,-0.8l-782.1,0l0,0.8Z" class="g2_2158" />
<path d="M68.6,417.4l782.1,0l0,-0.7l-782.1,0l0,0.7Z" class="g2_2158" />
<path d="M68.6,458.7l782.1,0l0,-0.7L68.6,458l0,0.7Z" class="g2_2158" />
<path d="M68.6,483.2l782.1,0l0,-0.8l-782.1,0l0,0.8Z" class="g2_2158" />
<path d="M68.6,507.7l782.1,0l0,-0.8l-782.1,0l0,0.8Z" class="g2_2158" />
<path d="M68.6,532l782.1,0l0,-0.7l-782.1,0l0,0.7Z" class="g2_2158" />
<path d="M68.6,556.5l782.1,0l0,-0.7l-782.1,0l0,0.7Z" class="g2_2158" />
<path d="M68.6,581l782.1,0l0,-0.8l-782.1,0l0,0.8Z" class="g2_2158" />
<path d="M68.6,605.4l782.1,0l0,-0.8l-782.1,0l0,0.8Z" class="g2_2158" />
<path d="M68.6,629.8l782.1,0l0,-0.7l-782.1,0l0,0.7Z" class="g2_2158" />
<path d="M68.6,654.3l782.1,0l0,-0.7l-782.1,0l0,0.7Z" class="g2_2158" />
<path d="M68.6,678.7l782.1,0l0,-0.7L68.6,678l0,0.7Z" class="g2_2158" />
<path d="M68.6,703.2l782.1,0l0,-0.8l-782.1,0l0,0.8Z" class="g2_2158" />
<path d="M68.6,727.7l782.1,0l0,-0.8l-782.1,0l0,0.8Z" class="g2_2158" />
<path d="M68.6,752l782.1,0l0,-0.7l-782.1,0l0,0.7Z" class="g2_2158" />
<path d="M68.6,776.5l782.1,0l0,-0.7l-782.1,0l0,0.7Z" class="g2_2158" />
<path d="M68.6,801l782.1,0l0,-0.8l-782.1,0l0,0.8Z" class="g2_2158" />
<path d="M68.6,825.4l782.1,0l0,-0.8l-782.1,0l0,0.8Z" class="g2_2158" />
<path d="M68.6,849.8l782.1,0l0,-0.7l-782.1,0l0,0.7Z" class="g2_2158" />
<path d="M68.6,891.1l782.1,0l0,-0.7l-782.1,0l0,0.7Z" class="g2_2158" />
<path d="M68.6,915.6l782.1,0l0,-0.8l-782.1,0l0,0.8Z" class="g2_2158" />
<path d="M68.6,940l782.1,0l0,-0.8l-782.1,0l0,0.8Z" class="g2_2158" />
<path d="M68.6,964.4l782.1,0l0,-0.7l-782.1,0l0,0.7Z" class="g2_2158" />
<path d="M68.6,988.9l782.1,0l0,-0.7l-782.1,0l0,0.7Z" class="g2_2158" />
<path d="M68.6,1030.2l782.1,0l0,-0.8l-782.1,0l0,0.8Z" class="g2_2158" />
<path d="M68.6,1054.5l782.1,0l0,-0.7l-782.1,0l0,0.7Z" class="g2_2158" />
<path d="M68.6,1079l782.1,0l0,-0.7l-782.1,0l0,0.7Z" class="g2_2158" />
</svg>