<?xml version="1.0" encoding="UTF-8" standalone="no"?>
<!DOCTYPE svg PUBLIC "-//W3C//DTD SVG 1.1//EN"
"http://www.w3.org/Graphics/SVG/1.1/DTD/svg11.dtd">
<svg viewBox="0 0 935 1210" version="1.1" xmlns="http://www.w3.org/2000/svg" xmlns:xlink="http://www.w3.org/1999/xlink">
<defs>
<style type="text/css"><![CDATA[
.g1_265{
fill: #FFFFFF;
}
.g2_265{
}
]]></style>
</defs>
<path d="M68.9,1149.3l686.3,0l0,-21.2l-686.3,0l0,21.2Z" class="g1_265" />
<path d="M771.3,1149.3l83.7,0l0,-21.2l-83.7,0l0,21.2Z" class="g1_265" />
<path d="M70.5,800.2l0.7,0L71.2,581l-0.7,0l0,219.2Z" class="g2_265" />
<path d="M470.2,801l0.7,0l0,-220.8l-0.7,0l0,220.8Z" class="g2_265" />
<path d="M851.5,800.2l0.7,0l0,-219.2l-0.7,0l0,219.2Z" class="g2_265" />
<path d="M70.5,581l781.7,0l0,-0.8l-781.7,0l0,0.8Z" class="g2_265" />
<path d="M70.5,605.4l781.7,0l0,-0.8l-781.7,0l0,0.8Z" class="g2_265" />
<path d="M70.5,629.8l781.7,0l0,-0.7l-781.7,0l0,0.7Z" class="g2_265" />
<path d="M70.5,654.3l781.7,0l0,-0.7l-781.7,0l0,0.7Z" class="g2_265" />
<path d="M70.5,678.7l781.7,0l0,-0.7L70.5,678l0,0.7Z" class="g2_265" />
<path d="M70.5,703.2l781.7,0l0,-0.8l-781.7,0l0,0.8Z" class="g2_265" />
<path d="M70.5,727.7l781.7,0l0,-0.8l-781.7,0l0,0.8Z" class="g2_265" />
<path d="M70.5,752l781.7,0l0,-0.7l-781.7,0l0,0.7Z" class="g2_265" />
<path d="M70.5,776.5l781.7,0l0,-0.7l-781.7,0l0,0.7Z" class="g2_265" />
<path d="M70.5,801l781.7,0l0,-0.8l-781.7,0l0,0.8Z" class="g2_265" />
</svg>