<?xml version="1.0" encoding="UTF-8" standalone="no"?>
<!DOCTYPE svg PUBLIC "-//W3C//DTD SVG 1.1//EN"
"http://www.w3.org/Graphics/SVG/1.1/DTD/svg11.dtd">
<svg viewBox="0 0 935 1210" version="1.1" xmlns="http://www.w3.org/2000/svg" xmlns:xlink="http://www.w3.org/1999/xlink">
<defs>
<style type="text/css"><![CDATA[
.g1_214{
fill: #FFFFFF;
}
.g2_214{
}
]]></style>
</defs>
<path d="M165,1149.3l687.5,0l0,-21.2l-687.5,0l0,21.2Z" class="g1_214" />
<path d="M68.8,1149.3l82.5,0l0,-21.2l-82.5,0l0,21.2Z" class="g1_214" />
<path d="M68.4,208.9l0.7,0l0,-83.2l-0.7,0l0,83.2Z" class="g2_214" />
<path d="M219.6,209.7l0.8,0l0,-84.8l-0.8,0l0,84.8Z" class="g2_214" />
<path d="M391.1,209.7l0.8,0l0,-84.8l-0.8,0l0,84.8Z" class="g2_214" />
<path d="M429,209.7l0.7,0l0,-84.8l-0.7,0l0,84.8Z" class="g2_214" />
<path d="M502.3,209.7l0.8,0l0,-84.8l-0.8,0l0,84.8Z" class="g2_214" />
<path d="M573.7,209.7l0.7,0l0,-84.8l-0.7,0l0,84.8Z" class="g2_214" />
<path d="M852,208.9l0.7,0l0,-83.2l-0.7,0l0,83.2Z" class="g2_214" />
<path d="M68.4,125.7l784.4,0l0,-0.8l-784.4,0l0,0.8Z" class="g2_214" />
<path d="M68.4,163.8l784.4,0l0,-0.7l-784.4,0l0,0.7Z" class="g2_214" />
<path d="M68.4,186.7l784.4,0l0,-0.7L68.4,186l0,0.7Z" class="g2_214" />
<path d="M68.4,209.6l784.4,0l0,-0.7l-784.4,0l0,0.7Z" class="g2_214" />
<path d="M69.1,355.6l0.8,0l0,-48.2l-0.8,0l0,48.2Z" class="g2_214" />
<path d="M134.2,356.4l0.7,0l0,-49.7l-0.7,0l0,49.7Z" class="g2_214" />
<path d="M310.7,356.4l0.7,0l0,-49.7l-0.7,0l0,49.7Z" class="g2_214" />
<path d="M486.8,356.4l0.8,0l0,-49.7l-0.8,0l0,49.7Z" class="g2_214" />
<path d="M663.5,356.4l0.7,0l0,-49.7l-0.7,0l0,49.7Z" class="g2_214" />
<path d="M851.3,355.6l0.7,0l0,-48.2l-0.7,0l0,48.2Z" class="g2_214" />
<path d="M69.1,307.4l782.9,0l0,-0.7l-782.9,0l0,0.7Z" class="g2_214" />
<path d="M69.1,331.9l782.9,0l0,-0.7l-782.9,0l0,0.7Z" class="g2_214" />
<path d="M69.1,356.3l782.9,0l0,-0.7l-782.9,0l0,0.7Z" class="g2_214" />
</svg>