<?xml version="1.0" encoding="UTF-8" standalone="no"?>
<!DOCTYPE svg PUBLIC "-//W3C//DTD SVG 1.1//EN"
"http://www.w3.org/Graphics/SVG/1.1/DTD/svg11.dtd">
<svg viewBox="0 0 935 1210" version="1.1" xmlns="http://www.w3.org/2000/svg" xmlns:xlink="http://www.w3.org/1999/xlink">
<defs>
<style type="text/css"><![CDATA[
.g1_924{
fill: #FFFFFF;
}
.g2_924{
}
]]></style>
</defs>
<path d="M165,1149.3l687.5,0l0,-21.2l-687.5,0l0,21.2Z" class="g1_924" />
<path d="M68.8,1149.3l82.5,0l0,-21.2l-82.5,0l0,21.2Z" class="g1_924" />
<path d="M68.6,251.7l0.7,0l0,-126l-0.7,0l0,126Z" class="g2_924" />
<path d="M267,252.4l0.8,0l0,-127.5l-0.8,0l0,127.5Z" class="g2_924" />
<path d="M315.3,252.4l0.8,0l0,-127.5l-0.8,0l0,127.5Z" class="g2_924" />
<path d="M373.8,252.4l0.8,0l0,-127.5l-0.8,0l0,127.5Z" class="g2_924" />
<path d="M441.5,252.4l0.7,0l0,-127.5l-0.7,0l0,127.5Z" class="g2_924" />
<path d="M857.4,251.7l0.7,0l0,-126l-0.7,0l0,126Z" class="g2_924" />
<path d="M68.6,125.7l789.5,0l0,-0.8l-789.5,0l0,0.8Z" class="g2_924" />
<path d="M68.6,179.1l789.5,0l0,-0.7l-789.5,0l0,0.7Z" class="g2_924" />
<path d="M68.6,215.8l789.5,0l0,-0.8L68.6,215l0,0.8Z" class="g2_924" />
<path d="M68.6,252.4l789.5,0l0,-0.7l-789.5,0l0,0.7Z" class="g2_924" />
<path d="M69.1,355.6l0.8,0l0,-48.2l-0.8,0l0,48.2Z" class="g2_924" />
<path d="M137,356.4l0.8,0l0,-49.7l-0.8,0l0,49.7Z" class="g2_924" />
<path d="M305.9,356.4l0.7,0l0,-49.7l-0.7,0l0,49.7Z" class="g2_924" />
<path d="M485.1,356.4l0.7,0l0,-49.7l-0.7,0l0,49.7Z" class="g2_924" />
<path d="M662.6,356.4l0.7,0l0,-49.7l-0.7,0l0,49.7Z" class="g2_924" />
<path d="M851.3,355.6l0.7,0l0,-48.2l-0.7,0l0,48.2Z" class="g2_924" />
<path d="M69.1,307.4l782.9,0l0,-0.7l-782.9,0l0,0.7Z" class="g2_924" />
<path d="M69.1,331.9l782.9,0l0,-0.7l-782.9,0l0,0.7Z" class="g2_924" />
<path d="M69.1,356.3l782.9,0l0,-0.7l-782.9,0l0,0.7Z" class="g2_924" />
<path d="M547.2,559.5l0.7,0l0,-0.3l-0.7,0l0,0.3Z" class="g2_924" />
<path d="M547.2,603.8l0.7,0l0,-44.3l-0.7,0l0,44.3Z" class="g2_924" />
<path d="M643.6,559.5l0.7,0l0,-0.3l-0.7,0l0,0.3Z" class="g2_924" />
<path d="M643.6,603.8l0.7,0l0,-44.3l-0.7,0l0,44.3Z" class="g2_924" />
<path d="M346.6,560.3l0.7,0l0,-0.4l-0.7,0l0,0.4Z" class="g2_924" />
<path d="M346.6,604.5l0.7,0l0,-44.2l-0.7,0l0,44.2Z" class="g2_924" />
<path d="M689.9,679.3l3,-2.7l0.7,-0.6l0.5,0.9l6.6,13.1l1.2,2.4L699.6,691L687,683.5l-0.8,-0.6l0.7,-0.7l1,-0.1l12.4,7.5l-0.7,1.4l-0.3,-0.4l-6.6,-13.1l1.4,-0.6l-0.2,0.9l-3,2.7Z" class="g2_924" />
<path d="M687,682.2l2.9,-2.9l1,1.2l-2.9,2.9Z" class="g2_924" />
<path fill-rule="evenodd" d="M690.3,679.9l3.1,-2.8l6.6,13.1l-12.6,-7.5Z" class="g2_924" />
<path d="M646.3,632.1l-0.1,-0.2l-0.6,0.4l0.2,0.3Z" class="g2_924" />
<path d="M690.2,679.2l0.1,0.2l-0.5,0.5l-0.2,-0.3Z" class="g2_924" />
<path d="M646.3,632.1l-0.5,0.5l43.8,47l0.6,-0.4Z" class="g2_924" />
<path d="M658.3,683.8l1.7,-3.6l0.5,-0.9l0.7,0.6l11,9.7l2,1.8L671.6,691l-14.4,-2.5l-1.1,-0.3l0.5,-0.8l0.8,-0.4l14.4,2.4l-0.2,1.6l-0.4,-0.3l-11,-9.7l1,-1.1l0.2,0.9l-1.8,3.7Z" class="g2_924" />
<path d="M656.6,687.4l1.7,-3.6l1.3,0.7l-1.6,3.6Z" class="g2_924" />
<path fill-rule="evenodd" d="M658.9,684.1l1.7,-3.7l11,9.8l-14.3,-2.5Z" class="g2_924" />
<path d="M550.5,632l-0.2,0l-0.3,0.6l0.3,0.1Z" class="g2_924" />
<path d="M658.4,683.5l0.3,0.1l-0.3,0.6l-0.2,-0.1Z" class="g2_924" />
<path d="M550.5,632l-0.2,0.7l107.9,51.4l0.2,-0.6Z" class="g2_924" />
<path d="M624.1,683.6l1.5,-3.8l0.5,-0.9l0.7,0.6l11.5,9.1l2.1,1.7L637.7,690l-14.5,-1.6l-1.1,-0.2l0.4,-0.9l0.7,-0.4l14.6,1.5l-0.1,1.6l-0.4,-0.2l-11.5,-9.1l1,-1.2l0.2,0.9l-1.6,3.7Z" class="g2_924" />
<path d="M622.5,687.3l1.6,-3.7l1.3,0.5l-1.5,3.8Z" class="g2_924" />
<path fill-rule="evenodd" d="M624.7,683.8l1.6,-3.7l11.4,9.1l-14.5,-1.6Z" class="g2_924" />
<path d="M497,631.7l-0.3,-0.1l-0.2,0.6l0.2,0.1Z" class="g2_924" />
<path d="M624.2,683.3l0.2,0.1l-0.2,0.6l-0.3,-0.1Z" class="g2_924" />
<path d="M497,631.7l-0.3,0.6l127.2,51.6l0.3,-0.6Z" class="g2_924" />
<path d="M596.8,684.2l0.8,-3.9l0.2,-1l1,0.5l12.9,6.9L614,688l-2.7,0l-14.5,1.1l-1.1,0l0.2,-1l0.8,-0.5l14.5,-1l0.1,1.4l-0.4,0l-13,-6.9l0.9,-1.3l0.3,0.8l-0.8,4Z" class="g2_924" />
<path d="M595.9,688.1l0.9,-3.9l1.5,0.4l-0.8,3.9Z" class="g2_924" />
<path fill-rule="evenodd" d="M597.5,684.4l0.8,-4l12.9,6.9l-14.5,1Z" class="g2_924" />
<path d="M349.9,630.8l-0.4,-0.1l-0.2,0.7l0.4,0.1Z" class="g2_924" />
<path d="M596.8,683.8l0.4,0.1l-0.2,0.8l-0.3,-0.1Z" class="g2_924" />
<path d="M349.9,630.8l-0.2,0.7l247,53.1l0.1,-0.8Z" class="g2_924" />
<path d="M495.5,560.3l0.8,0l0,-0.4l-0.8,0l0,0.4Z" class="g2_924" />
<path d="M495.5,604.6l0.8,0l0,-44.3l-0.8,0l0,44.3Z" class="g2_924" />
<path d="M561.4,560.4l29.6,0l0,-27.7l-29.6,0l0,27.7Z" class="g1_924" />
<path d="M561.4,533l29.9,0l0,-0.7l-29.9,0l0,0.7Z" class="g2_924" />
<path d="M590.6,560.7l0.7,0l0,-28l-0.7,0l0,28Z" class="g2_924" />
<path d="M561,560.7l30,0l0,-0.7l-30,0l0,0.7Z" class="g2_924" />
<path d="M561,560.4l0.7,0l0,-28.1l-0.7,0l0,28.1Z" class="g2_924" />
<path d="M472.7,560.3l29.6,0l0,-27.7l-29.6,0l0,27.7Z" class="g1_924" />
<path d="M472.7,532.9l30,0l0,-0.7l-30,0l0,0.7Z" class="g2_924" />
<path d="M502,560.6l0.7,0l0,-28l-0.7,0l0,28Z" class="g2_924" />
<path d="M472.4,560.6l29.9,0l0,-0.7l-29.9,0l0,0.7Z" class="g2_924" />
<path d="M472.4,560.3l0.7,0l0,-28.1l-0.7,0l0,28.1Z" class="g2_924" />
<path d="M502.3,560.3l29.6,0l0,-27.7l-29.6,0l0,27.7Z" class="g1_924" />
<path d="M502.3,532.9l30,0l0,-0.7l-30,0l0,0.7Z" class="g2_924" />
<path d="M531.6,560.6l0.7,0l0,-28l-0.7,0l0,28Z" class="g2_924" />
<path d="M502,560.6l29.9,0l0,-0.7l-29.9,0l0,0.7Z" class="g2_924" />
<path d="M502,560.3l0.7,0l0,-28.1l-0.7,0l0,28.1Z" class="g2_924" />
<path d="M531.9,560.3l29.6,0l0,-27.7l-29.6,0l0,27.7Z" class="g1_924" />
<path d="M531.9,532.9l29.9,0l0,-0.7l-29.9,0l0,0.7Z" class="g2_924" />
<path d="M561.1,560.6l0.7,0l0,-28l-0.7,0l0,28Z" class="g2_924" />
<path d="M531.6,560.6l29.9,0l0,-0.7l-29.9,0l0,0.7Z" class="g2_924" />
<path d="M531.6,560.3l0.7,0l0,-28.1l-0.7,0l0,28.1Z" class="g2_924" />
<path d="M354.8,560.3l29.7,0l0,-27.7l-29.7,0l0,27.7Z" class="g1_924" />
<path d="M354.8,532.9l30,0l0,-0.7l-30,0l0,0.7Z" class="g2_924" />
<path d="M384.1,560.6l0.7,0l0,-28l-0.7,0l0,28Z" class="g2_924" />
<path d="M354.5,560.6l30,0l0,-0.7l-30,0l0,0.7Z" class="g2_924" />
<path d="M354.5,560.3l0.7,0l0,-28.1l-0.7,0l0,28.1Z" class="g2_924" />
<path d="M325,560.4l29.7,0l0,-27.7l-29.7,0l0,27.7Z" class="g1_924" />
<path d="M325,533l30,0l0,-0.7l-30,0l0,0.7Z" class="g2_924" />
<path d="M354.3,560.7l0.7,0l0,-28l-0.7,0l0,28Z" class="g2_924" />
<path d="M324.7,560.7l30,0l0,-0.7l-30,0l0,0.7Z" class="g2_924" />
<path d="M324.7,560.4l0.7,0l0,-28.1l-0.7,0l0,28.1Z" class="g2_924" />
<path d="M236.4,560.3l29.6,0l0,-27.7l-29.6,0l0,27.7Z" class="g1_924" />
<path d="M236.4,532.9l30,0l0,-0.7l-30,0l0,0.7Z" class="g2_924" />
<path d="M265.7,560.6l0.7,0l0,-28l-0.7,0l0,28Z" class="g2_924" />
<path d="M236,560.6l30,0l0,-0.7l-30,0l0,0.7Z" class="g2_924" />
<path d="M236,560.3l0.8,0l0,-28.1l-0.8,0l0,28.1Z" class="g2_924" />
<path d="M266,560.3l29.6,0l0,-27.7l-29.6,0l0,27.7Z" class="g1_924" />
<path d="M266,532.9l30,0l0,-0.7l-30,0l0,0.7Z" class="g2_924" />
<path d="M295.3,560.6l0.7,0l0,-28l-0.7,0l0,28Z" class="g2_924" />
<path d="M265.7,560.6l29.9,0l0,-0.7l-29.9,0l0,0.7Z" class="g2_924" />
<path d="M265.7,560.3l0.7,0l0,-28.1l-0.7,0l0,28.1Z" class="g2_924" />
<path d="M295.6,560.3l29.6,0l0,-27.7l-29.6,0l0,27.7Z" class="g1_924" />
<path d="M295.6,532.9l30,0l0,-0.7l-30,0l0,0.7Z" class="g2_924" />
<path d="M324.9,560.6l0.7,0l0,-28l-0.7,0l0,28Z" class="g2_924" />
<path d="M295.3,560.6l29.9,0l0,-0.7l-29.9,0l0,0.7Z" class="g2_924" />
<path d="M295.3,560.3l0.7,0l0,-28.1l-0.7,0l0,28.1Z" class="g2_924" />
<path d="M679.3,560.4l29.7,0l0,-27.7l-29.7,0l0,27.7Z" class="g1_924" />
<path d="M679.3,533l30,0l0,-0.7l-30,0l0,0.7Z" class="g2_924" />
<path d="M708.6,560.7l0.7,0l0,-28l-0.7,0l0,28Z" class="g2_924" />
<path d="M679,560.7l30,0l0,-0.7l-30,0l0,0.7Z" class="g2_924" />
<path d="M679,560.4l0.7,0l0,-28.1l-0.7,0l0,28.1Z" class="g2_924" />
<path d="M590.7,560.4l29.6,0l0,-27.6l-29.6,0l0,27.6Z" class="g1_924" />
<path d="M590.7,533.1l30,0l0,-0.7l-30,0l0,0.7Z" class="g2_924" />
<path d="M619.9,560.8l0.8,0l0,-28l-0.8,0l0,28Z" class="g2_924" />
<path d="M590.3,560.8l30,0l0,-0.7l-30,0l0,0.7Z" class="g2_924" />
<path d="M590.3,560.4l0.8,0l0,-28l-0.8,0l0,28Z" class="g2_924" />
<path d="M620.3,560.3l29.6,0l0,-27.7l-29.6,0l0,27.7Z" class="g1_924" />
<path d="M620.3,532.9l30,0l0,-0.7l-30,0l0,0.7Z" class="g2_924" />
<path d="M649.6,560.6l0.7,0l0,-28l-0.7,0l0,28Z" class="g2_924" />
<path d="M619.9,560.6l30,0l0,-0.7l-30,0l0,0.7Z" class="g2_924" />
<path d="M619.9,560.3l0.8,0l0,-28.1l-0.8,0l0,28.1Z" class="g2_924" />
<path d="M649.9,559.5l29.6,0l0,-27.7l-29.6,0l0,27.7Z" class="g1_924" />
<path d="M649.9,532.2l30,0l0,-0.7l-30,0l0,0.7Z" class="g2_924" />
<path d="M679.2,559.9l0.7,0l0,-28.1l-0.7,0l0,28.1Z" class="g2_924" />
<path d="M649.6,559.9l29.9,0l0,-0.7l-29.9,0l0,0.7Z" class="g2_924" />
<path d="M649.6,559.5l0.7,0l0,-28l-0.7,0l0,28Z" class="g2_924" />
<path d="M393.5,548.6l6.8,0l0,-1.5l-6.8,0l0,1.5Z" class="g2_924" />
<path d="M409.9,548.6l12.5,0l0,-1.5l-12.5,0l0,1.5Z" class="g2_924" />
<path d="M431.9,548.6l12.6,0l0,-1.5l-12.6,0l0,1.5Z" class="g2_924" />
<path d="M454,548.6l6.9,0l0,-1.5l-6.9,0l0,1.5Z" class="g2_924" />
<path d="M564.2,631.6l29.6,0l0,-28.3l-29.6,0l0,28.3Z" class="g1_924" />
<path d="M564.2,603.7l30,0l0,-0.7l-30,0l0,0.7Z" class="g2_924" />
<path d="M593.5,632l0.7,0l0,-28.6l-0.7,0l0,28.6Z" class="g2_924" />
<path d="M563.8,632l30,0l0,-0.8l-30,0l0,0.8Z" class="g2_924" />
<path d="M563.8,631.6l0.8,0l0,-28.6l-0.8,0l0,28.6Z" class="g2_924" />
<path d="M475.6,631.5l29.6,0l0,-27.7l-29.6,0l0,27.7Z" class="g1_924" />
<path d="M475.6,604.2l29.9,0l0,-0.8l-29.9,0l0,0.8Z" class="g2_924" />
<path d="M504.8,631.9l0.7,0l0,-28.1l-0.7,0l0,28.1Z" class="g2_924" />
<path d="M475.2,631.9l30,0l0,-0.8l-30,0l0,0.8Z" class="g2_924" />
<path d="M475.2,631.5l0.7,0l0,-28.1l-0.7,0l0,28.1Z" class="g2_924" />
<path d="M505.2,631.5l29.6,0l0,-27.7l-29.6,0l0,27.7Z" class="g1_924" />
<path d="M505.2,604.2l30,0l0,-0.8l-30,0l0,0.8Z" class="g2_924" />
<path d="M534.4,631.9l0.7,0l0,-28.1l-0.7,0l0,28.1Z" class="g2_924" />
<path d="M504.8,631.9l30,0l0,-0.8l-30,0l0,0.8Z" class="g2_924" />
<path d="M504.8,631.5l0.7,0l0,-28.1l-0.7,0l0,28.1Z" class="g2_924" />
<path d="M534.8,631.5l29.6,0l0,-27.7l-29.6,0l0,27.7Z" class="g1_924" />
<path d="M534.8,604.2l30,0l0,-0.8l-30,0l0,0.8Z" class="g2_924" />
<path d="M564,631.9l0.8,0l0,-28.1l-0.8,0l0,28.1Z" class="g2_924" />
<path d="M534.4,631.9l30,0l0,-0.8l-30,0l0,0.8Z" class="g2_924" />
<path d="M534.4,631.5l0.7,0l0,-28.1l-0.7,0l0,28.1Z" class="g2_924" />
<path d="M357.7,631.4l29.6,0l0,-27.7l-29.6,0l0,27.7Z" class="g1_924" />
<path d="M357.7,604.1l30,0l0,-0.7l-30,0l0,0.7Z" class="g2_924" />
<path d="M386.9,631.8l0.8,0l0,-28.1l-0.8,0l0,28.1Z" class="g2_924" />
<path d="M357.3,631.8l30,0l0,-0.8l-30,0l0,0.8Z" class="g2_924" />
<path d="M357.3,631.4l0.8,0l0,-28.1l-0.8,0l0,28.1Z" class="g2_924" />
<path d="M328,631.5l29.6,0l0,-27.7l-29.6,0l0,27.7Z" class="g1_924" />
<path d="M328,604.2l30,0l0,-0.8l-30,0l0,0.8Z" class="g2_924" />
<path d="M357.2,631.9l0.8,0l0,-28.1l-0.8,0l0,28.1Z" class="g2_924" />
<path d="M327.6,631.9l30,0l0,-0.8l-30,0l0,0.8Z" class="g2_924" />
<path d="M327.6,631.5l0.8,0l0,-28.1l-0.8,0l0,28.1Z" class="g2_924" />
<path d="M239.3,631.4l29.6,0l0,-27.7l-29.6,0l0,27.7Z" class="g1_924" />
<path d="M239.3,604.1l29.9,0l0,-0.7l-29.9,0l0,0.7Z" class="g2_924" />
<path d="M268.5,631.8l0.7,0l0,-28.1l-0.7,0l0,28.1Z" class="g2_924" />
<path d="M239,631.8l29.9,0l0,-0.8L239,631l0,0.8Z" class="g2_924" />
<path d="M239,631.4l0.7,0l0,-28.1l-0.7,0l0,28.1Z" class="g2_924" />
<path d="M268.9,631.4l29.6,0l0,-27.7l-29.6,0l0,27.7Z" class="g1_924" />
<path d="M268.9,604.1l29.9,0l0,-0.7l-29.9,0l0,0.7Z" class="g2_924" />
<path d="M298.1,631.8l0.7,0l0,-28.1l-0.7,0l0,28.1Z" class="g2_924" />
<path d="M268.5,631.8l30,0l0,-0.8l-30,0l0,0.8Z" class="g2_924" />
<path d="M268.5,631.4l0.7,0l0,-28.1l-0.7,0l0,28.1Z" class="g2_924" />
<path d="M298.5,631.4l29.6,0l0,-27.7l-29.6,0l0,27.7Z" class="g1_924" />
<path d="M298.5,604.1l29.9,0l0,-0.7l-29.9,0l0,0.7Z" class="g2_924" />
<path d="M327.7,631.8l0.7,0l0,-28.1l-0.7,0l0,28.1Z" class="g2_924" />
<path d="M298.1,631.8l30,0l0,-0.8l-30,0l0,0.8Z" class="g2_924" />
<path d="M298.1,631.4l0.7,0l0,-28.1l-0.7,0l0,28.1Z" class="g2_924" />
<path d="M682.2,631.5l29.6,0l0,-28.2l-29.6,0l0,28.2Z" class="g1_924" />
<path d="M682.2,603.6l30,0l0,-0.7l-30,0l0,0.7Z" class="g2_924" />
<path d="M711.4,631.9l0.8,0l0,-28.6l-0.8,0l0,28.6Z" class="g2_924" />
<path d="M681.8,631.9l30,0l0,-0.8l-30,0l0,0.8Z" class="g2_924" />
<path d="M681.8,631.5l0.8,0l0,-28.6l-0.8,0l0,28.6Z" class="g2_924" />
<path d="M593.5,631.4l29.7,0l0,-27.7l-29.7,0l0,27.7Z" class="g1_924" />
<path d="M593.5,604.1l30,0l0,-0.7l-30,0l0,0.7Z" class="g2_924" />
<path d="M622.8,631.8l0.7,0l0,-28.1l-0.7,0l0,28.1Z" class="g2_924" />
<path d="M593.2,631.8l30,0l0,-0.8l-30,0l0,0.8Z" class="g2_924" />
<path d="M593.2,631.4l0.7,0l0,-28.1l-0.7,0l0,28.1Z" class="g2_924" />
<path d="M623.2,631.4l29.6,0l0,-27.7l-29.6,0l0,27.7Z" class="g1_924" />
<path d="M623.2,604.1l29.9,0l0,-0.7l-29.9,0l0,0.7Z" class="g2_924" />
<path d="M652.4,631.8l0.7,0l0,-28.1l-0.7,0l0,28.1Z" class="g2_924" />
<path d="M622.8,631.8l30,0l0,-0.8l-30,0l0,0.8Z" class="g2_924" />
<path d="M622.8,631.4l0.7,0l0,-28.1l-0.7,0l0,28.1Z" class="g2_924" />
<path d="M652.8,631.4l29.6,0l0,-27.7l-29.6,0l0,27.7Z" class="g1_924" />
<path d="M652.8,604.1l29.9,0l0,-0.7l-29.9,0l0,0.7Z" class="g2_924" />
<path d="M682,631.8l0.7,0l0,-28.1l-0.7,0l0,28.1Z" class="g2_924" />
<path d="M652.4,631.8l30,0l0,-0.8l-30,0l0,0.8Z" class="g2_924" />
<path d="M652.4,631.4l0.7,0l0,-28.1l-0.7,0l0,28.1Z" class="g2_924" />
<path d="M397.9,617.4l6.9,0l0,-1.6l-6.9,0l0,1.6Z" class="g2_924" />
<path d="M414.3,617.4l12.6,0l0,-1.6l-12.6,0l0,1.6Z" class="g2_924" />
<path d="M436.4,617.4l12.5,0l0,-1.6l-12.5,0l0,1.6Z" class="g2_924" />
<path d="M458.5,617.4l6.8,0l0,-1.6l-6.8,0l0,1.6Z" class="g2_924" />
<path d="M569,717.5l29.6,0l0,-28.3l-29.6,0l0,28.3Z" class="g1_924" />
<path d="M569,689.6l30,0l0,-0.7l-30,0l0,0.7Z" class="g2_924" />
<path d="M598.2,717.8l0.8,0l0,-28.6l-0.8,0l0,28.6Z" class="g2_924" />
<path d="M568.6,717.8l30,0l0,-0.7l-30,0l0,0.7Z" class="g2_924" />
<path d="M568.6,717.5l0.7,0l0,-28.6l-0.7,0l0,28.6Z" class="g2_924" />
<path d="M480.3,717.4l29.6,0l0,-27.7l-29.6,0l0,27.7Z" class="g1_924" />
<path d="M480.3,690.1l30,0l0,-0.8l-30,0l0,0.8Z" class="g2_924" />
<path d="M509.6,717.7l0.7,0l0,-28l-0.7,0l0,28Z" class="g2_924" />
<path d="M480,717.7l29.9,0l0,-0.7L480,717l0,0.7Z" class="g2_924" />
<path d="M480,717.4l0.7,0l0,-28.1l-0.7,0l0,28.1Z" class="g2_924" />
<path d="M509.9,717.4l29.7,0l0,-27.7l-29.7,0l0,27.7Z" class="g1_924" />
<path d="M509.9,690.1l30,0l0,-0.8l-30,0l0,0.8Z" class="g2_924" />
<path d="M539.2,717.7l0.7,0l0,-28l-0.7,0l0,28Z" class="g2_924" />
<path d="M509.6,717.7l30,0l0,-0.7l-30,0l0,0.7Z" class="g2_924" />
<path d="M509.6,717.4l0.7,0l0,-28.1l-0.7,0l0,28.1Z" class="g2_924" />
<path d="M539.6,717.4l29.6,0l0,-27.7l-29.6,0l0,27.7Z" class="g1_924" />
<path d="M539.6,690.1l29.9,0l0,-0.8l-29.9,0l0,0.8Z" class="g2_924" />
<path d="M568.8,717.7l0.7,0l0,-28l-0.7,0l0,28Z" class="g2_924" />
<path d="M539.2,717.7l30,0l0,-0.7l-30,0l0,0.7Z" class="g2_924" />
<path d="M539.2,717.4l0.7,0l0,-28.1l-0.7,0l0,28.1Z" class="g2_924" />
<path d="M362.5,717.4l29.6,0l0,-27.7l-29.6,0l0,27.7Z" class="g1_924" />
<path d="M362.5,690.1l29.9,0l0,-0.8l-29.9,0l0,0.8Z" class="g2_924" />
<path d="M391.7,717.7l0.7,0l0,-28l-0.7,0l0,28Z" class="g2_924" />
<path d="M362.1,717.7l30,0l0,-0.7l-30,0l0,0.7Z" class="g2_924" />
<path d="M362.1,717.4l0.7,0l0,-28.1l-0.7,0l0,28.1Z" class="g2_924" />
<path d="M332.8,717.5l29.6,0l0,-27.7l-29.6,0l0,27.7Z" class="g1_924" />
<path d="M332.8,690.2l29.9,0l0,-0.8l-29.9,0l0,0.8Z" class="g2_924" />
<path d="M362,717.8l0.7,0l0,-28l-0.7,0l0,28Z" class="g2_924" />
<path d="M332.4,717.8l30,0l0,-0.7l-30,0l0,0.7Z" class="g2_924" />
<path d="M332.4,717.5l0.7,0l0,-28.1l-0.7,0l0,28.1Z" class="g2_924" />
<path d="M244.1,717.4l29.6,0l0,-27.7l-29.6,0l0,27.7Z" class="g1_924" />
<path d="M244.1,690.1l30,0l0,-0.8l-30,0l0,0.8Z" class="g2_924" />
<path d="M273.3,717.7l0.8,0l0,-28l-0.8,0l0,28Z" class="g2_924" />
<path d="M243.7,717.7l30,0l0,-0.7l-30,0l0,0.7Z" class="g2_924" />
<path d="M243.7,717.4l0.8,0l0,-28.1l-0.8,0l0,28.1Z" class="g2_924" />
<path d="M273.7,717.4l29.5,0l0,-27.7l-29.5,0l0,27.7Z" class="g1_924" />
<path d="M273.7,690.1l29.9,0l0,-0.8l-29.9,0l0,0.8Z" class="g2_924" />
<path d="M302.9,717.7l0.7,0l0,-28l-0.7,0l0,28Z" class="g2_924" />
<path d="M273.3,717.7l29.9,0l0,-0.7l-29.9,0l0,0.7Z" class="g2_924" />
<path d="M273.3,717.4l0.8,0l0,-28.1l-0.8,0l0,28.1Z" class="g2_924" />
<path d="M303.2,717.4l29.6,0l0,-27.7l-29.6,0l0,27.7Z" class="g1_924" />
<path d="M303.2,690.1l30,0l0,-0.8l-30,0l0,0.8Z" class="g2_924" />
<path d="M332.5,717.7l0.7,0l0,-28l-0.7,0l0,28Z" class="g2_924" />
<path d="M302.9,717.7l29.9,0l0,-0.7l-29.9,0l0,0.7Z" class="g2_924" />
<path d="M302.9,717.4l0.7,0l0,-28.1l-0.7,0l0,28.1Z" class="g2_924" />
<path d="M687,717.5l29.6,0l0,-28.3l-29.6,0l0,28.3Z" class="g1_924" />
<path d="M687,689.6l29.9,0l0,-0.7l-29.9,0l0,0.7Z" class="g2_924" />
<path d="M716.2,717.8l0.7,0l0,-28.6l-0.7,0l0,28.6Z" class="g2_924" />
<path d="M686.7,717.8l29.9,0l0,-0.7l-29.9,0l0,0.7Z" class="g2_924" />
<path d="M686.7,717.5l0.7,0l0,-28.6l-0.7,0l0,28.6Z" class="g2_924" />
<path d="M598.3,718.3l29.6,0l0,-28.6l-29.6,0l0,28.6Z" class="g1_924" />
<path d="M598.3,690.1l30,0l0,-0.8l-30,0l0,0.8Z" class="g2_924" />
<path d="M627.6,718.7l0.7,0l0,-29l-0.7,0l0,29Z" class="g2_924" />
<path d="M597.9,718.7l30,0l0,-0.8l-30,0l0,0.8Z" class="g2_924" />
<path d="M597.9,718.3l0.8,0l0,-29l-0.8,0l0,29Z" class="g2_924" />
<path d="M627.9,717.4l29.6,0l0,-27.7l-29.6,0l0,27.7Z" class="g1_924" />
<path d="M627.9,690.1l30,0l0,-0.8l-30,0l0,0.8Z" class="g2_924" />
<path d="M657.2,717.7l0.7,0l0,-28l-0.7,0l0,28Z" class="g2_924" />
<path d="M627.6,717.7l29.9,0l0,-0.7l-29.9,0l0,0.7Z" class="g2_924" />
<path d="M627.6,717.4l0.7,0l0,-28.1l-0.7,0l0,28.1Z" class="g2_924" />
<path d="M657.5,717.4l29.6,0l0,-27.7l-29.6,0l0,27.7Z" class="g1_924" />
<path d="M657.5,690.1l30,0l0,-0.8l-30,0l0,0.8Z" class="g2_924" />
<path d="M686.8,717.7l0.7,0l0,-28l-0.7,0l0,28Z" class="g2_924" />
<path d="M657.2,717.7l29.9,0l0,-0.7l-29.9,0l0,0.7Z" class="g2_924" />
<path d="M657.2,717.4l0.7,0l0,-28.1l-0.7,0l0,28.1Z" class="g2_924" />
<path d="M402.7,703.3l6.9,0l0,-1.6l-6.9,0l0,1.6Z" class="g2_924" />
<path d="M419.1,703.3l12.6,0l0,-1.6l-12.6,0l0,1.6Z" class="g2_924" />
<path d="M441.2,703.3l12.5,0l0,-1.6l-12.5,0l0,1.6Z" class="g2_924" />
<path d="M463.3,703.3l6.8,0l0,-1.6l-6.8,0l0,1.6Z" class="g2_924" />
<path d="M293.9,736.4l0,5.1l-1,-0.3l-14,-4.1l-2.6,-0.7l2.6,-0.8l14,-4l1,-0.3l0,1l-0.6,0.8l-14,4l-0.4,-1.5l0.4,0l14,4.2l-0.4,1.4l-0.6,-0.7l0,-4.1Z" class="g2_924" />
<path d="M292.3,736.4l1.6,0l0,-4.1l-1.6,0l0,4.1Z" class="g2_924" />
<path fill-rule="evenodd" d="M293.2,736.4l0,4.1l-14.1,-4.1l14.1,-4.1Z" class="g2_924" />
<path d="M670.4,736.7l6.4,0l0,-0.7l-6.4,0l0,0.7Z" class="g2_924" />
<path d="M649.1,736.7l12.1,0l0,-0.7l-12.1,0l0,0.7Z" class="g2_924" />
<path d="M627.8,736.7l12.2,0l0,-0.7l-12.2,0l0,0.7Z" class="g2_924" />
<path d="M606.6,736.7l12.2,0l0,-0.7l-12.2,0l0,0.7Z" class="g2_924" />
<path d="M585.4,736.7l12.1,0l0,-0.7l-12.1,0l0,0.7Z" class="g2_924" />
<path d="M564.1,736.7l12.1,0l0,-0.7l-12.1,0l0,0.7Z" class="g2_924" />
<path d="M542.9,736.7l12.1,0l0,-0.7l-12.1,0l0,0.7Z" class="g2_924" />
<path d="M521.7,736.7l12.1,0l0,-0.7l-12.1,0l0,0.7Z" class="g2_924" />
<path d="M500.4,736.7l12.1,0l0,-0.7l-12.1,0l0,0.7Z" class="g2_924" />
<path d="M490.9,736.7l0.3,0l0,-0.7l-0.3,0l0,0.7Z" class="g2_924" />
<path d="M479.1,736.7l11.8,0l0,-0.7l-11.8,0l0,0.7Z" class="g2_924" />
<path d="M469.6,736.7l0.4,0l0,-0.7l-0.4,0l0,0.7Z" class="g2_924" />
<path d="M457.9,736.7l11.7,0l0,-0.7l-11.7,0l0,0.7Z" class="g2_924" />
<path d="M448.4,736.7l0.4,0l0,-0.7l-0.4,0l0,0.7Z" class="g2_924" />
<path d="M436.7,736.7l11.7,0l0,-0.7l-11.7,0l0,0.7Z" class="g2_924" />
<path d="M427.2,736.7l0.3,0l0,-0.7l-0.3,0l0,0.7Z" class="g2_924" />
<path d="M415.4,736.7l11.8,0l0,-0.7l-11.8,0l0,0.7Z" class="g2_924" />
<path d="M405.9,736.7l0.4,0l0,-0.7l-0.4,0l0,0.7Z" class="g2_924" />
<path d="M394.2,736.7l11.7,0l0,-0.7l-11.7,0l0,0.7Z" class="g2_924" />
<path d="M384.6,736.7l0.4,0l0,-0.7l-0.4,0l0,0.7Z" class="g2_924" />
<path d="M372.9,736.7l11.7,0l0,-0.7l-11.7,0l0,0.7Z" class="g2_924" />
<path d="M363.5,736.7l0.3,0l0,-0.7l-0.3,0l0,0.7Z" class="g2_924" />
<path d="M351.7,736.7l11.8,0l0,-0.7l-11.8,0l0,0.7Z" class="g2_924" />
<path d="M342.2,736.7l0.4,0l0,-0.7l-0.4,0l0,0.7Z" class="g2_924" />
<path d="M330.5,736.7l11.7,0l0,-0.7l-11.7,0l0,0.7Z" class="g2_924" />
<path d="M320.9,736.7l0.4,0l0,-0.7l-0.4,0l0,0.7Z" class="g2_924" />
<path d="M309.2,736.7l11.7,0l0,-0.7l-11.7,0l0,0.7Z" class="g2_924" />
<path d="M299.7,736.7l0.3,0l0,-0.7l-0.3,0l0,0.7Z" class="g2_924" />
<path d="M293.6,736.7l6.1,0l0,-0.7l-6.1,0l0,0.7Z" class="g2_924" />
</svg>