<?xml version="1.0" encoding="UTF-8" standalone="no"?>
<!DOCTYPE svg PUBLIC "-//W3C//DTD SVG 1.1//EN"
"http://www.w3.org/Graphics/SVG/1.1/DTD/svg11.dtd">
<svg viewBox="0 0 935 1210" version="1.1" xmlns="http://www.w3.org/2000/svg" xmlns:xlink="http://www.w3.org/1999/xlink">
<defs>
<style type="text/css"><![CDATA[
.g1_337{
fill: #FFFFFF;
}
.g2_337{
}
]]></style>
</defs>
<path d="M68.9,1149.3l686.3,0l0,-21.2l-686.3,0l0,21.2Z" class="g1_337" />
<path d="M771.3,1149.3l83.7,0l0,-21.2l-83.7,0l0,21.2Z" class="g1_337" />
<path d="M69.9,517.6l0.8,0L70.7,147l-0.8,0l0,370.6Z" class="g2_337" />
<path d="M314.6,518.3l0.7,0l0,-372l-0.7,0l0,372Z" class="g2_337" />
<path d="M361.6,518.3l0.8,0l0,-372l-0.8,0l0,372Z" class="g2_337" />
<path d="M436.1,518.3l0.7,0l0,-372l-0.7,0l0,372Z" class="g2_337" />
<path d="M519.4,518.3l0.7,0l0,-372l-0.7,0l0,372Z" class="g2_337" />
<path d="M854.7,517.6l0.7,0l0,-370.6l-0.7,0l0,370.6Z" class="g2_337" />
<path d="M69.9,147l785.5,0l0,-0.7l-785.5,0l0,0.7Z" class="g2_337" />
<path d="M69.9,197.4l785.5,0l0,-0.7l-785.5,0l0,0.7Z" class="g2_337" />
<path d="M69.9,250.9l785.5,0l0,-0.7l-785.5,0l0,0.7Z" class="g2_337" />
<path d="M69.9,304.4l785.5,0l0,-0.7l-785.5,0l0,0.7Z" class="g2_337" />
<path d="M69.9,357.9l785.5,0l0,-0.8l-785.5,0l0,0.8Z" class="g2_337" />
<path d="M69.9,411.4l785.5,0l0,-0.7l-785.5,0l0,0.7Z" class="g2_337" />
<path d="M69.9,464.8l785.5,0l0,-0.7l-785.5,0l0,0.7Z" class="g2_337" />
<path d="M69.9,518.3l785.5,0l0,-0.7l-785.5,0l0,0.7Z" class="g2_337" />
<path d="M72.4,645.9l0.8,0l0,-72.6l-0.8,0l0,72.6Z" class="g2_337" />
<path d="M171.8,646.6l0.7,0l0,-74.1l-0.7,0l0,74.1Z" class="g2_337" />
<path d="M332.9,646.6l0.8,0l0,-74.1l-0.8,0l0,74.1Z" class="g2_337" />
<path d="M503.6,646.6l0.7,0l0,-74.1l-0.7,0l0,74.1Z" class="g2_337" />
<path d="M674.8,646.6l0.7,0l0,-74.1l-0.7,0l0,74.1Z" class="g2_337" />
<path d="M849.6,645.9l0.7,0l0,-72.6l-0.7,0l0,72.6Z" class="g2_337" />
<path d="M72.4,573.3l778,0l0,-0.7l-778,0l0,0.7Z" class="g2_337" />
<path d="M72.4,597.8l778,0l0,-0.8l-778,0l0,0.8Z" class="g2_337" />
<path d="M72.4,622.2l778,0l0,-0.7l-778,0l0,0.7Z" class="g2_337" />
<path d="M72.4,646.6l778,0l0,-0.7l-778,0l0,0.7Z" class="g2_337" />
</svg>