<?xml version="1.0" encoding="UTF-8" standalone="no"?>
<!DOCTYPE svg PUBLIC "-//W3C//DTD SVG 1.1//EN"
"http://www.w3.org/Graphics/SVG/1.1/DTD/svg11.dtd">
<svg viewBox="0 0 935 1210" version="1.1" xmlns="http://www.w3.org/2000/svg" xmlns:xlink="http://www.w3.org/1999/xlink">
<defs>
<style type="text/css"><![CDATA[
.g1_1902{
fill: #FFFFFF;
}
.g2_1902{
}
]]></style>
</defs>
<path d="M165,1149.3l687.5,0l0,-21.2l-687.5,0l0,21.2Z" class="g1_1902" />
<path d="M68.8,1149.3l82.5,0l0,-21.2l-82.5,0l0,21.2Z" class="g1_1902" />
<path d="M68.6,636.7l0.7,0L69.3,147l-0.7,0l0,489.7Z" class="g2_1902" />
<path d="M305.3,637.4l0.8,0l0,-491.1l-0.8,0l0,491.1Z" class="g2_1902" />
<path d="M359.7,637.4l0.7,0l0,-491.1l-0.7,0l0,491.1Z" class="g2_1902" />
<path d="M434.1,637.4l0.8,0l0,-491.1l-0.8,0l0,491.1Z" class="g2_1902" />
<path d="M519.2,637.4l0.7,0l0,-491.1l-0.7,0l0,491.1Z" class="g2_1902" />
<path d="M852.7,636.7l0.7,0l0,-489.7l-0.7,0l0,489.7Z" class="g2_1902" />
<path d="M68.6,147l784.8,0l0,-0.7l-784.8,0l0,0.7Z" class="g2_1902" />
<path d="M68.6,197.4l784.8,0l0,-0.7l-784.8,0l0,0.7Z" class="g2_1902" />
<path d="M68.6,234.1l784.8,0l0,-0.7l-784.8,0l0,0.7Z" class="g2_1902" />
<path d="M68.6,270.8l784.8,0l0,-0.7l-784.8,0l0,0.7Z" class="g2_1902" />
<path d="M68.6,307.4l784.8,0l0,-0.7l-784.8,0l0,0.7Z" class="g2_1902" />
<path d="M68.6,344.1l784.8,0l0,-0.7l-784.8,0l0,0.7Z" class="g2_1902" />
<path d="M68.6,380.8l784.8,0l0,-0.8L68.6,380l0,0.8Z" class="g2_1902" />
<path d="M68.6,417.4l784.8,0l0,-0.7l-784.8,0l0,0.7Z" class="g2_1902" />
<path d="M68.6,454.1l784.8,0l0,-0.7l-784.8,0l0,0.7Z" class="g2_1902" />
<path d="M68.6,490.8l784.8,0l0,-0.8L68.6,490l0,0.8Z" class="g2_1902" />
<path d="M68.6,527.4l784.8,0l0,-0.7l-784.8,0l0,0.7Z" class="g2_1902" />
<path d="M68.6,564.1l784.8,0l0,-0.7l-784.8,0l0,0.7Z" class="g2_1902" />
<path d="M68.6,600.8l784.8,0l0,-0.7l-784.8,0l0,0.7Z" class="g2_1902" />
<path d="M68.6,637.4l784.8,0l0,-0.7l-784.8,0l0,0.7Z" class="g2_1902" />
<path d="M69.6,757.4l0.7,0l0,-65l-0.7,0l0,65Z" class="g2_1902" />
<path d="M175.8,758.2l0.8,0l0,-66.5l-0.8,0l0,66.5Z" class="g2_1902" />
<path d="M343.2,758.2l0.7,0l0,-66.5l-0.7,0l0,66.5Z" class="g2_1902" />
<path d="M514,758.2l0.7,0l0,-66.5l-0.7,0l0,66.5Z" class="g2_1902" />
<path d="M682.6,758.2l0.8,0l0,-66.5l-0.8,0l0,66.5Z" class="g2_1902" />
<path d="M850.8,757.4l0.8,0l0,-65l-0.8,0l0,65Z" class="g2_1902" />
<path d="M69.5,692.4l782.1,0l0,-0.7l-782.1,0l0,0.7Z" class="g2_1902" />
<path d="M69.5,716.9l782.1,0l0,-0.7l-782.1,0l0,0.7Z" class="g2_1902" />
<path d="M69.5,758.2l782.1,0l0,-0.8l-782.1,0l0,0.8Z" class="g2_1902" />
</svg>