<?xml version="1.0" encoding="UTF-8" standalone="no"?>
<!DOCTYPE svg PUBLIC "-//W3C//DTD SVG 1.1//EN"
"http://www.w3.org/Graphics/SVG/1.1/DTD/svg11.dtd">
<svg viewBox="0 0 935 1210" version="1.1" xmlns="http://www.w3.org/2000/svg" xmlns:xlink="http://www.w3.org/1999/xlink">
<defs>
<style type="text/css"><![CDATA[
.g1_138{
fill: #FFFFFF;
}
.g2_138{
}
]]></style>
</defs>
<path d="M165,1149.3l687.5,0l0,-21.2l-687.5,0l0,21.2Z" class="g1_138" />
<path d="M68.8,1149.3l82.5,0l0,-21.2l-82.5,0l0,21.2Z" class="g1_138" />
<path d="M68.6,445.8l0.7,0l0,-320.1l-0.7,0l0,320.1Z" class="g2_138" />
<path d="M307,446.5l0.7,0l0,-321.6l-0.7,0l0,321.6Z" class="g2_138" />
<path d="M353.9,446.5l0.8,0l0,-321.6l-0.8,0l0,321.6Z" class="g2_138" />
<path d="M428.5,446.5l0.7,0l0,-321.6l-0.7,0l0,321.6Z" class="g2_138" />
<path d="M513.6,446.5l0.7,0l0,-321.6l-0.7,0l0,321.6Z" class="g2_138" />
<path d="M851.5,445.8l0.7,0l0,-320.1l-0.7,0l0,320.1Z" class="g2_138" />
<path d="M68.6,125.7l783.6,0l0,-0.8l-783.6,0l0,0.8Z" class="g2_138" />
<path d="M68.6,176.1l783.6,0l0,-0.7l-783.6,0l0,0.7Z" class="g2_138" />
<path d="M68.6,212.8l783.6,0l0,-0.8L68.6,212l0,0.8Z" class="g2_138" />
<path d="M68.6,249.4l783.6,0l0,-0.7l-783.6,0l0,0.7Z" class="g2_138" />
<path d="M68.6,286.1l783.6,0l0,-0.7l-783.6,0l0,0.7Z" class="g2_138" />
<path d="M68.6,339.5l783.6,0l0,-0.7l-783.6,0l0,0.7Z" class="g2_138" />
<path d="M68.6,393l783.6,0l0,-0.8l-783.6,0l0,0.8Z" class="g2_138" />
<path d="M68.6,446.5l783.6,0l0,-0.7l-783.6,0l0,0.7Z" class="g2_138" />
<path d="M69.4,598.5l0.7,0l0,-97l-0.7,0l0,97Z" class="g2_138" />
<path d="M180.6,599.3l0.7,0l0,-98.5l-0.7,0l0,98.5Z" class="g2_138" />
<path d="M340.7,599.3l0.8,0l0,-98.5l-0.8,0l0,98.5Z" class="g2_138" />
<path d="M509.9,599.3l0.8,0l0,-98.5l-0.8,0l0,98.5Z" class="g2_138" />
<path d="M682.9,599.3l0.8,0l0,-98.5l-0.8,0l0,98.5Z" class="g2_138" />
<path d="M851,598.5l0.8,0l0,-97l-0.8,0l0,97Z" class="g2_138" />
<path d="M69.4,501.5l782.4,0l0,-0.7l-782.4,0l0,0.7Z" class="g2_138" />
<path d="M69.4,526l782.4,0l0,-0.8l-782.4,0l0,0.8Z" class="g2_138" />
<path d="M69.4,550.4l782.4,0l0,-0.8l-782.4,0l0,0.8Z" class="g2_138" />
<path d="M69.4,574.8l782.4,0l0,-0.7l-782.4,0l0,0.7Z" class="g2_138" />
<path d="M69.4,599.3l782.4,0l0,-0.7l-782.4,0l0,0.7Z" class="g2_138" />
</svg>