<?xml version="1.0" encoding="UTF-8" standalone="no"?>
<!DOCTYPE svg PUBLIC "-//W3C//DTD SVG 1.1//EN"
"http://www.w3.org/Graphics/SVG/1.1/DTD/svg11.dtd">
<svg viewBox="0 0 935 1210" version="1.1" xmlns="http://www.w3.org/2000/svg" xmlns:xlink="http://www.w3.org/1999/xlink">
<defs>
<style type="text/css"><![CDATA[
.g1_2142{
fill: #FFFFFF;
}
.g2_2142{
}
]]></style>
</defs>
<path d="M68.8,1149.3l783.7,0l0,-21.2l-783.7,0l0,21.2Z" class="g1_2142" />
<path d="M68.6,1095.1l0.7,0l0,-987.8l-0.7,0l0,987.8Z" class="g2_2142" />
<path d="M443.8,1095.9l0.8,0l0,-989.3l-0.8,0l0,989.3Z" class="g2_2142" />
<path d="M849.9,1095.1l0.8,0l0,-987.8l-0.8,0l0,987.8Z" class="g2_2142" />
<path d="M68.6,107.3l782.1,0l0,-0.7l-782.1,0l0,0.7Z" class="g2_2142" />
<path d="M68.6,131.7l782.1,0l0,-0.7L68.6,131l0,0.7Z" class="g2_2142" />
<path d="M68.6,156.2l782.1,0l0,-0.7l-782.1,0l0,0.7Z" class="g2_2142" />
<path d="M68.6,197.4l782.1,0l0,-0.7l-782.1,0l0,0.7Z" class="g2_2142" />
<path d="M68.6,221.9l782.1,0l0,-0.7l-782.1,0l0,0.7Z" class="g2_2142" />
<path d="M68.6,246.3l782.1,0l0,-0.7l-782.1,0l0,0.7Z" class="g2_2142" />
<path d="M68.6,270.8l782.1,0l0,-0.7l-782.1,0l0,0.7Z" class="g2_2142" />
<path d="M68.6,295.3l782.1,0l0,-0.8l-782.1,0l0,0.8Z" class="g2_2142" />
<path d="M68.6,336.5l782.1,0l0,-0.7l-782.1,0l0,0.7Z" class="g2_2142" />
<path d="M68.6,360.9l782.1,0l0,-0.7l-782.1,0l0,0.7Z" class="g2_2142" />
<path d="M68.6,385.4l782.1,0l0,-0.8l-782.1,0l0,0.8Z" class="g2_2142" />
<path d="M68.6,409.8l782.1,0l0,-0.7l-782.1,0l0,0.7Z" class="g2_2142" />
<path d="M68.6,434.3l782.1,0l0,-0.7l-782.1,0l0,0.7Z" class="g2_2142" />
<path d="M68.6,475.6l782.1,0l0,-0.8l-782.1,0l0,0.8Z" class="g2_2142" />
<path d="M68.6,499.9l782.1,0l0,-0.7l-782.1,0l0,0.7Z" class="g2_2142" />
<path d="M68.6,524.4l782.1,0l0,-0.7l-782.1,0l0,0.7Z" class="g2_2142" />
<path d="M68.6,548.9l782.1,0l0,-0.7l-782.1,0l0,0.7Z" class="g2_2142" />
<path d="M68.6,573.3l782.1,0l0,-0.7l-782.1,0l0,0.7Z" class="g2_2142" />
<path d="M68.6,614.5l782.1,0l0,-0.7l-782.1,0l0,0.7Z" class="g2_2142" />
<path d="M68.6,639l782.1,0l0,-0.7l-782.1,0l0,0.7Z" class="g2_2142" />
<path d="M68.6,663.5l782.1,0l0,-0.7l-782.1,0l0,0.7Z" class="g2_2142" />
<path d="M68.6,687.9l782.1,0l0,-0.8l-782.1,0l0,0.8Z" class="g2_2142" />
<path d="M68.6,712.3l782.1,0l0,-0.7l-782.1,0l0,0.7Z" class="g2_2142" />
<path d="M68.6,736.8l782.1,0l0,-0.7l-782.1,0l0,0.7Z" class="g2_2142" />
<path d="M68.6,761.2l782.1,0l0,-0.7l-782.1,0l0,0.7Z" class="g2_2142" />
<path d="M68.6,785.7l782.1,0l0,-0.8l-782.1,0l0,0.8Z" class="g2_2142" />
<path d="M68.6,810.2l782.1,0l0,-0.8l-782.1,0l0,0.8Z" class="g2_2142" />
<path d="M68.6,851.4l782.1,0l0,-0.7l-782.1,0l0,0.7Z" class="g2_2142" />
<path d="M68.6,875.8l782.1,0l0,-0.7l-782.1,0l0,0.7Z" class="g2_2142" />
<path d="M68.6,900.3l782.1,0l0,-0.8l-782.1,0l0,0.8Z" class="g2_2142" />
<path d="M68.6,924.7l782.1,0l0,-0.7L68.6,924l0,0.7Z" class="g2_2142" />
<path d="M68.6,949.1l782.1,0l0,-0.7l-782.1,0l0,0.7Z" class="g2_2142" />
<path d="M68.6,973.6l782.1,0l0,-0.7l-782.1,0l0,0.7Z" class="g2_2142" />
<path d="M68.6,998.1l782.1,0l0,-0.8l-782.1,0l0,0.8Z" class="g2_2142" />
<path d="M68.6,1022.5l782.1,0l0,-0.8l-782.1,0l0,0.8Z" class="g2_2142" />
<path d="M68.6,1046.9l782.1,0l0,-0.7l-782.1,0l0,0.7Z" class="g2_2142" />
<path d="M68.6,1071.4l782.1,0l0,-0.7l-782.1,0l0,0.7Z" class="g2_2142" />
<path d="M68.6,1095.8l782.1,0l0,-0.8l-782.1,0l0,0.8Z" class="g2_2142" />
</svg>