<?xml version="1.0" encoding="UTF-8" standalone="no"?>
<!DOCTYPE svg PUBLIC "-//W3C//DTD SVG 1.1//EN"
"http://www.w3.org/Graphics/SVG/1.1/DTD/svg11.dtd">
<svg viewBox="0 0 935 1210" version="1.1" xmlns="http://www.w3.org/2000/svg" xmlns:xlink="http://www.w3.org/1999/xlink">
<defs>
<style type="text/css"><![CDATA[
.g1_992{
fill: #FFFFFF;
}
.g2_992{
}
]]></style>
</defs>
<path d="M165,1149.3l687.5,0l0,-21.2l-687.5,0l0,21.2Z" class="g1_992" />
<path d="M68.8,1149.3l82.5,0l0,-21.2l-82.5,0l0,21.2Z" class="g1_992" />
<path d="M68.6,1082.9l0.7,0l0,-957.2l-0.7,0l0,957.2Z" class="g2_992" />
<path d="M300.8,1083.6l0.7,0l0,-958.7l-0.7,0l0,958.7Z" class="g2_992" />
<path d="M348,1083.6l0.7,0l0,-958.7l-0.7,0l0,958.7Z" class="g2_992" />
<path d="M422.5,1083.6l0.7,0l0,-958.7l-0.7,0l0,958.7Z" class="g2_992" />
<path d="M510.9,1083.6l0.7,0l0,-958.7l-0.7,0l0,958.7Z" class="g2_992" />
<path d="M854.2,1082.9l0.7,0l0,-957.2l-0.7,0l0,957.2Z" class="g2_992" />
<path d="M68.6,125.7l786.3,0l0,-0.8l-786.3,0l0,0.8Z" class="g2_992" />
<path d="M68.6,176.1l786.3,0l0,-0.7l-786.3,0l0,0.7Z" class="g2_992" />
<path d="M68.6,212.8l786.3,0l0,-0.8L68.6,212l0,0.8Z" class="g2_992" />
<path d="M68.6,249.4l786.3,0l0,-0.7l-786.3,0l0,0.7Z" class="g2_992" />
<path d="M68.6,286.1l786.3,0l0,-0.7l-786.3,0l0,0.7Z" class="g2_992" />
<path d="M68.6,322.8l786.3,0l0,-0.8L68.6,322l0,0.8Z" class="g2_992" />
<path d="M68.6,359.4l786.3,0l0,-0.7l-786.3,0l0,0.7Z" class="g2_992" />
<path d="M68.6,396.1l786.3,0l0,-0.7l-786.3,0l0,0.7Z" class="g2_992" />
<path d="M68.6,432.8l786.3,0l0,-0.8L68.6,432l0,0.8Z" class="g2_992" />
<path d="M68.6,469.4l786.3,0l0,-0.7l-786.3,0l0,0.7Z" class="g2_992" />
<path d="M68.6,506.1l786.3,0l0,-0.7l-786.3,0l0,0.7Z" class="g2_992" />
<path d="M68.6,542.8l786.3,0l0,-0.8L68.6,542l0,0.8Z" class="g2_992" />
<path d="M68.6,579.4l786.3,0l0,-0.7l-786.3,0l0,0.7Z" class="g2_992" />
<path d="M68.6,616.1l786.3,0l0,-0.7l-786.3,0l0,0.7Z" class="g2_992" />
<path d="M68.6,652.8l786.3,0l0,-0.8L68.6,652l0,0.8Z" class="g2_992" />
<path d="M68.6,689.4l786.3,0l0,-0.7l-786.3,0l0,0.7Z" class="g2_992" />
<path d="M68.6,726.1l786.3,0l0,-0.7l-786.3,0l0,0.7Z" class="g2_992" />
<path d="M68.6,779.5l786.3,0l0,-0.7l-786.3,0l0,0.7Z" class="g2_992" />
<path d="M68.6,816.2l786.3,0l0,-0.7l-786.3,0l0,0.7Z" class="g2_992" />
<path d="M68.6,869.7l786.3,0l0,-0.7L68.6,869l0,0.7Z" class="g2_992" />
<path d="M68.6,923.2l786.3,0l0,-0.8l-786.3,0l0,0.8Z" class="g2_992" />
<path d="M68.6,976.6l786.3,0l0,-0.7l-786.3,0l0,0.7Z" class="g2_992" />
<path d="M68.6,1030.2l786.3,0l0,-0.8l-786.3,0l0,0.8Z" class="g2_992" />
<path d="M68.6,1083.6l786.3,0l0,-0.7l-786.3,0l0,0.7Z" class="g2_992" />
</svg>