<?xml version="1.0" encoding="UTF-8" standalone="no"?>
<!DOCTYPE svg PUBLIC "-//W3C//DTD SVG 1.1//EN"
"http://www.w3.org/Graphics/SVG/1.1/DTD/svg11.dtd">
<svg viewBox="0 0 935 1210" version="1.1" xmlns="http://www.w3.org/2000/svg" xmlns:xlink="http://www.w3.org/1999/xlink">
<defs>
<style type="text/css"><![CDATA[
.g1_1681{
fill: #FFFFFF;
}
.g2_1681{
}
]]></style>
</defs>
<path d="M68.9,1149.3l686.3,0l0,-21.2l-686.3,0l0,21.2Z" class="g1_1681" />
<path d="M771.3,1149.3l83.7,0l0,-21.2l-83.7,0l0,21.2Z" class="g1_1681" />
<path d="M69.9,496.2l0.8,0l0,-370.5l-0.8,0l0,370.5Z" class="g2_1681" />
<path d="M288.9,496.9l0.8,0l0,-372l-0.8,0l0,372Z" class="g2_1681" />
<path d="M333.6,496.9l0.7,0l0,-372l-0.7,0l0,372Z" class="g2_1681" />
<path d="M408.1,496.9l0.7,0l0,-372l-0.7,0l0,372Z" class="g2_1681" />
<path d="M494,496.9l0.7,0l0,-372l-0.7,0l0,372Z" class="g2_1681" />
<path d="M854.2,496.2l0.8,0l0,-370.5l-0.8,0l0,370.5Z" class="g2_1681" />
<path d="M69.9,125.7l785.1,0l0,-0.8l-785.1,0l0,0.8Z" class="g2_1681" />
<path d="M69.9,176.1l785.1,0l0,-0.7l-785.1,0l0,0.7Z" class="g2_1681" />
<path d="M69.9,229.5l785.1,0l0,-0.7l-785.1,0l0,0.7Z" class="g2_1681" />
<path d="M69.9,283L855,283l0,-0.8l-785.1,0l0,0.8Z" class="g2_1681" />
<path d="M69.9,336.5l785.1,0l0,-0.7l-785.1,0l0,0.7Z" class="g2_1681" />
<path d="M69.9,389.9l785.1,0l0,-0.7l-785.1,0l0,0.7Z" class="g2_1681" />
<path d="M69.9,443.5l785.1,0l0,-0.8l-785.1,0l0,0.8Z" class="g2_1681" />
<path d="M69.9,496.9l785.1,0l0,-0.7l-785.1,0l0,0.7Z" class="g2_1681" />
<path d="M70.9,600.1l0.7,0l0,-48.2l-0.7,0l0,48.2Z" class="g2_1681" />
<path d="M168.8,600.8l0.7,0l0,-49.6l-0.7,0l0,49.6Z" class="g2_1681" />
<path d="M336,600.8l0.7,0l0,-49.6l-0.7,0l0,49.6Z" class="g2_1681" />
<path d="M507.9,600.8l0.8,0l0,-49.6l-0.8,0l0,49.6Z" class="g2_1681" />
<path d="M671.6,600.8l0.7,0l0,-49.6l-0.7,0l0,49.6Z" class="g2_1681" />
<path d="M851.1,600.1l0.8,0l0,-48.2l-0.8,0l0,48.2Z" class="g2_1681" />
<path d="M70.9,551.9l781.1,0l0,-0.7l-781.1,0l0,0.7Z" class="g2_1681" />
<path d="M70.9,576.4l781.1,0l0,-0.7l-781.1,0l0,0.7Z" class="g2_1681" />
<path d="M70.9,600.8l781.1,0l0,-0.7l-781.1,0l0,0.7Z" class="g2_1681" />
</svg>