<?xml version="1.0" encoding="UTF-8" standalone="no"?>
<!DOCTYPE svg PUBLIC "-//W3C//DTD SVG 1.1//EN"
"http://www.w3.org/Graphics/SVG/1.1/DTD/svg11.dtd">
<svg viewBox="0 0 935 1210" version="1.1" xmlns="http://www.w3.org/2000/svg" xmlns:xlink="http://www.w3.org/1999/xlink">
<defs>
<style type="text/css"><![CDATA[
.g1_586{
fill: #FFFFFF;
}
.g2_586{
}
]]></style>
</defs>
<path d="M165,1149.3l687.5,0l0,-21.2l-687.5,0l0,21.2Z" class="g1_586" />
<path d="M68.8,1149.3l82.5,0l0,-21.2l-82.5,0l0,21.2Z" class="g1_586" />
<path d="M68.9,1082.9l0.8,0l0,-975.6l-0.8,0l0,975.6Z" class="g2_586" />
<path d="M220.2,1083.6l0.7,0l0,-977l-0.7,0l0,977Z" class="g2_586" />
<path d="M391.7,1083.6l0.7,0l0,-977l-0.7,0l0,977Z" class="g2_586" />
<path d="M429.6,1083.6l0.7,0l0,-977l-0.7,0l0,977Z" class="g2_586" />
<path d="M502.9,1083.6l0.7,0l0,-977l-0.7,0l0,977Z" class="g2_586" />
<path d="M574.3,1083.6l0.7,0l0,-977l-0.7,0l0,977Z" class="g2_586" />
<path d="M851.4,1082.9l0.7,0l0,-975.6l-0.7,0l0,975.6Z" class="g2_586" />
<path d="M68.9,107.3l783.3,0l0,-0.7l-783.3,0l0,0.7Z" class="g2_586" />
<path d="M68.9,145.5l783.3,0l0,-0.8l-783.3,0l0,0.8Z" class="g2_586" />
<path d="M68.9,168.4l783.3,0l0,-0.7l-783.3,0l0,0.7Z" class="g2_586" />
<path d="M68.9,208.2l783.3,0l0,-0.8l-783.3,0l0,0.8Z" class="g2_586" />
<path d="M68.9,231.1l783.3,0l0,-0.7l-783.3,0l0,0.7Z" class="g2_586" />
<path d="M68.9,270.8l783.3,0l0,-0.7l-783.3,0l0,0.7Z" class="g2_586" />
<path d="M68.9,293.7l783.3,0l0,-0.7L68.9,293l0,0.7Z" class="g2_586" />
<path d="M68.9,333.4l783.3,0l0,-0.7l-783.3,0l0,0.7Z" class="g2_586" />
<path d="M68.9,356.3l783.3,0l0,-0.7l-783.3,0l0,0.7Z" class="g2_586" />
<path d="M68.9,396.1l783.3,0l0,-0.7l-783.3,0l0,0.7Z" class="g2_586" />
<path d="M68.9,419l783.3,0l0,-0.7l-783.3,0l0,0.7Z" class="g2_586" />
<path d="M68.9,458.7l783.3,0l0,-0.7L68.9,458l0,0.7Z" class="g2_586" />
<path d="M68.9,481.6l783.3,0l0,-0.7l-783.3,0l0,0.7Z" class="g2_586" />
<path d="M68.9,521.4l783.3,0l0,-0.7l-783.3,0l0,0.7Z" class="g2_586" />
<path d="M68.9,544.3l783.3,0l0,-0.7l-783.3,0l0,0.7Z" class="g2_586" />
<path d="M68.9,584l783.3,0l0,-0.7l-783.3,0l0,0.7Z" class="g2_586" />
<path d="M68.9,606.9l783.3,0l0,-0.7l-783.3,0l0,0.7Z" class="g2_586" />
<path d="M68.9,646.6l783.3,0l0,-0.7l-783.3,0l0,0.7Z" class="g2_586" />
<path d="M68.9,669.5l783.3,0l0,-0.7l-783.3,0l0,0.7Z" class="g2_586" />
<path d="M68.9,709.3l783.3,0l0,-0.7l-783.3,0l0,0.7Z" class="g2_586" />
<path d="M68.9,732.2l783.3,0l0,-0.7l-783.3,0l0,0.7Z" class="g2_586" />
<path d="M68.9,771.9l783.3,0l0,-0.7l-783.3,0l0,0.7Z" class="g2_586" />
<path d="M68.9,794.8l783.3,0l0,-0.7l-783.3,0l0,0.7Z" class="g2_586" />
<path d="M68.9,834.5l783.3,0l0,-0.7l-783.3,0l0,0.7Z" class="g2_586" />
<path d="M68.9,857.5l783.3,0l0,-0.8l-783.3,0l0,0.8Z" class="g2_586" />
<path d="M68.9,897.2l783.3,0l0,-0.7l-783.3,0l0,0.7Z" class="g2_586" />
<path d="M68.9,920.2l783.3,0l0,-0.8l-783.3,0l0,0.8Z" class="g2_586" />
<path d="M68.9,959.8l783.3,0l0,-0.7l-783.3,0l0,0.7Z" class="g2_586" />
<path d="M68.9,1021l783.3,0l0,-0.7l-783.3,0l0,0.7Z" class="g2_586" />
<path d="M68.9,1060.7l783.3,0l0,-0.8l-783.3,0l0,0.8Z" class="g2_586" />
<path d="M68.9,1083.6l783.3,0l0,-0.7l-783.3,0l0,0.7Z" class="g2_586" />
</svg>