<?xml version="1.0" encoding="UTF-8" standalone="no"?>
<!DOCTYPE svg PUBLIC "-//W3C//DTD SVG 1.1//EN"
"http://www.w3.org/Graphics/SVG/1.1/DTD/svg11.dtd">
<svg viewBox="0 0 935 1210" version="1.1" xmlns="http://www.w3.org/2000/svg" xmlns:xlink="http://www.w3.org/1999/xlink">
<defs>
<style type="text/css"><![CDATA[
.g1_1344{
fill: #FFFFFF;
}
.g2_1344{
}
]]></style>
</defs>
<path d="M165,1149.3l687.5,0l0,-21.2l-687.5,0l0,21.2Z" class="g1_1344" />
<path d="M68.8,1149.3l82.5,0l0,-21.2l-82.5,0l0,21.2Z" class="g1_1344" />
<path d="M68.6,529.7l0.7,0l0,-404l-0.7,0l0,404Z" class="g2_1344" />
<path d="M287.6,530.6l0.7,0l0,-405.7l-0.7,0l0,405.7Z" class="g2_1344" />
<path d="M333.4,530.6l0.7,0l0,-405.7l-0.7,0l0,405.7Z" class="g2_1344" />
<path d="M407.8,530.6l0.8,0l0,-405.7l-0.8,0l0,405.7Z" class="g2_1344" />
<path d="M491.8,530.6l0.7,0l0,-405.7l-0.7,0l0,405.7Z" class="g2_1344" />
<path d="M853.3,529.7l0.8,0l0,-404l-0.8,0l0,404Z" class="g2_1344" />
<path d="M68.6,125.7l785.5,0l0,-0.8l-785.5,0l0,0.8Z" class="g2_1344" />
<path d="M68.6,176.1l785.5,0l0,-0.7l-785.5,0l0,0.7Z" class="g2_1344" />
<path d="M68.6,212.8l785.5,0l0,-0.8L68.6,212l0,0.8Z" class="g2_1344" />
<path d="M68.6,266.2l785.5,0l0,-0.7l-785.5,0l0,0.7Z" class="g2_1344" />
<path d="M68.6,319.6l785.5,0l0,-0.7l-785.5,0l0,0.7Z" class="g2_1344" />
<path d="M68.6,389.9l785.5,0l0,-0.7l-785.5,0l0,0.7Z" class="g2_1344" />
<path d="M68.6,460.3l785.5,0l0,-0.8l-785.5,0l0,0.8Z" class="g2_1344" />
<path d="M68.6,530.6l785.5,0l0,-0.8l-785.5,0l0,0.8Z" class="g2_1344" />
<path d="M70.9,682.6l0.8,0l0,-97l-0.8,0l0,97Z" class="g2_1344" />
<path d="M177.9,683.3l0.8,0l0,-98.6l-0.8,0l0,98.6Z" class="g2_1344" />
<path d="M341.8,683.3l0.8,0l0,-98.6l-0.8,0l0,98.6Z" class="g2_1344" />
<path d="M513.4,683.3l0.8,0l0,-98.6l-0.8,0l0,98.6Z" class="g2_1344" />
<path d="M681.4,683.3l0.7,0l0,-98.6l-0.7,0l0,98.6Z" class="g2_1344" />
<path d="M849.5,682.6l0.7,0l0,-97l-0.7,0l0,97Z" class="g2_1344" />
<path d="M70.9,585.6l779.3,0l0,-0.8l-779.3,0l0,0.8Z" class="g2_1344" />
<path d="M70.9,609.9l779.3,0l0,-0.7l-779.3,0l0,0.7Z" class="g2_1344" />
<path d="M70.9,634.4l779.3,0l0,-0.7l-779.3,0l0,0.7Z" class="g2_1344" />
<path d="M70.9,658.9l779.3,0l0,-0.7l-779.3,0l0,0.7Z" class="g2_1344" />
<path d="M70.9,683.3l779.3,0l0,-0.7l-779.3,0l0,0.7Z" class="g2_1344" />
</svg>