<?xml version="1.0" encoding="UTF-8" standalone="no"?>
<!DOCTYPE svg PUBLIC "-//W3C//DTD SVG 1.1//EN"
"http://www.w3.org/Graphics/SVG/1.1/DTD/svg11.dtd">
<svg viewBox="0 0 935 1210" version="1.1" xmlns="http://www.w3.org/2000/svg" xmlns:xlink="http://www.w3.org/1999/xlink">
<defs>
<style type="text/css"><![CDATA[
.g1_1885{
fill: #FFFFFF;
}
.g2_1885{
fill: #0860A8;
}
.g3_1885{
}
]]></style>
</defs>
<path d="M68.9,1149.3l686.3,0l0,-21.2l-686.3,0l0,21.2Z" class="g1_1885" />
<path d="M771.3,1149.3l83.7,0l0,-21.2l-83.7,0l0,21.2Z" class="g1_1885" />
<path d="M544.9,641.8l262.7,0l0,-0.8l-262.7,0l0,0.8Z" class="g2_1885" />
<path d="M70.3,658.6l738.9,0l0,-0.8l-738.9,0l0,0.8Z" class="g2_1885" />
<path d="M69.9,267l0.8,0l0,-120l-0.8,0l0,120Z" class="g3_1885" />
<path d="M258.3,267.8l0.7,0l0,-121.5l-0.7,0l0,121.5Z" class="g3_1885" />
<path d="M303.1,267.8l0.7,0l0,-121.5l-0.7,0l0,121.5Z" class="g3_1885" />
<path d="M377.5,267.8l0.7,0l0,-121.5l-0.7,0l0,121.5Z" class="g3_1885" />
<path d="M466.5,267.8l0.7,0l0,-121.5l-0.7,0l0,121.5Z" class="g3_1885" />
<path d="M851.3,267l0.7,0l0,-120l-0.7,0l0,120Z" class="g3_1885" />
<path d="M69.9,147L852,147l0,-0.7l-782.1,0l0,0.7Z" class="g3_1885" />
<path d="M69.9,197.4l782.1,0l0,-0.7l-782.1,0l0,0.7Z" class="g3_1885" />
<path d="M69.9,267.8l782.1,0l0,-0.8L69.9,267l0,0.8Z" class="g3_1885" />
<path d="M69.4,370.9l0.7,0l0,-48.1l-0.7,0l0,48.1Z" class="g3_1885" />
<path d="M149.3,371.6l0.8,0l0,-49.6l-0.8,0l0,49.6Z" class="g3_1885" />
<path d="M318.9,371.6l0.7,0l0,-49.6l-0.7,0l0,49.6Z" class="g3_1885" />
<path d="M496,371.6l0.7,0l0,-49.6l-0.7,0l0,49.6Z" class="g3_1885" />
<path d="M669.6,371.6l0.8,0l0,-49.6l-0.8,0l0,49.6Z" class="g3_1885" />
<path d="M852.6,370.9l0.7,0l0,-48.1l-0.7,0l0,48.1Z" class="g3_1885" />
<path d="M69.4,322.8l783.9,0l0,-0.8L69.4,322l0,0.8Z" class="g3_1885" />
<path d="M69.4,347.1l783.9,0l0,-0.7l-783.9,0l0,0.7Z" class="g3_1885" />
<path d="M69.4,371.6l783.9,0l0,-0.7l-783.9,0l0,0.7Z" class="g3_1885" />
</svg>