<?xml version="1.0" encoding="UTF-8" standalone="no"?>
<!DOCTYPE svg PUBLIC "-//W3C//DTD SVG 1.1//EN"
"http://www.w3.org/Graphics/SVG/1.1/DTD/svg11.dtd">
<svg viewBox="0 0 935 1210" version="1.1" xmlns="http://www.w3.org/2000/svg" xmlns:xlink="http://www.w3.org/1999/xlink">
<defs>
<style type="text/css"><![CDATA[
.g1_321{
fill: #FFFFFF;
}
.g2_321{
}
]]></style>
</defs>
<path d="M68.9,1149.3l686.3,0l0,-21.2l-686.3,0l0,21.2Z" class="g1_321" />
<path d="M771.3,1149.3l83.7,0l0,-21.2l-83.7,0l0,21.2Z" class="g1_321" />
<path d="M70.9,917.9l0.8,0l0,-578.4l-0.8,0l0,578.4Z" class="g2_321" />
<path d="M189.7,918.6l0.8,0l0,-579.8l-0.8,0l0,579.8Z" class="g2_321" />
<path d="M851,917.9l0.8,0l0,-578.4l-0.8,0l0,578.4Z" class="g2_321" />
<path d="M70.9,339.5l780.9,0l0,-0.7l-780.9,0l0,0.7Z" class="g2_321" />
<path d="M70.9,364l780.9,0l0,-0.7l-780.9,0l0,0.7Z" class="g2_321" />
<path d="M70.9,388.4l780.9,0l0,-0.7l-780.9,0l0,0.7Z" class="g2_321" />
<path d="M70.9,412.9l780.9,0l0,-0.8l-780.9,0l0,0.8Z" class="g2_321" />
<path d="M70.9,437.3l780.9,0l0,-0.7l-780.9,0l0,0.7Z" class="g2_321" />
<path d="M70.9,478.6l780.9,0l0,-0.7l-780.9,0l0,0.7Z" class="g2_321" />
<path d="M70.9,503.1l780.9,0l0,-0.8l-780.9,0l0,0.8Z" class="g2_321" />
<path d="M70.9,527.4l780.9,0l0,-0.7l-780.9,0l0,0.7Z" class="g2_321" />
<path d="M70.9,551.9l780.9,0l0,-0.7l-780.9,0l0,0.7Z" class="g2_321" />
<path d="M70.9,576.4l780.9,0l0,-0.7l-780.9,0l0,0.7Z" class="g2_321" />
<path d="M70.9,600.8l780.9,0l0,-0.7l-780.9,0l0,0.7Z" class="g2_321" />
<path d="M70.9,625.3l780.9,0l0,-0.8l-780.9,0l0,0.8Z" class="g2_321" />
<path d="M70.9,649.7l780.9,0l0,-0.7L70.9,649l0,0.7Z" class="g2_321" />
<path d="M70.9,674.1l780.9,0l0,-0.7l-780.9,0l0,0.7Z" class="g2_321" />
<path d="M70.9,698.6l780.9,0l0,-0.7l-780.9,0l0,0.7Z" class="g2_321" />
<path d="M70.9,723.1l780.9,0l0,-0.8l-780.9,0l0,0.8Z" class="g2_321" />
<path d="M70.9,747.4l780.9,0l0,-0.7l-780.9,0l0,0.7Z" class="g2_321" />
<path d="M70.9,771.9l780.9,0l0,-0.7l-780.9,0l0,0.7Z" class="g2_321" />
<path d="M70.9,796.4l780.9,0l0,-0.7l-780.9,0l0,0.7Z" class="g2_321" />
<path d="M70.9,820.8l780.9,0l0,-0.7l-780.9,0l0,0.7Z" class="g2_321" />
<path d="M70.9,845.3l780.9,0l0,-0.8l-780.9,0l0,0.8Z" class="g2_321" />
<path d="M70.9,869.7l780.9,0l0,-0.7L70.9,869l0,0.7Z" class="g2_321" />
<path d="M70.9,894.1l780.9,0l0,-0.7l-780.9,0l0,0.7Z" class="g2_321" />
<path d="M70.9,918.6l780.9,0l0,-0.7l-780.9,0l0,0.7Z" class="g2_321" />
</svg>