<?xml version="1.0" encoding="UTF-8" standalone="no"?>
<!DOCTYPE svg PUBLIC "-//W3C//DTD SVG 1.1//EN"
"http://www.w3.org/Graphics/SVG/1.1/DTD/svg11.dtd">
<svg viewBox="0 0 935 1210" version="1.1" xmlns="http://www.w3.org/2000/svg" xmlns:xlink="http://www.w3.org/1999/xlink">
<defs>
<style type="text/css"><![CDATA[
.g1_1670{
fill: #FFFFFF;
}
.g2_1670{
}
]]></style>
</defs>
<path d="M165,1149.3l687.5,0l0,-21.2l-687.5,0l0,21.2Z" class="g1_1670" />
<path d="M68.8,1149.3l82.5,0l0,-21.2l-82.5,0l0,21.2Z" class="g1_1670" />
<path d="M68.6,571l0.7,0l0,-424l-0.7,0l0,424Z" class="g2_1670" />
<path d="M302,571.8l0.8,0l0,-425.5l-0.8,0l0,425.5Z" class="g2_1670" />
<path d="M354.1,571.8l0.7,0l0,-425.5l-0.7,0l0,425.5Z" class="g2_1670" />
<path d="M428.5,571.8l0.8,0l0,-425.5l-0.8,0l0,425.5Z" class="g2_1670" />
<path d="M514.6,571.8l0.8,0l0,-425.5l-0.8,0l0,425.5Z" class="g2_1670" />
<path d="M853.3,571l0.8,0l0,-424l-0.8,0l0,424Z" class="g2_1670" />
<path d="M68.6,147l785.5,0l0,-0.7l-785.5,0l0,0.7Z" class="g2_1670" />
<path d="M68.6,197.4l785.5,0l0,-0.7l-785.5,0l0,0.7Z" class="g2_1670" />
<path d="M68.6,250.9l785.5,0l0,-0.7l-785.5,0l0,0.7Z" class="g2_1670" />
<path d="M68.6,304.4l785.5,0l0,-0.7l-785.5,0l0,0.7Z" class="g2_1670" />
<path d="M68.6,357.9l785.5,0l0,-0.8l-785.5,0l0,0.8Z" class="g2_1670" />
<path d="M68.6,411.4l785.5,0l0,-0.7l-785.5,0l0,0.7Z" class="g2_1670" />
<path d="M68.6,464.8l785.5,0l0,-0.7l-785.5,0l0,0.7Z" class="g2_1670" />
<path d="M68.6,518.3l785.5,0l0,-0.7l-785.5,0l0,0.7Z" class="g2_1670" />
<path d="M68.6,571.8l785.5,0l0,-0.7l-785.5,0l0,0.7Z" class="g2_1670" />
<path d="M70.8,699.3l0.7,0l0,-72.5l-0.7,0l0,72.5Z" class="g2_1670" />
<path d="M197.9,700.2l0.7,0l0,-74.2l-0.7,0l0,74.2Z" class="g2_1670" />
<path d="M360.7,700.2l0.7,0l0,-74.2l-0.7,0l0,74.2Z" class="g2_1670" />
<path d="M518.8,700.2l0.8,0l0,-74.2l-0.8,0l0,74.2Z" class="g2_1670" />
<path d="M679.1,700.2l0.7,0l0,-74.2l-0.7,0l0,74.2Z" class="g2_1670" />
<path d="M849.7,699.3l0.7,0l0,-72.5l-0.7,0l0,72.5Z" class="g2_1670" />
<path d="M70.8,626.8l779.6,0l0,-0.7l-779.6,0l0,0.7Z" class="g2_1670" />
<path d="M70.8,651.2l779.6,0l0,-0.7l-779.6,0l0,0.7Z" class="g2_1670" />
<path d="M70.8,675.7l779.6,0l0,-0.8l-779.6,0l0,0.8Z" class="g2_1670" />
<path d="M70.8,700.2l779.6,0l0,-0.8l-779.6,0l0,0.8Z" class="g2_1670" />
</svg>