<?xml version="1.0" encoding="UTF-8" standalone="no"?>
<!DOCTYPE svg PUBLIC "-//W3C//DTD SVG 1.1//EN"
"http://www.w3.org/Graphics/SVG/1.1/DTD/svg11.dtd">
<svg viewBox="0 0 935 1210" version="1.1" xmlns="http://www.w3.org/2000/svg" xmlns:xlink="http://www.w3.org/1999/xlink">
<defs>
<clipPath id="c0_35"><path d="M69.1,165l0,-9.2l783.3,0l0,9.2Z" /></clipPath>
<style type="text/css"><![CDATA[
.g1_35{
fill: #FFFFFF;
}
.g2_35{
}
]]></style>
</defs>
<path d="M67.7,1149.3l785,0l0,-21.2l-785,0l0,21.2Z" class="g1_35" />
<g clip-path="url(#c0_35)">
<path d="M69.1,158.6l783.3,0l0,-1.6L69.1,157l0,1.6Z" class="g2_35" />
</g>
<path d="M170.8,737l0.7,0l0,-302.7l-0.7,0l0,302.7Z" class="g2_35" />
<path d="M750.1,737l0.7,0l0,-302.7l-0.7,0l0,302.7Z" class="g2_35" />
<path d="M170.8,434.3l580,0l0,-0.7l-580,0l0,0.7Z" class="g2_35" />
<path d="M170.8,737.7l580,0l0,-0.7l-580,0l0,0.7Z" class="g2_35" />
<path d="M197.7,457.9l523.4,0l0,-1.6l-523.4,0l0,1.6Z" class="g2_35" />
<path d="M719.5,499.1l1.5,0l0,-42l-1.5,0l0,42Z" class="g2_35" />
<path d="M197,499.1l523.2,0l0,-1.5l-523.2,0l0,1.5Z" class="g2_35" />
<path d="M197,498.3l1.6,0l0,-42l-1.6,0l0,42Z" class="g2_35" />
<path d="M280,457.1l0.5,0l0,-0.2l-0.5,0l0,0.2Z" class="g2_35" />
<path d="M280,498.5l0.5,0l0,-41.4l-0.5,0l0,41.4Z" class="g2_35" />
<path d="M362.5,457.1l0.5,0l0,-0.2l-0.5,0l0,0.2Z" class="g2_35" />
<path d="M362.5,498.5l0.5,0l0,-41.4l-0.5,0l0,41.4Z" class="g2_35" />
<path d="M445,457.1l0.5,0l0,-0.2l-0.5,0l0,0.2Z" class="g2_35" />
<path d="M445,498.5l0.5,0l0,-41.4l-0.5,0l0,41.4Z" class="g2_35" />
<path d="M527.5,457.1l0.5,0l0,-0.2l-0.5,0l0,0.2Z" class="g2_35" />
<path d="M527.5,498.5l0.5,0l0,-41.4l-0.5,0l0,41.4Z" class="g2_35" />
<path d="M637.5,457.1l0.5,0l0,-0.2l-0.5,0l0,0.2Z" class="g2_35" />
<path d="M637.5,498.5l0.5,0l0,-41.4l-0.5,0l0,41.4Z" class="g2_35" />
<path d="M281.9,596.2l152.1,0l0,-1.6l-152.1,0l0,1.6Z" class="g2_35" />
<path d="M432.4,627.4l1.5,0l0,-32l-1.5,0l0,32Z" class="g2_35" />
<path d="M281.1,627.4l152,0l0,-1.6l-152,0l0,1.6Z" class="g2_35" />
<path d="M281.1,626.5l1.6,0l0,-31.9l-1.6,0l0,31.9Z" class="g2_35" />
<path d="M322.9,595.4l0.5,0l0,-0.2l-0.5,0l0,0.2Z" class="g2_35" />
<path d="M322.9,626.2l0.5,0l0,-30.8l-0.5,0l0,30.8Z" class="g2_35" />
<path d="M377.9,595.4l0.5,0l0,-0.2l-0.5,0l0,0.2Z" class="g2_35" />
<path d="M377.9,626.2l0.5,0l0,-30.8l-0.5,0l0,30.8Z" class="g2_35" />
<path d="M455.8,596.2l152,0l0,-1.6l-152,0l0,1.6Z" class="g2_35" />
<path d="M606.3,627.7l1.5,0l0,-32.3l-1.5,0l0,32.3Z" class="g2_35" />
<path d="M455,627.7l152,0l0,-1.5l-152,0l0,1.5Z" class="g2_35" />
<path d="M455,626.9l1.6,0l0,-32.3l-1.6,0l0,32.3Z" class="g2_35" />
<path d="M496.8,595.4l0.5,0l0,-0.2l-0.5,0l0,0.2Z" class="g2_35" />
<path d="M496.8,626.8l0.5,0l0,-31.4l-0.5,0l0,31.4Z" class="g2_35" />
<path d="M551.8,595.4l0.5,0l0,-0.2l-0.5,0l0,0.2Z" class="g2_35" />
<path d="M551.8,626.8l0.5,0l0,-31.4l-0.5,0l0,31.4Z" class="g2_35" />
<path d="M364.6,571.8L364,571.3l-1.4,1.6l0.6,0.6Z" class="g2_35" />
<path d="M363.1,572.5l2.7,0.5l1.8,0.4l-1.7,1.1l-7.2,4.6l-2.3,1.3l1.2,-2.3l3.7,-7.7l0.8,-1.8l0.6,1.8l-0.1,0.6l-3.6,7.7l-1.4,-0.6l0.3,-0.4l7.2,-4.6l0.8,1.4l-0.5,0.1L362.7,574Z" class="g2_35" />
<path d="M362.7,570.4l0.9,2.5l-0.9,1.1l-0.4,-0.2l-0.1,-0.3l-0.9,-2.6Z" class="g2_35" />
<path fill-rule="evenodd" d="M362.9,573.2l2.7,0.5l-7.3,4.6l3.7,-7.7Z" class="g2_35" />
<path d="M394.5,538.1l0.2,-0.3l-0.5,-0.4l-0.2,0.2Z" class="g2_35" />
<path d="M364.6,571.8l-0.2,0.3l-0.6,-0.5l0.2,-0.2Z" class="g2_35" />
<path d="M394.5,538.1L394,537.6l-30,33.8l0.6,0.4Z" class="g2_35" />
<path d="M511.4,569.7l-0.5,0.6l1.4,1.5l0.6,-0.5Z" class="g2_35" />
<path d="M511.9,571.4l0.8,-2.6l0.5,-1.9l1,1.8l3.7,7.7l1.2,2.5l-2.3,-1.5l-7.2,-4.6l-1.7,-1.1l1.9,-0.3l0.6,0.1l7.2,4.5l-0.8,1.4L516.5,577l-3.7,-7.7l1.4,-0.6l0,0.6l-0.9,2.5Z" class="g2_35" />
<path d="M509.8,571.4l2.6,-0.6l0.9,1l-0.1,0.6l-0.4,0l-2.7,0.5Z" class="g2_35" />
<path fill-rule="evenodd" d="M512.6,571.5l0.8,-2.5l3.8,7.7l-7.3,-4.6Z" class="g2_35" />
<path d="M483.3,538.7l-0.2,-0.2l-0.6,0.4l0.2,0.3Z" class="g2_35" />
<path d="M511.4,569.8l0.2,0.3l-0.6,0.4l-0.1,-0.2Z" class="g2_35" />
<path d="M483.3,538.7l-0.6,0.5l28.2,31.1l0.5,-0.5Z" class="g2_35" />
<path d="M637.2,560.1l84.1,0l0,-52.7l-84.1,0l0,52.7Z" class="g1_35" />
<path d="M541.2,507.4l84.2,0l0,52.7l-84.2,0Z" class="g1_35" />
<path d="M444,534.3l84.3,0l0,-26.9l-84.3,0l0,26.9Z" class="g1_35" />
<path d="M369.2,539.6l69.6,0l0,-32.2l-69.6,0l0,32.2Z" class="g1_35" />
<path d="M279.6,534.3l84.2,0l0,-26.9l-84.2,0l0,26.9Z" class="g1_35" />
<path d="M202.4,566.4l73.3,0l0,-59l-73.3,0l0,59Z" class="g1_35" />
<path d="M201.8,716.8l516.8,0l0,-59.9l-516.8,0l0,59.9Z" class="g1_35" />
</svg>