<?xml version="1.0" encoding="UTF-8" standalone="no"?>
<!DOCTYPE svg PUBLIC "-//W3C//DTD SVG 1.1//EN"
"http://www.w3.org/Graphics/SVG/1.1/DTD/svg11.dtd">
<svg viewBox="0 0 935 1210" version="1.1" xmlns="http://www.w3.org/2000/svg" xmlns:xlink="http://www.w3.org/1999/xlink">
<defs>
<style type="text/css"><![CDATA[
.g1_1722{
fill: #FFFFFF;
}
.g2_1722{
}
]]></style>
</defs>
<path d="M165,1149.3l687.5,0l0,-21.2l-687.5,0l0,21.2Z" class="g1_1722" />
<path d="M68.8,1149.3l82.5,0l0,-21.2l-82.5,0l0,21.2Z" class="g1_1722" />
<path d="M68.6,367.9l0.7,0l0,-260.6l-0.7,0l0,260.6Z" class="g2_1722" />
<path d="M314.8,368.6l0.7,0l0,-262l-0.7,0l0,262Z" class="g2_1722" />
<path d="M359.9,368.6l0.7,0l0,-262l-0.7,0l0,262Z" class="g2_1722" />
<path d="M433.2,368.6l0.8,0l0,-262l-0.8,0l0,262Z" class="g2_1722" />
<path d="M520.1,368.6l0.8,0l0,-262l-0.8,0l0,262Z" class="g2_1722" />
<path d="M853.7,367.9l0.7,0l0,-260.6l-0.7,0l0,260.6Z" class="g2_1722" />
<path d="M68.6,107.3l785.8,0l0,-0.7l-785.8,0l0,0.7Z" class="g2_1722" />
<path d="M68.6,157.8l785.8,0l0,-0.8L68.6,157l0,0.8Z" class="g2_1722" />
<path d="M68.6,228l785.8,0l0,-0.8l-785.8,0l0,0.8Z" class="g2_1722" />
<path d="M68.6,298.3l785.8,0l0,-0.7l-785.8,0l0,0.7Z" class="g2_1722" />
<path d="M68.6,368.6l785.8,0l0,-0.7l-785.8,0l0,0.7Z" class="g2_1722" />
<path d="M71.8,493.1l0.7,0l0,-72.5l-0.7,0l0,72.5Z" class="g2_1722" />
<path d="M182.3,493.9l0.8,0l0,-74.2l-0.8,0l0,74.2Z" class="g2_1722" />
<path d="M341.7,493.9l0.8,0l0,-74.2l-0.8,0l0,74.2Z" class="g2_1722" />
<path d="M510.7,493.9l0.7,0l0,-74.2l-0.7,0l0,74.2Z" class="g2_1722" />
<path d="M679.6,493.9l0.8,0l0,-74.2l-0.8,0l0,74.2Z" class="g2_1722" />
<path d="M848.6,493.1l0.8,0l0,-72.5l-0.8,0l0,72.5Z" class="g2_1722" />
<path d="M71.7,420.6l777.7,0l0,-0.8l-777.7,0l0,0.8Z" class="g2_1722" />
<path d="M71.7,444.9l777.7,0l0,-0.7l-777.7,0l0,0.7Z" class="g2_1722" />
<path d="M71.7,469.4l777.7,0l0,-0.7l-777.7,0l0,0.7Z" class="g2_1722" />
<path d="M71.7,493.9l777.7,0l0,-0.7l-777.7,0l0,0.7Z" class="g2_1722" />
</svg>