<?xml version="1.0" encoding="UTF-8" standalone="no"?>
<!DOCTYPE svg PUBLIC "-//W3C//DTD SVG 1.1//EN"
"http://www.w3.org/Graphics/SVG/1.1/DTD/svg11.dtd">
<svg viewBox="0 0 935 1210" version="1.1" xmlns="http://www.w3.org/2000/svg" xmlns:xlink="http://www.w3.org/1999/xlink">
<defs>
<style type="text/css"><![CDATA[
.g1_436{
fill: #FFFFFF;
}
.g2_436{
}
]]></style>
</defs>
<path d="M165,1149.3l687.5,0l0,-21.2l-687.5,0l0,21.2Z" class="g1_436" />
<path d="M68.8,1149.3l82.5,0l0,-21.2l-82.5,0l0,21.2Z" class="g1_436" />
<path d="M69.2,386.2l0.7,0l0,-254.4l-0.7,0l0,254.4Z" class="g2_436" />
<path d="M199.8,386.9l0.8,0l0,-255.9l-0.8,0l0,255.9Z" class="g2_436" />
<path d="M378.9,386.9l0.7,0l0,-255.9l-0.7,0l0,255.9Z" class="g2_436" />
<path d="M443.1,386.9l0.7,0l0,-255.9l-0.7,0l0,255.9Z" class="g2_436" />
<path d="M525.6,386.9l0.7,0l0,-255.9l-0.7,0l0,255.9Z" class="g2_436" />
<path d="M851.2,386.2l0.7,0l0,-254.4l-0.7,0l0,254.4Z" class="g2_436" />
<path d="M69.1,131.7l782.9,0l0,-0.7L69.1,131l0,0.7Z" class="g2_436" />
<path d="M69.1,169.9l782.9,0l0,-0.7l-782.9,0l0,0.7Z" class="g2_436" />
<path d="M69.1,192.9l782.9,0l0,-0.8l-782.9,0l0,0.8Z" class="g2_436" />
<path d="M69.1,215.8l782.9,0l0,-0.8L69.1,215l0,0.8Z" class="g2_436" />
<path d="M69.1,238.7l782.9,0l0,-0.7L69.1,238l0,0.7Z" class="g2_436" />
<path d="M69.1,261.6l782.9,0l0,-0.7l-782.9,0l0,0.7Z" class="g2_436" />
<path d="M69.1,301.3l782.9,0l0,-0.7l-782.9,0l0,0.7Z" class="g2_436" />
<path d="M69.1,341.1l782.9,0l0,-0.7l-782.9,0l0,0.7Z" class="g2_436" />
<path d="M69.1,364L852,364l0,-0.7l-782.9,0l0,0.7Z" class="g2_436" />
<path d="M69.1,386.9l782.9,0l0,-0.7l-782.9,0l0,0.7Z" class="g2_436" />
</svg>