<?xml version="1.0" encoding="UTF-8" standalone="no"?>
<!DOCTYPE svg PUBLIC "-//W3C//DTD SVG 1.1//EN"
"http://www.w3.org/Graphics/SVG/1.1/DTD/svg11.dtd">
<svg viewBox="0 0 935 1210" version="1.1" xmlns="http://www.w3.org/2000/svg" xmlns:xlink="http://www.w3.org/1999/xlink">
<defs>
<style type="text/css"><![CDATA[
.g1_104{
fill: #FFFFFF;
}
.g2_104{
}
]]></style>
</defs>
<path d="M165,1149.3l687.5,0l0,-21.2l-687.5,0l0,21.2Z" class="g1_104" />
<path d="M68.8,1149.3l82.5,0l0,-21.2l-82.5,0l0,21.2Z" class="g1_104" />
<path d="M69.4,1098.2l0.7,0l0,-483.7l-0.7,0l0,483.7Z" class="g2_104" />
<path d="M133.1,1013.4l0.7,0l0,-361.4l-0.7,0l0,361.4Z" class="g2_104" />
<path d="M133.1,1098.9l0.7,0l0,-64.9l-0.7,0l0,64.9Z" class="g2_104" />
<path d="M200.6,1013.4l0.7,0l0,-361.4l-0.7,0l0,361.4Z" class="g2_104" />
<path d="M200.6,1098.9l0.7,0l0,-64.9l-0.7,0l0,64.9Z" class="g2_104" />
<path d="M251.9,1013.4l0.7,0l0,-399.6l-0.7,0l0,399.6Z" class="g2_104" />
<path d="M251.9,1098.9l0.7,0l0,-64.9l-0.7,0l0,64.9Z" class="g2_104" />
<path d="M325.2,1013.4l0.8,0L326,652l-0.8,0l0,361.4Z" class="g2_104" />
<path d="M325.2,1098.9l0.8,0l0,-64.9l-0.8,0l0,64.9Z" class="g2_104" />
<path d="M392.1,1013.4l0.7,0l0,-361.4l-0.7,0l0,361.4Z" class="g2_104" />
<path d="M392.1,1098.9l0.7,0l0,-64.9l-0.7,0l0,64.9Z" class="g2_104" />
<path d="M443.4,1013.4l0.7,0l0,-399.6l-0.7,0l0,399.6Z" class="g2_104" />
<path d="M443.4,1098.9l0.7,0l0,-64.9l-0.7,0l0,64.9Z" class="g2_104" />
<path d="M515.4,1013.4l0.8,0l0,-361.4l-0.8,0l0,361.4Z" class="g2_104" />
<path d="M515.4,1098.9l0.8,0l0,-64.9l-0.8,0l0,64.9Z" class="g2_104" />
<path d="M583.5,1013.4l0.8,0l0,-361.4l-0.8,0l0,361.4Z" class="g2_104" />
<path d="M583.5,1098.9l0.8,0l0,-64.9l-0.8,0l0,64.9Z" class="g2_104" />
<path d="M650.5,1013.4l0.7,0l0,-399.6l-0.7,0l0,399.6Z" class="g2_104" />
<path d="M650.5,1098.9l0.7,0l0,-64.9l-0.7,0l0,64.9Z" class="g2_104" />
<path d="M717.3,1013.4l0.7,0L718,652l-0.7,0l0,361.4Z" class="g2_104" />
<path d="M717.3,1098.9l0.7,0l0,-64.9l-0.7,0l0,64.9Z" class="g2_104" />
<path d="M784.1,1013.4l0.8,0l0,-361.4l-0.8,0l0,361.4Z" class="g2_104" />
<path d="M784.1,1098.9l0.8,0l0,-64.9l-0.8,0l0,64.9Z" class="g2_104" />
<path d="M850.9,1098.2l0.8,0l0,-483.7l-0.8,0l0,483.7Z" class="g2_104" />
<path d="M69.4,614.5l782.4,0l0,-0.7l-782.4,0l0,0.7Z" class="g2_104" />
<path d="M69.4,652.8l782.4,0l0,-0.8L69.4,652l0,0.8Z" class="g2_104" />
<path d="M69.4,729.1l782.4,0l0,-0.7l-782.4,0l0,0.7Z" class="g2_104" />
<path d="M69.4,750.6l782.4,0l0,-0.8l-782.4,0l0,0.8Z" class="g2_104" />
<path d="M69.4,771.9l782.4,0l0,-0.7l-782.4,0l0,0.7Z" class="g2_104" />
<path d="M69.4,793.3l782.4,0l0,-0.7l-782.4,0l0,0.7Z" class="g2_104" />
<path d="M69.4,814.7l782.4,0l0,-0.7L69.4,814l0,0.7Z" class="g2_104" />
<path d="M69.4,863.6l782.4,0l0,-0.7l-782.4,0l0,0.7Z" class="g2_104" />
<path d="M69.4,885l782.4,0l0,-0.8l-782.4,0l0,0.8Z" class="g2_104" />
<path d="M69.4,906.4l782.4,0l0,-0.7l-782.4,0l0,0.7Z" class="g2_104" />
<path d="M69.4,927.8l782.4,0l0,-0.8L69.4,927l0,0.8Z" class="g2_104" />
<path d="M69.4,949.1l782.4,0l0,-0.7l-782.4,0l0,0.7Z" class="g2_104" />
<path d="M69.4,970.6l782.4,0l0,-0.8l-782.4,0l0,0.8Z" class="g2_104" />
<path d="M69.4,991.9l782.4,0l0,-0.7l-782.4,0l0,0.7Z" class="g2_104" />
<path d="M69.4,1013.3l782.4,0l0,-0.7l-782.4,0l0,0.7Z" class="g2_104" />
<path d="M69.4,1034.7l782.4,0l0,-0.7l-782.4,0l0,0.7Z" class="g2_104" />
<path d="M69.4,1056.1l782.4,0l0,-0.7l-782.4,0l0,0.7Z" class="g2_104" />
<path d="M69.4,1077.5l782.4,0l0,-0.8l-782.4,0l0,0.8Z" class="g2_104" />
<path d="M69.4,1098.9l782.4,0l0,-0.7l-782.4,0l0,0.7Z" class="g2_104" />
</svg>