<?xml version="1.0" encoding="UTF-8" standalone="no"?>
<!DOCTYPE svg PUBLIC "-//W3C//DTD SVG 1.1//EN"
"http://www.w3.org/Graphics/SVG/1.1/DTD/svg11.dtd">
<svg viewBox="0 0 935 1210" version="1.1" xmlns="http://www.w3.org/2000/svg" xmlns:xlink="http://www.w3.org/1999/xlink">
<defs>
<style type="text/css"><![CDATA[
.g1_1337{
fill: #FFFFFF;
}
.g2_1337{
}
]]></style>
</defs>
<path d="M68.9,1149.3l686.3,0l0,-21.2l-686.3,0l0,21.2Z" class="g1_1337" />
<path d="M771.3,1149.3l83.7,0l0,-21.2l-83.7,0l0,21.2Z" class="g1_1337" />
<path d="M69.9,335.8l0.8,0l0,-210.1l-0.8,0l0,210.1Z" class="g2_1337" />
<path d="M303.1,336.5l0.7,0l0,-211.6l-0.7,0l0,211.6Z" class="g2_1337" />
<path d="M346.6,336.5l0.7,0l0,-211.6l-0.7,0l0,211.6Z" class="g2_1337" />
<path d="M421,336.5l0.8,0l0,-211.6l-0.8,0l0,211.6Z" class="g2_1337" />
<path d="M497.8,336.5l0.8,0l0,-211.6l-0.8,0l0,211.6Z" class="g2_1337" />
<path d="M852,335.8l0.8,0l0,-210.1l-0.8,0l0,210.1Z" class="g2_1337" />
<path d="M69.9,125.7l782.9,0l0,-0.8l-782.9,0l0,0.8Z" class="g2_1337" />
<path d="M69.9,176.1l782.9,0l0,-0.7l-782.9,0l0,0.7Z" class="g2_1337" />
<path d="M69.9,229.5l782.9,0l0,-0.7l-782.9,0l0,0.7Z" class="g2_1337" />
<path d="M69.9,283l782.9,0l0,-0.8l-782.9,0l0,0.8Z" class="g2_1337" />
<path d="M69.9,336.5l782.9,0l0,-0.7l-782.9,0l0,0.7Z" class="g2_1337" />
<path d="M70.4,464.1l0.7,0l0,-72.6l-0.7,0l0,72.6Z" class="g2_1337" />
<path d="M183.1,464.8l0.7,0l0,-74l-0.7,0l0,74Z" class="g2_1337" />
<path d="M350.4,464.8l0.8,0l0,-74l-0.8,0l0,74Z" class="g2_1337" />
<path d="M520.5,464.8l0.7,0l0,-74l-0.7,0l0,74Z" class="g2_1337" />
<path d="M681.4,464.8l0.7,0l0,-74l-0.7,0l0,74Z" class="g2_1337" />
<path d="M851.6,464.1l0.7,0l0,-72.6l-0.7,0l0,72.6Z" class="g2_1337" />
<path d="M70.4,391.5l781.9,0l0,-0.7l-781.9,0l0,0.7Z" class="g2_1337" />
<path d="M70.4,416l781.9,0l0,-0.7l-781.9,0l0,0.7Z" class="g2_1337" />
<path d="M70.4,440.4l781.9,0l0,-0.8l-781.9,0l0,0.8Z" class="g2_1337" />
<path d="M70.4,464.8l781.9,0l0,-0.7l-781.9,0l0,0.7Z" class="g2_1337" />
</svg>