<?xml version="1.0" encoding="UTF-8" standalone="no"?>
<!DOCTYPE svg PUBLIC "-//W3C//DTD SVG 1.1//EN"
"http://www.w3.org/Graphics/SVG/1.1/DTD/svg11.dtd">
<svg viewBox="0 0 935 1210" version="1.1" xmlns="http://www.w3.org/2000/svg" xmlns:xlink="http://www.w3.org/1999/xlink">
<defs>
<style type="text/css"><![CDATA[
.g1_56{
fill: #FFFFFF;
}
.g2_56{
}
]]></style>
</defs>
<path d="M68.8,1149.3l783.7,0l0,-21.2l-783.7,0l0,21.2Z" class="g1_56" />
<path d="M68.8,508.6l0.4,0l0,-386.2l-0.4,0l0,386.2Z" class="g2_56" />
<path d="M300.3,508.9l0.4,0l0,-386.9l-0.4,0l0,386.9Z" class="g2_56" />
<path d="M493.8,508.9l0.4,0l0,-386.9l-0.4,0l0,386.9Z" class="g2_56" />
<path d="M676.9,508.9l0.3,0l0,-386.9l-0.3,0l0,386.9Z" class="g2_56" />
<path d="M851.9,508.6l0.3,0l0,-386.2l-0.3,0l0,386.2Z" class="g2_56" />
<path d="M68.8,122.4l783.4,0l0,-0.4L68.8,122l0,0.4Z" class="g2_56" />
<path d="M68.8,160.6l783.4,0l0,-0.4l-783.4,0l0,0.4Z" class="g2_56" />
<path d="M68.8,198.8l783.4,0l0,-0.3l-783.4,0l0,0.3Z" class="g2_56" />
<path d="M68.8,237l783.4,0l0,-0.4l-783.4,0l0,0.4Z" class="g2_56" />
<path d="M68.8,275.2l783.4,0l0,-0.4l-783.4,0l0,0.4Z" class="g2_56" />
<path d="M68.8,313.4l783.4,0l0,-0.4L68.8,313l0,0.4Z" class="g2_56" />
<path d="M68.8,351.5l783.4,0l0,-0.3l-783.4,0l0,0.3Z" class="g2_56" />
<path d="M68.8,373l783.4,0l0,-0.4l-783.4,0l0,0.4Z" class="g2_56" />
<path d="M68.8,411.2l783.4,0l0,-0.4l-783.4,0l0,0.4Z" class="g2_56" />
<path d="M68.8,432.6l783.4,0l0,-0.4l-783.4,0l0,0.4Z" class="g2_56" />
<path d="M68.8,470.8l783.4,0l0,-0.4l-783.4,0l0,0.4Z" class="g2_56" />
<path d="M68.8,508.9l783.4,0l0,-0.3l-783.4,0l0,0.3Z" class="g2_56" />
</svg>