<?xml version="1.0" encoding="UTF-8" standalone="no"?>
<!DOCTYPE svg PUBLIC "-//W3C//DTD SVG 1.1//EN"
"http://www.w3.org/Graphics/SVG/1.1/DTD/svg11.dtd">
<svg viewBox="0 0 935 1210" version="1.1" xmlns="http://www.w3.org/2000/svg" xmlns:xlink="http://www.w3.org/1999/xlink">
<defs>
<style type="text/css"><![CDATA[
.g1_977{
fill: #FFFFFF;
}
.g2_977{
}
]]></style>
</defs>
<path d="M68.9,1149.3l686.3,0l0,-21.2l-686.3,0l0,21.2Z" class="g1_977" />
<path d="M771.3,1149.3l83.7,0l0,-21.2l-83.7,0l0,21.2Z" class="g1_977" />
<path d="M69.9,656.6l0.8,0l0,-530.9l-0.8,0l0,530.9Z" class="g2_977" />
<path d="M310.5,657.3l0.7,0l0,-532.4l-0.7,0l0,532.4Z" class="g2_977" />
<path d="M356.5,657.3l0.7,0l0,-532.4l-0.7,0l0,532.4Z" class="g2_977" />
<path d="M428.3,657.3l0.7,0l0,-532.4l-0.7,0l0,532.4Z" class="g2_977" />
<path d="M513.2,657.3l0.7,0l0,-532.4l-0.7,0l0,532.4Z" class="g2_977" />
<path d="M852,656.6l0.8,0l0,-530.9l-0.8,0l0,530.9Z" class="g2_977" />
<path d="M69.9,125.7l782.9,0l0,-0.8l-782.9,0l0,0.8Z" class="g2_977" />
<path d="M69.9,176.1l782.9,0l0,-0.7l-782.9,0l0,0.7Z" class="g2_977" />
<path d="M69.9,229.5l782.9,0l0,-0.7l-782.9,0l0,0.7Z" class="g2_977" />
<path d="M69.9,283l782.9,0l0,-0.8l-782.9,0l0,0.8Z" class="g2_977" />
<path d="M69.9,336.5l782.9,0l0,-0.7l-782.9,0l0,0.7Z" class="g2_977" />
<path d="M69.9,389.9l782.9,0l0,-0.7l-782.9,0l0,0.7Z" class="g2_977" />
<path d="M69.9,443.5l782.9,0l0,-0.8l-782.9,0l0,0.8Z" class="g2_977" />
<path d="M69.9,496.9l782.9,0l0,-0.7l-782.9,0l0,0.7Z" class="g2_977" />
<path d="M69.9,550.4l782.9,0l0,-0.8l-782.9,0l0,0.8Z" class="g2_977" />
<path d="M69.9,603.9l782.9,0l0,-0.7l-782.9,0l0,0.7Z" class="g2_977" />
<path d="M69.9,657.3l782.9,0l0,-0.7l-782.9,0l0,0.7Z" class="g2_977" />
<path d="M72,809.4l0.7,0l0,-97.1l-0.7,0l0,97.1Z" class="g2_977" />
<path d="M176.5,810.2l0.7,0l0,-98.6l-0.7,0l0,98.6Z" class="g2_977" />
<path d="M335.4,810.2l0.7,0l0,-98.6l-0.7,0l0,98.6Z" class="g2_977" />
<path d="M513.6,810.2l0.7,0l0,-98.6l-0.7,0l0,98.6Z" class="g2_977" />
<path d="M681.1,810.2l0.7,0l0,-98.6l-0.7,0l0,98.6Z" class="g2_977" />
<path d="M850.1,809.4l0.7,0l0,-97.1l-0.7,0l0,97.1Z" class="g2_977" />
<path d="M71.9,712.3l778.9,0l0,-0.7l-778.9,0l0,0.7Z" class="g2_977" />
<path d="M71.9,736.8l778.9,0l0,-0.7l-778.9,0l0,0.7Z" class="g2_977" />
<path d="M71.9,761.2l778.9,0l0,-0.7l-778.9,0l0,0.7Z" class="g2_977" />
<path d="M71.9,785.7l778.9,0l0,-0.8l-778.9,0l0,0.8Z" class="g2_977" />
<path d="M71.9,810.2l778.9,0l0,-0.8l-778.9,0l0,0.8Z" class="g2_977" />
</svg>