<?xml version="1.0" encoding="UTF-8" standalone="no"?>
<!DOCTYPE svg PUBLIC "-//W3C//DTD SVG 1.1//EN"
"http://www.w3.org/Graphics/SVG/1.1/DTD/svg11.dtd">
<svg viewBox="0 0 935 1210" version="1.1" xmlns="http://www.w3.org/2000/svg" xmlns:xlink="http://www.w3.org/1999/xlink">
<defs>
<style type="text/css"><![CDATA[
.g1_1314{
fill: #FFFFFF;
}
.g2_1314{
}
]]></style>
</defs>
<path d="M165,1149.3l687.5,0l0,-21.2l-687.5,0l0,21.2Z" class="g1_1314" />
<path d="M68.8,1149.3l82.5,0l0,-21.2l-82.5,0l0,21.2Z" class="g1_1314" />
<path d="M68.6,302.1l0.7,0l0,-176.4l-0.7,0l0,176.4Z" class="g2_1314" />
<path d="M302.4,302.9l0.7,0l0,-178l-0.7,0l0,178Z" class="g2_1314" />
<path d="M350.8,302.9l0.7,0l0,-178l-0.7,0l0,178Z" class="g2_1314" />
<path d="M425.2,302.9l0.8,0l0,-178l-0.8,0l0,178Z" class="g2_1314" />
<path d="M501,302.9l0.8,0l0,-178l-0.8,0l0,178Z" class="g2_1314" />
<path d="M852,302.1l0.7,0l0,-176.4l-0.7,0l0,176.4Z" class="g2_1314" />
<path d="M68.6,125.7l784.1,0l0,-0.8l-784.1,0l0,0.8Z" class="g2_1314" />
<path d="M68.6,176.1l784.1,0l0,-0.7l-784.1,0l0,0.7Z" class="g2_1314" />
<path d="M68.6,212.8l784.1,0l0,-0.8L68.6,212l0,0.8Z" class="g2_1314" />
<path d="M68.6,249.4l784.1,0l0,-0.7l-784.1,0l0,0.7Z" class="g2_1314" />
<path d="M68.6,302.9l784.1,0l0,-0.8l-784.1,0l0,0.8Z" class="g2_1314" />
<path d="M70.2,454.9l0.8,0l0,-97l-0.8,0l0,97Z" class="g2_1314" />
<path d="M160.1,455.7l0.8,0l0,-98.6l-0.8,0l0,98.6Z" class="g2_1314" />
<path d="M325.6,455.7l0.7,0l0,-98.6l-0.7,0l0,98.6Z" class="g2_1314" />
<path d="M499.9,455.7l0.7,0l0,-98.6l-0.7,0l0,98.6Z" class="g2_1314" />
<path d="M675.9,455.7l0.7,0l0,-98.6l-0.7,0l0,98.6Z" class="g2_1314" />
<path d="M850.1,454.9l0.7,0l0,-97l-0.7,0l0,97Z" class="g2_1314" />
<path d="M70.2,357.9l780.7,0l0,-0.8l-780.7,0l0,0.8Z" class="g2_1314" />
<path d="M70.2,382.3l780.7,0l0,-0.7l-780.7,0l0,0.7Z" class="g2_1314" />
<path d="M70.2,406.8l780.7,0l0,-0.7l-780.7,0l0,0.7Z" class="g2_1314" />
<path d="M70.2,431.2l780.7,0l0,-0.7l-780.7,0l0,0.7Z" class="g2_1314" />
<path d="M70.2,455.7l780.7,0l0,-0.8l-780.7,0l0,0.8Z" class="g2_1314" />
</svg>