<?xml version="1.0" encoding="UTF-8" standalone="no"?>
<!DOCTYPE svg PUBLIC "-//W3C//DTD SVG 1.1//EN"
"http://www.w3.org/Graphics/SVG/1.1/DTD/svg11.dtd">
<svg viewBox="0 0 935 1210" version="1.1" xmlns="http://www.w3.org/2000/svg" xmlns:xlink="http://www.w3.org/1999/xlink">
<defs>
<style type="text/css"><![CDATA[
.g1_2036{
fill: #FFFFFF;
}
.g2_2036{
}
]]></style>
</defs>
<path d="M68.8,1149l784.5,0l0,-21.4l-784.5,0l0,21.4Z" class="g1_2036" />
<path d="M70.2,716.6l2.3,0l0,-561.1l-2.3,0l0,561.1Z" class="g2_2036" />
<path d="M108.6,718.8l2.3,0l0,-565.6l-2.3,0l0,565.6Z" class="g2_2036" />
<path d="M147,718.8l2.3,0l0,-565.6l-2.3,0l0,565.6Z" class="g2_2036" />
<path d="M235.7,718.8l0.3,0l0,-565.6l-0.3,0l0,565.6Z" class="g2_2036" />
<path d="M323.4,718.8l0.4,0l0,-565.6l-0.4,0l0,565.6Z" class="g2_2036" />
<path d="M410.9,502.1l0.8,0l0,-348.9l-0.8,0l0,348.9Z" class="g2_2036" />
<path d="M411.1,582.6l0.4,0l0,-80.9l-0.4,0l0,80.9Z" class="g2_2036" />
<path d="M410.9,640.6l0.8,0l0,-58.3l-0.8,0l0,58.3Z" class="g2_2036" />
<path d="M411.1,718.8l0.4,0l0,-80.5l-0.4,0l0,80.5Z" class="g2_2036" />
<path d="M498.6,556.1l0.7,0l0,-402.9l-0.7,0l0,402.9Z" class="g2_2036" />
<path d="M498.8,582.6l0.3,0l0,-28.8l-0.3,0l0,28.8Z" class="g2_2036" />
<path d="M498.6,640.6l0.7,0l0,-58.3l-0.7,0l0,58.3Z" class="g2_2036" />
<path d="M498.8,718.8l0.3,0l0,-80.5l-0.3,0l0,80.5Z" class="g2_2036" />
<path d="M586.5,718.8l0.3,0l0,-565.6l-0.3,0l0,565.6Z" class="g2_2036" />
<path d="M674.2,718.8l0.4,0l0,-565.6l-0.4,0l0,565.6Z" class="g2_2036" />
<path d="M761.9,475.9l0.4,0l0,-322.7l-0.4,0l0,322.7Z" class="g2_2036" />
<path d="M761.8,502.1l0.7,0l0,-26.9l-0.7,0l0,26.9Z" class="g2_2036" />
<path d="M761.9,718.8l0.4,0l0,-217.1l-0.4,0l0,217.1Z" class="g2_2036" />
<path d="M848.6,716.6l2.3,0l0,-561.1l-2.3,0l0,561.1Z" class="g2_2036" />
<path d="M70.2,155.5l780.7,0l0,-2.3l-780.7,0l0,2.3Z" class="g2_2036" />
<path d="M70.2,171.5l780.7,0l0,-2.3l-780.7,0l0,2.3Z" class="g2_2036" />
<path d="M108.6,197.4l742.3,0l0,-0.7l-742.3,0l0,0.7Z" class="g2_2036" />
<path d="M70.2,236.1l780.7,0l0,-2.3l-780.7,0l0,2.3Z" class="g2_2036" />
<path d="M70.2,262.8l40.7,0l0,-2.3l-40.7,0l0,2.3Z" class="g2_2036" />
<path d="M108.6,261.8l742.3,0l0,-0.4l-742.3,0l0,0.4Z" class="g2_2036" />
<path d="M70.2,289.6l780.7,0l0,-2.3l-780.7,0l0,2.3Z" class="g2_2036" />
<path d="M70.2,315.5l780.7,0l0,-0.7l-780.7,0l0,0.7Z" class="g2_2036" />
<path d="M70.2,342.2l780.7,0l0,-0.7l-780.7,0l0,0.7Z" class="g2_2036" />
<path d="M70.2,368.4l780.7,0l0,-0.4L70.2,368l0,0.4Z" class="g2_2036" />
<path d="M70.2,395.3l780.7,0l0,-0.8l-780.7,0l0,0.8Z" class="g2_2036" />
<path d="M70.2,410.9l780.7,0l0,-0.7l-780.7,0l0,0.7Z" class="g2_2036" />
<path d="M70.2,437.7l780.7,0l0,-0.7L70.2,437l0,0.7Z" class="g2_2036" />
<path d="M70.2,475.7l429.2,0l0,-0.3l-429.2,0l0,0.3Z" class="g2_2036" />
<path d="M498.6,475.9l263.9,0l0,-0.7l-263.9,0l0,0.7Z" class="g2_2036" />
<path d="M761.7,475.7l89.2,0l0,-0.3l-89.2,0l0,0.3Z" class="g2_2036" />
<path d="M70.2,502.1l780.7,0l0,-0.4l-780.7,0l0,0.4Z" class="g2_2036" />
<path d="M70.2,528.5l165.8,0l0,-0.4l-165.8,0l0,0.4Z" class="g2_2036" />
<path d="M235.7,528.6l175.8,0l0,-0.7l-175.8,0l0,0.7Z" class="g2_2036" />
<path d="M411.1,528.5l439.8,0l0,-0.4l-439.8,0l0,0.4Z" class="g2_2036" />
<path d="M70.2,555.1l40.7,0l0,-0.3l-40.7,0l0,0.3Z" class="g2_2036" />
<path d="M108.6,556.1l742.3,0l0,-2.3l-742.3,0l0,2.3Z" class="g2_2036" />
<path d="M108.6,582.6l742.3,0l0,-0.3l-742.3,0l0,0.3Z" class="g2_2036" />
<path d="M70.2,598.5l780.7,0l0,-0.7l-780.7,0l0,0.7Z" class="g2_2036" />
<path d="M70.2,623.9l780.7,0l0,-0.4l-780.7,0l0,0.4Z" class="g2_2036" />
<path d="M70.2,640.6l780.7,0l0,-2.3l-780.7,0l0,2.3Z" class="g2_2036" />
<path d="M108.6,655.4l742.3,0l0,-0.7l-742.3,0l0,0.7Z" class="g2_2036" />
<path d="M108.6,671.1l742.3,0l0,-0.7l-742.3,0l0,0.7Z" class="g2_2036" />
<path d="M108.6,686.8l742.3,0l0,-0.8l-742.3,0l0,0.8Z" class="g2_2036" />
<path d="M108.6,702.4l742.3,0l0,-0.7l-742.3,0l0,0.7Z" class="g2_2036" />
<path d="M70.2,718.8l780.7,0l0,-2.2l-780.7,0l0,2.2Z" class="g2_2036" />
</svg>