<?xml version="1.0" encoding="UTF-8" standalone="no"?>
<!DOCTYPE svg PUBLIC "-//W3C//DTD SVG 1.1//EN"
"http://www.w3.org/Graphics/SVG/1.1/DTD/svg11.dtd">
<svg viewBox="0 0 935 1210" version="1.1" xmlns="http://www.w3.org/2000/svg" xmlns:xlink="http://www.w3.org/1999/xlink">
<defs>
<style type="text/css"><![CDATA[
.g1_495{
fill: #FFFFFF;
}
.g2_495{
}
]]></style>
</defs>
<path d="M68.9,1149.3l686.3,0l0,-21.2l-686.3,0l0,21.2Z" class="g1_495" />
<path d="M771.3,1149.3l83.7,0l0,-21.2l-83.7,0l0,21.2Z" class="g1_495" />
<path d="M69.1,378.5l0.8,0l0,-246.7l-0.8,0l0,246.7Z" class="g2_495" />
<path d="M193.6,379.3l0.7,0l0,-248.3l-0.7,0l0,248.3Z" class="g2_495" />
<path d="M381.2,379.3l0.8,0L382,131l-0.8,0l0,248.3Z" class="g2_495" />
<path d="M459.3,379.3l0.8,0l0,-248.3l-0.8,0l0,248.3Z" class="g2_495" />
<path d="M556.5,379.3l0.7,0l0,-248.3l-0.7,0l0,248.3Z" class="g2_495" />
<path d="M852.9,378.5l0.7,0l0,-246.7l-0.7,0l0,246.7Z" class="g2_495" />
<path d="M69.1,131.7l784.5,0l0,-0.7L69.1,131l0,0.7Z" class="g2_495" />
<path d="M69.1,169.9l784.5,0l0,-0.7l-784.5,0l0,0.7Z" class="g2_495" />
<path d="M69.1,209.6l784.5,0l0,-0.7l-784.5,0l0,0.7Z" class="g2_495" />
<path d="M69.1,266.2l784.5,0l0,-0.7l-784.5,0l0,0.7Z" class="g2_495" />
<path d="M69.1,322.8l784.5,0l0,-0.8L69.1,322l0,0.8Z" class="g2_495" />
<path d="M69.1,379.2l784.5,0l0,-0.7l-784.5,0l0,0.7Z" class="g2_495" />
</svg>