<?xml version="1.0" encoding="UTF-8" standalone="no"?>
<!DOCTYPE svg PUBLIC "-//W3C//DTD SVG 1.1//EN"
"http://www.w3.org/Graphics/SVG/1.1/DTD/svg11.dtd">
<svg viewBox="0 0 935 1210" version="1.1" xmlns="http://www.w3.org/2000/svg" xmlns:xlink="http://www.w3.org/1999/xlink">
<defs>
<style type="text/css"><![CDATA[
.g1_1232{
fill: #FFFFFF;
}
.g2_1232{
}
]]></style>
</defs>
<path d="M165,1149.3l687.5,0l0,-21.2l-687.5,0l0,21.2Z" class="g1_1232" />
<path d="M68.8,1149.3l82.5,0l0,-21.2l-82.5,0l0,21.2Z" class="g1_1232" />
<path d="M70.1,202.9l0.8,0l0,-77.2l-0.8,0l0,77.2Z" class="g2_1232" />
<path d="M219.7,203.6l0.8,0l0,-78.7l-0.8,0l0,78.7Z" class="g2_1232" />
<path d="M389.4,203.6l0.7,0l0,-78.7l-0.7,0l0,78.7Z" class="g2_1232" />
<path d="M427.3,203.6l0.7,0l0,-78.7l-0.7,0l0,78.7Z" class="g2_1232" />
<path d="M500.6,203.6l0.7,0l0,-78.7l-0.7,0l0,78.7Z" class="g2_1232" />
<path d="M572,203.6l0.7,0l0,-78.7l-0.7,0l0,78.7Z" class="g2_1232" />
<path d="M850.3,202.9l0.7,0l0,-77.2l-0.7,0l0,77.2Z" class="g2_1232" />
<path d="M70.1,125.7l780.9,0l0,-0.8l-780.9,0l0,0.8Z" class="g2_1232" />
<path d="M70.1,163.8l780.9,0l0,-0.7l-780.9,0l0,0.7Z" class="g2_1232" />
<path d="M70.1,203.6l780.9,0l0,-0.7l-780.9,0l0,0.7Z" class="g2_1232" />
<path d="M70.2,346.4l0.8,0l0,-48.1l-0.8,0l0,48.1Z" class="g2_1232" />
<path d="M136.8,347.2l0.7,0l0,-49.6l-0.7,0l0,49.6Z" class="g2_1232" />
<path d="M310.9,347.2l0.8,0l0,-49.6l-0.8,0l0,49.6Z" class="g2_1232" />
<path d="M484.7,347.2l0.8,0l0,-49.6l-0.8,0l0,49.6Z" class="g2_1232" />
<path d="M667.2,347.2l0.8,0l0,-49.6l-0.8,0l0,49.6Z" class="g2_1232" />
<path d="M850.1,346.4l0.7,0l0,-48.1l-0.7,0l0,48.1Z" class="g2_1232" />
<path d="M70.2,298.3l780.7,0l0,-0.7l-780.7,0l0,0.7Z" class="g2_1232" />
<path d="M70.2,322.8l780.7,0l0,-0.8L70.2,322l0,0.8Z" class="g2_1232" />
<path d="M70.2,347.1l780.7,0l0,-0.7l-780.7,0l0,0.7Z" class="g2_1232" />
</svg>