<?xml version="1.0" encoding="UTF-8" standalone="no"?>
<!DOCTYPE svg PUBLIC "-//W3C//DTD SVG 1.1//EN"
"http://www.w3.org/Graphics/SVG/1.1/DTD/svg11.dtd">
<svg viewBox="0 0 935 1210" version="1.1" xmlns="http://www.w3.org/2000/svg" xmlns:xlink="http://www.w3.org/1999/xlink">
<defs>
<style type="text/css"><![CDATA[
.g1_2096{
fill: #FFFFFF;
}
.g2_2096{
}
]]></style>
</defs>
<path d="M68.8,1149.3l783.7,0l0,-21.2l-783.7,0l0,21.2Z" class="g1_2096" />
<path d="M68.6,1095.1l0.7,0l0,-971l-0.7,0l0,971Z" class="g2_2096" />
<path d="M416,1095.9l0.7,0l0,-972.5l-0.7,0l0,972.5Z" class="g2_2096" />
<path d="M851.9,1095.1l0.7,0l0,-971l-0.7,0l0,971Z" class="g2_2096" />
<path d="M68.6,124.1l784.1,0l0,-0.7l-784.1,0l0,0.7Z" class="g2_2096" />
<path d="M68.6,148.6l784.1,0l0,-0.7l-784.1,0l0,0.7Z" class="g2_2096" />
<path d="M68.6,173l784.1,0l0,-0.8l-784.1,0l0,0.8Z" class="g2_2096" />
<path d="M68.6,197.4l784.1,0l0,-0.7l-784.1,0l0,0.7Z" class="g2_2096" />
<path d="M68.6,237.1l784.1,0l0,-0.7l-784.1,0l0,0.7Z" class="g2_2096" />
<path d="M68.6,261.6l784.1,0l0,-0.7l-784.1,0l0,0.7Z" class="g2_2096" />
<path d="M68.6,286.1l784.1,0l0,-0.7l-784.1,0l0,0.7Z" class="g2_2096" />
<path d="M68.6,341.1l784.1,0l0,-0.7l-784.1,0l0,0.7Z" class="g2_2096" />
<path d="M68.6,365.5l784.1,0l0,-0.8l-784.1,0l0,0.8Z" class="g2_2096" />
<path d="M68.6,389.9l784.1,0l0,-0.7l-784.1,0l0,0.7Z" class="g2_2096" />
<path d="M68.6,429.7l784.1,0l0,-0.7L68.6,429l0,0.7Z" class="g2_2096" />
<path d="M68.6,454.1l784.1,0l0,-0.7l-784.1,0l0,0.7Z" class="g2_2096" />
<path d="M68.6,478.6l784.1,0l0,-0.7l-784.1,0l0,0.7Z" class="g2_2096" />
<path d="M68.6,518.3l784.1,0l0,-0.7l-784.1,0l0,0.7Z" class="g2_2096" />
<path d="M68.6,542.8l784.1,0l0,-0.8L68.6,542l0,0.8Z" class="g2_2096" />
<path d="M68.6,588.6l784.1,0l0,-0.7l-784.1,0l0,0.7Z" class="g2_2096" />
<path d="M68.6,613.1l784.1,0l0,-0.8l-784.1,0l0,0.8Z" class="g2_2096" />
<path d="M68.6,637.4l784.1,0l0,-0.7l-784.1,0l0,0.7Z" class="g2_2096" />
<path d="M68.6,677.2l784.1,0l0,-0.7l-784.1,0l0,0.7Z" class="g2_2096" />
<path d="M68.6,701.6l784.1,0l0,-0.7l-784.1,0l0,0.7Z" class="g2_2096" />
<path d="M68.6,741.4l784.1,0l0,-0.7l-784.1,0l0,0.7Z" class="g2_2096" />
<path d="M68.6,765.8l784.1,0l0,-0.7l-784.1,0l0,0.7Z" class="g2_2096" />
<path d="M68.6,790.3l784.1,0l0,-0.8l-784.1,0l0,0.8Z" class="g2_2096" />
<path d="M68.6,830l784.1,0l0,-0.8l-784.1,0l0,0.8Z" class="g2_2096" />
<path d="M68.6,854.4l784.1,0l0,-0.7l-784.1,0l0,0.7Z" class="g2_2096" />
<path d="M68.6,894.1l784.1,0l0,-0.7l-784.1,0l0,0.7Z" class="g2_2096" />
<path d="M68.6,918.6l784.1,0l0,-0.7l-784.1,0l0,0.7Z" class="g2_2096" />
<path d="M68.6,943.1l784.1,0l0,-0.8l-784.1,0l0,0.8Z" class="g2_2096" />
<path d="M68.6,982.8l784.1,0l0,-0.8L68.6,982l0,0.8Z" class="g2_2096" />
<path d="M68.6,1007.2l784.1,0l0,-0.7l-784.1,0l0,0.7Z" class="g2_2096" />
<path d="M68.6,1046.9l784.1,0l0,-0.7l-784.1,0l0,0.7Z" class="g2_2096" />
<path d="M68.6,1071.4l784.1,0l0,-0.7l-784.1,0l0,0.7Z" class="g2_2096" />
<path d="M68.6,1095.8l784.1,0l0,-0.8l-784.1,0l0,0.8Z" class="g2_2096" />
</svg>