<?xml version="1.0" encoding="UTF-8" standalone="no"?>
<!DOCTYPE svg PUBLIC "-//W3C//DTD SVG 1.1//EN"
"http://www.w3.org/Graphics/SVG/1.1/DTD/svg11.dtd">
<svg viewBox="0 0 935 1210" version="1.1" xmlns="http://www.w3.org/2000/svg" xmlns:xlink="http://www.w3.org/1999/xlink">
<defs>
<style type="text/css"><![CDATA[
.g1_469{
fill: #FFFFFF;
}
.g2_469{
}
]]></style>
</defs>
<path d="M68.9,1149.3l686.3,0l0,-21.2l-686.3,0l0,21.2Z" class="g1_469" />
<path d="M771.3,1149.3l83.7,0l0,-21.2l-83.7,0l0,21.2Z" class="g1_469" />
<path d="M69.1,208.9l0.8,0l0,-77.1l-0.8,0l0,77.1Z" class="g2_469" />
<path d="M192.8,209.7l0.7,0l0,-78.7l-0.7,0l0,78.7Z" class="g2_469" />
<path d="M329.7,209.7l0.8,0l0,-78.7l-0.8,0l0,78.7Z" class="g2_469" />
<path d="M404.6,209.7l0.8,0l0,-78.7l-0.8,0l0,78.7Z" class="g2_469" />
<path d="M491.2,209.7l0.7,0l0,-78.7l-0.7,0l0,78.7Z" class="g2_469" />
<path d="M852.9,208.9l0.7,0l0,-77.1l-0.7,0l0,77.1Z" class="g2_469" />
<path d="M69.1,131.7l784.5,0l0,-0.7L69.1,131l0,0.7Z" class="g2_469" />
<path d="M69.1,169.9l784.5,0l0,-0.7l-784.5,0l0,0.7Z" class="g2_469" />
<path d="M69.1,209.6l784.5,0l0,-0.7l-784.5,0l0,0.7Z" class="g2_469" />
<path d="M70.5,705.5l0.7,0l0,-219.3l-0.7,0l0,219.3Z" class="g2_469" />
<path d="M146.9,706.2l2.2,0l0,-194.8l-2.2,0l0,194.8Z" class="g2_469" />
<path d="M233.5,706.2l2.3,0l0,-197.1l-2.3,0l0,197.1Z" class="g2_469" />
<path d="M320.8,706.2l0.8,0l0,-197.1l-0.8,0l0,197.1Z" class="g2_469" />
<path d="M413.5,706.2l0.7,0l0,-197.1l-0.7,0l0,197.1Z" class="g2_469" />
<path d="M500.1,706.2l0.8,0l0,-197.1l-0.8,0l0,197.1Z" class="g2_469" />
<path d="M586.8,706.2l0.7,0l0,-197.1l-0.7,0l0,197.1Z" class="g2_469" />
<path d="M678.2,706.2l0.8,0l0,-197.1l-0.8,0l0,197.1Z" class="g2_469" />
<path d="M764.9,706.2l0.7,0l0,-197.1l-0.7,0l0,197.1Z" class="g2_469" />
<path d="M851.5,705.5l0.7,0l0,-219.3l-0.7,0l0,219.3Z" class="g2_469" />
<path d="M70.5,486.2l781.7,0l0,-0.7l-781.7,0l0,0.7Z" class="g2_469" />
<path d="M146.9,511.5l705.3,0l0,-2.3l-705.3,0l0,2.3Z" class="g2_469" />
<path d="M146.9,536l705.3,0l0,-2.3l-705.3,0l0,2.3Z" class="g2_469" />
<path d="M146.9,559.5l705.3,0l0,-0.7l-705.3,0l0,0.7Z" class="g2_469" />
<path d="M146.9,584l705.3,0l0,-0.7l-705.3,0l0,0.7Z" class="g2_469" />
<path d="M146.9,608.5l705.3,0l0,-0.8l-705.3,0l0,0.8Z" class="g2_469" />
<path d="M146.9,632.9l705.3,0l0,-0.8l-705.3,0l0,0.8Z" class="g2_469" />
<path d="M146.9,657.3l705.3,0l0,-0.7l-705.3,0l0,0.7Z" class="g2_469" />
<path d="M146.9,681.8l705.3,0l0,-0.7l-705.3,0l0,0.7Z" class="g2_469" />
<path d="M70.5,706.2l781.7,0l0,-0.7l-781.7,0l0,0.7Z" class="g2_469" />
</svg>