<?xml version="1.0" encoding="UTF-8" standalone="no"?>
<!DOCTYPE svg PUBLIC "-//W3C//DTD SVG 1.1//EN"
"http://www.w3.org/Graphics/SVG/1.1/DTD/svg11.dtd">
<svg viewBox="0 0 935 1210" version="1.1" xmlns="http://www.w3.org/2000/svg" xmlns:xlink="http://www.w3.org/1999/xlink">
<defs>
<style type="text/css"><![CDATA[
.g1_2099{
fill: #FFFFFF;
}
.g2_2099{
}
]]></style>
</defs>
<path d="M68.9,1149.3l783.8,0l0,-21.2l-783.8,0l0,21.2Z" class="g1_2099" />
<path d="M69.9,969.8l0.8,0l0,-845.7l-0.8,0l0,845.7Z" class="g2_2099" />
<path d="M479.4,970.6l0.8,0l0,-847.2l-0.8,0l0,847.2Z" class="g2_2099" />
<path d="M851,969.8l0.8,0l0,-845.7l-0.8,0l0,845.7Z" class="g2_2099" />
<path d="M69.9,124.1l781.9,0l0,-0.7l-781.9,0l0,0.7Z" class="g2_2099" />
<path d="M69.9,148.6l781.9,0l0,-0.7l-781.9,0l0,0.7Z" class="g2_2099" />
<path d="M69.9,173l781.9,0l0,-0.8l-781.9,0l0,0.8Z" class="g2_2099" />
<path d="M69.9,197.4l781.9,0l0,-0.7l-781.9,0l0,0.7Z" class="g2_2099" />
<path d="M69.9,221.9l781.9,0l0,-0.7l-781.9,0l0,0.7Z" class="g2_2099" />
<path d="M69.9,246.3l781.9,0l0,-0.7l-781.9,0l0,0.7Z" class="g2_2099" />
<path d="M69.9,270.8l781.9,0l0,-0.7l-781.9,0l0,0.7Z" class="g2_2099" />
<path d="M69.9,295.3l781.9,0l0,-0.8l-781.9,0l0,0.8Z" class="g2_2099" />
<path d="M69.9,319.6l781.9,0l0,-0.7l-781.9,0l0,0.7Z" class="g2_2099" />
<path d="M69.9,344.1l781.9,0l0,-0.7l-781.9,0l0,0.7Z" class="g2_2099" />
<path d="M69.9,368.6l781.9,0l0,-0.7l-781.9,0l0,0.7Z" class="g2_2099" />
<path d="M69.9,393l781.9,0l0,-0.8l-781.9,0l0,0.8Z" class="g2_2099" />
<path d="M69.9,417.4l781.9,0l0,-0.7l-781.9,0l0,0.7Z" class="g2_2099" />
<path d="M69.9,441.9l781.9,0l0,-0.7l-781.9,0l0,0.7Z" class="g2_2099" />
<path d="M69.9,466.4l781.9,0l0,-0.7l-781.9,0l0,0.7Z" class="g2_2099" />
<path d="M69.9,490.8l781.9,0l0,-0.8L69.9,490l0,0.8Z" class="g2_2099" />
<path d="M69.9,515.3l781.9,0l0,-0.8l-781.9,0l0,0.8Z" class="g2_2099" />
<path d="M69.9,539.7l781.9,0l0,-0.7L69.9,539l0,0.7Z" class="g2_2099" />
<path d="M69.9,564.1l781.9,0l0,-0.7l-781.9,0l0,0.7Z" class="g2_2099" />
<path d="M69.9,588.6l781.9,0l0,-0.7l-781.9,0l0,0.7Z" class="g2_2099" />
<path d="M69.9,613.1l781.9,0l0,-0.8l-781.9,0l0,0.8Z" class="g2_2099" />
<path d="M69.9,637.4l781.9,0l0,-0.7l-781.9,0l0,0.7Z" class="g2_2099" />
<path d="M69.9,661.9l781.9,0l0,-0.7l-781.9,0l0,0.7Z" class="g2_2099" />
<path d="M69.9,686.4l781.9,0l0,-0.7l-781.9,0l0,0.7Z" class="g2_2099" />
<path d="M69.9,710.8l781.9,0l0,-0.8L69.9,710l0,0.8Z" class="g2_2099" />
<path d="M69.9,735.3l781.9,0l0,-0.8l-781.9,0l0,0.8Z" class="g2_2099" />
<path d="M69.9,774.9l781.9,0l0,-0.7l-781.9,0l0,0.7Z" class="g2_2099" />
<path d="M69.9,799.4l781.9,0l0,-0.7l-781.9,0l0,0.7Z" class="g2_2099" />
<path d="M69.9,823.9l781.9,0l0,-0.7l-781.9,0l0,0.7Z" class="g2_2099" />
<path d="M69.9,848.3l781.9,0l0,-0.7l-781.9,0l0,0.7Z" class="g2_2099" />
<path d="M69.9,872.8l781.9,0l0,-0.8L69.9,872l0,0.8Z" class="g2_2099" />
<path d="M69.9,897.2l781.9,0l0,-0.7l-781.9,0l0,0.7Z" class="g2_2099" />
<path d="M69.9,921.6l781.9,0l0,-0.7l-781.9,0l0,0.7Z" class="g2_2099" />
<path d="M69.9,946.1l781.9,0l0,-0.7l-781.9,0l0,0.7Z" class="g2_2099" />
<path d="M69.9,970.6l781.9,0l0,-0.8l-781.9,0l0,0.8Z" class="g2_2099" />
</svg>