<?xml version="1.0" encoding="UTF-8" standalone="no"?>
<!DOCTYPE svg PUBLIC "-//W3C//DTD SVG 1.1//EN"
"http://www.w3.org/Graphics/SVG/1.1/DTD/svg11.dtd">
<svg viewBox="0 0 935 1210" version="1.1" xmlns="http://www.w3.org/2000/svg" xmlns:xlink="http://www.w3.org/1999/xlink">
<defs>
<style type="text/css"><![CDATA[
.g1_905{
fill: #FFFFFF;
}
.g2_905{
}
]]></style>
</defs>
<path d="M68.9,1149.3l686.3,0l0,-21.2l-686.3,0l0,21.2Z" class="g1_905" />
<path d="M771.3,1149.3l83.7,0l0,-21.2l-83.7,0l0,21.2Z" class="g1_905" />
<path d="M69.2,291.4l0.7,0l0,-165.7l-0.7,0l0,165.7Z" class="g2_905" />
<path d="M393.1,292.2l0.7,0l0,-167.3l-0.7,0l0,167.3Z" class="g2_905" />
<path d="M430.9,292.2l0.8,0l0,-167.3l-0.8,0l0,167.3Z" class="g2_905" />
<path d="M504.3,292.2l0.7,0l0,-167.3l-0.7,0l0,167.3Z" class="g2_905" />
<path d="M575.7,292.2l0.7,0l0,-167.3l-0.7,0l0,167.3Z" class="g2_905" />
<path d="M852.8,291.4l0.7,0l0,-165.7l-0.7,0l0,165.7Z" class="g2_905" />
<path d="M69.2,125.7l784.4,0l0,-0.8l-784.4,0l0,0.8Z" class="g2_905" />
<path d="M69.2,179.1l784.4,0l0,-0.7l-784.4,0l0,0.7Z" class="g2_905" />
<path d="M69.2,235.7l784.4,0l0,-0.8l-784.4,0l0,0.8Z" class="g2_905" />
<path d="M69.2,292.1l784.4,0l0,-0.7l-784.4,0l0,0.7Z" class="g2_905" />
<path d="M70.5,395.4l0.7,0l0,-48.2l-0.7,0l0,48.2Z" class="g2_905" />
<path d="M140.1,396.1l0.7,0l0,-49.7l-0.7,0l0,49.7Z" class="g2_905" />
<path d="M321.4,396.1l0.7,0l0,-49.7l-0.7,0l0,49.7Z" class="g2_905" />
<path d="M499.9,396.1l0.8,0l0,-49.7l-0.8,0l0,49.7Z" class="g2_905" />
<path d="M677.9,396.1l0.7,0l0,-49.7l-0.7,0l0,49.7Z" class="g2_905" />
<path d="M851.5,395.4l0.7,0l0,-48.2l-0.7,0l0,48.2Z" class="g2_905" />
<path d="M70.5,347.1l781.8,0l0,-0.7l-781.8,0l0,0.7Z" class="g2_905" />
<path d="M70.5,371.6l781.8,0l0,-0.7l-781.8,0l0,0.7Z" class="g2_905" />
<path d="M70.5,396.1l781.8,0l0,-0.7l-781.8,0l0,0.7Z" class="g2_905" />
<path d="M72,1001.9l0.7,0l0,-113.8l-0.7,0l0,113.8Z" class="g2_905" />
<path d="M257.6,1002.7l0.7,0l0,-115.4l-0.7,0l0,115.4Z" class="g2_905" />
<path d="M387.1,1002.7l0.7,0l0,-115.4l-0.7,0l0,115.4Z" class="g2_905" />
<path d="M513.9,1002.7l0.7,0l0,-115.4l-0.7,0l0,115.4Z" class="g2_905" />
<path d="M624.2,1002.7l0.7,0l0,-115.4l-0.7,0l0,115.4Z" class="g2_905" />
<path d="M757.3,1002.7l0.7,0l0,-115.4l-0.7,0l0,115.4Z" class="g2_905" />
<path d="M850,1001.9l0.8,0l0,-113.8l-0.8,0l0,113.8Z" class="g2_905" />
<path d="M72,888.1l778.8,0l0,-0.8L72,887.3l0,0.8Z" class="g2_905" />
<path d="M72,911l778.8,0l0,-0.8L72,910.2l0,0.8Z" class="g2_905" />
<path d="M72,933.9l778.8,0l0,-0.7L72,933.2l0,0.7Z" class="g2_905" />
<path d="M72,956.8l778.8,0l0,-0.7L72,956.1l0,0.7Z" class="g2_905" />
<path d="M72,979.7l778.8,0l0,-0.7L72,979l0,0.7Z" class="g2_905" />
<path d="M72,1002.7l778.8,0l0,-0.8l-778.8,0l0,0.8Z" class="g2_905" />
</svg>