<?xml version="1.0" encoding="UTF-8" standalone="no"?>
<!DOCTYPE svg PUBLIC "-//W3C//DTD SVG 1.1//EN"
"http://www.w3.org/Graphics/SVG/1.1/DTD/svg11.dtd">
<svg viewBox="0 0 935 1210" version="1.1" xmlns="http://www.w3.org/2000/svg" xmlns:xlink="http://www.w3.org/1999/xlink">
<defs>
<style type="text/css"><![CDATA[
.g1_715{
fill: #FFFFFF;
}
.g2_715{
}
]]></style>
</defs>
<path d="M68.9,1149.3l686.3,0l0,-21.2l-686.3,0l0,21.2Z" class="g1_715" />
<path d="M771.3,1149.3l83.7,0l0,-21.2l-83.7,0l0,21.2Z" class="g1_715" />
<path d="M72.1,244.1l0.8,0l0,-121.4l-0.8,0l0,121.4Z" class="g2_715" />
<path d="M181.5,244.8l0.7,0l0,-123l-0.7,0l0,123Z" class="g2_715" />
<path d="M346,244.8l0.8,0l0,-123l-0.8,0l0,123Z" class="g2_715" />
<path d="M514.7,244.8l0.7,0l0,-123l-0.7,0l0,123Z" class="g2_715" />
<path d="M680.2,244.8l0.7,0l0,-123l-0.7,0l0,123Z" class="g2_715" />
<path d="M849.8,244.1l0.8,0l0,-121.4l-0.8,0l0,121.4Z" class="g2_715" />
<path d="M72.1,122.6l778.5,0l0,-0.8l-778.5,0l0,0.8Z" class="g2_715" />
<path d="M72.1,147l778.5,0l0,-0.7l-778.5,0l0,0.7Z" class="g2_715" />
<path d="M72.1,171.5l778.5,0l0,-0.7l-778.5,0l0,0.7Z" class="g2_715" />
<path d="M72.1,195.9l778.5,0l0,-0.7l-778.5,0l0,0.7Z" class="g2_715" />
<path d="M72.1,220.4l778.5,0l0,-0.8l-778.5,0l0,0.8Z" class="g2_715" />
<path d="M72.1,244.8l778.5,0l0,-0.7l-778.5,0l0,0.7Z" class="g2_715" />
</svg>