<?xml version="1.0" encoding="UTF-8" standalone="no"?>
<!DOCTYPE svg PUBLIC "-//W3C//DTD SVG 1.1//EN"
"http://www.w3.org/Graphics/SVG/1.1/DTD/svg11.dtd">
<svg viewBox="0 0 935 1210" version="1.1" xmlns="http://www.w3.org/2000/svg" xmlns:xlink="http://www.w3.org/1999/xlink">
<defs>
<style type="text/css"><![CDATA[
.g1_2095{
fill: #FFFFFF;
}
.g2_2095{
}
]]></style>
</defs>
<path d="M68.9,1149.3l783.8,0l0,-21.2l-783.8,0l0,21.2Z" class="g1_2095" />
<path d="M69.9,1098.2l0.8,0l0,-974.1l-0.8,0l0,974.1Z" class="g2_2095" />
<path d="M417.4,1098.9l0.7,0l0,-975.5l-0.7,0l0,975.5Z" class="g2_2095" />
<path d="M853.2,1098.2l0.8,0l0,-974.1l-0.8,0l0,974.1Z" class="g2_2095" />
<path d="M69.9,124.1l784.2,0l0,-0.7l-784.2,0l0,0.7Z" class="g2_2095" />
<path d="M69.9,148.6l784.2,0l0,-0.7l-784.2,0l0,0.7Z" class="g2_2095" />
<path d="M69.9,173l784.2,0l0,-0.8l-784.2,0l0,0.8Z" class="g2_2095" />
<path d="M69.9,197.4l784.2,0l0,-0.7l-784.2,0l0,0.7Z" class="g2_2095" />
<path d="M69.9,237.1l784.2,0l0,-0.7l-784.2,0l0,0.7Z" class="g2_2095" />
<path d="M69.9,261.6l784.2,0l0,-0.7l-784.2,0l0,0.7Z" class="g2_2095" />
<path d="M69.9,286.1l784.2,0l0,-0.7l-784.2,0l0,0.7Z" class="g2_2095" />
<path d="M69.9,325.8l784.2,0l0,-0.7l-784.2,0l0,0.7Z" class="g2_2095" />
<path d="M69.9,350.3l784.2,0l0,-0.8l-784.2,0l0,0.8Z" class="g2_2095" />
<path d="M69.9,374.6l784.2,0l0,-0.7l-784.2,0l0,0.7Z" class="g2_2095" />
<path d="M69.9,414.4l784.2,0l0,-0.7l-784.2,0l0,0.7Z" class="g2_2095" />
<path d="M69.9,438.9l784.2,0l0,-0.7l-784.2,0l0,0.7Z" class="g2_2095" />
<path d="M69.9,463.3l784.2,0l0,-0.8l-784.2,0l0,0.8Z" class="g2_2095" />
<path d="M69.9,503.1l784.2,0l0,-0.8l-784.2,0l0,0.8Z" class="g2_2095" />
<path d="M69.9,527.4l784.2,0l0,-0.7l-784.2,0l0,0.7Z" class="g2_2095" />
<path d="M69.9,551.9l784.2,0l0,-0.7l-784.2,0l0,0.7Z" class="g2_2095" />
<path d="M69.9,591.6l784.2,0l0,-0.7l-784.2,0l0,0.7Z" class="g2_2095" />
<path d="M69.9,616.1l784.2,0l0,-0.7l-784.2,0l0,0.7Z" class="g2_2095" />
<path d="M69.9,640.6l784.2,0l0,-0.8l-784.2,0l0,0.8Z" class="g2_2095" />
<path d="M69.9,695.6l784.2,0l0,-0.8l-784.2,0l0,0.8Z" class="g2_2095" />
<path d="M69.9,719.9l784.2,0l0,-0.7l-784.2,0l0,0.7Z" class="g2_2095" />
<path d="M69.9,744.4l784.2,0l0,-0.7l-784.2,0l0,0.7Z" class="g2_2095" />
<path d="M69.9,784.1l784.2,0l0,-0.7l-784.2,0l0,0.7Z" class="g2_2095" />
<path d="M69.9,808.6l784.2,0l0,-0.7l-784.2,0l0,0.7Z" class="g2_2095" />
<path d="M69.9,833.1l784.2,0l0,-0.8l-784.2,0l0,0.8Z" class="g2_2095" />
<path d="M69.9,872.8l784.2,0l0,-0.8L69.9,872l0,0.8Z" class="g2_2095" />
<path d="M69.9,897.2l784.2,0l0,-0.7l-784.2,0l0,0.7Z" class="g2_2095" />
<path d="M69.9,921.6l784.2,0l0,-0.7l-784.2,0l0,0.7Z" class="g2_2095" />
<path d="M69.9,961.4l784.2,0l0,-0.7l-784.2,0l0,0.7Z" class="g2_2095" />
<path d="M69.9,985.8l784.2,0l0,-0.7l-784.2,0l0,0.7Z" class="g2_2095" />
<path d="M69.9,1010.3l784.2,0l0,-0.8l-784.2,0l0,0.8Z" class="g2_2095" />
<path d="M69.9,1034.7l784.2,0l0,-0.7l-784.2,0l0,0.7Z" class="g2_2095" />
<path d="M69.9,1059.1l784.2,0l0,-0.7l-784.2,0l0,0.7Z" class="g2_2095" />
<path d="M69.9,1098.9l784.2,0l0,-0.7l-784.2,0l0,0.7Z" class="g2_2095" />
</svg>