<?xml version="1.0" encoding="UTF-8" standalone="no"?>
<!DOCTYPE svg PUBLIC "-//W3C//DTD SVG 1.1//EN"
"http://www.w3.org/Graphics/SVG/1.1/DTD/svg11.dtd">
<svg viewBox="0 0 935 1210" version="1.1" xmlns="http://www.w3.org/2000/svg" xmlns:xlink="http://www.w3.org/1999/xlink">
<defs>
<style type="text/css"><![CDATA[
.g1_2126{
fill: #FFFFFF;
}
.g2_2126{
}
]]></style>
</defs>
<path d="M68.8,1149.3l783.7,0l0,-21.2l-783.7,0l0,21.2Z" class="g1_2126" />
<path d="M68.6,1084.4l0.7,0l0,-977.1l-0.7,0l0,977.1Z" class="g2_2126" />
<path d="M443.8,1085.2l0.8,0l0,-978.6l-0.8,0l0,978.6Z" class="g2_2126" />
<path d="M849.9,1084.4l0.8,0l0,-977.1l-0.8,0l0,977.1Z" class="g2_2126" />
<path d="M68.6,107.3l782.1,0l0,-0.7l-782.1,0l0,0.7Z" class="g2_2126" />
<path d="M68.6,131.7l782.1,0l0,-0.7L68.6,131l0,0.7Z" class="g2_2126" />
<path d="M68.6,173l782.1,0l0,-0.8l-782.1,0l0,0.8Z" class="g2_2126" />
<path d="M68.6,197.4l782.1,0l0,-0.7l-782.1,0l0,0.7Z" class="g2_2126" />
<path d="M68.6,238.7l782.1,0l0,-0.7L68.6,238l0,0.7Z" class="g2_2126" />
<path d="M68.6,263.2l782.1,0l0,-0.8l-782.1,0l0,0.8Z" class="g2_2126" />
<path d="M68.6,287.6l782.1,0l0,-0.8l-782.1,0l0,0.8Z" class="g2_2126" />
<path d="M68.6,312l782.1,0l0,-0.7l-782.1,0l0,0.7Z" class="g2_2126" />
<path d="M68.6,336.5l782.1,0l0,-0.7l-782.1,0l0,0.7Z" class="g2_2126" />
<path d="M68.6,360.9l782.1,0l0,-0.7l-782.1,0l0,0.7Z" class="g2_2126" />
<path d="M68.6,385.4l782.1,0l0,-0.8l-782.1,0l0,0.8Z" class="g2_2126" />
<path d="M68.6,409.8l782.1,0l0,-0.7l-782.1,0l0,0.7Z" class="g2_2126" />
<path d="M68.6,434.3l782.1,0l0,-0.7l-782.1,0l0,0.7Z" class="g2_2126" />
<path d="M68.6,458.7l782.1,0l0,-0.7L68.6,458l0,0.7Z" class="g2_2126" />
<path d="M68.6,498.5l782.1,0l0,-0.8l-782.1,0l0,0.8Z" class="g2_2126" />
<path d="M68.6,522.9l782.1,0l0,-0.8l-782.1,0l0,0.8Z" class="g2_2126" />
<path d="M68.6,547.3l782.1,0l0,-0.7l-782.1,0l0,0.7Z" class="g2_2126" />
<path d="M68.6,571.8l782.1,0l0,-0.7l-782.1,0l0,0.7Z" class="g2_2126" />
<path d="M68.6,596.2l782.1,0l0,-0.7l-782.1,0l0,0.7Z" class="g2_2126" />
<path d="M68.6,620.7l782.1,0l0,-0.8l-782.1,0l0,0.8Z" class="g2_2126" />
<path d="M68.6,661.9l782.1,0l0,-0.7l-782.1,0l0,0.7Z" class="g2_2126" />
<path d="M68.6,686.4l782.1,0l0,-0.7l-782.1,0l0,0.7Z" class="g2_2126" />
<path d="M68.6,726.1l782.1,0l0,-0.7l-782.1,0l0,0.7Z" class="g2_2126" />
<path d="M68.6,750.6l782.1,0l0,-0.8l-782.1,0l0,0.8Z" class="g2_2126" />
<path d="M68.6,774.9l782.1,0l0,-0.7l-782.1,0l0,0.7Z" class="g2_2126" />
<path d="M68.6,799.4l782.1,0l0,-0.7l-782.1,0l0,0.7Z" class="g2_2126" />
<path d="M68.6,823.9l782.1,0l0,-0.7l-782.1,0l0,0.7Z" class="g2_2126" />
<path d="M68.6,848.3l782.1,0l0,-0.7l-782.1,0l0,0.7Z" class="g2_2126" />
<path d="M68.6,872.8l782.1,0l0,-0.8L68.6,872l0,0.8Z" class="g2_2126" />
<path d="M68.6,914l782.1,0l0,-0.7l-782.1,0l0,0.7Z" class="g2_2126" />
<path d="M68.6,938.5l782.1,0l0,-0.7l-782.1,0l0,0.7Z" class="g2_2126" />
<path d="M68.6,962.9l782.1,0l0,-0.8l-782.1,0l0,0.8Z" class="g2_2126" />
<path d="M68.6,987.3l782.1,0l0,-0.7l-782.1,0l0,0.7Z" class="g2_2126" />
<path d="M68.6,1011.8l782.1,0l0,-0.7l-782.1,0l0,0.7Z" class="g2_2126" />
<path d="M68.6,1036.2l782.1,0l0,-0.7l-782.1,0l0,0.7Z" class="g2_2126" />
<path d="M68.6,1060.7l782.1,0l0,-0.8l-782.1,0l0,0.8Z" class="g2_2126" />
<path d="M68.6,1085.2l782.1,0l0,-0.8l-782.1,0l0,0.8Z" class="g2_2126" />
</svg>