<?xml version="1.0" encoding="UTF-8" standalone="no"?>
<!DOCTYPE svg PUBLIC "-//W3C//DTD SVG 1.1//EN"
"http://www.w3.org/Graphics/SVG/1.1/DTD/svg11.dtd">
<svg viewBox="0 0 935 1210" version="1.1" xmlns="http://www.w3.org/2000/svg" xmlns:xlink="http://www.w3.org/1999/xlink">
<defs>
<style type="text/css"><![CDATA[
.g1_540{
fill: #FFFFFF;
}
.g2_540{
fill: none;
stroke: #000000;
stroke-width: 1.0999999;
stroke-linecap: butt;
stroke-linejoin: miter;
stroke-miterlimit: 3;
}
.g3_540{
fill: #CECECE;
}
.g4_540{
fill: none;
stroke: #000000;
stroke-width: 0.36666667;
stroke-linecap: butt;
stroke-linejoin: miter;
stroke-miterlimit: 3;
}
.g5_540{
}
]]></style>
</defs>
<path d="M165,1149.3l687.5,0l0,-21.2l-687.5,0l0,21.2Z" class="g1_540" />
<path d="M68.8,1149.3l82.5,0l0,-21.2l-82.5,0l0,21.2Z" class="g1_540" />
<path d="M176.4,517.5l568.4,0l0,-366.2l-568.4,0l0,366.2Z" class="g1_540" />
<path d="M184.5,482.4l551.8,0l0,-330l-551.8,0l0,330Z" class="g1_540" />
<path d="M184.5,152.4l551.8,0l0,330l-551.8,0l0,-330Z" class="g2_540" />
<path d="M550.7,445.6l103.1,0l0,-72.1l-103.1,0l0,72.1Z" class="g3_540" />
<path d="M550.7,373.5l103.1,0l0,72.1l-103.1,0l0,-72.1Z" class="g4_540" />
<path d="M550.7,234.9l103.1,0l0,-41.3l-103.1,0l0,41.3Z" class="g1_540" />
<path d="M550.7,193.6l103.1,0l0,41.3l-103.1,0l0,-41.3Z" class="g4_540" />
<path d="M447.5,445.6l103.2,0l0,-72.1l-103.2,0l0,72.1Z" class="g3_540" />
<path d="M447.5,373.5l103.2,0l0,72.1l-103.2,0l0,-72.1Z" class="g4_540" />
<path d="M447.5,234.9l103.2,0l0,-41.3l-103.2,0l0,41.3Z" class="g1_540" />
<path d="M447.5,193.6l103.2,0l0,41.3l-103.2,0l0,-41.3Z" class="g4_540" />
<path d="M550.7,325.6l103.1,0l0,-41.2l-103.1,0l0,41.2Z" class="g1_540" />
<path d="M550.7,284.4l103.1,0l0,41.2l-103.1,0l0,-41.2Z" class="g4_540" />
<path d="M447.5,325.6l103.2,0l0,-41.2l-103.2,0l0,41.2Z" class="g1_540" />
<path d="M447.5,284.4l103.2,0l0,41.2l-103.2,0l0,-41.2Z" class="g4_540" />
<path d="M344.4,445.6l103.1,0l0,-72.1l-103.1,0l0,72.1Z" class="g3_540" />
<path d="M344.4,373.5l103.1,0l0,72.1l-103.1,0l0,-72.1Z" class="g4_540" />
<path d="M344.4,234.9l103.1,0l0,-41.3l-103.1,0l0,41.3Z" class="g1_540" />
<path d="M344.4,193.6l103.1,0l0,41.3l-103.1,0l0,-41.3Z" class="g4_540" />
<path d="M239.5,445.6l104.9,0l0,-72.1l-104.9,0l0,72.1Z" class="g3_540" />
<path d="M239.5,373.5l104.9,0l0,72.1l-104.9,0l0,-72.1Z" class="g4_540" />
<path d="M239.5,234.9l104.9,0l0,-41.3l-104.9,0l0,41.3Z" class="g1_540" />
<path d="M239.5,193.6l104.9,0l0,41.3l-104.9,0l0,-41.3Z" class="g4_540" />
<path d="M344.4,325.6l103.1,0l0,-41.2l-103.1,0l0,41.2Z" class="g1_540" />
<path d="M344.4,284.4l103.1,0l0,41.2l-103.1,0l0,-41.2Z" class="g4_540" />
<path d="M239.5,325.6l104.9,0l0,-41.2l-104.9,0l0,41.2Z" class="g1_540" />
<path d="M239.5,284.4l104.9,0l0,41.2l-104.9,0l0,-41.2Z" class="g4_540" />
<path d="M499.1,325.6l0,12.4l103.1,0l0,29.3" class="g4_540" />
<path fill-rule="evenodd" d="M605.3,367.3l-3.1,6.2l-3.1,-6.2l6.2,0Z" class="g5_540" />
<path d="M602.2,341.2l0,-15.6" class="g4_540" />
<path d="M292.8,325.6l0,19.3l206.3,0l0,22.4" class="g4_540" />
<path fill-rule="evenodd" d="M502.2,367.3l-3.1,6.2L496,367.3l6.2,0Z" class="g5_540" />
<path d="M396,344.9l0,-19.3" class="g4_540" />
<path d="M396,234.9l0,17.1l-189.1,0l0,106.6l85.9,0l0,8.9" class="g4_540" />
<path fill-rule="evenodd" d="M295.9,367.5l-3.1,6.2l-3.1,-6.2l6.2,0Z" class="g5_540" />
<path d="M499.1,234.9l0,32.6" class="g4_540" />
<path d="M602.2,234.9l0,32.6l-378.1,0l0,84.2l171.9,0l0,15.8" class="g4_540" />
<path fill-rule="evenodd" d="M399.1,367.5l-3.1,6.2l-3.2,-6.2l6.3,0Z" class="g5_540" />
<path d="M292,234.9l0,17.1" class="g4_540" />
<path fill-rule="evenodd" d="M401.6,742.1l0.4,-0.3c0.9,-1.2,-0.5,-2.9,-1.9,-2.3l-0.5,0.3c-0.9,1.1,-0.2,2.9,1.4,2.6l0.3,-0.1l0.3,-0.2Z" class="g5_540" />
<path d="M400.7,740.9l5.4,-3.7l0.9,-0.6l0.3,1l7.6,22.6l0.9,2.6L413.7,761L395.3,745.9l-0.9,-0.6l0.9,-0.7l0.9,0.1l18.4,15.1l-0.9,1.2l-0.3,-0.3l-7.6,-22.6l1.5,-0.5l-0.3,0.9l-5.4,3.6Z" class="g5_540" />
<path d="M395.3,744.6l5.4,-3.7l0.9,1.2l-5.4,3.8Z" class="g5_540" />
<path fill-rule="evenodd" d="M401.1,741.5l5.4,-3.7l7.6,22.6L395.7,745.2Z" class="g5_540" />
<path d="M360.3,679.3l-2.5,1.8l41.7,60.8l2.5,-1.8Z" class="g5_540" />
<path fill-rule="evenodd" d="M395.5,748l0.2,-0.3l0.1,-0.2c0.2,-1.6,-1.3,-2.4,-2.6,-1.5l-0.3,0.5c-0.5,1.5,0.8,2.6,2.2,2l0.3,-0.2l0.1,-0.3Z" class="g5_540" />
<path d="M394.3,747.1l3.9,-5.2l0.6,-0.9l0.6,0.9l14.7,18.7l1.6,2.1l-2.5,-0.9l-22.3,-8.2l-1,-0.4l0.6,-0.8l0.8,-0.3l22.4,8.2l-0.5,1.5l-0.3,-0.3L398.2,742.8l1.2,-0.9l0,0.9l-3.9,5.2Z" class="g5_540" />
<path d="M390.5,752.4l3.8,-5.3l1.2,0.9l-3.8,5.3Z" class="g5_540" />
<path fill-rule="evenodd" d="M394.9,747.5l3.9,-5.2L413.4,761l-22.3,-8.1Z" class="g5_540" />
<path d="M303.1,679l-1.7,2.5l92.1,67l1.8,-2.5Z" class="g5_540" />
<path fill-rule="evenodd" d="M617.6,747.5l0.1,-0.1l0.1,-0.3c0.5,-1.6,-1.2,-2.5,-2.4,-1.6l-0.2,0.2L615,746c-0.6,1.4,0.8,2.7,2.2,2l0.2,-0.2l0.2,-0.3Z" class="g5_540" />
<path d="M616.5,746.6l3.9,-5.2l0.6,-0.7l0.6,0.7l14.3,19.2l1.6,2.2L612.8,753l-1,-0.3l0.6,-0.8l0.8,-0.3l22.3,8.7l-0.5,1.5l-0.4,-0.3L620.4,742.3l1.2,-0.9l0,0.9l-3.9,5.2Z" class="g5_540" />
<path d="M612.4,751.8l4.1,-5.2l1.2,0.9l-4.1,5.3Z" class="g5_540" />
<path fill-rule="evenodd" d="M617,747.1l3.9,-5.2L635.2,761L613,752.3Z" class="g5_540" />
<path d="M530,679l-1.8,2.4l87.3,66.4l1.8,-2.4Z" class="g5_540" />
<path fill-rule="evenodd" d="M623.3,742.1l0.4,-0.3c0.9,-1.2,-0.4,-2.9,-1.8,-2.3l-0.6,0.3c-0.9,1.1,-0.1,2.9,1.5,2.6l0.3,-0.1l0.2,-0.2Z" class="g5_540" />
<path d="M622.4,740.9l5.4,-3.7l0.9,-0.5l0.3,0.9l7.5,22.6l0.9,2.6L635.3,761L617,745.9l-0.8,-0.6l0.8,-0.7l0.9,0.1l18.4,15.1l-1,1.2l-0.2,-0.3l-7.6,-22.6l1.5,-0.5l-0.3,0.9l-5.4,3.6Z" class="g5_540" />
<path d="M617,744.6l5.4,-3.7l0.9,1.2l-5.4,3.8Z" class="g5_540" />
<path fill-rule="evenodd" d="M622.9,741.5l5.4,-3.7l7.5,22.6L617.5,745.2Z" class="g5_540" />
<path d="M582,679.3l-2.5,1.8l41.7,60.8l2.5,-1.8Z" class="g5_540" />
<path fill-rule="evenodd" d="M472.4,737.7l0.3,0l0.3,-0.1c1.4,-0.5,1.2,-2.5,-0.3,-2.9l-0.6,0c-1.4,0.4,-1.7,2.4,-0.3,2.9l0.3,0.1l0.3,0Z" class="g5_540" />
<path d="M472.4,736.3l7.6,0l-0.3,1l-6.5,22.9l-0.8,2.6l-0.7,-2.6l-6.6,-22.9l-0.3,-1l1,0l0.8,0.5l6.6,22.9l-1.5,0.5l0,-0.5l6.5,-22.9l1.5,0.5l-0.7,0.5l-6.6,0Z" class="g5_540" />
<path d="M465.9,737.8l6.6,0l0,-1.5l-6.6,0l0,1.5Z" class="g5_540" />
<path fill-rule="evenodd" d="M472.4,737l6.6,0l-6.6,22.9L465.8,737Z" class="g5_540" />
<path d="M471,736.3l3,0l0,-56.1l-3,0l0,56.1Z" class="g5_540" />
<path fill-rule="evenodd" d="M457.5,742.8l0.2,-0.2l0.2,-0.3c0.7,-1.5,-0.6,-2.6,-2,-2.2l-0.2,0.2l-0.3,0.2c-0.9,1.3,-0.1,2.8,1.6,2.5l0.2,0l0.3,-0.2Z" class="g5_540" />
<path d="M456.6,741.6l5.2,-4l0.9,-0.5L463,738l8.4,22.3l1,2.5l-2.2,-1.7L451.3,746.7l-0.9,-0.6l0.9,-0.6l0.9,0l19,14.4l-1,1.2L470,760.7l-8.5,-22.2L463,738l-0.3,0.8l-5.2,4Z" class="g5_540" />
<path d="M451.3,745.5l5.3,-3.9l0.9,1.2l-5.3,3.9Z" class="g5_540" />
<path fill-rule="evenodd" d="M457.1,742.1l5.2,-3.9l8.4,22.3l-19,-14.4Z" class="g5_540" />
<path d="M411.8,679.3l-2.4,1.8l46,61.3l2.4,-1.8Z" class="g5_540" />
<path d="M271.3,783.3l56.7,0l0,-20.6l-56.7,0l0,20.6Z" class="g1_540" />
<path d="M271.3,763l57.1,0l0,-0.7l-57.1,0l0,0.7Z" class="g5_540" />
<path d="M327.6,783.7l0.8,0l0,-21l-0.8,0l0,21Z" class="g5_540" />
<path d="M271,783.7l57,0l0,-0.8l-57,0l0,0.8Z" class="g5_540" />
<path d="M271,783.3l0.7,0l0,-21l-0.7,0l0,21Z" class="g5_540" />
<path d="M384.7,783.3l56.8,0l0,-20.6l-56.8,0l0,20.6Z" class="g1_540" />
<path d="M384.7,763l57.1,0l0,-0.7l-57.1,0l0,0.7Z" class="g5_540" />
<path d="M441.1,783.7l0.7,0l0,-21l-0.7,0l0,21Z" class="g5_540" />
<path d="M384.4,783.7l57.1,0l0,-0.8l-57.1,0l0,0.8Z" class="g5_540" />
<path d="M384.4,783.3l0.7,0l0,-21l-0.7,0l0,21Z" class="g5_540" />
<path d="M498.2,783.3l56.7,0l0,-20.6l-56.7,0l0,20.6Z" class="g1_540" />
<path d="M498.2,763l57.1,0l0,-0.7l-57.1,0l0,0.7Z" class="g5_540" />
<path d="M554.6,783.7l0.7,0l0,-21l-0.7,0l0,21Z" class="g5_540" />
<path d="M497.8,783.7l57.1,0l0,-0.8l-57.1,0l0,0.8Z" class="g5_540" />
<path d="M497.8,783.3l0.8,0l0,-21l-0.8,0l0,21Z" class="g5_540" />
<path d="M611.6,783.3l56.7,0l0,-20.6l-56.7,0l0,20.6Z" class="g1_540" />
<path d="M611.6,763l57.1,0l0,-0.7l-57.1,0l0,0.7Z" class="g5_540" />
<path d="M668,783.7l0.7,0l0,-21l-0.7,0l0,21Z" class="g5_540" />
<path d="M611.2,783.7l57.1,0l0,-0.8l-57.1,0l0,0.8Z" class="g5_540" />
<path d="M611.2,783.3l0.8,0l0,-21l-0.8,0l0,21Z" class="g5_540" />
<path d="M668.3,680.2l56.8,0l0,-20.7l-56.8,0l0,20.7Z" class="g1_540" />
<path d="M668.3,659.9l57.2,0l0,-0.7l-57.2,0l0,0.7Z" class="g5_540" />
<path d="M724.7,680.5l0.7,0l0,-21l-0.7,0l0,21Z" class="g5_540" />
<path d="M668,680.5l57.1,0l0,-0.7l-57.1,0l0,0.7Z" class="g5_540" />
<path d="M668,680.2l0.7,0l0,-21l-0.7,0l0,21Z" class="g5_540" />
<path fill-rule="evenodd" d="M694.1,737.7l0.4,0l0.2,-0.1c1.4,-0.5,1.2,-2.5,-0.2,-2.9l-0.7,0c-1.4,0.4,-1.6,2.4,-0.2,2.9l0.2,0.1l0.3,0Z" class="g5_540" />
<path d="M694.1,736.3l7.6,0l-0.3,1l-6.6,22.9l-0.7,2.6l-0.7,-2.6l-6.5,-22.9l-0.3,-1l1,0l0.7,0.5l6.5,22.9l-1.4,0.5l0,-0.5L700,736.8l1.4,0.5l-0.7,0.5l-6.6,0Z" class="g5_540" />
<path d="M687.6,737.8l6.5,0l0,-1.5l-6.5,0l0,1.5Z" class="g5_540" />
<path fill-rule="evenodd" d="M694.1,737l6.6,0l-6.6,22.9L687.6,737Z" class="g5_540" />
<path d="M692.6,736.3l3.1,0l0,-56.1l-3.1,0l0,56.1Z" class="g5_540" />
<path fill-rule="evenodd" d="M680,742.1l0.3,-0.1l0.1,-0.2c0.8,-1.2,-0.3,-2.9,-1.8,-2.3l-0.5,0.3l-0.2,0.3l-0.2,0.2l0,0.3l-0.1,0.3l0.2,0.6l0.1,0.3l0.2,0.2l0.2,0.2l0.6,0.2l0.5,0l0.3,-0.1l0.3,-0.2Z" class="g5_540" />
<path d="M679.2,740.9l5.4,-3.7l0.9,-0.5l0.3,0.9l7.5,22.6l0.9,2.6L692.1,761L673.8,745.9l-0.9,-0.6l0.9,-0.7l0.9,0.1L693,759.8l-0.9,1.2l-0.3,-0.3l-7.5,-22.6l1.5,-0.5l-0.3,0.9l-5.4,3.6Z" class="g5_540" />
<path d="M673.8,744.6l5.4,-3.7l0.9,1.2l-5.4,3.8Z" class="g5_540" />
<path fill-rule="evenodd" d="M679.6,741.5l5.4,-3.7l7.5,22.6L674.2,745.2Z" class="g5_540" />
<path d="M638.7,679.3l-2.4,1.8L678,741.9l2.4,-1.8Z" class="g5_540" />
<path d="M611.6,680.2l56.7,0l0,-20.7l-56.7,0l0,20.7Z" class="g1_540" />
<path d="M611.6,659.9l57.1,0l0,-0.7l-57.1,0l0,0.7Z" class="g5_540" />
<path d="M668,680.5l0.7,0l0,-21l-0.7,0l0,21Z" class="g5_540" />
<path d="M611.2,680.5l57.1,0l0,-0.7l-57.1,0l0,0.7Z" class="g5_540" />
<path d="M611.2,680.2l0.8,0l0,-21l-0.8,0l0,21Z" class="g5_540" />
<path d="M554.9,659.5l56.7,0l0,20.7l-56.7,0Z" class="g1_540" />
<path d="M554.9,659.9l57.1,0l0,-0.7l-57.1,0l0,0.7Z" class="g5_540" />
<path d="M611.2,680.5l0.8,0l0,-21l-0.8,0l0,21Z" class="g5_540" />
<path d="M554.6,680.5l57,0l0,-0.7l-57,0l0,0.7Z" class="g5_540" />
<path d="M554.6,680.2l0.7,0l0,-21l-0.7,0l0,21Z" class="g5_540" />
<path d="M498.2,680.2l56.7,0l0,-20.7l-56.7,0l0,20.7Z" class="g1_540" />
<path d="M498.2,659.9l57.1,0l0,-0.7l-57.1,0l0,0.7Z" class="g5_540" />
<path d="M554.6,680.5l0.7,0l0,-21l-0.7,0l0,21Z" class="g5_540" />
<path d="M497.8,680.5l57.1,0l0,-0.7l-57.1,0l0,0.7Z" class="g5_540" />
<path d="M497.8,680.2l0.8,0l0,-21l-0.8,0l0,21Z" class="g5_540" />
<path d="M441.5,680.2l56.7,0l0,-20.7l-56.7,0l0,20.7Z" class="g1_540" />
<path d="M441.5,659.9l57.1,0l0,-0.7l-57.1,0l0,0.7Z" class="g5_540" />
<path d="M497.8,680.5l0.8,0l0,-21l-0.8,0l0,21Z" class="g5_540" />
<path d="M441.1,680.5l57.1,0l0,-0.7l-57.1,0l0,0.7Z" class="g5_540" />
<path d="M441.1,680.2l0.7,0l0,-21l-0.7,0l0,21Z" class="g5_540" />
<path d="M384.7,680.2l56.8,0l0,-20.7l-56.8,0l0,20.7Z" class="g1_540" />
<path d="M384.7,659.9l57.1,0l0,-0.7l-57.1,0l0,0.7Z" class="g5_540" />
<path d="M441.1,680.5l0.7,0l0,-21l-0.7,0l0,21Z" class="g5_540" />
<path d="M384.4,680.5l57.1,0l0,-0.7l-57.1,0l0,0.7Z" class="g5_540" />
<path d="M384.4,680.2l0.7,0l0,-21l-0.7,0l0,21Z" class="g5_540" />
<path d="M328,680.2l56.7,0l0,-20.7l-56.7,0l0,20.7Z" class="g1_540" />
<path d="M328,659.9l57.1,0l0,-0.7l-57.1,0l0,0.7Z" class="g5_540" />
<path d="M384.4,680.5l0.7,0l0,-21l-0.7,0l0,21Z" class="g5_540" />
<path d="M327.6,680.5l57.1,0l0,-0.7l-57.1,0l0,0.7Z" class="g5_540" />
<path d="M327.6,680.2l0.8,0l0,-21l-0.8,0l0,21Z" class="g5_540" />
<path d="M271.3,680.2l56.7,0l0,-20.7l-56.7,0l0,20.7Z" class="g1_540" />
<path d="M271.3,659.9l57.1,0l0,-0.7l-57.1,0l0,0.7Z" class="g5_540" />
<path d="M327.6,680.5l0.8,0l0,-21l-0.8,0l0,21Z" class="g5_540" />
<path d="M271,680.5l57,0l0,-0.7l-57,0l0,0.7Z" class="g5_540" />
<path d="M271,680.2l0.7,0l0,-21l-0.7,0l0,21Z" class="g5_540" />
<path d="M668.3,726.6l56.8,0l0,-20.7l-56.8,0l0,20.7Z" class="g1_540" />
<path d="M668.3,706.3l57.2,0l0,-0.7l-57.2,0l0,0.7Z" class="g5_540" />
<path d="M724.7,726.9l0.7,0l0,-21l-0.7,0l0,21Z" class="g5_540" />
<path d="M668,726.9l57.1,0l0,-0.7l-57.1,0l0,0.7Z" class="g5_540" />
<path d="M668,726.6l0.7,0l0,-21l-0.7,0l0,21Z" class="g5_540" />
<path d="M611.6,726.6l56.7,0l0,-20.7l-56.7,0l0,20.7Z" class="g1_540" />
<path d="M611.6,706.3l57.1,0l0,-0.7l-57.1,0l0,0.7Z" class="g5_540" />
<path d="M668,726.9l0.7,0l0,-21l-0.7,0l0,21Z" class="g5_540" />
<path d="M611.2,726.9l57.1,0l0,-0.7l-57.1,0l0,0.7Z" class="g5_540" />
<path d="M611.2,726.6l0.8,0l0,-21l-0.8,0l0,21Z" class="g5_540" />
<path d="M554.9,705.9l56.7,0l0,20.7l-56.7,0Z" class="g1_540" />
<path d="M554.9,706.3l57.1,0l0,-0.7l-57.1,0l0,0.7Z" class="g5_540" />
<path d="M611.2,726.9l0.8,0l0,-21l-0.8,0l0,21Z" class="g5_540" />
<path d="M554.6,726.9l57,0l0,-0.7l-57,0l0,0.7Z" class="g5_540" />
<path d="M554.6,726.6l0.7,0l0,-21l-0.7,0l0,21Z" class="g5_540" />
<path d="M498.2,726.6l56.7,0l0,-20.7l-56.7,0l0,20.7Z" class="g1_540" />
<path d="M498.2,706.3l57.1,0l0,-0.7l-57.1,0l0,0.7Z" class="g5_540" />
<path d="M554.6,726.9l0.7,0l0,-21l-0.7,0l0,21Z" class="g5_540" />
<path d="M497.8,726.9l57.1,0l0,-0.7l-57.1,0l0,0.7Z" class="g5_540" />
<path d="M497.8,726.6l0.8,0l0,-21l-0.8,0l0,21Z" class="g5_540" />
<path d="M441.5,726.6l56.7,0l0,-20.7l-56.7,0l0,20.7Z" class="g1_540" />
<path d="M441.5,706.3l57.1,0l0,-0.7l-57.1,0l0,0.7Z" class="g5_540" />
<path d="M497.8,726.9l0.8,0l0,-21l-0.8,0l0,21Z" class="g5_540" />
<path d="M441.1,726.9l57.1,0l0,-0.7l-57.1,0l0,0.7Z" class="g5_540" />
<path d="M441.1,726.6l0.7,0l0,-21l-0.7,0l0,21Z" class="g5_540" />
<path d="M384.7,726.6l56.8,0l0,-20.7l-56.8,0l0,20.7Z" class="g1_540" />
<path d="M384.7,706.3l57.1,0l0,-0.7l-57.1,0l0,0.7Z" class="g5_540" />
<path d="M441.1,726.9l0.7,0l0,-21l-0.7,0l0,21Z" class="g5_540" />
<path d="M384.4,726.9l57.1,0l0,-0.7l-57.1,0l0,0.7Z" class="g5_540" />
<path d="M384.4,726.6l0.7,0l0,-21l-0.7,0l0,21Z" class="g5_540" />
<path d="M328,726.6l56.7,0l0,-20.7l-56.7,0l0,20.7Z" class="g1_540" />
<path d="M328,706.3l57.1,0l0,-0.7l-57.1,0l0,0.7Z" class="g5_540" />
<path d="M384.4,726.9l0.7,0l0,-21l-0.7,0l0,21Z" class="g5_540" />
<path d="M327.6,726.9l57.1,0l0,-0.7l-57.1,0l0,0.7Z" class="g5_540" />
<path d="M327.6,726.6l0.8,0l0,-21l-0.8,0l0,21Z" class="g5_540" />
<path d="M271.3,726.6l56.7,0l0,-20.7l-56.7,0l0,20.7Z" class="g1_540" />
<path d="M271.3,706.3l57.1,0l0,-0.7l-57.1,0l0,0.7Z" class="g5_540" />
<path d="M327.6,726.9l0.8,0l0,-21l-0.8,0l0,21Z" class="g5_540" />
<path d="M271,726.9l57,0l0,-0.7l-57,0l0,0.7Z" class="g5_540" />
<path d="M271,726.6l0.7,0l0,-21l-0.7,0l0,21Z" class="g5_540" />
<path d="M668.3,783.3l56.8,0l0,-20.6l-56.8,0l0,20.6Z" class="g1_540" />
<path d="M668.3,763l57.2,0l0,-0.7l-57.2,0l0,0.7Z" class="g5_540" />
<path d="M724.7,783.7l0.7,0l0,-21l-0.7,0l0,21Z" class="g5_540" />
<path d="M668,783.7l57.1,0l0,-0.8l-57.1,0l0,0.8Z" class="g5_540" />
<path d="M668,783.3l0.7,0l0,-21l-0.7,0l0,21Z" class="g5_540" />
<path d="M328,783.3l56.7,0l0,-20.6l-56.7,0l0,20.6Z" class="g1_540" />
<path d="M328,763l57.1,0l0,-0.7l-57.1,0l0,0.7Z" class="g5_540" />
<path d="M384.4,783.7l0.7,0l0,-21l-0.7,0l0,21Z" class="g5_540" />
<path d="M327.6,783.7l57.1,0l0,-0.8l-57.1,0l0,0.8Z" class="g5_540" />
<path d="M327.6,783.3l0.8,0l0,-21l-0.8,0l0,21Z" class="g5_540" />
<path d="M441.5,783.3l56.7,0l0,-20.6l-56.7,0l0,20.6Z" class="g1_540" />
<path d="M441.5,763l57.1,0l0,-0.7l-57.1,0l0,0.7Z" class="g5_540" />
<path d="M497.8,783.7l0.8,0l0,-21l-0.8,0l0,21Z" class="g5_540" />
<path d="M441.1,783.7l57.1,0l0,-0.8l-57.1,0l0,0.8Z" class="g5_540" />
<path d="M441.1,783.3l0.7,0l0,-21l-0.7,0l0,21Z" class="g5_540" />
<path d="M554.9,762.7l56.7,0l0,20.6l-56.7,0Z" class="g1_540" />
<path d="M554.9,763l57.1,0l0,-0.7l-57.1,0l0,0.7Z" class="g5_540" />
<path d="M611.2,783.7l0.8,0l0,-21l-0.8,0l0,21Z" class="g5_540" />
<path d="M554.6,783.7l57,0l0,-0.8l-57,0l0,0.8Z" class="g5_540" />
<path d="M554.6,783.3l0.7,0l0,-21l-0.7,0l0,21Z" class="g5_540" />
<path fill-rule="evenodd" d="M297.1,737.7l0.3,0l0.2,-0.1c1.4,-0.4,1.3,-2.6,-0.2,-2.9l-0.6,0c-1.4,0.3,-1.7,2.3,-0.3,2.9l0.3,0.1l0.3,0Z" class="g5_540" />
<path d="M297.1,736.3l7.6,0l-0.3,1l-6.6,22.9l-0.7,2.6l-0.7,-2.6l-6.6,-22.9l-0.3,-1l1,0l0.7,0.5l6.6,22.9l-1.4,0.5l0,-0.5L303,736.8l1.4,0.5l-0.7,0.5l-6.6,0Z" class="g5_540" />
<path d="M290.5,737.8l6.6,0l0,-1.5l-6.6,0l0,1.5Z" class="g5_540" />
<path fill-rule="evenodd" d="M297.1,737l6.6,0l-6.6,22.9L290.5,737Z" class="g5_540" />
<path d="M295.6,736.3l3,0l0,-9.7l-3,0l0,9.7Z" class="g5_540" />
<path fill-rule="evenodd" d="M318.1,749.3l0.2,0.3l0.5,0.3l0.3,0.1l0.5,0l0.3,-0.1l0.6,-0.3c0.5,-0.5,0.4,-0.7,0.4,-1.3l-0.1,-0.4l-0.2,-0.3l-0.1,-0.2c-1,-1,-2.8,-0.3,-2.6,1.3L318,749l0.1,0.3Z" class="g5_540" />
<path d="M319.4,748.5l3.5,5.6l0.5,0.9l-0.9,0.2l-22.9,6.7l-2.6,0.9l1.7,-2.1l15.9,-17.8l0.7,-0.9l0.6,1l-0.1,0.9l-15.9,17.9l-1.2,-1.1l0.4,-0.2L322,753.7l0.5,1.5l-0.9,-0.3L318,749.4Z" class="g5_540" />
<path d="M315.9,743l3.5,5.5l-1.4,0.9l-3.5,-5.6Z" class="g5_540" />
<path fill-rule="evenodd" d="M318.7,748.9l3.6,5.5l-22.9,6.8l15.8,-17.9Z" class="g5_540" />
<path d="M354.7,727.8L353,725.3l-34.5,21.9l1.7,2.5Z" class="g5_540" />
<path fill-rule="evenodd" d="M382.6,754.8l0.1,0.3l0.2,0.2c1,1.2,2.8,0.3,2.7,-1.2l-0.1,-0.2l-0.1,-0.3l-0.2,-0.3L385,753.1L384.7,753l-0.5,-0.2l-0.3,0l-0.4,0.1c-0.6,0.3,-0.7,0.3,-0.9,1.1l-0.1,0.2l0,0.3l0.1,0.3Z" class="g5_540" />
<path d="M384.1,754.3l2,6.3l0.2,1l-0.9,0.1l-23.8,1l-2.6,0.1l2.2,-1.6l19.6,-13.5l0.8,-0.5l0.4,0.9l-0.4,0.9L362,762.5l-0.8,-1.3l0.3,-0.1l23.8,-1l0.1,1.6l-0.9,-0.6l-2,-6.2Z" class="g5_540" />
<path d="M382,748.1l2.1,6.2l-1.6,0.6l-2.1,-6.3Z" class="g5_540" />
<path fill-rule="evenodd" d="M383.4,754.6l2,6.2l-23.8,1l19.6,-13.4Z" class="g5_540" />
<path d="M467.7,728l-0.9,-2.8L383.6,753l0.9,2.8Z" class="g5_540" />
<path fill-rule="evenodd" d="M380,749.3l0.1,0.3l0.6,0.3L381,750l0.5,0l0.3,-0.1l0.5,-0.3c0.5,-0.5,0.5,-0.7,0.5,-1.3l-0.1,-0.4l-0.2,-0.3l-0.2,-0.2c-0.9,-1,-2.7,-0.3,-2.5,1.3l0.1,0.3l0.1,0.3Z" class="g5_540" />
<path d="M381.2,748.5l3.6,5.6l0.5,0.9l-0.9,0.2l-23,6.7l-2.5,0.9l1.7,-2.1l15.9,-17.8l0.7,-0.9l0.6,1l-0.1,0.9l-15.9,17.9l-1.2,-1.1l0.4,-0.2l22.9,-6.8l0.5,1.5l-1,-0.3l-3.5,-5.5Z" class="g5_540" />
<path d="M377.8,743l3.4,5.5l-1.3,0.9l-3.5,-5.6Z" class="g5_540" />
<path fill-rule="evenodd" d="M380.6,748.9l3.6,5.5l-22.9,6.8l15.8,-17.9Z" class="g5_540" />
<path d="M416.5,727.8l-1.6,-2.5l-34.5,21.9l1.7,2.5Z" class="g5_540" />
<path fill-rule="evenodd" d="M520.5,738l0.5,-0.2l0.2,-0.2l0.3,-0.1l0.1,-0.3l0.2,-0.6l0,-0.3L521.7,736l-0.1,-0.3l-0.5,-0.4l-0.2,-0.1l-0.2,-0.1L520.3,735l-0.3,0l-0.3,0.1c-1.4,0.3,-1.2,2.6,0.1,2.9l0.7,0Z" class="g5_540" />
<path d="M520.2,736.5l6.5,-0.9l1,-0.1l-0.2,1l-3.2,23.6l-0.3,2.7l-1,-2.5l-9.8,-21.7l-0.4,-1l1,-0.1l0.8,0.4l9.7,21.7l-1.3,0.7l-0.1,-0.5l3.2,-23.5l1.4,0.2l-0.6,0.7l-6.5,0.9Z" class="g5_540" />
<path d="M513.8,737.5l6.4,-1l0.2,1.6L514,739Z" class="g5_540" />
<path fill-rule="evenodd" d="M520.3,737.3l6.5,-0.9l-3.2,23.5l-9.7,-21.7Z" class="g5_540" />
<path d="M520.4,726.4l-3,0.3l1.3,10l3.1,-0.3Z" class="g5_540" />
<path fill-rule="evenodd" d="M544.4,748.4l0.2,0.2l0.2,0.2c1.3,0.7,2.8,-0.5,2.3,-1.9l-0.2,-0.3l-0.2,-0.2c-1.2,-1,-2.8,-0.1,-2.6,1.4l0.1,0.3l0.2,0.3Z" class="g5_540" />
<path d="M545.6,747.5l3.8,5.4l0.6,0.8l-1,0.4l-22.6,7.7l-2.4,1l1.6,-2.2l15,-18.5l0.6,-0.8l0.6,0.8l0,0.9l-15,18.6l-1.2,-1l0.4,-0.2l22.5,-7.8l0.5,1.5l-0.8,-0.3l-3.9,-5.3Z" class="g5_540" />
<path d="M541.8,742.1l3.8,5.4l-1.3,1l-3.7,-5.4Z" class="g5_540" />
<path fill-rule="evenodd" d="M545,748l3.8,5.3l-22.5,7.8l14.9,-18.5Z" class="g5_540" />
<path d="M576.5,727.8l-1.8,-2.4l-29.9,20.9l1.7,2.5Z" class="g5_540" />
<path fill-rule="evenodd" d="M604.4,754.8l0,0.3l0.2,0.2c1,1.2,2.8,0.2,2.7,-1.2l-0.2,-0.5c-0.8,-1.4,-2.7,-0.9,-2.8,0.6l0,0.3l0.1,0.3Z" class="g5_540" />
<path d="M605.8,754.3l2,6.3l0.2,1l-0.9,0.1l-23.7,1l-2.7,0.1l2.2,-1.6l19.6,-13.5l0.9,-0.5l0.3,0.9l-0.3,0.9l-19.7,13.5l-0.8,-1.3l0.4,-0.1l23.7,-1l0.1,1.6l-0.8,-0.6l-2,-6.2Z" class="g5_540" />
<path d="M603.7,748.1l2.1,6.2l-1.5,0.6l-2.1,-6.3Z" class="g5_540" />
<path fill-rule="evenodd" d="M605.1,754.6l2,6.2l-23.7,1L603,748.4Z" class="g5_540" />
<path d="M689.4,728l-0.9,-2.8L605.3,753l0.9,2.8Z" class="g5_540" />
<path fill-rule="evenodd" d="M601.1,748.4l0.4,0.4c1.4,0.7,2.8,-0.5,2.2,-1.9l-0.1,-0.3l-0.2,-0.2l-0.5,-0.3L602.6,746l-0.5,0l-0.4,0.1l-0.2,0.2l-0.3,0.1l-0.1,0.3l-0.2,0.6l-0.1,0.2l0.3,0.9Z" class="g5_540" />
<path d="M602.3,747.5l3.8,5.4l0.6,0.8l-1.1,0.4l-22.4,7.7l-2.5,1l1.7,-2.2l14.9,-18.5l0.6,-0.8l0.7,0.8l-0.1,0.9l-14.9,18.6l-1.2,-1l0.3,-0.2l22.5,-7.8l0.4,1.5l-0.8,-0.3l-3.7,-5.3Z" class="g5_540" />
<path d="M598.6,742.1l3.7,5.4l-1.2,1l-3.8,-5.4Z" class="g5_540" />
<path fill-rule="evenodd" d="M601.7,748l3.8,5.3L583,761.1l14.9,-18.5Z" class="g5_540" />
<path d="M633.1,727.8l-1.7,-2.4l-29.9,20.9l1.8,2.5Z" class="g5_540" />
</svg>