<?xml version="1.0" encoding="UTF-8" standalone="no"?>
<!DOCTYPE svg PUBLIC "-//W3C//DTD SVG 1.1//EN"
"http://www.w3.org/Graphics/SVG/1.1/DTD/svg11.dtd">
<svg viewBox="0 0 935 1210" version="1.1" xmlns="http://www.w3.org/2000/svg" xmlns:xlink="http://www.w3.org/1999/xlink">
<defs>
<style type="text/css"><![CDATA[
.g1_1939{
fill: #FFFFFF;
}
.g2_1939{
}
]]></style>
</defs>
<path d="M68.9,1149.3l686.3,0l0,-21.2l-686.3,0l0,21.2Z" class="g1_1939" />
<path d="M771.3,1149.3l83.7,0l0,-21.2l-83.7,0l0,21.2Z" class="g1_1939" />
<path d="M69.9,285.4l0.8,0l0,-159.7l-0.8,0l0,159.7Z" class="g2_1939" />
<path d="M259.4,286.1l0.8,0l0,-161.2l-0.8,0l0,161.2Z" class="g2_1939" />
<path d="M300.5,286.1l0.7,0l0,-161.2l-0.7,0l0,161.2Z" class="g2_1939" />
<path d="M374.9,286.1l0.7,0l0,-161.2l-0.7,0l0,161.2Z" class="g2_1939" />
<path d="M442.6,286.1l0.7,0l0,-161.2l-0.7,0l0,161.2Z" class="g2_1939" />
<path d="M853.9,285.4l0.7,0l0,-159.7l-0.7,0l0,159.7Z" class="g2_1939" />
<path d="M69.9,125.7l784.7,0l0,-0.8l-784.7,0l0,0.8Z" class="g2_1939" />
<path d="M69.9,179.1l784.7,0l0,-0.7l-784.7,0l0,0.7Z" class="g2_1939" />
<path d="M69.9,232.6l784.7,0l0,-0.8l-784.7,0l0,0.8Z" class="g2_1939" />
<path d="M69.9,286.1l784.7,0l0,-0.7l-784.7,0l0,0.7Z" class="g2_1939" />
<path d="M70.5,389.2l0.7,0l0,-48.1l-0.7,0l0,48.1Z" class="g2_1939" />
<path d="M136,389.9l0.8,0l0,-49.5l-0.8,0l0,49.5Z" class="g2_1939" />
<path d="M301.5,389.9l0.7,0l0,-49.5l-0.7,0l0,49.5Z" class="g2_1939" />
<path d="M482.3,389.9l0.7,0l0,-49.5l-0.7,0l0,49.5Z" class="g2_1939" />
<path d="M657.6,389.9l0.8,0l0,-49.5l-0.8,0l0,49.5Z" class="g2_1939" />
<path d="M851.5,389.2l0.7,0l0,-48.1l-0.7,0l0,48.1Z" class="g2_1939" />
<path d="M70.5,341.1l781.8,0l0,-0.7l-781.8,0l0,0.7Z" class="g2_1939" />
<path d="M70.5,365.5l781.8,0l0,-0.8l-781.8,0l0,0.8Z" class="g2_1939" />
<path d="M70.5,389.9l781.8,0l0,-0.7l-781.8,0l0,0.7Z" class="g2_1939" />
</svg>