<?xml version="1.0" encoding="UTF-8" standalone="no"?>
<!DOCTYPE svg PUBLIC "-//W3C//DTD SVG 1.1//EN"
"http://www.w3.org/Graphics/SVG/1.1/DTD/svg11.dtd">
<svg viewBox="0 0 935 1210" version="1.1" xmlns="http://www.w3.org/2000/svg" xmlns:xlink="http://www.w3.org/1999/xlink">
<defs>
<style type="text/css"><![CDATA[
.g1_2088{
fill: #FFFFFF;
}
.g2_2088{
}
]]></style>
</defs>
<path d="M68.8,1149.3l783.7,0l0,-21.2l-783.7,0l0,21.2Z" class="g1_2088" />
<path d="M68.6,1069.1l0.7,0l0,-945l-0.7,0l0,945Z" class="g2_2088" />
<path d="M467.6,1069.8l0.7,0l0,-946.4l-0.7,0l0,946.4Z" class="g2_2088" />
<path d="M851.1,1069.1l0.8,0l0,-945l-0.8,0l0,945Z" class="g2_2088" />
<path d="M68.6,124.1l783.4,0l0,-0.7l-783.4,0l0,0.7Z" class="g2_2088" />
<path d="M68.6,148.6l783.4,0l0,-0.7l-783.4,0l0,0.7Z" class="g2_2088" />
<path d="M68.6,173L852,173l0,-0.8l-783.4,0l0,0.8Z" class="g2_2088" />
<path d="M68.6,197.4l783.4,0l0,-0.7l-783.4,0l0,0.7Z" class="g2_2088" />
<path d="M68.6,221.9l783.4,0l0,-0.7l-783.4,0l0,0.7Z" class="g2_2088" />
<path d="M68.6,263.2l783.4,0l0,-0.8l-783.4,0l0,0.8Z" class="g2_2088" />
<path d="M68.6,287.6l783.4,0l0,-0.8l-783.4,0l0,0.8Z" class="g2_2088" />
<path d="M68.6,312L852,312l0,-0.7l-783.4,0l0,0.7Z" class="g2_2088" />
<path d="M68.6,336.5l783.4,0l0,-0.7l-783.4,0l0,0.7Z" class="g2_2088" />
<path d="M68.6,360.9l783.4,0l0,-0.7l-783.4,0l0,0.7Z" class="g2_2088" />
<path d="M68.6,385.4l783.4,0l0,-0.8l-783.4,0l0,0.8Z" class="g2_2088" />
<path d="M68.6,409.8l783.4,0l0,-0.7l-783.4,0l0,0.7Z" class="g2_2088" />
<path d="M68.6,434.3l783.4,0l0,-0.7l-783.4,0l0,0.7Z" class="g2_2088" />
<path d="M68.6,458.7l783.4,0l0,-0.7L68.6,458l0,0.7Z" class="g2_2088" />
<path d="M68.6,483.2l783.4,0l0,-0.8l-783.4,0l0,0.8Z" class="g2_2088" />
<path d="M68.6,507.7l783.4,0l0,-0.8l-783.4,0l0,0.8Z" class="g2_2088" />
<path d="M68.6,532L852,532l0,-0.7l-783.4,0l0,0.7Z" class="g2_2088" />
<path d="M68.6,556.5l783.4,0l0,-0.7l-783.4,0l0,0.7Z" class="g2_2088" />
<path d="M68.6,581L852,581l0,-0.8l-783.4,0l0,0.8Z" class="g2_2088" />
<path d="M68.6,605.4l783.4,0l0,-0.8l-783.4,0l0,0.8Z" class="g2_2088" />
<path d="M68.6,629.8l783.4,0l0,-0.7l-783.4,0l0,0.7Z" class="g2_2088" />
<path d="M68.6,654.3l783.4,0l0,-0.7l-783.4,0l0,0.7Z" class="g2_2088" />
<path d="M68.6,678.7l783.4,0l0,-0.7L68.6,678l0,0.7Z" class="g2_2088" />
<path d="M68.6,703.2l783.4,0l0,-0.8l-783.4,0l0,0.8Z" class="g2_2088" />
<path d="M68.6,727.7l783.4,0l0,-0.8l-783.4,0l0,0.8Z" class="g2_2088" />
<path d="M68.6,752L852,752l0,-0.7l-783.4,0l0,0.7Z" class="g2_2088" />
<path d="M68.6,776.5l783.4,0l0,-0.7l-783.4,0l0,0.7Z" class="g2_2088" />
<path d="M68.6,801L852,801l0,-0.8l-783.4,0l0,0.8Z" class="g2_2088" />
<path d="M68.6,825.4l783.4,0l0,-0.8l-783.4,0l0,0.8Z" class="g2_2088" />
<path d="M68.6,849.8l783.4,0l0,-0.7l-783.4,0l0,0.7Z" class="g2_2088" />
<path d="M68.6,874.3l783.4,0l0,-0.7l-783.4,0l0,0.7Z" class="g2_2088" />
<path d="M68.6,898.7l783.4,0l0,-0.7L68.6,898l0,0.7Z" class="g2_2088" />
<path d="M68.6,923.2l783.4,0l0,-0.8l-783.4,0l0,0.8Z" class="g2_2088" />
<path d="M68.6,947.7l783.4,0l0,-0.8l-783.4,0l0,0.8Z" class="g2_2088" />
<path d="M68.6,972L852,972l0,-0.7l-783.4,0l0,0.7Z" class="g2_2088" />
<path d="M68.6,996.5l783.4,0l0,-0.7l-783.4,0l0,0.7Z" class="g2_2088" />
<path d="M68.6,1021l783.4,0l0,-0.7l-783.4,0l0,0.7Z" class="g2_2088" />
<path d="M68.6,1045.4l783.4,0l0,-0.8l-783.4,0l0,0.8Z" class="g2_2088" />
<path d="M68.6,1069.8l783.4,0l0,-0.7l-783.4,0l0,0.7Z" class="g2_2088" />
</svg>