<?xml version="1.0" encoding="UTF-8" standalone="no"?>
<!DOCTYPE svg PUBLIC "-//W3C//DTD SVG 1.1//EN"
"http://www.w3.org/Graphics/SVG/1.1/DTD/svg11.dtd">
<svg viewBox="0 0 935 1210" version="1.1" xmlns="http://www.w3.org/2000/svg" xmlns:xlink="http://www.w3.org/1999/xlink">
<defs>
<style type="text/css"><![CDATA[
.g1_1489{
fill: #FFFFFF;
}
.g2_1489{
}
]]></style>
</defs>
<path d="M68.9,1149.3l686.3,0l0,-21.2l-686.3,0l0,21.2Z" class="g1_1489" />
<path d="M771.3,1149.3l83.7,0l0,-21.2l-83.7,0l0,21.2Z" class="g1_1489" />
<path d="M69.9,998.8l0.8,0L70.7,147l-0.8,0l0,851.8Z" class="g2_1489" />
<path d="M328,999.6l0.7,0l0,-853.3l-0.7,0l0,853.3Z" class="g2_1489" />
<path d="M374.1,999.6l0.7,0l0,-853.3l-0.7,0l0,853.3Z" class="g2_1489" />
<path d="M448.6,999.6l0.7,0l0,-853.3l-0.7,0l0,853.3Z" class="g2_1489" />
<path d="M532.5,999.6l0.7,0l0,-853.3l-0.7,0l0,853.3Z" class="g2_1489" />
<path d="M855.6,998.8l0.8,0l0,-851.8l-0.8,0l0,851.8Z" class="g2_1489" />
<path d="M69.9,147l786.5,0l0,-0.7l-786.5,0l0,0.7Z" class="g2_1489" />
<path d="M69.9,197.4l786.5,0l0,-0.7l-786.5,0l0,0.7Z" class="g2_1489" />
<path d="M69.9,250.9l786.5,0l0,-0.7l-786.5,0l0,0.7Z" class="g2_1489" />
<path d="M69.9,304.4l786.5,0l0,-0.7l-786.5,0l0,0.7Z" class="g2_1489" />
<path d="M69.9,357.9l786.5,0l0,-0.8l-786.5,0l0,0.8Z" class="g2_1489" />
<path d="M69.9,411.4l786.5,0l0,-0.7l-786.5,0l0,0.7Z" class="g2_1489" />
<path d="M69.9,464.8l786.5,0l0,-0.7l-786.5,0l0,0.7Z" class="g2_1489" />
<path d="M69.9,518.3l786.5,0l0,-0.7l-786.5,0l0,0.7Z" class="g2_1489" />
<path d="M69.9,571.8l786.5,0l0,-0.7l-786.5,0l0,0.7Z" class="g2_1489" />
<path d="M69.9,625.3l786.5,0l0,-0.8l-786.5,0l0,0.8Z" class="g2_1489" />
<path d="M69.9,678.7l786.5,0l0,-0.7L69.9,678l0,0.7Z" class="g2_1489" />
<path d="M69.9,732.2l786.5,0l0,-0.7l-786.5,0l0,0.7Z" class="g2_1489" />
<path d="M69.9,785.7l786.5,0l0,-0.8l-786.5,0l0,0.8Z" class="g2_1489" />
<path d="M69.9,839.1l786.5,0l0,-0.7l-786.5,0l0,0.7Z" class="g2_1489" />
<path d="M69.9,892.7l786.5,0l0,-0.8l-786.5,0l0,0.8Z" class="g2_1489" />
<path d="M69.9,946.1l786.5,0l0,-0.7l-786.5,0l0,0.7Z" class="g2_1489" />
<path d="M69.9,999.5l786.5,0l0,-0.7l-786.5,0l0,0.7Z" class="g2_1489" />
</svg>