<?xml version="1.0" encoding="UTF-8" standalone="no"?>
<!DOCTYPE svg PUBLIC "-//W3C//DTD SVG 1.1//EN"
"http://www.w3.org/Graphics/SVG/1.1/DTD/svg11.dtd">
<svg viewBox="0 0 935 1210" version="1.1" xmlns="http://www.w3.org/2000/svg" xmlns:xlink="http://www.w3.org/1999/xlink">
<defs>
<style type="text/css"><![CDATA[
.g1_359{
fill: #FFFFFF;
}
.g2_359{
}
]]></style>
</defs>
<path d="M68.9,1149.3l686.3,0l0,-21.2l-686.3,0l0,21.2Z" class="g1_359" />
<path d="M771.3,1149.3l83.7,0l0,-21.2l-83.7,0l0,21.2Z" class="g1_359" />
<path d="M70.3,526.2l782.8,0l0,-29.6l-782.8,0l0,29.6Z" class="g1_359" />
<path d="M71.2,519.5l53.6,0l0,-12.5l-53.6,0l0,12.5Z" class="g1_359" />
<path d="M69.9,496.2l0.8,0l0,-370.5l-0.8,0l0,370.5Z" class="g2_359" />
<path d="M341.5,496.9l0.7,0l0,-372l-0.7,0l0,372Z" class="g2_359" />
<path d="M389.9,496.9l0.7,0l0,-372l-0.7,0l0,372Z" class="g2_359" />
<path d="M464.3,496.9l0.7,0l0,-372l-0.7,0l0,372Z" class="g2_359" />
<path d="M547.3,496.9l0.7,0l0,-372l-0.7,0l0,372Z" class="g2_359" />
<path d="M852.8,496.2l0.7,0l0,-370.5l-0.7,0l0,370.5Z" class="g2_359" />
<path d="M69.9,125.7l783.6,0l0,-0.8l-783.6,0l0,0.8Z" class="g2_359" />
<path d="M69.9,176.1l783.6,0l0,-0.7l-783.6,0l0,0.7Z" class="g2_359" />
<path d="M69.9,229.5l783.6,0l0,-0.7l-783.6,0l0,0.7Z" class="g2_359" />
<path d="M69.9,283l783.6,0l0,-0.8l-783.6,0l0,0.8Z" class="g2_359" />
<path d="M69.9,336.5l783.6,0l0,-0.7l-783.6,0l0,0.7Z" class="g2_359" />
<path d="M69.9,389.9l783.6,0l0,-0.7l-783.6,0l0,0.7Z" class="g2_359" />
<path d="M69.9,443.5l783.6,0l0,-0.8l-783.6,0l0,0.8Z" class="g2_359" />
<path d="M69.9,496.9l783.6,0l0,-0.7l-783.6,0l0,0.7Z" class="g2_359" />
<path d="M69.8,698.4l0.7,0l0,-97l-0.7,0l0,97Z" class="g2_359" />
<path d="M176.3,699.1l0.7,0l0,-98.5l-0.7,0l0,98.5Z" class="g2_359" />
<path d="M336.1,699.1l0.7,0l0,-98.5l-0.7,0l0,98.5Z" class="g2_359" />
<path d="M504.8,699.1l0.7,0l0,-98.5l-0.7,0l0,98.5Z" class="g2_359" />
<path d="M676.7,699.1l0.7,0l0,-98.5l-0.7,0l0,98.5Z" class="g2_359" />
<path d="M852.2,698.4l0.8,0l0,-97l-0.8,0l0,97Z" class="g2_359" />
<path d="M69.8,601.4l783.2,0l0,-0.7l-783.2,0l0,0.7Z" class="g2_359" />
<path d="M69.8,625.8l783.2,0l0,-0.7l-783.2,0l0,0.7Z" class="g2_359" />
<path d="M69.8,650.3l783.2,0l0,-0.7l-783.2,0l0,0.7Z" class="g2_359" />
<path d="M69.8,674.8l783.2,0l0,-0.8L69.8,674l0,0.8Z" class="g2_359" />
<path d="M69.8,699.1l783.2,0l0,-0.7l-783.2,0l0,0.7Z" class="g2_359" />
</svg>