<?xml version="1.0" encoding="UTF-8" standalone="no"?>
<!DOCTYPE svg PUBLIC "-//W3C//DTD SVG 1.1//EN"
"http://www.w3.org/Graphics/SVG/1.1/DTD/svg11.dtd">
<svg viewBox="0 0 935 1210" version="1.1" xmlns="http://www.w3.org/2000/svg" xmlns:xlink="http://www.w3.org/1999/xlink">
<defs>
<style type="text/css"><![CDATA[
.g1_738{
fill: #FFFFFF;
}
.g2_738{
}
]]></style>
</defs>
<path d="M165,1149.3l687.5,0l0,-21.2l-687.5,0l0,21.2Z" class="g1_738" />
<path d="M68.8,1149.3l82.5,0l0,-21.2l-82.5,0l0,21.2Z" class="g1_738" />
<path d="M68.6,395.4l0.7,0l0,-269.7l-0.7,0l0,269.7Z" class="g2_738" />
<path d="M266.8,396.1l0.8,0l0,-271.2l-0.8,0l0,271.2Z" class="g2_738" />
<path d="M334.9,396.1l0.7,0l0,-271.2l-0.7,0l0,271.2Z" class="g2_738" />
<path d="M409.4,396.1l0.7,0l0,-271.2l-0.7,0l0,271.2Z" class="g2_738" />
<path d="M491.2,396.1l0.8,0l0,-271.2l-0.8,0l0,271.2Z" class="g2_738" />
<path d="M848.6,395.4l0.8,0l0,-269.7l-0.8,0l0,269.7Z" class="g2_738" />
<path d="M68.6,125.7l780.8,0l0,-0.8l-780.8,0l0,0.8Z" class="g2_738" />
<path d="M68.6,176.1l780.8,0l0,-0.7l-780.8,0l0,0.7Z" class="g2_738" />
<path d="M68.6,212.8l780.8,0l0,-0.8L68.6,212l0,0.8Z" class="g2_738" />
<path d="M68.6,249.4l780.8,0l0,-0.7l-780.8,0l0,0.7Z" class="g2_738" />
<path d="M68.6,286.1l780.8,0l0,-0.7l-780.8,0l0,0.7Z" class="g2_738" />
<path d="M68.6,322.8l780.8,0l0,-0.8L68.6,322l0,0.8Z" class="g2_738" />
<path d="M68.6,359.4l780.8,0l0,-0.7l-780.8,0l0,0.7Z" class="g2_738" />
<path d="M68.6,396.1l780.8,0l0,-0.7l-780.8,0l0,0.7Z" class="g2_738" />
<path d="M71,597l0.8,0l0,-145.9l-0.8,0L71,597Z" class="g2_738" />
<path d="M195.3,597.8l0.8,0l0,-147.4l-0.8,0l0,147.4Z" class="g2_738" />
<path d="M357.8,597.8l0.7,0l0,-147.4l-0.7,0l0,147.4Z" class="g2_738" />
<path d="M523.1,597.8l0.8,0l0,-147.4l-0.8,0l0,147.4Z" class="g2_738" />
<path d="M689.8,597.8l0.7,0l0,-147.4l-0.7,0l0,147.4Z" class="g2_738" />
<path d="M849.4,597l0.7,0l0,-145.9l-0.7,0l0,145.9Z" class="g2_738" />
<path d="M71,451.1l779.1,0l0,-0.7L71,450.4l0,0.7Z" class="g2_738" />
<path d="M71,475.6l779.1,0l0,-0.8L71,474.8l0,0.8Z" class="g2_738" />
<path d="M71,499.9l779.1,0l0,-0.7L71,499.2l0,0.7Z" class="g2_738" />
<path d="M71,524.4l779.1,0l0,-0.7L71,523.7l0,0.7Z" class="g2_738" />
<path d="M71,548.9l779.1,0l0,-0.7L71,548.2l0,0.7Z" class="g2_738" />
<path d="M71,573.3l779.1,0l0,-0.7L71,572.6l0,0.7Z" class="g2_738" />
<path d="M71,597.8l779.1,0l0,-0.8L71,597l0,0.8Z" class="g2_738" />
</svg>