<?xml version="1.0" encoding="UTF-8" standalone="no"?>
<!DOCTYPE svg PUBLIC "-//W3C//DTD SVG 1.1//EN"
"http://www.w3.org/Graphics/SVG/1.1/DTD/svg11.dtd">
<svg viewBox="0 0 935 1210" version="1.1" xmlns="http://www.w3.org/2000/svg" xmlns:xlink="http://www.w3.org/1999/xlink">
<defs>
<style type="text/css"><![CDATA[
.g1_81{
fill: #FFFFFF;
}
.g2_81{
}
]]></style>
</defs>
<path d="M68.9,1149.3l783.8,0l0,-21.2l-783.8,0l0,21.2Z" class="g1_81" />
<path d="M68,408.5l786.7,0l0,-29.6L68,378.9l0,29.6Z" class="g1_81" />
<path d="M68.9,401.9l53.5,0l0,-12.5l-53.5,0l0,12.5Z" class="g1_81" />
<path d="M67.6,378.5l0.8,0l0,-254.4l-0.8,0l0,254.4Z" class="g2_81" />
<path d="M176.5,379.3l0.7,0l0,-255.9l-0.7,0l0,255.9Z" class="g2_81" />
<path d="M854.3,378.5l0.8,0l0,-254.4l-0.8,0l0,254.4Z" class="g2_81" />
<path d="M67.6,124.1l787.6,0l0,-0.7l-787.6,0l0,0.7Z" class="g2_81" />
<path d="M67.6,148.6l787.6,0l0,-0.7l-787.6,0l0,0.7Z" class="g2_81" />
<path d="M67.6,189.8l787.6,0l0,-0.7l-787.6,0l0,0.7Z" class="g2_81" />
<path d="M67.6,214.2l787.6,0l0,-0.7l-787.6,0l0,0.7Z" class="g2_81" />
<path d="M67.6,238.7l787.6,0l0,-0.7L67.6,238l0,0.7Z" class="g2_81" />
<path d="M67.6,263.2l787.6,0l0,-0.8l-787.6,0l0,0.8Z" class="g2_81" />
<path d="M67.6,321.2l787.6,0l0,-0.7l-787.6,0l0,0.7Z" class="g2_81" />
<path d="M67.6,379.2l787.6,0l0,-0.7l-787.6,0l0,0.7Z" class="g2_81" />
</svg>