<?xml version="1.0" encoding="UTF-8" standalone="no"?>
<!DOCTYPE svg PUBLIC "-//W3C//DTD SVG 1.1//EN"
"http://www.w3.org/Graphics/SVG/1.1/DTD/svg11.dtd">
<svg viewBox="0 0 935 1210" version="1.1" xmlns="http://www.w3.org/2000/svg" xmlns:xlink="http://www.w3.org/1999/xlink">
<defs>
<style type="text/css"><![CDATA[
.g1_427{
fill: #FFFFFF;
}
.g2_427{
}
]]></style>
</defs>
<path d="M68.9,1149.3l686.3,0l0,-21.2l-686.3,0l0,21.2Z" class="g1_427" />
<path d="M771.3,1149.3l83.7,0l0,-21.2l-83.7,0l0,21.2Z" class="g1_427" />
<path d="M70.1,392.2l0.8,0l0,-260.4l-0.8,0l0,260.4Z" class="g2_427" />
<path d="M198.6,393.1l0.7,0l0,-262.1l-0.7,0l0,262.1Z" class="g2_427" />
<path d="M382.7,393.1l0.7,0l0,-262.1l-0.7,0l0,262.1Z" class="g2_427" />
<path d="M457.4,393.1l0.8,0l0,-262.1l-0.8,0l0,262.1Z" class="g2_427" />
<path d="M537.9,393.1l0.7,0l0,-262.1l-0.7,0l0,262.1Z" class="g2_427" />
<path d="M851.9,392.2l0.7,0l0,-260.4l-0.7,0l0,260.4Z" class="g2_427" />
<path d="M70.1,131.7l782.5,0l0,-0.7L70.1,131l0,0.7Z" class="g2_427" />
<path d="M70.1,169.9l782.5,0l0,-0.7l-782.5,0l0,0.7Z" class="g2_427" />
<path d="M70.1,192.9l782.5,0l0,-0.8l-782.5,0l0,0.8Z" class="g2_427" />
<path d="M70.1,215.8l782.5,0l0,-0.8L70.1,215l0,0.8Z" class="g2_427" />
<path d="M70.1,238.7l782.5,0l0,-0.7L70.1,238l0,0.7Z" class="g2_427" />
<path d="M70.1,261.6l782.5,0l0,-0.7l-782.5,0l0,0.7Z" class="g2_427" />
<path d="M70.1,284.5l782.5,0l0,-0.7l-782.5,0l0,0.7Z" class="g2_427" />
<path d="M70.1,307.4l782.5,0l0,-0.7l-782.5,0l0,0.7Z" class="g2_427" />
<path d="M70.1,330.4l782.5,0l0,-0.8l-782.5,0l0,0.8Z" class="g2_427" />
<path d="M70.1,353.3l782.5,0l0,-0.7l-782.5,0l0,0.7Z" class="g2_427" />
<path d="M70.1,393l782.5,0l0,-0.8l-782.5,0l0,0.8Z" class="g2_427" />
<path d="M71,659.6l0.8,0l0,-113.8l-0.8,0l0,113.8Z" class="g2_427" />
<path d="M339,660.4l0.7,0l0,-115.4l-0.7,0l0,115.4Z" class="g2_427" />
<path d="M494.9,660.4l0.7,0l0,-115.4l-0.7,0l0,115.4Z" class="g2_427" />
<path d="M662.6,660.4l0.7,0l0,-115.4l-0.7,0l0,115.4Z" class="g2_427" />
<path d="M850.9,659.6l0.8,0l0,-113.8l-0.8,0l0,113.8Z" class="g2_427" />
<path d="M71,545.8l780.7,0l0,-0.7L71,545.1l0,0.7Z" class="g2_427" />
<path d="M71,568.7l780.7,0l0,-0.7L71,568l0,0.7Z" class="g2_427" />
<path d="M71,591.6l780.7,0l0,-0.7L71,590.9l0,0.7Z" class="g2_427" />
<path d="M71,614.5l780.7,0l0,-0.7L71,613.8l0,0.7Z" class="g2_427" />
<path d="M71,637.4l780.7,0l0,-0.7L71,636.7l0,0.7Z" class="g2_427" />
<path d="M71,660.4l780.7,0l0,-0.8L71,659.6l0,0.8Z" class="g2_427" />
</svg>