<?xml version="1.0" encoding="UTF-8" standalone="no"?>
<!DOCTYPE svg PUBLIC "-//W3C//DTD SVG 1.1//EN"
"http://www.w3.org/Graphics/SVG/1.1/DTD/svg11.dtd">
<svg viewBox="0 0 935 1210" version="1.1" xmlns="http://www.w3.org/2000/svg" xmlns:xlink="http://www.w3.org/1999/xlink">
<defs>
<style type="text/css"><![CDATA[
.g1_601{
fill: #FFFFFF;
}
.g2_601{
}
]]></style>
</defs>
<path d="M68.9,1149.3l686.3,0l0,-21.2l-686.3,0l0,21.2Z" class="g1_601" />
<path d="M771.3,1149.3l83.7,0l0,-21.2l-83.7,0l0,21.2Z" class="g1_601" />
<path d="M69.9,765.1l0.8,0l0,-639.4l-0.8,0l0,639.4Z" class="g2_601" />
<path d="M270,765.8l0.8,0l0,-640.9l-0.8,0l0,640.9Z" class="g2_601" />
<path d="M327.3,765.8l0.8,0l0,-640.9l-0.8,0l0,640.9Z" class="g2_601" />
<path d="M401.9,765.8l0.7,0l0,-640.9l-0.7,0l0,640.9Z" class="g2_601" />
<path d="M493.9,765.8l0.7,0l0,-640.9l-0.7,0l0,640.9Z" class="g2_601" />
<path d="M852,765.1l0.7,0l0,-639.4l-0.7,0l0,639.4Z" class="g2_601" />
<path d="M69.9,125.7l782.9,0l0,-0.8l-782.9,0l0,0.8Z" class="g2_601" />
<path d="M69.9,179.1l782.9,0l0,-0.7l-782.9,0l0,0.7Z" class="g2_601" />
<path d="M69.9,215.8l782.9,0l0,-0.8L69.9,215l0,0.8Z" class="g2_601" />
<path d="M69.9,252.4l782.9,0l0,-0.7l-782.9,0l0,0.7Z" class="g2_601" />
<path d="M69.9,289.1l782.9,0l0,-0.7l-782.9,0l0,0.7Z" class="g2_601" />
<path d="M69.9,325.8l782.9,0l0,-0.7l-782.9,0l0,0.7Z" class="g2_601" />
<path d="M69.9,362.4l782.9,0l0,-0.7l-782.9,0l0,0.7Z" class="g2_601" />
<path d="M69.9,399.1l782.9,0l0,-0.7l-782.9,0l0,0.7Z" class="g2_601" />
<path d="M69.9,435.8l782.9,0l0,-0.8L69.9,435l0,0.8Z" class="g2_601" />
<path d="M69.9,472.4l782.9,0l0,-0.7l-782.9,0l0,0.7Z" class="g2_601" />
<path d="M69.9,509.1l782.9,0l0,-0.7l-782.9,0l0,0.7Z" class="g2_601" />
<path d="M69.9,545.8l782.9,0l0,-0.7l-782.9,0l0,0.7Z" class="g2_601" />
<path d="M69.9,582.4l782.9,0l0,-0.7l-782.9,0l0,0.7Z" class="g2_601" />
<path d="M69.9,619.1l782.9,0l0,-0.7l-782.9,0l0,0.7Z" class="g2_601" />
<path d="M69.9,655.8l782.9,0l0,-0.7l-782.9,0l0,0.7Z" class="g2_601" />
<path d="M69.9,692.4l782.9,0l0,-0.7l-782.9,0l0,0.7Z" class="g2_601" />
<path d="M69.9,729.1l782.9,0l0,-0.7l-782.9,0l0,0.7Z" class="g2_601" />
<path d="M69.9,765.8l782.9,0l0,-0.7l-782.9,0l0,0.7Z" class="g2_601" />
<path d="M71.2,917.9l0.8,0l0,-97l-0.8,0l0,97Z" class="g2_601" />
<path d="M167.3,918.6l0.7,0L168,820l-0.7,0l0,98.6Z" class="g2_601" />
<path d="M497,918.6l0.7,0l0,-98.6l-0.7,0l0,98.6Z" class="g2_601" />
<path d="M850.8,917.9l0.7,0l0,-97l-0.7,0l0,97Z" class="g2_601" />
<path d="M71.2,820.8l780.3,0l0,-0.7l-780.3,0l0,0.7Z" class="g2_601" />
<path d="M71.2,845.3l780.3,0l0,-0.8l-780.3,0l0,0.8Z" class="g2_601" />
<path d="M71.2,869.7l780.3,0l0,-0.7L71.2,869l0,0.7Z" class="g2_601" />
<path d="M71.2,894.1l780.3,0l0,-0.7l-780.3,0l0,0.7Z" class="g2_601" />
<path d="M71.2,918.6l780.3,0l0,-0.7l-780.3,0l0,0.7Z" class="g2_601" />
</svg>