<?xml version="1.0" encoding="UTF-8" standalone="no"?>
<!DOCTYPE svg PUBLIC "-//W3C//DTD SVG 1.1//EN"
"http://www.w3.org/Graphics/SVG/1.1/DTD/svg11.dtd">
<svg viewBox="0 0 935 1210" version="1.1" xmlns="http://www.w3.org/2000/svg" xmlns:xlink="http://www.w3.org/1999/xlink">
<defs>
<style type="text/css"><![CDATA[
.g1_1086{
fill: #FFFFFF;
}
.g2_1086{
}
]]></style>
</defs>
<path d="M165,1149.3l687.5,0l0,-21.2l-687.5,0l0,21.2Z" class="g1_1086" />
<path d="M68.8,1149.3l82.5,0l0,-21.2l-82.5,0l0,21.2Z" class="g1_1086" />
<path d="M67.8,1081.3l0.8,0l0,-974l-0.8,0l0,974Z" class="g2_1086" />
<path d="M365.3,1082.1l0.7,0l0,-975.5l-0.7,0l0,975.5Z" class="g2_1086" />
<path d="M408.9,1082.1l0.8,0l0,-975.5l-0.8,0l0,975.5Z" class="g2_1086" />
<path d="M482.3,1082.1l0.7,0l0,-975.5l-0.7,0l0,975.5Z" class="g2_1086" />
<path d="M561.6,1082.1l0.8,0l0,-975.5l-0.8,0l0,975.5Z" class="g2_1086" />
<path d="M852.6,1081.3l0.7,0l0,-974l-0.7,0l0,974Z" class="g2_1086" />
<path d="M67.8,107.3l785.5,0l0,-0.7l-785.5,0l0,0.7Z" class="g2_1086" />
<path d="M67.8,151.6l785.5,0l0,-0.7l-785.5,0l0,0.7Z" class="g2_1086" />
<path d="M67.8,195.9l785.5,0l0,-0.7l-785.5,0l0,0.7Z" class="g2_1086" />
<path d="M67.8,240.3l785.5,0l0,-0.8l-785.5,0l0,0.8Z" class="g2_1086" />
<path d="M67.8,284.5l785.5,0l0,-0.7l-785.5,0l0,0.7Z" class="g2_1086" />
<path d="M67.8,341.1l785.5,0l0,-0.7l-785.5,0l0,0.7Z" class="g2_1086" />
<path d="M67.8,397.7l785.5,0l0,-0.8l-785.5,0l0,0.8Z" class="g2_1086" />
<path d="M67.8,454.1l785.5,0l0,-0.7l-785.5,0l0,0.7Z" class="g2_1086" />
<path d="M67.8,493.9l785.5,0l0,-0.7l-785.5,0l0,0.7Z" class="g2_1086" />
<path d="M67.8,533.6l785.5,0l0,-0.7l-785.5,0l0,0.7Z" class="g2_1086" />
<path d="M67.8,573.3l785.5,0l0,-0.7l-785.5,0l0,0.7Z" class="g2_1086" />
<path d="M67.8,629.8l785.5,0l0,-0.7l-785.5,0l0,0.7Z" class="g2_1086" />
<path d="M67.8,686.4l785.5,0l0,-0.7l-785.5,0l0,0.7Z" class="g2_1086" />
<path d="M67.8,742.9l785.5,0l0,-0.8l-785.5,0l0,0.8Z" class="g2_1086" />
<path d="M67.8,799.4l785.5,0l0,-0.7l-785.5,0l0,0.7Z" class="g2_1086" />
<path d="M67.8,856l785.5,0l0,-0.8l-785.5,0l0,0.8Z" class="g2_1086" />
<path d="M67.8,912.5l785.5,0l0,-0.8l-785.5,0l0,0.8Z" class="g2_1086" />
<path d="M67.8,969l785.5,0l0,-0.7l-785.5,0l0,0.7Z" class="g2_1086" />
<path d="M67.8,1025.6l785.5,0l0,-0.8l-785.5,0l0,0.8Z" class="g2_1086" />
<path d="M67.8,1082l785.5,0l0,-0.7l-785.5,0l0,0.7Z" class="g2_1086" />
</svg>