<?xml version="1.0" encoding="UTF-8" standalone="no"?>
<!DOCTYPE svg PUBLIC "-//W3C//DTD SVG 1.1//EN"
"http://www.w3.org/Graphics/SVG/1.1/DTD/svg11.dtd">
<svg viewBox="0 0 935 1210" version="1.1" xmlns="http://www.w3.org/2000/svg" xmlns:xlink="http://www.w3.org/1999/xlink">
<defs>
<style type="text/css"><![CDATA[
.g1_357{
fill: #FFFFFF;
}
.g2_357{
}
]]></style>
</defs>
<path d="M68.9,1149.3l686.3,0l0,-21.2l-686.3,0l0,21.2Z" class="g1_357" />
<path d="M771.3,1149.3l83.7,0l0,-21.2l-83.7,0l0,21.2Z" class="g1_357" />
<path d="M69.9,357.1l0.8,0L70.7,147l-0.8,0l0,210.1Z" class="g2_357" />
<path d="M303.3,357.9l0.8,0l0,-211.6l-0.8,0l0,211.6Z" class="g2_357" />
<path d="M353.3,357.9l0.7,0l0,-211.6l-0.7,0l0,211.6Z" class="g2_357" />
<path d="M427.7,357.9l0.8,0l0,-211.6l-0.8,0l0,211.6Z" class="g2_357" />
<path d="M510.6,357.9l0.7,0l0,-211.6l-0.7,0l0,211.6Z" class="g2_357" />
<path d="M850.8,357.1l0.8,0l0,-210.1l-0.8,0l0,210.1Z" class="g2_357" />
<path d="M69.9,147l781.7,0l0,-0.7l-781.7,0l0,0.7Z" class="g2_357" />
<path d="M69.9,197.4l781.7,0l0,-0.7l-781.7,0l0,0.7Z" class="g2_357" />
<path d="M69.9,250.9l781.7,0l0,-0.7l-781.7,0l0,0.7Z" class="g2_357" />
<path d="M69.9,304.4l781.7,0l0,-0.7l-781.7,0l0,0.7Z" class="g2_357" />
<path d="M69.9,357.9l781.7,0l0,-0.8l-781.7,0l0,0.8Z" class="g2_357" />
<path d="M70,509.9l0.8,0l0,-97l-0.8,0l0,97Z" class="g2_357" />
<path d="M174.2,510.7l0.7,0l0,-98.6l-0.7,0l0,98.6Z" class="g2_357" />
<path d="M340.9,510.7l0.7,0l0,-98.6l-0.7,0l0,98.6Z" class="g2_357" />
<path d="M516,510.7l0.7,0l0,-98.6l-0.7,0l0,98.6Z" class="g2_357" />
<path d="M684.1,510.7l0.7,0l0,-98.6l-0.7,0l0,98.6Z" class="g2_357" />
<path d="M852,509.9l0.8,0l0,-97l-0.8,0l0,97Z" class="g2_357" />
<path d="M69.9,412.9l782.9,0l0,-0.8l-782.9,0l0,0.8Z" class="g2_357" />
<path d="M69.9,437.3l782.9,0l0,-0.7l-782.9,0l0,0.7Z" class="g2_357" />
<path d="M69.9,461.8l782.9,0l0,-0.7l-782.9,0l0,0.7Z" class="g2_357" />
<path d="M69.9,486.2l782.9,0l0,-0.7l-782.9,0l0,0.7Z" class="g2_357" />
<path d="M69.9,510.7l782.9,0l0,-0.8l-782.9,0l0,0.8Z" class="g2_357" />
</svg>