<?xml version="1.0" encoding="UTF-8" standalone="no"?>
<!DOCTYPE svg PUBLIC "-//W3C//DTD SVG 1.1//EN"
"http://www.w3.org/Graphics/SVG/1.1/DTD/svg11.dtd">
<svg viewBox="0 0 935 1210" version="1.1" xmlns="http://www.w3.org/2000/svg" xmlns:xlink="http://www.w3.org/1999/xlink">
<defs>
<style type="text/css"><![CDATA[
.g1_2089{
fill: #FFFFFF;
}
.g2_2089{
}
]]></style>
</defs>
<path d="M68.9,1149.3l783.8,0l0,-21.2l-783.8,0l0,21.2Z" class="g1_2089" />
<path d="M69.9,392.2l0.8,0l0,-268.1l-0.8,0l0,268.1Z" class="g2_2089" />
<path d="M469,393.1l0.7,0l0,-269.7l-0.7,0l0,269.7Z" class="g2_2089" />
<path d="M852.5,392.2l0.7,0l0,-268.1l-0.7,0l0,268.1Z" class="g2_2089" />
<path d="M69.9,124.1l783.4,0l0,-0.7l-783.4,0l0,0.7Z" class="g2_2089" />
<path d="M69.9,148.6l783.4,0l0,-0.7l-783.4,0l0,0.7Z" class="g2_2089" />
<path d="M69.9,173l783.4,0l0,-0.8l-783.4,0l0,0.8Z" class="g2_2089" />
<path d="M69.9,197.4l783.4,0l0,-0.7l-783.4,0l0,0.7Z" class="g2_2089" />
<path d="M69.9,221.9l783.4,0l0,-0.7l-783.4,0l0,0.7Z" class="g2_2089" />
<path d="M69.9,246.3l783.4,0l0,-0.7l-783.4,0l0,0.7Z" class="g2_2089" />
<path d="M69.9,270.8l783.4,0l0,-0.7l-783.4,0l0,0.7Z" class="g2_2089" />
<path d="M69.9,295.3l783.4,0l0,-0.8l-783.4,0l0,0.8Z" class="g2_2089" />
<path d="M69.9,319.6l783.4,0l0,-0.7l-783.4,0l0,0.7Z" class="g2_2089" />
<path d="M69.9,344.1l783.4,0l0,-0.7l-783.4,0l0,0.7Z" class="g2_2089" />
<path d="M69.9,368.6l783.4,0l0,-0.7l-783.4,0l0,0.7Z" class="g2_2089" />
<path d="M69.9,393l783.4,0l0,-0.8l-783.4,0l0,0.8Z" class="g2_2089" />
<path d="M69.9,601.6l0.8,0l0,-72.6l-0.8,0l0,72.6Z" class="g2_2089" />
<path d="M468.3,602.3l0.8,0l0,-74l-0.8,0l0,74Z" class="g2_2089" />
<path d="M851.4,601.6l0.7,0l0,-72.6l-0.7,0l0,72.6Z" class="g2_2089" />
<path d="M69.9,529l782.2,0l0,-0.7l-782.2,0l0,0.7Z" class="g2_2089" />
<path d="M69.9,553.5l782.2,0l0,-0.8l-782.2,0l0,0.8Z" class="g2_2089" />
<path d="M69.9,577.9l782.2,0l0,-0.8l-782.2,0l0,0.8Z" class="g2_2089" />
<path d="M69.9,602.3l782.2,0l0,-0.7l-782.2,0l0,0.7Z" class="g2_2089" />
<path d="M69.9,755.9l0.8,0l0,-97l-0.8,0l0,97Z" class="g2_2089" />
<path d="M468.3,756.6l0.8,0l0,-98.5l-0.8,0l0,98.5Z" class="g2_2089" />
<path d="M851.4,755.9l0.7,0l0,-97l-0.7,0l0,97Z" class="g2_2089" />
<path d="M69.9,658.9l782.2,0l0,-0.7l-782.2,0l0,0.7Z" class="g2_2089" />
<path d="M69.9,683.3l782.2,0l0,-0.7l-782.2,0l0,0.7Z" class="g2_2089" />
<path d="M69.9,707.8l782.2,0l0,-0.8L69.9,707l0,0.8Z" class="g2_2089" />
<path d="M69.9,732.2l782.2,0l0,-0.7l-782.2,0l0,0.7Z" class="g2_2089" />
<path d="M69.9,756.6l782.2,0l0,-0.7l-782.2,0l0,0.7Z" class="g2_2089" />
</svg>