<?xml version="1.0" encoding="UTF-8" standalone="no"?>
<!DOCTYPE svg PUBLIC "-//W3C//DTD SVG 1.1//EN"
"http://www.w3.org/Graphics/SVG/1.1/DTD/svg11.dtd">
<svg viewBox="0 0 935 1210" version="1.1" xmlns="http://www.w3.org/2000/svg" xmlns:xlink="http://www.w3.org/1999/xlink">
<defs>
<style type="text/css"><![CDATA[
.g1_2117{
fill: #FFFFFF;
}
.g2_2117{
}
]]></style>
</defs>
<path d="M68.9,1149.3l783.8,0l0,-21.2l-783.8,0l0,21.2Z" class="g1_2117" />
<path d="M69.9,1089l0.8,0l0,-964.9l-0.8,0l0,964.9Z" class="g2_2117" />
<path d="M468.6,1089.7l0.7,0l0,-966.3l-0.7,0l0,966.3Z" class="g2_2117" />
<path d="M851.2,1089l0.7,0l0,-964.9l-0.7,0l0,964.9Z" class="g2_2117" />
<path d="M69.9,124.1l782.1,0l0,-0.7l-782.1,0l0,0.7Z" class="g2_2117" />
<path d="M69.9,148.6l782.1,0l0,-0.7l-782.1,0l0,0.7Z" class="g2_2117" />
<path d="M69.9,189.8l782.1,0l0,-0.7l-782.1,0l0,0.7Z" class="g2_2117" />
<path d="M69.9,229.5l782.1,0l0,-0.7l-782.1,0l0,0.7Z" class="g2_2117" />
<path d="M69.9,270.8l782.1,0l0,-0.7l-782.1,0l0,0.7Z" class="g2_2117" />
<path d="M69.9,312L852,312l0,-0.7l-782.1,0l0,0.7Z" class="g2_2117" />
<path d="M69.9,336.5l782.1,0l0,-0.7l-782.1,0l0,0.7Z" class="g2_2117" />
<path d="M69.9,360.9l782.1,0l0,-0.7l-782.1,0l0,0.7Z" class="g2_2117" />
<path d="M69.9,400.7l782.1,0l0,-0.8l-782.1,0l0,0.8Z" class="g2_2117" />
<path d="M69.9,446.5l782.1,0l0,-0.7l-782.1,0l0,0.7Z" class="g2_2117" />
<path d="M69.9,487.8l782.1,0l0,-0.8L69.9,487l0,0.8Z" class="g2_2117" />
<path d="M69.9,512.2l782.1,0l0,-0.7l-782.1,0l0,0.7Z" class="g2_2117" />
<path d="M69.9,536.6l782.1,0l0,-0.7l-782.1,0l0,0.7Z" class="g2_2117" />
<path d="M69.9,576.4l782.1,0l0,-0.7l-782.1,0l0,0.7Z" class="g2_2117" />
<path d="M69.9,617.7l782.1,0l0,-0.8l-782.1,0l0,0.8Z" class="g2_2117" />
<path d="M69.9,658.9l782.1,0l0,-0.7l-782.1,0l0,0.7Z" class="g2_2117" />
<path d="M69.9,683.3l782.1,0l0,-0.7l-782.1,0l0,0.7Z" class="g2_2117" />
<path d="M69.9,707.8l782.1,0l0,-0.8L69.9,707l0,0.8Z" class="g2_2117" />
<path d="M69.9,732.2l782.1,0l0,-0.7l-782.1,0l0,0.7Z" class="g2_2117" />
<path d="M69.9,756.6l782.1,0l0,-0.7l-782.1,0l0,0.7Z" class="g2_2117" />
<path d="M69.9,781.1l782.1,0l0,-0.7l-782.1,0l0,0.7Z" class="g2_2117" />
<path d="M69.9,805.6l782.1,0l0,-0.8l-782.1,0l0,0.8Z" class="g2_2117" />
<path d="M69.9,830L852,830l0,-0.8l-782.1,0l0,0.8Z" class="g2_2117" />
<path d="M69.9,854.4l782.1,0l0,-0.7l-782.1,0l0,0.7Z" class="g2_2117" />
<path d="M69.9,878.9l782.1,0l0,-0.7l-782.1,0l0,0.7Z" class="g2_2117" />
<path d="M69.9,903.3l782.1,0l0,-0.7l-782.1,0l0,0.7Z" class="g2_2117" />
<path d="M69.9,927.8l782.1,0l0,-0.8L69.9,927l0,0.8Z" class="g2_2117" />
<path d="M69.9,952.2l782.1,0l0,-0.7l-782.1,0l0,0.7Z" class="g2_2117" />
<path d="M69.9,991.9l782.1,0l0,-0.7l-782.1,0l0,0.7Z" class="g2_2117" />
<path d="M69.9,1016.4l782.1,0l0,-0.7l-782.1,0l0,0.7Z" class="g2_2117" />
<path d="M69.9,1040.8l782.1,0l0,-0.8l-782.1,0l0,0.8Z" class="g2_2117" />
<path d="M69.9,1065.3l782.1,0l0,-0.8l-782.1,0l0,0.8Z" class="g2_2117" />
<path d="M69.9,1089.7l782.1,0l0,-0.7l-782.1,0l0,0.7Z" class="g2_2117" />
</svg>