<?xml version="1.0" encoding="UTF-8" standalone="no"?>
<!DOCTYPE svg PUBLIC "-//W3C//DTD SVG 1.1//EN"
"http://www.w3.org/Graphics/SVG/1.1/DTD/svg11.dtd">
<svg viewBox="0 0 935 1210" version="1.1" xmlns="http://www.w3.org/2000/svg" xmlns:xlink="http://www.w3.org/1999/xlink">
<defs>
<style type="text/css"><![CDATA[
.g1_315{
fill: #FFFFFF;
}
.g2_315{
}
]]></style>
</defs>
<path d="M68.9,1149.3l686.3,0l0,-21.2l-686.3,0l0,21.2Z" class="g1_315" />
<path d="M771.3,1149.3l83.7,0l0,-21.2l-83.7,0l0,21.2Z" class="g1_315" />
<path d="M69.9,919.4l0.8,0l0,-795.3l-0.8,0l0,795.3Z" class="g2_315" />
<path d="M123.4,920.2l0.7,0l0,-796.8l-0.7,0l0,796.8Z" class="g2_315" />
<path d="M195.2,920.2l0.7,0l0,-796.8l-0.7,0l0,796.8Z" class="g2_315" />
<path d="M853.2,919.4l0.8,0l0,-795.3l-0.8,0l0,795.3Z" class="g2_315" />
<path d="M69.9,124.1l784.1,0l0,-0.7l-784.1,0l0,0.7Z" class="g2_315" />
<path d="M69.9,147L854,147l0,-0.7l-784.1,0l0,0.7Z" class="g2_315" />
<path d="M69.9,169.9l784.1,0l0,-0.7l-784.1,0l0,0.7Z" class="g2_315" />
<path d="M69.9,192.9l784.1,0l0,-0.8l-784.1,0l0,0.8Z" class="g2_315" />
<path d="M69.9,215.8l784.1,0l0,-0.8L69.9,215l0,0.8Z" class="g2_315" />
<path d="M69.9,238.7l784.1,0l0,-0.7L69.9,238l0,0.7Z" class="g2_315" />
<path d="M69.9,261.6l784.1,0l0,-0.7l-784.1,0l0,0.7Z" class="g2_315" />
<path d="M69.9,284.5l784.1,0l0,-0.7l-784.1,0l0,0.7Z" class="g2_315" />
<path d="M69.9,307.4l784.1,0l0,-0.7l-784.1,0l0,0.7Z" class="g2_315" />
<path d="M69.9,330.4l784.1,0l0,-0.8l-784.1,0l0,0.8Z" class="g2_315" />
<path d="M69.9,353.3l784.1,0l0,-0.7l-784.1,0l0,0.7Z" class="g2_315" />
<path d="M69.9,376.2l784.1,0l0,-0.7l-784.1,0l0,0.7Z" class="g2_315" />
<path d="M69.9,399.1l784.1,0l0,-0.7l-784.1,0l0,0.7Z" class="g2_315" />
<path d="M69.9,422L854,422l0,-0.7l-784.1,0l0,0.7Z" class="g2_315" />
<path d="M69.9,461.8l784.1,0l0,-0.7l-784.1,0l0,0.7Z" class="g2_315" />
<path d="M69.9,484.7l784.1,0l0,-0.7L69.9,484l0,0.7Z" class="g2_315" />
<path d="M69.9,507.7l784.1,0l0,-0.8l-784.1,0l0,0.8Z" class="g2_315" />
<path d="M69.9,530.6l784.1,0l0,-0.8l-784.1,0l0,0.8Z" class="g2_315" />
<path d="M69.9,553.5l784.1,0l0,-0.8l-784.1,0l0,0.8Z" class="g2_315" />
<path d="M69.9,576.4l784.1,0l0,-0.7l-784.1,0l0,0.7Z" class="g2_315" />
<path d="M69.9,599.3l784.1,0l0,-0.7l-784.1,0l0,0.7Z" class="g2_315" />
<path d="M69.9,622.2l784.1,0l0,-0.7l-784.1,0l0,0.7Z" class="g2_315" />
<path d="M69.9,645.2l784.1,0l0,-0.8l-784.1,0l0,0.8Z" class="g2_315" />
<path d="M69.9,668.1l784.1,0l0,-0.8l-784.1,0l0,0.8Z" class="g2_315" />
<path d="M69.9,691L854,691l0,-0.7l-784.1,0l0,0.7Z" class="g2_315" />
<path d="M69.9,713.9l784.1,0l0,-0.7l-784.1,0l0,0.7Z" class="g2_315" />
<path d="M69.9,736.8l784.1,0l0,-0.7l-784.1,0l0,0.7Z" class="g2_315" />
<path d="M69.9,759.7l784.1,0l0,-0.7L69.9,759l0,0.7Z" class="g2_315" />
<path d="M69.9,782.7l784.1,0l0,-0.8l-784.1,0l0,0.8Z" class="g2_315" />
<path d="M69.9,805.6l784.1,0l0,-0.8l-784.1,0l0,0.8Z" class="g2_315" />
<path d="M69.9,828.5l784.1,0l0,-0.8l-784.1,0l0,0.8Z" class="g2_315" />
<path d="M69.9,851.4l784.1,0l0,-0.7l-784.1,0l0,0.7Z" class="g2_315" />
<path d="M69.9,874.3l784.1,0l0,-0.7l-784.1,0l0,0.7Z" class="g2_315" />
<path d="M69.9,897.2l784.1,0l0,-0.7l-784.1,0l0,0.7Z" class="g2_315" />
<path d="M69.9,920.2l784.1,0l0,-0.8l-784.1,0l0,0.8Z" class="g2_315" />
</svg>