<?xml version="1.0" encoding="UTF-8" standalone="no"?>
<!DOCTYPE svg PUBLIC "-//W3C//DTD SVG 1.1//EN"
"http://www.w3.org/Graphics/SVG/1.1/DTD/svg11.dtd">
<svg viewBox="0 0 935 1210" version="1.1" xmlns="http://www.w3.org/2000/svg" xmlns:xlink="http://www.w3.org/1999/xlink">
<defs>
<style type="text/css"><![CDATA[
.g1_2061{
fill: #FFFFFF;
}
.g2_2061{
}
]]></style>
</defs>
<path d="M68.9,1149.3l783.8,0l0,-21.2l-783.8,0l0,21.2Z" class="g1_2061" />
<path d="M69.9,1018.7l0.8,0l0,-894.6l-0.8,0l0,894.6Z" class="g2_2061" />
<path d="M468.3,1019.4l0.8,0l0,-896l-0.8,0l0,896Z" class="g2_2061" />
<path d="M851.4,1018.7l0.7,0l0,-894.6l-0.7,0l0,894.6Z" class="g2_2061" />
<path d="M69.9,124.1l782.2,0l0,-0.7l-782.2,0l0,0.7Z" class="g2_2061" />
<path d="M69.9,148.6l782.2,0l0,-0.7l-782.2,0l0,0.7Z" class="g2_2061" />
<path d="M69.9,173l782.2,0l0,-0.8l-782.2,0l0,0.8Z" class="g2_2061" />
<path d="M69.9,197.4l782.2,0l0,-0.7l-782.2,0l0,0.7Z" class="g2_2061" />
<path d="M69.9,221.9l782.2,0l0,-0.7l-782.2,0l0,0.7Z" class="g2_2061" />
<path d="M69.9,246.3l782.2,0l0,-0.7l-782.2,0l0,0.7Z" class="g2_2061" />
<path d="M69.9,270.8l782.2,0l0,-0.7l-782.2,0l0,0.7Z" class="g2_2061" />
<path d="M69.9,295.3l782.2,0l0,-0.8l-782.2,0l0,0.8Z" class="g2_2061" />
<path d="M69.9,319.6l782.2,0l0,-0.7l-782.2,0l0,0.7Z" class="g2_2061" />
<path d="M69.9,344.1l782.2,0l0,-0.7l-782.2,0l0,0.7Z" class="g2_2061" />
<path d="M69.9,368.6l782.2,0l0,-0.7l-782.2,0l0,0.7Z" class="g2_2061" />
<path d="M69.9,393l782.2,0l0,-0.8l-782.2,0l0,0.8Z" class="g2_2061" />
<path d="M69.9,417.4l782.2,0l0,-0.7l-782.2,0l0,0.7Z" class="g2_2061" />
<path d="M69.9,441.9l782.2,0l0,-0.7l-782.2,0l0,0.7Z" class="g2_2061" />
<path d="M69.9,466.4l782.2,0l0,-0.7l-782.2,0l0,0.7Z" class="g2_2061" />
<path d="M69.9,490.8l782.2,0l0,-0.8L69.9,490l0,0.8Z" class="g2_2061" />
<path d="M69.9,515.3l782.2,0l0,-0.8l-782.2,0l0,0.8Z" class="g2_2061" />
<path d="M69.9,539.7l782.2,0l0,-0.7L69.9,539l0,0.7Z" class="g2_2061" />
<path d="M69.9,564.1l782.2,0l0,-0.7l-782.2,0l0,0.7Z" class="g2_2061" />
<path d="M69.9,588.6l782.2,0l0,-0.7l-782.2,0l0,0.7Z" class="g2_2061" />
<path d="M69.9,613.1l782.2,0l0,-0.8l-782.2,0l0,0.8Z" class="g2_2061" />
<path d="M69.9,637.4l782.2,0l0,-0.7l-782.2,0l0,0.7Z" class="g2_2061" />
<path d="M69.9,661.9l782.2,0l0,-0.7l-782.2,0l0,0.7Z" class="g2_2061" />
<path d="M69.9,686.4l782.2,0l0,-0.7l-782.2,0l0,0.7Z" class="g2_2061" />
<path d="M69.9,710.8l782.2,0l0,-0.8L69.9,710l0,0.8Z" class="g2_2061" />
<path d="M69.9,750.6l782.2,0l0,-0.8l-782.2,0l0,0.8Z" class="g2_2061" />
<path d="M69.9,774.9l782.2,0l0,-0.7l-782.2,0l0,0.7Z" class="g2_2061" />
<path d="M69.9,799.4l782.2,0l0,-0.7l-782.2,0l0,0.7Z" class="g2_2061" />
<path d="M69.9,823.9l782.2,0l0,-0.7l-782.2,0l0,0.7Z" class="g2_2061" />
<path d="M69.9,848.3l782.2,0l0,-0.7l-782.2,0l0,0.7Z" class="g2_2061" />
<path d="M69.9,872.8l782.2,0l0,-0.8L69.9,872l0,0.8Z" class="g2_2061" />
<path d="M69.9,897.2l782.2,0l0,-0.7l-782.2,0l0,0.7Z" class="g2_2061" />
<path d="M69.9,921.6l782.2,0l0,-0.7l-782.2,0l0,0.7Z" class="g2_2061" />
<path d="M69.9,946.1l782.2,0l0,-0.7l-782.2,0l0,0.7Z" class="g2_2061" />
<path d="M69.9,970.6l782.2,0l0,-0.8l-782.2,0l0,0.8Z" class="g2_2061" />
<path d="M69.9,995l782.2,0l0,-0.8l-782.2,0l0,0.8Z" class="g2_2061" />
<path d="M69.9,1019.4l782.2,0l0,-0.7l-782.2,0l0,0.7Z" class="g2_2061" />
</svg>