<?xml version="1.0" encoding="UTF-8" standalone="no"?>
<!DOCTYPE svg PUBLIC "-//W3C//DTD SVG 1.1//EN"
"http://www.w3.org/Graphics/SVG/1.1/DTD/svg11.dtd">
<svg viewBox="0 0 935 1210" version="1.1" xmlns="http://www.w3.org/2000/svg" xmlns:xlink="http://www.w3.org/1999/xlink">
<defs>
<style type="text/css"><![CDATA[
.g1_719{
fill: #FFFFFF;
}
.g2_719{
}
]]></style>
</defs>
<path d="M68.9,1149.3l686.3,0l0,-21.2l-686.3,0l0,21.2Z" class="g1_719" />
<path d="M771.3,1149.3l83.7,0l0,-21.2l-83.7,0l0,21.2Z" class="g1_719" />
<path d="M69.9,1090.5l0.8,0l0,-964.8l-0.8,0l0,964.8Z" class="g2_719" />
<path d="M335.5,1091.3l0.7,0l0,-966.4l-0.7,0l0,966.4Z" class="g2_719" />
<path d="M407.1,1091.3l0.7,0l0,-966.4l-0.7,0l0,966.4Z" class="g2_719" />
<path d="M479.6,1091.3l0.7,0l0,-966.4l-0.7,0l0,966.4Z" class="g2_719" />
<path d="M566.6,1091.3l0.7,0l0,-966.4l-0.7,0l0,966.4Z" class="g2_719" />
<path d="M855.5,1090.5l0.8,0l0,-964.8l-0.8,0l0,964.8Z" class="g2_719" />
<path d="M69.9,125.7l786.4,0l0,-0.8l-786.4,0l0,0.8Z" class="g2_719" />
<path d="M69.9,176.1l786.4,0l0,-0.7l-786.4,0l0,0.7Z" class="g2_719" />
<path d="M69.9,212.8l786.4,0l0,-0.8L69.9,212l0,0.8Z" class="g2_719" />
<path d="M69.9,249.4l786.4,0l0,-0.7l-786.4,0l0,0.7Z" class="g2_719" />
<path d="M69.9,286.1l786.4,0l0,-0.7l-786.4,0l0,0.7Z" class="g2_719" />
<path d="M69.9,322.8l786.4,0l0,-0.8L69.9,322l0,0.8Z" class="g2_719" />
<path d="M69.9,359.4l786.4,0l0,-0.7l-786.4,0l0,0.7Z" class="g2_719" />
<path d="M69.9,396.1l786.4,0l0,-0.7l-786.4,0l0,0.7Z" class="g2_719" />
<path d="M69.9,449.5l786.4,0l0,-0.7l-786.4,0l0,0.7Z" class="g2_719" />
<path d="M69.9,503.1l786.4,0l0,-0.8l-786.4,0l0,0.8Z" class="g2_719" />
<path d="M69.9,556.5l786.4,0l0,-0.7l-786.4,0l0,0.7Z" class="g2_719" />
<path d="M69.9,609.9l786.4,0l0,-0.7l-786.4,0l0,0.7Z" class="g2_719" />
<path d="M69.9,663.5l786.4,0l0,-0.7l-786.4,0l0,0.7Z" class="g2_719" />
<path d="M69.9,716.9l786.4,0l0,-0.7l-786.4,0l0,0.7Z" class="g2_719" />
<path d="M69.9,770.4l786.4,0l0,-0.8l-786.4,0l0,0.8Z" class="g2_719" />
<path d="M69.9,823.9l786.4,0l0,-0.7l-786.4,0l0,0.7Z" class="g2_719" />
<path d="M69.9,877.3l786.4,0l0,-0.7l-786.4,0l0,0.7Z" class="g2_719" />
<path d="M69.9,930.8l786.4,0l0,-0.7l-786.4,0l0,0.7Z" class="g2_719" />
<path d="M69.9,984.3l786.4,0l0,-0.7l-786.4,0l0,0.7Z" class="g2_719" />
<path d="M69.9,1037.8l786.4,0l0,-0.8l-786.4,0l0,0.8Z" class="g2_719" />
<path d="M69.9,1091.2l786.4,0l0,-0.7l-786.4,0l0,0.7Z" class="g2_719" />
</svg>