<?xml version="1.0" encoding="UTF-8" standalone="no"?>
<!DOCTYPE svg PUBLIC "-//W3C//DTD SVG 1.1//EN"
"http://www.w3.org/Graphics/SVG/1.1/DTD/svg11.dtd">
<svg viewBox="0 0 935 1210" version="1.1" xmlns="http://www.w3.org/2000/svg" xmlns:xlink="http://www.w3.org/1999/xlink">
<defs>
<style type="text/css"><![CDATA[
.g1_1230{
fill: #FFFFFF;
}
.g2_1230{
}
]]></style>
</defs>
<path d="M165,1149.3l687.5,0l0,-21.2l-687.5,0l0,21.2Z" class="g1_1230" />
<path d="M68.8,1149.3l82.5,0l0,-21.2l-82.5,0l0,21.2Z" class="g1_1230" />
<path d="M70.1,358.7l0.8,0l0,-233l-0.8,0l0,233Z" class="g2_1230" />
<path d="M390.5,359.4l0.7,0l0,-234.5l-0.7,0l0,234.5Z" class="g2_1230" />
<path d="M428.4,359.4l0.7,0l0,-234.5l-0.7,0l0,234.5Z" class="g2_1230" />
<path d="M501.8,359.4l0.7,0l0,-234.5l-0.7,0l0,234.5Z" class="g2_1230" />
<path d="M573.1,359.4l0.7,0l0,-234.5l-0.7,0l0,234.5Z" class="g2_1230" />
<path d="M850.3,358.7l0.7,0l0,-233l-0.7,0l0,233Z" class="g2_1230" />
<path d="M70.1,125.7l780.9,0l0,-0.8l-780.9,0l0,0.8Z" class="g2_1230" />
<path d="M70.1,179.1l780.9,0l0,-0.7l-780.9,0l0,0.7Z" class="g2_1230" />
<path d="M70.1,252.4l780.9,0l0,-0.7l-780.9,0l0,0.7Z" class="g2_1230" />
<path d="M70.1,359.4l780.9,0l0,-0.7l-780.9,0l0,0.7Z" class="g2_1230" />
<path d="M71.4,487l0.7,0l0,-72.6l-0.7,0l0,72.6Z" class="g2_1230" />
<path d="M146.3,487.8l0.7,0l0,-74.1l-0.7,0l0,74.1Z" class="g2_1230" />
<path d="M315,487.8l0.7,0l0,-74.1l-0.7,0l0,74.1Z" class="g2_1230" />
<path d="M486.8,487.8l0.7,0l0,-74.1l-0.7,0l0,74.1Z" class="g2_1230" />
<path d="M670.5,487.8l0.8,0l0,-74.1l-0.8,0l0,74.1Z" class="g2_1230" />
<path d="M849,487l0.7,0l0,-72.6l-0.7,0l0,72.6Z" class="g2_1230" />
<path d="M71.4,414.4l778.4,0l0,-0.7l-778.4,0l0,0.7Z" class="g2_1230" />
<path d="M71.4,438.9l778.4,0l0,-0.7l-778.4,0l0,0.7Z" class="g2_1230" />
<path d="M71.4,463.3l778.4,0l0,-0.8l-778.4,0l0,0.8Z" class="g2_1230" />
<path d="M71.4,487.8l778.4,0l0,-0.8L71.4,487l0,0.8Z" class="g2_1230" />
</svg>