<?xml version="1.0" encoding="UTF-8" standalone="no"?>
<!DOCTYPE svg PUBLIC "-//W3C//DTD SVG 1.1//EN"
"http://www.w3.org/Graphics/SVG/1.1/DTD/svg11.dtd">
<svg viewBox="0 0 935 1210" version="1.1" xmlns="http://www.w3.org/2000/svg" xmlns:xlink="http://www.w3.org/1999/xlink">
<defs>
<style type="text/css"><![CDATA[
.g1_701{
fill: #FFFFFF;
}
.g2_701{
}
]]></style>
</defs>
<path d="M68.9,1149.3l686.3,0l0,-21.2l-686.3,0l0,21.2Z" class="g1_701" />
<path d="M771.3,1149.3l83.7,0l0,-21.2l-83.7,0l0,21.2Z" class="g1_701" />
<path d="M69.9,716.2l0.8,0l0,-590.5l-0.8,0l0,590.5Z" class="g2_701" />
<path d="M312.2,716.9l0.7,0l0,-592l-0.7,0l0,592Z" class="g2_701" />
<path d="M382.8,716.9l0.7,0l0,-592l-0.7,0l0,592Z" class="g2_701" />
<path d="M457.3,716.9l0.8,0l0,-592l-0.8,0l0,592Z" class="g2_701" />
<path d="M542.2,716.9l0.7,0l0,-592l-0.7,0l0,592Z" class="g2_701" />
<path d="M855.8,716.2l0.7,0l0,-590.5l-0.7,0l0,590.5Z" class="g2_701" />
<path d="M69.9,125.7l786.6,0l0,-0.8l-786.6,0l0,0.8Z" class="g2_701" />
<path d="M69.9,176.1l786.6,0l0,-0.7l-786.6,0l0,0.7Z" class="g2_701" />
<path d="M69.9,212.8l786.6,0l0,-0.8L69.9,212l0,0.8Z" class="g2_701" />
<path d="M69.9,249.4l786.6,0l0,-0.7l-786.6,0l0,0.7Z" class="g2_701" />
<path d="M69.9,286.1l786.6,0l0,-0.7l-786.6,0l0,0.7Z" class="g2_701" />
<path d="M69.9,322.8l786.6,0l0,-0.8L69.9,322l0,0.8Z" class="g2_701" />
<path d="M69.9,359.4l786.6,0l0,-0.7l-786.6,0l0,0.7Z" class="g2_701" />
<path d="M69.9,396.1l786.6,0l0,-0.7l-786.6,0l0,0.7Z" class="g2_701" />
<path d="M69.9,449.5l786.6,0l0,-0.7l-786.6,0l0,0.7Z" class="g2_701" />
<path d="M69.9,503.1l786.6,0l0,-0.8l-786.6,0l0,0.8Z" class="g2_701" />
<path d="M69.9,556.5l786.6,0l0,-0.7l-786.6,0l0,0.7Z" class="g2_701" />
<path d="M69.9,609.9l786.6,0l0,-0.7l-786.6,0l0,0.7Z" class="g2_701" />
<path d="M69.9,663.5l786.6,0l0,-0.7l-786.6,0l0,0.7Z" class="g2_701" />
<path d="M69.9,716.9l786.6,0l0,-0.7l-786.6,0l0,0.7Z" class="g2_701" />
<path d="M70.9,893.4l0.7,0l0,-121.5l-0.7,0l0,121.5Z" class="g2_701" />
<path d="M197.1,894.2l0.7,0l0,-123l-0.7,0l0,123Z" class="g2_701" />
<path d="M365.9,894.2l0.8,0l0,-123l-0.8,0l0,123Z" class="g2_701" />
<path d="M529.2,894.2l0.7,0l0,-123l-0.7,0l0,123Z" class="g2_701" />
<path d="M690.1,894.2l0.7,0l0,-123l-0.7,0l0,123Z" class="g2_701" />
<path d="M851.1,893.4l0.8,0l0,-121.5l-0.8,0l0,121.5Z" class="g2_701" />
<path d="M70.9,771.9l781,0l0,-0.7l-781,0l0,0.7Z" class="g2_701" />
<path d="M70.9,796.4l781,0l0,-0.7l-781,0l0,0.7Z" class="g2_701" />
<path d="M70.9,820.8l781,0l0,-0.7l-781,0l0,0.7Z" class="g2_701" />
<path d="M70.9,845.3l781,0l0,-0.8l-781,0l0,0.8Z" class="g2_701" />
<path d="M70.9,869.7l781,0l0,-0.7l-781,0l0,0.7Z" class="g2_701" />
<path d="M70.9,894.1l781,0l0,-0.7l-781,0l0,0.7Z" class="g2_701" />
</svg>