<?xml version="1.0" encoding="UTF-8" standalone="no"?>
<!DOCTYPE svg PUBLIC "-//W3C//DTD SVG 1.1//EN"
"http://www.w3.org/Graphics/SVG/1.1/DTD/svg11.dtd">
<svg viewBox="0 0 935 1210" version="1.1" xmlns="http://www.w3.org/2000/svg" xmlns:xlink="http://www.w3.org/1999/xlink">
<defs>
<style type="text/css"><![CDATA[
.g1_1677{
fill: #FFFFFF;
}
.g2_1677{
}
]]></style>
</defs>
<path d="M68.9,1149.3l686.3,0l0,-21.2l-686.3,0l0,21.2Z" class="g1_1677" />
<path d="M771.3,1149.3l83.7,0l0,-21.2l-83.7,0l0,21.2Z" class="g1_1677" />
<path d="M69.9,285.4l0.8,0l0,-159.7l-0.8,0l0,159.7Z" class="g2_1677" />
<path d="M369.8,286.1l0.7,0l0,-161.2l-0.7,0l0,161.2Z" class="g2_1677" />
<path d="M418.5,286.1l0.8,0l0,-161.2l-0.8,0l0,161.2Z" class="g2_1677" />
<path d="M477,286.1l0.8,0l0,-161.2l-0.8,0l0,161.2Z" class="g2_1677" />
<path d="M544.6,286.1l0.7,0l0,-161.2l-0.7,0l0,161.2Z" class="g2_1677" />
<path d="M851.2,285.4l0.7,0l0,-159.7l-0.7,0l0,159.7Z" class="g2_1677" />
<path d="M69.9,125.7l782.1,0l0,-0.8l-782.1,0l0,0.8Z" class="g2_1677" />
<path d="M69.9,179.1l782.1,0l0,-0.7l-782.1,0l0,0.7Z" class="g2_1677" />
<path d="M69.9,232.6l782.1,0l0,-0.8l-782.1,0l0,0.8Z" class="g2_1677" />
<path d="M69.9,286.1l782.1,0l0,-0.7l-782.1,0l0,0.7Z" class="g2_1677" />
<path d="M69.9,389.2l0.7,0l0,-48.1l-0.7,0l0,48.1Z" class="g2_1677" />
<path d="M141.5,389.9l0.8,0l0,-49.5l-0.8,0l0,49.5Z" class="g2_1677" />
<path d="M312.7,389.9l0.7,0l0,-49.5l-0.7,0l0,49.5Z" class="g2_1677" />
<path d="M484.7,389.9l0.8,0l0,-49.5l-0.8,0l0,49.5Z" class="g2_1677" />
<path d="M665.3,389.9l0.7,0l0,-49.5l-0.7,0l0,49.5Z" class="g2_1677" />
<path d="M852.1,389.2l0.8,0l0,-48.1l-0.8,0l0,48.1Z" class="g2_1677" />
<path d="M69.9,341.1l783,0l0,-0.7l-783,0l0,0.7Z" class="g2_1677" />
<path d="M69.9,365.5l783,0l0,-0.8l-783,0l0,0.8Z" class="g2_1677" />
<path d="M69.9,389.9l783,0l0,-0.7l-783,0l0,0.7Z" class="g2_1677" />
</svg>