<?xml version="1.0" encoding="UTF-8" standalone="no"?>
<!DOCTYPE svg PUBLIC "-//W3C//DTD SVG 1.1//EN"
"http://www.w3.org/Graphics/SVG/1.1/DTD/svg11.dtd">
<svg viewBox="0 0 935 1210" version="1.1" xmlns="http://www.w3.org/2000/svg" xmlns:xlink="http://www.w3.org/1999/xlink">
<defs>
<style type="text/css"><![CDATA[
.g1_47{
fill: #FFFFFF;
}
.g2_47{
fill: #F7F7F7;
}
.g3_47{
}
]]></style>
</defs>
<path d="M68.9,1149.3l783.8,0l0,-21.2l-783.8,0l0,21.2Z" class="g1_47" />
<path d="M452.1,766l55,0l0,-27.5l-55,0l0,27.5Z" class="g2_47" />
<path d="M452.1,739.3l55.8,0l0,-1.6l-55.8,0l0,1.6Z" class="g3_47" />
<path d="M506.4,766.8l1.5,0l0,-28.3l-1.5,0l0,28.3Z" class="g3_47" />
<path d="M451.4,766.8l55.7,0l0,-1.6l-55.7,0l0,1.6Z" class="g3_47" />
<path d="M451.4,766l1.5,0l0,-28.3l-1.5,0l0,28.3Z" class="g3_47" />
<path d="M198,766l62.5,0l0,-27.5l-62.5,0l0,27.5Z" class="g2_47" />
<path d="M198,739.3l63.3,0l0,-1.6l-63.3,0l0,1.6Z" class="g3_47" />
<path d="M259.8,766.8l1.5,0l0,-28.3l-1.5,0l0,28.3Z" class="g3_47" />
<path d="M197.3,766.8l63.2,0l0,-1.6l-63.2,0l0,1.6Z" class="g3_47" />
<path d="M197.3,766l1.5,0l0,-28.3l-1.5,0l0,28.3Z" class="g3_47" />
<path d="M277,766l81,0l0,-27.5l-81,0l0,27.5Z" class="g2_47" />
<path d="M277,739.3l81.8,0l0,-1.6l-81.8,0l0,1.6Z" class="g3_47" />
<path d="M357.2,766.8l1.6,0l0,-28.3l-1.6,0l0,28.3Z" class="g3_47" />
<path d="M276.3,766.8l81.7,0l0,-1.6l-81.7,0l0,1.6Z" class="g3_47" />
<path d="M276.3,766l1.5,0l0,-28.3l-1.5,0l0,28.3Z" class="g3_47" />
<path d="M374.5,766l61.1,0l0,-27.5l-61.1,0l0,27.5Z" class="g2_47" />
<path d="M374.5,739.3l61.9,0l0,-1.6l-61.9,0l0,1.6Z" class="g3_47" />
<path d="M434.9,766.8l1.5,0l0,-28.3l-1.5,0l0,28.3Z" class="g3_47" />
<path d="M373.7,766.8l61.9,0l0,-1.6l-61.9,0l0,1.6Z" class="g3_47" />
<path d="M373.7,766l1.6,0l0,-28.3l-1.6,0l0,28.3Z" class="g3_47" />
<path d="M523.6,766l55,0l0,-27.5l-55,0l0,27.5Z" class="g2_47" />
<path d="M523.6,739.3l55.8,0l0,-1.6l-55.8,0l0,1.6Z" class="g3_47" />
<path d="M577.9,766.8l1.5,0l0,-28.3l-1.5,0l0,28.3Z" class="g3_47" />
<path d="M522.9,766.8l55.7,0l0,-1.6l-55.7,0l0,1.6Z" class="g3_47" />
<path d="M522.9,766l1.5,0l0,-28.3l-1.5,0l0,28.3Z" class="g3_47" />
<path d="M595.1,766l55,0l0,-27.5l-55,0l0,27.5Z" class="g2_47" />
<path d="M595.1,739.3l55.8,0l0,-1.6l-55.8,0l0,1.6Z" class="g3_47" />
<path d="M649.4,766.8l1.5,0l0,-28.3l-1.5,0l0,28.3Z" class="g3_47" />
<path d="M594.4,766.8l55.7,0l0,-1.6l-55.7,0l0,1.6Z" class="g3_47" />
<path d="M594.4,766l1.5,0l0,-28.3l-1.5,0l0,28.3Z" class="g3_47" />
<path d="M666.6,766l55,0l0,-27.5l-55,0l0,27.5Z" class="g2_47" />
<path d="M666.6,739.3l55.8,0l0,-1.6l-55.8,0l0,1.6Z" class="g3_47" />
<path d="M720.9,766.8l1.5,0l0,-28.3l-1.5,0l0,28.3Z" class="g3_47" />
<path d="M665.9,766.8l55.7,0l0,-1.6l-55.7,0l0,1.6Z" class="g3_47" />
<path d="M665.9,766l1.5,0l0,-28.3l-1.5,0l0,28.3Z" class="g3_47" />
</svg>