<?xml version="1.0" encoding="UTF-8" standalone="no"?>
<!DOCTYPE svg PUBLIC "-//W3C//DTD SVG 1.1//EN"
"http://www.w3.org/Graphics/SVG/1.1/DTD/svg11.dtd">
<svg viewBox="0 0 935 1210" version="1.1" xmlns="http://www.w3.org/2000/svg" xmlns:xlink="http://www.w3.org/1999/xlink">
<defs>
<style type="text/css"><![CDATA[
.g1_1168{
fill: #FFFFFF;
}
.g2_1168{
}
]]></style>
</defs>
<path d="M165,1149.3l687.5,0l0,-21.2l-687.5,0l0,21.2Z" class="g1_1168" />
<path d="M68.8,1149.3l82.5,0l0,-21.2l-82.5,0l0,21.2Z" class="g1_1168" />
<path d="M70.7,231.8l0.7,0l0,-106.1l-0.7,0l0,106.1Z" class="g2_1168" />
<path d="M220.3,232.7l0.7,0l0,-107.8l-0.7,0l0,107.8Z" class="g2_1168" />
<path d="M390,232.7l0.7,0l0,-107.8l-0.7,0l0,107.8Z" class="g2_1168" />
<path d="M427.8,232.7l0.7,0l0,-107.8l-0.7,0l0,107.8Z" class="g2_1168" />
<path d="M501.1,232.7l0.8,0l0,-107.8l-0.8,0l0,107.8Z" class="g2_1168" />
<path d="M572.6,232.7l0.7,0l0,-107.8l-0.7,0l0,107.8Z" class="g2_1168" />
<path d="M849.8,231.8l0.7,0l0,-106.1l-0.7,0l0,106.1Z" class="g2_1168" />
<path d="M70.7,125.7l779.8,0l0,-0.8l-779.8,0l0,0.8Z" class="g2_1168" />
<path d="M70.7,163.8l779.8,0l0,-0.7l-779.8,0l0,0.7Z" class="g2_1168" />
<path d="M70.7,186.7l779.8,0l0,-0.7L70.7,186l0,0.7Z" class="g2_1168" />
<path d="M70.7,209.6l779.8,0l0,-0.7l-779.8,0l0,0.7Z" class="g2_1168" />
<path d="M70.7,232.6l779.8,0l0,-0.8l-779.8,0l0,0.8Z" class="g2_1168" />
<path d="M69.1,335.8l0.8,0l0,-48.1l-0.8,0l0,48.1Z" class="g2_1168" />
<path d="M141.6,336.5l0.8,0l0,-49.7l-0.8,0l0,49.7Z" class="g2_1168" />
<path d="M313.1,336.5l0.8,0l0,-49.7l-0.8,0l0,49.7Z" class="g2_1168" />
<path d="M487.7,336.5l0.7,0l0,-49.7l-0.7,0l0,49.7Z" class="g2_1168" />
<path d="M671,336.5l0.7,0l0,-49.7l-0.7,0l0,49.7Z" class="g2_1168" />
<path d="M851.3,335.8l0.7,0l0,-48.1l-0.7,0l0,48.1Z" class="g2_1168" />
<path d="M69.1,287.6l782.9,0l0,-0.8l-782.9,0l0,0.8Z" class="g2_1168" />
<path d="M69.1,312L852,312l0,-0.7l-782.9,0l0,0.7Z" class="g2_1168" />
<path d="M69.1,336.5l782.9,0l0,-0.7l-782.9,0l0,0.7Z" class="g2_1168" />
</svg>