<?xml version="1.0" encoding="UTF-8" standalone="no"?>
<!DOCTYPE svg PUBLIC "-//W3C//DTD SVG 1.1//EN"
"http://www.w3.org/Graphics/SVG/1.1/DTD/svg11.dtd">
<svg viewBox="0 0 935 1210" version="1.1" xmlns="http://www.w3.org/2000/svg" xmlns:xlink="http://www.w3.org/1999/xlink">
<defs>
<style type="text/css"><![CDATA[
.g1_343{
fill: #FFFFFF;
}
.g2_343{
}
]]></style>
</defs>
<path d="M68.9,1149.3l686.3,0l0,-21.2l-686.3,0l0,21.2Z" class="g1_343" />
<path d="M771.3,1149.3l83.7,0l0,-21.2l-83.7,0l0,21.2Z" class="g1_343" />
<path d="M158.5,314.9l0.7,0l0,-190.8l-0.7,0l0,190.8Z" class="g2_343" />
<path d="M763.5,314.9l0.7,0l0,-190.8l-0.7,0l0,190.8Z" class="g2_343" />
<path d="M158.5,124.1l605.7,0l0,-0.7l-605.7,0l0,0.7Z" class="g2_343" />
<path d="M158.5,315.7l605.7,0l0,-0.7l-605.7,0l0,0.7Z" class="g2_343" />
<path fill-rule="evenodd" d="M439,255.7l0.1,-0.3l0,-0.3c0,-1.5,-1.9,-2,-2.9,-0.8l0,0.3l-0.1,0.3c-0.2,1.4,1.3,2.3,2.6,1.3l0.2,-0.3l0.1,-0.2Z" class="g2_343" />
<path d="M437.6,255.1l2.3,-6.1l0.4,-1l0.8,0.7l19.2,14.2l2.1,1.6l-2.7,-0.2l-23.7,-2l-1,-0.1l0.3,-0.9l0.8,-0.5l23.7,1.9l-0.1,1.6l-0.4,-0.2L440.1,249.9l1,-1.2l0.2,0.8l-2.3,6.2Z" class="g2_343" />
<path d="M435.3,261.3l2.3,-6.2l1.4,0.6l-2.3,6.1Z" class="g2_343" />
<path fill-rule="evenodd" d="M438.3,255.4l2.2,-6.2l19.2,14.3l-23.7,-2Z" class="g2_343" />
<path d="M256.6,185.7l-1.1,2.9l181.5,68l1.1,-2.9Z" class="g2_343" />
<path d="M601.5,285l56.8,0l0,-20.6l-56.8,0l0,20.6Z" class="g1_343" />
<path d="M601.5,264.7l57.1,0l0,-0.7l-57.1,0l0,0.7Z" class="g2_343" />
<path d="M657.9,285.4l0.7,0l0,-21l-0.7,0l0,21Z" class="g2_343" />
<path d="M601.2,285.4l57.1,0l0,-0.8l-57.1,0l0,0.8Z" class="g2_343" />
<path d="M601.2,285l0.7,0l0,-21l-0.7,0l0,21Z" class="g2_343" />
<path fill-rule="evenodd" d="M619.5,240.8l0.3,-0.2l0.1,-0.2c1.2,-0.8,0.3,-2.8,-1.1,-2.6l-0.6,0.2l-0.3,0.2l-0.2,0.2l-0.1,0.2l-0.1,0.3l0,0.6l0.1,0.3c0,0.4,0.5,0.9,1,1l0.2,0.1l0.3,-0.1l0.4,0Z" class="g2_343" />
<path d="M618.9,239.3l6.3,-2.1l1,-0.2l0.1,1l1,23.8l0.1,2.7l-1.6,-2.2L612.3,242.5l-0.5,-0.8l0.9,-0.3l0.9,0.3l13.5,19.7l-1.3,0.9l-0.1,-0.4l-1,-23.8l1.6,-0.1l-0.6,0.8l-6.2,2.1Z" class="g2_343" />
<path d="M612.7,241.4l6.2,-2.1l0.6,1.6l-6.3,2Z" class="g2_343" />
<path fill-rule="evenodd" d="M619.2,240.1l6.2,-2.1l1,23.8L613,242.1Z" class="g2_343" />
<path d="M603,186.6l-2.9,0.9l17.5,52.3l2.8,-0.9Z" class="g2_343" />
<path fill-rule="evenodd" d="M553.6,246.2l0.2,-0.3l0.1,-0.2l0.1,-0.3l0.1,-0.3L554,244.8l0,-0.2L553.7,244l-0.2,-0.2l-0.3,-0.2l-0.3,0l-0.6,0l-0.6,0.1l-0.4,0.5l-0.2,0.5L551,245l0.1,0.3l0,0.3l0.4,0.5c0.5,0.6,0.7,0.5,1.3,0.5l0.6,-0.2l0.2,-0.2Z" class="g2_343" />
<path d="M552.7,245.1l4.7,-4.5l0.8,-0.6l0.4,0.9l10.8,21.2l1.2,2.4l-2.3,-1.4L547.9,250.9l-0.8,-0.6l0.7,-0.7l0.9,-0.1l20.4,12.2l-0.8,1.4l-0.2,-0.4L557.2,241.5l1.4,-0.6l-0.2,0.9l-4.7,4.5Z" class="g2_343" />
<path d="M547.8,249.6l4.9,-4.5l1,1.2l-4.9,4.5Z" class="g2_343" />
<path fill-rule="evenodd" d="M553.1,245.7l4.8,-4.5l10.8,21.1L548.3,250.2Z" class="g2_343" />
<path d="M499.5,186.1l-2.2,2.1l54.2,58l2.2,-2.1Z" class="g2_343" />
<path fill-rule="evenodd" d="M497.3,252.4l0.1,-0.4l0.1,-0.3c0.1,-1.4,-1.9,-2.3,-2.7,-1.1l-0.2,0.2l-0.1,0.3c-0.3,1.6,1,2.4,2.3,1.7l0.5,-0.4Z" class="g2_343" />
<path d="M495.9,251.5l3.2,-5.6l0.6,-0.9l0.7,0.7l16.8,16.8l1.9,2l-2.6,-0.7l-23.1,-5.4l-1.1,-0.2l0.5,-0.9l0.8,-0.4l23.2,5.5l-0.3,1.4l-0.4,-0.2L499.2,246.8l1.2,-1.1l0.1,0.9l-3.2,5.7Z" class="g2_343" />
<path d="M492.8,257.3l3.1,-5.8l1.4,0.8l-3.1,5.7Z" class="g2_343" />
<path fill-rule="evenodd" d="M496.6,251.9l3.2,-5.7l16.8,16.9l-23.2,-5.4Z" class="g2_343" />
<path d="M380.5,185.8l-1.5,2.7l116.2,64.4l1.4,-2.7Z" class="g2_343" />
<path d="M544.9,285l56.6,0l0,-20.6l-56.6,0l0,20.6Z" class="g1_343" />
<path d="M544.9,264.7l57,0l0,-0.7l-57,0l0,0.7Z" class="g2_343" />
<path d="M601.2,285.4l0.7,0l0,-21l-0.7,0l0,21Z" class="g2_343" />
<path d="M544.5,285.4l57,0l0,-0.8l-57,0l0,0.8Z" class="g2_343" />
<path d="M544.5,285l0.7,0l0,-21l-0.7,0l0,21Z" class="g2_343" />
<path d="M488.1,285l56.8,0l0,-20.6l-56.8,0l0,20.6Z" class="g1_343" />
<path d="M488.1,264.7l57.1,0l0,-0.7l-57.1,0l0,0.7Z" class="g2_343" />
<path d="M544.5,285.4l0.7,0l0,-21l-0.7,0l0,21Z" class="g2_343" />
<path d="M487.8,285.4l57.1,0l0,-0.8l-57.1,0l0,0.8Z" class="g2_343" />
<path d="M487.8,285l0.7,0l0,-21l-0.7,0l0,21Z" class="g2_343" />
<path d="M431.4,285l56.7,0l0,-20.6l-56.7,0l0,20.6Z" class="g1_343" />
<path d="M431.4,264.7l57.1,0l0,-0.7l-57.1,0l0,0.7Z" class="g2_343" />
<path d="M487.8,285.4l0.7,0l0,-21l-0.7,0l0,21Z" class="g2_343" />
<path d="M431,285.4l57.1,0l0,-0.8l-57.1,0l0,0.8Z" class="g2_343" />
<path d="M431,285l0.8,0l0,-21l-0.8,0l0,21Z" class="g2_343" />
<path d="M544.9,187.1l113.4,0l0,-20.6l-113.4,0l0,20.6Z" class="g1_343" />
<path d="M544.9,166.8l113.7,0l0,-0.7l-113.7,0l0,0.7Z" class="g2_343" />
<path d="M657.9,187.5l0.7,0l0,-21l-0.7,0l0,21Z" class="g2_343" />
<path d="M544.5,187.5l113.8,0l0,-0.8l-113.8,0l0,0.8Z" class="g2_343" />
<path d="M544.5,187.1l0.7,0l0,-21l-0.7,0l0,21Z" class="g2_343" />
<path d="M204.5,187.1l113.4,0l0,-20.6l-113.4,0l0,20.6Z" class="g1_343" />
<path d="M204.5,166.8l113.8,0l0,-0.7l-113.8,0l0,0.7Z" class="g2_343" />
<path d="M317.5,187.5l0.8,0l0,-21l-0.8,0l0,21Z" class="g2_343" />
<path d="M204.1,187.5l113.8,0l0,-0.8l-113.8,0l0,0.8Z" class="g2_343" />
<path d="M204.1,187.1l0.8,0l0,-21l-0.8,0l0,21Z" class="g2_343" />
<path d="M317.9,187.1l113.5,0l0,-20.6l-113.5,0l0,20.6Z" class="g1_343" />
<path d="M317.9,166.8l113.9,0l0,-0.7l-113.9,0l0,0.7Z" class="g2_343" />
<path d="M431,187.5l0.8,0l0,-21l-0.8,0l0,21Z" class="g2_343" />
<path d="M317.5,187.5l113.9,0l0,-0.8l-113.9,0l0,0.8Z" class="g2_343" />
<path d="M317.5,187.1l0.8,0l0,-21l-0.8,0l0,21Z" class="g2_343" />
<path d="M431.4,187.1l113.5,0l0,-20.6l-113.5,0l0,20.6Z" class="g1_343" />
<path d="M431.4,166.8l113.8,0l0,-0.7l-113.8,0l0,0.7Z" class="g2_343" />
<path d="M544.5,187.5l0.7,0l0,-21l-0.7,0l0,21Z" class="g2_343" />
<path d="M431,187.5l113.9,0l0,-0.8l-113.9,0l0,0.8Z" class="g2_343" />
<path d="M431,187.1l0.8,0l0,-21l-0.8,0l0,21Z" class="g2_343" />
<path d="M207.6,285L430,285l0,-20.6l-222.4,0l0,20.6Z" class="g1_343" />
<path d="M207.6,264.7l222.8,0l0,-0.7l-222.8,0l0,0.7Z" class="g2_343" />
<path d="M429.6,285.4l0.8,0l0,-21l-0.8,0l0,21Z" class="g2_343" />
<path d="M207.3,285.4l222.7,0l0,-0.8l-222.7,0l0,0.8Z" class="g2_343" />
<path d="M207.3,285l0.7,0l0,-21l-0.7,0l0,21Z" class="g2_343" />
</svg>