<?xml version="1.0" encoding="UTF-8" standalone="no"?>
<!DOCTYPE svg PUBLIC "-//W3C//DTD SVG 1.1//EN"
"http://www.w3.org/Graphics/SVG/1.1/DTD/svg11.dtd">
<svg viewBox="0 0 935 1210" version="1.1" xmlns="http://www.w3.org/2000/svg" xmlns:xlink="http://www.w3.org/1999/xlink">
<defs>
<style type="text/css"><![CDATA[
.g1_1163{
fill: #FFFFFF;
}
.g2_1163{
}
]]></style>
</defs>
<path d="M68.9,1149.3l686.3,0l0,-21.2l-686.3,0l0,21.2Z" class="g1_1163" />
<path d="M771.3,1149.3l83.7,0l0,-21.2l-83.7,0l0,21.2Z" class="g1_1163" />
<path d="M70.9,522.1l0.7,0L71.6,141l-0.7,0l0,381.1Z" class="g2_1163" />
<path d="M221,522.9l0.7,0l0,-382.7l-0.7,0l0,382.7Z" class="g2_1163" />
<path d="M391.3,522.9l0.8,0l0,-382.7l-0.8,0l0,382.7Z" class="g2_1163" />
<path d="M429.2,522.9l0.7,0l0,-382.7l-0.7,0l0,382.7Z" class="g2_1163" />
<path d="M502.5,522.9l0.7,0l0,-382.7l-0.7,0l0,382.7Z" class="g2_1163" />
<path d="M573.9,522.9l0.8,0l0,-382.7l-0.8,0l0,382.7Z" class="g2_1163" />
<path d="M851.1,522.1l0.8,0l0,-381.1l-0.8,0l0,381.1Z" class="g2_1163" />
<path d="M70.9,140.9l781,0l0,-0.7l-781,0l0,0.7Z" class="g2_1163" />
<path d="M70.9,179.1l781,0l0,-0.7l-781,0l0,0.7Z" class="g2_1163" />
<path d="M70.9,202l781,0l0,-0.7l-781,0l0,0.7Z" class="g2_1163" />
<path d="M70.9,224.9l781,0l0,-0.7l-781,0l0,0.7Z" class="g2_1163" />
<path d="M70.9,247.9l781,0l0,-0.8l-781,0l0,0.8Z" class="g2_1163" />
<path d="M70.9,270.8l781,0l0,-0.7l-781,0l0,0.7Z" class="g2_1163" />
<path d="M70.9,293.7l781,0l0,-0.7l-781,0l0,0.7Z" class="g2_1163" />
<path d="M70.9,316.6l781,0l0,-0.7l-781,0l0,0.7Z" class="g2_1163" />
<path d="M70.9,339.5l781,0l0,-0.7l-781,0l0,0.7Z" class="g2_1163" />
<path d="M70.9,362.4l781,0l0,-0.7l-781,0l0,0.7Z" class="g2_1163" />
<path d="M70.9,385.4l781,0l0,-0.8l-781,0l0,0.8Z" class="g2_1163" />
<path d="M70.9,408.3l781,0l0,-0.8l-781,0l0,0.8Z" class="g2_1163" />
<path d="M70.9,431.2l781,0l0,-0.7l-781,0l0,0.7Z" class="g2_1163" />
<path d="M70.9,454.1l781,0l0,-0.7l-781,0l0,0.7Z" class="g2_1163" />
<path d="M70.9,477l781,0l0,-0.7l-781,0l0,0.7Z" class="g2_1163" />
<path d="M70.9,499.9l781,0l0,-0.7l-781,0l0,0.7Z" class="g2_1163" />
<path d="M70.9,522.9l781,0l0,-0.8l-781,0l0,0.8Z" class="g2_1163" />
<path d="M70.5,739.1l0.7,0l0,-121.4l-0.7,0l0,121.4Z" class="g2_1163" />
<path d="M133.7,739.8l0.8,0l0,-123l-0.8,0l0,123Z" class="g2_1163" />
<path d="M307.3,739.8l0.7,0l0,-123l-0.7,0l0,123Z" class="g2_1163" />
<path d="M486.1,739.8l0.7,0l0,-123l-0.7,0l0,123Z" class="g2_1163" />
<path d="M659.9,739.8l0.7,0l0,-123l-0.7,0l0,123Z" class="g2_1163" />
<path d="M851.5,739.1l0.7,0l0,-121.4l-0.7,0l0,121.4Z" class="g2_1163" />
<path d="M70.5,617.7l781.8,0l0,-0.8l-781.8,0l0,0.8Z" class="g2_1163" />
<path d="M70.5,642l781.8,0l0,-0.7l-781.8,0l0,0.7Z" class="g2_1163" />
<path d="M70.5,666.5l781.8,0l0,-0.7l-781.8,0l0,0.7Z" class="g2_1163" />
<path d="M70.5,691l781.8,0l0,-0.7l-781.8,0l0,0.7Z" class="g2_1163" />
<path d="M70.5,715.4l781.8,0l0,-0.8l-781.8,0l0,0.8Z" class="g2_1163" />
<path d="M70.5,739.8l781.8,0l0,-0.7l-781.8,0l0,0.7Z" class="g2_1163" />
</svg>