<?xml version="1.0" encoding="UTF-8" standalone="no"?>
<!DOCTYPE svg PUBLIC "-//W3C//DTD SVG 1.1//EN"
"http://www.w3.org/Graphics/SVG/1.1/DTD/svg11.dtd">
<svg viewBox="0 0 935 1210" version="1.1" xmlns="http://www.w3.org/2000/svg" xmlns:xlink="http://www.w3.org/1999/xlink">
<defs>
<clipPath id="c0_308"><path d="M173.2,686.8l0,-544.7l574.8,0l0,544.7Z" /></clipPath>
<style type="text/css"><![CDATA[
.g1_308{
fill: #FFFFFF;
}
.g2_308{
}
.g3_308{
fill: #CDCDCD;
}
.g4_308{
fill: none;
stroke: #000000;
stroke-width: 0.29791665;
stroke-linecap: round;
stroke-linejoin: round;
}
.g5_308{
fill: none;
stroke: #000000;
stroke-width: 1.0434723;
stroke-linecap: round;
stroke-linejoin: round;
}
]]></style>
</defs>
<path d="M165,1149.3l687.5,0l0,-21.2l-687.5,0l0,21.2Z" class="g1_308" />
<path d="M68.8,1149.3l82.5,0l0,-21.2l-82.5,0l0,21.2Z" class="g1_308" />
<path d="M170,689.4l0.8,0l0,-563.7l-0.8,0l0,563.7Z" class="g2_308" />
<path d="M750.3,689.4l0.7,0l0,-563.7l-0.7,0l0,563.7Z" class="g2_308" />
<path d="M170,125.7l581,0l0,-0.8l-581,0l0,0.8Z" class="g2_308" />
<path d="M170,690.2l581,0l0,-0.8l-581,0l0,0.8Z" class="g2_308" />
<path d="M71.3,799.4l0.4,0l0,-20.8l-0.4,0l0,20.8Z" class="g2_308" />
<path d="M71.1,1097.3l0.8,0l0,-297.1l-0.8,0l0,297.1Z" class="g2_308" />
<path d="M144.4,800.2l0.3,0l0,-22l-0.3,0l0,22Z" class="g2_308" />
<path d="M144.2,1098.1l0.7,0l0,-298.7l-0.7,0l0,298.7Z" class="g2_308" />
<path d="M260.5,800.2l0.4,0l0,-22l-0.4,0l0,22Z" class="g2_308" />
<path d="M260.3,1098.1l0.8,0l0,-298.7l-0.8,0l0,298.7Z" class="g2_308" />
<path d="M849.5,799.4l0.3,0l0,-20.8l-0.3,0l0,20.8Z" class="g2_308" />
<path d="M849.3,1097.3l0.7,0l0,-297.1l-0.7,0l0,297.1Z" class="g2_308" />
<path d="M71.3,778.6l778.5,0l0,-0.3l-778.5,0l0,0.3Z" class="g2_308" />
<path d="M71.1,800.2l778.9,0l0,-0.8l-778.9,0l0,0.8Z" class="g2_308" />
<path d="M71.1,838.4l778.9,0l0,-0.7l-778.9,0l0,0.7Z" class="g2_308" />
<path d="M71.1,859.7l778.9,0l0,-0.7L71.1,859l0,0.7Z" class="g2_308" />
<path d="M71.1,881.1l778.9,0l0,-0.7l-778.9,0l0,0.7Z" class="g2_308" />
<path d="M71.1,902.5l778.9,0l0,-0.7l-778.9,0l0,0.7Z" class="g2_308" />
<path d="M71.1,940.7l778.9,0l0,-0.8l-778.9,0l0,0.8Z" class="g2_308" />
<path d="M71.1,962.1l778.9,0l0,-0.7l-778.9,0l0,0.7Z" class="g2_308" />
<path d="M71.1,1000.3l778.9,0l0,-0.8l-778.9,0l0,0.8Z" class="g2_308" />
<path d="M71.1,1038.5l778.9,0l0,-0.7l-778.9,0l0,0.7Z" class="g2_308" />
<path d="M71.1,1059.9l778.9,0l0,-0.8l-778.9,0l0,0.8Z" class="g2_308" />
<path d="M71.1,1098.1l778.9,0l0,-0.8l-778.9,0l0,0.8Z" class="g2_308" />
<g clip-path="url(#c0_308)">
<path d="M178.6,686.8l563.9,0l0,-544.8l-563.9,0l0,544.8Z" class="g1_308" />
</g>
<path d="M488.8,220.8l13.4,0l0,-53.8l-13.4,0l0,53.8Z" class="g3_308" />
<path d="M703.8,167l0,53.6" class="g4_308" />
<path d="M690.3,167l0,53.6" class="g4_308" />
<path d="M676.9,167l0,53.6" class="g4_308" />
<path d="M663.5,167l0,53.6" class="g4_308" />
<path d="M650,167l0,53.6" class="g4_308" />
<path d="M636.5,167l0,53.6" class="g4_308" />
<path d="M623.1,167l0,53.6" class="g4_308" />
<path d="M609.7,167l0,53.6" class="g4_308" />
<path d="M596.2,167l0,53.6" class="g4_308" />
<path d="M582.6,167l0,53.6" class="g4_308" />
<path d="M569.2,167l0,53.6" class="g4_308" />
<path d="M555.7,167l0,53.6" class="g4_308" />
<path d="M542.3,167l0,53.6" class="g4_308" />
<path d="M528.8,167l0,53.6" class="g4_308" />
<path d="M515.3,167l0,53.6" class="g4_308" />
<path d="M502,167l0,53.6" class="g4_308" />
<path d="M488.5,167l0,53.6" class="g4_308" />
<path d="M475,167l0,53.6" class="g4_308" />
<path d="M461.5,167l0,53.6" class="g4_308" />
<path d="M448.2,167l0,53.6" class="g4_308" />
<path d="M434.7,167l0,53.6" class="g4_308" />
<path d="M421.2,167l0,53.6" class="g4_308" />
<path d="M407.8,167l0,53.6" class="g4_308" />
<path d="M394.3,167l0,53.6" class="g4_308" />
<path d="M380.9,167l0,53.6" class="g4_308" />
<path d="M367.4,167l0,53.6" class="g4_308" />
<path d="M354,167l0,53.6" class="g4_308" />
<path d="M340.5,167l0,53.6" class="g4_308" />
<path d="M327.1,167l0,53.6" class="g4_308" />
<path d="M313.7,167l0,53.6" class="g4_308" />
<path d="M300.2,167l0,53.6" class="g4_308" />
<path d="M286.6,220.6l430.7,0l0,-53.6l-430.7,0l0,53.6Z" class="g5_308" />
<path d="M180.7,680.1l20.1,0l0,-20.2l-20.1,0l0,20.2Z" class="g3_308" />
<path d="M180.7,680.1l20.1,0l0,-20.2l-20.1,0l0,20.2Z" class="g4_308" />
<path d="M616.6,220.6l0,317.8l-145,0" class="g4_308" />
<path d="M603.1,220.6l0,303.5l-266.1,0" class="g4_308" />
<path d="M575.8,220.6l0,274.7l-235.4,0" class="g4_308" />
<path d="M657.3,220.6l0,360.8l-253,0" class="g4_308" />
<path d="M670.4,220.6l0,375.2l-299.7,0" class="g4_308" />
<path d="M697.2,220.6l0,404l-276.1,0" class="g4_308" />
<path d="M643.4,220.6l0,346.5l-255.9,0" class="g4_308" />
<path d="M589.6,220.6l0,289l-229.1,0" class="g4_308" />
<path d="M522.4,220.6l0,216.3l-208.9,0" class="g4_308" />
<path d="M535.9,220.6l0,229.7l-252.7,0" class="g4_308" />
<path d="M508.9,220.6l0,202.9l-107.9,0" class="g4_308" />
<path d="M630,220.6l0,332.1l-262.7,0" class="g4_308" />
<path d="M455,220.6l0,162.5l-151.7,0" class="g4_308" />
<path d="M401.2,220.6l0,108.9l-155,0" class="g4_308" />
<path d="M441.6,220.6l0,149.1l-138.3,0" class="g4_308" />
<path d="M468.1,220.6l0,175.9l-111,0" class="g4_308" />
<path d="M428.1,220.6l0,135.7l-188.6,0" class="g4_308" />
<path d="M374.3,220.6l0,82l-151.6,0" class="g4_308" />
<path d="M333.7,220.6l0,41.7l-111,0" class="g4_308" />
<path d="M347.1,220.6l0,55.2l-90.8,0" class="g4_308" />
<path d="M360.9,220.6l0,68.6l-121.4,0" class="g4_308" />
<path d="M710.7,220.6l0,418.3l-363.6,0" class="g4_308" />
<path d="M549.3,220.6l0,243.1l-202.2,0" class="g4_308" />
<path d="M481.6,220.6l0,189.4l-90.7,0" class="g4_308" />
<path d="M683.5,220.6l0,389.6l-336.4,0" class="g4_308" />
<path d="M414.3,220.6l0,122.2l-171.5,0" class="g4_308" />
<path d="M387.5,220.6l0,95.5l-114.3,0" class="g4_308" />
<path d="M320.2,220.6l0,28.4l-90.9,0" class="g4_308" />
<path d="M306.8,220.6l0,15l-57.3,0" class="g4_308" />
<path d="M564.9,220.6l0,259.8l-332.1,0" class="g4_308" />
</svg>