<?xml version="1.0" encoding="UTF-8" standalone="no"?>
<!DOCTYPE svg PUBLIC "-//W3C//DTD SVG 1.1//EN"
"http://www.w3.org/Graphics/SVG/1.1/DTD/svg11.dtd">
<svg viewBox="0 0 935 1210" version="1.1" xmlns="http://www.w3.org/2000/svg" xmlns:xlink="http://www.w3.org/1999/xlink">
<defs>
<style type="text/css"><![CDATA[
.g1_114{
fill: #FFFFFF;
}
.g2_114{
}
]]></style>
</defs>
<path d="M165,1149.3l687.5,0l0,-21.2l-687.5,0l0,21.2Z" class="g1_114" />
<path d="M68.8,1149.3l82.5,0l0,-21.2l-82.5,0l0,21.2Z" class="g1_114" />
<path d="M68.8,280.8l0.7,0l0,-97.1l-0.7,0l0,97.1Z" class="g2_114" />
<path d="M275.3,281.5l0.7,0L276,183l-0.7,0l0,98.5Z" class="g2_114" />
<path d="M472.9,281.5l0.7,0l0,-98.5l-0.7,0l0,98.5Z" class="g2_114" />
<path d="M851.6,280.8l0.7,0l0,-97.1l-0.7,0l0,97.1Z" class="g2_114" />
<path d="M68.8,183.7l783.6,0l0,-0.7L68.8,183l0,0.7Z" class="g2_114" />
<path d="M68.8,208.2l783.6,0l0,-0.8l-783.6,0l0,0.8Z" class="g2_114" />
<path d="M68.8,232.6l783.6,0l0,-0.8l-783.6,0l0,0.8Z" class="g2_114" />
<path d="M68.8,257l783.6,0l0,-0.7l-783.6,0l0,0.7Z" class="g2_114" />
<path d="M68.8,281.5l783.6,0l0,-0.7l-783.6,0l0,0.7Z" class="g2_114" />
<path d="M170.5,652.9l0.7,0l0,-279.7l-0.7,0l0,279.7Z" class="g2_114" />
<path d="M749.8,652.9l0.8,0l0,-279.7l-0.8,0l0,279.7Z" class="g2_114" />
<path d="M170.5,373.2l580.1,0l0,-0.8l-580.1,0l0,0.8Z" class="g2_114" />
<path d="M170.5,653.6l580.1,0l0,-0.8l-580.1,0l0,0.8Z" class="g2_114" />
<path d="M316.3,425l294.5,0l0,-0.8l-294.5,0l0,0.8Z" class="g2_114" />
<path d="M610,462l0.8,0l0,-37.4l-0.8,0l0,37.4Z" class="g2_114" />
<path d="M316,462l294.4,0l0,-0.7l-294.4,0l0,0.7Z" class="g2_114" />
<path d="M316,461.6l0.7,0l0,-37.4l-0.7,0l0,37.4Z" class="g2_114" />
<path d="M339.8,425.3l0.7,0l0,-0.3l-0.7,0l0,0.3Z" class="g2_114" />
<path d="M339.8,461.3l0.7,0l0,-36l-0.7,0l0,36Z" class="g2_114" />
<path d="M351.6,425.3l0.8,0l0,-0.3l-0.8,0l0,0.3Z" class="g2_114" />
<path d="M351.6,461.3l0.8,0l0,-36l-0.8,0l0,36Z" class="g2_114" />
<path d="M412,425.3l0.7,0l0,-0.3l-0.7,0l0,0.3Z" class="g2_114" />
<path d="M412,461.3l0.7,0l0,-36l-0.7,0l0,36Z" class="g2_114" />
<path d="M514.3,425.3l0.8,0l0,-0.3l-0.8,0l0,0.3Z" class="g2_114" />
<path d="M514.3,461.3l0.8,0l0,-36l-0.8,0l0,36Z" class="g2_114" />
<path d="M327.1,479.2l72.5,0l0,-12.6l-72.5,0l0,12.6Z" class="g1_114" />
<path d="M345.2,494.4l0.5,0l0,-2.2l-0.5,0l0,2.2Z" class="g2_114" />
<path d="M345.8,492.9l-2.4,1.4l-1.7,1l0.6,-2l2.4,-8.2l0.7,-2.7l0.7,2.7l2.3,8.2l0.6,2l-1.7,-1L347,493.8l-2.3,-8.2l1.4,-0.5l0,0.5l-2.3,8.2l-1.5,-0.5l0.4,-0.4l2.3,-1.4Z" class="g2_114" />
<path d="M347.3,494.3L345,492.9l0,-1.4l0.5,-0.3l0.4,0.3l2.2,1.4Z" class="g2_114" />
<path fill-rule="evenodd" d="M345.4,492.3l-2.4,1.3l2.4,-8.2l2.3,8.2Z" class="g2_114" />
<path d="M508.8,504.3l0.5,0l0,-37.1l-0.5,0l0,37.1Z" class="g2_114" />
<path d="M345.2,504.3l163.8,0l0,-0.4l-163.8,0l0,0.4Z" class="g2_114" />
<path d="M345.2,504.1l0.5,0l0,-9.9l-0.5,0l0,9.9Z" class="g2_114" />
<path d="M316.3,546.9l294.5,0l0,-0.7l-294.5,0l0,0.7Z" class="g2_114" />
<path d="M610,584l0.8,0l0,-37.5l-0.8,0l0,37.5Z" class="g2_114" />
<path d="M316,584l294.4,0l0,-0.7l-294.4,0l0,0.7Z" class="g2_114" />
<path d="M316,583.6l0.7,0l0,-37.5l-0.7,0l0,37.5Z" class="g2_114" />
<path d="M540.4,547.3l0.4,0l0,-0.1l-0.4,0l0,0.1Z" class="g2_114" />
<path d="M540.4,583l0.4,0l0,-35.7l-0.4,0l0,35.7Z" class="g2_114" />
<path d="M552.2,547.3l0.5,0l0,-0.1l-0.5,0l0,0.1Z" class="g2_114" />
<path d="M552.2,583l0.5,0l0,-35.7l-0.5,0l0,35.7Z" class="g2_114" />
<path d="M412.1,547.3l0.5,0l0,-0.1l-0.5,0l0,0.1Z" class="g2_114" />
<path d="M412.1,583l0.5,0l0,-35.7l-0.5,0l0,35.7Z" class="g2_114" />
<path d="M514.5,547.3l0.5,0l0,-0.1l-0.5,0l0,0.1Z" class="g2_114" />
<path d="M514.5,583l0.5,0l0,-35.7l-0.5,0l0,35.7Z" class="g2_114" />
<path d="M521.5,601.2l72.5,0l0,-12.6l-72.5,0l0,12.6Z" class="g1_114" />
<path d="M547.3,616.4l0.4,0l0,-2.1l-0.4,0l0,2.1Z" class="g2_114" />
<path d="M547.8,614.9l-2.4,1.4l-1.6,1l0.5,-1.9l2.4,-8.3l0.7,-2.6l0.8,2.6l2.3,8.3l0.6,1.8l-1.7,-0.9l-0.3,-0.5l-2.4,-8.2l1.5,-0.5l0,0.5l-2.4,8.2l-1.5,-0.4l0.4,-0.5l2.4,-1.4Z" class="g2_114" />
<path d="M549.5,616.3l-2.4,-1.4l0,-1.4l0.3,-0.2l0.4,0.2l2.4,1.4Z" class="g2_114" />
<path fill-rule="evenodd" d="M547.4,614.3l-2.3,1.3l2.3,-8.2l2.4,8.2Z" class="g2_114" />
<path d="M403.8,626.3l0.5,0l0,-37.2l-0.5,0l0,37.2Z" class="g2_114" />
<path d="M404,626.3l143.7,0l0,-0.5l-143.7,0l0,0.5Z" class="g2_114" />
<path d="M547.3,626l0.4,0l0,-9.8l-0.4,0l0,9.8Z" class="g2_114" />
<path d="M426.3,479.2l72.6,0l0,-12.6l-72.6,0l0,12.6Z" class="g1_114" />
<path d="M526.1,479.2l72.5,0l0,-12.6l-72.5,0l0,12.6Z" class="g1_114" />
<path d="M383.1,513.1l113.6,0l0,-12.6l-113.6,0l0,12.6Z" class="g1_114" />
<path d="M437.4,634.7l99,0l0,-12.6l-99,0l0,12.6Z" class="g1_114" />
<path d="M427.1,601.2l72.6,0l0,-12.6l-72.6,0l0,12.6Z" class="g1_114" />
<path d="M328.5,601.2l72.6,0l0,-12.6l-72.6,0l0,12.6Z" class="g1_114" />
<path d="M398.4,547.6l0.4,0l0,-0.2l-0.4,0l0,0.2Z" class="g2_114" />
<path d="M398.4,583.4l0.4,0l0,-35.8l-0.4,0l0,35.8Z" class="g2_114" />
<path d="M503,425.5l0.4,0l0,-0.2l-0.4,0l0,0.2Z" class="g2_114" />
<path d="M503,461.3l0.4,0l0,-35.8l-0.4,0l0,35.8Z" class="g2_114" />
</svg>