<?xml version="1.0" encoding="UTF-8" standalone="no"?>
<!DOCTYPE svg PUBLIC "-//W3C//DTD SVG 1.1//EN"
"http://www.w3.org/Graphics/SVG/1.1/DTD/svg11.dtd">
<svg viewBox="0 0 935 1210" version="1.1" xmlns="http://www.w3.org/2000/svg" xmlns:xlink="http://www.w3.org/1999/xlink">
<defs>
<style type="text/css"><![CDATA[
.g1_2054{
fill: #FFFFFF;
}
.g2_2054{
}
]]></style>
</defs>
<path d="M68.8,1149.3l783.7,0l0,-21.2l-783.7,0l0,21.2Z" class="g1_2054" />
<path d="M68.6,902.5l0.7,0l0,-236l-0.7,0l0,236Z" class="g2_2054" />
<path d="M158.8,903.4l0.7,0l0,-237.6l-0.7,0l0,237.6Z" class="g2_2054" />
<path d="M759.8,903.4l0.8,0l0,-237.6l-0.8,0l0,237.6Z" class="g2_2054" />
<path d="M851.1,902.5l0.8,0l0,-236l-0.8,0l0,236Z" class="g2_2054" />
<path d="M68.6,666.5l783.4,0l0,-0.7l-783.4,0l0,0.7Z" class="g2_2054" />
<path d="M68.6,707.8l783.4,0l0,-0.8L68.6,707l0,0.8Z" class="g2_2054" />
<path d="M68.6,732.2l783.4,0l0,-0.7l-783.4,0l0,0.7Z" class="g2_2054" />
<path d="M68.6,756.6l783.4,0l0,-0.7l-783.4,0l0,0.7Z" class="g2_2054" />
<path d="M68.6,781.1l783.4,0l0,-0.7l-783.4,0l0,0.7Z" class="g2_2054" />
<path d="M68.6,805.6l783.4,0l0,-0.8l-783.4,0l0,0.8Z" class="g2_2054" />
<path d="M68.6,830L852,830l0,-0.8l-783.4,0l0,0.8Z" class="g2_2054" />
<path d="M68.6,854.4l783.4,0l0,-0.7l-783.4,0l0,0.7Z" class="g2_2054" />
<path d="M68.6,878.9l783.4,0l0,-0.7l-783.4,0l0,0.7Z" class="g2_2054" />
<path d="M68.6,903.3l783.4,0l0,-0.7l-783.4,0l0,0.7Z" class="g2_2054" />
</svg>