<?xml version="1.0" encoding="UTF-8" standalone="no"?>
<!DOCTYPE svg PUBLIC "-//W3C//DTD SVG 1.1//EN"
"http://www.w3.org/Graphics/SVG/1.1/DTD/svg11.dtd">
<svg viewBox="0 0 935 1210" version="1.1" xmlns="http://www.w3.org/2000/svg" xmlns:xlink="http://www.w3.org/1999/xlink">
<defs>
<style type="text/css"><![CDATA[
.g1_69{
fill: #FFFFFF;
}
.g2_69{
}
]]></style>
</defs>
<path d="M68.9,1149.3l783.8,0l0,-21.2l-783.8,0l0,21.2Z" class="g1_69" />
<path d="M70.1,380.1l0.8,0l0,-48.2l-0.8,0l0,48.2Z" class="g2_69" />
<path d="M232.8,380.8l0.8,0l0,-49.6l-0.8,0l0,49.6Z" class="g2_69" />
<path d="M851.9,380.1l0.7,0l0,-48.2l-0.7,0l0,48.2Z" class="g2_69" />
<path d="M70.1,331.9l782.5,0l0,-0.7l-782.5,0l0,0.7Z" class="g2_69" />
<path d="M70.1,356.3l782.5,0l0,-0.7l-782.5,0l0,0.7Z" class="g2_69" />
<path d="M70.1,380.8l782.5,0l0,-0.8L70.1,380l0,0.8Z" class="g2_69" />
<path d="M72.1,905.7l0.7,0l0,-448.5l-0.7,0l0,448.5Z" class="g2_69" />
<path d="M211.8,906.4l0.7,0l0,-450l-0.7,0l0,450Z" class="g2_69" />
<path d="M248.4,906.4l0.8,0l0,-450l-0.8,0l0,450Z" class="g2_69" />
<path d="M290.4,906.4l0.7,0l0,-450l-0.7,0l0,450Z" class="g2_69" />
<path d="M329.7,906.4l0.8,0l0,-450l-0.8,0l0,450Z" class="g2_69" />
<path d="M365.3,906.4l0.7,0l0,-450l-0.7,0l0,450Z" class="g2_69" />
<path d="M849.9,905.7l0.8,0l0,-448.5l-0.8,0l0,448.5Z" class="g2_69" />
<path d="M72.1,457.2l778.7,0l0,-0.7l-778.7,0l0,0.7Z" class="g2_69" />
<path d="M72.1,561.1l778.7,0l0,-0.7l-778.7,0l0,0.7Z" class="g2_69" />
<path d="M211.8,585.6l639,0l0,-0.8l-639,0l0,0.8Z" class="g2_69" />
<path d="M211.8,609.9l639,0l0,-0.7l-639,0l0,0.7Z" class="g2_69" />
<path d="M72.1,634.4l778.7,0l0,-0.7l-778.7,0l0,0.7Z" class="g2_69" />
<path d="M211.8,658.9l639,0l0,-0.7l-639,0l0,0.7Z" class="g2_69" />
<path d="M72.1,683.3l778.7,0l0,-0.7l-778.7,0l0,0.7Z" class="g2_69" />
<path d="M211.8,758.2l639,0l0,-0.8l-639,0l0,0.8Z" class="g2_69" />
<path d="M211.8,782.7l639,0l0,-0.8l-639,0l0,0.8Z" class="g2_69" />
<path d="M72.1,823.9l778.7,0l0,-0.7l-778.7,0l0,0.7Z" class="g2_69" />
<path d="M72.1,865.2l778.7,0l0,-0.8l-778.7,0l0,0.8Z" class="g2_69" />
<path d="M72.1,906.4l778.7,0l0,-0.7l-778.7,0l0,0.7Z" class="g2_69" />
</svg>