<?xml version="1.0" encoding="UTF-8" standalone="no"?>
<!DOCTYPE svg PUBLIC "-//W3C//DTD SVG 1.1//EN"
"http://www.w3.org/Graphics/SVG/1.1/DTD/svg11.dtd">
<svg viewBox="0 0 935 1210" version="1.1" xmlns="http://www.w3.org/2000/svg" xmlns:xlink="http://www.w3.org/1999/xlink">
<defs>
<style type="text/css"><![CDATA[
.g1_1087{
fill: #FFFFFF;
}
.g2_1087{
}
]]></style>
</defs>
<path d="M68.9,1149.3l686.3,0l0,-21.2l-686.3,0l0,21.2Z" class="g1_1087" />
<path d="M771.3,1149.3l83.7,0l0,-21.2l-83.7,0l0,21.2Z" class="g1_1087" />
<path d="M68.6,276.2l0.7,0l0,-168.9l-0.7,0l0,168.9Z" class="g2_1087" />
<path d="M366.1,276.9l0.7,0l0,-170.3l-0.7,0l0,170.3Z" class="g2_1087" />
<path d="M409.7,276.9l0.7,0l0,-170.3l-0.7,0l0,170.3Z" class="g2_1087" />
<path d="M483.1,276.9l0.7,0l0,-170.3l-0.7,0l0,170.3Z" class="g2_1087" />
<path d="M562.5,276.9l0.7,0l0,-170.3l-0.7,0l0,170.3Z" class="g2_1087" />
<path d="M853.4,276.2l0.7,0l0,-168.9l-0.7,0l0,168.9Z" class="g2_1087" />
<path d="M68.6,107.3l785.6,0l0,-0.7l-785.6,0l0,0.7Z" class="g2_1087" />
<path d="M68.6,163.8l785.6,0l0,-0.7l-785.6,0l0,0.7Z" class="g2_1087" />
<path d="M68.6,220.4l785.6,0l0,-0.8l-785.6,0l0,0.8Z" class="g2_1087" />
<path d="M68.6,276.9l785.6,0l0,-0.7l-785.6,0l0,0.7Z" class="g2_1087" />
<path d="M68.2,601.6l0.7,0l0,-194.8l-0.7,0l0,194.8Z" class="g2_1087" />
<path d="M152.4,602.3l0.7,0l0,-196.3l-0.7,0l0,196.3Z" class="g2_1087" />
<path d="M331.9,602.3l0.8,0l0,-196.3l-0.8,0l0,196.3Z" class="g2_1087" />
<path d="M510,602.3l0.8,0l0,-196.3l-0.8,0l0,196.3Z" class="g2_1087" />
<path d="M685,602.3l0.8,0l0,-196.3l-0.8,0l0,196.3Z" class="g2_1087" />
<path d="M853.8,601.6l0.7,0l0,-194.8l-0.7,0l0,194.8Z" class="g2_1087" />
<path d="M68.2,406.8l786.4,0l0,-0.7l-786.4,0l0,0.7Z" class="g2_1087" />
<path d="M68.2,431.2l786.4,0l0,-0.7l-786.4,0l0,0.7Z" class="g2_1087" />
<path d="M68.2,455.7l786.4,0l0,-0.8l-786.4,0l0,0.8Z" class="g2_1087" />
<path d="M68.2,480.2l786.4,0l0,-0.8l-786.4,0l0,0.8Z" class="g2_1087" />
<path d="M68.2,504.5l786.4,0l0,-0.7l-786.4,0l0,0.7Z" class="g2_1087" />
<path d="M68.2,529l786.4,0l0,-0.7l-786.4,0l0,0.7Z" class="g2_1087" />
<path d="M68.2,553.5l786.4,0l0,-0.8l-786.4,0l0,0.8Z" class="g2_1087" />
<path d="M68.2,577.9l786.4,0l0,-0.8l-786.4,0l0,0.8Z" class="g2_1087" />
<path d="M68.2,602.3l786.4,0l0,-0.7l-786.4,0l0,0.7Z" class="g2_1087" />
<path d="M171.3,885.1l0.8,0l0,-133.1l-0.8,0l0,133.1Z" class="g2_1087" />
<path d="M750.7,885.1l0.7,0l0,-133.1l-0.7,0l0,133.1Z" class="g2_1087" />
<path d="M171.3,752l580.1,0l0,-0.7l-580.1,0l0,0.7Z" class="g2_1087" />
<path d="M171.3,885.9l580.1,0l0,-0.8l-580.1,0l0,0.8Z" class="g2_1087" />
<path d="M295.4,795.4l96.1,0l0,-27.5l-96.1,0l0,27.5Z" class="g1_1087" />
<path d="M295.4,768.3l96.5,0l0,-0.8l-96.5,0l0,0.8Z" class="g2_1087" />
<path d="M391.1,795.8l0.8,0l0,-27.9l-0.8,0l0,27.9Z" class="g2_1087" />
<path d="M295.1,795.8l96.4,0l0,-0.8l-96.4,0l0,0.8Z" class="g2_1087" />
<path d="M295.1,795.4l0.7,0l0,-27.9l-0.7,0l0,27.9Z" class="g2_1087" />
<path d="M391.5,795.4l96.1,0l0,-27.5l-96.1,0l0,27.5Z" class="g1_1087" />
<path d="M391.5,768.3l96.4,0l0,-0.8l-96.4,0l0,0.8Z" class="g2_1087" />
<path d="M487.2,795.8l0.7,0l0,-27.9l-0.7,0l0,27.9Z" class="g2_1087" />
<path d="M391.1,795.8l96.5,0l0,-0.8l-96.5,0l0,0.8Z" class="g2_1087" />
<path d="M391.1,795.4l0.8,0l0,-27.9l-0.8,0l0,27.9Z" class="g2_1087" />
<path d="M487.6,795.4l96,0l0,-27.5l-96,0l0,27.5Z" class="g1_1087" />
<path d="M487.6,768.3l96.4,0l0,-0.8l-96.4,0l0,0.8Z" class="g2_1087" />
<path d="M583.3,795.8l0.7,0l0,-27.9l-0.7,0l0,27.9Z" class="g2_1087" />
<path d="M487.2,795.8l96.4,0l0,-0.8l-96.4,0l0,0.8Z" class="g2_1087" />
<path d="M487.2,795.4l0.7,0l0,-27.9l-0.7,0l0,27.9Z" class="g2_1087" />
<path d="M583.6,767.9l96.2,0l0,27.5l-96.2,0Z" class="g1_1087" />
<path d="M583.6,768.3l96.6,0l0,-0.8l-96.6,0l0,0.8Z" class="g2_1087" />
<path d="M679.4,795.8l0.8,0l0,-27.9l-0.8,0l0,27.9Z" class="g2_1087" />
<path d="M583.3,795.8l96.5,0l0,-0.8l-96.5,0l0,0.8Z" class="g2_1087" />
<path d="M583.3,795.4l0.7,0l0,-27.9l-0.7,0l0,27.9Z" class="g2_1087" />
<path d="M294.5,876.3l96.1,0l0,-27.5l-96.1,0l0,27.5Z" class="g1_1087" />
<path d="M294.5,849.2l96.5,0l0,-0.7l-96.5,0l0,0.7Z" class="g2_1087" />
<path d="M390.2,876.7l0.8,0l0,-27.9l-0.8,0l0,27.9Z" class="g2_1087" />
<path d="M294.2,876.7l96.4,0l0,-0.7l-96.4,0l0,0.7Z" class="g2_1087" />
<path d="M294.2,876.3l0.7,0l0,-27.8l-0.7,0l0,27.8Z" class="g2_1087" />
<path d="M390.6,876.3l96.1,0l0,-27.5l-96.1,0l0,27.5Z" class="g1_1087" />
<path d="M390.6,849.2l96.4,0l0,-0.7l-96.4,0l0,0.7Z" class="g2_1087" />
<path d="M486.3,876.7l0.7,0l0,-27.9l-0.7,0l0,27.9Z" class="g2_1087" />
<path d="M390.2,876.7l96.5,0l0,-0.7l-96.5,0l0,0.7Z" class="g2_1087" />
<path d="M390.2,876.3l0.8,0l0,-27.8l-0.8,0l0,27.8Z" class="g2_1087" />
<path d="M486.7,876.3l96.1,0l0,-27.5l-96.1,0l0,27.5Z" class="g1_1087" />
<path d="M486.7,849.2l96.5,0l0,-0.7l-96.5,0l0,0.7Z" class="g2_1087" />
<path d="M582.4,876.7l0.8,0l0,-27.9l-0.8,0l0,27.9Z" class="g2_1087" />
<path d="M486.3,876.7l96.5,0l0,-0.7l-96.5,0l0,0.7Z" class="g2_1087" />
<path d="M486.3,876.3l0.7,0l0,-27.8l-0.7,0l0,27.8Z" class="g2_1087" />
<path d="M582.8,876.3l96.1,0l0,-27.5l-96.1,0l0,27.5Z" class="g1_1087" />
<path d="M582.8,849.2l96.5,0l0,-0.7l-96.5,0l0,0.7Z" class="g2_1087" />
<path d="M678.5,876.7l0.7,0l0,-27.9l-0.7,0l0,27.9Z" class="g2_1087" />
<path d="M582.4,876.7l96.5,0l0,-0.7l-96.5,0l0,0.7Z" class="g2_1087" />
<path d="M582.4,876.3l0.8,0l0,-27.8l-0.8,0l0,27.8Z" class="g2_1087" />
<path d="M601.2,839.2l0.7,0l0,-1.6l-0.7,0l0,1.6Z" class="g2_1087" />
<path d="M601.2,838.5l2.4,-0.9l1.5,-0.6l-0.5,1.6l-2.3,8.2l-0.8,2.6l-0.7,-2.6l-2.4,-8.2L597.9,837l1.5,0.6l0.5,0.5l2.4,8.3l-1.5,0.4l0,-0.4l2.4,-8.3l1.4,0.5l-0.4,0.4l-2.4,0.9Z" class="g2_1087" />
<path d="M599.4,837.6l2.4,0.9l0,1.4l-0.3,0.1l-0.3,-0.1L598.9,839Z" class="g2_1087" />
<path fill-rule="evenodd" d="M601.5,839.2l2.4,-0.9l-2.4,8.2l-2.4,-8.2Z" class="g2_1087" />
<path d="M640.5,818.6l0.7,0l0,-22.8l-0.7,0l0,22.8Z" class="g2_1087" />
<path d="M601.2,818.6l39.6,0l0,-0.7l-39.6,0l0,0.7Z" class="g2_1087" />
<path d="M601.2,837.9l0.7,0l0,-19.7l-0.7,0l0,19.7Z" class="g2_1087" />
<path d="M322.9,839.1l0.7,0l0,-1.6l-0.7,0l0,1.6Z" class="g2_1087" />
<path d="M322.9,838.4l2.3,-0.8l1.5,-0.7l-0.5,1.7l-2.2,8.1l-0.8,2.5l-0.7,-2.5l-2.4,-8.1L319.6,837l1.5,0.6l0.5,0.5l2.4,8.2l-1.5,0.4l0,-0.4l2.3,-8.2l1.4,0.5l-0.4,0.4l-2.3,0.9Z" class="g2_1087" />
<path d="M321.1,837.6l2.4,0.8l0,1.5l-0.3,0l-0.3,0L320.6,839Z" class="g2_1087" />
<path fill-rule="evenodd" d="M323.2,839.1l2.3,-0.8l-2.3,8.2l-2.4,-8.2Z" class="g2_1087" />
<path d="M362.1,818.5l0.7,0l0,-22.8l-0.7,0l0,22.8Z" class="g2_1087" />
<path d="M322.9,818.5l39.6,0l0,-0.7l-39.6,0l0,0.7Z" class="g2_1087" />
<path d="M322.9,837.8l0.7,0l0,-19.7l-0.7,0l0,19.7Z" class="g2_1087" />
<path d="M420.2,839l0.7,0l0,-1.5l-0.7,0l0,1.5Z" class="g2_1087" />
<path d="M420.3,838.3l2.3,-0.8l1.4,-0.7l-2.7,9.9l-0.7,2.6l-0.8,-2.6l-2.3,-8.2L417,836.9l1.5,0.6l0.4,0.5l2.4,8.3l-1.5,0.4l0,-0.4l2.3,-8.3l1.5,0.5l-0.5,0.4l-2.3,0.9Z" class="g2_1087" />
<path d="M418.5,837.5l2.3,0.8l0,1.5l-0.2,0.1l-0.3,-0.1l-2.4,-0.9Z" class="g2_1087" />
<path fill-rule="evenodd" d="M420.6,839l2.3,-0.8l-2.3,8.2l-2.4,-8.2Z" class="g2_1087" />
<path d="M459.4,818.4l0.8,0l0,-22.8l-0.8,0l0,22.8Z" class="g2_1087" />
<path d="M420.2,818.4l39.6,0l0,-0.7l-39.6,0l0,0.7Z" class="g2_1087" />
<path d="M420.2,837.8l0.7,0l0,-19.8l-0.7,0l0,19.8Z" class="g2_1087" />
<path d="M506.9,839.9l0.7,0l0,-1.7l-0.7,0l0,1.7Z" class="g2_1087" />
<path d="M507,839.1l2.3,-0.9l1.5,-0.6l-2.8,9.9l-0.7,2.5l-0.7,-2.5l-2.4,-8.3l-0.5,-1.5l1.5,0.5l0.4,0.6L508,847l-1.4,0.5l0,-0.5l2.2,-8.2l1.5,0.4l-0.5,0.5l-2.2,0.9Z" class="g2_1087" />
<path d="M505.2,838.2l2.4,0.9l0,1.5l-0.3,0.1L507,840.6l-2.4,-0.9Z" class="g2_1087" />
<path fill-rule="evenodd" d="M507.3,839.9l2.3,-1l-2.3,8.3l-2.4,-8.3Z" class="g2_1087" />
<path d="M546.2,819.2l0.7,0l0,-22.8l-0.7,0l0,22.8Z" class="g2_1087" />
<path d="M506.9,819.2l39.6,0l0,-0.7l-39.6,0l0,0.7Z" class="g2_1087" />
<path d="M506.9,838.6l0.7,0l0,-19.7l-0.7,0l0,19.7Z" class="g2_1087" />
</svg>