<?xml version="1.0" encoding="UTF-8" standalone="no"?>
<!DOCTYPE svg PUBLIC "-//W3C//DTD SVG 1.1//EN"
"http://www.w3.org/Graphics/SVG/1.1/DTD/svg11.dtd">
<svg viewBox="0 0 935 1210" version="1.1" xmlns="http://www.w3.org/2000/svg" xmlns:xlink="http://www.w3.org/1999/xlink">
<defs>
<style type="text/css"><![CDATA[
.g1_276{
fill: #FFFFFF;
}
.g2_276{
}
]]></style>
</defs>
<path d="M165,1149.3l687.5,0l0,-21.2l-687.5,0l0,21.2Z" class="g1_276" />
<path d="M68.8,1149.3l82.5,0l0,-21.2l-82.5,0l0,21.2Z" class="g1_276" />
<path d="M70.7,476.3l0.7,0L71.4,257l-0.7,0l0,219.3Z" class="g2_276" />
<path d="M469.3,477l0.8,0l0,-220.7l-0.8,0l0,220.7Z" class="g2_276" />
<path d="M849.8,476.3l0.7,0l0,-219.3l-0.7,0l0,219.3Z" class="g2_276" />
<path d="M70.7,257l779.8,0l0,-0.7l-779.8,0l0,0.7Z" class="g2_276" />
<path d="M70.7,281.5l779.8,0l0,-0.7l-779.8,0l0,0.7Z" class="g2_276" />
<path d="M70.7,305.9l779.8,0l0,-0.7l-779.8,0l0,0.7Z" class="g2_276" />
<path d="M70.7,330.4l779.8,0l0,-0.8l-779.8,0l0,0.8Z" class="g2_276" />
<path d="M70.7,354.8l779.8,0l0,-0.7l-779.8,0l0,0.7Z" class="g2_276" />
<path d="M70.7,379.2l779.8,0l0,-0.7l-779.8,0l0,0.7Z" class="g2_276" />
<path d="M70.7,403.7l779.8,0l0,-0.7L70.7,403l0,0.7Z" class="g2_276" />
<path d="M70.7,428.2l779.8,0l0,-0.8l-779.8,0l0,0.8Z" class="g2_276" />
<path d="M70.7,452.7l779.8,0l0,-0.8l-779.8,0l0,0.8Z" class="g2_276" />
<path d="M70.7,477l779.8,0l0,-0.7l-779.8,0l0,0.7Z" class="g2_276" />
<path d="M71.6,1078.3l0.7,0l0,-366l-0.7,0l0,366Z" class="g2_276" />
<path d="M469.8,1079l0.7,0l0,-367.4l-0.7,0l0,367.4Z" class="g2_276" />
<path d="M848.8,1078.3l0.8,0l0,-366l-0.8,0l0,366Z" class="g2_276" />
<path d="M71.6,712.3l778,0l0,-0.7l-778,0l0,0.7Z" class="g2_276" />
<path d="M71.6,736.8l778,0l0,-0.7l-778,0l0,0.7Z" class="g2_276" />
<path d="M71.6,761.2l778,0l0,-0.7l-778,0l0,0.7Z" class="g2_276" />
<path d="M71.6,785.7l778,0l0,-0.8l-778,0l0,0.8Z" class="g2_276" />
<path d="M71.6,810.2l778,0l0,-0.8l-778,0l0,0.8Z" class="g2_276" />
<path d="M71.6,834.5l778,0l0,-0.7l-778,0l0,0.7Z" class="g2_276" />
<path d="M71.6,859l778,0l0,-0.7l-778,0l0,0.7Z" class="g2_276" />
<path d="M71.6,883.5l778,0l0,-0.8l-778,0l0,0.8Z" class="g2_276" />
<path d="M71.6,907.9l778,0l0,-0.8l-778,0l0,0.8Z" class="g2_276" />
<path d="M71.6,934.3l778,0l0,-4.6l-778,0l0,4.6Z" class="g2_276" />
<path d="M71.6,956.8l778,0l0,-0.7l-778,0l0,0.7Z" class="g2_276" />
<path d="M71.6,981.2l778,0l0,-0.7l-778,0l0,0.7Z" class="g2_276" />
<path d="M71.6,1005.7l778,0l0,-0.8l-778,0l0,0.8Z" class="g2_276" />
<path d="M71.6,1030.2l778,0l0,-0.8l-778,0l0,0.8Z" class="g2_276" />
<path d="M71.6,1054.5l778,0l0,-0.7l-778,0l0,0.7Z" class="g2_276" />
<path d="M71.6,1079l778,0l0,-0.7l-778,0l0,0.7Z" class="g2_276" />
</svg>