<?xml version="1.0" encoding="UTF-8" standalone="no"?>
<!DOCTYPE svg PUBLIC "-//W3C//DTD SVG 1.1//EN"
"http://www.w3.org/Graphics/SVG/1.1/DTD/svg11.dtd">
<svg viewBox="0 0 935 1210" version="1.1" xmlns="http://www.w3.org/2000/svg" xmlns:xlink="http://www.w3.org/1999/xlink">
<defs>
<style type="text/css"><![CDATA[
.g1_304{
fill: #FFFFFF;
}
.g2_304{
}
]]></style>
</defs>
<path d="M165,1149.3l687.5,0l0,-21.2l-687.5,0l0,21.2Z" class="g1_304" />
<path d="M68.8,1149.3l82.5,0l0,-21.2l-82.5,0l0,21.2Z" class="g1_304" />
<path d="M70.8,1039.3l0.7,0l0,-915.4l-0.7,0l0,915.4Z" class="g2_304" />
<path d="M158,165.2l0.4,0l0,-41.6l-0.4,0l0,41.6Z" class="g2_304" />
<path d="M158,348.5l0.4,0l0,-159.4l-0.4,0l0,159.4Z" class="g2_304" />
<path d="M158,431l0.4,0l0,-58.4l-0.4,0l0,58.4Z" class="g2_304" />
<path d="M158,1039.8l0.4,0l0,-584.7l-0.4,0l0,584.7Z" class="g2_304" />
<path d="M849.7,1039.3l0.7,0l0,-915.4l-0.7,0l0,915.4Z" class="g2_304" />
<path d="M70.8,123.9l779.6,0l0,-0.3l-779.6,0l0,0.3Z" class="g2_304" />
<path d="M70.8,165.2l779.6,0l0,-0.4l-779.6,0l0,0.4Z" class="g2_304" />
<path d="M70.8,189.8l779.6,0l0,-0.7l-779.6,0l0,0.7Z" class="g2_304" />
<path d="M70.8,348.5l779.6,0l0,-0.3l-779.6,0l0,0.3Z" class="g2_304" />
<path d="M70.8,373l779.6,0l0,-0.4l-779.6,0l0,0.4Z" class="g2_304" />
<path d="M70.8,431l779.6,0l0,-0.3l-779.6,0l0,0.3Z" class="g2_304" />
<path d="M70.8,455.5l779.6,0l0,-0.4l-779.6,0l0,0.4Z" class="g2_304" />
<path d="M70.8,553.3l779.6,0l0,-0.4l-779.6,0l0,0.4Z" class="g2_304" />
<path d="M70.8,890.2l779.6,0l0,-0.8l-779.6,0l0,0.8Z" class="g2_304" />
<path d="M70.8,964.9l779.6,0l0,-0.4l-779.6,0l0,0.4Z" class="g2_304" />
<path d="M70.8,1039.7l779.6,0l0,-0.4l-779.6,0l0,0.4Z" class="g2_304" />
</svg>