<?xml version="1.0" encoding="UTF-8" standalone="no"?>
<!DOCTYPE svg PUBLIC "-//W3C//DTD SVG 1.1//EN"
"http://www.w3.org/Graphics/SVG/1.1/DTD/svg11.dtd">
<svg viewBox="0 0 935 1210" version="1.1" xmlns="http://www.w3.org/2000/svg" xmlns:xlink="http://www.w3.org/1999/xlink">
<defs>
<style type="text/css"><![CDATA[
.g1_957{
fill: #FFFFFF;
}
.g2_957{
}
]]></style>
</defs>
<path d="M68.9,1149.3l686.3,0l0,-21.2l-686.3,0l0,21.2Z" class="g1_957" />
<path d="M771.3,1149.3l83.7,0l0,-21.2l-83.7,0l0,21.2Z" class="g1_957" />
<path d="M69.9,424.3l0.8,0l0,-317l-0.8,0l0,317Z" class="g2_957" />
<path d="M322.3,425.2l0.7,0l0,-318.6l-0.7,0l0,318.6Z" class="g2_957" />
<path d="M369.5,425.2l0.7,0l0,-318.6l-0.7,0l0,318.6Z" class="g2_957" />
<path d="M443.9,425.2l0.8,0l0,-318.6l-0.8,0l0,318.6Z" class="g2_957" />
<path d="M531.7,425.2l0.7,0l0,-318.6l-0.7,0l0,318.6Z" class="g2_957" />
<path d="M852.5,424.3l0.7,0l0,-317l-0.7,0l0,317Z" class="g2_957" />
<path d="M69.9,107.3l783.3,0l0,-0.7l-783.3,0l0,0.7Z" class="g2_957" />
<path d="M69.9,157.8l783.3,0l0,-0.8L69.9,157l0,0.8Z" class="g2_957" />
<path d="M69.9,211.2l783.3,0l0,-0.7l-783.3,0l0,0.7Z" class="g2_957" />
<path d="M69.9,264.6l783.3,0l0,-0.7l-783.3,0l0,0.7Z" class="g2_957" />
<path d="M69.9,318.2l783.3,0l0,-0.8l-783.3,0l0,0.8Z" class="g2_957" />
<path d="M69.9,371.6l783.3,0l0,-0.7l-783.3,0l0,0.7Z" class="g2_957" />
<path d="M69.9,425.2l783.3,0l0,-0.8l-783.3,0l0,0.8Z" class="g2_957" />
<path d="M71.3,598.5l0.8,0L72.1,477l-0.8,0l0,121.5Z" class="g2_957" />
<path d="M180.4,599.3l0.7,0l0,-123l-0.7,0l0,123Z" class="g2_957" />
<path d="M346,599.3l0.8,0l0,-123l-0.8,0l0,123Z" class="g2_957" />
<path d="M512.7,599.3l0.7,0l0,-123l-0.7,0l0,123Z" class="g2_957" />
<path d="M684,599.3l0.8,0l0,-123l-0.8,0l0,123Z" class="g2_957" />
<path d="M850.7,598.5l0.7,0l0,-121.5l-0.7,0l0,121.5Z" class="g2_957" />
<path d="M71.3,477l780.1,0l0,-0.7l-780.1,0l0,0.7Z" class="g2_957" />
<path d="M71.3,501.5l780.1,0l0,-0.7l-780.1,0l0,0.7Z" class="g2_957" />
<path d="M71.3,526l780.1,0l0,-0.8l-780.1,0l0,0.8Z" class="g2_957" />
<path d="M71.3,550.4l780.1,0l0,-0.8l-780.1,0l0,0.8Z" class="g2_957" />
<path d="M71.3,574.8l780.1,0l0,-0.7l-780.1,0l0,0.7Z" class="g2_957" />
<path d="M71.3,599.3l780.1,0l0,-0.7l-780.1,0l0,0.7Z" class="g2_957" />
</svg>