<?xml version="1.0" encoding="UTF-8" standalone="no"?>
<!DOCTYPE svg PUBLIC "-//W3C//DTD SVG 1.1//EN"
"http://www.w3.org/Graphics/SVG/1.1/DTD/svg11.dtd">
<svg viewBox="0 0 935 1210" version="1.1" xmlns="http://www.w3.org/2000/svg" xmlns:xlink="http://www.w3.org/1999/xlink">
<defs>
<style type="text/css"><![CDATA[
.g1_1688{
fill: #FFFFFF;
}
.g2_1688{
}
]]></style>
</defs>
<path d="M165,1149.3l687.5,0l0,-21.2l-687.5,0l0,21.2Z" class="g1_1688" />
<path d="M68.8,1149.3l82.5,0l0,-21.2l-82.5,0l0,21.2Z" class="g1_1688" />
<path d="M68.6,621.4l0.7,0l0,-514.1l-0.7,0l0,514.1Z" class="g2_1688" />
<path d="M358.9,622.2l0.7,0l0,-515.6l-0.7,0l0,515.6Z" class="g2_1688" />
<path d="M403.5,622.2l0.8,0l0,-515.6l-0.8,0l0,515.6Z" class="g2_1688" />
<path d="M478,622.2l0.8,0l0,-515.6l-0.8,0l0,515.6Z" class="g2_1688" />
<path d="M565.6,622.2l0.7,0l0,-515.6l-0.7,0l0,515.6Z" class="g2_1688" />
<path d="M854.6,621.4l0.7,0l0,-514.1l-0.7,0l0,514.1Z" class="g2_1688" />
<path d="M68.6,107.3l786.7,0l0,-0.7l-786.7,0l0,0.7Z" class="g2_1688" />
<path d="M68.6,157.8l786.7,0l0,-0.8L68.6,157l0,0.8Z" class="g2_1688" />
<path d="M68.6,211.2l786.7,0l0,-0.7l-786.7,0l0,0.7Z" class="g2_1688" />
<path d="M68.6,264.6l786.7,0l0,-0.7l-786.7,0l0,0.7Z" class="g2_1688" />
<path d="M68.6,301.3l786.7,0l0,-0.7l-786.7,0l0,0.7Z" class="g2_1688" />
<path d="M68.6,354.8l786.7,0l0,-0.7l-786.7,0l0,0.7Z" class="g2_1688" />
<path d="M68.6,408.3l786.7,0l0,-0.8l-786.7,0l0,0.8Z" class="g2_1688" />
<path d="M68.6,461.8l786.7,0l0,-0.7l-786.7,0l0,0.7Z" class="g2_1688" />
<path d="M68.6,515.3l786.7,0l0,-0.8l-786.7,0l0,0.8Z" class="g2_1688" />
<path d="M68.6,568.7l786.7,0l0,-0.7L68.6,568l0,0.7Z" class="g2_1688" />
<path d="M68.6,622.2l786.7,0l0,-0.7l-786.7,0l0,0.7Z" class="g2_1688" />
<path d="M68,746.7l0.8,0l0,-72.6l-0.8,0l0,72.6Z" class="g2_1688" />
<path d="M187.6,747.4l0.8,0l0,-74l-0.8,0l0,74Z" class="g2_1688" />
<path d="M352.4,747.4l0.7,0l0,-74l-0.7,0l0,74Z" class="g2_1688" />
<path d="M525.1,747.4l0.7,0l0,-74l-0.7,0l0,74Z" class="g2_1688" />
<path d="M687.2,747.4l0.8,0l0,-74l-0.8,0l0,74Z" class="g2_1688" />
<path d="M852.4,746.7l0.7,0l0,-72.6l-0.7,0l0,72.6Z" class="g2_1688" />
<path d="M68,674.1l785.1,0l0,-0.7L68,673.4l0,0.7Z" class="g2_1688" />
<path d="M68,698.6l785.1,0l0,-0.7L68,697.9l0,0.7Z" class="g2_1688" />
<path d="M68,723.1l785.1,0l0,-0.8L68,722.3l0,0.8Z" class="g2_1688" />
<path d="M68,747.4l785.1,0l0,-0.7L68,746.7l0,0.7Z" class="g2_1688" />
</svg>