<?xml version="1.0" encoding="UTF-8" standalone="no"?>
<!DOCTYPE svg PUBLIC "-//W3C//DTD SVG 1.1//EN"
"http://www.w3.org/Graphics/SVG/1.1/DTD/svg11.dtd">
<svg viewBox="0 0 935 1210" version="1.1" xmlns="http://www.w3.org/2000/svg" xmlns:xlink="http://www.w3.org/1999/xlink">
<defs>
<style type="text/css"><![CDATA[
.g1_285{
fill: #FFFFFF;
}
.g2_285{
}
]]></style>
</defs>
<path d="M68.9,1149.3l686.3,0l0,-21.2l-686.3,0l0,21.2Z" class="g1_285" />
<path d="M771.3,1149.3l83.7,0l0,-21.2l-83.7,0l0,21.2Z" class="g1_285" />
<path d="M69.9,263.9l0.7,0l0,-138.2l-0.7,0l0,138.2Z" class="g2_285" />
<path d="M301.6,264.7l0.7,0l0,-139.8l-0.7,0l0,139.8Z" class="g2_285" />
<path d="M339.4,264.7l0.8,0l0,-139.8l-0.8,0l0,139.8Z" class="g2_285" />
<path d="M412.9,264.7l0.7,0l0,-139.8l-0.7,0l0,139.8Z" class="g2_285" />
<path d="M484.2,264.7l0.7,0l0,-139.8l-0.7,0l0,139.8Z" class="g2_285" />
<path d="M852.1,263.9l0.8,0l0,-138.2l-0.8,0l0,138.2Z" class="g2_285" />
<path d="M69.9,125.7l783,0l0,-0.8l-783,0l0,0.8Z" class="g2_285" />
<path d="M69.9,163.8l783,0l0,-0.7l-783,0l0,0.7Z" class="g2_285" />
<path d="M69.9,208.2l783,0l0,-0.8l-783,0l0,0.8Z" class="g2_285" />
<path d="M69.9,264.6l783,0l0,-0.7l-783,0l0,0.7Z" class="g2_285" />
<path d="M71,407.6l0.8,0l0,-48.2l-0.8,0l0,48.2Z" class="g2_285" />
<path d="M135.5,408.3l0.7,0l0,-49.6l-0.7,0l0,49.6Z" class="g2_285" />
<path d="M320.7,408.3l0.7,0l0,-49.6l-0.7,0l0,49.6Z" class="g2_285" />
<path d="M494.9,408.3l0.7,0l0,-49.6l-0.7,0l0,49.6Z" class="g2_285" />
<path d="M665.1,408.3l0.8,0l0,-49.6l-0.8,0l0,49.6Z" class="g2_285" />
<path d="M850.9,407.6l0.8,0l0,-48.2l-0.8,0l0,48.2Z" class="g2_285" />
<path d="M71,359.4l780.7,0l0,-0.7L71,358.7l0,0.7Z" class="g2_285" />
<path d="M71,383.8l780.7,0l0,-0.7L71,383.1l0,0.7Z" class="g2_285" />
<path d="M71,408.3l780.7,0l0,-0.8L71,407.5l0,0.8Z" class="g2_285" />
</svg>