<?xml version="1.0" encoding="UTF-8" standalone="no"?>
<!DOCTYPE svg PUBLIC "-//W3C//DTD SVG 1.1//EN"
"http://www.w3.org/Graphics/SVG/1.1/DTD/svg11.dtd">
<svg viewBox="0 0 935 1210" version="1.1" xmlns="http://www.w3.org/2000/svg" xmlns:xlink="http://www.w3.org/1999/xlink">
<defs>
<style type="text/css"><![CDATA[
.g1_1782{
fill: #FFFFFF;
}
.g2_1782{
}
]]></style>
</defs>
<path d="M165,1149.3l687.5,0l0,-21.2l-687.5,0l0,21.2Z" class="g1_1782" />
<path d="M68.8,1149.3l82.5,0l0,-21.2l-82.5,0l0,21.2Z" class="g1_1782" />
<path d="M68.6,656.6l0.7,0l0,-530.9l-0.7,0l0,530.9Z" class="g2_1782" />
<path d="M311.1,657.3l0.7,0l0,-532.4l-0.7,0l0,532.4Z" class="g2_1782" />
<path d="M360.3,657.3l0.8,0l0,-532.4l-0.8,0l0,532.4Z" class="g2_1782" />
<path d="M432.6,657.3l0.7,0l0,-532.4l-0.7,0l0,532.4Z" class="g2_1782" />
<path d="M522,657.3l0.7,0l0,-532.4l-0.7,0l0,532.4Z" class="g2_1782" />
<path d="M849.7,656.6l0.7,0l0,-530.9l-0.7,0l0,530.9Z" class="g2_1782" />
<path d="M68.6,125.7l781.8,0l0,-0.8l-781.8,0l0,0.8Z" class="g2_1782" />
<path d="M68.6,176.1l781.8,0l0,-0.7l-781.8,0l0,0.7Z" class="g2_1782" />
<path d="M68.6,229.5l781.8,0l0,-0.7l-781.8,0l0,0.7Z" class="g2_1782" />
<path d="M68.6,283l781.8,0l0,-0.8l-781.8,0l0,0.8Z" class="g2_1782" />
<path d="M68.6,336.5l781.8,0l0,-0.7l-781.8,0l0,0.7Z" class="g2_1782" />
<path d="M68.6,389.9l781.8,0l0,-0.7l-781.8,0l0,0.7Z" class="g2_1782" />
<path d="M68.6,443.5l781.8,0l0,-0.8l-781.8,0l0,0.8Z" class="g2_1782" />
<path d="M68.6,496.9l781.8,0l0,-0.7l-781.8,0l0,0.7Z" class="g2_1782" />
<path d="M68.6,550.4l781.8,0l0,-0.8l-781.8,0l0,0.8Z" class="g2_1782" />
<path d="M68.6,603.9l781.8,0l0,-0.7l-781.8,0l0,0.7Z" class="g2_1782" />
<path d="M68.6,657.3l781.8,0l0,-0.7l-781.8,0l0,0.7Z" class="g2_1782" />
<path d="M66.7,760.5l0.8,0l0,-48.2l-0.8,0l0,48.2Z" class="g2_1782" />
<path d="M212.8,761.2l0.7,0l0,-49.6l-0.7,0l0,49.6Z" class="g2_1782" />
<path d="M360.3,761.2l0.7,0l0,-49.6l-0.7,0l0,49.6Z" class="g2_1782" />
<path d="M570.4,761.2l0.8,0l0,-49.6l-0.8,0l0,49.6Z" class="g2_1782" />
<path d="M719.5,761.2l0.7,0l0,-49.6l-0.7,0l0,49.6Z" class="g2_1782" />
<path d="M853.7,760.5l0.7,0l0,-48.2l-0.7,0l0,48.2Z" class="g2_1782" />
<path d="M66.7,712.3l787.7,0l0,-0.7l-787.7,0l0,0.7Z" class="g2_1782" />
<path d="M66.7,736.8l787.7,0l0,-0.7l-787.7,0l0,0.7Z" class="g2_1782" />
<path d="M66.7,761.2l787.7,0l0,-0.7l-787.7,0l0,0.7Z" class="g2_1782" />
</svg>