<?xml version="1.0" encoding="UTF-8" standalone="no"?>
<!DOCTYPE svg PUBLIC "-//W3C//DTD SVG 1.1//EN"
"http://www.w3.org/Graphics/SVG/1.1/DTD/svg11.dtd">
<svg viewBox="0 0 935 1210" version="1.1" xmlns="http://www.w3.org/2000/svg" xmlns:xlink="http://www.w3.org/1999/xlink">
<defs>
<style type="text/css"><![CDATA[
.g1_307{
fill: #FFFFFF;
}
.g2_307{
}
]]></style>
</defs>
<path d="M68.9,1149.3l686.3,0l0,-21.2l-686.3,0l0,21.2Z" class="g1_307" />
<path d="M771.3,1149.3l83.7,0l0,-21.2l-83.7,0l0,21.2Z" class="g1_307" />
<path d="M71.7,238l0.7,0l0,-113.9l-0.7,0l0,113.9Z" class="g2_307" />
<path d="M461,238.7l0.7,0l0,-115.3l-0.7,0l0,115.3Z" class="g2_307" />
<path d="M850.4,238l0.7,0l0,-113.9l-0.7,0l0,113.9Z" class="g2_307" />
<path d="M71.6,124.1l779.5,0l0,-0.7l-779.5,0l0,0.7Z" class="g2_307" />
<path d="M71.6,147l779.5,0l0,-0.7l-779.5,0l0,0.7Z" class="g2_307" />
<path d="M71.6,169.9l779.5,0l0,-0.7l-779.5,0l0,0.7Z" class="g2_307" />
<path d="M71.6,192.9l779.5,0l0,-0.8l-779.5,0l0,0.8Z" class="g2_307" />
<path d="M71.6,215.8l779.5,0l0,-0.8L71.6,215l0,0.8Z" class="g2_307" />
<path d="M71.6,238.7l779.5,0l0,-0.7L71.6,238l0,0.7Z" class="g2_307" />
</svg>