<?xml version="1.0" encoding="UTF-8" standalone="no"?>
<!DOCTYPE svg PUBLIC "-//W3C//DTD SVG 1.1//EN"
"http://www.w3.org/Graphics/SVG/1.1/DTD/svg11.dtd">
<svg viewBox="0 0 935 1210" version="1.1" xmlns="http://www.w3.org/2000/svg" xmlns:xlink="http://www.w3.org/1999/xlink">
<defs>
<style type="text/css"><![CDATA[
.g1_251{
fill: #FFFFFF;
}
.g2_251{
}
]]></style>
</defs>
<path d="M68.9,1149.3l686.3,0l0,-21.2l-686.3,0l0,21.2Z" class="g1_251" />
<path d="M771.3,1149.3l83.7,0l0,-21.2l-83.7,0l0,21.2Z" class="g1_251" />
<path d="M70.9,1085.9l0.8,0l0,-954.1l-0.8,0l0,954.1Z" class="g2_251" />
<path d="M217.7,1086.7l0.7,0l0,-955.7l-0.7,0l0,955.7Z" class="g2_251" />
<path d="M401.2,1086.7l0.8,0L402,131l-0.8,0l0,955.7Z" class="g2_251" />
<path d="M439,1086.7l0.7,0l0,-955.7l-0.7,0l0,955.7Z" class="g2_251" />
<path d="M503.6,1086.7l0.7,0l0,-955.7l-0.7,0l0,955.7Z" class="g2_251" />
<path d="M575,1086.7l0.8,0l0,-955.7l-0.8,0l0,955.7Z" class="g2_251" />
<path d="M851,1085.9l0.8,0l0,-954.1l-0.8,0l0,954.1Z" class="g2_251" />
<path d="M70.9,131.7l780.9,0l0,-0.7L70.9,131l0,0.7Z" class="g2_251" />
<path d="M70.9,169.9l780.9,0l0,-0.7l-780.9,0l0,0.7Z" class="g2_251" />
<path d="M70.9,192.9l780.9,0l0,-0.8l-780.9,0l0,0.8Z" class="g2_251" />
<path d="M70.9,215.8l780.9,0l0,-0.8L70.9,215l0,0.8Z" class="g2_251" />
<path d="M70.9,238.7l780.9,0l0,-0.7L70.9,238l0,0.7Z" class="g2_251" />
<path d="M70.9,261.6l780.9,0l0,-0.7l-780.9,0l0,0.7Z" class="g2_251" />
<path d="M70.9,284.5l780.9,0l0,-0.7l-780.9,0l0,0.7Z" class="g2_251" />
<path d="M70.9,307.4l780.9,0l0,-0.7l-780.9,0l0,0.7Z" class="g2_251" />
<path d="M70.9,330.4l780.9,0l0,-0.8l-780.9,0l0,0.8Z" class="g2_251" />
<path d="M70.9,353.3l780.9,0l0,-0.7l-780.9,0l0,0.7Z" class="g2_251" />
<path d="M70.9,376.2l780.9,0l0,-0.7l-780.9,0l0,0.7Z" class="g2_251" />
<path d="M70.9,399.1l780.9,0l0,-0.7l-780.9,0l0,0.7Z" class="g2_251" />
<path d="M70.9,422l780.9,0l0,-0.7l-780.9,0l0,0.7Z" class="g2_251" />
<path d="M70.9,444.9l780.9,0l0,-0.7l-780.9,0l0,0.7Z" class="g2_251" />
<path d="M70.9,467.9l780.9,0l0,-0.8l-780.9,0l0,0.8Z" class="g2_251" />
<path d="M70.9,490.8l780.9,0l0,-0.8L70.9,490l0,0.8Z" class="g2_251" />
<path d="M70.9,513.7l780.9,0l0,-0.7L70.9,513l0,0.7Z" class="g2_251" />
<path d="M70.9,536.6l780.9,0l0,-0.7l-780.9,0l0,0.7Z" class="g2_251" />
<path d="M70.9,559.5l780.9,0l0,-0.7l-780.9,0l0,0.7Z" class="g2_251" />
<path d="M70.9,582.4l780.9,0l0,-0.7l-780.9,0l0,0.7Z" class="g2_251" />
<path d="M70.9,605.4l780.9,0l0,-0.8l-780.9,0l0,0.8Z" class="g2_251" />
<path d="M70.9,628.3l780.9,0l0,-0.7l-780.9,0l0,0.7Z" class="g2_251" />
<path d="M70.9,651.2l780.9,0l0,-0.7l-780.9,0l0,0.7Z" class="g2_251" />
<path d="M70.9,674.1l780.9,0l0,-0.7l-780.9,0l0,0.7Z" class="g2_251" />
<path d="M70.9,697l780.9,0l0,-0.7l-780.9,0l0,0.7Z" class="g2_251" />
<path d="M70.9,719.9l780.9,0l0,-0.7l-780.9,0l0,0.7Z" class="g2_251" />
<path d="M70.9,742.9l780.9,0l0,-0.8l-780.9,0l0,0.8Z" class="g2_251" />
<path d="M70.9,765.8l780.9,0l0,-0.7l-780.9,0l0,0.7Z" class="g2_251" />
<path d="M70.9,788.7l780.9,0l0,-0.7L70.9,788l0,0.7Z" class="g2_251" />
<path d="M70.9,811.6l780.9,0l0,-0.7l-780.9,0l0,0.7Z" class="g2_251" />
<path d="M70.9,834.5l780.9,0l0,-0.7l-780.9,0l0,0.7Z" class="g2_251" />
<path d="M70.9,857.5l780.9,0l0,-0.8l-780.9,0l0,0.8Z" class="g2_251" />
<path d="M70.9,880.4l780.9,0l0,-0.8l-780.9,0l0,0.8Z" class="g2_251" />
<path d="M70.9,903.3l780.9,0l0,-0.7l-780.9,0l0,0.7Z" class="g2_251" />
<path d="M70.9,926.2l780.9,0l0,-0.7l-780.9,0l0,0.7Z" class="g2_251" />
<path d="M70.9,949.1l780.9,0l0,-0.7l-780.9,0l0,0.7Z" class="g2_251" />
<path d="M70.9,972l780.9,0l0,-0.7l-780.9,0l0,0.7Z" class="g2_251" />
<path d="M70.9,995l780.9,0l0,-0.8l-780.9,0l0,0.8Z" class="g2_251" />
<path d="M70.9,1017.9l780.9,0l0,-0.8l-780.9,0l0,0.8Z" class="g2_251" />
<path d="M70.9,1040.8l780.9,0l0,-0.8l-780.9,0l0,0.8Z" class="g2_251" />
<path d="M70.9,1063.7l780.9,0l0,-0.7l-780.9,0l0,0.7Z" class="g2_251" />
<path d="M70.9,1086.6l780.9,0l0,-0.7l-780.9,0l0,0.7Z" class="g2_251" />
</svg>