<?xml version="1.0" encoding="UTF-8" standalone="no"?>
<!DOCTYPE svg PUBLIC "-//W3C//DTD SVG 1.1//EN"
"http://www.w3.org/Graphics/SVG/1.1/DTD/svg11.dtd">
<svg viewBox="0 0 935 1210" version="1.1" xmlns="http://www.w3.org/2000/svg" xmlns:xlink="http://www.w3.org/1999/xlink">
<defs>
<style type="text/css"><![CDATA[
.g1_1889{
fill: #FFFFFF;
}
.g2_1889{
fill: #0860A8;
}
.g3_1889{
}
]]></style>
</defs>
<path d="M68.9,1149.3l686.3,0l0,-21.2l-686.3,0l0,21.2Z" class="g1_1889" />
<path d="M771.3,1149.3l83.7,0l0,-21.2l-83.7,0l0,21.2Z" class="g1_1889" />
<path d="M544.9,658.6l262.7,0l0,-0.8l-262.7,0l0,0.8Z" class="g2_1889" />
<path d="M70.3,675.4l738.9,0l0,-0.8l-738.9,0l0,0.8Z" class="g2_1889" />
<path d="M69.9,267l0.8,0l0,-120l-0.8,0l0,120Z" class="g3_1889" />
<path d="M275.6,267.8l0.8,0l0,-121.5l-0.8,0l0,121.5Z" class="g3_1889" />
<path d="M320.4,267.8l0.7,0l0,-121.5l-0.7,0l0,121.5Z" class="g3_1889" />
<path d="M394.8,267.8l0.7,0l0,-121.5l-0.7,0l0,121.5Z" class="g3_1889" />
<path d="M480.8,267.8l0.7,0l0,-121.5l-0.7,0l0,121.5Z" class="g3_1889" />
<path d="M850.7,267l0.7,0l0,-120l-0.7,0l0,120Z" class="g3_1889" />
<path d="M69.9,147l781.5,0l0,-0.7l-781.5,0l0,0.7Z" class="g3_1889" />
<path d="M69.9,197.4l781.5,0l0,-0.7l-781.5,0l0,0.7Z" class="g3_1889" />
<path d="M69.9,267.8l781.5,0l0,-0.8L69.9,267l0,0.8Z" class="g3_1889" />
<path d="M69.9,370.9l0.7,0l0,-48.1l-0.7,0l0,48.1Z" class="g3_1889" />
<path d="M159,371.6l0.7,0l0,-49.6l-0.7,0l0,49.6Z" class="g3_1889" />
<path d="M321.1,371.6l0.7,0l0,-49.6l-0.7,0l0,49.6Z" class="g3_1889" />
<path d="M498.2,371.6l0.7,0l0,-49.6l-0.7,0l0,49.6Z" class="g3_1889" />
<path d="M671.4,371.6l0.7,0l0,-49.6l-0.7,0l0,49.6Z" class="g3_1889" />
<path d="M852.1,370.9l0.8,0l0,-48.1l-0.8,0l0,48.1Z" class="g3_1889" />
<path d="M69.9,322.8l783,0l0,-0.8l-783,0l0,0.8Z" class="g3_1889" />
<path d="M69.9,347.1l783,0l0,-0.7l-783,0l0,0.7Z" class="g3_1889" />
<path d="M69.9,371.6l783,0l0,-0.7l-783,0l0,0.7Z" class="g3_1889" />
</svg>