<?xml version="1.0" encoding="UTF-8" standalone="no"?>
<!DOCTYPE svg PUBLIC "-//W3C//DTD SVG 1.1//EN"
"http://www.w3.org/Graphics/SVG/1.1/DTD/svg11.dtd">
<svg viewBox="0 0 935 1210" version="1.1" xmlns="http://www.w3.org/2000/svg" xmlns:xlink="http://www.w3.org/1999/xlink">
<defs>
<style type="text/css"><![CDATA[
.g1_331{
fill: #FFFFFF;
}
.g2_331{
}
]]></style>
</defs>
<path d="M68.9,1149.3l686.3,0l0,-21.2l-686.3,0l0,21.2Z" class="g1_331" />
<path d="M771.3,1149.3l83.7,0l0,-21.2l-83.7,0l0,21.2Z" class="g1_331" />
<path d="M158.5,303.6l0.7,0l0,-179.5l-0.7,0l0,179.5Z" class="g2_331" />
<path d="M763.5,303.6l0.7,0l0,-179.5l-0.7,0l0,179.5Z" class="g2_331" />
<path d="M158.5,124.1l605.7,0l0,-0.7l-605.7,0l0,0.7Z" class="g2_331" />
<path d="M158.5,304.3l605.7,0l0,-0.7l-605.7,0l0,0.7Z" class="g2_331" />
<path fill-rule="evenodd" d="M333.6,252l0.1,0.3l0.1,0.1l0.6,0.4l0.3,0.1l0.5,0l0.3,-0.1l0.3,-0.2c0.6,-0.3,0.5,-0.6,0.7,-1.2l-0.1,-0.3l-0.2,-0.6L336,250.3L335.5,250l-0.3,-0.1l-0.5,0l-0.3,0.1c-0.8,0.5,-0.6,0.2,-0.9,1.1l-0.1,0.3l0.1,0.3l0.1,0.3Z" class="g2_331" />
<path d="M334.9,251.4l2.4,6.1l0.4,1l-1,0.1L313,261.2l-2.6,0.2l2.1,-1.6L331.2,245l0.8,-0.6l0.4,0.9l-0.2,0.9L313.5,261l-1,-1.2l0.4,-0.2L336.6,257l0.1,1.6L336,258l-2.5,-6Z" class="g2_331" />
<path d="M332.4,245.3l2.5,6.1l-1.4,0.6L331,245.8Z" class="g2_331" />
<path fill-rule="evenodd" d="M334.2,251.7l2.5,6.1L313,260.3l18.7,-14.7Z" class="g2_331" />
<path d="M512.2,180.4L511,177.6L334.4,250l1.2,2.8Z" class="g2_331" />
<path d="M656,178.9l56.7,0l0,-20.6l-56.7,0l0,20.6Z" class="g1_331" />
<path d="M656,158.7l57.1,0l0,-0.8l-57.1,0l0,0.8Z" class="g2_331" />
<path d="M712.3,179.3l0.8,0l0,-21l-0.8,0l0,21Z" class="g2_331" />
<path d="M655.6,179.3l57.1,0l0,-0.7l-57.1,0l0,0.7Z" class="g2_331" />
<path d="M655.6,178.9l0.7,0l0,-21l-0.7,0l0,21Z" class="g2_331" />
<path fill-rule="evenodd" d="M659.5,238.1l0.3,0.1l0.4,0c1.5,-0.3,2,-1.9,0.7,-2.8l-0.3,-0.2l-0.2,-0.1c-1.5,-0.2,-2.5,1.8,-1.3,2.7l0.2,0.2l0.2,0.1Z" class="g2_331" />
<path d="M660.1,236.8l6.1,2.3l0.9,0.3l-0.6,0.9l-14.2,19.1l-1.6,2.1l0.2,-2.6l2,-23.8l0.1,-1l1,0.4l0.4,0.7L652.5,259l-1.6,-0.1l0.2,-0.5l14.2,-19.2l1.2,1.1l-0.8,0.1l-6.2,-2.2Z" class="g2_331" />
<path d="M654,234.5l6.1,2.3l-0.6,1.4l-6.1,-2.3Z" class="g2_331" />
<path fill-rule="evenodd" d="M659.8,237.4l6.2,2.3l-14.2,19.2l1.9,-23.8Z" class="g2_331" />
<path d="M683.2,179.5l-2.8,-1.1l-21.7,57.7l2.9,1.1Z" class="g2_331" />
<path fill-rule="evenodd" d="M560.2,243.8l0.2,0.2l0.2,0.1c1.4,0.7,2.8,-1.1,1.9,-2.2l-0.2,-0.3l-0.2,-0.2l-0.5,-0.1l-0.4,-0.1l-0.8,0.2l-0.2,0.2c-0.5,0.8,-0.5,0.5,-0.5,1.4l0.1,0.3l0.4,0.5Z" class="g2_331" />
<path d="M561.3,242.7l4.6,4.7l0.6,0.8l-21.6,12l-2.4,1.3l1.3,-2.4l11.5,-20.9l0.6,-0.8l0.7,0.7l0.1,0.9l-11.6,20.9l-1.3,-0.8l0.3,-0.2l20.8,-11.6l0.8,1.4l-0.9,-0.2l-4.6,-4.7Z" class="g2_331" />
<path d="M556.6,238.1l4.7,4.6l-1.1,1.1l-4.7,-4.6Z" class="g2_331" />
<path fill-rule="evenodd" d="M560.7,243.3l4.6,4.7l-20.8,11.5L556,238.6Z" class="g2_331" />
<path d="M626.2,180l-2.1,-2.1l-63.9,63.8l2.1,2.1Z" class="g2_331" />
<path fill-rule="evenodd" d="M450.5,248.7l0.2,0.3l0.2,0.2c1.1,1,2.9,-0.4,2.4,-1.8l-0.2,-0.3L452.9,247c-0.8,-1.3,-2.9,-0.2,-2.5,1.1l0,0.3l0.1,0.3Z" class="g2_331" />
<path d="M451.8,248l3.3,5.6l0.5,1l-1,0.1l-22.9,6l-2.7,0.7l1.8,-1.9l16.3,-17.2l0.8,-0.9l0.5,1l-0.1,0.9L432,260.5l-1.2,-1l0.5,-0.3l23,-5.9l0.3,1.4l-0.8,-0.2l-3.4,-5.7Z" class="g2_331" />
<path d="M448.4,242.4l3.4,5.6l-1.4,0.8l-3.3,-5.6Z" class="g2_331" />
<path fill-rule="evenodd" d="M451.2,248.3l3.3,5.7l-23,6l16.3,-17.3Z" class="g2_331" />
<path d="M569.2,180.2l-1.6,-2.5l-116.5,69l1.6,2.5Z" class="g2_331" />
<path d="M599.2,178.9l56.8,0l0,-20.6l-56.8,0l0,20.6Z" class="g1_331" />
<path d="M599.2,158.7l57.1,0l0,-0.8l-57.1,0l0,0.8Z" class="g2_331" />
<path d="M655.6,179.3l0.7,0l0,-21l-0.7,0l0,21Z" class="g2_331" />
<path d="M598.9,179.3l57.1,0l0,-0.7l-57.1,0l0,0.7Z" class="g2_331" />
<path d="M598.9,178.9l0.7,0l0,-21l-0.7,0l0,21Z" class="g2_331" />
<path d="M542.6,178.9l56.6,0l0,-20.6l-56.6,0l0,20.6Z" class="g1_331" />
<path d="M542.6,158.7l57,0l0,-0.8l-57,0l0,0.8Z" class="g2_331" />
<path d="M598.9,179.3l0.7,0l0,-21l-0.7,0l0,21Z" class="g2_331" />
<path d="M542.2,179.3l57,0l0,-0.7l-57,0l0,0.7Z" class="g2_331" />
<path d="M542.2,178.9l0.7,0l0,-21l-0.7,0l0,21Z" class="g2_331" />
<path d="M483.5,178.9l59.1,0l0,-21.1l-59.1,0l0,21.1Z" class="g1_331" />
<path d="M483.5,158.1l59.4,0l0,-0.7l-59.4,0l0,0.7Z" class="g2_331" />
<path d="M542.2,179.3l0.7,0l0,-21.5l-0.7,0l0,21.5Z" class="g2_331" />
<path d="M483.2,179.3l59.4,0l0,-0.7l-59.4,0l0,0.7Z" class="g2_331" />
<path d="M483.2,178.9l0.7,0l0,-21.5l-0.7,0l0,21.5Z" class="g2_331" />
<path d="M598.4,282.1l113.4,0l0,-20.7l-113.4,0l0,20.7Z" class="g1_331" />
<path d="M598.4,261.8l113.8,0l0,-0.7l-113.8,0l0,0.7Z" class="g2_331" />
<path d="M711.4,282.4l0.8,0l0,-21l-0.8,0l0,21Z" class="g2_331" />
<path d="M598,282.4l113.8,0l0,-0.7l-113.8,0l0,0.7Z" class="g2_331" />
<path d="M598,282.1l0.8,0l0,-21l-0.8,0l0,21Z" class="g2_331" />
<path d="M258,282.1l113.5,0l0,-20.7l-113.5,0l0,20.7Z" class="g1_331" />
<path d="M258,261.8l113.9,0l0,-0.7l-113.9,0l0,0.7Z" class="g2_331" />
<path d="M371.2,282.4l0.7,0l0,-21l-0.7,0l0,21Z" class="g2_331" />
<path d="M257.7,282.4l113.8,0l0,-0.7l-113.8,0l0,0.7Z" class="g2_331" />
<path d="M257.7,282.1l0.7,0l0,-21l-0.7,0l0,21Z" class="g2_331" />
<path d="M356.5,282.1l128.4,0l0,-20.7l-128.4,0l0,20.7Z" class="g1_331" />
<path d="M356.5,261.8l128.8,0l0,-0.7l-128.8,0l0,0.7Z" class="g2_331" />
<path d="M484.6,282.4l0.7,0l0,-21l-0.7,0l0,21Z" class="g2_331" />
<path d="M356.1,282.4l128.8,0l0,-0.7l-128.8,0l0,0.7Z" class="g2_331" />
<path d="M356.1,282.1l0.8,0l0,-21l-0.8,0l0,21Z" class="g2_331" />
<path d="M484.9,282.1l113.5,0l0,-20.7l-113.5,0l0,20.7Z" class="g1_331" />
<path d="M484.9,261.8l113.9,0l0,-0.7l-113.9,0l0,0.7Z" class="g2_331" />
<path d="M598,282.4l0.8,0l0,-21l-0.8,0l0,21Z" class="g2_331" />
<path d="M484.6,282.4l113.8,0l0,-0.7l-113.8,0l0,0.7Z" class="g2_331" />
<path d="M484.6,282.1l0.7,0l0,-21l-0.7,0l0,21Z" class="g2_331" />
</svg>