<?xml version="1.0" encoding="UTF-8" standalone="no"?>
<!DOCTYPE svg PUBLIC "-//W3C//DTD SVG 1.1//EN"
"http://www.w3.org/Graphics/SVG/1.1/DTD/svg11.dtd">
<svg viewBox="0 0 935 1210" version="1.1" xmlns="http://www.w3.org/2000/svg" xmlns:xlink="http://www.w3.org/1999/xlink">
<defs>
<style type="text/css"><![CDATA[
.g1_1879{
fill: #FFFFFF;
}
.g2_1879{
fill: #0860A8;
}
.g3_1879{
}
]]></style>
</defs>
<path d="M68.9,1149.3l686.3,0l0,-21.2l-686.3,0l0,21.2Z" class="g1_1879" />
<path d="M771.3,1149.3l83.7,0l0,-21.2l-83.7,0l0,21.2Z" class="g1_1879" />
<path d="M544.9,681.5l262.7,0l0,-0.8l-262.7,0l0,0.8Z" class="g2_1879" />
<path d="M70.3,698.3l738.9,0l0,-0.8l-738.9,0l0,0.8Z" class="g2_1879" />
<path d="M69.9,262.4l0.8,0l0,-136.7l-0.8,0l0,136.7Z" class="g3_1879" />
<path d="M288.9,263.2l0.8,0l0,-138.3l-0.8,0l0,138.3Z" class="g3_1879" />
<path d="M332.5,263.2l0.7,0l0,-138.3l-0.7,0l0,138.3Z" class="g3_1879" />
<path d="M406.9,263.2l0.7,0l0,-138.3l-0.7,0l0,138.3Z" class="g3_1879" />
<path d="M481.7,263.2l0.7,0l0,-138.3l-0.7,0l0,138.3Z" class="g3_1879" />
<path d="M853,262.4l0.8,0l0,-136.7l-0.8,0l0,136.7Z" class="g3_1879" />
<path d="M69.9,125.7l783.9,0l0,-0.8l-783.9,0l0,0.8Z" class="g3_1879" />
<path d="M69.9,176.1l783.9,0l0,-0.7l-783.9,0l0,0.7Z" class="g3_1879" />
<path d="M69.9,263.2l783.9,0l0,-0.8l-783.9,0l0,0.8Z" class="g3_1879" />
<path d="M71.7,366.3l0.7,0l0,-48.1l-0.7,0l0,48.1Z" class="g3_1879" />
<path d="M186.8,367l0.8,0l0,-49.6l-0.8,0l0,49.6Z" class="g3_1879" />
<path d="M354,367l0.7,0l0,-49.6l-0.7,0l0,49.6Z" class="g3_1879" />
<path d="M520.3,367l0.7,0l0,-49.6l-0.7,0l0,49.6Z" class="g3_1879" />
<path d="M683.8,367l0.8,0l0,-49.6l-0.8,0l0,49.6Z" class="g3_1879" />
<path d="M850.3,366.3l0.7,0l0,-48.1l-0.7,0l0,48.1Z" class="g3_1879" />
<path d="M71.7,318.2l779.3,0l0,-0.8l-779.3,0l0,0.8Z" class="g3_1879" />
<path d="M71.7,342.6l779.3,0l0,-0.8l-779.3,0l0,0.8Z" class="g3_1879" />
<path d="M71.7,367L851,367l0,-0.7l-779.3,0l0,0.7Z" class="g3_1879" />
</svg>