<?xml version="1.0" encoding="UTF-8" standalone="no"?>
<!DOCTYPE svg PUBLIC "-//W3C//DTD SVG 1.1//EN"
"http://www.w3.org/Graphics/SVG/1.1/DTD/svg11.dtd">
<svg viewBox="0 0 935 1210" version="1.1" xmlns="http://www.w3.org/2000/svg" xmlns:xlink="http://www.w3.org/1999/xlink">
<defs>
<style type="text/css"><![CDATA[
.g1_257{
fill: #FFFFFF;
}
.g2_257{
}
]]></style>
</defs>
<path d="M68.9,1149.3l686.3,0l0,-21.2l-686.3,0l0,21.2Z" class="g1_257" />
<path d="M771.3,1149.3l83.7,0l0,-21.2l-83.7,0l0,21.2Z" class="g1_257" />
<path d="M69.9,546.6l0.8,0l0,-420.9l-0.8,0l0,420.9Z" class="g2_257" />
<path d="M314.2,547.3l0.8,0l0,-422.4l-0.8,0l0,422.4Z" class="g2_257" />
<path d="M362.6,547.3l0.8,0l0,-422.4l-0.8,0l0,422.4Z" class="g2_257" />
<path d="M437.2,547.3l0.7,0l0,-422.4l-0.7,0l0,422.4Z" class="g2_257" />
<path d="M521,547.3l0.8,0l0,-422.4l-0.8,0l0,422.4Z" class="g2_257" />
<path d="M854.3,546.6l0.8,0l0,-420.9l-0.8,0l0,420.9Z" class="g2_257" />
<path d="M69.9,125.7l785.2,0l0,-0.8l-785.2,0l0,0.8Z" class="g2_257" />
<path d="M69.9,176.1l785.2,0l0,-0.7l-785.2,0l0,0.7Z" class="g2_257" />
<path d="M69.9,229.5l785.2,0l0,-0.7l-785.2,0l0,0.7Z" class="g2_257" />
<path d="M69.9,283l785.2,0l0,-0.8l-785.2,0l0,0.8Z" class="g2_257" />
<path d="M69.9,336.5l785.2,0l0,-0.7l-785.2,0l0,0.7Z" class="g2_257" />
<path d="M69.9,406.8l785.2,0l0,-0.7l-785.2,0l0,0.7Z" class="g2_257" />
<path d="M69.9,477l785.2,0l0,-0.7l-785.2,0l0,0.7Z" class="g2_257" />
<path d="M69.9,547.3l785.2,0l0,-0.7l-785.2,0l0,0.7Z" class="g2_257" />
<path d="M71.8,699.3l0.7,0l0,-97l-0.7,0l0,97Z" class="g2_257" />
<path d="M168.8,700.2l0.7,0l0,-98.6l-0.7,0l0,98.6Z" class="g2_257" />
<path d="M339.4,700.2l0.8,0l0,-98.6l-0.8,0l0,98.6Z" class="g2_257" />
<path d="M509.1,700.2l0.8,0l0,-98.6l-0.8,0l0,98.6Z" class="g2_257" />
<path d="M675.4,700.2l0.7,0l0,-98.6l-0.7,0l0,98.6Z" class="g2_257" />
<path d="M850.2,699.3l0.7,0l0,-97l-0.7,0l0,97Z" class="g2_257" />
<path d="M71.8,602.3l779.2,0l0,-0.7l-779.2,0l0,0.7Z" class="g2_257" />
<path d="M71.8,626.8l779.2,0l0,-0.7l-779.2,0l0,0.7Z" class="g2_257" />
<path d="M71.8,651.2l779.2,0l0,-0.7l-779.2,0l0,0.7Z" class="g2_257" />
<path d="M71.8,675.7l779.2,0l0,-0.8l-779.2,0l0,0.8Z" class="g2_257" />
<path d="M71.8,700.2l779.2,0l0,-0.8l-779.2,0l0,0.8Z" class="g2_257" />
</svg>