<?xml version="1.0" encoding="UTF-8" standalone="no"?>
<!DOCTYPE svg PUBLIC "-//W3C//DTD SVG 1.1//EN"
"http://www.w3.org/Graphics/SVG/1.1/DTD/svg11.dtd">
<svg viewBox="0 0 935 1210" version="1.1" xmlns="http://www.w3.org/2000/svg" xmlns:xlink="http://www.w3.org/1999/xlink">
<defs>
<style type="text/css"><![CDATA[
.g1_2043{
fill: #FFFFFF;
}
.g2_2043{
}
]]></style>
</defs>
<path d="M68.9,1149l783.8,0l0,-21.4l-783.8,0l0,21.4Z" class="g1_2043" />
<path d="M69.2,380.8l2.3,0l0,-204l-2.3,0l0,204Z" class="g2_2043" />
<path d="M69.2,609.9l2.3,0L71.5,406l-2.3,0l0,203.9Z" class="g2_2043" />
<path d="M115.2,383.1l2.3,0l0,-208.6l-2.3,0l0,208.6Z" class="g2_2043" />
<path d="M115.2,612.2l2.3,0l0,-208.5l-2.3,0l0,208.5Z" class="g2_2043" />
<path d="M210.3,199.7l0.7,0l0,-25.2l-0.7,0l0,25.2Z" class="g2_2043" />
<path d="M210.3,244.8l0.7,0l0,-23.6l-0.7,0l0,23.6Z" class="g2_2043" />
<path d="M210.3,290.7l0.7,0L211,267l-0.7,0l0,23.7Z" class="g2_2043" />
<path d="M210.3,336.5l0.7,0l0,-23.6l-0.7,0l0,23.6Z" class="g2_2043" />
<path d="M210.3,383.1l0.7,0l0,-24.4l-0.7,0l0,24.4Z" class="g2_2043" />
<path d="M210.3,428.9l0.7,0l0,-25.2l-0.7,0l0,25.2Z" class="g2_2043" />
<path d="M210.3,474l0.7,0l0,-23.6l-0.7,0l0,23.6Z" class="g2_2043" />
<path d="M210.3,519.8l0.7,0l0,-23.6l-0.7,0l0,23.6Z" class="g2_2043" />
<path d="M210.3,565.7l0.7,0L211,542l-0.7,0l0,23.7Z" class="g2_2043" />
<path d="M210.3,612.2l0.7,0l0,-24.3l-0.7,0l0,24.3Z" class="g2_2043" />
<path d="M302.3,199.7l0.8,0l0,-25.2l-0.8,0l0,25.2Z" class="g2_2043" />
<path d="M302.3,244.8l0.8,0l0,-23.6l-0.8,0l0,23.6Z" class="g2_2043" />
<path d="M302.3,290.7l0.8,0l0,-23.7l-0.8,0l0,23.7Z" class="g2_2043" />
<path d="M302.3,336.5l0.8,0l0,-23.6l-0.8,0l0,23.6Z" class="g2_2043" />
<path d="M302.3,383.1l0.8,0l0,-24.4l-0.8,0l0,24.4Z" class="g2_2043" />
<path d="M302.3,428.9l0.8,0l0,-25.2l-0.8,0l0,25.2Z" class="g2_2043" />
<path d="M302.3,474l0.8,0l0,-23.6l-0.8,0l0,23.6Z" class="g2_2043" />
<path d="M302.3,519.8l0.8,0l0,-23.6l-0.8,0l0,23.6Z" class="g2_2043" />
<path d="M302.3,565.7l0.8,0l0,-23.7l-0.8,0l0,23.7Z" class="g2_2043" />
<path d="M302.3,612.2l0.8,0l0,-24.3l-0.8,0l0,24.3Z" class="g2_2043" />
<path d="M394.3,199.7l0.7,0l0,-25.2l-0.7,0l0,25.2Z" class="g2_2043" />
<path d="M394.3,244.8l0.7,0l0,-23.6l-0.7,0l0,23.6Z" class="g2_2043" />
<path d="M394.3,290.7l0.7,0L395,267l-0.7,0l0,23.7Z" class="g2_2043" />
<path d="M394.3,336.5l0.7,0l0,-23.6l-0.7,0l0,23.6Z" class="g2_2043" />
<path d="M394.3,383.1l0.7,0l0,-24.4l-0.7,0l0,24.4Z" class="g2_2043" />
<path d="M394.3,428.9l0.7,0l0,-25.2l-0.7,0l0,25.2Z" class="g2_2043" />
<path d="M394.3,474l0.7,0l0,-23.6l-0.7,0l0,23.6Z" class="g2_2043" />
<path d="M394.3,519.8l0.7,0l0,-23.6l-0.7,0l0,23.6Z" class="g2_2043" />
<path d="M394.3,565.7l0.7,0L395,542l-0.7,0l0,23.7Z" class="g2_2043" />
<path d="M394.3,612.2l0.7,0l0,-24.3l-0.7,0l0,24.3Z" class="g2_2043" />
<path d="M486.3,199.7l0.7,0l0,-25.2l-0.7,0l0,25.2Z" class="g2_2043" />
<path d="M486.3,244.8l0.7,0l0,-23.6l-0.7,0l0,23.6Z" class="g2_2043" />
<path d="M486.3,290.7l0.7,0L487,267l-0.7,0l0,23.7Z" class="g2_2043" />
<path d="M486.3,336.5l0.7,0l0,-23.6l-0.7,0l0,23.6Z" class="g2_2043" />
<path d="M486.3,383.1l0.7,0l0,-24.4l-0.7,0l0,24.4Z" class="g2_2043" />
<path d="M486.3,428.9l0.7,0l0,-25.2l-0.7,0l0,25.2Z" class="g2_2043" />
<path d="M486.3,474l0.7,0l0,-23.6l-0.7,0l0,23.6Z" class="g2_2043" />
<path d="M486.3,519.8l0.7,0l0,-23.6l-0.7,0l0,23.6Z" class="g2_2043" />
<path d="M486.3,565.7l0.7,0L487,542l-0.7,0l0,23.7Z" class="g2_2043" />
<path d="M486.3,612.2l0.7,0l0,-24.3l-0.7,0l0,24.3Z" class="g2_2043" />
<path d="M578.3,199.7l0.8,0l0,-25.2l-0.8,0l0,25.2Z" class="g2_2043" />
<path d="M578.3,244.8l0.8,0l0,-23.6l-0.8,0l0,23.6Z" class="g2_2043" />
<path d="M578.3,290.7l0.8,0l0,-23.7l-0.8,0l0,23.7Z" class="g2_2043" />
<path d="M578.3,336.5l0.8,0l0,-23.6l-0.8,0l0,23.6Z" class="g2_2043" />
<path d="M578.3,383.1l0.8,0l0,-24.4l-0.8,0l0,24.4Z" class="g2_2043" />
<path d="M578.3,428.9l0.8,0l0,-25.2l-0.8,0l0,25.2Z" class="g2_2043" />
<path d="M578.3,474l0.8,0l0,-23.6l-0.8,0l0,23.6Z" class="g2_2043" />
<path d="M578.3,519.8l0.8,0l0,-23.6l-0.8,0l0,23.6Z" class="g2_2043" />
<path d="M578.3,565.7l0.8,0l0,-23.7l-0.8,0l0,23.7Z" class="g2_2043" />
<path d="M578.3,612.2l0.8,0l0,-24.3l-0.8,0l0,24.3Z" class="g2_2043" />
<path d="M670.3,199.7l0.7,0l0,-25.2l-0.7,0l0,25.2Z" class="g2_2043" />
<path d="M670.3,244.8l0.7,0l0,-23.6l-0.7,0l0,23.6Z" class="g2_2043" />
<path d="M670.3,290.7l0.7,0L671,267l-0.7,0l0,23.7Z" class="g2_2043" />
<path d="M670.3,336.5l0.7,0l0,-23.6l-0.7,0l0,23.6Z" class="g2_2043" />
<path d="M670.3,383.1l0.7,0l0,-24.4l-0.7,0l0,24.4Z" class="g2_2043" />
<path d="M670.3,428.9l0.7,0l0,-25.2l-0.7,0l0,25.2Z" class="g2_2043" />
<path d="M670.3,474l0.7,0l0,-23.6l-0.7,0l0,23.6Z" class="g2_2043" />
<path d="M670.3,519.8l0.7,0l0,-23.6l-0.7,0l0,23.6Z" class="g2_2043" />
<path d="M670.3,565.7l0.7,0L671,542l-0.7,0l0,23.7Z" class="g2_2043" />
<path d="M670.3,612.2l0.7,0l0,-24.3l-0.7,0l0,24.3Z" class="g2_2043" />
<path d="M762.3,199.7l0.7,0l0,-25.2l-0.7,0l0,25.2Z" class="g2_2043" />
<path d="M762.3,244.8l0.7,0l0,-23.6l-0.7,0l0,23.6Z" class="g2_2043" />
<path d="M762.3,290.7l0.7,0L763,267l-0.7,0l0,23.7Z" class="g2_2043" />
<path d="M762.3,336.5l0.7,0l0,-23.6l-0.7,0l0,23.6Z" class="g2_2043" />
<path d="M762.3,383.1l0.7,0l0,-24.4l-0.7,0l0,24.4Z" class="g2_2043" />
<path d="M762.3,428.9l0.7,0l0,-25.2l-0.7,0l0,25.2Z" class="g2_2043" />
<path d="M762.3,474l0.7,0l0,-23.6l-0.7,0l0,23.6Z" class="g2_2043" />
<path d="M762.3,519.8l0.7,0l0,-23.6l-0.7,0l0,23.6Z" class="g2_2043" />
<path d="M762.3,565.7l0.7,0L763,542l-0.7,0l0,23.7Z" class="g2_2043" />
<path d="M762.3,612.2l0.7,0l0,-24.3l-0.7,0l0,24.3Z" class="g2_2043" />
<path d="M853.5,380.8l2.3,0l0,-204l-2.3,0l0,204Z" class="g2_2043" />
<path d="M853.5,609.9l2.3,0l0,-203.9l-2.3,0l0,203.9Z" class="g2_2043" />
<path d="M69.1,176.9l786.7,0l0,-2.3l-786.7,0l0,2.3Z" class="g2_2043" />
<path d="M69.1,199.8l786.7,0l0,-2.3l-786.7,0l0,2.3Z" class="g2_2043" />
<path d="M115.1,221.9l740.7,0l0,-0.7l-740.7,0l0,0.7Z" class="g2_2043" />
<path d="M69.1,244.8l786.7,0l0,-0.7l-786.7,0l0,0.7Z" class="g2_2043" />
<path d="M115.1,267.8l740.7,0l0,-0.8l-740.7,0l0,0.8Z" class="g2_2043" />
<path d="M69.1,290.7l786.7,0l0,-0.8l-786.7,0l0,0.8Z" class="g2_2043" />
<path d="M115.1,313.6l740.7,0l0,-0.7l-740.7,0l0,0.7Z" class="g2_2043" />
<path d="M69.1,336.5l786.7,0l0,-0.7l-786.7,0l0,0.7Z" class="g2_2043" />
<path d="M115.1,359.4l740.7,0l0,-0.7l-740.7,0l0,0.7Z" class="g2_2043" />
<path d="M69.1,383.2l786.7,0l0,-2.3l-786.7,0l0,2.3Z" class="g2_2043" />
<path d="M69.1,406.1l786.7,0l0,-2.3l-786.7,0l0,2.3Z" class="g2_2043" />
<path d="M69.1,429l786.7,0l0,-2.3l-786.7,0l0,2.3Z" class="g2_2043" />
<path d="M115.1,451.1l740.7,0l0,-0.7l-740.7,0l0,0.7Z" class="g2_2043" />
<path d="M69.1,474l786.7,0l0,-0.7l-786.7,0l0,0.7Z" class="g2_2043" />
<path d="M115.1,496.9l740.7,0l0,-0.7l-740.7,0l0,0.7Z" class="g2_2043" />
<path d="M69.1,519.8l786.7,0l0,-0.7l-786.7,0l0,0.7Z" class="g2_2043" />
<path d="M115.1,542.8l740.7,0l0,-0.8l-740.7,0l0,0.8Z" class="g2_2043" />
<path d="M69.1,565.7l786.7,0l0,-0.8l-786.7,0l0,0.8Z" class="g2_2043" />
<path d="M115.1,588.6l740.7,0l0,-0.7l-740.7,0l0,0.7Z" class="g2_2043" />
<path d="M69.1,612.3l786.7,0l0,-2.3L69.1,610l0,2.3Z" class="g2_2043" />
<path d="M69.2,850l2.3,0l0,-73.5l-2.3,0l0,73.5Z" class="g2_2043" />
<path d="M168,852.3l0.8,0l0,-57.2l-0.8,0l0,57.2Z" class="g2_2043" />
<path d="M266.1,852.3l0.7,0l0,-57.2l-0.7,0l0,57.2Z" class="g2_2043" />
<path d="M364.1,852.3l0.7,0l0,-57.2l-0.7,0l0,57.2Z" class="g2_2043" />
<path d="M462.2,852.3l0.7,0l0,-57.2l-0.7,0l0,57.2Z" class="g2_2043" />
<path d="M560.3,852.3l0.7,0l0,-57.2l-0.7,0l0,57.2Z" class="g2_2043" />
<path d="M658.4,852.3l0.7,0l0,-57.2l-0.7,0l0,57.2Z" class="g2_2043" />
<path d="M756.4,852.3l0.8,0l0,-57.2l-0.8,0l0,57.2Z" class="g2_2043" />
<path d="M853.8,850l2.3,0l0,-73.5l-2.3,0l0,73.5Z" class="g2_2043" />
<path d="M69.1,776.6l786.9,0l0,-2.3l-786.9,0l0,2.3Z" class="g2_2043" />
<path d="M69.1,795.9l786.9,0l0,-0.7l-786.9,0l0,0.7Z" class="g2_2043" />
<path d="M69.1,816.9l786.9,0l0,-2.3l-786.9,0l0,2.3Z" class="g2_2043" />
<path d="M69.1,852.3l786.9,0l0,-2.3L69.1,850l0,2.3Z" class="g2_2043" />
</svg>