<?xml version="1.0" encoding="UTF-8" standalone="no"?>
<!DOCTYPE svg PUBLIC "-//W3C//DTD SVG 1.1//EN"
"http://www.w3.org/Graphics/SVG/1.1/DTD/svg11.dtd">
<svg viewBox="0 0 935 1210" version="1.1" xmlns="http://www.w3.org/2000/svg" xmlns:xlink="http://www.w3.org/1999/xlink">
<defs>
<style type="text/css"><![CDATA[
.g1_1926{
fill: #FFFFFF;
}
.g2_1926{
}
]]></style>
</defs>
<path d="M165,1149.3l687.5,0l0,-21.2l-687.5,0l0,21.2Z" class="g1_1926" />
<path d="M68.8,1149.3l82.5,0l0,-21.2l-82.5,0l0,21.2Z" class="g1_1926" />
<path d="M69.3,346.4l0.7,0L70,131.8l-0.7,0l0,214.6Z" class="g2_1926" />
<path d="M212.2,307.4l0.7,0l0,-40.4l-0.7,0l0,40.4Z" class="g2_1926" />
<path d="M355.1,347.2l0.8,0l0,-216.2l-0.8,0l0,216.2Z" class="g2_1926" />
<path d="M398.7,347.2l0.7,0l0,-216.2l-0.7,0l0,216.2Z" class="g2_1926" />
<path d="M457.2,347.2l0.8,0L458,131l-0.8,0l0,216.2Z" class="g2_1926" />
<path d="M536.2,347.2l0.7,0l0,-216.2l-0.7,0l0,216.2Z" class="g2_1926" />
<path d="M851.1,346.4l0.8,0l0,-214.6l-0.8,0l0,214.6Z" class="g2_1926" />
<path d="M69.3,131.7l782.6,0l0,-0.7L69.3,131l0,0.7Z" class="g2_1926" />
<path d="M69.3,188.3l782.6,0l0,-0.7l-782.6,0l0,0.7Z" class="g2_1926" />
<path d="M69.3,228l782.6,0l0,-0.8l-782.6,0l0,0.8Z" class="g2_1926" />
<path d="M69.3,267.8l782.6,0l0,-0.8L69.3,267l0,0.8Z" class="g2_1926" />
<path d="M69.3,307.4l782.6,0l0,-0.7l-782.6,0l0,0.7Z" class="g2_1926" />
<path d="M69.3,347.1l782.6,0l0,-0.7l-782.6,0l0,0.7Z" class="g2_1926" />
<path d="M70.2,447.2l0.8,0l0,-48.1l-0.8,0l0,48.1Z" class="g2_1926" />
<path d="M140.5,448.1l0.8,0l0,-49.7l-0.8,0l0,49.7Z" class="g2_1926" />
<path d="M315.5,448.1l0.8,0l0,-49.7l-0.8,0l0,49.7Z" class="g2_1926" />
<path d="M485.7,448.1l0.7,0l0,-49.7l-0.7,0l0,49.7Z" class="g2_1926" />
<path d="M668.8,448.1l0.7,0l0,-49.7l-0.7,0l0,49.7Z" class="g2_1926" />
<path d="M850.1,447.2l0.7,0l0,-48.1l-0.7,0l0,48.1Z" class="g2_1926" />
<path d="M70.2,399.1l780.7,0l0,-0.7l-780.7,0l0,0.7Z" class="g2_1926" />
<path d="M70.2,423.6l780.7,0l0,-0.7l-780.7,0l0,0.7Z" class="g2_1926" />
<path d="M70.2,448.1l780.7,0l0,-0.8l-780.7,0l0,0.8Z" class="g2_1926" />
</svg>