<?xml version="1.0" encoding="UTF-8" standalone="no"?>
<!DOCTYPE svg PUBLIC "-//W3C//DTD SVG 1.1//EN"
"http://www.w3.org/Graphics/SVG/1.1/DTD/svg11.dtd">
<svg viewBox="0 0 935 1210" version="1.1" xmlns="http://www.w3.org/2000/svg" xmlns:xlink="http://www.w3.org/1999/xlink">
<defs>
<style type="text/css"><![CDATA[
.g1_1748{
fill: #FFFFFF;
}
.g2_1748{
}
]]></style>
</defs>
<path d="M165,1149.3l687.5,0l0,-21.2l-687.5,0l0,21.2Z" class="g1_1748" />
<path d="M68.8,1149.3l82.5,0l0,-21.2l-82.5,0l0,21.2Z" class="g1_1748" />
<path d="M68.6,285.4l0.7,0l0,-159.7l-0.7,0l0,159.7Z" class="g2_1748" />
<path d="M334,286.1l0.8,0l0,-161.2l-0.8,0l0,161.2Z" class="g2_1748" />
<path d="M379.1,286.1l0.8,0l0,-161.2l-0.8,0l0,161.2Z" class="g2_1748" />
<path d="M453.7,286.1l0.7,0l0,-161.2l-0.7,0l0,161.2Z" class="g2_1748" />
<path d="M537.5,286.1l0.8,0l0,-161.2l-0.8,0l0,161.2Z" class="g2_1748" />
<path d="M850.8,285.4l0.7,0l0,-159.7l-0.7,0l0,159.7Z" class="g2_1748" />
<path d="M68.6,125.7l782.9,0l0,-0.8l-782.9,0l0,0.8Z" class="g2_1748" />
<path d="M68.6,176.1l782.9,0l0,-0.7l-782.9,0l0,0.7Z" class="g2_1748" />
<path d="M68.6,212.8l782.9,0l0,-0.8L68.6,212l0,0.8Z" class="g2_1748" />
<path d="M68.6,249.4l782.9,0l0,-0.7l-782.9,0l0,0.7Z" class="g2_1748" />
<path d="M68.6,286.1l782.9,0l0,-0.7l-782.9,0l0,0.7Z" class="g2_1748" />
<path d="M70.4,389.2l0.7,0l0,-48.1l-0.7,0l0,48.1Z" class="g2_1748" />
<path d="M177.4,389.9l0.7,0l0,-49.5l-0.7,0l0,49.5Z" class="g2_1748" />
<path d="M335.1,389.9l0.8,0l0,-49.5l-0.8,0l0,49.5Z" class="g2_1748" />
<path d="M504,389.9l0.7,0l0,-49.5l-0.7,0l0,49.5Z" class="g2_1748" />
<path d="M668.9,389.9l0.7,0l0,-49.5l-0.7,0l0,49.5Z" class="g2_1748" />
<path d="M849.9,389.2l0.8,0l0,-48.1l-0.8,0l0,48.1Z" class="g2_1748" />
<path d="M70.4,341.1l780.4,0l0,-0.7l-780.4,0l0,0.7Z" class="g2_1748" />
<path d="M70.4,365.5l780.4,0l0,-0.8l-780.4,0l0,0.8Z" class="g2_1748" />
<path d="M70.4,389.9l780.4,0l0,-0.7l-780.4,0l0,0.7Z" class="g2_1748" />
</svg>