<?xml version="1.0" encoding="UTF-8" standalone="no"?>
<!DOCTYPE svg PUBLIC "-//W3C//DTD SVG 1.1//EN"
"http://www.w3.org/Graphics/SVG/1.1/DTD/svg11.dtd">
<svg viewBox="0 0 935 1210" version="1.1" xmlns="http://www.w3.org/2000/svg" xmlns:xlink="http://www.w3.org/1999/xlink">
<defs>
<style type="text/css"><![CDATA[
.g1_1202{
fill: #FFFFFF;
}
.g2_1202{
}
]]></style>
</defs>
<path d="M165,1149.3l687.5,0l0,-21.2l-687.5,0l0,21.2Z" class="g1_1202" />
<path d="M68.8,1149.3l82.5,0l0,-21.2l-82.5,0l0,21.2Z" class="g1_1202" />
<path d="M70.1,473.3l0.8,0l0,-366l-0.8,0l0,366Z" class="g2_1202" />
<path d="M220.3,431.2l0.7,0l0,-324.6l-0.7,0l0,324.6Z" class="g2_1202" />
<path d="M390.5,431.2l0.7,0l0,-324.6l-0.7,0l0,324.6Z" class="g2_1202" />
<path d="M428.4,431.2l0.7,0l0,-324.6l-0.7,0l0,324.6Z" class="g2_1202" />
<path d="M501.8,431.2l0.7,0l0,-324.6l-0.7,0l0,324.6Z" class="g2_1202" />
<path d="M573.1,431.2l0.7,0l0,-324.6l-0.7,0l0,324.6Z" class="g2_1202" />
<path d="M850.3,473.3l0.7,0l0,-366l-0.7,0l0,366Z" class="g2_1202" />
<path d="M70.1,107.3l780.9,0l0,-0.7l-780.9,0l0,0.7Z" class="g2_1202" />
<path d="M70.1,145.5l780.9,0l0,-0.8l-780.9,0l0,0.8Z" class="g2_1202" />
<path d="M70.1,168.4l780.9,0l0,-0.7l-780.9,0l0,0.7Z" class="g2_1202" />
<path d="M70.1,191.3l780.9,0l0,-0.7l-780.9,0l0,0.7Z" class="g2_1202" />
<path d="M70.1,214.2l780.9,0l0,-0.7l-780.9,0l0,0.7Z" class="g2_1202" />
<path d="M70.1,254L851,254l0,-0.7l-780.9,0l0,0.7Z" class="g2_1202" />
<path d="M70.1,293.7l780.9,0l0,-0.7L70.1,293l0,0.7Z" class="g2_1202" />
<path d="M70.1,316.6l780.9,0l0,-0.7l-780.9,0l0,0.7Z" class="g2_1202" />
<path d="M70.1,339.5l780.9,0l0,-0.7l-780.9,0l0,0.7Z" class="g2_1202" />
<path d="M70.1,362.4l780.9,0l0,-0.7l-780.9,0l0,0.7Z" class="g2_1202" />
<path d="M70.1,385.4l780.9,0l0,-0.8l-780.9,0l0,0.8Z" class="g2_1202" />
<path d="M70.1,408.3l780.9,0l0,-0.8l-780.9,0l0,0.8Z" class="g2_1202" />
<path d="M70.1,431.2l780.9,0l0,-0.7l-780.9,0l0,0.7Z" class="g2_1202" />
<path d="M70.1,474L851,474l0,-0.7l-780.9,0l0,0.7Z" class="g2_1202" />
<path d="M69.7,574.1l0.7,0l0,-48.1l-0.7,0l0,48.1Z" class="g2_1202" />
<path d="M130.9,574.8l0.7,0l0,-49.6l-0.7,0l0,49.6Z" class="g2_1202" />
<path d="M301.5,574.8l0.7,0l0,-49.6l-0.7,0l0,49.6Z" class="g2_1202" />
<path d="M480.1,574.8l0.7,0l0,-49.6l-0.7,0l0,49.6Z" class="g2_1202" />
<path d="M658,574.8l0.7,0l0,-49.6l-0.7,0l0,49.6Z" class="g2_1202" />
<path d="M850.8,574.1l0.7,0l0,-48.1l-0.7,0l0,48.1Z" class="g2_1202" />
<path d="M69.7,526l781.8,0l0,-0.8l-781.8,0l0,0.8Z" class="g2_1202" />
<path d="M69.7,550.4l781.8,0l0,-0.8l-781.8,0l0,0.8Z" class="g2_1202" />
<path d="M69.7,574.8l781.8,0l0,-0.7l-781.8,0l0,0.7Z" class="g2_1202" />
<path d="M68.6,989.6l0.7,0l0,-96.9l-0.7,0l0,96.9Z" class="g2_1202" />
<path d="M255.5,990.5l0.7,0l0,-98.6l-0.7,0l0,98.6Z" class="g2_1202" />
<path d="M518.2,990.5l0.7,0l0,-98.6l-0.7,0l0,98.6Z" class="g2_1202" />
<path d="M851.1,989.6l0.8,0l0,-96.9l-0.8,0l0,96.9Z" class="g2_1202" />
<path d="M68.6,892.7l783.3,0l0,-0.8l-783.3,0l0,0.8Z" class="g2_1202" />
<path d="M68.6,917l783.3,0l0,-0.7l-783.3,0l0,0.7Z" class="g2_1202" />
<path d="M68.6,941.5l783.3,0l0,-0.7l-783.3,0l0,0.7Z" class="g2_1202" />
<path d="M68.6,966l783.3,0l0,-0.7l-783.3,0l0,0.7Z" class="g2_1202" />
<path d="M68.6,990.4l783.3,0l0,-0.8l-783.3,0l0,0.8Z" class="g2_1202" />
</svg>