<?xml version="1.0" encoding="UTF-8" standalone="no"?>
<!DOCTYPE svg PUBLIC "-//W3C//DTD SVG 1.1//EN"
"http://www.w3.org/Graphics/SVG/1.1/DTD/svg11.dtd">
<svg viewBox="0 0 935 1210" version="1.1" xmlns="http://www.w3.org/2000/svg" xmlns:xlink="http://www.w3.org/1999/xlink">
<defs>
<style type="text/css"><![CDATA[
.g1_1261{
fill: #FFFFFF;
}
.g2_1261{
}
]]></style>
</defs>
<path d="M68.9,1149.3l686.3,0l0,-21.2l-686.3,0l0,21.2Z" class="g1_1261" />
<path d="M771.3,1149.3l83.7,0l0,-21.2l-83.7,0l0,21.2Z" class="g1_1261" />
<path d="M69.9,253.3l0.8,0L70.7,147l-0.8,0l0,106.3Z" class="g2_1261" />
<path d="M257.5,254l0.7,0l0,-107.7l-0.7,0l0,107.7Z" class="g2_1261" />
<path d="M314.8,254l0.7,0l0,-107.7l-0.7,0l0,107.7Z" class="g2_1261" />
<path d="M389.2,254l0.7,0l0,-107.7l-0.7,0l0,107.7Z" class="g2_1261" />
<path d="M456.9,254l0.7,0l0,-107.7l-0.7,0l0,107.7Z" class="g2_1261" />
<path d="M854.9,253.3l0.7,0l0,-106.3l-0.7,0l0,106.3Z" class="g2_1261" />
<path d="M69.9,147l785.7,0l0,-0.7l-785.7,0l0,0.7Z" class="g2_1261" />
<path d="M69.9,200.5l785.7,0l0,-0.8l-785.7,0l0,0.8Z" class="g2_1261" />
<path d="M69.9,254l785.7,0l0,-0.7l-785.7,0l0,0.7Z" class="g2_1261" />
<path d="M70.2,357.1l0.8,0L71,309l-0.8,0l0,48.1Z" class="g2_1261" />
<path d="M167.3,357.9l0.7,0l0,-49.6l-0.7,0l0,49.6Z" class="g2_1261" />
<path d="M386.9,357.9l0.8,0l0,-49.6l-0.8,0l0,49.6Z" class="g2_1261" />
<path d="M619.1,357.9l0.7,0l0,-49.6l-0.7,0l0,49.6Z" class="g2_1261" />
<path d="M851.8,357.1l0.7,0l0,-48.1l-0.7,0l0,48.1Z" class="g2_1261" />
<path d="M70.2,309l782.3,0l0,-0.7l-782.3,0l0,0.7Z" class="g2_1261" />
<path d="M70.2,333.4l782.3,0l0,-0.7l-782.3,0l0,0.7Z" class="g2_1261" />
<path d="M70.2,357.9l782.3,0l0,-0.8l-782.3,0l0,0.8Z" class="g2_1261" />
</svg>