<?xml version="1.0" encoding="UTF-8" standalone="no"?>
<!DOCTYPE svg PUBLIC "-//W3C//DTD SVG 1.1//EN"
"http://www.w3.org/Graphics/SVG/1.1/DTD/svg11.dtd">
<svg viewBox="0 0 935 1210" version="1.1" xmlns="http://www.w3.org/2000/svg" xmlns:xlink="http://www.w3.org/1999/xlink">
<defs>
<style type="text/css"><![CDATA[
.g1_1791{
fill: #FFFFFF;
}
.g2_1791{
}
]]></style>
</defs>
<path d="M68.9,1149.3l686.3,0l0,-21.2l-686.3,0l0,21.2Z" class="g1_1791" />
<path d="M771.3,1149.3l83.7,0l0,-21.2l-83.7,0l0,21.2Z" class="g1_1791" />
<path d="M69.9,867.4l0.8,0l0,-741.7l-0.8,0l0,741.7Z" class="g2_1791" />
<path d="M326.1,868.2l0.7,0l0,-743.3l-0.7,0l0,743.3Z" class="g2_1791" />
<path d="M391.4,868.2l0.7,0l0,-743.3l-0.7,0l0,743.3Z" class="g2_1791" />
<path d="M467,868.2l0.8,0l0,-743.3l-0.8,0l0,743.3Z" class="g2_1791" />
<path d="M550.3,868.2l0.7,0l0,-743.3l-0.7,0l0,743.3Z" class="g2_1791" />
<path d="M854.9,867.4l0.7,0l0,-741.7l-0.7,0l0,741.7Z" class="g2_1791" />
<path d="M69.9,125.7l785.7,0l0,-0.8l-785.7,0l0,0.8Z" class="g2_1791" />
<path d="M69.9,176.1l785.7,0l0,-0.7l-785.7,0l0,0.7Z" class="g2_1791" />
<path d="M69.9,246.3l785.7,0l0,-0.7l-785.7,0l0,0.7Z" class="g2_1791" />
<path d="M69.9,299.8l785.7,0l0,-0.7l-785.7,0l0,0.7Z" class="g2_1791" />
<path d="M69.9,353.3l785.7,0l0,-0.7l-785.7,0l0,0.7Z" class="g2_1791" />
<path d="M69.9,406.8l785.7,0l0,-0.7l-785.7,0l0,0.7Z" class="g2_1791" />
<path d="M69.9,477l785.7,0l0,-0.7l-785.7,0l0,0.7Z" class="g2_1791" />
<path d="M69.9,530.6l785.7,0l0,-0.8l-785.7,0l0,0.8Z" class="g2_1791" />
<path d="M69.9,584l785.7,0l0,-0.7l-785.7,0l0,0.7Z" class="g2_1791" />
<path d="M69.9,637.4l785.7,0l0,-0.7l-785.7,0l0,0.7Z" class="g2_1791" />
<path d="M69.9,707.8l785.7,0l0,-0.8L69.9,707l0,0.8Z" class="g2_1791" />
<path d="M69.9,761.2l785.7,0l0,-0.7l-785.7,0l0,0.7Z" class="g2_1791" />
<path d="M69.9,814.7l785.7,0l0,-0.7L69.9,814l0,0.7Z" class="g2_1791" />
<path d="M69.9,868.2l785.7,0l0,-0.8l-785.7,0l0,0.8Z" class="g2_1791" />
<path d="M70.9,995.8l0.7,0l0,-72.6l-0.7,0l0,72.6Z" class="g2_1791" />
<path d="M192,996.5l0.7,0l0,-74.1l-0.7,0l0,74.1Z" class="g2_1791" />
<path d="M356.7,996.5l0.7,0l0,-74.1l-0.7,0l0,74.1Z" class="g2_1791" />
<path d="M520.5,996.5l0.7,0l0,-74.1l-0.7,0l0,74.1Z" class="g2_1791" />
<path d="M686.4,996.5l0.7,0l0,-74.1l-0.7,0l0,74.1Z" class="g2_1791" />
<path d="M851.1,995.8l0.8,0l0,-72.6l-0.8,0l0,72.6Z" class="g2_1791" />
<path d="M70.9,923.2l781,0l0,-0.8l-781,0l0,0.8Z" class="g2_1791" />
<path d="M70.9,947.7l781,0l0,-0.8l-781,0l0,0.8Z" class="g2_1791" />
<path d="M70.9,972l781,0l0,-0.7l-781,0l0,0.7Z" class="g2_1791" />
<path d="M70.9,996.5l781,0l0,-0.7l-781,0l0,0.7Z" class="g2_1791" />
</svg>