<?xml version="1.0" encoding="UTF-8" standalone="no"?>
<!DOCTYPE svg PUBLIC "-//W3C//DTD SVG 1.1//EN"
"http://www.w3.org/Graphics/SVG/1.1/DTD/svg11.dtd">
<svg viewBox="0 0 935 1210" version="1.1" xmlns="http://www.w3.org/2000/svg" xmlns:xlink="http://www.w3.org/1999/xlink">
<defs>
<style type="text/css"><![CDATA[
.g1_143{
fill: #FFFFFF;
}
.g2_143{
}
]]></style>
</defs>
<path d="M68.9,1149.3l686.3,0l0,-21.2l-686.3,0l0,21.2Z" class="g1_143" />
<path d="M771.3,1149.3l83.7,0l0,-21.2l-83.7,0l0,21.2Z" class="g1_143" />
<path d="M69.9,318.9l0.8,0l0,-193.2l-0.8,0l0,193.2Z" class="g2_143" />
<path d="M260.6,319.7l0.7,0l0,-194.8l-0.7,0l0,194.8Z" class="g2_143" />
<path d="M307.2,319.7l0.7,0l0,-194.8l-0.7,0l0,194.8Z" class="g2_143" />
<path d="M381.6,319.7l0.7,0l0,-194.8l-0.7,0l0,194.8Z" class="g2_143" />
<path d="M460.4,319.7l0.8,0l0,-194.8l-0.8,0l0,194.8Z" class="g2_143" />
<path d="M853.8,318.9l0.7,0l0,-193.2l-0.7,0l0,193.2Z" class="g2_143" />
<path d="M69.9,125.7l784.6,0l0,-0.8l-784.6,0l0,0.8Z" class="g2_143" />
<path d="M69.9,176.1l784.6,0l0,-0.7l-784.6,0l0,0.7Z" class="g2_143" />
<path d="M69.9,212.8l784.6,0l0,-0.8L69.9,212l0,0.8Z" class="g2_143" />
<path d="M69.9,266.2l784.6,0l0,-0.7l-784.6,0l0,0.7Z" class="g2_143" />
<path d="M69.9,319.6l784.6,0l0,-0.7l-784.6,0l0,0.7Z" class="g2_143" />
<path d="M72.3,471.7l0.8,0l0,-97l-0.8,0l0,97Z" class="g2_143" />
<path d="M179.2,472.4l0.7,0l0,-98.5l-0.7,0l0,98.5Z" class="g2_143" />
<path d="M343.1,472.4l0.7,0l0,-98.5l-0.7,0l0,98.5Z" class="g2_143" />
<path d="M513.6,472.4l0.7,0l0,-98.5l-0.7,0l0,98.5Z" class="g2_143" />
<path d="M680.8,472.4l0.7,0l0,-98.5l-0.7,0l0,98.5Z" class="g2_143" />
<path d="M849.7,471.7l0.7,0l0,-97l-0.7,0l0,97Z" class="g2_143" />
<path d="M72.3,374.6l778.2,0l0,-0.7l-778.2,0l0,0.7Z" class="g2_143" />
<path d="M72.3,399.1l778.2,0l0,-0.7l-778.2,0l0,0.7Z" class="g2_143" />
<path d="M72.3,423.6l778.2,0l0,-0.7l-778.2,0l0,0.7Z" class="g2_143" />
<path d="M72.3,448.1l778.2,0l0,-0.8l-778.2,0l0,0.8Z" class="g2_143" />
<path d="M72.3,472.4l778.2,0l0,-0.7l-778.2,0l0,0.7Z" class="g2_143" />
</svg>