<?xml version="1.0" encoding="UTF-8" standalone="no"?>
<!DOCTYPE svg PUBLIC "-//W3C//DTD SVG 1.1//EN"
"http://www.w3.org/Graphics/SVG/1.1/DTD/svg11.dtd">
<svg viewBox="0 0 935 1210" version="1.1" xmlns="http://www.w3.org/2000/svg" xmlns:xlink="http://www.w3.org/1999/xlink">
<defs>
<style type="text/css"><![CDATA[
.g1_2037{
fill: #FFFFFF;
}
.g2_2037{
}
]]></style>
</defs>
<path d="M68.9,1149l783.8,0l0,-21.4l-783.8,0l0,21.4Z" class="g1_2037" />
<path d="M69.8,551.9l2.3,0l0,-396.4l-2.3,0l0,396.4Z" class="g2_2037" />
<path d="M102.2,554.2l0.7,0l0,-401l-0.7,0l0,401Z" class="g2_2037" />
<path d="M133.2,554.2l2.3,0l0,-401l-2.3,0l0,401Z" class="g2_2037" />
<path d="M223.4,554.2l0.4,0l0,-401l-0.4,0l0,401Z" class="g2_2037" />
<path d="M312.7,554.2l0.3,0l0,-401l-0.3,0l0,401Z" class="g2_2037" />
<path d="M402,554.2l0.3,0l0,-401l-0.3,0l0,401Z" class="g2_2037" />
<path d="M491.3,554.2l0.4,0l0,-401l-0.4,0l0,401Z" class="g2_2037" />
<path d="M580.6,554.2l0.4,0l0,-401l-0.4,0l0,401Z" class="g2_2037" />
<path d="M669.9,554.2l0.4,0l0,-401l-0.4,0l0,401Z" class="g2_2037" />
<path d="M761.9,554.2l0.4,0l0,-401l-0.4,0l0,401Z" class="g2_2037" />
<path d="M850.4,551.9l2.3,0l0,-396.4l-2.3,0l0,396.4Z" class="g2_2037" />
<path d="M69.8,155.5l782.8,0l0,-2.3l-782.8,0l0,2.3Z" class="g2_2037" />
<path d="M69.8,171.5l782.8,0l0,-2.3l-782.8,0l0,2.3Z" class="g2_2037" />
<path d="M69.8,232.4l782.8,0l0,-0.4L69.8,232l0,0.4Z" class="g2_2037" />
<path d="M69.8,259.9l782.8,0l0,-0.4l-782.8,0l0,0.4Z" class="g2_2037" />
<path d="M69.8,287.4l782.8,0l0,-0.4L69.8,287l0,0.4Z" class="g2_2037" />
<path d="M69.8,315.1l65.6,0l0,-0.8l-65.6,0l0,0.8Z" class="g2_2037" />
<path d="M133.1,314.9l719.5,0l0,-0.4l-719.5,0l0,0.4Z" class="g2_2037" />
<path d="M69.8,342.6l65.6,0l0,-0.8l-65.6,0l0,0.8Z" class="g2_2037" />
<path d="M133.1,342.4l719.5,0l0,-0.4l-719.5,0l0,0.4Z" class="g2_2037" />
<path d="M69.8,358.6l65.6,0l0,-0.7l-65.6,0l0,0.7Z" class="g2_2037" />
<path d="M133.1,358.4l719.5,0l0,-0.4l-719.5,0l0,0.4Z" class="g2_2037" />
<path d="M69.8,385.9l782.8,0l0,-0.4l-782.8,0l0,0.4Z" class="g2_2037" />
<path d="M69.8,402l782.8,0l0,-0.4l-782.8,0l0,0.4Z" class="g2_2037" />
<path d="M69.8,418.3l65.6,0l0,-0.8l-65.6,0l0,0.8Z" class="g2_2037" />
<path d="M133.1,418.1l719.5,0l0,-0.4l-719.5,0l0,0.4Z" class="g2_2037" />
<path d="M69.8,434.1l782.8,0l0,-0.3l-782.8,0l0,0.3Z" class="g2_2037" />
<path d="M69.8,450.2l782.8,0l0,-0.4l-782.8,0l0,0.4Z" class="g2_2037" />
<path d="M69.8,466.4l65.6,0l0,-0.7l-65.6,0l0,0.7Z" class="g2_2037" />
<path d="M133.1,466.2l719.5,0l0,-0.3l-719.5,0l0,0.3Z" class="g2_2037" />
<path d="M69.8,482.3l782.8,0l0,-0.4l-782.8,0l0,0.4Z" class="g2_2037" />
<path d="M69.8,509.9l65.6,0l0,-0.7l-65.6,0l0,0.7Z" class="g2_2037" />
<path d="M133.1,509.8l719.5,0l0,-0.4l-719.5,0l0,0.4Z" class="g2_2037" />
<path d="M69.8,526l65.6,0l0,-0.8l-65.6,0l0,0.8Z" class="g2_2037" />
<path d="M133.1,525.8l719.5,0l0,-0.4l-719.5,0l0,0.4Z" class="g2_2037" />
<path d="M69.8,554.3l782.8,0l0,-2.3L69.8,552l0,2.3Z" class="g2_2037" />
</svg>