<?xml version="1.0" encoding="UTF-8" standalone="no"?>
<!DOCTYPE svg PUBLIC "-//W3C//DTD SVG 1.1//EN"
"http://www.w3.org/Graphics/SVG/1.1/DTD/svg11.dtd">
<svg viewBox="0 0 935 1210" version="1.1" xmlns="http://www.w3.org/2000/svg" xmlns:xlink="http://www.w3.org/1999/xlink">
<defs>
<style type="text/css"><![CDATA[
.g1_1252{
fill: #FFFFFF;
}
.g2_1252{
}
]]></style>
</defs>
<path d="M165,1149.3l687.5,0l0,-21.2l-687.5,0l0,21.2Z" class="g1_1252" />
<path d="M68.8,1149.3l82.5,0l0,-21.2l-82.5,0l0,21.2Z" class="g1_1252" />
<path d="M70.7,192.1l0.7,0l0,-60.3l-0.7,0l0,60.3Z" class="g2_1252" />
<path d="M220.8,192.9l0.8,0l0,-61.9l-0.8,0l0,61.9Z" class="g2_1252" />
<path d="M391.1,192.9l0.8,0l0,-61.9l-0.8,0l0,61.9Z" class="g2_1252" />
<path d="M428.9,192.9l0.7,0l0,-61.9l-0.7,0l0,61.9Z" class="g2_1252" />
<path d="M502.3,192.9l0.8,0l0,-61.9l-0.8,0l0,61.9Z" class="g2_1252" />
<path d="M573.7,192.9l0.8,0l0,-61.9l-0.8,0l0,61.9Z" class="g2_1252" />
<path d="M849.8,192.1l0.7,0l0,-60.3l-0.7,0l0,60.3Z" class="g2_1252" />
<path d="M70.7,131.7l779.8,0l0,-0.7L70.7,131l0,0.7Z" class="g2_1252" />
<path d="M70.7,169.9l779.8,0l0,-0.7l-779.8,0l0,0.7Z" class="g2_1252" />
<path d="M70.7,192.9l779.8,0l0,-0.8l-779.8,0l0,0.8Z" class="g2_1252" />
<path d="M69.7,335.8l0.7,0l0,-48.1l-0.7,0l0,48.1Z" class="g2_1252" />
<path d="M139.9,336.5l0.7,0l0,-49.7l-0.7,0l0,49.7Z" class="g2_1252" />
<path d="M324.4,336.5l0.7,0l0,-49.7l-0.7,0l0,49.7Z" class="g2_1252" />
<path d="M495.8,336.5l0.8,0l0,-49.7l-0.8,0l0,49.7Z" class="g2_1252" />
<path d="M678.2,336.5l0.8,0l0,-49.7l-0.8,0l0,49.7Z" class="g2_1252" />
<path d="M850.8,335.8l0.7,0l0,-48.1l-0.7,0l0,48.1Z" class="g2_1252" />
<path d="M69.7,287.6l781.8,0l0,-0.8l-781.8,0l0,0.8Z" class="g2_1252" />
<path d="M69.7,312l781.8,0l0,-0.7l-781.8,0l0,0.7Z" class="g2_1252" />
<path d="M69.7,336.5l781.8,0l0,-0.7l-781.8,0l0,0.7Z" class="g2_1252" />
</svg>