<?xml version="1.0" encoding="UTF-8" standalone="no"?>
<!DOCTYPE svg PUBLIC "-//W3C//DTD SVG 1.1//EN"
"http://www.w3.org/Graphics/SVG/1.1/DTD/svg11.dtd">
<svg viewBox="0 0 935 1210" version="1.1" xmlns="http://www.w3.org/2000/svg" xmlns:xlink="http://www.w3.org/1999/xlink">
<defs>
<style type="text/css"><![CDATA[
.g1_2055{
fill: #FFFFFF;
}
.g2_2055{
}
]]></style>
</defs>
<path d="M68.9,1149.3l783.8,0l0,-21.2l-783.8,0l0,21.2Z" class="g1_2055" />
<path d="M69.9,470.2l0.8,0l0,-236.1l-0.8,0l0,236.1Z" class="g2_2055" />
<path d="M302.6,471l0.7,0l0,-237.6l-0.7,0l0,237.6Z" class="g2_2055" />
<path d="M582.7,471l0.8,0l0,-237.6l-0.8,0l0,237.6Z" class="g2_2055" />
<path d="M852.5,470.2l0.7,0l0,-236.1l-0.7,0l0,236.1Z" class="g2_2055" />
<path d="M69.9,234.1l783.3,0l0,-0.7l-783.3,0l0,0.7Z" class="g2_2055" />
<path d="M69.9,275.4l783.3,0l0,-0.8l-783.3,0l0,0.8Z" class="g2_2055" />
<path d="M69.9,471l783.3,0l0,-0.8l-783.3,0l0,0.8Z" class="g2_2055" />
<path d="M69.9,803.3l0.8,0l0,-285l-0.8,0l0,285Z" class="g2_2055" />
<path d="M151.6,804l0.8,0l0,-245.2l-0.8,0l0,245.2Z" class="g2_2055" />
<path d="M303.1,804l0.7,0l0,-220.7l-0.7,0l0,220.7Z" class="g2_2055" />
<path d="M454.6,803.3l0.7,0l0,-285l-0.7,0l0,285Z" class="g2_2055" />
<path d="M488.7,803.3l0.7,0l0,-285l-0.7,0l0,285Z" class="g2_2055" />
<path d="M558.4,804l0.8,0l0,-245.2l-0.8,0l0,245.2Z" class="g2_2055" />
<path d="M710,804l0.7,0l0,-220.7l-0.7,0L710,804Z" class="g2_2055" />
<path d="M852.4,803.3l0.7,0l0,-285l-0.7,0l0,285Z" class="g2_2055" />
<path d="M69.9,518.3l385.4,0l0,-0.7l-385.4,0l0,0.7Z" class="g2_2055" />
<path d="M488.7,518.3l364.4,0l0,-0.7l-364.4,0l0,0.7Z" class="g2_2055" />
<path d="M69.9,559.5l385.4,0l0,-0.7l-385.4,0l0,0.7Z" class="g2_2055" />
<path d="M488.7,559.5l364.4,0l0,-0.7l-364.4,0l0,0.7Z" class="g2_2055" />
<path d="M69.9,584l385.4,0l0,-0.7l-385.4,0l0,0.7Z" class="g2_2055" />
<path d="M558.4,584l294.7,0l0,-0.7l-294.7,0l0,0.7Z" class="g2_2055" />
<path d="M69.9,608.5l385.4,0l0,-0.8l-385.4,0l0,0.8Z" class="g2_2055" />
<path d="M488.7,608.5l364.4,0l0,-0.8l-364.4,0l0,0.8Z" class="g2_2055" />
<path d="M69.9,804l385.4,0l0,-0.7l-385.4,0l0,0.7Z" class="g2_2055" />
<path d="M488.7,804l364.4,0l0,-0.7l-364.4,0l0,0.7Z" class="g2_2055" />
</svg>