<?xml version="1.0" encoding="UTF-8" standalone="no"?>
<!DOCTYPE svg PUBLIC "-//W3C//DTD SVG 1.1//EN"
"http://www.w3.org/Graphics/SVG/1.1/DTD/svg11.dtd">
<svg viewBox="0 0 935 1210" version="1.1" xmlns="http://www.w3.org/2000/svg" xmlns:xlink="http://www.w3.org/1999/xlink">
<defs>
<style type="text/css"><![CDATA[
.g1_1496{
fill: #FFFFFF;
}
.g2_1496{
}
]]></style>
</defs>
<path d="M165,1149.3l687.5,0l0,-21.2l-687.5,0l0,21.2Z" class="g1_1496" />
<path d="M68.8,1149.3l82.5,0l0,-21.2l-82.5,0l0,21.2Z" class="g1_1496" />
<path d="M68.6,517.6l0.7,0L69.3,147l-0.7,0l0,370.6Z" class="g2_1496" />
<path d="M325.3,518.3l0.8,0l0,-372l-0.8,0l0,372Z" class="g2_1496" />
<path d="M373.3,518.3l0.7,0l0,-372l-0.7,0l0,372Z" class="g2_1496" />
<path d="M447.7,518.3l0.7,0l0,-372l-0.7,0l0,372Z" class="g2_1496" />
<path d="M528.5,518.3l0.8,0l0,-372l-0.8,0l0,372Z" class="g2_1496" />
<path d="M848.9,517.6l0.8,0l0,-370.6l-0.8,0l0,370.6Z" class="g2_1496" />
<path d="M68.6,147l781.1,0l0,-0.7l-781.1,0l0,0.7Z" class="g2_1496" />
<path d="M68.6,197.4l781.1,0l0,-0.7l-781.1,0l0,0.7Z" class="g2_1496" />
<path d="M68.6,250.9l781.1,0l0,-0.7l-781.1,0l0,0.7Z" class="g2_1496" />
<path d="M68.6,304.4l781.1,0l0,-0.7l-781.1,0l0,0.7Z" class="g2_1496" />
<path d="M68.6,357.9l781.1,0l0,-0.8l-781.1,0l0,0.8Z" class="g2_1496" />
<path d="M68.6,411.4l781.1,0l0,-0.7l-781.1,0l0,0.7Z" class="g2_1496" />
<path d="M68.6,464.8l781.1,0l0,-0.7l-781.1,0l0,0.7Z" class="g2_1496" />
<path d="M68.6,518.3l781.1,0l0,-0.7l-781.1,0l0,0.7Z" class="g2_1496" />
<path d="M69.2,645.9l0.7,0l0,-72.6l-0.7,0l0,72.6Z" class="g2_1496" />
<path d="M188.4,646.6l0.7,0l0,-74.1l-0.7,0l0,74.1Z" class="g2_1496" />
<path d="M350.6,646.6l0.8,0l0,-74.1l-0.8,0l0,74.1Z" class="g2_1496" />
<path d="M517.7,646.6l0.8,0l0,-74.1l-0.8,0l0,74.1Z" class="g2_1496" />
<path d="M684.6,646.6l0.7,0l0,-74.1l-0.7,0l0,74.1Z" class="g2_1496" />
<path d="M851.2,645.9l0.7,0l0,-72.6l-0.7,0l0,72.6Z" class="g2_1496" />
<path d="M69.1,573.3l782.9,0l0,-0.7l-782.9,0l0,0.7Z" class="g2_1496" />
<path d="M69.1,597.8l782.9,0l0,-0.8L69.1,597l0,0.8Z" class="g2_1496" />
<path d="M69.1,622.2l782.9,0l0,-0.7l-782.9,0l0,0.7Z" class="g2_1496" />
<path d="M69.1,646.6l782.9,0l0,-0.7l-782.9,0l0,0.7Z" class="g2_1496" />
</svg>