<?xml version="1.0" encoding="UTF-8" standalone="no"?>
<!DOCTYPE svg PUBLIC "-//W3C//DTD SVG 1.1//EN"
"http://www.w3.org/Graphics/SVG/1.1/DTD/svg11.dtd">
<svg viewBox="0 0 935 1210" version="1.1" xmlns="http://www.w3.org/2000/svg" xmlns:xlink="http://www.w3.org/1999/xlink">
<defs>
<style type="text/css"><![CDATA[
.g1_537{
fill: #FFFFFF;
}
.g2_537{
}
]]></style>
</defs>
<path d="M68.9,1149.3l686.3,0l0,-21.2l-686.3,0l0,21.2Z" class="g1_537" />
<path d="M771.3,1149.3l83.7,0l0,-21.2l-83.7,0l0,21.2Z" class="g1_537" />
<path d="M248.1,289.5l113.3,0l0,-20.6l-113.3,0l0,20.6Z" class="g1_537" />
<path d="M248.1,269.2l113.7,0l0,-0.7l-113.7,0l0,0.7Z" class="g2_537" />
<path d="M361.1,289.8l0.7,0l0,-20.9l-0.7,0l0,20.9Z" class="g2_537" />
<path d="M247.7,289.8l113.7,0l0,-0.7l-113.7,0l0,0.7Z" class="g2_537" />
<path d="M247.7,289.5l0.7,0l0,-21l-0.7,0l0,21Z" class="g2_537" />
<path d="M361.4,289.5l113.5,0l0,-20.6l-113.5,0l0,20.6Z" class="g1_537" />
<path d="M361.4,269.2l113.9,0l0,-0.7l-113.9,0l0,0.7Z" class="g2_537" />
<path d="M474.6,289.8l0.7,0l0,-20.9l-0.7,0l0,20.9Z" class="g2_537" />
<path d="M361.1,289.8l113.8,0l0,-0.7l-113.8,0l0,0.7Z" class="g2_537" />
<path d="M361.1,289.5l0.7,0l0,-21l-0.7,0l0,21Z" class="g2_537" />
<path d="M474.9,289.5l113.5,0l0,-20.6l-113.5,0l0,20.6Z" class="g1_537" />
<path d="M474.9,269.2l113.9,0l0,-0.7l-113.9,0l0,0.7Z" class="g2_537" />
<path d="M588,289.8l0.8,0l0,-20.9l-0.8,0l0,20.9Z" class="g2_537" />
<path d="M474.6,289.8l113.8,0l0,-0.7l-113.8,0l0,0.7Z" class="g2_537" />
<path d="M474.6,289.5l0.7,0l0,-21l-0.7,0l0,21Z" class="g2_537" />
<path d="M588.4,289.5l113.4,0l0,-20.6l-113.4,0l0,20.6Z" class="g1_537" />
<path d="M588.4,269.2l113.8,0l0,-0.7l-113.8,0l0,0.7Z" class="g2_537" />
<path d="M701.4,289.8l0.8,0l0,-20.9l-0.8,0l0,20.9Z" class="g2_537" />
<path d="M588,289.8l113.8,0l0,-0.7l-113.8,0l0,0.7Z" class="g2_537" />
<path d="M588,289.5l0.8,0l0,-21l-0.8,0l0,21Z" class="g2_537" />
<path d="M248.1,186.4l113.3,0l0,-20.7l-113.3,0l0,20.7Z" class="g1_537" />
<path d="M248.1,166.1l113.7,0l0,-0.7l-113.7,0l0,0.7Z" class="g2_537" />
<path d="M361.1,186.7l0.7,0l0,-21l-0.7,0l0,21Z" class="g2_537" />
<path d="M247.7,186.7l113.7,0l0,-0.7l-113.7,0l0,0.7Z" class="g2_537" />
<path d="M247.7,186.4l0.7,0l0,-21l-0.7,0l0,21Z" class="g2_537" />
<path d="M361.4,186.4l113.5,0l0,-20.7l-113.5,0l0,20.7Z" class="g1_537" />
<path d="M361.4,166.1l113.9,0l0,-0.7l-113.9,0l0,0.7Z" class="g2_537" />
<path d="M474.6,186.7l0.7,0l0,-21l-0.7,0l0,21Z" class="g2_537" />
<path d="M361.1,186.7l113.8,0l0,-0.7l-113.8,0l0,0.7Z" class="g2_537" />
<path d="M361.1,186.4l0.7,0l0,-21l-0.7,0l0,21Z" class="g2_537" />
<path fill-rule="evenodd" d="M403.2,254.3l0.1,-0.3l0.1,-0.3l0.1,-0.3l0,-0.3l-0.2,-0.6l-0.4,-0.4L402.6,252c-0.6,-0.2,-0.8,-0.4,-1.4,0.1l-0.2,0.2l-0.2,0.1l-0.2,0.3c-0.5,1.5,0.7,2.6,2.2,1.9l0.2,-0.1l0.2,-0.2Z" class="g2_537" />
<path d="M402.1,253.4l3.8,-5.3l0.6,-0.8l0.6,0.8l14.7,18.7l1.6,2.2l-2.5,-1l-22.3,-8.1l-1,-0.4l0.6,-0.8l0.8,-0.3l22.4,8.2l-0.5,1.4l-0.3,-0.2L405.9,249l1.2,-0.9l0,0.9l-3.9,5.3Z" class="g2_537" />
<path d="M398.2,258.7l3.9,-5.3l1.1,0.9l-3.8,5.3Z" class="g2_537" />
<path fill-rule="evenodd" d="M402.6,253.8l3.8,-5.3l14.7,18.8l-22.3,-8.2Z" class="g2_537" />
<path d="M310.8,185.2l-1.7,2.4l92,67l1.8,-2.4Z" class="g2_537" />
<path d="M474.9,186.4l113.5,0l0,-20.7l-113.5,0l0,20.7Z" class="g1_537" />
<path d="M474.9,166.1l113.9,0l0,-0.7l-113.9,0l0,0.7Z" class="g2_537" />
<path d="M588,186.7l0.8,0l0,-21l-0.8,0l0,21Z" class="g2_537" />
<path d="M474.6,186.7l113.8,0l0,-0.7l-113.8,0l0,0.7Z" class="g2_537" />
<path d="M474.6,186.4l0.7,0l0,-21l-0.7,0l0,21Z" class="g2_537" />
<path d="M588.4,186.4l113.4,0l0,-20.7l-113.4,0l0,20.7Z" class="g1_537" />
<path d="M588.4,166.1l113.8,0l0,-0.7l-113.8,0l0,0.7Z" class="g2_537" />
<path d="M701.4,186.7l0.8,0l0,-21l-0.8,0l0,21Z" class="g2_537" />
<path d="M588,186.7l113.8,0l0,-0.7L588,186l0,0.7Z" class="g2_537" />
<path d="M588,186.4l0.8,0l0,-21l-0.8,0l0,21Z" class="g2_537" />
<path fill-rule="evenodd" d="M650.3,244l0.5,-0.2c1.4,-0.5,1.2,-2.6,-0.2,-2.8l-0.3,-0.1l-0.4,0.1c-1.4,0.2,-1.7,2.3,-0.3,2.8l0.3,0.1l0.4,0.1Z" class="g2_537" />
<path d="M650.3,242.5l7.5,0l-0.3,1L651,266.4l-0.7,2.6l-0.7,-2.6L643,243.5l-0.3,-1l1,0l0.7,0.5l6.6,22.9l-1.4,0.5l0,-0.5L656.1,243l1.4,0.5l-0.7,0.5l-6.5,0Z" class="g2_537" />
<path d="M643.7,244l6.6,0l0,-1.5l-6.6,0l0,1.5Z" class="g2_537" />
<path fill-rule="evenodd" d="M650.3,243.2l6.5,0l-6.5,22.9l-6.6,-22.9Z" class="g2_537" />
<path d="M648.8,242.5l3,0l0,-56.1l-3,0l0,56.1Z" class="g2_537" />
<path d="M309.9,229.2l113.4,0l0,-3.1l-113.4,0l0,3.1Z" class="g2_537" />
<path d="M536.8,229.2l113.5,0l0,-3.1l-113.5,0l0,3.1Z" class="g2_537" />
<path d="M248.1,232.8l113.3,0l0,-20.6l-113.3,0l0,20.6Z" class="g1_537" />
<path d="M248.1,212.6l113.7,0l0,-0.8l-113.7,0l0,0.8Z" class="g2_537" />
<path d="M361.1,233.2l0.7,0l0,-21l-0.7,0l0,21Z" class="g2_537" />
<path d="M247.7,233.2l113.7,0l0,-0.7l-113.7,0l0,0.7Z" class="g2_537" />
<path d="M247.7,232.8l0.7,0l0,-21l-0.7,0l0,21Z" class="g2_537" />
<path d="M361.4,232.8l113.5,0l0,-20.6l-113.5,0l0,20.6Z" class="g1_537" />
<path d="M361.4,212.6l113.9,0l0,-0.8l-113.9,0l0,0.8Z" class="g2_537" />
<path d="M474.6,233.2l0.7,0l0,-21l-0.7,0l0,21Z" class="g2_537" />
<path d="M361.1,233.2l113.8,0l0,-0.7l-113.8,0l0,0.7Z" class="g2_537" />
<path d="M361.1,232.8l0.7,0l0,-21l-0.7,0l0,21Z" class="g2_537" />
<path d="M474.9,232.8l113.5,0l0,-20.6l-113.5,0l0,20.6Z" class="g1_537" />
<path d="M474.9,212.6l113.9,0l0,-0.8l-113.9,0l0,0.8Z" class="g2_537" />
<path d="M588,233.2l0.8,0l0,-21l-0.8,0l0,21Z" class="g2_537" />
<path d="M474.6,233.2l113.8,0l0,-0.7l-113.8,0l0,0.7Z" class="g2_537" />
<path d="M474.6,232.8l0.7,0l0,-21l-0.7,0l0,21Z" class="g2_537" />
<path d="M588.4,232.8l113.4,0l0,-20.6l-113.4,0l0,20.6Z" class="g1_537" />
<path d="M588.4,212.6l113.8,0l0,-0.8l-113.8,0l0,0.8Z" class="g2_537" />
<path d="M701.4,233.2l0.8,0l0,-21l-0.8,0l0,21Z" class="g2_537" />
<path d="M588,233.2l113.8,0l0,-0.7l-113.8,0l0,0.7Z" class="g2_537" />
<path d="M588,232.8l0.8,0l0,-21l-0.8,0l0,21Z" class="g2_537" />
<path fill-rule="evenodd" d="M629.8,254.6l0.1,-0.2l0.1,-0.3c0.2,-1.5,-1.4,-2.5,-2.5,-1.4l-0.2,0.2l-0.2,0.6l-0.1,0.3l0,0.3l0.1,0.3l0.2,0.2l0.3,0.4l0.3,0.2l0.3,0.1l0.6,0l0.6,-0.2l0.4,-0.5Z" class="g2_537" />
<path d="M628.6,253.8l3.7,-5.4l0.7,-0.8l0.6,0.8l15,18.4l1.7,2.2l-2.5,-1l-22.5,-7.7l-1,-0.3l0.5,-0.9l0.9,-0.2l22.6,7.7l-0.5,1.4l-0.4,-0.2l-15,-18.5l1.2,-0.9l0,0.9l-3.8,5.4Z" class="g2_537" />
<path d="M624.8,259.1l3.8,-5.3l1.2,0.9l-3.7,5.4Z" class="g2_537" />
<path fill-rule="evenodd" d="M629.2,254.3l3.8,-5.4l15,18.4l-22.6,-7.7Z" class="g2_537" />
<path d="M532.6,185.2l-1.8,2.4l96.9,67.5l1.8,-2.5Z" class="g2_537" />
<path fill-rule="evenodd" d="M423.3,244l0.4,-0.1l0.3,-0.1c1.4,-0.5,1.1,-2.6,-0.3,-2.8l-0.4,-0.1L423,241c-1.4,0.2,-1.6,2.3,-0.2,2.8l0.5,0.2Z" class="g2_537" />
<path d="M423.3,242.5l7.6,0l-0.3,1L424,266.4l-0.7,2.6l-0.7,-2.6l-6.5,-22.9l-0.3,-1l1,0l0.7,0.5l6.5,22.9l-1.4,0.5l0,-0.5L429.2,243l1.4,0.5l-0.7,0.5l-6.6,0Z" class="g2_537" />
<path d="M416.8,244l6.5,0l0,-1.5l-6.5,0l0,1.5Z" class="g2_537" />
<path fill-rule="evenodd" d="M423.3,243.2l6.6,0l-6.6,22.9l-6.5,-22.9Z" class="g2_537" />
<path d="M421.8,242.5l3.1,0l0,-56.1l-3.1,0l0,56.1Z" class="g2_537" />
<path fill-rule="evenodd" d="M304.8,244l0.5,-0.2c1.4,-0.5,1.2,-2.6,-0.2,-2.8l-0.3,-0.1l-0.4,0.1c-1.4,0.2,-1.6,2.3,-0.2,2.8l0.2,0.1l0.4,0.1Z" class="g2_537" />
<path d="M304.8,242.5l7.5,0l-0.3,1l-6.5,22.9l-0.7,2.6l-0.7,-2.6l-6.6,-22.9l-0.3,-1l1,0l0.7,0.5l6.6,22.9l-1.4,0.5l0,-0.5L310.6,243l1.4,0.5l-0.7,0.5l-6.5,0Z" class="g2_537" />
<path d="M298.2,244l6.6,0l0,-1.5l-6.6,0l0,1.5Z" class="g2_537" />
<path fill-rule="evenodd" d="M304.8,243.2l6.5,0l-6.5,22.9l-6.6,-22.9Z" class="g2_537" />
<path d="M303.3,242.5l3,0l0,-9.7l-3,0l0,9.7Z" class="g2_537" />
<path fill-rule="evenodd" d="M531.7,244l0.8,-0.3l0.3,-0.1l0.1,-0.3l0.1,-0.2l0.1,-0.4l0,-0.5c-0.2,-0.6,-0.2,-0.9,-0.9,-1.1l-0.5,-0.2l-0.4,0.1c-1.4,0.2,-1.7,2.3,-0.3,2.8l0.3,0.1l0.4,0.1Z" class="g2_537" />
<path d="M531.7,242.5l7.5,0l-0.3,1l-6.5,22.9l-0.7,2.6l-0.8,-2.6l-6.6,-22.9l-0.2,-1l1,0l0.7,0.5l6.6,22.9l-1.5,0.5l0,-0.5L537.4,243l1.5,0.5l-0.7,0.5l-6.5,0Z" class="g2_537" />
<path d="M525.1,244l6.6,0l0,-1.5l-6.6,0l0,1.5Z" class="g2_537" />
<path fill-rule="evenodd" d="M531.7,243.2l6.5,0l-6.5,22.9l-6.6,-22.9Z" class="g2_537" />
<path d="M530.2,242.5l3,0l0,-9.7l-3,0l0,9.7Z" class="g2_537" />
<path fill-rule="evenodd" d="M328.4,261.1l0.1,0.2l0.2,0.2c1.2,1.2,2.7,0.3,2.7,-1.2l-0.2,-0.5c-0.7,-1.3,-2.9,-0.9,-2.8,0.6l0,0.7Z" class="g2_537" />
<path d="M329.8,260.5l2.1,6.3l0.2,1l-0.9,0.1l-23.8,1l-2.7,0.1l2.2,-1.6l19.7,-13.5l0.8,-0.5l0.4,0.9l-0.4,0.9l-19.7,13.5l-0.8,-1.3l0.4,-0.1l23.8,-1l0.1,1.6l-0.8,-0.6l-2.1,-6.2Z" class="g2_537" />
<path d="M327.8,254.3l2,6.2l-1.5,0.6l-2.1,-6.3Z" class="g2_537" />
<path fill-rule="evenodd" d="M329.1,260.8l2.1,6.2l-23.8,1l19.7,-13.4Z" class="g2_537" />
<path d="M413.5,234.3l-0.9,-2.8l-83.2,27.6l0.9,2.9Z" class="g2_537" />
<path fill-rule="evenodd" d="M560.3,260.7l0.1,0.3l0.2,0.2c1,1.2,2.8,0.2,2.7,-1.2l-0.1,-0.3l-0.1,-0.3c-0.7,-1.2,-2.8,-0.8,-2.8,0.7l0,0.6Z" class="g2_537" />
<path d="M561.7,260.2l2.2,6.2l0.2,1l-0.9,0.1l-23.7,1.3l-2.7,0.1l2.2,-1.6l19.4,-13.7l0.9,-0.6l0.3,0.9l-0.3,0.9l-19.4,13.8L539,267.3l0.4,-0.1l23.7,-1.3l0.1,1.6l-0.7,-0.6l-2.2,-6.2Z" class="g2_537" />
<path d="M559.6,253.9l2.1,6.3l-1.4,0.5l-2.2,-6.2Z" class="g2_537" />
<path fill-rule="evenodd" d="M561,260.4l2.2,6.3l-23.7,1.2l19.4,-13.7Z" class="g2_537" />
<path d="M640.5,234.3l-1,-2.8l-78.2,27.3l1,2.8Z" class="g2_537" />
</svg>