<?xml version="1.0" encoding="UTF-8" standalone="no"?>
<!DOCTYPE svg PUBLIC "-//W3C//DTD SVG 1.1//EN"
"http://www.w3.org/Graphics/SVG/1.1/DTD/svg11.dtd">
<svg viewBox="0 0 935 1210" version="1.1" xmlns="http://www.w3.org/2000/svg" xmlns:xlink="http://www.w3.org/1999/xlink">
<defs>
<style type="text/css"><![CDATA[
.g1_2179{
fill: #FFFFFF;
}
.g2_2179{
}
]]></style>
</defs>
<path d="M68.9,1149.3l783.8,0l0,-21.2l-783.8,0l0,21.2Z" class="g1_2179" />
<path d="M69.8,513.3l0.7,0l0,-389.2l-0.7,0l0,389.2Z" class="g2_2179" />
<path d="M69.9,627.6l0.5,0l0,-114.3l-0.5,0l0,114.3Z" class="g2_2179" />
<path d="M69.8,673.4l0.7,0l0,-45.1l-0.7,0l0,45.1Z" class="g2_2179" />
<path d="M69.9,833.8l0.5,0l0,-159.7l-0.5,0l0,159.7Z" class="g2_2179" />
<path d="M69.8,948.4l0.7,0l0,-113.8l-0.7,0l0,113.8Z" class="g2_2179" />
<path d="M69.9,994.2l0.5,0l0,-45l-0.5,0l0,45Z" class="g2_2179" />
<path d="M69.8,1085.9l0.7,0l0,-90.9l-0.7,0l0,90.9Z" class="g2_2179" />
<path d="M261.7,513l0.7,0l0,-389.6l-0.7,0l0,389.6Z" class="g2_2179" />
<path d="M261.8,628.3l0.6,0l0,-114.6l-0.6,0l0,114.6Z" class="g2_2179" />
<path d="M261.7,674.1l0.7,0l0,-46.6l-0.7,0l0,46.6Z" class="g2_2179" />
<path d="M261.8,834.6l0.6,0l0,-161.2l-0.6,0l0,161.2Z" class="g2_2179" />
<path d="M261.7,949.2l0.7,0l0,-115.4l-0.7,0l0,115.4Z" class="g2_2179" />
<path d="M261.8,995l0.6,0l0,-46.6l-0.6,0l0,46.6Z" class="g2_2179" />
<path d="M261.7,1086.7l0.7,0l0,-92.5l-0.7,0l0,92.5Z" class="g2_2179" />
<path d="M852.2,513l0.8,0l0,-388.9l-0.8,0l0,388.9Z" class="g2_2179" />
<path d="M852.3,627.6l0.6,0l0,-113.9l-0.6,0l0,113.9Z" class="g2_2179" />
<path d="M852.2,673.4l0.8,0l0,-45.1l-0.8,0l0,45.1Z" class="g2_2179" />
<path d="M852.3,833.8l0.6,0l0,-159.7l-0.6,0l0,159.7Z" class="g2_2179" />
<path d="M852.2,948.4l0.8,0l0,-113.8l-0.8,0l0,113.8Z" class="g2_2179" />
<path d="M852.3,994.2l0.6,0l0,-45l-0.6,0l0,45Z" class="g2_2179" />
<path d="M852.2,1085.9l0.8,0L853,995l-0.8,0l0,90.9Z" class="g2_2179" />
<path d="M69.8,124.1l783.2,0l0,-0.7l-783.2,0l0,0.7Z" class="g2_2179" />
<path d="M69.8,147L853,147l0,-0.7l-783.2,0l0,0.7Z" class="g2_2179" />
<path d="M261.7,169.9l591.3,0l0,-0.7l-591.3,0l0,0.7Z" class="g2_2179" />
<path d="M261.7,192.9l591.3,0l0,-0.8l-591.3,0l0,0.8Z" class="g2_2179" />
<path d="M261.7,215.8l591.3,0l0,-0.8l-591.3,0l0,0.8Z" class="g2_2179" />
<path d="M69.8,238.7l783.2,0l0,-0.7L69.8,238l0,0.7Z" class="g2_2179" />
<path d="M261.7,261.6l591.3,0l0,-0.7l-591.3,0l0,0.7Z" class="g2_2179" />
<path d="M261.7,284.5l591.3,0l0,-0.7l-591.3,0l0,0.7Z" class="g2_2179" />
<path d="M261.7,307.4l591.3,0l0,-0.7l-591.3,0l0,0.7Z" class="g2_2179" />
<path d="M261.7,330.4l591.3,0l0,-0.8l-591.3,0l0,0.8Z" class="g2_2179" />
<path d="M261.7,353.3l591.3,0l0,-0.7l-591.3,0l0,0.7Z" class="g2_2179" />
<path d="M69.8,376.2l783.2,0l0,-0.7l-783.2,0l0,0.7Z" class="g2_2179" />
<path d="M69.8,399.1l783.2,0l0,-0.7l-783.2,0l0,0.7Z" class="g2_2179" />
<path d="M69.8,422L853,422l0,-0.7l-783.2,0l0,0.7Z" class="g2_2179" />
<path d="M69.8,444.9l783.2,0l0,-0.7l-783.2,0l0,0.7Z" class="g2_2179" />
<path d="M69.8,467.9l783.2,0l0,-0.8l-783.2,0l0,0.8Z" class="g2_2179" />
<path d="M69.8,490.8l783.2,0l0,-0.8L69.8,490l0,0.8Z" class="g2_2179" />
<path d="M261.7,513.7l591.3,0l0,-0.7l-591.3,0l0,0.7Z" class="g2_2179" />
<path d="M69.9,536.5l783,0l0,-0.5l-783,0l0,0.5Z" class="g2_2179" />
<path d="M261.8,559.4l591.1,0l0,-0.5l-591.1,0l0,0.5Z" class="g2_2179" />
<path d="M69.9,582.4l783,0l0,-0.6l-783,0l0,0.6Z" class="g2_2179" />
<path d="M261.8,605.3l591.1,0l0,-0.6l-591.1,0l0,0.6Z" class="g2_2179" />
<path d="M69.8,628.3l783.2,0l0,-0.7l-783.2,0l0,0.7Z" class="g2_2179" />
<path d="M261.7,651.2l591.3,0l0,-0.7l-591.3,0l0,0.7Z" class="g2_2179" />
<path d="M69.8,674.1l783.2,0l0,-0.7l-783.2,0l0,0.7Z" class="g2_2179" />
<path d="M69.9,696.9l783,0l0,-0.5l-783,0l0,0.5Z" class="g2_2179" />
<path d="M261.8,719.9l591.1,0l0,-0.6l-591.1,0l0,0.6Z" class="g2_2179" />
<path d="M69.9,742.8l783,0l0,-0.6l-783,0l0,0.6Z" class="g2_2179" />
<path d="M261.8,765.7l591.1,0l0,-0.6l-591.1,0l0,0.6Z" class="g2_2179" />
<path d="M69.9,788.6l783,0l0,-0.5l-783,0l0,0.5Z" class="g2_2179" />
<path d="M261.8,811.5l591.1,0l0,-0.5l-591.1,0l0,0.5Z" class="g2_2179" />
<path d="M69.8,834.5l783.2,0l0,-0.7l-783.2,0l0,0.7Z" class="g2_2179" />
<path d="M69.8,857.5l783.2,0l0,-0.8l-783.2,0l0,0.8Z" class="g2_2179" />
<path d="M69.8,880.4l783.2,0l0,-0.8l-783.2,0l0,0.8Z" class="g2_2179" />
<path d="M69.8,903.3l783.2,0l0,-0.7l-783.2,0l0,0.7Z" class="g2_2179" />
<path d="M69.8,926.2l783.2,0l0,-0.7l-783.2,0l0,0.7Z" class="g2_2179" />
<path d="M69.8,949.1l783.2,0l0,-0.7l-783.2,0l0,0.7Z" class="g2_2179" />
<path d="M261.8,971.9l591.1,0l0,-0.5l-591.1,0l0,0.5Z" class="g2_2179" />
<path d="M69.8,995L853,995l0,-0.8l-783.2,0l0,0.8Z" class="g2_2179" />
<path d="M69.8,1017.9l783.2,0l0,-0.8l-783.2,0l0,0.8Z" class="g2_2179" />
<path d="M69.8,1040.8l783.2,0l0,-0.8l-783.2,0l0,0.8Z" class="g2_2179" />
<path d="M69.8,1063.7l783.2,0l0,-0.7l-783.2,0l0,0.7Z" class="g2_2179" />
<path d="M69.8,1086.6l783.2,0l0,-0.7l-783.2,0l0,0.7Z" class="g2_2179" />
</svg>