<?xml version="1.0" encoding="UTF-8" standalone="no"?>
<!DOCTYPE svg PUBLIC "-//W3C//DTD SVG 1.1//EN"
"http://www.w3.org/Graphics/SVG/1.1/DTD/svg11.dtd">
<svg viewBox="0 0 935 1210" version="1.1" xmlns="http://www.w3.org/2000/svg" xmlns:xlink="http://www.w3.org/1999/xlink">
<defs>
<style type="text/css"><![CDATA[
.g1_423{
fill: #FFFFFF;
}
.g2_423{
}
]]></style>
</defs>
<path d="M68.9,1149.3l686.3,0l0,-21.2l-686.3,0l0,21.2Z" class="g1_423" />
<path d="M771.3,1149.3l83.7,0l0,-21.2l-83.7,0l0,21.2Z" class="g1_423" />
<path d="M70,262.4l0.8,0l0,-116.8l-0.8,0l0,116.8Z" class="g2_423" />
<path d="M211.1,263.2l0.7,0l0,-118.5l-0.7,0l0,118.5Z" class="g2_423" />
<path d="M349.3,263.2l0.7,0l0,-118.5l-0.7,0l0,118.5Z" class="g2_423" />
<path d="M415.5,263.2l0.8,0l0,-118.5l-0.8,0l0,118.5Z" class="g2_423" />
<path d="M499,263.2l0.8,0l0,-118.5l-0.8,0l0,118.5Z" class="g2_423" />
<path d="M852,262.4l0.7,0l0,-116.8l-0.7,0l0,116.8Z" class="g2_423" />
<path d="M70,145.5l782.7,0l0,-0.8L70,144.7l0,0.8Z" class="g2_423" />
<path d="M70,183.7l782.7,0l0,-0.7L70,183l0,0.7Z" class="g2_423" />
<path d="M70,223.4l782.7,0l0,-0.7L70,222.7l0,0.7Z" class="g2_423" />
<path d="M70,263.2l782.7,0l0,-0.8L70,262.4l0,0.8Z" class="g2_423" />
</svg>