<?xml version="1.0" encoding="UTF-8" standalone="no"?>
<!DOCTYPE svg PUBLIC "-//W3C//DTD SVG 1.1//EN"
"http://www.w3.org/Graphics/SVG/1.1/DTD/svg11.dtd">
<svg viewBox="0 0 935 1210" version="1.1" xmlns="http://www.w3.org/2000/svg" xmlns:xlink="http://www.w3.org/1999/xlink">
<defs>
<style type="text/css"><![CDATA[
.g1_1217{
fill: #FFFFFF;
}
.g2_1217{
}
.g3_1217{
fill: #E6E6E6;
}
]]></style>
</defs>
<path d="M68.9,1149.3l686.3,0l0,-21.2l-686.3,0l0,21.2Z" class="g1_1217" />
<path d="M771.3,1149.3l83.7,0l0,-21.2l-83.7,0l0,21.2Z" class="g1_1217" />
<path d="M170.6,264l0.7,0l0,-150.5l-0.7,0l0,150.5Z" class="g2_1217" />
<path d="M751.4,264l0.7,0l0,-150.5l-0.7,0l0,150.5Z" class="g2_1217" />
<path d="M170.6,113.4l581.5,0l0,-0.7l-581.5,0l0,0.7Z" class="g2_1217" />
<path d="M170.6,264.7l581.5,0l0,-0.7l-581.5,0l0,0.7Z" class="g2_1217" />
<path d="M69.9,548.2l0.8,0l0,-205.6l-0.8,0l0,205.6Z" class="g2_1217" />
<path d="M171.2,548.9l0.8,0l0,-207l-0.8,0l0,207Z" class="g2_1217" />
<path d="M236.9,548.9l0.7,0l0,-207l-0.7,0l0,207Z" class="g2_1217" />
<path d="M853.2,548.2l0.8,0l0,-205.6l-0.8,0l0,205.6Z" class="g2_1217" />
<path d="M69.9,342.7l784.1,0l0,-0.8l-784.1,0l0,0.8Z" class="g2_1217" />
<path d="M69.9,383.9l784.1,0l0,-0.7l-784.1,0l0,0.7Z" class="g2_1217" />
<path d="M69.9,425.2l784.1,0l0,-0.8l-784.1,0l0,0.8Z" class="g2_1217" />
<path d="M69.9,466.4l784.1,0l0,-0.7l-784.1,0l0,0.7Z" class="g2_1217" />
<path d="M69.9,507.7l784.1,0l0,-0.8l-784.1,0l0,0.8Z" class="g2_1217" />
<path d="M69.9,548.9l784.1,0l0,-0.7l-784.1,0l0,0.7Z" class="g2_1217" />
<path d="M257.3,181l363,0l0,-41.6l-363,0l0,41.6Z" class="g3_1217" />
<path d="M421.8,243.1l243.4,0l0,-0.5l-243.4,0l0,0.5Z" class="g2_1217" />
<path d="M664.8,242.8l0.4,0l0,-62.3l-0.4,0l0,62.3Z" class="g2_1217" />
<path d="M569.1,229.1l69.9,0l0,-0.5l-69.9,0l0,0.5Z" class="g2_1217" />
<path d="M638.5,228.8l0.5,0l0,-48.1l-0.5,0l0,48.1Z" class="g2_1217" />
<path d="M257.6,139.4l413.8,0l0,-0.7l-413.8,0l0,0.7Z" class="g2_1217" />
<path d="M670.6,181.5l0.8,0l0,-42.4l-0.8,0l0,42.4Z" class="g2_1217" />
<path d="M257.2,181.5l413.8,0l0,-0.7l-413.8,0l0,0.7Z" class="g2_1217" />
<path d="M257.2,181.1l0.7,0l0,-42.4l-0.7,0l0,42.4Z" class="g2_1217" />
<path d="M619.8,139.2l0.4,0l0,-0.2l-0.4,0l0,0.2Z" class="g2_1217" />
<path d="M619.8,181l0.4,0l0,-41.8l-0.4,0l0,41.8Z" class="g2_1217" />
<path d="M632.1,139.2l0.5,0l0,-0.2l-0.5,0l0,0.2Z" class="g2_1217" />
<path d="M632.1,181l0.5,0l0,-41.8l-0.5,0l0,41.8Z" class="g2_1217" />
<path d="M645,139.2l0.4,0l0,-0.2l-0.4,0l0,0.2Z" class="g2_1217" />
<path d="M645,181l0.4,0l0,-41.8l-0.4,0l0,41.8Z" class="g2_1217" />
<path d="M566.3,215.4l59.9,0l0,-0.4l-59.9,0l0,0.4Z" class="g2_1217" />
<path d="M625.7,215.1l0.5,0l0,-34.2l-0.5,0l0,34.2Z" class="g2_1217" />
</svg>