<?xml version="1.0" encoding="UTF-8" standalone="no"?>
<!DOCTYPE svg PUBLIC "-//W3C//DTD SVG 1.1//EN"
"http://www.w3.org/Graphics/SVG/1.1/DTD/svg11.dtd">
<svg viewBox="0 0 935 1210" version="1.1" xmlns="http://www.w3.org/2000/svg" xmlns:xlink="http://www.w3.org/1999/xlink">
<defs>
<clipPath id="c0_1684"><path d="M68.9,660.6l0,-29.6l783.6,0l0,29.6Z" /></clipPath>
<style type="text/css"><![CDATA[
.g1_1684{
fill: #FFFFFF;
}
.g2_1684{
}
]]></style>
</defs>
<path d="M165,1149.3l687.5,0l0,-21.2l-687.5,0l0,21.2Z" class="g1_1684" />
<path d="M68.8,1149.3l82.5,0l0,-21.2l-82.5,0l0,21.2Z" class="g1_1684" />
<g clip-path="url(#c0_1684)">
<path d="M68.9,660.6l783.6,0l0,-29.6L68.9,631l0,29.6Z" class="g1_1684" />
</g>
<path d="M69.9,654l53.5,0l0,-12.5l-53.5,0l0,12.5Z" class="g1_1684" />
<path d="M68.6,630.6l0.7,0l0,-504.9l-0.7,0l0,504.9Z" class="g2_1684" />
<path d="M303,631.4l0.7,0l0,-506.5l-0.7,0l0,506.5Z" class="g2_1684" />
<path d="M347.1,631.4l0.8,0l0,-506.5l-0.8,0l0,506.5Z" class="g2_1684" />
<path d="M417.1,631.4l0.7,0l0,-506.5l-0.7,0l0,506.5Z" class="g2_1684" />
<path d="M505.7,631.4l0.8,0l0,-506.5l-0.8,0l0,506.5Z" class="g2_1684" />
<path d="M852.1,630.6l0.8,0l0,-504.9l-0.8,0l0,504.9Z" class="g2_1684" />
<path d="M68.6,125.7l784.3,0l0,-0.8l-784.3,0l0,0.8Z" class="g2_1684" />
<path d="M68.6,191.3l784.3,0l0,-0.7l-784.3,0l0,0.7Z" class="g2_1684" />
<path d="M68.6,228l784.3,0l0,-0.8l-784.3,0l0,0.8Z" class="g2_1684" />
<path d="M68.6,264.6l784.3,0l0,-0.7l-784.3,0l0,0.7Z" class="g2_1684" />
<path d="M68.6,301.3l784.3,0l0,-0.7l-784.3,0l0,0.7Z" class="g2_1684" />
<path d="M68.6,338l784.3,0l0,-0.8l-784.3,0l0,0.8Z" class="g2_1684" />
<path d="M68.6,374.6l784.3,0l0,-0.7l-784.3,0l0,0.7Z" class="g2_1684" />
<path d="M68.6,411.4l784.3,0l0,-0.7l-784.3,0l0,0.7Z" class="g2_1684" />
<path d="M68.6,448.1l784.3,0l0,-0.8l-784.3,0l0,0.8Z" class="g2_1684" />
<path d="M68.6,484.7l784.3,0l0,-0.7L68.6,484l0,0.7Z" class="g2_1684" />
<path d="M68.6,521.4l784.3,0l0,-0.7l-784.3,0l0,0.7Z" class="g2_1684" />
<path d="M68.6,558.1l784.3,0l0,-0.8l-784.3,0l0,0.8Z" class="g2_1684" />
<path d="M68.6,594.7l784.3,0l0,-0.7L68.6,594l0,0.7Z" class="g2_1684" />
<path d="M68.6,631.4l784.3,0l0,-0.7l-784.3,0l0,0.7Z" class="g2_1684" />
<path d="M69.6,783.9l0.7,0l0,-48.1l-0.7,0l0,48.1Z" class="g2_1684" />
<path d="M180.3,784.8l0.7,0l0,-49.7l-0.7,0l0,49.7Z" class="g2_1684" />
<path d="M347.3,784.8l0.8,0l0,-49.7l-0.8,0l0,49.7Z" class="g2_1684" />
<path d="M514.3,784.8l0.7,0l0,-49.7l-0.7,0l0,49.7Z" class="g2_1684" />
<path d="M682.6,784.8l0.8,0l0,-49.7l-0.8,0l0,49.7Z" class="g2_1684" />
<path d="M850.8,783.9l0.7,0l0,-48.1l-0.7,0l0,48.1Z" class="g2_1684" />
<path d="M69.6,735.8l781.9,0l0,-0.7l-781.9,0l0,0.7Z" class="g2_1684" />
<path d="M69.6,760.3l781.9,0l0,-0.7l-781.9,0l0,0.7Z" class="g2_1684" />
<path d="M69.6,784.8l781.9,0l0,-0.8L69.6,784l0,0.8Z" class="g2_1684" />
</svg>