<?xml version="1.0" encoding="UTF-8" standalone="no"?>
<!DOCTYPE svg PUBLIC "-//W3C//DTD SVG 1.1//EN"
"http://www.w3.org/Graphics/SVG/1.1/DTD/svg11.dtd">
<svg viewBox="0 0 935 1210" version="1.1" xmlns="http://www.w3.org/2000/svg" xmlns:xlink="http://www.w3.org/1999/xlink">
<defs>
<style type="text/css"><![CDATA[
.g1_872{
fill: #FFFFFF;
}
.g2_872{
}
]]></style>
</defs>
<path d="M165,1149.3l687.5,0l0,-21.2l-687.5,0l0,21.2Z" class="g1_872" />
<path d="M68.8,1149.3l82.5,0l0,-21.2l-82.5,0l0,21.2Z" class="g1_872" />
<path d="M280.1,701.1l51.9,0l0,-27.5l-51.9,0l0,27.5Z" class="g1_872" />
<path d="M280.1,673.9l52.3,0l0,-0.7l-52.3,0l0,0.7Z" class="g2_872" />
<path d="M331.7,701.4l0.7,0l0,-27.8l-0.7,0l0,27.8Z" class="g2_872" />
<path d="M279.8,701.4l52.2,0l0,-0.7l-52.2,0l0,0.7Z" class="g2_872" />
<path d="M279.8,701.1l0.7,0l0,-27.9l-0.7,0l0,27.9Z" class="g2_872" />
<path d="M332,701.1l52,0l0,-27.5l-52,0l0,27.5Z" class="g1_872" />
<path d="M332,673.9l52.4,0l0,-0.7l-52.4,0l0,0.7Z" class="g2_872" />
<path d="M383.6,701.4l0.8,0l0,-27.8l-0.8,0l0,27.8Z" class="g2_872" />
<path d="M331.7,701.4l52.3,0l0,-0.7l-52.3,0l0,0.7Z" class="g2_872" />
<path d="M331.7,701.1l0.7,0l0,-27.9l-0.7,0l0,27.9Z" class="g2_872" />
<path d="M384,701.1l52,0l0,-27.5l-52,0l0,27.5Z" class="g1_872" />
<path d="M384,673.9l52.3,0l0,-0.7l-52.3,0l0,0.7Z" class="g2_872" />
<path d="M435.6,701.4l0.7,0l0,-27.8l-0.7,0l0,27.8Z" class="g2_872" />
<path d="M383.6,701.4l52.4,0l0,-0.7l-52.4,0l0,0.7Z" class="g2_872" />
<path d="M383.6,701.1l0.8,0l0,-27.9l-0.8,0l0,27.9Z" class="g2_872" />
<path d="M436,701.1l51.9,0l0,-27.5l-51.9,0l0,27.5Z" class="g1_872" />
<path d="M436,673.9l52.3,0l0,-0.7l-52.3,0l0,0.7Z" class="g2_872" />
<path d="M487.6,701.4l0.7,0l0,-27.8l-0.7,0l0,27.8Z" class="g2_872" />
<path d="M435.6,701.4l52.3,0l0,-0.7l-52.3,0l0,0.7Z" class="g2_872" />
<path d="M435.6,701.1l0.7,0l0,-27.9l-0.7,0l0,27.9Z" class="g2_872" />
<path d="M488.9,701.3l51.9,0l0,-27.5l-51.9,0l0,27.5Z" class="g1_872" />
<path d="M488.9,674.1l52.3,0l0,-0.7l-52.3,0l0,0.7Z" class="g2_872" />
<path d="M540.5,701.6l0.7,0l0,-27.8l-0.7,0l0,27.8Z" class="g2_872" />
<path d="M488.5,701.6l52.3,0l0,-0.7l-52.3,0l0,0.7Z" class="g2_872" />
<path d="M488.5,701.3l0.7,0l0,-27.9l-0.7,0l0,27.9Z" class="g2_872" />
<path d="M540.8,701.3l52,0l0,-27.5l-52,0l0,27.5Z" class="g1_872" />
<path d="M540.8,674.1l52.4,0l0,-0.7l-52.4,0l0,0.7Z" class="g2_872" />
<path d="M592.4,701.6l0.8,0l0,-27.8l-0.8,0l0,27.8Z" class="g2_872" />
<path d="M540.5,701.6l52.3,0l0,-0.7l-52.3,0l0,0.7Z" class="g2_872" />
<path d="M540.5,701.3l0.7,0l0,-27.9l-0.7,0l0,27.9Z" class="g2_872" />
<path d="M592.8,701.3l51.9,0l0,-27.5l-51.9,0l0,27.5Z" class="g1_872" />
<path d="M592.8,674.1l52.3,0l0,-0.7l-52.3,0l0,0.7Z" class="g2_872" />
<path d="M644.3,701.6l0.8,0l0,-27.8l-0.8,0l0,27.8Z" class="g2_872" />
<path d="M592.4,701.6l52.3,0l0,-0.7l-52.3,0l0,0.7Z" class="g2_872" />
<path d="M592.4,701.3l0.8,0l0,-27.9l-0.8,0l0,27.9Z" class="g2_872" />
<path d="M644.7,701.3l52,0l0,-27.5l-52,0l0,27.5Z" class="g1_872" />
<path d="M644.7,674.1l52.3,0l0,-0.7l-52.3,0l0,0.7Z" class="g2_872" />
<path d="M696.3,701.6l0.7,0l0,-27.8l-0.7,0l0,27.8Z" class="g2_872" />
<path d="M644.3,701.6l52.4,0l0,-0.7l-52.4,0l0,0.7Z" class="g2_872" />
<path d="M644.3,701.3l0.8,0l0,-27.9l-0.8,0l0,27.9Z" class="g2_872" />
<path d="M670.4,673.8l0.7,0l0,-0.4l-0.7,0l0,0.4Z" class="g2_872" />
<path d="M670.4,701.6l0.7,0l0,-27.8l-0.7,0l0,27.8Z" class="g2_872" />
<path d="M618.4,674.9l0.7,0l0,-0.3l-0.7,0l0,0.3Z" class="g2_872" />
<path d="M618.4,702.8l0.7,0l0,-27.9l-0.7,0l0,27.9Z" class="g2_872" />
<path d="M565.5,673.5l0.7,0l0,-0.4l-0.7,0l0,0.4Z" class="g2_872" />
<path d="M565.5,701.3l0.7,0l0,-27.8l-0.7,0l0,27.8Z" class="g2_872" />
<path d="M512.7,674.7l0.7,0l0,-0.4l-0.7,0l0,0.4Z" class="g2_872" />
<path d="M512.7,702.5l0.7,0l0,-27.8l-0.7,0l0,27.8Z" class="g2_872" />
<path d="M461.5,674.9l0.8,0l0,-0.3l-0.8,0l0,0.3Z" class="g2_872" />
<path d="M461.5,702.8l0.8,0l0,-27.9l-0.8,0l0,27.9Z" class="g2_872" />
<path d="M409.6,675.3l0.7,0l0,-0.4l-0.7,0l0,0.4Z" class="g2_872" />
<path d="M409.6,703.2l0.7,0l0,-27.9l-0.7,0l0,27.9Z" class="g2_872" />
<path d="M356.7,675.6l0.7,0l0,-0.4l-0.7,0l0,0.4Z" class="g2_872" />
<path d="M356.7,703.5l0.7,0l0,-27.9l-0.7,0l0,27.9Z" class="g2_872" />
<path d="M305.5,674.9l0.8,0l0,-0.3l-0.8,0l0,0.3Z" class="g2_872" />
<path d="M305.5,702.8l0.8,0l0,-27.9l-0.8,0l0,27.9Z" class="g2_872" />
<path d="M634.6,692.4l0.4,0l0,-0.7l-0.4,0l0,0.7Z" class="g2_872" />
<path d="M449.8,692.4l184.8,0l0,-0.7l-184.8,0l0,0.7Z" class="g2_872" />
<path d="M200.7,776.5l53.5,0l0,-26.9l-53.5,0l0,26.9Z" class="g1_872" />
<path d="M200.7,749.9l53.9,0l0,-0.7l-53.9,0l0,0.7Z" class="g2_872" />
<path d="M253.8,776.9l0.8,0l0,-27.3l-0.8,0l0,27.3Z" class="g2_872" />
<path d="M200.4,776.9l53.8,0l0,-0.8l-53.8,0l0,0.8Z" class="g2_872" />
<path d="M200.4,776.5l0.7,0l0,-27.3l-0.7,0l0,27.3Z" class="g2_872" />
<path d="M254.2,776.5l53.4,0l0,-26.9l-53.4,0l0,26.9Z" class="g1_872" />
<path d="M254.2,749.9l53.8,0l0,-0.7l-53.8,0l0,0.7Z" class="g2_872" />
<path d="M307.3,776.9l0.7,0l0,-27.3l-0.7,0l0,27.3Z" class="g2_872" />
<path d="M253.8,776.9l53.8,0l0,-0.8l-53.8,0l0,0.8Z" class="g2_872" />
<path d="M253.8,776.5l0.8,0l0,-27.3l-0.8,0l0,27.3Z" class="g2_872" />
<path d="M307.6,776.5l53.4,0l0,-26.9l-53.4,0l0,26.9Z" class="g1_872" />
<path d="M307.6,749.9l53.8,0l0,-0.7l-53.8,0l0,0.7Z" class="g2_872" />
<path d="M360.6,776.9l0.8,0l0,-27.3l-0.8,0l0,27.3Z" class="g2_872" />
<path d="M307.3,776.9l53.7,0l0,-0.8l-53.7,0l0,0.8Z" class="g2_872" />
<path d="M307.3,776.5l0.7,0l0,-27.3l-0.7,0l0,27.3Z" class="g2_872" />
<path d="M361,776.5l53.4,0l0,-26.9l-53.4,0l0,26.9Z" class="g1_872" />
<path d="M361,749.9l53.8,0l0,-0.7l-53.8,0l0,0.7Z" class="g2_872" />
<path d="M414.1,776.9l0.7,0l0,-27.3l-0.7,0l0,27.3Z" class="g2_872" />
<path d="M360.6,776.9l53.8,0l0,-0.8l-53.8,0l0,0.8Z" class="g2_872" />
<path d="M360.6,776.5l0.8,0l0,-27.3l-0.8,0l0,27.3Z" class="g2_872" />
<path d="M415.4,776.8l53.5,0l0,-27.1l-53.5,0l0,27.1Z" class="g1_872" />
<path d="M415.4,750.1l53.8,0l0,-0.7l-53.8,0l0,0.7Z" class="g2_872" />
<path d="M468.5,777.1l0.7,0l0,-27.4l-0.7,0l0,27.4Z" class="g2_872" />
<path d="M415.1,777.1l53.8,0l0,-0.7l-53.8,0l0,0.7Z" class="g2_872" />
<path d="M415.1,776.8l0.7,0l0,-27.4l-0.7,0l0,27.4Z" class="g2_872" />
<path d="M468.9,776.8l53.3,0l0,-27.1l-53.3,0l0,27.1Z" class="g1_872" />
<path d="M468.9,750.1l53.7,0l0,-0.7l-53.7,0l0,0.7Z" class="g2_872" />
<path d="M521.9,777.1l0.7,0l0,-27.4l-0.7,0l0,27.4Z" class="g2_872" />
<path d="M468.5,777.1l53.7,0l0,-0.7l-53.7,0l0,0.7Z" class="g2_872" />
<path d="M468.5,776.8l0.7,0l0,-27.4l-0.7,0l0,27.4Z" class="g2_872" />
<path d="M522.2,776.8l53.5,0l0,-27.1l-53.5,0l0,27.1Z" class="g1_872" />
<path d="M522.2,750.1l53.8,0l0,-0.7l-53.8,0l0,0.7Z" class="g2_872" />
<path d="M575.3,777.1l0.7,0l0,-27.4l-0.7,0l0,27.4Z" class="g2_872" />
<path d="M521.9,777.1l53.8,0l0,-0.7l-53.8,0l0,0.7Z" class="g2_872" />
<path d="M521.9,776.8l0.7,0l0,-27.4l-0.7,0l0,27.4Z" class="g2_872" />
<path d="M575.7,776.8l53.4,0l0,-27.1l-53.4,0l0,27.1Z" class="g1_872" />
<path d="M575.7,750.1l53.8,0l0,-0.7l-53.8,0l0,0.7Z" class="g2_872" />
<path d="M628.7,777.1l0.8,0l0,-27.4l-0.8,0l0,27.4Z" class="g2_872" />
<path d="M575.3,777.1l53.8,0l0,-0.7l-53.8,0l0,0.7Z" class="g2_872" />
<path d="M575.3,776.8l0.7,0l0,-27.4l-0.7,0l0,27.4Z" class="g2_872" />
<path d="M602.1,777.1l0.7,0l0,-27.7l-0.7,0l0,27.7Z" class="g2_872" />
<path d="M548.6,778.3l0.8,0l0,-27.6l-0.8,0l0,27.6Z" class="g2_872" />
<path d="M494.3,776.8l0.7,0l0,-27.7l-0.7,0l0,27.7Z" class="g2_872" />
<path d="M439.9,778.1l0.7,0l0,-27.8l-0.7,0l0,27.8Z" class="g2_872" />
<path d="M387.3,778.3l0.7,0l0,-27.6l-0.7,0l0,27.6Z" class="g2_872" />
<path d="M333.9,778.6l0.7,0l0,-27.7l-0.7,0l0,27.7Z" class="g2_872" />
<path d="M279.5,778.9l0.7,0l0,-27.7l-0.7,0l0,27.7Z" class="g2_872" />
<path d="M227,778.3l0.7,0l0,-27.6l-0.7,0l0,27.6Z" class="g2_872" />
<path d="M253.6,873.3l53.3,0l0,-27l-53.3,0l0,27Z" class="g1_872" />
<path d="M253.6,846.6l53.7,0l0,-0.7l-53.7,0l0,0.7Z" class="g2_872" />
<path d="M306.5,873.7l0.8,0l0,-27.4l-0.8,0l0,27.4Z" class="g2_872" />
<path d="M253.2,873.7l53.7,0l0,-0.8l-53.7,0l0,0.8Z" class="g2_872" />
<path d="M253.2,873.3l0.7,0l0,-27.4l-0.7,0l0,27.4Z" class="g2_872" />
<path d="M306.9,873.3l53.4,0l0,-27l-53.4,0l0,27Z" class="g1_872" />
<path d="M306.9,846.6l53.8,0l0,-0.7l-53.8,0l0,0.7Z" class="g2_872" />
<path d="M360,873.7l0.7,0l0,-27.4l-0.7,0l0,27.4Z" class="g2_872" />
<path d="M306.5,873.7l53.8,0l0,-0.8l-53.8,0l0,0.8Z" class="g2_872" />
<path d="M306.5,873.3l0.8,0l0,-27.4l-0.8,0l0,27.4Z" class="g2_872" />
<path d="M360.3,873.3l53.5,0l0,-27l-53.5,0l0,27Z" class="g1_872" />
<path d="M360.3,846.6l53.9,0l0,-0.7l-53.9,0l0,0.7Z" class="g2_872" />
<path d="M413.4,873.7l0.7,0l0,-27.4l-0.7,0l0,27.4Z" class="g2_872" />
<path d="M360,873.7l53.8,0l0,-0.8l-53.8,0l0,0.8Z" class="g2_872" />
<path d="M360,873.3l0.7,0l0,-27.4l-0.7,0l0,27.4Z" class="g2_872" />
<path d="M413.8,873.3l53.4,0l0,-27l-53.4,0l0,27Z" class="g1_872" />
<path d="M413.8,846.6l53.8,0l0,-0.7l-53.8,0l0,0.7Z" class="g2_872" />
<path d="M466.9,873.7l0.7,0l0,-27.4l-0.7,0l0,27.4Z" class="g2_872" />
<path d="M413.4,873.7l53.8,0l0,-0.8l-53.8,0l0,0.8Z" class="g2_872" />
<path d="M413.4,873.3l0.7,0l0,-27.4l-0.7,0l0,27.4Z" class="g2_872" />
<path d="M468.1,873.5l53.5,0l0,-27l-53.5,0l0,27Z" class="g1_872" />
<path d="M468.1,846.8l53.9,0l0,-0.7l-53.9,0l0,0.7Z" class="g2_872" />
<path d="M521.2,873.9l0.8,0l0,-27.5l-0.8,0l0,27.5Z" class="g2_872" />
<path d="M467.8,873.9l53.8,0l0,-0.8l-53.8,0l0,0.8Z" class="g2_872" />
<path d="M467.8,873.5l0.7,0l0,-27.4l-0.7,0l0,27.4Z" class="g2_872" />
<path d="M521.6,873.5l53.4,0l0,-27l-53.4,0l0,27Z" class="g1_872" />
<path d="M521.6,846.8l53.8,0l0,-0.7l-53.8,0l0,0.7Z" class="g2_872" />
<path d="M574.7,873.9l0.7,0l0,-27.5l-0.7,0l0,27.5Z" class="g2_872" />
<path d="M521.2,873.9l53.8,0l0,-0.8l-53.8,0l0,0.8Z" class="g2_872" />
<path d="M521.2,873.5l0.8,0l0,-27.4l-0.8,0l0,27.4Z" class="g2_872" />
<path d="M575,873.5l53.5,0l0,-27l-53.5,0l0,27Z" class="g1_872" />
<path d="M575,846.8l53.8,0l0,-0.7l-53.8,0l0,0.7Z" class="g2_872" />
<path d="M628.1,873.9l0.7,0l0,-27.5l-0.7,0l0,27.5Z" class="g2_872" />
<path d="M574.7,873.9l53.8,0l0,-0.8l-53.8,0l0,0.8Z" class="g2_872" />
<path d="M574.7,873.5l0.7,0l0,-27.4l-0.7,0l0,27.4Z" class="g2_872" />
<path d="M628.5,873.5l53.3,0l0,-27l-53.3,0l0,27Z" class="g1_872" />
<path d="M628.5,846.8l53.7,0l0,-0.7l-53.7,0l0,0.7Z" class="g2_872" />
<path d="M681.5,873.9l0.7,0l0,-27.5l-0.7,0l0,27.5Z" class="g2_872" />
<path d="M628.1,873.9l53.7,0l0,-0.8l-53.7,0l0,0.8Z" class="g2_872" />
<path d="M628.1,873.5l0.7,0l0,-27.4l-0.7,0l0,27.4Z" class="g2_872" />
<path d="M654.8,873.9l0.7,0l0,-27.7l-0.7,0l0,27.7Z" class="g2_872" />
<path d="M601.3,875l0.8,0l0,-27.6l-0.8,0l0,27.6Z" class="g2_872" />
<path d="M547,873.6l0.7,0l0,-27.8l-0.7,0l0,27.8Z" class="g2_872" />
<path d="M492.6,874.8l0.8,0l0,-27.8l-0.8,0l0,27.8Z" class="g2_872" />
<path d="M440.1,875l0.7,0l0,-27.6l-0.7,0l0,27.6Z" class="g2_872" />
<path d="M386.7,875.3l0.7,0l0,-27.7l-0.7,0l0,27.7Z" class="g2_872" />
<path d="M332.3,875.6l0.7,0l0,-27.7l-0.7,0l0,27.7Z" class="g2_872" />
<path d="M279.7,875l0.7,0l0,-27.6l-0.7,0l0,27.6Z" class="g2_872" />
<path d="M482.1,847l-0.8,0.2l0.4,1.6l0.7,-0.1Z" class="g2_872" />
<path d="M481.6,848.1l2.1,-1.4l1.4,-0.8l-0.2,1.6l-0.6,8.5l-0.2,2.6l-1.2,-2.3L479,848.8l-0.9,-1.4l1.6,0.2l0.5,0.4l4,7.5l-1.3,0.8l-0.1,-0.4l0.7,-8.5l1.4,0.1l-0.3,0.5l-2.1,1.4Z" class="g2_872" />
<path d="M479.7,847.6l2.5,0.4l0.3,1.4l-0.2,0.2L482,849.5l-2.5,-0.4Z" class="g2_872" />
<path fill-rule="evenodd" d="M482.1,848.7l2.1,-1.3l-0.7,8.5l-3.9,-7.5Z" class="g2_872" />
<path d="M449.6,692l-0.1,-0.4l-0.7,0.2l0.1,0.4Z" class="g2_872" />
<path d="M482.1,847l0.1,0.4l-0.8,0.1l-0.1,-0.3Z" class="g2_872" />
<path d="M449.6,692l-0.7,0.2l32.4,155l0.8,-0.2Z" class="g2_872" />
<path d="M374.6,766.4l185.2,0l0,-0.7l-185.2,0l0,0.7Z" class="g2_872" />
<path d="M667.1,848.6l-0.8,0.1l0.3,1.6l0.7,-0.2Z" class="g2_872" />
<path d="M666.5,849.6l2.2,-1.3l1.4,-0.8l-0.2,1.5l-0.7,8.5l-0.2,2.7l-1.2,-2.3l-3.9,-7.6L663,848.8l1.6,0.3l0.5,0.4l4,7.6l-1.3,0.8l-0.1,-0.4l0.7,-8.6l1.5,0.1l-0.4,0.6l-2.2,1.3Z" class="g2_872" />
<path d="M664.6,849.1l2.5,0.4l0.2,1.4l-0.2,0.1l-0.2,-0.1l-2.5,-0.3Z" class="g2_872" />
<path fill-rule="evenodd" d="M667,850.2l2.2,-1.3l-0.8,8.6l-3.9,-7.7Z" class="g2_872" />
<path d="M635.7,693.8l-0.1,-0.3l-0.7,0.1L635,694Z" class="g2_872" />
<path d="M667.1,848.6l0,0.3l-0.7,0.2l-0.1,-0.4Z" class="g2_872" />
<path d="M635.7,693.8L635,694l31.3,154.7l0.8,-0.1Z" class="g2_872" />
<path d="M461.3,853.5L460.7,853l-1.3,1.1l0.6,0.5Z" class="g2_872" />
<path d="M460.1,853.7l2.2,1.2l1.4,0.7l-1.5,0.7l-7.8,3.5l-2.5,1.1l1.6,-2.2l4.7,-7.1l0.9,-1.4l0.5,1.5l-0.1,0.7l-4.7,7.2l-1.3,-0.9l0.3,-0.2l7.7,-3.6l0.7,1.4l-0.7,-0.1L459.3,855Z" class="g2_872" />
<path d="M459.6,851.7l0.8,2.4l-1.1,0.9l-0.2,-0.1L459,854.6l-0.8,-2.4Z" class="g2_872" />
<path fill-rule="evenodd" d="M459.7,854.3l2.2,1.2l-7.8,3.6l4.8,-7.1Z" class="g2_872" />
<path d="M561.6,767.4l0.3,-0.1l-0.4,-0.6l-0.3,0.2Z" class="g2_872" />
<path d="M461.3,853.5l-0.3,0.2l-0.5,-0.6l0.3,-0.1Z" class="g2_872" />
<path d="M561.6,767.4l-0.4,-0.5L460.8,853l0.5,0.5Z" class="g2_872" />
<path d="M277.8,854.9l-0.6,-0.6l-1.2,1.1l0.6,0.6Z" class="g2_872" />
<path d="M276.7,855l2.2,1.2l1.3,0.7l-1.4,0.7l-7.7,3.7l-2.3,1.1l1.2,-2.2l4.5,-7.2l0.9,-1.3l0.6,1.4l-0.1,0.7l-4.5,7.2L270,860.2l0.4,-0.3l7.7,-3.6l0.7,1.3l-0.7,0l-2.2,-1.2Z" class="g2_872" />
<path d="M276,853.1l1,2.3l-1.1,1l-0.3,-0.1l0,-0.3l-1.1,-2.4Z" class="g2_872" />
<path fill-rule="evenodd" d="M276.3,855.7l2.2,1.2l-7.7,3.7l4.5,-7.3Z" class="g2_872" />
<path d="M376.1,766.8l0.3,-0.2l-0.5,-0.5l-0.3,0.1Z" class="g2_872" />
<path d="M277.8,854.9l-0.3,0.2L277,854.5l0.3,-0.2Z" class="g2_872" />
<path d="M376.1,766.8l-0.5,-0.6l-98.3,88.1l0.4,0.6Z" class="g2_872" />
<path d="M575.5,801.5l0.7,0l0,-14.6l-0.7,0l0,14.6Z" class="g2_872" />
<path d="M628,801.5l0.7,0l0,-14.6l-0.7,0l0,14.6Z" class="g2_872" />
<path d="M643.7,720.9l0.7,0l0,-14.8l-0.7,0l0,14.8Z" class="g2_872" />
<path d="M697.1,720.9l0.8,0l0,-14.8l-0.8,0l0,14.8Z" class="g2_872" />
<path d="M665.2,712.8l0,5l-1,-0.2l-16.7,-4.8L664.2,708l1,-0.2l0,1l-0.5,0.7l-14.1,4l-0.5,-1.4l0.5,0l14.1,4l-0.5,1.5l-0.5,-0.8l0,-4Z" class="g2_872" />
<path d="M663.7,712.8l1.5,0l0,-4l-1.5,0l0,4Z" class="g2_872" />
<path fill-rule="evenodd" d="M664.5,712.8l0,4l-14.1,-4l14.1,-4Z" class="g2_872" />
<path d="M678.8,712.8l0,-5l1,0.2l16.7,4.8l-16.7,4.8l-1,0.2l0,-1l0.5,-0.7l14.2,-4l0.4,1.4l-0.4,0l-14.2,-4l0.5,-1.5l0.5,0.8l0,4Z" class="g2_872" />
<path d="M678.8,716.8l1.5,0l0,-4l-1.5,0l0,4Z" class="g2_872" />
<path fill-rule="evenodd" d="M679.5,712.8l0,-4l14.1,4l-14.1,4Z" class="g2_872" />
<path d="M664.9,713.2l0.3,0l0,-0.8l-0.3,0l0,0.8Z" class="g2_872" />
<path d="M665.2,713.2l14,0l0,-0.8l-14,0l0,0.8Z" class="g2_872" />
<path d="M593.3,792.3l0,5l-1,-0.3l-16.7,-4.7l16.7,-4.8l1,-0.3l0,1l-0.6,0.8l-14.1,4l-0.5,-1.5l0.5,0l14.1,4.1l-0.4,1.4l-0.6,-0.7l0,-4Z" class="g2_872" />
<path d="M591.7,792.3l1.6,0l0,-4.1l-1.6,0l0,4.1Z" class="g2_872" />
<path fill-rule="evenodd" d="M592.5,792.3l0,4l-14.1,-4l14.1,-4.1Z" class="g2_872" />
<path d="M609.6,792.3l0,-5.1l1,0.3l16.7,4.8L610.6,797l-1,0.3l0,-1l0.5,-0.7l14.2,-4.1l0.4,1.5l-0.4,0l-14.2,-4l0.5,-1.5l0.5,0.7l0,4.1Z" class="g2_872" />
<path d="M609.6,796.3l1.5,0l0,-4l-1.5,0l0,4Z" class="g2_872" />
<path fill-rule="evenodd" d="M610.3,792.3l0,-4.1l14.1,4.1l-14.1,4Z" class="g2_872" />
<path d="M592.9,792.6l0.4,0l0,-0.7l-0.4,0l0,0.7Z" class="g2_872" />
<path d="M593.3,792.6l16.7,0l0,-0.7l-16.7,0l0,0.7Z" class="g2_872" />
</svg>