<?xml version="1.0" encoding="UTF-8" standalone="no"?>
<!DOCTYPE svg PUBLIC "-//W3C//DTD SVG 1.1//EN"
"http://www.w3.org/Graphics/SVG/1.1/DTD/svg11.dtd">
<svg viewBox="0 0 935 1210" version="1.1" xmlns="http://www.w3.org/2000/svg" xmlns:xlink="http://www.w3.org/1999/xlink">
<defs>
<style type="text/css"><![CDATA[
.g1_2176{
fill: #FFFFFF;
}
.g2_2176{
}
]]></style>
</defs>
<path d="M68.8,1149.3l783.7,0l0,-21.2l-783.7,0l0,21.2Z" class="g1_2176" />
<path d="M69,1085.9l0.8,0l0,-961.8l-0.8,0l0,961.8Z" class="g2_2176" />
<path d="M260.9,1086.7l0.7,0l0,-963.3l-0.7,0l0,963.3Z" class="g2_2176" />
<path d="M851.4,1085.9l0.7,0l0,-961.8l-0.7,0l0,961.8Z" class="g2_2176" />
<path d="M69,124.1l783.1,0l0,-0.7L69,123.4l0,0.7Z" class="g2_2176" />
<path d="M69,147l783.1,0l0,-0.7L69,146.3l0,0.7Z" class="g2_2176" />
<path d="M260.9,169.9l591.2,0l0,-0.7l-591.2,0l0,0.7Z" class="g2_2176" />
<path d="M260.9,192.9l591.2,0l0,-0.8l-591.2,0l0,0.8Z" class="g2_2176" />
<path d="M260.9,215.8l591.2,0l0,-0.8l-591.2,0l0,0.8Z" class="g2_2176" />
<path d="M69,238.7l783.1,0l0,-0.7L69,238l0,0.7Z" class="g2_2176" />
<path d="M260.9,261.6l591.2,0l0,-0.7l-591.2,0l0,0.7Z" class="g2_2176" />
<path d="M69,284.5l783.1,0l0,-0.7L69,283.8l0,0.7Z" class="g2_2176" />
<path d="M260.9,307.4l591.2,0l0,-0.7l-591.2,0l0,0.7Z" class="g2_2176" />
<path d="M69,330.4l783.1,0l0,-0.8L69,329.6l0,0.8Z" class="g2_2176" />
<path d="M260.9,353.3l591.2,0l0,-0.7l-591.2,0l0,0.7Z" class="g2_2176" />
<path d="M69,376.2l783.1,0l0,-0.7L69,375.5l0,0.7Z" class="g2_2176" />
<path d="M69,399.1l783.1,0l0,-0.7L69,398.4l0,0.7Z" class="g2_2176" />
<path d="M69,422l783.1,0l0,-0.7L69,421.3l0,0.7Z" class="g2_2176" />
<path d="M260.9,444.9l591.2,0l0,-0.7l-591.2,0l0,0.7Z" class="g2_2176" />
<path d="M69,467.9l783.1,0l0,-0.8L69,467.1l0,0.8Z" class="g2_2176" />
<path d="M260.9,490.8l591.2,0l0,-0.8l-591.2,0l0,0.8Z" class="g2_2176" />
<path d="M69,513.7l783.1,0l0,-0.7L69,513l0,0.7Z" class="g2_2176" />
<path d="M260.9,536.6l591.2,0l0,-0.7l-591.2,0l0,0.7Z" class="g2_2176" />
<path d="M69,559.5l783.1,0l0,-0.7L69,558.8l0,0.7Z" class="g2_2176" />
<path d="M260.9,582.4l591.2,0l0,-0.7l-591.2,0l0,0.7Z" class="g2_2176" />
<path d="M69,605.4l783.1,0l0,-0.8L69,604.6l0,0.8Z" class="g2_2176" />
<path d="M69,628.3l783.1,0l0,-0.7L69,627.6l0,0.7Z" class="g2_2176" />
<path d="M69,651.2l783.1,0l0,-0.7L69,650.5l0,0.7Z" class="g2_2176" />
<path d="M69,674.1l783.1,0l0,-0.7L69,673.4l0,0.7Z" class="g2_2176" />
<path d="M69,697l783.1,0l0,-0.7L69,696.3l0,0.7Z" class="g2_2176" />
<path d="M69,719.9l783.1,0l0,-0.7L69,719.2l0,0.7Z" class="g2_2176" />
<path d="M69,742.9l783.1,0l0,-0.8L69,742.1l0,0.8Z" class="g2_2176" />
<path d="M69,765.8l783.1,0l0,-0.7L69,765.1l0,0.7Z" class="g2_2176" />
<path d="M69,788.7l783.1,0l0,-0.7L69,788l0,0.7Z" class="g2_2176" />
<path d="M69,811.6l783.1,0l0,-0.7L69,810.9l0,0.7Z" class="g2_2176" />
<path d="M260.9,834.5l591.2,0l0,-0.7l-591.2,0l0,0.7Z" class="g2_2176" />
<path d="M69,880.4l783.1,0l0,-0.8L69,879.6l0,0.8Z" class="g2_2176" />
<path d="M69,903.3l783.1,0l0,-0.7L69,902.6l0,0.7Z" class="g2_2176" />
<path d="M260.9,926.2l591.2,0l0,-0.7l-591.2,0l0,0.7Z" class="g2_2176" />
<path d="M260.9,949.1l591.2,0l0,-0.7l-591.2,0l0,0.7Z" class="g2_2176" />
<path d="M69,972l783.1,0l0,-0.7L69,971.3l0,0.7Z" class="g2_2176" />
<path d="M69,995l783.1,0l0,-0.8L69,994.2l0,0.8Z" class="g2_2176" />
<path d="M69,1017.9l783.1,0l0,-0.8l-783.1,0l0,0.8Z" class="g2_2176" />
<path d="M260.9,1040.8l591.2,0l0,-0.8l-591.2,0l0,0.8Z" class="g2_2176" />
<path d="M260.9,1063.7l591.2,0l0,-0.7l-591.2,0l0,0.7Z" class="g2_2176" />
<path d="M69,1086.6l783.1,0l0,-0.7l-783.1,0l0,0.7Z" class="g2_2176" />
</svg>