<?xml version="1.0" encoding="UTF-8" standalone="no"?>
<!DOCTYPE svg PUBLIC "-//W3C//DTD SVG 1.1//EN"
"http://www.w3.org/Graphics/SVG/1.1/DTD/svg11.dtd">
<svg viewBox="0 0 935 1210" version="1.1" xmlns="http://www.w3.org/2000/svg" xmlns:xlink="http://www.w3.org/1999/xlink">
<defs>
<style type="text/css"><![CDATA[
.g1_45{
fill: #FFFFFF;
}
.g2_45{
}
]]></style>
</defs>
<path d="M68.9,1149.3l783.8,0l0,-21.2l-783.8,0l0,21.2Z" class="g1_45" />
<path d="M69.4,459.5l0.7,0l0,-335.4l-0.7,0l0,335.4Z" class="g2_45" />
<path d="M161.6,460.3l0.7,0l0,-336.9l-0.7,0l0,336.9Z" class="g2_45" />
<path d="M255.3,460.3l0.7,0l0,-336.9l-0.7,0l0,336.9Z" class="g2_45" />
<path d="M390.5,460.3l0.7,0l0,-336.9l-0.7,0l0,336.9Z" class="g2_45" />
<path d="M530.2,460.3l0.7,0l0,-336.9l-0.7,0l0,336.9Z" class="g2_45" />
<path d="M852.6,459.5l0.7,0l0,-335.4l-0.7,0l0,335.4Z" class="g2_45" />
<path d="M69.4,124.1l783.9,0l0,-0.7l-783.9,0l0,0.7Z" class="g2_45" />
<path d="M69.4,163.8l783.9,0l0,-0.7l-783.9,0l0,0.7Z" class="g2_45" />
<path d="M161.5,186.7l94.5,0l0,-0.7l-94.5,0l0,0.7Z" class="g2_45" />
<path d="M69.4,226.5l783.9,0l0,-0.7l-783.9,0l0,0.7Z" class="g2_45" />
<path d="M161.5,249.4l94.5,0l0,-0.7l-94.5,0l0,0.7Z" class="g2_45" />
<path d="M69.4,321.2l783.9,0l0,-0.7l-783.9,0l0,0.7Z" class="g2_45" />
<path d="M69.4,399.1l783.9,0l0,-0.7l-783.9,0l0,0.7Z" class="g2_45" />
<path d="M69.4,460.3l783.9,0l0,-0.8l-783.9,0l0,0.8Z" class="g2_45" />
<path d="M71,864.4l0.8,0l0,-121.5l-0.8,0l0,121.5Z" class="g2_45" />
<path d="M273,865.2l0.7,0l0,-123.1l-0.7,0l0,123.1Z" class="g2_45" />
<path d="M850.9,864.4l0.8,0l0,-121.5l-0.8,0l0,121.5Z" class="g2_45" />
<path d="M71,742.9l780.7,0l0,-0.8L71,742.1l0,0.8Z" class="g2_45" />
<path d="M71,767.3l780.7,0l0,-0.7L71,766.6l0,0.7Z" class="g2_45" />
<path d="M71,791.8l780.7,0l0,-0.7L71,791.1l0,0.7Z" class="g2_45" />
<path d="M71,816.2l780.7,0l0,-0.7L71,815.5l0,0.7Z" class="g2_45" />
<path d="M71,840.7l780.7,0l0,-0.8L71,839.9l0,0.8Z" class="g2_45" />
<path d="M71,865.2l780.7,0l0,-0.8L71,864.4l0,0.8Z" class="g2_45" />
</svg>