<?xml version="1.0" encoding="UTF-8" standalone="no"?>
<!DOCTYPE svg PUBLIC "-//W3C//DTD SVG 1.1//EN"
"http://www.w3.org/Graphics/SVG/1.1/DTD/svg11.dtd">
<svg viewBox="0 0 935 1210" version="1.1" xmlns="http://www.w3.org/2000/svg" xmlns:xlink="http://www.w3.org/1999/xlink">
<defs>
<style type="text/css"><![CDATA[
.g1_2087{
fill: #FFFFFF;
}
.g2_2087{
}
]]></style>
</defs>
<path d="M68.9,1149.3l783.8,0l0,-21.2l-783.8,0l0,21.2Z" class="g1_2087" />
<path d="M69.9,1090.5l0.8,0l0,-966.4l-0.8,0l0,966.4Z" class="g2_2087" />
<path d="M469,1091.3l0.7,0l0,-967.9l-0.7,0l0,967.9Z" class="g2_2087" />
<path d="M852.5,1090.5l0.7,0l0,-966.4l-0.7,0l0,966.4Z" class="g2_2087" />
<path d="M69.9,124.1l783.4,0l0,-0.7l-783.4,0l0,0.7Z" class="g2_2087" />
<path d="M69.9,148.6l783.4,0l0,-0.7l-783.4,0l0,0.7Z" class="g2_2087" />
<path d="M69.9,173l783.4,0l0,-0.8l-783.4,0l0,0.8Z" class="g2_2087" />
<path d="M69.9,197.4l783.4,0l0,-0.7l-783.4,0l0,0.7Z" class="g2_2087" />
<path d="M69.9,221.9l783.4,0l0,-0.7l-783.4,0l0,0.7Z" class="g2_2087" />
<path d="M69.9,246.3l783.4,0l0,-0.7l-783.4,0l0,0.7Z" class="g2_2087" />
<path d="M69.9,270.8l783.4,0l0,-0.7l-783.4,0l0,0.7Z" class="g2_2087" />
<path d="M69.9,312l783.4,0l0,-0.7l-783.4,0l0,0.7Z" class="g2_2087" />
<path d="M69.9,336.5l783.4,0l0,-0.7l-783.4,0l0,0.7Z" class="g2_2087" />
<path d="M69.9,360.9l783.4,0l0,-0.7l-783.4,0l0,0.7Z" class="g2_2087" />
<path d="M69.9,385.4l783.4,0l0,-0.8l-783.4,0l0,0.8Z" class="g2_2087" />
<path d="M69.9,409.8l783.4,0l0,-0.7l-783.4,0l0,0.7Z" class="g2_2087" />
<path d="M69.9,434.3l783.4,0l0,-0.7l-783.4,0l0,0.7Z" class="g2_2087" />
<path d="M69.9,458.7l783.4,0l0,-0.7L69.9,458l0,0.7Z" class="g2_2087" />
<path d="M69.9,483.2l783.4,0l0,-0.8l-783.4,0l0,0.8Z" class="g2_2087" />
<path d="M69.9,507.7l783.4,0l0,-0.8l-783.4,0l0,0.8Z" class="g2_2087" />
<path d="M69.9,532l783.4,0l0,-0.7l-783.4,0l0,0.7Z" class="g2_2087" />
<path d="M69.9,556.5l783.4,0l0,-0.7l-783.4,0l0,0.7Z" class="g2_2087" />
<path d="M69.9,581l783.4,0l0,-0.8l-783.4,0l0,0.8Z" class="g2_2087" />
<path d="M69.9,605.4l783.4,0l0,-0.8l-783.4,0l0,0.8Z" class="g2_2087" />
<path d="M69.9,629.8l783.4,0l0,-0.7l-783.4,0l0,0.7Z" class="g2_2087" />
<path d="M69.9,654.3l783.4,0l0,-0.7l-783.4,0l0,0.7Z" class="g2_2087" />
<path d="M69.9,678.7l783.4,0l0,-0.7L69.9,678l0,0.7Z" class="g2_2087" />
<path d="M69.9,703.2l783.4,0l0,-0.8l-783.4,0l0,0.8Z" class="g2_2087" />
<path d="M69.9,727.7l783.4,0l0,-0.8l-783.4,0l0,0.8Z" class="g2_2087" />
<path d="M69.9,752l783.4,0l0,-0.7l-783.4,0l0,0.7Z" class="g2_2087" />
<path d="M69.9,776.5l783.4,0l0,-0.7l-783.4,0l0,0.7Z" class="g2_2087" />
<path d="M69.9,801l783.4,0l0,-0.8l-783.4,0l0,0.8Z" class="g2_2087" />
<path d="M69.9,825.4l783.4,0l0,-0.8l-783.4,0l0,0.8Z" class="g2_2087" />
<path d="M69.9,849.8l783.4,0l0,-0.7l-783.4,0l0,0.7Z" class="g2_2087" />
<path d="M69.9,895.7l783.4,0l0,-0.8l-783.4,0l0,0.8Z" class="g2_2087" />
<path d="M69.9,920.2l783.4,0l0,-0.8l-783.4,0l0,0.8Z" class="g2_2087" />
<path d="M69.9,944.5l783.4,0l0,-0.7l-783.4,0l0,0.7Z" class="g2_2087" />
<path d="M69.9,969l783.4,0l0,-0.7l-783.4,0l0,0.7Z" class="g2_2087" />
<path d="M69.9,993.5l783.4,0l0,-0.7l-783.4,0l0,0.7Z" class="g2_2087" />
<path d="M69.9,1017.9l783.4,0l0,-0.8l-783.4,0l0,0.8Z" class="g2_2087" />
<path d="M69.9,1042.3l783.4,0l0,-0.7l-783.4,0l0,0.7Z" class="g2_2087" />
<path d="M69.9,1066.8l783.4,0l0,-0.7l-783.4,0l0,0.7Z" class="g2_2087" />
<path d="M69.9,1091.2l783.4,0l0,-0.7l-783.4,0l0,0.7Z" class="g2_2087" />
</svg>