<?xml version="1.0" encoding="UTF-8" standalone="no"?>
<!DOCTYPE svg PUBLIC "-//W3C//DTD SVG 1.1//EN"
"http://www.w3.org/Graphics/SVG/1.1/DTD/svg11.dtd">
<svg viewBox="0 0 935 1210" version="1.1" xmlns="http://www.w3.org/2000/svg" xmlns:xlink="http://www.w3.org/1999/xlink">
<defs>
<style type="text/css"><![CDATA[
.g1_1300{
fill: #FFFFFF;
}
.g2_1300{
}
]]></style>
</defs>
<path d="M165,1149.3l687.5,0l0,-21.2l-687.5,0l0,21.2Z" class="g1_1300" />
<path d="M68.8,1149.3l82.5,0l0,-21.2l-82.5,0l0,21.2Z" class="g1_1300" />
<path d="M69.6,554.2l0.7,0l0,-422.4l-0.7,0l0,422.4Z" class="g2_1300" />
<path d="M219.6,554.9l0.8,0l0,-423.9l-0.8,0l0,423.9Z" class="g2_1300" />
<path d="M390,554.9l0.7,0l0,-423.9l-0.7,0l0,423.9Z" class="g2_1300" />
<path d="M427.8,554.9l0.7,0l0,-423.9l-0.7,0l0,423.9Z" class="g2_1300" />
<path d="M501.1,554.9l0.8,0l0,-423.9l-0.8,0l0,423.9Z" class="g2_1300" />
<path d="M572.6,554.9l0.7,0l0,-423.9l-0.7,0l0,423.9Z" class="g2_1300" />
<path d="M850.8,554.2l0.8,0l0,-422.4l-0.8,0l0,422.4Z" class="g2_1300" />
<path d="M69.5,131.7l782.1,0l0,-0.7L69.5,131l0,0.7Z" class="g2_1300" />
<path d="M69.5,169.9l782.1,0l0,-0.7l-782.1,0l0,0.7Z" class="g2_1300" />
<path d="M69.5,226.5l782.1,0l0,-0.7l-782.1,0l0,0.7Z" class="g2_1300" />
<path d="M69.5,283l782.1,0l0,-0.8l-782.1,0l0,0.8Z" class="g2_1300" />
<path d="M69.5,339.5l782.1,0l0,-0.7l-782.1,0l0,0.7Z" class="g2_1300" />
<path d="M69.5,362.4l782.1,0l0,-0.7l-782.1,0l0,0.7Z" class="g2_1300" />
<path d="M69.5,419l782.1,0l0,-0.7l-782.1,0l0,0.7Z" class="g2_1300" />
<path d="M69.5,475.6l782.1,0l0,-0.8l-782.1,0l0,0.8Z" class="g2_1300" />
<path d="M69.5,532l782.1,0l0,-0.7l-782.1,0l0,0.7Z" class="g2_1300" />
<path d="M69.5,554.9l782.1,0l0,-0.7l-782.1,0l0,0.7Z" class="g2_1300" />
<path d="M69.1,655.1l0.8,0l0,-48.2l-0.8,0l0,48.2Z" class="g2_1300" />
<path d="M135.6,655.8l0.7,0l0,-49.6l-0.7,0l0,49.6Z" class="g2_1300" />
<path d="M315.2,655.8l0.8,0l0,-49.6l-0.8,0l0,49.6Z" class="g2_1300" />
<path d="M488.8,655.8l0.7,0l0,-49.6l-0.7,0l0,49.6Z" class="g2_1300" />
<path d="M660.5,655.8l0.8,0l0,-49.6l-0.8,0l0,49.6Z" class="g2_1300" />
<path d="M851.3,655.1l0.7,0l0,-48.2l-0.7,0l0,48.2Z" class="g2_1300" />
<path d="M69.1,606.9l782.9,0l0,-0.7l-782.9,0l0,0.7Z" class="g2_1300" />
<path d="M69.1,631.4l782.9,0l0,-0.7l-782.9,0l0,0.7Z" class="g2_1300" />
<path d="M69.1,655.8l782.9,0l0,-0.7l-782.9,0l0,0.7Z" class="g2_1300" />
</svg>