<?xml version="1.0" encoding="UTF-8" standalone="no"?>
<!DOCTYPE svg PUBLIC "-//W3C//DTD SVG 1.1//EN"
"http://www.w3.org/Graphics/SVG/1.1/DTD/svg11.dtd">
<svg viewBox="0 0 935 1210" version="1.1" xmlns="http://www.w3.org/2000/svg" xmlns:xlink="http://www.w3.org/1999/xlink">
<defs>
<style type="text/css"><![CDATA[
.g1_1756{
fill: #FFFFFF;
}
.g2_1756{
}
]]></style>
</defs>
<path d="M165,1149.3l687.5,0l0,-21.2l-687.5,0l0,21.2Z" class="g1_1756" />
<path d="M68.8,1149.3l82.5,0l0,-21.2l-82.5,0l0,21.2Z" class="g1_1756" />
<path d="M68.6,636.7l0.7,0L69.3,147l-0.7,0l0,489.7Z" class="g2_1756" />
<path d="M270.5,637.4l0.7,0l0,-491.1l-0.7,0l0,491.1Z" class="g2_1756" />
<path d="M314.8,637.4l0.7,0l0,-491.1l-0.7,0l0,491.1Z" class="g2_1756" />
<path d="M389.2,637.4l0.7,0l0,-491.1l-0.7,0l0,491.1Z" class="g2_1756" />
<path d="M476.3,637.4l0.7,0l0,-491.1l-0.7,0l0,491.1Z" class="g2_1756" />
<path d="M854.5,636.7l0.7,0l0,-489.7l-0.7,0l0,489.7Z" class="g2_1756" />
<path d="M68.6,147l786.6,0l0,-0.7l-786.6,0l0,0.7Z" class="g2_1756" />
<path d="M68.6,197.4l786.6,0l0,-0.7l-786.6,0l0,0.7Z" class="g2_1756" />
<path d="M68.6,234.1l786.6,0l0,-0.7l-786.6,0l0,0.7Z" class="g2_1756" />
<path d="M68.6,270.8l786.6,0l0,-0.7l-786.6,0l0,0.7Z" class="g2_1756" />
<path d="M68.6,307.4l786.6,0l0,-0.7l-786.6,0l0,0.7Z" class="g2_1756" />
<path d="M68.6,344.1l786.6,0l0,-0.7l-786.6,0l0,0.7Z" class="g2_1756" />
<path d="M68.6,380.8l786.6,0l0,-0.8L68.6,380l0,0.8Z" class="g2_1756" />
<path d="M68.6,417.4l786.6,0l0,-0.7l-786.6,0l0,0.7Z" class="g2_1756" />
<path d="M68.6,454.1l786.6,0l0,-0.7l-786.6,0l0,0.7Z" class="g2_1756" />
<path d="M68.6,490.8l786.6,0l0,-0.8L68.6,490l0,0.8Z" class="g2_1756" />
<path d="M68.6,527.4l786.6,0l0,-0.7l-786.6,0l0,0.7Z" class="g2_1756" />
<path d="M68.6,564.1l786.6,0l0,-0.7l-786.6,0l0,0.7Z" class="g2_1756" />
<path d="M68.6,600.8l786.6,0l0,-0.7l-786.6,0l0,0.7Z" class="g2_1756" />
<path d="M68.6,637.4l786.6,0l0,-0.7l-786.6,0l0,0.7Z" class="g2_1756" />
<path d="M72.7,740.6l0.7,0l0,-48.2l-0.7,0l0,48.2Z" class="g2_1756" />
<path d="M197.6,741.4l0.8,0l0,-49.7l-0.8,0l0,49.7Z" class="g2_1756" />
<path d="M347.1,741.4l0.8,0l0,-49.7l-0.8,0l0,49.7Z" class="g2_1756" />
<path d="M560.4,741.4l0.7,0l0,-49.7l-0.7,0l0,49.7Z" class="g2_1756" />
<path d="M711.5,741.4l0.8,0l0,-49.7l-0.8,0l0,49.7Z" class="g2_1756" />
<path d="M847.6,740.6l0.8,0l0,-48.2l-0.8,0l0,48.2Z" class="g2_1756" />
<path d="M72.7,692.4l775.8,0l0,-0.7l-775.8,0l0,0.7Z" class="g2_1756" />
<path d="M72.7,716.9l775.8,0l0,-0.7l-775.8,0l0,0.7Z" class="g2_1756" />
<path d="M72.7,741.4l775.8,0l0,-0.7l-775.8,0l0,0.7Z" class="g2_1756" />
</svg>