<?xml version="1.0" encoding="UTF-8" standalone="no"?>
<!DOCTYPE svg PUBLIC "-//W3C//DTD SVG 1.1//EN"
"http://www.w3.org/Graphics/SVG/1.1/DTD/svg11.dtd">
<svg viewBox="0 0 935 1210" version="1.1" xmlns="http://www.w3.org/2000/svg" xmlns:xlink="http://www.w3.org/1999/xlink">
<defs>
<style type="text/css"><![CDATA[
.g1_1014{
fill: #FFFFFF;
}
.g2_1014{
}
]]></style>
</defs>
<path d="M165,1149.3l687.5,0l0,-21.2l-687.5,0l0,21.2Z" class="g1_1014" />
<path d="M68.8,1149.3l82.5,0l0,-21.2l-82.5,0l0,21.2Z" class="g1_1014" />
<path d="M68.9,574.1l0.8,0l0,-448.4l-0.8,0l0,448.4Z" class="g2_1014" />
<path d="M382.5,574.8l0.8,0l0,-449.9l-0.8,0l0,449.9Z" class="g2_1014" />
<path d="M420.4,574.8l0.7,0l0,-449.9l-0.7,0l0,449.9Z" class="g2_1014" />
<path d="M493.7,574.8l0.8,0l0,-449.9l-0.8,0l0,449.9Z" class="g2_1014" />
<path d="M574.3,574.8l0.7,0l0,-449.9l-0.7,0l0,449.9Z" class="g2_1014" />
<path d="M851.4,574.1l0.7,0l0,-448.4l-0.7,0l0,448.4Z" class="g2_1014" />
<path d="M68.9,125.7l783.3,0l0,-0.8l-783.3,0l0,0.8Z" class="g2_1014" />
<path d="M68.9,179.1l783.3,0l0,-0.7l-783.3,0l0,0.7Z" class="g2_1014" />
<path d="M68.9,235.7l783.3,0l0,-0.8l-783.3,0l0,0.8Z" class="g2_1014" />
<path d="M68.9,292.1l783.3,0l0,-0.7l-783.3,0l0,0.7Z" class="g2_1014" />
<path d="M68.9,348.7l783.3,0l0,-0.7L68.9,348l0,0.7Z" class="g2_1014" />
<path d="M68.9,405.3l783.3,0l0,-0.8l-783.3,0l0,0.8Z" class="g2_1014" />
<path d="M68.9,461.8l783.3,0l0,-0.7l-783.3,0l0,0.7Z" class="g2_1014" />
<path d="M68.9,518.3l783.3,0l0,-0.7l-783.3,0l0,0.7Z" class="g2_1014" />
<path d="M68.9,574.8l783.3,0l0,-0.7l-783.3,0l0,0.7Z" class="g2_1014" />
<path d="M69.1,804.8l0.8,0l0,-97l-0.8,0l0,97Z" class="g2_1014" />
<path d="M135,805.6l0.8,0l0,-98.6l-0.8,0l0,98.6Z" class="g2_1014" />
<path d="M308.4,805.6l0.7,0l0,-98.6l-0.7,0l0,98.6Z" class="g2_1014" />
<path d="M483.7,805.6l0.8,0l0,-98.6l-0.8,0l0,98.6Z" class="g2_1014" />
<path d="M666.7,805.6l0.7,0l0,-98.6l-0.7,0l0,98.6Z" class="g2_1014" />
<path d="M851.3,804.8l0.7,0l0,-97l-0.7,0l0,97Z" class="g2_1014" />
<path d="M69.1,707.8l782.9,0l0,-0.8L69.1,707l0,0.8Z" class="g2_1014" />
<path d="M69.1,732.2l782.9,0l0,-0.7l-782.9,0l0,0.7Z" class="g2_1014" />
<path d="M69.1,756.6l782.9,0l0,-0.7l-782.9,0l0,0.7Z" class="g2_1014" />
<path d="M69.1,781.1l782.9,0l0,-0.7l-782.9,0l0,0.7Z" class="g2_1014" />
<path d="M69.1,805.6l782.9,0l0,-0.8l-782.9,0l0,0.8Z" class="g2_1014" />
</svg>