<?xml version="1.0" encoding="UTF-8" standalone="no"?>
<!DOCTYPE svg PUBLIC "-//W3C//DTD SVG 1.1//EN"
"http://www.w3.org/Graphics/SVG/1.1/DTD/svg11.dtd">
<svg viewBox="0 0 935 1210" version="1.1" xmlns="http://www.w3.org/2000/svg" xmlns:xlink="http://www.w3.org/1999/xlink">
<defs>
<style type="text/css"><![CDATA[
.g1_1732{
fill: #FFFFFF;
}
.g2_1732{
}
]]></style>
</defs>
<path d="M165,1149.3l687.5,0l0,-21.2l-687.5,0l0,21.2Z" class="g1_1732" />
<path d="M68.8,1149.3l82.5,0l0,-21.2l-82.5,0l0,21.2Z" class="g1_1732" />
<path d="M68.6,710.1l0.7,0l0,-584.4l-0.7,0l0,584.4Z" class="g2_1732" />
<path d="M320,710.8l0.7,0l0,-585.9l-0.7,0l0,585.9Z" class="g2_1732" />
<path d="M386.8,710.8l0.8,0l0,-585.9l-0.8,0l0,585.9Z" class="g2_1732" />
<path d="M461.3,710.8l0.7,0l0,-585.9l-0.7,0l0,585.9Z" class="g2_1732" />
<path d="M545.6,710.8l0.7,0l0,-585.9l-0.7,0l0,585.9Z" class="g2_1732" />
<path d="M850,710.1l0.8,0l0,-584.4l-0.8,0l0,584.4Z" class="g2_1732" />
<path d="M68.6,125.7l782.2,0l0,-0.8l-782.2,0l0,0.8Z" class="g2_1732" />
<path d="M68.6,176.1l782.2,0l0,-0.7l-782.2,0l0,0.7Z" class="g2_1732" />
<path d="M68.6,229.5l782.2,0l0,-0.7l-782.2,0l0,0.7Z" class="g2_1732" />
<path d="M68.6,283l782.2,0l0,-0.8l-782.2,0l0,0.8Z" class="g2_1732" />
<path d="M68.6,336.5l782.2,0l0,-0.7l-782.2,0l0,0.7Z" class="g2_1732" />
<path d="M68.6,389.9l782.2,0l0,-0.7l-782.2,0l0,0.7Z" class="g2_1732" />
<path d="M68.6,443.5l782.2,0l0,-0.8l-782.2,0l0,0.8Z" class="g2_1732" />
<path d="M68.6,496.9l782.2,0l0,-0.7l-782.2,0l0,0.7Z" class="g2_1732" />
<path d="M68.6,550.4l782.2,0l0,-0.8l-782.2,0l0,0.8Z" class="g2_1732" />
<path d="M68.6,603.9l782.2,0l0,-0.7l-782.2,0l0,0.7Z" class="g2_1732" />
<path d="M68.6,657.3l782.2,0l0,-0.7l-782.2,0l0,0.7Z" class="g2_1732" />
<path d="M68.6,710.8l782.2,0l0,-0.8L68.6,710l0,0.8Z" class="g2_1732" />
<path d="M70.4,887.3l0.7,0l0,-121.5l-0.7,0l0,121.5Z" class="g2_1732" />
<path d="M176.1,888.1l0.7,0l0,-123l-0.7,0l0,123Z" class="g2_1732" />
<path d="M346.3,888.1l0.7,0l0,-123l-0.7,0l0,123Z" class="g2_1732" />
<path d="M512.3,888.1l0.8,0l0,-123l-0.8,0l0,123Z" class="g2_1732" />
<path d="M679.2,888.1l0.7,0l0,-123l-0.7,0l0,123Z" class="g2_1732" />
<path d="M850,887.3l0.8,0l0,-121.5l-0.8,0l0,121.5Z" class="g2_1732" />
<path d="M70.4,765.8l780.4,0l0,-0.7l-780.4,0l0,0.7Z" class="g2_1732" />
<path d="M70.4,790.3l780.4,0l0,-0.8l-780.4,0l0,0.8Z" class="g2_1732" />
<path d="M70.4,814.7l780.4,0l0,-0.7L70.4,814l0,0.7Z" class="g2_1732" />
<path d="M70.4,839.1l780.4,0l0,-0.7l-780.4,0l0,0.7Z" class="g2_1732" />
<path d="M70.4,863.6l780.4,0l0,-0.7l-780.4,0l0,0.7Z" class="g2_1732" />
<path d="M70.4,888.1l780.4,0l0,-0.8l-780.4,0l0,0.8Z" class="g2_1732" />
</svg>