<?xml version="1.0" encoding="UTF-8" standalone="no"?>
<!DOCTYPE svg PUBLIC "-//W3C//DTD SVG 1.1//EN"
"http://www.w3.org/Graphics/SVG/1.1/DTD/svg11.dtd">
<svg viewBox="0 0 935 1210" version="1.1" xmlns="http://www.w3.org/2000/svg" xmlns:xlink="http://www.w3.org/1999/xlink">
<defs>
<style type="text/css"><![CDATA[
.g1_851{
fill: #FFFFFF;
}
.g2_851{
}
]]></style>
</defs>
<path d="M68.9,1149.3l686.3,0l0,-21.2l-686.3,0l0,21.2Z" class="g1_851" />
<path d="M771.3,1149.3l83.7,0l0,-21.2l-83.7,0l0,21.2Z" class="g1_851" />
<path d="M65.7,691.7l0.8,0l0,-566l-0.8,0l0,566Z" class="g2_851" />
<path d="M378.1,692.4l0.8,0l0,-567.5l-0.8,0l0,567.5Z" class="g2_851" />
<path d="M416,692.4l0.7,0l0,-567.5l-0.7,0l0,567.5Z" class="g2_851" />
<path d="M489.4,692.4l0.7,0l0,-567.5l-0.7,0l0,567.5Z" class="g2_851" />
<path d="M579.1,692.4l0.7,0l0,-567.5l-0.7,0l0,567.5Z" class="g2_851" />
<path d="M856.3,691.7l0.7,0l0,-566l-0.7,0l0,566Z" class="g2_851" />
<path d="M65.7,125.7l791.3,0l0,-0.8l-791.3,0l0,0.8Z" class="g2_851" />
<path d="M65.7,179.1l791.3,0l0,-0.7l-791.3,0l0,0.7Z" class="g2_851" />
<path d="M65.7,252.4l791.3,0l0,-0.7l-791.3,0l0,0.7Z" class="g2_851" />
<path d="M65.7,325.8l791.3,0l0,-0.7l-791.3,0l0,0.7Z" class="g2_851" />
<path d="M65.7,399.1l791.3,0l0,-0.7l-791.3,0l0,0.7Z" class="g2_851" />
<path d="M65.7,472.4l791.3,0l0,-0.7l-791.3,0l0,0.7Z" class="g2_851" />
<path d="M65.7,545.8l791.3,0l0,-0.7l-791.3,0l0,0.7Z" class="g2_851" />
<path d="M65.7,619.1l791.3,0l0,-0.7l-791.3,0l0,0.7Z" class="g2_851" />
<path d="M65.7,692.4l791.3,0l0,-0.7l-791.3,0l0,0.7Z" class="g2_851" />
<path d="M69.9,922.4l0.7,0l0,-96.9l-0.7,0l0,96.9Z" class="g2_851" />
<path d="M144.7,923.2l0.8,0l0,-98.6l-0.8,0l0,98.6Z" class="g2_851" />
<path d="M319.7,923.2l0.8,0l0,-98.6l-0.8,0l0,98.6Z" class="g2_851" />
<path d="M493.2,923.2l0.7,0l0,-98.6l-0.7,0l0,98.6Z" class="g2_851" />
<path d="M668.3,923.2l0.8,0l0,-98.6l-0.8,0l0,98.6Z" class="g2_851" />
<path d="M852.1,922.4l0.8,0l0,-96.9l-0.8,0l0,96.9Z" class="g2_851" />
<path d="M69.9,825.4l783,0l0,-0.8l-783,0l0,0.8Z" class="g2_851" />
<path d="M69.9,849.8l783,0l0,-0.7l-783,0l0,0.7Z" class="g2_851" />
<path d="M69.9,874.3l783,0l0,-0.7l-783,0l0,0.7Z" class="g2_851" />
<path d="M69.9,898.7l783,0l0,-0.7l-783,0l0,0.7Z" class="g2_851" />
<path d="M69.9,923.2l783,0l0,-0.8l-783,0l0,0.8Z" class="g2_851" />
</svg>