<?xml version="1.0" encoding="UTF-8" standalone="no"?>
<!DOCTYPE svg PUBLIC "-//W3C//DTD SVG 1.1//EN"
"http://www.w3.org/Graphics/SVG/1.1/DTD/svg11.dtd">
<svg viewBox="0 0 935 1210" version="1.1" xmlns="http://www.w3.org/2000/svg" xmlns:xlink="http://www.w3.org/1999/xlink">
<defs>
<style type="text/css"><![CDATA[
.g1_2058{
fill: #FFFFFF;
}
.g2_2058{
}
]]></style>
</defs>
<path d="M68.8,1149.3l783.7,0l0,-21.2l-783.7,0l0,21.2Z" class="g1_2058" />
<path d="M70.4,687.1l0.7,0l0,-388.8l-0.7,0l0,388.8Z" class="g2_2058" />
<path d="M329,687.9l0.7,0l0,-390.3l-0.7,0l0,390.3Z" class="g2_2058" />
<path d="M495.5,687.9l0.7,0l0,-390.3l-0.7,0l0,390.3Z" class="g2_2058" />
<path d="M850,687.1l0.8,0l0,-388.8l-0.8,0l0,388.8Z" class="g2_2058" />
<path d="M70.4,298.3l780.4,0l0,-0.7l-780.4,0l0,0.7Z" class="g2_2058" />
<path d="M70.4,321.2l780.4,0l0,-0.7l-780.4,0l0,0.7Z" class="g2_2058" />
<path d="M70.4,687.9l780.4,0l0,-0.8l-780.4,0l0,0.8Z" class="g2_2058" />
<path d="M68.6,976.7l0.7,0l0,-72.6l-0.7,0l0,72.6Z" class="g2_2058" />
<path d="M114.6,977.4l0.7,0l0,-74l-0.7,0l0,74Z" class="g2_2058" />
<path d="M488.7,977.4l0.7,0l0,-74l-0.7,0l0,74Z" class="g2_2058" />
<path d="M851.5,976.7l0.7,0l0,-72.6l-0.7,0l0,72.6Z" class="g2_2058" />
<path d="M68.6,904.1l783.6,0l0,-0.7l-783.6,0l0,0.7Z" class="g2_2058" />
<path d="M68.6,928.5l783.6,0l0,-0.7l-783.6,0l0,0.7Z" class="g2_2058" />
<path d="M68.6,977.4l783.6,0l0,-0.7l-783.6,0l0,0.7Z" class="g2_2058" />
</svg>