<?xml version="1.0" encoding="UTF-8" standalone="no"?>
<!DOCTYPE svg PUBLIC "-//W3C//DTD SVG 1.1//EN"
"http://www.w3.org/Graphics/SVG/1.1/DTD/svg11.dtd">
<svg viewBox="0 0 935 1210" version="1.1" xmlns="http://www.w3.org/2000/svg" xmlns:xlink="http://www.w3.org/1999/xlink">
<defs>
<style type="text/css"><![CDATA[
.g1_309{
fill: #FFFFFF;
}
.g2_309{
}
]]></style>
</defs>
<path d="M68.9,1149.3l686.3,0l0,-21.2l-686.3,0l0,21.2Z" class="g1_309" />
<path d="M771.3,1149.3l83.7,0l0,-21.2l-83.7,0l0,21.2Z" class="g1_309" />
<path d="M72.1,152.4l0.4,0l0,-20.9l-0.4,0l0,20.9Z" class="g2_309" />
<path d="M72,824.6l0.7,0l0,-671.4l-0.7,0l0,671.4Z" class="g2_309" />
<path d="M145.2,153.2l0.4,0l0,-22l-0.4,0l0,22Z" class="g2_309" />
<path d="M145,825.5l0.8,0l0,-673.1l-0.8,0l0,673.1Z" class="g2_309" />
<path d="M261.3,153.2l0.4,0l0,-22l-0.4,0l0,22Z" class="g2_309" />
<path d="M261.2,825.5l0.7,0l0,-673.1l-0.7,0l0,673.1Z" class="g2_309" />
<path d="M850.3,152.4l0.4,0l0,-20.9l-0.4,0l0,20.9Z" class="g2_309" />
<path d="M850.1,824.6l0.7,0l0,-671.4l-0.7,0l0,671.4Z" class="g2_309" />
<path d="M72.1,131.5l778.6,0l0,-0.3l-778.6,0l0,0.3Z" class="g2_309" />
<path d="M71.9,153.2l778.9,0l0,-0.8l-778.9,0l0,0.8Z" class="g2_309" />
<path d="M71.9,208.2l778.9,0l0,-0.8l-778.9,0l0,0.8Z" class="g2_309" />
<path d="M71.9,229.5l778.9,0l0,-0.7l-778.9,0l0,0.7Z" class="g2_309" />
<path d="M71.9,250.9l778.9,0l0,-0.7l-778.9,0l0,0.7Z" class="g2_309" />
<path d="M71.9,305.9l778.9,0l0,-0.7l-778.9,0l0,0.7Z" class="g2_309" />
<path d="M71.9,344.1l778.9,0l0,-0.7l-778.9,0l0,0.7Z" class="g2_309" />
<path d="M71.9,382.3l778.9,0l0,-0.7l-778.9,0l0,0.7Z" class="g2_309" />
<path d="M71.9,403.7l778.9,0l0,-0.7L71.9,403l0,0.7Z" class="g2_309" />
<path d="M71.9,441.9l778.9,0l0,-0.7l-778.9,0l0,0.7Z" class="g2_309" />
<path d="M71.9,480.2l778.9,0l0,-0.8l-778.9,0l0,0.8Z" class="g2_309" />
<path d="M71.9,501.5l778.9,0l0,-0.7l-778.9,0l0,0.7Z" class="g2_309" />
<path d="M71.9,522.9l778.9,0l0,-0.8l-778.9,0l0,0.8Z" class="g2_309" />
<path d="M71.9,544.3l778.9,0l0,-0.7l-778.9,0l0,0.7Z" class="g2_309" />
<path d="M71.9,565.7l778.9,0l0,-0.8l-778.9,0l0,0.8Z" class="g2_309" />
<path d="M71.9,587l778.9,0l0,-0.7l-778.9,0l0,0.7Z" class="g2_309" />
<path d="M71.9,625.3l778.9,0l0,-0.8l-778.9,0l0,0.8Z" class="g2_309" />
<path d="M71.9,646.6l778.9,0l0,-0.7l-778.9,0l0,0.7Z" class="g2_309" />
<path d="M71.9,684.8l778.9,0l0,-0.7l-778.9,0l0,0.7Z" class="g2_309" />
<path d="M71.9,739.8l778.9,0l0,-0.7l-778.9,0l0,0.7Z" class="g2_309" />
<path d="M71.9,761.2l778.9,0l0,-0.7l-778.9,0l0,0.7Z" class="g2_309" />
<path d="M71.9,782.7l778.9,0l0,-0.8l-778.9,0l0,0.8Z" class="g2_309" />
<path d="M71.9,804l778.9,0l0,-0.7l-778.9,0l0,0.7Z" class="g2_309" />
<path d="M71.9,825.4l778.9,0l0,-0.8l-778.9,0l0,0.8Z" class="g2_309" />
</svg>