<?xml version="1.0" encoding="UTF-8" standalone="no"?>
<!DOCTYPE svg PUBLIC "-//W3C//DTD SVG 1.1//EN"
"http://www.w3.org/Graphics/SVG/1.1/DTD/svg11.dtd">
<svg viewBox="0 0 935 1210" version="1.1" xmlns="http://www.w3.org/2000/svg" xmlns:xlink="http://www.w3.org/1999/xlink">
<defs>
<style type="text/css"><![CDATA[
.g1_953{
fill: #FFFFFF;
}
.g2_953{
}
]]></style>
</defs>
<path d="M68.9,1149.3l686.3,0l0,-21.2l-686.3,0l0,21.2Z" class="g1_953" />
<path d="M771.3,1149.3l83.7,0l0,-21.2l-83.7,0l0,21.2Z" class="g1_953" />
<path d="M69.8,674.9l0.7,0l0,-549.2l-0.7,0l0,549.2Z" class="g2_953" />
<path d="M378.8,675.7l0.7,0l0,-550.8l-0.7,0l0,550.8Z" class="g2_953" />
<path d="M416.5,675.7l0.8,0l0,-550.8l-0.8,0l0,550.8Z" class="g2_953" />
<path d="M490,675.7l0.7,0l0,-550.8l-0.7,0l0,550.8Z" class="g2_953" />
<path d="M570.5,675.7l0.8,0l0,-550.8l-0.8,0l0,550.8Z" class="g2_953" />
<path d="M852.2,674.9l0.8,0l0,-549.2l-0.8,0l0,549.2Z" class="g2_953" />
<path d="M69.8,125.7l783.2,0l0,-0.8l-783.2,0l0,0.8Z" class="g2_953" />
<path d="M69.8,179.1l783.2,0l0,-0.7l-783.2,0l0,0.7Z" class="g2_953" />
<path d="M69.8,235.7l783.2,0l0,-0.8l-783.2,0l0,0.8Z" class="g2_953" />
<path d="M69.8,309L853,309l0,-0.7l-783.2,0l0,0.7Z" class="g2_953" />
<path d="M69.8,382.3l783.2,0l0,-0.7l-783.2,0l0,0.7Z" class="g2_953" />
<path d="M69.8,455.7l783.2,0l0,-0.8l-783.2,0l0,0.8Z" class="g2_953" />
<path d="M69.8,529L853,529l0,-0.7l-783.2,0l0,0.7Z" class="g2_953" />
<path d="M69.8,602.3l783.2,0l0,-0.7l-783.2,0l0,0.7Z" class="g2_953" />
<path d="M69.8,675.7l783.2,0l0,-0.8l-783.2,0l0,0.8Z" class="g2_953" />
<path d="M70.5,905.7l0.7,0l0,-97.1l-0.7,0l0,97.1Z" class="g2_953" />
<path d="M140.9,906.4l0.7,0l0,-98.5l-0.7,0l0,98.5Z" class="g2_953" />
<path d="M318.5,906.4l0.7,0l0,-98.5l-0.7,0l0,98.5Z" class="g2_953" />
<path d="M493.3,906.4l0.7,0l0,-98.5l-0.7,0l0,98.5Z" class="g2_953" />
<path d="M668.6,906.4l0.8,0l0,-98.5l-0.8,0l0,98.5Z" class="g2_953" />
<path d="M851.5,905.7l0.7,0l0,-97.1l-0.7,0l0,97.1Z" class="g2_953" />
<path d="M70.5,808.6l781.8,0l0,-0.7l-781.8,0l0,0.7Z" class="g2_953" />
<path d="M70.5,833.1l781.8,0l0,-0.8l-781.8,0l0,0.8Z" class="g2_953" />
<path d="M70.5,857.5l781.8,0l0,-0.8l-781.8,0l0,0.8Z" class="g2_953" />
<path d="M70.5,881.9l781.8,0l0,-0.7l-781.8,0l0,0.7Z" class="g2_953" />
<path d="M70.5,906.4l781.8,0l0,-0.7l-781.8,0l0,0.7Z" class="g2_953" />
</svg>