<?xml version="1.0" encoding="UTF-8" standalone="no"?>
<!DOCTYPE svg PUBLIC "-//W3C//DTD SVG 1.1//EN"
"http://www.w3.org/Graphics/SVG/1.1/DTD/svg11.dtd">
<svg viewBox="0 0 935 1210" version="1.1" xmlns="http://www.w3.org/2000/svg" xmlns:xlink="http://www.w3.org/1999/xlink">
<defs>
<style type="text/css"><![CDATA[
.g1_425{
fill: #FFFFFF;
}
.g2_425{
}
]]></style>
</defs>
<path d="M68.9,1149.3l686.3,0l0,-21.2l-686.3,0l0,21.2Z" class="g1_425" />
<path d="M771.3,1149.3l83.7,0l0,-21.2l-83.7,0l0,21.2Z" class="g1_425" />
<path d="M68.3,352.6l0.7,0L69,131.8l-0.7,0l0,220.8Z" class="g2_425" />
<path d="M177.4,353.3l0.7,0l0,-222.3l-0.7,0l0,222.3Z" class="g2_425" />
<path d="M402.5,353.3l0.7,0l0,-222.3l-0.7,0l0,222.3Z" class="g2_425" />
<path d="M466.4,353.3l0.7,0l0,-222.3l-0.7,0l0,222.3Z" class="g2_425" />
<path d="M542,353.3l0.8,0l0,-222.3l-0.8,0l0,222.3Z" class="g2_425" />
<path d="M853.8,352.6l0.7,0l0,-220.8l-0.7,0l0,220.8Z" class="g2_425" />
<path d="M68.2,131.7l786.3,0l0,-0.7L68.2,131l0,0.7Z" class="g2_425" />
<path d="M68.2,169.9l786.3,0l0,-0.7l-786.3,0l0,0.7Z" class="g2_425" />
<path d="M68.2,192.9l786.3,0l0,-0.8l-786.3,0l0,0.8Z" class="g2_425" />
<path d="M68.2,215.8l786.3,0l0,-0.8L68.2,215l0,0.8Z" class="g2_425" />
<path d="M68.2,238.7l786.3,0l0,-0.7L68.2,238l0,0.7Z" class="g2_425" />
<path d="M68.2,261.6l786.3,0l0,-0.7l-786.3,0l0,0.7Z" class="g2_425" />
<path d="M68.2,284.5l786.3,0l0,-0.7l-786.3,0l0,0.7Z" class="g2_425" />
<path d="M68.2,307.4l786.3,0l0,-0.7l-786.3,0l0,0.7Z" class="g2_425" />
<path d="M68.2,330.4l786.3,0l0,-0.8l-786.3,0l0,0.8Z" class="g2_425" />
<path d="M68.2,353.3l786.3,0l0,-0.7l-786.3,0l0,0.7Z" class="g2_425" />
</svg>