<?xml version="1.0" encoding="UTF-8" standalone="no"?>
<!DOCTYPE svg PUBLIC "-//W3C//DTD SVG 1.1//EN"
"http://www.w3.org/Graphics/SVG/1.1/DTD/svg11.dtd">
<svg viewBox="0 0 935 1210" version="1.1" xmlns="http://www.w3.org/2000/svg" xmlns:xlink="http://www.w3.org/1999/xlink">
<defs>
<style type="text/css"><![CDATA[
.g1_681{
fill: #FFFFFF;
}
.g2_681{
}
]]></style>
</defs>
<path d="M68.9,1149.3l686.3,0l0,-21.2l-686.3,0l0,21.2Z" class="g1_681" />
<path d="M771.3,1149.3l83.7,0l0,-21.2l-83.7,0l0,21.2Z" class="g1_681" />
<path d="M69.9,302.1l0.8,0l0,-176.4l-0.8,0l0,176.4Z" class="g2_681" />
<path d="M299.1,302.9l0.7,0l0,-178l-0.7,0l0,178Z" class="g2_681" />
<path d="M346.5,302.9l0.7,0l0,-178l-0.7,0l0,178Z" class="g2_681" />
<path d="M421,302.9l0.8,0l0,-178l-0.8,0l0,178Z" class="g2_681" />
<path d="M504.9,302.9l0.7,0l0,-178l-0.7,0l0,178Z" class="g2_681" />
<path d="M852.6,302.1l0.7,0l0,-176.4l-0.7,0l0,176.4Z" class="g2_681" />
<path d="M69.9,125.7l783.5,0l0,-0.8l-783.5,0l0,0.8Z" class="g2_681" />
<path d="M69.9,176.1l783.5,0l0,-0.7l-783.5,0l0,0.7Z" class="g2_681" />
<path d="M69.9,212.8l783.5,0l0,-0.8L69.9,212l0,0.8Z" class="g2_681" />
<path d="M69.9,249.4l783.5,0l0,-0.7l-783.5,0l0,0.7Z" class="g2_681" />
<path d="M69.9,302.9l783.5,0l0,-0.8l-783.5,0l0,0.8Z" class="g2_681" />
<path d="M72.1,454.9l0.7,0l0,-97l-0.7,0l0,97Z" class="g2_681" />
<path d="M191.6,455.7l0.7,0l0,-98.6l-0.7,0l0,98.6Z" class="g2_681" />
<path d="M360.3,455.7l0.8,0l0,-98.6l-0.8,0l0,98.6Z" class="g2_681" />
<path d="M527,455.7l0.7,0l0,-98.6l-0.7,0l0,98.6Z" class="g2_681" />
<path d="M687.9,455.7l0.7,0l0,-98.6l-0.7,0l0,98.6Z" class="g2_681" />
<path d="M849.9,454.9l0.8,0l0,-97l-0.8,0l0,97Z" class="g2_681" />
<path d="M72.1,357.9l778.7,0l0,-0.8l-778.7,0l0,0.8Z" class="g2_681" />
<path d="M72.1,382.3l778.7,0l0,-0.7l-778.7,0l0,0.7Z" class="g2_681" />
<path d="M72.1,406.8l778.7,0l0,-0.7l-778.7,0l0,0.7Z" class="g2_681" />
<path d="M72.1,431.2l778.7,0l0,-0.7l-778.7,0l0,0.7Z" class="g2_681" />
<path d="M72.1,455.7l778.7,0l0,-0.8l-778.7,0l0,0.8Z" class="g2_681" />
</svg>