<?xml version="1.0" encoding="UTF-8" standalone="no"?>
<!DOCTYPE svg PUBLIC "-//W3C//DTD SVG 1.1//EN"
"http://www.w3.org/Graphics/SVG/1.1/DTD/svg11.dtd">
<svg viewBox="0 0 935 1210" version="1.1" xmlns="http://www.w3.org/2000/svg" xmlns:xlink="http://www.w3.org/1999/xlink">
<defs>
<style type="text/css"><![CDATA[
.g1_78{
fill: #FFFFFF;
}
.g2_78{
}
]]></style>
</defs>
<path d="M68.8,1149.3l783.7,0l0,-21.2l-783.7,0l0,21.2Z" class="g1_78" />
<path d="M71.9,251.2l777.4,0l0,-29.6l-777.4,0l0,29.6Z" class="g1_78" />
<path d="M72.9,244.5l53.4,0l0,-12.5l-53.4,0l0,12.5Z" class="g1_78" />
<path d="M71.5,221.2l0.7,0l0,-97.1l-0.7,0l0,97.1Z" class="g2_78" />
<path d="M164.9,221.9l0.7,0l0,-98.5l-0.7,0l0,98.5Z" class="g2_78" />
<path d="M236.7,221.9l0.7,0l0,-98.5l-0.7,0l0,98.5Z" class="g2_78" />
<path d="M610,221.9l0.8,0l0,-98.5l-0.8,0l0,98.5Z" class="g2_78" />
<path d="M732.7,221.9l0.7,0l0,-98.5l-0.7,0l0,98.5Z" class="g2_78" />
<path d="M848.9,221.2l0.8,0l0,-97.1l-0.8,0l0,97.1Z" class="g2_78" />
<path d="M71.5,124.1l778.2,0l0,-0.7l-778.2,0l0,0.7Z" class="g2_78" />
<path d="M236.7,148.6l613,0l0,-0.7l-613,0l0,0.7Z" class="g2_78" />
<path d="M236.7,173l613,0l0,-0.8l-613,0l0,0.8Z" class="g2_78" />
<path d="M236.7,197.4l613,0l0,-0.7l-613,0l0,0.7Z" class="g2_78" />
<path d="M71.5,221.9l778.2,0l0,-0.7l-778.2,0l0,0.7Z" class="g2_78" />
<path d="M85.5,1071.2l0.8,0l0,-317.1l-0.8,0l0,317.1Z" class="g2_78" />
<path d="M217.1,1072l0.7,0l0,-318.6l-0.7,0l0,318.6Z" class="g2_78" />
<path d="M432.3,1072l0.7,0l0,-318.6l-0.7,0l0,318.6Z" class="g2_78" />
<path d="M718.8,1072l0.7,0l0,-318.6l-0.7,0l0,318.6Z" class="g2_78" />
<path d="M834.9,1071.2l0.7,0l0,-317.1l-0.7,0l0,317.1Z" class="g2_78" />
<path d="M85.5,754.1l750.1,0l0,-0.7l-750.1,0l0,0.7Z" class="g2_78" />
<path d="M85.5,778.6l750.1,0l0,-0.7l-750.1,0l0,0.7Z" class="g2_78" />
<path d="M85.5,803.1l750.1,0l0,-0.7l-750.1,0l0,0.7Z" class="g2_78" />
<path d="M85.5,827.5l750.1,0l0,-0.8l-750.1,0l0,0.8Z" class="g2_78" />
<path d="M85.5,852l750.1,0l0,-0.8l-750.1,0l0,0.8Z" class="g2_78" />
<path d="M85.5,876.4l750.1,0l0,-0.7l-750.1,0l0,0.7Z" class="g2_78" />
<path d="M85.5,900.8l750.1,0l0,-0.7l-750.1,0l0,0.7Z" class="g2_78" />
<path d="M85.5,925.3l750.1,0l0,-0.8l-750.1,0l0,0.8Z" class="g2_78" />
<path d="M85.5,949.8l750.1,0l0,-0.8L85.5,949l0,0.8Z" class="g2_78" />
<path d="M85.5,974.1l750.1,0l0,-0.7l-750.1,0l0,0.7Z" class="g2_78" />
<path d="M85.5,998.6l750.1,0l0,-0.7l-750.1,0l0,0.7Z" class="g2_78" />
<path d="M85.5,1023.1l750.1,0l0,-0.7l-750.1,0l0,0.7Z" class="g2_78" />
<path d="M85.5,1047.5l750.1,0l0,-0.8l-750.1,0l0,0.8Z" class="g2_78" />
<path d="M85.5,1072l750.1,0l0,-0.8l-750.1,0l0,0.8Z" class="g2_78" />
</svg>