<?xml version="1.0" encoding="UTF-8" standalone="no"?>
<!DOCTYPE svg PUBLIC "-//W3C//DTD SVG 1.1//EN"
"http://www.w3.org/Graphics/SVG/1.1/DTD/svg11.dtd">
<svg viewBox="0 0 935 1210" version="1.1" xmlns="http://www.w3.org/2000/svg" xmlns:xlink="http://www.w3.org/1999/xlink">
<defs>
<style type="text/css"><![CDATA[
.g1_2081{
fill: #FFFFFF;
}
.g2_2081{
}
]]></style>
</defs>
<path d="M68.9,1149.3l783.8,0l0,-21.2l-783.8,0l0,21.2Z" class="g1_2081" />
<path d="M69.9,1076.7l0.8,0l0,-952.6l-0.8,0l0,952.6Z" class="g2_2081" />
<path d="M469,1077.5l0.7,0l0,-954.1l-0.7,0l0,954.1Z" class="g2_2081" />
<path d="M852.5,1076.7l0.7,0l0,-952.6l-0.7,0l0,952.6Z" class="g2_2081" />
<path d="M69.9,124.1l783.4,0l0,-0.7l-783.4,0l0,0.7Z" class="g2_2081" />
<path d="M69.9,148.6l783.4,0l0,-0.7l-783.4,0l0,0.7Z" class="g2_2081" />
<path d="M69.9,173l783.4,0l0,-0.8l-783.4,0l0,0.8Z" class="g2_2081" />
<path d="M69.9,197.4l783.4,0l0,-0.7l-783.4,0l0,0.7Z" class="g2_2081" />
<path d="M69.9,221.9l783.4,0l0,-0.7l-783.4,0l0,0.7Z" class="g2_2081" />
<path d="M69.9,246.3l783.4,0l0,-0.7l-783.4,0l0,0.7Z" class="g2_2081" />
<path d="M69.9,270.8l783.4,0l0,-0.7l-783.4,0l0,0.7Z" class="g2_2081" />
<path d="M69.9,295.3l783.4,0l0,-0.8l-783.4,0l0,0.8Z" class="g2_2081" />
<path d="M69.9,319.6l783.4,0l0,-0.7l-783.4,0l0,0.7Z" class="g2_2081" />
<path d="M69.9,344.1l783.4,0l0,-0.7l-783.4,0l0,0.7Z" class="g2_2081" />
<path d="M69.9,368.6l783.4,0l0,-0.7l-783.4,0l0,0.7Z" class="g2_2081" />
<path d="M69.9,393l783.4,0l0,-0.8l-783.4,0l0,0.8Z" class="g2_2081" />
<path d="M69.9,417.4l783.4,0l0,-0.7l-783.4,0l0,0.7Z" class="g2_2081" />
<path d="M69.9,441.9l783.4,0l0,-0.7l-783.4,0l0,0.7Z" class="g2_2081" />
<path d="M69.9,466.4l783.4,0l0,-0.7l-783.4,0l0,0.7Z" class="g2_2081" />
<path d="M69.9,490.8l783.4,0l0,-0.8L69.9,490l0,0.8Z" class="g2_2081" />
<path d="M69.9,515.3l783.4,0l0,-0.8l-783.4,0l0,0.8Z" class="g2_2081" />
<path d="M69.9,539.7l783.4,0l0,-0.7L69.9,539l0,0.7Z" class="g2_2081" />
<path d="M69.9,564.1l783.4,0l0,-0.7l-783.4,0l0,0.7Z" class="g2_2081" />
<path d="M69.9,588.6l783.4,0l0,-0.7l-783.4,0l0,0.7Z" class="g2_2081" />
<path d="M69.9,613.1l783.4,0l0,-0.8l-783.4,0l0,0.8Z" class="g2_2081" />
<path d="M69.9,637.4l783.4,0l0,-0.7l-783.4,0l0,0.7Z" class="g2_2081" />
<path d="M69.9,661.9l783.4,0l0,-0.7l-783.4,0l0,0.7Z" class="g2_2081" />
<path d="M69.9,686.4l783.4,0l0,-0.7l-783.4,0l0,0.7Z" class="g2_2081" />
<path d="M69.9,710.8l783.4,0l0,-0.8L69.9,710l0,0.8Z" class="g2_2081" />
<path d="M69.9,735.3l783.4,0l0,-0.8l-783.4,0l0,0.8Z" class="g2_2081" />
<path d="M69.9,759.7l783.4,0l0,-0.7L69.9,759l0,0.7Z" class="g2_2081" />
<path d="M69.9,784.1l783.4,0l0,-0.7l-783.4,0l0,0.7Z" class="g2_2081" />
<path d="M69.9,808.6l783.4,0l0,-0.7l-783.4,0l0,0.7Z" class="g2_2081" />
<path d="M69.9,833.1l783.4,0l0,-0.8l-783.4,0l0,0.8Z" class="g2_2081" />
<path d="M69.9,857.5l783.4,0l0,-0.8l-783.4,0l0,0.8Z" class="g2_2081" />
<path d="M69.9,881.9l783.4,0l0,-0.7l-783.4,0l0,0.7Z" class="g2_2081" />
<path d="M69.9,906.4l783.4,0l0,-0.7l-783.4,0l0,0.7Z" class="g2_2081" />
<path d="M69.9,930.8l783.4,0l0,-0.7l-783.4,0l0,0.7Z" class="g2_2081" />
<path d="M69.9,955.3l783.4,0l0,-0.8l-783.4,0l0,0.8Z" class="g2_2081" />
<path d="M69.9,979.7l783.4,0l0,-0.7L69.9,979l0,0.7Z" class="g2_2081" />
<path d="M69.9,1004.1l783.4,0l0,-0.7l-783.4,0l0,0.7Z" class="g2_2081" />
<path d="M69.9,1028.6l783.4,0l0,-0.7l-783.4,0l0,0.7Z" class="g2_2081" />
<path d="M69.9,1053.1l783.4,0l0,-0.8l-783.4,0l0,0.8Z" class="g2_2081" />
<path d="M69.9,1077.5l783.4,0l0,-0.8l-783.4,0l0,0.8Z" class="g2_2081" />
</svg>