<?xml version="1.0" encoding="UTF-8" standalone="no"?>
<!DOCTYPE svg PUBLIC "-//W3C//DTD SVG 1.1//EN"
"http://www.w3.org/Graphics/SVG/1.1/DTD/svg11.dtd">
<svg viewBox="0 0 935 1210" version="1.1" xmlns="http://www.w3.org/2000/svg" xmlns:xlink="http://www.w3.org/1999/xlink">
<defs>
<style type="text/css"><![CDATA[
.g1_1294{
fill: #FFFFFF;
}
.g2_1294{
}
]]></style>
</defs>
<path d="M165,1149.3l687.5,0l0,-21.2l-687.5,0l0,21.2Z" class="g1_1294" />
<path d="M68.8,1149.3l82.5,0l0,-21.2l-82.5,0l0,21.2Z" class="g1_1294" />
<path d="M71.9,222.7l0.7,0l0,-97l-0.7,0l0,97Z" class="g2_1294" />
<path d="M355.9,223.5l0.7,0l0,-98.6l-0.7,0l0,98.6Z" class="g2_1294" />
<path d="M403.8,223.5l0.7,0l0,-98.6l-0.7,0l0,98.6Z" class="g2_1294" />
<path d="M477.1,223.5l0.8,0l0,-98.6l-0.8,0l0,98.6Z" class="g2_1294" />
<path d="M548.4,223.5l0.8,0l0,-98.6l-0.8,0l0,98.6Z" class="g2_1294" />
<path d="M848.6,222.7l0.7,0l0,-97l-0.7,0l0,97Z" class="g2_1294" />
<path d="M71.9,125.7l777.4,0l0,-0.8l-777.4,0l0,0.8Z" class="g2_1294" />
<path d="M71.9,179.1l777.4,0l0,-0.7l-777.4,0l0,0.7Z" class="g2_1294" />
<path d="M71.9,223.4l777.4,0l0,-0.7l-777.4,0l0,0.7Z" class="g2_1294" />
<path d="M69.1,326.6l0.8,0l0,-48.1l-0.8,0l0,48.1Z" class="g2_1294" />
<path d="M136.4,327.3l0.7,0l0,-49.6l-0.7,0l0,49.6Z" class="g2_1294" />
<path d="M308.4,327.3l0.7,0l0,-49.6l-0.7,0l0,49.6Z" class="g2_1294" />
<path d="M487.2,327.3l0.7,0l0,-49.6l-0.7,0l0,49.6Z" class="g2_1294" />
<path d="M666.6,327.3l0.7,0l0,-49.6l-0.7,0l0,49.6Z" class="g2_1294" />
<path d="M851.3,326.6l0.7,0l0,-48.1l-0.7,0l0,48.1Z" class="g2_1294" />
<path d="M69.1,278.4l782.9,0l0,-0.7l-782.9,0l0,0.7Z" class="g2_1294" />
<path d="M69.1,302.9l782.9,0l0,-0.8l-782.9,0l0,0.8Z" class="g2_1294" />
<path d="M69.1,327.3l782.9,0l0,-0.7l-782.9,0l0,0.7Z" class="g2_1294" />
</svg>