<?xml version="1.0" encoding="UTF-8" standalone="no"?>
<!DOCTYPE svg PUBLIC "-//W3C//DTD SVG 1.1//EN"
"http://www.w3.org/Graphics/SVG/1.1/DTD/svg11.dtd">
<svg viewBox="0 0 935 1210" version="1.1" xmlns="http://www.w3.org/2000/svg" xmlns:xlink="http://www.w3.org/1999/xlink">
<defs>
<style type="text/css"><![CDATA[
.g1_1{
fill: #FFFFFF;
}
.g2_1{
fill: #007CBA;
}
]]></style>
</defs>
<path d="M655.6,194.9l228.1,0l0,-172.2l-228.1,0l0,172.2Z" class="g1_1" />
<path d="M765.6,150.5c-32,3,-65.4,-1.7,-70.1,-26.6c-2.3,-12.3,3.4,-25.4,10.8,-33.5l0,-4.3c-13.4,11.8,-20.7,26.6,-16.5,44.2c5.3,22.5,34,35.2,77.7,31c17.3,-1.7,39.9,-7.2,55.7,-15.8l0,-12.3c-14.3,8.5,-37.9,15.5,-57.6,17.3ZM849.9,85.8c-7.6,-37,-79.6,-39.3,-126,-11.1l0,3.1C770.3,54,836,54.2,842,88.2c2,11.3,-4.3,23,-15.7,29.8l0,8.8c13.7,-5,27.7,-21.2,23.6,-41Z" class="g2_1" />
<path d="M820.6,80.4l-8.4,0l0,37.3c0,4.4,2.1,8.2,8.4,8.8l0,-46.1Z" class="g2_1" />
<path d="M720.6,94l-8.4,0l0,24.4c0,4.4,2.1,8.2,8.4,8.8l0,-33.2Z" class="g2_1" />
<path d="M712.2,89.5l8.4,0l0,-7.9l-8.4,0l0,7.9Z" class="g2_1" />
<path d="M770.9,126.8c-6.8,0,-9.7,-4.7,-9.7,-9.4l0,-32.3l8.4,0l0,8.9l6.2,0l0,6.7l-6.2,0l0,16.2c0,1.9,0.9,3,2.8,3l3.4,0l0,6.9l-4.9,0Z" class="g2_1" />
<path d="M786.2,113c0,4.3,2.7,7.4,7.4,7.4c3.7,0,5.5,-1,7.6,-3.1l5.2,4.9c-3.3,3.2,-6.8,5.2,-12.9,5.2c-7.9,0,-15.6,-4.4,-15.6,-17c0,-10.8,6.7,-16.9,15.5,-16.9c8.8,0,13.9,7.1,13.9,16.5l0,3l-21.1,0M793,100.4c-2.9,0,-5.1,1.4,-6,3.4c-0.5,1.2,-0.7,2.1,-0.8,3.6l12.8,0c-0.1,-3.6,-1.7,-7,-6,-7Z" class="g2_1" />
<path d="M743.2,100.7c2.5,0,3.5,1.3,3.5,3.2l0,22.9l8.3,0l0,-22.9c0,-4.7,-2.5,-9.8,-9.8,-9.8L728,94l0,32.8l8.3,0l0,-26.1l6.9,0Z" class="g2_1" />
<path d="M829.6,87.1c-1.8,0,-3.3,-1.5,-3.3,-3.3c0,-1.9,1.5,-3.4,3.3,-3.4c1.9,0,3.4,1.5,3.4,3.4c0,1.8,-1.5,3.3,-3.4,3.3Zm0,-6.1c-1.5,0,-2.7,1.2,-2.7,2.8c0,1.5,1.2,2.7,2.7,2.7c1.6,0,2.8,-1.2,2.8,-2.7c0,-1.6,-1.2,-2.8,-2.8,-2.8Zm1.5,4.8l-0.6,0c-0.1,0,-0.1,-0.1,-0.1,-0.1l-0.9,-1.5c0,0,-0.1,0,-0.1,0c0,0,-0.1,0,-0.2,0c-0.1,0,-0.2,0,-0.2,0l0,1.4c0,0.1,0,0.2,-0.1,0.2l-0.6,0c-0.1,0,-0.1,-0.1,-0.1,-0.2l0,-3.6c0,-0.2,0,-0.3,0.2,-0.3c0.2,0,0.8,-0.1,1,-0.1c1.1,0,1.7,0.3,1.7,1.3l0,0.1c0,0.6,-0.3,0.9,-0.8,1l0.9,1.5c0,0.1,0,0.1,0,0.1c0,0.1,0,0.2,-0.1,0.2Zm-0.8,-2.9c0,-0.4,-0.2,-0.5,-0.8,-0.5c-0.1,0,-0.2,0,-0.4,0c0,0,-0.1,0,-0.1,0l0,1.1c0.1,0,0.4,0,0.5,0c0.6,0,0.8,-0.1,0.8,-0.5l0,-0.1Z" class="g2_1" />
</svg>