<?xml version="1.0" encoding="UTF-8" standalone="no"?>
<!DOCTYPE svg PUBLIC "-//W3C//DTD SVG 1.1//EN"
"http://www.w3.org/Graphics/SVG/1.1/DTD/svg11.dtd">
<svg viewBox="0 0 935 1210" version="1.1" xmlns="http://www.w3.org/2000/svg" xmlns:xlink="http://www.w3.org/1999/xlink">
<defs>
<style type="text/css"><![CDATA[
.g1_1687{
fill: #FFFFFF;
}
.g2_1687{
}
]]></style>
</defs>
<path d="M68.9,1149.3l686.3,0l0,-21.2l-686.3,0l0,21.2Z" class="g1_1687" />
<path d="M771.3,1149.3l83.7,0l0,-21.2l-83.7,0l0,21.2Z" class="g1_1687" />
<path d="M69.9,1079.8l0.8,0l0,-954.1l-0.8,0l0,954.1Z" class="g2_1687" />
<path d="M360.3,1080.6l0.7,0l0,-955.7l-0.7,0l0,955.7Z" class="g2_1687" />
<path d="M404.9,1080.6l0.7,0l0,-955.7l-0.7,0l0,955.7Z" class="g2_1687" />
<path d="M479.4,1080.6l0.8,0l0,-955.7l-0.8,0l0,955.7Z" class="g2_1687" />
<path d="M567,1080.6l0.7,0l0,-955.7l-0.7,0l0,955.7Z" class="g2_1687" />
<path d="M856,1079.8l0.7,0l0,-954.1l-0.7,0l0,954.1Z" class="g2_1687" />
<path d="M69.9,125.7l786.8,0l0,-0.8l-786.8,0l0,0.8Z" class="g2_1687" />
<path d="M69.9,176.1l786.8,0l0,-0.7l-786.8,0l0,0.7Z" class="g2_1687" />
<path d="M69.9,212.8l786.8,0l0,-0.8L69.9,212l0,0.8Z" class="g2_1687" />
<path d="M69.9,249.4l786.8,0l0,-0.7l-786.8,0l0,0.7Z" class="g2_1687" />
<path d="M69.9,286.1l786.8,0l0,-0.7l-786.8,0l0,0.7Z" class="g2_1687" />
<path d="M69.9,322.8l786.8,0l0,-0.8L69.9,322l0,0.8Z" class="g2_1687" />
<path d="M69.9,376.2l786.8,0l0,-0.7l-786.8,0l0,0.7Z" class="g2_1687" />
<path d="M69.9,412.9l786.8,0l0,-0.8l-786.8,0l0,0.8Z" class="g2_1687" />
<path d="M69.9,449.5l786.8,0l0,-0.7l-786.8,0l0,0.7Z" class="g2_1687" />
<path d="M69.9,503.1l786.8,0l0,-0.8l-786.8,0l0,0.8Z" class="g2_1687" />
<path d="M69.9,556.5l786.8,0l0,-0.7l-786.8,0l0,0.7Z" class="g2_1687" />
<path d="M69.9,609.9l786.8,0l0,-0.7l-786.8,0l0,0.7Z" class="g2_1687" />
<path d="M69.9,646.6l786.8,0l0,-0.7l-786.8,0l0,0.7Z" class="g2_1687" />
<path d="M69.9,683.3l786.8,0l0,-0.7l-786.8,0l0,0.7Z" class="g2_1687" />
<path d="M69.9,736.8l786.8,0l0,-0.7l-786.8,0l0,0.7Z" class="g2_1687" />
<path d="M69.9,790.3l786.8,0l0,-0.8l-786.8,0l0,0.8Z" class="g2_1687" />
<path d="M69.9,843.7l786.8,0l0,-0.7L69.9,843l0,0.7Z" class="g2_1687" />
<path d="M69.9,880.4l786.8,0l0,-0.8l-786.8,0l0,0.8Z" class="g2_1687" />
<path d="M69.9,917l786.8,0l0,-0.7l-786.8,0l0,0.7Z" class="g2_1687" />
<path d="M69.9,953.7l786.8,0l0,-0.7L69.9,953l0,0.7Z" class="g2_1687" />
<path d="M69.9,990.4l786.8,0l0,-0.8l-786.8,0l0,0.8Z" class="g2_1687" />
<path d="M69.9,1027l786.8,0l0,-0.7l-786.8,0l0,0.7Z" class="g2_1687" />
<path d="M69.9,1080.6l786.8,0l0,-0.8l-786.8,0l0,0.8Z" class="g2_1687" />
</svg>