<?xml version="1.0" encoding="UTF-8" standalone="no"?>
<!DOCTYPE svg PUBLIC "-//W3C//DTD SVG 1.1//EN"
"http://www.w3.org/Graphics/SVG/1.1/DTD/svg11.dtd">
<svg viewBox="0 0 935 1210" version="1.1" xmlns="http://www.w3.org/2000/svg" xmlns:xlink="http://www.w3.org/1999/xlink">
<defs>
<style type="text/css"><![CDATA[
.g1_258{
fill: #FFFFFF;
}
.g2_258{
}
]]></style>
</defs>
<path d="M165,1149.3l687.5,0l0,-21.2l-687.5,0l0,21.2Z" class="g1_258" />
<path d="M68.8,1149.3l82.5,0l0,-21.2l-82.5,0l0,21.2Z" class="g1_258" />
<path d="M68,1076.7l0.8,0l0,-757l-0.8,0l0,757Z" class="g2_258" />
<path d="M193.4,1077.5l0.8,0l0,-758.6l-0.8,0l0,758.6Z" class="g2_258" />
<path d="M242.8,1077.5l0.8,0l0,-758.6l-0.8,0l0,758.6Z" class="g2_258" />
<path d="M515.4,1077.5l0.7,0l0,-758.6l-0.7,0l0,758.6Z" class="g2_258" />
<path d="M582.6,1077.5l0.8,0l0,-734.1l-0.8,0l0,734.1Z" class="g2_258" />
<path d="M641.6,1077.5l0.7,0l0,-734.1l-0.7,0l0,734.1Z" class="g2_258" />
<path d="M704.2,1077.5l0.7,0l0,-734.1l-0.7,0l0,734.1Z" class="g2_258" />
<path d="M788.8,1077.5l0.7,0l0,-758.6l-0.7,0l0,758.6Z" class="g2_258" />
<path d="M852.4,1076.7l0.7,0l0,-757l-0.7,0l0,757Z" class="g2_258" />
<path d="M68,319.6l785.1,0l0,-0.7L68,318.9l0,0.7Z" class="g2_258" />
<path d="M515.3,344.1l274.2,0l0,-0.7l-274.2,0l0,0.7Z" class="g2_258" />
<path d="M68,374.6l785.1,0l0,-0.7L68,373.9l0,0.7Z" class="g2_258" />
<path d="M68,399.1l785.1,0l0,-0.7L68,398.4l0,0.7Z" class="g2_258" />
<path d="M68,423.6l785.1,0l0,-0.7L68,422.9l0,0.7Z" class="g2_258" />
<path d="M68,448.1l785.1,0l0,-0.8L68,447.3l0,0.8Z" class="g2_258" />
<path d="M68,472.4l785.1,0l0,-0.7L68,471.7l0,0.7Z" class="g2_258" />
<path d="M68,496.9l785.1,0l0,-0.7L68,496.2l0,0.7Z" class="g2_258" />
<path d="M68,521.4l785.1,0l0,-0.7L68,520.7l0,0.7Z" class="g2_258" />
<path d="M68,545.8l785.1,0l0,-0.7L68,545.1l0,0.7Z" class="g2_258" />
<path d="M68,570.3l785.1,0l0,-0.8L68,569.5l0,0.8Z" class="g2_258" />
<path d="M68,594.7l785.1,0l0,-0.7L68,594l0,0.7Z" class="g2_258" />
<path d="M68,636l785.1,0l0,-0.8L68,635.2l0,0.8Z" class="g2_258" />
<path d="M68,660.4l785.1,0l0,-0.8L68,659.6l0,0.8Z" class="g2_258" />
<path d="M68,684.8l785.1,0l0,-0.7L68,684.1l0,0.7Z" class="g2_258" />
<path d="M68,709.3l785.1,0l0,-0.7L68,708.6l0,0.7Z" class="g2_258" />
<path d="M68,733.7l785.1,0l0,-0.7L68,733l0,0.7Z" class="g2_258" />
<path d="M68,758.2l785.1,0l0,-0.8L68,757.4l0,0.8Z" class="g2_258" />
<path d="M68,782.7l785.1,0l0,-0.8L68,781.9l0,0.8Z" class="g2_258" />
<path d="M68,807l785.1,0l0,-0.7L68,806.3l0,0.7Z" class="g2_258" />
<path d="M68,831.5l785.1,0l0,-0.7L68,830.8l0,0.7Z" class="g2_258" />
<path d="M68,856l785.1,0l0,-0.8L68,855.2l0,0.8Z" class="g2_258" />
<path d="M68,880.4l785.1,0l0,-0.8L68,879.6l0,0.8Z" class="g2_258" />
<path d="M68,904.8l785.1,0l0,-0.7L68,904.1l0,0.7Z" class="g2_258" />
<path d="M68,929.3l785.1,0l0,-0.7L68,928.6l0,0.7Z" class="g2_258" />
<path d="M68,970.6l785.1,0l0,-0.8L68,969.8l0,0.8Z" class="g2_258" />
<path d="M68,1011.8l785.1,0l0,-0.7l-785.1,0l0,0.7Z" class="g2_258" />
<path d="M68,1036.2l785.1,0l0,-0.7l-785.1,0l0,0.7Z" class="g2_258" />
<path d="M68,1077.5l785.1,0l0,-0.8l-785.1,0l0,0.8Z" class="g2_258" />
</svg>