<?xml version="1.0" encoding="UTF-8" standalone="no"?>
<!DOCTYPE svg PUBLIC "-//W3C//DTD SVG 1.1//EN"
"http://www.w3.org/Graphics/SVG/1.1/DTD/svg11.dtd">
<svg viewBox="0 0 935 1210" version="1.1" xmlns="http://www.w3.org/2000/svg" xmlns:xlink="http://www.w3.org/1999/xlink">
<defs>
<style type="text/css"><![CDATA[
.g1_1482{
fill: #FFFFFF;
}
.g2_1482{
}
]]></style>
</defs>
<path d="M165,1149.3l687.5,0l0,-21.2l-687.5,0l0,21.2Z" class="g1_1482" />
<path d="M68.8,1149.3l82.5,0l0,-21.2l-82.5,0l0,21.2Z" class="g1_1482" />
<path d="M68.6,998.8l0.7,0L69.3,147l-0.7,0l0,851.8Z" class="g2_1482" />
<path d="M323.2,999.6l0.7,0l0,-853.3l-0.7,0l0,853.3Z" class="g2_1482" />
<path d="M371.1,999.6l0.7,0l0,-853.3l-0.7,0l0,853.3Z" class="g2_1482" />
<path d="M445.6,999.6l0.7,0l0,-853.3l-0.7,0l0,853.3Z" class="g2_1482" />
<path d="M531.5,999.6l0.7,0l0,-853.3l-0.7,0l0,853.3Z" class="g2_1482" />
<path d="M852.9,998.8l0.7,0l0,-851.8l-0.7,0l0,851.8Z" class="g2_1482" />
<path d="M68.6,147l785,0l0,-0.7l-785,0l0,0.7Z" class="g2_1482" />
<path d="M68.6,197.4l785,0l0,-0.7l-785,0l0,0.7Z" class="g2_1482" />
<path d="M68.6,250.9l785,0l0,-0.7l-785,0l0,0.7Z" class="g2_1482" />
<path d="M68.6,304.4l785,0l0,-0.7l-785,0l0,0.7Z" class="g2_1482" />
<path d="M68.6,357.9l785,0l0,-0.8l-785,0l0,0.8Z" class="g2_1482" />
<path d="M68.6,411.4l785,0l0,-0.7l-785,0l0,0.7Z" class="g2_1482" />
<path d="M68.6,464.8l785,0l0,-0.7l-785,0l0,0.7Z" class="g2_1482" />
<path d="M68.6,518.3l785,0l0,-0.7l-785,0l0,0.7Z" class="g2_1482" />
<path d="M68.6,571.8l785,0l0,-0.7l-785,0l0,0.7Z" class="g2_1482" />
<path d="M68.6,625.3l785,0l0,-0.8l-785,0l0,0.8Z" class="g2_1482" />
<path d="M68.6,678.7l785,0l0,-0.7l-785,0l0,0.7Z" class="g2_1482" />
<path d="M68.6,732.2l785,0l0,-0.7l-785,0l0,0.7Z" class="g2_1482" />
<path d="M68.6,785.7l785,0l0,-0.8l-785,0l0,0.8Z" class="g2_1482" />
<path d="M68.6,839.1l785,0l0,-0.7l-785,0l0,0.7Z" class="g2_1482" />
<path d="M68.6,892.7l785,0l0,-0.8l-785,0l0,0.8Z" class="g2_1482" />
<path d="M68.6,946.1l785,0l0,-0.7l-785,0l0,0.7Z" class="g2_1482" />
<path d="M68.6,999.5l785,0l0,-0.7l-785,0l0,0.7Z" class="g2_1482" />
</svg>