<?xml version="1.0" encoding="UTF-8" standalone="no"?>
<!DOCTYPE svg PUBLIC "-//W3C//DTD SVG 1.1//EN"
"http://www.w3.org/Graphics/SVG/1.1/DTD/svg11.dtd">
<svg viewBox="0 0 935 1210" version="1.1" xmlns="http://www.w3.org/2000/svg" xmlns:xlink="http://www.w3.org/1999/xlink">
<defs>
<style type="text/css"><![CDATA[
.g1_2110{
fill: #FFFFFF;
}
.g2_2110{
}
]]></style>
</defs>
<path d="M68.8,1149.3l783.7,0l0,-21.2l-783.7,0l0,21.2Z" class="g1_2110" />
<path d="M68.6,514.5l0.7,0l0,-390.4l-0.7,0l0,390.4Z" class="g2_2110" />
<path d="M397.6,515.3l0.7,0l0,-391.9l-0.7,0l0,391.9Z" class="g2_2110" />
<path d="M849.9,514.5l0.8,0l0,-390.4l-0.8,0l0,390.4Z" class="g2_2110" />
<path d="M68.6,124.1l782.1,0l0,-0.7l-782.1,0l0,0.7Z" class="g2_2110" />
<path d="M68.6,148.6l782.1,0l0,-0.7l-782.1,0l0,0.7Z" class="g2_2110" />
<path d="M68.6,173l782.1,0l0,-0.8l-782.1,0l0,0.8Z" class="g2_2110" />
<path d="M68.6,197.4l782.1,0l0,-0.7l-782.1,0l0,0.7Z" class="g2_2110" />
<path d="M68.6,221.9l782.1,0l0,-0.7l-782.1,0l0,0.7Z" class="g2_2110" />
<path d="M68.6,246.3l782.1,0l0,-0.7l-782.1,0l0,0.7Z" class="g2_2110" />
<path d="M68.6,270.8l782.1,0l0,-0.7l-782.1,0l0,0.7Z" class="g2_2110" />
<path d="M68.6,295.3l782.1,0l0,-0.8l-782.1,0l0,0.8Z" class="g2_2110" />
<path d="M68.6,319.6l782.1,0l0,-0.7l-782.1,0l0,0.7Z" class="g2_2110" />
<path d="M68.6,344.1l782.1,0l0,-0.7l-782.1,0l0,0.7Z" class="g2_2110" />
<path d="M68.6,368.6l782.1,0l0,-0.7l-782.1,0l0,0.7Z" class="g2_2110" />
<path d="M68.6,393l782.1,0l0,-0.8l-782.1,0l0,0.8Z" class="g2_2110" />
<path d="M68.6,417.4l782.1,0l0,-0.7l-782.1,0l0,0.7Z" class="g2_2110" />
<path d="M68.6,441.9l782.1,0l0,-0.7l-782.1,0l0,0.7Z" class="g2_2110" />
<path d="M68.6,466.4l782.1,0l0,-0.7l-782.1,0l0,0.7Z" class="g2_2110" />
<path d="M68.6,490.8l782.1,0l0,-0.8L68.6,490l0,0.8Z" class="g2_2110" />
<path d="M68.6,515.3l782.1,0l0,-0.8l-782.1,0l0,0.8Z" class="g2_2110" />
<path d="M68.6,968.3l0.7,0l0,-402.6l-0.7,0l0,402.6Z" class="g2_2110" />
<path d="M398,969l0.8,0l0,-404.1l-0.8,0L398,969Z" class="g2_2110" />
<path d="M851.1,968.3l0.8,0l0,-402.6l-0.8,0l0,402.6Z" class="g2_2110" />
<path d="M68.6,565.7l783.3,0l0,-0.8l-783.3,0l0,0.8Z" class="g2_2110" />
<path d="M68.6,590.2l783.3,0l0,-0.8l-783.3,0l0,0.8Z" class="g2_2110" />
<path d="M68.6,629.8l783.3,0l0,-0.7l-783.3,0l0,0.7Z" class="g2_2110" />
<path d="M68.6,654.3l783.3,0l0,-0.7l-783.3,0l0,0.7Z" class="g2_2110" />
<path d="M68.6,678.7l783.3,0l0,-0.7L68.6,678l0,0.7Z" class="g2_2110" />
<path d="M68.6,703.2l783.3,0l0,-0.8l-783.3,0l0,0.8Z" class="g2_2110" />
<path d="M68.6,742.9l783.3,0l0,-0.8l-783.3,0l0,0.8Z" class="g2_2110" />
<path d="M68.6,767.3l783.3,0l0,-0.7l-783.3,0l0,0.7Z" class="g2_2110" />
<path d="M68.6,807l783.3,0l0,-0.7l-783.3,0l0,0.7Z" class="g2_2110" />
<path d="M68.6,831.5l783.3,0l0,-0.7l-783.3,0l0,0.7Z" class="g2_2110" />
<path d="M68.6,871.2l783.3,0l0,-0.7l-783.3,0l0,0.7Z" class="g2_2110" />
<path d="M68.6,895.7l783.3,0l0,-0.8l-783.3,0l0,0.8Z" class="g2_2110" />
<path d="M68.6,920.2l783.3,0l0,-0.8l-783.3,0l0,0.8Z" class="g2_2110" />
<path d="M68.6,944.5l783.3,0l0,-0.7l-783.3,0l0,0.7Z" class="g2_2110" />
<path d="M68.6,969l783.3,0l0,-0.7l-783.3,0l0,0.7Z" class="g2_2110" />
</svg>