<?xml version="1.0" encoding="UTF-8" standalone="no"?>
<!DOCTYPE svg PUBLIC "-//W3C//DTD SVG 1.1//EN"
"http://www.w3.org/Graphics/SVG/1.1/DTD/svg11.dtd">
<svg viewBox="0 0 935 1210" version="1.1" xmlns="http://www.w3.org/2000/svg" xmlns:xlink="http://www.w3.org/1999/xlink">
<defs>
<style type="text/css"><![CDATA[
.g1_1847{
fill: #FFFFFF;
}
.g2_1847{
fill: #0860A8;
}
.g3_1847{
}
]]></style>
</defs>
<path d="M68.9,1149.3l686.3,0l0,-21.2l-686.3,0l0,21.2Z" class="g1_1847" />
<path d="M771.3,1149.3l83.7,0l0,-21.2l-83.7,0l0,21.2Z" class="g1_1847" />
<path d="M524.5,658.6l327.9,0l0,-0.8l-327.9,0l0,0.8Z" class="g2_1847" />
<path d="M70.3,675.4l673.5,0l0,-0.8l-673.5,0l0,0.8Z" class="g2_1847" />
<path d="M69.9,262.4l0.8,0l0,-136.7l-0.8,0l0,136.7Z" class="g3_1847" />
<path d="M292,263.2l0.7,0l0,-138.3l-0.7,0l0,138.3Z" class="g3_1847" />
<path d="M335.5,263.2l0.7,0l0,-138.3l-0.7,0l0,138.3Z" class="g3_1847" />
<path d="M410,263.2l0.8,0l0,-138.3l-0.8,0l0,138.3Z" class="g3_1847" />
<path d="M486.8,263.2l0.7,0l0,-138.3l-0.7,0l0,138.3Z" class="g3_1847" />
<path d="M851,262.4l0.8,0l0,-136.7l-0.8,0l0,136.7Z" class="g3_1847" />
<path d="M69.9,125.7l781.9,0l0,-0.8l-781.9,0l0,0.8Z" class="g3_1847" />
<path d="M69.9,176.1l781.9,0l0,-0.7l-781.9,0l0,0.7Z" class="g3_1847" />
<path d="M69.9,263.2l781.9,0l0,-0.8l-781.9,0l0,0.8Z" class="g3_1847" />
<path d="M71.3,366.3l0.8,0l0,-48.1l-0.8,0l0,48.1Z" class="g3_1847" />
<path d="M190.3,367l0.7,0l0,-49.6l-0.7,0l0,49.6Z" class="g3_1847" />
<path d="M350.5,367l0.8,0l0,-49.6l-0.8,0l0,49.6Z" class="g3_1847" />
<path d="M515.6,367l0.8,0l0,-49.6l-0.8,0l0,49.6Z" class="g3_1847" />
<path d="M684.3,367l0.7,0l0,-49.6l-0.7,0l0,49.6Z" class="g3_1847" />
<path d="M850.7,366.3l0.7,0l0,-48.1l-0.7,0l0,48.1Z" class="g3_1847" />
<path d="M71.3,318.2l780.1,0l0,-0.8l-780.1,0l0,0.8Z" class="g3_1847" />
<path d="M71.3,342.6l780.1,0l0,-0.8l-780.1,0l0,0.8Z" class="g3_1847" />
<path d="M71.3,367l780.1,0l0,-0.7l-780.1,0l0,0.7Z" class="g3_1847" />
</svg>