<?xml version="1.0" encoding="UTF-8" standalone="no"?>
<!DOCTYPE svg PUBLIC "-//W3C//DTD SVG 1.1//EN"
"http://www.w3.org/Graphics/SVG/1.1/DTD/svg11.dtd">
<svg viewBox="0 0 935 1210" version="1.1" xmlns="http://www.w3.org/2000/svg" xmlns:xlink="http://www.w3.org/1999/xlink">
<defs>
<style type="text/css"><![CDATA[
.g1_1244{
fill: #FFFFFF;
}
.g2_1244{
}
]]></style>
</defs>
<path d="M165,1149.3l687.5,0l0,-21.2l-687.5,0l0,21.2Z" class="g1_1244" />
<path d="M68.8,1149.3l82.5,0l0,-21.2l-82.5,0l0,21.2Z" class="g1_1244" />
<path d="M70.7,490.1l0.7,0l0,-355.3l-0.7,0l0,355.3Z" class="g2_1244" />
<path d="M220.3,490.8l0.7,0l0,-356.7l-0.7,0l0,356.7Z" class="g2_1244" />
<path d="M390,490.8l0.7,0l0,-356.7l-0.7,0l0,356.7Z" class="g2_1244" />
<path d="M427.8,490.8l0.7,0l0,-356.7l-0.7,0l0,356.7Z" class="g2_1244" />
<path d="M501.1,490.8l0.8,0l0,-356.7l-0.8,0l0,356.7Z" class="g2_1244" />
<path d="M572.6,490.8l0.7,0l0,-356.7l-0.7,0l0,356.7Z" class="g2_1244" />
<path d="M849.8,490.1l0.7,0l0,-355.3l-0.7,0l0,355.3Z" class="g2_1244" />
<path d="M70.7,134.8l779.8,0l0,-0.7l-779.8,0l0,0.7Z" class="g2_1244" />
<path d="M70.7,173l779.8,0l0,-0.8l-779.8,0l0,0.8Z" class="g2_1244" />
<path d="M70.7,212.8l779.8,0l0,-0.8L70.7,212l0,0.8Z" class="g2_1244" />
<path d="M70.7,252.4l779.8,0l0,-0.7l-779.8,0l0,0.7Z" class="g2_1244" />
<path d="M70.7,292.1l779.8,0l0,-0.7l-779.8,0l0,0.7Z" class="g2_1244" />
<path d="M70.7,331.9l779.8,0l0,-0.7l-779.8,0l0,0.7Z" class="g2_1244" />
<path d="M70.7,371.6l779.8,0l0,-0.7l-779.8,0l0,0.7Z" class="g2_1244" />
<path d="M70.7,411.4l779.8,0l0,-0.7l-779.8,0l0,0.7Z" class="g2_1244" />
<path d="M70.7,451.1l779.8,0l0,-0.7l-779.8,0l0,0.7Z" class="g2_1244" />
<path d="M70.7,490.8l779.8,0l0,-0.8L70.7,490l0,0.8Z" class="g2_1244" />
<path d="M70.9,650.5l0.7,0l0,-48.2l-0.7,0l0,48.2Z" class="g2_1244" />
<path d="M137,651.2l0.8,0l0,-49.6l-0.8,0l0,49.6Z" class="g2_1244" />
<path d="M315.3,651.2l0.8,0l0,-49.6l-0.8,0l0,49.6Z" class="g2_1244" />
<path d="M494.5,651.2l0.7,0l0,-49.6l-0.7,0l0,49.6Z" class="g2_1244" />
<path d="M671.8,651.2l0.8,0l0,-49.6l-0.8,0l0,49.6Z" class="g2_1244" />
<path d="M849.6,650.5l0.7,0l0,-48.2l-0.7,0l0,48.2Z" class="g2_1244" />
<path d="M70.8,602.3l779.5,0l0,-0.7l-779.5,0l0,0.7Z" class="g2_1244" />
<path d="M70.8,626.8l779.5,0l0,-0.7l-779.5,0l0,0.7Z" class="g2_1244" />
<path d="M70.8,651.2l779.5,0l0,-0.7l-779.5,0l0,0.7Z" class="g2_1244" />
</svg>