<?xml version="1.0" encoding="UTF-8" standalone="no"?>
<!DOCTYPE svg PUBLIC "-//W3C//DTD SVG 1.1//EN"
"http://www.w3.org/Graphics/SVG/1.1/DTD/svg11.dtd">
<svg viewBox="0 0 935 1210" version="1.1" xmlns="http://www.w3.org/2000/svg" xmlns:xlink="http://www.w3.org/1999/xlink">
<defs>
<style type="text/css"><![CDATA[
.g1_97{
fill: #FFFFFF;
}
.g2_97{
}
]]></style>
</defs>
<path d="M68.9,1149.3l783.8,0l0,-21.2l-783.8,0l0,21.2Z" class="g1_97" />
<path d="M69.3,792.6l0.7,0L70,176.1l-0.7,0l0,616.5Z" class="g2_97" />
<path d="M209,793.4l0.7,0l0,-618l-0.7,0l0,618Z" class="g2_97" />
<path d="M245.7,793.4l0.7,0l0,-618l-0.7,0l0,618Z" class="g2_97" />
<path d="M287.7,793.4l0.7,0l0,-618l-0.7,0l0,618Z" class="g2_97" />
<path d="M327,793.4l0.7,0l0,-618l-0.7,0l0,618Z" class="g2_97" />
<path d="M362.5,793.4l0.8,0l0,-618l-0.8,0l0,618Z" class="g2_97" />
<path d="M852.7,792.6l0.7,0l0,-616.5l-0.7,0l0,616.5Z" class="g2_97" />
<path d="M69.3,176.1l784.1,0l0,-0.7l-784.1,0l0,0.7Z" class="g2_97" />
<path d="M69.3,279.9l784.1,0l0,-0.7l-784.1,0l0,0.7Z" class="g2_97" />
<path d="M209,304.4l644.4,0l0,-0.7l-644.4,0l0,0.7Z" class="g2_97" />
<path d="M209,423.6l644.4,0l0,-0.7l-644.4,0l0,0.7Z" class="g2_97" />
<path d="M209,448.1l644.4,0l0,-0.8l-644.4,0l0,0.8Z" class="g2_97" />
<path d="M209,472.4l644.4,0l0,-0.7l-644.4,0l0,0.7Z" class="g2_97" />
<path d="M69.3,496.9l784.1,0l0,-0.7l-784.1,0l0,0.7Z" class="g2_97" />
<path d="M69.3,538.2l784.1,0l0,-0.8l-784.1,0l0,0.8Z" class="g2_97" />
<path d="M209,562.7l644.4,0l0,-0.8l-644.4,0l0,0.8Z" class="g2_97" />
<path d="M69.3,603.9l784.1,0l0,-0.7l-784.1,0l0,0.7Z" class="g2_97" />
<path d="M209,645.2l644.4,0l0,-0.8l-644.4,0l0,0.8Z" class="g2_97" />
<path d="M209,669.5l644.4,0l0,-0.7l-644.4,0l0,0.7Z" class="g2_97" />
<path d="M69.3,710.8l784.1,0l0,-0.8L69.3,710l0,0.8Z" class="g2_97" />
<path d="M69.3,752l784.1,0l0,-0.7l-784.1,0l0,0.7Z" class="g2_97" />
<path d="M69.3,793.3l784.1,0l0,-0.7l-784.1,0l0,0.7Z" class="g2_97" />
</svg>