<?xml version="1.0" encoding="UTF-8" standalone="no"?>
<!DOCTYPE svg PUBLIC "-//W3C//DTD SVG 1.1//EN"
"http://www.w3.org/Graphics/SVG/1.1/DTD/svg11.dtd">
<svg viewBox="0 0 935 1210" version="1.1" xmlns="http://www.w3.org/2000/svg" xmlns:xlink="http://www.w3.org/1999/xlink">
<defs>
<style type="text/css"><![CDATA[
.g1_654{
fill: #FFFFFF;
}
.g2_654{
}
]]></style>
</defs>
<path d="M165,1149.3l687.5,0l0,-21.2l-687.5,0l0,21.2Z" class="g1_654" />
<path d="M68.8,1149.3l82.5,0l0,-21.2l-82.5,0l0,21.2Z" class="g1_654" />
<path d="M69,303.7l0.8,0l0,-144.4l-0.8,0l0,144.4Z" class="g2_654" />
<path d="M168.1,304.4l0.8,0l0,-145.9l-0.8,0l0,145.9Z" class="g2_654" />
<path d="M299.3,304.4l0.7,0l0,-145.9l-0.7,0l0,145.9Z" class="g2_654" />
<path d="M851.4,303.7l0.7,0l0,-144.4l-0.7,0l0,144.4Z" class="g2_654" />
<path d="M69,159.2l783.1,0l0,-0.7L69,158.5l0,0.7Z" class="g2_654" />
<path d="M69,188.3l783.1,0l0,-0.7L69,187.6l0,0.7Z" class="g2_654" />
<path d="M69,304.4l783.1,0l0,-0.7L69,303.7l0,0.7Z" class="g2_654" />
<path d="M68.8,690.2l0.8,0l0,-217.8l-0.8,0l0,217.8Z" class="g2_654" />
<path d="M159.8,691l0.7,0l0,-219.3l-0.7,0l0,219.3Z" class="g2_654" />
<path d="M265.7,691l0.8,0l0,-219.3l-0.8,0l0,219.3Z" class="g2_654" />
<path d="M851.5,690.2l0.7,0l0,-217.8l-0.7,0l0,217.8Z" class="g2_654" />
<path d="M68.8,472.4l783.4,0l0,-0.7l-783.4,0l0,0.7Z" class="g2_654" />
<path d="M68.8,501.5l783.4,0l0,-0.7l-783.4,0l0,0.7Z" class="g2_654" />
<path d="M68.8,691l783.4,0l0,-0.7l-783.4,0l0,0.7Z" class="g2_654" />
</svg>