<?xml version="1.0" encoding="UTF-8" standalone="no"?>
<!DOCTYPE svg PUBLIC "-//W3C//DTD SVG 1.1//EN"
"http://www.w3.org/Graphics/SVG/1.1/DTD/svg11.dtd">
<svg viewBox="0 0 935 1210" version="1.1" xmlns="http://www.w3.org/2000/svg" xmlns:xlink="http://www.w3.org/1999/xlink">
<defs>
<style type="text/css"><![CDATA[
.g1_1875{
fill: #FFFFFF;
}
.g2_1875{
}
]]></style>
</defs>
<path d="M68.9,1149.3l686.3,0l0,-21.2l-686.3,0l0,21.2Z" class="g1_1875" />
<path d="M771.3,1149.3l83.7,0l0,-21.2l-83.7,0l0,21.2Z" class="g1_1875" />
<path d="M69.9,245.6l0.8,0l0,-119.9l-0.8,0l0,119.9Z" class="g2_1875" />
<path d="M307.1,246.4l0.7,0l0,-121.5l-0.7,0l0,121.5Z" class="g2_1875" />
<path d="M351.8,246.4l0.7,0l0,-121.5l-0.7,0l0,121.5Z" class="g2_1875" />
<path d="M426.3,246.4l0.7,0l0,-121.5l-0.7,0l0,121.5Z" class="g2_1875" />
<path d="M504.1,246.4l0.7,0l0,-121.5l-0.7,0l0,121.5Z" class="g2_1875" />
<path d="M851.8,245.6l0.7,0l0,-119.9l-0.7,0l0,119.9Z" class="g2_1875" />
<path d="M69.9,125.7l782.6,0l0,-0.8l-782.6,0l0,0.8Z" class="g2_1875" />
<path d="M69.9,176.1l782.6,0l0,-0.7l-782.6,0l0,0.7Z" class="g2_1875" />
<path d="M69.9,246.3l782.6,0l0,-0.7l-782.6,0l0,0.7Z" class="g2_1875" />
<path d="M70.5,349.5l0.7,0l0,-48.1l-0.7,0l0,48.1Z" class="g2_1875" />
<path d="M169.9,350.3l0.7,0l0,-49.7l-0.7,0l0,49.7Z" class="g2_1875" />
<path d="M338.9,350.3l0.7,0l0,-49.7l-0.7,0l0,49.7Z" class="g2_1875" />
<path d="M510.8,350.3l0.7,0l0,-49.7l-0.7,0l0,49.7Z" class="g2_1875" />
<path d="M677.3,350.3l0.8,0l0,-49.7l-0.8,0l0,49.7Z" class="g2_1875" />
<path d="M851.5,349.5l0.7,0l0,-48.1l-0.7,0l0,48.1Z" class="g2_1875" />
<path d="M70.5,301.3l781.7,0l0,-0.7l-781.7,0l0,0.7Z" class="g2_1875" />
<path d="M70.5,325.8l781.7,0l0,-0.7l-781.7,0l0,0.7Z" class="g2_1875" />
<path d="M70.5,350.3l781.7,0l0,-0.8l-781.7,0l0,0.8Z" class="g2_1875" />
</svg>