<?xml version="1.0" encoding="UTF-8" standalone="no"?>
<!DOCTYPE svg PUBLIC "-//W3C//DTD SVG 1.1//EN"
"http://www.w3.org/Graphics/SVG/1.1/DTD/svg11.dtd">
<svg viewBox="0 0 935 1210" version="1.1" xmlns="http://www.w3.org/2000/svg" xmlns:xlink="http://www.w3.org/1999/xlink">
<defs>
<style type="text/css"><![CDATA[
.g1_1239{
fill: #FFFFFF;
}
.g2_1239{
}
]]></style>
</defs>
<path d="M68.9,1149.3l686.3,0l0,-21.2l-686.3,0l0,21.2Z" class="g1_1239" />
<path d="M771.3,1149.3l83.7,0l0,-21.2l-83.7,0l0,21.2Z" class="g1_1239" />
<path d="M69.9,398.4l0.8,0l0,-272.7l-0.8,0l0,272.7Z" class="g2_1239" />
<path d="M273.3,399.1l0.8,0l0,-274.2l-0.8,0l0,274.2Z" class="g2_1239" />
<path d="M321.8,399.1l0.7,0l0,-274.2l-0.7,0l0,274.2Z" class="g2_1239" />
<path d="M380.1,399.1l0.8,0l0,-274.2l-0.8,0l0,274.2Z" class="g2_1239" />
<path d="M447.8,399.1l0.7,0l0,-274.2l-0.7,0l0,274.2Z" class="g2_1239" />
<path d="M858,398.4l0.7,0l0,-272.7l-0.7,0l0,272.7Z" class="g2_1239" />
<path d="M69.9,125.7l788.8,0l0,-0.8l-788.8,0l0,0.8Z" class="g2_1239" />
<path d="M69.9,179.1l788.8,0l0,-0.7l-788.8,0l0,0.7Z" class="g2_1239" />
<path d="M69.9,215.8l788.8,0l0,-0.8L69.9,215l0,0.8Z" class="g2_1239" />
<path d="M69.9,252.4l788.8,0l0,-0.7l-788.8,0l0,0.7Z" class="g2_1239" />
<path d="M69.9,289.1l788.8,0l0,-0.7l-788.8,0l0,0.7Z" class="g2_1239" />
<path d="M69.9,325.8l788.8,0l0,-0.7l-788.8,0l0,0.7Z" class="g2_1239" />
<path d="M69.9,362.4l788.8,0l0,-0.7l-788.8,0l0,0.7Z" class="g2_1239" />
<path d="M69.9,399.1l788.8,0l0,-0.7l-788.8,0l0,0.7Z" class="g2_1239" />
<path d="M71,502.2l0.8,0l0,-48.1l-0.8,0l0,48.1Z" class="g2_1239" />
<path d="M136.7,503.1l0.7,0l0,-49.7l-0.7,0l0,49.7Z" class="g2_1239" />
<path d="M311.2,503.1l0.7,0l0,-49.7l-0.7,0l0,49.7Z" class="g2_1239" />
<path d="M491.4,503.1l0.8,0l0,-49.7l-0.8,0l0,49.7Z" class="g2_1239" />
<path d="M666,503.1l0.8,0l0,-49.7l-0.8,0l0,49.7Z" class="g2_1239" />
<path d="M850.9,502.2l0.8,0l0,-48.1l-0.8,0l0,48.1Z" class="g2_1239" />
<path d="M71,454.1l780.7,0l0,-0.7L71,453.4l0,0.7Z" class="g2_1239" />
<path d="M71,478.6l780.7,0l0,-0.7L71,477.9l0,0.7Z" class="g2_1239" />
<path d="M71,503.1l780.7,0l0,-0.8L71,502.3l0,0.8Z" class="g2_1239" />
</svg>