<?xml version="1.0" encoding="UTF-8" standalone="no"?>
<!DOCTYPE svg PUBLIC "-//W3C//DTD SVG 1.1//EN"
"http://www.w3.org/Graphics/SVG/1.1/DTD/svg11.dtd">
<svg viewBox="0 0 935 1210" version="1.1" xmlns="http://www.w3.org/2000/svg" xmlns:xlink="http://www.w3.org/1999/xlink">
<defs>
<style type="text/css"><![CDATA[
.g1_782{
fill: #FFFFFF;
}
.g2_782{
}
]]></style>
</defs>
<path d="M165,1149.3l687.5,0l0,-21.2l-687.5,0l0,21.2Z" class="g1_782" />
<path d="M68.8,1149.3l82.5,0l0,-21.2l-82.5,0l0,21.2Z" class="g1_782" />
<path d="M68.6,716.2l0.7,0l0,-590.5l-0.7,0l0,590.5Z" class="g2_782" />
<path d="M332.2,716.9l0.7,0l0,-592l-0.7,0l0,592Z" class="g2_782" />
<path d="M400,716.9l0.8,0l0,-592l-0.8,0l0,592Z" class="g2_782" />
<path d="M474.5,716.9l0.7,0l0,-592l-0.7,0l0,592Z" class="g2_782" />
<path d="M560.4,716.9l0.8,0l0,-592l-0.8,0l0,592Z" class="g2_782" />
<path d="M851.8,716.2l0.7,0l0,-590.5l-0.7,0l0,590.5Z" class="g2_782" />
<path d="M68.6,125.7l783.9,0l0,-0.8l-783.9,0l0,0.8Z" class="g2_782" />
<path d="M68.6,176.1l783.9,0l0,-0.7l-783.9,0l0,0.7Z" class="g2_782" />
<path d="M68.6,212.8l783.9,0l0,-0.8L68.6,212l0,0.8Z" class="g2_782" />
<path d="M68.6,249.4l783.9,0l0,-0.7l-783.9,0l0,0.7Z" class="g2_782" />
<path d="M68.6,286.1l783.9,0l0,-0.7l-783.9,0l0,0.7Z" class="g2_782" />
<path d="M68.6,322.8l783.9,0l0,-0.8L68.6,322l0,0.8Z" class="g2_782" />
<path d="M68.6,359.4l783.9,0l0,-0.7l-783.9,0l0,0.7Z" class="g2_782" />
<path d="M68.6,396.1l783.9,0l0,-0.7l-783.9,0l0,0.7Z" class="g2_782" />
<path d="M68.6,449.5l783.9,0l0,-0.7l-783.9,0l0,0.7Z" class="g2_782" />
<path d="M68.6,503.1l783.9,0l0,-0.8l-783.9,0l0,0.8Z" class="g2_782" />
<path d="M68.6,556.5l783.9,0l0,-0.7l-783.9,0l0,0.7Z" class="g2_782" />
<path d="M68.6,609.9l783.9,0l0,-0.7l-783.9,0l0,0.7Z" class="g2_782" />
<path d="M68.6,663.5l783.9,0l0,-0.7l-783.9,0l0,0.7Z" class="g2_782" />
<path d="M68.6,716.9l783.9,0l0,-0.7l-783.9,0l0,0.7Z" class="g2_782" />
<path d="M70.4,893.4l0.7,0l0,-121.5l-0.7,0l0,121.5Z" class="g2_782" />
<path d="M192.2,894.2l0.8,0l0,-123l-0.8,0l0,123Z" class="g2_782" />
<path d="M355,894.2l0.8,0l0,-123l-0.8,0l0,123Z" class="g2_782" />
<path d="M528.4,894.2l0.7,0l0,-123l-0.7,0l0,123Z" class="g2_782" />
<path d="M688.3,894.2l0.8,0l0,-123l-0.8,0l0,123Z" class="g2_782" />
<path d="M850,893.4l0.8,0l0,-121.5l-0.8,0l0,121.5Z" class="g2_782" />
<path d="M70.4,771.9l780.4,0l0,-0.7l-780.4,0l0,0.7Z" class="g2_782" />
<path d="M70.4,796.4l780.4,0l0,-0.7l-780.4,0l0,0.7Z" class="g2_782" />
<path d="M70.4,820.8l780.4,0l0,-0.7l-780.4,0l0,0.7Z" class="g2_782" />
<path d="M70.4,845.3l780.4,0l0,-0.8l-780.4,0l0,0.8Z" class="g2_782" />
<path d="M70.4,869.7l780.4,0l0,-0.7L70.4,869l0,0.7Z" class="g2_782" />
<path d="M70.4,894.1l780.4,0l0,-0.7l-780.4,0l0,0.7Z" class="g2_782" />
</svg>