<?xml version="1.0" encoding="UTF-8" standalone="no"?>
<!DOCTYPE svg PUBLIC "-//W3C//DTD SVG 1.1//EN"
"http://www.w3.org/Graphics/SVG/1.1/DTD/svg11.dtd">
<svg viewBox="0 0 935 1210" version="1.1" xmlns="http://www.w3.org/2000/svg" xmlns:xlink="http://www.w3.org/1999/xlink">
<defs>
<style type="text/css"><![CDATA[
.g1_875{
fill: #FFFFFF;
}
.g2_875{
}
]]></style>
</defs>
<path d="M68.9,1149.3l686.3,0l0,-21.2l-686.3,0l0,21.2Z" class="g1_875" />
<path d="M771.3,1149.3l83.7,0l0,-21.2l-83.7,0l0,21.2Z" class="g1_875" />
<path d="M67.5,694.7l0.7,0l0,-569l-0.7,0l0,569Z" class="g2_875" />
<path d="M376.5,695.6l0.7,0l0,-570.7l-0.7,0l0,570.7Z" class="g2_875" />
<path d="M414.2,695.6l0.8,0l0,-570.7l-0.8,0l0,570.7Z" class="g2_875" />
<path d="M487.7,695.6l0.7,0l0,-570.7l-0.7,0l0,570.7Z" class="g2_875" />
<path d="M576.2,695.6l0.8,0l0,-570.7l-0.8,0l0,570.7Z" class="g2_875" />
<path d="M854.5,694.7l0.7,0l0,-569l-0.7,0l0,569Z" class="g2_875" />
<path d="M67.5,125.7l787.7,0l0,-0.8l-787.7,0l0,0.8Z" class="g2_875" />
<path d="M67.5,179.1l787.7,0l0,-0.7l-787.7,0l0,0.7Z" class="g2_875" />
<path d="M67.5,223.4l787.7,0l0,-0.7l-787.7,0l0,0.7Z" class="g2_875" />
<path d="M67.5,267.8l787.7,0l0,-0.8L67.5,267l0,0.8Z" class="g2_875" />
<path d="M67.5,312l787.7,0l0,-0.7l-787.7,0l0,0.7Z" class="g2_875" />
<path d="M67.5,356.3l787.7,0l0,-0.7l-787.7,0l0,0.7Z" class="g2_875" />
<path d="M67.5,412.9l787.7,0l0,-0.8l-787.7,0l0,0.8Z" class="g2_875" />
<path d="M67.5,469.4l787.7,0l0,-0.7l-787.7,0l0,0.7Z" class="g2_875" />
<path d="M67.5,526l787.7,0l0,-0.8l-787.7,0l0,0.8Z" class="g2_875" />
<path d="M67.5,582.4l787.7,0l0,-0.7l-787.7,0l0,0.7Z" class="g2_875" />
<path d="M67.5,639l787.7,0l0,-0.7l-787.7,0l0,0.7Z" class="g2_875" />
<path d="M67.5,695.6l787.7,0l0,-0.8l-787.7,0l0,0.8Z" class="g2_875" />
<path d="M70.5,925.5l0.7,0l0,-97l-0.7,0l0,97Z" class="g2_875" />
<path d="M140.7,926.3l0.7,0l0,-98.5l-0.7,0l0,98.5Z" class="g2_875" />
<path d="M318.3,926.3l0.7,0l0,-98.5l-0.7,0l0,98.5Z" class="g2_875" />
<path d="M489.8,926.3l0.7,0l0,-98.5l-0.7,0l0,98.5Z" class="g2_875" />
<path d="M667.5,926.3l0.7,0l0,-98.5l-0.7,0l0,98.5Z" class="g2_875" />
<path d="M851.5,925.5l0.7,0l0,-97l-0.7,0l0,97Z" class="g2_875" />
<path d="M70.5,828.5l781.8,0l0,-0.8l-781.8,0l0,0.8Z" class="g2_875" />
<path d="M70.5,852.9l781.8,0l0,-0.8l-781.8,0l0,0.8Z" class="g2_875" />
<path d="M70.5,877.3l781.8,0l0,-0.7l-781.8,0l0,0.7Z" class="g2_875" />
<path d="M70.5,901.8l781.8,0l0,-0.7l-781.8,0l0,0.7Z" class="g2_875" />
<path d="M70.5,926.2l781.8,0l0,-0.7l-781.8,0l0,0.7Z" class="g2_875" />
</svg>