<?xml version="1.0" encoding="UTF-8" standalone="no"?>
<!DOCTYPE svg PUBLIC "-//W3C//DTD SVG 1.1//EN"
"http://www.w3.org/Graphics/SVG/1.1/DTD/svg11.dtd">
<svg viewBox="0 0 935 1210" version="1.1" xmlns="http://www.w3.org/2000/svg" xmlns:xlink="http://www.w3.org/1999/xlink">
<defs>
<style type="text/css"><![CDATA[
.g1_2146{
fill: #FFFFFF;
}
.g2_2146{
}
]]></style>
</defs>
<path d="M68.8,1149.3l783.7,0l0,-21.2l-783.7,0l0,21.2Z" class="g1_2146" />
<path d="M68.6,1085.9l0.7,0l0,-978.6l-0.7,0l0,978.6Z" class="g2_2146" />
<path d="M443.8,1086.7l0.8,0l0,-980.1l-0.8,0l0,980.1Z" class="g2_2146" />
<path d="M849.9,1085.9l0.8,0l0,-978.6l-0.8,0l0,978.6Z" class="g2_2146" />
<path d="M68.6,107.3l782.1,0l0,-0.7l-782.1,0l0,0.7Z" class="g2_2146" />
<path d="M68.6,131.7l782.1,0l0,-0.7L68.6,131l0,0.7Z" class="g2_2146" />
<path d="M68.6,156.2l782.1,0l0,-0.7l-782.1,0l0,0.7Z" class="g2_2146" />
<path d="M68.6,180.7l782.1,0l0,-0.8l-782.1,0l0,0.8Z" class="g2_2146" />
<path d="M68.6,205.1l782.1,0l0,-0.8l-782.1,0l0,0.8Z" class="g2_2146" />
<path d="M68.6,229.5l782.1,0l0,-0.7l-782.1,0l0,0.7Z" class="g2_2146" />
<path d="M68.6,254l782.1,0l0,-0.7l-782.1,0l0,0.7Z" class="g2_2146" />
<path d="M68.6,278.4l782.1,0l0,-0.7l-782.1,0l0,0.7Z" class="g2_2146" />
<path d="M68.6,302.9l782.1,0l0,-0.8l-782.1,0l0,0.8Z" class="g2_2146" />
<path d="M68.6,344.1l782.1,0l0,-0.7l-782.1,0l0,0.7Z" class="g2_2146" />
<path d="M68.6,368.6l782.1,0l0,-0.7l-782.1,0l0,0.7Z" class="g2_2146" />
<path d="M68.6,393l782.1,0l0,-0.8l-782.1,0l0,0.8Z" class="g2_2146" />
<path d="M68.6,417.4l782.1,0l0,-0.7l-782.1,0l0,0.7Z" class="g2_2146" />
<path d="M68.6,441.9l782.1,0l0,-0.7l-782.1,0l0,0.7Z" class="g2_2146" />
<path d="M68.6,483.2l782.1,0l0,-0.8l-782.1,0l0,0.8Z" class="g2_2146" />
<path d="M68.6,507.7l782.1,0l0,-0.8l-782.1,0l0,0.8Z" class="g2_2146" />
<path d="M68.6,532l782.1,0l0,-0.7l-782.1,0l0,0.7Z" class="g2_2146" />
<path d="M68.6,556.5l782.1,0l0,-0.7l-782.1,0l0,0.7Z" class="g2_2146" />
<path d="M68.6,581l782.1,0l0,-0.8l-782.1,0l0,0.8Z" class="g2_2146" />
<path d="M68.6,622.2l782.1,0l0,-0.7l-782.1,0l0,0.7Z" class="g2_2146" />
<path d="M68.6,646.6l782.1,0l0,-0.7l-782.1,0l0,0.7Z" class="g2_2146" />
<path d="M68.6,671.1l782.1,0l0,-0.7l-782.1,0l0,0.7Z" class="g2_2146" />
<path d="M68.6,695.6l782.1,0l0,-0.8l-782.1,0l0,0.8Z" class="g2_2146" />
<path d="M68.6,719.9l782.1,0l0,-0.7l-782.1,0l0,0.7Z" class="g2_2146" />
<path d="M68.6,744.4l782.1,0l0,-0.7l-782.1,0l0,0.7Z" class="g2_2146" />
<path d="M68.6,768.9l782.1,0l0,-0.7l-782.1,0l0,0.7Z" class="g2_2146" />
<path d="M68.6,793.3l782.1,0l0,-0.7l-782.1,0l0,0.7Z" class="g2_2146" />
<path d="M68.6,817.8l782.1,0l0,-0.8L68.6,817l0,0.8Z" class="g2_2146" />
<path d="M68.6,842.2l782.1,0l0,-0.7l-782.1,0l0,0.7Z" class="g2_2146" />
<path d="M68.6,866.6l782.1,0l0,-0.7l-782.1,0l0,0.7Z" class="g2_2146" />
<path d="M68.6,891.1l782.1,0l0,-0.7l-782.1,0l0,0.7Z" class="g2_2146" />
<path d="M68.6,915.6l782.1,0l0,-0.8l-782.1,0l0,0.8Z" class="g2_2146" />
<path d="M68.6,940l782.1,0l0,-0.8l-782.1,0l0,0.8Z" class="g2_2146" />
<path d="M68.6,964.4l782.1,0l0,-0.7l-782.1,0l0,0.7Z" class="g2_2146" />
<path d="M68.6,988.9l782.1,0l0,-0.7l-782.1,0l0,0.7Z" class="g2_2146" />
<path d="M68.6,1013.3l782.1,0l0,-0.7l-782.1,0l0,0.7Z" class="g2_2146" />
<path d="M68.6,1037.8l782.1,0l0,-0.8l-782.1,0l0,0.8Z" class="g2_2146" />
<path d="M68.6,1062.2l782.1,0l0,-0.7l-782.1,0l0,0.7Z" class="g2_2146" />
<path d="M68.6,1086.6l782.1,0l0,-0.7l-782.1,0l0,0.7Z" class="g2_2146" />
</svg>