<?xml version="1.0" encoding="UTF-8" standalone="no"?>
<!DOCTYPE svg PUBLIC "-//W3C//DTD SVG 1.1//EN"
"http://www.w3.org/Graphics/SVG/1.1/DTD/svg11.dtd">
<svg viewBox="0 0 935 1210" version="1.1" xmlns="http://www.w3.org/2000/svg" xmlns:xlink="http://www.w3.org/1999/xlink">
<defs>
<style type="text/css"><![CDATA[
.g1_801{
fill: #FFFFFF;
}
.g2_801{
}
]]></style>
</defs>
<path d="M68.9,1149.3l686.3,0l0,-21.2l-686.3,0l0,21.2Z" class="g1_801" />
<path d="M771.3,1149.3l83.7,0l0,-21.2l-83.7,0l0,21.2Z" class="g1_801" />
<path d="M69.9,445.8l0.8,0l0,-320.1l-0.8,0l0,320.1Z" class="g2_801" />
<path d="M304.3,446.5l0.8,0l0,-321.6l-0.8,0l0,321.6Z" class="g2_801" />
<path d="M352.5,446.5l0.7,0l0,-321.6l-0.7,0l0,321.6Z" class="g2_801" />
<path d="M426.9,446.5l0.7,0l0,-321.6l-0.7,0l0,321.6Z" class="g2_801" />
<path d="M510.9,446.5l0.7,0l0,-321.6l-0.7,0l0,321.6Z" class="g2_801" />
<path d="M854.2,445.8l0.8,0l0,-320.1l-0.8,0l0,320.1Z" class="g2_801" />
<path d="M69.9,125.7l785.1,0l0,-0.8l-785.1,0l0,0.8Z" class="g2_801" />
<path d="M69.9,176.1l785.1,0l0,-0.7l-785.1,0l0,0.7Z" class="g2_801" />
<path d="M69.9,212.8l785.1,0l0,-0.8L69.9,212l0,0.8Z" class="g2_801" />
<path d="M69.9,249.4l785.1,0l0,-0.7l-785.1,0l0,0.7Z" class="g2_801" />
<path d="M69.9,286.1l785.1,0l0,-0.7l-785.1,0l0,0.7Z" class="g2_801" />
<path d="M69.9,339.5l785.1,0l0,-0.7l-785.1,0l0,0.7Z" class="g2_801" />
<path d="M69.9,393L855,393l0,-0.8l-785.1,0l0,0.8Z" class="g2_801" />
<path d="M69.9,446.5l785.1,0l0,-0.7l-785.1,0l0,0.7Z" class="g2_801" />
<path d="M72,598.5l0.7,0l0,-97l-0.7,0l0,97Z" class="g2_801" />
<path d="M192.7,599.3l0.7,0l0,-98.5l-0.7,0l0,98.5Z" class="g2_801" />
<path d="M356.1,599.3l0.8,0l0,-98.5l-0.8,0l0,98.5Z" class="g2_801" />
<path d="M525.6,599.3l0.7,0l0,-98.5l-0.7,0l0,98.5Z" class="g2_801" />
<path d="M688.3,599.3l0.8,0l0,-98.5l-0.8,0l0,98.5Z" class="g2_801" />
<path d="M850,598.5l0.8,0l0,-97l-0.8,0l0,97Z" class="g2_801" />
<path d="M72,501.5l778.8,0l0,-0.7L72,500.8l0,0.7Z" class="g2_801" />
<path d="M72,526l778.8,0l0,-0.8L72,525.2l0,0.8Z" class="g2_801" />
<path d="M72,550.4l778.8,0l0,-0.8L72,549.6l0,0.8Z" class="g2_801" />
<path d="M72,574.8l778.8,0l0,-0.7L72,574.1l0,0.7Z" class="g2_801" />
<path d="M72,599.3l778.8,0l0,-0.7L72,598.6l0,0.7Z" class="g2_801" />
</svg>