<?xml version="1.0" encoding="UTF-8" standalone="no"?>
<!DOCTYPE svg PUBLIC "-//W3C//DTD SVG 1.1//EN"
"http://www.w3.org/Graphics/SVG/1.1/DTD/svg11.dtd">
<svg viewBox="0 0 935 1210" version="1.1" xmlns="http://www.w3.org/2000/svg" xmlns:xlink="http://www.w3.org/1999/xlink">
<defs>
<style type="text/css"><![CDATA[
.g1_300{
fill: #FFFFFF;
}
.g2_300{
}
]]></style>
</defs>
<path d="M165,1149.3l687.5,0l0,-21.2l-687.5,0l0,21.2Z" class="g1_300" />
<path d="M68.8,1149.3l82.5,0l0,-21.2l-82.5,0l0,21.2Z" class="g1_300" />
<path d="M70.8,1032.4l0.7,0l0,-908.5l-0.7,0l0,908.5Z" class="g2_300" />
<path d="M158,165.2l0.4,0l0,-41.6l-0.4,0l0,41.6Z" class="g2_300" />
<path d="M157.9,402l0.7,0l0,-212.9l-0.7,0l0,212.9Z" class="g2_300" />
<path d="M157.9,537.8l0.7,0l0,-111.9l-0.7,0l0,111.9Z" class="g2_300" />
<path d="M158,654.1l0.4,0l0,-116.3l-0.4,0l0,116.3Z" class="g2_300" />
<path d="M157.9,789.9l0.7,0l0,-111.9l-0.7,0l0,111.9Z" class="g2_300" />
<path d="M158,856l0.4,0l0,-66.1l-0.4,0l0,66.1Z" class="g2_300" />
<path d="M158,1033.2l0.4,0l0,-153.6l-0.4,0l0,153.6Z" class="g2_300" />
<path d="M849.7,1032.4l0.7,0l0,-908.5l-0.7,0l0,908.5Z" class="g2_300" />
<path d="M70.8,123.9l779.6,0l0,-0.3l-779.6,0l0,0.3Z" class="g2_300" />
<path d="M70.8,165.2l779.6,0l0,-0.4l-779.6,0l0,0.4Z" class="g2_300" />
<path d="M70.8,189.8l779.6,0l0,-0.7l-779.6,0l0,0.7Z" class="g2_300" />
<path d="M70.8,402l779.6,0l0,-0.3l-779.6,0l0,0.3Z" class="g2_300" />
<path d="M70.8,426.6l779.6,0l0,-0.7l-779.6,0l0,0.7Z" class="g2_300" />
<path d="M70.8,654.1l779.6,0l0,-0.3l-779.6,0l0,0.3Z" class="g2_300" />
<path d="M70.8,678.7l779.6,0l0,-0.7L70.8,678l0,0.7Z" class="g2_300" />
<path d="M70.8,856l779.6,0l0,-0.8l-779.6,0l0,0.8Z" class="g2_300" />
<path d="M70.8,880.4l779.6,0l0,-0.8l-779.6,0l0,0.8Z" class="g2_300" />
<path d="M70.8,1033.2l779.6,0l0,-0.8l-779.6,0l0,0.8Z" class="g2_300" />
</svg>