<?xml version="1.0" encoding="UTF-8" standalone="no"?>
<!DOCTYPE svg PUBLIC "-//W3C//DTD SVG 1.1//EN"
"http://www.w3.org/Graphics/SVG/1.1/DTD/svg11.dtd">
<svg viewBox="0 0 935 1210" version="1.1" xmlns="http://www.w3.org/2000/svg" xmlns:xlink="http://www.w3.org/1999/xlink">
<defs>
<style type="text/css"><![CDATA[
.g1_59{
fill: #FFFFFF;
}
.g2_59{
}
]]></style>
</defs>
<path d="M68.9,1149.3l783.8,0l0,-21.2l-783.8,0l0,21.2Z" class="g1_59" />
<path d="M69.9,760.7l0.4,0l0,-638.3l-0.4,0l0,638.3Z" class="g2_59" />
<path d="M152.2,761l0.3,0l0,-639l-0.3,0l0,639Z" class="g2_59" />
<path d="M302.1,761l0.4,0l0,-639l-0.4,0l0,639Z" class="g2_59" />
<path d="M664.8,761l0.3,0l0,-639l-0.3,0l0,639Z" class="g2_59" />
<path d="M852.4,760.7l0.4,0l0,-638.3l-0.4,0l0,638.3Z" class="g2_59" />
<path d="M69.9,122.4l782.9,0l0,-0.4L69.9,122l0,0.4Z" class="g2_59" />
<path d="M69.9,160.6l782.9,0l0,-0.4l-782.9,0l0,0.4Z" class="g2_59" />
<path d="M69.9,182l782.9,0l0,-0.4l-782.9,0l0,0.4Z" class="g2_59" />
<path d="M69.9,220.2l782.9,0l0,-0.4l-782.9,0l0,0.4Z" class="g2_59" />
<path d="M69.9,241.5l782.9,0l0,-0.3l-782.9,0l0,0.3Z" class="g2_59" />
<path d="M69.9,481.4l782.9,0l0,-0.3l-782.9,0l0,0.3Z" class="g2_59" />
<path d="M69.9,553.3l782.9,0l0,-0.4l-782.9,0l0,0.4Z" class="g2_59" />
<path d="M69.9,641.8l782.9,0l0,-0.3l-782.9,0l0,0.3Z" class="g2_59" />
<path d="M69.9,696.8l782.9,0l0,-0.3l-782.9,0l0,0.3Z" class="g2_59" />
<path d="M69.9,718.3l782.9,0l0,-0.4l-782.9,0l0,0.4Z" class="g2_59" />
<path d="M69.9,739.7l782.9,0l0,-0.4l-782.9,0l0,0.4Z" class="g2_59" />
<path d="M69.9,761l782.9,0l0,-0.3l-782.9,0l0,0.3Z" class="g2_59" />
</svg>