<?xml version="1.0" encoding="UTF-8" standalone="no"?>
<!DOCTYPE svg PUBLIC "-//W3C//DTD SVG 1.1//EN"
"http://www.w3.org/Graphics/SVG/1.1/DTD/svg11.dtd">
<svg viewBox="0 0 935 1210" version="1.1" xmlns="http://www.w3.org/2000/svg" xmlns:xlink="http://www.w3.org/1999/xlink">
<defs>
<style type="text/css"><![CDATA[
.g1_2045{
fill: #FFFFFF;
}
.g2_2045{
}
]]></style>
</defs>
<path d="M68.9,1149l783.8,0l0,-21.4l-783.8,0l0,21.4Z" class="g1_2045" />
<path d="M69.2,374.7l2.3,0l0,-203.9l-2.3,0l0,203.9Z" class="g2_2045" />
<path d="M69.2,603.9l2.3,0l0,-204l-2.3,0l0,204Z" class="g2_2045" />
<path d="M106,377l2.3,0l0,-208.5l-2.3,0L106,377Z" class="g2_2045" />
<path d="M106,606.2l2.3,0l0,-208.5l-2.3,0l0,208.5Z" class="g2_2045" />
<path d="M205.1,193.7l0.7,0l0,-25.2l-0.7,0l0,25.2Z" class="g2_2045" />
<path d="M205.1,238.7l0.7,0l0,-23.6l-0.7,0l0,23.6Z" class="g2_2045" />
<path d="M205.1,377l0.7,0l0,-116.1l-0.7,0l0,116.1Z" class="g2_2045" />
<path d="M205.1,422.9l0.7,0l0,-25.2l-0.7,0l0,25.2Z" class="g2_2045" />
<path d="M205.1,467.9l0.7,0l0,-23.7l-0.7,0l0,23.7Z" class="g2_2045" />
<path d="M205.1,606.2l0.7,0l0,-116.1l-0.7,0l0,116.1Z" class="g2_2045" />
<path d="M297.4,193.7l0.7,0l0,-25.2l-0.7,0l0,25.2Z" class="g2_2045" />
<path d="M297.4,238.7l0.7,0l0,-23.6l-0.7,0l0,23.6Z" class="g2_2045" />
<path d="M297.4,377l0.7,0l0,-116.1l-0.7,0l0,116.1Z" class="g2_2045" />
<path d="M297.4,422.9l0.7,0l0,-25.2l-0.7,0l0,25.2Z" class="g2_2045" />
<path d="M297.4,467.9l0.7,0l0,-23.7l-0.7,0l0,23.7Z" class="g2_2045" />
<path d="M297.4,606.2l0.7,0l0,-116.1l-0.7,0l0,116.1Z" class="g2_2045" />
<path d="M389.8,193.7l0.7,0l0,-25.2l-0.7,0l0,25.2Z" class="g2_2045" />
<path d="M389.8,238.7l0.7,0l0,-23.6l-0.7,0l0,23.6Z" class="g2_2045" />
<path d="M389.8,377l0.7,0l0,-116.1l-0.7,0l0,116.1Z" class="g2_2045" />
<path d="M389.8,422.9l0.7,0l0,-25.2l-0.7,0l0,25.2Z" class="g2_2045" />
<path d="M389.8,467.9l0.7,0l0,-23.7l-0.7,0l0,23.7Z" class="g2_2045" />
<path d="M389.8,606.2l0.7,0l0,-116.1l-0.7,0l0,116.1Z" class="g2_2045" />
<path d="M482.3,193.7l0.7,0l0,-25.2l-0.7,0l0,25.2Z" class="g2_2045" />
<path d="M482.3,238.7l0.7,0l0,-23.6l-0.7,0l0,23.6Z" class="g2_2045" />
<path d="M482.3,377l0.7,0l0,-116.1l-0.7,0l0,116.1Z" class="g2_2045" />
<path d="M482.3,422.9l0.7,0l0,-25.2l-0.7,0l0,25.2Z" class="g2_2045" />
<path d="M482.3,467.9l0.7,0l0,-23.7l-0.7,0l0,23.7Z" class="g2_2045" />
<path d="M482.3,606.2l0.7,0l0,-116.1l-0.7,0l0,116.1Z" class="g2_2045" />
<path d="M574.8,193.7l0.7,0l0,-25.2l-0.7,0l0,25.2Z" class="g2_2045" />
<path d="M574.8,238.7l0.7,0l0,-23.6l-0.7,0l0,23.6Z" class="g2_2045" />
<path d="M574.8,377l0.7,0l0,-116.1l-0.7,0l0,116.1Z" class="g2_2045" />
<path d="M574.8,422.9l0.7,0l0,-25.2l-0.7,0l0,25.2Z" class="g2_2045" />
<path d="M574.8,467.9l0.7,0l0,-23.7l-0.7,0l0,23.7Z" class="g2_2045" />
<path d="M574.8,606.2l0.7,0l0,-116.1l-0.7,0l0,116.1Z" class="g2_2045" />
<path d="M667.2,193.7l0.8,0l0,-25.2l-0.8,0l0,25.2Z" class="g2_2045" />
<path d="M667.2,238.7l0.8,0l0,-23.6l-0.8,0l0,23.6Z" class="g2_2045" />
<path d="M667.2,377l0.8,0l0,-116.1l-0.8,0l0,116.1Z" class="g2_2045" />
<path d="M667.2,422.9l0.8,0l0,-25.2l-0.8,0l0,25.2Z" class="g2_2045" />
<path d="M667.2,467.9l0.8,0l0,-23.7l-0.8,0l0,23.7Z" class="g2_2045" />
<path d="M667.2,606.2l0.8,0l0,-116.1l-0.8,0l0,116.1Z" class="g2_2045" />
<path d="M763.4,193.7l0.7,0l0,-25.2l-0.7,0l0,25.2Z" class="g2_2045" />
<path d="M763.4,238.7l0.7,0l0,-23.6l-0.7,0l0,23.6Z" class="g2_2045" />
<path d="M763.4,377l0.7,0l0,-116.1l-0.7,0l0,116.1Z" class="g2_2045" />
<path d="M763.4,422.9l0.7,0l0,-25.2l-0.7,0l0,25.2Z" class="g2_2045" />
<path d="M763.4,467.9l0.7,0l0,-23.7l-0.7,0l0,23.7Z" class="g2_2045" />
<path d="M763.4,606.2l0.7,0l0,-116.1l-0.7,0l0,116.1Z" class="g2_2045" />
<path d="M854.2,374.7l2.3,0l0,-203.9l-2.3,0l0,203.9Z" class="g2_2045" />
<path d="M854.2,603.9l2.3,0l0,-204l-2.3,0l0,204Z" class="g2_2045" />
<path d="M69.1,170.8l787.4,0l0,-2.3l-787.4,0l0,2.3Z" class="g2_2045" />
<path d="M69.1,193.7l787.4,0l0,-2.3l-787.4,0l0,2.3Z" class="g2_2045" />
<path d="M105.9,215.8l750.6,0l0,-0.8l-750.6,0l0,0.8Z" class="g2_2045" />
<path d="M69.1,238.7l787.4,0l0,-0.7L69.1,238l0,0.7Z" class="g2_2045" />
<path d="M105.9,261.6l750.6,0l0,-0.7l-750.6,0l0,0.7Z" class="g2_2045" />
<path d="M69.1,284.5l787.4,0l0,-0.7l-787.4,0l0,0.7Z" class="g2_2045" />
<path d="M69.1,330.4l787.4,0l0,-0.8l-787.4,0l0,0.8Z" class="g2_2045" />
<path d="M69.1,377l787.4,0l0,-2.3l-787.4,0l0,2.3Z" class="g2_2045" />
<path d="M69.1,399.9l787.4,0l0,-2.2l-787.4,0l0,2.2Z" class="g2_2045" />
<path d="M69.1,422.9l787.4,0l0,-2.3l-787.4,0l0,2.3Z" class="g2_2045" />
<path d="M105.9,444.9l750.6,0l0,-0.7l-750.6,0l0,0.7Z" class="g2_2045" />
<path d="M69.1,467.9l787.4,0l0,-0.8l-787.4,0l0,0.8Z" class="g2_2045" />
<path d="M105.9,490.8l750.6,0l0,-0.8l-750.6,0l0,0.8Z" class="g2_2045" />
<path d="M69.1,513.7l787.4,0l0,-0.7L69.1,513l0,0.7Z" class="g2_2045" />
<path d="M69.1,559.5l787.4,0l0,-0.7l-787.4,0l0,0.7Z" class="g2_2045" />
<path d="M69.1,606.2l787.4,0l0,-2.3l-787.4,0l0,2.3Z" class="g2_2045" />
<path d="M69.2,852.1l2.3,0l0,-81.7l-2.3,0l0,81.7Z" class="g2_2045" />
<path d="M168,854.4l0.8,0l0,-62.6l-0.8,0l0,62.6Z" class="g2_2045" />
<path d="M266.1,854.4l0.7,0l0,-62.6l-0.7,0l0,62.6Z" class="g2_2045" />
<path d="M364.1,854.4l0.7,0l0,-62.6l-0.7,0l0,62.6Z" class="g2_2045" />
<path d="M462.2,854.4l0.7,0l0,-62.6l-0.7,0l0,62.6Z" class="g2_2045" />
<path d="M560.3,854.4l0.7,0l0,-62.6l-0.7,0l0,62.6Z" class="g2_2045" />
<path d="M658.4,854.4l0.7,0l0,-62.6l-0.7,0l0,62.6Z" class="g2_2045" />
<path d="M756.4,854.4l0.8,0l0,-62.6l-0.8,0l0,62.6Z" class="g2_2045" />
<path d="M853.8,852.1l2.3,0l0,-81.7l-2.3,0l0,81.7Z" class="g2_2045" />
<path d="M69.1,770.5l786.9,0l0,-2.3l-786.9,0l0,2.3Z" class="g2_2045" />
<path d="M69.1,792.6l786.9,0l0,-0.8l-786.9,0l0,0.8Z" class="g2_2045" />
<path d="M69.1,816.3l786.9,0l0,-2.3L69.1,814l0,2.3Z" class="g2_2045" />
<path d="M69.1,854.5l786.9,0l0,-2.3l-786.9,0l0,2.3Z" class="g2_2045" />
</svg>