<?xml version="1.0" encoding="UTF-8" standalone="no"?>
<!DOCTYPE svg PUBLIC "-//W3C//DTD SVG 1.1//EN"
"http://www.w3.org/Graphics/SVG/1.1/DTD/svg11.dtd">
<svg viewBox="0 0 935 1210" version="1.1" xmlns="http://www.w3.org/2000/svg" xmlns:xlink="http://www.w3.org/1999/xlink">
<defs>
<style type="text/css"><![CDATA[
.g1_1750{
fill: #FFFFFF;
}
.g2_1750{
}
]]></style>
</defs>
<path d="M165,1149.3l687.5,0l0,-21.2l-687.5,0l0,21.2Z" class="g1_1750" />
<path d="M68.8,1149.3l82.5,0l0,-21.2l-82.5,0l0,21.2Z" class="g1_1750" />
<path d="M68.6,580.2l0.7,0l0,-454.5l-0.7,0l0,454.5Z" class="g2_1750" />
<path d="M282.4,581l0.8,0l0,-456.1l-0.8,0l0,456.1Z" class="g2_1750" />
<path d="M326.2,581l0.8,0l0,-456.1l-0.8,0l0,456.1Z" class="g2_1750" />
<path d="M398.4,581l0.7,0l0,-456.1l-0.7,0l0,456.1Z" class="g2_1750" />
<path d="M487.3,581l0.7,0l0,-456.1l-0.7,0l0,456.1Z" class="g2_1750" />
<path d="M849.6,580.2l0.7,0l0,-454.5l-0.7,0l0,454.5Z" class="g2_1750" />
<path d="M68.6,125.7l781.7,0l0,-0.8l-781.7,0l0,0.8Z" class="g2_1750" />
<path d="M68.6,176.1l781.7,0l0,-0.7l-781.7,0l0,0.7Z" class="g2_1750" />
<path d="M68.6,246.3l781.7,0l0,-0.7l-781.7,0l0,0.7Z" class="g2_1750" />
<path d="M68.6,316.6l781.7,0l0,-0.7l-781.7,0l0,0.7Z" class="g2_1750" />
<path d="M68.6,386.9l781.7,0l0,-0.7l-781.7,0l0,0.7Z" class="g2_1750" />
<path d="M68.6,457.2l781.7,0l0,-0.7l-781.7,0l0,0.7Z" class="g2_1750" />
<path d="M68.6,527.4l781.7,0l0,-0.7l-781.7,0l0,0.7Z" class="g2_1750" />
<path d="M68.6,581l781.7,0l0,-0.8l-781.7,0l0,0.8Z" class="g2_1750" />
<path d="M69.3,684.1l0.7,0L70,636l-0.7,0l0,48.1Z" class="g2_1750" />
<path d="M163.3,684.8l0.7,0l0,-49.6l-0.7,0l0,49.6Z" class="g2_1750" />
<path d="M333.9,684.8l0.8,0l0,-49.6l-0.8,0l0,49.6Z" class="g2_1750" />
<path d="M508.2,684.8l0.7,0l0,-49.6l-0.7,0l0,49.6Z" class="g2_1750" />
<path d="M680.3,684.8l0.7,0l0,-49.6l-0.7,0l0,49.6Z" class="g2_1750" />
<path d="M851.1,684.1l0.8,0l0,-48.1l-0.8,0l0,48.1Z" class="g2_1750" />
<path d="M69.2,636l782.7,0l0,-0.8l-782.7,0l0,0.8Z" class="g2_1750" />
<path d="M69.2,660.4l782.7,0l0,-0.8l-782.7,0l0,0.8Z" class="g2_1750" />
<path d="M69.2,684.8l782.7,0l0,-0.7l-782.7,0l0,0.7Z" class="g2_1750" />
</svg>