<?xml version="1.0" encoding="UTF-8" standalone="no"?>
<!DOCTYPE svg PUBLIC "-//W3C//DTD SVG 1.1//EN"
"http://www.w3.org/Graphics/SVG/1.1/DTD/svg11.dtd">
<svg viewBox="0 0 935 1210" version="1.1" xmlns="http://www.w3.org/2000/svg" xmlns:xlink="http://www.w3.org/1999/xlink">
<defs>
<style type="text/css"><![CDATA[
.g1_536{
fill: #FFFFFF;
}
.g2_536{
}
.g3_536{
fill: none;
stroke: #000000;
stroke-width: 1.0694444;
stroke-linecap: butt;
stroke-linejoin: miter;
stroke-miterlimit: 3;
}
.g4_536{
fill: none;
stroke: #000000;
stroke-width: 0.35597223;
stroke-linecap: butt;
stroke-linejoin: miter;
stroke-miterlimit: 3;
}
.g5_536{
fill: #CECECE;
}
]]></style>
</defs>
<path d="M165,1149.3l687.5,0l0,-21.2l-687.5,0l0,21.2Z" class="g1_536" />
<path d="M68.8,1149.3l82.5,0l0,-21.2l-82.5,0l0,21.2Z" class="g1_536" />
<path d="M67.8,348l0.8,0l0,-222.3l-0.8,0l0,222.3Z" class="g2_536" />
<path d="M390.5,348.7l0.7,0l0,-223.8l-0.7,0l0,223.8Z" class="g2_536" />
<path d="M428.4,348.7l0.7,0l0,-223.8l-0.7,0l0,223.8Z" class="g2_536" />
<path d="M501.8,348.7l0.7,0l0,-223.8l-0.7,0l0,223.8Z" class="g2_536" />
<path d="M573.1,348.7l0.7,0l0,-223.8l-0.7,0l0,223.8Z" class="g2_536" />
<path d="M852.6,348l0.7,0l0,-222.3l-0.7,0l0,222.3Z" class="g2_536" />
<path d="M67.8,125.7l785.5,0l0,-0.8l-785.5,0l0,0.8Z" class="g2_536" />
<path d="M67.8,179.1l785.5,0l0,-0.7l-785.5,0l0,0.7Z" class="g2_536" />
<path d="M67.8,235.7l785.5,0l0,-0.8l-785.5,0l0,0.8Z" class="g2_536" />
<path d="M67.8,292.1l785.5,0l0,-0.7l-785.5,0l0,0.7Z" class="g2_536" />
<path d="M67.8,348.7l785.5,0l0,-0.7L67.8,348l0,0.7Z" class="g2_536" />
<path d="M69.7,476.3l0.7,0l0,-72.6l-0.7,0l0,72.6Z" class="g2_536" />
<path d="M143,477l0.7,0l0,-74l-0.7,0l0,74Z" class="g2_536" />
<path d="M316.1,477l0.7,0l0,-74l-0.7,0l0,74Z" class="g2_536" />
<path d="M501.1,477l0.8,0l0,-74l-0.8,0l0,74Z" class="g2_536" />
<path d="M674.5,477l0.7,0l0,-74l-0.7,0l0,74Z" class="g2_536" />
<path d="M850.8,476.3l0.7,0l0,-72.6l-0.7,0l0,72.6Z" class="g2_536" />
<path d="M69.7,403.7l781.8,0l0,-0.7L69.7,403l0,0.7Z" class="g2_536" />
<path d="M69.7,428.2l781.8,0l0,-0.8l-781.8,0l0,0.8Z" class="g2_536" />
<path d="M69.7,452.7l781.8,0l0,-0.8l-781.8,0l0,0.8Z" class="g2_536" />
<path d="M69.7,477l781.8,0l0,-0.7l-781.8,0l0,0.7Z" class="g2_536" />
<path d="M206.8,1032l511.2,0l0,-316.2l-511.2,0l0,316.2Z" class="g1_536" />
<path d="M207.9,990.8l501.1,0l0,-273.9l-501.1,0l0,273.9Z" class="g1_536" />
<path d="M207.9,716.9l501.1,0l0,273.9l-501.1,0l0,-273.9Z" class="g3_536" />
<path d="M448.4,795.4l200.4,0l0,-40.1l-200.4,0l0,40.1Z" class="g1_536" />
<path d="M448.4,755.3l200.4,0l0,40.1l-200.4,0l0,-40.1Z" class="g4_536" />
<path d="M247.9,795.4l200.5,0l0,-40.1l-200.5,0l0,40.1Z" class="g1_536" />
<path d="M247.9,755.3l200.5,0l0,40.1l-200.5,0l0,-40.1Z" class="g4_536" />
<path d="M448.4,867.2l200.4,0l0,-40.1l-200.4,0l0,40.1Z" class="g1_536" />
<path d="M448.4,827.1l200.4,0l0,40.1l-200.4,0l0,-40.1Z" class="g4_536" />
<path d="M247.9,867.2l200.5,0l0,-40.1l-200.5,0l0,40.1Z" class="g1_536" />
<path d="M247.9,827.1l200.5,0l0,40.1l-200.5,0l0,-40.1Z" class="g4_536" />
<path d="M348.2,906.3l0,-9l-120.3,0l0,-86.1l320.7,0l0,-15.8" class="g4_536" />
<path fill-rule="evenodd" d="M352.3,905.8l-4.1,8.2l-4.1,-8.2l8.2,0Z" class="g2_536" />
<path d="M247.9,954.1l200.5,0l0,-40.1l-200.5,0l0,40.1Z" class="g5_536" />
<path d="M247.9,914l200.5,0l0,40.1l-200.5,0l0,-40.1Z" class="g4_536" />
<path d="M448.4,954.1l200.4,0l0,-40.1l-200.4,0l0,40.1Z" class="g5_536" />
<path d="M448.4,914l200.4,0l0,40.1l-200.4,0l0,-40.1Z" class="g4_536" />
<path d="M548.6,906.3l0,-22.4l-200.4,0l0,-16.7" class="g4_536" />
<path fill-rule="evenodd" d="M552.7,905.8l-4.1,8.2l-4.1,-8.2l8.2,0Z" class="g2_536" />
<path d="M348.2,795.4l0,15.8" class="g4_536" />
<path d="M548.6,867.2l0,16.7" class="g4_536" />
</svg>