<?xml version="1.0" encoding="UTF-8" standalone="no"?>
<!DOCTYPE svg PUBLIC "-//W3C//DTD SVG 1.1//EN"
"http://www.w3.org/Graphics/SVG/1.1/DTD/svg11.dtd">
<svg viewBox="0 0 935 1210" version="1.1" xmlns="http://www.w3.org/2000/svg" xmlns:xlink="http://www.w3.org/1999/xlink">
<defs>
<style type="text/css"><![CDATA[
.g1_1475{
fill: #FFFFFF;
}
.g2_1475{
}
.g3_1475{
fill: none;
stroke: #000000;
stroke-width: 1.0740278;
stroke-linecap: round;
stroke-linejoin: round;
}
.g4_1475{
fill: #FACCA7;
}
.g5_1475{
fill: #FFFFCC;
}
.g6_1475{
fill: none;
stroke: #FF0000;
stroke-width: 1.0740278;
stroke-linecap: round;
stroke-linejoin: round;
}
]]></style>
</defs>
<path d="M68.9,1149.3l686.3,0l0,-21.2l-686.3,0l0,21.2Z" class="g1_1475" />
<path d="M771.3,1149.3l83.7,0l0,-21.2l-83.7,0l0,21.2Z" class="g1_1475" />
<path d="M158.5,446.8l0.7,0l0,-299.8l-0.7,0l0,299.8Z" class="g2_1475" />
<path d="M763.5,446.8l0.7,0l0,-299.8l-0.7,0l0,299.8Z" class="g2_1475" />
<path d="M158.5,147l605.7,0l0,-0.7l-605.7,0l0,0.7Z" class="g2_1475" />
<path d="M158.5,447.6l605.7,0l0,-0.7l-605.7,0l0,0.7Z" class="g2_1475" />
<path d="M379.1,226.9l123.8,0l0,-13.8" class="g3_1475" />
<path fill-rule="evenodd" d="M497.2,214.2l5.7,-14.8l4.6,14.8l-10.3,0Z" class="g2_1475" />
<path d="M379.1,254.4l150.2,0l0,-41.3" class="g3_1475" />
<path fill-rule="evenodd" d="M524.7,214.2l4.6,-14.8l5.7,14.8l-10.3,0Z" class="g2_1475" />
<path d="M379.1,281.9l177.7,0l0,-68.8" class="g3_1475" />
<path fill-rule="evenodd" d="M552.2,214.2l4.6,-14.8l5.8,14.8l-10.4,0Z" class="g2_1475" />
<path d="M379.1,309.4l205.2,0l0,-96.3" class="g3_1475" />
<path fill-rule="evenodd" d="M579.7,214.2l4.6,-14.8l5.8,14.8l-10.4,0Z" class="g2_1475" />
<path d="M379.1,336.9l232.7,0l0,-123.8" class="g3_1475" />
<path fill-rule="evenodd" d="M607.2,214.2l4.6,-14.8l5.8,14.8l-10.4,0Z" class="g2_1475" />
<path d="M379.1,364.4l260.2,0l0,-151.3" class="g3_1475" />
<path fill-rule="evenodd" d="M634.7,214.2l4.6,-14.8l4.6,14.8l-9.2,0Z" class="g2_1475" />
<path d="M379.1,390.7l287.7,0l0,-177.6" class="g3_1475" />
<path fill-rule="evenodd" d="M662.2,214.2l4.6,-14.8l4.6,14.8l-9.2,0Z" class="g2_1475" />
<path d="M379.1,418.2l315.2,0l0,-205.1" class="g3_1475" />
<path fill-rule="evenodd" d="M689.7,214.2l4.6,-14.8l4.6,14.8l-9.2,0Z" class="g2_1475" />
<path d="M489.1,199.4l27.5,0l0,-27.5l-27.5,0l0,27.5Z" class="g4_1475" />
<path d="M489.1,199.4l27.5,0l0,-27.5l-27.5,0l0,27.5Z" class="g3_1475" />
<path d="M516.6,199.4l26.4,0l0,-27.5l-26.4,0l0,27.5Z" class="g4_1475" />
<path d="M516.6,199.4l26.4,0l0,-27.5l-26.4,0l0,27.5Z" class="g3_1475" />
<path d="M543,199.4l27.5,0l0,-27.5l-27.5,0l0,27.5Z" class="g4_1475" />
<path d="M543,199.4l27.5,0l0,-27.5l-27.5,0l0,27.5Z" class="g3_1475" />
<path d="M570.5,199.4l27.5,0l0,-27.5l-27.5,0l0,27.5Z" class="g4_1475" />
<path d="M570.5,199.4l27.5,0l0,-27.5l-27.5,0l0,27.5Z" class="g3_1475" />
<path d="M598,199.4l27.5,0l0,-27.5l-27.5,0l0,27.5Z" class="g4_1475" />
<path d="M598,199.4l27.5,0l0,-27.5l-27.5,0l0,27.5Z" class="g3_1475" />
<path d="M625.5,199.4l27.5,0l0,-27.5l-27.5,0l0,27.5Z" class="g4_1475" />
<path d="M625.5,199.4l27.5,0l0,-27.5l-27.5,0l0,27.5Z" class="g3_1475" />
<path d="M653,199.4l27.5,0l0,-27.5l-27.5,0l0,27.5Z" class="g4_1475" />
<path d="M653,199.4l27.5,0l0,-27.5l-27.5,0l0,27.5Z" class="g3_1475" />
<path d="M680.5,199.4l27.5,0l0,-27.5l-27.5,0l0,27.5Z" class="g4_1475" />
<path d="M680.5,199.4l27.5,0l0,-27.5l-27.5,0l0,27.5Z" class="g3_1475" />
<path d="M214.1,240.6l165,0l0,-27.5l-165,0l0,27.5Z" class="g5_1475" />
<path d="M214.1,240.6l165,0l0,-27.5l-165,0l0,27.5Z" class="g6_1475" />
<path d="M214.1,295.6l165,0l0,-27.5l-165,0l0,27.5Z" class="g5_1475" />
<path d="M214.1,295.6l165,0l0,-27.5l-165,0l0,27.5Z" class="g6_1475" />
<path d="M214.1,323.1l165,0l0,-27.5l-165,0l0,27.5Z" class="g5_1475" />
<path d="M214.1,323.1l165,0l0,-27.5l-165,0l0,27.5Z" class="g6_1475" />
<path d="M214.1,268.1l165,0l0,-27.5l-165,0l0,27.5Z" class="g5_1475" />
<path d="M214.1,268.1l165,0l0,-27.5l-165,0l0,27.5Z" class="g6_1475" />
<path d="M214.1,349.4l165,0l0,-26.3l-165,0l0,26.3Z" class="g5_1475" />
<path d="M214.1,349.4l165,0l0,-26.3l-165,0l0,26.3Z" class="g6_1475" />
<path d="M214.1,376.9l165,0l0,-27.5l-165,0l0,27.5Z" class="g5_1475" />
<path d="M214.1,376.9l165,0l0,-27.5l-165,0l0,27.5Z" class="g6_1475" />
<path d="M214.1,404.4l165,0l0,-27.5l-165,0l0,27.5Z" class="g5_1475" />
<path d="M214.1,404.4l165,0l0,-27.5l-165,0l0,27.5Z" class="g6_1475" />
<path d="M214.1,431.9l165,0l0,-27.5l-165,0l0,27.5Z" class="g5_1475" />
<path d="M214.1,431.9l165,0l0,-27.5l-165,0l0,27.5Z" class="g6_1475" />
</svg>