<?xml version="1.0" encoding="UTF-8" standalone="no"?>
<!DOCTYPE svg PUBLIC "-//W3C//DTD SVG 1.1//EN"
"http://www.w3.org/Graphics/SVG/1.1/DTD/svg11.dtd">
<svg viewBox="0 0 935 1210" version="1.1" xmlns="http://www.w3.org/2000/svg" xmlns:xlink="http://www.w3.org/1999/xlink">
<defs>
<style type="text/css"><![CDATA[
.g1_1031{
fill: #FFFFFF;
}
.g2_1031{
}
]]></style>
</defs>
<path d="M68.9,1149.3l686.3,0l0,-21.2l-686.3,0l0,21.2Z" class="g1_1031" />
<path d="M771.3,1149.3l83.7,0l0,-21.2l-83.7,0l0,21.2Z" class="g1_1031" />
<path d="M171.3,392.1l0.8,0l0,-179.3l-0.8,0l0,179.3Z" class="g2_1031" />
<path d="M750.7,392.1l0.7,0l0,-179.3l-0.7,0l0,179.3Z" class="g2_1031" />
<path d="M171.3,212.8l580.1,0l0,-0.8l-580.1,0l0,0.8Z" class="g2_1031" />
<path d="M171.3,392.8l580.1,0l0,-0.7l-580.1,0l0,0.7Z" class="g2_1031" />
<path d="M260.6,341.6l110,0l0,-27.5l-110,0l0,27.5Z" class="g1_1031" />
<path d="M260.6,314.5l110.4,0l0,-0.7l-110.4,0l0,0.7Z" class="g2_1031" />
<path d="M370.2,342l0.8,0l0,-27.9l-0.8,0l0,27.9Z" class="g2_1031" />
<path d="M260.2,342l110.4,0l0,-0.7l-110.4,0l0,0.7Z" class="g2_1031" />
<path d="M260.2,341.6l0.8,0l0,-27.8l-0.8,0l0,27.8Z" class="g2_1031" />
<path d="M370.6,341.6l110,0l0,-27.5l-110,0l0,27.5Z" class="g1_1031" />
<path d="M370.6,314.5l110.4,0l0,-0.7l-110.4,0l0,0.7Z" class="g2_1031" />
<path d="M480.2,342l0.8,0l0,-27.9l-0.8,0l0,27.9Z" class="g2_1031" />
<path d="M370.2,342l110.4,0l0,-0.7l-110.4,0l0,0.7Z" class="g2_1031" />
<path d="M370.2,341.6l0.8,0l0,-27.8l-0.8,0l0,27.8Z" class="g2_1031" />
<path d="M480.6,341.6l110,0l0,-27.5l-110,0l0,27.5Z" class="g1_1031" />
<path d="M480.6,314.5l110.4,0l0,-0.7l-110.4,0l0,0.7Z" class="g2_1031" />
<path d="M590.2,342l0.8,0l0,-27.9l-0.8,0l0,27.9Z" class="g2_1031" />
<path d="M480.2,342l110.4,0l0,-0.7l-110.4,0l0,0.7Z" class="g2_1031" />
<path d="M480.2,341.6l0.8,0l0,-27.8l-0.8,0l0,27.8Z" class="g2_1031" />
<path d="M590.6,314.1l110,0l0,27.5l-110,0Z" class="g1_1031" />
<path d="M590.6,314.5l110.4,0l0,-0.7l-110.4,0l0,0.7Z" class="g2_1031" />
<path d="M700.2,342l0.8,0l0,-27.9l-0.8,0l0,27.9Z" class="g2_1031" />
<path d="M590.2,342l110.4,0l0,-0.7l-110.4,0l0,0.7Z" class="g2_1031" />
<path d="M590.2,341.6l0.8,0l0,-27.8l-0.8,0l0,27.8Z" class="g2_1031" />
<path d="M369,256l55.7,0l0,-27.5l-55.7,0l0,27.5Z" class="g1_1031" />
<path d="M369,228.9l56.1,0l0,-0.7l-56.1,0l0,0.7Z" class="g2_1031" />
<path d="M424.3,256.4l0.8,0l0,-27.9l-0.8,0l0,27.9Z" class="g2_1031" />
<path d="M368.7,256.4l56,0l0,-0.7l-56,0l0,0.7Z" class="g2_1031" />
<path d="M368.7,256l0.7,0l0,-27.8l-0.7,0l0,27.8Z" class="g2_1031" />
<path d="M424.7,256l55.5,0l0,-27.5l-55.5,0l0,27.5Z" class="g1_1031" />
<path d="M424.7,228.9l55.9,0l0,-0.7l-55.9,0l0,0.7Z" class="g2_1031" />
<path d="M479.9,256.4l0.7,0l0,-27.9l-0.7,0l0,27.9Z" class="g2_1031" />
<path d="M424.3,256.4l55.9,0l0,-0.7l-55.9,0l0,0.7Z" class="g2_1031" />
<path d="M424.3,256l0.8,0l0,-27.8l-0.8,0l0,27.8Z" class="g2_1031" />
<path d="M480.2,256l55.6,0l0,-27.5l-55.6,0l0,27.5Z" class="g1_1031" />
<path d="M480.2,228.9l56,0l0,-0.7l-56,0l0,0.7Z" class="g2_1031" />
<path d="M535.4,256.4l0.8,0l0,-27.9l-0.8,0l0,27.9Z" class="g2_1031" />
<path d="M479.9,256.4l55.9,0l0,-0.7l-55.9,0l0,0.7Z" class="g2_1031" />
<path d="M479.9,256l0.7,0l0,-27.8l-0.7,0l0,27.8Z" class="g2_1031" />
<path d="M535.8,256l55.5,0l0,-27.5l-55.5,0l0,27.5Z" class="g1_1031" />
<path d="M535.8,228.9l55.9,0l0,-0.7l-55.9,0l0,0.7Z" class="g2_1031" />
<path d="M591,256.4l0.7,0l0,-27.9l-0.7,0l0,27.9Z" class="g2_1031" />
<path d="M535.4,256.4l55.9,0l0,-0.7l-55.9,0l0,0.7Z" class="g2_1031" />
<path d="M535.4,256l0.8,0l0,-27.8l-0.8,0l0,27.8Z" class="g2_1031" />
<path d="M369,296.1l55.6,0l0,-27.5l-55.6,0l0,27.5Z" class="g1_1031" />
<path d="M369,268.9l56,0l0,-0.7l-56,0l0,0.7Z" class="g2_1031" />
<path d="M424.2,296.4l0.8,0l0,-27.8l-0.8,0l0,27.8Z" class="g2_1031" />
<path d="M368.7,296.4l55.9,0l0,-0.7l-55.9,0l0,0.7Z" class="g2_1031" />
<path d="M368.7,296.1l0.7,0l0,-27.9l-0.7,0l0,27.9Z" class="g2_1031" />
<path d="M424.6,296.1l55.6,0l0,-27.5l-55.6,0l0,27.5Z" class="g1_1031" />
<path d="M424.6,268.9l55.9,0l0,-0.7l-55.9,0l0,0.7Z" class="g2_1031" />
<path d="M479.8,296.4l0.7,0l0,-27.8l-0.7,0l0,27.8Z" class="g2_1031" />
<path d="M424.2,296.4l56,0l0,-0.7l-56,0l0,0.7Z" class="g2_1031" />
<path d="M424.2,296.1l0.8,0l0,-27.9l-0.8,0l0,27.9Z" class="g2_1031" />
<path d="M480.2,296.1l55.6,0l0,-27.5l-55.6,0l0,27.5Z" class="g1_1031" />
<path d="M480.2,268.9l56,0l0,-0.7l-56,0l0,0.7Z" class="g2_1031" />
<path d="M535.4,296.4l0.8,0l0,-27.8l-0.8,0l0,27.8Z" class="g2_1031" />
<path d="M479.8,296.4l56,0l0,-0.7l-56,0l0,0.7Z" class="g2_1031" />
<path d="M479.8,296.1l0.7,0l0,-27.9l-0.7,0l0,27.9Z" class="g2_1031" />
<path d="M535.8,296.1l55.5,0l0,-27.5l-55.5,0l0,27.5Z" class="g1_1031" />
<path d="M535.8,268.9l55.9,0l0,-0.7l-55.9,0l0,0.7Z" class="g2_1031" />
<path d="M591,296.4l0.7,0l0,-27.8l-0.7,0l0,27.8Z" class="g2_1031" />
<path d="M535.4,296.4l55.9,0l0,-0.7l-55.9,0l0,0.7Z" class="g2_1031" />
<path d="M535.4,296.1l0.8,0l0,-27.9l-0.8,0l0,27.9Z" class="g2_1031" />
<path d="M369,382l55.5,0l0,-27.5l-55.5,0l0,27.5Z" class="g1_1031" />
<path d="M369,354.8l55.9,0l0,-0.7l-55.9,0l0,0.7Z" class="g2_1031" />
<path d="M424.1,382.3l0.8,0l0,-27.8l-0.8,0l0,27.8Z" class="g2_1031" />
<path d="M368.6,382.3l55.9,0l0,-0.7l-55.9,0l0,0.7Z" class="g2_1031" />
<path d="M368.6,382l0.7,0l0,-27.9l-0.7,0l0,27.9Z" class="g2_1031" />
<path d="M424.5,382l55.6,0l0,-27.5l-55.6,0l0,27.5Z" class="g1_1031" />
<path d="M424.5,354.8l56,0l0,-0.7l-56,0l0,0.7Z" class="g2_1031" />
<path d="M479.8,382.3l0.7,0l0,-27.8l-0.7,0l0,27.8Z" class="g2_1031" />
<path d="M424.1,382.3l56.1,0l0,-0.7l-56.1,0l0,0.7Z" class="g2_1031" />
<path d="M424.1,382l0.8,0l0,-27.9l-0.8,0l0,27.9Z" class="g2_1031" />
<path d="M480.2,382l55.5,0l0,-27.5l-55.5,0l0,27.5Z" class="g1_1031" />
<path d="M480.2,354.8l55.9,0l0,-0.7l-55.9,0l0,0.7Z" class="g2_1031" />
<path d="M535.3,382.3l0.8,0l0,-27.8l-0.8,0l0,27.8Z" class="g2_1031" />
<path d="M479.8,382.3l55.9,0l0,-0.7l-55.9,0l0,0.7Z" class="g2_1031" />
<path d="M479.8,382l0.7,0l0,-27.9l-0.7,0l0,27.9Z" class="g2_1031" />
<path d="M535.7,382l55.6,0l0,-27.5l-55.6,0l0,27.5Z" class="g1_1031" />
<path d="M535.7,354.8l55.9,0l0,-0.7l-55.9,0l0,0.7Z" class="g2_1031" />
<path d="M590.9,382.3l0.7,0l0,-27.8l-0.7,0l0,27.8Z" class="g2_1031" />
<path d="M535.3,382.3l56,0l0,-0.7l-56,0l0,0.7Z" class="g2_1031" />
<path d="M535.3,382l0.8,0l0,-27.9l-0.8,0l0,27.9Z" class="g2_1031" />
</svg>