<?xml version="1.0" encoding="UTF-8" standalone="no"?>
<!DOCTYPE svg PUBLIC "-//W3C//DTD SVG 1.1//EN"
"http://www.w3.org/Graphics/SVG/1.1/DTD/svg11.dtd">
<svg viewBox="0 0 935 1210" version="1.1" xmlns="http://www.w3.org/2000/svg" xmlns:xlink="http://www.w3.org/1999/xlink">
<defs>
<style type="text/css"><![CDATA[
.g1_1919{
fill: #FFFFFF;
}
.g2_1919{
}
]]></style>
</defs>
<path d="M68.9,1149.3l686.3,0l0,-21.2l-686.3,0l0,21.2Z" class="g1_1919" />
<path d="M771.3,1149.3l83.7,0l0,-21.2l-83.7,0l0,21.2Z" class="g1_1919" />
<path d="M70.3,222.7l0.7,0l0,-97l-0.7,0l0,97Z" class="g2_1919" />
<path d="M390.8,223.5l0.7,0l0,-98.6l-0.7,0l0,98.6Z" class="g2_1919" />
<path d="M428.6,223.5l0.8,0l0,-98.6l-0.8,0l0,98.6Z" class="g2_1919" />
<path d="M502,223.5l0.7,0l0,-98.6l-0.7,0l0,98.6Z" class="g2_1919" />
<path d="M573.4,223.5l0.7,0l0,-98.6l-0.7,0l0,98.6Z" class="g2_1919" />
<path d="M851.7,222.7l0.7,0l0,-97l-0.7,0l0,97Z" class="g2_1919" />
<path d="M70.3,125.7l782.1,0l0,-0.8l-782.1,0l0,0.8Z" class="g2_1919" />
<path d="M70.3,179.1l782.1,0l0,-0.7l-782.1,0l0,0.7Z" class="g2_1919" />
<path d="M70.3,223.4l782.1,0l0,-0.7l-782.1,0l0,0.7Z" class="g2_1919" />
<path d="M70.5,326.6l0.7,0l0,-48.1l-0.7,0l0,48.1Z" class="g2_1919" />
<path d="M144,327.3l0.7,0l0,-49.6l-0.7,0l0,49.6Z" class="g2_1919" />
<path d="M310.5,327.3l0.7,0l0,-49.6l-0.7,0l0,49.6Z" class="g2_1919" />
<path d="M487.1,327.3l0.8,0l0,-49.6l-0.8,0l0,49.6Z" class="g2_1919" />
<path d="M665.5,327.3l0.7,0l0,-49.6l-0.7,0l0,49.6Z" class="g2_1919" />
<path d="M851.5,326.6l0.7,0l0,-48.1l-0.7,0l0,48.1Z" class="g2_1919" />
<path d="M70.5,278.4l781.8,0l0,-0.7l-781.8,0l0,0.7Z" class="g2_1919" />
<path d="M70.5,302.9l781.8,0l0,-0.8l-781.8,0l0,0.8Z" class="g2_1919" />
<path d="M70.5,327.3l781.8,0l0,-0.7l-781.8,0l0,0.7Z" class="g2_1919" />
</svg>