<?xml version="1.0" encoding="UTF-8" standalone="no"?>
<!DOCTYPE svg PUBLIC "-//W3C//DTD SVG 1.1//EN"
"http://www.w3.org/Graphics/SVG/1.1/DTD/svg11.dtd">
<svg viewBox="0 0 935 1210" version="1.1" xmlns="http://www.w3.org/2000/svg" xmlns:xlink="http://www.w3.org/1999/xlink">
<defs>
<style type="text/css"><![CDATA[
.g1_2175{
fill: #FFFFFF;
}
.g2_2175{
}
]]></style>
</defs>
<path d="M68.9,1149.3l783.8,0l0,-21.2l-783.8,0l0,21.2Z" class="g1_2175" />
<path d="M69.8,1090.5l0.7,0l0,-966.4l-0.7,0l0,966.4Z" class="g2_2175" />
<path d="M261.7,1091.3l0.7,0l0,-967.9l-0.7,0l0,967.9Z" class="g2_2175" />
<path d="M852.2,1090.5l0.8,0l0,-966.4l-0.8,0l0,966.4Z" class="g2_2175" />
<path d="M69.8,124.1l783.2,0l0,-0.7l-783.2,0l0,0.7Z" class="g2_2175" />
<path d="M69.8,147L853,147l0,-0.7l-783.2,0l0,0.7Z" class="g2_2175" />
<path d="M69.8,169.9l783.2,0l0,-0.7l-783.2,0l0,0.7Z" class="g2_2175" />
<path d="M69.8,192.9l783.2,0l0,-0.8l-783.2,0l0,0.8Z" class="g2_2175" />
<path d="M69.8,215.8l783.2,0l0,-0.8L69.8,215l0,0.8Z" class="g2_2175" />
<path d="M69.8,252.4l783.2,0l0,-0.7l-783.2,0l0,0.7Z" class="g2_2175" />
<path d="M69.8,275.4l783.2,0l0,-0.8l-783.2,0l0,0.8Z" class="g2_2175" />
<path d="M69.8,357.9l783.2,0l0,-0.8l-783.2,0l0,0.8Z" class="g2_2175" />
<path d="M69.8,380.8l783.2,0l0,-0.8L69.8,380l0,0.8Z" class="g2_2175" />
<path d="M69.8,403.7l783.2,0l0,-0.7L69.8,403l0,0.7Z" class="g2_2175" />
<path d="M69.8,426.6l783.2,0l0,-0.7l-783.2,0l0,0.7Z" class="g2_2175" />
<path d="M69.8,449.5l783.2,0l0,-0.7l-783.2,0l0,0.7Z" class="g2_2175" />
<path d="M69.8,472.4l783.2,0l0,-0.7l-783.2,0l0,0.7Z" class="g2_2175" />
<path d="M69.8,495.4l783.2,0l0,-0.8l-783.2,0l0,0.8Z" class="g2_2175" />
<path d="M69.8,518.3l783.2,0l0,-0.7l-783.2,0l0,0.7Z" class="g2_2175" />
<path d="M69.8,541.2l783.2,0l0,-0.7l-783.2,0l0,0.7Z" class="g2_2175" />
<path d="M69.8,564.1l783.2,0l0,-0.7l-783.2,0l0,0.7Z" class="g2_2175" />
<path d="M69.8,587L853,587l0,-0.7l-783.2,0l0,0.7Z" class="g2_2175" />
<path d="M69.8,609.9l783.2,0l0,-0.7l-783.2,0l0,0.7Z" class="g2_2175" />
<path d="M69.8,632.9l783.2,0l0,-0.8l-783.2,0l0,0.8Z" class="g2_2175" />
<path d="M69.8,655.8l783.2,0l0,-0.7l-783.2,0l0,0.7Z" class="g2_2175" />
<path d="M69.8,678.7l783.2,0l0,-0.7L69.8,678l0,0.7Z" class="g2_2175" />
<path d="M69.8,701.6l783.2,0l0,-0.7l-783.2,0l0,0.7Z" class="g2_2175" />
<path d="M69.8,724.5l783.2,0l0,-0.7l-783.2,0l0,0.7Z" class="g2_2175" />
<path d="M69.8,747.4l783.2,0l0,-0.7l-783.2,0l0,0.7Z" class="g2_2175" />
<path d="M69.8,770.4l783.2,0l0,-0.8l-783.2,0l0,0.8Z" class="g2_2175" />
<path d="M69.8,793.3l783.2,0l0,-0.7l-783.2,0l0,0.7Z" class="g2_2175" />
<path d="M69.8,816.2l783.2,0l0,-0.7l-783.2,0l0,0.7Z" class="g2_2175" />
<path d="M69.8,839.1l783.2,0l0,-0.7l-783.2,0l0,0.7Z" class="g2_2175" />
<path d="M69.8,862L853,862l0,-0.7l-783.2,0l0,0.7Z" class="g2_2175" />
<path d="M69.8,885L853,885l0,-0.8l-783.2,0l0,0.8Z" class="g2_2175" />
<path d="M69.8,907.9l783.2,0l0,-0.8l-783.2,0l0,0.8Z" class="g2_2175" />
<path d="M69.8,930.8l783.2,0l0,-0.7l-783.2,0l0,0.7Z" class="g2_2175" />
<path d="M69.8,953.7l783.2,0l0,-0.7L69.8,953l0,0.7Z" class="g2_2175" />
<path d="M69.8,976.6l783.2,0l0,-0.7l-783.2,0l0,0.7Z" class="g2_2175" />
<path d="M69.8,999.5l783.2,0l0,-0.7l-783.2,0l0,0.7Z" class="g2_2175" />
<path d="M261.7,1022.5l591.3,0l0,-0.8l-591.3,0l0,0.8Z" class="g2_2175" />
<path d="M69.8,1045.4l783.2,0l0,-0.8l-783.2,0l0,0.8Z" class="g2_2175" />
<path d="M261.7,1068.3l591.3,0l0,-0.8l-591.3,0l0,0.8Z" class="g2_2175" />
<path d="M69.8,1091.2l783.2,0l0,-0.7l-783.2,0l0,0.7Z" class="g2_2175" />
</svg>