<?xml version="1.0" encoding="UTF-8" standalone="no"?>
<!DOCTYPE svg PUBLIC "-//W3C//DTD SVG 1.1//EN"
"http://www.w3.org/Graphics/SVG/1.1/DTD/svg11.dtd">
<svg viewBox="0 0 935 1210" version="1.1" xmlns="http://www.w3.org/2000/svg" xmlns:xlink="http://www.w3.org/1999/xlink">
<defs>
<style type="text/css"><![CDATA[
.g1_1098{
fill: #FFFFFF;
}
.g2_1098{
}
]]></style>
</defs>
<path d="M165,1149.3l687.5,0l0,-21.2l-687.5,0l0,21.2Z" class="g1_1098" />
<path d="M68.8,1149.3l82.5,0l0,-21.2l-82.5,0l0,21.2Z" class="g1_1098" />
<path d="M63.8,904.1l0.7,0l0,-796.8l-0.7,0l0,796.8Z" class="g2_1098" />
<path d="M359.1,904.8l0.7,0l0,-798.2l-0.7,0l0,798.2Z" class="g2_1098" />
<path d="M402.6,904.8l0.7,0l0,-798.2l-0.7,0l0,798.2Z" class="g2_1098" />
<path d="M475.9,904.8l0.8,0l0,-798.2l-0.8,0l0,798.2Z" class="g2_1098" />
<path d="M555.4,904.8l0.7,0l0,-798.2l-0.7,0l0,798.2Z" class="g2_1098" />
<path d="M856.6,904.1l0.8,0l0,-796.8l-0.8,0l0,796.8Z" class="g2_1098" />
<path d="M63.8,107.3l793.6,0l0,-0.7l-793.6,0l0,0.7Z" class="g2_1098" />
<path d="M63.8,147l793.6,0l0,-0.7l-793.6,0l0,0.7Z" class="g2_1098" />
<path d="M63.8,186.7l793.6,0l0,-0.7L63.8,186l0,0.7Z" class="g2_1098" />
<path d="M63.8,226.5l793.6,0l0,-0.7l-793.6,0l0,0.7Z" class="g2_1098" />
<path d="M63.8,283l793.6,0l0,-0.8l-793.6,0l0,0.8Z" class="g2_1098" />
<path d="M63.8,339.5l793.6,0l0,-0.7l-793.6,0l0,0.7Z" class="g2_1098" />
<path d="M63.8,396.1l793.6,0l0,-0.7l-793.6,0l0,0.7Z" class="g2_1098" />
<path d="M63.8,452.7l793.6,0l0,-0.8l-793.6,0l0,0.8Z" class="g2_1098" />
<path d="M63.8,509.1l793.6,0l0,-0.7l-793.6,0l0,0.7Z" class="g2_1098" />
<path d="M63.8,565.7l793.6,0l0,-0.8l-793.6,0l0,0.8Z" class="g2_1098" />
<path d="M63.8,622.2l793.6,0l0,-0.7l-793.6,0l0,0.7Z" class="g2_1098" />
<path d="M63.8,678.7l793.6,0l0,-0.7L63.8,678l0,0.7Z" class="g2_1098" />
<path d="M63.8,735.3l793.6,0l0,-0.8l-793.6,0l0,0.8Z" class="g2_1098" />
<path d="M63.8,791.8l793.6,0l0,-0.7l-793.6,0l0,0.7Z" class="g2_1098" />
<path d="M63.8,848.3l793.6,0l0,-0.7l-793.6,0l0,0.7Z" class="g2_1098" />
<path d="M63.8,904.8l793.6,0l0,-0.7l-793.6,0l0,0.7Z" class="g2_1098" />
</svg>