<?xml version="1.0" encoding="UTF-8" standalone="no"?>
<!DOCTYPE svg PUBLIC "-//W3C//DTD SVG 1.1//EN"
"http://www.w3.org/Graphics/SVG/1.1/DTD/svg11.dtd">
<svg viewBox="0 0 935 1210" version="1.1" xmlns="http://www.w3.org/2000/svg" xmlns:xlink="http://www.w3.org/1999/xlink">
<defs>
<style type="text/css"><![CDATA[
.g1_1577{
fill: #FFFFFF;
}
.g2_1577{
}
]]></style>
</defs>
<path d="M68.9,1149.3l686.3,0l0,-21.2l-686.3,0l0,21.2Z" class="g1_1577" />
<path d="M771.3,1149.3l83.7,0l0,-21.2l-83.7,0l0,21.2Z" class="g1_1577" />
<path d="M69.9,517.6l0.8,0L70.7,147l-0.8,0l0,370.6Z" class="g2_1577" />
<path d="M298.6,518.3l0.8,0l0,-372l-0.8,0l0,372Z" class="g2_1577" />
<path d="M344.4,518.3l0.7,0l0,-372l-0.7,0l0,372Z" class="g2_1577" />
<path d="M418.8,518.3l0.8,0l0,-372l-0.8,0l0,372Z" class="g2_1577" />
<path d="M502.6,518.3l0.7,0l0,-372l-0.7,0l0,372Z" class="g2_1577" />
<path d="M853.8,517.6l0.7,0l0,-370.6l-0.7,0l0,370.6Z" class="g2_1577" />
<path d="M69.9,147l784.6,0l0,-0.7l-784.6,0l0,0.7Z" class="g2_1577" />
<path d="M69.9,197.4l784.6,0l0,-0.7l-784.6,0l0,0.7Z" class="g2_1577" />
<path d="M69.9,250.9l784.6,0l0,-0.7l-784.6,0l0,0.7Z" class="g2_1577" />
<path d="M69.9,304.4l784.6,0l0,-0.7l-784.6,0l0,0.7Z" class="g2_1577" />
<path d="M69.9,357.9l784.6,0l0,-0.8l-784.6,0l0,0.8Z" class="g2_1577" />
<path d="M69.9,411.4l784.6,0l0,-0.7l-784.6,0l0,0.7Z" class="g2_1577" />
<path d="M69.9,464.8l784.6,0l0,-0.7l-784.6,0l0,0.7Z" class="g2_1577" />
<path d="M69.9,518.3l784.6,0l0,-0.7l-784.6,0l0,0.7Z" class="g2_1577" />
<path d="M70.9,645.9l0.8,0l0,-72.6l-0.8,0l0,72.6Z" class="g2_1577" />
<path d="M197.6,646.6l0.8,0l0,-74.1l-0.8,0l0,74.1Z" class="g2_1577" />
<path d="M355.6,646.6l0.7,0l0,-74.1l-0.7,0l0,74.1Z" class="g2_1577" />
<path d="M524.8,646.6l0.7,0l0,-74.1l-0.7,0l0,74.1Z" class="g2_1577" />
<path d="M689.5,646.6l0.8,0l0,-74.1l-0.8,0l0,74.1Z" class="g2_1577" />
<path d="M851,645.9l0.8,0l0,-72.6l-0.8,0l0,72.6Z" class="g2_1577" />
<path d="M70.9,573.3l780.9,0l0,-0.7l-780.9,0l0,0.7Z" class="g2_1577" />
<path d="M70.9,597.8l780.9,0l0,-0.8L70.9,597l0,0.8Z" class="g2_1577" />
<path d="M70.9,622.2l780.9,0l0,-0.7l-780.9,0l0,0.7Z" class="g2_1577" />
<path d="M70.9,646.6l780.9,0l0,-0.7l-780.9,0l0,0.7Z" class="g2_1577" />
</svg>