<?xml version="1.0" encoding="UTF-8" standalone="no"?>
<!DOCTYPE svg PUBLIC "-//W3C//DTD SVG 1.1//EN"
"http://www.w3.org/Graphics/SVG/1.1/DTD/svg11.dtd">
<svg viewBox="0 0 935 1210" version="1.1" xmlns="http://www.w3.org/2000/svg" xmlns:xlink="http://www.w3.org/1999/xlink">
<defs>
<style type="text/css"><![CDATA[
.g1_1586{
fill: #FFFFFF;
}
.g2_1586{
}
]]></style>
</defs>
<path d="M165,1149.3l687.5,0l0,-21.2l-687.5,0l0,21.2Z" class="g1_1586" />
<path d="M68.8,1149.3l82.5,0l0,-21.2l-82.5,0l0,21.2Z" class="g1_1586" />
<path d="M68.6,998.8l0.7,0L69.3,147l-0.7,0l0,851.8Z" class="g2_1586" />
<path d="M284.2,999.6l0.7,0l0,-853.3l-0.7,0l0,853.3Z" class="g2_1586" />
<path d="M330.3,999.6l0.7,0l0,-853.3l-0.7,0l0,853.3Z" class="g2_1586" />
<path d="M403.7,999.6l0.7,0l0,-853.3l-0.7,0l0,853.3Z" class="g2_1586" />
<path d="M487.6,999.6l0.7,0l0,-853.3l-0.7,0l0,853.3Z" class="g2_1586" />
<path d="M851.6,998.8l0.7,0l0,-851.8l-0.7,0l0,851.8Z" class="g2_1586" />
<path d="M68.6,147l783.8,0l0,-0.7l-783.8,0l0,0.7Z" class="g2_1586" />
<path d="M68.6,197.4l783.8,0l0,-0.7l-783.8,0l0,0.7Z" class="g2_1586" />
<path d="M68.6,250.9l783.8,0l0,-0.7l-783.8,0l0,0.7Z" class="g2_1586" />
<path d="M68.6,304.4l783.8,0l0,-0.7l-783.8,0l0,0.7Z" class="g2_1586" />
<path d="M68.6,357.9l783.8,0l0,-0.8l-783.8,0l0,0.8Z" class="g2_1586" />
<path d="M68.6,411.4l783.8,0l0,-0.7l-783.8,0l0,0.7Z" class="g2_1586" />
<path d="M68.6,464.8l783.8,0l0,-0.7l-783.8,0l0,0.7Z" class="g2_1586" />
<path d="M68.6,518.3l783.8,0l0,-0.7l-783.8,0l0,0.7Z" class="g2_1586" />
<path d="M68.6,571.8l783.8,0l0,-0.7l-783.8,0l0,0.7Z" class="g2_1586" />
<path d="M68.6,625.3l783.8,0l0,-0.8l-783.8,0l0,0.8Z" class="g2_1586" />
<path d="M68.6,678.7l783.8,0l0,-0.7L68.6,678l0,0.7Z" class="g2_1586" />
<path d="M68.6,732.2l783.8,0l0,-0.7l-783.8,0l0,0.7Z" class="g2_1586" />
<path d="M68.6,785.7l783.8,0l0,-0.8l-783.8,0l0,0.8Z" class="g2_1586" />
<path d="M68.6,839.1l783.8,0l0,-0.7l-783.8,0l0,0.7Z" class="g2_1586" />
<path d="M68.6,892.7l783.8,0l0,-0.8l-783.8,0l0,0.8Z" class="g2_1586" />
<path d="M68.6,946.1l783.8,0l0,-0.7l-783.8,0l0,0.7Z" class="g2_1586" />
<path d="M68.6,999.5l783.8,0l0,-0.7l-783.8,0l0,0.7Z" class="g2_1586" />
</svg>