<?xml version="1.0" encoding="UTF-8" standalone="no"?>
<!DOCTYPE svg PUBLIC "-//W3C//DTD SVG 1.1//EN"
"http://www.w3.org/Graphics/SVG/1.1/DTD/svg11.dtd">
<svg viewBox="0 0 935 1210" version="1.1" xmlns="http://www.w3.org/2000/svg" xmlns:xlink="http://www.w3.org/1999/xlink">
<defs>
<style type="text/css"><![CDATA[
.g1_1728{
fill: #FFFFFF;
}
.g2_1728{
}
]]></style>
</defs>
<path d="M165,1149.3l687.5,0l0,-21.2l-687.5,0l0,21.2Z" class="g1_1728" />
<path d="M68.8,1149.3l82.5,0l0,-21.2l-82.5,0l0,21.2Z" class="g1_1728" />
<path d="M94.5,518l0.7,0l0,-178.5l-0.7,0l0,178.5Z" class="g2_1728" />
<path d="M825.8,518l0.8,0l0,-178.5l-0.8,0l0,178.5Z" class="g2_1728" />
<path d="M94.5,339.5l732.2,0l0,-0.7l-732.2,0l0,0.7Z" class="g2_1728" />
<path d="M94.5,518.7l732.2,0l0,-0.7L94.5,518l0,0.7Z" class="g2_1728" />
<path d="M100.1,790.1l0.7,0l0,-167.4l-0.7,0l0,167.4Z" class="g2_1728" />
<path d="M820.2,790.1l0.8,0l0,-167.4l-0.8,0l0,167.4Z" class="g2_1728" />
<path d="M100.1,622.6l720.9,0l0,-0.7l-720.9,0l0,0.7Z" class="g2_1728" />
<path d="M100.1,790.8l720.9,0l0,-0.7l-720.9,0l0,0.7Z" class="g2_1728" />
<path d="M252.1,497.3l113.5,0l0,-20.6l-113.5,0l0,20.6Z" class="g1_1728" />
<path d="M252.1,477l113.8,0l0,-0.7l-113.8,0l0,0.7Z" class="g2_1728" />
<path d="M365.2,497.7l0.7,0l0,-21l-0.7,0l0,21Z" class="g2_1728" />
<path d="M251.7,497.7l113.9,0l0,-0.8l-113.9,0l0,0.8Z" class="g2_1728" />
<path d="M251.7,497.3l0.7,0l0,-21l-0.7,0l0,21Z" class="g2_1728" />
<path d="M365.6,497.3l113.4,0l0,-20.6l-113.4,0l0,20.6Z" class="g1_1728" />
<path d="M365.6,477l113.7,0l0,-0.7l-113.7,0l0,0.7Z" class="g2_1728" />
<path d="M478.6,497.7l0.7,0l0,-21l-0.7,0l0,21Z" class="g2_1728" />
<path d="M365.2,497.7l113.8,0l0,-0.8l-113.8,0l0,0.8Z" class="g2_1728" />
<path d="M365.2,497.3l0.7,0l0,-21l-0.7,0l0,21Z" class="g2_1728" />
<path d="M479,497.3l113.4,0l0,-20.6l-113.4,0l0,20.6Z" class="g1_1728" />
<path d="M479,477l113.8,0l0,-0.7l-113.8,0l0,0.7Z" class="g2_1728" />
<path d="M592.1,497.7l0.7,0l0,-21l-0.7,0l0,21Z" class="g2_1728" />
<path d="M478.6,497.7l113.8,0l0,-0.8l-113.8,0l0,0.8Z" class="g2_1728" />
<path d="M478.6,497.3l0.7,0l0,-21l-0.7,0l0,21Z" class="g2_1728" />
<path d="M592.4,497.3l113.4,0l0,-20.6l-113.4,0l0,20.6Z" class="g1_1728" />
<path d="M592.4,477l113.8,0l0,-0.7l-113.8,0l0,0.7Z" class="g2_1728" />
<path d="M705.5,497.7l0.7,0l0,-21l-0.7,0l0,21Z" class="g2_1728" />
<path d="M592.1,497.7l113.7,0l0,-0.8l-113.7,0l0,0.8Z" class="g2_1728" />
<path d="M592.1,497.3l0.7,0l0,-21l-0.7,0l0,21Z" class="g2_1728" />
<path d="M252.1,394.2l113.5,0l0,-20.7l-113.5,0l0,20.7Z" class="g1_1728" />
<path d="M252.1,373.9l113.8,0l0,-0.7l-113.8,0l0,0.7Z" class="g2_1728" />
<path d="M365.2,394.5l0.7,0l0,-21l-0.7,0l0,21Z" class="g2_1728" />
<path d="M251.7,394.5l113.9,0l0,-0.7l-113.9,0l0,0.7Z" class="g2_1728" />
<path d="M251.7,394.2l0.7,0l0,-21l-0.7,0l0,21Z" class="g2_1728" />
<path d="M365.6,394.2l113.4,0l0,-20.7l-113.4,0l0,20.7Z" class="g1_1728" />
<path d="M365.6,373.9l113.7,0l0,-0.7l-113.7,0l0,0.7Z" class="g2_1728" />
<path d="M478.6,394.5l0.7,0l0,-21l-0.7,0l0,21Z" class="g2_1728" />
<path d="M365.2,394.5l113.8,0l0,-0.7l-113.8,0l0,0.7Z" class="g2_1728" />
<path d="M365.2,394.2l0.7,0l0,-21l-0.7,0l0,21Z" class="g2_1728" />
<path fill-rule="evenodd" d="M554,455.6l0.6,0.2l0.6,0l0.3,-0.1l0.3,-0.2l0.2,-0.2l0.3,-0.5l0,-0.3l0.1,-0.3l-0.1,-0.3l-0.1,-0.2l-0.1,-0.3l-0.2,-0.2L555.7,453l-0.3,-0.2l-0.3,-0.1l-0.6,0l-0.3,0.1l-0.3,0.2l-0.1,0.2l-0.2,0.3c-0.5,0.6,-0.3,0.8,-0.1,1.4l0.1,0.2l0.2,0.3l0.2,0.2Z" class="g2_1728" />
<path d="M554.9,454.3l5.5,3.5l0.8,0.6l-0.8,0.7L542.8,475l-2,1.8l0.8,-2.6l6.6,-22.9l0.2,-1l0.9,0.5l0.3,0.9L543,474.6l-1.4,-0.4l0.2,-0.4l17.6,-15.9l1,1.2l-0.9,0.1L554,455.7Z" class="g2_1728" />
<path d="M549.3,450.8l5.6,3.5l-0.9,1.4l-5.6,-3.5Z" class="g2_1728" />
<path fill-rule="evenodd" d="M554.5,454.9l5.5,3.5l-17.7,16l6.6,-22.9Z" class="g2_1728" />
<path d="M593.7,395l-2.5,-1.6l-37.6,60.2l2.5,1.5Z" class="g2_1728" />
<path fill-rule="evenodd" d="M412.5,456.8l0.2,-0.2l0.2,-0.3c0.7,-1.5,-0.6,-2.6,-2,-2.2l-0.2,0.2l-0.3,0.2c-1,1.3,-0.1,2.8,1.6,2.6l0.2,-0.1l0.3,-0.2Z" class="g2_1728" />
<path d="M411.6,455.6l5.2,-4l0.9,-0.5L418,452l8.4,22.3l1,2.5l-2.2,-1.7L406.3,460.7l-0.9,-0.6l0.9,-0.6l0.9,0l19,14.4l-1,1.2L425,474.7l-8.5,-22.2L418,452l-0.3,0.8l-5.2,4Z" class="g2_1728" />
<path d="M406.3,459.5l5.3,-3.9l0.9,1.2l-5.3,3.9Z" class="g2_1728" />
<path fill-rule="evenodd" d="M412,456.1l5.3,-3.9l8.4,22.3l-19,-14.4Z" class="g2_1728" />
<path d="M366.8,393.3l-2.4,1.8l46,61.3l2.4,-1.8Z" class="g2_1728" />
<path d="M479,394.2l113.4,0l0,-20.7l-113.4,0l0,20.7Z" class="g1_1728" />
<path d="M479,373.9l113.8,0l0,-0.7l-113.8,0l0,0.7Z" class="g2_1728" />
<path d="M592.1,394.5l0.7,0l0,-21l-0.7,0l0,21Z" class="g2_1728" />
<path d="M478.6,394.5l113.8,0l0,-0.7l-113.8,0l0,0.7Z" class="g2_1728" />
<path d="M478.6,394.2l0.7,0l0,-21l-0.7,0l0,21Z" class="g2_1728" />
<path d="M592.4,394.2l113.4,0l0,-20.7l-113.4,0l0,20.7Z" class="g1_1728" />
<path d="M592.4,373.9l113.8,0l0,-0.7l-113.8,0l0,0.7Z" class="g2_1728" />
<path d="M705.5,394.5l0.7,0l0,-21l-0.7,0l0,21Z" class="g2_1728" />
<path d="M592.1,394.5l113.7,0l0,-0.7l-113.7,0l0,0.7Z" class="g2_1728" />
<path d="M592.1,394.2l0.7,0l0,-21l-0.7,0l0,21Z" class="g2_1728" />
<path fill-rule="evenodd" d="M639.4,456.8l0.2,-0.2l0.1,-0.3c0.8,-1.6,-0.5,-2.6,-2,-2.2l-0.2,0.2l-0.2,0.2c-1,1.3,0,2.8,1.5,2.6l0.3,-0.1l0.3,-0.2Z" class="g2_1728" />
<path d="M638.5,455.6l5.2,-4l0.9,-0.5l0.3,0.9l8.4,22.3l1,2.5l-2.2,-1.7l-19,-14.4l-0.8,-0.6l0.8,-0.6l1,0L653,473.9l-0.9,1.2l-0.3,-0.4l-8.4,-22.2l1.5,-0.5l-0.3,0.8l-5.2,4Z" class="g2_1728" />
<path d="M633.1,459.5l5.4,-3.9l0.9,1.2l-5.3,3.9Z" class="g2_1728" />
<path fill-rule="evenodd" d="M638.9,456.1l5.2,-3.9l8.5,22.3l-19,-14.4Z" class="g2_1728" />
<path d="M593.6,393.3l-2.3,1.8l46,61.3l2.3,-1.8Z" class="g2_1728" />
<path fill-rule="evenodd" d="M327.2,455.6l0.5,0.2l0.7,0l0.2,-0.1l0.2,-0.2l0.3,-0.2l0.2,-0.3l0.2,-0.5l0,-0.6l-0.1,-0.2l-0.2,-0.3L328.8,453l-0.3,-0.2l-0.3,-0.1l-0.6,0l-0.3,0.1l-0.2,0.2l-0.2,0.2l-0.2,0.3c-0.4,0.6,-0.3,0.8,-0.1,1.4l0.1,0.2l0.2,0.3l0.3,0.2Z" class="g2_1728" />
<path d="M327.9,454.3l5.6,3.5l0.8,0.6l-0.7,0.7L315.9,475l-1.9,1.8l0.7,-2.6l6.6,-22.9l0.3,-1l0.8,0.5l0.4,0.9l-6.6,22.9l-1.5,-0.4l0.2,-0.4l17.7,-15.9l1,1.2l-0.9,0.1l-5.6,-3.5Z" class="g2_1728" />
<path d="M322.4,450.8l5.5,3.5l-0.8,1.4l-5.5,-3.5Z" class="g2_1728" />
<path fill-rule="evenodd" d="M327.5,454.9l5.6,3.5l-17.7,16L322,451.5Z" class="g2_1728" />
<path d="M366.8,395l-2.5,-1.6l-37.6,60.2l2.6,1.5Z" class="g2_1728" />
<path d="M686.5,732.2l26.3,0l0,-54.2l-26.3,0l0,54.2Z" class="g1_1728" />
<path d="M686.5,678.8l27.1,0l0,-1.6l-27.1,0l0,1.6Z" class="g2_1728" />
<path d="M712.1,733.1l1.5,0l0,-55.1l-1.5,0l0,55.1Z" class="g2_1728" />
<path d="M685.8,733.1l27,0l0,-1.6l-27,0l0,1.6Z" class="g2_1728" />
<path d="M685.8,732.2l1.5,0l0,-55l-1.5,0l0,55Z" class="g2_1728" />
<path d="M181.1,732.6l109.2,0l0,-55l-109.2,0l0,55Z" class="g1_1728" />
<path d="M181.1,678l109.6,0l0,-0.8l-109.6,0l0,0.8Z" class="g2_1728" />
<path d="M289.9,733l0.8,0l0,-55.4l-0.8,0l0,55.4Z" class="g2_1728" />
<path d="M180.8,733l109.5,0l0,-0.8l-109.5,0l0,0.8Z" class="g2_1728" />
<path d="M180.8,732.6l0.7,0l0,-55.4l-0.7,0l0,55.4Z" class="g2_1728" />
<path d="M713.3,732.6l29,0l0,-55l-29,0l0,55Z" class="g1_1728" />
<path d="M713.3,678.4l29.8,0l0,-1.5l-29.8,0l0,1.5Z" class="g2_1728" />
<path d="M741.6,733.4l1.5,0l0,-55.8l-1.5,0l0,55.8Z" class="g2_1728" />
<path d="M712.5,733.4l29.8,0l0,-1.5l-29.8,0l0,1.5Z" class="g2_1728" />
<path d="M712.5,732.6l1.6,0l0,-55.7l-1.6,0l0,55.7Z" class="g2_1728" />
<path d="M519.9,732.2l26.3,0l0,-54.2l-26.3,0l0,54.2Z" class="g1_1728" />
<path d="M519.9,678.8l27.2,0l0,-1.6l-27.2,0l0,1.6Z" class="g2_1728" />
<path d="M545.5,733.1l1.6,0l0,-55.1l-1.6,0l0,55.1Z" class="g2_1728" />
<path d="M519.2,733.1l27,0l0,-1.6l-27,0l0,1.6Z" class="g2_1728" />
<path d="M519.2,732.2l1.6,0l0,-55l-1.6,0l0,55Z" class="g2_1728" />
<path d="M546.7,732.6l29.1,0l0,-55l-29.1,0l0,55Z" class="g1_1728" />
<path d="M546.7,678.4l29.9,0l0,-1.5l-29.9,0l0,1.5Z" class="g2_1728" />
<path d="M575,733.4l1.6,0l0,-55.8l-1.6,0l0,55.8Z" class="g2_1728" />
<path d="M546,733.4l29.8,0l0,-1.5l-29.8,0l0,1.5Z" class="g2_1728" />
<path d="M546,732.6l1.5,0l0,-55.7l-1.5,0l0,55.7Z" class="g2_1728" />
<path d="M292.3,732.2l26.3,0l0,-54.2l-26.3,0l0,54.2Z" class="g1_1728" />
<path d="M292.3,678.8l27.2,0l0,-1.6l-27.2,0l0,1.6Z" class="g2_1728" />
<path d="M317.9,733.1l1.6,0l0,-55.1l-1.6,0l0,55.1Z" class="g2_1728" />
<path d="M291.6,733.1l27,0l0,-1.6l-27,0l0,1.6Z" class="g2_1728" />
<path d="M291.6,732.2l1.6,0l0,-55l-1.6,0l0,55Z" class="g2_1728" />
<path d="M319.1,732.6l29,0l0,-55l-29,0l0,55Z" class="g1_1728" />
<path d="M319.1,678.4l29.8,0l0,-1.5l-29.8,0l0,1.5Z" class="g2_1728" />
<path d="M347.3,733.4l1.6,0l0,-55.8l-1.6,0l0,55.8Z" class="g2_1728" />
<path d="M318.4,733.4l29.7,0l0,-1.5l-29.7,0l0,1.5Z" class="g2_1728" />
<path d="M318.4,732.6l1.5,0l0,-55.7l-1.5,0l0,55.7Z" class="g2_1728" />
<path d="M409.5,731.8l109.2,0l0,-55l-109.2,0l0,55Z" class="g1_1728" />
<path d="M409.5,677.1l109.6,0l0,-0.7l-109.6,0l0,0.7Z" class="g2_1728" />
<path d="M518.4,732.1l0.7,0l0,-55.3l-0.7,0l0,55.3Z" class="g2_1728" />
<path d="M409.1,732.1l109.6,0l0,-0.7l-109.6,0l0,0.7Z" class="g2_1728" />
<path d="M409.1,731.8l0.7,0l0,-55.4l-0.7,0l0,55.4Z" class="g2_1728" />
<path d="M575.3,677.6l109.3,0l0,55l-109.3,0Z" class="g1_1728" />
<path d="M575.3,678l109.6,0l0,-0.8l-109.6,0l0,0.8Z" class="g2_1728" />
<path d="M684.2,733l0.7,0l0,-55.4l-0.7,0l0,55.4Z" class="g2_1728" />
<path d="M574.9,733l109.7,0l0,-0.8l-109.7,0l0,0.8Z" class="g2_1728" />
<path d="M574.9,732.6l0.8,0l0,-55.4l-0.8,0l0,55.4Z" class="g2_1728" />
</svg>