<?xml version="1.0" encoding="UTF-8" standalone="no"?>
<!DOCTYPE svg PUBLIC "-//W3C//DTD SVG 1.1//EN"
"http://www.w3.org/Graphics/SVG/1.1/DTD/svg11.dtd">
<svg viewBox="0 0 935 1210" version="1.1" xmlns="http://www.w3.org/2000/svg" xmlns:xlink="http://www.w3.org/1999/xlink">
<defs>
<style type="text/css"><![CDATA[
.g1_890{
fill: #FFFFFF;
}
.g2_890{
}
]]></style>
</defs>
<path d="M165,1149.3l687.5,0l0,-21.2l-687.5,0l0,21.2Z" class="g1_890" />
<path d="M68.8,1149.3l82.5,0l0,-21.2l-82.5,0l0,21.2Z" class="g1_890" />
<path d="M69.6,348l0.7,0l0,-222.3l-0.7,0l0,222.3Z" class="g2_890" />
<path d="M391.1,348.7l0.8,0l0,-223.8l-0.8,0l0,223.8Z" class="g2_890" />
<path d="M433.5,348.7l0.7,0l0,-223.8l-0.7,0l0,223.8Z" class="g2_890" />
<path d="M506.9,348.7l0.7,0l0,-223.8l-0.7,0l0,223.8Z" class="g2_890" />
<path d="M578.3,348.7l0.8,0l0,-223.8l-0.8,0l0,223.8Z" class="g2_890" />
<path d="M850.8,348l0.8,0l0,-222.3l-0.8,0l0,222.3Z" class="g2_890" />
<path d="M69.5,125.7l782.1,0l0,-0.8l-782.1,0l0,0.8Z" class="g2_890" />
<path d="M69.5,179.1l782.1,0l0,-0.7l-782.1,0l0,0.7Z" class="g2_890" />
<path d="M69.5,235.7l782.1,0l0,-0.8l-782.1,0l0,0.8Z" class="g2_890" />
<path d="M69.5,292.1l782.1,0l0,-0.7l-782.1,0l0,0.7Z" class="g2_890" />
<path d="M69.5,348.7l782.1,0l0,-0.7L69.5,348l0,0.7Z" class="g2_890" />
<path d="M69.7,476.3l0.7,0l0,-72.6l-0.7,0l0,72.6Z" class="g2_890" />
<path d="M137.3,477l0.8,0l0,-74l-0.8,0l0,74Z" class="g2_890" />
<path d="M316.7,477l0.7,0l0,-74l-0.7,0l0,74Z" class="g2_890" />
<path d="M493.4,477l0.8,0l0,-74l-0.8,0l0,74Z" class="g2_890" />
<path d="M667.1,477l0.7,0l0,-74l-0.7,0l0,74Z" class="g2_890" />
<path d="M850.8,476.3l0.7,0l0,-72.6l-0.7,0l0,72.6Z" class="g2_890" />
<path d="M69.7,403.7l781.8,0l0,-0.7L69.7,403l0,0.7Z" class="g2_890" />
<path d="M69.7,428.2l781.8,0l0,-0.8l-781.8,0l0,0.8Z" class="g2_890" />
<path d="M69.7,452.7l781.8,0l0,-0.8l-781.8,0l0,0.8Z" class="g2_890" />
<path d="M69.7,477l781.8,0l0,-0.7l-781.8,0l0,0.7Z" class="g2_890" />
</svg>