<?xml version="1.0" encoding="UTF-8" standalone="no"?>
<!DOCTYPE svg PUBLIC "-//W3C//DTD SVG 1.1//EN"
"http://www.w3.org/Graphics/SVG/1.1/DTD/svg11.dtd">
<svg viewBox="0 0 935 1210" version="1.1" xmlns="http://www.w3.org/2000/svg" xmlns:xlink="http://www.w3.org/1999/xlink">
<defs>
<style type="text/css"><![CDATA[
.g1_1462{
fill: #FFFFFF;
}
.g2_1462{
}
]]></style>
</defs>
<path d="M165,1149.3l687.5,0l0,-21.2l-687.5,0l0,21.2Z" class="g1_1462" />
<path d="M68.8,1149.3l82.5,0l0,-21.2l-82.5,0l0,21.2Z" class="g1_1462" />
<path d="M68.6,571l0.7,0l0,-424l-0.7,0l0,424Z" class="g2_1462" />
<path d="M333.2,571.8l0.7,0l0,-425.5l-0.7,0l0,425.5Z" class="g2_1462" />
<path d="M376.8,571.8l0.7,0l0,-425.5l-0.7,0l0,425.5Z" class="g2_1462" />
<path d="M451.3,571.8l0.7,0l0,-425.5l-0.7,0l0,425.5Z" class="g2_1462" />
<path d="M538.2,571.8l0.7,0l0,-425.5l-0.7,0l0,425.5Z" class="g2_1462" />
<path d="M850,571l0.8,0l0,-424l-0.8,0l0,424Z" class="g2_1462" />
<path d="M68.6,147l782.2,0l0,-0.7l-782.2,0l0,0.7Z" class="g2_1462" />
<path d="M68.6,197.4l782.2,0l0,-0.7l-782.2,0l0,0.7Z" class="g2_1462" />
<path d="M68.6,250.9l782.2,0l0,-0.7l-782.2,0l0,0.7Z" class="g2_1462" />
<path d="M68.6,304.4l782.2,0l0,-0.7l-782.2,0l0,0.7Z" class="g2_1462" />
<path d="M68.6,357.9l782.2,0l0,-0.8l-782.2,0l0,0.8Z" class="g2_1462" />
<path d="M68.6,411.4l782.2,0l0,-0.7l-782.2,0l0,0.7Z" class="g2_1462" />
<path d="M68.6,464.8l782.2,0l0,-0.7l-782.2,0l0,0.7Z" class="g2_1462" />
<path d="M68.6,518.3l782.2,0l0,-0.7l-782.2,0l0,0.7Z" class="g2_1462" />
<path d="M68.6,571.8l782.2,0l0,-0.7l-782.2,0l0,0.7Z" class="g2_1462" />
<path d="M70.4,699.3l0.7,0l0,-72.5l-0.7,0l0,72.5Z" class="g2_1462" />
<path d="M205.3,700.2l0.8,0l0,-74.2l-0.8,0l0,74.2Z" class="g2_1462" />
<path d="M366.1,700.2l0.7,0l0,-74.2l-0.7,0l0,74.2Z" class="g2_1462" />
<path d="M526,700.2l0.7,0l0,-74.2l-0.7,0l0,74.2Z" class="g2_1462" />
<path d="M693.6,700.2l0.8,0l0,-74.2l-0.8,0l0,74.2Z" class="g2_1462" />
<path d="M849.9,699.3l0.8,0l0,-72.5l-0.8,0l0,72.5Z" class="g2_1462" />
<path d="M70.4,626.8l780.4,0l0,-0.7l-780.4,0l0,0.7Z" class="g2_1462" />
<path d="M70.4,651.2l780.4,0l0,-0.7l-780.4,0l0,0.7Z" class="g2_1462" />
<path d="M70.4,675.7l780.4,0l0,-0.8l-780.4,0l0,0.8Z" class="g2_1462" />
<path d="M70.4,700.2l780.4,0l0,-0.8l-780.4,0l0,0.8Z" class="g2_1462" />
</svg>