<?xml version="1.0" encoding="UTF-8" standalone="no"?>
<!DOCTYPE svg PUBLIC "-//W3C//DTD SVG 1.1//EN"
"http://www.w3.org/Graphics/SVG/1.1/DTD/svg11.dtd">
<svg viewBox="0 0 935 1210" version="1.1" xmlns="http://www.w3.org/2000/svg" xmlns:xlink="http://www.w3.org/1999/xlink">
<defs>
<style type="text/css"><![CDATA[
.g1_1079{
fill: #FFFFFF;
}
.g2_1079{
}
]]></style>
</defs>
<path d="M68.9,1149.3l686.3,0l0,-21.2l-686.3,0l0,21.2Z" class="g1_1079" />
<path d="M771.3,1149.3l83.7,0l0,-21.2l-83.7,0l0,21.2Z" class="g1_1079" />
<path d="M72.1,940.8l0.7,0l0,-809l-0.7,0l0,809Z" class="g2_1079" />
<path d="M391.3,863.6l0.8,0l0,-732.6l-0.8,0l0,732.6Z" class="g2_1079" />
<path d="M429.2,863.6l0.7,0l0,-732.6l-0.7,0l0,732.6Z" class="g2_1079" />
<path d="M502.5,863.6l0.7,0l0,-732.6l-0.7,0l0,732.6Z" class="g2_1079" />
<path d="M573.9,863.6l0.8,0l0,-732.6l-0.8,0l0,732.6Z" class="g2_1079" />
<path d="M849.9,940.8l0.8,0l0,-809l-0.8,0l0,809Z" class="g2_1079" />
<path d="M72.1,131.7l778.6,0l0,-0.7L72.1,131l0,0.7Z" class="g2_1079" />
<path d="M72.1,185.3l778.6,0l0,-0.8l-778.6,0l0,0.8Z" class="g2_1079" />
<path d="M72.1,241.7l778.6,0l0,-0.7L72.1,241l0,0.7Z" class="g2_1079" />
<path d="M72.1,298.3l778.6,0l0,-0.7l-778.6,0l0,0.7Z" class="g2_1079" />
<path d="M72.1,354.8l778.6,0l0,-0.7l-778.6,0l0,0.7Z" class="g2_1079" />
<path d="M72.1,411.4l778.6,0l0,-0.7l-778.6,0l0,0.7Z" class="g2_1079" />
<path d="M72.1,467.9l778.6,0l0,-0.8l-778.6,0l0,0.8Z" class="g2_1079" />
<path d="M72.1,524.4l778.6,0l0,-0.7l-778.6,0l0,0.7Z" class="g2_1079" />
<path d="M72.1,581l778.6,0l0,-0.8l-778.6,0l0,0.8Z" class="g2_1079" />
<path d="M72.1,637.4l778.6,0l0,-0.7l-778.6,0l0,0.7Z" class="g2_1079" />
<path d="M72.1,694l778.6,0l0,-0.7l-778.6,0l0,0.7Z" class="g2_1079" />
<path d="M72.1,750.6l778.6,0l0,-0.8l-778.6,0l0,0.8Z" class="g2_1079" />
<path d="M72.1,807l778.6,0l0,-0.7l-778.6,0l0,0.7Z" class="g2_1079" />
<path d="M72.1,863.6l778.6,0l0,-0.7l-778.6,0l0,0.7Z" class="g2_1079" />
<path d="M72.1,941.5l778.6,0l0,-0.7l-778.6,0l0,0.7Z" class="g2_1079" />
<path d="M70.5,1066.1l0.7,0l0,-72.6l-0.7,0l0,72.6Z" class="g2_1079" />
<path d="M135.6,1066.8l0.7,0l0,-74l-0.7,0l0,74Z" class="g2_1079" />
<path d="M309.3,1066.8l0.7,0l0,-74l-0.7,0l0,74Z" class="g2_1079" />
<path d="M488.7,1066.8l0.7,0l0,-74l-0.7,0l0,74Z" class="g2_1079" />
<path d="M665,1066.8l0.8,0l0,-74l-0.8,0l0,74Z" class="g2_1079" />
<path d="M851.5,1066.1l0.7,0l0,-72.6l-0.7,0l0,72.6Z" class="g2_1079" />
<path d="M70.5,993.5l781.8,0l0,-0.7l-781.8,0l0,0.7Z" class="g2_1079" />
<path d="M70.5,1017.9l781.8,0l0,-0.8l-781.8,0l0,0.8Z" class="g2_1079" />
<path d="M70.5,1042.3l781.8,0l0,-0.7l-781.8,0l0,0.7Z" class="g2_1079" />
<path d="M70.5,1066.8l781.8,0l0,-0.7l-781.8,0l0,0.7Z" class="g2_1079" />
</svg>