<?xml version="1.0" encoding="UTF-8" standalone="no"?>
<!DOCTYPE svg PUBLIC "-//W3C//DTD SVG 1.1//EN"
"http://www.w3.org/Graphics/SVG/1.1/DTD/svg11.dtd">
<svg viewBox="0 0 935 1210" version="1.1" xmlns="http://www.w3.org/2000/svg" xmlns:xlink="http://www.w3.org/1999/xlink">
<defs>
<style type="text/css"><![CDATA[
.g1_1762{
fill: #FFFFFF;
}
.g2_1762{
}
]]></style>
</defs>
<path d="M165,1149.3l687.5,0l0,-21.2l-687.5,0l0,21.2Z" class="g1_1762" />
<path d="M68.8,1149.3l82.5,0l0,-21.2l-82.5,0l0,21.2Z" class="g1_1762" />
<path d="M68.6,757.4l0.7,0l0,-631.7l-0.7,0l0,631.7Z" class="g2_1762" />
<path d="M320.4,758.2l0.7,0l0,-633.3l-0.7,0l0,633.3Z" class="g2_1762" />
<path d="M370.6,758.2l0.7,0l0,-633.3l-0.7,0l0,633.3Z" class="g2_1762" />
<path d="M443.9,758.2l0.8,0l0,-633.3l-0.8,0l0,633.3Z" class="g2_1762" />
<path d="M529.1,758.2l0.7,0l0,-633.3l-0.7,0l0,633.3Z" class="g2_1762" />
<path d="M855,757.4l0.7,0l0,-631.7l-0.7,0l0,631.7Z" class="g2_1762" />
<path d="M68.6,125.7l787.1,0l0,-0.8l-787.1,0l0,0.8Z" class="g2_1762" />
<path d="M68.6,176.1l787.1,0l0,-0.7l-787.1,0l0,0.7Z" class="g2_1762" />
<path d="M68.6,229.5l787.1,0l0,-0.7l-787.1,0l0,0.7Z" class="g2_1762" />
<path d="M68.6,299.8l787.1,0l0,-0.7l-787.1,0l0,0.7Z" class="g2_1762" />
<path d="M68.6,370.1l787.1,0l0,-0.8l-787.1,0l0,0.8Z" class="g2_1762" />
<path d="M68.6,423.6l787.1,0l0,-0.7l-787.1,0l0,0.7Z" class="g2_1762" />
<path d="M68.6,493.9l787.1,0l0,-0.7l-787.1,0l0,0.7Z" class="g2_1762" />
<path d="M68.6,564.1l787.1,0l0,-0.7l-787.1,0l0,0.7Z" class="g2_1762" />
<path d="M68.6,617.7l787.1,0l0,-0.8l-787.1,0l0,0.8Z" class="g2_1762" />
<path d="M68.6,687.9l787.1,0l0,-0.8l-787.1,0l0,0.8Z" class="g2_1762" />
<path d="M68.6,758.2l787.1,0l0,-0.8l-787.1,0l0,0.8Z" class="g2_1762" />
<path d="M70.1,861.3l0.8,0l0,-48.1l-0.8,0l0,48.1Z" class="g2_1762" />
<path d="M188.8,862.1l0.8,0l0,-49.7l-0.8,0l0,49.7Z" class="g2_1762" />
<path d="M343.4,862.1l0.7,0l0,-49.7l-0.7,0l0,49.7Z" class="g2_1762" />
<path d="M515.4,862.1l0.7,0l0,-49.7l-0.7,0l0,49.7Z" class="g2_1762" />
<path d="M684.8,862.1l0.7,0l0,-49.7l-0.7,0l0,49.7Z" class="g2_1762" />
<path d="M850.3,861.3l0.7,0l0,-48.1l-0.7,0l0,48.1Z" class="g2_1762" />
<path d="M70.1,813.2l780.9,0l0,-0.8l-780.9,0l0,0.8Z" class="g2_1762" />
<path d="M70.1,837.7l780.9,0l0,-0.8l-780.9,0l0,0.8Z" class="g2_1762" />
<path d="M70.1,862L851,862l0,-0.7l-780.9,0l0,0.7Z" class="g2_1762" />
</svg>