<?xml version="1.0" encoding="UTF-8" standalone="no"?>
<!DOCTYPE svg PUBLIC "-//W3C//DTD SVG 1.1//EN"
"http://www.w3.org/Graphics/SVG/1.1/DTD/svg11.dtd">
<svg viewBox="0 0 935 1210" version="1.1" xmlns="http://www.w3.org/2000/svg" xmlns:xlink="http://www.w3.org/1999/xlink">
<defs>
<style type="text/css"><![CDATA[
.g1_1437{
fill: #FFFFFF;
}
.g2_1437{
}
]]></style>
</defs>
<path d="M68.9,1149.3l686.3,0l0,-21.2l-686.3,0l0,21.2Z" class="g1_1437" />
<path d="M771.3,1149.3l83.7,0l0,-21.2l-83.7,0l0,21.2Z" class="g1_1437" />
<path d="M70.3,295.4l784.3,0l0,-29.6l-784.3,0l0,29.6Z" class="g1_1437" />
<path d="M71.2,288.8l53.6,0l0,-12.4l-53.6,0l0,12.4Z" class="g1_1437" />
<path d="M69.9,265.5l0.8,0l0,-139.8l-0.8,0l0,139.8Z" class="g2_1437" />
<path d="M327.5,266.2l0.8,0l0,-141.3l-0.8,0l0,141.3Z" class="g2_1437" />
<path d="M371.1,266.2l0.7,0l0,-141.3l-0.7,0l0,141.3Z" class="g2_1437" />
<path d="M445.5,266.2l0.7,0l0,-141.3l-0.7,0l0,141.3Z" class="g2_1437" />
<path d="M526.3,266.2l0.8,0l0,-141.3l-0.8,0l0,141.3Z" class="g2_1437" />
<path d="M854.2,265.5l0.8,0l0,-139.8l-0.8,0l0,139.8Z" class="g2_1437" />
<path d="M69.9,125.7l785.1,0l0,-0.8l-785.1,0l0,0.8Z" class="g2_1437" />
<path d="M69.9,176.1l785.1,0l0,-0.7l-785.1,0l0,0.7Z" class="g2_1437" />
<path d="M69.9,229.5l785.1,0l0,-0.7l-785.1,0l0,0.7Z" class="g2_1437" />
<path d="M69.9,266.2l785.1,0l0,-0.7l-785.1,0l0,0.7Z" class="g2_1437" />
<path d="M73.1,435.6l0.7,0l0,-48.1l-0.7,0l0,48.1Z" class="g2_1437" />
<path d="M848.9,435.6l0.8,0l0,-48.1l-0.8,0l0,48.1Z" class="g2_1437" />
<path d="M73.1,387.5l776.7,0l0,-0.8l-776.7,0l0,0.8Z" class="g2_1437" />
<path d="M73.1,436.3l776.7,0l0,-0.7l-776.7,0l0,0.7Z" class="g2_1437" />
</svg>