<?xml version="1.0" encoding="UTF-8" standalone="no"?>
<!DOCTYPE svg PUBLIC "-//W3C//DTD SVG 1.1//EN"
"http://www.w3.org/Graphics/SVG/1.1/DTD/svg11.dtd">
<svg viewBox="0 0 935 1210" version="1.1" xmlns="http://www.w3.org/2000/svg" xmlns:xlink="http://www.w3.org/1999/xlink">
<defs>
<style type="text/css"><![CDATA[
.g1_529{
fill: #FFFFFF;
}
.g2_529{
}
.g3_529{
fill: none;
stroke: #000000;
stroke-width: 1.0801389;
stroke-linecap: butt;
stroke-linejoin: miter;
stroke-miterlimit: 3;
}
.g4_529{
fill: none;
stroke: #000000;
stroke-width: 0.36055556;
stroke-linecap: butt;
stroke-linejoin: miter;
stroke-miterlimit: 3;
}
.g5_529{
fill: #CECECE;
}
]]></style>
</defs>
<path d="M68.9,1149.3l686.3,0l0,-21.2l-686.3,0l0,21.2Z" class="g1_529" />
<path d="M771.3,1149.3l83.7,0l0,-21.2l-83.7,0l0,21.2Z" class="g1_529" />
<path d="M70.9,348l0.7,0l0,-222.3l-0.7,0l0,222.3Z" class="g2_529" />
<path d="M391.3,348.7l0.8,0l0,-223.8l-0.8,0l0,223.8Z" class="g2_529" />
<path d="M429.2,348.7l0.7,0l0,-223.8l-0.7,0l0,223.8Z" class="g2_529" />
<path d="M502.5,348.7l0.7,0l0,-223.8l-0.7,0l0,223.8Z" class="g2_529" />
<path d="M573.9,348.7l0.8,0l0,-223.8l-0.8,0l0,223.8Z" class="g2_529" />
<path d="M851.1,348l0.8,0l0,-222.3l-0.8,0l0,222.3Z" class="g2_529" />
<path d="M70.9,125.7l781,0l0,-0.8l-781,0l0,0.8Z" class="g2_529" />
<path d="M70.9,179.1l781,0l0,-0.7l-781,0l0,0.7Z" class="g2_529" />
<path d="M70.9,235.7l781,0l0,-0.8l-781,0l0,0.8Z" class="g2_529" />
<path d="M70.9,292.1l781,0l0,-0.7l-781,0l0,0.7Z" class="g2_529" />
<path d="M70.9,348.7l781,0l0,-0.7l-781,0l0,0.7Z" class="g2_529" />
<path d="M69.9,476.3l0.7,0l0,-72.6l-0.7,0l0,72.6Z" class="g2_529" />
<path d="M137.2,477l0.8,0l0,-74l-0.8,0l0,74Z" class="g2_529" />
<path d="M304.4,477l0.8,0l0,-74l-0.8,0l0,74Z" class="g2_529" />
<path d="M483.3,477l0.7,0l0,-74l-0.7,0l0,74Z" class="g2_529" />
<path d="M661.5,477l0.7,0l0,-74l-0.7,0l0,74Z" class="g2_529" />
<path d="M852.1,476.3l0.8,0l0,-72.6l-0.8,0l0,72.6Z" class="g2_529" />
<path d="M69.9,403.7l783,0l0,-0.7l-783,0l0,0.7Z" class="g2_529" />
<path d="M69.9,428.2l783,0l0,-0.8l-783,0l0,0.8Z" class="g2_529" />
<path d="M69.9,452.7l783,0l0,-0.8l-783,0l0,0.8Z" class="g2_529" />
<path d="M69.9,477l783,0l0,-0.7l-783,0l0,0.7Z" class="g2_529" />
<path d="M203,1009.8l516.9,0l0,-319.6l-516.9,0l0,319.6Z" class="g1_529" />
<path d="M204.1,968.2l506.5,0l0,-276.9l-506.5,0l0,276.9Z" class="g1_529" />
<path d="M204.1,691.3l506.5,0l0,276.9l-506.5,0l0,-276.9Z" class="g3_529" />
<path d="M447.2,770.6l202.7,0l0,-40.5l-202.7,0l0,40.5Z" class="g1_529" />
<path d="M447.2,730.1l202.7,0l0,40.5l-202.7,0l0,-40.5Z" class="g4_529" />
<path d="M244.6,770.6l202.6,0l0,-40.5l-202.6,0l0,40.5Z" class="g1_529" />
<path d="M244.6,730.1l202.6,0l0,40.5l-202.6,0l0,-40.5Z" class="g4_529" />
<path d="M447.2,843.2l202.7,0l0,-40.5l-202.7,0l0,40.5Z" class="g1_529" />
<path d="M447.2,802.7l202.7,0l0,40.5l-202.7,0l0,-40.5Z" class="g4_529" />
<path d="M244.6,843.2l202.6,0l0,-40.5l-202.6,0l0,40.5Z" class="g1_529" />
<path d="M244.6,802.7l202.6,0l0,40.5l-202.6,0l0,-40.5Z" class="g4_529" />
<path d="M345.9,882.8l0,-9.2l-121.6,0l0,-86.9l324.2,0l0,-16.1" class="g4_529" />
<path fill-rule="evenodd" d="M350.1,882.2l-4.2,8.3l-4.1,-8.3l8.3,0Z" class="g2_529" />
<path d="M244.6,931.1l202.6,0l0,-40.6l-202.6,0l0,40.6Z" class="g5_529" />
<path d="M244.6,890.5l202.6,0l0,40.6l-202.6,0l0,-40.6Z" class="g4_529" />
<path d="M447.2,931.1l202.7,0l0,-40.6l-202.7,0l0,40.6Z" class="g5_529" />
<path d="M447.2,890.5l202.7,0l0,40.6l-202.7,0l0,-40.6Z" class="g4_529" />
<path d="M548.5,882.8l0,-22.7l-202.6,0l0,-16.9" class="g4_529" />
<path fill-rule="evenodd" d="M552.7,882.2l-4.2,8.3l-4.1,-8.3l8.3,0Z" class="g2_529" />
<path d="M345.9,770.6l0,16.1" class="g4_529" />
<path d="M548.5,843.2l0,16.9" class="g4_529" />
</svg>