<?xml version="1.0" encoding="UTF-8" standalone="no"?>
<!DOCTYPE svg PUBLIC "-//W3C//DTD SVG 1.1//EN"
"http://www.w3.org/Graphics/SVG/1.1/DTD/svg11.dtd">
<svg viewBox="0 0 935 1210" version="1.1" xmlns="http://www.w3.org/2000/svg" xmlns:xlink="http://www.w3.org/1999/xlink">
<defs>
<style type="text/css"><![CDATA[
.g1_311{
fill: #FFFFFF;
}
.g2_311{
}
]]></style>
</defs>
<path d="M68.9,1149.3l686.3,0l0,-21.2l-686.3,0l0,21.2Z" class="g1_311" />
<path d="M771.3,1149.3l83.7,0l0,-21.2l-83.7,0l0,21.2Z" class="g1_311" />
<path d="M69.9,1098.2l0.7,0l0,-974.1l-0.7,0l0,974.1Z" class="g2_311" />
<path d="M119.9,1098.9l0.7,0l0,-975.5l-0.7,0l0,975.5Z" class="g2_311" />
<path d="M196.6,1098.9l0.8,0l0,-975.5l-0.8,0l0,975.5Z" class="g2_311" />
<path d="M852.1,1098.2l0.8,0l0,-974.1l-0.8,0l0,974.1Z" class="g2_311" />
<path d="M69.9,124.1l783.1,0l0,-0.7l-783.1,0l0,0.7Z" class="g2_311" />
<path d="M69.9,148.6l783.1,0l0,-0.7l-783.1,0l0,0.7Z" class="g2_311" />
<path d="M69.9,173L853,173l0,-0.8l-783.1,0l0,0.8Z" class="g2_311" />
<path d="M69.9,231.1l783.1,0l0,-0.7l-783.1,0l0,0.7Z" class="g2_311" />
<path d="M69.9,272.3l783.1,0l0,-0.7l-783.1,0l0,0.7Z" class="g2_311" />
<path d="M69.9,330.4l783.1,0l0,-0.8l-783.1,0l0,0.8Z" class="g2_311" />
<path d="M69.9,354.8l783.1,0l0,-0.7l-783.1,0l0,0.7Z" class="g2_311" />
<path d="M69.9,396.1l783.1,0l0,-0.7l-783.1,0l0,0.7Z" class="g2_311" />
<path d="M69.9,454.1l783.1,0l0,-0.7l-783.1,0l0,0.7Z" class="g2_311" />
<path d="M69.9,529L853,529l0,-0.7l-783.1,0l0,0.7Z" class="g2_311" />
<path d="M69.9,570.3l783.1,0l0,-0.8l-783.1,0l0,0.8Z" class="g2_311" />
<path d="M69.9,628.3l783.1,0l0,-0.7l-783.1,0l0,0.7Z" class="g2_311" />
<path d="M69.9,652.8l783.1,0l0,-0.8L69.9,652l0,0.8Z" class="g2_311" />
<path d="M69.9,677.2l783.1,0l0,-0.7l-783.1,0l0,0.7Z" class="g2_311" />
<path d="M69.9,735.3l783.1,0l0,-0.8l-783.1,0l0,0.8Z" class="g2_311" />
<path d="M69.9,776.5l783.1,0l0,-0.7l-783.1,0l0,0.7Z" class="g2_311" />
<path d="M69.9,834.5l783.1,0l0,-0.7l-783.1,0l0,0.7Z" class="g2_311" />
<path d="M69.9,875.8l783.1,0l0,-0.7l-783.1,0l0,0.7Z" class="g2_311" />
<path d="M69.9,933.9l783.1,0l0,-0.7l-783.1,0l0,0.7Z" class="g2_311" />
<path d="M69.9,1008.7l783.1,0l0,-0.7l-783.1,0l0,0.7Z" class="g2_311" />
<path d="M69.9,1050l783.1,0l0,-0.8l-783.1,0l0,0.8Z" class="g2_311" />
<path d="M69.9,1074.4l783.1,0l0,-0.7l-783.1,0l0,0.7Z" class="g2_311" />
<path d="M69.9,1098.9l783.1,0l0,-0.7l-783.1,0l0,0.7Z" class="g2_311" />
</svg>