<?xml version="1.0" encoding="UTF-8" standalone="no"?>
<!DOCTYPE svg PUBLIC "-//W3C//DTD SVG 1.1//EN"
"http://www.w3.org/Graphics/SVG/1.1/DTD/svg11.dtd">
<svg viewBox="0 0 935 1210" version="1.1" xmlns="http://www.w3.org/2000/svg" xmlns:xlink="http://www.w3.org/1999/xlink">
<defs>
<style type="text/css"><![CDATA[
.g1_1234{
fill: #FFFFFF;
}
.g2_1234{
}
]]></style>
</defs>
<path d="M165,1149.3l687.5,0l0,-21.2l-687.5,0l0,21.2Z" class="g1_1234" />
<path d="M68.8,1149.3l82.5,0l0,-21.2l-82.5,0l0,21.2Z" class="g1_1234" />
<path d="M71.9,1085.9l0.7,0l0,-954.1l-0.7,0l0,954.1Z" class="g2_1234" />
<path d="M220.9,1086.7l0.8,0l0,-955.7l-0.8,0l0,955.7Z" class="g2_1234" />
<path d="M390,1086.7l0.7,0l0,-955.7l-0.7,0l0,955.7Z" class="g2_1234" />
<path d="M427.8,1086.7l0.7,0l0,-955.7l-0.7,0l0,955.7Z" class="g2_1234" />
<path d="M501.1,1086.7l0.8,0l0,-955.7l-0.8,0l0,955.7Z" class="g2_1234" />
<path d="M572.6,1086.7l0.7,0l0,-955.7l-0.7,0l0,955.7Z" class="g2_1234" />
<path d="M848.6,1085.9l0.7,0l0,-954.1l-0.7,0l0,954.1Z" class="g2_1234" />
<path d="M71.8,131.7l777.5,0l0,-0.7L71.8,131l0,0.7Z" class="g2_1234" />
<path d="M71.8,169.9l777.5,0l0,-0.7l-777.5,0l0,0.7Z" class="g2_1234" />
<path d="M71.8,192.9l777.5,0l0,-0.8l-777.5,0l0,0.8Z" class="g2_1234" />
<path d="M71.8,215.8l777.5,0l0,-0.8L71.8,215l0,0.8Z" class="g2_1234" />
<path d="M71.8,238.7l777.5,0l0,-0.7L71.8,238l0,0.7Z" class="g2_1234" />
<path d="M71.8,261.6l777.5,0l0,-0.7l-777.5,0l0,0.7Z" class="g2_1234" />
<path d="M71.8,284.5l777.5,0l0,-0.7l-777.5,0l0,0.7Z" class="g2_1234" />
<path d="M71.8,307.4l777.5,0l0,-0.7l-777.5,0l0,0.7Z" class="g2_1234" />
<path d="M71.8,330.4l777.5,0l0,-0.8l-777.5,0l0,0.8Z" class="g2_1234" />
<path d="M71.8,353.3l777.5,0l0,-0.7l-777.5,0l0,0.7Z" class="g2_1234" />
<path d="M71.8,376.2l777.5,0l0,-0.7l-777.5,0l0,0.7Z" class="g2_1234" />
<path d="M71.8,399.1l777.5,0l0,-0.7l-777.5,0l0,0.7Z" class="g2_1234" />
<path d="M71.8,422l777.5,0l0,-0.7l-777.5,0l0,0.7Z" class="g2_1234" />
<path d="M71.8,444.9l777.5,0l0,-0.7l-777.5,0l0,0.7Z" class="g2_1234" />
<path d="M71.8,467.9l777.5,0l0,-0.8l-777.5,0l0,0.8Z" class="g2_1234" />
<path d="M71.8,490.8l777.5,0l0,-0.8L71.8,490l0,0.8Z" class="g2_1234" />
<path d="M71.8,513.7l777.5,0l0,-0.7L71.8,513l0,0.7Z" class="g2_1234" />
<path d="M71.8,536.6l777.5,0l0,-0.7l-777.5,0l0,0.7Z" class="g2_1234" />
<path d="M71.8,559.5l777.5,0l0,-0.7l-777.5,0l0,0.7Z" class="g2_1234" />
<path d="M71.8,582.4l777.5,0l0,-0.7l-777.5,0l0,0.7Z" class="g2_1234" />
<path d="M71.8,605.4l777.5,0l0,-0.8l-777.5,0l0,0.8Z" class="g2_1234" />
<path d="M71.8,628.3l777.5,0l0,-0.7l-777.5,0l0,0.7Z" class="g2_1234" />
<path d="M71.8,651.2l777.5,0l0,-0.7l-777.5,0l0,0.7Z" class="g2_1234" />
<path d="M71.8,674.1l777.5,0l0,-0.7l-777.5,0l0,0.7Z" class="g2_1234" />
<path d="M71.8,697l777.5,0l0,-0.7l-777.5,0l0,0.7Z" class="g2_1234" />
<path d="M71.8,719.9l777.5,0l0,-0.7l-777.5,0l0,0.7Z" class="g2_1234" />
<path d="M71.8,742.9l777.5,0l0,-0.8l-777.5,0l0,0.8Z" class="g2_1234" />
<path d="M71.8,765.8l777.5,0l0,-0.7l-777.5,0l0,0.7Z" class="g2_1234" />
<path d="M71.8,788.7l777.5,0l0,-0.7L71.8,788l0,0.7Z" class="g2_1234" />
<path d="M71.8,811.6l777.5,0l0,-0.7l-777.5,0l0,0.7Z" class="g2_1234" />
<path d="M71.8,834.5l777.5,0l0,-0.7l-777.5,0l0,0.7Z" class="g2_1234" />
<path d="M71.8,857.5l777.5,0l0,-0.8l-777.5,0l0,0.8Z" class="g2_1234" />
<path d="M71.8,880.4l777.5,0l0,-0.8l-777.5,0l0,0.8Z" class="g2_1234" />
<path d="M71.8,903.3l777.5,0l0,-0.7l-777.5,0l0,0.7Z" class="g2_1234" />
<path d="M71.8,926.2l777.5,0l0,-0.7l-777.5,0l0,0.7Z" class="g2_1234" />
<path d="M71.8,949.1l777.5,0l0,-0.7l-777.5,0l0,0.7Z" class="g2_1234" />
<path d="M71.8,972l777.5,0l0,-0.7l-777.5,0l0,0.7Z" class="g2_1234" />
<path d="M71.8,995l777.5,0l0,-0.8l-777.5,0l0,0.8Z" class="g2_1234" />
<path d="M71.8,1017.9l777.5,0l0,-0.8l-777.5,0l0,0.8Z" class="g2_1234" />
<path d="M71.8,1040.8l777.5,0l0,-0.8l-777.5,0l0,0.8Z" class="g2_1234" />
<path d="M71.8,1063.7l777.5,0l0,-0.7l-777.5,0l0,0.7Z" class="g2_1234" />
<path d="M71.8,1086.6l777.5,0l0,-0.7l-777.5,0l0,0.7Z" class="g2_1234" />
</svg>