<?xml version="1.0" encoding="UTF-8" standalone="no"?>
<!DOCTYPE svg PUBLIC "-//W3C//DTD SVG 1.1//EN"
"http://www.w3.org/Graphics/SVG/1.1/DTD/svg11.dtd">
<svg viewBox="0 0 935 1210" version="1.1" xmlns="http://www.w3.org/2000/svg" xmlns:xlink="http://www.w3.org/1999/xlink">
<defs>
<style type="text/css"><![CDATA[
.g1_1056{
fill: #FFFFFF;
}
.g2_1056{
}
]]></style>
</defs>
<path d="M165,1149.3l687.5,0l0,-21.2l-687.5,0l0,21.2Z" class="g1_1056" />
<path d="M68.8,1149.3l82.5,0l0,-21.2l-82.5,0l0,21.2Z" class="g1_1056" />
<path d="M68.6,224.2l0.7,0l0,-89.4l-0.7,0l0,89.4Z" class="g2_1056" />
<path d="M253.6,224.9l0.7,0l0,-90.8l-0.7,0l0,90.8Z" class="g2_1056" />
<path d="M294.8,224.9l0.7,0l0,-90.8l-0.7,0l0,90.8Z" class="g2_1056" />
<path d="M375.1,224.9l0.7,0l0,-90.8l-0.7,0l0,90.8Z" class="g2_1056" />
<path d="M469,224.9l0.7,0l0,-90.8l-0.7,0l0,90.8Z" class="g2_1056" />
<path d="M851.5,224.2l0.7,0l0,-89.4l-0.7,0l0,89.4Z" class="g2_1056" />
<path d="M68.6,134.8l783.6,0l0,-0.7l-783.6,0l0,0.7Z" class="g2_1056" />
<path d="M68.6,188.3l783.6,0l0,-0.7l-783.6,0l0,0.7Z" class="g2_1056" />
<path d="M68.6,224.9l783.6,0l0,-0.7l-783.6,0l0,0.7Z" class="g2_1056" />
<path d="M69.1,325.1l0.8,0l0,-48.2l-0.8,0l0,48.2Z" class="g2_1056" />
<path d="M135,325.8l0.8,0l0,-49.6l-0.8,0l0,49.6Z" class="g2_1056" />
<path d="M307.6,325.8l0.8,0l0,-49.6l-0.8,0l0,49.6Z" class="g2_1056" />
<path d="M485.9,325.8l0.8,0l0,-49.6l-0.8,0l0,49.6Z" class="g2_1056" />
<path d="M668.4,325.8l0.8,0l0,-49.6l-0.8,0l0,49.6Z" class="g2_1056" />
<path d="M851.3,325.1l0.7,0l0,-48.2l-0.7,0l0,48.2Z" class="g2_1056" />
<path d="M69.1,276.9l782.9,0l0,-0.7l-782.9,0l0,0.7Z" class="g2_1056" />
<path d="M69.1,301.3l782.9,0l0,-0.7l-782.9,0l0,0.7Z" class="g2_1056" />
<path d="M69.1,325.8l782.9,0l0,-0.7l-782.9,0l0,0.7Z" class="g2_1056" />
</svg>