<?xml version="1.0" encoding="UTF-8" standalone="no"?>
<!DOCTYPE svg PUBLIC "-//W3C//DTD SVG 1.1//EN"
"http://www.w3.org/Graphics/SVG/1.1/DTD/svg11.dtd">
<svg viewBox="0 0 935 1210" version="1.1" xmlns="http://www.w3.org/2000/svg" xmlns:xlink="http://www.w3.org/1999/xlink">
<defs>
<style type="text/css"><![CDATA[
.g1_2114{
fill: #FFFFFF;
}
.g2_2114{
}
]]></style>
</defs>
<path d="M68.8,1149.3l783.7,0l0,-21.2l-783.7,0l0,21.2Z" class="g1_2114" />
<path d="M68.6,1087.4l0.7,0l0,-963.3l-0.7,0l0,963.3Z" class="g2_2114" />
<path d="M445.9,1088.2l0.7,0l0,-964.8l-0.7,0l0,964.8Z" class="g2_2114" />
<path d="M851.6,1087.4l0.7,0l0,-963.3l-0.7,0l0,963.3Z" class="g2_2114" />
<path d="M68.6,124.1l783.7,0l0,-0.7l-783.7,0l0,0.7Z" class="g2_2114" />
<path d="M68.6,148.6l783.7,0l0,-0.7l-783.7,0l0,0.7Z" class="g2_2114" />
<path d="M68.6,189.8l783.7,0l0,-0.7l-783.7,0l0,0.7Z" class="g2_2114" />
<path d="M68.6,214.2l783.7,0l0,-0.7l-783.7,0l0,0.7Z" class="g2_2114" />
<path d="M68.6,238.7l783.7,0l0,-0.7L68.6,238l0,0.7Z" class="g2_2114" />
<path d="M68.6,263.2l783.7,0l0,-0.8l-783.7,0l0,0.8Z" class="g2_2114" />
<path d="M68.6,287.6l783.7,0l0,-0.8l-783.7,0l0,0.8Z" class="g2_2114" />
<path d="M68.6,328.8l783.7,0l0,-0.7l-783.7,0l0,0.7Z" class="g2_2114" />
<path d="M68.6,353.3l783.7,0l0,-0.7l-783.7,0l0,0.7Z" class="g2_2114" />
<path d="M68.6,393l783.7,0l0,-0.8l-783.7,0l0,0.8Z" class="g2_2114" />
<path d="M68.6,417.4l783.7,0l0,-0.7l-783.7,0l0,0.7Z" class="g2_2114" />
<path d="M68.6,441.9l783.7,0l0,-0.7l-783.7,0l0,0.7Z" class="g2_2114" />
<path d="M68.6,483.2l783.7,0l0,-0.8l-783.7,0l0,0.8Z" class="g2_2114" />
<path d="M68.6,507.7l783.7,0l0,-0.8l-783.7,0l0,0.8Z" class="g2_2114" />
<path d="M68.6,532l783.7,0l0,-0.7l-783.7,0l0,0.7Z" class="g2_2114" />
<path d="M68.6,556.5l783.7,0l0,-0.7l-783.7,0l0,0.7Z" class="g2_2114" />
<path d="M68.6,581l783.7,0l0,-0.8l-783.7,0l0,0.8Z" class="g2_2114" />
<path d="M68.6,622.2l783.7,0l0,-0.7l-783.7,0l0,0.7Z" class="g2_2114" />
<path d="M68.6,646.6l783.7,0l0,-0.7l-783.7,0l0,0.7Z" class="g2_2114" />
<path d="M68.6,671.1l783.7,0l0,-0.7l-783.7,0l0,0.7Z" class="g2_2114" />
<path d="M68.6,695.6l783.7,0l0,-0.8l-783.7,0l0,0.8Z" class="g2_2114" />
<path d="M68.6,719.9l783.7,0l0,-0.7l-783.7,0l0,0.7Z" class="g2_2114" />
<path d="M68.6,761.2l783.7,0l0,-0.7l-783.7,0l0,0.7Z" class="g2_2114" />
<path d="M68.6,785.7l783.7,0l0,-0.8l-783.7,0l0,0.8Z" class="g2_2114" />
<path d="M68.6,810.2l783.7,0l0,-0.8l-783.7,0l0,0.8Z" class="g2_2114" />
<path d="M68.6,834.5l783.7,0l0,-0.7l-783.7,0l0,0.7Z" class="g2_2114" />
<path d="M68.6,859l783.7,0l0,-0.7l-783.7,0l0,0.7Z" class="g2_2114" />
<path d="M68.6,900.3l783.7,0l0,-0.8l-783.7,0l0,0.8Z" class="g2_2114" />
<path d="M68.6,924.7l783.7,0l0,-0.7L68.6,924l0,0.7Z" class="g2_2114" />
<path d="M68.6,949.1l783.7,0l0,-0.7l-783.7,0l0,0.7Z" class="g2_2114" />
<path d="M68.6,973.6l783.7,0l0,-0.7l-783.7,0l0,0.7Z" class="g2_2114" />
<path d="M68.6,998.1l783.7,0l0,-0.8l-783.7,0l0,0.8Z" class="g2_2114" />
<path d="M68.6,1039.3l783.7,0l0,-0.7l-783.7,0l0,0.7Z" class="g2_2114" />
<path d="M68.6,1063.7l783.7,0l0,-0.7l-783.7,0l0,0.7Z" class="g2_2114" />
<path d="M68.6,1088.2l783.7,0l0,-0.8l-783.7,0l0,0.8Z" class="g2_2114" />
</svg>