<?xml version="1.0" encoding="UTF-8" standalone="no"?>
<!DOCTYPE svg PUBLIC "-//W3C//DTD SVG 1.1//EN"
"http://www.w3.org/Graphics/SVG/1.1/DTD/svg11.dtd">
<svg viewBox="0 0 935 1210" version="1.1" xmlns="http://www.w3.org/2000/svg" xmlns:xlink="http://www.w3.org/1999/xlink">
<defs>
<style type="text/css"><![CDATA[
.g1_963{
fill: #FFFFFF;
}
.g2_963{
}
]]></style>
</defs>
<path d="M68.9,1149.3l686.3,0l0,-21.2l-686.3,0l0,21.2Z" class="g1_963" />
<path d="M771.3,1149.3l83.7,0l0,-21.2l-83.7,0l0,21.2Z" class="g1_963" />
<path d="M69.9,933.2l0.8,0l0,-807.5l-0.8,0l0,807.5Z" class="g2_963" />
<path d="M326.6,859l0.7,0l0,-734.1l-0.7,0l0,734.1Z" class="g2_963" />
<path d="M373.6,859l0.8,0l0,-734.1l-0.8,0l0,734.1Z" class="g2_963" />
<path d="M447,859l0.7,0l0,-734.1l-0.7,0L447,859Z" class="g2_963" />
<path d="M536.3,859l0.8,0l0,-734.1l-0.8,0l0,734.1Z" class="g2_963" />
<path d="M853.9,933.2l0.7,0l0,-807.5l-0.7,0l0,807.5Z" class="g2_963" />
<path d="M69.9,125.7l784.7,0l0,-0.8l-784.7,0l0,0.8Z" class="g2_963" />
<path d="M69.9,176.1l784.7,0l0,-0.7l-784.7,0l0,0.7Z" class="g2_963" />
<path d="M69.9,217.3l784.7,0l0,-0.7l-784.7,0l0,0.7Z" class="g2_963" />
<path d="M69.9,270.8l784.7,0l0,-0.7l-784.7,0l0,0.7Z" class="g2_963" />
<path d="M69.9,324.2l784.7,0l0,-0.7l-784.7,0l0,0.7Z" class="g2_963" />
<path d="M69.9,377.8l784.7,0l0,-0.8L69.9,377l0,0.8Z" class="g2_963" />
<path d="M69.9,431.2l784.7,0l0,-0.7l-784.7,0l0,0.7Z" class="g2_963" />
<path d="M69.9,484.7l784.7,0l0,-0.7L69.9,484l0,0.7Z" class="g2_963" />
<path d="M69.9,538.2l784.7,0l0,-0.8l-784.7,0l0,0.8Z" class="g2_963" />
<path d="M69.9,591.6l784.7,0l0,-0.7l-784.7,0l0,0.7Z" class="g2_963" />
<path d="M69.9,645.2l784.7,0l0,-0.8l-784.7,0l0,0.8Z" class="g2_963" />
<path d="M69.9,698.6l784.7,0l0,-0.7l-784.7,0l0,0.7Z" class="g2_963" />
<path d="M69.9,752l784.7,0l0,-0.7l-784.7,0l0,0.7Z" class="g2_963" />
<path d="M69.9,805.6l784.7,0l0,-0.8l-784.7,0l0,0.8Z" class="g2_963" />
<path d="M69.9,859l784.7,0l0,-0.7l-784.7,0l0,0.7Z" class="g2_963" />
<path d="M69.9,933.9l784.7,0l0,-0.7l-784.7,0l0,0.7Z" class="g2_963" />
<path d="M71.1,1085.9l0.8,0l0,-97l-0.8,0l0,97Z" class="g2_963" />
<path d="M195.1,1086.7l0.7,0l0,-98.5l-0.7,0l0,98.5Z" class="g2_963" />
<path d="M345.9,1086.7l0.7,0l0,-98.5l-0.7,0l0,98.5Z" class="g2_963" />
<path d="M561,1086.7l0.7,0l0,-98.5l-0.7,0l0,98.5Z" class="g2_963" />
<path d="M713.5,1086.7l0.8,0l0,-98.5l-0.8,0l0,98.5Z" class="g2_963" />
<path d="M850.8,1085.9l0.8,0l0,-97l-0.8,0l0,97Z" class="g2_963" />
<path d="M71.1,988.9l780.5,0l0,-0.7l-780.5,0l0,0.7Z" class="g2_963" />
<path d="M71.1,1013.3l780.5,0l0,-0.7l-780.5,0l0,0.7Z" class="g2_963" />
<path d="M71.1,1037.8l780.5,0l0,-0.8l-780.5,0l0,0.8Z" class="g2_963" />
<path d="M71.1,1062.2l780.5,0l0,-0.7l-780.5,0l0,0.7Z" class="g2_963" />
<path d="M71.1,1086.6l780.5,0l0,-0.7l-780.5,0l0,0.7Z" class="g2_963" />
</svg>