<?xml version="1.0" encoding="UTF-8" standalone="no"?>
<!DOCTYPE svg PUBLIC "-//W3C//DTD SVG 1.1//EN"
"http://www.w3.org/Graphics/SVG/1.1/DTD/svg11.dtd">
<svg viewBox="0 0 935 1210" version="1.1" xmlns="http://www.w3.org/2000/svg" xmlns:xlink="http://www.w3.org/1999/xlink">
<defs>
<style type="text/css"><![CDATA[
.g1_932{
fill: #FFFFFF;
}
.g2_932{
}
]]></style>
</defs>
<path d="M165,1149.3l687.5,0l0,-21.2l-687.5,0l0,21.2Z" class="g1_932" />
<path d="M68.8,1149.3l82.5,0l0,-21.2l-82.5,0l0,21.2Z" class="g1_932" />
<path d="M68.9,532.9l0.8,0l0,-407.2l-0.8,0l0,407.2Z" class="g2_932" />
<path d="M392.8,533.6l0.7,0l0,-408.7l-0.7,0l0,408.7Z" class="g2_932" />
<path d="M430.7,533.6l0.7,0l0,-408.7l-0.7,0l0,408.7Z" class="g2_932" />
<path d="M504.1,533.6l0.7,0l0,-408.7l-0.7,0l0,408.7Z" class="g2_932" />
<path d="M575.4,533.6l0.7,0l0,-408.7l-0.7,0l0,408.7Z" class="g2_932" />
<path d="M851.4,532.9l0.7,0l0,-407.2l-0.7,0l0,407.2Z" class="g2_932" />
<path d="M68.9,125.7l783.3,0l0,-0.8l-783.3,0l0,0.8Z" class="g2_932" />
<path d="M68.9,179.1l783.3,0l0,-0.7l-783.3,0l0,0.7Z" class="g2_932" />
<path d="M68.9,223.4l783.3,0l0,-0.7l-783.3,0l0,0.7Z" class="g2_932" />
<path d="M68.9,267.8l783.3,0l0,-0.8L68.9,267l0,0.8Z" class="g2_932" />
<path d="M68.9,312l783.3,0l0,-0.7l-783.3,0l0,0.7Z" class="g2_932" />
<path d="M68.9,356.3l783.3,0l0,-0.7l-783.3,0l0,0.7Z" class="g2_932" />
<path d="M68.9,400.7l783.3,0l0,-0.8l-783.3,0l0,0.8Z" class="g2_932" />
<path d="M68.9,444.9l783.3,0l0,-0.7l-783.3,0l0,0.7Z" class="g2_932" />
<path d="M68.9,489.3l783.3,0l0,-0.7l-783.3,0l0,0.7Z" class="g2_932" />
<path d="M68.9,533.6l783.3,0l0,-0.7l-783.3,0l0,0.7Z" class="g2_932" />
<path d="M68.6,739.1l0.7,0l0,-72.6l-0.7,0l0,72.6Z" class="g2_932" />
<path d="M139.4,739.8l0.8,0l0,-74l-0.8,0l0,74Z" class="g2_932" />
<path d="M311.4,739.8l0.7,0l0,-74l-0.7,0l0,74Z" class="g2_932" />
<path d="M490.2,739.8l0.8,0l0,-74l-0.8,0l0,74Z" class="g2_932" />
<path d="M664.9,739.8l0.7,0l0,-74l-0.7,0l0,74Z" class="g2_932" />
<path d="M851.9,739.1l0.7,0l0,-72.6l-0.7,0l0,72.6Z" class="g2_932" />
<path d="M68.5,666.5l784.1,0l0,-0.7l-784.1,0l0,0.7Z" class="g2_932" />
<path d="M68.5,691l784.1,0l0,-0.7l-784.1,0l0,0.7Z" class="g2_932" />
<path d="M68.5,715.4l784.1,0l0,-0.8l-784.1,0l0,0.8Z" class="g2_932" />
<path d="M68.5,739.8l784.1,0l0,-0.7l-784.1,0l0,0.7Z" class="g2_932" />
</svg>