<?xml version="1.0" encoding="UTF-8" standalone="no"?>
<!DOCTYPE svg PUBLIC "-//W3C//DTD SVG 1.1//EN"
"http://www.w3.org/Graphics/SVG/1.1/DTD/svg11.dtd">
<svg viewBox="0 0 935 1210" version="1.1" xmlns="http://www.w3.org/2000/svg" xmlns:xlink="http://www.w3.org/1999/xlink">
<defs>
<style type="text/css"><![CDATA[
.g1_443{
fill: #FFFFFF;
}
.g2_443{
}
]]></style>
</defs>
<path d="M68.9,1149.3l686.3,0l0,-21.2l-686.3,0l0,21.2Z" class="g1_443" />
<path d="M771.3,1149.3l83.7,0l0,-21.2l-83.7,0l0,21.2Z" class="g1_443" />
<path d="M70.9,260.9l0.8,0l0,-129.1l-0.8,0l0,129.1Z" class="g2_443" />
<path d="M205.5,261.6l0.8,0l0,-130.6l-0.8,0l0,130.6Z" class="g2_443" />
<path d="M383.3,261.6l0.7,0L384,131l-0.7,0l0,130.6Z" class="g2_443" />
<path d="M449.5,261.6l0.8,0l0,-130.6l-0.8,0l0,130.6Z" class="g2_443" />
<path d="M527.7,261.6l0.8,0l0,-130.6l-0.8,0l0,130.6Z" class="g2_443" />
<path d="M851,260.9l0.8,0l0,-129.1l-0.8,0l0,129.1Z" class="g2_443" />
<path d="M70.9,131.7l781,0l0,-0.7l-781,0l0,0.7Z" class="g2_443" />
<path d="M70.9,169.9l781,0l0,-0.7l-781,0l0,0.7Z" class="g2_443" />
<path d="M70.9,192.9l781,0l0,-0.8l-781,0l0,0.8Z" class="g2_443" />
<path d="M70.9,215.8l781,0l0,-0.8l-781,0l0,0.8Z" class="g2_443" />
<path d="M70.9,238.7l781,0l0,-0.7l-781,0l0,0.7Z" class="g2_443" />
<path d="M70.9,261.6l781,0l0,-0.7l-781,0l0,0.7Z" class="g2_443" />
<path d="M70.5,511.4l0.7,0l0,-113.8l-0.7,0l0,113.8Z" class="g2_443" />
<path d="M398.4,512.2l0.7,0l0,-115.4l-0.7,0l0,115.4Z" class="g2_443" />
<path d="M533.3,512.2l0.8,0l0,-115.4l-0.8,0l0,115.4Z" class="g2_443" />
<path d="M697.2,512.2l0.7,0l0,-115.4l-0.7,0l0,115.4Z" class="g2_443" />
<path d="M851.5,511.4l0.7,0l0,-113.8l-0.7,0l0,113.8Z" class="g2_443" />
<path d="M70.5,397.7l781.7,0l0,-0.8l-781.7,0l0,0.8Z" class="g2_443" />
<path d="M70.5,420.6l781.7,0l0,-0.8l-781.7,0l0,0.8Z" class="g2_443" />
<path d="M70.5,443.5l781.7,0l0,-0.8l-781.7,0l0,0.8Z" class="g2_443" />
<path d="M70.5,466.4l781.7,0l0,-0.7l-781.7,0l0,0.7Z" class="g2_443" />
<path d="M70.5,489.3l781.7,0l0,-0.7l-781.7,0l0,0.7Z" class="g2_443" />
<path d="M70.5,512.2l781.7,0l0,-0.7l-781.7,0l0,0.7Z" class="g2_443" />
</svg>