<?xml version="1.0" encoding="UTF-8" standalone="no"?>
<!DOCTYPE svg PUBLIC "-//W3C//DTD SVG 1.1//EN"
"http://www.w3.org/Graphics/SVG/1.1/DTD/svg11.dtd">
<svg viewBox="0 0 935 1210" version="1.1" xmlns="http://www.w3.org/2000/svg" xmlns:xlink="http://www.w3.org/1999/xlink">
<defs>
<style type="text/css"><![CDATA[
.g1_295{
fill: #FFFFFF;
}
.g2_295{
}
]]></style>
</defs>
<path d="M68.9,1149.3l686.3,0l0,-21.2l-686.3,0l0,21.2Z" class="g1_295" />
<path d="M771.3,1149.3l83.7,0l0,-21.2l-83.7,0l0,21.2Z" class="g1_295" />
<path d="M71.6,872l0.7,0l0,-748.1l-0.7,0l0,748.1Z" class="g2_295" />
<path d="M158.9,165.2l0.3,0l0,-41.6l-0.3,0l0,41.6Z" class="g2_295" />
<path d="M158.7,364l0.7,0l0,-199.2l-0.7,0l0,199.2Z" class="g2_295" />
<path d="M158.7,872.8l0.7,0l0,-485.1l-0.7,0l0,485.1Z" class="g2_295" />
<path d="M850.4,872l0.7,0l0,-748.1l-0.7,0l0,748.1Z" class="g2_295" />
<path d="M71.6,123.9l779.5,0l0,-0.3l-779.5,0l0,0.3Z" class="g2_295" />
<path d="M71.6,165.2l779.5,0l0,-0.4l-779.5,0l0,0.4Z" class="g2_295" />
<path d="M71.6,364l779.5,0l0,-0.7l-779.5,0l0,0.7Z" class="g2_295" />
<path d="M71.6,388.4l779.5,0l0,-0.7l-779.5,0l0,0.7Z" class="g2_295" />
<path d="M71.6,872.8l779.5,0l0,-0.8L71.6,872l0,0.8Z" class="g2_295" />
</svg>