<?xml version="1.0" encoding="UTF-8" standalone="no"?>
<!DOCTYPE svg PUBLIC "-//W3C//DTD SVG 1.1//EN"
"http://www.w3.org/Graphics/SVG/1.1/DTD/svg11.dtd">
<svg viewBox="0 0 935 1210" version="1.1" xmlns="http://www.w3.org/2000/svg" xmlns:xlink="http://www.w3.org/1999/xlink">
<defs>
<style type="text/css"><![CDATA[
.g1_113{
fill: #FFFFFF;
}
.g2_113{
}
]]></style>
</defs>
<path d="M68.9,1149.3l686.3,0l0,-21.2l-686.3,0l0,21.2Z" class="g1_113" />
<path d="M771.3,1149.3l83.7,0l0,-21.2l-83.7,0l0,21.2Z" class="g1_113" />
<path d="M171.3,889.4l0.8,0l0,-123.6l-0.8,0l0,123.6Z" class="g2_113" />
<path d="M750.7,889.4l0.7,0l0,-123.6l-0.7,0l0,123.6Z" class="g2_113" />
<path d="M171.3,765.8l580.1,0l0,-0.7l-580.1,0l0,0.7Z" class="g2_113" />
<path d="M171.3,890.3l580.1,0l0,-0.8l-580.1,0l0,0.8Z" class="g2_113" />
<path d="M519.7,857.1l0.4,0l0,-2.1l-0.4,0l0,2.1Z" class="g2_113" />
<path d="M520.2,855.6l-2.4,1.4l-1.6,1l0.5,-1.9l2.4,-8.3l0.7,-2.6l0.8,2.6l2.3,8.3l0.5,1.9l-1.6,-1l-0.4,-0.5l-2.3,-8.2l1.5,-0.5l0,0.5l-2.4,8.2l-1.5,-0.4l0.4,-0.5l2.4,-1.4Z" class="g2_113" />
<path d="M521.8,857l-2.3,-1.4l0,-1.4l0.4,-0.2l0.4,0.2l2.3,1.4Z" class="g2_113" />
<path fill-rule="evenodd" d="M519.8,855l-2.3,1.3l2.3,-8.2l2.3,8.2Z" class="g2_113" />
<path d="M726.6,874.3l0.5,0l0,-26.7l-0.5,0l0,26.7Z" class="g2_113" />
<path d="M519.7,874.3l207.1,0l0,-0.4l-207.1,0l0,0.4Z" class="g2_113" />
<path d="M519.7,874l0.4,0l0,-17.1l-0.4,0l0,17.1Z" class="g2_113" />
<path d="M198.9,806.4l528.4,0l0,-0.7l-528.4,0l0,0.7Z" class="g2_113" />
<path d="M726.6,843.4l0.7,0l0,-37.4l-0.7,0l0,37.4Z" class="g2_113" />
<path d="M198.6,843.4l528.3,0l0,-0.7l-528.3,0l0,0.7Z" class="g2_113" />
<path d="M198.6,843.1l0.7,0l0,-37.4l-0.7,0l0,37.4Z" class="g2_113" />
<path d="M513.8,806.8l0.4,0l0,-0.2l-0.4,0l0,0.2Z" class="g2_113" />
<path d="M513.8,842.5l0.4,0l0,-35.7l-0.4,0l0,35.7Z" class="g2_113" />
<path d="M525.6,806.8l0.5,0l0,-0.2l-0.5,0l0,0.2Z" class="g2_113" />
<path d="M525.6,842.5l0.5,0l0,-35.7l-0.5,0l0,35.7Z" class="g2_113" />
<path d="M579,869.3l96.2,0l0,10l-96.2,0Z" class="g1_113" />
<path d="M407.2,805.7l0.7,0l0,-0.3l-0.7,0l0,0.3Z" class="g2_113" />
<path d="M407.2,843.3l0.7,0l0,-37.6l-0.7,0l0,37.6Z" class="g2_113" />
</svg>