<?xml version="1.0" encoding="UTF-8" standalone="no"?>
<!DOCTYPE svg PUBLIC "-//W3C//DTD SVG 1.1//EN"
"http://www.w3.org/Graphics/SVG/1.1/DTD/svg11.dtd">
<svg viewBox="0 0 935 1210" version="1.1" xmlns="http://www.w3.org/2000/svg" xmlns:xlink="http://www.w3.org/1999/xlink">
<defs>
<style type="text/css"><![CDATA[
.g1_632{
fill: #FFFFFF;
}
.g2_632{
}
]]></style>
</defs>
<path d="M165,1149.3l687.5,0l0,-21.2l-687.5,0l0,21.2Z" class="g1_632" />
<path d="M68.8,1149.3l82.5,0l0,-21.2l-82.5,0l0,21.2Z" class="g1_632" />
<path d="M70.1,254.7l0.8,0l0,-129l-0.8,0l0,129Z" class="g2_632" />
<path d="M220.3,255.6l0.7,0l0,-130.7l-0.7,0l0,130.7Z" class="g2_632" />
<path d="M390.5,255.6l0.7,0l0,-130.7l-0.7,0l0,130.7Z" class="g2_632" />
<path d="M428.4,255.6l0.7,0l0,-130.7l-0.7,0l0,130.7Z" class="g2_632" />
<path d="M501.8,255.6l0.7,0l0,-130.7l-0.7,0l0,130.7Z" class="g2_632" />
<path d="M573.1,255.6l0.7,0l0,-130.7l-0.7,0l0,130.7Z" class="g2_632" />
<path d="M850.3,254.7l0.7,0l0,-129l-0.7,0l0,129Z" class="g2_632" />
<path d="M70.1,125.7l780.9,0l0,-0.8l-780.9,0l0,0.8Z" class="g2_632" />
<path d="M70.1,163.8l780.9,0l0,-0.7l-780.9,0l0,0.7Z" class="g2_632" />
<path d="M70.1,186.7l780.9,0l0,-0.7L70.1,186l0,0.7Z" class="g2_632" />
<path d="M70.1,209.6l780.9,0l0,-0.7l-780.9,0l0,0.7Z" class="g2_632" />
<path d="M70.1,232.6l780.9,0l0,-0.8l-780.9,0l0,0.8Z" class="g2_632" />
<path d="M70.1,255.5l780.9,0l0,-0.8l-780.9,0l0,0.8Z" class="g2_632" />
<path d="M70.2,358.7l0.8,0l0,-48.1l-0.8,0l0,48.1Z" class="g2_632" />
<path d="M149.3,359.4l0.8,0l0,-49.7l-0.8,0l0,49.7Z" class="g2_632" />
<path d="M319.9,359.4l0.7,0l0,-49.7l-0.7,0l0,49.7Z" class="g2_632" />
<path d="M498.6,359.4l0.7,0l0,-49.7l-0.7,0l0,49.7Z" class="g2_632" />
<path d="M675.3,359.4l0.7,0l0,-49.7l-0.7,0l0,49.7Z" class="g2_632" />
<path d="M850.1,358.7l0.7,0l0,-48.1l-0.7,0l0,48.1Z" class="g2_632" />
<path d="M70.2,310.5l780.7,0l0,-0.8l-780.7,0l0,0.8Z" class="g2_632" />
<path d="M70.2,334.9l780.7,0l0,-0.7l-780.7,0l0,0.7Z" class="g2_632" />
<path d="M70.2,359.4l780.7,0l0,-0.7l-780.7,0l0,0.7Z" class="g2_632" />
</svg>