<?xml version="1.0" encoding="UTF-8" standalone="no"?>
<!DOCTYPE svg PUBLIC "-//W3C//DTD SVG 1.1//EN"
"http://www.w3.org/Graphics/SVG/1.1/DTD/svg11.dtd">
<svg viewBox="0 0 935 1210" version="1.1" xmlns="http://www.w3.org/2000/svg" xmlns:xlink="http://www.w3.org/1999/xlink">
<defs>
<style type="text/css"><![CDATA[
.g1_758{
fill: #FFFFFF;
}
.g2_758{
}
]]></style>
</defs>
<path d="M165,1149.3l687.5,0l0,-21.2l-687.5,0l0,21.2Z" class="g1_758" />
<path d="M68.8,1149.3l82.5,0l0,-21.2l-82.5,0l0,21.2Z" class="g1_758" />
<path d="M68.4,202.9l0.7,0l0,-77.2l-0.7,0l0,77.2Z" class="g2_758" />
<path d="M219.5,203.6l0.8,0l0,-78.7l-0.8,0l0,78.7Z" class="g2_758" />
<path d="M391.1,203.6l0.8,0l0,-78.7l-0.8,0l0,78.7Z" class="g2_758" />
<path d="M428.9,203.6l0.7,0l0,-78.7l-0.7,0l0,78.7Z" class="g2_758" />
<path d="M502.3,203.6l0.8,0l0,-78.7l-0.8,0l0,78.7Z" class="g2_758" />
<path d="M573.7,203.6l0.8,0l0,-78.7l-0.8,0l0,78.7Z" class="g2_758" />
<path d="M852,202.9l0.8,0l0,-77.2l-0.8,0l0,77.2Z" class="g2_758" />
<path d="M68.4,125.7l784.4,0l0,-0.8l-784.4,0l0,0.8Z" class="g2_758" />
<path d="M68.4,163.8l784.4,0l0,-0.7l-784.4,0l0,0.7Z" class="g2_758" />
<path d="M68.4,203.6l784.4,0l0,-0.7l-784.4,0l0,0.7Z" class="g2_758" />
<path d="M69.7,306.7l0.7,0l0,-48.1l-0.7,0l0,48.1Z" class="g2_758" />
<path d="M138.9,307.4l0.7,0l0,-49.5l-0.7,0l0,49.5Z" class="g2_758" />
<path d="M314,307.4l0.7,0l0,-49.5l-0.7,0l0,49.5Z" class="g2_758" />
<path d="M494.8,307.4l0.8,0l0,-49.5l-0.8,0l0,49.5Z" class="g2_758" />
<path d="M666.5,307.4l0.7,0l0,-49.5l-0.7,0l0,49.5Z" class="g2_758" />
<path d="M850.8,306.7l0.7,0l0,-48.1l-0.7,0l0,48.1Z" class="g2_758" />
<path d="M69.7,258.6l781.8,0l0,-0.7l-781.8,0l0,0.7Z" class="g2_758" />
<path d="M69.7,283l781.8,0l0,-0.8l-781.8,0l0,0.8Z" class="g2_758" />
<path d="M69.7,307.4l781.8,0l0,-0.7l-781.8,0l0,0.7Z" class="g2_758" />
</svg>