<?xml version="1.0" encoding="UTF-8" standalone="no"?>
<!DOCTYPE svg PUBLIC "-//W3C//DTD SVG 1.1//EN"
"http://www.w3.org/Graphics/SVG/1.1/DTD/svg11.dtd">
<svg viewBox="0 0 935 1210" version="1.1" xmlns="http://www.w3.org/2000/svg" xmlns:xlink="http://www.w3.org/1999/xlink">
<defs>
<style type="text/css"><![CDATA[
.g1_260{
fill: #FFFFFF;
}
.g2_260{
}
]]></style>
</defs>
<path d="M165,1149.3l687.5,0l0,-21.2l-687.5,0l0,21.2Z" class="g1_260" />
<path d="M68.8,1149.3l82.5,0l0,-21.2l-82.5,0l0,21.2Z" class="g1_260" />
<path d="M73.9,986.6l0.7,0l0,-805.9l-0.7,0l0,805.9Z" class="g2_260" />
<path d="M469.2,987.3l0.8,0l0,-807.4l-0.8,0l0,807.4Z" class="g2_260" />
<path d="M846.5,986.6l0.8,0l0,-805.9l-0.8,0l0,805.9Z" class="g2_260" />
<path d="M73.9,180.7l773.4,0l0,-0.8l-773.4,0l0,0.8Z" class="g2_260" />
<path d="M73.9,205.1l773.4,0l0,-0.8l-773.4,0l0,0.8Z" class="g2_260" />
<path d="M73.9,229.5l773.4,0l0,-0.7l-773.4,0l0,0.7Z" class="g2_260" />
<path d="M73.9,254l773.4,0l0,-0.7l-773.4,0l0,0.7Z" class="g2_260" />
<path d="M73.9,278.4l773.4,0l0,-0.7l-773.4,0l0,0.7Z" class="g2_260" />
<path d="M73.9,302.9l773.4,0l0,-0.8l-773.4,0l0,0.8Z" class="g2_260" />
<path d="M73.9,327.3l773.4,0l0,-0.7l-773.4,0l0,0.7Z" class="g2_260" />
<path d="M73.9,351.7l773.4,0l0,-0.7L73.9,351l0,0.7Z" class="g2_260" />
<path d="M73.9,376.2l773.4,0l0,-0.7l-773.4,0l0,0.7Z" class="g2_260" />
<path d="M73.9,402.6l773.4,0l0,-4.6L73.9,398l0,4.6Z" class="g2_260" />
<path d="M73.9,425.2l773.4,0l0,-0.8l-773.4,0l0,0.8Z" class="g2_260" />
<path d="M73.9,449.5l773.4,0l0,-0.7l-773.4,0l0,0.7Z" class="g2_260" />
<path d="M73.9,474l773.4,0l0,-0.7l-773.4,0l0,0.7Z" class="g2_260" />
<path d="M73.9,498.5l773.4,0l0,-0.8l-773.4,0l0,0.8Z" class="g2_260" />
<path d="M73.9,522.9l773.4,0l0,-0.8l-773.4,0l0,0.8Z" class="g2_260" />
<path d="M73.9,547.3l773.4,0l0,-0.7l-773.4,0l0,0.7Z" class="g2_260" />
<path d="M73.9,571.8l773.4,0l0,-0.7l-773.4,0l0,0.7Z" class="g2_260" />
<path d="M73.9,598.1l773.4,0l0,-4.6l-773.4,0l0,4.6Z" class="g2_260" />
<path d="M73.9,620.7l773.4,0l0,-0.8l-773.4,0l0,0.8Z" class="g2_260" />
<path d="M73.9,645.2l773.4,0l0,-0.8l-773.4,0l0,0.8Z" class="g2_260" />
<path d="M73.9,669.5l773.4,0l0,-0.7l-773.4,0l0,0.7Z" class="g2_260" />
<path d="M73.9,694l773.4,0l0,-0.7l-773.4,0l0,0.7Z" class="g2_260" />
<path d="M73.9,718.5l773.4,0l0,-0.7l-773.4,0l0,0.7Z" class="g2_260" />
<path d="M73.9,742.9l773.4,0l0,-0.8l-773.4,0l0,0.8Z" class="g2_260" />
<path d="M73.9,767.3l773.4,0l0,-0.7l-773.4,0l0,0.7Z" class="g2_260" />
<path d="M73.9,793.7l773.4,0l0,-4.5l-773.4,0l0,4.5Z" class="g2_260" />
<path d="M73.9,816.2l773.4,0l0,-0.7l-773.4,0l0,0.7Z" class="g2_260" />
<path d="M73.9,840.7l773.4,0l0,-0.8l-773.4,0l0,0.8Z" class="g2_260" />
<path d="M73.9,865.2l773.4,0l0,-0.8l-773.4,0l0,0.8Z" class="g2_260" />
<path d="M73.9,889.5l773.4,0l0,-0.7l-773.4,0l0,0.7Z" class="g2_260" />
<path d="M73.9,914l773.4,0l0,-0.7l-773.4,0l0,0.7Z" class="g2_260" />
<path d="M73.9,938.5l773.4,0l0,-0.7l-773.4,0l0,0.7Z" class="g2_260" />
<path d="M73.9,962.9l773.4,0l0,-0.8l-773.4,0l0,0.8Z" class="g2_260" />
<path d="M73.9,987.3l773.4,0l0,-0.7l-773.4,0l0,0.7Z" class="g2_260" />
</svg>