<?xml version="1.0" encoding="UTF-8" standalone="no"?>
<!DOCTYPE svg PUBLIC "-//W3C//DTD SVG 1.1//EN"
"http://www.w3.org/Graphics/SVG/1.1/DTD/svg11.dtd">
<svg viewBox="0 0 935 1210" version="1.1" xmlns="http://www.w3.org/2000/svg" xmlns:xlink="http://www.w3.org/1999/xlink">
<defs>
<style type="text/css"><![CDATA[
.g1_882{
fill: #FFFFFF;
}
.g2_882{
}
]]></style>
</defs>
<path d="M165,1149.3l687.5,0l0,-21.2l-687.5,0l0,21.2Z" class="g1_882" />
<path d="M68.8,1149.3l82.5,0l0,-21.2l-82.5,0l0,21.2Z" class="g1_882" />
<path d="M68.9,901.1l0.8,0l0,-775.4l-0.8,0l0,775.4Z" class="g2_882" />
<path d="M382.5,901.8l0.8,0l0,-776.9l-0.8,0l0,776.9Z" class="g2_882" />
<path d="M420.4,901.8l0.7,0l0,-776.9l-0.7,0l0,776.9Z" class="g2_882" />
<path d="M493.7,901.8l0.8,0l0,-776.9l-0.8,0l0,776.9Z" class="g2_882" />
<path d="M573.1,901.8l0.7,0l0,-776.9l-0.7,0l0,776.9Z" class="g2_882" />
<path d="M851.4,901.1l0.7,0l0,-775.4l-0.7,0l0,775.4Z" class="g2_882" />
<path d="M68.9,125.7l783.3,0l0,-0.8l-783.3,0l0,0.8Z" class="g2_882" />
<path d="M68.9,179.1l783.3,0l0,-0.7l-783.3,0l0,0.7Z" class="g2_882" />
<path d="M68.9,223.4l783.3,0l0,-0.7l-783.3,0l0,0.7Z" class="g2_882" />
<path d="M68.9,267.8l783.3,0l0,-0.8L68.9,267l0,0.8Z" class="g2_882" />
<path d="M68.9,312l783.3,0l0,-0.7l-783.3,0l0,0.7Z" class="g2_882" />
<path d="M68.9,356.3l783.3,0l0,-0.7l-783.3,0l0,0.7Z" class="g2_882" />
<path d="M68.9,400.7l783.3,0l0,-0.8l-783.3,0l0,0.8Z" class="g2_882" />
<path d="M68.9,444.9l783.3,0l0,-0.7l-783.3,0l0,0.7Z" class="g2_882" />
<path d="M68.9,501.5l783.3,0l0,-0.7l-783.3,0l0,0.7Z" class="g2_882" />
<path d="M68.9,545.8l783.3,0l0,-0.7l-783.3,0l0,0.7Z" class="g2_882" />
<path d="M68.9,602.3l783.3,0l0,-0.7l-783.3,0l0,0.7Z" class="g2_882" />
<path d="M68.9,658.9l783.3,0l0,-0.7l-783.3,0l0,0.7Z" class="g2_882" />
<path d="M68.9,715.4l783.3,0l0,-0.8l-783.3,0l0,0.8Z" class="g2_882" />
<path d="M68.9,771.9l783.3,0l0,-0.7l-783.3,0l0,0.7Z" class="g2_882" />
<path d="M68.9,828.5l783.3,0l0,-0.8l-783.3,0l0,0.8Z" class="g2_882" />
<path d="M68.9,901.8l783.3,0l0,-0.7l-783.3,0l0,0.7Z" class="g2_882" />
<path d="M69.1,1082.9l0.8,0l0,-48.2l-0.8,0l0,48.2Z" class="g2_882" />
<path d="M135.2,1083.6l0.7,0l0,-49.6l-0.7,0l0,49.6Z" class="g2_882" />
<path d="M306,1083.6l0.7,0l0,-49.6l-0.7,0l0,49.6Z" class="g2_882" />
<path d="M484.8,1083.6l0.8,0l0,-49.6l-0.8,0l0,49.6Z" class="g2_882" />
<path d="M663,1083.6l0.8,0l0,-49.6l-0.8,0l0,49.6Z" class="g2_882" />
<path d="M851.3,1082.9l0.7,0l0,-48.2l-0.7,0l0,48.2Z" class="g2_882" />
<path d="M69.1,1034.7l782.9,0l0,-0.7l-782.9,0l0,0.7Z" class="g2_882" />
<path d="M69.1,1059.1l782.9,0l0,-0.7l-782.9,0l0,0.7Z" class="g2_882" />
<path d="M69.1,1083.6l782.9,0l0,-0.7l-782.9,0l0,0.7Z" class="g2_882" />
</svg>