<?xml version="1.0" encoding="UTF-8" standalone="no"?>
<!DOCTYPE svg PUBLIC "-//W3C//DTD SVG 1.1//EN"
"http://www.w3.org/Graphics/SVG/1.1/DTD/svg11.dtd">
<svg viewBox="0 0 935 1210" version="1.1" xmlns="http://www.w3.org/2000/svg" xmlns:xlink="http://www.w3.org/1999/xlink">
<defs>
<style type="text/css"><![CDATA[
.g1_419{
fill: #FFFFFF;
}
.g2_419{
}
]]></style>
</defs>
<path d="M68.9,1149.3l686.3,0l0,-21.2l-686.3,0l0,21.2Z" class="g1_419" />
<path d="M771.3,1149.3l83.7,0l0,-21.2l-83.7,0l0,21.2Z" class="g1_419" />
<path d="M69.7,192.1l0.7,0l0,-60.3l-0.7,0l0,60.3Z" class="g2_419" />
<path d="M179.8,192.9l0.7,0l0,-61.9l-0.7,0l0,61.9Z" class="g2_419" />
<path d="M351.4,192.9l0.7,0l0,-61.9l-0.7,0l0,61.9Z" class="g2_419" />
<path d="M412.4,192.9l0.7,0l0,-61.9l-0.7,0l0,61.9Z" class="g2_419" />
<path d="M494.6,192.9l0.8,0l0,-61.9l-0.8,0l0,61.9Z" class="g2_419" />
<path d="M852.3,192.1l0.8,0l0,-60.3l-0.8,0l0,60.3Z" class="g2_419" />
<path d="M69.7,131.7l783.3,0l0,-0.7L69.7,131l0,0.7Z" class="g2_419" />
<path d="M69.7,169.9l783.3,0l0,-0.7l-783.3,0l0,0.7Z" class="g2_419" />
<path d="M69.7,192.9l783.3,0l0,-0.8l-783.3,0l0,0.8Z" class="g2_419" />
<path d="M71.7,639.7l0.7,0l0,-228.3l-0.7,0l0,228.3Z" class="g2_419" />
<path d="M448.4,640.6l0.8,0l0,-230l-0.8,0l0,230Z" class="g2_419" />
<path d="M850.4,639.7l0.7,0l0,-228.3l-0.7,0l0,228.3Z" class="g2_419" />
<path d="M71.6,411.4l779.5,0l0,-0.7l-779.5,0l0,0.7Z" class="g2_419" />
<path d="M71.6,434.3l779.5,0l0,-0.7l-779.5,0l0,0.7Z" class="g2_419" />
<path d="M71.6,457.2l779.5,0l0,-0.7l-779.5,0l0,0.7Z" class="g2_419" />
<path d="M71.6,480.2l779.5,0l0,-0.8l-779.5,0l0,0.8Z" class="g2_419" />
<path d="M71.6,503.1l779.5,0l0,-0.8l-779.5,0l0,0.8Z" class="g2_419" />
<path d="M71.6,526l779.5,0l0,-0.8l-779.5,0l0,0.8Z" class="g2_419" />
<path d="M71.6,548.9l779.5,0l0,-0.7l-779.5,0l0,0.7Z" class="g2_419" />
<path d="M71.6,571.8l779.5,0l0,-0.7l-779.5,0l0,0.7Z" class="g2_419" />
<path d="M71.6,594.7l779.5,0l0,-0.7L71.6,594l0,0.7Z" class="g2_419" />
<path d="M71.6,617.7l779.5,0l0,-0.8l-779.5,0l0,0.8Z" class="g2_419" />
<path d="M71.6,640.6l779.5,0l0,-0.8l-779.5,0l0,0.8Z" class="g2_419" />
</svg>