<?xml version="1.0" encoding="UTF-8" standalone="no"?>
<!DOCTYPE svg PUBLIC "-//W3C//DTD SVG 1.1//EN"
"http://www.w3.org/Graphics/SVG/1.1/DTD/svg11.dtd">
<svg viewBox="0 0 935 1210" version="1.1" xmlns="http://www.w3.org/2000/svg" xmlns:xlink="http://www.w3.org/1999/xlink">
<defs>
<style type="text/css"><![CDATA[
.g1_30{
fill: #FFFFFF;
}
.g2_30{
}
]]></style>
</defs>
<path d="M68.8,1149.3l783.7,0l0,-21.2l-783.7,0l0,21.2Z" class="g1_30" />
<path d="M170.5,1018.7l0.7,0l0,-246.8l-0.7,0l0,246.8Z" class="g2_30" />
<path d="M749.8,1018.7l0.8,0l0,-246.8l-0.8,0l0,246.8Z" class="g2_30" />
<path d="M170.5,771.9l580.1,0l0,-0.7l-580.1,0l0,0.7Z" class="g2_30" />
<path d="M170.5,1019.4l580.1,0l0,-0.7l-580.1,0l0,0.7Z" class="g2_30" />
<path d="M389.8,828.7l0.7,0l0,-0.4l-0.7,0l0,0.4Z" class="g2_30" />
<path d="M389.8,962.7l0.7,0l0,-134l-0.7,0l0,134Z" class="g2_30" />
<path d="M329.9,829.5l241.5,0l0,-1.6l-241.5,0l0,1.6Z" class="g2_30" />
<path d="M569.8,964.2l1.6,0l0,-135.5l-1.6,0l0,135.5Z" class="g2_30" />
<path d="M329.2,964.2l241.3,0l0,-1.5l-241.3,0l0,1.5Z" class="g2_30" />
<path d="M329.2,963.4l1.5,0l0,-135.5l-1.5,0l0,135.5Z" class="g2_30" />
<path d="M329.5,846.4l0.4,0l0,-0.8l-0.4,0l0,0.8Z" class="g2_30" />
<path d="M329.9,846.4l241,0l0,-0.8l-241,0l0,0.8Z" class="g2_30" />
<path d="M330.6,862.6l0.3,0l0,-0.7l-0.3,0l0,0.7Z" class="g2_30" />
<path d="M330.9,862.6l239,0l0,-0.7l-239,0l0,0.7Z" class="g2_30" />
<path d="M330,879.9l0.4,0l0,-0.7l-0.4,0l0,0.7Z" class="g2_30" />
<path d="M330.4,879.9l239.5,0l0,-0.7l-239.5,0l0,0.7Z" class="g2_30" />
<path d="M330.6,896.7l0.3,0l0,-0.8l-0.3,0l0,0.8Z" class="g2_30" />
<path d="M330.9,896.7l239.5,0l0,-0.8l-239.5,0l0,0.8Z" class="g2_30" />
<path d="M330.6,913.5l0.3,0l0,-0.8l-0.3,0l0,0.8Z" class="g2_30" />
<path d="M330.9,913.5l240,0l0,-0.8l-240,0l0,0.8Z" class="g2_30" />
<path d="M330,929.7l0.4,0l0,-0.7l-0.4,0l0,0.7Z" class="g2_30" />
<path d="M330.4,929.7l240.5,0l0,-0.7l-240.5,0l0,0.7Z" class="g2_30" />
<path d="M330,946.5l0.4,0l0,-0.8l-0.4,0l0,0.8Z" class="g2_30" />
<path d="M330.4,946.5l239.5,0l0,-0.8l-239.5,0l0,0.8Z" class="g2_30" />
<path d="M449.3,828.7l0.8,0l0,-0.4l-0.8,0l0,0.4Z" class="g2_30" />
<path d="M449.3,963.8l0.8,0l0,-135.1l-0.8,0l0,135.1Z" class="g2_30" />
<path d="M510,829.2l0.8,0l0,-0.4l-0.8,0l0,0.4Z" class="g2_30" />
<path d="M510,963.2l0.8,0l0,-134l-0.8,0l0,134Z" class="g2_30" />
<path d="M592.4,819.9l2.4,0l0,-0.5l-2.4,0l0,0.5Z" class="g2_30" />
<path d="M593,819.2l1.7,3l1,1.6l-1.8,-0.4l-11,-3l0,-1.4l11,-3l1.8,-0.4l-1,1.5l-0.4,0.4l-11,2.9l0,-1.4l11,2.9l-0.4,1.5L593.4,823l-1.8,-3Z" class="g2_30" />
<path d="M594.7,817.1L593,820l-1.4,0l-0.3,-0.4l0.3,-0.4l1.8,-2.9Z" class="g2_30" />
<path fill-rule="evenodd" d="M592.4,819.7l1.7,2.9l-11,-2.9l11,-2.9Z" class="g2_30" />
<path d="M594.6,820l0.2,0l0,-0.5l-0.2,0l0,0.5Z" class="g2_30" />
<path d="M594.8,820l9.2,0l0,-0.5l-9.2,0l0,0.5Z" class="g2_30" />
<path d="M581.3,984.6l0.4,0l0,-2.5l-0.4,0l0,2.5Z" class="g2_30" />
<path d="M581.8,982.8l-2.9,1.6l-1.6,0.9l0.5,-1.7l3.6,-13.8l0.8,2.7l3,11l0.5,1.7l-1.6,-0.8l-0.4,-0.5l-3,-10.9l1.5,-0.5l0,0.5l-3,10.9l-1.4,-0.3l0.3,-0.6l3,-1.6Z" class="g2_30" />
<path d="M584.1,984.4l-3,-1.6l0,-1.4l0.3,-0.2l0.4,0.2l3,1.6Z" class="g2_30" />
<path fill-rule="evenodd" d="M581.4,982.1l-2.9,1.7l2.9,-11l3.1,11Z" class="g2_30" />
<path d="M581.3,984.6l0.4,0l0,-0.2l-0.4,0l0,0.2Z" class="g2_30" />
<path d="M581.3,995l0.4,0l0,-10.4l-0.4,0l0,10.4Z" class="g2_30" />
</svg>