<?xml version="1.0" encoding="UTF-8" standalone="no"?>
<!DOCTYPE svg PUBLIC "-//W3C//DTD SVG 1.1//EN"
"http://www.w3.org/Graphics/SVG/1.1/DTD/svg11.dtd">
<svg viewBox="0 0 935 1210" version="1.1" xmlns="http://www.w3.org/2000/svg" xmlns:xlink="http://www.w3.org/1999/xlink">
<defs>
<style type="text/css"><![CDATA[
.g1_1249{
fill: #FFFFFF;
}
.g2_1249{
}
]]></style>
</defs>
<path d="M68.9,1149.3l686.3,0l0,-21.2l-686.3,0l0,21.2Z" class="g1_1249" />
<path d="M771.3,1149.3l83.7,0l0,-21.2l-83.7,0l0,21.2Z" class="g1_1249" />
<path d="M72.1,690.2l0.7,0l0,-582.9l-0.7,0l0,582.9Z" class="g2_1249" />
<path d="M220.6,648.2l0.7,0l0,-541.6l-0.7,0l0,541.6Z" class="g2_1249" />
<path d="M389,648.2l0.8,0l0,-541.6l-0.8,0l0,541.6Z" class="g2_1249" />
<path d="M426.9,648.2l0.7,0l0,-541.6l-0.7,0l0,541.6Z" class="g2_1249" />
<path d="M500.2,648.2l0.8,0l0,-541.6l-0.8,0l0,541.6Z" class="g2_1249" />
<path d="M571.6,648.2l0.8,0l0,-541.6l-0.8,0l0,541.6Z" class="g2_1249" />
<path d="M849.9,690.2l0.8,0l0,-582.9l-0.8,0l0,582.9Z" class="g2_1249" />
<path d="M72.1,107.3l778.6,0l0,-0.7l-778.6,0l0,0.7Z" class="g2_1249" />
<path d="M72.1,145.5l778.6,0l0,-0.8l-778.6,0l0,0.8Z" class="g2_1249" />
<path d="M72.1,168.4l778.6,0l0,-0.7l-778.6,0l0,0.7Z" class="g2_1249" />
<path d="M72.1,191.3l778.6,0l0,-0.7l-778.6,0l0,0.7Z" class="g2_1249" />
<path d="M72.1,214.2l778.6,0l0,-0.7l-778.6,0l0,0.7Z" class="g2_1249" />
<path d="M72.1,258.6l778.6,0l0,-0.7l-778.6,0l0,0.7Z" class="g2_1249" />
<path d="M72.1,281.5l778.6,0l0,-0.7l-778.6,0l0,0.7Z" class="g2_1249" />
<path d="M72.1,304.4l778.6,0l0,-0.7l-778.6,0l0,0.7Z" class="g2_1249" />
<path d="M72.1,327.3l778.6,0l0,-0.7l-778.6,0l0,0.7Z" class="g2_1249" />
<path d="M72.1,350.3l778.6,0l0,-0.8l-778.6,0l0,0.8Z" class="g2_1249" />
<path d="M72.1,373.2l778.6,0l0,-0.8l-778.6,0l0,0.8Z" class="g2_1249" />
<path d="M72.1,396.1l778.6,0l0,-0.7l-778.6,0l0,0.7Z" class="g2_1249" />
<path d="M72.1,419l778.6,0l0,-0.7l-778.6,0l0,0.7Z" class="g2_1249" />
<path d="M72.1,441.9l778.6,0l0,-0.7l-778.6,0l0,0.7Z" class="g2_1249" />
<path d="M72.1,464.8l778.6,0l0,-0.7l-778.6,0l0,0.7Z" class="g2_1249" />
<path d="M72.1,487.8l778.6,0l0,-0.8L72.1,487l0,0.8Z" class="g2_1249" />
<path d="M72.1,510.7l778.6,0l0,-0.8l-778.6,0l0,0.8Z" class="g2_1249" />
<path d="M72.1,533.6l778.6,0l0,-0.7l-778.6,0l0,0.7Z" class="g2_1249" />
<path d="M72.1,556.5l778.6,0l0,-0.7l-778.6,0l0,0.7Z" class="g2_1249" />
<path d="M72.1,579.4l778.6,0l0,-0.7l-778.6,0l0,0.7Z" class="g2_1249" />
<path d="M72.1,602.3l778.6,0l0,-0.7l-778.6,0l0,0.7Z" class="g2_1249" />
<path d="M72.1,625.3l778.6,0l0,-0.8l-778.6,0l0,0.8Z" class="g2_1249" />
<path d="M72.1,648.2l778.6,0l0,-0.8l-778.6,0l0,0.8Z" class="g2_1249" />
<path d="M72.1,691l778.6,0l0,-0.7l-778.6,0l0,0.7Z" class="g2_1249" />
<path d="M71,791.1l0.8,0l0,-48.2l-0.8,0l0,48.2Z" class="g2_1249" />
<path d="M136.7,791.8l0.7,0l0,-49.7l-0.7,0l0,49.7Z" class="g2_1249" />
<path d="M314.2,791.8l0.8,0l0,-49.7l-0.8,0l0,49.7Z" class="g2_1249" />
<path d="M485.7,791.8l0.8,0l0,-49.7l-0.8,0l0,49.7Z" class="g2_1249" />
<path d="M660.1,791.8l0.7,0l0,-49.7l-0.7,0l0,49.7Z" class="g2_1249" />
<path d="M850.9,791.1l0.8,0l0,-48.2l-0.8,0l0,48.2Z" class="g2_1249" />
<path d="M71,742.9l780.7,0l0,-0.8L71,742.1l0,0.8Z" class="g2_1249" />
<path d="M71,767.3l780.7,0l0,-0.7L71,766.6l0,0.7Z" class="g2_1249" />
<path d="M71,791.8l780.7,0l0,-0.7L71,791.1l0,0.7Z" class="g2_1249" />
</svg>