<?xml version="1.0" encoding="UTF-8" standalone="no"?>
<!DOCTYPE svg PUBLIC "-//W3C//DTD SVG 1.1//EN"
"http://www.w3.org/Graphics/SVG/1.1/DTD/svg11.dtd">
<svg viewBox="0 0 935 1210" version="1.1" xmlns="http://www.w3.org/2000/svg" xmlns:xlink="http://www.w3.org/1999/xlink">
<defs>
<style type="text/css"><![CDATA[
.g1_1030{
fill: #FFFFFF;
}
.g2_1030{
}
]]></style>
</defs>
<path d="M165,1149.3l687.5,0l0,-21.2l-687.5,0l0,21.2Z" class="g1_1030" />
<path d="M68.8,1149.3l82.5,0l0,-21.2l-82.5,0l0,21.2Z" class="g1_1030" />
<path d="M67.8,574.1l0.8,0l0,-448.4l-0.8,0l0,448.4Z" class="g2_1030" />
<path d="M376.8,574.8l0.7,0l0,-449.9l-0.7,0l0,449.9Z" class="g2_1030" />
<path d="M414.6,574.8l0.7,0l0,-449.9l-0.7,0l0,449.9Z" class="g2_1030" />
<path d="M488,574.8l0.8,0l0,-449.9l-0.8,0l0,449.9Z" class="g2_1030" />
<path d="M566.2,574.8l0.8,0l0,-449.9l-0.8,0l0,449.9Z" class="g2_1030" />
<path d="M852.6,574.1l0.7,0l0,-448.4l-0.7,0l0,448.4Z" class="g2_1030" />
<path d="M67.8,125.7l785.5,0l0,-0.8l-785.5,0l0,0.8Z" class="g2_1030" />
<path d="M67.8,179.1l785.5,0l0,-0.7l-785.5,0l0,0.7Z" class="g2_1030" />
<path d="M67.8,235.7l785.5,0l0,-0.8l-785.5,0l0,0.8Z" class="g2_1030" />
<path d="M67.8,292.1l785.5,0l0,-0.7l-785.5,0l0,0.7Z" class="g2_1030" />
<path d="M67.8,348.7l785.5,0l0,-0.7L67.8,348l0,0.7Z" class="g2_1030" />
<path d="M67.8,405.3l785.5,0l0,-0.8l-785.5,0l0,0.8Z" class="g2_1030" />
<path d="M67.8,461.8l785.5,0l0,-0.7l-785.5,0l0,0.7Z" class="g2_1030" />
<path d="M67.8,518.3l785.5,0l0,-0.7l-785.5,0l0,0.7Z" class="g2_1030" />
<path d="M67.8,574.8l785.5,0l0,-0.7l-785.5,0l0,0.7Z" class="g2_1030" />
<path d="M69.7,804.8l0.7,0l0,-97l-0.7,0l0,97Z" class="g2_1030" />
<path d="M132.1,805.6l0.7,0l0,-98.6l-0.7,0l0,98.6Z" class="g2_1030" />
<path d="M309,805.6l0.7,0l0,-98.6l-0.7,0l0,98.6Z" class="g2_1030" />
<path d="M481.1,805.6l0.7,0l0,-98.6l-0.7,0l0,98.6Z" class="g2_1030" />
<path d="M666.2,805.6l0.8,0L667,707l-0.8,0l0,98.6Z" class="g2_1030" />
<path d="M850.8,804.8l0.7,0l0,-97l-0.7,0l0,97Z" class="g2_1030" />
<path d="M69.7,707.8l781.8,0l0,-0.8L69.7,707l0,0.8Z" class="g2_1030" />
<path d="M69.7,732.2l781.8,0l0,-0.7l-781.8,0l0,0.7Z" class="g2_1030" />
<path d="M69.7,756.6l781.8,0l0,-0.7l-781.8,0l0,0.7Z" class="g2_1030" />
<path d="M69.7,781.1l781.8,0l0,-0.7l-781.8,0l0,0.7Z" class="g2_1030" />
<path d="M69.7,805.6l781.8,0l0,-0.8l-781.8,0l0,0.8Z" class="g2_1030" />
</svg>