<?xml version="1.0" encoding="UTF-8" standalone="no"?>
<!DOCTYPE svg PUBLIC "-//W3C//DTD SVG 1.1//EN"
"http://www.w3.org/Graphics/SVG/1.1/DTD/svg11.dtd">
<svg viewBox="0 0 935 1210" version="1.1" xmlns="http://www.w3.org/2000/svg" xmlns:xlink="http://www.w3.org/1999/xlink">
<defs>
<style type="text/css"><![CDATA[
.g1_2125{
fill: #FFFFFF;
}
.g2_2125{
}
]]></style>
</defs>
<path d="M68.9,1149.3l783.8,0l0,-21.2l-783.8,0l0,21.2Z" class="g1_2125" />
<path d="M171.3,542.1l0.8,0l0,-254.4l-0.8,0l0,254.4Z" class="g2_2125" />
<path d="M750.7,542.1l0.7,0l0,-254.4l-0.7,0l0,254.4Z" class="g2_2125" />
<path d="M171.3,287.6l580.1,0l0,-0.8l-580.1,0l0,0.8Z" class="g2_2125" />
<path d="M171.3,542.9l580.1,0l0,-0.8l-580.1,0l0,0.8Z" class="g2_2125" />
<path d="M69.9,1093.7l0.8,0l0,-480.5l-0.8,0l0,480.5Z" class="g2_2125" />
<path d="M445.2,1094.4l0.8,0l0,-482.1l-0.8,0l0,482.1Z" class="g2_2125" />
<path d="M851.3,1093.7l0.7,0l0,-480.5l-0.7,0l0,480.5Z" class="g2_2125" />
<path d="M69.9,613.2l782.1,0l0,-0.8l-782.1,0l0,0.8Z" class="g2_2125" />
<path d="M69.9,637.5l782.1,0l0,-0.7l-782.1,0l0,0.7Z" class="g2_2125" />
<path d="M69.9,662L852,662l0,-0.7l-782.1,0l0,0.7Z" class="g2_2125" />
<path d="M69.9,686.5l782.1,0l0,-0.7l-782.1,0l0,0.7Z" class="g2_2125" />
<path d="M69.9,710.9l782.1,0l0,-0.8l-782.1,0l0,0.8Z" class="g2_2125" />
<path d="M69.9,735.4l782.1,0l0,-0.8l-782.1,0l0,0.8Z" class="g2_2125" />
<path d="M69.9,759.8l782.1,0l0,-0.7l-782.1,0l0,0.7Z" class="g2_2125" />
<path d="M69.9,784.2l782.1,0l0,-0.7l-782.1,0l0,0.7Z" class="g2_2125" />
<path d="M69.9,808.7l782.1,0l0,-0.7L69.9,808l0,0.7Z" class="g2_2125" />
<path d="M69.9,833.2l782.1,0l0,-0.8l-782.1,0l0,0.8Z" class="g2_2125" />
<path d="M69.9,857.5l782.1,0l0,-0.7l-782.1,0l0,0.7Z" class="g2_2125" />
<path d="M69.9,882L852,882l0,-0.7l-782.1,0l0,0.7Z" class="g2_2125" />
<path d="M69.9,923.3l782.1,0l0,-0.8l-782.1,0l0,0.8Z" class="g2_2125" />
<path d="M69.9,964.5l782.1,0l0,-0.7l-782.1,0l0,0.7Z" class="g2_2125" />
<path d="M69.9,989L852,989l0,-0.7l-782.1,0l0,0.7Z" class="g2_2125" />
<path d="M69.9,1030.2l782.1,0l0,-0.7l-782.1,0l0,0.7Z" class="g2_2125" />
<path d="M69.9,1054.6l782.1,0l0,-0.7l-782.1,0l0,0.7Z" class="g2_2125" />
<path d="M69.9,1094.4l782.1,0l0,-0.7l-782.1,0l0,0.7Z" class="g2_2125" />
<path d="M312.3,345.7l84,0l0,-21.5l-84,0l0,21.5Z" class="g1_2125" />
<path d="M312.3,324.6l84.3,0l0,-0.7l-84.3,0l0,0.7Z" class="g2_2125" />
<path d="M395.9,346l0.7,0l0,-21.8l-0.7,0l0,21.8Z" class="g2_2125" />
<path d="M311.9,346l84.4,0l0,-0.7l-84.4,0l0,0.7Z" class="g2_2125" />
<path d="M311.9,345.7l0.8,0l0,-21.8l-0.8,0l0,21.8Z" class="g2_2125" />
<path d="M395.6,345.7l82.5,0l0,-21.5l-82.5,0l0,21.5Z" class="g1_2125" />
<path d="M395.6,324.6l82.9,0l0,-0.7l-82.9,0l0,0.7Z" class="g2_2125" />
<path d="M477.8,346l0.7,0l0,-21.8l-0.7,0l0,21.8Z" class="g2_2125" />
<path d="M395.3,346l82.8,0l0,-0.7l-82.8,0l0,0.7Z" class="g2_2125" />
<path d="M395.3,345.7l0.7,0l0,-21.8l-0.7,0l0,21.8Z" class="g2_2125" />
<path d="M478.1,346.1l94.8,0l0,-22l-94.8,0l0,22Z" class="g1_2125" />
<path d="M478.1,324.5l95.2,0l0,-0.7l-95.2,0l0,0.7Z" class="g2_2125" />
<path d="M572.6,346.5l0.7,0l0,-22.4l-0.7,0l0,22.4Z" class="g2_2125" />
<path d="M477.8,346.5l95.1,0l0,-0.7l-95.1,0l0,0.7Z" class="g2_2125" />
<path d="M477.8,346.1l0.7,0l0,-22.3l-0.7,0l0,22.3Z" class="g2_2125" />
<path d="M351.4,456l-0.2,-0.2l-0.6,0.4l0.2,0.3Z" class="g2_2125" />
<path d="M351.4,456l2.1,2.3l-0.3,0.6l0,-0.7l8.4,0l0.2,0.1l2.1,2.3l0,0.5l-0.5,-0.5l2.3,-2.4l0.1,-0.2l0.1,0l0.3,0.6l-2.3,2.5l-0.3,0.3l-0.2,-0.3l-2.1,-2.3l0.5,-0.5l-0.3,0.6l-8.5,0l-0.1,-0.1l-2.1,-2.3Z" class="g2_2125" />
<path d="M365.9,458l8.3,0l0.3,0.6l-0.1,0.1l-8.5,0Z" class="g2_2125" />
<path d="M375.9,456l0.2,-0.3l0.6,0.4l-0.2,0.3Z" class="g2_2125" />
<path d="M373.9,458.2l0.6,0.4l2,-2.2L375.9,456Z" class="g2_2125" />
<path d="M222.9,347.4l-0.2,-0.2l-0.5,0.6l0.3,0.2Z" class="g2_2125" />
<path d="M222.9,347.4l6.5,6.2l-0.2,0.6l-0.1,0L229,354.1L222.5,348Z" class="g2_2125" />
<path d="M229.2,353.5l73.5,0l0.1,0.1l-0.3,0.6l-73.3,0Z" class="g2_2125" />
<path d="M309,359.5l0.3,0.3l-0.6,0.5l-0.2,-0.2Z" class="g2_2125" />
<path d="M302.8,353.6l-0.6,0.5l6.3,6l0.5,-0.6Z" class="g2_2125" />
<path d="M395.5,348.2l0.3,-0.2l-0.5,-0.6l-0.3,0.3Z" class="g2_2125" />
<path d="M395.5,348.2l-6.5,6.3l-0.1,0.1l-0.1,0l-0.3,-0.7l6.5,-6.2Z" class="g2_2125" />
<path d="M388.8,354.6l-73.5,0l-0.2,-0.7l0.1,-0.1l73.6,0Z" class="g2_2125" />
<path d="M309.4,360.4l-0.3,0.3l-0.5,-0.5l0.2,-0.3Z" class="g2_2125" />
<path d="M315.6,354.5l-0.5,-0.6l-6.3,6l0.6,0.5Z" class="g2_2125" />
<path d="M221.1,345.4l92.1,0l0,-21.3l-92.1,0l0,21.3Z" class="g1_2125" />
<path d="M221.1,324.5l92.5,0l0,-0.7l-92.5,0l0,0.7Z" class="g2_2125" />
<path d="M312.9,345.8l0.7,0l0,-21.7l-0.7,0l0,21.7Z" class="g2_2125" />
<path d="M220.7,345.8l92.5,0l0,-0.8l-92.5,0l0,0.8Z" class="g2_2125" />
<path d="M220.7,345.4l0.8,0l0,-21.6l-0.8,0l0,21.6Z" class="g2_2125" />
<path d="M394.3,452.4l82.5,0l0,-21.6l-82.5,0l0,21.6Z" class="g1_2125" />
<path d="M394.3,431.2l82.9,0l0,-0.7l-82.9,0l0,0.7Z" class="g2_2125" />
<path d="M476.5,452.7l0.7,0l0,-21.9l-0.7,0l0,21.9Z" class="g2_2125" />
<path d="M394,452.7l82.8,0l0,-0.7L394,452l0,0.7Z" class="g2_2125" />
<path d="M394,452.4l0.7,0l0,-21.9l-0.7,0l0,21.9Z" class="g2_2125" />
<path d="M310.2,452.5l84,0l0,-21.6l-84,0l0,21.6Z" class="g1_2125" />
<path d="M310.2,431.3l84.3,0l0,-0.7l-84.3,0l0,0.7Z" class="g2_2125" />
<path d="M393.8,452.8l0.7,0l0,-21.9l-0.7,0l0,21.9Z" class="g2_2125" />
<path d="M309.8,452.8l84.4,0l0,-0.7l-84.4,0l0,0.7Z" class="g2_2125" />
<path d="M309.8,452.5l0.8,0l0,-21.9l-0.8,0l0,21.9Z" class="g2_2125" />
<path d="M473.7,452.5l82.5,0l0,-21.6l-82.5,0l0,21.6Z" class="g1_2125" />
<path d="M473.7,431.3l82.9,0l0,-0.7l-82.9,0l0,0.7Z" class="g2_2125" />
<path d="M555.9,452.8l0.7,0l0,-21.9l-0.7,0l0,21.9Z" class="g2_2125" />
<path d="M473.4,452.8l82.8,0l0,-0.7l-82.8,0l0,0.7Z" class="g2_2125" />
<path d="M473.4,452.5l0.7,0l0,-21.9l-0.7,0l0,21.9Z" class="g2_2125" />
<path d="M557.1,452.3l94.7,0l0,-21.6l-94.7,0l0,21.6Z" class="g1_2125" />
<path d="M557.1,431l95.1,0l0,-0.7l-95.1,0l0,0.7Z" class="g2_2125" />
<path d="M651.5,452.7l0.7,0l0,-22l-0.7,0l0,22Z" class="g2_2125" />
<path d="M556.7,452.7l95.1,0l0,-0.8l-95.1,0l0,0.8Z" class="g2_2125" />
<path d="M556.7,452.3l0.7,0l0,-22l-0.7,0l0,22Z" class="g2_2125" />
<path d="M219,452.2l92.1,0l0,-21.3l-92.1,0l0,21.3Z" class="g1_2125" />
<path d="M219,431.3l92.5,0l0,-0.7l-92.5,0l0,0.7Z" class="g2_2125" />
<path d="M310.7,452.6l0.8,0l0,-21.7l-0.8,0l0,21.7Z" class="g2_2125" />
<path d="M218.6,452.6l92.5,0l0,-0.8l-92.5,0l0,0.8Z" class="g2_2125" />
<path d="M218.6,452.2l0.8,0l0,-21.6l-0.8,0l0,21.6Z" class="g2_2125" />
<path d="M219,470.4l-0.3,-0.1l-0.4,0.6l0.3,0.2Z" class="g2_2125" />
<path d="M219,470.4l9.6,6.2l-0.2,0.6l-0.2,0l-9.6,-6.1Z" class="g2_2125" />
<path d="M228.4,476.5l108.1,0l0.2,0.1l-0.2,0.6l-108.1,0Z" class="g2_2125" />
<path d="M346,482.5l0.2,0.2l-0.3,0.7l-0.3,-0.2Z" class="g2_2125" />
<path d="M336.7,476.6l-0.4,0.6l9.3,6l0.4,-0.7Z" class="g2_2125" />
<path d="M473.4,471.3l0.2,-0.1l-0.3,-0.7l-0.3,0.2Z" class="g2_2125" />
<path d="M473.4,471.3l-9.7,6.2l-0.1,0l-0.2,-0.7l9.6,-6.1Z" class="g2_2125" />
<path d="M463.6,477.5l-108.1,0l-0.2,-0.7l0.2,0l108.1,0Z" class="g2_2125" />
<path d="M346.4,483.5l-0.3,0.1L345.8,483l0.2,-0.2Z" class="g2_2125" />
<path d="M355.7,477.5l-0.4,-0.7l-9.3,6l0.4,0.7Z" class="g2_2125" />
</svg>