<?xml version="1.0" encoding="UTF-8" standalone="no"?>
<!DOCTYPE svg PUBLIC "-//W3C//DTD SVG 1.1//EN"
"http://www.w3.org/Graphics/SVG/1.1/DTD/svg11.dtd">
<svg viewBox="0 0 935 1210" version="1.1" xmlns="http://www.w3.org/2000/svg" xmlns:xlink="http://www.w3.org/1999/xlink">
<defs>
<style type="text/css"><![CDATA[
.g1_766{
fill: #FFFFFF;
}
.g2_766{
}
]]></style>
</defs>
<path d="M165,1149.3l687.5,0l0,-21.2l-687.5,0l0,21.2Z" class="g1_766" />
<path d="M68.8,1149.3l82.5,0l0,-21.2l-82.5,0l0,21.2Z" class="g1_766" />
<path d="M68.6,445.8l0.7,0l0,-320.1l-0.7,0l0,320.1Z" class="g2_766" />
<path d="M289.9,446.5l0.7,0l0,-321.6l-0.7,0l0,321.6Z" class="g2_766" />
<path d="M334.5,446.5l0.7,0l0,-321.6l-0.7,0l0,321.6Z" class="g2_766" />
<path d="M409,446.5l0.8,0l0,-321.6l-0.8,0l0,321.6Z" class="g2_766" />
<path d="M492.9,446.5l0.7,0l0,-321.6l-0.7,0l0,321.6Z" class="g2_766" />
<path d="M851.9,445.8l0.7,0l0,-320.1l-0.7,0l0,320.1Z" class="g2_766" />
<path d="M68.6,125.7l784,0l0,-0.8l-784,0l0,0.8Z" class="g2_766" />
<path d="M68.6,176.1l784,0l0,-0.7l-784,0l0,0.7Z" class="g2_766" />
<path d="M68.6,212.8l784,0l0,-0.8l-784,0l0,0.8Z" class="g2_766" />
<path d="M68.6,249.4l784,0l0,-0.7l-784,0l0,0.7Z" class="g2_766" />
<path d="M68.6,286.1l784,0l0,-0.7l-784,0l0,0.7Z" class="g2_766" />
<path d="M68.6,339.5l784,0l0,-0.7l-784,0l0,0.7Z" class="g2_766" />
<path d="M68.6,393l784,0l0,-0.8l-784,0l0,0.8Z" class="g2_766" />
<path d="M68.6,446.5l784,0l0,-0.7l-784,0l0,0.7Z" class="g2_766" />
<path d="M70.8,574.1l0.7,0l0,-72.6l-0.7,0l0,72.6Z" class="g2_766" />
<path d="M195.1,574.8l0.7,0l0,-74l-0.7,0l0,74Z" class="g2_766" />
<path d="M358.1,574.8l0.8,0l0,-74l-0.8,0l0,74Z" class="g2_766" />
<path d="M526.3,574.8l0.7,0l0,-74l-0.7,0l0,74Z" class="g2_766" />
<path d="M688.4,574.8l0.7,0l0,-74l-0.7,0l0,74Z" class="g2_766" />
<path d="M849.7,574.1l0.7,0l0,-72.6l-0.7,0l0,72.6Z" class="g2_766" />
<path d="M70.8,501.5l779.6,0l0,-0.7l-779.6,0l0,0.7Z" class="g2_766" />
<path d="M70.8,526l779.6,0l0,-0.8l-779.6,0l0,0.8Z" class="g2_766" />
<path d="M70.8,550.4l779.6,0l0,-0.8l-779.6,0l0,0.8Z" class="g2_766" />
<path d="M70.8,574.8l779.6,0l0,-0.7l-779.6,0l0,0.7Z" class="g2_766" />
<path d="M157.7,982l0.7,0l0,-158.1l-0.7,0l0,158.1Z" class="g2_766" />
<path d="M762.8,982l0.7,0l0,-158.1l-0.7,0l0,158.1Z" class="g2_766" />
<path d="M157.7,823.9l605.8,0l0,-0.7l-605.8,0l0,0.7Z" class="g2_766" />
<path d="M157.7,982.8l605.8,0l0,-0.8l-605.8,0l0,0.8Z" class="g2_766" />
<path fill-rule="evenodd" d="M620.4,924.6l0.4,0l0.2,0c1.4,-0.8,1.2,-2.5,-0.2,-3l-0.7,0l-0.2,0.1l-0.6,0.4l-0.2,0.2l-0.1,0.2l-0.1,0.3l0,0.7l0.1,0.2l0.1,0.3l0.2,0.2l0.6,0.4l0.2,0l0.3,0Z" class="g2_766" />
<path d="M620.4,923.2l7.6,0l-0.3,1l-6.6,22.9l-0.7,2.6l-0.7,-2.6l-6.5,-22.9l-0.3,-1l1,0l0.7,0.5l6.5,22.9l-1.4,0.5l0,-0.5l6.6,-22.9l1.4,0.5l-0.7,0.5l-6.6,0Z" class="g2_766" />
<path d="M613.9,924.7l6.5,0l0,-1.5l-6.5,0l0,1.5Z" class="g2_766" />
<path fill-rule="evenodd" d="M620.4,923.9l6.6,0l-6.6,22.9l-6.5,-22.9Z" class="g2_766" />
<path d="M618.9,923.1l3.1,0l0,-56l-3.1,0l0,56Z" class="g2_766" />
<path d="M419.3,867.1l56.7,0l0,-20.7l-56.7,0l0,20.7Z" class="g1_766" />
<path d="M419.3,846.8l57.1,0l0,-0.7l-57.1,0l0,0.7Z" class="g2_766" />
<path d="M475.7,867.4l0.7,0l0,-21l-0.7,0l0,21Z" class="g2_766" />
<path d="M418.9,867.4l57.1,0l0,-0.7l-57.1,0l0,0.7Z" class="g2_766" />
<path d="M418.9,867.1l0.7,0l0,-21l-0.7,0l0,21Z" class="g2_766" />
<path d="M362.6,867.1l56.7,0l0,-20.7l-56.7,0l0,20.7Z" class="g1_766" />
<path d="M362.6,846.8l57,0l0,-0.7l-57,0l0,0.7Z" class="g2_766" />
<path d="M418.9,867.4l0.7,0l0,-21l-0.7,0l0,21Z" class="g2_766" />
<path d="M362.3,867.4l57,0l0,-0.7l-57,0l0,0.7Z" class="g2_766" />
<path d="M362.3,867.1l0.7,0l0,-21l-0.7,0l0,21Z" class="g2_766" />
<path d="M305.9,867.1l56.7,0l0,-20.7l-56.7,0l0,20.7Z" class="g1_766" />
<path d="M305.9,846.8l57.1,0l0,-0.7l-57.1,0l0,0.7Z" class="g2_766" />
<path d="M362.3,867.4l0.7,0l0,-21l-0.7,0l0,21Z" class="g2_766" />
<path d="M305.5,867.4l57.1,0l0,-0.7l-57.1,0l0,0.7Z" class="g2_766" />
<path d="M305.5,867.1l0.8,0l0,-21l-0.8,0l0,21Z" class="g2_766" />
<path d="M249.2,867.1l56.7,0l0,-20.7l-56.7,0l0,20.7Z" class="g1_766" />
<path d="M249.2,846.8l57.1,0l0,-0.7l-57.1,0l0,0.7Z" class="g2_766" />
<path d="M305.5,867.4l0.8,0l0,-21l-0.8,0l0,21Z" class="g2_766" />
<path d="M248.8,867.4l57.1,0l0,-0.7l-57.1,0l0,0.7Z" class="g2_766" />
<path d="M248.8,867.1l0.7,0l0,-21l-0.7,0l0,21Z" class="g2_766" />
<path d="M646.2,970.2l56.7,0l0,-20.6l-56.7,0l0,20.6Z" class="g1_766" />
<path d="M646.2,949.9l57.1,0l0,-0.7l-57.1,0l0,0.7Z" class="g2_766" />
<path d="M702.5,970.6l0.8,0l0,-21l-0.8,0l0,21Z" class="g2_766" />
<path d="M645.8,970.6l57.1,0l0,-0.8l-57.1,0l0,0.8Z" class="g2_766" />
<path d="M645.8,970.2l0.7,0l0,-21l-0.7,0l0,21Z" class="g2_766" />
<path d="M589.5,970.2l56.7,0l0,-20.6l-56.7,0l0,20.6Z" class="g1_766" />
<path d="M589.5,949.9l57,0l0,-0.7l-57,0l0,0.7Z" class="g2_766" />
<path d="M645.8,970.6l0.7,0l0,-21l-0.7,0l0,21Z" class="g2_766" />
<path d="M589.1,970.6l57.1,0l0,-0.8l-57.1,0l0,0.8Z" class="g2_766" />
<path d="M589.1,970.2l0.8,0l0,-21l-0.8,0l0,21Z" class="g2_766" />
<path d="M532.8,970.2l56.7,0l0,-20.6l-56.7,0l0,20.6Z" class="g1_766" />
<path d="M532.8,949.9l57.1,0l0,-0.7l-57.1,0l0,0.7Z" class="g2_766" />
<path d="M589.1,970.6l0.8,0l0,-21l-0.8,0l0,21Z" class="g2_766" />
<path d="M532.4,970.6l57.1,0l0,-0.8l-57.1,0l0,0.8Z" class="g2_766" />
<path d="M532.4,970.2l0.7,0l0,-21l-0.7,0l0,21Z" class="g2_766" />
<path d="M476,970.2l56.8,0l0,-20.6l-56.8,0l0,20.6Z" class="g1_766" />
<path d="M476,949.9l57.1,0l0,-0.7l-57.1,0l0,0.7Z" class="g2_766" />
<path d="M532.4,970.6l0.7,0l0,-21l-0.7,0l0,21Z" class="g2_766" />
<path d="M475.7,970.6l57.1,0l0,-0.8l-57.1,0l0,0.8Z" class="g2_766" />
<path d="M475.7,970.2l0.7,0l0,-21l-0.7,0l0,21Z" class="g2_766" />
<path d="M419.3,970.2l56.7,0l0,-20.6l-56.7,0l0,20.6Z" class="g1_766" />
<path d="M419.3,949.9l57.1,0l0,-0.7l-57.1,0l0,0.7Z" class="g2_766" />
<path d="M475.7,970.6l0.7,0l0,-21l-0.7,0l0,21Z" class="g2_766" />
<path d="M418.9,970.6l57.1,0l0,-0.8l-57.1,0l0,0.8Z" class="g2_766" />
<path d="M418.9,970.2l0.7,0l0,-21l-0.7,0l0,21Z" class="g2_766" />
<path d="M362.6,970.2l56.7,0l0,-20.6l-56.7,0l0,20.6Z" class="g1_766" />
<path d="M362.6,949.9l57,0l0,-0.7l-57,0l0,0.7Z" class="g2_766" />
<path d="M418.9,970.6l0.7,0l0,-21l-0.7,0l0,21Z" class="g2_766" />
<path d="M362.3,970.6l57,0l0,-0.8l-57,0l0,0.8Z" class="g2_766" />
<path d="M362.3,970.2l0.7,0l0,-21l-0.7,0l0,21Z" class="g2_766" />
<path d="M305.9,970.2l56.7,0l0,-20.6l-56.7,0l0,20.6Z" class="g1_766" />
<path d="M305.9,949.9l57.1,0l0,-0.7l-57.1,0l0,0.7Z" class="g2_766" />
<path d="M362.3,970.6l0.7,0l0,-21l-0.7,0l0,21Z" class="g2_766" />
<path d="M305.5,970.6l57.1,0l0,-0.8l-57.1,0l0,0.8Z" class="g2_766" />
<path d="M305.5,970.2l0.8,0l0,-21l-0.8,0l0,21Z" class="g2_766" />
<path d="M249.2,970.2l56.7,0l0,-20.6l-56.7,0l0,20.6Z" class="g1_766" />
<path d="M249.2,949.9l57.1,0l0,-0.7l-57.1,0l0,0.7Z" class="g2_766" />
<path d="M305.5,970.6l0.8,0l0,-21l-0.8,0l0,21Z" class="g2_766" />
<path d="M248.8,970.6l57.1,0l0,-0.8l-57.1,0l0,0.8Z" class="g2_766" />
<path d="M248.8,970.2l0.7,0l0,-21l-0.7,0l0,21Z" class="g2_766" />
<path d="M646.2,867.1l56.7,0l0,-20.7l-56.7,0l0,20.7Z" class="g1_766" />
<path d="M646.2,846.8l57.1,0l0,-0.7l-57.1,0l0,0.7Z" class="g2_766" />
<path d="M702.5,867.4l0.8,0l0,-21l-0.8,0l0,21Z" class="g2_766" />
<path d="M645.8,867.4l57.1,0l0,-0.7l-57.1,0l0,0.7Z" class="g2_766" />
<path d="M645.8,867.1l0.7,0l0,-21l-0.7,0l0,21Z" class="g2_766" />
<path d="M589.5,867.1l56.7,0l0,-20.7l-56.7,0l0,20.7Z" class="g1_766" />
<path d="M589.5,846.8l57,0l0,-0.7l-57,0l0,0.7Z" class="g2_766" />
<path d="M645.8,867.4l0.7,0l0,-21l-0.7,0l0,21Z" class="g2_766" />
<path d="M589.1,867.4l57.1,0l0,-0.7l-57.1,0l0,0.7Z" class="g2_766" />
<path d="M589.1,867.1l0.8,0l0,-21l-0.8,0l0,21Z" class="g2_766" />
<path d="M532.8,867.1l56.7,0l0,-20.7l-56.7,0l0,20.7Z" class="g1_766" />
<path d="M532.8,846.8l57.1,0l0,-0.7l-57.1,0l0,0.7Z" class="g2_766" />
<path d="M589.1,867.4l0.8,0l0,-21l-0.8,0l0,21Z" class="g2_766" />
<path d="M532.4,867.4l57.1,0l0,-0.7l-57.1,0l0,0.7Z" class="g2_766" />
<path d="M532.4,867.1l0.7,0l0,-21l-0.7,0l0,21Z" class="g2_766" />
<path d="M476,867.1l56.8,0l0,-20.7l-56.8,0l0,20.7Z" class="g1_766" />
<path d="M476,846.8l57.1,0l0,-0.7l-57.1,0l0,0.7Z" class="g2_766" />
<path d="M532.4,867.4l0.7,0l0,-21l-0.7,0l0,21Z" class="g2_766" />
<path d="M475.7,867.4l57.1,0l0,-0.7l-57.1,0l0,0.7Z" class="g2_766" />
<path d="M475.7,867.1l0.7,0l0,-21l-0.7,0l0,21Z" class="g2_766" />
<path d="M620.4,909.9l51.6,0l0,-3l-51.6,0l0,3Z" class="g2_766" />
<path fill-rule="evenodd" d="M672,924.6l0.3,0l0.3,0c1.4,-0.7,1.2,-2.6,-0.3,-3l-0.7,0c-1.4,0.5,-1.6,2.2,-0.2,3l0.2,0l0.4,0Z" class="g2_766" />
<path d="M672,923.2l7.5,0l-0.3,1l-6.5,22.9l-0.7,2.6l-0.7,-2.6l-6.6,-22.9l-0.3,-1l1,0l0.7,0.5l6.6,22.9l-1.4,0.5l0,-0.5l6.5,-22.9l1.4,0.5l-0.7,0.5l-6.5,0Z" class="g2_766" />
<path d="M665.4,924.7l6.6,0l0,-1.5l-6.6,0l0,1.5Z" class="g2_766" />
<path fill-rule="evenodd" d="M672,923.9l6.5,0L672,946.8l-6.6,-22.9Z" class="g2_766" />
<path d="M670.5,923.1l3.1,0l0,-14.8l-3.1,0l0,14.8Z" class="g2_766" />
<path fill-rule="evenodd" d="M507,924.6l0.3,0l0.3,0c1.4,-0.8,1.1,-2.5,-0.3,-3l-0.7,0c-1.4,0.5,-1.6,2.2,-0.2,3l0.2,0l0.4,0Z" class="g2_766" />
<path d="M507,923.2l7.5,0l-0.3,1l-6.5,22.9l-0.7,2.6l-0.7,-2.6l-6.6,-22.9l-0.3,-1l1,0l0.7,0.5l6.6,22.9l-1.4,0.5l0,-0.5l6.5,-22.9l1.4,0.5l-0.7,0.5l-6.5,0Z" class="g2_766" />
<path d="M500.4,924.7l6.6,0l0,-1.5l-6.6,0l0,1.5Z" class="g2_766" />
<path fill-rule="evenodd" d="M507,923.9l6.5,0L507,946.8l-6.6,-22.9Z" class="g2_766" />
<path d="M505.5,923.1l3.1,0l0,-56l-3.1,0l0,56Z" class="g2_766" />
<path d="M507,909.9l51.5,0l0,-3l-51.5,0l0,3Z" class="g2_766" />
<path fill-rule="evenodd" d="M558.5,924.6l0.4,0l0.3,0l0.1,-0.2l0.3,-0.2l0.2,-0.2l0.2,-0.3l0,-0.2l0.1,-0.4L560,922.8l0,-0.3l-0.2,-0.2l-0.2,-0.2l-0.3,-0.2l-0.1,-0.2l-0.3,-0.1l-0.7,0c-1.5,0.4,-1.7,2.3,-0.2,3l0.2,0l0.3,0Z" class="g2_766" />
<path d="M558.5,923.2l7.6,0l-0.2,1l-6.6,22.9l-0.8,2.6l-0.7,-2.6l-6.5,-22.9l-0.3,-1l1,0l0.7,0.5l6.6,22.9l-1.5,0.5l0,-0.5l6.6,-22.9l1.5,0.5l-0.8,0.5l-6.6,0Z" class="g2_766" />
<path d="M552,924.7l6.5,0l0,-1.5l-6.5,0l0,1.5Z" class="g2_766" />
<path fill-rule="evenodd" d="M558.5,923.9l6.6,0l-6.6,22.9L552,923.9Z" class="g2_766" />
<path d="M557.1,923.1l3,0l0,-14.8l-3,0l0,14.8Z" class="g2_766" />
<path fill-rule="evenodd" d="M393.5,924.6l0.3,0l0.4,0l0.1,-0.2l0.3,-0.2l0.2,-0.2l0.2,-0.5l0.1,-0.4l-0.3,-0.8l-0.2,-0.2l-0.3,-0.2l-0.1,-0.2l-0.4,-0.1l-0.6,0c-1.5,0.4,-1.7,2.3,-0.2,3l0.2,0l0.3,0Z" class="g2_766" />
<path d="M393.5,923.2l7.6,0l-0.2,1l-6.6,22.9l-0.8,2.6l-0.7,-2.6l-6.6,-22.9l-0.3,-1l1,0l0.8,0.5l6.6,22.9l-1.5,0.5l0,-0.5l6.6,-22.9l1.5,0.5l-0.8,0.5l-6.6,0Z" class="g2_766" />
<path d="M386.9,924.7l6.6,0l0,-1.5l-6.6,0l0,1.5Z" class="g2_766" />
<path fill-rule="evenodd" d="M393.5,923.9l6.6,0l-6.6,22.9l-6.6,-22.9Z" class="g2_766" />
<path d="M392.1,923.1l3,0l0,-56l-3,0l0,56Z" class="g2_766" />
<path d="M393.5,909.9l51.6,0l0,-3l-51.6,0l0,3Z" class="g2_766" />
<path fill-rule="evenodd" d="M445.1,924.6l0.3,0l0.3,0c1.4,-0.8,1.2,-2.5,-0.3,-3l-0.6,0c-1.5,0.5,-1.7,2.2,-0.3,3l0.3,0l0.3,0Z" class="g2_766" />
<path d="M445.1,923.2l7.6,0l-0.3,1l-6.5,22.9l-0.8,2.6l-0.7,-2.6l-6.6,-22.9l-0.3,-1l1,0l0.8,0.5l6.6,22.9l-1.5,0.5l0,-0.5l6.5,-22.9l1.5,0.5l-0.8,0.5l-6.5,0Z" class="g2_766" />
<path d="M438.5,924.7l6.6,0l0,-1.5l-6.6,0l0,1.5Z" class="g2_766" />
<path fill-rule="evenodd" d="M445.1,923.9l6.5,0l-6.5,22.9l-6.6,-22.9Z" class="g2_766" />
<path d="M443.7,923.1l3,0l0,-14.8l-3,0l0,14.8Z" class="g2_766" />
<path fill-rule="evenodd" d="M280.1,924.6l0.3,0l0.3,0c1.4,-0.8,1.2,-2.5,-0.3,-3l-0.6,0c-1.5,0.5,-1.7,2.2,-0.3,3l0.3,0l0.3,0Z" class="g2_766" />
<path d="M280.1,923.2l7.6,0l-0.3,1l-6.5,22.9l-0.8,2.6l-0.7,-2.6l-6.6,-22.9l-0.3,-1l1,0l0.8,0.5l6.6,22.9l-1.5,0.5l0,-0.5l6.5,-22.9l1.5,0.5l-0.8,0.5l-6.5,0Z" class="g2_766" />
<path d="M273.5,924.7l6.6,0l0,-1.5l-6.6,0l0,1.5Z" class="g2_766" />
<path fill-rule="evenodd" d="M280.1,923.9l6.5,0l-6.5,22.9l-6.6,-22.9Z" class="g2_766" />
<path d="M278.7,923.1l3,0l0,-56l-3,0l0,56Z" class="g2_766" />
<path d="M280.1,909.9l51.6,0l0,-3l-51.6,0l0,3Z" class="g2_766" />
<path fill-rule="evenodd" d="M331.7,924.6l0.2,0l0.4,0l0.2,-0.2l0.3,-0.2l0.1,-0.2l0.2,-0.5l0.1,-0.4l-0.3,-0.8l-0.1,-0.2l-0.3,-0.2l-0.2,-0.2l-0.4,-0.1l-0.5,0c-1.5,0.4,-1.7,2.3,-0.3,3l0.3,0l0.3,0Z" class="g2_766" />
<path d="M331.7,923.2l7.6,0l-0.3,1l-6.6,22.9l-0.7,2.6l-0.8,-2.6l-6.6,-22.9l-0.3,-1l1,0l0.8,0.5l6.6,22.9l-1.5,0.5l0,-0.5l6.6,-22.9l1.5,0.5l-0.7,0.5l-6.6,0Z" class="g2_766" />
<path d="M325,924.7l6.7,0l0,-1.5l-6.7,0l0,1.5Z" class="g2_766" />
<path fill-rule="evenodd" d="M331.7,923.9l6.6,0l-6.6,22.9L325,923.9Z" class="g2_766" />
<path d="M330.2,923.1l3,0l0,-14.8l-3,0l0,14.8Z" class="g2_766" />
</svg>