<?xml version="1.0" encoding="UTF-8" standalone="no"?>
<!DOCTYPE svg PUBLIC "-//W3C//DTD SVG 1.1//EN"
"http://www.w3.org/Graphics/SVG/1.1/DTD/svg11.dtd">
<svg viewBox="0 0 935 1210" version="1.1" xmlns="http://www.w3.org/2000/svg" xmlns:xlink="http://www.w3.org/1999/xlink">
<defs>
<style type="text/css"><![CDATA[
.g1_590{
fill: #FFFFFF;
}
.g2_590{
}
]]></style>
</defs>
<path d="M165,1149.3l687.5,0l0,-21.2l-687.5,0l0,21.2Z" class="g1_590" />
<path d="M68.8,1149.3l82.5,0l0,-21.2l-82.5,0l0,21.2Z" class="g1_590" />
<path d="M70.1,600.1l0.8,0l0,-474.4l-0.8,0l0,474.4Z" class="g2_590" />
<path d="M219.7,600.8l0.8,0l0,-475.9l-0.8,0l0,475.9Z" class="g2_590" />
<path d="M389.4,600.8l0.7,0l0,-475.9l-0.7,0l0,475.9Z" class="g2_590" />
<path d="M427.3,600.8l0.7,0l0,-475.9l-0.7,0l0,475.9Z" class="g2_590" />
<path d="M500.6,600.8l0.7,0l0,-475.9l-0.7,0l0,475.9Z" class="g2_590" />
<path d="M572,600.8l0.7,0l0,-475.9l-0.7,0l0,475.9Z" class="g2_590" />
<path d="M850.3,600.1l0.7,0l0,-474.4l-0.7,0l0,474.4Z" class="g2_590" />
<path d="M70.1,125.7l780.9,0l0,-0.8l-780.9,0l0,0.8Z" class="g2_590" />
<path d="M70.1,163.8l780.9,0l0,-0.7l-780.9,0l0,0.7Z" class="g2_590" />
<path d="M70.1,203.6l780.9,0l0,-0.7l-780.9,0l0,0.7Z" class="g2_590" />
<path d="M70.1,260.1l780.9,0l0,-0.8l-780.9,0l0,0.8Z" class="g2_590" />
<path d="M70.1,299.8l780.9,0l0,-0.7l-780.9,0l0,0.7Z" class="g2_590" />
<path d="M70.1,356.3l780.9,0l0,-0.7l-780.9,0l0,0.7Z" class="g2_590" />
<path d="M70.1,396.1l780.9,0l0,-0.7l-780.9,0l0,0.7Z" class="g2_590" />
<path d="M70.1,435.8l780.9,0l0,-0.8L70.1,435l0,0.8Z" class="g2_590" />
<path d="M70.1,458.7l780.9,0l0,-0.7L70.1,458l0,0.7Z" class="g2_590" />
<path d="M70.1,481.6l780.9,0l0,-0.7l-780.9,0l0,0.7Z" class="g2_590" />
<path d="M70.1,521.4l780.9,0l0,-0.7l-780.9,0l0,0.7Z" class="g2_590" />
<path d="M70.1,561.1l780.9,0l0,-0.7l-780.9,0l0,0.7Z" class="g2_590" />
<path d="M70.1,600.8l780.9,0l0,-0.7l-780.9,0l0,0.7Z" class="g2_590" />
<path d="M70.2,728.4l0.8,0l0,-72.6l-0.8,0l0,72.6Z" class="g2_590" />
<path d="M135.8,729.1l0.7,0l0,-74.1l-0.7,0l0,74.1Z" class="g2_590" />
<path d="M309.7,729.1l0.8,0l0,-74.1l-0.8,0l0,74.1Z" class="g2_590" />
<path d="M487,729.1l0.8,0l0,-74.1l-0.8,0l0,74.1Z" class="g2_590" />
<path d="M663.6,729.1l0.7,0l0,-74.1l-0.7,0l0,74.1Z" class="g2_590" />
<path d="M850.1,728.4l0.7,0l0,-72.6l-0.7,0l0,72.6Z" class="g2_590" />
<path d="M70.2,655.8l780.7,0l0,-0.7l-780.7,0l0,0.7Z" class="g2_590" />
<path d="M70.2,680.3l780.7,0l0,-0.8l-780.7,0l0,0.8Z" class="g2_590" />
<path d="M70.2,704.7l780.7,0l0,-0.7L70.2,704l0,0.7Z" class="g2_590" />
<path d="M70.2,729.1l780.7,0l0,-0.7l-780.7,0l0,0.7Z" class="g2_590" />
</svg>