<?xml version="1.0" encoding="UTF-8" standalone="no"?>
<!DOCTYPE svg PUBLIC "-//W3C//DTD SVG 1.1//EN"
"http://www.w3.org/Graphics/SVG/1.1/DTD/svg11.dtd">
<svg viewBox="0 0 935 1210" version="1.1" xmlns="http://www.w3.org/2000/svg" xmlns:xlink="http://www.w3.org/1999/xlink">
<defs>
<style type="text/css"><![CDATA[
.g1_804{
fill: #FFFFFF;
}
.g2_804{
}
]]></style>
</defs>
<path d="M165,1149.3l687.5,0l0,-21.2l-687.5,0l0,21.2Z" class="g1_804" />
<path d="M68.8,1149.3l82.5,0l0,-21.2l-82.5,0l0,21.2Z" class="g1_804" />
<path d="M68.6,335.8l0.7,0l0,-210.1l-0.7,0l0,210.1Z" class="g2_804" />
<path d="M309.1,336.5l0.7,0l0,-211.6l-0.7,0l0,211.6Z" class="g2_804" />
<path d="M357.1,336.5l0.8,0l0,-211.6l-0.8,0l0,211.6Z" class="g2_804" />
<path d="M431.7,336.5l0.7,0l0,-211.6l-0.7,0l0,211.6Z" class="g2_804" />
<path d="M513.5,336.5l0.8,0l0,-211.6l-0.8,0l0,211.6Z" class="g2_804" />
<path d="M850.8,335.8l0.7,0l0,-210.1l-0.7,0l0,210.1Z" class="g2_804" />
<path d="M68.6,125.7l783,0l0,-0.8l-783,0l0,0.8Z" class="g2_804" />
<path d="M68.6,176.1l783,0l0,-0.7l-783,0l0,0.7Z" class="g2_804" />
<path d="M68.6,229.5l783,0l0,-0.7l-783,0l0,0.7Z" class="g2_804" />
<path d="M68.6,283l783,0l0,-0.8l-783,0l0,0.8Z" class="g2_804" />
<path d="M68.6,336.5l783,0l0,-0.7l-783,0l0,0.7Z" class="g2_804" />
<path d="M70,488.5l0.8,0l0,-97l-0.8,0l0,97Z" class="g2_804" />
<path d="M186.7,489.3l0.8,0l0,-98.5l-0.8,0l0,98.5Z" class="g2_804" />
<path d="M354.7,489.3l0.7,0l0,-98.5l-0.7,0l0,98.5Z" class="g2_804" />
<path d="M522.8,489.3l0.7,0l0,-98.5l-0.7,0l0,98.5Z" class="g2_804" />
<path d="M685.4,489.3l0.7,0l0,-98.5l-0.7,0l0,98.5Z" class="g2_804" />
<path d="M850.4,488.5l0.7,0l0,-97l-0.7,0l0,97Z" class="g2_804" />
<path d="M70,391.5l781.1,0l0,-0.7L70,390.8l0,0.7Z" class="g2_804" />
<path d="M70,416l781.1,0l0,-0.7L70,415.3l0,0.7Z" class="g2_804" />
<path d="M70,440.4l781.1,0l0,-0.8L70,439.6l0,0.8Z" class="g2_804" />
<path d="M70,464.8l781.1,0l0,-0.7L70,464.1l0,0.7Z" class="g2_804" />
<path d="M70,489.3l781.1,0l0,-0.7L70,488.6l0,0.7Z" class="g2_804" />
</svg>