<?xml version="1.0" encoding="UTF-8" standalone="no"?>
<!DOCTYPE svg PUBLIC "-//W3C//DTD SVG 1.1//EN"
"http://www.w3.org/Graphics/SVG/1.1/DTD/svg11.dtd">
<svg viewBox="0 0 935 1210" version="1.1" xmlns="http://www.w3.org/2000/svg" xmlns:xlink="http://www.w3.org/1999/xlink">
<defs>
<style type="text/css"><![CDATA[
.g1_685{
fill: #FFFFFF;
}
.g2_685{
}
]]></style>
</defs>
<path d="M68.9,1149.3l686.3,0l0,-21.2l-686.3,0l0,21.2Z" class="g1_685" />
<path d="M771.3,1149.3l83.7,0l0,-21.2l-83.7,0l0,21.2Z" class="g1_685" />
<path d="M69.8,253.3l0.7,0l0,-127.6l-0.7,0l0,127.6Z" class="g2_685" />
<path d="M852.2,253.3l0.8,0l0,-127.6l-0.8,0l0,127.6Z" class="g2_685" />
<path d="M69.8,125.7l783.2,0l0,-0.8l-783.2,0l0,0.8Z" class="g2_685" />
<path d="M69.8,254L853,254l0,-0.7l-783.2,0l0,0.7Z" class="g2_685" />
<path d="M69.9,357.1l0.7,0l0,-48.1l-0.7,0l0,48.1Z" class="g2_685" />
<path d="M852.1,357.1l0.8,0l0,-48.1l-0.8,0l0,48.1Z" class="g2_685" />
<path d="M69.9,309l783,0l0,-0.7l-783,0l0,0.7Z" class="g2_685" />
<path d="M69.9,357.9l783,0l0,-0.8l-783,0l0,0.8Z" class="g2_685" />
</svg>