<?xml version="1.0" encoding="UTF-8" standalone="no"?>
<!DOCTYPE svg PUBLIC "-//W3C//DTD SVG 1.1//EN"
"http://www.w3.org/Graphics/SVG/1.1/DTD/svg11.dtd">
<svg viewBox="0 0 935 1210" version="1.1" xmlns="http://www.w3.org/2000/svg" xmlns:xlink="http://www.w3.org/1999/xlink">
<defs>
<style type="text/css"><![CDATA[
.g1_1666{
fill: #FFFFFF;
}
.g2_1666{
}
]]></style>
</defs>
<path d="M165,1149.3l687.5,0l0,-21.2l-687.5,0l0,21.2Z" class="g1_1666" />
<path d="M68.8,1149.3l82.5,0l0,-21.2l-82.5,0l0,21.2Z" class="g1_1666" />
<path d="M68.6,571l0.7,0l0,-424l-0.7,0l0,424Z" class="g2_1666" />
<path d="M323,571.8l0.8,0l0,-425.5l-0.8,0l0,425.5Z" class="g2_1666" />
<path d="M371.4,571.8l0.8,0l0,-425.5l-0.8,0l0,425.5Z" class="g2_1666" />
<path d="M445.9,571.8l0.7,0l0,-425.5l-0.7,0l0,425.5Z" class="g2_1666" />
<path d="M531.8,571.8l0.8,0l0,-425.5l-0.8,0l0,425.5Z" class="g2_1666" />
<path d="M853.4,571l0.7,0l0,-424l-0.7,0l0,424Z" class="g2_1666" />
<path d="M68.6,147l785.6,0l0,-0.7l-785.6,0l0,0.7Z" class="g2_1666" />
<path d="M68.6,197.4l785.6,0l0,-0.7l-785.6,0l0,0.7Z" class="g2_1666" />
<path d="M68.6,250.9l785.6,0l0,-0.7l-785.6,0l0,0.7Z" class="g2_1666" />
<path d="M68.6,304.4l785.6,0l0,-0.7l-785.6,0l0,0.7Z" class="g2_1666" />
<path d="M68.6,357.9l785.6,0l0,-0.8l-785.6,0l0,0.8Z" class="g2_1666" />
<path d="M68.6,411.4l785.6,0l0,-0.7l-785.6,0l0,0.7Z" class="g2_1666" />
<path d="M68.6,464.8l785.6,0l0,-0.7l-785.6,0l0,0.7Z" class="g2_1666" />
<path d="M68.6,518.3l785.6,0l0,-0.7l-785.6,0l0,0.7Z" class="g2_1666" />
<path d="M68.6,571.8l785.6,0l0,-0.7l-785.6,0l0,0.7Z" class="g2_1666" />
<path d="M70.9,699.3l0.8,0l0,-72.5l-0.8,0l0,72.5Z" class="g2_1666" />
<path d="M199.8,700.2l0.8,0l0,-74.2l-0.8,0l0,74.2Z" class="g2_1666" />
<path d="M358.6,700.2l0.7,0l0,-74.2l-0.7,0l0,74.2Z" class="g2_1666" />
<path d="M523.2,700.2l0.8,0L524,626l-0.8,0l0,74.2Z" class="g2_1666" />
<path d="M686.4,700.2l0.7,0l0,-74.2l-0.7,0l0,74.2Z" class="g2_1666" />
<path d="M849.5,699.3l0.7,0l0,-72.5l-0.7,0l0,72.5Z" class="g2_1666" />
<path d="M70.9,626.8l779.3,0l0,-0.7l-779.3,0l0,0.7Z" class="g2_1666" />
<path d="M70.9,651.2l779.3,0l0,-0.7l-779.3,0l0,0.7Z" class="g2_1666" />
<path d="M70.9,675.7l779.3,0l0,-0.8l-779.3,0l0,0.8Z" class="g2_1666" />
<path d="M70.9,700.2l779.3,0l0,-0.8l-779.3,0l0,0.8Z" class="g2_1666" />
</svg>