<?xml version="1.0" encoding="UTF-8" standalone="no"?>
<!DOCTYPE svg PUBLIC "-//W3C//DTD SVG 1.1//EN"
"http://www.w3.org/Graphics/SVG/1.1/DTD/svg11.dtd">
<svg viewBox="0 0 935 1210" version="1.1" xmlns="http://www.w3.org/2000/svg" xmlns:xlink="http://www.w3.org/1999/xlink">
<defs>
<style type="text/css"><![CDATA[
.g1_1472{
fill: #FFFFFF;
}
.g2_1472{
}
]]></style>
</defs>
<path d="M165,1149.3l687.5,0l0,-21.2l-687.5,0l0,21.2Z" class="g1_1472" />
<path d="M68.8,1149.3l82.5,0l0,-21.2l-82.5,0l0,21.2Z" class="g1_1472" />
<path d="M68.6,352.6l0.7,0l0,-226.9l-0.7,0l0,226.9Z" class="g2_1472" />
<path d="M308.2,353.3l0.7,0l0,-228.4l-0.7,0l0,228.4Z" class="g2_1472" />
<path d="M351.7,353.3l0.8,0l0,-228.4l-0.8,0l0,228.4Z" class="g2_1472" />
<path d="M426.2,353.3l0.7,0l0,-228.4l-0.7,0l0,228.4Z" class="g2_1472" />
<path d="M511.1,353.3l0.8,0l0,-228.4l-0.8,0l0,228.4Z" class="g2_1472" />
<path d="M849.6,352.6l0.7,0l0,-226.9l-0.7,0l0,226.9Z" class="g2_1472" />
<path d="M68.6,125.7l781.7,0l0,-0.8l-781.7,0l0,0.8Z" class="g2_1472" />
<path d="M68.6,176.1l781.7,0l0,-0.7l-781.7,0l0,0.7Z" class="g2_1472" />
<path d="M68.6,229.5l781.7,0l0,-0.7l-781.7,0l0,0.7Z" class="g2_1472" />
<path d="M68.6,283l781.7,0l0,-0.8l-781.7,0l0,0.8Z" class="g2_1472" />
<path d="M68.6,353.3l781.7,0l0,-0.7l-781.7,0l0,0.7Z" class="g2_1472" />
<path d="M71.2,456.4l0.8,0l0,-48.1l-0.8,0l0,48.1Z" class="g2_1472" />
<path d="M187.6,457.2l0.8,0l0,-49.6l-0.8,0l0,49.6Z" class="g2_1472" />
<path d="M342.9,457.2l0.8,0l0,-49.6l-0.8,0l0,49.6Z" class="g2_1472" />
<path d="M510.3,457.2l0.7,0l0,-49.6l-0.7,0l0,49.6Z" class="g2_1472" />
<path d="M682.6,457.2l0.8,0l0,-49.6l-0.8,0l0,49.6Z" class="g2_1472" />
<path d="M849.2,456.4l0.7,0l0,-48.1l-0.7,0l0,48.1Z" class="g2_1472" />
<path d="M71.2,408.3l778.7,0l0,-0.8l-778.7,0l0,0.8Z" class="g2_1472" />
<path d="M71.2,432.8l778.7,0l0,-0.8L71.2,432l0,0.8Z" class="g2_1472" />
<path d="M71.2,457.2l778.7,0l0,-0.7l-778.7,0l0,0.7Z" class="g2_1472" />
</svg>