<?xml version="1.0" encoding="UTF-8" standalone="no"?>
<!DOCTYPE svg PUBLIC "-//W3C//DTD SVG 1.1//EN"
"http://www.w3.org/Graphics/SVG/1.1/DTD/svg11.dtd">
<svg viewBox="0 0 935 1210" version="1.1" xmlns="http://www.w3.org/2000/svg" xmlns:xlink="http://www.w3.org/1999/xlink">
<defs>
<style type="text/css"><![CDATA[
.g1_1379{
fill: #FFFFFF;
}
.g2_1379{
}
]]></style>
</defs>
<path d="M68.9,1149.3l686.3,0l0,-21.2l-686.3,0l0,21.2Z" class="g1_1379" />
<path d="M771.3,1149.3l83.7,0l0,-21.2l-83.7,0l0,21.2Z" class="g1_1379" />
<path d="M69.9,335.8l0.8,0l0,-210.1l-0.8,0l0,210.1Z" class="g2_1379" />
<path d="M323.9,336.5l0.7,0l0,-211.6l-0.7,0l0,211.6Z" class="g2_1379" />
<path d="M369.4,336.5l0.8,0l0,-211.6l-0.8,0l0,211.6Z" class="g2_1379" />
<path d="M443.9,336.5l0.8,0l0,-211.6l-0.8,0l0,211.6Z" class="g2_1379" />
<path d="M528.1,336.5l0.7,0l0,-211.6l-0.7,0l0,211.6Z" class="g2_1379" />
<path d="M854.6,335.8l0.7,0l0,-210.1l-0.7,0l0,210.1Z" class="g2_1379" />
<path d="M69.9,125.7l785.4,0l0,-0.8l-785.4,0l0,0.8Z" class="g2_1379" />
<path d="M69.9,176.1l785.4,0l0,-0.7l-785.4,0l0,0.7Z" class="g2_1379" />
<path d="M69.9,229.5l785.4,0l0,-0.7l-785.4,0l0,0.7Z" class="g2_1379" />
<path d="M69.9,283l785.4,0l0,-0.8l-785.4,0l0,0.8Z" class="g2_1379" />
<path d="M69.9,336.5l785.4,0l0,-0.7l-785.4,0l0,0.7Z" class="g2_1379" />
<path d="M70.5,439.6l0.7,0l0,-48.1l-0.7,0l0,48.1Z" class="g2_1379" />
<path d="M851.5,439.6l0.7,0l0,-48.1l-0.7,0l0,48.1Z" class="g2_1379" />
<path d="M70.5,391.5l781.8,0l0,-0.7l-781.8,0l0,0.7Z" class="g2_1379" />
<path d="M70.5,440.4l781.8,0l0,-0.8l-781.8,0l0,0.8Z" class="g2_1379" />
</svg>