<?xml version="1.0" encoding="UTF-8" standalone="no"?>
<!DOCTYPE svg PUBLIC "-//W3C//DTD SVG 1.1//EN"
"http://www.w3.org/Graphics/SVG/1.1/DTD/svg11.dtd">
<svg viewBox="0 0 935 1210" version="1.1" xmlns="http://www.w3.org/2000/svg" xmlns:xlink="http://www.w3.org/1999/xlink">
<defs>
<style type="text/css"><![CDATA[
.g1_1078{
fill: #FFFFFF;
}
.g2_1078{
}
]]></style>
</defs>
<path d="M165,1149.3l687.5,0l0,-21.2l-687.5,0l0,21.2Z" class="g1_1078" />
<path d="M68.8,1149.3l82.5,0l0,-21.2l-82.5,0l0,21.2Z" class="g1_1078" />
<path d="M69.6,207.4l0.7,0l0,-81.7l-0.7,0l0,81.7Z" class="g2_1078" />
<path d="M388.9,208.2l0.7,0l0,-83.3l-0.7,0l0,83.3Z" class="g2_1078" />
<path d="M426.6,208.2l0.8,0l0,-83.3l-0.8,0l0,83.3Z" class="g2_1078" />
<path d="M500,208.2l0.8,0l0,-83.3l-0.8,0l0,83.3Z" class="g2_1078" />
<path d="M571.5,208.2l0.7,0l0,-83.3l-0.7,0l0,83.3Z" class="g2_1078" />
<path d="M850.8,207.4l0.8,0l0,-81.7l-0.8,0l0,81.7Z" class="g2_1078" />
<path d="M69.5,125.7l782.1,0l0,-0.8l-782.1,0l0,0.8Z" class="g2_1078" />
<path d="M69.5,163.8l782.1,0l0,-0.7l-782.1,0l0,0.7Z" class="g2_1078" />
<path d="M69.5,208.2l782.1,0l0,-0.8l-782.1,0l0,0.8Z" class="g2_1078" />
<path d="M70.2,311.3l0.8,0l0,-48.1l-0.8,0l0,48.1Z" class="g2_1078" />
<path d="M137.8,312l0.7,0l0,-49.6l-0.7,0l0,49.6Z" class="g2_1078" />
<path d="M313.6,312l0.7,0l0,-49.6l-0.7,0l0,49.6Z" class="g2_1078" />
<path d="M496.4,312l0.7,0l0,-49.6l-0.7,0l0,49.6Z" class="g2_1078" />
<path d="M668.7,312l0.7,0l0,-49.6l-0.7,0l0,49.6Z" class="g2_1078" />
<path d="M850.1,311.3l0.7,0l0,-48.1l-0.7,0l0,48.1Z" class="g2_1078" />
<path d="M70.2,263.2l780.7,0l0,-0.8l-780.7,0l0,0.8Z" class="g2_1078" />
<path d="M70.2,287.6l780.7,0l0,-0.8l-780.7,0l0,0.8Z" class="g2_1078" />
<path d="M70.2,312l780.7,0l0,-0.7l-780.7,0l0,0.7Z" class="g2_1078" />
</svg>