<?xml version="1.0" encoding="UTF-8" standalone="no"?>
<!DOCTYPE svg PUBLIC "-//W3C//DTD SVG 1.1//EN"
"http://www.w3.org/Graphics/SVG/1.1/DTD/svg11.dtd">
<svg viewBox="0 0 935 1210" version="1.1" xmlns="http://www.w3.org/2000/svg" xmlns:xlink="http://www.w3.org/1999/xlink">
<defs>
<style type="text/css"><![CDATA[
.g1_755{
fill: #FFFFFF;
}
.g2_755{
}
]]></style>
</defs>
<path d="M68.9,1149.3l686.3,0l0,-21.2l-686.3,0l0,21.2Z" class="g1_755" />
<path d="M771.3,1149.3l83.7,0l0,-21.2l-83.7,0l0,21.2Z" class="g1_755" />
<path d="M70.2,523.7l0.8,0l0,-398l-0.8,0l0,398Z" class="g2_755" />
<path d="M329.4,524.4l0.7,0l0,-399.5l-0.7,0l0,399.5Z" class="g2_755" />
<path d="M386.6,524.4l0.7,0l0,-399.5l-0.7,0l0,399.5Z" class="g2_755" />
<path d="M457.7,524.4l0.7,0l0,-399.5l-0.7,0l0,399.5Z" class="g2_755" />
<path d="M529,524.4l0.7,0l0,-399.5l-0.7,0l0,399.5Z" class="g2_755" />
<path d="M851.8,523.7l0.7,0l0,-398l-0.7,0l0,398Z" class="g2_755" />
<path d="M70.2,125.7l782.3,0l0,-0.8l-782.3,0l0,0.8Z" class="g2_755" />
<path d="M70.2,179.1l782.3,0l0,-0.7l-782.3,0l0,0.7Z" class="g2_755" />
<path d="M70.2,223.4l782.3,0l0,-0.7l-782.3,0l0,0.7Z" class="g2_755" />
<path d="M70.2,267.8l782.3,0l0,-0.8L70.2,267l0,0.8Z" class="g2_755" />
<path d="M70.2,312l782.3,0l0,-0.7l-782.3,0l0,0.7Z" class="g2_755" />
<path d="M70.2,356.3l782.3,0l0,-0.7l-782.3,0l0,0.7Z" class="g2_755" />
<path d="M70.2,396.1l782.3,0l0,-0.7l-782.3,0l0,0.7Z" class="g2_755" />
<path d="M70.2,440.4l782.3,0l0,-0.8l-782.3,0l0,0.8Z" class="g2_755" />
<path d="M70.2,484.7l782.3,0l0,-0.7L70.2,484l0,0.7Z" class="g2_755" />
<path d="M70.2,524.4l782.3,0l0,-0.7l-782.3,0l0,0.7Z" class="g2_755" />
<path d="M71,700.9l0.8,0l0,-121.5l-0.8,0l0,121.5Z" class="g2_755" />
<path d="M136.2,701.6l0.8,0l0,-122.9l-0.8,0l0,122.9Z" class="g2_755" />
<path d="M314.8,701.6l0.7,0l0,-122.9l-0.7,0l0,122.9Z" class="g2_755" />
<path d="M497.8,701.6l0.8,0l0,-122.9l-0.8,0l0,122.9Z" class="g2_755" />
<path d="M675.4,701.6l0.7,0l0,-122.9l-0.7,0l0,122.9Z" class="g2_755" />
<path d="M850.9,700.9l0.8,0l0,-121.5l-0.8,0l0,121.5Z" class="g2_755" />
<path d="M71,579.4l780.7,0l0,-0.7L71,578.7l0,0.7Z" class="g2_755" />
<path d="M71,603.9l780.7,0l0,-0.7L71,603.2l0,0.7Z" class="g2_755" />
<path d="M71,628.3l780.7,0l0,-0.7L71,627.6l0,0.7Z" class="g2_755" />
<path d="M71,652.8l780.7,0l0,-0.8L71,652l0,0.8Z" class="g2_755" />
<path d="M71,677.2l780.7,0l0,-0.7L71,676.5l0,0.7Z" class="g2_755" />
<path d="M71,701.6l780.7,0l0,-0.7L71,700.9l0,0.7Z" class="g2_755" />
</svg>