<?xml version="1.0" encoding="UTF-8" standalone="no"?>
<!DOCTYPE svg PUBLIC "-//W3C//DTD SVG 1.1//EN"
"http://www.w3.org/Graphics/SVG/1.1/DTD/svg11.dtd">
<svg viewBox="0 0 935 1210" version="1.1" xmlns="http://www.w3.org/2000/svg" xmlns:xlink="http://www.w3.org/1999/xlink">
<defs>
<style type="text/css"><![CDATA[
.g1_457{
fill: #FFFFFF;
}
.g2_457{
}
]]></style>
</defs>
<path d="M68.9,1149.3l686.3,0l0,-21.2l-686.3,0l0,21.2Z" class="g1_457" />
<path d="M771.3,1149.3l83.7,0l0,-21.2l-83.7,0l0,21.2Z" class="g1_457" />
<path d="M69.4,329.6l0.7,0l0,-197.8l-0.7,0l0,197.8Z" class="g2_457" />
<path d="M203.8,330.4l0.7,0l0,-199.4l-0.7,0l0,199.4Z" class="g2_457" />
<path d="M345.3,330.4l0.7,0L346,131l-0.7,0l0,199.4Z" class="g2_457" />
<path d="M403.2,330.4l0.8,0L404,131l-0.8,0l0,199.4Z" class="g2_457" />
<path d="M483.4,330.4l0.7,0l0,-199.4l-0.7,0l0,199.4Z" class="g2_457" />
<path d="M852.6,329.6l0.7,0l0,-197.8l-0.7,0l0,197.8Z" class="g2_457" />
<path d="M69.4,131.7l783.9,0l0,-0.7L69.4,131l0,0.7Z" class="g2_457" />
<path d="M69.4,169.9l783.9,0l0,-0.7l-783.9,0l0,0.7Z" class="g2_457" />
<path d="M69.4,192.9l783.9,0l0,-0.8l-783.9,0l0,0.8Z" class="g2_457" />
<path d="M69.4,215.8l783.9,0l0,-0.8L69.4,215l0,0.8Z" class="g2_457" />
<path d="M69.4,238.7l783.9,0l0,-0.7L69.4,238l0,0.7Z" class="g2_457" />
<path d="M69.4,261.6l783.9,0l0,-0.7l-783.9,0l0,0.7Z" class="g2_457" />
<path d="M69.4,284.5l783.9,0l0,-0.7l-783.9,0l0,0.7Z" class="g2_457" />
<path d="M69.4,307.4l783.9,0l0,-0.7l-783.9,0l0,0.7Z" class="g2_457" />
<path d="M69.4,330.4l783.9,0l0,-0.8l-783.9,0l0,0.8Z" class="g2_457" />
</svg>