<?xml version="1.0" encoding="UTF-8" standalone="no"?>
<!DOCTYPE svg PUBLIC "-//W3C//DTD SVG 1.1//EN"
"http://www.w3.org/Graphics/SVG/1.1/DTD/svg11.dtd">
<svg viewBox="0 0 935 1210" version="1.1" xmlns="http://www.w3.org/2000/svg" xmlns:xlink="http://www.w3.org/1999/xlink">
<defs>
<style type="text/css"><![CDATA[
.g1_1714{
fill: #FFFFFF;
}
.g2_1714{
}
]]></style>
</defs>
<path d="M165,1149.3l687.5,0l0,-21.2l-687.5,0l0,21.2Z" class="g1_1714" />
<path d="M68.8,1149.3l82.5,0l0,-21.2l-82.5,0l0,21.2Z" class="g1_1714" />
<path d="M70.5,234.9l0.7,0l0,-109.2l-0.7,0l0,109.2Z" class="g2_1714" />
<path d="M380.6,235.7l0.7,0l0,-110.8l-0.7,0l0,110.8Z" class="g2_1714" />
<path d="M421.8,235.7l0.8,0l0,-110.8l-0.8,0l0,110.8Z" class="g2_1714" />
<path d="M495.2,235.7l0.7,0l0,-110.8l-0.7,0l0,110.8Z" class="g2_1714" />
<path d="M566.6,235.7l0.7,0l0,-110.8l-0.7,0l0,110.8Z" class="g2_1714" />
<path d="M849.9,234.9l0.8,0l0,-109.2l-0.8,0l0,109.2Z" class="g2_1714" />
<path d="M70.4,125.7l780.3,0l0,-0.8l-780.3,0l0,0.8Z" class="g2_1714" />
<path d="M70.4,179.1l780.3,0l0,-0.7l-780.3,0l0,0.7Z" class="g2_1714" />
<path d="M70.4,235.7l780.3,0l0,-0.8l-780.3,0l0,0.8Z" class="g2_1714" />
<path d="M70.9,338.8l0.7,0l0,-48.1l-0.7,0l0,48.1Z" class="g2_1714" />
<path d="M152.6,339.5l0.8,0l0,-49.6l-0.8,0l0,49.6Z" class="g2_1714" />
<path d="M320,339.5l0.7,0l0,-49.6l-0.7,0l0,49.6Z" class="g2_1714" />
<path d="M494.1,339.5l0.7,0l0,-49.6l-0.7,0l0,49.6Z" class="g2_1714" />
<path d="M665.2,339.5l0.8,0l0,-49.6l-0.8,0l0,49.6Z" class="g2_1714" />
<path d="M849.6,338.8l0.7,0l0,-48.1l-0.7,0l0,48.1Z" class="g2_1714" />
<path d="M70.8,290.7l779.5,0l0,-0.8l-779.5,0l0,0.8Z" class="g2_1714" />
<path d="M70.8,315.1l779.5,0l0,-0.8l-779.5,0l0,0.8Z" class="g2_1714" />
<path d="M70.8,339.5l779.5,0l0,-0.7l-779.5,0l0,0.7Z" class="g2_1714" />
<path fill-rule="evenodd" d="M388.3,688l0.1,0.2l0.2,0.3l0.5,0.4l0.3,0.1l0.6,0l0.5,-0.2l0.3,-0.2l0.2,-0.3l0.1,-0.2l0.1,-0.2l0,-0.7l-0.1,-0.3l0,-0.2c-0.8,-1.3,-2.9,-0.8,-2.9,0.7l0,0.3l0.1,0.3Z" class="g2_1714" />
<path d="M389.8,687.5l2.2,6.1l0.1,1l-0.9,0.1l-23.7,1.7l-2.7,0.2l2.1,-1.6l19.3,-14l0.9,-0.6l0.4,0.9l-0.3,0.9l-19.3,14l-1,-1.2l0.5,-0.2l23.7,-1.6l0.1,1.5l-0.7,-0.5L388.3,688Z" class="g2_1714" />
<path d="M387.5,681.3l2.3,6.2l-1.5,0.6L386,681.8Z" class="g2_1714" />
<path fill-rule="evenodd" d="M389,687.8l2.2,6.1l-23.7,1.7l19.2,-14.1Z" class="g2_1714" />
<path d="M592.4,615.4l-1.1,-2.8l-202,73.5l1,2.9Z" class="g2_1714" />
<path d="M478.3,614l226.9,0l0,-20.6l-226.9,0l0,20.6Z" class="g1_1714" />
<path d="M478.3,593.7l227.3,0l0,-0.7l-227.3,0l0,0.7Z" class="g2_1714" />
<path d="M704.8,614.3l0.8,0l0,-20.9l-0.8,0l0,20.9Z" class="g2_1714" />
<path d="M477.9,614.3l227.3,0l0,-0.7l-227.3,0l0,0.7Z" class="g2_1714" />
<path d="M477.9,614l0.8,0l0,-21l-0.8,0l0,21Z" class="g2_1714" />
<path fill-rule="evenodd" d="M591.8,671.6l0.5,-0.1c1.4,-0.5,1.2,-2.8,-0.2,-2.9l-0.3,-0.1l-0.4,0.1c-1.4,0.1,-1.6,2.4,-0.2,2.9l0.2,0.1l0.4,0Z" class="g2_1714" />
<path d="M591.8,670.1l7.5,0l-0.3,1L592.5,694l-0.7,2.6L591.1,694l-6.6,-22.9l-0.3,-1l1,0l0.7,0.5l6.6,22.9l-1.4,0.5l0,-0.5l6.5,-22.9l1.4,0.5l-0.7,0.5l-6.5,0Z" class="g2_1714" />
<path d="M585.2,671.6l6.6,0l0,-1.5l-6.6,0l0,1.5Z" class="g2_1714" />
<path fill-rule="evenodd" d="M591.8,670.8l6.5,0l-6.5,22.9l-6.6,-22.9Z" class="g2_1714" />
<path d="M590.3,670.1l3.1,0l0,-56.1l-3.1,0l0,56.1Z" class="g2_1714" />
<path fill-rule="evenodd" d="M568.3,688l0.1,-0.3l0,-0.3c0,-1.6,-2,-2,-2.8,-0.7l-0.1,0.2l-0.1,0.3l0,0.7l0.2,0.2l0.1,0.2l0.2,0.3l0.2,0.2l0.6,0.2l0.6,0l0.3,-0.1l0.2,-0.2l0.3,-0.2l0.1,-0.3l0.1,-0.2Z" class="g2_1714" />
<path d="M566.9,687.5l2.3,-6.2l0.4,-0.9l0.8,0.6l19.3,14l2.1,1.6l-2.7,-0.2l-23.7,-1.7l-1,-0.1l0.3,-1l0.8,-0.4l23.7,1.6l-0.1,1.6l-0.4,-0.2l-19.3,-14l1,-1.2l0.2,0.8l-2.3,6.2Z" class="g2_1714" />
<path d="M564.7,693.6l2.2,-6.1l1.4,0.5l-2.2,6.2Z" class="g2_1714" />
<path fill-rule="evenodd" d="M567.6,687.8l2.3,-6.3l19.2,14.1l-23.7,-1.7Z" class="g2_1714" />
<path d="M365.5,612.6l-1,2.8l202,73.6l1,-2.9Z" class="g2_1714" />
<path fill-rule="evenodd" d="M364.9,671.6l0.6,-0.1c1.3,-0.5,1.1,-2.8,-0.3,-2.9l-0.3,-0.1l-0.3,0.1c-1.5,0.1,-1.7,2.4,-0.3,2.9l0.3,0.1l0.3,0Z" class="g2_1714" />
<path d="M364.9,670.1l7.5,0l-0.2,1L365.7,694l-0.8,2.6L364.2,694l-6.6,-22.9l-0.3,-1l1,0l0.8,0.5l6.6,22.9l-1.5,0.5l0,-0.5l6.5,-22.9l1.5,0.5l-0.8,0.5l-6.5,0Z" class="g2_1714" />
<path d="M358.3,671.6l6.6,0l0,-1.5l-6.6,0l0,1.5Z" class="g2_1714" />
<path fill-rule="evenodd" d="M364.9,670.8l6.5,0l-6.5,22.9l-6.6,-22.9Z" class="g2_1714" />
<path d="M363.5,670.1l3,0l0,-56.1l-3,0l0,56.1Z" class="g2_1714" />
<path d="M251.4,614l226.9,0l0,-20.6l-226.9,0l0,20.6Z" class="g1_1714" />
<path d="M251.4,593.7l227.3,0l0,-0.7l-227.3,0l0,0.7Z" class="g2_1714" />
<path d="M477.9,614.3l0.8,0l0,-20.9l-0.8,0l0,20.9Z" class="g2_1714" />
<path d="M251.1,614.3l227.2,0l0,-0.7l-227.2,0l0,0.7Z" class="g2_1714" />
<path d="M251.1,614l0.7,0l0,-21l-0.7,0l0,21Z" class="g2_1714" />
<path d="M478.3,717.1l226.9,0l0,-20.6l-226.9,0l0,20.6Z" class="g1_1714" />
<path d="M478.3,696.8l227.3,0l0,-0.7l-227.3,0l0,0.7Z" class="g2_1714" />
<path d="M704.8,717.5l0.8,0l0,-21l-0.8,0l0,21Z" class="g2_1714" />
<path d="M477.9,717.5l227.3,0l0,-0.8l-227.3,0l0,0.8Z" class="g2_1714" />
<path d="M477.9,717.1l0.8,0l0,-21l-0.8,0l0,21Z" class="g2_1714" />
<path d="M251.4,717.1l226.9,0l0,-20.6l-226.9,0l0,20.6Z" class="g1_1714" />
<path d="M251.4,696.8l227.3,0l0,-0.7l-227.3,0l0,0.7Z" class="g2_1714" />
<path d="M477.9,717.5l0.8,0l0,-21l-0.8,0l0,21Z" class="g2_1714" />
<path d="M251.1,717.5l227.2,0l0,-0.8l-227.2,0l0,0.8Z" class="g2_1714" />
<path d="M251.1,717.1l0.7,0l0,-21l-0.7,0l0,21Z" class="g2_1714" />
<path d="M478.3,548.7l226.9,0l0,-20.6l-226.9,0l0,20.6Z" class="g1_1714" />
<path d="M478.3,528.5l227.3,0l0,-0.8l-227.3,0l0,0.8Z" class="g2_1714" />
<path d="M704.8,549.1l0.8,0l0,-21l-0.8,0l0,21Z" class="g2_1714" />
<path d="M477.9,549.1l227.3,0l0,-0.7l-227.3,0l0,0.7Z" class="g2_1714" />
<path d="M477.9,548.7l0.8,0l0,-21l-0.8,0l0,21Z" class="g2_1714" />
<path d="M251.4,548.7l226.9,0l0,-20.6l-226.9,0l0,20.6Z" class="g1_1714" />
<path d="M251.4,528.5l227.3,0l0,-0.8l-227.3,0l0,0.8Z" class="g2_1714" />
<path d="M477.9,549.1l0.8,0l0,-21l-0.8,0l0,21Z" class="g2_1714" />
<path d="M251.1,549.1l227.2,0l0,-0.7l-227.2,0l0,0.7Z" class="g2_1714" />
<path d="M251.1,548.7l0.7,0l0,-21l-0.7,0l0,21Z" class="g2_1714" />
<path fill-rule="evenodd" d="M602.1,673.3l0.3,0l0.3,-0.1l0.2,-0.2l0.3,-0.2l0.1,-0.1l0.2,-0.3l0.1,-0.3l0,-0.6c-0.2,-0.8,-0.5,-0.7,-0.9,-1.1l-0.3,-0.1l-0.6,0l-0.3,0.1l-0.5,0.3l-0.2,0.2l-0.1,0.3l-0.1,0.3l0,0.6l0.1,0.3l0.1,0.3l0.2,0.1l0.5,0.4l0.3,0.1l0.3,0Z" class="g2_1714" />
<path d="M602.1,671.8l7.6,0l-0.3,1l-6.6,22.9l-0.7,2.6l-0.8,-2.6l-6.5,-22.9l-0.3,-1l1.1,0l0.7,0.6l6.5,22.9l-1.5,0.4l0,-0.4l6.6,-22.9l1.5,0.4l-0.7,0.6l-6.6,0Z" class="g2_1714" />
<path d="M595.6,673.4l6.5,0l0,-1.6l-6.5,0l0,1.6Z" class="g2_1714" />
<path fill-rule="evenodd" d="M602.1,672.6l6.6,0l-6.6,22.9l-6.5,-22.9Z" class="g2_1714" />
<path d="M600.6,671.8l3,0l0,-123.1l-3,0l0,123.1Z" class="g2_1714" />
<path fill-rule="evenodd" d="M354.6,673.3l0.2,0l0.4,-0.1l0.2,-0.2l0.3,-0.2l0.2,-0.1l0.1,-0.6l0.1,-0.3L356,671.5l-0.1,-0.6l-0.2,-0.2l-0.3,-0.2l-0.2,-0.1l-0.4,-0.1l-0.5,0c-1.5,0.4,-1.7,2.3,-0.3,2.9l0.3,0.1l0.3,0Z" class="g2_1714" />
<path d="M354.6,671.8l7.6,0l-0.3,1l-6.6,22.9l-0.7,2.6l-0.8,-2.6l-6.6,-22.9l-0.2,-1l1,0l0.7,0.6l6.6,22.9l-1.5,0.4l0,-0.4l6.6,-22.9l1.5,0.4l-0.7,0.6l-6.6,0Z" class="g2_1714" />
<path d="M348,673.4l6.6,0l0,-1.6l-6.6,0l0,1.6Z" class="g2_1714" />
<path fill-rule="evenodd" d="M354.6,672.6l6.6,0l-6.6,22.9L348,672.6Z" class="g2_1714" />
<path d="M353.1,671.8l3,0l0,-123.1l-3,0l0,123.1Z" class="g2_1714" />
<path fill-rule="evenodd" d="M565.5,679.9l0.2,-0.6c0.2,-1.5,-1.6,-2.3,-2.7,-1.2l-0.2,0.2l-0.1,0.3c-0.5,1.4,1.2,2.6,2.3,1.7l0.3,-0.1l0.2,-0.3Z" class="g2_1714" />
<path d="M564.2,679.2l3.4,-5.6l0.5,-0.9l0.8,0.8l16,17.7l1.8,1.9l-2.6,-0.7l-22.9,-6.5l-1,-0.3l0.5,-0.8l0.9,-0.4l22.9,6.5l-0.4,1.5l-0.4,-0.2l-16,-17.7l1.2,-1l0.1,0.9l-3.4,5.6Z" class="g2_1714" />
<path d="M560.7,684.8l3.5,-5.6l1.4,0.8l-3.5,5.6Z" class="g2_1714" />
<path fill-rule="evenodd" d="M564.9,679.5l3.3,-5.6l16.1,17.7l-22.9,-6.5Z" class="g2_1714" />
<path d="M355.4,547.4l-1.6,2.6L563.5,680.4l1.5,-2.6Z" class="g2_1714" />
<path fill-rule="evenodd" d="M386.2,680.1l0.2,0.3l0.2,0.1l0.2,0.2l0.3,0.1l0.6,0l0.3,-0.1l0.3,-0.1l0.4,-0.3l0.2,-0.3l0.1,-0.6l-0.1,-0.3l0,-0.3l-0.3,-0.6c-1.1,-1,-2.8,-0.1,-2.7,1.3l0.1,0.3l0.2,0.3Z" class="g2_1714" />
<path d="M387.5,679.3l3.4,5.6l0.4,1l-0.9,0.1l-23,6.4l-2.6,0.7l1.8,-1.9l16.2,-17.5l0.7,-0.9l0.6,1l-0.1,0.9l-16.2,17.5l-1.2,-1l0.4,-0.3l23,-6.3l0.4,1.4l-0.9,-0.2l-3.4,-5.6Z" class="g2_1714" />
<path d="M384.1,673.8l3.4,5.5l-1.4,0.9l-3.4,-5.6Z" class="g2_1714" />
<path fill-rule="evenodd" d="M386.8,679.7l3.4,5.6l-23,6.3l16.2,-17.5Z" class="g2_1714" />
<path d="M602.9,550l-1.6,-2.6L386.7,678.1l1.6,2.5Z" class="g2_1714" />
</svg>