<?xml version="1.0" encoding="UTF-8" standalone="no"?>
<!DOCTYPE svg PUBLIC "-//W3C//DTD SVG 1.1//EN"
"http://www.w3.org/Graphics/SVG/1.1/DTD/svg11.dtd">
<svg viewBox="0 0 935 1210" version="1.1" xmlns="http://www.w3.org/2000/svg" xmlns:xlink="http://www.w3.org/1999/xlink">
<defs>
<style type="text/css"><![CDATA[
.g1_933{
fill: #FFFFFF;
}
.g2_933{
}
]]></style>
</defs>
<path d="M68.9,1149.3l686.3,0l0,-21.2l-686.3,0l0,21.2Z" class="g1_933" />
<path d="M771.3,1149.3l83.7,0l0,-21.2l-83.7,0l0,21.2Z" class="g1_933" />
<path d="M464.1,340.1l220,0l0,-27.5l-220,0l0,27.5Z" class="g1_933" />
<path d="M464.1,313l220.4,0l0,-0.8l-220.4,0l0,0.8Z" class="g2_933" />
<path d="M683.7,340.5l0.8,0l0,-27.9l-0.8,0l0,27.9Z" class="g2_933" />
<path d="M463.7,340.5l220.4,0l0,-0.8l-220.4,0l0,0.8Z" class="g2_933" />
<path d="M463.7,340.1l0.8,0l0,-27.9l-0.8,0l0,27.9Z" class="g2_933" />
<path d="M518.5,312.6l0.7,0l0,-0.4l-0.7,0l0,0.4Z" class="g2_933" />
<path d="M518.5,340.5l0.7,0l0,-27.9l-0.7,0l0,27.9Z" class="g2_933" />
<path d="M573.6,312.6l0.7,0l0,-0.4l-0.7,0l0,0.4Z" class="g2_933" />
<path d="M573.6,340.5l0.7,0l0,-27.9l-0.7,0l0,27.9Z" class="g2_933" />
<path d="M628.7,312.6l0.7,0l0,-0.4l-0.7,0l0,0.4Z" class="g2_933" />
<path d="M628.7,340.5l0.7,0l0,-27.9l-0.7,0l0,27.9Z" class="g2_933" />
<path d="M656.2,312.6l0.8,0l0,-0.4l-0.8,0l0,0.4Z" class="g2_933" />
<path d="M656.2,340.5l0.8,0l0,-27.9l-0.8,0l0,27.9Z" class="g2_933" />
<path d="M546.2,312.6l0.8,0l0,-0.4l-0.8,0l0,0.4Z" class="g2_933" />
<path d="M546.2,340.5l0.8,0l0,-27.9l-0.8,0l0,27.9Z" class="g2_933" />
<path d="M601.2,312.6l0.8,0l0,-0.4l-0.8,0l0,0.4Z" class="g2_933" />
<path d="M601.2,340.5l0.8,0l0,-27.9l-0.8,0l0,27.9Z" class="g2_933" />
<path d="M491.2,312.6l0.8,0l0,-0.4l-0.8,0l0,0.4Z" class="g2_933" />
<path d="M491.2,340.5l0.8,0l0,-27.9l-0.8,0l0,27.9Z" class="g2_933" />
<path d="M231.8,340.2l220,0l0,-27.5l-220,0l0,27.5Z" class="g1_933" />
<path d="M231.8,313l220.4,0l0,-0.7l-220.4,0l0,0.7Z" class="g2_933" />
<path d="M451.5,340.5l0.7,0l0,-27.8l-0.7,0l0,27.8Z" class="g2_933" />
<path d="M231.5,340.5l220.3,0l0,-0.7l-220.3,0l0,0.7Z" class="g2_933" />
<path d="M231.5,340.2l0.7,0l0,-27.9l-0.7,0l0,27.9Z" class="g2_933" />
<path d="M286.2,312.7l0.7,0l0,-0.4l-0.7,0l0,0.4Z" class="g2_933" />
<path d="M286.2,340.5l0.7,0l0,-27.8l-0.7,0l0,27.8Z" class="g2_933" />
<path d="M341.3,312.7l0.7,0l0,-0.4l-0.7,0l0,0.4Z" class="g2_933" />
<path d="M341.3,340.5l0.7,0l0,-27.8l-0.7,0l0,27.8Z" class="g2_933" />
<path d="M396.4,312.7l0.7,0l0,-0.4l-0.7,0l0,0.4Z" class="g2_933" />
<path d="M396.4,340.5l0.7,0l0,-27.8l-0.7,0l0,27.8Z" class="g2_933" />
<path d="M424,312.7l0.7,0l0,-0.4l-0.7,0l0,0.4Z" class="g2_933" />
<path d="M424,340.5l0.7,0l0,-27.8l-0.7,0l0,27.8Z" class="g2_933" />
<path d="M314,312.7l0.7,0l0,-0.4l-0.7,0l0,0.4Z" class="g2_933" />
<path d="M314,340.5l0.7,0l0,-27.8l-0.7,0l0,27.8Z" class="g2_933" />
<path d="M369,312.7l0.7,0l0,-0.4l-0.7,0l0,0.4Z" class="g2_933" />
<path d="M369,340.5l0.7,0l0,-27.8l-0.7,0l0,27.8Z" class="g2_933" />
<path d="M259,312.7l0.7,0l0,-0.4l-0.7,0l0,0.4Z" class="g2_933" />
<path d="M259,340.5l0.7,0l0,-27.8l-0.7,0l0,27.8Z" class="g2_933" />
<path d="M483.3,378.7l-0.8,0.2l0.6,1.4l0.7,-0.2Z" class="g2_933" />
<path d="M483,379.6l1.9,-1.6l1.2,-0.9l0.1,1.6l0.4,8.6l0.1,2.7l-1.6,-2.2l-4.9,-7.1l-0.8,-1.2l1.4,0l0.7,0.4l4.9,7l-1.3,0.9L485,387.4l-0.4,-8.6l1.6,-0.1l-0.4,0.6l-1.9,1.6Z" class="g2_933" />
<path d="M480.8,379.5l2.6,0l0.5,1.4l-0.2,0.2l-2.8,0Z" class="g2_933" />
<path fill-rule="evenodd" d="M483.5,380.2l1.9,-1.5l0.3,8.6l-4.8,-7.1Z" class="g2_933" />
<path d="M470.7,340.9l-0.1,-0.4l-0.7,0.3l0.1,0.4Z" class="g2_933" />
<path d="M483.3,378.7l0.1,0.3l-0.8,0.3l-0.1,-0.4Z" class="g2_933" />
<path d="M470.7,340.9l-0.7,0.3L482.5,379l0.8,-0.3Z" class="g2_933" />
<path d="M653.7,378.7l-0.8,0.2l0.6,1.5l0.7,-0.2Z" class="g2_933" />
<path d="M653.4,379.7l1.9,-1.7l1.1,-1l0.2,1.7l0.5,8.6l0.1,2.6l-1.6,-2.1l-4.9,-7.1l-0.9,-1.3l1.6,0l0.6,0.5l4.9,7l-1.3,0.9l-0.1,-0.4L655,378.8l1.6,-0.1l-0.4,0.6l-1.9,1.7Z" class="g2_933" />
<path d="M651.4,379.4l2.5,0.1l0.4,1.5l-0.2,0.2l-0.2,0l-2.5,-0.1Z" class="g2_933" />
<path fill-rule="evenodd" d="M653.9,380.3l1.9,-1.6l0.4,8.6l-4.8,-7.1Z" class="g2_933" />
<path d="M641.9,343.9l-0.1,-0.3l-0.7,0.2l0.1,0.4Z" class="g2_933" />
<path d="M653.7,378.7l0.1,0.3l-0.8,0.3l-0.1,-0.4Z" class="g2_933" />
<path d="M641.9,343.9l-0.7,0.3l11.7,34.7l0.8,-0.2Z" class="g2_933" />
<path d="M667.8,379.3l-0.7,-0.2l-0.3,1.6l0.7,0.2Z" class="g2_933" />
<path d="M667,380.1l2.4,-0.4l1.6,-0.4l-0.7,1.5l-3.8,7.6l-1.1,2.4l-0.3,-2.6l-0.9,-8.4l-0.3,-1.6l1.3,0.7l0.5,0.6l0.9,8.4l-1.5,0.3l0,-0.5l3.8,-7.6l1.4,0.7l-0.6,0.3l-2.5,0.4Z" class="g2_933" />
<path d="M665.2,378.9l2.2,1.2l-0.2,1.4l-0.2,0.1l-0.2,-0.2l-2.2,-1.2Z" class="g2_933" />
<path fill-rule="evenodd" d="M667.1,380.8l2.5,-0.4l-3.7,7.6l-1,-8.4Z" class="g2_933" />
<path d="M674.2,342.9l0,-0.3l-0.7,-0.1l0,0.3Z" class="g2_933" />
<path d="M667.8,379.3l0,0.4l-0.7,-0.1l0,-0.4Z" class="g2_933" />
<path d="M674.2,342.9l-0.7,-0.1l-6.4,36.4l0.7,0.1Z" class="g2_933" />
<path d="M603.2,378.1l-0.8,-0.2l-0.6,1.5l0.7,0.2Z" class="g2_933" />
<path d="M602.2,378.7l2.5,0.1l1.6,0.1l-1,1.2l-5.2,6.8l-1.6,2.1l0.2,-2.6l0.8,-8.5l0.2,-1.7l1.2,1.1l0.2,0.6l-0.9,8.6l-1.5,-0.1l0.2,-0.5l5.2,-6.8l1.2,1l-0.6,0.3l-2.5,-0.1Z" class="g2_933" />
<path d="M600.9,377.3l1.8,1.7l-0.5,1.3l-0.3,-0.1l-0.3,-0.1l-1.8,-1.7Z" class="g2_933" />
<path fill-rule="evenodd" d="M602.2,379.5l2.5,0.1l-5.2,6.8l0.8,-8.5Z" class="g2_933" />
<path d="M617.4,342.1l0.1,-0.3l-0.7,-0.3l-0.1,0.3Z" class="g2_933" />
<path d="M603.2,378.2l-0.1,0.3l-0.7,-0.3l0.1,-0.3Z" class="g2_933" />
<path d="M617.4,342.1l-0.7,-0.3l-14.2,36.1l0.7,0.3Z" class="g2_933" />
<path d="M431.8,375.1l-0.7,-0.2l-0.4,1.6l0.7,0.2Z" class="g2_933" />
<path d="M431,375.7l2.5,0l1.6,-0.1l-1,1.3l-4.6,7.1l-1.5,2.2l0,-2.7l0.2,-8.5l0.1,-1.5l1.2,0.9l0.2,0.7l-0.1,8.5L428,383.5l0.2,-0.3l4.7,-7.1l1.2,0.8l-0.6,0.4l-2.5,0.1Z" class="g2_933" />
<path d="M429.5,374.4l2,1.5l-0.5,1.5l-0.3,0l-0.1,-0.2l-2.1,-1.5Z" class="g2_933" />
<path fill-rule="evenodd" d="M431,376.6l2.5,-0.1l-4.7,7L429,375Z" class="g2_933" />
<path d="M442.3,342.3l0.1,-0.4l-0.8,-0.2l0,0.4Z" class="g2_933" />
<path d="M431.8,375.1l0,0.4L431,375.3l0.1,-0.4Z" class="g2_933" />
<path d="M442.3,342.3l-0.7,-0.2l-10.5,32.8l0.7,0.2Z" class="g2_933" />
<path d="M376.8,380.3l-0.7,-0.2l-0.4,1.6l0.8,0.2Z" class="g2_933" />
<path d="M376,381.1l2.5,-0.3l1.5,-0.3l-0.8,1.5l-4.1,7.5l-1.3,2.3l-0.1,-2.7l-0.4,-8.5L373.1,379l1.3,0.9l0.3,0.6l0.5,8.5l-1.5,0.1l0.1,-0.4l4.1,-7.6l1.3,0.9l-0.5,0.3l-2.5,0.2Z" class="g2_933" />
<path d="M374.4,379.9l2.1,1.3l-0.3,1.3l-0.3,0.1l-0.3,-0.2l-2.1,-1.2Z" class="g2_933" />
<path fill-rule="evenodd" d="M376.1,381.8l2.5,-0.3l-4.1,7.5L374,380.5Z" class="g2_933" />
<path d="M385.5,342.3l0.1,-0.4l-0.8,-0.2l-0.1,0.4Z" class="g2_933" />
<path d="M376.8,380.3l0,0.4L376,380.5l0.1,-0.4Z" class="g2_933" />
<path d="M385.5,342.3l-0.8,-0.2l-8.6,38l0.7,0.2Z" class="g2_933" />
<path d="M260.4,375.5l-0.7,0.2l0.3,1.5l0.7,-0.2Z" class="g2_933" />
<path d="M260,376.5l2.1,-1.2l1.3,-0.8l-0.2,1.6l-0.9,8.4l-0.3,2.7l-1.1,-2.5l-3.7,-7.6l-0.6,-1.4l1.3,0.3l0.7,0.5l3.7,7.6l-1.4,0.6l-0.1,-0.4l0.9,-8.5l1.5,0.3l-0.4,0.5l-2.1,1.2Z" class="g2_933" />
<path d="M257.9,376l2.5,0.4l0.3,1.4l-0.2,0.1l-0.3,0l-2.5,-0.4Z" class="g2_933" />
<path fill-rule="evenodd" d="M260.3,377.1l2.1,-1.2l-0.9,8.5l-3.6,-7.6Z" class="g2_933" />
<path d="M254.4,341l0,-0.4l-0.8,0.1l0,0.4Z" class="g2_933" />
<path d="M260.4,375.6l0,0.3l-0.7,0.1l0,-0.3Z" class="g2_933" />
<path d="M254.4,341l-0.8,0.1l6.1,34.6l0.7,-0.1Z" class="g2_933" />
<path d="M310,378.7l-0.7,0.2l0.5,1.4l0.8,-0.2Z" class="g2_933" />
<path d="M309.7,379.6l2,-1.6l1.2,-0.9l0.1,1.6l0.3,8.6l0.1,2.7l-1.5,-2.2L307,380.7l-0.8,-1.2l1.3,0l0.8,0.4l4.8,7l-1.2,0.9l-0.1,-0.4l-0.4,-8.6l1.6,-0.1l-0.4,0.6l-1.9,1.6Z" class="g2_933" />
<path d="M307.5,379.5l2.6,0l0.6,1.4l-0.2,0.2l-2.9,0Z" class="g2_933" />
<path fill-rule="evenodd" d="M310.2,380.2l1.9,-1.5l0.4,8.6l-4.9,-7.1Z" class="g2_933" />
<path d="M297.5,340.9l-0.1,-0.4l-0.8,0.3l0.1,0.4Z" class="g2_933" />
<path d="M310,378.7l0.1,0.3l-0.7,0.3l-0.1,-0.4Z" class="g2_933" />
<path d="M297.5,340.9l-0.8,0.3L309.3,379l0.7,-0.3Z" class="g2_933" />
<path d="M380.6,499.1l220,0l0,-27.5l-220,0l0,27.5Z" class="g1_933" />
<path d="M380.6,472L601,472l0,-0.7l-220.4,0l0,0.7Z" class="g2_933" />
<path d="M600.2,499.5l0.8,0l0,-27.9l-0.8,0l0,27.9Z" class="g2_933" />
<path d="M380.2,499.5l220.4,0l0,-0.7l-220.4,0l0,0.7Z" class="g2_933" />
<path d="M380.2,499.1l0.8,0l0,-27.8l-0.8,0l0,27.8Z" class="g2_933" />
<path d="M435,499.5l0.7,0l0,-28.2l-0.7,0l0,28.2Z" class="g2_933" />
<path d="M490.1,499.5l0.7,0l0,-28.2l-0.7,0l0,28.2Z" class="g2_933" />
<path d="M545.1,499.5l0.8,0l0,-28.2l-0.8,0l0,28.2Z" class="g2_933" />
<path d="M572.7,499.5l0.8,0l0,-28.2l-0.8,0l0,28.2Z" class="g2_933" />
<path d="M462.7,499.5l0.8,0l0,-28.2l-0.8,0l0,28.2Z" class="g2_933" />
<path d="M517.7,499.5l0.8,0l0,-28.2l-0.8,0l0,28.2Z" class="g2_933" />
<path d="M407.7,499.5l0.8,0l0,-28.2l-0.8,0l0,28.2Z" class="g2_933" />
<path d="M601.3,457.8l-0.5,-0.6l-1.3,1l0.6,0.6Z" class="g2_933" />
<path d="M600.1,457.9l2.2,1.3l1.4,0.7l-1.4,0.6l-7.8,3.5l-2.5,1.1l1.5,-2.2l4.8,-7.1l0.8,-1.4l0.6,1.5l-0.1,0.7l-4.8,7.1l-1.3,-0.8l0.3,-0.3l7.8,-3.4l0.7,1.3l-0.7,-0.1l-2.2,-1.2Z" class="g2_933" />
<path d="M599.7,455.9l0.8,2.3l-1.1,1l-0.3,-0.1L599,458.8l-0.8,-2.4Z" class="g2_933" />
<path fill-rule="evenodd" d="M599.8,458.5l2.2,1.3l-7.8,3.5l4.7,-7.2Z" class="g2_933" />
<path d="M658.5,409.4l0.3,-0.2l-0.4,-0.5l-0.3,0.1Z" class="g2_933" />
<path d="M601.3,457.8l-0.2,0.2l-0.5,-0.6l0.3,-0.2Z" class="g2_933" />
<path d="M658.5,409.4l-0.4,-0.6l-57.2,48.4l0.4,0.6Z" class="g2_933" />
<path d="M521.5,461.7l-0.4,0.6l1.5,0.8l0.4,-0.5Z" class="g2_933" />
<path d="M522,462.7l0.4,-2.4l0.1,-1.7l1.3,1.3l5.9,6l1.9,1.9L529,467.1l-8.2,-2l-1.7,-0.3l1.3,-1.1l0.6,0l8.3,2l-0.3,1.4L528.6,467l-6,-6.1l1.2,-1l0.1,0.5l-0.4,2.5Z" class="g2_933" />
<path d="M520.4,463.7l1.9,-1.5l1.2,0.7l0,0.3l-0.3,0.3l-1.9,1.5Z" class="g2_933" />
<path fill-rule="evenodd" d="M522.8,462.8l0.3,-2.4l6,6l-8.3,-2Z" class="g2_933" />
<path d="M430.8,410.1l-0.2,-0.2l-0.4,0.7l0.3,0.2Z" class="g2_933" />
<path d="M521.5,461.7l0.3,0.2l-0.4,0.7l-0.3,-0.2Z" class="g2_933" />
<path d="M430.8,410.1l-0.3,0.7l90.6,51.6l0.4,-0.7Z" class="g2_933" />
<path d="M487.7,463.5l-0.4,0.5l1.4,0.7l0.3,-0.5Z" class="g2_933" />
<path d="M488.1,464.4l0.5,-2.4l0.2,-1.7l1.2,1.3l5.9,6.2l1.8,1.9L495.2,469l-8.4,-2.1l-1.6,-0.4l1.3,-1l0.6,-0.1l8.4,2.1l-0.3,1.5l-0.5,-0.2l-5.9,-6.2l1.2,-1l0.1,0.6l-0.5,2.4Z" class="g2_933" />
<path d="M486.5,465.5l1.9,-1.7l1.2,0.8l0,0.3l-0.3,0.2l-1.9,1.7Z" class="g2_933" />
<path fill-rule="evenodd" d="M488.9,464.5l0.4,-2.4l6,6.1l-8.4,-2.1Z" class="g2_933" />
<path d="M383.4,402.4l-0.2,-0.2l-0.4,0.7l0.3,0.2Z" class="g2_933" />
<path d="M487.7,463.5l0.2,0.1l-0.3,0.7l-0.3,-0.2Z" class="g2_933" />
<path d="M383.4,402.4l-0.3,0.7l104.2,61l0.4,-0.6Z" class="g2_933" />
<path d="M380,461.3l-0.3,0.7l1.4,0.7l0.4,-0.7Z" class="g2_933" />
<path d="M380.6,462.3l0.3,-2.5l0,-1.6l1.3,1.1l6.3,5.8l2,1.8l-2.7,-0.4l-8.4,-1.7l-1.6,-0.2l1.1,-1l0.8,-0.2l8.4,1.5l-0.3,1.6l-0.3,-0.3l-6.4,-5.8l1.1,-1.1l0.1,0.7l-0.2,2.5Z" class="g2_933" />
<path d="M378.9,463.6l1.9,-1.8l1.3,0.7l0,0.2l-0.2,0.2l-1.9,1.8Z" class="g2_933" />
<path fill-rule="evenodd" d="M381.3,462.4l0.3,-2.5l6.3,5.8l-8.4,-1.6Z" class="g2_933" />
<path d="M265.5,404.2l-0.3,-0.1l-0.4,0.6l0.3,0.2Z" class="g2_933" />
<path d="M380,461.4l0.3,0.1l-0.3,0.7L379.7,462Z" class="g2_933" />
<path d="M265.5,404.2l-0.4,0.7L379.7,462l0.3,-0.6Z" class="g2_933" />
<path d="M592.8,380.1l-0.7,0.2l0.3,1.6l0.7,-0.2Z" class="g2_933" />
<path d="M592.3,381.1l2.1,-1.2l1.3,-1l-0.1,1.7l-0.6,8.5l-0.2,2.7l-1.2,-2.3l-4,-7.6l-0.8,-1.5l1.5,0.3l0.6,0.4l4,7.6l-1.3,0.8L593.5,389l0.6,-8.5l1.5,0.1l-0.3,0.5l-2.1,1.3Z" class="g2_933" />
<path d="M590.3,380.7l2.5,0.4l0.4,1.3l-0.3,0.2l-0.3,-0.1l-2.4,-0.3Z" class="g2_933" />
<path fill-rule="evenodd" d="M592.7,381.8l2.1,-1.3l-0.5,8.5l-4.1,-7.6Z" class="g2_933" />
<path d="M584.7,341.2l-0.1,-0.4l-0.7,0.2l0.1,0.4Z" class="g2_933" />
<path d="M592.8,380.1l0.1,0.4l-0.7,0.2l-0.1,-0.4Z" class="g2_933" />
<path d="M584.7,341.2l-0.7,0.2l8.1,38.9l0.7,-0.2Z" class="g2_933" />
<path d="M543.1,375.8l-0.7,0.3l0.5,1.5l0.8,-0.3Z" class="g2_933" />
<path d="M542.9,376.7l1.9,-1.4l1.2,-1l0.1,1.7l0.1,8.5l0,2.6l-1.4,-2.2l-4.7,-7.1l-0.8,-1.3l1.5,0l0.6,0.4l4.7,7.2l-1.3,0.8l-0.1,-0.5l-0.2,-8.5l1.6,0.1l-0.4,0.6l-1.9,1.4Z" class="g2_933" />
<path d="M540.8,376.5l2.6,0.1l0.4,1.4l-0.2,0.2l-0.4,0l-2.5,-0.1Z" class="g2_933" />
<path fill-rule="evenodd" d="M543.3,377.4l1.9,-1.5l0.2,8.6l-4.7,-7.2Z" class="g2_933" />
<path d="M532.8,341.5l-0.1,-0.3l-0.8,0.2l0.1,0.3Z" class="g2_933" />
<path d="M543.1,375.8l0.1,0.4l-0.7,0.2L542.4,376Z" class="g2_933" />
<path d="M532.8,341.5l-0.8,0.2L542.4,376l0.7,-0.2Z" class="g2_933" />
<path d="M555.2,374.7l-0.7,-0.1l-0.4,1.6l0.8,0.2Z" class="g2_933" />
<path d="M554.4,375.6l2.5,-0.5l1.5,-0.4l-0.8,1.5l-5,10.1l-0.2,-2.7l-0.7,-8.5l-0.2,-1.6l1.3,0.9l0.3,0.6l0.8,8.5l-1.5,0.1l0.1,-0.3l3.8,-7.7l1.3,0.6l-0.5,0.4l-2.5,0.4Z" class="g2_933" />
<path d="M552.7,374.4l2.2,1.3l-0.3,1.3l-0.3,0.1l-0.2,-0.2L552,375.7Z" class="g2_933" />
<path fill-rule="evenodd" d="M554.5,376.3l2.5,-0.5l-3.9,7.7L552.4,375Z" class="g2_933" />
<path d="M561.5,342l0,-0.4l-0.8,-0.1l0,0.4Z" class="g2_933" />
<path d="M555.2,374.7l0,0.4L554.5,375l0,-0.4Z" class="g2_933" />
<path d="M561.5,342l-0.8,-0.1l-6.2,32.7l0.7,0.1Z" class="g2_933" />
<path d="M497.8,377.4l-0.7,-0.2l-0.3,1.7l0.8,0.1Z" class="g2_933" />
<path d="M497,378.2l2.5,-0.5l1.6,-0.5l-0.8,1.6l-3.5,7.8l-1,2.4l-0.3,-2.6l-1.2,-8.5L494,376.3l1.4,0.8l0.3,0.6l1.2,8.4l-1.4,0.3l0,-0.5l3.4,-7.8l1.4,0.7l-0.4,0.3l-2.5,0.6Z" class="g2_933" />
<path d="M495.4,377.1l2.2,1.2l-0.2,1.4l-0.3,0.1l-0.3,-0.2l-2.2,-1.2Z" class="g2_933" />
<path fill-rule="evenodd" d="M497.2,378.9l2.5,-0.5l-3.5,7.8L495,377.8Z" class="g2_933" />
<path d="M503.2,340.5l0,-0.4L502.4,340l0,0.4Z" class="g2_933" />
<path d="M497.8,377.4l0,0.4l-0.7,-0.1l0,-0.4Z" class="g2_933" />
<path d="M503.2,340.5l-0.8,-0.1l-5.3,36.9l0.7,0.1Z" class="g2_933" />
<path d="M420.1,378.3l-0.7,0.2l0.5,1.6l0.8,-0.2Z" class="g2_933" />
<path d="M419.8,379.3l2,-1.5l1.1,-1l0.1,1.6l0.4,8.5l0.1,2.7l-1.6,-2.2l-4.8,-7.1L416.2,379l1.5,0l0.7,0.5l4.8,7.1l-1.3,0.8L421.8,387l-0.3,-8.5l1.5,-0.1l-0.3,0.6l-2,1.6Z" class="g2_933" />
<path d="M417.7,379l2.6,0.1l0.5,1.5l-0.2,0.2l-0.3,0l-2.6,-0.1Z" class="g2_933" />
<path fill-rule="evenodd" d="M420.3,380l1.9,-1.6l0.4,8.5l-4.9,-7Z" class="g2_933" />
<path d="M407.6,340.6l-0.1,-0.3l-0.8,0.2l0.1,0.4Z" class="g2_933" />
<path d="M420.1,378.3l0.1,0.4l-0.7,0.2l-0.1,-0.3Z" class="g2_933" />
<path d="M407.6,340.6l-0.8,0.3l12.6,37.7l0.7,-0.3Z" class="g2_933" />
<path d="M366,379.2l-0.7,0.2l0.5,1.6l0.8,-0.2Z" class="g2_933" />
<path d="M365.7,380.2l2,-1.5l1.2,-1l0.1,1.6l0.3,8.5l0.1,2.7l-1.5,-2.2L363,381.2L362.1,380l1.5,0l0.7,0.4l4.8,7.1l-1.2,0.8l-0.1,-0.4l-0.4,-8.5l1.6,-0.1l-0.4,0.7l-1.9,1.5Z" class="g2_933" />
<path d="M363.6,380l2.6,0.1l0.5,1.4l-0.2,0.2l-0.3,0l-2.6,-0.1Z" class="g2_933" />
<path fill-rule="evenodd" d="M366.2,380.9l1.9,-1.6l0.4,8.5l-4.9,-7Z" class="g2_933" />
<path d="M353.5,341.5l-0.1,-0.3l-0.8,0.3l0.1,0.3Z" class="g2_933" />
<path d="M366,379.2l0.1,0.4l-0.7,0.3l-0.1,-0.4Z" class="g2_933" />
<path d="M353.5,341.5l-0.8,0.3l12.6,37.7l0.7,-0.3Z" class="g2_933" />
<path d="M320.3,379.8l-0.7,-0.2l-0.4,1.6l0.7,0.1Z" class="g2_933" />
<path d="M319.5,380.5l2.5,-0.4l1.6,-0.2l-0.8,1.4l-4.2,7.6l-1.2,2.2l-0.1,-2.6L316.7,380l-0.2,-1.7l1.4,0.9l0.3,0.7l0.5,8.5l-1.4,0.1l0.1,-0.5l4.1,-7.5l1.3,0.8l-0.6,0.3l-2.6,0.4Z" class="g2_933" />
<path d="M317.9,379.2l2.1,1.4l-0.4,1.4l-0.2,0.1l-0.3,-0.2L317,380.5Z" class="g2_933" />
<path fill-rule="evenodd" d="M319.6,381.2l2.5,-0.3l-4.1,7.5l-0.6,-8.5Z" class="g2_933" />
<path d="M328.9,341.7l0.1,-0.3l-0.7,-0.2l-0.1,0.3Z" class="g2_933" />
<path d="M320.3,379.8l-0.1,0.3L319.5,380l0.1,-0.4Z" class="g2_933" />
<path d="M328.9,341.7l-0.7,-0.2l-8.6,38.1l0.7,0.2Z" class="g2_933" />
<path d="M269.4,376.7l-0.7,-0.2l-0.3,1.5l0.7,0.2Z" class="g2_933" />
<path d="M268.7,377.4l2.4,-0.4l1.6,-0.3l-0.8,1.5l-4,7.6l-1.2,2.2l-0.2,-2.5l-0.7,-8.6l-0.1,-1.4l1.2,0.7l0.4,0.6l0.6,8.6l-1.4,0.1l0.1,-0.5l4,-7.6l1.3,0.8l-0.6,0.3l-2.4,0.4Z" class="g2_933" />
<path d="M266.9,376.2l2.2,1.3l-0.2,1.4l-0.3,0l-0.3,-0.1l-2.2,-1.3Z" class="g2_933" />
<path fill-rule="evenodd" d="M268.8,378.1l2.4,-0.3l-4,7.6l-0.6,-8.6Z" class="g2_933" />
<path d="M277,341.1l0.1,-0.4l-0.7,-0.2l-0.1,0.4Z" class="g2_933" />
<path d="M269.4,376.7l-0.1,0.3l-0.7,-0.2l0.1,-0.3Z" class="g2_933" />
<path d="M277,341.1l-0.7,-0.2l-7.6,35.6l0.7,0.2Z" class="g2_933" />
<path d="M566.4,455.2l-0.5,-0.3l-0.9,1.3l0.6,0.4Z" class="g2_933" />
<path d="M565.5,455.7l2.5,0.5l1.5,0.2l-1.3,1.2l-6.3,5.8L560,465l0.7,-2.4l2.3,-8.3l0.4,-1.6l1,1.3l0.1,0.8l-2.3,8.1l-1.5,-0.3l0.2,-0.4l6.3,-5.8l1,1.2l-0.6,0.1l-2.5,-0.6Z" class="g2_933" />
<path d="M564.4,454l1.6,2l-0.9,1.1l-0.2,0l-0.2,-0.2l-1.6,-2Z" class="g2_933" />
<path fill-rule="evenodd" d="M565.3,456.4l2.5,0.6l-6.3,5.7l2.3,-8.2Z" class="g2_933" />
<path d="M594.8,409.7l0.2,-0.3L594.4,409l-0.2,0.3Z" class="g2_933" />
<path d="M566.5,455.2l-0.2,0.3l-0.6,-0.4l0.2,-0.2Z" class="g2_933" />
<path d="M594.8,409.7l-0.6,-0.4l-28.3,45.6l0.6,0.3Z" class="g2_933" />
<path d="M484.3,459.3l-0.6,-0.6l-1.3,1.1l0.6,0.6Z" class="g2_933" />
<path d="M483.1,459.4l2.2,1.2l1.4,0.8l-1.5,0.6l-7.8,3.5l-2.5,1.1l1.6,-2.2l4.8,-7.1l0.8,-1.3l0.5,1.4l-0.1,0.8l-4.7,7l-1.3,-0.8l0.3,-0.3l7.8,-3.5l0.6,1.4l-0.6,-0.1l-2.2,-1.2Z" class="g2_933" />
<path d="M482.6,457.4l0.9,2.4l-1.1,0.9l-0.3,-0.1L482,460.4L481.2,458Z" class="g2_933" />
<path fill-rule="evenodd" d="M482.7,460.1l2.2,1.2l-7.8,3.5l4.8,-7.1Z" class="g2_933" />
<path d="M541.6,410.9l0.2,-0.1l-0.4,-0.6l-0.3,0.2Z" class="g2_933" />
<path d="M484.3,459.3l-0.3,0.1l-0.5,-0.5l0.3,-0.2Z" class="g2_933" />
<path d="M541.6,410.9l-0.5,-0.5l-57.3,48.3l0.5,0.5Z" class="g2_933" />
<path d="M457.9,457.4l-0.6,-0.3l-0.9,1.3l0.6,0.4Z" class="g2_933" />
<path d="M456.9,457.9l2.4,0.6l1.5,0.4l-1.3,1l-6.6,5.3l-2.1,1.7l0.9,-2.5l2.8,-8.1l0.4,-1.5l1,1.2l0.1,0.8l-2.8,8l-1.5,-0.4L452,464l6.6,-5.3l0.9,1.2l-0.6,0.1l-2.4,-0.7Z" class="g2_933" />
<path d="M455.9,456l1.4,2.2l-0.8,1.1l-0.3,0L456,459.1L454.6,457Z" class="g2_933" />
<path fill-rule="evenodd" d="M456.7,458.6l2.4,0.7l-6.6,5.3l2.7,-8.1Z" class="g2_933" />
<path d="M491.5,409.4l0.2,-0.3l-0.6,-0.4l-0.2,0.2Z" class="g2_933" />
<path d="M458,457.5l-0.2,0.3l-0.7,-0.5l0.2,-0.2Z" class="g2_933" />
<path d="M491.5,409.4l-0.6,-0.5l-33.6,48.2l0.7,0.4Z" class="g2_933" />
<path d="M411.8,461.3l-0.4,0.5l1.4,0.8l0.3,-0.5Z" class="g2_933" />
<path d="M412.2,462.2l0.6,-2.4l0.2,-1.6l1.2,1.3l5.6,6.3l1.8,2L419,467l-8.2,-2.3l-1.6,-0.4l1.3,-1l0.7,-0.1l8.3,2.4L419,467l-0.4,-0.1L413,460.5l1.2,-1l0,0.7l-0.5,2.3Z" class="g2_933" />
<path d="M410.5,463.3l2,-1.6l1.2,0.8l0,0.3l-0.3,0.2l-2,1.6Z" class="g2_933" />
<path fill-rule="evenodd" d="M413,462.4l0.5,-2.4l5.7,6.3l-8.3,-2.4Z" class="g2_933" />
<path d="M324.5,406.4l-0.3,-0.1l-0.3,0.6l0.2,0.2Z" class="g2_933" />
<path d="M411.8,461.3l0.2,0.2l-0.3,0.6l-0.3,-0.2Z" class="g2_933" />
<path d="M324.5,406.4l-0.4,0.7l87.3,54.8l0.4,-0.6Z" class="g2_933" />
</svg>