<?xml version="1.0" encoding="UTF-8" standalone="no"?>
<!DOCTYPE svg PUBLIC "-//W3C//DTD SVG 1.1//EN"
"http://www.w3.org/Graphics/SVG/1.1/DTD/svg11.dtd">
<svg viewBox="0 0 935 1210" version="1.1" xmlns="http://www.w3.org/2000/svg" xmlns:xlink="http://www.w3.org/1999/xlink">
<defs>
<style type="text/css"><![CDATA[
.g1_163{
fill: #FFFFFF;
}
.g2_163{
}
]]></style>
</defs>
<path d="M68.9,1149.3l686.3,0l0,-21.2l-686.3,0l0,21.2Z" class="g1_163" />
<path d="M771.3,1149.3l83.7,0l0,-21.2l-83.7,0l0,21.2Z" class="g1_163" />
<path d="M70.9,667.2l0.8,0l0,-541.5l-0.8,0l0,541.5Z" class="g2_163" />
<path d="M221.1,668.1l0.7,0l0,-543.2l-0.7,0l0,543.2Z" class="g2_163" />
<path d="M391.4,668.1l0.7,0l0,-543.2l-0.7,0l0,543.2Z" class="g2_163" />
<path d="M429.2,668.1l0.7,0l0,-543.2l-0.7,0l0,543.2Z" class="g2_163" />
<path d="M502.5,668.1l0.7,0l0,-543.2l-0.7,0l0,543.2Z" class="g2_163" />
<path d="M573.9,668.1l0.8,0l0,-543.2l-0.8,0l0,543.2Z" class="g2_163" />
<path d="M851,667.2l0.8,0l0,-541.5l-0.8,0l0,541.5Z" class="g2_163" />
<path d="M70.9,125.7l780.9,0l0,-0.8l-780.9,0l0,0.8Z" class="g2_163" />
<path d="M70.9,163.8l780.9,0l0,-0.7l-780.9,0l0,0.7Z" class="g2_163" />
<path d="M70.9,186.7l780.9,0l0,-0.7L70.9,186l0,0.7Z" class="g2_163" />
<path d="M70.9,209.6l780.9,0l0,-0.7l-780.9,0l0,0.7Z" class="g2_163" />
<path d="M70.9,232.6l780.9,0l0,-0.8l-780.9,0l0,0.8Z" class="g2_163" />
<path d="M70.9,255.5l780.9,0l0,-0.8l-780.9,0l0,0.8Z" class="g2_163" />
<path d="M70.9,278.4l780.9,0l0,-0.7l-780.9,0l0,0.7Z" class="g2_163" />
<path d="M70.9,301.3l780.9,0l0,-0.7l-780.9,0l0,0.7Z" class="g2_163" />
<path d="M70.9,324.2l780.9,0l0,-0.7l-780.9,0l0,0.7Z" class="g2_163" />
<path d="M70.9,347.1l780.9,0l0,-0.7l-780.9,0l0,0.7Z" class="g2_163" />
<path d="M70.9,370.1l780.9,0l0,-0.8l-780.9,0l0,0.8Z" class="g2_163" />
<path d="M70.9,393l780.9,0l0,-0.8l-780.9,0l0,0.8Z" class="g2_163" />
<path d="M70.9,416l780.9,0l0,-0.7l-780.9,0l0,0.7Z" class="g2_163" />
<path d="M70.9,438.9l780.9,0l0,-0.7l-780.9,0l0,0.7Z" class="g2_163" />
<path d="M70.9,461.8l780.9,0l0,-0.7l-780.9,0l0,0.7Z" class="g2_163" />
<path d="M70.9,484.7l780.9,0l0,-0.7L70.9,484l0,0.7Z" class="g2_163" />
<path d="M70.9,507.7l780.9,0l0,-0.8l-780.9,0l0,0.8Z" class="g2_163" />
<path d="M70.9,530.6l780.9,0l0,-0.8l-780.9,0l0,0.8Z" class="g2_163" />
<path d="M70.9,553.5l780.9,0l0,-0.8l-780.9,0l0,0.8Z" class="g2_163" />
<path d="M70.9,576.4l780.9,0l0,-0.7l-780.9,0l0,0.7Z" class="g2_163" />
<path d="M70.9,599.3l780.9,0l0,-0.7l-780.9,0l0,0.7Z" class="g2_163" />
<path d="M70.9,622.2l780.9,0l0,-0.7l-780.9,0l0,0.7Z" class="g2_163" />
<path d="M70.9,645.2l780.9,0l0,-0.8l-780.9,0l0,0.8Z" class="g2_163" />
<path d="M70.9,668.1l780.9,0l0,-0.8l-780.9,0l0,0.8Z" class="g2_163" />
<path d="M70.5,888.8l0.7,0l0,-121.5l-0.7,0l0,121.5Z" class="g2_163" />
<path d="M137.3,889.6l0.8,0l0,-123l-0.8,0l0,123Z" class="g2_163" />
<path d="M306.4,889.6l0.7,0l0,-123l-0.7,0l0,123Z" class="g2_163" />
<path d="M487.1,889.6l0.8,0l0,-123l-0.8,0l0,123Z" class="g2_163" />
<path d="M662.5,889.6l0.7,0l0,-123l-0.7,0l0,123Z" class="g2_163" />
<path d="M851.5,888.8l0.7,0l0,-121.5l-0.7,0l0,121.5Z" class="g2_163" />
<path d="M70.5,767.3l781.8,0l0,-0.7l-781.8,0l0,0.7Z" class="g2_163" />
<path d="M70.5,791.8l781.8,0l0,-0.7l-781.8,0l0,0.7Z" class="g2_163" />
<path d="M70.5,816.2l781.8,0l0,-0.7l-781.8,0l0,0.7Z" class="g2_163" />
<path d="M70.5,840.7l781.8,0l0,-0.8l-781.8,0l0,0.8Z" class="g2_163" />
<path d="M70.5,865.2l781.8,0l0,-0.8l-781.8,0l0,0.8Z" class="g2_163" />
<path d="M70.5,889.5l781.8,0l0,-0.7l-781.8,0l0,0.7Z" class="g2_163" />
</svg>