<?xml version="1.0" encoding="UTF-8" standalone="no"?>
<!DOCTYPE svg PUBLIC "-//W3C//DTD SVG 1.1//EN"
"http://www.w3.org/Graphics/SVG/1.1/DTD/svg11.dtd">
<svg viewBox="0 0 935 1210" version="1.1" xmlns="http://www.w3.org/2000/svg" xmlns:xlink="http://www.w3.org/1999/xlink">
<defs>
<style type="text/css"><![CDATA[
.g1_542{
fill: #FFFFFF;
}
.g2_542{
}
]]></style>
</defs>
<path d="M165,1149.3l687.5,0l0,-21.2l-687.5,0l0,21.2Z" class="g1_542" />
<path d="M68.8,1149.3l82.5,0l0,-21.2l-82.5,0l0,21.2Z" class="g1_542" />
<path d="M70.1,370.9l0.8,0l0,-236.1l-0.8,0l0,236.1Z" class="g2_542" />
<path d="M218.1,371.6l0.7,0l0,-237.5l-0.7,0l0,237.5Z" class="g2_542" />
<path d="M385.9,371.6l0.8,0l0,-237.5l-0.8,0l0,237.5Z" class="g2_542" />
<path d="M423.8,371.6l0.7,0l0,-237.5l-0.7,0l0,237.5Z" class="g2_542" />
<path d="M497.2,371.6l0.7,0l0,-237.5l-0.7,0l0,237.5Z" class="g2_542" />
<path d="M568.5,371.6l0.8,0l0,-237.5l-0.8,0l0,237.5Z" class="g2_542" />
<path d="M850.3,370.9l0.7,0l0,-236.1l-0.7,0l0,236.1Z" class="g2_542" />
<path d="M70.1,134.8l780.9,0l0,-0.7l-780.9,0l0,0.7Z" class="g2_542" />
<path d="M70.1,173L851,173l0,-0.8l-780.9,0l0,0.8Z" class="g2_542" />
<path d="M70.1,212.8l780.9,0l0,-0.8L70.1,212l0,0.8Z" class="g2_542" />
<path d="M70.1,252.4l780.9,0l0,-0.7l-780.9,0l0,0.7Z" class="g2_542" />
<path d="M70.1,292.1l780.9,0l0,-0.7l-780.9,0l0,0.7Z" class="g2_542" />
<path d="M70.1,331.9l780.9,0l0,-0.7l-780.9,0l0,0.7Z" class="g2_542" />
<path d="M70.1,371.6l780.9,0l0,-0.7l-780.9,0l0,0.7Z" class="g2_542" />
<path d="M69.1,514.5l0.8,0l0,-48.1l-0.8,0l0,48.1Z" class="g2_542" />
<path d="M144.4,515.3l0.7,0l0,-49.7l-0.7,0l0,49.7Z" class="g2_542" />
<path d="M312,515.3l0.8,0l0,-49.7l-0.8,0l0,49.7Z" class="g2_542" />
<path d="M490.1,515.3l0.7,0l0,-49.7l-0.7,0l0,49.7Z" class="g2_542" />
<path d="M671.1,515.3l0.7,0l0,-49.7l-0.7,0l0,49.7Z" class="g2_542" />
<path d="M851.3,514.5l0.7,0l0,-48.1l-0.7,0l0,48.1Z" class="g2_542" />
<path d="M69.1,466.4l782.9,0l0,-0.7l-782.9,0l0,0.7Z" class="g2_542" />
<path d="M69.1,490.8l782.9,0l0,-0.8L69.1,490l0,0.8Z" class="g2_542" />
<path d="M69.1,515.3l782.9,0l0,-0.8l-782.9,0l0,0.8Z" class="g2_542" />
<path d="M70.2,898l0.8,0L71,776.5l-0.8,0l0,121.5Z" class="g2_542" />
<path d="M271.3,898.8l0.8,0l0,-123l-0.8,0l0,123Z" class="g2_542" />
<path d="M371.4,898.8l0.8,0l0,-123l-0.8,0l0,123Z" class="g2_542" />
<path d="M463.7,898.8l0.8,0l0,-123l-0.8,0l0,123Z" class="g2_542" />
<path d="M565.4,898.8l0.7,0l0,-123l-0.7,0l0,123Z" class="g2_542" />
<path d="M675.9,898.8l0.7,0l0,-123l-0.7,0l0,123Z" class="g2_542" />
<path d="M850.2,898l0.7,0l0,-121.5l-0.7,0l0,121.5Z" class="g2_542" />
<path d="M70.2,776.5l780.7,0l0,-0.7l-780.7,0l0,0.7Z" class="g2_542" />
<path d="M70.2,801l780.7,0l0,-0.8l-780.7,0l0,0.8Z" class="g2_542" />
<path d="M70.2,898.7l780.7,0l0,-0.7L70.2,898l0,0.7Z" class="g2_542" />
</svg>