<?xml version="1.0" encoding="UTF-8" standalone="no"?>
<!DOCTYPE svg PUBLIC "-//W3C//DTD SVG 1.1//EN"
"http://www.w3.org/Graphics/SVG/1.1/DTD/svg11.dtd">
<svg viewBox="0 0 935 1210" version="1.1" xmlns="http://www.w3.org/2000/svg" xmlns:xlink="http://www.w3.org/1999/xlink">
<defs>
<style type="text/css"><![CDATA[
.g1_1727{
fill: #FFFFFF;
}
.g2_1727{
}
]]></style>
</defs>
<path d="M68.9,1149.3l686.3,0l0,-21.2l-686.3,0l0,21.2Z" class="g1_1727" />
<path d="M771.3,1149.3l83.7,0l0,-21.2l-83.7,0l0,21.2Z" class="g1_1727" />
<path d="M69.9,676.4l0.8,0l0,-550.7l-0.8,0l0,550.7Z" class="g2_1727" />
<path d="M324.7,677.2l0.7,0l0,-552.3l-0.7,0l0,552.3Z" class="g2_1727" />
<path d="M390.3,677.2l0.7,0l0,-552.3l-0.7,0l0,552.3Z" class="g2_1727" />
<path d="M464.8,677.2l0.8,0l0,-552.3l-0.8,0l0,552.3Z" class="g2_1727" />
<path d="M547.8,677.2l0.7,0l0,-552.3l-0.7,0l0,552.3Z" class="g2_1727" />
<path d="M853.6,676.4l0.7,0l0,-550.7l-0.7,0l0,550.7Z" class="g2_1727" />
<path d="M69.9,125.7l784.5,0l0,-0.8l-784.5,0l0,0.8Z" class="g2_1727" />
<path d="M69.9,176.1l784.5,0l0,-0.7l-784.5,0l0,0.7Z" class="g2_1727" />
<path d="M69.9,229.5l784.5,0l0,-0.7l-784.5,0l0,0.7Z" class="g2_1727" />
<path d="M69.9,283l784.5,0l0,-0.8l-784.5,0l0,0.8Z" class="g2_1727" />
<path d="M69.9,336.5l784.5,0l0,-0.7l-784.5,0l0,0.7Z" class="g2_1727" />
<path d="M69.9,389.9l784.5,0l0,-0.7l-784.5,0l0,0.7Z" class="g2_1727" />
<path d="M69.9,443.5l784.5,0l0,-0.8l-784.5,0l0,0.8Z" class="g2_1727" />
<path d="M69.9,480.2l784.5,0l0,-0.8l-784.5,0l0,0.8Z" class="g2_1727" />
<path d="M69.9,516.8l784.5,0l0,-0.7l-784.5,0l0,0.7Z" class="g2_1727" />
<path d="M69.9,570.3l784.5,0l0,-0.8l-784.5,0l0,0.8Z" class="g2_1727" />
<path d="M69.9,623.7l784.5,0l0,-0.7L69.9,623l0,0.7Z" class="g2_1727" />
<path d="M69.9,677.2l784.5,0l0,-0.7l-784.5,0l0,0.7Z" class="g2_1727" />
<path d="M71.2,853.7l0.8,0L72,732.2l-0.8,0l0,121.5Z" class="g2_1727" />
<path d="M173.1,854.4l0.7,0l0,-123l-0.7,0l0,123Z" class="g2_1727" />
<path d="M339.2,854.4l0.7,0l0,-123l-0.7,0l0,123Z" class="g2_1727" />
<path d="M507.7,854.4l0.7,0l0,-123l-0.7,0l0,123Z" class="g2_1727" />
<path d="M675.7,854.4l0.7,0l0,-123l-0.7,0l0,123Z" class="g2_1727" />
<path d="M850.8,853.7l0.7,0l0,-121.5l-0.7,0l0,121.5Z" class="g2_1727" />
<path d="M71.2,732.2l780.3,0l0,-0.7l-780.3,0l0,0.7Z" class="g2_1727" />
<path d="M71.2,756.6l780.3,0l0,-0.7l-780.3,0l0,0.7Z" class="g2_1727" />
<path d="M71.2,781.1l780.3,0l0,-0.7l-780.3,0l0,0.7Z" class="g2_1727" />
<path d="M71.2,805.6l780.3,0l0,-0.8l-780.3,0l0,0.8Z" class="g2_1727" />
<path d="M71.2,830l780.3,0l0,-0.8l-780.3,0l0,0.8Z" class="g2_1727" />
<path d="M71.2,854.4l780.3,0l0,-0.7l-780.3,0l0,0.7Z" class="g2_1727" />
</svg>