<?xml version="1.0" encoding="UTF-8" standalone="no"?>
<!DOCTYPE svg PUBLIC "-//W3C//DTD SVG 1.1//EN"
"http://www.w3.org/Graphics/SVG/1.1/DTD/svg11.dtd">
<svg viewBox="0 0 935 1210" version="1.1" xmlns="http://www.w3.org/2000/svg" xmlns:xlink="http://www.w3.org/1999/xlink">
<defs>
<style type="text/css"><![CDATA[
.g1_2173{
fill: #FFFFFF;
}
.g2_2173{
}
]]></style>
</defs>
<path d="M68.9,1149.3l783.8,0l0,-21.2l-783.8,0l0,21.2Z" class="g1_2173" />
<path d="M69.8,1085.9l0.7,0l0,-961.8l-0.7,0l0,961.8Z" class="g2_2173" />
<path d="M261.7,1086.7l0.7,0l0,-963.3l-0.7,0l0,963.3Z" class="g2_2173" />
<path d="M852.2,1085.9l0.8,0l0,-961.8l-0.8,0l0,961.8Z" class="g2_2173" />
<path d="M69.8,124.1l783.2,0l0,-0.7l-783.2,0l0,0.7Z" class="g2_2173" />
<path d="M69.8,147L853,147l0,-0.7l-783.2,0l0,0.7Z" class="g2_2173" />
<path d="M261.7,169.9l591.3,0l0,-0.7l-591.3,0l0,0.7Z" class="g2_2173" />
<path d="M261.7,192.9l591.3,0l0,-0.8l-591.3,0l0,0.8Z" class="g2_2173" />
<path d="M261.7,215.8l591.3,0l0,-0.8l-591.3,0l0,0.8Z" class="g2_2173" />
<path d="M261.7,238.7l591.3,0l0,-0.7l-591.3,0l0,0.7Z" class="g2_2173" />
<path d="M261.7,261.6l591.3,0l0,-0.7l-591.3,0l0,0.7Z" class="g2_2173" />
<path d="M261.7,284.5l591.3,0l0,-0.7l-591.3,0l0,0.7Z" class="g2_2173" />
<path d="M261.7,307.4l591.3,0l0,-0.7l-591.3,0l0,0.7Z" class="g2_2173" />
<path d="M261.7,330.4l591.3,0l0,-0.8l-591.3,0l0,0.8Z" class="g2_2173" />
<path d="M261.7,353.3l591.3,0l0,-0.7l-591.3,0l0,0.7Z" class="g2_2173" />
<path d="M261.7,376.2l591.3,0l0,-0.7l-591.3,0l0,0.7Z" class="g2_2173" />
<path d="M69.8,399.1l783.2,0l0,-0.7l-783.2,0l0,0.7Z" class="g2_2173" />
<path d="M261.7,422L853,422l0,-0.7l-591.3,0l0,0.7Z" class="g2_2173" />
<path d="M261.7,444.9l591.3,0l0,-0.7l-591.3,0l0,0.7Z" class="g2_2173" />
<path d="M261.7,467.9l591.3,0l0,-0.8l-591.3,0l0,0.8Z" class="g2_2173" />
<path d="M261.7,490.8l591.3,0l0,-0.8l-591.3,0l0,0.8Z" class="g2_2173" />
<path d="M261.7,513.7l591.3,0l0,-0.7l-591.3,0l0,0.7Z" class="g2_2173" />
<path d="M261.7,536.6l591.3,0l0,-0.7l-591.3,0l0,0.7Z" class="g2_2173" />
<path d="M261.7,559.5l591.3,0l0,-0.7l-591.3,0l0,0.7Z" class="g2_2173" />
<path d="M261.7,582.4l591.3,0l0,-0.7l-591.3,0l0,0.7Z" class="g2_2173" />
<path d="M261.7,605.4l591.3,0l0,-0.8l-591.3,0l0,0.8Z" class="g2_2173" />
<path d="M261.7,628.3l591.3,0l0,-0.7l-591.3,0l0,0.7Z" class="g2_2173" />
<path d="M261.7,651.2l591.3,0l0,-0.7l-591.3,0l0,0.7Z" class="g2_2173" />
<path d="M69.8,674.1l783.2,0l0,-0.7l-783.2,0l0,0.7Z" class="g2_2173" />
<path d="M261.7,697L853,697l0,-0.7l-591.3,0l0,0.7Z" class="g2_2173" />
<path d="M261.7,719.9l591.3,0l0,-0.7l-591.3,0l0,0.7Z" class="g2_2173" />
<path d="M261.7,742.9l591.3,0l0,-0.8l-591.3,0l0,0.8Z" class="g2_2173" />
<path d="M261.7,765.8l591.3,0l0,-0.7l-591.3,0l0,0.7Z" class="g2_2173" />
<path d="M261.7,788.7l591.3,0l0,-0.7l-591.3,0l0,0.7Z" class="g2_2173" />
<path d="M261.7,811.6l591.3,0l0,-0.7l-591.3,0l0,0.7Z" class="g2_2173" />
<path d="M261.7,834.5l591.3,0l0,-0.7l-591.3,0l0,0.7Z" class="g2_2173" />
<path d="M261.7,857.5l591.3,0l0,-0.8l-591.3,0l0,0.8Z" class="g2_2173" />
<path d="M261.7,880.4l591.3,0l0,-0.8l-591.3,0l0,0.8Z" class="g2_2173" />
<path d="M261.7,903.3l591.3,0l0,-0.7l-591.3,0l0,0.7Z" class="g2_2173" />
<path d="M261.7,926.2l591.3,0l0,-0.7l-591.3,0l0,0.7Z" class="g2_2173" />
<path d="M69.8,949.1l783.2,0l0,-0.7l-783.2,0l0,0.7Z" class="g2_2173" />
<path d="M261.7,972L853,972l0,-0.7l-591.3,0l0,0.7Z" class="g2_2173" />
<path d="M261.7,995L853,995l0,-0.8l-591.3,0l0,0.8Z" class="g2_2173" />
<path d="M261.7,1017.9l591.3,0l0,-0.8l-591.3,0l0,0.8Z" class="g2_2173" />
<path d="M261.7,1040.8l591.3,0l0,-0.8l-591.3,0l0,0.8Z" class="g2_2173" />
<path d="M261.7,1063.7l591.3,0l0,-0.7l-591.3,0l0,0.7Z" class="g2_2173" />
<path d="M69.8,1086.6l783.2,0l0,-0.7l-783.2,0l0,0.7Z" class="g2_2173" />
</svg>