<?xml version="1.0" encoding="UTF-8" standalone="no"?>
<!DOCTYPE svg PUBLIC "-//W3C//DTD SVG 1.1//EN"
"http://www.w3.org/Graphics/SVG/1.1/DTD/svg11.dtd">
<svg viewBox="0 0 935 1210" version="1.1" xmlns="http://www.w3.org/2000/svg" xmlns:xlink="http://www.w3.org/1999/xlink">
<defs>
<style type="text/css"><![CDATA[
.g1_1193{
fill: #FFFFFF;
}
.g2_1193{
}
]]></style>
</defs>
<path d="M68.9,1149.3l686.3,0l0,-21.2l-686.3,0l0,21.2Z" class="g1_1193" />
<path d="M771.3,1149.3l83.7,0l0,-21.2l-83.7,0l0,21.2Z" class="g1_1193" />
<path d="M69.2,311.3l0.7,0l0,-185.6l-0.7,0l0,185.6Z" class="g2_1193" />
<path d="M393.1,312l0.7,0l0,-187.1l-0.7,0l0,187.1Z" class="g2_1193" />
<path d="M430.9,312l0.8,0l0,-187.1l-0.8,0l0,187.1Z" class="g2_1193" />
<path d="M504.3,312l0.7,0l0,-187.1l-0.7,0l0,187.1Z" class="g2_1193" />
<path d="M575.7,312l0.7,0l0,-187.1l-0.7,0l0,187.1Z" class="g2_1193" />
<path d="M852.8,311.3l0.7,0l0,-185.6l-0.7,0l0,185.6Z" class="g2_1193" />
<path d="M69.2,125.7l784.4,0l0,-0.8l-784.4,0l0,0.8Z" class="g2_1193" />
<path d="M69.2,179.1l784.4,0l0,-0.7l-784.4,0l0,0.7Z" class="g2_1193" />
<path d="M69.2,223.4l784.4,0l0,-0.7l-784.4,0l0,0.7Z" class="g2_1193" />
<path d="M69.2,267.8l784.4,0l0,-0.8L69.2,267l0,0.8Z" class="g2_1193" />
<path d="M69.2,312l784.4,0l0,-0.7l-784.4,0l0,0.7Z" class="g2_1193" />
<path d="M69.3,415.2l0.7,0L70,367l-0.7,0l0,48.2Z" class="g2_1193" />
<path d="M138.1,416l0.8,0l0,-49.7l-0.8,0l0,49.7Z" class="g2_1193" />
<path d="M309.3,416l0.7,0l0,-49.7l-0.7,0l0,49.7Z" class="g2_1193" />
<path d="M485.9,416l0.8,0l0,-49.7l-0.8,0l0,49.7Z" class="g2_1193" />
<path d="M670.3,416l0.7,0l0,-49.7l-0.7,0l0,49.7Z" class="g2_1193" />
<path d="M852.7,415.2l0.7,0l0,-48.2l-0.7,0l0,48.2Z" class="g2_1193" />
<path d="M69.3,367l784.1,0l0,-0.7l-784.1,0l0,0.7Z" class="g2_1193" />
<path d="M69.3,391.5l784.1,0l0,-0.7l-784.1,0l0,0.7Z" class="g2_1193" />
<path d="M69.3,416l784.1,0l0,-0.7l-784.1,0l0,0.7Z" class="g2_1193" />
</svg>