<?xml version="1.0" encoding="UTF-8" standalone="no"?>
<!DOCTYPE svg PUBLIC "-//W3C//DTD SVG 1.1//EN"
"http://www.w3.org/Graphics/SVG/1.1/DTD/svg11.dtd">
<svg viewBox="0 0 935 1210" version="1.1" xmlns="http://www.w3.org/2000/svg" xmlns:xlink="http://www.w3.org/1999/xlink">
<defs>
<style type="text/css"><![CDATA[
.g1_1549{
fill: #FFFFFF;
}
.g2_1549{
}
]]></style>
</defs>
<path d="M68.9,1149.3l686.3,0l0,-21.2l-686.3,0l0,21.2Z" class="g1_1549" />
<path d="M771.3,1149.3l83.7,0l0,-21.2l-83.7,0l0,21.2Z" class="g1_1549" />
<path d="M71.5,195.2l0.7,0l0,-72.6l-0.7,0l0,72.6Z" class="g2_1549" />
<path d="M184.1,196l0.7,0l0,-74.2l-0.7,0l0,74.2Z" class="g2_1549" />
<path d="M349.3,196l0.7,0l0,-74.2l-0.7,0l0,74.2Z" class="g2_1549" />
<path d="M519.1,196l0.7,0l0,-74.2l-0.7,0l0,74.2Z" class="g2_1549" />
<path d="M686.1,196l0.8,0l0,-74.2l-0.8,0l0,74.2Z" class="g2_1549" />
<path d="M850.5,195.2l0.7,0l0,-72.6l-0.7,0l0,72.6Z" class="g2_1549" />
<path d="M71.4,122.6l779.9,0l0,-0.8l-779.9,0l0,0.8Z" class="g2_1549" />
<path d="M71.4,147l779.9,0l0,-0.7l-779.9,0l0,0.7Z" class="g2_1549" />
<path d="M71.4,171.5l779.9,0l0,-0.7l-779.9,0l0,0.7Z" class="g2_1549" />
<path d="M71.4,195.9l779.9,0l0,-0.7l-779.9,0l0,0.7Z" class="g2_1549" />
</svg>