<?xml version="1.0" encoding="UTF-8" standalone="no"?>
<!DOCTYPE svg PUBLIC "-//W3C//DTD SVG 1.1//EN"
"http://www.w3.org/Graphics/SVG/1.1/DTD/svg11.dtd">
<svg viewBox="0 0 935 1210" version="1.1" xmlns="http://www.w3.org/2000/svg" xmlns:xlink="http://www.w3.org/1999/xlink">
<defs>
<style type="text/css"><![CDATA[
.g1_292{
fill: #FFFFFF;
}
.g2_292{
}
]]></style>
</defs>
<path d="M165,1149.3l687.5,0l0,-21.2l-687.5,0l0,21.2Z" class="g1_292" />
<path d="M68.8,1149.3l82.5,0l0,-21.2l-82.5,0l0,21.2Z" class="g1_292" />
<path d="M68.9,1064.9l0,-0.7Z" class="g2_292" />
<path d="M68.9,1064.9l220.4,0l0,-0.7l-220.4,0l0,0.7Z" class="g2_292" />
<path d="M68.9,236.4l0.8,0l0,-110.7l-0.8,0l0,110.7Z" class="g2_292" />
<path d="M220.2,237.2l0.7,0l0,-112.3l-0.7,0l0,112.3Z" class="g2_292" />
<path d="M391.7,237.2l0.7,0l0,-112.3l-0.7,0l0,112.3Z" class="g2_292" />
<path d="M429.6,237.2l0.7,0l0,-112.3l-0.7,0l0,112.3Z" class="g2_292" />
<path d="M502.9,237.2l0.7,0l0,-112.3l-0.7,0l0,112.3Z" class="g2_292" />
<path d="M574.3,237.2l0.7,0l0,-112.3l-0.7,0l0,112.3Z" class="g2_292" />
<path d="M851.4,236.4l0.7,0l0,-110.7l-0.7,0l0,110.7Z" class="g2_292" />
<path d="M68.9,125.7l783.3,0l0,-0.8l-783.3,0l0,0.8Z" class="g2_292" />
<path d="M68.9,163.8l783.3,0l0,-0.7l-783.3,0l0,0.7Z" class="g2_292" />
<path d="M68.9,237.1l783.3,0l0,-0.7l-783.3,0l0,0.7Z" class="g2_292" />
<path d="M69.1,340.4l0.8,0l0,-48.2l-0.8,0l0,48.2Z" class="g2_292" />
<path d="M136.5,341.1l0.7,0l0,-49.7l-0.7,0l0,49.7Z" class="g2_292" />
<path d="M323.8,341.1l0.7,0l0,-49.7l-0.7,0l0,49.7Z" class="g2_292" />
<path d="M496.7,341.1l0.8,0l0,-49.7l-0.8,0l0,49.7Z" class="g2_292" />
<path d="M679.6,341.1l0.8,0l0,-49.7l-0.8,0l0,49.7Z" class="g2_292" />
<path d="M851.3,340.4l0.7,0l0,-48.2l-0.7,0l0,48.2Z" class="g2_292" />
<path d="M69.1,292.1l782.9,0l0,-0.7l-782.9,0l0,0.7Z" class="g2_292" />
<path d="M69.1,316.6l782.9,0l0,-0.7l-782.9,0l0,0.7Z" class="g2_292" />
<path d="M69.1,341.1l782.9,0l0,-0.7l-782.9,0l0,0.7Z" class="g2_292" />
</svg>