<?xml version="1.0" encoding="UTF-8" standalone="no"?>
<!DOCTYPE svg PUBLIC "-//W3C//DTD SVG 1.1//EN"
"http://www.w3.org/Graphics/SVG/1.1/DTD/svg11.dtd">
<svg viewBox="0 0 935 1210" version="1.1" xmlns="http://www.w3.org/2000/svg" xmlns:xlink="http://www.w3.org/1999/xlink">
<defs>
<style type="text/css"><![CDATA[
.g1_1325{
fill: #FFFFFF;
}
.g2_1325{
}
]]></style>
</defs>
<path d="M68.9,1149.3l686.3,0l0,-21.2l-686.3,0l0,21.2Z" class="g1_1325" />
<path d="M771.3,1149.3l83.7,0l0,-21.2l-83.7,0l0,21.2Z" class="g1_1325" />
<path d="M69.2,225.8l0.7,0l0,-100.1l-0.7,0l0,100.1Z" class="g2_1325" />
<path d="M220.4,226.5l0.7,0l0,-101.6l-0.7,0l0,101.6Z" class="g2_1325" />
<path d="M391.9,226.5l0.7,0l0,-101.6l-0.7,0l0,101.6Z" class="g2_1325" />
<path d="M429.7,226.5l0.8,0l0,-101.6l-0.8,0l0,101.6Z" class="g2_1325" />
<path d="M503.2,226.5l0.7,0l0,-101.6l-0.7,0l0,101.6Z" class="g2_1325" />
<path d="M574.5,226.5l0.7,0l0,-101.6l-0.7,0l0,101.6Z" class="g2_1325" />
<path d="M852.8,225.8l0.7,0l0,-100.1l-0.7,0l0,100.1Z" class="g2_1325" />
<path d="M69.2,125.7l784.4,0l0,-0.8l-784.4,0l0,0.8Z" class="g2_1325" />
<path d="M69.2,163.8l784.4,0l0,-0.7l-784.4,0l0,0.7Z" class="g2_1325" />
<path d="M69.2,186.7l784.4,0l0,-0.7L69.2,186l0,0.7Z" class="g2_1325" />
<path d="M69.2,226.5l784.4,0l0,-0.7l-784.4,0l0,0.7Z" class="g2_1325" />
<path d="M69.9,329.6l0.7,0l0,-48.1l-0.7,0l0,48.1Z" class="g2_1325" />
<path d="M138.8,330.4l0.7,0l0,-49.6l-0.7,0l0,49.6Z" class="g2_1325" />
<path d="M315.5,330.4l0.8,0l0,-49.6l-0.8,0l0,49.6Z" class="g2_1325" />
<path d="M495.5,330.4l0.7,0l0,-49.6l-0.7,0l0,49.6Z" class="g2_1325" />
<path d="M676,330.4l0.7,0l0,-49.6l-0.7,0l0,49.6Z" class="g2_1325" />
<path d="M852.1,329.6l0.8,0l0,-48.1l-0.8,0l0,48.1Z" class="g2_1325" />
<path d="M69.9,281.5l783,0l0,-0.7l-783,0l0,0.7Z" class="g2_1325" />
<path d="M69.9,305.9l783,0l0,-0.7l-783,0l0,0.7Z" class="g2_1325" />
<path d="M69.9,330.4l783,0l0,-0.8l-783,0l0,0.8Z" class="g2_1325" />
</svg>