<?xml version="1.0" encoding="UTF-8" standalone="no"?>
<!DOCTYPE svg PUBLIC "-//W3C//DTD SVG 1.1//EN"
"http://www.w3.org/Graphics/SVG/1.1/DTD/svg11.dtd">
<svg viewBox="0 0 935 1210" version="1.1" xmlns="http://www.w3.org/2000/svg" xmlns:xlink="http://www.w3.org/1999/xlink">
<defs>
<style type="text/css"><![CDATA[
.g1_968{
fill: #FFFFFF;
}
.g2_968{
}
]]></style>
</defs>
<path d="M165,1149.3l687.5,0l0,-21.2l-687.5,0l0,21.2Z" class="g1_968" />
<path d="M68.8,1149.3l82.5,0l0,-21.2l-82.5,0l0,21.2Z" class="g1_968" />
<path d="M68.6,656.6l0.7,0l0,-530.9l-0.7,0l0,530.9Z" class="g2_968" />
<path d="M312,657.3l0.8,0l0,-532.4l-0.8,0l0,532.4Z" class="g2_968" />
<path d="M359.9,657.3l0.7,0l0,-532.4l-0.7,0l0,532.4Z" class="g2_968" />
<path d="M431.7,657.3l0.7,0l0,-532.4l-0.7,0l0,532.4Z" class="g2_968" />
<path d="M516.7,657.3l0.8,0l0,-532.4l-0.8,0l0,532.4Z" class="g2_968" />
<path d="M850.3,656.6l0.7,0l0,-530.9l-0.7,0l0,530.9Z" class="g2_968" />
<path d="M68.6,125.7l782.4,0l0,-0.8l-782.4,0l0,0.8Z" class="g2_968" />
<path d="M68.6,176.1l782.4,0l0,-0.7l-782.4,0l0,0.7Z" class="g2_968" />
<path d="M68.6,229.5l782.4,0l0,-0.7l-782.4,0l0,0.7Z" class="g2_968" />
<path d="M68.6,283L851,283l0,-0.8l-782.4,0l0,0.8Z" class="g2_968" />
<path d="M68.6,336.5l782.4,0l0,-0.7l-782.4,0l0,0.7Z" class="g2_968" />
<path d="M68.6,389.9l782.4,0l0,-0.7l-782.4,0l0,0.7Z" class="g2_968" />
<path d="M68.6,443.5l782.4,0l0,-0.8l-782.4,0l0,0.8Z" class="g2_968" />
<path d="M68.6,496.9l782.4,0l0,-0.7l-782.4,0l0,0.7Z" class="g2_968" />
<path d="M68.6,550.4l782.4,0l0,-0.8l-782.4,0l0,0.8Z" class="g2_968" />
<path d="M68.6,603.9l782.4,0l0,-0.7l-782.4,0l0,0.7Z" class="g2_968" />
<path d="M68.6,657.3l782.4,0l0,-0.7l-782.4,0l0,0.7Z" class="g2_968" />
<path d="M70.9,809.4l0.7,0l0,-97.1l-0.7,0l0,97.1Z" class="g2_968" />
<path d="M179.6,810.2l0.7,0l0,-98.6l-0.7,0l0,98.6Z" class="g2_968" />
<path d="M341,810.2l0.7,0l0,-98.6l-0.7,0l0,98.6Z" class="g2_968" />
<path d="M513.7,810.2l0.7,0l0,-98.6l-0.7,0l0,98.6Z" class="g2_968" />
<path d="M684.1,810.2l0.7,0l0,-98.6l-0.7,0l0,98.6Z" class="g2_968" />
<path d="M849.6,809.4l0.7,0l0,-97.1l-0.7,0l0,97.1Z" class="g2_968" />
<path d="M70.9,712.3l779.4,0l0,-0.7l-779.4,0l0,0.7Z" class="g2_968" />
<path d="M70.9,736.8l779.4,0l0,-0.7l-779.4,0l0,0.7Z" class="g2_968" />
<path d="M70.9,761.2l779.4,0l0,-0.7l-779.4,0l0,0.7Z" class="g2_968" />
<path d="M70.9,785.7l779.4,0l0,-0.8l-779.4,0l0,0.8Z" class="g2_968" />
<path d="M70.9,810.2l779.4,0l0,-0.8l-779.4,0l0,0.8Z" class="g2_968" />
</svg>