<?xml version="1.0" encoding="UTF-8" standalone="no"?>
<!DOCTYPE svg PUBLIC "-//W3C//DTD SVG 1.1//EN"
"http://www.w3.org/Graphics/SVG/1.1/DTD/svg11.dtd">
<svg viewBox="0 0 935 1210" version="1.1" xmlns="http://www.w3.org/2000/svg" xmlns:xlink="http://www.w3.org/1999/xlink">
<defs>
<style type="text/css"><![CDATA[
.g1_1983{
fill: #FFFFFF;
}
.g2_1983{
}
]]></style>
</defs>
<path d="M68.9,1149.3l686.3,0l0,-21.2l-686.3,0l0,21.2Z" class="g1_1983" />
<path d="M771.3,1149.3l83.7,0l0,-21.2l-83.7,0l0,21.2Z" class="g1_1983" />
<path d="M72,398.4l0.7,0l0,-268.1l-0.7,0l0,268.1Z" class="g2_1983" />
<path d="M173.5,399.1l0.8,0l0,-269.6l-0.8,0l0,269.6Z" class="g2_1983" />
<path d="M365,399.1l0.8,0l0,-269.6l-0.8,0l0,269.6Z" class="g2_1983" />
<path d="M850,398.4l0.8,0l0,-268.1l-0.8,0l0,268.1Z" class="g2_1983" />
<path d="M72,130.3l778.8,0l0,-0.8L72,129.5l0,0.8Z" class="g2_1983" />
<path d="M72,154.6l778.8,0l0,-0.7L72,153.9l0,0.7Z" class="g2_1983" />
<path d="M72,179.1l778.8,0l0,-0.7L72,178.4l0,0.7Z" class="g2_1983" />
<path d="M72,203.6l778.8,0l0,-0.7L72,202.9l0,0.7Z" class="g2_1983" />
<path d="M72,228l778.8,0l0,-0.8L72,227.2l0,0.8Z" class="g2_1983" />
<path d="M72,252.4l778.8,0l0,-0.7L72,251.7l0,0.7Z" class="g2_1983" />
<path d="M72,276.9l778.8,0l0,-0.7L72,276.2l0,0.7Z" class="g2_1983" />
<path d="M72,301.3l778.8,0l0,-0.7L72,300.6l0,0.7Z" class="g2_1983" />
<path d="M72,325.8l778.8,0l0,-0.7L72,325.1l0,0.7Z" class="g2_1983" />
<path d="M72,350.3l778.8,0l0,-0.8L72,349.5l0,0.8Z" class="g2_1983" />
<path d="M72,374.6l778.8,0l0,-0.7L72,373.9l0,0.7Z" class="g2_1983" />
<path d="M72,399.1l778.8,0l0,-0.7L72,398.4l0,0.7Z" class="g2_1983" />
</svg>