<?xml version="1.0" encoding="UTF-8" standalone="no"?>
<!DOCTYPE svg PUBLIC "-//W3C//DTD SVG 1.1//EN"
"http://www.w3.org/Graphics/SVG/1.1/DTD/svg11.dtd">
<svg viewBox="0 0 935 1210" version="1.1" xmlns="http://www.w3.org/2000/svg" xmlns:xlink="http://www.w3.org/1999/xlink">
<defs>
<style type="text/css"><![CDATA[
.g1_1870{
fill: #FFFFFF;
}
.g2_1870{
}
]]></style>
</defs>
<path d="M165,1149.3l687.5,0l0,-21.2l-687.5,0l0,21.2Z" class="g1_1870" />
<path d="M68.8,1149.3l82.5,0l0,-21.2l-82.5,0l0,21.2Z" class="g1_1870" />
<path d="M68.6,228.8l0.7,0l0,-103.1l-0.7,0l0,103.1Z" class="g2_1870" />
<path d="M310.1,229.5l0.7,0l0,-104.6l-0.7,0l0,104.6Z" class="g2_1870" />
<path d="M354.7,229.5l0.8,0l0,-104.6l-0.8,0l0,104.6Z" class="g2_1870" />
<path d="M429.3,229.5l0.7,0l0,-104.6l-0.7,0l0,104.6Z" class="g2_1870" />
<path d="M504,229.5l0.7,0l0,-104.6l-0.7,0l0,104.6Z" class="g2_1870" />
<path d="M850.8,228.8l0.7,0l0,-103.1l-0.7,0l0,103.1Z" class="g2_1870" />
<path d="M68.6,125.7l783,0l0,-0.8l-783,0l0,0.8Z" class="g2_1870" />
<path d="M68.6,176.1l783,0l0,-0.7l-783,0l0,0.7Z" class="g2_1870" />
<path d="M68.6,229.5l783,0l0,-0.7l-783,0l0,0.7Z" class="g2_1870" />
<path d="M70.9,332.7l0.8,0l0,-48.2l-0.8,0l0,48.2Z" class="g2_1870" />
<path d="M188.4,333.5l0.7,0l0,-49.7l-0.7,0l0,49.7Z" class="g2_1870" />
<path d="M353.8,333.5l0.8,0l0,-49.7l-0.8,0l0,49.7Z" class="g2_1870" />
<path d="M519,333.5l0.8,0l0,-49.7l-0.8,0l0,49.7Z" class="g2_1870" />
<path d="M682.9,333.5l0.8,0l0,-49.7l-0.8,0l0,49.7Z" class="g2_1870" />
<path d="M849.5,332.7l0.7,0l0,-48.2l-0.7,0l0,48.2Z" class="g2_1870" />
<path d="M70.9,284.5l779.3,0l0,-0.7l-779.3,0l0,0.7Z" class="g2_1870" />
<path d="M70.9,309l779.3,0l0,-0.7l-779.3,0l0,0.7Z" class="g2_1870" />
<path d="M70.9,333.4l779.3,0l0,-0.7l-779.3,0l0,0.7Z" class="g2_1870" />
</svg>