<?xml version="1.0" encoding="UTF-8" standalone="no"?>
<!DOCTYPE svg PUBLIC "-//W3C//DTD SVG 1.1//EN"
"http://www.w3.org/Graphics/SVG/1.1/DTD/svg11.dtd">
<svg viewBox="0 0 935 1210" version="1.1" xmlns="http://www.w3.org/2000/svg" xmlns:xlink="http://www.w3.org/1999/xlink">
<defs>
<style type="text/css"><![CDATA[
.g1_187{
fill: #FFFFFF;
}
.g2_187{
}
]]></style>
</defs>
<path d="M68.9,1149.3l686.3,0l0,-21.2l-686.3,0l0,21.2Z" class="g1_187" />
<path d="M771.3,1149.3l83.7,0l0,-21.2l-83.7,0l0,21.2Z" class="g1_187" />
<path d="M70.3,398.4l0.7,0L71,125.7l-0.7,0l0,272.7Z" class="g2_187" />
<path d="M391.9,399.1l0.7,0l0,-274.2l-0.7,0l0,274.2Z" class="g2_187" />
<path d="M437.8,399.1l0.7,0l0,-274.2l-0.7,0l0,274.2Z" class="g2_187" />
<path d="M511.1,399.1l0.8,0l0,-274.2l-0.8,0l0,274.2Z" class="g2_187" />
<path d="M575.7,399.1l0.7,0l0,-274.2l-0.7,0l0,274.2Z" class="g2_187" />
<path d="M851.7,398.4l0.7,0l0,-272.7l-0.7,0l0,272.7Z" class="g2_187" />
<path d="M70.3,125.7l782.1,0l0,-0.8l-782.1,0l0,0.8Z" class="g2_187" />
<path d="M70.3,179.1l782.1,0l0,-0.7l-782.1,0l0,0.7Z" class="g2_187" />
<path d="M70.3,252.4l782.1,0l0,-0.7l-782.1,0l0,0.7Z" class="g2_187" />
<path d="M70.3,325.8l782.1,0l0,-0.7l-782.1,0l0,0.7Z" class="g2_187" />
<path d="M70.3,399.1l782.1,0l0,-0.7l-782.1,0l0,0.7Z" class="g2_187" />
<path d="M70.5,526.7l0.7,0l0,-72.6l-0.7,0l0,72.6Z" class="g2_187" />
<path d="M135.5,527.4l0.7,0l0,-74l-0.7,0l0,74Z" class="g2_187" />
<path d="M307.7,527.4l0.8,0l0,-74l-0.8,0l0,74Z" class="g2_187" />
<path d="M486.8,527.4l0.8,0l0,-74l-0.8,0l0,74Z" class="g2_187" />
<path d="M665.4,527.4l0.7,0l0,-74l-0.7,0l0,74Z" class="g2_187" />
<path d="M851.5,526.7l0.7,0l0,-72.6l-0.7,0l0,72.6Z" class="g2_187" />
<path d="M70.5,454.1l781.8,0l0,-0.7l-781.8,0l0,0.7Z" class="g2_187" />
<path d="M70.5,478.6l781.8,0l0,-0.7l-781.8,0l0,0.7Z" class="g2_187" />
<path d="M70.5,503.1l781.8,0l0,-0.8l-781.8,0l0,0.8Z" class="g2_187" />
<path d="M70.5,527.4l781.8,0l0,-0.7l-781.8,0l0,0.7Z" class="g2_187" />
</svg>