<?xml version="1.0" encoding="UTF-8" standalone="no"?>
<!DOCTYPE svg PUBLIC "-//W3C//DTD SVG 1.1//EN"
"http://www.w3.org/Graphics/SVG/1.1/DTD/svg11.dtd">
<svg viewBox="0 0 935 1210" version="1.1" xmlns="http://www.w3.org/2000/svg" xmlns:xlink="http://www.w3.org/1999/xlink">
<defs>
<style type="text/css"><![CDATA[
.g1_327{
fill: #FFFFFF;
}
.g2_327{
}
]]></style>
</defs>
<path d="M68.9,1149.3l686.3,0l0,-21.2l-686.3,0l0,21.2Z" class="g1_327" />
<path d="M771.3,1149.3l83.7,0l0,-21.2l-83.7,0l0,21.2Z" class="g1_327" />
<path d="M69.8,428.9l0.7,0l0,-303.2l-0.7,0l0,303.2Z" class="g2_327" />
<path d="M392.5,429.7l0.7,0l0,-304.8l-0.7,0l0,304.8Z" class="g2_327" />
<path d="M430.3,429.7l0.7,0l0,-304.8l-0.7,0l0,304.8Z" class="g2_327" />
<path d="M503.7,429.7l0.7,0l0,-304.8l-0.7,0l0,304.8Z" class="g2_327" />
<path d="M575.1,429.7l0.8,0l0,-304.8l-0.8,0l0,304.8Z" class="g2_327" />
<path d="M852.2,428.9l0.8,0l0,-303.2l-0.8,0l0,303.2Z" class="g2_327" />
<path d="M69.8,125.7l783.2,0l0,-0.8l-783.2,0l0,0.8Z" class="g2_327" />
<path d="M69.8,163.8l783.2,0l0,-0.7l-783.2,0l0,0.7Z" class="g2_327" />
<path d="M69.8,208.2l783.2,0l0,-0.8l-783.2,0l0,0.8Z" class="g2_327" />
<path d="M69.8,252.4l783.2,0l0,-0.7l-783.2,0l0,0.7Z" class="g2_327" />
<path d="M69.8,296.7l783.2,0l0,-0.7L69.8,296l0,0.7Z" class="g2_327" />
<path d="M69.8,341.1l783.2,0l0,-0.7l-783.2,0l0,0.7Z" class="g2_327" />
<path d="M69.8,385.4l783.2,0l0,-0.8l-783.2,0l0,0.8Z" class="g2_327" />
<path d="M69.8,429.7l783.2,0l0,-0.7L69.8,429l0,0.7Z" class="g2_327" />
<path d="M71.6,572.6l0.7,0l0,-48.2l-0.7,0l0,48.2Z" class="g2_327" />
<path d="M136,573.3l0.8,0l0,-49.6l-0.8,0l0,49.6Z" class="g2_327" />
<path d="M315.1,573.3l0.7,0l0,-49.6l-0.7,0l0,49.6Z" class="g2_327" />
<path d="M492.6,573.3l0.8,0l0,-49.6l-0.8,0l0,49.6Z" class="g2_327" />
<path d="M668.2,573.3l0.8,0l0,-49.6l-0.8,0l0,49.6Z" class="g2_327" />
<path d="M850.4,572.6l0.7,0l0,-48.2l-0.7,0l0,48.2Z" class="g2_327" />
<path d="M71.6,524.4l779.5,0l0,-0.7l-779.5,0l0,0.7Z" class="g2_327" />
<path d="M71.6,548.9l779.5,0l0,-0.7l-779.5,0l0,0.7Z" class="g2_327" />
<path d="M71.6,573.3l779.5,0l0,-0.7l-779.5,0l0,0.7Z" class="g2_327" />
</svg>