<?xml version="1.0" encoding="UTF-8" standalone="no"?>
<!DOCTYPE svg PUBLIC "-//W3C//DTD SVG 1.1//EN"
"http://www.w3.org/Graphics/SVG/1.1/DTD/svg11.dtd">
<svg viewBox="0 0 935 1210" version="1.1" xmlns="http://www.w3.org/2000/svg" xmlns:xlink="http://www.w3.org/1999/xlink">
<defs>
<style type="text/css"><![CDATA[
.g1_664{
fill: #FFFFFF;
}
.g2_664{
}
]]></style>
</defs>
<path d="M165,1149.3l687.5,0l0,-21.2l-687.5,0l0,21.2Z" class="g1_664" />
<path d="M68.8,1149.3l82.5,0l0,-21.2l-82.5,0l0,21.2Z" class="g1_664" />
<path d="M68.6,513l0.7,0l0,-387.3l-0.7,0l0,387.3Z" class="g2_664" />
<path d="M313.3,513.7l0.7,0l0,-388.8l-0.7,0l0,388.8Z" class="g2_664" />
<path d="M359.9,513.7l0.7,0l0,-388.8l-0.7,0l0,388.8Z" class="g2_664" />
<path d="M434.3,513.7l0.8,0l0,-388.8l-0.8,0l0,388.8Z" class="g2_664" />
<path d="M519.3,513.7l0.7,0l0,-388.8l-0.7,0l0,388.8Z" class="g2_664" />
<path d="M851.9,513l0.7,0l0,-387.3l-0.7,0l0,387.3Z" class="g2_664" />
<path d="M68.6,125.7l784.1,0l0,-0.8l-784.1,0l0,0.8Z" class="g2_664" />
<path d="M68.6,176.1l784.1,0l0,-0.7l-784.1,0l0,0.7Z" class="g2_664" />
<path d="M68.6,212.8l784.1,0l0,-0.8L68.6,212l0,0.8Z" class="g2_664" />
<path d="M68.6,249.4l784.1,0l0,-0.7l-784.1,0l0,0.7Z" class="g2_664" />
<path d="M68.6,302.9l784.1,0l0,-0.8l-784.1,0l0,0.8Z" class="g2_664" />
<path d="M68.6,373.2l784.1,0l0,-0.8l-784.1,0l0,0.8Z" class="g2_664" />
<path d="M68.6,443.5l784.1,0l0,-0.8l-784.1,0l0,0.8Z" class="g2_664" />
<path d="M68.6,513.7l784.1,0l0,-0.7L68.6,513l0,0.7Z" class="g2_664" />
<path d="M69.3,665.8l0.7,0l0,-97.1l-0.7,0l0,97.1Z" class="g2_664" />
<path d="M182.9,666.5l0.7,0l0,-98.5l-0.7,0l0,98.5Z" class="g2_664" />
<path d="M350.5,666.5l0.8,0l0,-98.5l-0.8,0l0,98.5Z" class="g2_664" />
<path d="M520.1,666.5l0.8,0l0,-98.5l-0.8,0l0,98.5Z" class="g2_664" />
<path d="M682.6,666.5l0.8,0l0,-98.5l-0.8,0l0,98.5Z" class="g2_664" />
<path d="M851.1,665.8l0.8,0l0,-97.1l-0.8,0l0,97.1Z" class="g2_664" />
<path d="M69.3,568.7l782.6,0l0,-0.7L69.3,568l0,0.7Z" class="g2_664" />
<path d="M69.3,593.2l782.6,0l0,-0.8l-782.6,0l0,0.8Z" class="g2_664" />
<path d="M69.3,617.7l782.6,0l0,-0.8l-782.6,0l0,0.8Z" class="g2_664" />
<path d="M69.3,642l782.6,0l0,-0.7l-782.6,0l0,0.7Z" class="g2_664" />
<path d="M69.3,666.5l782.6,0l0,-0.7l-782.6,0l0,0.7Z" class="g2_664" />
</svg>