<?xml version="1.0" encoding="UTF-8" standalone="no"?>
<!DOCTYPE svg PUBLIC "-//W3C//DTD SVG 1.1//EN"
"http://www.w3.org/Graphics/SVG/1.1/DTD/svg11.dtd">
<svg viewBox="0 0 935 1210" version="1.1" xmlns="http://www.w3.org/2000/svg" xmlns:xlink="http://www.w3.org/1999/xlink">
<defs>
<style type="text/css"><![CDATA[
.g1_210{
fill: #FFFFFF;
}
.g2_210{
}
]]></style>
</defs>
<path d="M165,1149.3l687.5,0l0,-21.2l-687.5,0l0,21.2Z" class="g1_210" />
<path d="M68.8,1149.3l82.5,0l0,-21.2l-82.5,0l0,21.2Z" class="g1_210" />
<path d="M70.1,231.8l0.8,0l0,-106.1l-0.8,0l0,106.1Z" class="g2_210" />
<path d="M219.7,232.7l0.8,0l0,-107.8l-0.8,0l0,107.8Z" class="g2_210" />
<path d="M389.4,232.7l0.7,0l0,-107.8l-0.7,0l0,107.8Z" class="g2_210" />
<path d="M427.3,232.7l0.7,0l0,-107.8l-0.7,0l0,107.8Z" class="g2_210" />
<path d="M500.6,232.7l0.7,0l0,-107.8l-0.7,0l0,107.8Z" class="g2_210" />
<path d="M572,232.7l0.7,0l0,-107.8l-0.7,0l0,107.8Z" class="g2_210" />
<path d="M850.3,231.8l0.7,0l0,-106.1l-0.7,0l0,106.1Z" class="g2_210" />
<path d="M70.1,125.7l780.9,0l0,-0.8l-780.9,0l0,0.8Z" class="g2_210" />
<path d="M70.1,163.8l780.9,0l0,-0.7l-780.9,0l0,0.7Z" class="g2_210" />
<path d="M70.1,186.7l780.9,0l0,-0.7L70.1,186l0,0.7Z" class="g2_210" />
<path d="M70.1,209.6l780.9,0l0,-0.7l-780.9,0l0,0.7Z" class="g2_210" />
<path d="M70.1,232.6l780.9,0l0,-0.8l-780.9,0l0,0.8Z" class="g2_210" />
<path d="M67.4,335.8l0.7,0l0,-48.1l-0.7,0l0,48.1Z" class="g2_210" />
<path d="M135.7,336.5l0.7,0l0,-49.7l-0.7,0l0,49.7Z" class="g2_210" />
<path d="M312.8,336.5l0.7,0l0,-49.7l-0.7,0l0,49.7Z" class="g2_210" />
<path d="M494.4,336.5l0.7,0l0,-49.7l-0.7,0l0,49.7Z" class="g2_210" />
<path d="M664.3,336.5l0.7,0l0,-49.7l-0.7,0l0,49.7Z" class="g2_210" />
<path d="M853,335.8l0.8,0l0,-48.1l-0.8,0l0,48.1Z" class="g2_210" />
<path d="M67.4,287.6l786.4,0l0,-0.8l-786.4,0l0,0.8Z" class="g2_210" />
<path d="M67.4,312l786.4,0l0,-0.7l-786.4,0l0,0.7Z" class="g2_210" />
<path d="M67.4,336.5l786.4,0l0,-0.7l-786.4,0l0,0.7Z" class="g2_210" />
</svg>