<?xml version="1.0" encoding="UTF-8" standalone="no"?>
<!DOCTYPE svg PUBLIC "-//W3C//DTD SVG 1.1//EN"
"http://www.w3.org/Graphics/SVG/1.1/DTD/svg11.dtd">
<svg viewBox="0 0 935 1210" version="1.1" xmlns="http://www.w3.org/2000/svg" xmlns:xlink="http://www.w3.org/1999/xlink">
<defs>
<style type="text/css"><![CDATA[
.g1_141{
fill: #FFFFFF;
}
.g2_141{
}
]]></style>
</defs>
<path d="M68.9,1149.3l686.3,0l0,-21.2l-686.3,0l0,21.2Z" class="g1_141" />
<path d="M771.3,1149.3l83.7,0l0,-21.2l-83.7,0l0,21.2Z" class="g1_141" />
<path d="M69.9,318.9l0.8,0l0,-193.2l-0.8,0l0,193.2Z" class="g2_141" />
<path d="M259.5,319.7l0.7,0l0,-194.8l-0.7,0l0,194.8Z" class="g2_141" />
<path d="M305.8,319.7l0.7,0l0,-194.8l-0.7,0l0,194.8Z" class="g2_141" />
<path d="M380.2,319.7l0.8,0l0,-194.8l-0.8,0l0,194.8Z" class="g2_141" />
<path d="M463.2,319.7l0.7,0l0,-194.8l-0.7,0l0,194.8Z" class="g2_141" />
<path d="M851.6,318.9l0.7,0l0,-193.2l-0.7,0l0,193.2Z" class="g2_141" />
<path d="M69.9,125.7l782.4,0l0,-0.8l-782.4,0l0,0.8Z" class="g2_141" />
<path d="M69.9,176.1l782.4,0l0,-0.7l-782.4,0l0,0.7Z" class="g2_141" />
<path d="M69.9,212.8l782.4,0l0,-0.8L69.9,212l0,0.8Z" class="g2_141" />
<path d="M69.9,266.2l782.4,0l0,-0.7l-782.4,0l0,0.7Z" class="g2_141" />
<path d="M69.9,319.6l782.4,0l0,-0.7l-782.4,0l0,0.7Z" class="g2_141" />
<path d="M71.7,471.7l0.7,0l0,-97l-0.7,0l0,97Z" class="g2_141" />
<path d="M196.4,472.4l0.7,0l0,-98.5l-0.7,0l0,98.5Z" class="g2_141" />
<path d="M365.6,472.4l0.7,0l0,-98.5l-0.7,0l0,98.5Z" class="g2_141" />
<path d="M527.8,472.4l0.7,0l0,-98.5l-0.7,0l0,98.5Z" class="g2_141" />
<path d="M694.6,472.4l0.7,0l0,-98.5l-0.7,0l0,98.5Z" class="g2_141" />
<path d="M850.3,471.7l0.7,0l0,-97l-0.7,0l0,97Z" class="g2_141" />
<path d="M71.7,374.6l779.4,0l0,-0.7l-779.4,0l0,0.7Z" class="g2_141" />
<path d="M71.7,399.1l779.4,0l0,-0.7l-779.4,0l0,0.7Z" class="g2_141" />
<path d="M71.7,423.6l779.4,0l0,-0.7l-779.4,0l0,0.7Z" class="g2_141" />
<path d="M71.7,448.1l779.4,0l0,-0.8l-779.4,0l0,0.8Z" class="g2_141" />
<path d="M71.7,472.4l779.4,0l0,-0.7l-779.4,0l0,0.7Z" class="g2_141" />
</svg>