<?xml version="1.0" encoding="UTF-8" standalone="no"?>
<!DOCTYPE svg PUBLIC "-//W3C//DTD SVG 1.1//EN"
"http://www.w3.org/Graphics/SVG/1.1/DTD/svg11.dtd">
<svg viewBox="0 0 935 1210" version="1.1" xmlns="http://www.w3.org/2000/svg" xmlns:xlink="http://www.w3.org/1999/xlink">
<defs>
<style type="text/css"><![CDATA[
.g1_886{
fill: #FFFFFF;
}
.g2_886{
}
]]></style>
</defs>
<path d="M165,1149.3l687.5,0l0,-21.2l-687.5,0l0,21.2Z" class="g1_886" />
<path d="M68.8,1149.3l82.5,0l0,-21.2l-82.5,0l0,21.2Z" class="g1_886" />
<path d="M68.4,398.4l0.7,0l0,-272.7l-0.7,0l0,272.7Z" class="g2_886" />
<path d="M391.1,399.1l0.8,0l0,-274.2l-0.8,0l0,274.2Z" class="g2_886" />
<path d="M437,399.1l0.7,0l0,-274.2l-0.7,0l0,274.2Z" class="g2_886" />
<path d="M510.3,399.1l0.7,0l0,-274.2l-0.7,0l0,274.2Z" class="g2_886" />
<path d="M581.7,399.1l0.8,0l0,-274.2l-0.8,0l0,274.2Z" class="g2_886" />
<path d="M852,398.4l0.8,0l0,-272.7l-0.8,0l0,272.7Z" class="g2_886" />
<path d="M68.4,125.7l784.4,0l0,-0.8l-784.4,0l0,0.8Z" class="g2_886" />
<path d="M68.4,179.1l784.4,0l0,-0.7l-784.4,0l0,0.7Z" class="g2_886" />
<path d="M68.4,252.4l784.4,0l0,-0.7l-784.4,0l0,0.7Z" class="g2_886" />
<path d="M68.4,325.8l784.4,0l0,-0.7l-784.4,0l0,0.7Z" class="g2_886" />
<path d="M68.4,399.1l784.4,0l0,-0.7l-784.4,0l0,0.7Z" class="g2_886" />
<path d="M70.2,526.7l0.8,0l0,-72.6l-0.8,0l0,72.6Z" class="g2_886" />
<path d="M141.3,527.4l0.7,0l0,-74l-0.7,0l0,74Z" class="g2_886" />
<path d="M314.7,527.4l0.7,0l0,-74l-0.7,0l0,74Z" class="g2_886" />
<path d="M493.9,527.4l0.7,0l0,-74l-0.7,0l0,74Z" class="g2_886" />
<path d="M671.2,527.4l0.7,0l0,-74l-0.7,0l0,74Z" class="g2_886" />
<path d="M850.1,526.7l0.7,0l0,-72.6l-0.7,0l0,72.6Z" class="g2_886" />
<path d="M70.2,454.1l780.7,0l0,-0.7l-780.7,0l0,0.7Z" class="g2_886" />
<path d="M70.2,478.6l780.7,0l0,-0.7l-780.7,0l0,0.7Z" class="g2_886" />
<path d="M70.2,503.1l780.7,0l0,-0.8l-780.7,0l0,0.8Z" class="g2_886" />
<path d="M70.2,527.4l780.7,0l0,-0.7l-780.7,0l0,0.7Z" class="g2_886" />
</svg>