<?xml version="1.0" encoding="UTF-8" standalone="no"?>
<!DOCTYPE svg PUBLIC "-//W3C//DTD SVG 1.1//EN"
"http://www.w3.org/Graphics/SVG/1.1/DTD/svg11.dtd">
<svg viewBox="0 0 935 1210" version="1.1" xmlns="http://www.w3.org/2000/svg" xmlns:xlink="http://www.w3.org/1999/xlink">
<defs>
<style type="text/css"><![CDATA[
.g1_450{
fill: #FFFFFF;
}
.g2_450{
}
]]></style>
</defs>
<path d="M165,1149.3l687.5,0l0,-21.2l-687.5,0l0,21.2Z" class="g1_450" />
<path d="M68.8,1149.3l82.5,0l0,-21.2l-82.5,0l0,21.2Z" class="g1_450" />
<path d="M69.7,283.8l0.7,0l0,-152l-0.7,0l0,152Z" class="g2_450" />
<path d="M223.6,284.5l0.7,0l0,-153.5l-0.7,0l0,153.5Z" class="g2_450" />
<path d="M373.4,284.5l0.7,0l0,-153.5l-0.7,0l0,153.5Z" class="g2_450" />
<path d="M454.1,284.5l0.8,0l0,-153.5l-0.8,0l0,153.5Z" class="g2_450" />
<path d="M555.9,284.5l0.7,0l0,-153.5l-0.7,0l0,153.5Z" class="g2_450" />
<path d="M850.8,283.8l0.7,0l0,-152l-0.7,0l0,152Z" class="g2_450" />
<path d="M69.7,131.7l781.8,0l0,-0.7L69.7,131l0,0.7Z" class="g2_450" />
<path d="M69.7,169.9l781.8,0l0,-0.7l-781.8,0l0,0.7Z" class="g2_450" />
<path d="M69.7,192.9l781.8,0l0,-0.8l-781.8,0l0,0.8Z" class="g2_450" />
<path d="M69.7,215.8l781.8,0l0,-0.8L69.7,215l0,0.8Z" class="g2_450" />
<path d="M69.7,238.7l781.8,0l0,-0.7L69.7,238l0,0.7Z" class="g2_450" />
<path d="M69.7,261.6l781.8,0l0,-0.7l-781.8,0l0,0.7Z" class="g2_450" />
<path d="M69.7,284.5l781.8,0l0,-0.7l-781.8,0l0,0.7Z" class="g2_450" />
<path d="M69.7,835.4l0.7,0l0,-330.9l-0.7,0l0,330.9Z" class="g2_450" />
<path d="M442.8,733.7l0.8,0l0,-229.9l-0.8,0l0,229.9Z" class="g2_450" />
<path d="M850.8,835.4l0.7,0l0,-330.9l-0.7,0l0,330.9Z" class="g2_450" />
<path d="M69.6,504.5l781.9,0l0,-0.7l-781.9,0l0,0.7Z" class="g2_450" />
<path d="M69.6,527.4l781.9,0l0,-0.7l-781.9,0l0,0.7Z" class="g2_450" />
<path d="M69.6,550.4l781.9,0l0,-0.8l-781.9,0l0,0.8Z" class="g2_450" />
<path d="M69.6,573.3l781.9,0l0,-0.7l-781.9,0l0,0.7Z" class="g2_450" />
<path d="M69.6,596.2l781.9,0l0,-0.7l-781.9,0l0,0.7Z" class="g2_450" />
<path d="M69.6,619.1l781.9,0l0,-0.7l-781.9,0l0,0.7Z" class="g2_450" />
<path d="M69.6,642l781.9,0l0,-0.7l-781.9,0l0,0.7Z" class="g2_450" />
<path d="M69.6,664.9l781.9,0l0,-0.7l-781.9,0l0,0.7Z" class="g2_450" />
<path d="M69.6,687.9l781.9,0l0,-0.8l-781.9,0l0,0.8Z" class="g2_450" />
<path d="M69.6,710.8l781.9,0l0,-0.8L69.6,710l0,0.8Z" class="g2_450" />
<path d="M69.6,733.7l781.9,0l0,-0.7L69.6,733l0,0.7Z" class="g2_450" />
<path d="M69.6,836.1l781.9,0l0,-0.7l-781.9,0l0,0.7Z" class="g2_450" />
</svg>