<?xml version="1.0" encoding="UTF-8" standalone="no"?>
<!DOCTYPE svg PUBLIC "-//W3C//DTD SVG 1.1//EN"
"http://www.w3.org/Graphics/SVG/1.1/DTD/svg11.dtd">
<svg viewBox="0 0 935 1210" version="1.1" xmlns="http://www.w3.org/2000/svg" xmlns:xlink="http://www.w3.org/1999/xlink">
<defs>
<style type="text/css"><![CDATA[
.g1_192{
fill: #FFFFFF;
}
.g2_192{
}
]]></style>
</defs>
<path d="M165,1149.3l687.5,0l0,-21.2l-687.5,0l0,21.2Z" class="g1_192" />
<path d="M68.8,1149.3l82.5,0l0,-21.2l-82.5,0l0,21.2Z" class="g1_192" />
<path d="M68.6,251.7l0.7,0l0,-126l-0.7,0l0,126Z" class="g2_192" />
<path d="M253.3,252.4l0.7,0l0,-127.5l-0.7,0l0,127.5Z" class="g2_192" />
<path d="M294.3,252.4l0.7,0l0,-127.5l-0.7,0l0,127.5Z" class="g2_192" />
<path d="M353.9,252.4l0.8,0l0,-127.5l-0.8,0l0,127.5Z" class="g2_192" />
<path d="M421.5,252.4l0.7,0l0,-127.5l-0.7,0l0,127.5Z" class="g2_192" />
<path d="M851.2,251.7l0.7,0l0,-126l-0.7,0l0,126Z" class="g2_192" />
<path d="M68.6,125.7l783.4,0l0,-0.8l-783.4,0l0,0.8Z" class="g2_192" />
<path d="M68.6,179.1l783.4,0l0,-0.7l-783.4,0l0,0.7Z" class="g2_192" />
<path d="M68.6,215.8l783.4,0l0,-0.8L68.6,215l0,0.8Z" class="g2_192" />
<path d="M68.6,252.4l783.4,0l0,-0.7l-783.4,0l0,0.7Z" class="g2_192" />
<path d="M70.9,355.6l0.7,0l0,-48.2l-0.7,0l0,48.2Z" class="g2_192" />
<path d="M137.5,356.4l0.7,0l0,-49.7l-0.7,0l0,49.7Z" class="g2_192" />
<path d="M310.4,356.4l0.7,0l0,-49.7l-0.7,0l0,49.7Z" class="g2_192" />
<path d="M487.6,356.4l0.7,0l0,-49.7l-0.7,0l0,49.7Z" class="g2_192" />
<path d="M665.4,356.4l0.7,0l0,-49.7l-0.7,0l0,49.7Z" class="g2_192" />
<path d="M849.6,355.6l0.7,0l0,-48.2l-0.7,0l0,48.2Z" class="g2_192" />
<path d="M70.8,307.4l779.5,0l0,-0.7l-779.5,0l0,0.7Z" class="g2_192" />
<path d="M70.8,331.9l779.5,0l0,-0.7l-779.5,0l0,0.7Z" class="g2_192" />
<path d="M70.8,356.3l779.5,0l0,-0.7l-779.5,0l0,0.7Z" class="g2_192" />
</svg>