<?xml version="1.0" encoding="UTF-8" standalone="no"?>
<!DOCTYPE svg PUBLIC "-//W3C//DTD SVG 1.1//EN"
"http://www.w3.org/Graphics/SVG/1.1/DTD/svg11.dtd">
<svg viewBox="0 0 935 1210" version="1.1" xmlns="http://www.w3.org/2000/svg" xmlns:xlink="http://www.w3.org/1999/xlink">
<defs>
<style type="text/css"><![CDATA[
.g1_1924{
fill: #FFFFFF;
}
.g2_1924{
}
]]></style>
</defs>
<path d="M165,1149.3l687.5,0l0,-21.2l-687.5,0l0,21.2Z" class="g1_1924" />
<path d="M68.8,1149.3l82.5,0l0,-21.2l-82.5,0l0,21.2Z" class="g1_1924" />
<path d="M70.1,202.9l0.8,0l0,-77.2l-0.8,0l0,77.2Z" class="g2_1924" />
<path d="M220.7,203.6l0.8,0l0,-78.7l-0.8,0l0,78.7Z" class="g2_1924" />
<path d="M391.7,203.6l0.7,0l0,-78.7l-0.7,0l0,78.7Z" class="g2_1924" />
<path d="M429.6,203.6l0.7,0l0,-78.7l-0.7,0l0,78.7Z" class="g2_1924" />
<path d="M502.9,203.6l0.7,0l0,-78.7l-0.7,0l0,78.7Z" class="g2_1924" />
<path d="M574.3,203.6l0.7,0l0,-78.7l-0.7,0l0,78.7Z" class="g2_1924" />
<path d="M850.3,202.9l0.7,0l0,-77.2l-0.7,0l0,77.2Z" class="g2_1924" />
<path d="M70.1,125.7l780.9,0l0,-0.8l-780.9,0l0,0.8Z" class="g2_1924" />
<path d="M70.1,163.8l780.9,0l0,-0.7l-780.9,0l0,0.7Z" class="g2_1924" />
<path d="M70.1,203.6l780.9,0l0,-0.7l-780.9,0l0,0.7Z" class="g2_1924" />
<path d="M70.2,306.7l0.8,0l0,-48.1l-0.8,0l0,48.1Z" class="g2_1924" />
<path d="M149.7,307.4l0.7,0l0,-49.5l-0.7,0l0,49.5Z" class="g2_1924" />
<path d="M318.8,307.4l0.7,0l0,-49.5l-0.7,0l0,49.5Z" class="g2_1924" />
<path d="M493.4,307.4l0.8,0l0,-49.5l-0.8,0l0,49.5Z" class="g2_1924" />
<path d="M667.5,307.4l0.7,0l0,-49.5l-0.7,0l0,49.5Z" class="g2_1924" />
<path d="M850.1,306.7l0.7,0l0,-48.1l-0.7,0l0,48.1Z" class="g2_1924" />
<path d="M70.2,258.6l780.7,0l0,-0.7l-780.7,0l0,0.7Z" class="g2_1924" />
<path d="M70.2,283l780.7,0l0,-0.8l-780.7,0l0,0.8Z" class="g2_1924" />
<path d="M70.2,307.4l780.7,0l0,-0.7l-780.7,0l0,0.7Z" class="g2_1924" />
</svg>