<?xml version="1.0" encoding="UTF-8" standalone="no"?>
<!DOCTYPE svg PUBLIC "-//W3C//DTD SVG 1.1//EN"
"http://www.w3.org/Graphics/SVG/1.1/DTD/svg11.dtd">
<svg viewBox="0 0 935 1210" version="1.1" xmlns="http://www.w3.org/2000/svg" xmlns:xlink="http://www.w3.org/1999/xlink">
<defs>
<style type="text/css"><![CDATA[
.g1_588{
fill: #FFFFFF;
}
.g2_588{
}
]]></style>
</defs>
<path d="M165,1149.3l687.5,0l0,-21.2l-687.5,0l0,21.2Z" class="g1_588" />
<path d="M68.8,1149.3l82.5,0l0,-21.2l-82.5,0l0,21.2Z" class="g1_588" />
<path d="M68.9,230.4l0.8,0l0,-123.1l-0.8,0l0,123.1Z" class="g2_588" />
<path d="M220.2,231.1l0.7,0l0,-124.5l-0.7,0l0,124.5Z" class="g2_588" />
<path d="M391.7,231.1l0.7,0l0,-124.5l-0.7,0l0,124.5Z" class="g2_588" />
<path d="M429.6,231.1l0.7,0l0,-124.5l-0.7,0l0,124.5Z" class="g2_588" />
<path d="M502.9,231.1l0.7,0l0,-124.5l-0.7,0l0,124.5Z" class="g2_588" />
<path d="M574.3,231.1l0.7,0l0,-124.5l-0.7,0l0,124.5Z" class="g2_588" />
<path d="M851.4,230.4l0.7,0l0,-123.1l-0.7,0l0,123.1Z" class="g2_588" />
<path d="M68.9,107.3l783.3,0l0,-0.7l-783.3,0l0,0.7Z" class="g2_588" />
<path d="M68.9,145.5l783.3,0l0,-0.8l-783.3,0l0,0.8Z" class="g2_588" />
<path d="M68.9,168.4l783.3,0l0,-0.7l-783.3,0l0,0.7Z" class="g2_588" />
<path d="M68.9,208.2l783.3,0l0,-0.8l-783.3,0l0,0.8Z" class="g2_588" />
<path d="M68.9,231.1l783.3,0l0,-0.7l-783.3,0l0,0.7Z" class="g2_588" />
<path d="M69.1,331.2l0.8,0l0,-48.1l-0.8,0l0,48.1Z" class="g2_588" />
<path d="M144.5,331.9l0.7,0l0,-49.7l-0.7,0l0,49.7Z" class="g2_588" />
<path d="M318.2,331.9l0.7,0l0,-49.7l-0.7,0l0,49.7Z" class="g2_588" />
<path d="M488.2,331.9l0.8,0l0,-49.7l-0.8,0l0,49.7Z" class="g2_588" />
<path d="M670.1,331.9l0.7,0l0,-49.7l-0.7,0l0,49.7Z" class="g2_588" />
<path d="M851.3,331.2l0.7,0l0,-48.1l-0.7,0l0,48.1Z" class="g2_588" />
<path d="M69.1,283L852,283l0,-0.8l-782.9,0l0,0.8Z" class="g2_588" />
<path d="M69.1,307.4l782.9,0l0,-0.7l-782.9,0l0,0.7Z" class="g2_588" />
<path d="M69.1,331.9l782.9,0l0,-0.7l-782.9,0l0,0.7Z" class="g2_588" />
</svg>