<?xml version="1.0" encoding="UTF-8" standalone="no"?>
<!DOCTYPE svg PUBLIC "-//W3C//DTD SVG 1.1//EN"
"http://www.w3.org/Graphics/SVG/1.1/DTD/svg11.dtd">
<svg viewBox="0 0 935 1210" version="1.1" xmlns="http://www.w3.org/2000/svg" xmlns:xlink="http://www.w3.org/1999/xlink">
<defs>
<style type="text/css"><![CDATA[
.g1_1841{
fill: #FFFFFF;
}
.g2_1841{
fill: #0860A8;
}
.g3_1841{
}
]]></style>
</defs>
<path d="M68.9,1149.3l686.3,0l0,-21.2l-686.3,0l0,21.2Z" class="g1_1841" />
<path d="M771.3,1149.3l83.7,0l0,-21.2l-83.7,0l0,21.2Z" class="g1_1841" />
<path d="M524.5,1032.9l327.9,0l0,-0.8l-327.9,0l0,0.8Z" class="g2_1841" />
<path d="M70.3,1049.8l673.5,0l0,-0.9l-673.5,0l0,0.9Z" class="g2_1841" />
<path d="M69.9,335.8l0.8,0l0,-210.1l-0.8,0l0,210.1Z" class="g3_1841" />
<path d="M276.7,336.5l0.7,0l0,-211.6l-0.7,0l0,211.6Z" class="g3_1841" />
<path d="M320.2,336.5l0.7,0l0,-211.6l-0.7,0l0,211.6Z" class="g3_1841" />
<path d="M394.7,336.5l0.7,0l0,-211.6l-0.7,0l0,211.6Z" class="g3_1841" />
<path d="M484.4,336.5l0.7,0l0,-211.6l-0.7,0l0,211.6Z" class="g3_1841" />
<path d="M855.7,335.8l0.7,0l0,-210.1l-0.7,0l0,210.1Z" class="g3_1841" />
<path d="M69.9,125.7l786.5,0l0,-0.8l-786.5,0l0,0.8Z" class="g3_1841" />
<path d="M69.9,176.1l786.5,0l0,-0.7l-786.5,0l0,0.7Z" class="g3_1841" />
<path d="M69.9,229.5l786.5,0l0,-0.7l-786.5,0l0,0.7Z" class="g3_1841" />
<path d="M69.9,283l786.5,0l0,-0.8l-786.5,0l0,0.8Z" class="g3_1841" />
<path d="M69.9,336.5l786.5,0l0,-0.7l-786.5,0l0,0.7Z" class="g3_1841" />
<path d="M70.8,439.6l0.7,0l0,-48.1l-0.7,0l0,48.1Z" class="g3_1841" />
<path d="M192.8,440.4l0.7,0l0,-49.6l-0.7,0l0,49.6Z" class="g3_1841" />
<path d="M356.7,440.4l0.7,0l0,-49.6l-0.7,0l0,49.6Z" class="g3_1841" />
<path d="M523.9,440.4l0.7,0l0,-49.6l-0.7,0l0,49.6Z" class="g3_1841" />
<path d="M683.8,440.4l0.8,0l0,-49.6l-0.8,0l0,49.6Z" class="g3_1841" />
<path d="M851.2,439.6l0.7,0l0,-48.1l-0.7,0l0,48.1Z" class="g3_1841" />
<path d="M70.8,391.5l781.2,0l0,-0.7l-781.2,0l0,0.7Z" class="g3_1841" />
<path d="M70.8,416L852,416l0,-0.7l-781.2,0l0,0.7Z" class="g3_1841" />
<path d="M70.8,440.4l781.2,0l0,-0.8l-781.2,0l0,0.8Z" class="g3_1841" />
<path d="M72.6,954.5l0.7,0l0,-170.3l-0.7,0l0,170.3Z" class="g3_1841" />
<path d="M259.9,955.3l0.7,0l0,-171.9l-0.7,0l0,171.9Z" class="g3_1841" />
<path d="M410.1,955.3l0.8,0l0,-171.9l-0.8,0l0,171.9Z" class="g3_1841" />
<path d="M849.4,954.5l0.7,0l0,-170.3l-0.7,0l0,170.3Z" class="g3_1841" />
<path d="M72.6,784.1l777.5,0l0,-0.7l-777.5,0l0,0.7Z" class="g3_1841" />
<path d="M72.6,808.6l777.5,0l0,-0.7l-777.5,0l0,0.7Z" class="g3_1841" />
<path d="M72.6,833.1l777.5,0l0,-0.8l-777.5,0l0,0.8Z" class="g3_1841" />
<path d="M72.6,857.5l777.5,0l0,-0.8l-777.5,0l0,0.8Z" class="g3_1841" />
<path d="M72.6,881.9l777.5,0l0,-0.7l-777.5,0l0,0.7Z" class="g3_1841" />
<path d="M72.6,906.4l777.5,0l0,-0.7l-777.5,0l0,0.7Z" class="g3_1841" />
<path d="M72.6,930.8l777.5,0l0,-0.7l-777.5,0l0,0.7Z" class="g3_1841" />
<path d="M72.6,955.3l777.5,0l0,-0.8l-777.5,0l0,0.8Z" class="g3_1841" />
</svg>