<?xml version="1.0" encoding="UTF-8" standalone="no"?>
<!DOCTYPE svg PUBLIC "-//W3C//DTD SVG 1.1//EN"
"http://www.w3.org/Graphics/SVG/1.1/DTD/svg11.dtd">
<svg viewBox="0 0 935 1210" version="1.1" xmlns="http://www.w3.org/2000/svg" xmlns:xlink="http://www.w3.org/1999/xlink">
<defs>
<style type="text/css"><![CDATA[
.g1_670{
fill: #FFFFFF;
}
.g2_670{
}
]]></style>
</defs>
<path d="M165,1149.3l687.5,0l0,-21.2l-687.5,0l0,21.2Z" class="g1_670" />
<path d="M68.8,1149.3l82.5,0l0,-21.2l-82.5,0l0,21.2Z" class="g1_670" />
<path d="M68.6,318.9l0.7,0l0,-193.2l-0.7,0l0,193.2Z" class="g2_670" />
<path d="M276.6,319.7l0.7,0l0,-194.8l-0.7,0l0,194.8Z" class="g2_670" />
<path d="M322.9,319.7l0.7,0l0,-194.8l-0.7,0l0,194.8Z" class="g2_670" />
<path d="M397.4,319.7l0.7,0l0,-194.8l-0.7,0l0,194.8Z" class="g2_670" />
<path d="M478.2,319.7l0.8,0l0,-194.8l-0.8,0l0,194.8Z" class="g2_670" />
<path d="M851.1,318.9l0.8,0l0,-193.2l-0.8,0l0,193.2Z" class="g2_670" />
<path d="M68.6,125.7l783.3,0l0,-0.8l-783.3,0l0,0.8Z" class="g2_670" />
<path d="M68.6,176.1l783.3,0l0,-0.7l-783.3,0l0,0.7Z" class="g2_670" />
<path d="M68.6,212.8l783.3,0l0,-0.8L68.6,212l0,0.8Z" class="g2_670" />
<path d="M68.6,266.2l783.3,0l0,-0.7l-783.3,0l0,0.7Z" class="g2_670" />
<path d="M68.6,319.6l783.3,0l0,-0.7l-783.3,0l0,0.7Z" class="g2_670" />
<path d="M71.2,471.7l0.8,0l0,-97l-0.8,0l0,97Z" class="g2_670" />
<path d="M185.7,472.4l0.8,0l0,-98.5l-0.8,0l0,98.5Z" class="g2_670" />
<path d="M341.1,472.4l0.7,0l0,-98.5l-0.7,0l0,98.5Z" class="g2_670" />
<path d="M509.9,472.4l0.8,0l0,-98.5l-0.8,0l0,98.5Z" class="g2_670" />
<path d="M674.9,472.4l0.8,0l0,-98.5l-0.8,0l0,98.5Z" class="g2_670" />
<path d="M849.2,471.7l0.7,0l0,-97l-0.7,0l0,97Z" class="g2_670" />
<path d="M71.2,374.6l778.7,0l0,-0.7l-778.7,0l0,0.7Z" class="g2_670" />
<path d="M71.2,399.1l778.7,0l0,-0.7l-778.7,0l0,0.7Z" class="g2_670" />
<path d="M71.2,423.6l778.7,0l0,-0.7l-778.7,0l0,0.7Z" class="g2_670" />
<path d="M71.2,448.1l778.7,0l0,-0.8l-778.7,0l0,0.8Z" class="g2_670" />
<path d="M71.2,472.4l778.7,0l0,-0.7l-778.7,0l0,0.7Z" class="g2_670" />
</svg>