<?xml version="1.0" encoding="UTF-8" standalone="no"?>
<!DOCTYPE svg PUBLIC "-//W3C//DTD SVG 1.1//EN"
"http://www.w3.org/Graphics/SVG/1.1/DTD/svg11.dtd">
<svg viewBox="0 0 935 1210" version="1.1" xmlns="http://www.w3.org/2000/svg" xmlns:xlink="http://www.w3.org/1999/xlink">
<defs>
<style type="text/css"><![CDATA[
.g1_692{
fill: #FFFFFF;
}
.g2_692{
}
]]></style>
</defs>
<path d="M165,1149.3l687.5,0l0,-21.2l-687.5,0l0,21.2Z" class="g1_692" />
<path d="M68.8,1149.3l82.5,0l0,-21.2l-82.5,0l0,21.2Z" class="g1_692" />
<path d="M68.9,438.1l0.8,0l0,-303.3l-0.8,0l0,303.3Z" class="g2_692" />
<path d="M390.5,438.9l0.7,0l0,-304.8l-0.7,0l0,304.8Z" class="g2_692" />
<path d="M428.4,438.9l0.7,0l0,-304.8l-0.7,0l0,304.8Z" class="g2_692" />
<path d="M501.8,438.9l0.7,0l0,-304.8l-0.7,0l0,304.8Z" class="g2_692" />
<path d="M573.1,438.9l0.7,0l0,-304.8l-0.7,0l0,304.8Z" class="g2_692" />
<path d="M851.4,438.1l0.7,0l0,-303.3l-0.7,0l0,303.3Z" class="g2_692" />
<path d="M68.9,134.8l783.3,0l0,-0.7l-783.3,0l0,0.7Z" class="g2_692" />
<path d="M68.9,173l783.3,0l0,-0.8l-783.3,0l0,0.8Z" class="g2_692" />
<path d="M68.9,217.3l783.3,0l0,-0.7l-783.3,0l0,0.7Z" class="g2_692" />
<path d="M68.9,261.6l783.3,0l0,-0.7l-783.3,0l0,0.7Z" class="g2_692" />
<path d="M68.9,305.9l783.3,0l0,-0.7l-783.3,0l0,0.7Z" class="g2_692" />
<path d="M68.9,350.3l783.3,0l0,-0.8l-783.3,0l0,0.8Z" class="g2_692" />
<path d="M68.9,394.5l783.3,0l0,-0.7l-783.3,0l0,0.7Z" class="g2_692" />
<path d="M68.9,438.9l783.3,0l0,-0.7l-783.3,0l0,0.7Z" class="g2_692" />
<path d="M70.2,641.3l0.8,0l0,-72.6l-0.8,0l0,72.6Z" class="g2_692" />
<path d="M142.2,642l0.7,0l0,-74l-0.7,0l0,74Z" class="g2_692" />
<path d="M314,642l0.7,0l0,-74l-0.7,0l0,74Z" class="g2_692" />
<path d="M492.5,642l0.8,0l0,-74l-0.8,0l0,74Z" class="g2_692" />
<path d="M664.6,642l0.7,0l0,-74l-0.7,0l0,74Z" class="g2_692" />
<path d="M850.1,641.3l0.7,0l0,-72.6l-0.7,0l0,72.6Z" class="g2_692" />
<path d="M70.2,568.7l780.7,0l0,-0.7L70.2,568l0,0.7Z" class="g2_692" />
<path d="M70.2,593.2l780.7,0l0,-0.8l-780.7,0l0,0.8Z" class="g2_692" />
<path d="M70.2,617.7l780.7,0l0,-0.8l-780.7,0l0,0.8Z" class="g2_692" />
<path d="M70.2,642l780.7,0l0,-0.7l-780.7,0l0,0.7Z" class="g2_692" />
</svg>