<?xml version="1.0" encoding="UTF-8" standalone="no"?>
<!DOCTYPE svg PUBLIC "-//W3C//DTD SVG 1.1//EN"
"http://www.w3.org/Graphics/SVG/1.1/DTD/svg11.dtd">
<svg viewBox="0 0 935 1210" version="1.1" xmlns="http://www.w3.org/2000/svg" xmlns:xlink="http://www.w3.org/1999/xlink">
<defs>
<style type="text/css"><![CDATA[
.g1_2165{
fill: #FFFFFF;
}
.g2_2165{
}
]]></style>
</defs>
<path d="M68.9,1149.3l783.8,0l0,-21.2l-783.8,0l0,21.2Z" class="g1_2165" />
<path d="M115.4,387.7l0.7,0l0,-170.4l-0.7,0l0,170.4Z" class="g2_2165" />
<path d="M190.3,388.5l0.7,0l0,-123l-0.7,0l0,123Z" class="g2_2165" />
<path d="M237,388.5l0.7,0l0,-74.2l-0.7,0l0,74.2Z" class="g2_2165" />
<path d="M283.5,388.5l0.8,0l0,-123l-0.8,0l0,123Z" class="g2_2165" />
<path d="M359.9,388.5l0.7,0l0,-123l-0.7,0l0,123Z" class="g2_2165" />
<path d="M411.2,388.5l0.7,0l0,-74.2l-0.7,0l0,74.2Z" class="g2_2165" />
<path d="M462.6,388.5l0.8,0l0,-123l-0.8,0l0,123Z" class="g2_2165" />
<path d="M538.4,290.7l0.7,0l0,-25.2l-0.7,0l0,25.2Z" class="g2_2165" />
<path d="M538.4,388.5l0.7,0l0,-74.2l-0.7,0l0,74.2Z" class="g2_2165" />
<path d="M603.6,290.7l0.8,0l0,-25.2l-0.8,0l0,25.2Z" class="g2_2165" />
<path d="M619.9,315.2l0.8,0l0,-49.7l-0.8,0l0,49.7Z" class="g2_2165" />
<path d="M701.5,387.7l0.8,0l0,-171.1l-0.8,0l0,171.1Z" class="g2_2165" />
<path d="M777.8,315.2l0.7,0l0,-49.7l-0.7,0l0,49.7Z" class="g2_2165" />
<path d="M851.2,314.3l0.7,0l0,-97l-0.7,0l0,97Z" class="g2_2165" />
<path d="M115.4,217.3l736.6,0l0,-0.7l-736.6,0l0,0.7Z" class="g2_2165" />
<path d="M115.4,241.7l586.9,0l0,-0.7l-586.9,0l0,0.7Z" class="g2_2165" />
<path d="M115.4,266.2l736.6,0l0,-0.7l-736.6,0l0,0.7Z" class="g2_2165" />
<path d="M115.4,290.7l736.6,0l0,-0.8l-736.6,0l0,0.8Z" class="g2_2165" />
<path d="M115.4,315.1l736.6,0l0,-0.8l-736.6,0l0,0.8Z" class="g2_2165" />
<path d="M115.4,339.5l586.9,0l0,-0.7l-586.9,0l0,0.7Z" class="g2_2165" />
<path d="M115.4,364l586.9,0l0,-0.7l-586.9,0l0,0.7Z" class="g2_2165" />
<path d="M115.4,388.4l586.9,0l0,-0.7l-586.9,0l0,0.7Z" class="g2_2165" />
<path d="M69.9,1098.2l0.8,0l0,-341.6l-0.8,0l0,341.6Z" class="g2_2165" />
<path d="M444.6,1098.9l0.7,0l0,-343l-0.7,0l0,343Z" class="g2_2165" />
<path d="M852.4,1098.2l0.7,0l0,-341.6l-0.7,0l0,341.6Z" class="g2_2165" />
<path d="M69.9,756.6l783.2,0l0,-0.7l-783.2,0l0,0.7Z" class="g2_2165" />
<path d="M69.9,781.1l783.2,0l0,-0.7l-783.2,0l0,0.7Z" class="g2_2165" />
<path d="M69.9,805.6l783.2,0l0,-0.8l-783.2,0l0,0.8Z" class="g2_2165" />
<path d="M69.9,830l783.2,0l0,-0.8l-783.2,0l0,0.8Z" class="g2_2165" />
<path d="M69.9,854.4l783.2,0l0,-0.7l-783.2,0l0,0.7Z" class="g2_2165" />
<path d="M69.9,878.9l783.2,0l0,-0.7l-783.2,0l0,0.7Z" class="g2_2165" />
<path d="M69.9,903.3l783.2,0l0,-0.7l-783.2,0l0,0.7Z" class="g2_2165" />
<path d="M69.9,927.8l783.2,0l0,-0.8L69.9,927l0,0.8Z" class="g2_2165" />
<path d="M69.9,952.2l783.2,0l0,-0.7l-783.2,0l0,0.7Z" class="g2_2165" />
<path d="M69.9,976.6l783.2,0l0,-0.7l-783.2,0l0,0.7Z" class="g2_2165" />
<path d="M69.9,1001.1l783.2,0l0,-0.7l-783.2,0l0,0.7Z" class="g2_2165" />
<path d="M69.9,1025.6l783.2,0l0,-0.8l-783.2,0l0,0.8Z" class="g2_2165" />
<path d="M69.9,1050l783.2,0l0,-0.8l-783.2,0l0,0.8Z" class="g2_2165" />
<path d="M69.9,1074.4l783.2,0l0,-0.7l-783.2,0l0,0.7Z" class="g2_2165" />
<path d="M69.9,1098.9l783.2,0l0,-0.7l-783.2,0l0,0.7Z" class="g2_2165" />
</svg>