<?xml version="1.0" encoding="UTF-8" standalone="no"?>
<!DOCTYPE svg PUBLIC "-//W3C//DTD SVG 1.1//EN"
"http://www.w3.org/Graphics/SVG/1.1/DTD/svg11.dtd">
<svg viewBox="0 0 935 1210" version="1.1" xmlns="http://www.w3.org/2000/svg" xmlns:xlink="http://www.w3.org/1999/xlink">
<defs>
<style type="text/css"><![CDATA[
.g1_1154{
fill: #FFFFFF;
}
.g2_1154{
}
]]></style>
</defs>
<path d="M165,1149.3l687.5,0l0,-21.2l-687.5,0l0,21.2Z" class="g1_1154" />
<path d="M68.8,1149.3l82.5,0l0,-21.2l-82.5,0l0,21.2Z" class="g1_1154" />
<path d="M68.9,558.8l0.8,0l0,-451.5l-0.8,0l0,451.5Z" class="g2_1154" />
<path d="M385.9,559.5l0.8,0l0,-452.9l-0.8,0l0,452.9Z" class="g2_1154" />
<path d="M423.8,559.5l0.7,0l0,-452.9l-0.7,0l0,452.9Z" class="g2_1154" />
<path d="M497.2,559.5l0.7,0l0,-452.9l-0.7,0l0,452.9Z" class="g2_1154" />
<path d="M575.4,559.5l0.7,0l0,-452.9l-0.7,0l0,452.9Z" class="g2_1154" />
<path d="M851.4,558.8l0.7,0l0,-451.5l-0.7,0l0,451.5Z" class="g2_1154" />
<path d="M68.9,107.3l783.3,0l0,-0.7l-783.3,0l0,0.7Z" class="g2_1154" />
<path d="M68.9,163.8l783.3,0l0,-0.7l-783.3,0l0,0.7Z" class="g2_1154" />
<path d="M68.9,220.4l783.3,0l0,-0.8l-783.3,0l0,0.8Z" class="g2_1154" />
<path d="M68.9,276.9l783.3,0l0,-0.7l-783.3,0l0,0.7Z" class="g2_1154" />
<path d="M68.9,333.4l783.3,0l0,-0.7l-783.3,0l0,0.7Z" class="g2_1154" />
<path d="M68.9,389.9l783.3,0l0,-0.7l-783.3,0l0,0.7Z" class="g2_1154" />
<path d="M68.9,446.5l783.3,0l0,-0.7l-783.3,0l0,0.7Z" class="g2_1154" />
<path d="M68.9,503.1l783.3,0l0,-0.8l-783.3,0l0,0.8Z" class="g2_1154" />
<path d="M68.9,559.5l783.3,0l0,-0.7l-783.3,0l0,0.7Z" class="g2_1154" />
<path d="M70.2,810.9l0.8,0L71,689.4l-0.8,0l0,121.5Z" class="g2_1154" />
<path d="M139.1,811.7l0.7,0l0,-123l-0.7,0l0,123Z" class="g2_1154" />
<path d="M313.8,811.7l0.7,0l0,-123l-0.7,0l0,123Z" class="g2_1154" />
<path d="M490.4,811.7l0.8,0l0,-123l-0.8,0l0,123Z" class="g2_1154" />
<path d="M665.3,811.7l0.7,0l0,-123l-0.7,0l0,123Z" class="g2_1154" />
<path d="M850.1,810.9l0.7,0l0,-121.5l-0.7,0l0,121.5Z" class="g2_1154" />
<path d="M70.2,689.4l780.7,0l0,-0.7l-780.7,0l0,0.7Z" class="g2_1154" />
<path d="M70.2,713.9l780.7,0l0,-0.7l-780.7,0l0,0.7Z" class="g2_1154" />
<path d="M70.2,738.3l780.7,0l0,-0.8l-780.7,0l0,0.8Z" class="g2_1154" />
<path d="M70.2,762.8l780.7,0l0,-0.8L70.2,762l0,0.8Z" class="g2_1154" />
<path d="M70.2,787.2l780.7,0l0,-0.7l-780.7,0l0,0.7Z" class="g2_1154" />
<path d="M70.2,811.6l780.7,0l0,-0.7l-780.7,0l0,0.7Z" class="g2_1154" />
</svg>