<?xml version="1.0" encoding="UTF-8" standalone="no"?>
<!DOCTYPE svg PUBLIC "-//W3C//DTD SVG 1.1//EN"
"http://www.w3.org/Graphics/SVG/1.1/DTD/svg11.dtd">
<svg viewBox="0 0 935 1210" version="1.1" xmlns="http://www.w3.org/2000/svg" xmlns:xlink="http://www.w3.org/1999/xlink">
<defs>
<style type="text/css"><![CDATA[
.g1_1107{
fill: #FFFFFF;
}
.g2_1107{
}
]]></style>
</defs>
<path d="M68.9,1149.3l686.3,0l0,-21.2l-686.3,0l0,21.2Z" class="g1_1107" />
<path d="M771.3,1149.3l83.7,0l0,-21.2l-83.7,0l0,21.2Z" class="g1_1107" />
<path d="M66.9,430.5l0.8,0l0,-304.8l-0.8,0l0,304.8Z" class="g2_1107" />
<path d="M364.4,431.2l0.7,0l0,-306.3l-0.7,0l0,306.3Z" class="g2_1107" />
<path d="M406.8,431.2l0.8,0l0,-306.3l-0.8,0l0,306.3Z" class="g2_1107" />
<path d="M480.2,431.2l0.8,0l0,-306.3l-0.8,0l0,306.3Z" class="g2_1107" />
<path d="M561.9,431.2l0.7,0l0,-306.3l-0.7,0l0,306.3Z" class="g2_1107" />
<path d="M855.1,430.5l0.7,0l0,-304.8l-0.7,0l0,304.8Z" class="g2_1107" />
<path d="M66.9,125.7l789,0l0,-0.8l-789,0l0,0.8Z" class="g2_1107" />
<path d="M66.9,179.1l789,0l0,-0.7l-789,0l0,0.7Z" class="g2_1107" />
<path d="M66.9,223.4l789,0l0,-0.7l-789,0l0,0.7Z" class="g2_1107" />
<path d="M66.9,267.8l789,0l0,-0.8l-789,0l0,0.8Z" class="g2_1107" />
<path d="M66.9,312l789,0l0,-0.7l-789,0l0,0.7Z" class="g2_1107" />
<path d="M66.9,351.7l789,0l0,-0.7l-789,0l0,0.7Z" class="g2_1107" />
<path d="M66.9,391.5l789,0l0,-0.7l-789,0l0,0.7Z" class="g2_1107" />
<path d="M66.9,431.2l789,0l0,-0.7l-789,0l0,0.7Z" class="g2_1107" />
<path d="M70.5,583.3l0.7,0l0,-97.1l-0.7,0l0,97.1Z" class="g2_1107" />
<path d="M135,584l0.8,0l0,-98.5l-0.8,0l0,98.5Z" class="g2_1107" />
<path d="M321.8,584l0.7,0l0,-98.5l-0.7,0l0,98.5Z" class="g2_1107" />
<path d="M493.3,584l0.7,0l0,-98.5l-0.7,0l0,98.5Z" class="g2_1107" />
<path d="M671,584l0.7,0l0,-98.5l-0.7,0l0,98.5Z" class="g2_1107" />
<path d="M851.5,583.3l0.7,0l0,-97.1l-0.7,0l0,97.1Z" class="g2_1107" />
<path d="M70.5,486.2l781.8,0l0,-0.7l-781.8,0l0,0.7Z" class="g2_1107" />
<path d="M70.5,510.7l781.8,0l0,-0.8l-781.8,0l0,0.8Z" class="g2_1107" />
<path d="M70.5,535.2l781.8,0l0,-0.8l-781.8,0l0,0.8Z" class="g2_1107" />
<path d="M70.5,559.5l781.8,0l0,-0.7l-781.8,0l0,0.7Z" class="g2_1107" />
<path d="M70.5,584l781.8,0l0,-0.7l-781.8,0l0,0.7Z" class="g2_1107" />
</svg>