<?xml version="1.0" encoding="UTF-8" standalone="no"?>
<!DOCTYPE svg PUBLIC "-//W3C//DTD SVG 1.1//EN"
"http://www.w3.org/Graphics/SVG/1.1/DTD/svg11.dtd">
<svg viewBox="0 0 935 1210" version="1.1" xmlns="http://www.w3.org/2000/svg" xmlns:xlink="http://www.w3.org/1999/xlink">
<defs>
<style type="text/css"><![CDATA[
.g1_1882{
fill: #FFFFFF;
}
.g2_1882{
}
]]></style>
</defs>
<path d="M165,1149.3l687.5,0l0,-21.2l-687.5,0l0,21.2Z" class="g1_1882" />
<path d="M68.8,1149.3l82.5,0l0,-21.2l-82.5,0l0,21.2Z" class="g1_1882" />
<path d="M217.5,694.7l0.8,0l0,-170.3l-0.8,0l0,170.3Z" class="g2_1882" />
<path d="M328.9,695.6l0.7,0l0,-171.9l-0.7,0l0,171.9Z" class="g2_1882" />
<path d="M441.6,695.6l0.8,0l0,-171.9l-0.8,0l0,171.9Z" class="g2_1882" />
<path d="M702.9,694.7l0.7,0l0,-170.3l-0.7,0l0,170.3Z" class="g2_1882" />
<path d="M217.5,524.4l486.1,0l0,-0.7l-486.1,0l0,0.7Z" class="g2_1882" />
<path d="M217.5,548.9l486.1,0l0,-0.7l-486.1,0l0,0.7Z" class="g2_1882" />
<path d="M217.5,573.3l486.1,0l0,-0.7l-486.1,0l0,0.7Z" class="g2_1882" />
<path d="M217.5,597.8l486.1,0l0,-0.8l-486.1,0l0,0.8Z" class="g2_1882" />
<path d="M217.5,622.2l486.1,0l0,-0.7l-486.1,0l0,0.7Z" class="g2_1882" />
<path d="M217.5,646.6l486.1,0l0,-0.7l-486.1,0l0,0.7Z" class="g2_1882" />
<path d="M217.5,671.1l486.1,0l0,-0.7l-486.1,0l0,0.7Z" class="g2_1882" />
<path d="M217.5,695.6l486.1,0l0,-0.8l-486.1,0l0,0.8Z" class="g2_1882" />
</svg>