<?xml version="1.0" encoding="UTF-8" standalone="no"?>
<!DOCTYPE svg PUBLIC "-//W3C//DTD SVG 1.1//EN"
"http://www.w3.org/Graphics/SVG/1.1/DTD/svg11.dtd">
<svg viewBox="0 0 935 1210" version="1.1" xmlns="http://www.w3.org/2000/svg" xmlns:xlink="http://www.w3.org/1999/xlink">
<defs>
<style type="text/css"><![CDATA[
.g1_2180{
fill: #FFFFFF;
}
.g2_2180{
}
]]></style>
</defs>
<path d="M68.8,1149.3l783.7,0l0,-21.2l-783.7,0l0,21.2Z" class="g1_2180" />
<path d="M69,513l0.8,0l0,-388.9l-0.8,0L69,513Z" class="g2_2180" />
<path d="M69.1,856.7l0.6,0l0,-343l-0.6,0l0,343Z" class="g2_2180" />
<path d="M69,1063l0.8,0l0,-205.5l-0.8,0L69,1063Z" class="g2_2180" />
<path d="M260.9,513.7l0.7,0l0,-390.3l-0.7,0l0,390.3Z" class="g2_2180" />
<path d="M261,857.5l0.5,0l0,-344.5l-0.5,0l0,344.5Z" class="g2_2180" />
<path d="M260.9,1063.8l0.7,0l0,-207.1l-0.7,0l0,207.1Z" class="g2_2180" />
<path d="M851.4,513l0.7,0l0,-388.9l-0.7,0l0,388.9Z" class="g2_2180" />
<path d="M851.5,856.7l0.5,0l0,-343l-0.5,0l0,343Z" class="g2_2180" />
<path d="M851.4,1063l0.7,0l0,-205.5l-0.7,0l0,205.5Z" class="g2_2180" />
<path d="M69,124.1l783.1,0l0,-0.7L69,123.4l0,0.7Z" class="g2_2180" />
<path d="M69,147l783.1,0l0,-0.7L69,146.3l0,0.7Z" class="g2_2180" />
<path d="M69,169.9l783.1,0l0,-0.7L69,169.2l0,0.7Z" class="g2_2180" />
<path d="M69,192.9l783.1,0l0,-0.8L69,192.1l0,0.8Z" class="g2_2180" />
<path d="M69,215.8l783.1,0l0,-0.8L69,215l0,0.8Z" class="g2_2180" />
<path d="M69,238.7l783.1,0l0,-0.7L69,238l0,0.7Z" class="g2_2180" />
<path d="M69,261.6l783.1,0l0,-0.7L69,260.9l0,0.7Z" class="g2_2180" />
<path d="M69,284.5l783.1,0l0,-0.7L69,283.8l0,0.7Z" class="g2_2180" />
<path d="M69,307.4l783.1,0l0,-0.7L69,306.7l0,0.7Z" class="g2_2180" />
<path d="M69,330.4l783.1,0l0,-0.8L69,329.6l0,0.8Z" class="g2_2180" />
<path d="M69,353.3l783.1,0l0,-0.7L69,352.6l0,0.7Z" class="g2_2180" />
<path d="M69,376.2l783.1,0l0,-0.7L69,375.5l0,0.7Z" class="g2_2180" />
<path d="M69,399.1l783.1,0l0,-0.7L69,398.4l0,0.7Z" class="g2_2180" />
<path d="M69,422l783.1,0l0,-0.7L69,421.3l0,0.7Z" class="g2_2180" />
<path d="M69,444.9l783.1,0l0,-0.7L69,444.2l0,0.7Z" class="g2_2180" />
<path d="M69,467.9l783.1,0l0,-0.8L69,467.1l0,0.8Z" class="g2_2180" />
<path d="M69,490.8l783.1,0l0,-0.8L69,490l0,0.8Z" class="g2_2180" />
<path d="M69,513.7l783.1,0l0,-0.7L69,513l0,0.7Z" class="g2_2180" />
<path d="M69.1,536.5l782.9,0l0,-0.5L69.1,536l0,0.5Z" class="g2_2180" />
<path d="M69.1,559.4l782.9,0l0,-0.5l-782.9,0l0,0.5Z" class="g2_2180" />
<path d="M69.1,582.4l782.9,0l0,-0.6l-782.9,0l0,0.6Z" class="g2_2180" />
<path d="M69.1,605.3l782.9,0l0,-0.6l-782.9,0l0,0.6Z" class="g2_2180" />
<path d="M69.1,628.2l782.9,0l0,-0.6l-782.9,0l0,0.6Z" class="g2_2180" />
<path d="M69.1,651.1l782.9,0l0,-0.5l-782.9,0l0,0.5Z" class="g2_2180" />
<path d="M69.1,674L852,674l0,-0.5l-782.9,0l0,0.5Z" class="g2_2180" />
<path d="M69.1,696.9l782.9,0l0,-0.5l-782.9,0l0,0.5Z" class="g2_2180" />
<path d="M69.1,719.9l782.9,0l0,-0.6l-782.9,0l0,0.6Z" class="g2_2180" />
<path d="M69.1,742.8l782.9,0l0,-0.6l-782.9,0l0,0.6Z" class="g2_2180" />
<path d="M69.1,765.7l782.9,0l0,-0.6l-782.9,0l0,0.6Z" class="g2_2180" />
<path d="M69.1,788.6l782.9,0l0,-0.5l-782.9,0l0,0.5Z" class="g2_2180" />
<path d="M69.1,811.5l782.9,0l0,-0.5L69.1,811l0,0.5Z" class="g2_2180" />
<path d="M261,834.4l591,0l0,-0.5l-591,0l0,0.5Z" class="g2_2180" />
<path d="M69,857.5l783.1,0l0,-0.8L69,856.7l0,0.8Z" class="g2_2180" />
<path d="M69,880.4l783.1,0l0,-0.8L69,879.6l0,0.8Z" class="g2_2180" />
<path d="M69,903.3l783.1,0l0,-0.7L69,902.6l0,0.7Z" class="g2_2180" />
<path d="M69,926.2l783.1,0l0,-0.7L69,925.5l0,0.7Z" class="g2_2180" />
<path d="M69,949.1l783.1,0l0,-0.7L69,948.4l0,0.7Z" class="g2_2180" />
<path d="M69,972l783.1,0l0,-0.7L69,971.3l0,0.7Z" class="g2_2180" />
<path d="M69,995l783.1,0l0,-0.8L69,994.2l0,0.8Z" class="g2_2180" />
<path d="M69,1017.9l783.1,0l0,-0.8l-783.1,0l0,0.8Z" class="g2_2180" />
<path d="M260.9,1040.8l591.2,0l0,-0.8l-591.2,0l0,0.8Z" class="g2_2180" />
<path d="M69,1063.7l783.1,0l0,-0.7L69,1063l0,0.7Z" class="g2_2180" />
</svg>