<?xml version="1.0" encoding="UTF-8" standalone="no"?>
<!DOCTYPE svg PUBLIC "-//W3C//DTD SVG 1.1//EN"
"http://www.w3.org/Graphics/SVG/1.1/DTD/svg11.dtd">
<svg viewBox="0 0 935 1210" version="1.1" xmlns="http://www.w3.org/2000/svg" xmlns:xlink="http://www.w3.org/1999/xlink">
<defs>
<style type="text/css"><![CDATA[
.g1_445{
fill: #FFFFFF;
}
.g2_445{
}
]]></style>
</defs>
<path d="M68.9,1149.3l686.3,0l0,-21.2l-686.3,0l0,21.2Z" class="g1_445" />
<path d="M771.3,1149.3l83.7,0l0,-21.2l-83.7,0l0,21.2Z" class="g1_445" />
<path d="M70.7,238l0.7,0l0,-106.2l-0.7,0l0,106.2Z" class="g2_445" />
<path d="M209.2,238.7l0.7,0l0,-107.7l-0.7,0l0,107.7Z" class="g2_445" />
<path d="M344,238.7l0.8,0l0,-107.7l-0.8,0l0,107.7Z" class="g2_445" />
<path d="M420.2,238.7l0.7,0l0,-107.7l-0.7,0l0,107.7Z" class="g2_445" />
<path d="M509,238.7l0.8,0l0,-107.7l-0.8,0l0,107.7Z" class="g2_445" />
<path d="M851.3,238l0.7,0l0,-106.2l-0.7,0l0,106.2Z" class="g2_445" />
<path d="M70.7,131.7l781.3,0l0,-0.7L70.7,131l0,0.7Z" class="g2_445" />
<path d="M70.7,169.9l781.3,0l0,-0.7l-781.3,0l0,0.7Z" class="g2_445" />
<path d="M70.7,192.9l781.3,0l0,-0.8l-781.3,0l0,0.8Z" class="g2_445" />
<path d="M70.7,215.8l781.3,0l0,-0.8L70.7,215l0,0.8Z" class="g2_445" />
<path d="M70.7,238.7l781.3,0l0,-0.7L70.7,238l0,0.7Z" class="g2_445" />
</svg>