<?xml version="1.0" encoding="UTF-8" standalone="no"?>
<!DOCTYPE svg PUBLIC "-//W3C//DTD SVG 1.1//EN"
"http://www.w3.org/Graphics/SVG/1.1/DTD/svg11.dtd">
<svg viewBox="0 0 935 1210" version="1.1" xmlns="http://www.w3.org/2000/svg" xmlns:xlink="http://www.w3.org/1999/xlink">
<defs>
<style type="text/css"><![CDATA[
.g1_796{
fill: #FFFFFF;
}
.g2_796{
}
]]></style>
</defs>
<path d="M165,1149.3l687.5,0l0,-21.2l-687.5,0l0,21.2Z" class="g1_796" />
<path d="M68.8,1149.3l82.5,0l0,-21.2l-82.5,0l0,21.2Z" class="g1_796" />
<path d="M70.7,277.7l0.7,0l0,-152l-0.7,0l0,152Z" class="g2_796" />
<path d="M220.8,278.5l0.8,0l0,-153.6l-0.8,0l0,153.6Z" class="g2_796" />
<path d="M391.1,278.5l0.8,0l0,-153.6l-0.8,0l0,153.6Z" class="g2_796" />
<path d="M428.9,278.5l0.7,0l0,-153.6l-0.7,0l0,153.6Z" class="g2_796" />
<path d="M502.3,278.5l0.8,0l0,-153.6l-0.8,0l0,153.6Z" class="g2_796" />
<path d="M573.7,278.5l0.8,0l0,-153.6l-0.8,0l0,153.6Z" class="g2_796" />
<path d="M849.8,277.7l0.7,0l0,-152l-0.7,0l0,152Z" class="g2_796" />
<path d="M70.7,125.7l779.8,0l0,-0.8l-779.8,0l0,0.8Z" class="g2_796" />
<path d="M70.7,163.8l779.8,0l0,-0.7l-779.8,0l0,0.7Z" class="g2_796" />
<path d="M70.7,186.7l779.8,0l0,-0.7L70.7,186l0,0.7Z" class="g2_796" />
<path d="M70.7,209.6l779.8,0l0,-0.7l-779.8,0l0,0.7Z" class="g2_796" />
<path d="M70.7,232.6l779.8,0l0,-0.8l-779.8,0l0,0.8Z" class="g2_796" />
<path d="M70.7,255.5l779.8,0l0,-0.8l-779.8,0l0,0.8Z" class="g2_796" />
<path d="M70.7,278.4l779.8,0l0,-0.7l-779.8,0l0,0.7Z" class="g2_796" />
<path d="M69.1,424.3l0.8,0l0,-48.1l-0.8,0l0,48.1Z" class="g2_796" />
<path d="M140.6,425.2l0.8,0l0,-49.7l-0.8,0l0,49.7Z" class="g2_796" />
<path d="M319.6,425.2l0.8,0l0,-49.7l-0.8,0l0,49.7Z" class="g2_796" />
<path d="M497.1,425.2l0.7,0l0,-49.7l-0.7,0l0,49.7Z" class="g2_796" />
<path d="M671.5,425.2l0.7,0l0,-49.7l-0.7,0l0,49.7Z" class="g2_796" />
<path d="M851.3,424.3l0.7,0l0,-48.1l-0.7,0l0,48.1Z" class="g2_796" />
<path d="M69.1,376.2l782.9,0l0,-0.7l-782.9,0l0,0.7Z" class="g2_796" />
<path d="M69.1,400.7l782.9,0l0,-0.8l-782.9,0l0,0.8Z" class="g2_796" />
<path d="M69.1,425.2l782.9,0l0,-0.8l-782.9,0l0,0.8Z" class="g2_796" />
<path d="M70.9,839.9l0.7,0l0,-113.8l-0.7,0l0,113.8Z" class="g2_796" />
<path d="M265.6,840.7l0.7,0l0,-115.3l-0.7,0l0,115.3Z" class="g2_796" />
<path d="M460.2,840.7l0.7,0l0,-115.3l-0.7,0l0,115.3Z" class="g2_796" />
<path d="M654.9,840.7l0.7,0l0,-115.3l-0.7,0l0,115.3Z" class="g2_796" />
<path d="M849.6,839.9l0.7,0l0,-113.8l-0.7,0l0,113.8Z" class="g2_796" />
<path d="M70.9,726.1l779.4,0l0,-0.7l-779.4,0l0,0.7Z" class="g2_796" />
<path d="M70.9,749l779.4,0l0,-0.7l-779.4,0l0,0.7Z" class="g2_796" />
<path d="M70.9,771.9l779.4,0l0,-0.7l-779.4,0l0,0.7Z" class="g2_796" />
<path d="M70.9,794.8l779.4,0l0,-0.7l-779.4,0l0,0.7Z" class="g2_796" />
<path d="M70.9,817.8l779.4,0l0,-0.8L70.9,817l0,0.8Z" class="g2_796" />
<path d="M70.9,840.7l779.4,0l0,-0.8l-779.4,0l0,0.8Z" class="g2_796" />
</svg>