<?xml version="1.0" encoding="UTF-8" standalone="no"?>
<!DOCTYPE svg PUBLIC "-//W3C//DTD SVG 1.1//EN"
"http://www.w3.org/Graphics/SVG/1.1/DTD/svg11.dtd">
<svg viewBox="0 0 935 1210" version="1.1" xmlns="http://www.w3.org/2000/svg" xmlns:xlink="http://www.w3.org/1999/xlink">
<defs>
<style type="text/css"><![CDATA[
.g1_627{
fill: #FFFFFF;
}
.g2_627{
}
]]></style>
</defs>
<path d="M68.9,1149.3l686.3,0l0,-21.2l-686.3,0l0,21.2Z" class="g1_627" />
<path d="M771.3,1149.3l83.7,0l0,-21.2l-83.7,0l0,21.2Z" class="g1_627" />
<path d="M69.2,231.8l0.7,0l0,-106.1l-0.7,0l0,106.1Z" class="g2_627" />
<path d="M220.4,232.7l0.7,0l0,-107.8l-0.7,0l0,107.8Z" class="g2_627" />
<path d="M391.9,232.7l0.7,0l0,-107.8l-0.7,0l0,107.8Z" class="g2_627" />
<path d="M429.7,232.7l0.8,0l0,-107.8l-0.8,0l0,107.8Z" class="g2_627" />
<path d="M503.2,232.7l0.7,0l0,-107.8l-0.7,0l0,107.8Z" class="g2_627" />
<path d="M574.5,232.7l0.7,0l0,-107.8l-0.7,0l0,107.8Z" class="g2_627" />
<path d="M852.8,231.8l0.7,0l0,-106.1l-0.7,0l0,106.1Z" class="g2_627" />
<path d="M69.2,125.7l784.4,0l0,-0.8l-784.4,0l0,0.8Z" class="g2_627" />
<path d="M69.2,163.8l784.4,0l0,-0.7l-784.4,0l0,0.7Z" class="g2_627" />
<path d="M69.2,186.7l784.4,0l0,-0.7L69.2,186l0,0.7Z" class="g2_627" />
<path d="M69.2,209.6l784.4,0l0,-0.7l-784.4,0l0,0.7Z" class="g2_627" />
<path d="M69.2,232.6l784.4,0l0,-0.8l-784.4,0l0,0.8Z" class="g2_627" />
<path d="M69.3,335.8l0.7,0l0,-48.1l-0.7,0l0,48.1Z" class="g2_627" />
<path d="M149,336.5l0.8,0l0,-49.7l-0.8,0l0,49.7Z" class="g2_627" />
<path d="M315.1,336.5l0.7,0l0,-49.7l-0.7,0l0,49.7Z" class="g2_627" />
<path d="M497.7,336.5l0.8,0l0,-49.7l-0.8,0l0,49.7Z" class="g2_627" />
<path d="M672.6,336.5l0.7,0l0,-49.7l-0.7,0l0,49.7Z" class="g2_627" />
<path d="M852.7,335.8l0.7,0l0,-48.1l-0.7,0l0,48.1Z" class="g2_627" />
<path d="M69.3,287.6l784.1,0l0,-0.8l-784.1,0l0,0.8Z" class="g2_627" />
<path d="M69.3,312l784.1,0l0,-0.7l-784.1,0l0,0.7Z" class="g2_627" />
<path d="M69.3,336.5l784.1,0l0,-0.7l-784.1,0l0,0.7Z" class="g2_627" />
<path d="M70.2,662.7l0.8,0l0,-155l-0.8,0l0,155Z" class="g2_627" />
<path d="M175.7,663.5l0.8,0l0,-156.7l-0.8,0l0,156.7Z" class="g2_627" />
<path d="M287.6,663.5l0.7,0l0,-156.7l-0.7,0l0,156.7Z" class="g2_627" />
<path d="M851.8,662.7l0.7,0l0,-155l-0.7,0l0,155Z" class="g2_627" />
<path d="M70.2,507.7l782.3,0l0,-0.8l-782.3,0l0,0.8Z" class="g2_627" />
<path d="M70.2,532l782.3,0l0,-0.7l-782.3,0l0,0.7Z" class="g2_627" />
<path d="M70.2,556.5l782.3,0l0,-0.7l-782.3,0l0,0.7Z" class="g2_627" />
<path d="M70.2,597.8l782.3,0l0,-0.8L70.2,597l0,0.8Z" class="g2_627" />
<path d="M70.2,639l782.3,0l0,-0.7l-782.3,0l0,0.7Z" class="g2_627" />
<path d="M70.2,663.5l782.3,0l0,-0.7l-782.3,0l0,0.7Z" class="g2_627" />
<path d="M70.2,1069.1l0.8,0L71,798l-0.8,0l0,271.1Z" class="g2_627" />
<path d="M176,1069.8l0.7,0l0,-272.7l-0.7,0l0,272.7Z" class="g2_627" />
<path d="M288.2,1069.8l0.7,0l0,-272.7l-0.7,0l0,272.7Z" class="g2_627" />
<path d="M851.8,1069.1l0.7,0l0,-271.1l-0.7,0l0,271.1Z" class="g2_627" />
<path d="M70.2,797.9l782.3,0l0,-0.8l-782.3,0l0,0.8Z" class="g2_627" />
<path d="M70.2,822.3l782.3,0l0,-0.7l-782.3,0l0,0.7Z" class="g2_627" />
<path d="M70.2,863.6l782.3,0l0,-0.7l-782.3,0l0,0.7Z" class="g2_627" />
<path d="M70.2,904.8l782.3,0l0,-0.7l-782.3,0l0,0.7Z" class="g2_627" />
<path d="M70.2,946.1l782.3,0l0,-0.7l-782.3,0l0,0.7Z" class="g2_627" />
<path d="M70.2,987.3l782.3,0l0,-0.7l-782.3,0l0,0.7Z" class="g2_627" />
<path d="M70.2,1028.6l782.3,0l0,-0.7l-782.3,0l0,0.7Z" class="g2_627" />
<path d="M70.2,1069.8l782.3,0l0,-0.7l-782.3,0l0,0.7Z" class="g2_627" />
</svg>