<?xml version="1.0" encoding="UTF-8" standalone="no"?>
<!DOCTYPE svg PUBLIC "-//W3C//DTD SVG 1.1//EN"
"http://www.w3.org/Graphics/SVG/1.1/DTD/svg11.dtd">
<svg viewBox="0 0 935 1210" version="1.1" xmlns="http://www.w3.org/2000/svg" xmlns:xlink="http://www.w3.org/1999/xlink">
<defs>
<style type="text/css"><![CDATA[
.g1_1860{
fill: #FFFFFF;
}
.g2_1860{
}
]]></style>
</defs>
<path d="M165,1149.3l687.5,0l0,-21.2l-687.5,0l0,21.2Z" class="g1_1860" />
<path d="M68.8,1149.3l82.5,0l0,-21.2l-82.5,0l0,21.2Z" class="g1_1860" />
<path d="M68.6,262.4l0.7,0l0,-136.7l-0.7,0l0,136.7Z" class="g2_1860" />
<path d="M263,263.2l0.7,0l0,-138.3l-0.7,0l0,138.3Z" class="g2_1860" />
<path d="M309.9,263.2l0.8,0l0,-138.3l-0.8,0l0,138.3Z" class="g2_1860" />
<path d="M387.8,263.2l0.8,0l0,-138.3l-0.8,0l0,138.3Z" class="g2_1860" />
<path d="M464.7,263.2l0.7,0l0,-138.3l-0.7,0l0,138.3Z" class="g2_1860" />
<path d="M852,262.4l0.7,0l0,-136.7l-0.7,0l0,136.7Z" class="g2_1860" />
<path d="M68.6,125.7l784.1,0l0,-0.8l-784.1,0l0,0.8Z" class="g2_1860" />
<path d="M68.6,176.1l784.1,0l0,-0.7l-784.1,0l0,0.7Z" class="g2_1860" />
<path d="M68.6,263.2l784.1,0l0,-0.8l-784.1,0l0,0.8Z" class="g2_1860" />
<path d="M68.8,366.3l0.7,0l0,-48.1l-0.7,0l0,48.1Z" class="g2_1860" />
<path d="M217.6,367l0.8,0l0,-49.6l-0.8,0l0,49.6Z" class="g2_1860" />
<path d="M363.5,367l0.7,0l0,-49.6l-0.7,0l0,49.6Z" class="g2_1860" />
<path d="M571.5,367l0.7,0l0,-49.6l-0.7,0l0,49.6Z" class="g2_1860" />
<path d="M718.8,367l0.8,0l0,-49.6l-0.8,0l0,49.6Z" class="g2_1860" />
<path d="M851.7,366.3l0.7,0l0,-48.1l-0.7,0l0,48.1Z" class="g2_1860" />
<path d="M68.8,318.2l783.6,0l0,-0.8l-783.6,0l0,0.8Z" class="g2_1860" />
<path d="M68.8,342.6l783.6,0l0,-0.8l-783.6,0l0,0.8Z" class="g2_1860" />
<path d="M68.8,367l783.6,0l0,-0.7l-783.6,0l0,0.7Z" class="g2_1860" />
</svg>