<?xml version="1.0" encoding="UTF-8" standalone="no"?>
<!DOCTYPE svg PUBLIC "-//W3C//DTD SVG 1.1//EN"
"http://www.w3.org/Graphics/SVG/1.1/DTD/svg11.dtd">
<svg viewBox="0 0 935 1210" version="1.1" xmlns="http://www.w3.org/2000/svg" xmlns:xlink="http://www.w3.org/1999/xlink">
<defs>
<style type="text/css"><![CDATA[
.g1_2144{
fill: #FFFFFF;
}
.g2_2144{
}
]]></style>
</defs>
<path d="M68.8,1149.3l783.7,0l0,-21.2l-783.7,0l0,21.2Z" class="g1_2144" />
<path d="M68.6,1069.1l0.7,0l0,-961.8l-0.7,0l0,961.8Z" class="g2_2144" />
<path d="M443.8,1069.8l0.8,0l0,-963.2l-0.8,0l0,963.2Z" class="g2_2144" />
<path d="M849.9,1069.1l0.8,0l0,-961.8l-0.8,0l0,961.8Z" class="g2_2144" />
<path d="M68.6,107.3l782.1,0l0,-0.7l-782.1,0l0,0.7Z" class="g2_2144" />
<path d="M68.6,131.7l782.1,0l0,-0.7L68.6,131l0,0.7Z" class="g2_2144" />
<path d="M68.6,156.2l782.1,0l0,-0.7l-782.1,0l0,0.7Z" class="g2_2144" />
<path d="M68.6,180.7l782.1,0l0,-0.8l-782.1,0l0,0.8Z" class="g2_2144" />
<path d="M68.6,205.1l782.1,0l0,-0.8l-782.1,0l0,0.8Z" class="g2_2144" />
<path d="M68.6,229.5l782.1,0l0,-0.7l-782.1,0l0,0.7Z" class="g2_2144" />
<path d="M68.6,254l782.1,0l0,-0.7l-782.1,0l0,0.7Z" class="g2_2144" />
<path d="M68.6,278.4l782.1,0l0,-0.7l-782.1,0l0,0.7Z" class="g2_2144" />
<path d="M68.6,302.9l782.1,0l0,-0.8l-782.1,0l0,0.8Z" class="g2_2144" />
<path d="M68.6,327.3l782.1,0l0,-0.7l-782.1,0l0,0.7Z" class="g2_2144" />
<path d="M68.6,351.7l782.1,0l0,-0.7L68.6,351l0,0.7Z" class="g2_2144" />
<path d="M68.6,376.2l782.1,0l0,-0.7l-782.1,0l0,0.7Z" class="g2_2144" />
<path d="M68.6,400.7l782.1,0l0,-0.8l-782.1,0l0,0.8Z" class="g2_2144" />
<path d="M68.6,425.2l782.1,0l0,-0.8l-782.1,0l0,0.8Z" class="g2_2144" />
<path d="M68.6,449.5l782.1,0l0,-0.7l-782.1,0l0,0.7Z" class="g2_2144" />
<path d="M68.6,474l782.1,0l0,-0.7l-782.1,0l0,0.7Z" class="g2_2144" />
<path d="M68.6,498.5l782.1,0l0,-0.8l-782.1,0l0,0.8Z" class="g2_2144" />
<path d="M68.6,522.9l782.1,0l0,-0.8l-782.1,0l0,0.8Z" class="g2_2144" />
<path d="M68.6,547.3l782.1,0l0,-0.7l-782.1,0l0,0.7Z" class="g2_2144" />
<path d="M68.6,571.8l782.1,0l0,-0.7l-782.1,0l0,0.7Z" class="g2_2144" />
<path d="M68.6,596.2l782.1,0l0,-0.7l-782.1,0l0,0.7Z" class="g2_2144" />
<path d="M68.6,620.7l782.1,0l0,-0.8l-782.1,0l0,0.8Z" class="g2_2144" />
<path d="M68.6,645.2l782.1,0l0,-0.8l-782.1,0l0,0.8Z" class="g2_2144" />
<path d="M68.6,669.5l782.1,0l0,-0.7l-782.1,0l0,0.7Z" class="g2_2144" />
<path d="M68.6,694l782.1,0l0,-0.7l-782.1,0l0,0.7Z" class="g2_2144" />
<path d="M68.6,718.5l782.1,0l0,-0.7l-782.1,0l0,0.7Z" class="g2_2144" />
<path d="M68.6,742.9l782.1,0l0,-0.8l-782.1,0l0,0.8Z" class="g2_2144" />
<path d="M68.6,767.3l782.1,0l0,-0.7l-782.1,0l0,0.7Z" class="g2_2144" />
<path d="M68.6,791.8l782.1,0l0,-0.7l-782.1,0l0,0.7Z" class="g2_2144" />
<path d="M68.6,833.1l782.1,0l0,-0.8l-782.1,0l0,0.8Z" class="g2_2144" />
<path d="M68.6,857.5l782.1,0l0,-0.8l-782.1,0l0,0.8Z" class="g2_2144" />
<path d="M68.6,881.9l782.1,0l0,-0.7l-782.1,0l0,0.7Z" class="g2_2144" />
<path d="M68.6,906.4l782.1,0l0,-0.7l-782.1,0l0,0.7Z" class="g2_2144" />
<path d="M68.6,930.8l782.1,0l0,-0.7l-782.1,0l0,0.7Z" class="g2_2144" />
<path d="M68.6,972l782.1,0l0,-0.7l-782.1,0l0,0.7Z" class="g2_2144" />
<path d="M68.6,996.5l782.1,0l0,-0.7l-782.1,0l0,0.7Z" class="g2_2144" />
<path d="M68.6,1021l782.1,0l0,-0.7l-782.1,0l0,0.7Z" class="g2_2144" />
<path d="M68.6,1045.4l782.1,0l0,-0.8l-782.1,0l0,0.8Z" class="g2_2144" />
<path d="M68.6,1069.8l782.1,0l0,-0.7l-782.1,0l0,0.7Z" class="g2_2144" />
</svg>