<?xml version="1.0" encoding="UTF-8" standalone="no"?>
<!DOCTYPE svg PUBLIC "-//W3C//DTD SVG 1.1//EN"
"http://www.w3.org/Graphics/SVG/1.1/DTD/svg11.dtd">
<svg viewBox="0 0 935 1210" version="1.1" xmlns="http://www.w3.org/2000/svg" xmlns:xlink="http://www.w3.org/1999/xlink">
<defs>
<style type="text/css"><![CDATA[
.g1_245{
fill: #FFFFFF;
}
.g2_245{
}
]]></style>
</defs>
<path d="M68.9,1149.3l686.3,0l0,-21.2l-686.3,0l0,21.2Z" class="g1_245" />
<path d="M771.3,1149.3l83.7,0l0,-21.2l-83.7,0l0,21.2Z" class="g1_245" />
<path d="M70.3,202.9l0.7,0l0,-77.2l-0.7,0l0,77.2Z" class="g2_245" />
<path d="M221,203.6l0.7,0l0,-78.7l-0.7,0l0,78.7Z" class="g2_245" />
<path d="M391.9,203.6l0.7,0l0,-78.7l-0.7,0l0,78.7Z" class="g2_245" />
<path d="M429.7,203.6l0.8,0l0,-78.7l-0.8,0l0,78.7Z" class="g2_245" />
<path d="M503.1,203.6l0.7,0l0,-78.7l-0.7,0l0,78.7Z" class="g2_245" />
<path d="M574.5,203.6l0.7,0l0,-78.7l-0.7,0l0,78.7Z" class="g2_245" />
<path d="M851.7,202.9l0.7,0l0,-77.2l-0.7,0l0,77.2Z" class="g2_245" />
<path d="M70.3,125.7l782.1,0l0,-0.8l-782.1,0l0,0.8Z" class="g2_245" />
<path d="M70.3,163.8l782.1,0l0,-0.7l-782.1,0l0,0.7Z" class="g2_245" />
<path d="M70.3,203.6l782.1,0l0,-0.7l-782.1,0l0,0.7Z" class="g2_245" />
<path d="M69.3,306.7l0.7,0l0,-48.1l-0.7,0l0,48.1Z" class="g2_245" />
<path d="M132.9,307.4l0.8,0l0,-49.5l-0.8,0l0,49.5Z" class="g2_245" />
<path d="M312.1,307.4l0.8,0l0,-49.5l-0.8,0l0,49.5Z" class="g2_245" />
<path d="M487.5,307.4l0.7,0l0,-49.5l-0.7,0l0,49.5Z" class="g2_245" />
<path d="M671.6,307.4l0.8,0l0,-49.5l-0.8,0l0,49.5Z" class="g2_245" />
<path d="M852.7,306.7l0.7,0l0,-48.1l-0.7,0l0,48.1Z" class="g2_245" />
<path d="M69.3,258.6l784.1,0l0,-0.7l-784.1,0l0,0.7Z" class="g2_245" />
<path d="M69.3,283l784.1,0l0,-0.8l-784.1,0l0,0.8Z" class="g2_245" />
<path d="M69.3,307.4l784.1,0l0,-0.7l-784.1,0l0,0.7Z" class="g2_245" />
<path d="M71.4,734.5l0.7,0L72.1,529l-0.7,0l0,205.5Z" class="g2_245" />
<path d="M157.9,735.3l0.8,0l0,-207l-0.8,0l0,207Z" class="g2_245" />
<path d="M244.6,735.3l0.7,0l0,-207l-0.7,0l0,207Z" class="g2_245" />
<path d="M331.1,735.3l0.7,0l0,-207l-0.7,0l0,207Z" class="g2_245" />
<path d="M417.7,735.3l0.8,0l0,-207l-0.8,0l0,207Z" class="g2_245" />
<path d="M504.3,735.3l0.7,0l0,-207l-0.7,0l0,207Z" class="g2_245" />
<path d="M590.9,735.3l0.7,0l0,-207l-0.7,0l0,207Z" class="g2_245" />
<path d="M677.4,735.3l0.8,0l0,-207l-0.8,0l0,207Z" class="g2_245" />
<path d="M850.6,734.5l0.7,0l0,-205.5l-0.7,0l0,205.5Z" class="g2_245" />
<path d="M71.4,529l779.9,0l0,-0.7l-779.9,0l0,0.7Z" class="g2_245" />
<path d="M71.4,551.9l779.9,0l0,-0.7l-779.9,0l0,0.7Z" class="g2_245" />
<path d="M71.4,574.8l779.9,0l0,-0.7l-779.9,0l0,0.7Z" class="g2_245" />
<path d="M71.4,597.8l779.9,0l0,-0.8L71.4,597l0,0.8Z" class="g2_245" />
<path d="M71.4,620.7l779.9,0l0,-0.8l-779.9,0l0,0.8Z" class="g2_245" />
<path d="M71.4,643.6l779.9,0l0,-0.7l-779.9,0l0,0.7Z" class="g2_245" />
<path d="M71.4,666.5l779.9,0l0,-0.7l-779.9,0l0,0.7Z" class="g2_245" />
<path d="M71.4,689.4l779.9,0l0,-0.7l-779.9,0l0,0.7Z" class="g2_245" />
<path d="M71.4,712.3l779.9,0l0,-0.7l-779.9,0l0,0.7Z" class="g2_245" />
<path d="M71.4,735.3l779.9,0l0,-0.8l-779.9,0l0,0.8Z" class="g2_245" />
</svg>