<?xml version="1.0" encoding="UTF-8" standalone="no"?>
<!DOCTYPE svg PUBLIC "-//W3C//DTD SVG 1.1//EN"
"http://www.w3.org/Graphics/SVG/1.1/DTD/svg11.dtd">
<svg viewBox="0 0 935 1210" version="1.1" xmlns="http://www.w3.org/2000/svg" xmlns:xlink="http://www.w3.org/1999/xlink">
<defs>
<style type="text/css"><![CDATA[
.g1_2151{
fill: #FFFFFF;
}
.g2_2151{
}
]]></style>
</defs>
<path d="M68.9,1149.3l783.8,0l0,-21.2l-783.8,0l0,21.2Z" class="g1_2151" />
<path d="M69.9,1085.9l0.8,0l0,-978.6l-0.8,0l0,978.6Z" class="g2_2151" />
<path d="M445.2,1086.7l0.8,0l0,-980.1l-0.8,0l0,980.1Z" class="g2_2151" />
<path d="M851.3,1085.9l0.7,0l0,-978.6l-0.7,0l0,978.6Z" class="g2_2151" />
<path d="M69.9,107.3l782.1,0l0,-0.7l-782.1,0l0,0.7Z" class="g2_2151" />
<path d="M69.9,131.7l782.1,0l0,-0.7L69.9,131l0,0.7Z" class="g2_2151" />
<path d="M69.9,156.2l782.1,0l0,-0.7l-782.1,0l0,0.7Z" class="g2_2151" />
<path d="M69.9,180.7l782.1,0l0,-0.8l-782.1,0l0,0.8Z" class="g2_2151" />
<path d="M69.9,221.9l782.1,0l0,-0.7l-782.1,0l0,0.7Z" class="g2_2151" />
<path d="M69.9,246.3l782.1,0l0,-0.7l-782.1,0l0,0.7Z" class="g2_2151" />
<path d="M69.9,270.8l782.1,0l0,-0.7l-782.1,0l0,0.7Z" class="g2_2151" />
<path d="M69.9,295.3l782.1,0l0,-0.8l-782.1,0l0,0.8Z" class="g2_2151" />
<path d="M69.9,319.6l782.1,0l0,-0.7l-782.1,0l0,0.7Z" class="g2_2151" />
<path d="M69.9,360.9l782.1,0l0,-0.7l-782.1,0l0,0.7Z" class="g2_2151" />
<path d="M69.9,385.4l782.1,0l0,-0.8l-782.1,0l0,0.8Z" class="g2_2151" />
<path d="M69.9,409.8l782.1,0l0,-0.7l-782.1,0l0,0.7Z" class="g2_2151" />
<path d="M69.9,434.3l782.1,0l0,-0.7l-782.1,0l0,0.7Z" class="g2_2151" />
<path d="M69.9,458.7l782.1,0l0,-0.7L69.9,458l0,0.7Z" class="g2_2151" />
<path d="M69.9,499.9l782.1,0l0,-0.7l-782.1,0l0,0.7Z" class="g2_2151" />
<path d="M69.9,524.4l782.1,0l0,-0.7l-782.1,0l0,0.7Z" class="g2_2151" />
<path d="M69.9,548.9l782.1,0l0,-0.7l-782.1,0l0,0.7Z" class="g2_2151" />
<path d="M69.9,573.3l782.1,0l0,-0.7l-782.1,0l0,0.7Z" class="g2_2151" />
<path d="M69.9,597.8l782.1,0l0,-0.8L69.9,597l0,0.8Z" class="g2_2151" />
<path d="M69.9,622.2l782.1,0l0,-0.7l-782.1,0l0,0.7Z" class="g2_2151" />
<path d="M69.9,646.6l782.1,0l0,-0.7l-782.1,0l0,0.7Z" class="g2_2151" />
<path d="M69.9,671.1l782.1,0l0,-0.7l-782.1,0l0,0.7Z" class="g2_2151" />
<path d="M69.9,695.6l782.1,0l0,-0.8l-782.1,0l0,0.8Z" class="g2_2151" />
<path d="M69.9,719.9l782.1,0l0,-0.7l-782.1,0l0,0.7Z" class="g2_2151" />
<path d="M69.9,744.4l782.1,0l0,-0.7l-782.1,0l0,0.7Z" class="g2_2151" />
<path d="M69.9,768.9l782.1,0l0,-0.7l-782.1,0l0,0.7Z" class="g2_2151" />
<path d="M69.9,793.3l782.1,0l0,-0.7l-782.1,0l0,0.7Z" class="g2_2151" />
<path d="M69.9,817.8l782.1,0l0,-0.8L69.9,817l0,0.8Z" class="g2_2151" />
<path d="M69.9,842.2l782.1,0l0,-0.7l-782.1,0l0,0.7Z" class="g2_2151" />
<path d="M69.9,866.6l782.1,0l0,-0.7l-782.1,0l0,0.7Z" class="g2_2151" />
<path d="M69.9,891.1l782.1,0l0,-0.7l-782.1,0l0,0.7Z" class="g2_2151" />
<path d="M69.9,915.6l782.1,0l0,-0.8l-782.1,0l0,0.8Z" class="g2_2151" />
<path d="M69.9,940L852,940l0,-0.8l-782.1,0l0,0.8Z" class="g2_2151" />
<path d="M69.9,964.4l782.1,0l0,-0.7l-782.1,0l0,0.7Z" class="g2_2151" />
<path d="M69.9,988.9l782.1,0l0,-0.7l-782.1,0l0,0.7Z" class="g2_2151" />
<path d="M69.9,1013.3l782.1,0l0,-0.7l-782.1,0l0,0.7Z" class="g2_2151" />
<path d="M69.9,1037.8l782.1,0l0,-0.8l-782.1,0l0,0.8Z" class="g2_2151" />
<path d="M69.9,1062.2l782.1,0l0,-0.7l-782.1,0l0,0.7Z" class="g2_2151" />
<path d="M69.9,1086.6l782.1,0l0,-0.7l-782.1,0l0,0.7Z" class="g2_2151" />
</svg>