<?xml version="1.0" encoding="UTF-8" standalone="no"?>
<!DOCTYPE svg PUBLIC "-//W3C//DTD SVG 1.1//EN"
"http://www.w3.org/Graphics/SVG/1.1/DTD/svg11.dtd">
<svg viewBox="0 0 935 1210" version="1.1" xmlns="http://www.w3.org/2000/svg" xmlns:xlink="http://www.w3.org/1999/xlink">
<defs>
<style type="text/css"><![CDATA[
.g1_2105{
fill: #FFFFFF;
}
.g2_2105{
}
]]></style>
</defs>
<path d="M68.9,1149.3l783.8,0l0,-21.2l-783.8,0l0,21.2Z" class="g1_2105" />
<path d="M69.9,982l0.8,0l0,-857.9l-0.8,0l0,857.9Z" class="g2_2105" />
<path d="M399.5,982.8l0.7,0l0,-859.4l-0.7,0l0,859.4Z" class="g2_2105" />
<path d="M852.6,982l0.7,0l0,-857.9l-0.7,0l0,857.9Z" class="g2_2105" />
<path d="M69.9,124.1l783.4,0l0,-0.7l-783.4,0l0,0.7Z" class="g2_2105" />
<path d="M69.9,148.6l783.4,0l0,-0.7l-783.4,0l0,0.7Z" class="g2_2105" />
<path d="M69.9,188.3l783.4,0l0,-0.7l-783.4,0l0,0.7Z" class="g2_2105" />
<path d="M69.9,212.8l783.4,0l0,-0.8L69.9,212l0,0.8Z" class="g2_2105" />
<path d="M69.9,237.1l783.4,0l0,-0.7l-783.4,0l0,0.7Z" class="g2_2105" />
<path d="M69.9,276.9l783.4,0l0,-0.7l-783.4,0l0,0.7Z" class="g2_2105" />
<path d="M69.9,301.3l783.4,0l0,-0.7l-783.4,0l0,0.7Z" class="g2_2105" />
<path d="M69.9,325.8l783.4,0l0,-0.7l-783.4,0l0,0.7Z" class="g2_2105" />
<path d="M69.9,365.5l783.4,0l0,-0.8l-783.4,0l0,0.8Z" class="g2_2105" />
<path d="M69.9,389.9l783.4,0l0,-0.7l-783.4,0l0,0.7Z" class="g2_2105" />
<path d="M69.9,414.4l783.4,0l0,-0.7l-783.4,0l0,0.7Z" class="g2_2105" />
<path d="M69.9,454.1l783.4,0l0,-0.7l-783.4,0l0,0.7Z" class="g2_2105" />
<path d="M69.9,478.6l783.4,0l0,-0.7l-783.4,0l0,0.7Z" class="g2_2105" />
<path d="M69.9,524.4l783.4,0l0,-0.7l-783.4,0l0,0.7Z" class="g2_2105" />
<path d="M69.9,564.1l783.4,0l0,-0.7l-783.4,0l0,0.7Z" class="g2_2105" />
<path d="M69.9,588.6l783.4,0l0,-0.7l-783.4,0l0,0.7Z" class="g2_2105" />
<path d="M69.9,613.1l783.4,0l0,-0.8l-783.4,0l0,0.8Z" class="g2_2105" />
<path d="M69.9,668.1l783.4,0l0,-0.8l-783.4,0l0,0.8Z" class="g2_2105" />
<path d="M69.9,692.4l783.4,0l0,-0.7l-783.4,0l0,0.7Z" class="g2_2105" />
<path d="M69.9,716.9l783.4,0l0,-0.7l-783.4,0l0,0.7Z" class="g2_2105" />
<path d="M69.9,756.6l783.4,0l0,-0.7l-783.4,0l0,0.7Z" class="g2_2105" />
<path d="M69.9,781.1l783.4,0l0,-0.7l-783.4,0l0,0.7Z" class="g2_2105" />
<path d="M69.9,805.6l783.4,0l0,-0.8l-783.4,0l0,0.8Z" class="g2_2105" />
<path d="M69.9,845.3l783.4,0l0,-0.8l-783.4,0l0,0.8Z" class="g2_2105" />
<path d="M69.9,869.7l783.4,0l0,-0.7L69.9,869l0,0.7Z" class="g2_2105" />
<path d="M69.9,894.1l783.4,0l0,-0.7l-783.4,0l0,0.7Z" class="g2_2105" />
<path d="M69.9,933.9l783.4,0l0,-0.7l-783.4,0l0,0.7Z" class="g2_2105" />
<path d="M69.9,958.3l783.4,0l0,-0.7l-783.4,0l0,0.7Z" class="g2_2105" />
<path d="M69.9,982.8l783.4,0l0,-0.8L69.9,982l0,0.8Z" class="g2_2105" />
</svg>