<?xml version="1.0" encoding="UTF-8" standalone="no"?>
<!DOCTYPE svg PUBLIC "-//W3C//DTD SVG 1.1//EN"
"http://www.w3.org/Graphics/SVG/1.1/DTD/svg11.dtd">
<svg viewBox="0 0 935 1210" version="1.1" xmlns="http://www.w3.org/2000/svg" xmlns:xlink="http://www.w3.org/1999/xlink">
<defs>
<style type="text/css"><![CDATA[
.g1_2169{
fill: #FFFFFF;
}
.g2_2169{
}
]]></style>
</defs>
<path d="M68.9,1149.3l783.8,0l0,-21.2l-783.8,0l0,21.2Z" class="g1_2169" />
<path d="M69.9,538.9l0.8,0l0,-414.8l-0.8,0l0,414.8Z" class="g2_2169" />
<path d="M444.6,539.7l0.7,0l0,-416.3l-0.7,0l0,416.3Z" class="g2_2169" />
<path d="M852.4,538.9l0.7,0l0,-414.8l-0.7,0l0,414.8Z" class="g2_2169" />
<path d="M69.9,124.1l783.2,0l0,-0.7l-783.2,0l0,0.7Z" class="g2_2169" />
<path d="M69.9,148.6l783.2,0l0,-0.7l-783.2,0l0,0.7Z" class="g2_2169" />
<path d="M69.9,173l783.2,0l0,-0.8l-783.2,0l0,0.8Z" class="g2_2169" />
<path d="M69.9,197.4l783.2,0l0,-0.7l-783.2,0l0,0.7Z" class="g2_2169" />
<path d="M69.9,221.9l783.2,0l0,-0.7l-783.2,0l0,0.7Z" class="g2_2169" />
<path d="M69.9,246.3l783.2,0l0,-0.7l-783.2,0l0,0.7Z" class="g2_2169" />
<path d="M69.9,270.8l783.2,0l0,-0.7l-783.2,0l0,0.7Z" class="g2_2169" />
<path d="M69.9,295.3l783.2,0l0,-0.8l-783.2,0l0,0.8Z" class="g2_2169" />
<path d="M69.9,319.6l783.2,0l0,-0.7l-783.2,0l0,0.7Z" class="g2_2169" />
<path d="M69.9,344.1l783.2,0l0,-0.7l-783.2,0l0,0.7Z" class="g2_2169" />
<path d="M69.9,368.6l783.2,0l0,-0.7l-783.2,0l0,0.7Z" class="g2_2169" />
<path d="M69.9,393l783.2,0l0,-0.8l-783.2,0l0,0.8Z" class="g2_2169" />
<path d="M69.9,417.4l783.2,0l0,-0.7l-783.2,0l0,0.7Z" class="g2_2169" />
<path d="M69.9,441.9l783.2,0l0,-0.7l-783.2,0l0,0.7Z" class="g2_2169" />
<path d="M69.9,466.4l783.2,0l0,-0.7l-783.2,0l0,0.7Z" class="g2_2169" />
<path d="M69.9,490.8l783.2,0l0,-0.8L69.9,490l0,0.8Z" class="g2_2169" />
<path d="M69.9,515.3l783.2,0l0,-0.8l-783.2,0l0,0.8Z" class="g2_2169" />
<path d="M69.9,539.7l783.2,0l0,-0.7L69.9,539l0,0.7Z" class="g2_2169" />
<path d="M70.8,1089l0.7,0l0,-404.2l-0.7,0l0,404.2Z" class="g2_2169" />
<path d="M445.6,1089.7l0.7,0l0,-405.6l-0.7,0l0,405.6Z" class="g2_2169" />
<path d="M851.2,1089l0.7,0l0,-404.2l-0.7,0l0,404.2Z" class="g2_2169" />
<path d="M70.8,684.8l781.2,0l0,-0.7l-781.2,0l0,0.7Z" class="g2_2169" />
<path d="M70.8,707.8l781.2,0l0,-0.8L70.8,707l0,0.8Z" class="g2_2169" />
<path d="M70.8,730.7l781.2,0l0,-0.8l-781.2,0l0,0.8Z" class="g2_2169" />
<path d="M70.8,753.6l781.2,0l0,-0.7l-781.2,0l0,0.7Z" class="g2_2169" />
<path d="M70.8,776.5l781.2,0l0,-0.7l-781.2,0l0,0.7Z" class="g2_2169" />
<path d="M70.8,799.4l781.2,0l0,-0.7l-781.2,0l0,0.7Z" class="g2_2169" />
<path d="M70.8,822.3l781.2,0l0,-0.7l-781.2,0l0,0.7Z" class="g2_2169" />
<path d="M70.8,845.3l781.2,0l0,-0.8l-781.2,0l0,0.8Z" class="g2_2169" />
<path d="M70.8,868.2l781.2,0l0,-0.8l-781.2,0l0,0.8Z" class="g2_2169" />
<path d="M70.8,891.1l781.2,0l0,-0.7l-781.2,0l0,0.7Z" class="g2_2169" />
<path d="M70.8,914L852,914l0,-0.7l-781.2,0l0,0.7Z" class="g2_2169" />
<path d="M70.8,936.9l781.2,0l0,-0.7l-781.2,0l0,0.7Z" class="g2_2169" />
<path d="M70.8,959.8l781.2,0l0,-0.7l-781.2,0l0,0.7Z" class="g2_2169" />
<path d="M70.8,982.8l781.2,0l0,-0.8L70.8,982l0,0.8Z" class="g2_2169" />
<path d="M70.8,1005.7l781.2,0l0,-0.8l-781.2,0l0,0.8Z" class="g2_2169" />
<path d="M70.8,1028.6l781.2,0l0,-0.7l-781.2,0l0,0.7Z" class="g2_2169" />
<path d="M70.8,1051.5l781.2,0l0,-0.7l-781.2,0l0,0.7Z" class="g2_2169" />
<path d="M70.8,1089.7l781.2,0l0,-0.7l-781.2,0l0,0.7Z" class="g2_2169" />
</svg>