<?xml version="1.0" encoding="UTF-8" standalone="no"?>
<!DOCTYPE svg PUBLIC "-//W3C//DTD SVG 1.1//EN"
"http://www.w3.org/Graphics/SVG/1.1/DTD/svg11.dtd">
<svg viewBox="0 0 935 1210" version="1.1" xmlns="http://www.w3.org/2000/svg" xmlns:xlink="http://www.w3.org/1999/xlink">
<defs>
<style type="text/css"><![CDATA[
.g1_1872{
fill: #FFFFFF;
}
.g2_1872{
}
]]></style>
</defs>
<path d="M165,1149.3l687.5,0l0,-21.2l-687.5,0l0,21.2Z" class="g1_1872" />
<path d="M68.8,1149.3l82.5,0l0,-21.2l-82.5,0l0,21.2Z" class="g1_1872" />
<path d="M68.6,386.2l0.7,0l0,-260.5l-0.7,0l0,260.5Z" class="g2_1872" />
<path d="M305.9,386.9l0.7,0l0,-262l-0.7,0l0,262Z" class="g2_1872" />
<path d="M350.5,386.9l0.8,0l0,-262l-0.8,0l0,262Z" class="g2_1872" />
<path d="M425.1,386.9l0.7,0l0,-262l-0.7,0l0,262Z" class="g2_1872" />
<path d="M509.6,386.9l0.7,0l0,-262l-0.7,0l0,262Z" class="g2_1872" />
<path d="M850.9,386.2l0.8,0l0,-260.5l-0.8,0l0,260.5Z" class="g2_1872" />
<path d="M68.6,125.7l783.1,0l0,-0.8l-783.1,0l0,0.8Z" class="g2_1872" />
<path d="M68.6,176.1l783.1,0l0,-0.7l-783.1,0l0,0.7Z" class="g2_1872" />
<path d="M68.6,246.3l783.1,0l0,-0.7l-783.1,0l0,0.7Z" class="g2_1872" />
<path d="M68.6,316.6l783.1,0l0,-0.7l-783.1,0l0,0.7Z" class="g2_1872" />
<path d="M68.6,386.9l783.1,0l0,-0.7l-783.1,0l0,0.7Z" class="g2_1872" />
<path d="M67.6,490.1l0.7,0l0,-48.2l-0.7,0l0,48.2Z" class="g2_1872" />
<path d="M181.1,490.8l0.8,0l0,-49.6l-0.8,0l0,49.6Z" class="g2_1872" />
<path d="M345,490.8l0.8,0l0,-49.6l-0.8,0l0,49.6Z" class="g2_1872" />
<path d="M525.4,490.8l0.8,0l0,-49.6l-0.8,0l0,49.6Z" class="g2_1872" />
<path d="M695.5,490.8l0.7,0l0,-49.6l-0.7,0l0,49.6Z" class="g2_1872" />
<path d="M852.8,490.1l0.7,0l0,-48.2l-0.7,0l0,48.2Z" class="g2_1872" />
<path d="M67.6,441.9l785.9,0l0,-0.7l-785.9,0l0,0.7Z" class="g2_1872" />
<path d="M67.6,466.4l785.9,0l0,-0.7l-785.9,0l0,0.7Z" class="g2_1872" />
<path d="M67.6,490.8l785.9,0l0,-0.8L67.6,490l0,0.8Z" class="g2_1872" />
</svg>