<?xml version="1.0" encoding="UTF-8" standalone="no"?>
<!DOCTYPE svg PUBLIC "-//W3C//DTD SVG 1.1//EN"
"http://www.w3.org/Graphics/SVG/1.1/DTD/svg11.dtd">
<svg viewBox="0 0 935 1210" version="1.1" xmlns="http://www.w3.org/2000/svg" xmlns:xlink="http://www.w3.org/1999/xlink">
<defs>
<style type="text/css"><![CDATA[
.g1_954{
fill: #FFFFFF;
}
.g2_954{
}
]]></style>
</defs>
<path d="M165,1149.3l687.5,0l0,-21.2l-687.5,0l0,21.2Z" class="g1_954" />
<path d="M68.8,1149.3l82.5,0l0,-21.2l-82.5,0l0,21.2Z" class="g1_954" />
<path d="M170.5,616.3l0.7,0l0,-185.1l-0.7,0l0,185.1Z" class="g2_954" />
<path d="M749.8,616.3l0.8,0l0,-185.1l-0.8,0l0,185.1Z" class="g2_954" />
<path d="M170.5,431.2l580.1,0l0,-0.7l-580.1,0l0,0.7Z" class="g2_954" />
<path d="M170.5,617l580.1,0l0,-0.7l-580.1,0l0,0.7Z" class="g2_954" />
<path d="M258.6,560.2l110,0l0,-27.5l-110,0l0,27.5Z" class="g1_954" />
<path d="M258.6,533L369,533l0,-0.7l-110.4,0l0,0.7Z" class="g2_954" />
<path d="M368.2,560.5l0.8,0l0,-27.8l-0.8,0l0,27.8Z" class="g2_954" />
<path d="M258.2,560.5l110.4,0l0,-0.7l-110.4,0l0,0.7Z" class="g2_954" />
<path d="M258.2,560.2l0.8,0l0,-27.9l-0.8,0l0,27.9Z" class="g2_954" />
<path d="M368.6,560.2l110,0l0,-27.5l-110,0l0,27.5Z" class="g1_954" />
<path d="M368.6,533L479,533l0,-0.7l-110.4,0l0,0.7Z" class="g2_954" />
<path d="M478.2,560.5l0.8,0l0,-27.8l-0.8,0l0,27.8Z" class="g2_954" />
<path d="M368.2,560.5l110.4,0l0,-0.7l-110.4,0l0,0.7Z" class="g2_954" />
<path d="M368.2,560.2l0.8,0l0,-27.9l-0.8,0l0,27.9Z" class="g2_954" />
<path d="M478.6,560.2l110,0l0,-27.5l-110,0l0,27.5Z" class="g1_954" />
<path d="M478.6,533L589,533l0,-0.7l-110.4,0l0,0.7Z" class="g2_954" />
<path d="M588.2,560.5l0.8,0l0,-27.8l-0.8,0l0,27.8Z" class="g2_954" />
<path d="M478.2,560.5l110.4,0l0,-0.7l-110.4,0l0,0.7Z" class="g2_954" />
<path d="M478.2,560.2l0.8,0l0,-27.9l-0.8,0l0,27.9Z" class="g2_954" />
<path d="M588.6,560.2l110,0l0,-27.5l-110,0l0,27.5Z" class="g1_954" />
<path d="M588.6,533L699,533l0,-0.7l-110.4,0l0,0.7Z" class="g2_954" />
<path d="M698.2,560.5l0.8,0l0,-27.8l-0.8,0l0,27.8Z" class="g2_954" />
<path d="M588.2,560.5l110.4,0l0,-0.7l-110.4,0l0,0.7Z" class="g2_954" />
<path d="M588.2,560.2l0.8,0l0,-27.9l-0.8,0l0,27.9Z" class="g2_954" />
<path d="M367,474.6l55.7,0l0,-27.5l-55.7,0l0,27.5Z" class="g1_954" />
<path d="M367,447.4l56,0l0,-0.7l-56,0l0,0.7Z" class="g2_954" />
<path d="M422.3,474.9l0.7,0l0,-27.8l-0.7,0l0,27.8Z" class="g2_954" />
<path d="M366.7,474.9l56,0l0,-0.7l-56,0l0,0.7Z" class="g2_954" />
<path d="M366.7,474.6l0.7,0l0,-27.9l-0.7,0l0,27.9Z" class="g2_954" />
<path d="M422.7,474.6l55.5,0l0,-27.5l-55.5,0l0,27.5Z" class="g1_954" />
<path d="M422.7,447.4l55.9,0l0,-0.7l-55.9,0l0,0.7Z" class="g2_954" />
<path d="M477.9,474.9l0.7,0l0,-27.8l-0.7,0l0,27.8Z" class="g2_954" />
<path d="M422.3,474.9l55.9,0l0,-0.7l-55.9,0l0,0.7Z" class="g2_954" />
<path d="M422.3,474.6l0.7,0l0,-27.9l-0.7,0l0,27.9Z" class="g2_954" />
<path d="M478.2,474.6l55.6,0l0,-27.5l-55.6,0l0,27.5Z" class="g1_954" />
<path d="M478.2,447.4l55.9,0l0,-0.7l-55.9,0l0,0.7Z" class="g2_954" />
<path d="M533.4,474.9l0.7,0l0,-27.8l-0.7,0l0,27.8Z" class="g2_954" />
<path d="M477.9,474.9l55.9,0l0,-0.7l-55.9,0l0,0.7Z" class="g2_954" />
<path d="M477.9,474.6l0.7,0l0,-27.9l-0.7,0l0,27.9Z" class="g2_954" />
<path d="M533.8,474.6l55.5,0l0,-27.5l-55.5,0l0,27.5Z" class="g1_954" />
<path d="M533.8,447.4l55.9,0l0,-0.7l-55.9,0l0,0.7Z" class="g2_954" />
<path d="M589,474.9l0.7,0l0,-27.8l-0.7,0l0,27.8Z" class="g2_954" />
<path d="M533.4,474.9l55.9,0l0,-0.7l-55.9,0l0,0.7Z" class="g2_954" />
<path d="M533.4,474.6l0.7,0l0,-27.9l-0.7,0l0,27.9Z" class="g2_954" />
<path d="M367,514.6l55.6,0l0,-27.5l-55.6,0l0,27.5Z" class="g1_954" />
<path d="M367,487.5l55.9,0l0,-0.7l-55.9,0l0,0.7Z" class="g2_954" />
<path d="M422.2,515l0.7,0l0,-27.9l-0.7,0l0,27.9Z" class="g2_954" />
<path d="M366.7,515l55.9,0l0,-0.7l-55.9,0l0,0.7Z" class="g2_954" />
<path d="M366.7,514.6l0.7,0l0,-27.8l-0.7,0l0,27.8Z" class="g2_954" />
<path d="M422.6,514.6l55.5,0l0,-27.5l-55.5,0l0,27.5Z" class="g1_954" />
<path d="M422.6,487.5l55.9,0l0,-0.7l-55.9,0l0,0.7Z" class="g2_954" />
<path d="M477.8,515l0.7,0l0,-27.9l-0.7,0l0,27.9Z" class="g2_954" />
<path d="M422.2,515l55.9,0l0,-0.7l-55.9,0l0,0.7Z" class="g2_954" />
<path d="M422.2,514.6l0.7,0l0,-27.8l-0.7,0l0,27.8Z" class="g2_954" />
<path d="M478.1,514.6l55.6,0l0,-27.5l-55.6,0l0,27.5Z" class="g1_954" />
<path d="M478.1,487.5l56,0l0,-0.7l-56,0l0,0.7Z" class="g2_954" />
<path d="M533.3,515l0.8,0l0,-27.9l-0.8,0l0,27.9Z" class="g2_954" />
<path d="M477.8,515l55.9,0l0,-0.7l-55.9,0l0,0.7Z" class="g2_954" />
<path d="M477.8,514.6l0.7,0l0,-27.8l-0.7,0l0,27.8Z" class="g2_954" />
<path d="M533.7,514.6l55.6,0l0,-27.5l-55.6,0l0,27.5Z" class="g1_954" />
<path d="M533.7,487.5l56,0l0,-0.7l-56,0l0,0.7Z" class="g2_954" />
<path d="M589,515l0.7,0l0,-27.9l-0.7,0l0,27.9Z" class="g2_954" />
<path d="M533.3,515l56,0l0,-0.7l-56,0l0,0.7Z" class="g2_954" />
<path d="M533.3,514.6l0.8,0l0,-27.8l-0.8,0l0,27.8Z" class="g2_954" />
<path d="M368.4,603l110.4,0l0,-27.5l-110.4,0l0,27.5Z" class="g1_954" />
<path d="M368.4,575.9l110.7,0l0,-0.8l-110.7,0l0,0.8Z" class="g2_954" />
<path d="M478.4,603.4l0.7,0l0,-27.9l-0.7,0l0,27.9Z" class="g2_954" />
<path d="M368,603.4l110.8,0l0,-0.8l-110.8,0l0,0.8Z" class="g2_954" />
<path d="M368,603l0.8,0l0,-27.9l-0.8,0l0,27.9Z" class="g2_954" />
<path d="M478.6,603l112.1,0l0,-27.5l-112.1,0l0,27.5Z" class="g1_954" />
<path d="M478.6,575.9l112.5,0l0,-0.8l-112.5,0l0,0.8Z" class="g2_954" />
<path d="M590.3,603.4l0.8,0l0,-27.9l-0.8,0l0,27.9Z" class="g2_954" />
<path d="M478.2,603.4l112.5,0l0,-0.8l-112.5,0l0,0.8Z" class="g2_954" />
<path d="M478.2,603l0.8,0l0,-27.9l-0.8,0l0,27.9Z" class="g2_954" />
</svg>