<?xml version="1.0" encoding="UTF-8" standalone="no"?>
<!DOCTYPE svg PUBLIC "-//W3C//DTD SVG 1.1//EN"
"http://www.w3.org/Graphics/SVG/1.1/DTD/svg11.dtd">
<svg viewBox="0 0 935 1210" version="1.1" xmlns="http://www.w3.org/2000/svg" xmlns:xlink="http://www.w3.org/1999/xlink">
<defs>
<style type="text/css"><![CDATA[
.g1_1647{
fill: #FFFFFF;
}
.g2_1647{
}
]]></style>
</defs>
<path d="M68.9,1149.3l686.3,0l0,-21.2l-686.3,0l0,21.2Z" class="g1_1647" />
<path d="M771.3,1149.3l83.7,0l0,-21.2l-83.7,0l0,21.2Z" class="g1_1647" />
<path d="M69.9,386.2l0.8,0l0,-260.5l-0.8,0l0,260.5Z" class="g2_1647" />
<path d="M270.2,386.9l0.8,0l0,-262l-0.8,0l0,262Z" class="g2_1647" />
<path d="M312.4,386.9l0.7,0l0,-262l-0.7,0l0,262Z" class="g2_1647" />
<path d="M385.7,386.9l0.8,0l0,-262l-0.8,0l0,262Z" class="g2_1647" />
<path d="M468.7,386.9l0.7,0l0,-262l-0.7,0l0,262Z" class="g2_1647" />
<path d="M856.4,386.2l0.8,0l0,-260.5l-0.8,0l0,260.5Z" class="g2_1647" />
<path d="M69.9,125.7l787.4,0l0,-0.8l-787.4,0l0,0.8Z" class="g2_1647" />
<path d="M69.9,176.1l787.4,0l0,-0.7l-787.4,0l0,0.7Z" class="g2_1647" />
<path d="M69.9,246.3l787.4,0l0,-0.7l-787.4,0l0,0.7Z" class="g2_1647" />
<path d="M69.9,316.6l787.4,0l0,-0.7l-787.4,0l0,0.7Z" class="g2_1647" />
<path d="M69.9,386.9l787.4,0l0,-0.7l-787.4,0l0,0.7Z" class="g2_1647" />
<path d="M69.7,490.1l0.7,0l0,-48.2l-0.7,0l0,48.2Z" class="g2_1647" />
<path d="M193.4,490.8l0.8,0l0,-49.6l-0.8,0l0,49.6Z" class="g2_1647" />
<path d="M353.9,490.8l0.8,0l0,-49.6l-0.8,0l0,49.6Z" class="g2_1647" />
<path d="M521.5,490.8l0.7,0l0,-49.6l-0.7,0l0,49.6Z" class="g2_1647" />
<path d="M685.9,490.8l0.8,0l0,-49.6l-0.8,0l0,49.6Z" class="g2_1647" />
<path d="M852.3,490.1l0.8,0l0,-48.2l-0.8,0l0,48.2Z" class="g2_1647" />
<path d="M69.7,441.9l783.3,0l0,-0.7l-783.3,0l0,0.7Z" class="g2_1647" />
<path d="M69.7,466.4l783.3,0l0,-0.7l-783.3,0l0,0.7Z" class="g2_1647" />
<path d="M69.7,490.8l783.3,0l0,-0.8L69.7,490l0,0.8Z" class="g2_1647" />
<path d="M230,1024.8l0.7,0l0,-121.4l-0.7,0l0,121.4Z" class="g2_1647" />
<path d="M334.6,1025.6l0.7,0l0,-123l-0.7,0l0,123Z" class="g2_1647" />
<path d="M540.7,1025.6l0.8,0l0,-123l-0.8,0l0,123Z" class="g2_1647" />
<path d="M692,1024.8l0.7,0l0,-121.4l-0.7,0l0,121.4Z" class="g2_1647" />
<path d="M230,903.3l462.7,0l0,-0.7l-462.7,0l0,0.7Z" class="g2_1647" />
<path d="M230,927.8l462.7,0l0,-0.8L230,927l0,0.8Z" class="g2_1647" />
<path d="M230,952.2l311.5,0l0,-0.7l-311.5,0l0,0.7Z" class="g2_1647" />
<path d="M230,976.6l311.5,0l0,-0.7l-311.5,0l0,0.7Z" class="g2_1647" />
<path d="M230,1001.1l311.5,0l0,-0.7l-311.5,0l0,0.7Z" class="g2_1647" />
<path d="M230,1025.6l462.7,0l0,-0.8l-462.7,0l0,0.8Z" class="g2_1647" />
</svg>