<?xml version="1.0" encoding="UTF-8" standalone="no"?>
<!DOCTYPE svg PUBLIC "-//W3C//DTD SVG 1.1//EN"
"http://www.w3.org/Graphics/SVG/1.1/DTD/svg11.dtd">
<svg viewBox="0 0 935 1210" version="1.1" xmlns="http://www.w3.org/2000/svg" xmlns:xlink="http://www.w3.org/1999/xlink">
<defs>
<clipPath id="c0_365"><path d="M70.3,425.3l0,-29.6l782.1,0l0,29.6Z" /></clipPath>
<style type="text/css"><![CDATA[
.g1_365{
fill: #FFFFFF;
}
.g2_365{
}
]]></style>
</defs>
<path d="M68.9,1149.3l686.3,0l0,-21.2l-686.3,0l0,21.2Z" class="g1_365" />
<path d="M771.3,1149.3l83.7,0l0,-21.2l-83.7,0l0,21.2Z" class="g1_365" />
<g clip-path="url(#c0_365)">
<path d="M70.3,425.3l782.1,0l0,-29.6l-782.1,0l0,29.6Z" class="g1_365" />
</g>
<path d="M71.2,418.6l53.6,0l0,-12.4l-53.6,0l0,12.4Z" class="g1_365" />
<path d="M69.9,395.4l0.8,0l0,-269.7l-0.8,0l0,269.7Z" class="g2_365" />
<path d="M301.4,396.1l0.7,0l0,-271.2l-0.7,0l0,271.2Z" class="g2_365" />
<path d="M347.2,396.1l0.8,0l0,-271.2l-0.8,0l0,271.2Z" class="g2_365" />
<path d="M421.7,396.1l0.7,0l0,-271.2l-0.7,0l0,271.2Z" class="g2_365" />
<path d="M502.5,396.1l0.7,0l0,-271.2l-0.7,0l0,271.2Z" class="g2_365" />
<path d="M852,395.4l0.8,0l0,-269.7l-0.8,0l0,269.7Z" class="g2_365" />
<path d="M69.9,125.7l782.9,0l0,-0.8l-782.9,0l0,0.8Z" class="g2_365" />
<path d="M69.9,176.1l782.9,0l0,-0.7l-782.9,0l0,0.7Z" class="g2_365" />
<path d="M69.9,212.8l782.9,0l0,-0.8L69.9,212l0,0.8Z" class="g2_365" />
<path d="M69.9,249.4l782.9,0l0,-0.7l-782.9,0l0,0.7Z" class="g2_365" />
<path d="M69.9,286.1l782.9,0l0,-0.7l-782.9,0l0,0.7Z" class="g2_365" />
<path d="M69.9,322.8l782.9,0l0,-0.8L69.9,322l0,0.8Z" class="g2_365" />
<path d="M69.9,359.4l782.9,0l0,-0.7l-782.9,0l0,0.7Z" class="g2_365" />
<path d="M69.9,396.1l782.9,0l0,-0.7l-782.9,0l0,0.7Z" class="g2_365" />
<path d="M71.5,573.1l0.7,0l0,-72.5l-0.7,0l0,72.5Z" class="g2_365" />
<path d="M181,573.9l0.7,0l0,-74.1l-0.7,0l0,74.1Z" class="g2_365" />
<path d="M349,573.9l0.7,0l0,-74.1l-0.7,0l0,74.1Z" class="g2_365" />
<path d="M516.8,573.9l0.8,0l0,-74.1l-0.8,0l0,74.1Z" class="g2_365" />
<path d="M680.5,573.9l0.8,0l0,-74.1l-0.8,0l0,74.1Z" class="g2_365" />
<path d="M850.5,573.1l0.7,0l0,-72.5l-0.7,0l0,72.5Z" class="g2_365" />
<path d="M71.5,500.5l779.8,0l0,-0.7l-779.8,0l0,0.7Z" class="g2_365" />
<path d="M71.5,525l779.8,0l0,-0.8l-779.8,0l0,0.8Z" class="g2_365" />
<path d="M71.5,549.5l779.8,0l0,-0.8l-779.8,0l0,0.8Z" class="g2_365" />
<path d="M71.5,573.8l779.8,0l0,-0.7l-779.8,0l0,0.7Z" class="g2_365" />
</svg>