<?xml version="1.0" encoding="UTF-8" standalone="no"?>
<!DOCTYPE svg PUBLIC "-//W3C//DTD SVG 1.1//EN"
"http://www.w3.org/Graphics/SVG/1.1/DTD/svg11.dtd">
<svg viewBox="0 0 935 1210" version="1.1" xmlns="http://www.w3.org/2000/svg" xmlns:xlink="http://www.w3.org/1999/xlink">
<defs>
<style type="text/css"><![CDATA[
.g1_1345{
fill: #FFFFFF;
}
.g2_1345{
}
]]></style>
</defs>
<path d="M68.9,1149.3l686.3,0l0,-21.2l-686.3,0l0,21.2Z" class="g1_1345" />
<path d="M771.3,1149.3l83.7,0l0,-21.2l-83.7,0l0,21.2Z" class="g1_1345" />
<path d="M158.5,361.9l0.7,0l0,-237.8l-0.7,0l0,237.8Z" class="g2_1345" />
<path d="M763.5,361.9l0.7,0l0,-237.8l-0.7,0l0,237.8Z" class="g2_1345" />
<path d="M158.5,124.1l605.7,0l0,-0.7l-605.7,0l0,0.7Z" class="g2_1345" />
<path d="M158.5,362.6l605.7,0l0,-0.7l-605.7,0l0,0.7Z" class="g2_1345" />
<path fill-rule="evenodd" d="M648,264.5l0.2,-0.2l0.1,-0.4l0,-0.8l-0.4,-0.6l-0.2,-0.2l-0.3,-0.1l-0.2,-0.1l-0.6,0l-0.3,0.1l-0.2,0.1l-0.3,0.1l-0.2,0.2l-0.2,0.3c-0.7,1.5,0.9,2.6,2.1,2l0.3,-0.2l0.2,-0.2Z" class="g2_1345" />
<path d="M646.8,263.5l4,-5.2l0.7,-0.7l0.5,0.7l14.2,19.2l1.7,2.2l-2.6,-1L643.2,270l-1,-0.4l0.7,-0.8l0.8,-0.3l22.2,8.7l-0.6,1.5l-0.4,-0.3L650.8,259.2l1.2,-0.9l0,0.9l-4,5.3Z" class="g2_1345" />
<path d="M642.9,268.8l3.9,-5.3l1.2,1l-3.9,5.2Z" class="g2_1345" />
<path fill-rule="evenodd" d="M647.4,264l4,-5.2l14.2,19.1l-22.2,-8.7Z" class="g2_1345" />
<path d="M560.4,195.9l-1.8,2.4l87.3,66.4l1.8,-2.4Z" class="g2_1345" />
<path fill-rule="evenodd" d="M596.1,264.9l0.2,-0.3l0.1,-0.2c0.2,-1.6,-1.4,-2.4,-2.6,-1.5l-0.2,0.3l-0.1,0.3c-0.5,1.4,0.8,2.6,2.2,1.9l0.2,-0.2l0.2,-0.3Z" class="g2_1345" />
<path d="M594.9,264l3.9,-5.3l0.6,-0.8l0.6,0.8l14.6,18.8l1.7,2.1l-2.5,-0.9l-22.4,-8.2l-1,-0.4l0.7,-0.8l0.8,-0.3l22.4,8.2l-0.5,1.5l-0.4,-0.3L598.8,259.6l1.2,-0.9l0,0.9l-3.9,5.3Z" class="g2_1345" />
<path d="M591.1,269.3l3.8,-5.3l1.2,0.9l-3.8,5.3Z" class="g2_1345" />
<path fill-rule="evenodd" d="M595.5,264.5l3.8,-5.4L614,277.9l-22.4,-8.1Z" class="g2_1345" />
<path d="M560.4,237.1l-1.7,2.5L594,265.3l1.7,-2.5Z" class="g2_1345" />
<path d="M642,197.1l56.8,0l0,-20.6l-56.8,0l0,20.6Z" class="g1_1345" />
<path d="M642,176.8l57.1,0l0,-0.7l-57.1,0l0,0.7Z" class="g2_1345" />
<path d="M698.4,197.4l0.7,0l0,-20.9l-0.7,0l0,20.9Z" class="g2_1345" />
<path d="M641.7,197.4l57.1,0l0,-0.7l-57.1,0l0,0.7Z" class="g2_1345" />
<path d="M641.7,197.1l0.7,0l0,-21l-0.7,0l0,21Z" class="g2_1345" />
<path d="M585.3,197.1l56.7,0l0,-20.6l-56.7,0l0,20.6Z" class="g1_1345" />
<path d="M585.3,176.8l57.1,0l0,-0.7l-57.1,0l0,0.7Z" class="g2_1345" />
<path d="M641.7,197.4l0.7,0l0,-20.9l-0.7,0l0,20.9Z" class="g2_1345" />
<path d="M584.9,197.4l57.1,0l0,-0.7l-57.1,0l0,0.7Z" class="g2_1345" />
<path d="M584.9,197.1l0.8,0l0,-21l-0.8,0l0,21Z" class="g2_1345" />
<path d="M528.5,197.1l56.8,0l0,-20.6l-56.8,0l0,20.6Z" class="g1_1345" />
<path d="M528.5,176.8l57.2,0l0,-0.7l-57.2,0l0,0.7Z" class="g2_1345" />
<path d="M584.9,197.4l0.8,0l0,-20.9l-0.8,0l0,20.9Z" class="g2_1345" />
<path d="M528.2,197.4l57.1,0l0,-0.7l-57.1,0l0,0.7Z" class="g2_1345" />
<path d="M528.2,197.1l0.7,0l0,-21l-0.7,0l0,21Z" class="g2_1345" />
<path d="M471.9,197.1l56.7,0l0,-20.6l-56.7,0l0,20.6Z" class="g1_1345" />
<path d="M471.9,176.8l57,0l0,-0.7l-57,0l0,0.7Z" class="g2_1345" />
<path d="M528.2,197.4l0.7,0l0,-20.9l-0.7,0l0,20.9Z" class="g2_1345" />
<path d="M471.5,197.4l57.1,0l0,-0.7l-57.1,0l0,0.7Z" class="g2_1345" />
<path d="M471.5,197.1l0.8,0l0,-21l-0.8,0l0,21Z" class="g2_1345" />
<path d="M642,238.3l56.8,0l0,-20.6l-56.8,0l0,20.6Z" class="g1_1345" />
<path d="M642,218.1l57.1,0l0,-0.8l-57.1,0l0,0.8Z" class="g2_1345" />
<path d="M698.4,238.7l0.7,0l0,-21l-0.7,0l0,21Z" class="g2_1345" />
<path d="M641.7,238.7l57.1,0l0,-0.7l-57.1,0l0,0.7Z" class="g2_1345" />
<path d="M641.7,238.3l0.7,0l0,-21l-0.7,0l0,21Z" class="g2_1345" />
<path d="M585.3,238.3l56.7,0l0,-20.6l-56.7,0l0,20.6Z" class="g1_1345" />
<path d="M585.3,218.1l57.1,0l0,-0.8l-57.1,0l0,0.8Z" class="g2_1345" />
<path d="M641.7,238.7l0.7,0l0,-21l-0.7,0l0,21Z" class="g2_1345" />
<path d="M584.9,238.7l57.1,0l0,-0.7l-57.1,0l0,0.7Z" class="g2_1345" />
<path d="M584.9,238.3l0.8,0l0,-21l-0.8,0l0,21Z" class="g2_1345" />
<path d="M528.5,238.3l56.8,0l0,-20.6l-56.8,0l0,20.6Z" class="g1_1345" />
<path d="M528.5,218.1l57.2,0l0,-0.8l-57.2,0l0,0.8Z" class="g2_1345" />
<path d="M584.9,238.7l0.8,0l0,-21l-0.8,0l0,21Z" class="g2_1345" />
<path d="M528.2,238.7l57.1,0l0,-0.7l-57.1,0l0,0.7Z" class="g2_1345" />
<path d="M528.2,238.3l0.7,0l0,-21l-0.7,0l0,21Z" class="g2_1345" />
<path d="M471.9,238.3l56.7,0l0,-20.6l-56.7,0l0,20.6Z" class="g1_1345" />
<path d="M471.9,218.1l57,0l0,-0.8l-57,0l0,0.8Z" class="g2_1345" />
<path d="M528.2,238.7l0.7,0l0,-21l-0.7,0l0,21Z" class="g2_1345" />
<path d="M471.5,238.7l57.1,0l0,-0.7l-57.1,0l0,0.7Z" class="g2_1345" />
<path d="M471.5,238.3l0.8,0l0,-21l-0.8,0l0,21Z" class="g2_1345" />
<path d="M642,300.2l56.8,0l0,-20.6l-56.8,0l0,20.6Z" class="g1_1345" />
<path d="M642,279.9l57.1,0l0,-0.7l-57.1,0l0,0.7Z" class="g2_1345" />
<path d="M698.4,300.6l0.7,0l0,-21l-0.7,0l0,21Z" class="g2_1345" />
<path d="M641.7,300.6l57.1,0l0,-0.8l-57.1,0l0,0.8Z" class="g2_1345" />
<path d="M641.7,300.2l0.7,0l0,-21l-0.7,0l0,21Z" class="g2_1345" />
<path d="M671.7,294.2l6.5,0l0,-0.8l-6.5,0l0,0.8Z" class="g2_1345" />
<path d="M585.3,300.2l56.7,0l0,-20.6l-56.7,0l0,20.6Z" class="g1_1345" />
<path d="M585.3,279.9l57.1,0l0,-0.7l-57.1,0l0,0.7Z" class="g2_1345" />
<path d="M641.7,300.6l0.7,0l0,-21l-0.7,0l0,21Z" class="g2_1345" />
<path d="M584.9,300.6l57.1,0l0,-0.8l-57.1,0l0,0.8Z" class="g2_1345" />
<path d="M584.9,300.2l0.8,0l0,-21l-0.8,0l0,21Z" class="g2_1345" />
<path d="M528.5,300.2l56.8,0l0,-20.6l-56.8,0l0,20.6Z" class="g1_1345" />
<path d="M528.5,279.9l57.2,0l0,-0.7l-57.2,0l0,0.7Z" class="g2_1345" />
<path d="M584.9,300.6l0.8,0l0,-21l-0.8,0l0,21Z" class="g2_1345" />
<path d="M528.2,300.6l57.1,0l0,-0.8l-57.1,0l0,0.8Z" class="g2_1345" />
<path d="M528.2,300.2l0.7,0l0,-21l-0.7,0l0,21Z" class="g2_1345" />
<path d="M471.9,300.2l56.7,0l0,-20.6l-56.7,0l0,20.6Z" class="g1_1345" />
<path d="M471.9,279.9l57,0l0,-0.7l-57,0l0,0.7Z" class="g2_1345" />
<path d="M528.2,300.6l0.7,0l0,-21l-0.7,0l0,21Z" class="g2_1345" />
<path d="M471.5,300.6l57.1,0l0,-0.8l-57.1,0l0,0.8Z" class="g2_1345" />
<path d="M471.5,300.2l0.8,0l0,-21l-0.8,0l0,21Z" class="g2_1345" />
<path d="M415.2,300.2l56.7,0l0,-20.6l-56.7,0l0,20.6Z" class="g1_1345" />
<path d="M415.2,279.9l57.1,0l0,-0.7l-57.1,0l0,0.7Z" class="g2_1345" />
<path d="M471.5,300.6l0.8,0l0,-21l-0.8,0l0,21Z" class="g2_1345" />
<path d="M414.8,300.6l57.1,0l0,-0.8l-57.1,0l0,0.8Z" class="g2_1345" />
<path d="M414.8,300.2l0.7,0l0,-21l-0.7,0l0,21Z" class="g2_1345" />
<path d="M358.4,300.2l56.8,0l0,-20.6l-56.8,0l0,20.6Z" class="g1_1345" />
<path d="M358.4,279.9l57.1,0l0,-0.7l-57.1,0l0,0.7Z" class="g2_1345" />
<path d="M414.8,300.6l0.7,0l0,-21l-0.7,0l0,21Z" class="g2_1345" />
<path d="M358.1,300.6l57.1,0l0,-0.8l-57.1,0l0,0.8Z" class="g2_1345" />
<path d="M358.1,300.2l0.7,0l0,-21l-0.7,0l0,21Z" class="g2_1345" />
<path d="M301.7,300.2l56.7,0l0,-20.6l-56.7,0l0,20.6Z" class="g1_1345" />
<path d="M301.7,279.9l57.1,0l0,-0.7l-57.1,0l0,0.7Z" class="g2_1345" />
<path d="M358.1,300.6l0.7,0l0,-21l-0.7,0l0,21Z" class="g2_1345" />
<path d="M301.3,300.6l57.1,0l0,-0.8l-57.1,0l0,0.8Z" class="g2_1345" />
<path d="M301.3,300.2l0.7,0l0,-21l-0.7,0l0,21Z" class="g2_1345" />
<path d="M245,300.2l56.7,0l0,-20.6l-56.7,0l0,20.6Z" class="g1_1345" />
<path d="M245,279.9l57,0l0,-0.7l-57,0l0,0.7Z" class="g2_1345" />
<path d="M301.3,300.6l0.7,0l0,-21l-0.7,0l0,21Z" class="g2_1345" />
<path d="M244.7,300.6l57,0l0,-0.8l-57,0l0,0.8Z" class="g2_1345" />
<path d="M244.7,300.2l0.7,0l0,-21l-0.7,0l0,21Z" class="g2_1345" />
<path d="M415.2,197.1l56.7,0l0,-20.6l-56.7,0l0,20.6Z" class="g1_1345" />
<path d="M415.2,176.8l57.1,0l0,-0.7l-57.1,0l0,0.7Z" class="g2_1345" />
<path d="M471.5,197.4l0.8,0l0,-20.9l-0.8,0l0,20.9Z" class="g2_1345" />
<path d="M414.8,197.4l57.1,0l0,-0.7l-57.1,0l0,0.7Z" class="g2_1345" />
<path d="M414.8,197.1l0.7,0l0,-21l-0.7,0l0,21Z" class="g2_1345" />
<path d="M358.4,197.1l56.8,0l0,-20.6l-56.8,0l0,20.6Z" class="g1_1345" />
<path d="M358.4,176.8l57.1,0l0,-0.7l-57.1,0l0,0.7Z" class="g2_1345" />
<path d="M414.8,197.4l0.7,0l0,-20.9l-0.7,0l0,20.9Z" class="g2_1345" />
<path d="M358.1,197.4l57.1,0l0,-0.7l-57.1,0l0,0.7Z" class="g2_1345" />
<path d="M358.1,197.1l0.7,0l0,-21l-0.7,0l0,21Z" class="g2_1345" />
<path d="M301.7,197.1l56.7,0l0,-20.6l-56.7,0l0,20.6Z" class="g1_1345" />
<path d="M301.7,176.8l57.1,0l0,-0.7l-57.1,0l0,0.7Z" class="g2_1345" />
<path d="M358.1,197.4l0.7,0l0,-20.9l-0.7,0l0,20.9Z" class="g2_1345" />
<path d="M301.3,197.4l57.1,0l0,-0.7l-57.1,0l0,0.7Z" class="g2_1345" />
<path d="M301.3,197.1l0.7,0l0,-21l-0.7,0l0,21Z" class="g2_1345" />
<path d="M245,197.1l56.7,0l0,-20.6l-56.7,0l0,20.6Z" class="g1_1345" />
<path d="M245,176.8l57,0l0,-0.7l-57,0l0,0.7Z" class="g2_1345" />
<path d="M301.3,197.4l0.7,0l0,-20.9l-0.7,0l0,20.9Z" class="g2_1345" />
<path d="M244.7,197.4l57,0l0,-0.7l-57,0l0,0.7Z" class="g2_1345" />
<path d="M244.7,197.1l0.7,0l0,-21l-0.7,0l0,21Z" class="g2_1345" />
<path d="M415.2,238.3l56.7,0l0,-20.6l-56.7,0l0,20.6Z" class="g1_1345" />
<path d="M415.2,218.1l57.1,0l0,-0.8l-57.1,0l0,0.8Z" class="g2_1345" />
<path d="M471.5,238.7l0.8,0l0,-21l-0.8,0l0,21Z" class="g2_1345" />
<path d="M414.8,238.7l57.1,0l0,-0.7l-57.1,0l0,0.7Z" class="g2_1345" />
<path d="M414.8,238.3l0.7,0l0,-21l-0.7,0l0,21Z" class="g2_1345" />
<path d="M358.4,238.3l56.8,0l0,-20.6l-56.8,0l0,20.6Z" class="g1_1345" />
<path d="M358.4,218.1l57.1,0l0,-0.8l-57.1,0l0,0.8Z" class="g2_1345" />
<path d="M414.8,238.7l0.7,0l0,-21l-0.7,0l0,21Z" class="g2_1345" />
<path d="M358.1,238.7l57.1,0l0,-0.7l-57.1,0l0,0.7Z" class="g2_1345" />
<path d="M358.1,238.3l0.7,0l0,-21l-0.7,0l0,21Z" class="g2_1345" />
<path d="M301.7,238.3l56.7,0l0,-20.6l-56.7,0l0,20.6Z" class="g1_1345" />
<path d="M301.7,218.1l57.1,0l0,-0.8l-57.1,0l0,0.8Z" class="g2_1345" />
<path d="M358.1,238.7l0.7,0l0,-21l-0.7,0l0,21Z" class="g2_1345" />
<path d="M301.3,238.7l57.1,0l0,-0.7l-57.1,0l0,0.7Z" class="g2_1345" />
<path d="M301.3,238.3l0.7,0l0,-21l-0.7,0l0,21Z" class="g2_1345" />
<path d="M245,238.3l56.7,0l0,-20.6l-56.7,0l0,20.6Z" class="g1_1345" />
<path d="M245,218.1l57,0l0,-0.8l-57,0l0,0.8Z" class="g2_1345" />
<path d="M301.3,238.7l0.7,0l0,-21l-0.7,0l0,21Z" class="g2_1345" />
<path d="M244.7,238.7l57,0l0,-0.7l-57,0l0,0.7Z" class="g2_1345" />
<path d="M244.7,238.3l0.7,0l0,-21l-0.7,0l0,21Z" class="g2_1345" />
<path fill-rule="evenodd" d="M541.2,258.5l0.2,-0.2l0.2,-0.3c0.8,-1.1,-0.4,-2.9,-1.8,-2.2l-0.2,0l-0.3,0.3c-1.1,1.2,-0.1,2.8,1.3,2.6l0.3,-0.1l0.3,-0.1Z" class="g2_1345" />
<path d="M540.4,257.2l5.6,-3.5l0.8,-0.5l0.3,1l6.6,22.8l0.7,2.6l-1.9,-1.8L534.8,262L534,261.3l0.9,-0.6l0.9,0.1l17.7,15.8l-1,1.2l-0.3,-0.4l-6.6,-22.8l1.5,-0.4l-0.3,0.9l-5.6,3.5Z" class="g2_1345" />
<path d="M534.9,260.7l5.5,-3.5l0.8,1.4l-5.5,3.5Z" class="g2_1345" />
<path fill-rule="evenodd" d="M540.7,257.9l5.6,-3.5l6.6,22.8L535.2,261.3Z" class="g2_1345" />
<path d="M504.1,196.4l-2.6,1.5L539.1,258l2.6,-1.5Z" class="g2_1345" />
<path fill-rule="evenodd" d="M502.8,254.6l0.4,0l0.2,0c1.3,-0.6,1.3,-2.5,-0.2,-3l-0.7,0c-1.5,0.3,-1.7,2.5,-0.3,3l0.3,0l0.3,0Z" class="g2_1345" />
<path d="M502.8,253.2l7.6,0l-0.3,1l-6.6,22.9l-0.7,2.6l-0.7,-2.6l-6.5,-22.9l-0.3,-1l1,0l0.7,0.5l6.5,22.9l-1.4,0.5l0,-0.5l6.6,-22.9l1.4,0.5l-0.7,0.5l-6.6,0Z" class="g2_1345" />
<path d="M496.3,254.7l6.5,0l0,-1.5l-6.5,0l0,1.5Z" class="g2_1345" />
<path fill-rule="evenodd" d="M502.8,253.9l6.6,0l-6.6,22.9l-6.5,-22.9Z" class="g2_1345" />
<path d="M501.3,253.2l3.1,0l0,-14.9l-3.1,0l0,14.9Z" class="g2_1345" />
<path fill-rule="evenodd" d="M421.1,264.5l0.2,-0.2l0.1,-0.4l0,-0.8L421,262.5l-0.2,-0.2l-0.2,-0.1c-0.5,-0.2,-1,-0.1,-1.5,0.1l-0.2,0.1l-0.3,0.2l0,0.3c-0.8,1.5,0.9,2.6,2.1,2l0.2,-0.2l0.2,-0.2Z" class="g2_1345" />
<path d="M419.9,263.5l4.1,-5.2l0.6,-0.7l0.6,0.7l14.2,19.2l1.6,2.2l-2.6,-1L416.3,270l-1,-0.4l0.7,-0.8l0.8,-0.3l22.2,8.7l-0.6,1.5l-0.3,-0.3L424,259.2l1.2,-0.9l0,0.9l-4.1,5.3Z" class="g2_1345" />
<path d="M416,268.8l3.9,-5.3l1.2,1l-3.9,5.2Z" class="g2_1345" />
<path fill-rule="evenodd" d="M420.5,264l4,-5.2l14.2,19.1l-22.2,-8.7Z" class="g2_1345" />
<path d="M333.6,195.9l-1.9,2.4L419,264.7l1.8,-2.4Z" class="g2_1345" />
<path fill-rule="evenodd" d="M369.2,264.9l0.2,-0.3l0.1,-0.2c0.2,-1.6,-1.3,-2.4,-2.6,-1.5l-0.1,0.3l-0.2,0.3c-0.5,1.4,0.8,2.6,2.2,1.9l0.2,-0.2l0.2,-0.3Z" class="g2_1345" />
<path d="M368,264l3.9,-5.3l0.6,-0.8l0.6,0.8l14.6,18.8l1.7,2.1l-2.5,-0.9l-22.3,-8.2l-1.1,-0.4l0.7,-0.8L365,269l22.4,8.2l-0.5,1.5l-0.3,-0.3L371.9,259.6l1.2,-0.9l0,0.9l-3.9,5.3Z" class="g2_1345" />
<path d="M364.2,269.3L368,264l1.2,0.9l-3.8,5.3Z" class="g2_1345" />
<path fill-rule="evenodd" d="M368.6,264.5l3.8,-5.4l14.7,18.8l-22.4,-8.1Z" class="g2_1345" />
<path d="M333.6,237.1l-1.8,2.5l35.3,25.7l1.8,-2.5Z" class="g2_1345" />
<path fill-rule="evenodd" d="M314.3,258.5l0.2,-0.2l0.2,-0.3c0.9,-1.1,-0.3,-2.8,-1.7,-2.2l-0.3,0l-0.3,0.3l-0.2,0.2l-0.1,0.3l-0.2,0.2l0,0.6l0.1,0.3l0.4,0.5l0.2,0.2l0.3,0.2l0.2,0.1l0.6,0l0.4,-0.1l0.2,-0.1Z" class="g2_1345" />
<path d="M313.5,257.2l5.6,-3.5l0.8,-0.5l0.3,1l6.6,22.8l0.7,2.5l-1.9,-1.7L307.8,262L307,261.3l0.9,-0.6l0.9,0.1l17.8,15.8l-1,1.2l-0.3,-0.4l-6.6,-22.8l1.5,-0.4l-0.3,0.9l-5.6,3.5Z" class="g2_1345" />
<path d="M307.9,260.7l5.6,-3.5l0.8,1.4l-5.6,3.5Z" class="g2_1345" />
<path fill-rule="evenodd" d="M313.9,257.9l5.6,-3.5l6.6,22.8L308.3,261.3Z" class="g2_1345" />
<path d="M277.2,196.4l-2.6,1.5L312.2,258l2.6,-1.5Z" class="g2_1345" />
<path fill-rule="evenodd" d="M275.9,254.6l0.3,0l0.4,0c1.3,-0.6,1.1,-2.7,-0.4,-3l-0.6,0c-1.5,0.3,-1.6,2.5,-0.2,3l0.2,0l0.3,0Z" class="g2_1345" />
<path d="M275.9,253.2l7.6,0l-0.2,1l-6.6,22.9l-0.8,2.6l-0.7,-2.6l-6.6,-22.9l-0.3,-1l1,0l0.8,0.5l6.6,22.9l-1.5,0.5l0,-0.5l6.6,-22.9l1.5,0.5l-0.8,0.5l-6.6,0Z" class="g2_1345" />
<path d="M269.3,254.7l6.6,0l0,-1.5l-6.6,0l0,1.5Z" class="g2_1345" />
<path fill-rule="evenodd" d="M275.9,253.9l6.6,0l-6.6,22.9l-6.6,-22.9Z" class="g2_1345" />
<path d="M274.5,253.2l3,0l0,-14.9l-3,0l0,14.9Z" class="g2_1345" />
</svg>