<?xml version="1.0" encoding="UTF-8" standalone="no"?>
<!DOCTYPE svg PUBLIC "-//W3C//DTD SVG 1.1//EN"
"http://www.w3.org/Graphics/SVG/1.1/DTD/svg11.dtd">
<svg viewBox="0 0 935 1210" version="1.1" xmlns="http://www.w3.org/2000/svg" xmlns:xlink="http://www.w3.org/1999/xlink">
<defs>
<style type="text/css"><![CDATA[
.g1_478{
fill: #FFFFFF;
}
.g2_478{
}
]]></style>
</defs>
<path d="M165,1149.3l687.5,0l0,-21.2l-687.5,0l0,21.2Z" class="g1_478" />
<path d="M68.8,1149.3l82.5,0l0,-21.2l-82.5,0l0,21.2Z" class="g1_478" />
<path d="M70,282.2l0.8,0l0,-150.4l-0.8,0l0,150.4Z" class="g2_478" />
<path d="M171.7,283.1l0.7,0l0,-152.1l-0.7,0l0,152.1Z" class="g2_478" />
<path d="M397.1,283.1l0.7,0l0,-152.1l-0.7,0l0,152.1Z" class="g2_478" />
<path d="M460.5,283.1l0.8,0l0,-152.1l-0.8,0l0,152.1Z" class="g2_478" />
<path d="M553.4,283.1l0.7,0l0,-152.1l-0.7,0l0,152.1Z" class="g2_478" />
<path d="M850.4,282.2l0.7,0l0,-150.4l-0.7,0l0,150.4Z" class="g2_478" />
<path d="M70,131.7l781.1,0l0,-0.7L70,131l0,0.7Z" class="g2_478" />
<path d="M70,169.9l781.1,0l0,-0.7L70,169.2l0,0.7Z" class="g2_478" />
<path d="M70,226.5l781.1,0l0,-0.7L70,225.8l0,0.7Z" class="g2_478" />
<path d="M70,283l781.1,0l0,-0.8L70,282.2l0,0.8Z" class="g2_478" />
</svg>