<?xml version="1.0" encoding="UTF-8" standalone="no"?>
<!DOCTYPE svg PUBLIC "-//W3C//DTD SVG 1.1//EN"
"http://www.w3.org/Graphics/SVG/1.1/DTD/svg11.dtd">
<svg viewBox="0 0 935 1210" version="1.1" xmlns="http://www.w3.org/2000/svg" xmlns:xlink="http://www.w3.org/1999/xlink">
<defs>
<style type="text/css"><![CDATA[
.g1_1174{
fill: #FFFFFF;
}
.g2_1174{
}
]]></style>
</defs>
<path d="M165,1149.3l687.5,0l0,-21.2l-687.5,0l0,21.2Z" class="g1_1174" />
<path d="M68.8,1149.3l82.5,0l0,-21.2l-82.5,0l0,21.2Z" class="g1_1174" />
<path d="M71.9,861.3l0.7,0l0,-754l-0.7,0l0,754Z" class="g2_1174" />
<path d="M219.8,862.1l0.8,0l0,-755.5l-0.8,0l0,755.5Z" class="g2_1174" />
<path d="M387.7,862.1l0.7,0l0,-755.5l-0.7,0l0,755.5Z" class="g2_1174" />
<path d="M425.5,862.1l0.8,0l0,-755.5l-0.8,0l0,755.5Z" class="g2_1174" />
<path d="M498.8,862.1l0.8,0l0,-755.5l-0.8,0l0,755.5Z" class="g2_1174" />
<path d="M570.3,862.1l0.7,0l0,-755.5l-0.7,0l0,755.5Z" class="g2_1174" />
<path d="M848.6,861.3l0.7,0l0,-754l-0.7,0l0,754Z" class="g2_1174" />
<path d="M71.8,107.3l777.5,0l0,-0.7l-777.5,0l0,0.7Z" class="g2_1174" />
<path d="M71.8,145.5l777.5,0l0,-0.8l-777.5,0l0,0.8Z" class="g2_1174" />
<path d="M71.8,168.4l777.5,0l0,-0.7l-777.5,0l0,0.7Z" class="g2_1174" />
<path d="M71.8,191.3l777.5,0l0,-0.7l-777.5,0l0,0.7Z" class="g2_1174" />
<path d="M71.8,214.2l777.5,0l0,-0.7l-777.5,0l0,0.7Z" class="g2_1174" />
<path d="M71.8,237.1l777.5,0l0,-0.7l-777.5,0l0,0.7Z" class="g2_1174" />
<path d="M71.8,302.9l777.5,0l0,-0.8l-777.5,0l0,0.8Z" class="g2_1174" />
<path d="M71.8,342.6l777.5,0l0,-0.8l-777.5,0l0,0.8Z" class="g2_1174" />
<path d="M71.8,365.5l777.5,0l0,-0.8l-777.5,0l0,0.8Z" class="g2_1174" />
<path d="M71.8,405.3l777.5,0l0,-0.8l-777.5,0l0,0.8Z" class="g2_1174" />
<path d="M71.8,428.2l777.5,0l0,-0.8l-777.5,0l0,0.8Z" class="g2_1174" />
<path d="M71.8,467.9l777.5,0l0,-0.8l-777.5,0l0,0.8Z" class="g2_1174" />
<path d="M71.8,490.8l777.5,0l0,-0.8L71.8,490l0,0.8Z" class="g2_1174" />
<path d="M71.8,513.7l777.5,0l0,-0.7L71.8,513l0,0.7Z" class="g2_1174" />
<path d="M71.8,536.6l777.5,0l0,-0.7l-777.5,0l0,0.7Z" class="g2_1174" />
<path d="M71.8,559.5l777.5,0l0,-0.7l-777.5,0l0,0.7Z" class="g2_1174" />
<path d="M71.8,582.4l777.5,0l0,-0.7l-777.5,0l0,0.7Z" class="g2_1174" />
<path d="M71.8,605.4l777.5,0l0,-0.8l-777.5,0l0,0.8Z" class="g2_1174" />
<path d="M71.8,628.3l777.5,0l0,-0.7l-777.5,0l0,0.7Z" class="g2_1174" />
<path d="M71.8,651.2l777.5,0l0,-0.7l-777.5,0l0,0.7Z" class="g2_1174" />
<path d="M71.8,674.1l777.5,0l0,-0.7l-777.5,0l0,0.7Z" class="g2_1174" />
<path d="M71.8,697l777.5,0l0,-0.7l-777.5,0l0,0.7Z" class="g2_1174" />
<path d="M71.8,736.8l777.5,0l0,-0.7l-777.5,0l0,0.7Z" class="g2_1174" />
<path d="M71.8,759.7l777.5,0l0,-0.7L71.8,759l0,0.7Z" class="g2_1174" />
<path d="M71.8,799.4l777.5,0l0,-0.7l-777.5,0l0,0.7Z" class="g2_1174" />
<path d="M71.8,822.3l777.5,0l0,-0.7l-777.5,0l0,0.7Z" class="g2_1174" />
<path d="M71.8,862l777.5,0l0,-0.7l-777.5,0l0,0.7Z" class="g2_1174" />
<path d="M71.4,1073.7l0.7,0l0,-97l-0.7,0l0,97Z" class="g2_1174" />
<path d="M139.3,1074.4l0.8,0l0,-98.5l-0.8,0l0,98.5Z" class="g2_1174" />
<path d="M317.3,1074.4l0.7,0l0,-98.5l-0.7,0l0,98.5Z" class="g2_1174" />
<path d="M491.2,1074.4l0.8,0l0,-98.5l-0.8,0l0,98.5Z" class="g2_1174" />
<path d="M668.2,1074.4l0.7,0l0,-98.5l-0.7,0l0,98.5Z" class="g2_1174" />
<path d="M849,1073.7l0.7,0l0,-97l-0.7,0l0,97Z" class="g2_1174" />
<path d="M71.4,976.6l778.4,0l0,-0.7l-778.4,0l0,0.7Z" class="g2_1174" />
<path d="M71.4,1001.1l778.4,0l0,-0.7l-778.4,0l0,0.7Z" class="g2_1174" />
<path d="M71.4,1025.6l778.4,0l0,-0.8l-778.4,0l0,0.8Z" class="g2_1174" />
<path d="M71.4,1050l778.4,0l0,-0.8l-778.4,0l0,0.8Z" class="g2_1174" />
<path d="M71.4,1074.4l778.4,0l0,-0.7l-778.4,0l0,0.7Z" class="g2_1174" />
</svg>