<?xml version="1.0" encoding="UTF-8" standalone="no"?>
<!DOCTYPE svg PUBLIC "-//W3C//DTD SVG 1.1//EN"
"http://www.w3.org/Graphics/SVG/1.1/DTD/svg11.dtd">
<svg viewBox="0 0 935 1210" version="1.1" xmlns="http://www.w3.org/2000/svg" xmlns:xlink="http://www.w3.org/1999/xlink">
<defs>
<style type="text/css"><![CDATA[
.g1_920{
fill: #FFFFFF;
}
.g2_920{
}
]]></style>
</defs>
<path d="M165,1149.3l687.5,0l0,-21.2l-687.5,0l0,21.2Z" class="g1_920" />
<path d="M68.8,1149.3l82.5,0l0,-21.2l-82.5,0l0,21.2Z" class="g1_920" />
<path d="M67.3,291.4l0.7,0L68,125.7l-0.7,0l0,165.7Z" class="g2_920" />
<path d="M393.4,292.2l0.8,0l0,-167.3l-0.8,0l0,167.3Z" class="g2_920" />
<path d="M431.2,292.2l0.7,0l0,-167.3l-0.7,0l0,167.3Z" class="g2_920" />
<path d="M504.6,292.2l0.8,0l0,-167.3l-0.8,0l0,167.3Z" class="g2_920" />
<path d="M576,292.2l0.8,0l0,-167.3l-0.8,0l0,167.3Z" class="g2_920" />
<path d="M853.1,291.4l0.8,0l0,-165.7l-0.8,0l0,165.7Z" class="g2_920" />
<path d="M67.2,125.7l786.7,0l0,-0.8l-786.7,0l0,0.8Z" class="g2_920" />
<path d="M67.2,179.1l786.7,0l0,-0.7l-786.7,0l0,0.7Z" class="g2_920" />
<path d="M67.2,235.7l786.7,0l0,-0.8l-786.7,0l0,0.8Z" class="g2_920" />
<path d="M67.2,292.1l786.7,0l0,-0.7l-786.7,0l0,0.7Z" class="g2_920" />
<path d="M68.6,395.4l0.7,0l0,-48.2l-0.7,0l0,48.2Z" class="g2_920" />
<path d="M135.8,396.1l0.8,0l0,-49.7l-0.8,0l0,49.7Z" class="g2_920" />
<path d="M315.9,396.1l0.7,0l0,-49.7l-0.7,0l0,49.7Z" class="g2_920" />
<path d="M498.1,396.1l0.7,0l0,-49.7l-0.7,0l0,49.7Z" class="g2_920" />
<path d="M677.1,396.1l0.8,0l0,-49.7l-0.8,0l0,49.7Z" class="g2_920" />
<path d="M851.9,395.4l0.7,0l0,-48.2l-0.7,0l0,48.2Z" class="g2_920" />
<path d="M68.5,347.1l784.1,0l0,-0.7l-784.1,0l0,0.7Z" class="g2_920" />
<path d="M68.5,371.6l784.1,0l0,-0.7l-784.1,0l0,0.7Z" class="g2_920" />
<path d="M68.5,396.1l784.1,0l0,-0.7l-784.1,0l0,0.7Z" class="g2_920" />
<path d="M69.5,979l0.7,0l0,-90.9l-0.7,0l0,90.9Z" class="g2_920" />
<path d="M390,979.7l0.7,0l0,-92.4l-0.7,0l0,92.4Z" class="g2_920" />
<path d="M538.7,979.7l0.8,0l0,-92.4l-0.8,0l0,92.4Z" class="g2_920" />
<path d="M699.9,979.7l0.7,0l0,-92.4l-0.7,0l0,92.4Z" class="g2_920" />
<path d="M850.9,979l0.8,0l0,-90.9l-0.8,0l0,90.9Z" class="g2_920" />
<path d="M69.5,888.1l782.2,0l0,-0.8l-782.2,0l0,0.8Z" class="g2_920" />
<path d="M69.5,911l782.2,0l0,-0.8l-782.2,0l0,0.8Z" class="g2_920" />
<path d="M69.5,933.9l782.2,0l0,-0.7l-782.2,0l0,0.7Z" class="g2_920" />
<path d="M69.5,956.8l782.2,0l0,-0.7l-782.2,0l0,0.7Z" class="g2_920" />
<path d="M69.5,979.7l782.2,0l0,-0.7L69.5,979l0,0.7Z" class="g2_920" />
</svg>