<?xml version="1.0" encoding="UTF-8" standalone="no"?>
<!DOCTYPE svg PUBLIC "-//W3C//DTD SVG 1.1//EN"
"http://www.w3.org/Graphics/SVG/1.1/DTD/svg11.dtd">
<svg viewBox="0 0 935 1210" version="1.1" xmlns="http://www.w3.org/2000/svg" xmlns:xlink="http://www.w3.org/1999/xlink">
<defs>
<style type="text/css"><![CDATA[
.g1_1483{
fill: #FFFFFF;
}
.g2_1483{
}
]]></style>
</defs>
<path d="M68.9,1149.3l686.3,0l0,-21.2l-686.3,0l0,21.2Z" class="g1_1483" />
<path d="M771.3,1149.3l83.7,0l0,-21.2l-83.7,0l0,21.2Z" class="g1_1483" />
<path d="M70.1,227.2l0.8,0l0,-72.5l-0.8,0l0,72.5Z" class="g2_1483" />
<path d="M181.3,228.1l0.8,0l0,-74.2l-0.8,0l0,74.2Z" class="g2_1483" />
<path d="M340.6,228.1l0.8,0l0,-74.2l-0.8,0l0,74.2Z" class="g2_1483" />
<path d="M510.9,228.1l0.7,0l0,-74.2l-0.7,0l0,74.2Z" class="g2_1483" />
<path d="M685.3,228.1l0.7,0l0,-74.2l-0.7,0l0,74.2Z" class="g2_1483" />
<path d="M851.9,227.2l0.7,0l0,-72.5l-0.7,0l0,72.5Z" class="g2_1483" />
<path d="M70.1,154.6l782.5,0l0,-0.7l-782.5,0l0,0.7Z" class="g2_1483" />
<path d="M70.1,179.1l782.5,0l0,-0.7l-782.5,0l0,0.7Z" class="g2_1483" />
<path d="M70.1,203.6l782.5,0l0,-0.7l-782.5,0l0,0.7Z" class="g2_1483" />
<path d="M70.1,228l782.5,0l0,-0.8l-782.5,0l0,0.8Z" class="g2_1483" />
</svg>