<?xml version="1.0" encoding="UTF-8" standalone="no"?>
<!DOCTYPE svg PUBLIC "-//W3C//DTD SVG 1.1//EN"
"http://www.w3.org/Graphics/SVG/1.1/DTD/svg11.dtd">
<svg viewBox="0 0 935 1210" version="1.1" xmlns="http://www.w3.org/2000/svg" xmlns:xlink="http://www.w3.org/1999/xlink">
<defs>
<style type="text/css"><![CDATA[
.g1_759{
fill: #FFFFFF;
}
.g2_759{
}
]]></style>
</defs>
<path d="M68.9,1149.3l686.3,0l0,-21.2l-686.3,0l0,21.2Z" class="g1_759" />
<path d="M771.3,1149.3l83.7,0l0,-21.2l-83.7,0l0,21.2Z" class="g1_759" />
<path d="M71.5,557.2l0.7,0l0,-422.4l-0.7,0l0,422.4Z" class="g2_759" />
<path d="M220.6,558.1l0.7,0l0,-424l-0.7,0l0,424Z" class="g2_759" />
<path d="M389.6,558.1l0.7,0l0,-424l-0.7,0l0,424Z" class="g2_759" />
<path d="M427.4,558.1l0.8,0l0,-424l-0.8,0l0,424Z" class="g2_759" />
<path d="M500.9,558.1l0.7,0l0,-424l-0.7,0l0,424Z" class="g2_759" />
<path d="M572.2,558.1l0.7,0l0,-424l-0.7,0l0,424Z" class="g2_759" />
<path d="M850.5,557.2l0.7,0l0,-422.4l-0.7,0l0,422.4Z" class="g2_759" />
<path d="M71.5,134.8l779.8,0l0,-0.7l-779.8,0l0,0.7Z" class="g2_759" />
<path d="M71.5,173l779.8,0l0,-0.8l-779.8,0l0,0.8Z" class="g2_759" />
<path d="M71.5,229.5l779.8,0l0,-0.7l-779.8,0l0,0.7Z" class="g2_759" />
<path d="M71.5,286.1l779.8,0l0,-0.7l-779.8,0l0,0.7Z" class="g2_759" />
<path d="M71.5,342.6l779.8,0l0,-0.8l-779.8,0l0,0.8Z" class="g2_759" />
<path d="M71.5,365.5l779.8,0l0,-0.8l-779.8,0l0,0.8Z" class="g2_759" />
<path d="M71.5,422l779.8,0l0,-0.7l-779.8,0l0,0.7Z" class="g2_759" />
<path d="M71.5,478.6l779.8,0l0,-0.7l-779.8,0l0,0.7Z" class="g2_759" />
<path d="M71.5,535.2l779.8,0l0,-0.8l-779.8,0l0,0.8Z" class="g2_759" />
<path d="M71.5,558.1l779.8,0l0,-0.8l-779.8,0l0,0.8Z" class="g2_759" />
<path d="M71.6,658.1l0.7,0l0,-48.2l-0.7,0l0,48.2Z" class="g2_759" />
<path d="M139.9,658.9l0.7,0l0,-49.7l-0.7,0l0,49.7Z" class="g2_759" />
<path d="M310.2,658.9l0.7,0l0,-49.7l-0.7,0l0,49.7Z" class="g2_759" />
<path d="M488.6,658.9l0.7,0l0,-49.7l-0.7,0l0,49.7Z" class="g2_759" />
<path d="M669.8,658.9l0.7,0l0,-49.7l-0.7,0l0,49.7Z" class="g2_759" />
<path d="M850.4,658.1l0.7,0l0,-48.2l-0.7,0l0,48.2Z" class="g2_759" />
<path d="M71.6,609.9l779.5,0l0,-0.7l-779.5,0l0,0.7Z" class="g2_759" />
<path d="M71.6,634.4l779.5,0l0,-0.7l-779.5,0l0,0.7Z" class="g2_759" />
<path d="M71.6,658.9l779.5,0l0,-0.7l-779.5,0l0,0.7Z" class="g2_759" />
</svg>