<?xml version="1.0" encoding="UTF-8" standalone="no"?>
<!DOCTYPE svg PUBLIC "-//W3C//DTD SVG 1.1//EN"
"http://www.w3.org/Graphics/SVG/1.1/DTD/svg11.dtd">
<svg viewBox="0 0 935 1210" version="1.1" xmlns="http://www.w3.org/2000/svg" xmlns:xlink="http://www.w3.org/1999/xlink">
<defs>
<style type="text/css"><![CDATA[
.g1_489{
fill: #FFFFFF;
}
.g2_489{
}
]]></style>
</defs>
<path d="M68.9,1149.3l686.3,0l0,-21.2l-686.3,0l0,21.2Z" class="g1_489" />
<path d="M771.3,1149.3l83.7,0l0,-21.2l-83.7,0l0,21.2Z" class="g1_489" />
<path d="M69.9,329.6l0.8,0l0,-197.8l-0.8,0l0,197.8Z" class="g2_489" />
<path d="M211.4,330.4l0.7,0l0,-199.4l-0.7,0l0,199.4Z" class="g2_489" />
<path d="M349.2,330.4l0.7,0l0,-199.4l-0.7,0l0,199.4Z" class="g2_489" />
<path d="M409,330.4l0.8,0l0,-199.4l-0.8,0l0,199.4Z" class="g2_489" />
<path d="M503.3,330.4l0.8,0l0,-199.4l-0.8,0l0,199.4Z" class="g2_489" />
<path d="M852,329.6l0.8,0l0,-197.8l-0.8,0l0,197.8Z" class="g2_489" />
<path d="M69.9,131.7l782.9,0l0,-0.7L69.9,131l0,0.7Z" class="g2_489" />
<path d="M69.9,169.9l782.9,0l0,-0.7l-782.9,0l0,0.7Z" class="g2_489" />
<path d="M69.9,192.9l782.9,0l0,-0.8l-782.9,0l0,0.8Z" class="g2_489" />
<path d="M69.9,215.8l782.9,0l0,-0.8L69.9,215l0,0.8Z" class="g2_489" />
<path d="M69.9,238.7l782.9,0l0,-0.7L69.9,238l0,0.7Z" class="g2_489" />
<path d="M69.9,261.6l782.9,0l0,-0.7l-782.9,0l0,0.7Z" class="g2_489" />
<path d="M69.9,284.5l782.9,0l0,-0.7l-782.9,0l0,0.7Z" class="g2_489" />
<path d="M69.9,307.4l782.9,0l0,-0.7l-782.9,0l0,0.7Z" class="g2_489" />
<path d="M69.9,330.4l782.9,0l0,-0.8l-782.9,0l0,0.8Z" class="g2_489" />
</svg>