<?xml version="1.0" encoding="UTF-8" standalone="no"?>
<!DOCTYPE svg PUBLIC "-//W3C//DTD SVG 1.1//EN"
"http://www.w3.org/Graphics/SVG/1.1/DTD/svg11.dtd">
<svg viewBox="0 0 935 1210" version="1.1" xmlns="http://www.w3.org/2000/svg" xmlns:xlink="http://www.w3.org/1999/xlink">
<defs>
<style type="text/css"><![CDATA[
.g1_1447{
fill: #FFFFFF;
}
.g2_1447{
}
]]></style>
</defs>
<path d="M68.9,1149.3l686.3,0l0,-21.2l-686.3,0l0,21.2Z" class="g1_1447" />
<path d="M771.3,1149.3l83.7,0l0,-21.2l-83.7,0l0,21.2Z" class="g1_1447" />
<path d="M69.9,285.4l0.8,0l0,-159.7l-0.8,0l0,159.7Z" class="g2_1447" />
<path d="M327.3,286.1l0.8,0l0,-161.2l-0.8,0l0,161.2Z" class="g2_1447" />
<path d="M370.9,286.1l0.7,0l0,-161.2l-0.7,0l0,161.2Z" class="g2_1447" />
<path d="M443.4,286.1l0.7,0l0,-161.2l-0.7,0l0,161.2Z" class="g2_1447" />
<path d="M528.3,286.1l0.7,0l0,-161.2l-0.7,0l0,161.2Z" class="g2_1447" />
<path d="M854.6,285.4l0.7,0l0,-159.7l-0.7,0l0,159.7Z" class="g2_1447" />
<path d="M69.9,125.7l785.4,0l0,-0.8l-785.4,0l0,0.8Z" class="g2_1447" />
<path d="M69.9,176.1l785.4,0l0,-0.7l-785.4,0l0,0.7Z" class="g2_1447" />
<path d="M69.9,212.8l785.4,0l0,-0.8L69.9,212l0,0.8Z" class="g2_1447" />
<path d="M69.9,249.4l785.4,0l0,-0.7l-785.4,0l0,0.7Z" class="g2_1447" />
<path d="M69.9,286.1l785.4,0l0,-0.7l-785.4,0l0,0.7Z" class="g2_1447" />
<path d="M70.7,390.8l0.7,0l0,-48.1l-0.7,0l0,48.1Z" class="g2_1447" />
<path d="M184.3,391.5l0.8,0l0,-49.7l-0.8,0l0,49.7Z" class="g2_1447" />
<path d="M350.9,391.5l0.7,0l0,-49.7l-0.7,0l0,49.7Z" class="g2_1447" />
<path d="M521.8,391.5l0.7,0l0,-49.7l-0.7,0l0,49.7Z" class="g2_1447" />
<path d="M687,391.5l0.8,0l0,-49.7l-0.8,0l0,49.7Z" class="g2_1447" />
<path d="M851.3,390.8l0.7,0l0,-48.1l-0.7,0l0,48.1Z" class="g2_1447" />
<path d="M70.7,342.6l781.3,0l0,-0.8l-781.3,0l0,0.8Z" class="g2_1447" />
<path d="M70.7,367L852,367l0,-0.7l-781.3,0l0,0.7Z" class="g2_1447" />
<path d="M70.7,391.5l781.3,0l0,-0.7l-781.3,0l0,0.7Z" class="g2_1447" />
</svg>