<?xml version="1.0" encoding="UTF-8" standalone="no"?>
<!DOCTYPE svg PUBLIC "-//W3C//DTD SVG 1.1//EN"
"http://www.w3.org/Graphics/SVG/1.1/DTD/svg11.dtd">
<svg viewBox="0 0 935 1210" version="1.1" xmlns="http://www.w3.org/2000/svg" xmlns:xlink="http://www.w3.org/1999/xlink">
<defs>
<style type="text/css"><![CDATA[
.g1_1299{
fill: #FFFFFF;
}
.g2_1299{
}
]]></style>
</defs>
<path d="M68.9,1149.3l686.3,0l0,-21.2l-686.3,0l0,21.2Z" class="g1_1299" />
<path d="M771.3,1149.3l83.7,0l0,-21.2l-83.7,0l0,21.2Z" class="g1_1299" />
<path d="M71.5,267l0.7,0l0,-141.3l-0.7,0l0,141.3Z" class="g2_1299" />
<path d="M391.9,267.8l0.7,0l0,-142.9l-0.7,0l0,142.9Z" class="g2_1299" />
<path d="M429.7,267.8l0.8,0l0,-142.9l-0.8,0l0,142.9Z" class="g2_1299" />
<path d="M503.2,267.8l0.7,0l0,-142.9l-0.7,0l0,142.9Z" class="g2_1299" />
<path d="M574.5,267.8l0.7,0l0,-142.9l-0.7,0l0,142.9Z" class="g2_1299" />
<path d="M850.5,267l0.7,0l0,-141.3l-0.7,0l0,141.3Z" class="g2_1299" />
<path d="M71.5,125.7l779.8,0l0,-0.8l-779.8,0l0,0.8Z" class="g2_1299" />
<path d="M71.5,179.1l779.8,0l0,-0.7l-779.8,0l0,0.7Z" class="g2_1299" />
<path d="M71.5,223.4l779.8,0l0,-0.7l-779.8,0l0,0.7Z" class="g2_1299" />
<path d="M71.5,267.8l779.8,0l0,-0.8L71.5,267l0,0.8Z" class="g2_1299" />
<path d="M71.6,370.9l0.7,0l0,-48.1l-0.7,0l0,48.1Z" class="g2_1299" />
<path d="M136.5,371.6l0.7,0l0,-49.6l-0.7,0l0,49.6Z" class="g2_1299" />
<path d="M315.2,371.6l0.7,0l0,-49.6l-0.7,0l0,49.6Z" class="g2_1299" />
<path d="M487.7,371.6l0.7,0l0,-49.6l-0.7,0l0,49.6Z" class="g2_1299" />
<path d="M667.6,371.6l0.7,0l0,-49.6l-0.7,0l0,49.6Z" class="g2_1299" />
<path d="M850.4,370.9l0.7,0l0,-48.1l-0.7,0l0,48.1Z" class="g2_1299" />
<path d="M71.6,322.8l779.5,0l0,-0.8L71.6,322l0,0.8Z" class="g2_1299" />
<path d="M71.6,347.1l779.5,0l0,-0.7l-779.5,0l0,0.7Z" class="g2_1299" />
<path d="M71.6,371.6l779.5,0l0,-0.7l-779.5,0l0,0.7Z" class="g2_1299" />
</svg>