<?xml version="1.0" encoding="UTF-8" standalone="no"?>
<!DOCTYPE svg PUBLIC "-//W3C//DTD SVG 1.1//EN"
"http://www.w3.org/Graphics/SVG/1.1/DTD/svg11.dtd">
<svg viewBox="0 0 935 1210" version="1.1" xmlns="http://www.w3.org/2000/svg" xmlns:xlink="http://www.w3.org/1999/xlink">
<defs>
<style type="text/css"><![CDATA[
.g1_1698{
fill: #FFFFFF;
}
.g2_1698{
}
]]></style>
</defs>
<path d="M165,1149.3l687.5,0l0,-21.2l-687.5,0l0,21.2Z" class="g1_1698" />
<path d="M68.8,1149.3l82.5,0l0,-21.2l-82.5,0l0,21.2Z" class="g1_1698" />
<path d="M68.6,597l0.7,0l0,-471.3l-0.7,0l0,471.3Z" class="g2_1698" />
<path d="M298,597.8l0.7,0l0,-472.9l-0.7,0l0,472.9Z" class="g2_1698" />
<path d="M339.5,597.8l0.8,0l0,-472.9l-0.8,0l0,472.9Z" class="g2_1698" />
<path d="M411.2,597.8l0.7,0l0,-472.9l-0.7,0l0,472.9Z" class="g2_1698" />
<path d="M495.4,597.8l0.7,0l0,-472.9l-0.7,0l0,472.9Z" class="g2_1698" />
<path d="M852.2,597l0.8,0l0,-471.3l-0.8,0l0,471.3Z" class="g2_1698" />
<path d="M68.6,125.7l784.4,0l0,-0.8l-784.4,0l0,0.8Z" class="g2_1698" />
<path d="M68.6,176.1l784.4,0l0,-0.7l-784.4,0l0,0.7Z" class="g2_1698" />
<path d="M68.6,246.3l784.4,0l0,-0.7l-784.4,0l0,0.7Z" class="g2_1698" />
<path d="M68.6,316.6l784.4,0l0,-0.7l-784.4,0l0,0.7Z" class="g2_1698" />
<path d="M68.6,386.9l784.4,0l0,-0.7l-784.4,0l0,0.7Z" class="g2_1698" />
<path d="M68.6,457.2l784.4,0l0,-0.7l-784.4,0l0,0.7Z" class="g2_1698" />
<path d="M68.6,527.4l784.4,0l0,-0.7l-784.4,0l0,0.7Z" class="g2_1698" />
<path d="M68.6,597.8l784.4,0l0,-0.8L68.6,597l0,0.8Z" class="g2_1698" />
<path d="M70.3,700.9l0.7,0l0,-48.1l-0.7,0l0,48.1Z" class="g2_1698" />
<path d="M183.8,701.6l0.7,0l0,-49.6l-0.7,0l0,49.6Z" class="g2_1698" />
<path d="M345.9,701.6l0.7,0l0,-49.6l-0.7,0l0,49.6Z" class="g2_1698" />
<path d="M517.2,701.6l0.7,0l0,-49.6l-0.7,0l0,49.6Z" class="g2_1698" />
<path d="M685.2,701.6l0.7,0l0,-49.6l-0.7,0l0,49.6Z" class="g2_1698" />
<path d="M850.1,700.9l0.7,0l0,-48.1l-0.7,0l0,48.1Z" class="g2_1698" />
<path d="M70.3,652.8l780.5,0l0,-0.8L70.3,652l0,0.8Z" class="g2_1698" />
<path d="M70.3,677.2l780.5,0l0,-0.7l-780.5,0l0,0.7Z" class="g2_1698" />
<path d="M70.3,701.6l780.5,0l0,-0.7l-780.5,0l0,0.7Z" class="g2_1698" />
</svg>