<?xml version="1.0" encoding="UTF-8" standalone="no"?>
<!DOCTYPE svg PUBLIC "-//W3C//DTD SVG 1.1//EN"
"http://www.w3.org/Graphics/SVG/1.1/DTD/svg11.dtd">
<svg viewBox="0 0 935 1210" version="1.1" xmlns="http://www.w3.org/2000/svg" xmlns:xlink="http://www.w3.org/1999/xlink">
<defs>
<style type="text/css"><![CDATA[
.g1_1201{
fill: #FFFFFF;
}
.g2_1201{
}
]]></style>
</defs>
<path d="M68.9,1149.3l686.3,0l0,-21.2l-686.3,0l0,21.2Z" class="g1_1201" />
<path d="M771.3,1149.3l83.7,0l0,-21.2l-83.7,0l0,21.2Z" class="g1_1201" />
<path d="M70.9,1099.6l0.7,0l0,-967.8l-0.7,0l0,967.8Z" class="g2_1201" />
<path d="M221,1100.5l0.7,0l0,-969.5l-0.7,0l0,969.5Z" class="g2_1201" />
<path d="M391.3,1100.5l0.8,0l0,-969.5l-0.8,0l0,969.5Z" class="g2_1201" />
<path d="M429.2,1100.5l0.7,0l0,-969.5l-0.7,0l0,969.5Z" class="g2_1201" />
<path d="M502.5,1100.5l0.7,0l0,-969.5l-0.7,0l0,969.5Z" class="g2_1201" />
<path d="M573.9,1100.5l0.8,0l0,-969.5l-0.8,0l0,969.5Z" class="g2_1201" />
<path d="M851.1,1099.6l0.8,0l0,-967.8l-0.8,0l0,967.8Z" class="g2_1201" />
<path d="M70.9,131.7l781,0l0,-0.7l-781,0l0,0.7Z" class="g2_1201" />
<path d="M70.9,169.9l781,0l0,-0.7l-781,0l0,0.7Z" class="g2_1201" />
<path d="M70.9,192.9l781,0l0,-0.8l-781,0l0,0.8Z" class="g2_1201" />
<path d="M70.9,215.8l781,0l0,-0.8l-781,0l0,0.8Z" class="g2_1201" />
<path d="M70.9,238.7l781,0l0,-0.7l-781,0l0,0.7Z" class="g2_1201" />
<path d="M70.9,278.4l781,0l0,-0.7l-781,0l0,0.7Z" class="g2_1201" />
<path d="M70.9,301.3l781,0l0,-0.7l-781,0l0,0.7Z" class="g2_1201" />
<path d="M70.9,324.2l781,0l0,-0.7l-781,0l0,0.7Z" class="g2_1201" />
<path d="M70.9,347.1l781,0l0,-0.7l-781,0l0,0.7Z" class="g2_1201" />
<path d="M70.9,370.1l781,0l0,-0.8l-781,0l0,0.8Z" class="g2_1201" />
<path d="M70.9,409.8l781,0l0,-0.7l-781,0l0,0.7Z" class="g2_1201" />
<path d="M70.9,432.8l781,0l0,-0.8l-781,0l0,0.8Z" class="g2_1201" />
<path d="M70.9,455.7l781,0l0,-0.8l-781,0l0,0.8Z" class="g2_1201" />
<path d="M70.9,478.6l781,0l0,-0.7l-781,0l0,0.7Z" class="g2_1201" />
<path d="M70.9,501.5l781,0l0,-0.7l-781,0l0,0.7Z" class="g2_1201" />
<path d="M70.9,541.2l781,0l0,-0.7l-781,0l0,0.7Z" class="g2_1201" />
<path d="M70.9,564.1l781,0l0,-0.7l-781,0l0,0.7Z" class="g2_1201" />
<path d="M70.9,587l781,0l0,-0.7l-781,0l0,0.7Z" class="g2_1201" />
<path d="M70.9,609.9l781,0l0,-0.7l-781,0l0,0.7Z" class="g2_1201" />
<path d="M70.9,632.9l781,0l0,-0.8l-781,0l0,0.8Z" class="g2_1201" />
<path d="M70.9,672.7l781,0l0,-0.8l-781,0l0,0.8Z" class="g2_1201" />
<path d="M70.9,695.6l781,0l0,-0.8l-781,0l0,0.8Z" class="g2_1201" />
<path d="M70.9,718.5l781,0l0,-0.7l-781,0l0,0.7Z" class="g2_1201" />
<path d="M70.9,741.4l781,0l0,-0.7l-781,0l0,0.7Z" class="g2_1201" />
<path d="M70.9,764.3l781,0l0,-0.7l-781,0l0,0.7Z" class="g2_1201" />
<path d="M70.9,787.2l781,0l0,-0.7l-781,0l0,0.7Z" class="g2_1201" />
<path d="M70.9,810.2l781,0l0,-0.8l-781,0l0,0.8Z" class="g2_1201" />
<path d="M70.9,849.8l781,0l0,-0.7l-781,0l0,0.7Z" class="g2_1201" />
<path d="M70.9,872.8l781,0l0,-0.8l-781,0l0,0.8Z" class="g2_1201" />
<path d="M70.9,912.5l781,0l0,-0.8l-781,0l0,0.8Z" class="g2_1201" />
<path d="M70.9,952.2l781,0l0,-0.7l-781,0l0,0.7Z" class="g2_1201" />
<path d="M70.9,991.9l781,0l0,-0.7l-781,0l0,0.7Z" class="g2_1201" />
<path d="M70.9,1014.8l781,0l0,-0.7l-781,0l0,0.7Z" class="g2_1201" />
<path d="M70.9,1037.8l781,0l0,-0.8l-781,0l0,0.8Z" class="g2_1201" />
<path d="M70.9,1060.7l781,0l0,-0.8l-781,0l0,0.8Z" class="g2_1201" />
<path d="M70.9,1100.4l781,0l0,-0.8l-781,0l0,0.8Z" class="g2_1201" />
</svg>