<?xml version="1.0" encoding="UTF-8" standalone="no"?>
<!DOCTYPE svg PUBLIC "-//W3C//DTD SVG 1.1//EN"
"http://www.w3.org/Graphics/SVG/1.1/DTD/svg11.dtd">
<svg viewBox="0 0 935 1210" version="1.1" xmlns="http://www.w3.org/2000/svg" xmlns:xlink="http://www.w3.org/1999/xlink">
<defs>
<style type="text/css"><![CDATA[
.g1_500{
fill: #FFFFFF;
}
.g2_500{
}
]]></style>
</defs>
<path d="M165,1149.3l687.5,0l0,-21.2l-687.5,0l0,21.2Z" class="g1_500" />
<path d="M68.8,1149.3l82.5,0l0,-21.2l-82.5,0l0,21.2Z" class="g1_500" />
<path d="M71,386.2l0.8,0l0,-254.4l-0.8,0l0,254.4Z" class="g2_500" />
<path d="M187.2,386.9l0.7,0l0,-255.9l-0.7,0l0,255.9Z" class="g2_500" />
<path d="M379.1,386.9l0.8,0l0,-255.9l-0.8,0l0,255.9Z" class="g2_500" />
<path d="M447,386.9l0.7,0l0,-255.9l-0.7,0l0,255.9Z" class="g2_500" />
<path d="M534.7,386.9l0.7,0l0,-255.9l-0.7,0l0,255.9Z" class="g2_500" />
<path d="M849.3,386.2l0.7,0l0,-254.4l-0.7,0l0,254.4Z" class="g2_500" />
<path d="M71,131.7l779,0l0,-0.7L71,131l0,0.7Z" class="g2_500" />
<path d="M71,169.9l779,0l0,-0.7l-779,0l0,0.7Z" class="g2_500" />
<path d="M71,192.9l779,0l0,-0.8l-779,0l0,0.8Z" class="g2_500" />
<path d="M71,215.8l779,0l0,-0.8L71,215l0,0.8Z" class="g2_500" />
<path d="M71,238.7l779,0l0,-0.7L71,238l0,0.7Z" class="g2_500" />
<path d="M71,261.6l779,0l0,-0.7l-779,0l0,0.7Z" class="g2_500" />
<path d="M71,301.3l779,0l0,-0.7l-779,0l0,0.7Z" class="g2_500" />
<path d="M71,341.1l779,0l0,-0.7l-779,0l0,0.7Z" class="g2_500" />
<path d="M71,364l779,0l0,-0.7l-779,0l0,0.7Z" class="g2_500" />
<path d="M71,386.9l779,0l0,-0.7l-779,0l0,0.7Z" class="g2_500" />
</svg>