<?xml version="1.0" encoding="UTF-8" standalone="no"?>
<!DOCTYPE svg PUBLIC "-//W3C//DTD SVG 1.1//EN"
"http://www.w3.org/Graphics/SVG/1.1/DTD/svg11.dtd">
<svg viewBox="0 0 935 1210" version="1.1" xmlns="http://www.w3.org/2000/svg" xmlns:xlink="http://www.w3.org/1999/xlink">
<defs>
<style type="text/css"><![CDATA[
.g1_1340{
fill: #FFFFFF;
}
.g2_1340{
}
]]></style>
</defs>
<path d="M165,1149.3l687.5,0l0,-21.2l-687.5,0l0,21.2Z" class="g1_1340" />
<path d="M68.8,1149.3l82.5,0l0,-21.2l-82.5,0l0,21.2Z" class="g1_1340" />
<path d="M68.6,496.2l0.7,0l0,-370.5l-0.7,0l0,370.5Z" class="g2_1340" />
<path d="M304.7,496.9l0.7,0l0,-372l-0.7,0l0,372Z" class="g2_1340" />
<path d="M351.3,496.9l0.7,0l0,-372l-0.7,0l0,372Z" class="g2_1340" />
<path d="M425.7,496.9l0.7,0l0,-372l-0.7,0l0,372Z" class="g2_1340" />
<path d="M512.7,496.9l0.7,0l0,-372l-0.7,0l0,372Z" class="g2_1340" />
<path d="M851.2,496.2l0.7,0l0,-370.5l-0.7,0l0,370.5Z" class="g2_1340" />
<path d="M68.6,125.7l783.4,0l0,-0.8l-783.4,0l0,0.8Z" class="g2_1340" />
<path d="M68.6,176.1l783.4,0l0,-0.7l-783.4,0l0,0.7Z" class="g2_1340" />
<path d="M68.6,229.5l783.4,0l0,-0.7l-783.4,0l0,0.7Z" class="g2_1340" />
<path d="M68.6,283L852,283l0,-0.8l-783.4,0l0,0.8Z" class="g2_1340" />
<path d="M68.6,336.5l783.4,0l0,-0.7l-783.4,0l0,0.7Z" class="g2_1340" />
<path d="M68.6,389.9l783.4,0l0,-0.7l-783.4,0l0,0.7Z" class="g2_1340" />
<path d="M68.6,443.5l783.4,0l0,-0.8l-783.4,0l0,0.8Z" class="g2_1340" />
<path d="M68.6,496.9l783.4,0l0,-0.7l-783.4,0l0,0.7Z" class="g2_1340" />
<path d="M70,648.9l0.8,0l0,-97l-0.8,0l0,97Z" class="g2_1340" />
<path d="M175.7,649.7l0.8,0l0,-98.5l-0.8,0l0,98.5Z" class="g2_1340" />
<path d="M340.5,649.7l0.8,0l0,-98.5l-0.8,0l0,98.5Z" class="g2_1340" />
<path d="M506.9,649.7l0.7,0l0,-98.5l-0.7,0l0,98.5Z" class="g2_1340" />
<path d="M674.5,649.7l0.7,0l0,-98.5l-0.7,0l0,98.5Z" class="g2_1340" />
<path d="M850.4,648.9l0.7,0l0,-97l-0.7,0l0,97Z" class="g2_1340" />
<path d="M70,551.9l781.1,0l0,-0.7L70,551.2l0,0.7Z" class="g2_1340" />
<path d="M70,576.4l781.1,0l0,-0.7L70,575.7l0,0.7Z" class="g2_1340" />
<path d="M70,600.8l781.1,0l0,-0.7L70,600.1l0,0.7Z" class="g2_1340" />
<path d="M70,625.3l781.1,0l0,-0.8L70,624.5l0,0.8Z" class="g2_1340" />
<path d="M70,649.7l781.1,0l0,-0.7L70,649l0,0.7Z" class="g2_1340" />
</svg>