<?xml version="1.0" encoding="UTF-8" standalone="no"?>
<!DOCTYPE svg PUBLIC "-//W3C//DTD SVG 1.1//EN"
"http://www.w3.org/Graphics/SVG/1.1/DTD/svg11.dtd">
<svg viewBox="0 0 935 1210" version="1.1" xmlns="http://www.w3.org/2000/svg" xmlns:xlink="http://www.w3.org/1999/xlink">
<defs>
<style type="text/css"><![CDATA[
.g1_1306{
fill: #FFFFFF;
}
.g2_1306{
}
]]></style>
</defs>
<path d="M165,1149.3l687.5,0l0,-21.2l-687.5,0l0,21.2Z" class="g1_1306" />
<path d="M68.8,1149.3l82.5,0l0,-21.2l-82.5,0l0,21.2Z" class="g1_1306" />
<path d="M68.9,707l0.8,0l0,-575.2l-0.8,0l0,575.2Z" class="g2_1306" />
<path d="M219.6,707.8l0.8,0l0,-576.8l-0.8,0l0,576.8Z" class="g2_1306" />
<path d="M390.5,707.8l0.7,0l0,-576.8l-0.7,0l0,576.8Z" class="g2_1306" />
<path d="M428.4,707.8l0.7,0l0,-576.8l-0.7,0l0,576.8Z" class="g2_1306" />
<path d="M501.8,707.8l0.7,0l0,-576.8l-0.7,0l0,576.8Z" class="g2_1306" />
<path d="M573.1,707.8l0.7,0l0,-576.8l-0.7,0l0,576.8Z" class="g2_1306" />
<path d="M851.4,707l0.7,0l0,-575.2l-0.7,0l0,575.2Z" class="g2_1306" />
<path d="M68.9,131.7l783.3,0l0,-0.7L68.9,131l0,0.7Z" class="g2_1306" />
<path d="M68.9,169.9l783.3,0l0,-0.7l-783.3,0l0,0.7Z" class="g2_1306" />
<path d="M68.9,192.9l783.3,0l0,-0.8l-783.3,0l0,0.8Z" class="g2_1306" />
<path d="M68.9,215.8l783.3,0l0,-0.8L68.9,215l0,0.8Z" class="g2_1306" />
<path d="M68.9,238.7l783.3,0l0,-0.7L68.9,238l0,0.7Z" class="g2_1306" />
<path d="M68.9,278.4l783.3,0l0,-0.7l-783.3,0l0,0.7Z" class="g2_1306" />
<path d="M68.9,301.3l783.3,0l0,-0.7l-783.3,0l0,0.7Z" class="g2_1306" />
<path d="M68.9,324.2l783.3,0l0,-0.7l-783.3,0l0,0.7Z" class="g2_1306" />
<path d="M68.9,347.1l783.3,0l0,-0.7l-783.3,0l0,0.7Z" class="g2_1306" />
<path d="M68.9,370.1l783.3,0l0,-0.8l-783.3,0l0,0.8Z" class="g2_1306" />
<path d="M68.9,409.8l783.3,0l0,-0.7l-783.3,0l0,0.7Z" class="g2_1306" />
<path d="M68.9,432.8l783.3,0l0,-0.8L68.9,432l0,0.8Z" class="g2_1306" />
<path d="M68.9,455.7l783.3,0l0,-0.8l-783.3,0l0,0.8Z" class="g2_1306" />
<path d="M68.9,478.6l783.3,0l0,-0.7l-783.3,0l0,0.7Z" class="g2_1306" />
<path d="M68.9,501.5l783.3,0l0,-0.7l-783.3,0l0,0.7Z" class="g2_1306" />
<path d="M68.9,524.4l783.3,0l0,-0.7l-783.3,0l0,0.7Z" class="g2_1306" />
<path d="M68.9,547.3l783.3,0l0,-0.7l-783.3,0l0,0.7Z" class="g2_1306" />
<path d="M68.9,570.3l783.3,0l0,-0.8l-783.3,0l0,0.8Z" class="g2_1306" />
<path d="M68.9,593.2l783.3,0l0,-0.8l-783.3,0l0,0.8Z" class="g2_1306" />
<path d="M68.9,616.1l783.3,0l0,-0.7l-783.3,0l0,0.7Z" class="g2_1306" />
<path d="M68.9,639l783.3,0l0,-0.7l-783.3,0l0,0.7Z" class="g2_1306" />
<path d="M68.9,661.9l783.3,0l0,-0.7l-783.3,0l0,0.7Z" class="g2_1306" />
<path d="M68.9,684.8l783.3,0l0,-0.7l-783.3,0l0,0.7Z" class="g2_1306" />
<path d="M68.9,707.8l783.3,0l0,-0.8L68.9,707l0,0.8Z" class="g2_1306" />
<path d="M70.2,924l0.8,0L71,802.5l-0.8,0l0,121.5Z" class="g2_1306" />
<path d="M135.2,924.7l0.7,0l0,-123l-0.7,0l0,123Z" class="g2_1306" />
<path d="M310.7,924.7l0.7,0l0,-123l-0.7,0l0,123Z" class="g2_1306" />
<path d="M496.1,924.7l0.7,0l0,-123l-0.7,0l0,123Z" class="g2_1306" />
<path d="M667.1,924.7l0.8,0l0,-123l-0.8,0l0,123Z" class="g2_1306" />
<path d="M850.1,924l0.7,0l0,-121.5l-0.7,0l0,121.5Z" class="g2_1306" />
<path d="M70.2,802.4l780.7,0l0,-0.7l-780.7,0l0,0.7Z" class="g2_1306" />
<path d="M70.2,826.9l780.7,0l0,-0.7l-780.7,0l0,0.7Z" class="g2_1306" />
<path d="M70.2,851.4l780.7,0l0,-0.7l-780.7,0l0,0.7Z" class="g2_1306" />
<path d="M70.2,875.8l780.7,0l0,-0.7l-780.7,0l0,0.7Z" class="g2_1306" />
<path d="M70.2,900.3l780.7,0l0,-0.8l-780.7,0l0,0.8Z" class="g2_1306" />
<path d="M70.2,924.7l780.7,0l0,-0.7L70.2,924l0,0.7Z" class="g2_1306" />
</svg>