<?xml version="1.0" encoding="UTF-8" standalone="no"?>
<!DOCTYPE svg PUBLIC "-//W3C//DTD SVG 1.1//EN"
"http://www.w3.org/Graphics/SVG/1.1/DTD/svg11.dtd">
<svg viewBox="0 0 935 1210" version="1.1" xmlns="http://www.w3.org/2000/svg" xmlns:xlink="http://www.w3.org/1999/xlink">
<defs>
<style type="text/css"><![CDATA[
.g1_2030{
fill: #FFFFFF;
}
.g2_2030{
fill: #E6E6E6;
}
.g3_2030{
}
]]></style>
</defs>
<path d="M68.8,1149l784.5,0l0,-21.4l-784.5,0l0,21.4Z" class="g1_2030" />
<path d="M761.5,515.6l88.3,0l0,-40.4l-88.3,0l0,40.4Z" class="g2_2030" />
<path d="M673.2,772.3l88.3,0l0,-17.5l-88.3,0l0,17.5Z" class="g2_2030" />
<path d="M761.5,772.3l88.3,0l0,-17.5l-88.3,0l0,17.5Z" class="g2_2030" />
<path d="M673.2,789.9l88.3,0l0,-17.6l-88.3,0l0,17.6Z" class="g2_2030" />
<path d="M761.5,789.9l88.3,0l0,-17.6l-88.3,0l0,17.6Z" class="g2_2030" />
<path d="M70.2,788.7l2.3,0l0,-656.1l-2.3,0l0,656.1Z" class="g3_2030" />
<path d="M142.1,791l2.3,0l0,-660.7l-2.3,0l0,660.7Z" class="g3_2030" />
<path d="M231.2,150.2l0.7,0l0,-19.9l-0.7,0l0,19.9Z" class="g3_2030" />
<path d="M231.2,189.8l0.7,0l0,-23.2l-0.7,0l0,23.2Z" class="g3_2030" />
<path d="M231.2,224.9l0.7,0l0,-17.9l-0.7,0l0,17.9Z" class="g3_2030" />
<path d="M231.2,260.2l0.7,0l0,-18l-0.7,0l0,18Z" class="g3_2030" />
<path d="M231.2,295.3l0.7,0l0,-18l-0.7,0l0,18Z" class="g3_2030" />
<path d="M231.2,341.8l0.7,0l0,-29.4l-0.7,0l0,29.4Z" class="g3_2030" />
<path d="M231.2,428.9l0.7,0l0,-69.8l-0.7,0l0,69.8Z" class="g3_2030" />
<path d="M231.2,475.6l0.7,0l0,-29.5l-0.7,0l0,29.5Z" class="g3_2030" />
<path d="M231.2,556.5l0.7,0l0,-63.8l-0.7,0l0,63.8Z" class="g3_2030" />
<path d="M231.2,591.6l0.7,0l0,-17.9l-0.7,0l0,17.9Z" class="g3_2030" />
<path d="M231.2,661.9l0.7,0l0,-53l-0.7,0l0,53Z" class="g3_2030" />
<path d="M231.2,791l0.7,0l0,-111.8l-0.7,0l0,111.8Z" class="g3_2030" />
<path d="M319.5,150.2l0.7,0l0,-19.9l-0.7,0l0,19.9Z" class="g3_2030" />
<path d="M319.5,189.8l0.7,0l0,-23.2l-0.7,0l0,23.2Z" class="g3_2030" />
<path d="M319.5,224.9l0.7,0l0,-17.9l-0.7,0l0,17.9Z" class="g3_2030" />
<path d="M319.5,260.2l0.7,0l0,-18l-0.7,0l0,18Z" class="g3_2030" />
<path d="M319.5,295.3l0.7,0l0,-18l-0.7,0l0,18Z" class="g3_2030" />
<path d="M319.5,341.8l0.7,0l0,-29.4l-0.7,0l0,29.4Z" class="g3_2030" />
<path d="M319.5,428.9l0.7,0l0,-69.8l-0.7,0l0,69.8Z" class="g3_2030" />
<path d="M319.5,475.6l0.7,0l0,-29.5l-0.7,0l0,29.5Z" class="g3_2030" />
<path d="M319.5,591.6l0.7,0l0,-98.9l-0.7,0l0,98.9Z" class="g3_2030" />
<path d="M319.5,661.9l0.7,0l0,-53l-0.7,0l0,53Z" class="g3_2030" />
<path d="M319.5,708.5l0.7,0l0,-29.3l-0.7,0l0,29.3Z" class="g3_2030" />
<path d="M319.5,791l0.7,0l0,-65.3l-0.7,0l0,65.3Z" class="g3_2030" />
<path d="M407.8,150.2l0.8,0l0,-19.9l-0.8,0l0,19.9Z" class="g3_2030" />
<path d="M407.8,189.8l0.8,0l0,-23.2l-0.8,0l0,23.2Z" class="g3_2030" />
<path d="M407.8,224.9l0.8,0l0,-17.9l-0.8,0l0,17.9Z" class="g3_2030" />
<path d="M407.8,260.2l0.8,0l0,-18l-0.8,0l0,18Z" class="g3_2030" />
<path d="M407.8,295.3l0.8,0l0,-18l-0.8,0l0,18Z" class="g3_2030" />
<path d="M407.8,341.8l0.8,0l0,-29.4l-0.8,0l0,29.4Z" class="g3_2030" />
<path d="M407.8,428.9l0.8,0l0,-69.8l-0.8,0l0,69.8Z" class="g3_2030" />
<path d="M407.8,475.6l0.8,0l0,-29.5l-0.8,0l0,29.5Z" class="g3_2030" />
<path d="M407.8,591.6l0.8,0l0,-98.9l-0.8,0l0,98.9Z" class="g3_2030" />
<path d="M407.8,661.9l0.8,0l0,-53l-0.8,0l0,53Z" class="g3_2030" />
<path d="M407.8,708.5l0.8,0l0,-29.3l-0.8,0l0,29.3Z" class="g3_2030" />
<path d="M407.8,791l0.8,0l0,-65.3l-0.8,0l0,65.3Z" class="g3_2030" />
<path d="M496.1,150.2l0.7,0l0,-19.9l-0.7,0l0,19.9Z" class="g3_2030" />
<path d="M496.1,189.8l0.7,0l0,-23.2l-0.7,0l0,23.2Z" class="g3_2030" />
<path d="M496.1,224.9l0.7,0l0,-17.9l-0.7,0l0,17.9Z" class="g3_2030" />
<path d="M496.1,260.2l0.7,0l0,-18l-0.7,0l0,18Z" class="g3_2030" />
<path d="M496.1,295.3l0.7,0l0,-18l-0.7,0l0,18Z" class="g3_2030" />
<path d="M496.1,341.8l0.7,0l0,-29.4l-0.7,0l0,29.4Z" class="g3_2030" />
<path d="M496.1,428.9l0.7,0l0,-69.8l-0.7,0l0,69.8Z" class="g3_2030" />
<path d="M496.1,591.6l0.7,0l0,-145.5l-0.7,0l0,145.5Z" class="g3_2030" />
<path d="M496.1,661.9l0.7,0l0,-53l-0.7,0l0,53Z" class="g3_2030" />
<path d="M496.1,791l0.7,0l0,-111.8l-0.7,0l0,111.8Z" class="g3_2030" />
<path d="M584.5,150.2l0.7,0l0,-19.9l-0.7,0l0,19.9Z" class="g3_2030" />
<path d="M584.5,189.8l0.7,0l0,-23.2l-0.7,0l0,23.2Z" class="g3_2030" />
<path d="M584.5,224.9l0.7,0l0,-17.9l-0.7,0l0,17.9Z" class="g3_2030" />
<path d="M584.5,260.2l0.7,0l0,-18l-0.7,0l0,18Z" class="g3_2030" />
<path d="M584.5,295.3l0.7,0l0,-18l-0.7,0l0,18Z" class="g3_2030" />
<path d="M584.5,341.8l0.7,0l0,-29.4l-0.7,0l0,29.4Z" class="g3_2030" />
<path d="M584.5,428.9l0.7,0l0,-69.8l-0.7,0l0,69.8Z" class="g3_2030" />
<path d="M584.5,591.6l0.7,0l0,-145.5l-0.7,0l0,145.5Z" class="g3_2030" />
<path d="M584.5,661.9l0.7,0l0,-53l-0.7,0l0,53Z" class="g3_2030" />
<path d="M584.5,708.5l0.7,0l0,-29.3l-0.7,0l0,29.3Z" class="g3_2030" />
<path d="M584.5,791l0.7,0l0,-65.3l-0.7,0l0,65.3Z" class="g3_2030" />
<path d="M672.8,295.3l0.8,0l0,-165l-0.8,0l0,165Z" class="g3_2030" />
<path d="M672.8,341.8l0.8,0l0,-29.4l-0.8,0l0,29.4Z" class="g3_2030" />
<path d="M672.8,428.9l0.8,0l0,-69.8l-0.8,0l0,69.8Z" class="g3_2030" />
<path d="M672.8,591.6l0.8,0l0,-145.5l-0.8,0l0,145.5Z" class="g3_2030" />
<path d="M672.8,661.9l0.8,0l0,-53l-0.8,0l0,53Z" class="g3_2030" />
<path d="M672.8,791l0.8,0l0,-111.8l-0.8,0l0,111.8Z" class="g3_2030" />
<path d="M761.1,295.3l0.7,0l0,-165l-0.7,0l0,165Z" class="g3_2030" />
<path d="M761.1,341.8l0.7,0l0,-29.4l-0.7,0l0,29.4Z" class="g3_2030" />
<path d="M761.1,428.9l0.7,0l0,-69.8l-0.7,0l0,69.8Z" class="g3_2030" />
<path d="M761.1,591.6l0.7,0l0,-145.5l-0.7,0l0,145.5Z" class="g3_2030" />
<path d="M761.1,661.9l0.7,0l0,-53l-0.7,0l0,53Z" class="g3_2030" />
<path d="M761.1,708.5l0.7,0l0,-29.3l-0.7,0l0,29.3Z" class="g3_2030" />
<path d="M761.1,791l0.7,0l0,-65.3l-0.7,0l0,65.3Z" class="g3_2030" />
<path d="M849.5,147.9l0.7,0l0,-15.3l-0.7,0l0,15.3Z" class="g3_2030" />
<path d="M848.7,788.7l2.3,0l0,-638.5l-2.3,0l0,638.5Z" class="g3_2030" />
<path d="M70.2,132.6l780,0l0,-2.3l-780,0l0,2.3Z" class="g3_2030" />
<path d="M70.2,150.2l780.7,0l0,-2.3l-780.7,0l0,2.3Z" class="g3_2030" />
<path d="M70.2,189.8l780.7,0l0,-0.7l-780.7,0l0,0.7Z" class="g3_2030" />
<path d="M70.2,224.9l780.7,0l0,-0.7l-780.7,0l0,0.7Z" class="g3_2030" />
<path d="M70.2,260.1l780.7,0l0,-0.8l-780.7,0l0,0.8Z" class="g3_2030" />
<path d="M70.2,295.3l780.7,0l0,-0.8l-780.7,0l0,0.8Z" class="g3_2030" />
<path d="M70.2,341.8l780.7,0l0,-0.7l-780.7,0l0,0.7Z" class="g3_2030" />
<path d="M70.2,376.9l780.7,0l0,-0.7l-780.7,0l0,0.7Z" class="g3_2030" />
<path d="M70.2,428.9l780.7,0l0,-0.7l-780.7,0l0,0.7Z" class="g3_2030" />
<path d="M70.2,475.6l780.7,0l0,-0.8l-780.7,0l0,0.8Z" class="g3_2030" />
<path d="M70.2,516l780.7,0l0,-0.7l-780.7,0l0,0.7Z" class="g3_2030" />
<path d="M70.2,556.5l780.7,0l0,-0.7l-780.7,0l0,0.7Z" class="g3_2030" />
<path d="M70.2,591.6l780.7,0l0,-0.7l-780.7,0l0,0.7Z" class="g3_2030" />
<path d="M70.2,626.8l780.7,0l0,-0.7l-780.7,0l0,0.7Z" class="g3_2030" />
<path d="M70.2,661.9l780.7,0l0,-0.7l-780.7,0l0,0.7Z" class="g3_2030" />
<path d="M70.2,708.5l780.7,0l0,-0.7l-780.7,0l0,0.7Z" class="g3_2030" />
<path d="M70.2,755.2l780.7,0l0,-0.8l-780.7,0l0,0.8Z" class="g3_2030" />
<path d="M70.2,791.1l780.7,0l0,-2.3l-780.7,0l0,2.3Z" class="g3_2030" />
</svg>