<?xml version="1.0" encoding="UTF-8" standalone="no"?>
<!DOCTYPE svg PUBLIC "-//W3C//DTD SVG 1.1//EN"
"http://www.w3.org/Graphics/SVG/1.1/DTD/svg11.dtd">
<svg viewBox="0 0 935 1210" version="1.1" xmlns="http://www.w3.org/2000/svg" xmlns:xlink="http://www.w3.org/1999/xlink">
<defs>
<style type="text/css"><![CDATA[
.g1_940{
fill: #FFFFFF;
}
.g2_940{
}
]]></style>
</defs>
<path d="M165,1149.3l687.5,0l0,-21.2l-687.5,0l0,21.2Z" class="g1_940" />
<path d="M68.8,1149.3l82.5,0l0,-21.2l-82.5,0l0,21.2Z" class="g1_940" />
<path d="M69.6,532.9l0.7,0l0,-407.2l-0.7,0l0,407.2Z" class="g2_940" />
<path d="M392.2,533.6l0.8,0l0,-408.7l-0.8,0l0,408.7Z" class="g2_940" />
<path d="M430.1,533.6l0.7,0l0,-408.7l-0.7,0l0,408.7Z" class="g2_940" />
<path d="M503.4,533.6l0.8,0l0,-408.7l-0.8,0l0,408.7Z" class="g2_940" />
<path d="M574.8,533.6l0.8,0l0,-408.7l-0.8,0l0,408.7Z" class="g2_940" />
<path d="M850.8,532.9l0.8,0l0,-407.2l-0.8,0l0,407.2Z" class="g2_940" />
<path d="M69.5,125.7l782.1,0l0,-0.8l-782.1,0l0,0.8Z" class="g2_940" />
<path d="M69.5,179.1l782.1,0l0,-0.7l-782.1,0l0,0.7Z" class="g2_940" />
<path d="M69.5,223.4l782.1,0l0,-0.7l-782.1,0l0,0.7Z" class="g2_940" />
<path d="M69.5,267.8l782.1,0l0,-0.8L69.5,267l0,0.8Z" class="g2_940" />
<path d="M69.5,312l782.1,0l0,-0.7l-782.1,0l0,0.7Z" class="g2_940" />
<path d="M69.5,356.3l782.1,0l0,-0.7l-782.1,0l0,0.7Z" class="g2_940" />
<path d="M69.5,400.7l782.1,0l0,-0.8l-782.1,0l0,0.8Z" class="g2_940" />
<path d="M69.5,444.9l782.1,0l0,-0.7l-782.1,0l0,0.7Z" class="g2_940" />
<path d="M69.5,489.3l782.1,0l0,-0.7l-782.1,0l0,0.7Z" class="g2_940" />
<path d="M69.5,533.6l782.1,0l0,-0.7l-782.1,0l0,0.7Z" class="g2_940" />
<path d="M69.7,739.1l0.7,0l0,-72.6l-0.7,0l0,72.6Z" class="g2_940" />
<path d="M139.9,739.8l0.7,0l0,-74l-0.7,0l0,74Z" class="g2_940" />
<path d="M311.6,739.8l0.7,0l0,-74l-0.7,0l0,74Z" class="g2_940" />
<path d="M488.8,739.8l0.7,0l0,-74l-0.7,0l0,74Z" class="g2_940" />
<path d="M668.9,739.8l0.7,0l0,-74l-0.7,0l0,74Z" class="g2_940" />
<path d="M850.8,739.1l0.7,0l0,-72.6l-0.7,0l0,72.6Z" class="g2_940" />
<path d="M69.7,666.5l781.8,0l0,-0.7l-781.8,0l0,0.7Z" class="g2_940" />
<path d="M69.7,691l781.8,0l0,-0.7l-781.8,0l0,0.7Z" class="g2_940" />
<path d="M69.7,715.4l781.8,0l0,-0.8l-781.8,0l0,0.8Z" class="g2_940" />
<path d="M69.7,739.8l781.8,0l0,-0.7l-781.8,0l0,0.7Z" class="g2_940" />
</svg>