<?xml version="1.0" encoding="UTF-8" standalone="no"?>
<!DOCTYPE svg PUBLIC "-//W3C//DTD SVG 1.1//EN"
"http://www.w3.org/Graphics/SVG/1.1/DTD/svg11.dtd">
<svg viewBox="0 0 935 1210" version="1.1" xmlns="http://www.w3.org/2000/svg" xmlns:xlink="http://www.w3.org/1999/xlink">
<defs>
<style type="text/css"><![CDATA[
.g1_2091{
fill: #FFFFFF;
}
.g2_2091{
}
]]></style>
</defs>
<path d="M68.9,1149.3l783.8,0l0,-21.2l-783.8,0l0,21.2Z" class="g1_2091" />
<path d="M69.9,1089l0.8,0l0,-964.9l-0.8,0l0,964.9Z" class="g2_2091" />
<path d="M446.2,1089.7l0.8,0l0,-966.3l-0.8,0l0,966.3Z" class="g2_2091" />
<path d="M851.6,1089l0.7,0l0,-964.9l-0.7,0l0,964.9Z" class="g2_2091" />
<path d="M69.9,124.1l782.4,0l0,-0.7l-782.4,0l0,0.7Z" class="g2_2091" />
<path d="M69.9,148.6l782.4,0l0,-0.7l-782.4,0l0,0.7Z" class="g2_2091" />
<path d="M69.9,173l782.4,0l0,-0.8l-782.4,0l0,0.8Z" class="g2_2091" />
<path d="M69.9,212.8l782.4,0l0,-0.8L69.9,212l0,0.8Z" class="g2_2091" />
<path d="M69.9,237.1l782.4,0l0,-0.7l-782.4,0l0,0.7Z" class="g2_2091" />
<path d="M69.9,261.6l782.4,0l0,-0.7l-782.4,0l0,0.7Z" class="g2_2091" />
<path d="M69.9,301.3l782.4,0l0,-0.7l-782.4,0l0,0.7Z" class="g2_2091" />
<path d="M69.9,325.8l782.4,0l0,-0.7l-782.4,0l0,0.7Z" class="g2_2091" />
<path d="M69.9,350.3l782.4,0l0,-0.8l-782.4,0l0,0.8Z" class="g2_2091" />
<path d="M69.9,389.9l782.4,0l0,-0.7l-782.4,0l0,0.7Z" class="g2_2091" />
<path d="M69.9,414.4l782.4,0l0,-0.7l-782.4,0l0,0.7Z" class="g2_2091" />
<path d="M69.9,438.9l782.4,0l0,-0.7l-782.4,0l0,0.7Z" class="g2_2091" />
<path d="M69.9,463.3l782.4,0l0,-0.8l-782.4,0l0,0.8Z" class="g2_2091" />
<path d="M69.9,487.8l782.4,0l0,-0.8L69.9,487l0,0.8Z" class="g2_2091" />
<path d="M69.9,512.2l782.4,0l0,-0.7l-782.4,0l0,0.7Z" class="g2_2091" />
<path d="M69.9,536.6l782.4,0l0,-0.7l-782.4,0l0,0.7Z" class="g2_2091" />
<path d="M69.9,561.1l782.4,0l0,-0.7l-782.4,0l0,0.7Z" class="g2_2091" />
<path d="M69.9,585.6l782.4,0l0,-0.8l-782.4,0l0,0.8Z" class="g2_2091" />
<path d="M69.9,609.9l782.4,0l0,-0.7l-782.4,0l0,0.7Z" class="g2_2091" />
<path d="M69.9,634.4l782.4,0l0,-0.7l-782.4,0l0,0.7Z" class="g2_2091" />
<path d="M69.9,658.9l782.4,0l0,-0.7l-782.4,0l0,0.7Z" class="g2_2091" />
<path d="M69.9,683.3l782.4,0l0,-0.7l-782.4,0l0,0.7Z" class="g2_2091" />
<path d="M69.9,707.8l782.4,0l0,-0.8L69.9,707l0,0.8Z" class="g2_2091" />
<path d="M69.9,732.2l782.4,0l0,-0.7l-782.4,0l0,0.7Z" class="g2_2091" />
<path d="M69.9,756.6l782.4,0l0,-0.7l-782.4,0l0,0.7Z" class="g2_2091" />
<path d="M69.9,781.1l782.4,0l0,-0.7l-782.4,0l0,0.7Z" class="g2_2091" />
<path d="M69.9,805.6l782.4,0l0,-0.8l-782.4,0l0,0.8Z" class="g2_2091" />
<path d="M69.9,830l782.4,0l0,-0.8l-782.4,0l0,0.8Z" class="g2_2091" />
<path d="M69.9,854.4l782.4,0l0,-0.7l-782.4,0l0,0.7Z" class="g2_2091" />
<path d="M69.9,878.9l782.4,0l0,-0.7l-782.4,0l0,0.7Z" class="g2_2091" />
<path d="M69.9,903.3l782.4,0l0,-0.7l-782.4,0l0,0.7Z" class="g2_2091" />
<path d="M69.9,927.8l782.4,0l0,-0.8L69.9,927l0,0.8Z" class="g2_2091" />
<path d="M69.9,952.2l782.4,0l0,-0.7l-782.4,0l0,0.7Z" class="g2_2091" />
<path d="M69.9,976.6l782.4,0l0,-0.7l-782.4,0l0,0.7Z" class="g2_2091" />
<path d="M69.9,1001.1l782.4,0l0,-0.7l-782.4,0l0,0.7Z" class="g2_2091" />
<path d="M69.9,1025.6l782.4,0l0,-0.8l-782.4,0l0,0.8Z" class="g2_2091" />
<path d="M69.9,1065.3l782.4,0l0,-0.8l-782.4,0l0,0.8Z" class="g2_2091" />
<path d="M69.9,1089.7l782.4,0l0,-0.7l-782.4,0l0,0.7Z" class="g2_2091" />
</svg>