<?xml version="1.0" encoding="UTF-8" standalone="no"?>
<!DOCTYPE svg PUBLIC "-//W3C//DTD SVG 1.1//EN"
"http://www.w3.org/Graphics/SVG/1.1/DTD/svg11.dtd">
<svg viewBox="0 0 935 1210" version="1.1" xmlns="http://www.w3.org/2000/svg" xmlns:xlink="http://www.w3.org/1999/xlink">
<defs>
<style type="text/css"><![CDATA[
.g1_402{
fill: #FFFFFF;
}
.g2_402{
}
]]></style>
</defs>
<path d="M165,1149.3l687.5,0l0,-21.2l-687.5,0l0,21.2Z" class="g1_402" />
<path d="M68.8,1149.3l82.5,0l0,-21.2l-82.5,0l0,21.2Z" class="g1_402" />
<path d="M70.7,415.2l0.7,0l0,-289.5l-0.7,0l0,289.5Z" class="g2_402" />
<path d="M386.6,416l0.7,0l0,-291.1l-0.7,0l0,291.1Z" class="g2_402" />
<path d="M426.6,416l0.8,0l0,-291.1l-0.8,0l0,291.1Z" class="g2_402" />
<path d="M500,416l0.8,0l0,-291.1l-0.8,0L500,416Z" class="g2_402" />
<path d="M571.5,416l0.7,0l0,-291.1l-0.7,0l0,291.1Z" class="g2_402" />
<path d="M849.8,415.2l0.7,0l0,-289.5l-0.7,0l0,289.5Z" class="g2_402" />
<path d="M70.7,125.7l779.8,0l0,-0.8l-779.8,0l0,0.8Z" class="g2_402" />
<path d="M70.7,179.1l779.8,0l0,-0.7l-779.8,0l0,0.7Z" class="g2_402" />
<path d="M70.7,269.2l779.8,0l0,-0.7l-779.8,0l0,0.7Z" class="g2_402" />
<path d="M70.7,342.6l779.8,0l0,-0.8l-779.8,0l0,0.8Z" class="g2_402" />
<path d="M70.7,416l779.8,0l0,-0.7l-779.8,0l0,0.7Z" class="g2_402" />
<path d="M69.7,543.5l0.7,0l0,-72.5l-0.7,0l0,72.5Z" class="g2_402" />
<path d="M142.3,544.3l0.7,0l0,-74.1l-0.7,0l0,74.1Z" class="g2_402" />
<path d="M316.3,544.3l0.7,0l0,-74.1l-0.7,0l0,74.1Z" class="g2_402" />
<path d="M493.5,544.3l0.8,0l0,-74.1l-0.8,0l0,74.1Z" class="g2_402" />
<path d="M664.2,544.3l0.8,0l0,-74.1l-0.8,0l0,74.1Z" class="g2_402" />
<path d="M850.8,543.5l0.7,0l0,-72.5l-0.7,0l0,72.5Z" class="g2_402" />
<path d="M69.7,471l781.8,0l0,-0.8l-781.8,0l0,0.8Z" class="g2_402" />
<path d="M69.7,495.4l781.8,0l0,-0.8l-781.8,0l0,0.8Z" class="g2_402" />
<path d="M69.7,519.8l781.8,0l0,-0.7l-781.8,0l0,0.7Z" class="g2_402" />
<path d="M69.7,544.3l781.8,0l0,-0.7l-781.8,0l0,0.7Z" class="g2_402" />
</svg>