<?xml version="1.0" encoding="UTF-8" standalone="no"?>
<!DOCTYPE svg PUBLIC "-//W3C//DTD SVG 1.1//EN"
"http://www.w3.org/Graphics/SVG/1.1/DTD/svg11.dtd">
<svg viewBox="0 0 935 1210" version="1.1" xmlns="http://www.w3.org/2000/svg" xmlns:xlink="http://www.w3.org/1999/xlink">
<defs>
<style type="text/css"><![CDATA[
.g1_1896{
fill: #FFFFFF;
}
.g2_1896{
}
]]></style>
</defs>
<path d="M165,1149.3l687.5,0l0,-21.2l-687.5,0l0,21.2Z" class="g1_1896" />
<path d="M68.8,1149.3l82.5,0l0,-21.2l-82.5,0l0,21.2Z" class="g1_1896" />
<path d="M68.6,228.8l0.7,0l0,-103.1l-0.7,0l0,103.1Z" class="g2_1896" />
<path d="M286.4,229.5l0.7,0l0,-104.6l-0.7,0l0,104.6Z" class="g2_1896" />
<path d="M332.2,229.5l0.7,0l0,-104.6l-0.7,0l0,104.6Z" class="g2_1896" />
<path d="M405.5,229.5l0.8,0l0,-104.6l-0.8,0l0,104.6Z" class="g2_1896" />
<path d="M484.4,229.5l0.7,0l0,-104.6l-0.7,0l0,104.6Z" class="g2_1896" />
<path d="M850.9,228.8l0.8,0l0,-103.1l-0.8,0l0,103.1Z" class="g2_1896" />
<path d="M68.6,125.7l783.1,0l0,-0.8l-783.1,0l0,0.8Z" class="g2_1896" />
<path d="M68.6,176.1l783.1,0l0,-0.7l-783.1,0l0,0.7Z" class="g2_1896" />
<path d="M68.6,229.5l783.1,0l0,-0.7l-783.1,0l0,0.7Z" class="g2_1896" />
<path d="M70.7,332.7l0.7,0l0,-48.2l-0.7,0l0,48.2Z" class="g2_1896" />
<path d="M178.5,333.5l0.7,0l0,-49.7l-0.7,0l0,49.7Z" class="g2_1896" />
<path d="M346,333.5l0.8,0l0,-49.7l-0.8,0l0,49.7Z" class="g2_1896" />
<path d="M516.4,333.5l0.7,0l0,-49.7l-0.7,0l0,49.7Z" class="g2_1896" />
<path d="M685.7,333.5l0.7,0l0,-49.7l-0.7,0l0,49.7Z" class="g2_1896" />
<path d="M849.7,332.7l0.7,0l0,-48.2l-0.7,0l0,48.2Z" class="g2_1896" />
<path d="M70.7,284.5l779.8,0l0,-0.7l-779.8,0l0,0.7Z" class="g2_1896" />
<path d="M70.7,309l779.8,0l0,-0.7l-779.8,0l0,0.7Z" class="g2_1896" />
<path d="M70.7,333.4l779.8,0l0,-0.7l-779.8,0l0,0.7Z" class="g2_1896" />
</svg>