<?xml version="1.0" encoding="UTF-8" standalone="no"?>
<!DOCTYPE svg PUBLIC "-//W3C//DTD SVG 1.1//EN"
"http://www.w3.org/Graphics/SVG/1.1/DTD/svg11.dtd">
<svg viewBox="0 0 935 1210" version="1.1" xmlns="http://www.w3.org/2000/svg" xmlns:xlink="http://www.w3.org/1999/xlink">
<defs>
<style type="text/css"><![CDATA[
.g1_433{
fill: #FFFFFF;
}
.g2_433{
}
]]></style>
</defs>
<path d="M68.9,1149.3l686.3,0l0,-21.2l-686.3,0l0,21.2Z" class="g1_433" />
<path d="M771.3,1149.3l83.7,0l0,-21.2l-83.7,0l0,21.2Z" class="g1_433" />
<path d="M69.9,192.1l0.8,0l0,-60.3l-0.8,0l0,60.3Z" class="g2_433" />
<path d="M200.1,192.9l0.7,0l0,-61.9l-0.7,0l0,61.9Z" class="g2_433" />
<path d="M360.2,192.9l0.7,0l0,-61.9l-0.7,0l0,61.9Z" class="g2_433" />
<path d="M417.9,192.9l0.7,0l0,-61.9l-0.7,0l0,61.9Z" class="g2_433" />
<path d="M514.2,192.9l0.7,0l0,-61.9l-0.7,0l0,61.9Z" class="g2_433" />
<path d="M852,192.1l0.8,0l0,-60.3l-0.8,0l0,60.3Z" class="g2_433" />
<path d="M69.9,131.7l782.9,0l0,-0.7L69.9,131l0,0.7Z" class="g2_433" />
<path d="M69.9,169.9l782.9,0l0,-0.7l-782.9,0l0,0.7Z" class="g2_433" />
<path d="M69.9,192.9l782.9,0l0,-0.8l-782.9,0l0,0.8Z" class="g2_433" />
<path d="M71.7,511.4l0.7,0l0,-182.5l-0.7,0l0,182.5Z" class="g2_433" />
<path d="M448.4,512.2l0.8,0l0,-184.1l-0.8,0l0,184.1Z" class="g2_433" />
<path d="M850.4,511.4l0.7,0l0,-182.5l-0.7,0l0,182.5Z" class="g2_433" />
<path d="M71.6,328.8l779.5,0l0,-0.7l-779.5,0l0,0.7Z" class="g2_433" />
<path d="M71.6,351.7l779.5,0l0,-0.7L71.6,351l0,0.7Z" class="g2_433" />
<path d="M71.6,374.6l779.5,0l0,-0.7l-779.5,0l0,0.7Z" class="g2_433" />
<path d="M71.6,397.7l779.5,0l0,-0.8l-779.5,0l0,0.8Z" class="g2_433" />
<path d="M71.6,420.6l779.5,0l0,-0.8l-779.5,0l0,0.8Z" class="g2_433" />
<path d="M71.6,443.5l779.5,0l0,-0.8l-779.5,0l0,0.8Z" class="g2_433" />
<path d="M71.6,466.4l779.5,0l0,-0.7l-779.5,0l0,0.7Z" class="g2_433" />
<path d="M71.6,489.3l779.5,0l0,-0.7l-779.5,0l0,0.7Z" class="g2_433" />
<path d="M71.6,512.2l779.5,0l0,-0.7l-779.5,0l0,0.7Z" class="g2_433" />
</svg>