<?xml version="1.0" encoding="UTF-8" standalone="no"?>
<!DOCTYPE svg PUBLIC "-//W3C//DTD SVG 1.1//EN"
"http://www.w3.org/Graphics/SVG/1.1/DTD/svg11.dtd">
<svg viewBox="0 0 935 1210" version="1.1" xmlns="http://www.w3.org/2000/svg" xmlns:xlink="http://www.w3.org/1999/xlink">
<defs>
<style type="text/css"><![CDATA[
.g1_1282{
fill: #FFFFFF;
}
.g2_1282{
}
]]></style>
</defs>
<path d="M165,1149.3l687.5,0l0,-21.2l-687.5,0l0,21.2Z" class="g1_1282" />
<path d="M68.8,1149.3l82.5,0l0,-21.2l-82.5,0l0,21.2Z" class="g1_1282" />
<path d="M70.7,299.1l0.7,0l0,-173.4l-0.7,0l0,173.4Z" class="g2_1282" />
<path d="M220.8,299.8l0.8,0l0,-174.9l-0.8,0l0,174.9Z" class="g2_1282" />
<path d="M391.1,299.8l0.8,0l0,-174.9l-0.8,0l0,174.9Z" class="g2_1282" />
<path d="M428.9,299.8l0.7,0l0,-174.9l-0.7,0l0,174.9Z" class="g2_1282" />
<path d="M502.3,299.8l0.8,0l0,-174.9l-0.8,0l0,174.9Z" class="g2_1282" />
<path d="M573.7,299.8l0.8,0l0,-174.9l-0.8,0l0,174.9Z" class="g2_1282" />
<path d="M849.8,299.1l0.7,0l0,-173.4l-0.7,0l0,173.4Z" class="g2_1282" />
<path d="M70.7,125.7l779.8,0l0,-0.8l-779.8,0l0,0.8Z" class="g2_1282" />
<path d="M70.7,163.8l779.8,0l0,-0.7l-779.8,0l0,0.7Z" class="g2_1282" />
<path d="M70.7,186.7l779.8,0l0,-0.7L70.7,186l0,0.7Z" class="g2_1282" />
<path d="M70.7,243.3l779.8,0l0,-0.7l-779.8,0l0,0.7Z" class="g2_1282" />
<path d="M70.7,299.8l779.8,0l0,-0.7l-779.8,0l0,0.7Z" class="g2_1282" />
<path d="M70.2,403l0.8,0l0,-48.2l-0.8,0l0,48.2Z" class="g2_1282" />
<path d="M139.3,403.7l0.8,0l0,-49.6l-0.8,0l0,49.6Z" class="g2_1282" />
<path d="M316.9,403.7l0.7,0l0,-49.6l-0.7,0l0,49.6Z" class="g2_1282" />
<path d="M488.4,403.7l0.7,0l0,-49.6l-0.7,0l0,49.6Z" class="g2_1282" />
<path d="M673.1,403.7l0.7,0l0,-49.6l-0.7,0l0,49.6Z" class="g2_1282" />
<path d="M850.1,403l0.7,0l0,-48.2l-0.7,0l0,48.2Z" class="g2_1282" />
<path d="M70.2,354.8l780.7,0l0,-0.7l-780.7,0l0,0.7Z" class="g2_1282" />
<path d="M70.2,379.2l780.7,0l0,-0.7l-780.7,0l0,0.7Z" class="g2_1282" />
<path d="M70.2,403.7l780.7,0l0,-0.7L70.2,403l0,0.7Z" class="g2_1282" />
</svg>