<?xml version="1.0" encoding="UTF-8" standalone="no"?>
<!DOCTYPE svg PUBLIC "-//W3C//DTD SVG 1.1//EN"
"http://www.w3.org/Graphics/SVG/1.1/DTD/svg11.dtd">
<svg viewBox="0 0 935 1210" version="1.1" xmlns="http://www.w3.org/2000/svg" xmlns:xlink="http://www.w3.org/1999/xlink">
<defs>
<clipPath id="c0_355"><path d="M70.3,475.7l0,-29.6l780.2,0l0,29.6Z" /></clipPath>
<style type="text/css"><![CDATA[
.g1_355{
fill: #FFFFFF;
}
.g2_355{
}
]]></style>
</defs>
<path d="M68.9,1149.3l686.3,0l0,-21.2l-686.3,0l0,21.2Z" class="g1_355" />
<path d="M771.3,1149.3l83.7,0l0,-21.2l-83.7,0l0,21.2Z" class="g1_355" />
<g clip-path="url(#c0_355)">
<path d="M70.3,475.7l780.2,0l0,-29.6l-780.2,0l0,29.6Z" class="g1_355" />
</g>
<path d="M71.2,469.1l53.6,0l0,-12.5l-53.6,0l0,12.5Z" class="g1_355" />
<path d="M69.9,445.8l0.8,0l0,-320.1l-0.8,0l0,320.1Z" class="g2_355" />
<path d="M308.3,446.5l0.7,0l0,-321.6l-0.7,0l0,321.6Z" class="g2_355" />
<path d="M351.8,446.5l0.7,0l0,-321.6l-0.7,0l0,321.6Z" class="g2_355" />
<path d="M426.3,446.5l0.7,0l0,-321.6l-0.7,0l0,321.6Z" class="g2_355" />
<path d="M512.2,446.5l0.8,0l0,-321.6l-0.8,0l0,321.6Z" class="g2_355" />
<path d="M850.1,445.8l0.7,0l0,-320.1l-0.7,0l0,320.1Z" class="g2_355" />
<path d="M69.9,125.7l781,0l0,-0.8l-781,0l0,0.8Z" class="g2_355" />
<path d="M69.9,176.1l781,0l0,-0.7l-781,0l0,0.7Z" class="g2_355" />
<path d="M69.9,212.8l781,0l0,-0.8l-781,0l0,0.8Z" class="g2_355" />
<path d="M69.9,266.2l781,0l0,-0.7l-781,0l0,0.7Z" class="g2_355" />
<path d="M69.9,302.9l781,0l0,-0.8l-781,0l0,0.8Z" class="g2_355" />
<path d="M69.9,356.3l781,0l0,-0.7l-781,0l0,0.7Z" class="g2_355" />
<path d="M69.9,393l781,0l0,-0.8l-781,0l0,0.8Z" class="g2_355" />
<path d="M69.9,446.5l781,0l0,-0.7l-781,0l0,0.7Z" class="g2_355" />
<path d="M73.3,623.5l0.8,0l0,-72.5l-0.8,0l0,72.5Z" class="g2_355" />
<path d="M181,624.3l0.7,0l0,-74.1l-0.7,0l0,74.1Z" class="g2_355" />
<path d="M346.1,624.3l0.8,0l0,-74.1l-0.8,0l0,74.1Z" class="g2_355" />
<path d="M517.6,624.3l0.8,0l0,-74.1l-0.8,0l0,74.1Z" class="g2_355" />
<path d="M688.8,624.3l0.7,0l0,-74.1l-0.7,0l0,74.1Z" class="g2_355" />
<path d="M848.6,623.5l0.8,0l0,-72.5l-0.8,0l0,72.5Z" class="g2_355" />
<path d="M73.3,550.9l776.1,0l0,-0.7l-776.1,0l0,0.7Z" class="g2_355" />
<path d="M73.3,575.4l776.1,0l0,-0.7l-776.1,0l0,0.7Z" class="g2_355" />
<path d="M73.3,599.9l776.1,0l0,-0.8l-776.1,0l0,0.8Z" class="g2_355" />
<path d="M73.3,624.3l776.1,0l0,-0.7l-776.1,0l0,0.7Z" class="g2_355" />
</svg>