<?xml version="1.0" encoding="UTF-8" standalone="no"?>
<!DOCTYPE svg PUBLIC "-//W3C//DTD SVG 1.1//EN"
"http://www.w3.org/Graphics/SVG/1.1/DTD/svg11.dtd">
<svg viewBox="0 0 935 1210" version="1.1" xmlns="http://www.w3.org/2000/svg" xmlns:xlink="http://www.w3.org/1999/xlink">
<defs>
<style type="text/css"><![CDATA[
.g1_1411{
fill: #FFFFFF;
}
.g2_1411{
}
]]></style>
</defs>
<path d="M68.9,1149.3l686.3,0l0,-21.2l-686.3,0l0,21.2Z" class="g1_1411" />
<path d="M771.3,1149.3l83.7,0l0,-21.2l-83.7,0l0,21.2Z" class="g1_1411" />
<path d="M70.3,300l784.4,0l0,-29.6l-784.4,0l0,29.6Z" class="g1_1411" />
<path d="M71.2,293.3l53.6,0l0,-12.3l-53.6,0l0,12.3Z" class="g1_1411" />
<path d="M69.9,270.1l0.8,0L70.7,147l-0.8,0l0,123.1Z" class="g2_1411" />
<path d="M311.6,270.8l0.7,0l0,-124.5l-0.7,0l0,124.5Z" class="g2_1411" />
<path d="M355.1,270.8l0.8,0l0,-124.5l-0.8,0l0,124.5Z" class="g2_1411" />
<path d="M429.6,270.8l0.7,0l0,-124.5l-0.7,0l0,124.5Z" class="g2_1411" />
<path d="M510.4,270.8l0.7,0l0,-124.5l-0.7,0l0,124.5Z" class="g2_1411" />
<path d="M854.3,270.1l0.8,0l0,-123.1l-0.8,0l0,123.1Z" class="g2_1411" />
<path d="M69.9,147l785.2,0l0,-0.7l-785.2,0l0,0.7Z" class="g2_1411" />
<path d="M69.9,197.4l785.2,0l0,-0.7l-785.2,0l0,0.7Z" class="g2_1411" />
<path d="M69.9,234.1l785.2,0l0,-0.7l-785.2,0l0,0.7Z" class="g2_1411" />
<path d="M69.9,270.8l785.2,0l0,-0.7l-785.2,0l0,0.7Z" class="g2_1411" />
<path d="M70.4,423.4l0.7,0l0,-48.1l-0.7,0l0,48.1Z" class="g2_1411" />
<path d="M851.6,423.4l0.7,0l0,-48.1l-0.7,0l0,48.1Z" class="g2_1411" />
<path d="M70.3,375.3l782.1,0l0,-0.8l-782.1,0l0,0.8Z" class="g2_1411" />
<path d="M70.3,424.1l782.1,0l0,-0.7l-782.1,0l0,0.7Z" class="g2_1411" />
</svg>