<?xml version="1.0" encoding="UTF-8" standalone="no"?>
<!DOCTYPE svg PUBLIC "-//W3C//DTD SVG 1.1//EN"
"http://www.w3.org/Graphics/SVG/1.1/DTD/svg11.dtd">
<svg viewBox="0 0 935 1210" version="1.1" xmlns="http://www.w3.org/2000/svg" xmlns:xlink="http://www.w3.org/1999/xlink">
<defs>
<style type="text/css"><![CDATA[
.g1_815{
fill: #FFFFFF;
}
.g2_815{
}
]]></style>
</defs>
<path d="M68.9,1149.3l686.3,0l0,-21.2l-686.3,0l0,21.2Z" class="g1_815" />
<path d="M771.3,1149.3l83.7,0l0,-21.2l-83.7,0l0,21.2Z" class="g1_815" />
<path d="M70.3,231.8l0.7,0L71,125.7l-0.7,0l0,106.1Z" class="g2_815" />
<path d="M220.5,232.7l0.7,0l0,-107.8l-0.7,0l0,107.8Z" class="g2_815" />
<path d="M390.8,232.7l0.7,0l0,-107.8l-0.7,0l0,107.8Z" class="g2_815" />
<path d="M428.6,232.7l0.8,0l0,-107.8l-0.8,0l0,107.8Z" class="g2_815" />
<path d="M502,232.7l0.7,0l0,-107.8l-0.7,0l0,107.8Z" class="g2_815" />
<path d="M573.4,232.7l0.7,0l0,-107.8l-0.7,0l0,107.8Z" class="g2_815" />
<path d="M851.7,231.8l0.7,0l0,-106.1l-0.7,0l0,106.1Z" class="g2_815" />
<path d="M70.3,125.7l782.1,0l0,-0.8l-782.1,0l0,0.8Z" class="g2_815" />
<path d="M70.3,163.8l782.1,0l0,-0.7l-782.1,0l0,0.7Z" class="g2_815" />
<path d="M70.3,186.7l782.1,0l0,-0.7L70.3,186l0,0.7Z" class="g2_815" />
<path d="M70.3,209.6l782.1,0l0,-0.7l-782.1,0l0,0.7Z" class="g2_815" />
<path d="M70.3,232.6l782.1,0l0,-0.8l-782.1,0l0,0.8Z" class="g2_815" />
<path d="M71,360.2l0.8,0l0,-72.6l-0.8,0l0,72.6Z" class="g2_815" />
<path d="M138.8,361l0.7,0l0,-74.2l-0.7,0l0,74.2Z" class="g2_815" />
<path d="M312.9,361l0.7,0l0,-74.2l-0.7,0l0,74.2Z" class="g2_815" />
<path d="M486.7,361l0.7,0l0,-74.2l-0.7,0l0,74.2Z" class="g2_815" />
<path d="M665.7,361l0.7,0l0,-74.2l-0.7,0l0,74.2Z" class="g2_815" />
<path d="M850.9,360.2l0.8,0l0,-72.6l-0.8,0l0,72.6Z" class="g2_815" />
<path d="M71,287.6l780.7,0l0,-0.8L71,286.8l0,0.8Z" class="g2_815" />
<path d="M71,312l780.7,0l0,-0.7L71,311.3l0,0.7Z" class="g2_815" />
<path d="M71,336.5l780.7,0l0,-0.7L71,335.8l0,0.7Z" class="g2_815" />
<path d="M71,360.9l780.7,0l0,-0.7L71,360.2l0,0.7Z" class="g2_815" />
<path d="M71,939.4l0.4,0l0,-192.1l-0.4,0l0,192.1Z" class="g2_815" />
<path d="M188.7,939.8l0.4,0l0,-192.9l-0.4,0l0,192.9Z" class="g2_815" />
<path d="M594.8,939.8l0.4,0l0,-192.9l-0.4,0l0,192.9Z" class="g2_815" />
<path d="M851.3,939.4l0.4,0l0,-192.1l-0.4,0l0,192.1Z" class="g2_815" />
<path d="M71,747.3l780.7,0l0,-0.4L71,746.9l0,0.4Z" class="g2_815" />
<path d="M71,768.7l780.7,0l0,-0.3L71,768.4l0,0.3Z" class="g2_815" />
<path d="M71,939.8l780.7,0l0,-0.4L71,939.4l0,0.4Z" class="g2_815" />
</svg>