<?xml version="1.0" encoding="UTF-8" standalone="no"?>
<!DOCTYPE svg PUBLIC "-//W3C//DTD SVG 1.1//EN"
"http://www.w3.org/Graphics/SVG/1.1/DTD/svg11.dtd">
<svg viewBox="0 0 935 1210" version="1.1" xmlns="http://www.w3.org/2000/svg" xmlns:xlink="http://www.w3.org/1999/xlink">
<defs>
<style type="text/css"><![CDATA[
.g1_883{
fill: #FFFFFF;
}
.g2_883{
}
]]></style>
</defs>
<path d="M68.9,1149.3l686.3,0l0,-21.2l-686.3,0l0,21.2Z" class="g1_883" />
<path d="M771.3,1149.3l83.7,0l0,-21.2l-83.7,0l0,21.2Z" class="g1_883" />
<path d="M69.9,179.9l0.7,0l0,-72.6l-0.7,0l0,72.6Z" class="g2_883" />
<path d="M135.9,180.7l0.8,0l0,-74.1l-0.8,0l0,74.1Z" class="g2_883" />
<path d="M306.8,180.7l0.7,0l0,-74.1l-0.7,0l0,74.1Z" class="g2_883" />
<path d="M485.7,180.7l0.7,0l0,-74.1l-0.7,0l0,74.1Z" class="g2_883" />
<path d="M663.8,180.7l0.8,0l0,-74.1l-0.8,0l0,74.1Z" class="g2_883" />
<path d="M852.1,179.9l0.8,0l0,-72.6l-0.8,0l0,72.6Z" class="g2_883" />
<path d="M69.9,107.3l783,0l0,-0.7l-783,0l0,0.7Z" class="g2_883" />
<path d="M69.9,131.7l783,0l0,-0.7l-783,0l0,0.7Z" class="g2_883" />
<path d="M69.9,156.2l783,0l0,-0.7l-783,0l0,0.7Z" class="g2_883" />
<path d="M69.9,180.7l783,0l0,-0.8l-783,0l0,0.8Z" class="g2_883" />
</svg>