<?xml version="1.0" encoding="UTF-8" standalone="no"?>
<!DOCTYPE svg PUBLIC "-//W3C//DTD SVG 1.1//EN"
"http://www.w3.org/Graphics/SVG/1.1/DTD/svg11.dtd">
<svg viewBox="0 0 935 1210" version="1.1" xmlns="http://www.w3.org/2000/svg" xmlns:xlink="http://www.w3.org/1999/xlink">
<defs>
<style type="text/css"><![CDATA[
.g1_1605{
fill: #FFFFFF;
}
.g2_1605{
}
]]></style>
</defs>
<path d="M68.9,1149.3l686.3,0l0,-21.2l-686.3,0l0,21.2Z" class="g1_1605" />
<path d="M771.3,1149.3l83.7,0l0,-21.2l-83.7,0l0,21.2Z" class="g1_1605" />
<path d="M69.9,245.6l0.8,0l0,-119.9l-0.8,0l0,119.9Z" class="g2_1605" />
<path d="M263.2,246.4l0.7,0l0,-121.5l-0.7,0l0,121.5Z" class="g2_1605" />
<path d="M307.9,246.4l0.7,0l0,-121.5l-0.7,0l0,121.5Z" class="g2_1605" />
<path d="M382.3,246.4l0.8,0l0,-121.5l-0.8,0l0,121.5Z" class="g2_1605" />
<path d="M469.4,246.4l0.8,0l0,-121.5l-0.8,0l0,121.5Z" class="g2_1605" />
<path d="M854.4,245.6l0.8,0l0,-119.9l-0.8,0l0,119.9Z" class="g2_1605" />
<path d="M69.9,125.7l785.4,0l0,-0.8l-785.4,0l0,0.8Z" class="g2_1605" />
<path d="M69.9,176.1l785.4,0l0,-0.7l-785.4,0l0,0.7Z" class="g2_1605" />
<path d="M69.9,246.3l785.4,0l0,-0.7l-785.4,0l0,0.7Z" class="g2_1605" />
<path d="M69.9,349.5l0.8,0l0,-48.1l-0.8,0l0,48.1Z" class="g2_1605" />
<path d="M236.1,350.3l0.8,0l0,-49.7l-0.8,0l0,49.7Z" class="g2_1605" />
<path d="M377.8,350.3l0.7,0l0,-49.7l-0.7,0l0,49.7Z" class="g2_1605" />
<path d="M579.8,350.3l0.7,0l0,-49.7l-0.7,0l0,49.7Z" class="g2_1605" />
<path d="M723.1,350.3l0.7,0l0,-49.7l-0.7,0l0,49.7Z" class="g2_1605" />
<path d="M852,349.5l0.8,0l0,-48.1l-0.8,0l0,48.1Z" class="g2_1605" />
<path d="M69.9,301.3l782.9,0l0,-0.7l-782.9,0l0,0.7Z" class="g2_1605" />
<path d="M69.9,325.8l782.9,0l0,-0.7l-782.9,0l0,0.7Z" class="g2_1605" />
<path d="M69.9,350.3l782.9,0l0,-0.8l-782.9,0l0,0.8Z" class="g2_1605" />
</svg>