<?xml version="1.0" encoding="UTF-8" standalone="no"?>
<!DOCTYPE svg PUBLIC "-//W3C//DTD SVG 1.1//EN"
"http://www.w3.org/Graphics/SVG/1.1/DTD/svg11.dtd">
<svg viewBox="0 0 935 1210" version="1.1" xmlns="http://www.w3.org/2000/svg" xmlns:xlink="http://www.w3.org/1999/xlink">
<defs>
<style type="text/css"><![CDATA[
.g1_1499{
fill: #FFFFFF;
}
.g2_1499{
}
]]></style>
</defs>
<path d="M68.9,1149.3l686.3,0l0,-21.2l-686.3,0l0,21.2Z" class="g1_1499" />
<path d="M771.3,1149.3l83.7,0l0,-21.2l-83.7,0l0,21.2Z" class="g1_1499" />
<path d="M69.9,517.6l0.8,0L70.7,147l-0.8,0l0,370.6Z" class="g2_1499" />
<path d="M326.5,518.3l0.8,0l0,-372l-0.8,0l0,372Z" class="g2_1499" />
<path d="M373,518.3l0.7,0l0,-372l-0.7,0l0,372Z" class="g2_1499" />
<path d="M445.2,518.3l0.8,0l0,-372l-0.8,0l0,372Z" class="g2_1499" />
<path d="M527.9,518.3l0.7,0l0,-372l-0.7,0l0,372Z" class="g2_1499" />
<path d="M852.2,517.6l0.8,0L853,147l-0.8,0l0,370.6Z" class="g2_1499" />
<path d="M69.9,147L853,147l0,-0.7l-783.1,0l0,0.7Z" class="g2_1499" />
<path d="M69.9,197.4l783.1,0l0,-0.7l-783.1,0l0,0.7Z" class="g2_1499" />
<path d="M69.9,250.9l783.1,0l0,-0.7l-783.1,0l0,0.7Z" class="g2_1499" />
<path d="M69.9,304.4l783.1,0l0,-0.7l-783.1,0l0,0.7Z" class="g2_1499" />
<path d="M69.9,357.9l783.1,0l0,-0.8l-783.1,0l0,0.8Z" class="g2_1499" />
<path d="M69.9,411.4l783.1,0l0,-0.7l-783.1,0l0,0.7Z" class="g2_1499" />
<path d="M69.9,464.8l783.1,0l0,-0.7l-783.1,0l0,0.7Z" class="g2_1499" />
<path d="M69.9,518.3l783.1,0l0,-0.7l-783.1,0l0,0.7Z" class="g2_1499" />
<path d="M69.3,645.9l0.7,0l0,-72.6l-0.7,0l0,72.6Z" class="g2_1499" />
<path d="M177.7,646.6l0.8,0l0,-74.1l-0.8,0l0,74.1Z" class="g2_1499" />
<path d="M341.9,646.6l0.8,0l0,-74.1l-0.8,0l0,74.1Z" class="g2_1499" />
<path d="M508.1,646.6l0.7,0l0,-74.1l-0.7,0l0,74.1Z" class="g2_1499" />
<path d="M679.8,646.6l0.7,0l0,-74.1l-0.7,0l0,74.1Z" class="g2_1499" />
<path d="M852.8,645.9l0.7,0l0,-72.6l-0.7,0l0,72.6Z" class="g2_1499" />
<path d="M69.2,573.3l784.3,0l0,-0.7l-784.3,0l0,0.7Z" class="g2_1499" />
<path d="M69.2,597.8l784.3,0l0,-0.8L69.2,597l0,0.8Z" class="g2_1499" />
<path d="M69.2,622.2l784.3,0l0,-0.7l-784.3,0l0,0.7Z" class="g2_1499" />
<path d="M69.2,646.6l784.3,0l0,-0.7l-784.3,0l0,0.7Z" class="g2_1499" />
</svg>