<?xml version="1.0" encoding="UTF-8" standalone="no"?>
<!DOCTYPE svg PUBLIC "-//W3C//DTD SVG 1.1//EN"
"http://www.w3.org/Graphics/SVG/1.1/DTD/svg11.dtd">
<svg viewBox="0 0 935 1210" version="1.1" xmlns="http://www.w3.org/2000/svg" xmlns:xlink="http://www.w3.org/1999/xlink">
<defs>
<style type="text/css"><![CDATA[
.g1_313{
fill: #FFFFFF;
}
.g2_313{
}
]]></style>
</defs>
<path d="M68.9,1149.3l686.3,0l0,-21.2l-686.3,0l0,21.2Z" class="g1_313" />
<path d="M771.3,1149.3l83.7,0l0,-21.2l-83.7,0l0,21.2Z" class="g1_313" />
<path d="M69.9,1078.3l0.8,0l0,-954.2l-0.8,0l0,954.2Z" class="g2_313" />
<path d="M123.4,1079l0.7,0l0,-955.6l-0.7,0l0,955.6Z" class="g2_313" />
<path d="M195.2,1079l0.7,0l0,-955.6l-0.7,0l0,955.6Z" class="g2_313" />
<path d="M853.2,1078.3l0.8,0l0,-954.2l-0.8,0l0,954.2Z" class="g2_313" />
<path d="M69.9,124.1l784.1,0l0,-0.7l-784.1,0l0,0.7Z" class="g2_313" />
<path d="M69.9,147L854,147l0,-0.7l-784.1,0l0,0.7Z" class="g2_313" />
<path d="M69.9,169.9l784.1,0l0,-0.7l-784.1,0l0,0.7Z" class="g2_313" />
<path d="M69.9,192.9l784.1,0l0,-0.8l-784.1,0l0,0.8Z" class="g2_313" />
<path d="M69.9,215.8l784.1,0l0,-0.8L69.9,215l0,0.8Z" class="g2_313" />
<path d="M69.9,238.7l784.1,0l0,-0.7L69.9,238l0,0.7Z" class="g2_313" />
<path d="M69.9,261.6l784.1,0l0,-0.7l-784.1,0l0,0.7Z" class="g2_313" />
<path d="M69.9,284.5l784.1,0l0,-0.7l-784.1,0l0,0.7Z" class="g2_313" />
<path d="M69.9,307.4l784.1,0l0,-0.7l-784.1,0l0,0.7Z" class="g2_313" />
<path d="M69.9,330.4l784.1,0l0,-0.8l-784.1,0l0,0.8Z" class="g2_313" />
<path d="M69.9,353.3l784.1,0l0,-0.7l-784.1,0l0,0.7Z" class="g2_313" />
<path d="M69.9,376.2l784.1,0l0,-0.7l-784.1,0l0,0.7Z" class="g2_313" />
<path d="M69.9,399.1l784.1,0l0,-0.7l-784.1,0l0,0.7Z" class="g2_313" />
<path d="M69.9,422L854,422l0,-0.7l-784.1,0l0,0.7Z" class="g2_313" />
<path d="M69.9,444.9l784.1,0l0,-0.7l-784.1,0l0,0.7Z" class="g2_313" />
<path d="M69.9,467.9l784.1,0l0,-0.8l-784.1,0l0,0.8Z" class="g2_313" />
<path d="M69.9,490.8l784.1,0l0,-0.8L69.9,490l0,0.8Z" class="g2_313" />
<path d="M69.9,513.7l784.1,0l0,-0.7L69.9,513l0,0.7Z" class="g2_313" />
<path d="M69.9,536.6l784.1,0l0,-0.7l-784.1,0l0,0.7Z" class="g2_313" />
<path d="M69.9,559.5l784.1,0l0,-0.7l-784.1,0l0,0.7Z" class="g2_313" />
<path d="M69.9,582.4l784.1,0l0,-0.7l-784.1,0l0,0.7Z" class="g2_313" />
<path d="M69.9,605.4l784.1,0l0,-0.8l-784.1,0l0,0.8Z" class="g2_313" />
<path d="M69.9,628.3l784.1,0l0,-0.7l-784.1,0l0,0.7Z" class="g2_313" />
<path d="M69.9,651.2l784.1,0l0,-0.7l-784.1,0l0,0.7Z" class="g2_313" />
<path d="M69.9,674.1l784.1,0l0,-0.7l-784.1,0l0,0.7Z" class="g2_313" />
<path d="M69.9,697L854,697l0,-0.7l-784.1,0l0,0.7Z" class="g2_313" />
<path d="M69.9,719.9l784.1,0l0,-0.7l-784.1,0l0,0.7Z" class="g2_313" />
<path d="M69.9,742.9l784.1,0l0,-0.8l-784.1,0l0,0.8Z" class="g2_313" />
<path d="M69.9,765.8l784.1,0l0,-0.7l-784.1,0l0,0.7Z" class="g2_313" />
<path d="M69.9,788.7l784.1,0l0,-0.7L69.9,788l0,0.7Z" class="g2_313" />
<path d="M69.9,811.6l784.1,0l0,-0.7l-784.1,0l0,0.7Z" class="g2_313" />
<path d="M69.9,834.5l784.1,0l0,-0.7l-784.1,0l0,0.7Z" class="g2_313" />
<path d="M69.9,857.5l784.1,0l0,-0.8l-784.1,0l0,0.8Z" class="g2_313" />
<path d="M69.9,880.4l784.1,0l0,-0.8l-784.1,0l0,0.8Z" class="g2_313" />
<path d="M69.9,941.5l784.1,0l0,-0.7l-784.1,0l0,0.7Z" class="g2_313" />
<path d="M69.9,964.4l784.1,0l0,-0.7l-784.1,0l0,0.7Z" class="g2_313" />
<path d="M69.9,987.3l784.1,0l0,-0.7l-784.1,0l0,0.7Z" class="g2_313" />
<path d="M69.9,1010.3l784.1,0l0,-0.8l-784.1,0l0,0.8Z" class="g2_313" />
<path d="M69.9,1033.2l784.1,0l0,-0.8l-784.1,0l0,0.8Z" class="g2_313" />
<path d="M69.9,1056.1l784.1,0l0,-0.7l-784.1,0l0,0.7Z" class="g2_313" />
<path d="M69.9,1079l784.1,0l0,-0.7l-784.1,0l0,0.7Z" class="g2_313" />
</svg>