<?xml version="1.0" encoding="UTF-8" standalone="no"?>
<!DOCTYPE svg PUBLIC "-//W3C//DTD SVG 1.1//EN"
"http://www.w3.org/Graphics/SVG/1.1/DTD/svg11.dtd">
<svg viewBox="0 0 935 1210" version="1.1" xmlns="http://www.w3.org/2000/svg" xmlns:xlink="http://www.w3.org/1999/xlink">
<defs>
<style type="text/css"><![CDATA[
.g1_2048{
fill: #FFFFFF;
}
.g2_2048{
}
]]></style>
</defs>
<path d="M68.8,1149l784.5,0l0,-21.4l-784.5,0l0,21.4Z" class="g1_2048" />
<path d="M67.5,374.7l2.3,0l0,-203.9l-2.3,0l0,203.9Z" class="g2_2048" />
<path d="M67.5,603.9l2.3,0l0,-204l-2.3,0l0,204Z" class="g2_2048" />
<path d="M104,377l2.3,0l0,-208.5l-2.3,0L104,377Z" class="g2_2048" />
<path d="M104,606.2l2.3,0l0,-208.5l-2.3,0l0,208.5Z" class="g2_2048" />
<path d="M202.9,193.7l0.7,0l0,-25.2l-0.7,0l0,25.2Z" class="g2_2048" />
<path d="M202.9,238.7l0.7,0l0,-23.6l-0.7,0l0,23.6Z" class="g2_2048" />
<path d="M202.9,284.5l0.7,0l0,-23.6l-0.7,0l0,23.6Z" class="g2_2048" />
<path d="M202.9,377l0.7,0l0,-70.3l-0.7,0l0,70.3Z" class="g2_2048" />
<path d="M202.9,422.9l0.7,0l0,-25.2l-0.7,0l0,25.2Z" class="g2_2048" />
<path d="M202.9,467.9l0.7,0l0,-23.7l-0.7,0l0,23.7Z" class="g2_2048" />
<path d="M202.9,513.7l0.7,0l0,-23.7l-0.7,0l0,23.7Z" class="g2_2048" />
<path d="M202.9,606.2l0.7,0l0,-70.3l-0.7,0l0,70.3Z" class="g2_2048" />
<path d="M294.7,193.7l0.7,0l0,-25.2l-0.7,0l0,25.2Z" class="g2_2048" />
<path d="M294.7,238.7l0.7,0l0,-23.6l-0.7,0l0,23.6Z" class="g2_2048" />
<path d="M294.7,284.5l0.7,0l0,-23.6l-0.7,0l0,23.6Z" class="g2_2048" />
<path d="M294.7,377l0.7,0l0,-70.3l-0.7,0l0,70.3Z" class="g2_2048" />
<path d="M294.7,422.9l0.7,0l0,-25.2l-0.7,0l0,25.2Z" class="g2_2048" />
<path d="M294.7,467.9l0.7,0l0,-23.7l-0.7,0l0,23.7Z" class="g2_2048" />
<path d="M294.7,513.7l0.7,0l0,-23.7l-0.7,0l0,23.7Z" class="g2_2048" />
<path d="M294.7,606.2l0.7,0l0,-70.3l-0.7,0l0,70.3Z" class="g2_2048" />
<path d="M386.7,193.7l0.8,0l0,-25.2l-0.8,0l0,25.2Z" class="g2_2048" />
<path d="M386.7,238.7l0.8,0l0,-23.6l-0.8,0l0,23.6Z" class="g2_2048" />
<path d="M386.7,284.5l0.8,0l0,-23.6l-0.8,0l0,23.6Z" class="g2_2048" />
<path d="M386.7,377l0.8,0l0,-70.3l-0.8,0l0,70.3Z" class="g2_2048" />
<path d="M386.7,422.9l0.8,0l0,-25.2l-0.8,0l0,25.2Z" class="g2_2048" />
<path d="M386.7,467.9l0.8,0l0,-23.7l-0.8,0l0,23.7Z" class="g2_2048" />
<path d="M386.7,513.7l0.8,0l0,-23.7l-0.8,0l0,23.7Z" class="g2_2048" />
<path d="M386.7,606.2l0.8,0l0,-70.3l-0.8,0l0,70.3Z" class="g2_2048" />
<path d="M478.9,193.7l0.7,0l0,-25.2l-0.7,0l0,25.2Z" class="g2_2048" />
<path d="M478.9,238.7l0.7,0l0,-23.6l-0.7,0l0,23.6Z" class="g2_2048" />
<path d="M478.9,284.5l0.7,0l0,-23.6l-0.7,0l0,23.6Z" class="g2_2048" />
<path d="M478.9,377l0.7,0l0,-70.3l-0.7,0l0,70.3Z" class="g2_2048" />
<path d="M478.9,422.9l0.7,0l0,-25.2l-0.7,0l0,25.2Z" class="g2_2048" />
<path d="M478.9,467.9l0.7,0l0,-23.7l-0.7,0l0,23.7Z" class="g2_2048" />
<path d="M478.9,513.7l0.7,0l0,-23.7l-0.7,0l0,23.7Z" class="g2_2048" />
<path d="M478.9,606.2l0.7,0l0,-70.3l-0.7,0l0,70.3Z" class="g2_2048" />
<path d="M571,193.7l0.7,0l0,-25.2l-0.7,0l0,25.2Z" class="g2_2048" />
<path d="M571,238.7l0.7,0l0,-23.6l-0.7,0l0,23.6Z" class="g2_2048" />
<path d="M571,284.5l0.7,0l0,-23.6l-0.7,0l0,23.6Z" class="g2_2048" />
<path d="M571,377l0.7,0l0,-70.3l-0.7,0l0,70.3Z" class="g2_2048" />
<path d="M571,422.9l0.7,0l0,-25.2l-0.7,0l0,25.2Z" class="g2_2048" />
<path d="M571,467.9l0.7,0l0,-23.7l-0.7,0l0,23.7Z" class="g2_2048" />
<path d="M571,513.7l0.7,0l0,-23.7l-0.7,0l0,23.7Z" class="g2_2048" />
<path d="M571,606.2l0.7,0l0,-70.3l-0.7,0l0,70.3Z" class="g2_2048" />
<path d="M663.1,193.7l0.7,0l0,-25.2l-0.7,0l0,25.2Z" class="g2_2048" />
<path d="M663.1,238.7l0.7,0l0,-23.6l-0.7,0l0,23.6Z" class="g2_2048" />
<path d="M663.1,284.5l0.7,0l0,-23.6l-0.7,0l0,23.6Z" class="g2_2048" />
<path d="M663.1,377l0.7,0l0,-70.3l-0.7,0l0,70.3Z" class="g2_2048" />
<path d="M663.1,422.9l0.7,0l0,-25.2l-0.7,0l0,25.2Z" class="g2_2048" />
<path d="M663.1,467.9l0.7,0l0,-23.7l-0.7,0l0,23.7Z" class="g2_2048" />
<path d="M663.1,513.7l0.7,0l0,-23.7l-0.7,0l0,23.7Z" class="g2_2048" />
<path d="M663.1,606.2l0.7,0l0,-70.3l-0.7,0l0,70.3Z" class="g2_2048" />
<path d="M758.9,193.7l0.7,0l0,-25.2l-0.7,0l0,25.2Z" class="g2_2048" />
<path d="M758.9,238.7l0.7,0l0,-23.6l-0.7,0l0,23.6Z" class="g2_2048" />
<path d="M758.9,284.5l0.7,0l0,-23.6l-0.7,0l0,23.6Z" class="g2_2048" />
<path d="M758.9,377l0.7,0l0,-70.3l-0.7,0l0,70.3Z" class="g2_2048" />
<path d="M758.9,422.9l0.7,0l0,-25.2l-0.7,0l0,25.2Z" class="g2_2048" />
<path d="M758.9,467.9l0.7,0l0,-23.7l-0.7,0l0,23.7Z" class="g2_2048" />
<path d="M758.9,513.7l0.7,0l0,-23.7l-0.7,0l0,23.7Z" class="g2_2048" />
<path d="M758.9,606.2l0.7,0l0,-70.3l-0.7,0l0,70.3Z" class="g2_2048" />
<path d="M852.5,374.7l2.3,0l0,-203.9l-2.3,0l0,203.9Z" class="g2_2048" />
<path d="M852.5,603.9l2.3,0l0,-204l-2.3,0l0,204Z" class="g2_2048" />
<path d="M67.4,170.8l787.4,0l0,-2.3l-787.4,0l0,2.3Z" class="g2_2048" />
<path d="M67.4,193.7l787.4,0l0,-2.3l-787.4,0l0,2.3Z" class="g2_2048" />
<path d="M104,215.8l750.8,0l0,-0.8L104,215l0,0.8Z" class="g2_2048" />
<path d="M67.4,238.7l787.4,0l0,-0.7L67.4,238l0,0.7Z" class="g2_2048" />
<path d="M104,261.6l750.8,0l0,-0.7l-750.8,0l0,0.7Z" class="g2_2048" />
<path d="M67.4,284.5l787.4,0l0,-0.7l-787.4,0l0,0.7Z" class="g2_2048" />
<path d="M104,307.4l750.8,0l0,-0.7l-750.8,0l0,0.7Z" class="g2_2048" />
<path d="M67.4,330.4l787.4,0l0,-0.8l-787.4,0l0,0.8Z" class="g2_2048" />
<path d="M67.4,377l787.4,0l0,-2.3l-787.4,0l0,2.3Z" class="g2_2048" />
<path d="M67.4,399.9l787.4,0l0,-2.2l-787.4,0l0,2.2Z" class="g2_2048" />
<path d="M67.4,422.9l787.4,0l0,-2.3l-787.4,0l0,2.3Z" class="g2_2048" />
<path d="M104,444.9l750.8,0l0,-0.7l-750.8,0l0,0.7Z" class="g2_2048" />
<path d="M67.4,467.9l787.4,0l0,-0.8l-787.4,0l0,0.8Z" class="g2_2048" />
<path d="M104,490.8l750.8,0l0,-0.8L104,490l0,0.8Z" class="g2_2048" />
<path d="M67.4,513.7l787.4,0l0,-0.7L67.4,513l0,0.7Z" class="g2_2048" />
<path d="M104,536.6l750.8,0l0,-0.7l-750.8,0l0,0.7Z" class="g2_2048" />
<path d="M67.4,559.5l787.4,0l0,-0.7l-787.4,0l0,0.7Z" class="g2_2048" />
<path d="M67.4,606.2l787.4,0l0,-2.3l-787.4,0l0,2.3Z" class="g2_2048" />
<path d="M67.5,867.4l2.3,0l0,-81.7l-2.3,0l0,81.7Z" class="g2_2048" />
<path d="M166,869.7l0.7,0l0,-62.6l-0.7,0l0,62.6Z" class="g2_2048" />
<path d="M263.8,869.7l0.7,0l0,-62.6l-0.7,0l0,62.6Z" class="g2_2048" />
<path d="M361.7,869.7l0.8,0l0,-62.6l-0.8,0l0,62.6Z" class="g2_2048" />
<path d="M459.5,869.7l0.8,0l0,-62.6l-0.8,0l0,62.6Z" class="g2_2048" />
<path d="M557.4,869.7l0.8,0l0,-62.6l-0.8,0l0,62.6Z" class="g2_2048" />
<path d="M655.2,869.7l0.8,0l0,-62.6l-0.8,0l0,62.6Z" class="g2_2048" />
<path d="M753,869.7l0.8,0l0,-62.6l-0.8,0l0,62.6Z" class="g2_2048" />
<path d="M850.2,867.4l2.3,0l0,-81.7l-2.3,0l0,81.7Z" class="g2_2048" />
<path d="M67.4,785.8l785,0l0,-2.3l-785,0l0,2.3Z" class="g2_2048" />
<path d="M67.4,807.9l785,0l0,-0.8l-785,0l0,0.8Z" class="g2_2048" />
<path d="M67.4,831.6l785,0l0,-2.3l-785,0l0,2.3Z" class="g2_2048" />
<path d="M67.4,869.7l785,0l0,-2.3l-785,0l0,2.3Z" class="g2_2048" />
</svg>