<?xml version="1.0" encoding="UTF-8" standalone="no"?>
<!DOCTYPE svg PUBLIC "-//W3C//DTD SVG 1.1//EN"
"http://www.w3.org/Graphics/SVG/1.1/DTD/svg11.dtd">
<svg viewBox="0 0 935 1210" version="1.1" xmlns="http://www.w3.org/2000/svg" xmlns:xlink="http://www.w3.org/1999/xlink">
<defs>
<style type="text/css"><![CDATA[
.g1_1831{
fill: #FFFFFF;
}
.g2_1831{
}
]]></style>
</defs>
<path d="M68.9,1149.3l686.3,0l0,-21.2l-686.3,0l0,21.2Z" class="g1_1831" />
<path d="M771.3,1149.3l83.7,0l0,-21.2l-83.7,0l0,21.2Z" class="g1_1831" />
<path d="M69.9,436.6l0.8,0l0,-310.9l-0.8,0l0,310.9Z" class="g2_1831" />
<path d="M295.6,437.3l0.8,0l0,-312.4l-0.8,0l0,312.4Z" class="g2_1831" />
<path d="M339.7,437.3l0.7,0l0,-312.4l-0.7,0l0,312.4Z" class="g2_1831" />
<path d="M414.1,437.3l0.8,0l0,-312.4l-0.8,0l0,312.4Z" class="g2_1831" />
<path d="M500.1,437.3l0.8,0l0,-312.4l-0.8,0l0,312.4Z" class="g2_1831" />
<path d="M856.5,436.6l0.8,0l0,-310.9l-0.8,0l0,310.9Z" class="g2_1831" />
<path d="M69.9,125.7l787.4,0l0,-0.8l-787.4,0l0,0.8Z" class="g2_1831" />
<path d="M69.9,176.1l787.4,0l0,-0.7l-787.4,0l0,0.7Z" class="g2_1831" />
<path d="M69.9,263.2l787.4,0l0,-0.8l-787.4,0l0,0.8Z" class="g2_1831" />
<path d="M69.9,350.3l787.4,0l0,-0.8l-787.4,0l0,0.8Z" class="g2_1831" />
<path d="M69.9,437.3l787.4,0l0,-0.7l-787.4,0l0,0.7Z" class="g2_1831" />
<path d="M67.8,540.5l0.8,0l0,-48.2l-0.8,0l0,48.2Z" class="g2_1831" />
<path d="M224.7,541.2l0.7,0l0,-49.6l-0.7,0l0,49.6Z" class="g2_1831" />
<path d="M369.5,541.2l0.7,0l0,-49.6l-0.7,0l0,49.6Z" class="g2_1831" />
<path d="M575.9,541.2l0.8,0l0,-49.6l-0.8,0l0,49.6Z" class="g2_1831" />
<path d="M722.3,541.2l0.8,0l0,-49.6l-0.8,0l0,49.6Z" class="g2_1831" />
<path d="M854.2,540.5l0.7,0l0,-48.2l-0.7,0l0,48.2Z" class="g2_1831" />
<path d="M67.8,492.3l787.1,0l0,-0.7l-787.1,0l0,0.7Z" class="g2_1831" />
<path d="M67.8,516.8l787.1,0l0,-0.7l-787.1,0l0,0.7Z" class="g2_1831" />
<path d="M67.8,541.2l787.1,0l0,-0.7l-787.1,0l0,0.7Z" class="g2_1831" />
</svg>