<?xml version="1.0" encoding="UTF-8" standalone="no"?>
<!DOCTYPE svg PUBLIC "-//W3C//DTD SVG 1.1//EN"
"http://www.w3.org/Graphics/SVG/1.1/DTD/svg11.dtd">
<svg viewBox="0 0 935 1210" version="1.1" xmlns="http://www.w3.org/2000/svg" xmlns:xlink="http://www.w3.org/1999/xlink">
<defs>
<style type="text/css"><![CDATA[
.g1_485{
fill: #FFFFFF;
}
.g2_485{
}
]]></style>
</defs>
<path d="M68.9,1149.3l686.3,0l0,-21.2l-686.3,0l0,21.2Z" class="g1_485" />
<path d="M771.3,1149.3l83.7,0l0,-21.2l-83.7,0l0,21.2Z" class="g1_485" />
<path d="M71.1,225.8l0.8,0l0,-94l-0.8,0l0,94Z" class="g2_485" />
<path d="M206.1,226.5l0.7,0l0,-95.5l-0.7,0l0,95.5Z" class="g2_485" />
<path d="M345.1,226.5l0.8,0l0,-95.5l-0.8,0l0,95.5Z" class="g2_485" />
<path d="M403.9,226.5l0.7,0l0,-95.5l-0.7,0l0,95.5Z" class="g2_485" />
<path d="M483.5,226.5l0.8,0l0,-95.5l-0.8,0l0,95.5Z" class="g2_485" />
<path d="M850.8,225.8l0.8,0l0,-94l-0.8,0l0,94Z" class="g2_485" />
<path d="M71.1,131.7l780.6,0l0,-0.7L71.1,131l0,0.7Z" class="g2_485" />
<path d="M71.1,169.9l780.6,0l0,-0.7l-780.6,0l0,0.7Z" class="g2_485" />
<path d="M71.1,226.5l780.6,0l0,-0.7l-780.6,0l0,0.7Z" class="g2_485" />
<path d="M70.9,625.3l2.3,0l0,-204l-2.3,0l0,204Z" class="g2_485" />
<path d="M319.5,627.6l2.3,0l0,-208.6l-2.3,0l0,208.6Z" class="g2_485" />
<path d="M584.6,467.1l2.2,0l0,-25.2l-2.2,0l0,25.2Z" class="g2_485" />
<path d="M585.3,627.6l0.7,0l0,-162.8l-0.7,0l0,162.8Z" class="g2_485" />
<path d="M849.7,625.3l2.3,0l0,-204l-2.3,0l0,204Z" class="g2_485" />
<path d="M70.9,421.4l781,0l0,-2.3l-781,0l0,2.3Z" class="g2_485" />
<path d="M70.9,444.3l781,0l0,-2.3l-781,0l0,2.3Z" class="g2_485" />
<path d="M70.9,467.2l781,0l0,-2.3l-781,0l0,2.3Z" class="g2_485" />
<path d="M70.9,489.3l781,0l0,-0.7l-781,0l0,0.7Z" class="g2_485" />
<path d="M70.9,512.2l781,0l0,-0.7l-781,0l0,0.7Z" class="g2_485" />
<path d="M70.9,535.2l781,0l0,-0.8l-781,0l0,0.8Z" class="g2_485" />
<path d="M70.9,558.1l781,0l0,-0.8l-781,0l0,0.8Z" class="g2_485" />
<path d="M70.9,581l781,0l0,-0.8l-781,0l0,0.8Z" class="g2_485" />
<path d="M70.9,603.9l781,0l0,-0.7l-781,0l0,0.7Z" class="g2_485" />
<path d="M70.9,627.6l781,0l0,-2.2l-781,0l0,2.2Z" class="g2_485" />
</svg>