<?xml version="1.0" encoding="UTF-8" standalone="no"?>
<!DOCTYPE svg PUBLIC "-//W3C//DTD SVG 1.1//EN"
"http://www.w3.org/Graphics/SVG/1.1/DTD/svg11.dtd">
<svg viewBox="0 0 935 1210" version="1.1" xmlns="http://www.w3.org/2000/svg" xmlns:xlink="http://www.w3.org/1999/xlink">
<defs>
<style type="text/css"><![CDATA[
.g1_832{
fill: #FFFFFF;
}
.g2_832{
}
]]></style>
</defs>
<path d="M165,1149.3l687.5,0l0,-21.2l-687.5,0l0,21.2Z" class="g1_832" />
<path d="M68.8,1149.3l82.5,0l0,-21.2l-82.5,0l0,21.2Z" class="g1_832" />
<path d="M67.8,1076.7l0.8,0l0,-944.9l-0.8,0l0,944.9Z" class="g2_832" />
<path d="M384.8,1077.5l0.8,0l0,-946.5l-0.8,0l0,946.5Z" class="g2_832" />
<path d="M422.7,1077.5l0.7,0l0,-946.5l-0.7,0l0,946.5Z" class="g2_832" />
<path d="M496,1077.5l0.7,0l0,-946.5l-0.7,0l0,946.5Z" class="g2_832" />
<path d="M574.3,1077.5l0.7,0L575,131l-0.7,0l0,946.5Z" class="g2_832" />
<path d="M852.6,1076.7l0.7,0l0,-944.9l-0.7,0l0,944.9Z" class="g2_832" />
<path d="M67.8,131.7l785.5,0l0,-0.7L67.8,131l0,0.7Z" class="g2_832" />
<path d="M67.8,185.3l785.5,0l0,-0.8l-785.5,0l0,0.8Z" class="g2_832" />
<path d="M67.8,229.5l785.5,0l0,-0.7l-785.5,0l0,0.7Z" class="g2_832" />
<path d="M67.8,286.1l785.5,0l0,-0.7l-785.5,0l0,0.7Z" class="g2_832" />
<path d="M67.8,342.6l785.5,0l0,-0.8l-785.5,0l0,0.8Z" class="g2_832" />
<path d="M67.8,399.1l785.5,0l0,-0.7l-785.5,0l0,0.7Z" class="g2_832" />
<path d="M67.8,455.7l785.5,0l0,-0.8l-785.5,0l0,0.8Z" class="g2_832" />
<path d="M67.8,512.2l785.5,0l0,-0.7l-785.5,0l0,0.7Z" class="g2_832" />
<path d="M67.8,568.7l785.5,0l0,-0.7L67.8,568l0,0.7Z" class="g2_832" />
<path d="M67.8,625.3l785.5,0l0,-0.8l-785.5,0l0,0.8Z" class="g2_832" />
<path d="M67.8,681.8l785.5,0l0,-0.7l-785.5,0l0,0.7Z" class="g2_832" />
<path d="M67.8,738.3l785.5,0l0,-0.8l-785.5,0l0,0.8Z" class="g2_832" />
<path d="M67.8,794.8l785.5,0l0,-0.7l-785.5,0l0,0.7Z" class="g2_832" />
<path d="M67.8,851.4l785.5,0l0,-0.7l-785.5,0l0,0.7Z" class="g2_832" />
<path d="M67.8,907.9l785.5,0l0,-0.8l-785.5,0l0,0.8Z" class="g2_832" />
<path d="M67.8,964.4l785.5,0l0,-0.7l-785.5,0l0,0.7Z" class="g2_832" />
<path d="M67.8,1021l785.5,0l0,-0.7l-785.5,0l0,0.7Z" class="g2_832" />
<path d="M67.8,1077.5l785.5,0l0,-0.8l-785.5,0l0,0.8Z" class="g2_832" />
</svg>