<?xml version="1.0" encoding="UTF-8" standalone="no"?>
<!DOCTYPE svg PUBLIC "-//W3C//DTD SVG 1.1//EN"
"http://www.w3.org/Graphics/SVG/1.1/DTD/svg11.dtd">
<svg viewBox="0 0 935 1210" version="1.1" xmlns="http://www.w3.org/2000/svg" xmlns:xlink="http://www.w3.org/1999/xlink">
<defs>
<style type="text/css"><![CDATA[
.g1_2014{
fill: #FFFFFF;
}
.g2_2014{
}
]]></style>
</defs>
<path d="M165,1149.3l687.5,0l0,-21.2l-687.5,0l0,21.2Z" class="g1_2014" />
<path d="M68.8,1149.3l82.5,0l0,-21.2l-82.5,0l0,21.2Z" class="g1_2014" />
<path d="M69.1,369.3l0.8,0l0,-237.5l-0.8,0l0,237.5Z" class="g2_2014" />
<path d="M177.3,370.2l0.7,0L178,131l-0.7,0l0,239.2Z" class="g2_2014" />
<path d="M298.3,370.2l0.7,0L299,131l-0.7,0l0,239.2Z" class="g2_2014" />
<path d="M851.3,369.3l0.7,0l0,-237.5l-0.7,0l0,237.5Z" class="g2_2014" />
<path d="M69.1,131.7l782.9,0l0,-0.7L69.1,131l0,0.7Z" class="g2_2014" />
<path d="M69.1,160.8l782.9,0l0,-0.7l-782.9,0l0,0.7Z" class="g2_2014" />
<path d="M69.1,240.3l782.9,0l0,-0.8l-782.9,0l0,0.8Z" class="g2_2014" />
<path d="M69.1,341.1l782.9,0l0,-0.7l-782.9,0l0,0.7Z" class="g2_2014" />
<path d="M69.1,370.1l782.9,0l0,-0.8l-782.9,0l0,0.8Z" class="g2_2014" />
</svg>