<?xml version="1.0" encoding="UTF-8" standalone="no"?>
<!DOCTYPE svg PUBLIC "-//W3C//DTD SVG 1.1//EN"
"http://www.w3.org/Graphics/SVG/1.1/DTD/svg11.dtd">
<svg viewBox="0 0 935 1210" version="1.1" xmlns="http://www.w3.org/2000/svg" xmlns:xlink="http://www.w3.org/1999/xlink">
<defs>
<style type="text/css"><![CDATA[
.g1_1980{
fill: #FFFFFF;
}
.g2_1980{
}
]]></style>
</defs>
<path d="M165,1149.3l687.5,0l0,-21.2l-687.5,0l0,21.2Z" class="g1_1980" />
<path d="M68.8,1149.3l82.5,0l0,-21.2l-82.5,0l0,21.2Z" class="g1_1980" />
<path d="M68.6,215.1l0.7,0l0,-89.4l-0.7,0l0,89.4Z" class="g2_1980" />
<path d="M260.9,215.8l0.7,0l0,-90.9l-0.7,0l0,90.9Z" class="g2_1980" />
<path d="M302.9,215.8l0.7,0l0,-90.9l-0.7,0l0,90.9Z" class="g2_1980" />
<path d="M377.4,215.8l0.7,0l0,-90.9l-0.7,0l0,90.9Z" class="g2_1980" />
<path d="M444.9,215.8l0.8,0l0,-90.9l-0.8,0l0,90.9Z" class="g2_1980" />
<path d="M851.8,215.1l0.7,0l0,-89.4l-0.7,0l0,89.4Z" class="g2_1980" />
<path d="M68.6,125.7l783.9,0l0,-0.8l-783.9,0l0,0.8Z" class="g2_1980" />
<path d="M68.6,179.1l783.9,0l0,-0.7l-783.9,0l0,0.7Z" class="g2_1980" />
<path d="M68.6,215.8l783.9,0l0,-0.8L68.6,215l0,0.8Z" class="g2_1980" />
<path d="M69.7,318.9l0.7,0l0,-48.1l-0.7,0l0,48.1Z" class="g2_1980" />
<path d="M137.7,319.7l0.7,0l0,-49.6l-0.7,0l0,49.6Z" class="g2_1980" />
<path d="M306.7,319.7l0.8,0l0,-49.6l-0.8,0l0,49.6Z" class="g2_1980" />
<path d="M487.6,319.7l0.7,0l0,-49.6l-0.7,0l0,49.6Z" class="g2_1980" />
<path d="M664,319.7l0.8,0l0,-49.6l-0.8,0l0,49.6Z" class="g2_1980" />
<path d="M850.8,318.9l0.7,0l0,-48.1l-0.7,0l0,48.1Z" class="g2_1980" />
<path d="M69.7,270.8l781.8,0l0,-0.7l-781.8,0l0,0.7Z" class="g2_1980" />
<path d="M69.7,295.3l781.8,0l0,-0.8l-781.8,0l0,0.8Z" class="g2_1980" />
<path d="M69.7,319.6l781.8,0l0,-0.7l-781.8,0l0,0.7Z" class="g2_1980" />
</svg>