<?xml version="1.0" encoding="UTF-8" standalone="no"?>
<!DOCTYPE svg PUBLIC "-//W3C//DTD SVG 1.1//EN"
"http://www.w3.org/Graphics/SVG/1.1/DTD/svg11.dtd">
<svg viewBox="0 0 935 1210" version="1.1" xmlns="http://www.w3.org/2000/svg" xmlns:xlink="http://www.w3.org/1999/xlink">
<defs>
<style type="text/css"><![CDATA[
.g1_455{
fill: #FFFFFF;
}
.g2_455{
}
]]></style>
</defs>
<path d="M68.9,1149.3l686.3,0l0,-21.2l-686.3,0l0,21.2Z" class="g1_455" />
<path d="M771.3,1149.3l83.7,0l0,-21.2l-83.7,0l0,21.2Z" class="g1_455" />
<path d="M70.9,260.9l0.8,0l0,-129.1l-0.8,0l0,129.1Z" class="g2_455" />
<path d="M209.4,261.6l0.7,0l0,-130.6l-0.7,0l0,130.6Z" class="g2_455" />
<path d="M339.3,261.6l0.7,0L340,131l-0.7,0l0,130.6Z" class="g2_455" />
<path d="M400.9,261.6l0.7,0l0,-130.6l-0.7,0l0,130.6Z" class="g2_455" />
<path d="M479.7,261.6l0.7,0l0,-130.6l-0.7,0l0,130.6Z" class="g2_455" />
<path d="M851,260.9l0.8,0l0,-129.1l-0.8,0l0,129.1Z" class="g2_455" />
<path d="M70.9,131.7l781,0l0,-0.7l-781,0l0,0.7Z" class="g2_455" />
<path d="M70.9,169.9l781,0l0,-0.7l-781,0l0,0.7Z" class="g2_455" />
<path d="M70.9,192.9l781,0l0,-0.8l-781,0l0,0.8Z" class="g2_455" />
<path d="M70.9,215.8l781,0l0,-0.8l-781,0l0,0.8Z" class="g2_455" />
<path d="M70.9,238.7l781,0l0,-0.7l-781,0l0,0.7Z" class="g2_455" />
<path d="M70.9,261.6l781,0l0,-0.7l-781,0l0,0.7Z" class="g2_455" />
</svg>