<?xml version="1.0" encoding="UTF-8" standalone="no"?>
<!DOCTYPE svg PUBLIC "-//W3C//DTD SVG 1.1//EN"
"http://www.w3.org/Graphics/SVG/1.1/DTD/svg11.dtd">
<svg viewBox="0 0 935 1210" version="1.1" xmlns="http://www.w3.org/2000/svg" xmlns:xlink="http://www.w3.org/1999/xlink">
<defs>
<style type="text/css"><![CDATA[
.g1_808{
fill: #FFFFFF;
}
.g2_808{
}
]]></style>
</defs>
<path d="M165,1149.3l687.5,0l0,-21.2l-687.5,0l0,21.2Z" class="g1_808" />
<path d="M68.8,1149.3l82.5,0l0,-21.2l-82.5,0l0,21.2Z" class="g1_808" />
<path d="M68.6,251.7l0.7,0l0,-126l-0.7,0l0,126Z" class="g2_808" />
<path d="M266.4,252.4l0.7,0l0,-127.5l-0.7,0l0,127.5Z" class="g2_808" />
<path d="M317.8,252.4l0.7,0l0,-127.5l-0.7,0l0,127.5Z" class="g2_808" />
<path d="M376.2,252.4l0.7,0l0,-127.5l-0.7,0l0,127.5Z" class="g2_808" />
<path d="M443.8,252.4l0.8,0l0,-127.5l-0.8,0l0,127.5Z" class="g2_808" />
<path d="M860.9,251.7l0.8,0l0,-126l-0.8,0l0,126Z" class="g2_808" />
<path d="M68.6,125.7l793.1,0l0,-0.8l-793.1,0l0,0.8Z" class="g2_808" />
<path d="M68.6,179.1l793.1,0l0,-0.7l-793.1,0l0,0.7Z" class="g2_808" />
<path d="M68.6,215.8l793.1,0l0,-0.8L68.6,215l0,0.8Z" class="g2_808" />
<path d="M68.6,252.4l793.1,0l0,-0.7l-793.1,0l0,0.7Z" class="g2_808" />
<path d="M70.2,372.4l0.8,0l0,-64.9l-0.8,0l0,64.9Z" class="g2_808" />
<path d="M131.4,373.2l0.7,0l0,-66.5l-0.7,0l0,66.5Z" class="g2_808" />
<path d="M305.5,373.2l0.8,0l0,-66.5l-0.8,0l0,66.5Z" class="g2_808" />
<path d="M476.8,373.2l0.7,0l0,-66.5l-0.7,0l0,66.5Z" class="g2_808" />
<path d="M660,373.2l0.7,0l0,-66.5l-0.7,0l0,66.5Z" class="g2_808" />
<path d="M850.1,372.4l0.7,0l0,-64.9l-0.7,0l0,64.9Z" class="g2_808" />
<path d="M70.2,307.4l780.7,0l0,-0.7l-780.7,0l0,0.7Z" class="g2_808" />
<path d="M70.2,331.9l780.7,0l0,-0.7l-780.7,0l0,0.7Z" class="g2_808" />
<path d="M70.2,373.2l780.7,0l0,-0.8l-780.7,0l0,0.8Z" class="g2_808" />
</svg>