<?xml version="1.0" encoding="UTF-8" standalone="no"?>
<!DOCTYPE svg PUBLIC "-//W3C//DTD SVG 1.1//EN"
"http://www.w3.org/Graphics/SVG/1.1/DTD/svg11.dtd">
<svg viewBox="0 0 935 1210" version="1.1" xmlns="http://www.w3.org/2000/svg" xmlns:xlink="http://www.w3.org/1999/xlink">
<defs>
<style type="text/css"><![CDATA[
.g1_1716{
fill: #FFFFFF;
}
.g2_1716{
}
]]></style>
</defs>
<path d="M165,1149.3l687.5,0l0,-21.2l-687.5,0l0,21.2Z" class="g1_1716" />
<path d="M68.8,1149.3l82.5,0l0,-21.2l-82.5,0l0,21.2Z" class="g1_1716" />
<path d="M68.6,231.8l0.7,0l0,-106.1l-0.7,0l0,106.1Z" class="g2_1716" />
<path d="M379.9,232.7l0.7,0l0,-107.8l-0.7,0l0,107.8Z" class="g2_1716" />
<path d="M429.7,232.7l0.8,0l0,-107.8l-0.8,0l0,107.8Z" class="g2_1716" />
<path d="M488.2,232.7l0.8,0l0,-107.8l-0.8,0l0,107.8Z" class="g2_1716" />
<path d="M555.8,232.7l0.7,0l0,-107.8l-0.7,0l0,107.8Z" class="g2_1716" />
<path d="M849.8,231.8l0.8,0l0,-106.1l-0.8,0l0,106.1Z" class="g2_1716" />
<path d="M68.6,125.7l782,0l0,-0.8l-782,0l0,0.8Z" class="g2_1716" />
<path d="M68.6,179.1l782,0l0,-0.7l-782,0l0,0.7Z" class="g2_1716" />
<path d="M68.6,232.6l782,0l0,-0.8l-782,0l0,0.8Z" class="g2_1716" />
<path d="M70.9,335.8l0.7,0l0,-48.1l-0.7,0l0,48.1Z" class="g2_1716" />
<path d="M146.8,336.5l0.7,0l0,-49.7l-0.7,0l0,49.7Z" class="g2_1716" />
<path d="M322.1,336.5l0.7,0l0,-49.7l-0.7,0l0,49.7Z" class="g2_1716" />
<path d="M497.7,336.5l0.8,0l0,-49.7l-0.8,0l0,49.7Z" class="g2_1716" />
<path d="M669.3,336.5l0.8,0l0,-49.7l-0.8,0l0,49.7Z" class="g2_1716" />
<path d="M849.6,335.8l0.7,0l0,-48.1l-0.7,0l0,48.1Z" class="g2_1716" />
<path d="M70.8,287.6l779.5,0l0,-0.8l-779.5,0l0,0.8Z" class="g2_1716" />
<path d="M70.8,312l779.5,0l0,-0.7l-779.5,0l0,0.7Z" class="g2_1716" />
<path d="M70.8,336.5l779.5,0l0,-0.7l-779.5,0l0,0.7Z" class="g2_1716" />
<path fill-rule="evenodd" d="M388.3,699.4l0.1,0.3l0.2,0.3l0.5,0.3l0.3,0.1l0.6,0l0.5,-0.2l0.3,-0.1l0.2,-0.3l0.1,-0.2l0.1,-0.3l0,-0.6l-0.1,-0.3l0,-0.3c-0.8,-1.2,-2.9,-0.8,-2.9,0.8l0,0.2l0.1,0.3Z" class="g2_1716" />
<path d="M389.8,699l2.2,6.1l0.1,1l-0.9,0.1l-23.7,1.7l-2.7,0.1l2.1,-1.5l19.3,-14.1l0.9,-0.6l0.4,0.9l-0.3,0.9l-19.3,14.1l-1,-1.2l0.5,-0.2l23.7,-1.7l0.1,1.6l-0.7,-0.5l-2.2,-6.2Z" class="g2_1716" />
<path d="M387.5,692.7l2.3,6.3l-1.5,0.5L386,693.3Z" class="g2_1716" />
<path fill-rule="evenodd" d="M389,699.2l2.2,6.2L367.5,707l19.2,-14Z" class="g2_1716" />
<path d="M592.4,626.9l-1.1,-2.8l-202,73.5l1,2.8Z" class="g2_1716" />
<path d="M478.3,625.4l226.9,0l0,-20.6l-226.9,0l0,20.6Z" class="g1_1716" />
<path d="M478.3,605.2l227.3,0l0,-0.7l-227.3,0l0,0.7Z" class="g2_1716" />
<path d="M704.8,625.8l0.8,0l0,-21l-0.8,0l0,21Z" class="g2_1716" />
<path d="M477.9,625.8l227.3,0l0,-0.7l-227.3,0l0,0.7Z" class="g2_1716" />
<path d="M477.9,625.4l0.8,0l0,-20.9l-0.8,0l0,20.9Z" class="g2_1716" />
<path fill-rule="evenodd" d="M591.8,683.1l0.5,-0.2c1.4,-0.4,1.2,-2.7,-0.2,-2.8L591.8,680l-0.4,0.1c-1.4,0.1,-1.6,2.4,-0.2,2.8l0.2,0.1l0.4,0.1Z" class="g2_1716" />
<path d="M591.8,681.5l7.5,0l-0.3,1.1l-6.5,22.9l-0.7,2.5l-0.7,-2.5l-6.6,-22.9l-0.3,-1.1l1,0l0.7,0.6l6.6,22.9l-1.4,0.5l0,-0.5l6.5,-22.9l1.4,0.5l-0.7,0.5l-6.5,0Z" class="g2_1716" />
<path d="M585.2,683.1l6.6,0l0,-1.6l-6.6,0l0,1.6Z" class="g2_1716" />
<path fill-rule="evenodd" d="M591.8,682.3l6.5,0l-6.5,22.9l-6.6,-22.9Z" class="g2_1716" />
<path d="M590.3,681.5l3.1,0l0,-56.1l-3.1,0l0,56.1Z" class="g2_1716" />
<path fill-rule="evenodd" d="M568.3,699.4l0.1,-0.3l0,-0.2c0,-1.6,-2,-2,-2.8,-0.8l-0.1,0.3l-0.1,0.3l0,0.6l0.2,0.3l0.1,0.2l0.2,0.3l0.2,0.1l0.6,0.2l0.6,0l0.3,-0.1l0.2,-0.1l0.3,-0.2l0.1,-0.3l0.1,-0.3Z" class="g2_1716" />
<path d="M566.9,699l2.3,-6.3l0.4,-0.9l0.8,0.6l19.3,14.1l2.1,1.5l-2.7,-0.1l-23.7,-1.7l-1,-0.1l0.3,-1l0.8,-0.5l23.7,1.7l-0.1,1.6l-0.4,-0.2L569.4,693.6l1,-1.2l0.2,0.9l-2.3,6.2Z" class="g2_1716" />
<path d="M564.7,705.1l2.2,-6.1l1.4,0.5l-2.2,6.1Z" class="g2_1716" />
<path fill-rule="evenodd" d="M567.6,699.2l2.3,-6.2l19.2,14l-23.7,-1.6Z" class="g2_1716" />
<path d="M365.5,624.1l-1,2.8l202,73.5l1,-2.8Z" class="g2_1716" />
<path fill-rule="evenodd" d="M364.9,683.1l0.6,-0.2c1.3,-0.4,1.1,-2.7,-0.3,-2.8L364.9,680l-0.3,0.1c-1.5,0.1,-1.7,2.4,-0.3,2.8l0.3,0.1l0.3,0.1Z" class="g2_1716" />
<path d="M364.9,681.5l7.5,0l-0.2,1.1l-6.5,22.9l-0.8,2.5l-0.7,-2.5l-6.6,-22.9l-0.3,-1.1l1,0l0.8,0.6l6.6,22.9l-1.5,0.5l0,-0.5l6.5,-22.9l1.5,0.5l-0.8,0.5l-6.5,0Z" class="g2_1716" />
<path d="M358.3,683.1l6.6,0l0,-1.6l-6.6,0l0,1.6Z" class="g2_1716" />
<path fill-rule="evenodd" d="M364.9,682.3l6.5,0l-6.5,22.9l-6.6,-22.9Z" class="g2_1716" />
<path d="M363.5,681.5l3,0l0,-56.1l-3,0l0,56.1Z" class="g2_1716" />
<path d="M251.4,625.4l226.9,0l0,-20.6l-226.9,0l0,20.6Z" class="g1_1716" />
<path d="M251.4,605.2l227.3,0l0,-0.7l-227.3,0l0,0.7Z" class="g2_1716" />
<path d="M477.9,625.8l0.8,0l0,-21l-0.8,0l0,21Z" class="g2_1716" />
<path d="M251.1,625.8l227.2,0l0,-0.7l-227.2,0l0,0.7Z" class="g2_1716" />
<path d="M251.1,625.4l0.7,0l0,-20.9l-0.7,0l0,20.9Z" class="g2_1716" />
<path d="M478.3,728.6l226.9,0l0,-20.7l-226.9,0l0,20.7Z" class="g1_1716" />
<path d="M478.3,708.3l227.3,0l0,-0.7l-227.3,0l0,0.7Z" class="g2_1716" />
<path d="M704.8,728.9l0.8,0l0,-21l-0.8,0l0,21Z" class="g2_1716" />
<path d="M477.9,728.9l227.3,0l0,-0.7l-227.3,0l0,0.7Z" class="g2_1716" />
<path d="M477.9,728.6l0.8,0l0,-21l-0.8,0l0,21Z" class="g2_1716" />
<path d="M251.4,728.6l226.9,0l0,-20.7l-226.9,0l0,20.7Z" class="g1_1716" />
<path d="M251.4,708.3l227.3,0l0,-0.7l-227.3,0l0,0.7Z" class="g2_1716" />
<path d="M477.9,728.9l0.8,0l0,-21l-0.8,0l0,21Z" class="g2_1716" />
<path d="M251.1,728.9l227.2,0l0,-0.7l-227.2,0l0,0.7Z" class="g2_1716" />
<path d="M251.1,728.6l0.7,0l0,-21l-0.7,0l0,21Z" class="g2_1716" />
<path d="M478.3,560.2l226.9,0l0,-20.6l-226.9,0l0,20.6Z" class="g1_1716" />
<path d="M478.3,539.9l227.3,0l0,-0.7l-227.3,0l0,0.7Z" class="g2_1716" />
<path d="M704.8,560.5l0.8,0l0,-20.9l-0.8,0l0,20.9Z" class="g2_1716" />
<path d="M477.9,560.5l227.3,0l0,-0.7l-227.3,0l0,0.7Z" class="g2_1716" />
<path d="M477.9,560.2l0.8,0l0,-21l-0.8,0l0,21Z" class="g2_1716" />
<path d="M251.4,560.2l226.9,0l0,-20.6l-226.9,0l0,20.6Z" class="g1_1716" />
<path d="M251.4,539.9l227.3,0l0,-0.7l-227.3,0l0,0.7Z" class="g2_1716" />
<path d="M477.9,560.5l0.8,0l0,-20.9l-0.8,0l0,20.9Z" class="g2_1716" />
<path d="M251.1,560.5l227.2,0l0,-0.7l-227.2,0l0,0.7Z" class="g2_1716" />
<path d="M251.1,560.2l0.7,0l0,-21l-0.7,0l0,21Z" class="g2_1716" />
<path fill-rule="evenodd" d="M602.1,684.8l0.3,0l0.3,-0.1l0.2,-0.2l0.3,-0.2l0.1,-0.2l0.2,-0.3l0.1,-0.2l0,-0.7c-0.2,-0.7,-0.5,-0.7,-0.9,-1.1l-0.3,-0.1l-0.6,0l-0.3,0.1l-0.5,0.4l-0.2,0.2l-0.1,0.2l-0.1,0.3l0,0.7l0.1,0.2l0.1,0.3l0.2,0.2l0.5,0.4l0.3,0.1l0.3,0Z" class="g2_1716" />
<path d="M602.1,683.3l7.6,0l-0.3,1l-6.6,22.9l-0.7,2.6l-0.8,-2.6l-6.5,-22.9l-0.3,-1l1.1,0l0.7,0.5l6.5,22.9l-1.5,0.5l0,-0.5l6.6,-22.9l1.5,0.5l-0.7,0.5l-6.6,0Z" class="g2_1716" />
<path d="M595.6,684.8l6.5,0l0,-1.5l-6.5,0l0,1.5Z" class="g2_1716" />
<path fill-rule="evenodd" d="M602.1,684l6.6,0l-6.6,22.9L595.6,684Z" class="g2_1716" />
<path d="M600.6,683.3l3,0l0,-123.1l-3,0l0,123.1Z" class="g2_1716" />
<path fill-rule="evenodd" d="M354.6,684.8l0.2,0l0.4,-0.1l0.2,-0.2l0.3,-0.2l0.2,-0.2l0.1,-0.5l0.1,-0.3L356,682.9l-0.1,-0.5l-0.2,-0.2L355.4,682l-0.2,-0.2l-0.4,-0.1l-0.5,0c-1.5,0.4,-1.7,2.3,-0.3,3l0.3,0.1l0.3,0Z" class="g2_1716" />
<path d="M354.6,683.3l7.6,0l-0.3,1l-6.6,22.9l-0.7,2.6l-0.8,-2.6l-6.6,-22.9l-0.2,-1l1,0l0.7,0.5l6.6,22.9l-1.5,0.5l0,-0.5l6.6,-22.9l1.5,0.5l-0.7,0.5l-6.6,0Z" class="g2_1716" />
<path d="M348,684.8l6.6,0l0,-1.5l-6.6,0l0,1.5Z" class="g2_1716" />
<path fill-rule="evenodd" d="M354.6,684l6.6,0l-6.6,22.9L348,684Z" class="g2_1716" />
<path d="M353.1,683.3l3,0l0,-123.1l-3,0l0,123.1Z" class="g2_1716" />
<path fill-rule="evenodd" d="M565.5,691.3l0.2,-0.5c0.2,-1.5,-1.6,-2.3,-2.7,-1.3l-0.2,0.3l-0.1,0.3c-0.5,1.3,1.2,2.6,2.3,1.7l0.3,-0.2l0.2,-0.3Z" class="g2_1716" />
<path d="M564.2,690.6l3.4,-5.6l0.5,-0.9l0.8,0.8l16,17.7l1.8,2l-2.6,-0.8l-22.9,-6.5l-1,-0.3l0.5,-0.8l0.9,-0.4l22.9,6.6l-0.4,1.4l-0.4,-0.2l-16,-17.7l1.2,-1l0.1,1l-3.4,5.5Z" class="g2_1716" />
<path d="M560.7,696.2l3.5,-5.6l1.4,0.8l-3.5,5.6Z" class="g2_1716" />
<path fill-rule="evenodd" d="M564.9,691l3.3,-5.6l16.1,17.7l-22.9,-6.5Z" class="g2_1716" />
<path d="M355.4,558.9l-1.6,2.6L563.5,691.8l1.5,-2.6Z" class="g2_1716" />
<path fill-rule="evenodd" d="M386.2,691.5l0.2,0.3l0.2,0.2l0.2,0.2l0.3,0.1l0.6,0l0.3,-0.1l0.3,-0.1l0.4,-0.4l0.2,-0.3l0.1,-0.5l-0.1,-0.4l0,-0.2l-0.3,-0.6c-1.1,-1,-2.8,-0.1,-2.7,1.3l0.1,0.3l0.2,0.2Z" class="g2_1716" />
<path d="M387.5,690.8l3.4,5.6l0.4,0.9l-0.9,0.2l-23,6.3l-2.6,0.8l1.8,-2l16.2,-17.5l0.7,-0.8l0.6,0.9l-0.1,0.9l-16.2,17.5l-1.2,-1l0.4,-0.2L390,696l0.4,1.5l-0.9,-0.3l-3.4,-5.6Z" class="g2_1716" />
<path d="M384.1,685.2l3.4,5.6l-1.4,0.8L382.7,686Z" class="g2_1716" />
<path fill-rule="evenodd" d="M386.8,691.2l3.4,5.6l-23,6.3l16.2,-17.5Z" class="g2_1716" />
<path d="M602.9,561.5l-1.6,-2.6L386.7,689.5l1.6,2.6Z" class="g2_1716" />
</svg>