<?xml version="1.0" encoding="UTF-8" standalone="no"?>
<!DOCTYPE svg PUBLIC "-//W3C//DTD SVG 1.1//EN"
"http://www.w3.org/Graphics/SVG/1.1/DTD/svg11.dtd">
<svg viewBox="0 0 935 1210" version="1.1" xmlns="http://www.w3.org/2000/svg" xmlns:xlink="http://www.w3.org/1999/xlink">
<defs>
<style type="text/css"><![CDATA[
.g1_1182{
fill: #FFFFFF;
}
.g2_1182{
}
]]></style>
</defs>
<path d="M165,1149.3l687.5,0l0,-21.2l-687.5,0l0,21.2Z" class="g1_1182" />
<path d="M68.8,1149.3l82.5,0l0,-21.2l-82.5,0l0,21.2Z" class="g1_1182" />
<path d="M68.8,346.4l0.7,0l0,-214.6l-0.7,0l0,214.6Z" class="g2_1182" />
<path d="M213.4,347.2l0.7,0l0,-40.5l-0.7,0l0,40.5Z" class="g2_1182" />
<path d="M358.1,347.2l0.7,0l0,-216.2l-0.7,0l0,216.2Z" class="g2_1182" />
<path d="M400.4,347.2l0.7,0l0,-216.2l-0.7,0l0,216.2Z" class="g2_1182" />
<path d="M461.2,347.2l0.7,0l0,-216.2l-0.7,0l0,216.2Z" class="g2_1182" />
<path d="M544.8,347.2l0.7,0l0,-216.2l-0.7,0l0,216.2Z" class="g2_1182" />
<path d="M851.7,346.4l0.7,0l0,-214.6l-0.7,0l0,214.6Z" class="g2_1182" />
<path d="M68.8,131.7l783.6,0l0,-0.7L68.8,131l0,0.7Z" class="g2_1182" />
<path d="M68.8,188.3l783.6,0l0,-0.7l-783.6,0l0,0.7Z" class="g2_1182" />
<path d="M68.8,228l783.6,0l0,-0.8l-783.6,0l0,0.8Z" class="g2_1182" />
<path d="M68.8,267.8l783.6,0l0,-0.8L68.8,267l0,0.8Z" class="g2_1182" />
<path d="M68.8,307.4l783.6,0l0,-0.7l-783.6,0l0,0.7Z" class="g2_1182" />
<path d="M68.8,347.1l783.6,0l0,-0.7l-783.6,0l0,0.7Z" class="g2_1182" />
<path d="M69.7,447.2l0.7,0l0,-48.1l-0.7,0l0,48.1Z" class="g2_1182" />
<path d="M136.9,448.1l0.7,0l0,-49.7l-0.7,0l0,49.7Z" class="g2_1182" />
<path d="M306.6,448.1l0.8,0l0,-49.7l-0.8,0l0,49.7Z" class="g2_1182" />
<path d="M482,448.1l0.7,0l0,-49.7l-0.7,0l0,49.7Z" class="g2_1182" />
<path d="M668.5,448.1l0.8,0l0,-49.7l-0.8,0l0,49.7Z" class="g2_1182" />
<path d="M850.8,447.2l0.7,0l0,-48.1l-0.7,0l0,48.1Z" class="g2_1182" />
<path d="M69.7,399.1l781.8,0l0,-0.7l-781.8,0l0,0.7Z" class="g2_1182" />
<path d="M69.7,423.6l781.8,0l0,-0.7l-781.8,0l0,0.7Z" class="g2_1182" />
<path d="M69.7,448.1l781.8,0l0,-0.8l-781.8,0l0,0.8Z" class="g2_1182" />
</svg>