<?xml version="1.0" encoding="UTF-8" standalone="no"?>
<!DOCTYPE svg PUBLIC "-//W3C//DTD SVG 1.1//EN"
"http://www.w3.org/Graphics/SVG/1.1/DTD/svg11.dtd">
<svg viewBox="0 0 935 1210" version="1.1" xmlns="http://www.w3.org/2000/svg" xmlns:xlink="http://www.w3.org/1999/xlink">
<defs>
<style type="text/css"><![CDATA[
.g1_58{
fill: #FFFFFF;
}
.g2_58{
}
]]></style>
</defs>
<path d="M68.8,1149.3l783.7,0l0,-21.2l-783.7,0l0,21.2Z" class="g1_58" />
<path d="M69.7,581.9l0.3,0L70,279.8l-0.3,0l0,302.1Z" class="g2_58" />
<path d="M183.8,582.3l0.4,0l0,-302.9l-0.4,0l0,302.9Z" class="g2_58" />
<path d="M688.9,582.3l0.3,0l0,-302.9l-0.3,0l0,302.9Z" class="g2_58" />
<path d="M851.1,581.9l0.4,0l0,-302.1l-0.4,0l0,302.1Z" class="g2_58" />
<path d="M69.7,279.8l781.8,0l0,-0.4l-781.8,0l0,0.4Z" class="g2_58" />
<path d="M69.7,318l781.8,0l0,-0.4l-781.8,0l0,0.4Z" class="g2_58" />
<path d="M69.7,339.3l781.8,0l0,-0.3L69.7,339l0,0.3Z" class="g2_58" />
<path d="M69.7,360.7l781.8,0l0,-0.4l-781.8,0l0,0.4Z" class="g2_58" />
<path d="M69.7,382.2l781.8,0l0,-0.4l-781.8,0l0,0.4Z" class="g2_58" />
<path d="M69.7,420.4l781.8,0l0,-0.4L69.7,420l0,0.4Z" class="g2_58" />
<path d="M69.7,441.7l781.8,0l0,-0.3l-781.8,0l0,0.3Z" class="g2_58" />
<path d="M69.7,496.7l781.8,0l0,-0.3l-781.8,0l0,0.3Z" class="g2_58" />
<path d="M69.7,518.1l781.8,0l0,-0.4l-781.8,0l0,0.4Z" class="g2_58" />
<path d="M69.7,539.6l781.8,0l0,-0.4l-781.8,0l0,0.4Z" class="g2_58" />
<path d="M69.7,560.9l781.8,0l0,-0.4l-781.8,0l0,0.4Z" class="g2_58" />
<path d="M69.7,582.3l781.8,0l0,-0.4l-781.8,0l0,0.4Z" class="g2_58" />
</svg>