<?xml version="1.0" encoding="UTF-8" standalone="no"?>
<!DOCTYPE svg PUBLIC "-//W3C//DTD SVG 1.1//EN"
"http://www.w3.org/Graphics/SVG/1.1/DTD/svg11.dtd">
<svg viewBox="0 0 935 1210" version="1.1" xmlns="http://www.w3.org/2000/svg" xmlns:xlink="http://www.w3.org/1999/xlink">
<defs>
<style type="text/css"><![CDATA[
.g1_1311{
fill: #FFFFFF;
}
.g2_1311{
}
]]></style>
</defs>
<path d="M68.9,1149.3l686.3,0l0,-21.2l-686.3,0l0,21.2Z" class="g1_1311" />
<path d="M771.3,1149.3l83.7,0l0,-21.2l-83.7,0l0,21.2Z" class="g1_1311" />
<path d="M69.9,445.8l0.8,0l0,-320.1l-0.8,0l0,320.1Z" class="g2_1311" />
<path d="M314,446.5l0.7,0l0,-321.6l-0.7,0l0,321.6Z" class="g2_1311" />
<path d="M359.2,446.5l0.7,0l0,-321.6l-0.7,0l0,321.6Z" class="g2_1311" />
<path d="M433.6,446.5l0.7,0l0,-321.6l-0.7,0l0,321.6Z" class="g2_1311" />
<path d="M520.6,446.5l0.7,0l0,-321.6l-0.7,0l0,321.6Z" class="g2_1311" />
<path d="M855.5,445.8l0.8,0l0,-320.1l-0.8,0l0,320.1Z" class="g2_1311" />
<path d="M69.9,125.7l786.4,0l0,-0.8l-786.4,0l0,0.8Z" class="g2_1311" />
<path d="M69.9,176.1l786.4,0l0,-0.7l-786.4,0l0,0.7Z" class="g2_1311" />
<path d="M69.9,212.8l786.4,0l0,-0.8L69.9,212l0,0.8Z" class="g2_1311" />
<path d="M69.9,249.4l786.4,0l0,-0.7l-786.4,0l0,0.7Z" class="g2_1311" />
<path d="M69.9,286.1l786.4,0l0,-0.7l-786.4,0l0,0.7Z" class="g2_1311" />
<path d="M69.9,339.5l786.4,0l0,-0.7l-786.4,0l0,0.7Z" class="g2_1311" />
<path d="M69.9,393l786.4,0l0,-0.8l-786.4,0l0,0.8Z" class="g2_1311" />
<path d="M69.9,446.5l786.4,0l0,-0.7l-786.4,0l0,0.7Z" class="g2_1311" />
<path d="M71.3,598.5l0.8,0l0,-97l-0.8,0l0,97Z" class="g2_1311" />
<path d="M171.4,599.3l0.8,0l0,-98.5l-0.8,0l0,98.5Z" class="g2_1311" />
<path d="M336.5,599.3l0.7,0l0,-98.5l-0.7,0l0,98.5Z" class="g2_1311" />
<path d="M508.7,599.3l0.7,0l0,-98.5l-0.7,0l0,98.5Z" class="g2_1311" />
<path d="M680.8,599.3l0.7,0l0,-98.5l-0.7,0l0,98.5Z" class="g2_1311" />
<path d="M850.7,598.5l0.7,0l0,-97l-0.7,0l0,97Z" class="g2_1311" />
<path d="M71.3,501.5l780.1,0l0,-0.7l-780.1,0l0,0.7Z" class="g2_1311" />
<path d="M71.3,526l780.1,0l0,-0.8l-780.1,0l0,0.8Z" class="g2_1311" />
<path d="M71.3,550.4l780.1,0l0,-0.8l-780.1,0l0,0.8Z" class="g2_1311" />
<path d="M71.3,574.8l780.1,0l0,-0.7l-780.1,0l0,0.7Z" class="g2_1311" />
<path d="M71.3,599.3l780.1,0l0,-0.7l-780.1,0l0,0.7Z" class="g2_1311" />
</svg>