<?xml version="1.0" encoding="UTF-8" standalone="no"?>
<!DOCTYPE svg PUBLIC "-//W3C//DTD SVG 1.1//EN"
"http://www.w3.org/Graphics/SVG/1.1/DTD/svg11.dtd">
<svg viewBox="0 0 935 1210" version="1.1" xmlns="http://www.w3.org/2000/svg" xmlns:xlink="http://www.w3.org/1999/xlink">
<defs>
<style type="text/css"><![CDATA[
.g1_1235{
fill: #FFFFFF;
}
.g2_1235{
}
]]></style>
</defs>
<path d="M68.9,1149.3l686.3,0l0,-21.2l-686.3,0l0,21.2Z" class="g1_1235" />
<path d="M771.3,1149.3l83.7,0l0,-21.2l-83.7,0l0,21.2Z" class="g1_1235" />
<path d="M72.6,603.1l0.7,0l0,-495.8l-0.7,0l0,495.8Z" class="g2_1235" />
<path d="M221.7,603.9l0.7,0l0,-497.3l-0.7,0l0,497.3Z" class="g2_1235" />
<path d="M390.8,603.9l0.7,0l0,-497.3l-0.7,0l0,497.3Z" class="g2_1235" />
<path d="M428.6,603.9l0.8,0l0,-497.3l-0.8,0l0,497.3Z" class="g2_1235" />
<path d="M502,603.9l0.7,0l0,-497.3l-0.7,0l0,497.3Z" class="g2_1235" />
<path d="M573.4,603.9l0.7,0l0,-497.3l-0.7,0l0,497.3Z" class="g2_1235" />
<path d="M849.4,603.1l0.7,0l0,-495.8l-0.7,0l0,495.8Z" class="g2_1235" />
<path d="M72.6,107.3l777.5,0l0,-0.7l-777.5,0l0,0.7Z" class="g2_1235" />
<path d="M72.6,145.5l777.5,0l0,-0.8l-777.5,0l0,0.8Z" class="g2_1235" />
<path d="M72.6,168.4l777.5,0l0,-0.7l-777.5,0l0,0.7Z" class="g2_1235" />
<path d="M72.6,191.3l777.5,0l0,-0.7l-777.5,0l0,0.7Z" class="g2_1235" />
<path d="M72.6,214.2l777.5,0l0,-0.7l-777.5,0l0,0.7Z" class="g2_1235" />
<path d="M72.6,237.1l777.5,0l0,-0.7l-777.5,0l0,0.7Z" class="g2_1235" />
<path d="M72.6,260.1l777.5,0l0,-0.8l-777.5,0l0,0.8Z" class="g2_1235" />
<path d="M72.6,283l777.5,0l0,-0.8l-777.5,0l0,0.8Z" class="g2_1235" />
<path d="M72.6,305.9l777.5,0l0,-0.7l-777.5,0l0,0.7Z" class="g2_1235" />
<path d="M72.6,328.8l777.5,0l0,-0.7l-777.5,0l0,0.7Z" class="g2_1235" />
<path d="M72.6,351.7l777.5,0l0,-0.7L72.6,351l0,0.7Z" class="g2_1235" />
<path d="M72.6,374.6l777.5,0l0,-0.7l-777.5,0l0,0.7Z" class="g2_1235" />
<path d="M72.6,397.7l777.5,0l0,-0.8l-777.5,0l0,0.8Z" class="g2_1235" />
<path d="M72.6,420.6l777.5,0l0,-0.8l-777.5,0l0,0.8Z" class="g2_1235" />
<path d="M72.6,443.5l777.5,0l0,-0.8l-777.5,0l0,0.8Z" class="g2_1235" />
<path d="M72.6,466.4l777.5,0l0,-0.7l-777.5,0l0,0.7Z" class="g2_1235" />
<path d="M72.6,489.3l777.5,0l0,-0.7l-777.5,0l0,0.7Z" class="g2_1235" />
<path d="M72.6,512.2l777.5,0l0,-0.7l-777.5,0l0,0.7Z" class="g2_1235" />
<path d="M72.6,535.2l777.5,0l0,-0.8l-777.5,0l0,0.8Z" class="g2_1235" />
<path d="M72.6,558.1l777.5,0l0,-0.8l-777.5,0l0,0.8Z" class="g2_1235" />
<path d="M72.6,581l777.5,0l0,-0.8l-777.5,0l0,0.8Z" class="g2_1235" />
<path d="M72.6,603.9l777.5,0l0,-0.7l-777.5,0l0,0.7Z" class="g2_1235" />
<path d="M71,835.4l0.8,0l0,-97.1l-0.8,0l0,97.1Z" class="g2_1235" />
<path d="M135.6,836.1l0.7,0l0,-98.5l-0.7,0l0,98.5Z" class="g2_1235" />
<path d="M307,836.1l0.7,0l0,-98.5l-0.7,0l0,98.5Z" class="g2_1235" />
<path d="M486.9,836.1l0.8,0l0,-98.5l-0.8,0l0,98.5Z" class="g2_1235" />
<path d="M666.3,836.1l0.8,0l0,-98.5l-0.8,0l0,98.5Z" class="g2_1235" />
<path d="M850.9,835.4l0.8,0l0,-97.1l-0.8,0l0,97.1Z" class="g2_1235" />
<path d="M71,738.3l780.7,0l0,-0.8L71,737.5l0,0.8Z" class="g2_1235" />
<path d="M71,762.8l780.7,0l0,-0.8L71,762l0,0.8Z" class="g2_1235" />
<path d="M71,787.2l780.7,0l0,-0.7L71,786.5l0,0.7Z" class="g2_1235" />
<path d="M71,811.6l780.7,0l0,-0.7L71,810.9l0,0.7Z" class="g2_1235" />
<path d="M71,836.1l780.7,0l0,-0.7L71,835.4l0,0.7Z" class="g2_1235" />
</svg>