<?xml version="1.0" encoding="UTF-8" standalone="no"?>
<!DOCTYPE svg PUBLIC "-//W3C//DTD SVG 1.1//EN"
"http://www.w3.org/Graphics/SVG/1.1/DTD/svg11.dtd">
<svg viewBox="0 0 935 1210" version="1.1" xmlns="http://www.w3.org/2000/svg" xmlns:xlink="http://www.w3.org/1999/xlink">
<defs>
<style type="text/css"><![CDATA[
.g1_1816{
fill: #FFFFFF;
}
.g2_1816{
}
]]></style>
</defs>
<path d="M165,1149.3l687.5,0l0,-21.2l-687.5,0l0,21.2Z" class="g1_1816" />
<path d="M68.8,1149.3l82.5,0l0,-21.2l-82.5,0l0,21.2Z" class="g1_1816" />
<path d="M68.6,697.9l0.7,0l0,-572.2l-0.7,0l0,572.2Z" class="g2_1816" />
<path d="M307.8,698.6l0.8,0l0,-573.7l-0.8,0l0,573.7Z" class="g2_1816" />
<path d="M351.4,698.6l0.8,0l0,-573.7l-0.8,0l0,573.7Z" class="g2_1816" />
<path d="M423.7,698.6l0.7,0l0,-573.7l-0.7,0l0,573.7Z" class="g2_1816" />
<path d="M508.8,698.6l0.7,0l0,-573.7l-0.7,0l0,573.7Z" class="g2_1816" />
<path d="M854.7,697.9l0.7,0l0,-572.2l-0.7,0l0,572.2Z" class="g2_1816" />
<path d="M68.6,125.7l786.8,0l0,-0.8l-786.8,0l0,0.8Z" class="g2_1816" />
<path d="M68.6,176.1l786.8,0l0,-0.7l-786.8,0l0,0.7Z" class="g2_1816" />
<path d="M68.6,263.2l786.8,0l0,-0.8l-786.8,0l0,0.8Z" class="g2_1816" />
<path d="M68.6,350.3l786.8,0l0,-0.8l-786.8,0l0,0.8Z" class="g2_1816" />
<path d="M68.6,437.3l786.8,0l0,-0.7l-786.8,0l0,0.7Z" class="g2_1816" />
<path d="M68.6,524.4l786.8,0l0,-0.7l-786.8,0l0,0.7Z" class="g2_1816" />
<path d="M68.6,611.5l786.8,0l0,-0.7l-786.8,0l0,0.7Z" class="g2_1816" />
<path d="M68.6,698.6l786.8,0l0,-0.7l-786.8,0l0,0.7Z" class="g2_1816" />
<path d="M70.7,801.7l0.7,0l0,-48.1l-0.7,0l0,48.1Z" class="g2_1816" />
<path d="M186.3,802.5l0.7,0l0,-49.6l-0.7,0l0,49.6Z" class="g2_1816" />
<path d="M347.4,802.5l0.7,0l0,-49.6l-0.7,0l0,49.6Z" class="g2_1816" />
<path d="M524,802.5l0.7,0l0,-49.6l-0.7,0l0,49.6Z" class="g2_1816" />
<path d="M688,802.5l0.8,0l0,-49.6l-0.8,0l0,49.6Z" class="g2_1816" />
<path d="M849.7,801.7l0.7,0l0,-48.1l-0.7,0l0,48.1Z" class="g2_1816" />
<path d="M70.7,753.6l779.8,0l0,-0.7l-779.8,0l0,0.7Z" class="g2_1816" />
<path d="M70.7,778.1l779.8,0l0,-0.8l-779.8,0l0,0.8Z" class="g2_1816" />
<path d="M70.7,802.4l779.8,0l0,-0.7l-779.8,0l0,0.7Z" class="g2_1816" />
</svg>