<?xml version="1.0" encoding="UTF-8" standalone="no"?>
<!DOCTYPE svg PUBLIC "-//W3C//DTD SVG 1.1//EN"
"http://www.w3.org/Graphics/SVG/1.1/DTD/svg11.dtd">
<svg viewBox="0 0 935 1210" version="1.1" xmlns="http://www.w3.org/2000/svg" xmlns:xlink="http://www.w3.org/1999/xlink">
<defs>
<style type="text/css"><![CDATA[
.g1_44{
fill: #FFFFFF;
}
.g2_44{
}
.g3_44{
fill: none;
stroke: #000000;
stroke-width: 0.88;
stroke-linecap: round;
stroke-linejoin: round;
stroke-miterlimit: 3;
}
.g4_44{
fill: none;
stroke: #000000;
stroke-width: 0.29333335;
stroke-linecap: round;
stroke-linejoin: round;
stroke-miterlimit: 3;
}
]]></style>
</defs>
<path d="M68.8,1149.3l783.7,0l0,-21.2l-783.7,0l0,21.2Z" class="g1_44" />
<path d="M170.1,333.4l0.8,0l0,-219.9l-0.8,0l0,219.9Z" class="g2_44" />
<path d="M750.3,333.4l0.7,0l0,-219.9l-0.7,0l0,219.9Z" class="g2_44" />
<path d="M170,113.4l581,0l0,-0.7l-581,0l0,0.7Z" class="g2_44" />
<path d="M170,334.1l581,0l0,-0.7l-581,0l0,0.7Z" class="g2_44" />
<path d="M170.1,592.8l0.8,0l0,-188.4l-0.8,0l0,188.4Z" class="g2_44" />
<path d="M750.3,592.8l0.7,0l0,-188.4l-0.7,0l0,188.4Z" class="g2_44" />
<path d="M170,404.4l581,0l0,-0.7l-581,0l0,0.7Z" class="g2_44" />
<path d="M170,593.6l581,0l0,-0.7l-581,0l0,0.7Z" class="g2_44" />
<path d="M202.9,316.2l518.4,0l0,-166.7l-518.4,0l0,166.7Z" class="g1_44" />
<path d="M428,219l38.5,0l0,-43.5l-38.5,0l0,43.5Z" class="g1_44" />
<path d="M466.5,175.5l-38.5,0l0,43.5l38.5,0l0,-43.5Z" class="g3_44" />
<path d="M428,175.5l121,0l0,-25.1l-121,0l0,25.1Z" class="g1_44" />
<path d="M549,150.4l-121,0l0,25.1l121,0l0,-25.1Z" class="g3_44" />
<path d="M510.5,219l38.5,0l0,-43.5l-38.5,0l0,43.5Z" class="g1_44" />
<path d="M549,175.5l-38.5,0l0,43.5l38.5,0l0,-43.5Z" class="g3_44" />
<path d="M466.5,219l44,0l0,-43.5l-44,0l0,43.5Z" class="g1_44" />
<path d="M510.5,175.5l-44,0l0,43.5l44,0l0,-43.5Z" class="g3_44" />
<path d="M615,219l49.5,0l0,-43.5l-49.5,0l0,43.5Z" class="g1_44" />
<path d="M664.5,175.5l-49.5,0l0,43.5l49.5,0l0,-43.5Z" class="g3_44" />
<path d="M664.5,219l38.5,0l0,-43.5l-38.5,0l0,43.5Z" class="g1_44" />
<path d="M703,175.5l-38.5,0l0,43.5l38.5,0l0,-43.5Z" class="g3_44" />
<path d="M565.5,219l49.5,0l0,-43.5l-49.5,0l0,43.5Z" class="g1_44" />
<path d="M615,175.5l-49.5,0l0,43.5l49.5,0l0,-43.5Z" class="g3_44" />
<path d="M565.5,175.5l137.5,0l0,-25.1l-137.5,0l0,25.1Z" class="g1_44" />
<path d="M703,150.4l-137.5,0l0,25.1l137.5,0l0,-25.1Z" class="g3_44" />
<path d="M203.9,218.6l107.8,0l0,-49.1l-107.8,0l0,49.1Z" class="g1_44" />
<path d="M311.7,169.5l-107.8,0l0,49.1l107.8,0l0,-49.1Z" class="g3_44" />
<path d="M329,218.6l82.5,0l0,-49.1l-82.5,0l0,49.1Z" class="g1_44" />
<path d="M411.5,169.5l-82.5,0l0,49.1l82.5,0l0,-49.1Z" class="g3_44" />
<path d="M267.1,212.5l0,35.2l210.4,0l0,16.9" class="g4_44" />
<path fill-rule="evenodd" d="M480,264.6l-2.5,5l-2.5,-5l5,0Z" class="g2_44" />
<path d="M282.2,212.5l0,25.8l331,0c0,-4.1,3.2,-7.3,7.3,-7.3c4,0,7.3,3.2,7.3,7.3l39.4,0l0,25.3" class="g4_44" />
<path fill-rule="evenodd" d="M669.7,263.6l-2.5,4.9l-2.4,-4.9l4.9,0Z" class="g2_44" />
<path d="M482.7,211.8l0,52.8" class="g4_44" />
<path fill-rule="evenodd" d="M485.1,264.6l-2.4,5l-2.5,-5l4.9,0Z" class="g2_44" />
<path d="M488.2,211.8l0,52.8" class="g4_44" />
<path fill-rule="evenodd" d="M490.6,264.6l-2.4,5l-2.5,-5l4.9,0Z" class="g2_44" />
<path d="M493.7,211.8l0,52.8" class="g4_44" />
<path fill-rule="evenodd" d="M496.1,264.6l-2.4,5l-2.5,-5l4.9,0Z" class="g2_44" />
<path d="M673,211.2l0,52.8" class="g4_44" />
<path fill-rule="evenodd" d="M675.5,264l-2.5,4.9L670.5,264l5,0Z" class="g2_44" />
<path d="M681.2,211.2l0,52.8" class="g4_44" />
<path fill-rule="evenodd" d="M683.7,264l-2.5,4.9L678.8,264l4.9,0Z" class="g2_44" />
<path d="M689.5,211.2l0,52.8" class="g4_44" />
<path fill-rule="evenodd" d="M692,264l-2.5,4.9L687,264l5,0Z" class="g2_44" />
<path d="M628.9,210.8l0,52.8" class="g4_44" />
<path fill-rule="evenodd" d="M631.4,263.6l-2.5,4.9l-2.5,-4.9l5,0Z" class="g2_44" />
<path d="M637,210.8l0,52.8" class="g4_44" />
<path fill-rule="evenodd" d="M639.5,263.6l-2.5,4.9l-2.5,-4.9l5,0Z" class="g2_44" />
<path d="M645.1,210.8l0,52.8" class="g4_44" />
<path fill-rule="evenodd" d="M647.6,263.6l-2.5,4.9l-2.5,-4.9l5,0Z" class="g2_44" />
<path d="M275.4,212.5l0,16.2l345.1,0l0,34.9" class="g4_44" />
<path fill-rule="evenodd" d="M623,263.6l-2.5,4.9L618,263.6l5,0Z" class="g2_44" />
<path d="M299.8,577.5l301.5,0l0,-147.5l-301.5,0l0,147.5Z" class="g1_44" />
<path d="M537.2,479.5l54.5,0l0,-48.6l-54.5,0l0,48.6Z" class="g1_44" />
<path d="M591.7,430.9l-54.5,0l0,48.6l54.5,0l0,-48.6Z" class="g3_44" />
<path d="M300.7,479.5l107.8,0l0,-48.6l-107.8,0l0,48.6Z" class="g1_44" />
<path d="M408.5,430.9l-107.8,0l0,48.6l107.8,0l0,-48.6Z" class="g3_44" />
<path d="M428.3,479.5l108.9,0l0,-48.6l-108.9,0l0,48.6Z" class="g1_44" />
<path d="M537.2,430.9l-108.9,0l0,48.6l108.9,0l0,-48.6Z" class="g3_44" />
<path d="M377.7,473.4l0,18.6l170.5,0l0,33.5" class="g4_44" />
<path fill-rule="evenodd" d="M550.7,525.5l-2.5,5l-2.5,-5l5,0Z" class="g2_44" />
<path d="M555.1,472.8l0,52.7" class="g4_44" />
<path fill-rule="evenodd" d="M557.6,525.5l-2.5,5l-2.5,-5l5,0Z" class="g2_44" />
<path d="M563.3,472.8l0,52.7" class="g4_44" />
<path fill-rule="evenodd" d="M565.8,525.5l-2.5,5l-2.5,-5l5,0Z" class="g2_44" />
<path d="M571.6,472.8l0,52.7" class="g4_44" />
<path fill-rule="evenodd" d="M574.1,525.5l-2.5,5l-2.5,-5l5,0Z" class="g2_44" />
</svg>