<?xml version="1.0" encoding="UTF-8" standalone="no"?>
<!DOCTYPE svg PUBLIC "-//W3C//DTD SVG 1.1//EN"
"http://www.w3.org/Graphics/SVG/1.1/DTD/svg11.dtd">
<svg viewBox="0 0 935 1210" version="1.1" xmlns="http://www.w3.org/2000/svg" xmlns:xlink="http://www.w3.org/1999/xlink">
<defs>
<style type="text/css"><![CDATA[
.g1_1064{
fill: #FFFFFF;
}
.g2_1064{
}
]]></style>
</defs>
<path d="M165,1149.3l687.5,0l0,-21.2l-687.5,0l0,21.2Z" class="g1_1064" />
<path d="M68.8,1149.3l82.5,0l0,-21.2l-82.5,0l0,21.2Z" class="g1_1064" />
<path d="M66.6,474.7l0.8,0l0,-349l-0.8,0l0,349Z" class="g2_1064" />
<path d="M377.9,475.6l0.8,0l0,-350.7l-0.8,0l0,350.7Z" class="g2_1064" />
<path d="M415.8,475.6l0.7,0l0,-350.7l-0.7,0l0,350.7Z" class="g2_1064" />
<path d="M489.1,475.6l0.8,0l0,-350.7l-0.8,0l0,350.7Z" class="g2_1064" />
<path d="M568.5,475.6l0.8,0l0,-350.7l-0.8,0l0,350.7Z" class="g2_1064" />
<path d="M853.7,474.7l0.7,0l0,-349l-0.7,0l0,349Z" class="g2_1064" />
<path d="M66.6,125.7l787.9,0l0,-0.8l-787.9,0l0,0.8Z" class="g2_1064" />
<path d="M66.6,179.1l787.9,0l0,-0.7l-787.9,0l0,0.7Z" class="g2_1064" />
<path d="M66.6,223.4l787.9,0l0,-0.7l-787.9,0l0,0.7Z" class="g2_1064" />
<path d="M66.6,267.8l787.9,0l0,-0.8L66.6,267l0,0.8Z" class="g2_1064" />
<path d="M66.6,312l787.9,0l0,-0.7l-787.9,0l0,0.7Z" class="g2_1064" />
<path d="M66.6,356.3l787.9,0l0,-0.7l-787.9,0l0,0.7Z" class="g2_1064" />
<path d="M66.6,396.1l787.9,0l0,-0.7l-787.9,0l0,0.7Z" class="g2_1064" />
<path d="M66.6,435.8l787.9,0l0,-0.8L66.6,435l0,0.8Z" class="g2_1064" />
<path d="M66.6,475.6l787.9,0l0,-0.8l-787.9,0l0,0.8Z" class="g2_1064" />
<path d="M69.7,705.5l0.7,0l0,-97l-0.7,0l0,97Z" class="g2_1064" />
<path d="M138,706.2l0.7,0l0,-98.5l-0.7,0l0,98.5Z" class="g2_1064" />
<path d="M314.2,706.2l0.8,0l0,-98.5l-0.8,0l0,98.5Z" class="g2_1064" />
<path d="M492.5,706.2l0.8,0l0,-98.5l-0.8,0l0,98.5Z" class="g2_1064" />
<path d="M671.4,706.2l0.7,0l0,-98.5l-0.7,0l0,98.5Z" class="g2_1064" />
<path d="M850.8,705.5l0.7,0l0,-97l-0.7,0l0,97Z" class="g2_1064" />
<path d="M69.7,608.5l781.8,0l0,-0.8l-781.8,0l0,0.8Z" class="g2_1064" />
<path d="M69.7,632.9l781.8,0l0,-0.8l-781.8,0l0,0.8Z" class="g2_1064" />
<path d="M69.7,657.3l781.8,0l0,-0.7l-781.8,0l0,0.7Z" class="g2_1064" />
<path d="M69.7,681.8l781.8,0l0,-0.7l-781.8,0l0,0.7Z" class="g2_1064" />
<path d="M69.7,706.2l781.8,0l0,-0.7l-781.8,0l0,0.7Z" class="g2_1064" />
</svg>