<?xml version="1.0" encoding="UTF-8" standalone="no"?>
<!DOCTYPE svg PUBLIC "-//W3C//DTD SVG 1.1//EN"
"http://www.w3.org/Graphics/SVG/1.1/DTD/svg11.dtd">
<svg viewBox="0 0 935 1210" version="1.1" xmlns="http://www.w3.org/2000/svg" xmlns:xlink="http://www.w3.org/1999/xlink">
<defs>
<style type="text/css"><![CDATA[
.g1_945{
fill: #FFFFFF;
}
.g2_945{
}
]]></style>
</defs>
<path d="M68.9,1149.3l686.3,0l0,-21.2l-686.3,0l0,21.2Z" class="g1_945" />
<path d="M771.3,1149.3l83.7,0l0,-21.2l-83.7,0l0,21.2Z" class="g1_945" />
<path d="M67.5,687.1l0.7,0l0,-561.4l-0.7,0l0,561.4Z" class="g2_945" />
<path d="M371.9,687.9l0.7,0l0,-563l-0.7,0l0,563Z" class="g2_945" />
<path d="M423.4,687.9l0.7,0l0,-563l-0.7,0l0,563Z" class="g2_945" />
<path d="M496.8,687.9l0.8,0l0,-563l-0.8,0l0,563Z" class="g2_945" />
<path d="M577.4,687.9l0.7,0l0,-563l-0.7,0l0,563Z" class="g2_945" />
<path d="M854.5,687.1l0.7,0l0,-561.4l-0.7,0l0,561.4Z" class="g2_945" />
<path d="M67.5,125.7l787.7,0l0,-0.8l-787.7,0l0,0.8Z" class="g2_945" />
<path d="M67.5,179.1l787.7,0l0,-0.7l-787.7,0l0,0.7Z" class="g2_945" />
<path d="M67.5,235.7l787.7,0l0,-0.8l-787.7,0l0,0.8Z" class="g2_945" />
<path d="M67.5,292.1l787.7,0l0,-0.7l-787.7,0l0,0.7Z" class="g2_945" />
<path d="M67.5,348.7l787.7,0l0,-0.7L67.5,348l0,0.7Z" class="g2_945" />
<path d="M67.5,405.3l787.7,0l0,-0.8l-787.7,0l0,0.8Z" class="g2_945" />
<path d="M67.5,461.8l787.7,0l0,-0.7l-787.7,0l0,0.7Z" class="g2_945" />
<path d="M67.5,518.3l787.7,0l0,-0.7l-787.7,0l0,0.7Z" class="g2_945" />
<path d="M67.5,574.8l787.7,0l0,-0.7l-787.7,0l0,0.7Z" class="g2_945" />
<path d="M67.5,631.4l787.7,0l0,-0.7l-787.7,0l0,0.7Z" class="g2_945" />
<path d="M67.5,687.9l787.7,0l0,-0.8l-787.7,0l0,0.8Z" class="g2_945" />
<path d="M68.2,884.2l0.7,0l0,-97l-0.7,0l0,97Z" class="g2_945" />
<path d="M169.3,885l0.7,0l0,-98.5l-0.7,0l0,98.5Z" class="g2_945" />
<path d="M345.6,885l0.7,0l0,-98.5l-0.7,0l0,98.5Z" class="g2_945" />
<path d="M530.1,885l0.7,0l0,-98.5l-0.7,0l0,98.5Z" class="g2_945" />
<path d="M705.3,885l0.7,0l0,-98.5l-0.7,0l0,98.5Z" class="g2_945" />
<path d="M853.8,884.2l0.7,0l0,-97l-0.7,0l0,97Z" class="g2_945" />
<path d="M68.2,787.2l786.4,0l0,-0.7l-786.4,0l0,0.7Z" class="g2_945" />
<path d="M68.2,811.6l786.4,0l0,-0.7l-786.4,0l0,0.7Z" class="g2_945" />
<path d="M68.2,836.1l786.4,0l0,-0.7l-786.4,0l0,0.7Z" class="g2_945" />
<path d="M68.2,860.6l786.4,0l0,-0.8l-786.4,0l0,0.8Z" class="g2_945" />
<path d="M68.2,885l786.4,0l0,-0.8l-786.4,0l0,0.8Z" class="g2_945" />
</svg>