<?xml version="1.0" encoding="UTF-8" standalone="no"?>
<!DOCTYPE svg PUBLIC "-//W3C//DTD SVG 1.1//EN"
"http://www.w3.org/Graphics/SVG/1.1/DTD/svg11.dtd">
<svg viewBox="0 0 935 1210" version="1.1" xmlns="http://www.w3.org/2000/svg" xmlns:xlink="http://www.w3.org/1999/xlink">
<defs>
<style type="text/css"><![CDATA[
.g1_1707{
fill: #FFFFFF;
}
.g2_1707{
}
]]></style>
</defs>
<path d="M68.9,1149.3l686.3,0l0,-21.2l-686.3,0l0,21.2Z" class="g1_1707" />
<path d="M771.3,1149.3l83.7,0l0,-21.2l-83.7,0l0,21.2Z" class="g1_1707" />
<path d="M69.9,285.4l0.8,0l0,-159.7l-0.8,0l0,159.7Z" class="g2_1707" />
<path d="M342.2,286.1l0.7,0l0,-161.2l-0.7,0l0,161.2Z" class="g2_1707" />
<path d="M388.2,286.1l0.7,0l0,-161.2l-0.7,0l0,161.2Z" class="g2_1707" />
<path d="M462.7,286.1l0.8,0l0,-161.2l-0.8,0l0,161.2Z" class="g2_1707" />
<path d="M547.6,286.1l0.8,0l0,-161.2l-0.8,0l0,161.2Z" class="g2_1707" />
<path d="M854.2,285.4l0.8,0l0,-159.7l-0.8,0l0,159.7Z" class="g2_1707" />
<path d="M69.9,125.7l785.1,0l0,-0.8l-785.1,0l0,0.8Z" class="g2_1707" />
<path d="M69.9,176.1l785.1,0l0,-0.7l-785.1,0l0,0.7Z" class="g2_1707" />
<path d="M69.9,212.8l785.1,0l0,-0.8L69.9,212l0,0.8Z" class="g2_1707" />
<path d="M69.9,249.4l785.1,0l0,-0.7l-785.1,0l0,0.7Z" class="g2_1707" />
<path d="M69.9,286.1l785.1,0l0,-0.7l-785.1,0l0,0.7Z" class="g2_1707" />
<path d="M69.9,389.2l0.7,0l0,-48.1l-0.7,0l0,48.1Z" class="g2_1707" />
<path d="M177.2,389.9l0.7,0l0,-49.5l-0.7,0l0,49.5Z" class="g2_1707" />
<path d="M338.9,389.9l0.7,0l0,-49.5l-0.7,0l0,49.5Z" class="g2_1707" />
<path d="M512.1,389.9l0.7,0l0,-49.5l-0.7,0l0,49.5Z" class="g2_1707" />
<path d="M678.3,389.9l0.8,0l0,-49.5l-0.8,0l0,49.5Z" class="g2_1707" />
<path d="M852.1,389.2l0.8,0l0,-48.1l-0.8,0l0,48.1Z" class="g2_1707" />
<path d="M69.9,341.1l783,0l0,-0.7l-783,0l0,0.7Z" class="g2_1707" />
<path d="M69.9,365.5l783,0l0,-0.8l-783,0l0,0.8Z" class="g2_1707" />
<path d="M69.9,389.9l783,0l0,-0.7l-783,0l0,0.7Z" class="g2_1707" />
</svg>