<?xml version="1.0" encoding="UTF-8" standalone="no"?>
<!DOCTYPE svg PUBLIC "-//W3C//DTD SVG 1.1//EN"
"http://www.w3.org/Graphics/SVG/1.1/DTD/svg11.dtd">
<svg viewBox="0 0 935 1210" version="1.1" xmlns="http://www.w3.org/2000/svg" xmlns:xlink="http://www.w3.org/1999/xlink">
<defs>
<style type="text/css"><![CDATA[
.g1_1862{
fill: #FFFFFF;
}
.g2_1862{
}
]]></style>
</defs>
<path d="M165,1149.3l687.5,0l0,-21.2l-687.5,0l0,21.2Z" class="g1_1862" />
<path d="M68.8,1149.3l82.5,0l0,-21.2l-82.5,0l0,21.2Z" class="g1_1862" />
<path d="M68.6,386.2l0.7,0l0,-260.5l-0.7,0l0,260.5Z" class="g2_1862" />
<path d="M273.3,386.9l0.7,0l0,-262l-0.7,0l0,262Z" class="g2_1862" />
<path d="M316.8,386.9l0.7,0l0,-262l-0.7,0l0,262Z" class="g2_1862" />
<path d="M391.3,386.9l0.8,0l0,-262l-0.8,0l0,262Z" class="g2_1862" />
<path d="M481.8,386.9l0.7,0l0,-262l-0.7,0l0,262Z" class="g2_1862" />
<path d="M853.1,386.2l0.8,0l0,-260.5l-0.8,0l0,260.5Z" class="g2_1862" />
<path d="M68.6,125.7l785.3,0l0,-0.8l-785.3,0l0,0.8Z" class="g2_1862" />
<path d="M68.6,176.1l785.3,0l0,-0.7l-785.3,0l0,0.7Z" class="g2_1862" />
<path d="M68.6,246.3l785.3,0l0,-0.7l-785.3,0l0,0.7Z" class="g2_1862" />
<path d="M68.6,316.6l785.3,0l0,-0.7l-785.3,0l0,0.7Z" class="g2_1862" />
<path d="M68.6,386.9l785.3,0l0,-0.7l-785.3,0l0,0.7Z" class="g2_1862" />
<path d="M69.7,490.1l0.7,0l0,-48.2l-0.7,0l0,48.2Z" class="g2_1862" />
<path d="M170.6,490.8l0.7,0l0,-49.6l-0.7,0l0,49.6Z" class="g2_1862" />
<path d="M346.8,490.8l0.7,0l0,-49.6l-0.7,0l0,49.6Z" class="g2_1862" />
<path d="M512.2,490.8l0.8,0l0,-49.6l-0.8,0l0,49.6Z" class="g2_1862" />
<path d="M690.3,490.8l0.8,0l0,-49.6l-0.8,0l0,49.6Z" class="g2_1862" />
<path d="M850.8,490.1l0.7,0l0,-48.2l-0.7,0l0,48.2Z" class="g2_1862" />
<path d="M69.7,441.9l781.8,0l0,-0.7l-781.8,0l0,0.7Z" class="g2_1862" />
<path d="M69.7,466.4l781.8,0l0,-0.7l-781.8,0l0,0.7Z" class="g2_1862" />
<path d="M69.7,490.8l781.8,0l0,-0.8L69.7,490l0,0.8Z" class="g2_1862" />
</svg>