<?xml version="1.0" encoding="UTF-8" standalone="no"?>
<!DOCTYPE svg PUBLIC "-//W3C//DTD SVG 1.1//EN"
"http://www.w3.org/Graphics/SVG/1.1/DTD/svg11.dtd">
<svg viewBox="0 0 935 1210" version="1.1" xmlns="http://www.w3.org/2000/svg" xmlns:xlink="http://www.w3.org/1999/xlink">
<defs>
<style type="text/css"><![CDATA[
.g1_351{
fill: #FFFFFF;
}
.g2_351{
}
]]></style>
</defs>
<path d="M68.9,1149.3l686.3,0l0,-21.2l-686.3,0l0,21.2Z" class="g1_351" />
<path d="M771.3,1149.3l83.7,0l0,-21.2l-83.7,0l0,21.2Z" class="g1_351" />
<path d="M69.9,517.6l0.8,0L70.7,147l-0.8,0l0,370.6Z" class="g2_351" />
<path d="M287.7,518.3l0.8,0l0,-372l-0.8,0l0,372Z" class="g2_351" />
<path d="M332.2,518.3l0.7,0l0,-372l-0.7,0l0,372Z" class="g2_351" />
<path d="M406.6,518.3l0.8,0l0,-372l-0.8,0l0,372Z" class="g2_351" />
<path d="M493.4,518.3l0.7,0l0,-372l-0.7,0l0,372Z" class="g2_351" />
<path d="M854.1,517.6l0.7,0l0,-370.6l-0.7,0l0,370.6Z" class="g2_351" />
<path d="M69.9,147l784.9,0l0,-0.7l-784.9,0l0,0.7Z" class="g2_351" />
<path d="M69.9,197.4l784.9,0l0,-0.7l-784.9,0l0,0.7Z" class="g2_351" />
<path d="M69.9,250.9l784.9,0l0,-0.7l-784.9,0l0,0.7Z" class="g2_351" />
<path d="M69.9,304.4l784.9,0l0,-0.7l-784.9,0l0,0.7Z" class="g2_351" />
<path d="M69.9,357.9l784.9,0l0,-0.8l-784.9,0l0,0.8Z" class="g2_351" />
<path d="M69.9,411.4l784.9,0l0,-0.7l-784.9,0l0,0.7Z" class="g2_351" />
<path d="M69.9,464.8l784.9,0l0,-0.7l-784.9,0l0,0.7Z" class="g2_351" />
<path d="M69.9,518.3l784.9,0l0,-0.7l-784.9,0l0,0.7Z" class="g2_351" />
<path d="M70.3,645.9l0.7,0l0,-72.6l-0.7,0l0,72.6Z" class="g2_351" />
<path d="M167.9,646.6l0.8,0l0,-74.1l-0.8,0l0,74.1Z" class="g2_351" />
<path d="M334.9,646.6l0.7,0l0,-74.1l-0.7,0l0,74.1Z" class="g2_351" />
<path d="M502.1,646.6l0.8,0l0,-74.1l-0.8,0l0,74.1Z" class="g2_351" />
<path d="M680.4,646.6l0.7,0l0,-74.1l-0.7,0l0,74.1Z" class="g2_351" />
<path d="M851.7,645.9l0.7,0l0,-72.6l-0.7,0l0,72.6Z" class="g2_351" />
<path d="M70.3,573.3l782.1,0l0,-0.7l-782.1,0l0,0.7Z" class="g2_351" />
<path d="M70.3,597.8l782.1,0l0,-0.8L70.3,597l0,0.8Z" class="g2_351" />
<path d="M70.3,622.2l782.1,0l0,-0.7l-782.1,0l0,0.7Z" class="g2_351" />
<path d="M70.3,646.6l782.1,0l0,-0.7l-782.1,0l0,0.7Z" class="g2_351" />
</svg>