<?xml version="1.0" encoding="UTF-8" standalone="no"?>
<!DOCTYPE svg PUBLIC "-//W3C//DTD SVG 1.1//EN"
"http://www.w3.org/Graphics/SVG/1.1/DTD/svg11.dtd">
<svg viewBox="0 0 935 1210" version="1.1" xmlns="http://www.w3.org/2000/svg" xmlns:xlink="http://www.w3.org/1999/xlink">
<defs>
<style type="text/css"><![CDATA[
.g1_493{
fill: #FFFFFF;
}
.g2_493{
}
]]></style>
</defs>
<path d="M68.9,1149.3l686.3,0l0,-21.2l-686.3,0l0,21.2Z" class="g1_493" />
<path d="M771.3,1149.3l83.7,0l0,-21.2l-83.7,0l0,21.2Z" class="g1_493" />
<path d="M71.3,299.1l0.8,0l0,-167.3l-0.8,0l0,167.3Z" class="g2_493" />
<path d="M195.5,299.8l0.8,0l0,-168.8l-0.8,0l0,168.8Z" class="g2_493" />
<path d="M387.7,299.8l0.7,0l0,-168.8l-0.7,0l0,168.8Z" class="g2_493" />
<path d="M452,299.8l0.7,0l0,-168.8l-0.7,0l0,168.8Z" class="g2_493" />
<path d="M531.2,299.8l0.7,0l0,-168.8l-0.7,0l0,168.8Z" class="g2_493" />
<path d="M850.7,299.1l0.7,0l0,-167.3l-0.7,0l0,167.3Z" class="g2_493" />
<path d="M71.3,131.7l780.1,0l0,-0.7L71.3,131l0,0.7Z" class="g2_493" />
<path d="M71.3,169.9l780.1,0l0,-0.7l-780.1,0l0,0.7Z" class="g2_493" />
<path d="M71.3,226.5l780.1,0l0,-0.7l-780.1,0l0,0.7Z" class="g2_493" />
<path d="M71.3,299.8l780.1,0l0,-0.7l-780.1,0l0,0.7Z" class="g2_493" />
</svg>