<?xml version="1.0" encoding="UTF-8" standalone="no"?>
<!DOCTYPE svg PUBLIC "-//W3C//DTD SVG 1.1//EN"
"http://www.w3.org/Graphics/SVG/1.1/DTD/svg11.dtd">
<svg viewBox="0 0 935 1210" version="1.1" xmlns="http://www.w3.org/2000/svg" xmlns:xlink="http://www.w3.org/1999/xlink">
<defs>
<style type="text/css"><![CDATA[
.g1_1711{
fill: #FFFFFF;
}
.g2_1711{
}
]]></style>
</defs>
<path d="M68.9,1149.3l686.3,0l0,-21.2l-686.3,0l0,21.2Z" class="g1_1711" />
<path d="M771.3,1149.3l83.7,0l0,-21.2l-83.7,0l0,21.2Z" class="g1_1711" />
<path d="M69.9,601.6l0.8,0L70.7,147l-0.8,0l0,454.6Z" class="g2_1711" />
<path d="M329.5,602.3l0.7,0l0,-456l-0.7,0l0,456Z" class="g2_1711" />
<path d="M373.2,602.3l0.7,0l0,-456l-0.7,0l0,456Z" class="g2_1711" />
<path d="M445.4,602.3l0.7,0l0,-456l-0.7,0l0,456Z" class="g2_1711" />
<path d="M535.2,602.3l0.8,0l0,-456l-0.8,0l0,456Z" class="g2_1711" />
<path d="M852.1,601.6l0.8,0l0,-454.6l-0.8,0l0,454.6Z" class="g2_1711" />
<path d="M69.9,147l783,0l0,-0.7l-783,0l0,0.7Z" class="g2_1711" />
<path d="M69.9,197.4l783,0l0,-0.7l-783,0l0,0.7Z" class="g2_1711" />
<path d="M69.9,267.8l783,0l0,-0.8l-783,0l0,0.8Z" class="g2_1711" />
<path d="M69.9,338l783,0l0,-0.8l-783,0l0,0.8Z" class="g2_1711" />
<path d="M69.9,408.3l783,0l0,-0.8l-783,0l0,0.8Z" class="g2_1711" />
<path d="M69.9,478.6l783,0l0,-0.7l-783,0l0,0.7Z" class="g2_1711" />
<path d="M69.9,548.9l783,0l0,-0.7l-783,0l0,0.7Z" class="g2_1711" />
<path d="M69.9,602.3l783,0l0,-0.7l-783,0l0,0.7Z" class="g2_1711" />
<path d="M69.2,705.5l0.7,0l0,-48.2l-0.7,0l0,48.2Z" class="g2_1711" />
<path d="M164,706.2l0.7,0l0,-49.6l-0.7,0l0,49.6Z" class="g2_1711" />
<path d="M335.1,706.2l0.8,0l0,-49.6l-0.8,0l0,49.6Z" class="g2_1711" />
<path d="M509.9,706.2l0.8,0l0,-49.6l-0.8,0l0,49.6Z" class="g2_1711" />
<path d="M682.4,706.2l0.7,0l0,-49.6l-0.7,0l0,49.6Z" class="g2_1711" />
<path d="M852.8,705.5l0.7,0l0,-48.2l-0.7,0l0,48.2Z" class="g2_1711" />
<path d="M69.2,657.3l784.4,0l0,-0.7l-784.4,0l0,0.7Z" class="g2_1711" />
<path d="M69.2,681.8l784.4,0l0,-0.7l-784.4,0l0,0.7Z" class="g2_1711" />
<path d="M69.2,706.2l784.4,0l0,-0.7l-784.4,0l0,0.7Z" class="g2_1711" />
</svg>