<?xml version="1.0" encoding="UTF-8" standalone="no"?>
<!DOCTYPE svg PUBLIC "-//W3C//DTD SVG 1.1//EN"
"http://www.w3.org/Graphics/SVG/1.1/DTD/svg11.dtd">
<svg viewBox="0 0 935 1210" version="1.1" xmlns="http://www.w3.org/2000/svg" xmlns:xlink="http://www.w3.org/1999/xlink">
<defs>
<style type="text/css"><![CDATA[
.g1_2032{
fill: #FFFFFF;
}
.g2_2032{
fill: #E6E6E6;
}
.g3_2032{
}
]]></style>
</defs>
<path d="M68.8,1149l784.5,0l0,-21.4l-784.5,0l0,21.4Z" class="g1_2032" />
<path d="M139.7,339.9l88.8,0l0,-153.5l-88.8,0l0,153.5Z" class="g2_2032" />
<path d="M69.5,868.2l2.3,0l0,-735.6l-2.3,0l0,735.6Z" class="g3_2032" />
<path d="M104.8,870.5l0.7,0l0,-740.2l-0.7,0l0,740.2Z" class="g3_2032" />
<path d="M138.6,870.5l2.3,0l0,-740.2l-2.3,0l0,740.2Z" class="g3_2032" />
<path d="M228.2,490.1l0.7,0l0,-359.8l-0.7,0l0,359.8Z" class="g3_2032" />
<path d="M228.2,870.5l0.7,0l0,-365.5l-0.7,0l0,365.5Z" class="g3_2032" />
<path d="M317.1,187.6l0.7,0l0,-57.3l-0.7,0l0,57.3Z" class="g3_2032" />
<path d="M317.1,490.1l0.7,0l0,-151.3l-0.7,0l0,151.3Z" class="g3_2032" />
<path d="M317.1,870.5l0.7,0l0,-365.5l-0.7,0l0,365.5Z" class="g3_2032" />
<path d="M405.9,187.6l0.7,0l0,-57.3l-0.7,0l0,57.3Z" class="g3_2032" />
<path d="M405.9,490.1l0.7,0l0,-151.3l-0.7,0l0,151.3Z" class="g3_2032" />
<path d="M405.9,870.5l0.7,0l0,-365.5l-0.7,0l0,365.5Z" class="g3_2032" />
<path d="M494.7,187.6l0.8,0l0,-57.3l-0.8,0l0,57.3Z" class="g3_2032" />
<path d="M494.7,490.1l0.8,0l0,-151.3l-0.8,0l0,151.3Z" class="g3_2032" />
<path d="M494.7,870.5l0.8,0l0,-365.5l-0.8,0l0,365.5Z" class="g3_2032" />
<path d="M581.6,187.6l0.8,0l0,-57.3l-0.8,0l0,57.3Z" class="g3_2032" />
<path d="M581.6,490.1l0.8,0l0,-151.3l-0.8,0l0,151.3Z" class="g3_2032" />
<path d="M581.6,870.5l0.8,0l0,-365.5l-0.8,0l0,365.5Z" class="g3_2032" />
<path d="M668.5,187.6l0.8,0l0,-57.3l-0.8,0l0,57.3Z" class="g3_2032" />
<path d="M668.5,490.1l0.8,0l0,-151.3l-0.8,0l0,151.3Z" class="g3_2032" />
<path d="M668.5,870.5l0.8,0l0,-365.5l-0.8,0l0,365.5Z" class="g3_2032" />
<path d="M757.4,490.1l0.7,0l0,-359.8l-0.7,0l0,359.8Z" class="g3_2032" />
<path d="M757.4,870.5l0.7,0l0,-365.5l-0.7,0l0,365.5Z" class="g3_2032" />
<path d="M849.5,868.2l2.3,0l0,-735.6l-2.3,0l0,735.6Z" class="g3_2032" />
<path d="M69.4,132.6l782.4,0l0,-2.3l-782.4,0l0,2.3Z" class="g3_2032" />
<path d="M69.4,148.6l782.4,0l0,-2.3l-782.4,0l0,2.3Z" class="g3_2032" />
<path d="M69.4,187.6l782.4,0l0,-2.3l-782.4,0l0,2.3Z" class="g3_2032" />
<path d="M69.4,341.1l782.4,0l0,-2.3l-782.4,0l0,2.3Z" class="g3_2032" />
<path d="M104.8,367.8l747,0l0,-0.8l-747,0l0,0.8Z" class="g3_2032" />
<path d="M104.8,395.3l747,0l0,-0.8l-747,0l0,0.8Z" class="g3_2032" />
<path d="M104.8,422.9l747,0l0,-0.8l-747,0l0,0.8Z" class="g3_2032" />
<path d="M69.4,451.2l782.4,0l0,-2.3l-782.4,0l0,2.3Z" class="g3_2032" />
<path d="M69.4,490.1l782.4,0l0,-2.2l-782.4,0l0,2.2Z" class="g3_2032" />
<path d="M69.4,545.1l782.4,0l0,-2.2l-782.4,0l0,2.2Z" class="g3_2032" />
<path d="M104.8,571.8l747,0l0,-0.7l-747,0l0,0.7Z" class="g3_2032" />
<path d="M104.8,599.3l747,0l0,-0.7l-747,0l0,0.7Z" class="g3_2032" />
<path d="M104.8,626.8l747,0l0,-0.7l-747,0l0,0.7Z" class="g3_2032" />
<path d="M69.4,655.1l782.4,0l0,-2.2l-782.4,0l0,2.2Z" class="g3_2032" />
<path d="M104.8,681.8l747,0l0,-0.7l-747,0l0,0.7Z" class="g3_2032" />
<path d="M104.8,709.3l747,0l0,-0.7l-747,0l0,0.7Z" class="g3_2032" />
<path d="M69.4,737.6l782.4,0l0,-2.2l-782.4,0l0,2.2Z" class="g3_2032" />
<path d="M104.8,764.3l747,0l0,-0.7l-747,0l0,0.7Z" class="g3_2032" />
<path d="M104.8,791.8l747,0l0,-0.7l-747,0l0,0.7Z" class="g3_2032" />
<path d="M104.8,819.3l747,0l0,-0.7l-747,0l0,0.7Z" class="g3_2032" />
<path d="M69.4,870.6l782.4,0l0,-2.3l-782.4,0l0,2.3Z" class="g3_2032" />
</svg>