<?xml version="1.0" encoding="UTF-8" standalone="no"?>
<!DOCTYPE svg PUBLIC "-//W3C//DTD SVG 1.1//EN"
"http://www.w3.org/Graphics/SVG/1.1/DTD/svg11.dtd">
<svg viewBox="0 0 935 1210" version="1.1" xmlns="http://www.w3.org/2000/svg" xmlns:xlink="http://www.w3.org/1999/xlink">
<defs>
<style type="text/css"><![CDATA[
.g1_1674{
fill: #FFFFFF;
}
.g2_1674{
}
]]></style>
</defs>
<path d="M165,1149.3l687.5,0l0,-21.2l-687.5,0l0,21.2Z" class="g1_1674" />
<path d="M68.8,1149.3l82.5,0l0,-21.2l-82.5,0l0,21.2Z" class="g1_1674" />
<path d="M69.4,532.9l0.7,0l0,-407.2l-0.7,0l0,407.2Z" class="g2_1674" />
<path d="M331.4,533.6l0.7,0l0,-408.7l-0.7,0l0,408.7Z" class="g2_1674" />
<path d="M369.2,533.6l0.8,0l0,-408.7l-0.8,0l0,408.7Z" class="g2_1674" />
<path d="M442.7,533.6l0.7,0l0,-408.7l-0.7,0l0,408.7Z" class="g2_1674" />
<path d="M514,533.6l0.7,0l0,-408.7l-0.7,0l0,408.7Z" class="g2_1674" />
<path d="M850.9,532.9l0.8,0l0,-407.2l-0.8,0l0,407.2Z" class="g2_1674" />
<path d="M69.4,125.7l782.4,0l0,-0.8l-782.4,0l0,0.8Z" class="g2_1674" />
<path d="M69.4,179.1l782.4,0l0,-0.7l-782.4,0l0,0.7Z" class="g2_1674" />
<path d="M69.4,223.4l782.4,0l0,-0.7l-782.4,0l0,0.7Z" class="g2_1674" />
<path d="M69.4,267.8l782.4,0l0,-0.8L69.4,267l0,0.8Z" class="g2_1674" />
<path d="M69.4,312l782.4,0l0,-0.7l-782.4,0l0,0.7Z" class="g2_1674" />
<path d="M69.4,356.3l782.4,0l0,-0.7l-782.4,0l0,0.7Z" class="g2_1674" />
<path d="M69.4,400.7l782.4,0l0,-0.8l-782.4,0l0,0.8Z" class="g2_1674" />
<path d="M69.4,444.9l782.4,0l0,-0.7l-782.4,0l0,0.7Z" class="g2_1674" />
<path d="M69.4,489.3l782.4,0l0,-0.7l-782.4,0l0,0.7Z" class="g2_1674" />
<path d="M69.4,533.6l782.4,0l0,-0.7l-782.4,0l0,0.7Z" class="g2_1674" />
<path d="M69.7,661.2l0.7,0l0,-72.6l-0.7,0l0,72.6Z" class="g2_1674" />
<path d="M140,661.9l0.7,0l0,-74l-0.7,0l0,74Z" class="g2_1674" />
<path d="M311.4,661.9l0.7,0l0,-74l-0.7,0l0,74Z" class="g2_1674" />
<path d="M486,661.9l0.8,0l0,-74l-0.8,0l0,74Z" class="g2_1674" />
<path d="M665.8,661.9l0.7,0l0,-74l-0.7,0l0,74Z" class="g2_1674" />
<path d="M850.8,661.2l0.7,0l0,-72.6l-0.7,0l0,72.6Z" class="g2_1674" />
<path d="M69.7,588.6l781.8,0l0,-0.7l-781.8,0l0,0.7Z" class="g2_1674" />
<path d="M69.7,613.1l781.8,0l0,-0.8l-781.8,0l0,0.8Z" class="g2_1674" />
<path d="M69.7,637.4l781.8,0l0,-0.7l-781.8,0l0,0.7Z" class="g2_1674" />
<path d="M69.7,661.9l781.8,0l0,-0.7l-781.8,0l0,0.7Z" class="g2_1674" />
</svg>