<?xml version="1.0" encoding="UTF-8" standalone="no"?>
<!DOCTYPE svg PUBLIC "-//W3C//DTD SVG 1.1//EN"
"http://www.w3.org/Graphics/SVG/1.1/DTD/svg11.dtd">
<svg viewBox="0 0 935 1210" version="1.1" xmlns="http://www.w3.org/2000/svg" xmlns:xlink="http://www.w3.org/1999/xlink">
<defs>
<style type="text/css"><![CDATA[
.g1_1153{
fill: #FFFFFF;
}
.g2_1153{
}
]]></style>
</defs>
<path d="M68.9,1149.3l686.3,0l0,-21.2l-686.3,0l0,21.2Z" class="g1_1153" />
<path d="M771.3,1149.3l83.7,0l0,-21.2l-83.7,0l0,21.2Z" class="g1_1153" />
<path d="M69.8,1069.1l0.7,0l0,-943.4l-0.7,0l0,943.4Z" class="g2_1153" />
<path d="M386.7,1069.8l0.8,0l0,-944.9l-0.8,0l0,944.9Z" class="g2_1153" />
<path d="M424.6,1069.8l0.7,0l0,-944.9l-0.7,0l0,944.9Z" class="g2_1153" />
<path d="M497.9,1069.8l0.8,0l0,-944.9l-0.8,0l0,944.9Z" class="g2_1153" />
<path d="M576.2,1069.8l0.8,0l0,-944.9l-0.8,0l0,944.9Z" class="g2_1153" />
<path d="M852.2,1069.1l0.8,0l0,-943.4l-0.8,0l0,943.4Z" class="g2_1153" />
<path d="M69.8,125.7l783.2,0l0,-0.8l-783.2,0l0,0.8Z" class="g2_1153" />
<path d="M69.8,179.1l783.2,0l0,-0.7l-783.2,0l0,0.7Z" class="g2_1153" />
<path d="M69.8,223.4l783.2,0l0,-0.7l-783.2,0l0,0.7Z" class="g2_1153" />
<path d="M69.8,267.8l783.2,0l0,-0.8L69.8,267l0,0.8Z" class="g2_1153" />
<path d="M69.8,312L853,312l0,-0.7l-783.2,0l0,0.7Z" class="g2_1153" />
<path d="M69.8,356.3l783.2,0l0,-0.7l-783.2,0l0,0.7Z" class="g2_1153" />
<path d="M69.8,400.7l783.2,0l0,-0.8l-783.2,0l0,0.8Z" class="g2_1153" />
<path d="M69.8,444.9l783.2,0l0,-0.7l-783.2,0l0,0.7Z" class="g2_1153" />
<path d="M69.8,489.3l783.2,0l0,-0.7l-783.2,0l0,0.7Z" class="g2_1153" />
<path d="M69.8,533.6l783.2,0l0,-0.7l-783.2,0l0,0.7Z" class="g2_1153" />
<path d="M69.8,577.9l783.2,0l0,-0.8l-783.2,0l0,0.8Z" class="g2_1153" />
<path d="M69.8,622.2l783.2,0l0,-0.7l-783.2,0l0,0.7Z" class="g2_1153" />
<path d="M69.8,666.5l783.2,0l0,-0.7l-783.2,0l0,0.7Z" class="g2_1153" />
<path d="M69.8,710.8l783.2,0l0,-0.8L69.8,710l0,0.8Z" class="g2_1153" />
<path d="M69.8,755.2l783.2,0l0,-0.8l-783.2,0l0,0.8Z" class="g2_1153" />
<path d="M69.8,799.4l783.2,0l0,-0.7l-783.2,0l0,0.7Z" class="g2_1153" />
<path d="M69.8,843.7l783.2,0l0,-0.7L69.8,843l0,0.7Z" class="g2_1153" />
<path d="M69.8,900.3l783.2,0l0,-0.8l-783.2,0l0,0.8Z" class="g2_1153" />
<path d="M69.8,956.8l783.2,0l0,-0.7l-783.2,0l0,0.7Z" class="g2_1153" />
<path d="M69.8,1013.3l783.2,0l0,-0.7l-783.2,0l0,0.7Z" class="g2_1153" />
<path d="M69.8,1069.8l783.2,0l0,-0.7l-783.2,0l0,0.7Z" class="g2_1153" />
</svg>