<?xml version="1.0" encoding="UTF-8" standalone="no"?>
<!DOCTYPE svg PUBLIC "-//W3C//DTD SVG 1.1//EN"
"http://www.w3.org/Graphics/SVG/1.1/DTD/svg11.dtd">
<svg viewBox="0 0 935 1210" version="1.1" xmlns="http://www.w3.org/2000/svg" xmlns:xlink="http://www.w3.org/1999/xlink">
<defs>
<style type="text/css"><![CDATA[
.g1_71{
fill: #FFFFFF;
}
.g2_71{
}
]]></style>
</defs>
<path d="M68.9,1149.3l783.8,0l0,-21.2l-783.8,0l0,21.2Z" class="g1_71" />
<path d="M72.3,503.8l0.8,0l0,-365.9l-0.8,0l0,365.9Z" class="g2_71" />
<path d="M165.8,504.5l0.8,0l0,-367.4l-0.8,0l0,367.4Z" class="g2_71" />
<path d="M396.4,504.5l0.7,0l0,-367.4l-0.7,0l0,367.4Z" class="g2_71" />
<path d="M472.2,504.5l0.7,0l0,-367.4l-0.7,0l0,367.4Z" class="g2_71" />
<path d="M849.7,503.8l0.7,0l0,-365.9l-0.7,0l0,365.9Z" class="g2_71" />
<path d="M72.3,137.9l778.1,0l0,-0.8l-778.1,0l0,0.8Z" class="g2_71" />
<path d="M72.3,162.3l778.1,0l0,-0.7l-778.1,0l0,0.7Z" class="g2_71" />
<path d="M72.3,186.7l778.1,0l0,-0.7L72.3,186l0,0.7Z" class="g2_71" />
<path d="M72.3,211.2l778.1,0l0,-0.7l-778.1,0l0,0.7Z" class="g2_71" />
<path d="M72.3,235.7l778.1,0l0,-0.8l-778.1,0l0,0.8Z" class="g2_71" />
<path d="M72.3,260.1l778.1,0l0,-0.8l-778.1,0l0,0.8Z" class="g2_71" />
<path d="M72.3,284.5l778.1,0l0,-0.7l-778.1,0l0,0.7Z" class="g2_71" />
<path d="M72.3,309l778.1,0l0,-0.7l-778.1,0l0,0.7Z" class="g2_71" />
<path d="M72.3,333.4l778.1,0l0,-0.7l-778.1,0l0,0.7Z" class="g2_71" />
<path d="M72.3,357.9l778.1,0l0,-0.8l-778.1,0l0,0.8Z" class="g2_71" />
<path d="M72.3,382.3l778.1,0l0,-0.7l-778.1,0l0,0.7Z" class="g2_71" />
<path d="M72.3,406.8l778.1,0l0,-0.7l-778.1,0l0,0.7Z" class="g2_71" />
<path d="M72.3,431.2l778.1,0l0,-0.7l-778.1,0l0,0.7Z" class="g2_71" />
<path d="M72.3,455.7l778.1,0l0,-0.8l-778.1,0l0,0.8Z" class="g2_71" />
<path d="M72.3,480.2l778.1,0l0,-0.8l-778.1,0l0,0.8Z" class="g2_71" />
<path d="M72.3,504.5l778.1,0l0,-0.7l-778.1,0l0,0.7Z" class="g2_71" />
</svg>