<?xml version="1.0" encoding="UTF-8" standalone="no"?>
<!DOCTYPE svg PUBLIC "-//W3C//DTD SVG 1.1//EN"
"http://www.w3.org/Graphics/SVG/1.1/DTD/svg11.dtd">
<svg viewBox="0 0 935 1210" version="1.1" xmlns="http://www.w3.org/2000/svg" xmlns:xlink="http://www.w3.org/1999/xlink">
<defs>
<style type="text/css"><![CDATA[
.g1_2182{
fill: #FFFFFF;
}
.g2_2182{
}
]]></style>
</defs>
<path d="M68.8,1149.3l783.7,0l0,-21.2l-783.7,0l0,21.2Z" class="g1_2182" />
<path d="M69,1085.9l0.8,0l0,-961.8l-0.8,0l0,961.8Z" class="g2_2182" />
<path d="M260.9,1086.7l0.7,0l0,-963.3l-0.7,0l0,963.3Z" class="g2_2182" />
<path d="M851.4,1085.9l0.7,0l0,-961.8l-0.7,0l0,961.8Z" class="g2_2182" />
<path d="M69,124.1l783.1,0l0,-0.7L69,123.4l0,0.7Z" class="g2_2182" />
<path d="M69,147l783.1,0l0,-0.7L69,146.3l0,0.7Z" class="g2_2182" />
<path d="M260.9,169.9l591.2,0l0,-0.7l-591.2,0l0,0.7Z" class="g2_2182" />
<path d="M260.9,192.9l591.2,0l0,-0.8l-591.2,0l0,0.8Z" class="g2_2182" />
<path d="M69,215.8l783.1,0l0,-0.8L69,215l0,0.8Z" class="g2_2182" />
<path d="M260.9,238.7l591.2,0l0,-0.7l-591.2,0l0,0.7Z" class="g2_2182" />
<path d="M69,261.6l783.1,0l0,-0.7L69,260.9l0,0.7Z" class="g2_2182" />
<path d="M260.9,284.5l591.2,0l0,-0.7l-591.2,0l0,0.7Z" class="g2_2182" />
<path d="M69,307.4l783.1,0l0,-0.7L69,306.7l0,0.7Z" class="g2_2182" />
<path d="M260.9,330.4l591.2,0l0,-0.8l-591.2,0l0,0.8Z" class="g2_2182" />
<path d="M69,353.3l783.1,0l0,-0.7L69,352.6l0,0.7Z" class="g2_2182" />
<path d="M260.9,376.2l591.2,0l0,-0.7l-591.2,0l0,0.7Z" class="g2_2182" />
<path d="M69,399.1l783.1,0l0,-0.7L69,398.4l0,0.7Z" class="g2_2182" />
<path d="M69,422l783.1,0l0,-0.7L69,421.3l0,0.7Z" class="g2_2182" />
<path d="M69,444.9l783.1,0l0,-0.7L69,444.2l0,0.7Z" class="g2_2182" />
<path d="M69,467.9l783.1,0l0,-0.8L69,467.1l0,0.8Z" class="g2_2182" />
<path d="M69,490.8l783.1,0l0,-0.8L69,490l0,0.8Z" class="g2_2182" />
<path d="M69,513.7l783.1,0l0,-0.7L69,513l0,0.7Z" class="g2_2182" />
<path d="M69,536.6l783.1,0l0,-0.7L69,535.9l0,0.7Z" class="g2_2182" />
<path d="M69,559.5l783.1,0l0,-0.7L69,558.8l0,0.7Z" class="g2_2182" />
<path d="M69,582.4l783.1,0l0,-0.7L69,581.7l0,0.7Z" class="g2_2182" />
<path d="M69,605.4l783.1,0l0,-0.8L69,604.6l0,0.8Z" class="g2_2182" />
<path d="M69,628.3l783.1,0l0,-0.7L69,627.6l0,0.7Z" class="g2_2182" />
<path d="M69,651.2l783.1,0l0,-0.7L69,650.5l0,0.7Z" class="g2_2182" />
<path d="M69,674.1l783.1,0l0,-0.7L69,673.4l0,0.7Z" class="g2_2182" />
<path d="M69,697l783.1,0l0,-0.7L69,696.3l0,0.7Z" class="g2_2182" />
<path d="M69,719.9l783.1,0l0,-0.7L69,719.2l0,0.7Z" class="g2_2182" />
<path d="M69,742.9l783.1,0l0,-0.8L69,742.1l0,0.8Z" class="g2_2182" />
<path d="M69,765.8l783.1,0l0,-0.7L69,765.1l0,0.7Z" class="g2_2182" />
<path d="M69,788.7l783.1,0l0,-0.7L69,788l0,0.7Z" class="g2_2182" />
<path d="M260.9,811.6l591.2,0l0,-0.7l-591.2,0l0,0.7Z" class="g2_2182" />
<path d="M260.9,834.5l591.2,0l0,-0.7l-591.2,0l0,0.7Z" class="g2_2182" />
<path d="M69,857.5l783.1,0l0,-0.8L69,856.7l0,0.8Z" class="g2_2182" />
<path d="M69,880.4l783.1,0l0,-0.8L69,879.6l0,0.8Z" class="g2_2182" />
<path d="M69,903.3l783.1,0l0,-0.7L69,902.6l0,0.7Z" class="g2_2182" />
<path d="M69,926.2l783.1,0l0,-0.7L69,925.5l0,0.7Z" class="g2_2182" />
<path d="M69,949.1l783.1,0l0,-0.7L69,948.4l0,0.7Z" class="g2_2182" />
<path d="M69,972l783.1,0l0,-0.7L69,971.3l0,0.7Z" class="g2_2182" />
<path d="M69,995l783.1,0l0,-0.8L69,994.2l0,0.8Z" class="g2_2182" />
<path d="M69,1017.9l783.1,0l0,-0.8l-783.1,0l0,0.8Z" class="g2_2182" />
<path d="M69,1040.8l783.1,0l0,-0.8L69,1040l0,0.8Z" class="g2_2182" />
<path d="M69,1063.7l783.1,0l0,-0.7L69,1063l0,0.7Z" class="g2_2182" />
<path d="M69,1086.6l783.1,0l0,-0.7l-783.1,0l0,0.7Z" class="g2_2182" />
</svg>