<?xml version="1.0" encoding="UTF-8" standalone="no"?>
<!DOCTYPE svg PUBLIC "-//W3C//DTD SVG 1.1//EN"
"http://www.w3.org/Graphics/SVG/1.1/DTD/svg11.dtd">
<svg viewBox="0 0 935 1210" version="1.1" xmlns="http://www.w3.org/2000/svg" xmlns:xlink="http://www.w3.org/1999/xlink">
<defs>
<style type="text/css"><![CDATA[
.g1_1429{
fill: #FFFFFF;
}
.g2_1429{
}
]]></style>
</defs>
<path d="M68.9,1149.3l686.3,0l0,-21.2l-686.3,0l0,21.2Z" class="g1_1429" />
<path d="M771.3,1149.3l83.7,0l0,-21.2l-83.7,0l0,21.2Z" class="g1_1429" />
<path d="M69.9,390.8l0.8,0L70.7,147l-0.8,0l0,243.8Z" class="g2_1429" />
<path d="M306.2,391.5l0.7,0l0,-245.2l-0.7,0l0,245.2Z" class="g2_1429" />
<path d="M350.4,391.5l0.8,0l0,-245.2l-0.8,0l0,245.2Z" class="g2_1429" />
<path d="M424.9,391.5l0.7,0l0,-245.2l-0.7,0l0,245.2Z" class="g2_1429" />
<path d="M518.1,391.5l0.7,0l0,-245.2l-0.7,0l0,245.2Z" class="g2_1429" />
<path d="M854.5,390.8l0.7,0l0,-243.8l-0.7,0l0,243.8Z" class="g2_1429" />
<path d="M69.9,147l785.4,0l0,-0.7l-785.4,0l0,0.7Z" class="g2_1429" />
<path d="M69.9,197.4l785.4,0l0,-0.7l-785.4,0l0,0.7Z" class="g2_1429" />
<path d="M69.9,250.9l785.4,0l0,-0.7l-785.4,0l0,0.7Z" class="g2_1429" />
<path d="M69.9,321.2l785.4,0l0,-0.7l-785.4,0l0,0.7Z" class="g2_1429" />
<path d="M69.9,391.5l785.4,0l0,-0.7l-785.4,0l0,0.7Z" class="g2_1429" />
<path d="M68.5,494.6l0.7,0l0,-48.1l-0.7,0l0,48.1Z" class="g2_1429" />
<path d="M853.5,494.6l0.7,0l0,-48.1l-0.7,0l0,48.1Z" class="g2_1429" />
<path d="M68.5,446.5l785.7,0l0,-0.7l-785.7,0l0,0.7Z" class="g2_1429" />
<path d="M68.5,495.4l785.7,0l0,-0.8l-785.7,0l0,0.8Z" class="g2_1429" />
</svg>