<?xml version="1.0" encoding="UTF-8" standalone="no"?>
<!DOCTYPE svg PUBLIC "-//W3C//DTD SVG 1.1//EN"
"http://www.w3.org/Graphics/SVG/1.1/DTD/svg11.dtd">
<svg viewBox="0 0 935 1210" version="1.1" xmlns="http://www.w3.org/2000/svg" xmlns:xlink="http://www.w3.org/1999/xlink">
<defs>
<style type="text/css"><![CDATA[
.g1_2078{
fill: #FFFFFF;
}
.g2_2078{
}
]]></style>
</defs>
<path d="M68.8,1149.3l783.7,0l0,-21.2l-783.7,0l0,21.2Z" class="g1_2078" />
<path d="M68.6,1098.2l0.7,0l0,-974.1l-0.7,0l0,974.1Z" class="g2_2078" />
<path d="M467.6,1098.9l0.7,0l0,-975.5l-0.7,0l0,975.5Z" class="g2_2078" />
<path d="M851.1,1098.2l0.8,0l0,-974.1l-0.8,0l0,974.1Z" class="g2_2078" />
<path d="M68.6,124.1l783.4,0l0,-0.7l-783.4,0l0,0.7Z" class="g2_2078" />
<path d="M68.6,148.6l783.4,0l0,-0.7l-783.4,0l0,0.7Z" class="g2_2078" />
<path d="M68.6,194.4l783.4,0l0,-0.7l-783.4,0l0,0.7Z" class="g2_2078" />
<path d="M68.6,218.8l783.4,0l0,-0.7l-783.4,0l0,0.7Z" class="g2_2078" />
<path d="M68.6,243.3l783.4,0l0,-0.7l-783.4,0l0,0.7Z" class="g2_2078" />
<path d="M68.6,267.8l783.4,0l0,-0.8L68.6,267l0,0.8Z" class="g2_2078" />
<path d="M68.6,292.1l783.4,0l0,-0.7l-783.4,0l0,0.7Z" class="g2_2078" />
<path d="M68.6,333.4l783.4,0l0,-0.7l-783.4,0l0,0.7Z" class="g2_2078" />
<path d="M68.6,357.9l783.4,0l0,-0.8l-783.4,0l0,0.8Z" class="g2_2078" />
<path d="M68.6,382.3l783.4,0l0,-0.7l-783.4,0l0,0.7Z" class="g2_2078" />
<path d="M68.6,406.8l783.4,0l0,-0.7l-783.4,0l0,0.7Z" class="g2_2078" />
<path d="M68.6,431.2l783.4,0l0,-0.7l-783.4,0l0,0.7Z" class="g2_2078" />
<path d="M68.6,455.7l783.4,0l0,-0.8l-783.4,0l0,0.8Z" class="g2_2078" />
<path d="M68.6,480.2l783.4,0l0,-0.8l-783.4,0l0,0.8Z" class="g2_2078" />
<path d="M68.6,504.5l783.4,0l0,-0.7l-783.4,0l0,0.7Z" class="g2_2078" />
<path d="M68.6,529L852,529l0,-0.7l-783.4,0l0,0.7Z" class="g2_2078" />
<path d="M68.6,553.5l783.4,0l0,-0.8l-783.4,0l0,0.8Z" class="g2_2078" />
<path d="M68.6,577.9l783.4,0l0,-0.8l-783.4,0l0,0.8Z" class="g2_2078" />
<path d="M68.6,602.3l783.4,0l0,-0.7l-783.4,0l0,0.7Z" class="g2_2078" />
<path d="M68.6,626.8l783.4,0l0,-0.7l-783.4,0l0,0.7Z" class="g2_2078" />
<path d="M68.6,651.2l783.4,0l0,-0.7l-783.4,0l0,0.7Z" class="g2_2078" />
<path d="M68.6,675.7l783.4,0l0,-0.8l-783.4,0l0,0.8Z" class="g2_2078" />
<path d="M68.6,700.2l783.4,0l0,-0.8l-783.4,0l0,0.8Z" class="g2_2078" />
<path d="M68.6,739.8l783.4,0l0,-0.7l-783.4,0l0,0.7Z" class="g2_2078" />
<path d="M68.6,764.3l783.4,0l0,-0.7l-783.4,0l0,0.7Z" class="g2_2078" />
<path d="M68.6,788.7l783.4,0l0,-0.7L68.6,788l0,0.7Z" class="g2_2078" />
<path d="M68.6,813.2l783.4,0l0,-0.8l-783.4,0l0,0.8Z" class="g2_2078" />
<path d="M68.6,837.7l783.4,0l0,-0.8l-783.4,0l0,0.8Z" class="g2_2078" />
<path d="M68.6,862L852,862l0,-0.7l-783.4,0l0,0.7Z" class="g2_2078" />
<path d="M68.6,886.5l783.4,0l0,-0.7l-783.4,0l0,0.7Z" class="g2_2078" />
<path d="M68.6,911L852,911l0,-0.8l-783.4,0l0,0.8Z" class="g2_2078" />
<path d="M68.6,935.4l783.4,0l0,-0.8l-783.4,0l0,0.8Z" class="g2_2078" />
<path d="M68.6,959.8l783.4,0l0,-0.7l-783.4,0l0,0.7Z" class="g2_2078" />
<path d="M68.6,984.3l783.4,0l0,-0.7l-783.4,0l0,0.7Z" class="g2_2078" />
<path d="M68.6,1008.7l783.4,0l0,-0.7l-783.4,0l0,0.7Z" class="g2_2078" />
<path d="M68.6,1033.2l783.4,0l0,-0.8l-783.4,0l0,0.8Z" class="g2_2078" />
<path d="M68.6,1057.7l783.4,0l0,-0.8l-783.4,0l0,0.8Z" class="g2_2078" />
<path d="M68.6,1098.9l783.4,0l0,-0.7l-783.4,0l0,0.7Z" class="g2_2078" />
</svg>