<?xml version="1.0" encoding="UTF-8" standalone="no"?>
<!DOCTYPE svg PUBLIC "-//W3C//DTD SVG 1.1//EN"
"http://www.w3.org/Graphics/SVG/1.1/DTD/svg11.dtd">
<svg viewBox="0 0 935 1210" version="1.1" xmlns="http://www.w3.org/2000/svg" xmlns:xlink="http://www.w3.org/1999/xlink">
<defs>
<style type="text/css"><![CDATA[
.g1_352{
fill: #FFFFFF;
}
.g2_352{
}
]]></style>
</defs>
<path d="M165,1149.3l687.5,0l0,-21.2l-687.5,0l0,21.2Z" class="g1_352" />
<path d="M68.8,1149.3l82.5,0l0,-21.2l-82.5,0l0,21.2Z" class="g1_352" />
<path d="M157.7,368l0.7,0l0,-243.9l-0.7,0l0,243.9Z" class="g2_352" />
<path d="M762.7,368l0.7,0l0,-243.9l-0.7,0l0,243.9Z" class="g2_352" />
<path d="M157.7,124.1l605.8,0l0,-0.7l-605.8,0l0,0.7Z" class="g2_352" />
<path d="M157.7,368.8l605.8,0l0,-0.8l-605.8,0l0,0.8Z" class="g2_352" />
<path fill-rule="evenodd" d="M278.9,278.6l0.1,0.3l0.2,0.1l0.2,0.2l0.3,0.2l0.3,0.1l0.6,0l0.3,-0.1l0.5,-0.4l0.2,-0.1l0.2,-0.6l0,-0.6l-0.2,-0.6c-0.9,-1.2,-2.8,-0.7,-2.8,0.8l0,0.3l0.1,0.4Z" class="g2_352" />
<path d="M280.2,277.9l2.5,6.2l0.4,1l-1,0.1l-23.7,2.5l-2.7,0.3l2.2,-1.6l18.7,-14.8l0.8,-0.6l0.4,0.9l-0.2,0.9l-18.7,14.8l-1,-1.2l0.4,-0.2L282,283.6l0.1,1.6l-0.8,-0.6l-2.4,-6.1Z" class="g2_352" />
<path d="M277.8,271.9l2.4,6l-1.3,0.6l-2.5,-6.1Z" class="g2_352" />
<path fill-rule="evenodd" d="M279.6,278.2l2.5,6.1l-23.7,2.6l18.7,-14.7Z" class="g2_352" />
<path d="M457.6,207l-1.2,-2.9L279.8,276.6l1.2,2.8Z" class="g2_352" />
<path d="M601.3,205.5l56.8,0l0,-20.6l-56.8,0l0,20.6Z" class="g1_352" />
<path d="M601.3,185.3l57.1,0l0,-0.8l-57.1,0l0,0.8Z" class="g2_352" />
<path d="M657.7,205.9l0.7,0l0,-21l-0.7,0l0,21Z" class="g2_352" />
<path d="M601,205.9l57.1,0l0,-0.7l-57.1,0l0,0.7Z" class="g2_352" />
<path d="M601,205.5l0.7,0l0,-21l-0.7,0l0,21Z" class="g2_352" />
<path fill-rule="evenodd" d="M604.9,264.6l0.3,0.1l0.4,0c1.2,0.1,2,-1.8,0.7,-2.7L606,261.8l-0.4,-0.1c-1.5,0,-2.2,1.5,-1.2,2.7l0.2,0.1l0.3,0.1Z" class="g2_352" />
<path d="M605.5,263.4l6.1,2.3l0.9,0.3l-0.6,0.8l-14.2,19.1l-1.6,2.1l0.2,-2.6l1.9,-23.8l0.2,-1l0.9,0.4l0.5,0.7l-2,23.8l-1.5,-0.1l0.2,-0.5l14.2,-19.1l1.2,1L611,267l-6.1,-2.3Z" class="g2_352" />
<path d="M599.3,261l6.2,2.4l-0.6,1.3l-6.1,-2.3Z" class="g2_352" />
<path fill-rule="evenodd" d="M605.2,264l6.1,2.3l-14.2,19.1L599,261.6Z" class="g2_352" />
<path d="M628.6,206.1L625.7,205l-21.6,57.7l2.8,1.1Z" class="g2_352" />
<path fill-rule="evenodd" d="M505.4,270.4l0.3,0.2l0.3,0.1c1.2,0.6,2.8,-1.1,1.8,-2.2l-0.1,-0.3L507.4,268c-1.3,-0.7,-2.7,0.4,-2.2,1.9l0.1,0.2l0.1,0.3Z" class="g2_352" />
<path d="M506.6,269.3l4.6,4.6l0.7,0.8l-0.9,0.5l-20.8,11.5l-2.3,1.3l1.2,-2.4l11.6,-20.8l0.5,-0.8l0.8,0.6l0.1,1l-11.6,20.8l-1.4,-0.8l0.4,-0.2l20.8,-11.6l0.7,1.4L510.1,275l-4.7,-4.6Z" class="g2_352" />
<path d="M502,264.6l4.6,4.7l-1.2,1.1l-4.5,-4.7Z" class="g2_352" />
<path fill-rule="evenodd" d="M506,269.9l4.7,4.6L489.9,286l11.5,-20.8Z" class="g2_352" />
<path d="M571.5,206.6l-2.2,-2.1l-63.8,63.8l2.2,2.1Z" class="g2_352" />
<path fill-rule="evenodd" d="M395.9,275.3l0.2,0.2l0.2,0.2l0.3,0.2l0.2,0.1l0.9,0l0.5,-0.4c0.5,-0.4,0.5,-0.6,0.5,-1.2l0,-0.4l-0.2,-0.3l-0.2,-0.2l-0.2,-0.2L397.3,273l-0.3,0l-0.4,0.1l-0.2,0.1c-0.8,0.7,-0.4,0.3,-0.8,1.3l0,0.2l0.1,0.3l0.2,0.3Z" class="g2_352" />
<path d="M397.2,274.5l3.3,5.7l0.5,0.9l-1.1,0.2l-22.9,6l-2.6,0.7l1.8,-1.9l16.3,-17.3l0.8,-0.9l0.5,1l-0.1,0.9l-16.3,17.3l-1.2,-1l0.5,-0.3l23,-5.9l0.2,1.4l-0.8,-0.2l-3.3,-5.7Z" class="g2_352" />
<path d="M393.8,268.9l3.4,5.6l-1.4,0.9l-3.4,-5.7Z" class="g2_352" />
<path fill-rule="evenodd" d="M396.5,274.9l3.4,5.7l-23.1,5.9l16.4,-17.3Z" class="g2_352" />
<path d="M514.5,206.8L513,204.2L396.5,273.3l1.5,2.5Z" class="g2_352" />
<path d="M544.6,205.5l56.7,0l0,-20.6l-56.7,0l0,20.6Z" class="g1_352" />
<path d="M544.6,185.3l57.1,0l0,-0.8l-57.1,0l0,0.8Z" class="g2_352" />
<path d="M601,205.9l0.7,0l0,-21l-0.7,0l0,21Z" class="g2_352" />
<path d="M544.2,205.9l57.1,0l0,-0.7l-57.1,0l0,0.7Z" class="g2_352" />
<path d="M544.2,205.5l0.8,0l0,-21l-0.8,0l0,21Z" class="g2_352" />
<path d="M487.9,205.5l56.7,0l0,-20.6l-56.7,0l0,20.6Z" class="g1_352" />
<path d="M487.9,185.3l57.1,0l0,-0.8l-57.1,0l0,0.8Z" class="g2_352" />
<path d="M544.2,205.9l0.8,0l0,-21l-0.8,0l0,21Z" class="g2_352" />
<path d="M487.5,205.9l57.1,0l0,-0.7l-57.1,0l0,0.7Z" class="g2_352" />
<path d="M487.5,205.5l0.7,0l0,-21l-0.7,0l0,21Z" class="g2_352" />
<path d="M431.2,205.5l56.7,0l0,-20.6l-56.7,0l0,20.6Z" class="g1_352" />
<path d="M431.2,185.3l57,0l0,-0.8l-57,0l0,0.8Z" class="g2_352" />
<path d="M487.5,205.9l0.7,0l0,-21l-0.7,0l0,21Z" class="g2_352" />
<path d="M430.8,205.9l57.1,0l0,-0.7l-57.1,0l0,0.7Z" class="g2_352" />
<path d="M430.8,205.5l0.8,0l0,-21l-0.8,0l0,21Z" class="g2_352" />
<path d="M543.8,308.6l113.4,0l0,-20.6l-113.4,0l0,20.6Z" class="g1_352" />
<path d="M543.8,288.4l113.7,0l0,-0.8l-113.7,0l0,0.8Z" class="g2_352" />
<path d="M656.8,309l0.7,0l0,-21l-0.7,0l0,21Z" class="g2_352" />
<path d="M543.4,309l113.8,0l0,-0.7l-113.8,0l0,0.7Z" class="g2_352" />
<path d="M543.4,308.6l0.7,0l0,-20.9l-0.7,0l0,20.9Z" class="g2_352" />
<path d="M203.4,308.6l113.5,0l0,-20.6l-113.5,0l0,20.6Z" class="g1_352" />
<path d="M203.4,288.4l113.9,0l0,-0.8l-113.9,0l0,0.8Z" class="g2_352" />
<path d="M316.5,309l0.8,0l0,-21l-0.8,0l0,21Z" class="g2_352" />
<path d="M203,309l113.9,0l0,-0.7l-113.9,0l0,0.7Z" class="g2_352" />
<path d="M203,308.6l0.8,0l0,-20.9l-0.8,0l0,20.9Z" class="g2_352" />
<path d="M316.9,308.6l113.4,0l0,-20.6l-113.4,0l0,20.6Z" class="g1_352" />
<path d="M316.9,288.4l113.8,0l0,-0.8l-113.8,0l0,0.8Z" class="g2_352" />
<path d="M429.9,309l0.8,0l0,-21l-0.8,0l0,21Z" class="g2_352" />
<path d="M316.5,309l113.8,0l0,-0.7l-113.8,0l0,0.7Z" class="g2_352" />
<path d="M316.5,308.6l0.8,0l0,-20.9l-0.8,0l0,20.9Z" class="g2_352" />
<path d="M430.3,308.6l113.5,0l0,-20.6l-113.5,0l0,20.6Z" class="g1_352" />
<path d="M430.3,288.4l113.8,0l0,-0.8l-113.8,0l0,0.8Z" class="g2_352" />
<path d="M543.4,309l0.7,0l0,-21l-0.7,0l0,21Z" class="g2_352" />
<path d="M429.9,309l113.9,0l0,-0.7l-113.9,0l0,0.7Z" class="g2_352" />
<path d="M429.9,308.6l0.8,0l0,-20.9l-0.8,0l0,20.9Z" class="g2_352" />
</svg>