<?xml version="1.0" encoding="UTF-8" standalone="no"?>
<!DOCTYPE svg PUBLIC "-//W3C//DTD SVG 1.1//EN"
"http://www.w3.org/Graphics/SVG/1.1/DTD/svg11.dtd">
<svg viewBox="0 0 935 1210" version="1.1" xmlns="http://www.w3.org/2000/svg" xmlns:xlink="http://www.w3.org/1999/xlink">
<defs>
<style type="text/css"><![CDATA[
.g1_1826{
fill: #FFFFFF;
}
.g2_1826{
}
.g3_1826{
fill: #E6E6E6;
}
.g4_1826{
fill: none;
stroke: #000000;
stroke-width: 0.15277778;
stroke-linecap: butt;
stroke-linejoin: miter;
}
]]></style>
</defs>
<path d="M165,1149.3l687.5,0l0,-21.2l-687.5,0l0,21.2Z" class="g1_1826" />
<path d="M68.8,1149.3l82.5,0l0,-21.2l-82.5,0l0,21.2Z" class="g1_1826" />
<path d="M68.6,436.6l0.7,0l0,-310.9l-0.7,0l0,310.9Z" class="g2_1826" />
<path d="M293.6,437.3l0.7,0l0,-312.4l-0.7,0l0,312.4Z" class="g2_1826" />
<path d="M338.3,437.3l0.8,0l0,-312.4l-0.8,0l0,312.4Z" class="g2_1826" />
<path d="M412.8,437.3l0.7,0l0,-312.4l-0.7,0l0,312.4Z" class="g2_1826" />
<path d="M499.9,437.3l0.7,0l0,-312.4l-0.7,0l0,312.4Z" class="g2_1826" />
<path d="M854,436.6l0.7,0l0,-310.9l-0.7,0l0,310.9Z" class="g2_1826" />
<path d="M68.6,125.7l786.1,0l0,-0.8l-786.1,0l0,0.8Z" class="g2_1826" />
<path d="M68.6,176.1l786.1,0l0,-0.7l-786.1,0l0,0.7Z" class="g2_1826" />
<path d="M68.6,263.2l786.1,0l0,-0.8l-786.1,0l0,0.8Z" class="g2_1826" />
<path d="M68.6,350.3l786.1,0l0,-0.8l-786.1,0l0,0.8Z" class="g2_1826" />
<path d="M68.6,437.3l786.1,0l0,-0.7l-786.1,0l0,0.7Z" class="g2_1826" />
<path d="M67.8,540.5l0.8,0l0,-48.2l-0.8,0l0,48.2Z" class="g2_1826" />
<path d="M209.4,541.2l0.7,0l0,-49.6l-0.7,0l0,49.6Z" class="g2_1826" />
<path d="M357.3,541.2l0.8,0l0,-49.6l-0.8,0l0,49.6Z" class="g2_1826" />
<path d="M568.2,541.2l0.8,0l0,-49.6l-0.8,0l0,49.6Z" class="g2_1826" />
<path d="M717.8,541.2l0.8,0l0,-49.6l-0.8,0l0,49.6Z" class="g2_1826" />
<path d="M852.6,540.5l0.7,0l0,-48.2l-0.7,0l0,48.2Z" class="g2_1826" />
<path d="M67.8,492.3l785.5,0l0,-0.7l-785.5,0l0,0.7Z" class="g2_1826" />
<path d="M67.8,516.8l785.5,0l0,-0.7l-785.5,0l0,0.7Z" class="g2_1826" />
<path d="M67.8,541.2l785.5,0l0,-0.7l-785.5,0l0,0.7Z" class="g2_1826" />
<path d="M79.3,981.4l0.7,0L80,817.8l-0.7,0l0,163.6Z" class="g2_1826" />
<path d="M841.1,981.4l0.8,0l0,-163.6l-0.8,0l0,163.6Z" class="g2_1826" />
<path d="M79.2,817.8l762.7,0l0,-0.8L79.2,817l0,0.8Z" class="g2_1826" />
<path d="M79.2,982.2l762.7,0l0,-0.7l-762.7,0l0,0.7Z" class="g2_1826" />
<path d="M171.8,879l283.3,0l0,-19.6l-283.3,0l0,19.6Z" class="g3_1826" />
<path d="M171.8,859.4l283.3,0l0,19.6l-283.3,0l0,-19.6" class="g4_1826" />
<path d="M171.1,859.5l570.2,0l0,-0.8l-570.2,0l0,0.8Z" class="g2_1826" />
<path d="M740.6,879.7l0.7,0l0,-20.6l-0.7,0l0,20.6Z" class="g2_1826" />
<path d="M170.7,879.7l570.2,0l0,-0.7l-570.2,0l0,0.7Z" class="g2_1826" />
<path d="M170.7,879.4l0.7,0l0,-20.7l-0.7,0l0,20.7Z" class="g2_1826" />
<path d="M598,859.5l0.8,0l0,-0.4l-0.8,0l0,0.4Z" class="g2_1826" />
<path d="M598,879.7l0.8,0l0,-20.2l-0.8,0l0,20.2Z" class="g2_1826" />
<path d="M455.6,859.5l0.7,0l0,-0.4l-0.7,0l0,0.4Z" class="g2_1826" />
<path d="M455.6,879.7l0.7,0l0,-20.2l-0.7,0l0,20.2Z" class="g2_1826" />
<path d="M320.7,914.8l-7.8,1.4" class="g4_1826" />
<path d="M321.4,919.3l-8.5,-3.1l6.9,-5.8" class="g4_1826" />
<path d="M517.1,880L320.7,914.8" class="g4_1826" />
<path d="M676,889.6l0,7.9" class="g4_1826" />
<path d="M680.5,889.7l-4.5,7.8l-4.5,-7.8" class="g4_1826" />
<path d="M676,878.4l0,11.2" class="g4_1826" />
</svg>