<?xml version="1.0" encoding="UTF-8" standalone="no"?>
<!DOCTYPE svg PUBLIC "-//W3C//DTD SVG 1.1//EN"
"http://www.w3.org/Graphics/SVG/1.1/DTD/svg11.dtd">
<svg viewBox="0 0 935 1210" version="1.1" xmlns="http://www.w3.org/2000/svg" xmlns:xlink="http://www.w3.org/1999/xlink">
<defs>
<style type="text/css"><![CDATA[
.g1_1479{
fill: #FFFFFF;
}
.g2_1479{
}
]]></style>
</defs>
<path d="M68.9,1149.3l686.3,0l0,-21.2l-686.3,0l0,21.2Z" class="g1_1479" />
<path d="M771.3,1149.3l83.7,0l0,-21.2l-83.7,0l0,21.2Z" class="g1_1479" />
<path d="M69.9,228.8l0.8,0l0,-103.1l-0.8,0l0,103.1Z" class="g2_1479" />
<path d="M300.1,229.5l0.8,0l0,-104.6l-0.8,0l0,104.6Z" class="g2_1479" />
<path d="M344.8,229.5l0.7,0l0,-104.6l-0.7,0l0,104.6Z" class="g2_1479" />
<path d="M419.3,229.5l0.7,0l0,-104.6l-0.7,0l0,104.6Z" class="g2_1479" />
<path d="M500.1,229.5l0.8,0l0,-104.6l-0.8,0l0,104.6Z" class="g2_1479" />
<path d="M850.3,228.8l0.7,0l0,-103.1l-0.7,0l0,103.1Z" class="g2_1479" />
<path d="M69.9,125.7l781.1,0l0,-0.8l-781.1,0l0,0.8Z" class="g2_1479" />
<path d="M69.9,176.1l781.1,0l0,-0.7l-781.1,0l0,0.7Z" class="g2_1479" />
<path d="M69.9,229.5l781.1,0l0,-0.7l-781.1,0l0,0.7Z" class="g2_1479" />
<path d="M70.7,332.7l0.7,0l0,-48.2l-0.7,0l0,48.2Z" class="g2_1479" />
<path d="M188.4,333.5l0.7,0l0,-49.7l-0.7,0l0,49.7Z" class="g2_1479" />
<path d="M353.5,333.5l0.7,0l0,-49.7l-0.7,0l0,49.7Z" class="g2_1479" />
<path d="M516.2,333.5l0.7,0l0,-49.7l-0.7,0l0,49.7Z" class="g2_1479" />
<path d="M686.3,333.5l0.7,0l0,-49.7l-0.7,0l0,49.7Z" class="g2_1479" />
<path d="M851.3,332.7l0.7,0l0,-48.2l-0.7,0l0,48.2Z" class="g2_1479" />
<path d="M70.7,284.5l781.3,0l0,-0.7l-781.3,0l0,0.7Z" class="g2_1479" />
<path d="M70.7,309L852,309l0,-0.7l-781.3,0l0,0.7Z" class="g2_1479" />
<path d="M70.7,333.4l781.3,0l0,-0.7l-781.3,0l0,0.7Z" class="g2_1479" />
</svg>