<?xml version="1.0" encoding="UTF-8" standalone="no"?>
<!DOCTYPE svg PUBLIC "-//W3C//DTD SVG 1.1//EN"
"http://www.w3.org/Graphics/SVG/1.1/DTD/svg11.dtd">
<svg viewBox="0 0 935 1210" version="1.1" xmlns="http://www.w3.org/2000/svg" xmlns:xlink="http://www.w3.org/1999/xlink">
<defs>
<style type="text/css"><![CDATA[
.g1_76{
fill: #FFFFFF;
}
.g2_76{
}
]]></style>
</defs>
<path d="M68.8,1149.3l783.7,0l0,-21.2l-783.7,0l0,21.2Z" class="g1_76" />
<path d="M77.1,543.4l334.6,0l0,-27.8l-334.6,0l0,27.8Z" class="g1_76" />
<path d="M411.7,543.4l220.2,0l0,-27.8l-220.2,0l0,27.8Z" class="g1_76" />
<path d="M632,515.6l212.1,0l0,27.8l-212.1,0Z" class="g1_76" />
<path d="M77.1,567.9l334.6,0l0,-24.5l-334.6,0l0,24.5Z" class="g1_76" />
<path d="M411.7,567.9l220.2,0l0,-24.5l-220.2,0l0,24.5Z" class="g1_76" />
<path d="M632,543.4l212.1,0l0,24.5l-212.1,0Z" class="g1_76" />
<path d="M77.1,592.3l334.6,0l0,-24.4l-334.6,0l0,24.4Z" class="g1_76" />
<path d="M411.7,592.3l220.2,0l0,-24.4l-220.2,0l0,24.4Z" class="g1_76" />
<path d="M632,567.9l212.1,0l0,24.4l-212.1,0Z" class="g1_76" />
<path d="M77.1,616.7l334.6,0l0,-24.4l-334.6,0l0,24.4Z" class="g1_76" />
<path d="M411.7,616.7l220.2,0l0,-24.4l-220.2,0l0,24.4Z" class="g1_76" />
<path d="M632,592.3l212.1,0l0,24.4l-212.1,0Z" class="g1_76" />
<path d="M77.1,641.2l334.6,0l0,-24.5l-334.6,0l0,24.5Z" class="g1_76" />
<path d="M411.7,641.2l220.2,0l0,-24.5l-220.2,0l0,24.5Z" class="g1_76" />
<path d="M632,616.7l212.1,0l0,24.5l-212.1,0Z" class="g1_76" />
<path d="M77.1,665.6l334.6,0l0,-24.4l-334.6,0l0,24.4Z" class="g1_76" />
<path d="M411.7,665.6l220.2,0l0,-24.4l-220.2,0l0,24.4Z" class="g1_76" />
<path d="M632,641.2l212.1,0l0,24.4l-212.1,0Z" class="g1_76" />
<path d="M77.1,690.1l334.6,0l0,-24.5l-334.6,0l0,24.5Z" class="g1_76" />
<path d="M411.7,690.1l220.2,0l0,-24.5l-220.2,0l0,24.5Z" class="g1_76" />
<path d="M632,665.6l212.1,0l0,24.5l-212.1,0Z" class="g1_76" />
<path d="M67.8,262.4l0.8,0l0,-138.3l-0.8,0l0,138.3Z" class="g2_76" />
<path d="M413.4,263.2l0.7,0l0,-139.8l-0.7,0l0,139.8Z" class="g2_76" />
<path d="M569.2,263.2l0.7,0l0,-139.8l-0.7,0l0,139.8Z" class="g2_76" />
<path d="M726.8,263.2l0.8,0l0,-139.8l-0.8,0l0,139.8Z" class="g2_76" />
<path d="M852.6,262.4l0.7,0l0,-138.3l-0.7,0l0,138.3Z" class="g2_76" />
<path d="M67.8,124.1l785.5,0l0,-0.7l-785.5,0l0,0.7Z" class="g2_76" />
<path d="M67.8,148.6l785.5,0l0,-0.7l-785.5,0l0,0.7Z" class="g2_76" />
<path d="M67.8,173l785.5,0l0,-0.8l-785.5,0l0,0.8Z" class="g2_76" />
<path d="M67.8,197.4l502.1,0l0,-0.7l-502.1,0l0,0.7Z" class="g2_76" />
<path d="M726.8,197.4l126.5,0l0,-0.7l-126.5,0l0,0.7Z" class="g2_76" />
<path d="M67.8,221.9l502.1,0l0,-0.7l-502.1,0l0,0.7Z" class="g2_76" />
<path d="M726.8,221.9l126.5,0l0,-0.7l-126.5,0l0,0.7Z" class="g2_76" />
<path d="M67.8,263.2l785.5,0l0,-0.8l-785.5,0l0,0.8Z" class="g2_76" />
<path d="M76.7,689.7l0.8,0L77.5,516l-0.8,0l0,173.7Z" class="g2_76" />
<path d="M411.3,690.4l0.7,0l0,-175.1l-0.7,0l0,175.1Z" class="g2_76" />
<path d="M631.6,690.4l0.7,0l0,-175.1l-0.7,0l0,175.1Z" class="g2_76" />
<path d="M843.7,689.7l0.7,0l0,-173.7l-0.7,0l0,173.7Z" class="g2_76" />
<path d="M76.7,516l767.7,0l0,-0.7l-767.7,0l0,0.7Z" class="g2_76" />
<path d="M76.7,543.8l767.7,0l0,-0.8L76.7,543l0,0.8Z" class="g2_76" />
<path d="M76.7,568.2l767.7,0l0,-0.7l-767.7,0l0,0.7Z" class="g2_76" />
<path d="M76.7,592.6l767.7,0l0,-0.7l-767.7,0l0,0.7Z" class="g2_76" />
<path d="M76.7,617.1l767.7,0l0,-0.7l-767.7,0l0,0.7Z" class="g2_76" />
<path d="M76.7,641.6l767.7,0l0,-0.8l-767.7,0l0,0.8Z" class="g2_76" />
<path d="M76.7,666l767.7,0l0,-0.8l-767.7,0l0,0.8Z" class="g2_76" />
<path d="M76.7,690.4l767.7,0l0,-0.7l-767.7,0l0,0.7Z" class="g2_76" />
<path d="M84.4,937.9l0.8,0l0,-121.4l-0.8,0l0,121.4Z" class="g2_76" />
<path d="M156.2,938.8l0.7,0l0,-123.1l-0.7,0l0,123.1Z" class="g2_76" />
<path d="M249.6,938.8l0.7,0l0,-123.1l-0.7,0l0,123.1Z" class="g2_76" />
<path d="M435.5,938.8l0.7,0l0,-123.1l-0.7,0l0,123.1Z" class="g2_76" />
<path d="M835.9,937.9l0.7,0l0,-121.4l-0.7,0l0,121.4Z" class="g2_76" />
<path d="M84.4,816.5l752.2,0l0,-0.8l-752.2,0l0,0.8Z" class="g2_76" />
<path d="M84.4,841l752.2,0l0,-0.8l-752.2,0l0,0.8Z" class="g2_76" />
<path d="M84.4,865.3l752.2,0l0,-0.7l-752.2,0l0,0.7Z" class="g2_76" />
<path d="M84.4,889.8l752.2,0l0,-0.7l-752.2,0l0,0.7Z" class="g2_76" />
<path d="M84.4,914.3l752.2,0l0,-0.8l-752.2,0l0,0.8Z" class="g2_76" />
<path d="M84.4,938.7l752.2,0l0,-0.8l-752.2,0l0,0.8Z" class="g2_76" />
<path d="M67,1088.5l0.7,0l0,-23.7l-0.7,0l0,23.7Z" class="g2_76" />
<path d="M160.5,1089.2l0.7,0l0,-25.2l-0.7,0l0,25.2Z" class="g2_76" />
<path d="M232.2,1089.2l0.7,0l0,-25.2l-0.7,0l0,25.2Z" class="g2_76" />
<path d="M568.9,1089.2l0.7,0l0,-25.2l-0.7,0l0,25.2Z" class="g2_76" />
<path d="M709.4,1089.2l0.7,0l0,-25.2l-0.7,0l0,25.2Z" class="g2_76" />
<path d="M853.3,1088.5l0.8,0l0,-23.7l-0.8,0l0,23.7Z" class="g2_76" />
<path d="M67,1064.8l787.1,0l0,-0.7l-787.1,0l0,0.7Z" class="g2_76" />
<path d="M67,1089.2l787.1,0l0,-0.8l-787.1,0l0,0.8Z" class="g2_76" />
</svg>