<?xml version="1.0" encoding="UTF-8" standalone="no"?>
<!DOCTYPE svg PUBLIC "-//W3C//DTD SVG 1.1//EN"
"http://www.w3.org/Graphics/SVG/1.1/DTD/svg11.dtd">
<svg viewBox="0 0 935 1210" version="1.1" xmlns="http://www.w3.org/2000/svg" xmlns:xlink="http://www.w3.org/1999/xlink">
<defs>
<style type="text/css"><![CDATA[
.g1_1827{
fill: #FFFFFF;
}
.g2_1827{
}
]]></style>
</defs>
<path d="M68.9,1149.3l686.3,0l0,-21.2l-686.3,0l0,21.2Z" class="g1_1827" />
<path d="M771.3,1149.3l83.7,0l0,-21.2l-83.7,0l0,21.2Z" class="g1_1827" />
<path d="M75.8,529.7l0.7,0l0,-219.1l-0.7,0l0,219.1Z" class="g2_1827" />
<path d="M163,530.6l0.7,0l0,-220.9l-0.7,0l0,220.9Z" class="g2_1827" />
<path d="M248.1,530.6l0.7,0l0,-220.9l-0.7,0l0,220.9Z" class="g2_1827" />
<path d="M380,530.6l0.7,0l0,-220.9l-0.7,0l0,220.9Z" class="g2_1827" />
<path d="M601.2,530.6l0.8,0l0,-220.9l-0.8,0l0,220.9Z" class="g2_1827" />
<path d="M846.2,529.7l0.7,0l0,-219.1l-0.7,0l0,219.1Z" class="g2_1827" />
<path d="M75.8,310.5l771.1,0l0,-0.8l-771.1,0l0,0.8Z" class="g2_1827" />
<path d="M75.8,334.9l771.1,0l0,-0.7l-771.1,0l0,0.7Z" class="g2_1827" />
<path d="M75.8,359.4l771.1,0l0,-0.7l-771.1,0l0,0.7Z" class="g2_1827" />
<path d="M75.8,383.8l771.1,0l0,-0.7l-771.1,0l0,0.7Z" class="g2_1827" />
<path d="M75.8,408.3l771.1,0l0,-0.8l-771.1,0l0,0.8Z" class="g2_1827" />
<path d="M75.8,432.8l771.1,0l0,-0.8L75.8,432l0,0.8Z" class="g2_1827" />
<path d="M75.8,457.2l771.1,0l0,-0.7l-771.1,0l0,0.7Z" class="g2_1827" />
<path d="M75.8,481.6l771.1,0l0,-0.7l-771.1,0l0,0.7Z" class="g2_1827" />
<path d="M75.8,506.1l771.1,0l0,-0.7l-771.1,0l0,0.7Z" class="g2_1827" />
<path d="M75.8,530.6l771.1,0l0,-0.8l-771.1,0l0,0.8Z" class="g2_1827" />
<path d="M72.8,682.6l0.7,0l0,-97l-0.7,0l0,97Z" class="g2_1827" />
<path d="M185.1,683.3l0.7,0l0,-74.1l-0.7,0l0,74.1Z" class="g2_1827" />
<path d="M308.4,683.3l0.7,0l0,-74.1l-0.7,0l0,74.1Z" class="g2_1827" />
<path d="M461,683.3l0.7,0l0,-98.6l-0.7,0l0,98.6Z" class="g2_1827" />
<path d="M573.3,683.3l0.7,0l0,-74.1l-0.7,0l0,74.1Z" class="g2_1827" />
<path d="M696.5,683.3l0.7,0l0,-74.1l-0.7,0l0,74.1Z" class="g2_1827" />
<path d="M849.2,682.6l0.7,0l0,-97l-0.7,0l0,97Z" class="g2_1827" />
<path d="M72.8,585.6l777.1,0l0,-0.8l-777.1,0l0,0.8Z" class="g2_1827" />
<path d="M72.8,609.9l777.1,0l0,-0.7l-777.1,0l0,0.7Z" class="g2_1827" />
<path d="M72.8,634.4l777.1,0l0,-0.7l-777.1,0l0,0.7Z" class="g2_1827" />
<path d="M72.8,658.9l777.1,0l0,-0.7l-777.1,0l0,0.7Z" class="g2_1827" />
<path d="M72.8,683.3l777.1,0l0,-0.7l-777.1,0l0,0.7Z" class="g2_1827" />
<path d="M72.8,835.4l0.7,0l0,-97.1l-0.7,0l0,97.1Z" class="g2_1827" />
<path d="M185.1,836.1l0.7,0l0,-74.1l-0.7,0l0,74.1Z" class="g2_1827" />
<path d="M308.4,836.1l0.7,0l0,-74.1l-0.7,0l0,74.1Z" class="g2_1827" />
<path d="M461,836.1l0.7,0l0,-98.5l-0.7,0l0,98.5Z" class="g2_1827" />
<path d="M573.3,836.1l0.7,0L574,762l-0.7,0l0,74.1Z" class="g2_1827" />
<path d="M696.5,836.1l0.7,0l0,-74.1l-0.7,0l0,74.1Z" class="g2_1827" />
<path d="M849.2,835.4l0.7,0l0,-97.1l-0.7,0l0,97.1Z" class="g2_1827" />
<path d="M72.8,738.3l777.1,0l0,-0.8l-777.1,0l0,0.8Z" class="g2_1827" />
<path d="M72.8,762.8l777.1,0l0,-0.8L72.8,762l0,0.8Z" class="g2_1827" />
<path d="M72.8,787.2l777.1,0l0,-0.7l-777.1,0l0,0.7Z" class="g2_1827" />
<path d="M72.8,811.6l777.1,0l0,-0.7l-777.1,0l0,0.7Z" class="g2_1827" />
<path d="M72.8,836.1l777.1,0l0,-0.7l-777.1,0l0,0.7Z" class="g2_1827" />
</svg>