<?xml version="1.0" encoding="UTF-8" standalone="no"?>
<!DOCTYPE svg PUBLIC "-//W3C//DTD SVG 1.1//EN"
"http://www.w3.org/Graphics/SVG/1.1/DTD/svg11.dtd">
<svg viewBox="0 0 935 1210" version="1.1" xmlns="http://www.w3.org/2000/svg" xmlns:xlink="http://www.w3.org/1999/xlink">
<defs>
<style type="text/css"><![CDATA[
.g1_1679{
fill: #FFFFFF;
}
.g2_1679{
}
]]></style>
</defs>
<path d="M68.9,1149.3l686.3,0l0,-21.2l-686.3,0l0,21.2Z" class="g1_1679" />
<path d="M771.3,1149.3l83.7,0l0,-21.2l-83.7,0l0,21.2Z" class="g1_1679" />
<path d="M69.9,496.2l0.8,0l0,-370.5l-0.8,0l0,370.5Z" class="g2_1679" />
<path d="M285.8,496.9l0.7,0l0,-372l-0.7,0l0,372Z" class="g2_1679" />
<path d="M330.6,496.9l0.7,0l0,-372l-0.7,0l0,372Z" class="g2_1679" />
<path d="M405,496.9l0.7,0l0,-372l-0.7,0l0,372Z" class="g2_1679" />
<path d="M492.1,496.9l0.7,0l0,-372l-0.7,0l0,372Z" class="g2_1679" />
<path d="M857.6,496.2l0.8,0l0,-370.5l-0.8,0l0,370.5Z" class="g2_1679" />
<path d="M69.9,125.7l788.5,0l0,-0.8l-788.5,0l0,0.8Z" class="g2_1679" />
<path d="M69.9,176.1l788.5,0l0,-0.7l-788.5,0l0,0.7Z" class="g2_1679" />
<path d="M69.9,229.5l788.5,0l0,-0.7l-788.5,0l0,0.7Z" class="g2_1679" />
<path d="M69.9,283l788.5,0l0,-0.8l-788.5,0l0,0.8Z" class="g2_1679" />
<path d="M69.9,336.5l788.5,0l0,-0.7l-788.5,0l0,0.7Z" class="g2_1679" />
<path d="M69.9,389.9l788.5,0l0,-0.7l-788.5,0l0,0.7Z" class="g2_1679" />
<path d="M69.9,443.5l788.5,0l0,-0.8l-788.5,0l0,0.8Z" class="g2_1679" />
<path d="M69.9,496.9l788.5,0l0,-0.7l-788.5,0l0,0.7Z" class="g2_1679" />
<path d="M70.9,600.1l0.7,0l0,-48.2l-0.7,0l0,48.2Z" class="g2_1679" />
<path d="M232,600.8l0.7,0l0,-49.6l-0.7,0l0,49.6Z" class="g2_1679" />
<path d="M374.5,600.8l0.7,0l0,-49.6l-0.7,0l0,49.6Z" class="g2_1679" />
<path d="M577.5,600.8l0.7,0l0,-49.6l-0.7,0l0,49.6Z" class="g2_1679" />
<path d="M721.5,600.8l0.7,0l0,-49.6l-0.7,0l0,49.6Z" class="g2_1679" />
<path d="M851.2,600.1l0.7,0l0,-48.2l-0.7,0l0,48.2Z" class="g2_1679" />
<path d="M70.8,551.9l781.2,0l0,-0.7l-781.2,0l0,0.7Z" class="g2_1679" />
<path d="M70.8,576.4l781.2,0l0,-0.7l-781.2,0l0,0.7Z" class="g2_1679" />
<path d="M70.8,600.8l781.2,0l0,-0.7l-781.2,0l0,0.7Z" class="g2_1679" />
</svg>