<?xml version="1.0" encoding="UTF-8" standalone="no"?>
<!DOCTYPE svg PUBLIC "-//W3C//DTD SVG 1.1//EN"
"http://www.w3.org/Graphics/SVG/1.1/DTD/svg11.dtd">
<svg viewBox="0 0 935 1210" version="1.1" xmlns="http://www.w3.org/2000/svg" xmlns:xlink="http://www.w3.org/1999/xlink">
<defs>
<style type="text/css"><![CDATA[
.g1_2072{
fill: #FFFFFF;
}
.g2_2072{
}
]]></style>
</defs>
<path d="M68.8,1149.3l783.7,0l0,-21.2l-783.7,0l0,21.2Z" class="g1_2072" />
<path d="M68.6,1095.1l0.7,0l0,-971l-0.7,0l0,971Z" class="g2_2072" />
<path d="M467.6,1095.9l0.7,0l0,-972.5l-0.7,0l0,972.5Z" class="g2_2072" />
<path d="M851.1,1095.1l0.8,0l0,-971l-0.8,0l0,971Z" class="g2_2072" />
<path d="M68.6,124.1l783.4,0l0,-0.7l-783.4,0l0,0.7Z" class="g2_2072" />
<path d="M68.6,148.6l783.4,0l0,-0.7l-783.4,0l0,0.7Z" class="g2_2072" />
<path d="M68.6,173L852,173l0,-0.8l-783.4,0l0,0.8Z" class="g2_2072" />
<path d="M68.6,197.4l783.4,0l0,-0.7l-783.4,0l0,0.7Z" class="g2_2072" />
<path d="M68.6,221.9l783.4,0l0,-0.7l-783.4,0l0,0.7Z" class="g2_2072" />
<path d="M68.6,246.3l783.4,0l0,-0.7l-783.4,0l0,0.7Z" class="g2_2072" />
<path d="M68.6,287.6l783.4,0l0,-0.8l-783.4,0l0,0.8Z" class="g2_2072" />
<path d="M68.6,312L852,312l0,-0.7l-783.4,0l0,0.7Z" class="g2_2072" />
<path d="M68.6,336.5l783.4,0l0,-0.7l-783.4,0l0,0.7Z" class="g2_2072" />
<path d="M68.6,360.9l783.4,0l0,-0.7l-783.4,0l0,0.7Z" class="g2_2072" />
<path d="M68.6,385.4l783.4,0l0,-0.8l-783.4,0l0,0.8Z" class="g2_2072" />
<path d="M68.6,409.8l783.4,0l0,-0.7l-783.4,0l0,0.7Z" class="g2_2072" />
<path d="M68.6,434.3l783.4,0l0,-0.7l-783.4,0l0,0.7Z" class="g2_2072" />
<path d="M68.6,458.7l783.4,0l0,-0.7L68.6,458l0,0.7Z" class="g2_2072" />
<path d="M68.6,483.2l783.4,0l0,-0.8l-783.4,0l0,0.8Z" class="g2_2072" />
<path d="M68.6,507.7l783.4,0l0,-0.8l-783.4,0l0,0.8Z" class="g2_2072" />
<path d="M68.6,532L852,532l0,-0.7l-783.4,0l0,0.7Z" class="g2_2072" />
<path d="M68.6,573.3l783.4,0l0,-0.7l-783.4,0l0,0.7Z" class="g2_2072" />
<path d="M68.6,597.8l783.4,0l0,-0.8L68.6,597l0,0.8Z" class="g2_2072" />
<path d="M68.6,622.2l783.4,0l0,-0.7l-783.4,0l0,0.7Z" class="g2_2072" />
<path d="M68.6,646.6l783.4,0l0,-0.7l-783.4,0l0,0.7Z" class="g2_2072" />
<path d="M68.6,671.1l783.4,0l0,-0.7l-783.4,0l0,0.7Z" class="g2_2072" />
<path d="M68.6,695.6l783.4,0l0,-0.8l-783.4,0l0,0.8Z" class="g2_2072" />
<path d="M68.6,719.9l783.4,0l0,-0.7l-783.4,0l0,0.7Z" class="g2_2072" />
<path d="M68.6,744.4l783.4,0l0,-0.7l-783.4,0l0,0.7Z" class="g2_2072" />
<path d="M68.6,768.9l783.4,0l0,-0.7l-783.4,0l0,0.7Z" class="g2_2072" />
<path d="M68.6,810.2l783.4,0l0,-0.8l-783.4,0l0,0.8Z" class="g2_2072" />
<path d="M68.6,834.5l783.4,0l0,-0.7l-783.4,0l0,0.7Z" class="g2_2072" />
<path d="M68.6,859L852,859l0,-0.7l-783.4,0l0,0.7Z" class="g2_2072" />
<path d="M68.6,883.5l783.4,0l0,-0.8l-783.4,0l0,0.8Z" class="g2_2072" />
<path d="M68.6,907.9l783.4,0l0,-0.8l-783.4,0l0,0.8Z" class="g2_2072" />
<path d="M68.6,932.3l783.4,0l0,-0.7l-783.4,0l0,0.7Z" class="g2_2072" />
<path d="M68.6,956.8l783.4,0l0,-0.7l-783.4,0l0,0.7Z" class="g2_2072" />
<path d="M68.6,981.2l783.4,0l0,-0.7l-783.4,0l0,0.7Z" class="g2_2072" />
<path d="M68.6,1005.7l783.4,0l0,-0.8l-783.4,0l0,0.8Z" class="g2_2072" />
<path d="M68.6,1046.9l783.4,0l0,-0.7l-783.4,0l0,0.7Z" class="g2_2072" />
<path d="M68.6,1071.4l783.4,0l0,-0.7l-783.4,0l0,0.7Z" class="g2_2072" />
<path d="M68.6,1095.8l783.4,0l0,-0.8l-783.4,0l0,0.8Z" class="g2_2072" />
</svg>