<?xml version="1.0" encoding="UTF-8" standalone="no"?>
<!DOCTYPE svg PUBLIC "-//W3C//DTD SVG 1.1//EN"
"http://www.w3.org/Graphics/SVG/1.1/DTD/svg11.dtd">
<svg viewBox="0 0 935 1210" version="1.1" xmlns="http://www.w3.org/2000/svg" xmlns:xlink="http://www.w3.org/1999/xlink">
<defs>
<style type="text/css"><![CDATA[
.g1_277{
fill: #FFFFFF;
}
.g2_277{
}
]]></style>
</defs>
<path d="M68.9,1149.3l686.3,0l0,-21.2l-686.3,0l0,21.2Z" class="g1_277" />
<path d="M771.3,1149.3l83.7,0l0,-21.2l-83.7,0l0,21.2Z" class="g1_277" />
<path d="M72.3,587.9l0.8,0l0,-463.8l-0.8,0l0,463.8Z" class="g2_277" />
<path d="M470.6,588.6l0.7,0l0,-465.2l-0.7,0l0,465.2Z" class="g2_277" />
<path d="M849.7,587.9l0.7,0l0,-463.8l-0.7,0l0,463.8Z" class="g2_277" />
<path d="M72.3,124.1l778.1,0l0,-0.7l-778.1,0l0,0.7Z" class="g2_277" />
<path d="M72.3,148.6l778.1,0l0,-0.7l-778.1,0l0,0.7Z" class="g2_277" />
<path d="M72.3,173l778.1,0l0,-0.8l-778.1,0l0,0.8Z" class="g2_277" />
<path d="M72.3,199.4l778.1,0l0,-4.6l-778.1,0l0,4.6Z" class="g2_277" />
<path d="M72.3,221.9l778.1,0l0,-0.7l-778.1,0l0,0.7Z" class="g2_277" />
<path d="M72.3,246.3l778.1,0l0,-0.7l-778.1,0l0,0.7Z" class="g2_277" />
<path d="M72.3,270.8l778.1,0l0,-0.7l-778.1,0l0,0.7Z" class="g2_277" />
<path d="M72.3,295.3l778.1,0l0,-0.8l-778.1,0l0,0.8Z" class="g2_277" />
<path d="M72.3,319.6l778.1,0l0,-0.7l-778.1,0l0,0.7Z" class="g2_277" />
<path d="M72.3,344.1l778.1,0l0,-0.7l-778.1,0l0,0.7Z" class="g2_277" />
<path d="M72.3,368.6l778.1,0l0,-0.7l-778.1,0l0,0.7Z" class="g2_277" />
<path d="M72.3,394.9l778.1,0l0,-4.6l-778.1,0l0,4.6Z" class="g2_277" />
<path d="M72.3,417.4l778.1,0l0,-0.7l-778.1,0l0,0.7Z" class="g2_277" />
<path d="M72.3,441.9l778.1,0l0,-0.7l-778.1,0l0,0.7Z" class="g2_277" />
<path d="M72.3,466.4l778.1,0l0,-0.7l-778.1,0l0,0.7Z" class="g2_277" />
<path d="M72.3,490.8l778.1,0l0,-0.8L72.3,490l0,0.8Z" class="g2_277" />
<path d="M72.3,515.3l778.1,0l0,-0.8l-778.1,0l0,0.8Z" class="g2_277" />
<path d="M72.3,539.7l778.1,0l0,-0.7L72.3,539l0,0.7Z" class="g2_277" />
<path d="M72.3,564.1l778.1,0l0,-0.7l-778.1,0l0,0.7Z" class="g2_277" />
<path d="M72.3,588.6l778.1,0l0,-0.7l-778.1,0l0,0.7Z" class="g2_277" />
</svg>