<?xml version="1.0" encoding="UTF-8" standalone="no"?>
<!DOCTYPE svg PUBLIC "-//W3C//DTD SVG 1.1//EN"
"http://www.w3.org/Graphics/SVG/1.1/DTD/svg11.dtd">
<svg viewBox="0 0 935 1210" version="1.1" xmlns="http://www.w3.org/2000/svg" xmlns:xlink="http://www.w3.org/1999/xlink">
<defs>
<style type="text/css"><![CDATA[
.g1_1978{
fill: #FFFFFF;
}
.g2_1978{
}
]]></style>
</defs>
<path d="M165,1149.3l687.5,0l0,-21.2l-687.5,0l0,21.2Z" class="g1_1978" />
<path d="M68.8,1149.3l82.5,0l0,-21.2l-82.5,0l0,21.2Z" class="g1_1978" />
<path d="M69.6,202.9l0.7,0l0,-77.2l-0.7,0l0,77.2Z" class="g2_1978" />
<path d="M220.2,203.6l0.7,0l0,-78.7l-0.7,0l0,78.7Z" class="g2_1978" />
<path d="M391.1,203.6l0.8,0l0,-78.7l-0.8,0l0,78.7Z" class="g2_1978" />
<path d="M428.9,203.6l0.7,0l0,-78.7l-0.7,0l0,78.7Z" class="g2_1978" />
<path d="M502.3,203.6l0.8,0l0,-78.7l-0.8,0l0,78.7Z" class="g2_1978" />
<path d="M573.7,203.6l0.8,0l0,-78.7l-0.8,0l0,78.7Z" class="g2_1978" />
<path d="M850.8,202.9l0.8,0l0,-77.2l-0.8,0l0,77.2Z" class="g2_1978" />
<path d="M69.5,125.7l782.1,0l0,-0.8l-782.1,0l0,0.8Z" class="g2_1978" />
<path d="M69.5,163.8l782.1,0l0,-0.7l-782.1,0l0,0.7Z" class="g2_1978" />
<path d="M69.5,203.6l782.1,0l0,-0.7l-782.1,0l0,0.7Z" class="g2_1978" />
<path d="M70.9,306.7l0.7,0l0,-48.1l-0.7,0l0,48.1Z" class="g2_1978" />
<path d="M141.3,307.4l0.7,0l0,-49.5l-0.7,0l0,49.5Z" class="g2_1978" />
<path d="M318.3,307.4l0.7,0l0,-49.5l-0.7,0l0,49.5Z" class="g2_1978" />
<path d="M490.2,307.4l0.8,0l0,-49.5l-0.8,0l0,49.5Z" class="g2_1978" />
<path d="M663.9,307.4l0.8,0l0,-49.5l-0.8,0l0,49.5Z" class="g2_1978" />
<path d="M849.6,306.7l0.7,0l0,-48.1l-0.7,0l0,48.1Z" class="g2_1978" />
<path d="M70.8,258.6l779.5,0l0,-0.7l-779.5,0l0,0.7Z" class="g2_1978" />
<path d="M70.8,283l779.5,0l0,-0.8l-779.5,0l0,0.8Z" class="g2_1978" />
<path d="M70.8,307.4l779.5,0l0,-0.7l-779.5,0l0,0.7Z" class="g2_1978" />
</svg>