<?xml version="1.0" encoding="UTF-8" standalone="no"?>
<!DOCTYPE svg PUBLIC "-//W3C//DTD SVG 1.1//EN"
"http://www.w3.org/Graphics/SVG/1.1/DTD/svg11.dtd">
<svg viewBox="0 0 935 1210" version="1.1" xmlns="http://www.w3.org/2000/svg" xmlns:xlink="http://www.w3.org/1999/xlink">
<defs>
<style type="text/css"><![CDATA[
.g1_84{
fill: #FFFFFF;
}
.g2_84{
}
]]></style>
</defs>
<path d="M68.8,1149.3l783.7,0l0,-21.2l-783.7,0l0,21.2Z" class="g1_84" />
<path d="M71.8,843l0.7,0l0,-657.7l-0.7,0l0,657.7Z" class="g2_84" />
<path d="M187.7,843.8l0.8,0l0,-659.3l-0.8,0l0,659.3Z" class="g2_84" />
<path d="M221.2,843.8l0.7,0l0,-659.3l-0.7,0l0,659.3Z" class="g2_84" />
<path d="M258.9,843.8l0.7,0l0,-659.3l-0.7,0l0,659.3Z" class="g2_84" />
<path d="M298.2,843.8l0.7,0l0,-659.3l-0.7,0l0,659.3Z" class="g2_84" />
<path d="M330.6,843.8l0.7,0l0,-659.3l-0.7,0l0,659.3Z" class="g2_84" />
<path d="M848.6,843l0.7,0l0,-657.7l-0.7,0l0,657.7Z" class="g2_84" />
<path d="M71.8,185.3l777.6,0l0,-0.8l-777.6,0l0,0.8Z" class="g2_84" />
<path d="M71.8,289.1l777.6,0l0,-0.7l-777.6,0l0,0.7Z" class="g2_84" />
<path d="M187.7,313.6l661.7,0l0,-0.7l-661.7,0l0,0.7Z" class="g2_84" />
<path d="M187.7,338l661.7,0l0,-0.8l-661.7,0l0,0.8Z" class="g2_84" />
<path d="M187.7,457.2l661.7,0l0,-0.7l-661.7,0l0,0.7Z" class="g2_84" />
<path d="M187.7,481.6l661.7,0l0,-0.7l-661.7,0l0,0.7Z" class="g2_84" />
<path d="M187.7,506.1l661.7,0l0,-0.7l-661.7,0l0,0.7Z" class="g2_84" />
<path d="M71.8,530.6l777.6,0l0,-0.8l-777.6,0l0,0.8Z" class="g2_84" />
<path d="M71.8,571.8l777.6,0l0,-0.7l-777.6,0l0,0.7Z" class="g2_84" />
<path d="M187.7,596.2l661.7,0l0,-0.7l-661.7,0l0,0.7Z" class="g2_84" />
<path d="M71.8,637.4l777.6,0l0,-0.7l-777.6,0l0,0.7Z" class="g2_84" />
<path d="M187.7,678.7l661.7,0l0,-0.7l-661.7,0l0,0.7Z" class="g2_84" />
<path d="M187.7,703.2l661.7,0l0,-0.8l-661.7,0l0,0.8Z" class="g2_84" />
<path d="M71.8,744.4l777.6,0l0,-0.7l-777.6,0l0,0.7Z" class="g2_84" />
<path d="M71.8,785.7l777.6,0l0,-0.8l-777.6,0l0,0.8Z" class="g2_84" />
<path d="M71.8,843.7l777.6,0l0,-0.7L71.8,843l0,0.7Z" class="g2_84" />
</svg>