<?xml version="1.0" encoding="UTF-8" standalone="no"?>
<!DOCTYPE svg PUBLIC "-//W3C//DTD SVG 1.1//EN"
"http://www.w3.org/Graphics/SVG/1.1/DTD/svg11.dtd">
<svg viewBox="0 0 935 1210" version="1.1" xmlns="http://www.w3.org/2000/svg" xmlns:xlink="http://www.w3.org/1999/xlink">
<defs>
<style type="text/css"><![CDATA[
.g1_409{
fill: #FFFFFF;
}
.g2_409{
}
]]></style>
</defs>
<path d="M68.9,1149.3l686.3,0l0,-21.2l-686.3,0l0,21.2Z" class="g1_409" />
<path d="M771.3,1149.3l83.7,0l0,-21.2l-83.7,0l0,21.2Z" class="g1_409" />
<path d="M69.9,386.2l0.8,0l0,-260.5l-0.8,0l0,260.5Z" class="g2_409" />
<path d="M326.9,386.9l0.7,0l0,-262l-0.7,0l0,262Z" class="g2_409" />
<path d="M371.5,386.9l0.8,0l0,-262l-0.8,0l0,262Z" class="g2_409" />
<path d="M446,386.9l0.8,0l0,-262l-0.8,0l0,262Z" class="g2_409" />
<path d="M532.9,386.9l0.8,0l0,-262l-0.8,0l0,262Z" class="g2_409" />
<path d="M852.3,386.2l0.8,0l0,-260.5l-0.8,0l0,260.5Z" class="g2_409" />
<path d="M69.9,125.7l783.1,0l0,-0.8l-783.1,0l0,0.8Z" class="g2_409" />
<path d="M69.9,176.1l783.1,0l0,-0.7l-783.1,0l0,0.7Z" class="g2_409" />
<path d="M69.9,246.3l783.1,0l0,-0.7l-783.1,0l0,0.7Z" class="g2_409" />
<path d="M69.9,316.6l783.1,0l0,-0.7l-783.1,0l0,0.7Z" class="g2_409" />
<path d="M69.9,386.9l783.1,0l0,-0.7l-783.1,0l0,0.7Z" class="g2_409" />
<path d="M70.7,514.5l0.7,0l0,-72.6l-0.7,0l0,72.6Z" class="g2_409" />
<path d="M196.5,515.3l0.8,0l0,-74.1l-0.8,0l0,74.1Z" class="g2_409" />
<path d="M360.1,515.3l0.7,0l0,-74.1l-0.7,0l0,74.1Z" class="g2_409" />
<path d="M529.6,515.3l0.7,0l0,-74.1l-0.7,0l0,74.1Z" class="g2_409" />
<path d="M699.1,515.3l0.7,0l0,-74.1l-0.7,0l0,74.1Z" class="g2_409" />
<path d="M851.3,514.5l0.7,0l0,-72.6l-0.7,0l0,72.6Z" class="g2_409" />
<path d="M70.7,441.9l781.3,0l0,-0.7l-781.3,0l0,0.7Z" class="g2_409" />
<path d="M70.7,466.4l781.3,0l0,-0.7l-781.3,0l0,0.7Z" class="g2_409" />
<path d="M70.7,490.8l781.3,0l0,-0.8L70.7,490l0,0.8Z" class="g2_409" />
<path d="M70.7,515.3l781.3,0l0,-0.8l-781.3,0l0,0.8Z" class="g2_409" />
</svg>