<?xml version="1.0" encoding="UTF-8" standalone="no"?>
<!DOCTYPE svg PUBLIC "-//W3C//DTD SVG 1.1//EN"
"http://www.w3.org/Graphics/SVG/1.1/DTD/svg11.dtd">
<svg viewBox="0 0 935 1210" version="1.1" xmlns="http://www.w3.org/2000/svg" xmlns:xlink="http://www.w3.org/1999/xlink">
<defs>
<style type="text/css"><![CDATA[
.g1_471{
fill: #FFFFFF;
}
.g2_471{
}
]]></style>
</defs>
<path d="M68.9,1149.3l686.3,0l0,-21.2l-686.3,0l0,21.2Z" class="g1_471" />
<path d="M771.3,1149.3l83.7,0l0,-21.2l-83.7,0l0,21.2Z" class="g1_471" />
<path d="M70.3,208.9l0.7,0l0,-77.1l-0.7,0l0,77.1Z" class="g2_471" />
<path d="M190.8,209.7l0.7,0l0,-78.7l-0.7,0l0,78.7Z" class="g2_471" />
<path d="M334,209.7l0.8,0l0,-78.7l-0.8,0l0,78.7Z" class="g2_471" />
<path d="M397.2,209.7l0.7,0l0,-78.7l-0.7,0l0,78.7Z" class="g2_471" />
<path d="M480.7,209.7l0.7,0l0,-78.7l-0.7,0l0,78.7Z" class="g2_471" />
<path d="M851.7,208.9l0.7,0l0,-77.1l-0.7,0l0,77.1Z" class="g2_471" />
<path d="M70.3,131.7l782.1,0l0,-0.7L70.3,131l0,0.7Z" class="g2_471" />
<path d="M70.3,169.9l782.1,0l0,-0.7l-782.1,0l0,0.7Z" class="g2_471" />
<path d="M70.3,209.6l782.1,0l0,-0.7l-782.1,0l0,0.7Z" class="g2_471" />
<path d="M71,705.5l0.8,0l0,-219.3l-0.8,0l0,219.3Z" class="g2_471" />
<path d="M147.3,706.2l2.3,0l0,-194.8l-2.3,0l0,194.8Z" class="g2_471" />
<path d="M233.8,706.2l2.3,0l0,-197.1l-2.3,0l0,197.1Z" class="g2_471" />
<path d="M321,706.2l0.7,0l0,-197.1l-0.7,0l0,197.1Z" class="g2_471" />
<path d="M413.6,706.2l0.7,0l0,-197.1l-0.7,0l0,197.1Z" class="g2_471" />
<path d="M500,706.2l0.8,0l0,-197.1l-0.8,0l0,197.1Z" class="g2_471" />
<path d="M586.6,706.2l0.7,0l0,-197.1l-0.7,0l0,197.1Z" class="g2_471" />
<path d="M677.9,706.2l0.7,0l0,-197.1l-0.7,0l0,197.1Z" class="g2_471" />
<path d="M764.4,706.2l0.7,0l0,-197.1l-0.7,0l0,197.1Z" class="g2_471" />
<path d="M850.9,705.5l0.8,0l0,-219.3l-0.8,0l0,219.3Z" class="g2_471" />
<path d="M71,486.2l780.7,0l0,-0.7L71,485.5l0,0.7Z" class="g2_471" />
<path d="M147.3,511.5l704.4,0l0,-2.3l-704.4,0l0,2.3Z" class="g2_471" />
<path d="M147.3,536l704.4,0l0,-2.3l-704.4,0l0,2.3Z" class="g2_471" />
<path d="M147.3,559.5l704.4,0l0,-0.7l-704.4,0l0,0.7Z" class="g2_471" />
<path d="M147.3,584l704.4,0l0,-0.7l-704.4,0l0,0.7Z" class="g2_471" />
<path d="M147.3,608.5l704.4,0l0,-0.8l-704.4,0l0,0.8Z" class="g2_471" />
<path d="M147.3,632.9l704.4,0l0,-0.8l-704.4,0l0,0.8Z" class="g2_471" />
<path d="M147.3,657.3l704.4,0l0,-0.7l-704.4,0l0,0.7Z" class="g2_471" />
<path d="M147.3,681.8l704.4,0l0,-0.7l-704.4,0l0,0.7Z" class="g2_471" />
<path d="M71,706.2l780.7,0l0,-0.7L71,705.5l0,0.7Z" class="g2_471" />
</svg>