<?xml version="1.0" encoding="UTF-8" standalone="no"?>
<!DOCTYPE svg PUBLIC "-//W3C//DTD SVG 1.1//EN"
"http://www.w3.org/Graphics/SVG/1.1/DTD/svg11.dtd">
<svg viewBox="0 0 935 1210" version="1.1" xmlns="http://www.w3.org/2000/svg" xmlns:xlink="http://www.w3.org/1999/xlink">
<defs>
<style type="text/css"><![CDATA[
.g1_2116{
fill: #FFFFFF;
}
.g2_2116{
}
]]></style>
</defs>
<path d="M68.8,1149.3l783.7,0l0,-21.2l-783.7,0l0,21.2Z" class="g1_2116" />
<path d="M68.6,189.1l0.7,0l0,-65l-0.7,0l0,65Z" class="g2_2116" />
<path d="M447.1,189.8l0.7,0l0,-66.4l-0.7,0l0,66.4Z" class="g2_2116" />
<path d="M850.8,189.1l0.7,0l0,-65l-0.7,0l0,65Z" class="g2_2116" />
<path d="M68.6,124.1l782.9,0l0,-0.7l-782.9,0l0,0.7Z" class="g2_2116" />
<path d="M68.6,148.6l782.9,0l0,-0.7l-782.9,0l0,0.7Z" class="g2_2116" />
<path d="M68.6,189.8l782.9,0l0,-0.7l-782.9,0l0,0.7Z" class="g2_2116" />
<path d="M68.6,1069.1l0.7,0l0,-685.2l-0.7,0l0,685.2Z" class="g2_2116" />
<path d="M467.2,1069.8l0.8,0l0,-686.7l-0.8,0l0,686.7Z" class="g2_2116" />
<path d="M849.8,1069.1l0.8,0l0,-685.2l-0.8,0l0,685.2Z" class="g2_2116" />
<path d="M68.6,383.8l782,0l0,-0.7l-782,0l0,0.7Z" class="g2_2116" />
<path d="M68.6,408.3l782,0l0,-0.8l-782,0l0,0.8Z" class="g2_2116" />
<path d="M68.6,432.8l782,0l0,-0.8l-782,0l0,0.8Z" class="g2_2116" />
<path d="M68.6,457.2l782,0l0,-0.7l-782,0l0,0.7Z" class="g2_2116" />
<path d="M68.6,481.6l782,0l0,-0.7l-782,0l0,0.7Z" class="g2_2116" />
<path d="M68.6,506.1l782,0l0,-0.7l-782,0l0,0.7Z" class="g2_2116" />
<path d="M68.6,530.6l782,0l0,-0.8l-782,0l0,0.8Z" class="g2_2116" />
<path d="M68.6,570.3l782,0l0,-0.8l-782,0l0,0.8Z" class="g2_2116" />
<path d="M68.6,611.5l782,0l0,-0.7l-782,0l0,0.7Z" class="g2_2116" />
<path d="M68.6,652.8l782,0l0,-0.8l-782,0l0,0.8Z" class="g2_2116" />
<path d="M68.6,677.2l782,0l0,-0.7l-782,0l0,0.7Z" class="g2_2116" />
<path d="M68.6,701.6l782,0l0,-0.7l-782,0l0,0.7Z" class="g2_2116" />
<path d="M68.6,741.4l782,0l0,-0.7l-782,0l0,0.7Z" class="g2_2116" />
<path d="M68.6,782.7l782,0l0,-0.8l-782,0l0,0.8Z" class="g2_2116" />
<path d="M68.6,823.9l782,0l0,-0.7l-782,0l0,0.7Z" class="g2_2116" />
<path d="M68.6,865.2l782,0l0,-0.8l-782,0l0,0.8Z" class="g2_2116" />
<path d="M68.6,906.4l782,0l0,-0.7l-782,0l0,0.7Z" class="g2_2116" />
<path d="M68.6,946.1l782,0l0,-0.7l-782,0l0,0.7Z" class="g2_2116" />
<path d="M68.6,987.3l782,0l0,-0.7l-782,0l0,0.7Z" class="g2_2116" />
<path d="M68.6,1028.6l782,0l0,-0.7l-782,0l0,0.7Z" class="g2_2116" />
<path d="M68.6,1069.8l782,0l0,-0.7l-782,0l0,0.7Z" class="g2_2116" />
</svg>