<?xml version="1.0" encoding="UTF-8" standalone="no"?>
<!DOCTYPE svg PUBLIC "-//W3C//DTD SVG 1.1//EN"
"http://www.w3.org/Graphics/SVG/1.1/DTD/svg11.dtd">
<svg viewBox="0 0 935 1210" version="1.1" xmlns="http://www.w3.org/2000/svg" xmlns:xlink="http://www.w3.org/1999/xlink">
<defs>
<style type="text/css"><![CDATA[
.g1_1531{
fill: #FFFFFF;
}
.g2_1531{
}
]]></style>
</defs>
<path d="M68.9,1149.3l686.3,0l0,-21.2l-686.3,0l0,21.2Z" class="g1_1531" />
<path d="M771.3,1149.3l83.7,0l0,-21.2l-83.7,0l0,21.2Z" class="g1_1531" />
<path d="M69.9,1049.2l0.8,0L70.7,147l-0.8,0l0,902.2Z" class="g2_1531" />
<path d="M294.8,1050l0.7,0l0,-903.7l-0.7,0l0,903.7Z" class="g2_1531" />
<path d="M342.9,1050l0.8,0l0,-903.7l-0.8,0l0,903.7Z" class="g2_1531" />
<path d="M415.1,1050l0.7,0l0,-903.7l-0.7,0l0,903.7Z" class="g2_1531" />
<path d="M500.1,1050l0.8,0l0,-903.7l-0.8,0l0,903.7Z" class="g2_1531" />
<path d="M853.7,1049.2l0.7,0l0,-902.2l-0.7,0l0,902.2Z" class="g2_1531" />
<path d="M69.9,147l784.5,0l0,-0.7l-784.5,0l0,0.7Z" class="g2_1531" />
<path d="M69.9,197.4l784.5,0l0,-0.7l-784.5,0l0,0.7Z" class="g2_1531" />
<path d="M69.9,250.9l784.5,0l0,-0.7l-784.5,0l0,0.7Z" class="g2_1531" />
<path d="M69.9,304.4l784.5,0l0,-0.7l-784.5,0l0,0.7Z" class="g2_1531" />
<path d="M69.9,357.9l784.5,0l0,-0.8l-784.5,0l0,0.8Z" class="g2_1531" />
<path d="M69.9,411.4l784.5,0l0,-0.7l-784.5,0l0,0.7Z" class="g2_1531" />
<path d="M69.9,464.8l784.5,0l0,-0.7l-784.5,0l0,0.7Z" class="g2_1531" />
<path d="M69.9,518.3l784.5,0l0,-0.7l-784.5,0l0,0.7Z" class="g2_1531" />
<path d="M69.9,571.8l784.5,0l0,-0.7l-784.5,0l0,0.7Z" class="g2_1531" />
<path d="M69.9,642l784.5,0l0,-0.7l-784.5,0l0,0.7Z" class="g2_1531" />
<path d="M69.9,695.6l784.5,0l0,-0.8l-784.5,0l0,0.8Z" class="g2_1531" />
<path d="M69.9,749l784.5,0l0,-0.7l-784.5,0l0,0.7Z" class="g2_1531" />
<path d="M69.9,819.3l784.5,0l0,-0.7l-784.5,0l0,0.7Z" class="g2_1531" />
<path d="M69.9,872.8l784.5,0l0,-0.8L69.9,872l0,0.8Z" class="g2_1531" />
<path d="M69.9,926.2l784.5,0l0,-0.7l-784.5,0l0,0.7Z" class="g2_1531" />
<path d="M69.9,996.5l784.5,0l0,-0.7l-784.5,0l0,0.7Z" class="g2_1531" />
<path d="M69.9,1050l784.5,0l0,-0.8l-784.5,0l0,0.8Z" class="g2_1531" />
</svg>