<?xml version="1.0" encoding="UTF-8" standalone="no"?>
<!DOCTYPE svg PUBLIC "-//W3C//DTD SVG 1.1//EN"
"http://www.w3.org/Graphics/SVG/1.1/DTD/svg11.dtd">
<svg viewBox="0 0 935 1210" version="1.1" xmlns="http://www.w3.org/2000/svg" xmlns:xlink="http://www.w3.org/1999/xlink">
<defs>
<style type="text/css"><![CDATA[
.g1_1370{
fill: #FFFFFF;
}
.g2_1370{
}
]]></style>
</defs>
<path d="M165,1149.3l687.5,0l0,-21.2l-687.5,0l0,21.2Z" class="g1_1370" />
<path d="M68.8,1149.3l82.5,0l0,-21.2l-82.5,0l0,21.2Z" class="g1_1370" />
<path d="M157.7,288.3l0.7,0l0,-164.2l-0.7,0l0,164.2Z" class="g2_1370" />
<path d="M762.8,288.3l0.7,0l0,-164.2l-0.7,0l0,164.2Z" class="g2_1370" />
<path d="M157.7,124.1l605.8,0l0,-0.7l-605.8,0l0,0.7Z" class="g2_1370" />
<path d="M157.7,289l605.8,0l0,-0.7l-605.8,0l0,0.7Z" class="g2_1370" />
<path d="M157.7,540.3l0.7,0l0,-168.8l-0.7,0l0,168.8Z" class="g2_1370" />
<path d="M762.8,540.3l0.7,0l0,-168.8l-0.7,0l0,168.8Z" class="g2_1370" />
<path d="M157.7,371.5l605.8,0l0,-0.7l-605.8,0l0,0.7Z" class="g2_1370" />
<path d="M157.7,541.1l605.8,0l0,-0.7l-605.8,0l0,0.7Z" class="g2_1370" />
<path d="M157.7,794.9l0.7,0l0,-172.8l-0.7,0l0,172.8Z" class="g2_1370" />
<path d="M762.8,794.9l0.7,0l0,-172.8l-0.7,0l0,172.8Z" class="g2_1370" />
<path d="M157.7,622.1l605.8,0l0,-0.8l-605.8,0l0,0.8Z" class="g2_1370" />
<path d="M157.7,795.7l605.8,0l0,-0.8l-605.8,0l0,0.8Z" class="g2_1370" />
<path fill-rule="evenodd" d="M520.9,239.5l0.1,0.3l0.3,0.1c1.2,0.9,2.7,-0.7,2.1,-1.9l-0.2,-0.3l-0.1,-0.3c-1.1,-1,-3,0.2,-2.5,1.6l0.1,0.3l0.2,0.2Z" class="g2_1370" />
<path d="M522,238.6l4,5.2l0.6,0.9l-0.9,0.3l-22.2,8.8l-2.5,1l1.6,-2.2l14.1,-19.1l0.7,-0.9l0.5,0.8l0,0.9l-14.1,19.3l-1.2,-1l0.4,-0.2l22.2,-8.8l0.5,1.4l-0.9,-0.2l-4,-5.2Z" class="g2_1370" />
<path d="M517.9,233.4l4.1,5.2l-1.2,1l-4.1,-5.2Z" class="g2_1370" />
<path fill-rule="evenodd" d="M521.4,239.1l4,5.2l-22.2,8.8l14.2,-19.3Z" class="g2_1370" />
<path d="M615.4,168.3l-1.8,-2.4l-92.5,71.5l1.9,2.4Z" class="g2_1370" />
<path d="M557.8,167.1l113.5,0l0,-20.6l-113.5,0l0,20.6Z" class="g1_1370" />
<path d="M557.8,146.8l113.8,0l0,-0.7l-113.8,0l0,0.7Z" class="g2_1370" />
<path d="M670.9,167.5l0.7,0l0,-21l-0.7,0l0,21Z" class="g2_1370" />
<path d="M557.4,167.5l113.9,0l0,-0.8l-113.9,0l0,0.8Z" class="g2_1370" />
<path d="M557.4,167.1l0.8,0l0,-21l-0.8,0l0,21Z" class="g2_1370" />
<path fill-rule="evenodd" d="M614.5,229.9l0.3,-0.1l0.4,-0.1c1.3,-0.5,1.1,-2.7,-0.4,-2.8l-0.3,-0.1l-0.8,0.3l-0.3,0.1l-0.2,0.3l0,0.2l-0.1,0.4l-0.1,0.2l0.2,0.9l0.2,0.2l0.3,0.2l0.8,0.3Z" class="g2_1370" />
<path d="M614.5,228.3l7.6,0l-0.2,1l-6.6,23l-0.8,2.5l-0.7,-2.5l-6.6,-23l-0.3,-1l1,0l0.8,0.6l6.6,22.9l-1.5,0.5l0,-0.5l6.6,-22.9l1.5,0.4l-0.8,0.6l-6.6,0Z" class="g2_1370" />
<path d="M607.9,229.9l6.6,0l0,-1.6l-6.6,0l0,1.6Z" class="g2_1370" />
<path fill-rule="evenodd" d="M614.5,229.1l6.6,0L614.5,252l-6.6,-22.9Z" class="g2_1370" />
<path d="M613.1,228.3l3,0l0,-61.2l-3,0l0,61.2Z" class="g2_1370" />
<path fill-rule="evenodd" d="M410.9,245.8l0.3,0.5c0.9,1.2,3,0.1,2.6,-1.3l0,-0.3l-0.2,-0.3l-0.2,-0.2L413.1,244L413,243.8l-0.3,-0.1l-0.7,0l-0.2,0.1c-0.8,0.2,-0.7,0.5,-0.9,1.1l-0.1,0.3l0.1,0.3l0,0.3Z" class="g2_1370" />
<path d="M412.2,245.2l2.4,6.2l0.3,1l-0.9,0l-23.8,2.2l-2.6,0.1l2.1,-1.5l19,-14.3l0.9,-0.7l0.2,1l-0.1,0.9l-19,14.3l-1,-1.2l0.4,-0.2l23.8,-2.1l0.1,1.5l-0.8,-0.5l-2.3,-6.1Z" class="g2_1370" />
<path d="M409.8,239.2l2.4,6l-1.3,0.6l-2.4,-6.1Z" class="g2_1370" />
<path fill-rule="evenodd" d="M411.6,245.5l2.4,6.1l-23.8,2.1l19,-14.3Z" class="g2_1370" />
<path d="M615.1,168.6L614,165.7L411.8,243.8l1.1,2.9Z" class="g2_1370" />
<path fill-rule="evenodd" d="M293.2,248.6l0.1,0.4l0.1,0.1c0.9,1.3,2.8,0.7,2.8,-0.9l0,-0.3l-0.1,-0.3c-0.7,-1.3,-2.7,-1.1,-2.9,0.4l0,0.3l0,0.3Z" class="g2_1370" />
<path d="M294.7,248.2l1.6,6.4l0.1,1.1l-1,-0.1l-23.8,-0.8l-2.7,0l2.3,-1.3l20.7,-12.1l0.9,-0.5l0.3,1l-0.4,0.8l-20.6,12l-0.9,-1.2l0.5,-0.1l23.8,0.7l-0.1,1.5L294.7,255l-1.6,-6.4Z" class="g2_1370" />
<path d="M293.1,241.9l1.6,6.3l-1.5,0.4l-1.7,-6.3Z" class="g2_1370" />
<path fill-rule="evenodd" d="M294,248.4l1.5,6.4l-23.8,-0.7l20.6,-12Z" class="g2_1370" />
<path d="M614.9,168.6l-0.7,-3L294.3,246.8l0.8,2.9Z" class="g2_1370" />
<path d="M557.8,275.4l113.5,0l0,-20.7l-113.5,0l0,20.7Z" class="g1_1370" />
<path d="M557.8,255.1l113.8,0l0,-0.7l-113.8,0l0,0.7Z" class="g2_1370" />
<path d="M670.9,275.7l0.7,0l0,-21l-0.7,0l0,21Z" class="g2_1370" />
<path d="M557.4,275.7l113.9,0l0,-0.7l-113.9,0l0,0.7Z" class="g2_1370" />
<path d="M557.4,275.4l0.8,0l0,-21l-0.8,0l0,21Z" class="g2_1370" />
<path d="M444.4,275.4l113.4,0l0,-20.7l-113.4,0l0,20.7Z" class="g1_1370" />
<path d="M444.4,255.1l113.8,0l0,-0.7l-113.8,0l0,0.7Z" class="g2_1370" />
<path d="M557.4,275.7l0.8,0l0,-21l-0.8,0l0,21Z" class="g2_1370" />
<path d="M444,275.7l113.8,0l0,-0.7L444,275l0,0.7Z" class="g2_1370" />
<path d="M444,275.4l0.8,0l0,-21l-0.8,0l0,21Z" class="g2_1370" />
<path d="M330.9,275.4l113.5,0l0,-20.7l-113.5,0l0,20.7Z" class="g1_1370" />
<path d="M330.9,255.1l113.9,0l0,-0.7l-113.9,0l0,0.7Z" class="g2_1370" />
<path d="M444,275.7l0.8,0l0,-21l-0.8,0l0,21Z" class="g2_1370" />
<path d="M330.6,275.7l113.8,0l0,-0.7l-113.8,0l0,0.7Z" class="g2_1370" />
<path d="M330.6,275.4l0.7,0l0,-21l-0.7,0l0,21Z" class="g2_1370" />
<path d="M217.5,275.4l113.4,0l0,-20.7l-113.4,0l0,20.7Z" class="g1_1370" />
<path d="M217.5,255.1l113.8,0l0,-0.7l-113.8,0l0,0.7Z" class="g2_1370" />
<path d="M330.6,275.7l0.7,0l0,-21l-0.7,0l0,21Z" class="g2_1370" />
<path d="M217.2,275.7l113.7,0l0,-0.7l-113.7,0l0,0.7Z" class="g2_1370" />
<path d="M217.2,275.4l0.7,0l0,-21l-0.7,0l0,21Z" class="g2_1370" />
<path fill-rule="evenodd" d="M552.8,480.7l0.3,0l0.4,-0.1l0.2,-0.2l0.2,-0.2l0.2,-0.1l0.2,-0.6l0.1,-0.3l-0.1,-0.3l-0.1,-0.3l-0.1,-0.3l-0.2,-0.2L553.7,478l-0.2,-0.2l-0.4,-0.1l-0.5,0c-1.5,0.4,-1.7,2.3,-0.3,2.9l0.3,0.1l0.2,0Z" class="g2_1370" />
<path d="M552.8,479.2l7.6,0l-0.2,1l-6.6,23l-0.8,2.5l-0.7,-2.5l-6.6,-23l-0.3,-1l1,0l0.8,0.6l6.6,22.9l-1.5,0.5l0,-0.5l6.6,-22.9l1.5,0.4l-0.8,0.6l-6.6,0Z" class="g2_1370" />
<path d="M546.2,480.8l6.6,0l0,-1.6l-6.6,0l0,1.6Z" class="g2_1370" />
<path fill-rule="evenodd" d="M552.8,480l6.6,0l-6.6,22.9L546.2,480Z" class="g2_1370" />
<path d="M551.4,479.2l3,0l0,-61.2l-3,0l0,61.2Z" class="g2_1370" />
<path d="M449.7,418l226.9,0l0,-20.6l-226.9,0l0,20.6Z" class="g1_1370" />
<path d="M449.7,397.7l227.3,0l0,-0.7l-227.3,0l0,0.7Z" class="g2_1370" />
<path d="M676.2,418.4l0.8,0l0,-21l-0.8,0l0,21Z" class="g2_1370" />
<path d="M449.3,418.4l227.3,0l0,-0.8l-227.3,0l0,0.8Z" class="g2_1370" />
<path d="M449.3,418l0.8,0l0,-21l-0.8,0l0,21Z" class="g2_1370" />
<path fill-rule="evenodd" d="M349.2,496.6l0.3,0.6c1.1,1,3,0.1,2.6,-1.4l0,-0.3L351.7,495l-0.2,-0.2l-0.8,-0.3l-0.4,0.1l-0.2,0c-0.8,0.6,-0.7,0.3,-0.9,1.1l-0.1,0.3l0.1,0.4l0,0.2Z" class="g2_1370" />
<path d="M350.5,496.1l2.4,6.1l0.3,1l-0.9,0.1l-23.8,2.1l-2.6,0.2l2.1,-1.5l19,-14.4l0.9,-0.7l0.3,1l-0.2,0.9l-19,14.4l-1,-1.2l0.4,-0.2l23.8,-2.1l0.1,1.5l-0.8,-0.5l-2.3,-6.2Z" class="g2_1370" />
<path d="M348.2,490l2.3,6.1l-1.3,0.6l-2.4,-6.2Z" class="g2_1370" />
<path fill-rule="evenodd" d="M349.9,496.4l2.4,6.1l-23.8,2.1l19,-14.4Z" class="g2_1370" />
<path d="M553.4,419.5l-1.1,-2.9L350.1,494.7l1.1,2.9Z" class="g2_1370" />
<path d="M449.7,526.3l226.9,0l0,-20.7l-226.9,0l0,20.7Z" class="g1_1370" />
<path d="M449.7,506L677,506l0,-0.7l-227.3,0l0,0.7Z" class="g2_1370" />
<path d="M676.2,526.6l0.8,0l0,-21l-0.8,0l0,21Z" class="g2_1370" />
<path d="M449.3,526.6l227.3,0l0,-0.7l-227.3,0l0,0.7Z" class="g2_1370" />
<path d="M449.3,526.3l0.8,0l0,-21l-0.8,0l0,21Z" class="g2_1370" />
<path d="M222.8,526.3l226.9,0l0,-20.7l-226.9,0l0,20.7Z" class="g1_1370" />
<path d="M222.8,506l227.3,0l0,-0.7l-227.3,0l0,0.7Z" class="g2_1370" />
<path d="M449.3,526.6l0.8,0l0,-21l-0.8,0l0,21Z" class="g2_1370" />
<path d="M222.5,526.6l227.2,0l0,-0.7l-227.2,0l0,0.7Z" class="g2_1370" />
<path d="M222.5,526.3l0.7,0l0,-21l-0.7,0l0,21Z" class="g2_1370" />
<path fill-rule="evenodd" d="M552.8,732.2l0.3,0l0.4,-0.1l0.2,-0.1l0.2,-0.2l0.2,-0.2l0.1,-0.3l0.1,-0.3l0.1,-0.2l-0.1,-0.4l-0.2,-0.5l-0.2,-0.2l-0.2,-0.2l-0.2,-0.2l-0.4,-0.1l-0.5,0c-1.5,0.4,-1.7,2.3,-0.3,2.9l0.3,0.1l0.2,0Z" class="g2_1370" />
<path d="M552.8,730.8l7.6,0l-0.2,1l-6.6,22.9l-0.8,2.6l-0.7,-2.6l-6.6,-22.9l-0.3,-1l1,0l0.8,0.5l6.6,22.9l-1.5,0.5l0,-0.5l6.6,-22.9l1.5,0.5l-0.8,0.5l-6.6,0Z" class="g2_1370" />
<path d="M546.2,732.3l6.6,0l0,-1.5l-6.6,0l0,1.5Z" class="g2_1370" />
<path fill-rule="evenodd" d="M552.8,731.5l6.6,0l-6.6,22.9l-6.6,-22.9Z" class="g2_1370" />
<path d="M551.4,730.8l3,0l0,-61.3l-3,0l0,61.3Z" class="g2_1370" />
<path d="M449.7,669.5l226.9,0l0,-20.6l-226.9,0l0,20.6Z" class="g1_1370" />
<path d="M449.7,649.3l227.3,0l0,-0.8l-227.3,0l0,0.8Z" class="g2_1370" />
<path d="M676.2,669.9l0.8,0l0,-21l-0.8,0l0,21Z" class="g2_1370" />
<path d="M449.3,669.9l227.3,0l0,-0.7l-227.3,0l0,0.7Z" class="g2_1370" />
<path d="M449.3,669.5l0.8,0l0,-21l-0.8,0l0,21Z" class="g2_1370" />
<path fill-rule="evenodd" d="M349.2,748.2l0.3,0.5c1.1,1.1,3,0.1,2.6,-1.3l0,-0.3l-0.2,-0.3l-0.2,-0.2l-0.2,-0.3l-0.8,-0.2l-0.4,0.1l-0.2,0.1c-0.6,0.1,-0.8,0.5,-0.9,1l-0.1,0.3l0.1,0.3l0,0.3Z" class="g2_1370" />
<path d="M350.5,747.6l2.4,6.2l0.3,1l-0.9,0.1L328.5,757l-2.6,0.2l2.1,-1.6l19,-14.4l0.9,-0.6l0.3,0.9l-0.2,0.9l-19,14.4l-1,-1.2l0.4,-0.2l23.8,-2.1l0.1,1.6l-0.8,-0.6l-2.3,-6.1Z" class="g2_1370" />
<path d="M348.2,741.5l2.3,6.1l-1.3,0.6L346.8,742Z" class="g2_1370" />
<path fill-rule="evenodd" d="M349.9,747.9l2.4,6.2l-23.8,2.1l19,-14.4Z" class="g2_1370" />
<path d="M553.4,671l-1.1,-2.8L350.1,746.3l1.1,2.8Z" class="g2_1370" />
<path d="M449.7,777.8l226.9,0l0,-20.6l-226.9,0l0,20.6Z" class="g1_1370" />
<path d="M449.7,757.5l227.3,0l0,-0.7l-227.3,0l0,0.7Z" class="g2_1370" />
<path d="M676.2,778.2l0.8,0l0,-21l-0.8,0l0,21Z" class="g2_1370" />
<path d="M449.3,778.2l227.3,0l0,-0.8l-227.3,0l0,0.8Z" class="g2_1370" />
<path d="M449.3,777.8l0.8,0l0,-21l-0.8,0l0,21Z" class="g2_1370" />
<path d="M222.8,777.8l226.9,0l0,-20.6l-226.9,0l0,20.6Z" class="g1_1370" />
<path d="M222.8,757.5l227.3,0l0,-0.7l-227.3,0l0,0.7Z" class="g2_1370" />
<path d="M449.3,778.2l0.8,0l0,-21l-0.8,0l0,21Z" class="g2_1370" />
<path d="M222.5,778.2l227.2,0l0,-0.8l-227.2,0l0,0.8Z" class="g2_1370" />
<path d="M222.5,777.8l0.7,0l0,-21l-0.7,0l0,21Z" class="g2_1370" />
</svg>