<?xml version="1.0" encoding="UTF-8" standalone="no"?>
<!DOCTYPE svg PUBLIC "-//W3C//DTD SVG 1.1//EN"
"http://www.w3.org/Graphics/SVG/1.1/DTD/svg11.dtd">
<svg viewBox="0 0 935 1210" version="1.1" xmlns="http://www.w3.org/2000/svg" xmlns:xlink="http://www.w3.org/1999/xlink">
<defs>
<style type="text/css"><![CDATA[
.g1_1099{
fill: #FFFFFF;
}
.g2_1099{
}
]]></style>
</defs>
<path d="M68.9,1149.3l686.3,0l0,-21.2l-686.3,0l0,21.2Z" class="g1_1099" />
<path d="M771.3,1149.3l83.7,0l0,-21.2l-83.7,0l0,21.2Z" class="g1_1099" />
<path d="M70.5,317.4l0.7,0l0,-194.7l-0.7,0l0,194.7Z" class="g2_1099" />
<path d="M141.9,318.2l0.7,0l0,-196.4l-0.7,0l0,196.4Z" class="g2_1099" />
<path d="M319.5,318.2l0.7,0l0,-196.4l-0.7,0l0,196.4Z" class="g2_1099" />
<path d="M494.4,318.2l0.7,0l0,-196.4l-0.7,0l0,196.4Z" class="g2_1099" />
<path d="M672.1,318.2l0.7,0l0,-196.4l-0.7,0l0,196.4Z" class="g2_1099" />
<path d="M851.5,317.4l0.7,0l0,-194.7l-0.7,0l0,194.7Z" class="g2_1099" />
<path d="M70.5,122.6l781.8,0l0,-0.8l-781.8,0l0,0.8Z" class="g2_1099" />
<path d="M70.5,147l781.8,0l0,-0.7l-781.8,0l0,0.7Z" class="g2_1099" />
<path d="M70.5,171.5l781.8,0l0,-0.7l-781.8,0l0,0.7Z" class="g2_1099" />
<path d="M70.5,195.9l781.8,0l0,-0.7l-781.8,0l0,0.7Z" class="g2_1099" />
<path d="M70.5,220.4l781.8,0l0,-0.8l-781.8,0l0,0.8Z" class="g2_1099" />
<path d="M70.5,244.8l781.8,0l0,-0.7l-781.8,0l0,0.7Z" class="g2_1099" />
<path d="M70.5,269.2l781.8,0l0,-0.7l-781.8,0l0,0.7Z" class="g2_1099" />
<path d="M70.5,293.7l781.8,0l0,-0.7L70.5,293l0,0.7Z" class="g2_1099" />
<path d="M70.5,318.2l781.8,0l0,-0.8l-781.8,0l0,0.8Z" class="g2_1099" />
<path d="M171.3,654.7l0.8,0l0,-159.3l-0.8,0l0,159.3Z" class="g2_1099" />
<path d="M750.7,654.7l0.7,0l0,-159.3l-0.7,0l0,159.3Z" class="g2_1099" />
<path d="M171.3,495.4l580.1,0l0,-0.8l-580.1,0l0,0.8Z" class="g2_1099" />
<path d="M171.3,655.4l580.1,0l0,-0.7l-580.1,0l0,0.7Z" class="g2_1099" />
<path d="M297.5,539.6l96,0l0,-27.5l-96,0l0,27.5Z" class="g1_1099" />
<path d="M297.5,512.4l96.4,0l0,-0.7l-96.4,0l0,0.7Z" class="g2_1099" />
<path d="M393.2,539.9l0.7,0l0,-27.8l-0.7,0l0,27.8Z" class="g2_1099" />
<path d="M297.1,539.9l96.4,0l0,-0.7l-96.4,0l0,0.7Z" class="g2_1099" />
<path d="M297.1,539.6l0.7,0l0,-27.9l-0.7,0l0,27.9Z" class="g2_1099" />
<path d="M393.5,539.6l96.1,0l0,-27.5l-96.1,0l0,27.5Z" class="g1_1099" />
<path d="M393.5,512.4l96.5,0l0,-0.7l-96.5,0l0,0.7Z" class="g2_1099" />
<path d="M489.2,539.9l0.8,0l0,-27.8l-0.8,0l0,27.8Z" class="g2_1099" />
<path d="M393.2,539.9l96.4,0l0,-0.7l-96.4,0l0,0.7Z" class="g2_1099" />
<path d="M393.2,539.6l0.7,0l0,-27.9l-0.7,0l0,27.9Z" class="g2_1099" />
<path d="M489.6,539.6l96.1,0l0,-27.5l-96.1,0l0,27.5Z" class="g1_1099" />
<path d="M489.6,512.4l96.5,0l0,-0.7l-96.5,0l0,0.7Z" class="g2_1099" />
<path d="M585.4,539.9l0.7,0l0,-27.8l-0.7,0l0,27.8Z" class="g2_1099" />
<path d="M489.2,539.9l96.5,0l0,-0.7l-96.5,0l0,0.7Z" class="g2_1099" />
<path d="M489.2,539.6l0.8,0l0,-27.9l-0.8,0l0,27.9Z" class="g2_1099" />
<path d="M585.7,539.6l96.1,0l0,-27.5l-96.1,0l0,27.5Z" class="g1_1099" />
<path d="M585.7,512.4l96.5,0l0,-0.7l-96.5,0l0,0.7Z" class="g2_1099" />
<path d="M681.5,539.9l0.7,0l0,-27.8l-0.7,0l0,27.8Z" class="g2_1099" />
<path d="M585.4,539.9l96.4,0l0,-0.7l-96.4,0l0,0.7Z" class="g2_1099" />
<path d="M585.4,539.6l0.7,0l0,-27.9l-0.7,0l0,27.9Z" class="g2_1099" />
<path d="M296.5,620.5l96.2,0l0,-27.5l-96.2,0l0,27.5Z" class="g1_1099" />
<path d="M296.5,593.4l96.6,0l0,-0.8l-96.6,0l0,0.8Z" class="g2_1099" />
<path d="M392.3,620.9l0.8,0l0,-27.9l-0.8,0l0,27.9Z" class="g2_1099" />
<path d="M296.2,620.9l96.5,0l0,-0.8l-96.5,0l0,0.8Z" class="g2_1099" />
<path d="M296.2,620.5l0.7,0l0,-27.9l-0.7,0l0,27.9Z" class="g2_1099" />
<path d="M392.7,620.5l96.1,0l0,-27.5l-96.1,0l0,27.5Z" class="g1_1099" />
<path d="M392.7,593.4l96.4,0l0,-0.8l-96.4,0l0,0.8Z" class="g2_1099" />
<path d="M488.4,620.9l0.7,0l0,-27.9l-0.7,0l0,27.9Z" class="g2_1099" />
<path d="M392.3,620.9l96.5,0l0,-0.8l-96.5,0l0,0.8Z" class="g2_1099" />
<path d="M392.3,620.5l0.8,0l0,-27.9l-0.8,0l0,27.9Z" class="g2_1099" />
<path d="M488.8,620.5l96,0l0,-27.5l-96,0l0,27.5Z" class="g1_1099" />
<path d="M488.8,593.4l96.4,0l0,-0.8l-96.4,0l0,0.8Z" class="g2_1099" />
<path d="M584.5,620.9l0.7,0l0,-27.9l-0.7,0l0,27.9Z" class="g2_1099" />
<path d="M488.4,620.9l96.4,0l0,-0.8l-96.4,0l0,0.8Z" class="g2_1099" />
<path d="M488.4,620.5l0.7,0l0,-27.9l-0.7,0l0,27.9Z" class="g2_1099" />
<path d="M584.8,620.5l96.1,0l0,-27.5l-96.1,0l0,27.5Z" class="g1_1099" />
<path d="M584.8,593.4l96.5,0l0,-0.8l-96.5,0l0,0.8Z" class="g2_1099" />
<path d="M680.5,620.9l0.8,0l0,-27.9l-0.8,0l0,27.9Z" class="g2_1099" />
<path d="M584.5,620.9l96.4,0l0,-0.8l-96.4,0l0,0.8Z" class="g2_1099" />
<path d="M584.5,620.5l0.7,0l0,-27.9l-0.7,0l0,27.9Z" class="g2_1099" />
<path d="M642.5,583.3l0.7,0l0,-1.6l-0.7,0l0,1.6Z" class="g2_1099" />
<path d="M642.6,582.5l2.4,-0.8l1.4,-0.5l-0.4,1.5l-2.4,8.3l-0.7,2.5L642.1,591l-2.4,-8.3l-0.4,-1.5l1.4,0.5l0.5,0.6l2.4,8.2l-1.5,0.5l0,-0.5l2.4,-8.2l1.5,0.4l-0.5,0.5l-2.4,0.8Z" class="g2_1099" />
<path d="M640.7,581.7l2.4,0.8l0,1.5l-0.2,0.1L642.6,584l-2.4,-0.8Z" class="g2_1099" />
<path fill-rule="evenodd" d="M642.9,583.3l2.3,-0.9l-2.3,8.3l-2.4,-8.3Z" class="g2_1099" />
<path d="M603.2,562.7l0.7,0l0,-22.9l-0.7,0l0,22.9Z" class="g2_1099" />
<path d="M603.5,562.7l39.7,0l0,-0.7l-39.7,0l0,0.7Z" class="g2_1099" />
<path d="M642.5,582.1l0.7,0l0,-19.7l-0.7,0l0,19.7Z" class="g2_1099" />
<path d="M364.2,583.3l0.7,0l0,-1.7l-0.7,0l0,1.7Z" class="g2_1099" />
<path d="M364.3,582.5l2.3,-0.9L368,581l-2.7,9.9l-0.7,2.6l-0.8,-2.6l-2.4,-8.3L361,581.1l1.5,0.5l0.4,0.6l2.4,8.2l-1.5,0.5l0,-0.5l2.3,-8.2l1.5,0.4l-0.5,0.5l-2.3,0.9Z" class="g2_1099" />
<path d="M362.5,581.6l2.3,0.9l0,1.5l-0.2,0.1L364.3,584l-2.4,-0.9Z" class="g2_1099" />
<path fill-rule="evenodd" d="M364.6,583.3l2.2,-0.9l-2.2,8.2l-2.4,-8.2Z" class="g2_1099" />
<path d="M324.9,562.7l0.7,0l0,-22.9l-0.7,0l0,22.9Z" class="g2_1099" />
<path d="M325.2,562.7l39.7,0l0,-0.8l-39.7,0l0,0.8Z" class="g2_1099" />
<path d="M364.2,582l0.7,0l0,-19.7l-0.7,0l0,19.7Z" class="g2_1099" />
<path d="M461.5,583.2l0.8,0l0,-1.7l-0.8,0l0,1.7Z" class="g2_1099" />
<path d="M461.6,582.4l2.3,-0.8l1.5,-0.6l-0.5,1.6l-2.3,8.2l-0.7,2.5l-0.7,-2.5l-2.4,-8.2l-0.5,-1.5l1.5,0.5l0.5,0.6l2.3,8.1l-1.4,0.5l0,-0.5l2.3,-8.1l1.4,0.4l-0.4,0.5l-2.3,0.8Z" class="g2_1099" />
<path d="M459.8,581.6l2.4,0.9l0,1.4l-0.3,0.1l-0.3,-0.1l-2.3,-0.8Z" class="g2_1099" />
<path fill-rule="evenodd" d="M461.9,583.2l2.3,-0.8l-2.3,8.1l-2.4,-8.1Z" class="g2_1099" />
<path d="M422.2,562.6l0.7,0l0,-22.9l-0.7,0l0,22.9Z" class="g2_1099" />
<path d="M422.6,562.6l39.7,0l0,-0.8l-39.7,0l0,0.8Z" class="g2_1099" />
<path d="M461.5,581.9l0.8,0l0,-19.7l-0.8,0l0,19.7Z" class="g2_1099" />
<path d="M548.2,583.9l0.7,0l0,-1.5l-0.7,0l0,1.5Z" class="g2_1099" />
<path d="M548.3,583.2l2.3,-0.8l1.5,-0.6l-0.5,1.6l-2.3,8.2l-0.8,2.7l-0.7,-2.7l-2.3,-8.2L545,581.8l1.5,0.6l0.5,0.5l2.3,8.3l-1.5,0.4l0,-0.4l2.4,-8.3l1.4,0.5l-0.4,0.4l-2.4,0.8Z" class="g2_1099" />
<path d="M546.5,582.4l2.3,0.8l0,1.4l-0.3,0.1l-0.2,-0.1L546,583.8Z" class="g2_1099" />
<path fill-rule="evenodd" d="M548.5,583.9l2.4,-0.8l-2.4,8.2l-2.3,-8.2Z" class="g2_1099" />
<path d="M508.9,563.4l0.8,0l0,-22.8l-0.8,0l0,22.8Z" class="g2_1099" />
<path d="M509.3,563.4l39.6,0l0,-0.7l-39.6,0l0,0.7Z" class="g2_1099" />
<path d="M548.2,582.7l0.7,0l0,-19.7l-0.7,0l0,19.7Z" class="g2_1099" />
</svg>