<?xml version="1.0" encoding="UTF-8" standalone="no"?>
<!DOCTYPE svg PUBLIC "-//W3C//DTD SVG 1.1//EN"
"http://www.w3.org/Graphics/SVG/1.1/DTD/svg11.dtd">
<svg viewBox="0 0 935 1210" version="1.1" xmlns="http://www.w3.org/2000/svg" xmlns:xlink="http://www.w3.org/1999/xlink">
<defs>
<style type="text/css"><![CDATA[
.g1_2038{
fill: #FFFFFF;
}
.g2_2038{
}
]]></style>
</defs>
<path d="M68.8,1149l784.5,0l0,-21.4l-784.5,0l0,21.4Z" class="g1_2038" />
<path d="M68.5,556.5l2.3,0l0,-401l-2.3,0l0,401Z" class="g2_2038" />
<path d="M93.3,558.8l0.8,0l0,-405.6l-0.8,0l0,405.6Z" class="g2_2038" />
<path d="M117.6,558.8l2.3,0l0,-405.6l-2.3,0l0,405.6Z" class="g2_2038" />
<path d="M206.4,558.8l0.4,0l0,-405.6l-0.4,0l0,405.6Z" class="g2_2038" />
<path d="M290.6,558.8l0.3,0l0,-405.6l-0.3,0l0,405.6Z" class="g2_2038" />
<path d="M382.1,226.5l0.7,0l0,-73.3l-0.7,0l0,73.3Z" class="g2_2038" />
<path d="M382.2,558.8l0.4,0l0,-334.6l-0.4,0l0,334.6Z" class="g2_2038" />
<path d="M474.9,558.8l0.4,0l0,-405.6l-0.4,0l0,405.6Z" class="g2_2038" />
<path d="M562.8,558.8l0.4,0l0,-405.6l-0.4,0l0,405.6Z" class="g2_2038" />
<path d="M650.6,226.5l0.7,0l0,-73.3l-0.7,0l0,73.3Z" class="g2_2038" />
<path d="M650.7,558.8l0.4,0l0,-334.6l-0.4,0l0,334.6Z" class="g2_2038" />
<path d="M747.3,558.8l0.3,0l0,-405.6l-0.3,0l0,405.6Z" class="g2_2038" />
<path d="M850.4,556.5l2.3,0l0,-401l-2.3,0l0,401Z" class="g2_2038" />
<path d="M68.5,155.5l784.2,0l0,-2.3l-784.2,0l0,2.3Z" class="g2_2038" />
<path d="M68.5,171.5l784.2,0l0,-2.3l-784.2,0l0,2.3Z" class="g2_2038" />
<path d="M93.3,198.2l759.4,0l0,-0.8l-759.4,0l0,0.8Z" class="g2_2038" />
<path d="M68.5,226.5l784.2,0l0,-2.3l-784.2,0l0,2.3Z" class="g2_2038" />
<path d="M68.5,264.6l51.4,0l0,-0.7l-51.4,0l0,0.7Z" class="g2_2038" />
<path d="M117.6,264.5l735.1,0l0,-0.4l-735.1,0l0,0.4Z" class="g2_2038" />
<path d="M68.5,292.1l784.2,0l0,-0.7l-784.2,0l0,0.7Z" class="g2_2038" />
<path d="M68.5,319.6l51.4,0l0,-0.7l-51.4,0l0,0.7Z" class="g2_2038" />
<path d="M117.6,319.5l357.7,0l0,-0.4l-357.7,0l0,0.4Z" class="g2_2038" />
<path d="M474.9,319.6l176.2,0l0,-0.7l-176.2,0l0,0.7Z" class="g2_2038" />
<path d="M650.7,319.5l202,0l0,-0.4l-202,0l0,0.4Z" class="g2_2038" />
<path d="M68.5,347.1l51.4,0l0,-0.7l-51.4,0l0,0.7Z" class="g2_2038" />
<path d="M117.6,347l735.1,0l0,-0.4l-735.1,0l0,0.4Z" class="g2_2038" />
<path d="M68.5,363.2l51.4,0l0,-0.8l-51.4,0l0,0.8Z" class="g2_2038" />
<path d="M117.6,363l735.1,0l0,-0.4l-735.1,0l0,0.4Z" class="g2_2038" />
<path d="M68.5,390.7l51.4,0l0,-0.8l-51.4,0l0,0.8Z" class="g2_2038" />
<path d="M117.6,390.5l735.1,0l0,-0.4l-735.1,0l0,0.4Z" class="g2_2038" />
<path d="M68.5,406.7l25.5,0L94,406l-25.5,0l0,0.7Z" class="g2_2038" />
<path d="M93.3,406.5l759.4,0l0,-0.3l-759.4,0l0,0.3Z" class="g2_2038" />
<path d="M68.5,422.9l51.4,0l0,-0.8l-51.4,0l0,0.8Z" class="g2_2038" />
<path d="M117.6,422.7l735.1,0l0,-0.4l-735.1,0l0,0.4Z" class="g2_2038" />
<path d="M68.5,438.9l25.5,0l0,-0.7l-25.5,0l0,0.7Z" class="g2_2038" />
<path d="M93.3,438.7l759.4,0l0,-0.3l-759.4,0l0,0.3Z" class="g2_2038" />
<path d="M68.5,454.9l25.5,0l0,-0.7l-25.5,0l0,0.7Z" class="g2_2038" />
<path d="M93.3,454.8l759.4,0l0,-0.4l-759.4,0l0,0.4Z" class="g2_2038" />
<path d="M68.5,471l51.4,0l0,-0.8l-51.4,0l0,0.8Z" class="g2_2038" />
<path d="M117.6,470.8l735.1,0l0,-0.4l-735.1,0l0,0.4Z" class="g2_2038" />
<path d="M68.5,498.5l784.2,0l0,-0.8l-784.2,0l0,0.8Z" class="g2_2038" />
<path d="M68.5,526l51.4,0l0,-0.8l-51.4,0l0,0.8Z" class="g2_2038" />
<path d="M117.6,525.8l735.1,0l0,-0.4l-735.1,0l0,0.4Z" class="g2_2038" />
<path d="M68.5,542l51.4,0l0,-0.7l-51.4,0l0,0.7Z" class="g2_2038" />
<path d="M117.6,541.8l735.1,0l0,-0.3l-735.1,0l0,0.3Z" class="g2_2038" />
<path d="M68.5,558.9l784.2,0l0,-2.3l-784.2,0l0,2.3Z" class="g2_2038" />
</svg>