<?xml version="1.0" encoding="UTF-8" standalone="no"?>
<!DOCTYPE svg PUBLIC "-//W3C//DTD SVG 1.1//EN"
"http://www.w3.org/Graphics/SVG/1.1/DTD/svg11.dtd">
<svg viewBox="0 0 935 1210" version="1.1" xmlns="http://www.w3.org/2000/svg" xmlns:xlink="http://www.w3.org/1999/xlink">
<defs>
<style type="text/css"><![CDATA[
.g1_1287{
fill: #FFFFFF;
}
.g2_1287{
}
]]></style>
</defs>
<path d="M68.9,1149.3l686.3,0l0,-21.2l-686.3,0l0,21.2Z" class="g1_1287" />
<path d="M771.3,1149.3l83.7,0l0,-21.2l-83.7,0l0,21.2Z" class="g1_1287" />
<path d="M69.9,496.2l0.8,0l0,-370.5l-0.8,0l0,370.5Z" class="g2_1287" />
<path d="M284.2,496.9l0.7,0l0,-372l-0.7,0l0,372Z" class="g2_1287" />
<path d="M327.7,496.9l0.7,0l0,-372l-0.7,0l0,372Z" class="g2_1287" />
<path d="M402.2,496.9l0.8,0l0,-372l-0.8,0l0,372Z" class="g2_1287" />
<path d="M489.7,496.9l0.7,0l0,-372l-0.7,0l0,372Z" class="g2_1287" />
<path d="M855.5,496.2l0.8,0l0,-370.5l-0.8,0l0,370.5Z" class="g2_1287" />
<path d="M69.9,125.7l786.4,0l0,-0.8l-786.4,0l0,0.8Z" class="g2_1287" />
<path d="M69.9,176.1l786.4,0l0,-0.7l-786.4,0l0,0.7Z" class="g2_1287" />
<path d="M69.9,229.5l786.4,0l0,-0.7l-786.4,0l0,0.7Z" class="g2_1287" />
<path d="M69.9,283l786.4,0l0,-0.8l-786.4,0l0,0.8Z" class="g2_1287" />
<path d="M69.9,336.5l786.4,0l0,-0.7l-786.4,0l0,0.7Z" class="g2_1287" />
<path d="M69.9,389.9l786.4,0l0,-0.7l-786.4,0l0,0.7Z" class="g2_1287" />
<path d="M69.9,443.5l786.4,0l0,-0.8l-786.4,0l0,0.8Z" class="g2_1287" />
<path d="M69.9,496.9l786.4,0l0,-0.7l-786.4,0l0,0.7Z" class="g2_1287" />
<path d="M70.9,624.5l0.8,0l0,-72.6l-0.8,0l0,72.6Z" class="g2_1287" />
<path d="M179.5,625.3l0.7,0l0,-74.1l-0.7,0l0,74.1Z" class="g2_1287" />
<path d="M341.5,625.3l0.7,0l0,-74.1l-0.7,0l0,74.1Z" class="g2_1287" />
<path d="M513.9,625.3l0.7,0l0,-74.1l-0.7,0l0,74.1Z" class="g2_1287" />
<path d="M683,625.3l0.7,0l0,-74.1l-0.7,0l0,74.1Z" class="g2_1287" />
<path d="M851,624.5l0.8,0l0,-72.6l-0.8,0l0,72.6Z" class="g2_1287" />
<path d="M70.9,551.9l781,0l0,-0.7l-781,0l0,0.7Z" class="g2_1287" />
<path d="M70.9,576.4l781,0l0,-0.7l-781,0l0,0.7Z" class="g2_1287" />
<path d="M70.9,600.8l781,0l0,-0.7l-781,0l0,0.7Z" class="g2_1287" />
<path d="M70.9,625.3l781,0l0,-0.8l-781,0l0,0.8Z" class="g2_1287" />
</svg>