<?xml version="1.0" encoding="UTF-8" standalone="no"?>
<!DOCTYPE svg PUBLIC "-//W3C//DTD SVG 1.1//EN"
"http://www.w3.org/Graphics/SVG/1.1/DTD/svg11.dtd">
<svg viewBox="0 0 935 1210" version="1.1" xmlns="http://www.w3.org/2000/svg" xmlns:xlink="http://www.w3.org/1999/xlink">
<defs>
<style type="text/css"><![CDATA[
.g1_1778{
fill: #FFFFFF;
}
.g2_1778{
}
]]></style>
</defs>
<path d="M165,1149.3l687.5,0l0,-21.2l-687.5,0l0,21.2Z" class="g1_1778" />
<path d="M68.8,1149.3l82.5,0l0,-21.2l-82.5,0l0,21.2Z" class="g1_1778" />
<path d="M68.6,757.4l0.7,0l0,-631.7l-0.7,0l0,631.7Z" class="g2_1778" />
<path d="M323.9,758.2l0.8,0l0,-633.3l-0.8,0l0,633.3Z" class="g2_1778" />
<path d="M374.4,758.2l0.7,0l0,-633.3l-0.7,0l0,633.3Z" class="g2_1778" />
<path d="M448.9,758.2l0.7,0l0,-633.3l-0.7,0l0,633.3Z" class="g2_1778" />
<path d="M533.9,758.2l0.7,0l0,-633.3l-0.7,0l0,633.3Z" class="g2_1778" />
<path d="M850.3,757.4l0.7,0l0,-631.7l-0.7,0l0,631.7Z" class="g2_1778" />
<path d="M68.6,125.7l782.4,0l0,-0.8l-782.4,0l0,0.8Z" class="g2_1778" />
<path d="M68.6,176.1l782.4,0l0,-0.7l-782.4,0l0,0.7Z" class="g2_1778" />
<path d="M68.6,229.5l782.4,0l0,-0.7l-782.4,0l0,0.7Z" class="g2_1778" />
<path d="M68.6,299.8l782.4,0l0,-0.7l-782.4,0l0,0.7Z" class="g2_1778" />
<path d="M68.6,370.1l782.4,0l0,-0.8l-782.4,0l0,0.8Z" class="g2_1778" />
<path d="M68.6,423.6l782.4,0l0,-0.7l-782.4,0l0,0.7Z" class="g2_1778" />
<path d="M68.6,493.9l782.4,0l0,-0.7l-782.4,0l0,0.7Z" class="g2_1778" />
<path d="M68.6,564.1l782.4,0l0,-0.7l-782.4,0l0,0.7Z" class="g2_1778" />
<path d="M68.6,617.7l782.4,0l0,-0.8l-782.4,0l0,0.8Z" class="g2_1778" />
<path d="M68.6,687.9l782.4,0l0,-0.8l-782.4,0l0,0.8Z" class="g2_1778" />
<path d="M68.6,758.2l782.4,0l0,-0.8l-782.4,0l0,0.8Z" class="g2_1778" />
<path d="M72.1,861.3l0.7,0l0,-48.1l-0.7,0l0,48.1Z" class="g2_1778" />
<path d="M177.6,862.1l0.8,0l0,-49.7l-0.8,0l0,49.7Z" class="g2_1778" />
<path d="M343.1,862.1l0.7,0l0,-49.7l-0.7,0l0,49.7Z" class="g2_1778" />
<path d="M512.2,862.1l0.8,0l0,-49.7l-0.8,0l0,49.7Z" class="g2_1778" />
<path d="M679,862.1l0.7,0l0,-49.7l-0.7,0l0,49.7Z" class="g2_1778" />
<path d="M848.3,861.3l0.7,0l0,-48.1l-0.7,0l0,48.1Z" class="g2_1778" />
<path d="M72.1,813.2l776.9,0l0,-0.8l-776.9,0l0,0.8Z" class="g2_1778" />
<path d="M72.1,837.7l776.9,0l0,-0.8l-776.9,0l0,0.8Z" class="g2_1778" />
<path d="M72.1,862L849,862l0,-0.7l-776.9,0l0,0.7Z" class="g2_1778" />
</svg>