<?xml version="1.0" encoding="UTF-8" standalone="no"?>
<!DOCTYPE svg PUBLIC "-//W3C//DTD SVG 1.1//EN"
"http://www.w3.org/Graphics/SVG/1.1/DTD/svg11.dtd">
<svg viewBox="0 0 935 1210" version="1.1" xmlns="http://www.w3.org/2000/svg" xmlns:xlink="http://www.w3.org/1999/xlink">
<defs>
<style type="text/css"><![CDATA[
.g1_678{
fill: #FFFFFF;
}
.g2_678{
}
]]></style>
</defs>
<path d="M165,1149.3l687.5,0l0,-21.2l-687.5,0l0,21.2Z" class="g1_678" />
<path d="M68.8,1149.3l82.5,0l0,-21.2l-82.5,0l0,21.2Z" class="g1_678" />
<path d="M68.6,479.3l0.7,0l0,-353.6l-0.7,0l0,353.6Z" class="g2_678" />
<path d="M274.5,480.2l0.8,0l0,-355.3l-0.8,0l0,355.3Z" class="g2_678" />
<path d="M320.4,480.2l0.7,0l0,-355.3l-0.7,0l0,355.3Z" class="g2_678" />
<path d="M394.9,480.2l0.7,0l0,-355.3l-0.7,0l0,355.3Z" class="g2_678" />
<path d="M478.8,480.2l0.7,0l0,-355.3l-0.7,0l0,355.3Z" class="g2_678" />
<path d="M854.6,479.3l0.7,0l0,-353.6l-0.7,0l0,353.6Z" class="g2_678" />
<path d="M68.6,125.7l786.7,0l0,-0.8l-786.7,0l0,0.8Z" class="g2_678" />
<path d="M68.6,176.1l786.7,0l0,-0.7l-786.7,0l0,0.7Z" class="g2_678" />
<path d="M68.6,212.8l786.7,0l0,-0.8L68.6,212l0,0.8Z" class="g2_678" />
<path d="M68.6,266.2l786.7,0l0,-0.7l-786.7,0l0,0.7Z" class="g2_678" />
<path d="M68.6,319.6l786.7,0l0,-0.7l-786.7,0l0,0.7Z" class="g2_678" />
<path d="M68.6,373.2l786.7,0l0,-0.8l-786.7,0l0,0.8Z" class="g2_678" />
<path d="M68.6,426.6l786.7,0l0,-0.7l-786.7,0l0,0.7Z" class="g2_678" />
<path d="M68.6,480.2l786.7,0l0,-0.8l-786.7,0l0,0.8Z" class="g2_678" />
<path d="M69.4,632.1l0.7,0l0,-96.9l-0.7,0l0,96.9Z" class="g2_678" />
<path d="M180,632.9l0.8,0l0,-98.6l-0.8,0l0,98.6Z" class="g2_678" />
<path d="M344.3,632.9l0.7,0l0,-98.6l-0.7,0l0,98.6Z" class="g2_678" />
<path d="M515,632.9l0.7,0l0,-98.6l-0.7,0l0,98.6Z" class="g2_678" />
<path d="M682.4,632.9l0.7,0l0,-98.6l-0.7,0l0,98.6Z" class="g2_678" />
<path d="M851,632.1l0.8,0l0,-96.9l-0.8,0l0,96.9Z" class="g2_678" />
<path d="M69.4,535.2l782.4,0l0,-0.8l-782.4,0l0,0.8Z" class="g2_678" />
<path d="M69.4,559.5l782.4,0l0,-0.7l-782.4,0l0,0.7Z" class="g2_678" />
<path d="M69.4,584l782.4,0l0,-0.7l-782.4,0l0,0.7Z" class="g2_678" />
<path d="M69.4,608.5l782.4,0l0,-0.8l-782.4,0l0,0.8Z" class="g2_678" />
<path d="M69.4,632.9l782.4,0l0,-0.8l-782.4,0l0,0.8Z" class="g2_678" />
</svg>