<?xml version="1.0" encoding="UTF-8" standalone="no"?>
<!DOCTYPE svg PUBLIC "-//W3C//DTD SVG 1.1//EN"
"http://www.w3.org/Graphics/SVG/1.1/DTD/svg11.dtd">
<svg viewBox="0 0 935 1210" version="1.1" xmlns="http://www.w3.org/2000/svg" xmlns:xlink="http://www.w3.org/1999/xlink">
<defs>
<style type="text/css"><![CDATA[
.g1_463{
fill: #FFFFFF;
}
.g2_463{
}
]]></style>
</defs>
<path d="M68.9,1149.3l686.3,0l0,-21.2l-686.3,0l0,21.2Z" class="g1_463" />
<path d="M771.3,1149.3l83.7,0l0,-21.2l-83.7,0l0,21.2Z" class="g1_463" />
<path d="M71,386.2l0.8,0l0,-254.4l-0.8,0l0,254.4Z" class="g2_463" />
<path d="M187.1,386.9l0.7,0l0,-255.9l-0.7,0l0,255.9Z" class="g2_463" />
<path d="M378.3,386.9l0.7,0L379,131l-0.7,0l0,255.9Z" class="g2_463" />
<path d="M439,386.9l0.7,0l0,-255.9l-0.7,0l0,255.9Z" class="g2_463" />
<path d="M516.4,386.9l0.7,0l0,-255.9l-0.7,0l0,255.9Z" class="g2_463" />
<path d="M850.9,386.2l0.8,0l0,-254.4l-0.8,0l0,254.4Z" class="g2_463" />
<path d="M71,131.7l780.8,0l0,-0.7L71,131l0,0.7Z" class="g2_463" />
<path d="M71,169.9l780.8,0l0,-0.7L71,169.2l0,0.7Z" class="g2_463" />
<path d="M71,192.9l780.8,0l0,-0.8L71,192.1l0,0.8Z" class="g2_463" />
<path d="M71,215.8l780.8,0l0,-0.8L71,215l0,0.8Z" class="g2_463" />
<path d="M71,238.7l780.8,0l0,-0.7L71,238l0,0.7Z" class="g2_463" />
<path d="M71,261.6l780.8,0l0,-0.7L71,260.9l0,0.7Z" class="g2_463" />
<path d="M71,301.3l780.8,0l0,-0.7L71,300.6l0,0.7Z" class="g2_463" />
<path d="M71,341.1l780.8,0l0,-0.7L71,340.4l0,0.7Z" class="g2_463" />
<path d="M71,364l780.8,0l0,-0.7L71,363.3l0,0.7Z" class="g2_463" />
<path d="M71,386.9l780.8,0l0,-0.7L71,386.2l0,0.7Z" class="g2_463" />
</svg>