<?xml version="1.0" encoding="UTF-8" standalone="no"?>
<!DOCTYPE svg PUBLIC "-//W3C//DTD SVG 1.1//EN"
"http://www.w3.org/Graphics/SVG/1.1/DTD/svg11.dtd">
<svg viewBox="0 0 935 1210" version="1.1" xmlns="http://www.w3.org/2000/svg" xmlns:xlink="http://www.w3.org/1999/xlink">
<defs>
<style type="text/css"><![CDATA[
.g1_79{
fill: #FFFFFF;
}
.g2_79{
}
]]></style>
</defs>
<path d="M68.9,1149.3l783.8,0l0,-21.2l-783.8,0l0,21.2Z" class="g1_79" />
<path d="M86.4,343.4l0.7,0l0,-219.3l-0.7,0l0,219.3Z" class="g2_79" />
<path d="M217.9,344.1l0.7,0l0,-220.7l-0.7,0l0,220.7Z" class="g2_79" />
<path d="M433,344.1l0.8,0l0,-220.7l-0.8,0l0,220.7Z" class="g2_79" />
<path d="M719.6,344.1l0.7,0l0,-220.7l-0.7,0l0,220.7Z" class="g2_79" />
<path d="M835.6,343.4l0.8,0l0,-219.3l-0.8,0l0,219.3Z" class="g2_79" />
<path d="M86.4,124.1l750,0l0,-0.7l-750,0l0,0.7Z" class="g2_79" />
<path d="M86.4,148.6l750,0l0,-0.7l-750,0l0,0.7Z" class="g2_79" />
<path d="M86.4,173l750,0l0,-0.8l-750,0l0,0.8Z" class="g2_79" />
<path d="M86.4,197.4l750,0l0,-0.7l-750,0l0,0.7Z" class="g2_79" />
<path d="M86.4,221.9l750,0l0,-0.7l-750,0l0,0.7Z" class="g2_79" />
<path d="M86.4,246.3l750,0l0,-0.7l-750,0l0,0.7Z" class="g2_79" />
<path d="M86.4,270.8l750,0l0,-0.7l-750,0l0,0.7Z" class="g2_79" />
<path d="M86.4,295.3l750,0l0,-0.8l-750,0l0,0.8Z" class="g2_79" />
<path d="M86.4,319.6l750,0l0,-0.7l-750,0l0,0.7Z" class="g2_79" />
<path d="M86.4,344.1l750,0l0,-0.7l-750,0l0,0.7Z" class="g2_79" />
<path d="M67.6,873.6l0.8,0l0,-437.8l-0.8,0l0,437.8Z" class="g2_79" />
<path d="M176.5,874.3l0.7,0l0,-439.2l-0.7,0l0,439.2Z" class="g2_79" />
<path d="M854.3,873.6l0.8,0l0,-437.8l-0.8,0l0,437.8Z" class="g2_79" />
<path d="M67.6,435.8l787.6,0l0,-0.8L67.6,435l0,0.8Z" class="g2_79" />
<path d="M67.6,460.3l787.6,0l0,-0.8l-787.6,0l0,0.8Z" class="g2_79" />
<path d="M67.6,484.7l787.6,0l0,-0.7L67.6,484l0,0.7Z" class="g2_79" />
<path d="M67.6,509.1l787.6,0l0,-0.7l-787.6,0l0,0.7Z" class="g2_79" />
<path d="M67.6,675.7l787.6,0l0,-0.8l-787.6,0l0,0.8Z" class="g2_79" />
<path d="M67.6,808.6l787.6,0l0,-0.7l-787.6,0l0,0.7Z" class="g2_79" />
<path d="M67.6,874.3l787.6,0l0,-0.7l-787.6,0l0,0.7Z" class="g2_79" />
</svg>