<?xml version="1.0" encoding="UTF-8" standalone="no"?>
<!DOCTYPE svg PUBLIC "-//W3C//DTD SVG 1.1//EN"
"http://www.w3.org/Graphics/SVG/1.1/DTD/svg11.dtd">
<svg viewBox="0 0 935 1210" version="1.1" xmlns="http://www.w3.org/2000/svg" xmlns:xlink="http://www.w3.org/1999/xlink">
<defs>
<style type="text/css"><![CDATA[
.g1_518{
fill: #FFFFFF;
}
.g2_518{
}
]]></style>
</defs>
<path d="M165,1149.3l687.5,0l0,-21.2l-687.5,0l0,21.2Z" class="g1_518" />
<path d="M68.8,1149.3l82.5,0l0,-21.2l-82.5,0l0,21.2Z" class="g1_518" />
<path d="M69.9,664.4l0.4,0l0,-315.9l-0.4,0l0,315.9Z" class="g2_518" />
<path d="M188.1,643.6l0.4,0l0,-295.4l-0.4,0l0,295.4Z" class="g2_518" />
<path d="M306.2,643.6l0.3,0l0,-295.4l-0.3,0l0,295.4Z" class="g2_518" />
<path d="M424.3,643.6l0.4,0l0,-295.4l-0.4,0l0,295.4Z" class="g2_518" />
<path d="M542.4,664.8l0.4,0l0,-316.6l-0.4,0l0,316.6Z" class="g2_518" />
<path d="M660.5,664.8l0.4,0l0,-316.6l-0.4,0l0,316.6Z" class="g2_518" />
<path d="M850.8,664.4l0.4,0l0,-315.9l-0.4,0l0,315.9Z" class="g2_518" />
<path d="M69.9,348.5l781.3,0l0,-0.3l-781.3,0l0,0.3Z" class="g2_518" />
<path d="M69.9,386.7l781.3,0l0,-0.3l-781.3,0l0,0.3Z" class="g2_518" />
<path d="M69.9,429.7l781.3,0l0,-0.7L69.9,429l0,0.7Z" class="g2_518" />
<path d="M69.9,472.4l781.3,0l0,-0.7l-781.3,0l0,0.7Z" class="g2_518" />
<path d="M69.9,515.3l781.3,0l0,-0.8l-781.3,0l0,0.8Z" class="g2_518" />
<path d="M69.9,558.1l781.3,0l0,-0.8l-781.3,0l0,0.8Z" class="g2_518" />
<path d="M69.9,600.8l781.3,0l0,-0.7l-781.3,0l0,0.7Z" class="g2_518" />
<path d="M69.9,643.6l781.3,0l0,-0.7l-781.3,0l0,0.7Z" class="g2_518" />
<path d="M69.9,664.8l781.3,0l0,-0.4l-781.3,0l0,0.4Z" class="g2_518" />
</svg>