<?xml version="1.0" encoding="UTF-8" standalone="no"?>
<!DOCTYPE svg PUBLIC "-//W3C//DTD SVG 1.1//EN"
"http://www.w3.org/Graphics/SVG/1.1/DTD/svg11.dtd">
<svg viewBox="0 0 935 1210" version="1.1" xmlns="http://www.w3.org/2000/svg" xmlns:xlink="http://www.w3.org/1999/xlink">
<defs>
<style type="text/css"><![CDATA[
.g1_798{
fill: #FFFFFF;
}
.g2_798{
}
]]></style>
</defs>
<path d="M165,1149.3l687.5,0l0,-21.2l-687.5,0l0,21.2Z" class="g1_798" />
<path d="M68.8,1149.3l82.5,0l0,-21.2l-82.5,0l0,21.2Z" class="g1_798" />
<path d="M68.6,445.8l0.7,0l0,-320.1l-0.7,0l0,320.1Z" class="g2_798" />
<path d="M311.8,446.5l0.8,0l0,-321.6l-0.8,0l0,321.6Z" class="g2_798" />
<path d="M357.7,446.5l0.7,0l0,-321.6l-0.7,0l0,321.6Z" class="g2_798" />
<path d="M432.2,446.5l0.7,0l0,-321.6l-0.7,0l0,321.6Z" class="g2_798" />
<path d="M517.1,446.5l0.7,0l0,-321.6l-0.7,0l0,321.6Z" class="g2_798" />
<path d="M853.3,445.8l0.8,0l0,-320.1l-0.8,0l0,320.1Z" class="g2_798" />
<path d="M68.6,125.7l785.5,0l0,-0.8l-785.5,0l0,0.8Z" class="g2_798" />
<path d="M68.6,176.1l785.5,0l0,-0.7l-785.5,0l0,0.7Z" class="g2_798" />
<path d="M68.6,212.8l785.5,0l0,-0.8L68.6,212l0,0.8Z" class="g2_798" />
<path d="M68.6,249.4l785.5,0l0,-0.7l-785.5,0l0,0.7Z" class="g2_798" />
<path d="M68.6,286.1l785.5,0l0,-0.7l-785.5,0l0,0.7Z" class="g2_798" />
<path d="M68.6,339.5l785.5,0l0,-0.7l-785.5,0l0,0.7Z" class="g2_798" />
<path d="M68.6,393l785.5,0l0,-0.8l-785.5,0l0,0.8Z" class="g2_798" />
<path d="M68.6,446.5l785.5,0l0,-0.7l-785.5,0l0,0.7Z" class="g2_798" />
<path d="M70.4,598.5l0.7,0l0,-97l-0.7,0l0,97Z" class="g2_798" />
<path d="M184.1,599.3l0.7,0l0,-98.5l-0.7,0l0,98.5Z" class="g2_798" />
<path d="M350.6,599.3l0.8,0l0,-98.5l-0.8,0l0,98.5Z" class="g2_798" />
<path d="M518.7,599.3l0.7,0l0,-98.5l-0.7,0l0,98.5Z" class="g2_798" />
<path d="M684.1,599.3l0.7,0l0,-98.5l-0.7,0l0,98.5Z" class="g2_798" />
<path d="M850,598.5l0.8,0l0,-97l-0.8,0l0,97Z" class="g2_798" />
<path d="M70.4,501.5l780.4,0l0,-0.7l-780.4,0l0,0.7Z" class="g2_798" />
<path d="M70.4,526l780.4,0l0,-0.8l-780.4,0l0,0.8Z" class="g2_798" />
<path d="M70.4,550.4l780.4,0l0,-0.8l-780.4,0l0,0.8Z" class="g2_798" />
<path d="M70.4,574.8l780.4,0l0,-0.7l-780.4,0l0,0.7Z" class="g2_798" />
<path d="M70.4,599.3l780.4,0l0,-0.7l-780.4,0l0,0.7Z" class="g2_798" />
</svg>