<?xml version="1.0" encoding="UTF-8" standalone="no"?>
<!DOCTYPE svg PUBLIC "-//W3C//DTD SVG 1.1//EN"
"http://www.w3.org/Graphics/SVG/1.1/DTD/svg11.dtd">
<svg viewBox="0 0 935 1210" version="1.1" xmlns="http://www.w3.org/2000/svg" xmlns:xlink="http://www.w3.org/1999/xlink">
<defs>
<style type="text/css"><![CDATA[
.g1_346{
fill: #FFFFFF;
}
.g2_346{
}
]]></style>
</defs>
<path d="M165,1149.3l687.5,0l0,-21.2l-687.5,0l0,21.2Z" class="g1_346" />
<path d="M68.8,1149.3l82.5,0l0,-21.2l-82.5,0l0,21.2Z" class="g1_346" />
<path d="M69.6,219.6l0.7,0l0,-93.9l-0.7,0l0,93.9Z" class="g2_346" />
<path d="M390,220.4l0.7,0l0,-95.5l-0.7,0l0,95.5Z" class="g2_346" />
<path d="M427.8,220.4l0.7,0l0,-95.5l-0.7,0l0,95.5Z" class="g2_346" />
<path d="M501.1,220.4l0.8,0l0,-95.5l-0.8,0l0,95.5Z" class="g2_346" />
<path d="M572.6,220.4l0.7,0l0,-95.5l-0.7,0l0,95.5Z" class="g2_346" />
<path d="M850.8,219.6l0.8,0l0,-93.9l-0.8,0l0,93.9Z" class="g2_346" />
<path d="M69.5,125.7l782.1,0l0,-0.8l-782.1,0l0,0.8Z" class="g2_346" />
<path d="M69.5,163.8l782.1,0l0,-0.7l-782.1,0l0,0.7Z" class="g2_346" />
<path d="M69.5,220.4l782.1,0l0,-0.8l-782.1,0l0,0.8Z" class="g2_346" />
<path d="M70.9,363.3l0.7,0l0,-48.1l-0.7,0l0,48.1Z" class="g2_346" />
<path d="M137.8,364l0.7,0l0,-49.7l-0.7,0l0,49.7Z" class="g2_346" />
<path d="M314,364l0.8,0l0,-49.7l-0.8,0l0,49.7Z" class="g2_346" />
<path d="M498.6,364l0.7,0l0,-49.7l-0.7,0l0,49.7Z" class="g2_346" />
<path d="M670.2,364l0.7,0l0,-49.7l-0.7,0l0,49.7Z" class="g2_346" />
<path d="M849.6,363.3l0.7,0l0,-48.1l-0.7,0l0,48.1Z" class="g2_346" />
<path d="M70.8,315.1l779.5,0l0,-0.8l-779.5,0l0,0.8Z" class="g2_346" />
<path d="M70.8,339.5l779.5,0l0,-0.7l-779.5,0l0,0.7Z" class="g2_346" />
<path d="M70.8,364l779.5,0l0,-0.7l-779.5,0l0,0.7Z" class="g2_346" />
</svg>