<?xml version="1.0" encoding="UTF-8" standalone="no"?>
<!DOCTYPE svg PUBLIC "-//W3C//DTD SVG 1.1//EN"
"http://www.w3.org/Graphics/SVG/1.1/DTD/svg11.dtd">
<svg viewBox="0 0 935 1210" version="1.1" xmlns="http://www.w3.org/2000/svg" xmlns:xlink="http://www.w3.org/1999/xlink">
<defs>
<style type="text/css"><![CDATA[
.g1_1274{
fill: #FFFFFF;
}
.g2_1274{
}
]]></style>
</defs>
<path d="M165,1149.3l687.5,0l0,-21.2l-687.5,0l0,21.2Z" class="g1_1274" />
<path d="M68.8,1149.3l82.5,0l0,-21.2l-82.5,0l0,21.2Z" class="g1_1274" />
<path d="M68.6,546.6l0.7,0l0,-420.9l-0.7,0l0,420.9Z" class="g2_1274" />
<path d="M304.6,547.3l0.7,0l0,-422.4l-0.7,0l0,422.4Z" class="g2_1274" />
<path d="M355.7,547.3l0.7,0l0,-422.4l-0.7,0l0,422.4Z" class="g2_1274" />
<path d="M430.2,547.3l0.7,0l0,-422.4l-0.7,0l0,422.4Z" class="g2_1274" />
<path d="M515.4,547.3l0.8,0l0,-422.4l-0.8,0l0,422.4Z" class="g2_1274" />
<path d="M851.2,546.6l0.7,0l0,-420.9l-0.7,0l0,420.9Z" class="g2_1274" />
<path d="M68.6,125.7l783.4,0l0,-0.8l-783.4,0l0,0.8Z" class="g2_1274" />
<path d="M68.6,176.1l783.4,0l0,-0.7l-783.4,0l0,0.7Z" class="g2_1274" />
<path d="M68.6,229.5l783.4,0l0,-0.7l-783.4,0l0,0.7Z" class="g2_1274" />
<path d="M68.6,283L852,283l0,-0.8l-783.4,0l0,0.8Z" class="g2_1274" />
<path d="M68.6,336.5l783.4,0l0,-0.7l-783.4,0l0,0.7Z" class="g2_1274" />
<path d="M68.6,406.8l783.4,0l0,-0.7l-783.4,0l0,0.7Z" class="g2_1274" />
<path d="M68.6,477L852,477l0,-0.7l-783.4,0l0,0.7Z" class="g2_1274" />
<path d="M68.6,547.3l783.4,0l0,-0.7l-783.4,0l0,0.7Z" class="g2_1274" />
<path d="M71.5,699.3l0.7,0l0,-97l-0.7,0l0,97Z" class="g2_1274" />
<path d="M197.2,700.2l0.7,0l0,-98.6l-0.7,0l0,98.6Z" class="g2_1274" />
<path d="M359.1,700.2l0.7,0l0,-98.6l-0.7,0l0,98.6Z" class="g2_1274" />
<path d="M525.4,700.2l0.8,0l0,-98.6l-0.8,0l0,98.6Z" class="g2_1274" />
<path d="M688.3,700.2l0.8,0l0,-98.6l-0.8,0l0,98.6Z" class="g2_1274" />
<path d="M848.9,699.3l0.8,0l0,-97l-0.8,0l0,97Z" class="g2_1274" />
<path d="M71.5,602.3l778.2,0l0,-0.7l-778.2,0l0,0.7Z" class="g2_1274" />
<path d="M71.5,626.8l778.2,0l0,-0.7l-778.2,0l0,0.7Z" class="g2_1274" />
<path d="M71.5,651.2l778.2,0l0,-0.7l-778.2,0l0,0.7Z" class="g2_1274" />
<path d="M71.5,675.7l778.2,0l0,-0.8l-778.2,0l0,0.8Z" class="g2_1274" />
<path d="M71.5,700.2l778.2,0l0,-0.8l-778.2,0l0,0.8Z" class="g2_1274" />
</svg>