<?xml version="1.0" encoding="UTF-8" standalone="no"?>
<!DOCTYPE svg PUBLIC "-//W3C//DTD SVG 1.1//EN"
"http://www.w3.org/Graphics/SVG/1.1/DTD/svg11.dtd">
<svg viewBox="0 0 935 1210" version="1.1" xmlns="http://www.w3.org/2000/svg" xmlns:xlink="http://www.w3.org/1999/xlink">
<defs>
<style type="text/css"><![CDATA[
.g1_1900{
fill: #FFFFFF;
}
.g2_1900{
}
]]></style>
</defs>
<path d="M165,1149.3l687.5,0l0,-21.2l-687.5,0l0,21.2Z" class="g1_1900" />
<path d="M68.8,1149.3l82.5,0l0,-21.2l-82.5,0l0,21.2Z" class="g1_1900" />
<path d="M68.6,228.8l0.7,0l0,-103.1l-0.7,0l0,103.1Z" class="g2_1900" />
<path d="M287.2,229.5l0.7,0l0,-104.6l-0.7,0l0,104.6Z" class="g2_1900" />
<path d="M330.7,229.5l0.8,0l0,-104.6l-0.8,0l0,104.6Z" class="g2_1900" />
<path d="M402.9,229.5l0.7,0l0,-104.6l-0.7,0l0,104.6Z" class="g2_1900" />
<path d="M483.9,229.5l0.7,0l0,-104.6l-0.7,0l0,104.6Z" class="g2_1900" />
<path d="M850,228.8l0.8,0l0,-103.1l-0.8,0l0,103.1Z" class="g2_1900" />
<path d="M68.6,125.7l782.2,0l0,-0.8l-782.2,0l0,0.8Z" class="g2_1900" />
<path d="M68.6,176.1l782.2,0l0,-0.7l-782.2,0l0,0.7Z" class="g2_1900" />
<path d="M68.6,229.5l782.2,0l0,-0.7l-782.2,0l0,0.7Z" class="g2_1900" />
<path d="M72.1,332.7l0.7,0l0,-48.2l-0.7,0l0,48.2Z" class="g2_1900" />
<path d="M179.6,333.5l0.7,0l0,-49.7l-0.7,0l0,49.7Z" class="g2_1900" />
<path d="M343.2,333.5l0.7,0l0,-49.7l-0.7,0l0,49.7Z" class="g2_1900" />
<path d="M511.6,333.5l0.7,0l0,-49.7l-0.7,0l0,49.7Z" class="g2_1900" />
<path d="M677.3,333.5l0.8,0l0,-49.7l-0.8,0l0,49.7Z" class="g2_1900" />
<path d="M848.4,332.7l0.7,0l0,-48.2l-0.7,0l0,48.2Z" class="g2_1900" />
<path d="M72,284.5l777.1,0l0,-0.7L72,283.8l0,0.7Z" class="g2_1900" />
<path d="M72,309l777.1,0l0,-0.7L72,308.3l0,0.7Z" class="g2_1900" />
<path d="M72,333.4l777.1,0l0,-0.7L72,332.7l0,0.7Z" class="g2_1900" />
</svg>