<?xml version="1.0" encoding="UTF-8" standalone="no"?>
<!DOCTYPE svg PUBLIC "-//W3C//DTD SVG 1.1//EN"
"http://www.w3.org/Graphics/SVG/1.1/DTD/svg11.dtd">
<svg viewBox="0 0 935 1210" version="1.1" xmlns="http://www.w3.org/2000/svg" xmlns:xlink="http://www.w3.org/1999/xlink">
<defs>
<style type="text/css"><![CDATA[
.g1_1955{
fill: #FFFFFF;
}
.g2_1955{
}
]]></style>
</defs>
<path d="M68.9,1149.3l686.3,0l0,-21.2l-686.3,0l0,21.2Z" class="g1_1955" />
<path d="M771.3,1149.3l83.7,0l0,-21.2l-83.7,0l0,21.2Z" class="g1_1955" />
<path d="M69.9,496.2l0.8,0l0,-370.5l-0.8,0l0,370.5Z" class="g2_1955" />
<path d="M314,496.9l0.8,0l0,-372l-0.8,0l0,372Z" class="g2_1955" />
<path d="M359.9,496.9l0.7,0l0,-372l-0.7,0l0,372Z" class="g2_1955" />
<path d="M434.3,496.9l0.8,0l0,-372l-0.8,0l0,372Z" class="g2_1955" />
<path d="M522.3,496.9l0.8,0l0,-372l-0.8,0l0,372Z" class="g2_1955" />
<path d="M851.4,496.2l0.7,0l0,-370.5l-0.7,0l0,370.5Z" class="g2_1955" />
<path d="M69.9,125.7l782.2,0l0,-0.8l-782.2,0l0,0.8Z" class="g2_1955" />
<path d="M69.9,176.1l782.2,0l0,-0.7l-782.2,0l0,0.7Z" class="g2_1955" />
<path d="M69.9,229.5l782.2,0l0,-0.7l-782.2,0l0,0.7Z" class="g2_1955" />
<path d="M69.9,283l782.2,0l0,-0.8l-782.2,0l0,0.8Z" class="g2_1955" />
<path d="M69.9,336.5l782.2,0l0,-0.7l-782.2,0l0,0.7Z" class="g2_1955" />
<path d="M69.9,389.9l782.2,0l0,-0.7l-782.2,0l0,0.7Z" class="g2_1955" />
<path d="M69.9,443.5l782.2,0l0,-0.8l-782.2,0l0,0.8Z" class="g2_1955" />
<path d="M69.9,496.9l782.2,0l0,-0.7l-782.2,0l0,0.7Z" class="g2_1955" />
<path d="M68.3,648.9l0.7,0l0,-97l-0.7,0l0,97Z" class="g2_1955" />
<path d="M224.2,649.7l0.7,0l0,-98.5l-0.7,0l0,98.5Z" class="g2_1955" />
<path d="M382.3,649.7l0.8,0l0,-98.5l-0.8,0l0,98.5Z" class="g2_1955" />
<path d="M536.6,649.7l0.8,0l0,-98.5l-0.8,0l0,98.5Z" class="g2_1955" />
<path d="M685.8,649.7l0.7,0l0,-98.5l-0.7,0l0,98.5Z" class="g2_1955" />
<path d="M853.7,648.9l0.7,0l0,-97l-0.7,0l0,97Z" class="g2_1955" />
<path d="M68.3,551.9l786.1,0l0,-0.7l-786.1,0l0,0.7Z" class="g2_1955" />
<path d="M68.3,576.4l786.1,0l0,-0.7l-786.1,0l0,0.7Z" class="g2_1955" />
<path d="M68.3,600.8l786.1,0l0,-0.7l-786.1,0l0,0.7Z" class="g2_1955" />
<path d="M68.3,625.3l786.1,0l0,-0.8l-786.1,0l0,0.8Z" class="g2_1955" />
<path d="M68.3,649.7l786.1,0l0,-0.7L68.3,649l0,0.7Z" class="g2_1955" />
</svg>