<?xml version="1.0" encoding="UTF-8" standalone="no"?>
<!DOCTYPE svg PUBLIC "-//W3C//DTD SVG 1.1//EN"
"http://www.w3.org/Graphics/SVG/1.1/DTD/svg11.dtd">
<svg viewBox="0 0 935 1210" version="1.1" xmlns="http://www.w3.org/2000/svg" xmlns:xlink="http://www.w3.org/1999/xlink">
<defs>
<style type="text/css"><![CDATA[
.g1_1743{
fill: #FFFFFF;
}
.g2_1743{
}
]]></style>
</defs>
<path d="M68.9,1149.3l686.3,0l0,-21.2l-686.3,0l0,21.2Z" class="g1_1743" />
<path d="M771.3,1149.3l83.7,0l0,-21.2l-83.7,0l0,21.2Z" class="g1_1743" />
<path d="M69.9,425.9l0.8,0l0,-300.2l-0.8,0l0,300.2Z" class="g2_1743" />
<path d="M313.9,426.6l0.7,0l0,-301.7l-0.7,0l0,301.7Z" class="g2_1743" />
<path d="M382.4,426.6l0.8,0l0,-301.7l-0.8,0l0,301.7Z" class="g2_1743" />
<path d="M455.8,426.6l0.7,0l0,-301.7l-0.7,0l0,301.7Z" class="g2_1743" />
<path d="M542.6,426.6l0.7,0l0,-301.7l-0.7,0l0,301.7Z" class="g2_1743" />
<path d="M853.3,425.9l0.8,0l0,-300.2l-0.8,0l0,300.2Z" class="g2_1743" />
<path d="M69.9,125.7l784.2,0l0,-0.8l-784.2,0l0,0.8Z" class="g2_1743" />
<path d="M69.9,176.1l784.2,0l0,-0.7l-784.2,0l0,0.7Z" class="g2_1743" />
<path d="M69.9,212.8l784.2,0l0,-0.8L69.9,212l0,0.8Z" class="g2_1743" />
<path d="M69.9,266.2l784.2,0l0,-0.7l-784.2,0l0,0.7Z" class="g2_1743" />
<path d="M69.9,319.6l784.2,0l0,-0.7l-784.2,0l0,0.7Z" class="g2_1743" />
<path d="M69.9,373.2l784.2,0l0,-0.8l-784.2,0l0,0.8Z" class="g2_1743" />
<path d="M69.9,426.6l784.2,0l0,-0.7l-784.2,0l0,0.7Z" class="g2_1743" />
<path d="M69.9,578.7l0.7,0l0,-97.1l-0.7,0l0,97.1Z" class="g2_1743" />
<path d="M177.6,579.4l0.7,0l0,-98.5l-0.7,0l0,98.5Z" class="g2_1743" />
<path d="M348.4,579.4l0.8,0l0,-98.5l-0.8,0l0,98.5Z" class="g2_1743" />
<path d="M518.5,579.4l0.7,0l0,-98.5l-0.7,0l0,98.5Z" class="g2_1743" />
<path d="M682,579.4l0.7,0l0,-98.5l-0.7,0l0,98.5Z" class="g2_1743" />
<path d="M852.1,578.7l0.8,0l0,-97.1l-0.8,0l0,97.1Z" class="g2_1743" />
<path d="M69.9,481.6l783.1,0l0,-0.7l-783.1,0l0,0.7Z" class="g2_1743" />
<path d="M69.9,506.1l783.1,0l0,-0.7l-783.1,0l0,0.7Z" class="g2_1743" />
<path d="M69.9,530.6l783.1,0l0,-0.8l-783.1,0l0,0.8Z" class="g2_1743" />
<path d="M69.9,554.9l783.1,0l0,-0.7l-783.1,0l0,0.7Z" class="g2_1743" />
<path d="M69.9,579.4l783.1,0l0,-0.7l-783.1,0l0,0.7Z" class="g2_1743" />
</svg>