<?xml version="1.0" encoding="UTF-8" standalone="no"?>
<!DOCTYPE svg PUBLIC "-//W3C//DTD SVG 1.1//EN"
"http://www.w3.org/Graphics/SVG/1.1/DTD/svg11.dtd">
<svg viewBox="0 0 935 1210" version="1.1" xmlns="http://www.w3.org/2000/svg" xmlns:xlink="http://www.w3.org/1999/xlink">
<defs>
<style type="text/css"><![CDATA[
.g1_1061{
fill: #FFFFFF;
}
.g2_1061{
}
]]></style>
</defs>
<path d="M68.9,1149.3l686.3,0l0,-21.2l-686.3,0l0,21.2Z" class="g1_1061" />
<path d="M771.3,1149.3l83.7,0l0,-21.2l-83.7,0l0,21.2Z" class="g1_1061" />
<path d="M171.3,892.2l0.8,0l0,-199.8l-0.8,0l0,199.8Z" class="g2_1061" />
<path d="M750.7,892.2l0.7,0l0,-199.8l-0.7,0l0,199.8Z" class="g2_1061" />
<path d="M171.3,692.4l580.1,0l0,-0.7l-580.1,0l0,0.7Z" class="g2_1061" />
<path d="M171.3,893l580.1,0l0,-0.7l-580.1,0l0,0.7Z" class="g2_1061" />
<path d="M257.4,739.1l55.5,0l0,-27.5l-55.5,0l0,27.5Z" class="g1_1061" />
<path d="M257.4,712l55.9,0l0,-0.8l-55.9,0l0,0.8Z" class="g2_1061" />
<path d="M312.6,739.5l0.7,0l0,-27.9l-0.7,0l0,27.9Z" class="g2_1061" />
<path d="M257,739.5l55.9,0l0,-0.8l-55.9,0l0,0.8Z" class="g2_1061" />
<path d="M257,739.1l0.8,0l0,-27.9l-0.8,0l0,27.9Z" class="g2_1061" />
<path d="M312.9,739.1l55.6,0l0,-27.5l-55.6,0l0,27.5Z" class="g1_1061" />
<path d="M312.9,712l56,0l0,-0.8l-56,0l0,0.8Z" class="g2_1061" />
<path d="M368.1,739.5l0.8,0l0,-27.9l-0.8,0l0,27.9Z" class="g2_1061" />
<path d="M312.6,739.5l55.9,0l0,-0.8l-55.9,0l0,0.8Z" class="g2_1061" />
<path d="M312.6,739.1l0.7,0l0,-27.9l-0.7,0l0,27.9Z" class="g2_1061" />
<path d="M368.5,739.1l55.5,0l0,-27.5l-55.5,0l0,27.5Z" class="g1_1061" />
<path d="M368.5,712l55.9,0l0,-0.8l-55.9,0l0,0.8Z" class="g2_1061" />
<path d="M423.7,739.5l0.7,0l0,-27.9l-0.7,0l0,27.9Z" class="g2_1061" />
<path d="M368.1,739.5l55.9,0l0,-0.8l-55.9,0l0,0.8Z" class="g2_1061" />
<path d="M368.1,739.1l0.8,0l0,-27.9l-0.8,0l0,27.9Z" class="g2_1061" />
<path d="M424,739.1l55.7,0l0,-27.5l-55.7,0l0,27.5Z" class="g1_1061" />
<path d="M424,712l56.1,0l0,-0.8l-56.1,0l0,0.8Z" class="g2_1061" />
<path d="M479.3,739.5l0.8,0l0,-27.9l-0.8,0l0,27.9Z" class="g2_1061" />
<path d="M423.7,739.5l56,0l0,-0.8l-56,0l0,0.8Z" class="g2_1061" />
<path d="M423.7,739.1l0.7,0l0,-27.9l-0.7,0l0,27.9Z" class="g2_1061" />
<path d="M480,739l55.5,0l0,-27.5l-55.5,0l0,27.5Z" class="g1_1061" />
<path d="M480,711.9l55.9,0l0,-0.7l-55.9,0l0,0.7Z" class="g2_1061" />
<path d="M535.2,739.4l0.7,0l0,-27.9l-0.7,0l0,27.9Z" class="g2_1061" />
<path d="M479.6,739.4l55.9,0l0,-0.7l-55.9,0l0,0.7Z" class="g2_1061" />
<path d="M479.6,739l0.7,0l0,-27.8l-0.7,0l0,27.8Z" class="g2_1061" />
<path d="M535.5,711.5l55.6,0l0,27.5l-55.6,0Z" class="g1_1061" />
<path d="M535.5,711.9l55.9,0l0,-0.7l-55.9,0l0,0.7Z" class="g2_1061" />
<path d="M590.7,739.4l0.7,0l0,-27.9l-0.7,0l0,27.9Z" class="g2_1061" />
<path d="M535.2,739.4l55.9,0l0,-0.7l-55.9,0l0,0.7Z" class="g2_1061" />
<path d="M535.2,739l0.7,0l0,-27.8l-0.7,0l0,27.8Z" class="g2_1061" />
<path d="M591.1,739l55.5,0l0,-27.5l-55.5,0l0,27.5Z" class="g1_1061" />
<path d="M591.1,711.9l55.9,0l0,-0.7l-55.9,0l0,0.7Z" class="g2_1061" />
<path d="M646.3,739.4l0.7,0l0,-27.9l-0.7,0l0,27.9Z" class="g2_1061" />
<path d="M590.7,739.4l55.9,0l0,-0.7l-55.9,0l0,0.7Z" class="g2_1061" />
<path d="M590.7,739l0.7,0l0,-27.8l-0.7,0l0,27.8Z" class="g2_1061" />
<path d="M646.6,739l55.7,0l0,-27.5l-55.7,0l0,27.5Z" class="g1_1061" />
<path d="M646.6,711.9l56,0l0,-0.7l-56,0l0,0.7Z" class="g2_1061" />
<path d="M701.9,739.4l0.7,0l0,-27.9l-0.7,0l0,27.9Z" class="g2_1061" />
<path d="M646.3,739.4l56,0l0,-0.7l-56,0l0,0.7Z" class="g2_1061" />
<path d="M646.3,739l0.7,0l0,-27.8l-0.7,0l0,27.8Z" class="g2_1061" />
<path d="M256.5,784.9l55.5,0l0,-27.5l-55.5,0l0,27.5Z" class="g1_1061" />
<path d="M256.5,757.7l55.9,0l0,-0.7l-55.9,0l0,0.7Z" class="g2_1061" />
<path d="M311.7,785.2l0.7,0l0,-27.8l-0.7,0l0,27.8Z" class="g2_1061" />
<path d="M256.1,785.2l55.9,0l0,-0.7l-55.9,0l0,0.7Z" class="g2_1061" />
<path d="M256.1,784.9l0.7,0l0,-27.9l-0.7,0l0,27.9Z" class="g2_1061" />
<path d="M312,784.9l55.7,0l0,-27.5l-55.7,0l0,27.5Z" class="g1_1061" />
<path d="M312,757.7l56,0l0,-0.7l-56,0l0,0.7Z" class="g2_1061" />
<path d="M367.3,785.2l0.7,0l0,-27.8l-0.7,0l0,27.8Z" class="g2_1061" />
<path d="M311.7,785.2l56,0l0,-0.7l-56,0l0,0.7Z" class="g2_1061" />
<path d="M311.7,784.9l0.7,0l0,-27.9l-0.7,0l0,27.9Z" class="g2_1061" />
<path d="M367.7,784.9l55.5,0l0,-27.5l-55.5,0l0,27.5Z" class="g1_1061" />
<path d="M367.7,757.7l55.9,0l0,-0.7l-55.9,0l0,0.7Z" class="g2_1061" />
<path d="M422.9,785.2l0.7,0l0,-27.8l-0.7,0l0,27.8Z" class="g2_1061" />
<path d="M367.3,785.2l55.9,0l0,-0.7l-55.9,0l0,0.7Z" class="g2_1061" />
<path d="M367.3,784.9l0.7,0L368,757l-0.7,0l0,27.9Z" class="g2_1061" />
<path d="M423.2,784.9l55.6,0l0,-27.5l-55.6,0l0,27.5Z" class="g1_1061" />
<path d="M423.2,757.7l55.9,0l0,-0.7l-55.9,0l0,0.7Z" class="g2_1061" />
<path d="M478.4,785.2l0.7,0l0,-27.8l-0.7,0l0,27.8Z" class="g2_1061" />
<path d="M422.9,785.2l55.9,0l0,-0.7l-55.9,0l0,0.7Z" class="g2_1061" />
<path d="M422.9,784.9l0.7,0l0,-27.9l-0.7,0l0,27.9Z" class="g2_1061" />
<path d="M479.1,784.8l55.5,0l0,-26.5l-55.5,0l0,26.5Z" class="g1_1061" />
<path d="M479.1,758.6l55.9,0l0,-0.7l-55.9,0l0,0.7Z" class="g2_1061" />
<path d="M534.2,785.1l0.8,0l0,-26.8l-0.8,0l0,26.8Z" class="g2_1061" />
<path d="M478.7,785.1l55.9,0l0,-0.7l-55.9,0l0,0.7Z" class="g2_1061" />
<path d="M478.7,784.8l0.7,0l0,-26.9l-0.7,0l0,26.9Z" class="g2_1061" />
<path d="M534.6,784.8l55.6,0l0,-26.5l-55.6,0l0,26.5Z" class="g1_1061" />
<path d="M534.6,758.6l56,0l0,-0.7l-56,0l0,0.7Z" class="g2_1061" />
<path d="M589.9,785.1l0.7,0l0,-26.8l-0.7,0l0,26.8Z" class="g2_1061" />
<path d="M534.2,785.1l56,0l0,-0.7l-56,0l0,0.7Z" class="g2_1061" />
<path d="M534.2,784.8l0.8,0l0,-26.9l-0.8,0l0,26.9Z" class="g2_1061" />
<path d="M590.2,784.8l55.6,0l0,-26.5l-55.6,0l0,26.5Z" class="g1_1061" />
<path d="M590.2,758.6l56,0l0,-0.7l-56,0l0,0.7Z" class="g2_1061" />
<path d="M645.4,785.1l0.8,0l0,-26.8l-0.8,0l0,26.8Z" class="g2_1061" />
<path d="M589.9,785.1l55.9,0l0,-0.7l-55.9,0l0,0.7Z" class="g2_1061" />
<path d="M589.9,784.8l0.7,0l0,-26.9l-0.7,0l0,26.9Z" class="g2_1061" />
<path d="M645.8,784.8l55.5,0l0,-26.5l-55.5,0l0,26.5Z" class="g1_1061" />
<path d="M645.8,758.6l55.9,0l0,-0.7l-55.9,0l0,0.7Z" class="g2_1061" />
<path d="M701,785.1l0.7,0l0,-26.8l-0.7,0l0,26.8Z" class="g2_1061" />
<path d="M645.4,785.1l55.9,0l0,-0.7l-55.9,0l0,0.7Z" class="g2_1061" />
<path d="M645.4,784.8l0.8,0l0,-26.9l-0.8,0l0,26.9Z" class="g2_1061" />
<path d="M257.3,829l55.6,0l0,-27.5l-55.6,0l0,27.5Z" class="g1_1061" />
<path d="M257.3,801.9l55.9,0l0,-0.7l-55.9,0l0,0.7Z" class="g2_1061" />
<path d="M312.5,829.4l0.7,0l0,-27.9l-0.7,0l0,27.9Z" class="g2_1061" />
<path d="M256.9,829.4l56,0l0,-0.7l-56,0l0,0.7Z" class="g2_1061" />
<path d="M256.9,829l0.8,0l0,-27.8l-0.8,0l0,27.8Z" class="g2_1061" />
<path d="M312.9,829l55.5,0l0,-27.5l-55.5,0l0,27.5Z" class="g1_1061" />
<path d="M312.9,801.9l55.9,0l0,-0.7l-55.9,0l0,0.7Z" class="g2_1061" />
<path d="M368,829.4l0.8,0l0,-27.9l-0.8,0l0,27.9Z" class="g2_1061" />
<path d="M312.5,829.4l55.9,0l0,-0.7l-55.9,0l0,0.7Z" class="g2_1061" />
<path d="M312.5,829l0.7,0l0,-27.8l-0.7,0l0,27.8Z" class="g2_1061" />
<path d="M368.5,829l55.5,0l0,-27.5l-55.5,0l0,27.5Z" class="g1_1061" />
<path d="M368.5,801.9l55.9,0l0,-0.7l-55.9,0l0,0.7Z" class="g2_1061" />
<path d="M423.7,829.4l0.7,0l0,-27.9l-0.7,0l0,27.9Z" class="g2_1061" />
<path d="M368.1,829.4l55.9,0l0,-0.7l-55.9,0l0,0.7Z" class="g2_1061" />
<path d="M368.1,829l0.8,0l0,-27.8l-0.8,0l0,27.8Z" class="g2_1061" />
<path d="M424,829l55.6,0l0,-27.5l-55.6,0l0,27.5Z" class="g1_1061" />
<path d="M424,801.9l56,0l0,-0.7l-56,0l0,0.7Z" class="g2_1061" />
<path d="M479.2,829.4l0.8,0l0,-27.9l-0.8,0l0,27.9Z" class="g2_1061" />
<path d="M423.7,829.4l55.9,0l0,-0.7l-55.9,0l0,0.7Z" class="g2_1061" />
<path d="M423.7,829l0.7,0l0,-27.8l-0.7,0l0,27.8Z" class="g2_1061" />
<path d="M479.9,829l55.5,0l0,-27.5l-55.5,0l0,27.5Z" class="g1_1061" />
<path d="M479.9,801.9l55.9,0l0,-0.7l-55.9,0l0,0.7Z" class="g2_1061" />
<path d="M535.1,829.4l0.7,0l0,-27.9l-0.7,0l0,27.9Z" class="g2_1061" />
<path d="M479.5,829.4l55.9,0l0,-0.7l-55.9,0l0,0.7Z" class="g2_1061" />
<path d="M479.5,829l0.7,0l0,-27.8l-0.7,0l0,27.8Z" class="g2_1061" />
<path d="M535.4,829l55.7,0l0,-27.5l-55.7,0l0,27.5Z" class="g1_1061" />
<path d="M535.4,801.9l56,0l0,-0.7l-56,0l0,0.7Z" class="g2_1061" />
<path d="M590.7,829.4l0.7,0l0,-27.9l-0.7,0l0,27.9Z" class="g2_1061" />
<path d="M535.1,829.4l56,0l0,-0.7l-56,0l0,0.7Z" class="g2_1061" />
<path d="M535.1,829l0.7,0l0,-27.8l-0.7,0l0,27.8Z" class="g2_1061" />
<path d="M591.1,829l55.5,0l0,-27.5l-55.5,0l0,27.5Z" class="g1_1061" />
<path d="M591.1,801.9l55.9,0l0,-0.7l-55.9,0l0,0.7Z" class="g2_1061" />
<path d="M646.3,829.4l0.7,0l0,-27.9l-0.7,0l0,27.9Z" class="g2_1061" />
<path d="M590.7,829.4l55.9,0l0,-0.7l-55.9,0l0,0.7Z" class="g2_1061" />
<path d="M590.7,829l0.7,0l0,-27.8l-0.7,0l0,27.8Z" class="g2_1061" />
<path d="M646.6,829l55.6,0l0,-27.5l-55.6,0l0,27.5Z" class="g1_1061" />
<path d="M646.6,801.9l55.9,0l0,-0.7l-55.9,0l0,0.7Z" class="g2_1061" />
<path d="M701.8,829.4l0.7,0l0,-27.9l-0.7,0l0,27.9Z" class="g2_1061" />
<path d="M646.3,829.4l55.9,0l0,-0.7l-55.9,0l0,0.7Z" class="g2_1061" />
<path d="M646.3,829l0.7,0l0,-27.8l-0.7,0l0,27.8Z" class="g2_1061" />
<path d="M257.8,880.6l55.6,0l0,-27.5l-55.6,0l0,27.5Z" class="g1_1061" />
<path d="M257.8,853.4l56,0l0,-0.7l-56,0l0,0.7Z" class="g2_1061" />
<path d="M313,880.9l0.8,0l0,-27.8l-0.8,0l0,27.8Z" class="g2_1061" />
<path d="M257.4,880.9l56,0l0,-0.7l-56,0l0,0.7Z" class="g2_1061" />
<path d="M257.4,880.6l0.7,0l0,-27.9l-0.7,0l0,27.9Z" class="g2_1061" />
<path d="M313.4,880.6l55.6,0l0,-27.5l-55.6,0l0,27.5Z" class="g1_1061" />
<path d="M313.4,853.4l55.9,0l0,-0.7l-55.9,0l0,0.7Z" class="g2_1061" />
<path d="M368.6,880.9l0.7,0l0,-27.8l-0.7,0l0,27.8Z" class="g2_1061" />
<path d="M313,880.9l56,0l0,-0.7l-56,0l0,0.7Z" class="g2_1061" />
<path d="M313,880.6l0.8,0l0,-27.9l-0.8,0l0,27.9Z" class="g2_1061" />
<path d="M369,880.6l55.5,0l0,-27.5l-55.5,0l0,27.5Z" class="g1_1061" />
<path d="M369,853.4l55.9,0l0,-0.7l-55.9,0l0,0.7Z" class="g2_1061" />
<path d="M424.1,880.9l0.8,0l0,-27.8l-0.8,0l0,27.8Z" class="g2_1061" />
<path d="M368.6,880.9l55.9,0l0,-0.7l-55.9,0l0,0.7Z" class="g2_1061" />
<path d="M368.6,880.6l0.7,0l0,-27.9l-0.7,0l0,27.9Z" class="g2_1061" />
<path d="M424.5,880.6l55.6,0l0,-27.5l-55.6,0l0,27.5Z" class="g1_1061" />
<path d="M424.5,853.4l55.9,0l0,-0.7l-55.9,0l0,0.7Z" class="g2_1061" />
<path d="M479.7,880.9l0.7,0l0,-27.8l-0.7,0l0,27.8Z" class="g2_1061" />
<path d="M424.1,880.9l56,0l0,-0.7l-56,0l0,0.7Z" class="g2_1061" />
<path d="M424.1,880.6l0.8,0l0,-27.9l-0.8,0l0,27.9Z" class="g2_1061" />
<path d="M480.3,880.5l55.7,0L536,853l-55.7,0l0,27.5Z" class="g1_1061" />
<path d="M480.3,853.3l56,0l0,-0.7l-56,0l0,0.7Z" class="g2_1061" />
<path d="M535.6,880.8l0.7,0l0,-27.8l-0.7,0l0,27.8Z" class="g2_1061" />
<path d="M480,880.8l56,0l0,-0.7l-56,0l0,0.7Z" class="g2_1061" />
<path d="M480,880.5l0.7,0l0,-27.9l-0.7,0l0,27.9Z" class="g2_1061" />
<path d="M536,880.5l55.5,0l0,-27.5L536,853l0,27.5Z" class="g1_1061" />
<path d="M536,853.3l55.9,0l0,-0.7l-55.9,0l0,0.7Z" class="g2_1061" />
<path d="M591.2,880.8l0.7,0l0,-27.8l-0.7,0l0,27.8Z" class="g2_1061" />
<path d="M535.6,880.8l55.9,0l0,-0.7l-55.9,0l0,0.7Z" class="g2_1061" />
<path d="M535.6,880.5l0.7,0l0,-27.9l-0.7,0l0,27.9Z" class="g2_1061" />
<path d="M591.5,880.5l108.8,0l0,-27.5l-108.8,0l0,27.5Z" class="g1_1061" />
<path d="M591.5,853.3l109.2,0l0,-0.7l-109.2,0l0,0.7Z" class="g2_1061" />
<path d="M700,880.8l0.7,0l0,-27.8l-0.7,0l0,27.8Z" class="g2_1061" />
<path d="M591.2,880.8l109.1,0l0,-0.7l-109.1,0l0,0.7Z" class="g2_1061" />
<path d="M591.2,880.5l0.7,0l0,-27.9l-0.7,0l0,27.9Z" class="g2_1061" />
</svg>