<?xml version="1.0" encoding="UTF-8" standalone="no"?>
<!DOCTYPE svg PUBLIC "-//W3C//DTD SVG 1.1//EN"
"http://www.w3.org/Graphics/SVG/1.1/DTD/svg11.dtd">
<svg viewBox="0 0 935 1210" version="1.1" xmlns="http://www.w3.org/2000/svg" xmlns:xlink="http://www.w3.org/1999/xlink">
<defs>
<style type="text/css"><![CDATA[
.g1_1051{
fill: #FFFFFF;
}
.g2_1051{
}
]]></style>
</defs>
<path d="M68.9,1149.3l686.3,0l0,-21.2l-686.3,0l0,21.2Z" class="g1_1051" />
<path d="M771.3,1149.3l83.7,0l0,-21.2l-83.7,0l0,21.2Z" class="g1_1051" />
<path d="M66.9,694.7l0.8,0l0,-569l-0.8,0l0,569Z" class="g2_1051" />
<path d="M387.3,695.6l0.7,0l0,-570.7l-0.7,0l0,570.7Z" class="g2_1051" />
<path d="M425.2,695.6l0.7,0l0,-570.7l-0.7,0l0,570.7Z" class="g2_1051" />
<path d="M498.6,695.6l0.7,0l0,-570.7l-0.7,0l0,570.7Z" class="g2_1051" />
<path d="M579.1,695.6l0.7,0l0,-570.7l-0.7,0l0,570.7Z" class="g2_1051" />
<path d="M855.1,694.7l0.7,0l0,-569l-0.7,0l0,569Z" class="g2_1051" />
<path d="M66.9,125.7l789,0l0,-0.8l-789,0l0,0.8Z" class="g2_1051" />
<path d="M66.9,179.1l789,0l0,-0.7l-789,0l0,0.7Z" class="g2_1051" />
<path d="M66.9,223.4l789,0l0,-0.7l-789,0l0,0.7Z" class="g2_1051" />
<path d="M66.9,267.8l789,0l0,-0.8l-789,0l0,0.8Z" class="g2_1051" />
<path d="M66.9,312l789,0l0,-0.7l-789,0l0,0.7Z" class="g2_1051" />
<path d="M66.9,356.3l789,0l0,-0.7l-789,0l0,0.7Z" class="g2_1051" />
<path d="M66.9,412.9l789,0l0,-0.8l-789,0l0,0.8Z" class="g2_1051" />
<path d="M66.9,469.4l789,0l0,-0.7l-789,0l0,0.7Z" class="g2_1051" />
<path d="M66.9,526l789,0l0,-0.8l-789,0l0,0.8Z" class="g2_1051" />
<path d="M66.9,582.4l789,0l0,-0.7l-789,0l0,0.7Z" class="g2_1051" />
<path d="M66.9,639l789,0l0,-0.7l-789,0l0,0.7Z" class="g2_1051" />
<path d="M66.9,695.6l789,0l0,-0.8l-789,0l0,0.8Z" class="g2_1051" />
<path d="M71.6,925.5l0.7,0l0,-97l-0.7,0l0,97Z" class="g2_1051" />
<path d="M142.2,926.3l0.7,0l0,-98.5l-0.7,0l0,98.5Z" class="g2_1051" />
<path d="M317.6,926.3l0.8,0l0,-98.5l-0.8,0l0,98.5Z" class="g2_1051" />
<path d="M492.7,926.3l0.7,0l0,-98.5l-0.7,0l0,98.5Z" class="g2_1051" />
<path d="M671.9,926.3l0.7,0l0,-98.5l-0.7,0l0,98.5Z" class="g2_1051" />
<path d="M850.4,925.5l0.7,0l0,-97l-0.7,0l0,97Z" class="g2_1051" />
<path d="M71.6,828.5l779.5,0l0,-0.8l-779.5,0l0,0.8Z" class="g2_1051" />
<path d="M71.6,852.9l779.5,0l0,-0.8l-779.5,0l0,0.8Z" class="g2_1051" />
<path d="M71.6,877.3l779.5,0l0,-0.7l-779.5,0l0,0.7Z" class="g2_1051" />
<path d="M71.6,901.8l779.5,0l0,-0.7l-779.5,0l0,0.7Z" class="g2_1051" />
<path d="M71.6,926.2l779.5,0l0,-0.7l-779.5,0l0,0.7Z" class="g2_1051" />
</svg>