<?xml version="1.0" encoding="UTF-8" standalone="no"?>
<!DOCTYPE svg PUBLIC "-//W3C//DTD SVG 1.1//EN"
"http://www.w3.org/Graphics/SVG/1.1/DTD/svg11.dtd">
<svg viewBox="0 0 935 1210" version="1.1" xmlns="http://www.w3.org/2000/svg" xmlns:xlink="http://www.w3.org/1999/xlink">
<defs>
<style type="text/css"><![CDATA[
.g1_1866{
fill: #FFFFFF;
}
.g2_1866{
}
]]></style>
</defs>
<path d="M165,1149.3l687.5,0l0,-21.2l-687.5,0l0,21.2Z" class="g1_1866" />
<path d="M68.8,1149.3l82.5,0l0,-21.2l-82.5,0l0,21.2Z" class="g1_1866" />
<path d="M68.6,386.2l0.7,0l0,-260.5l-0.7,0l0,260.5Z" class="g2_1866" />
<path d="M288.9,386.9l0.8,0l0,-262l-0.8,0l0,262Z" class="g2_1866" />
<path d="M332.5,386.9l0.7,0l0,-262l-0.7,0l0,262Z" class="g2_1866" />
<path d="M407,386.9l0.7,0l0,-262l-0.7,0l0,262Z" class="g2_1866" />
<path d="M493.2,386.9l0.7,0l0,-262l-0.7,0l0,262Z" class="g2_1866" />
<path d="M852,386.2l0.8,0l0,-260.5l-0.8,0l0,260.5Z" class="g2_1866" />
<path d="M68.6,125.7l784.2,0l0,-0.8l-784.2,0l0,0.8Z" class="g2_1866" />
<path d="M68.6,176.1l784.2,0l0,-0.7l-784.2,0l0,0.7Z" class="g2_1866" />
<path d="M68.6,246.3l784.2,0l0,-0.7l-784.2,0l0,0.7Z" class="g2_1866" />
<path d="M68.6,316.6l784.2,0l0,-0.7l-784.2,0l0,0.7Z" class="g2_1866" />
<path d="M68.6,386.9l784.2,0l0,-0.7l-784.2,0l0,0.7Z" class="g2_1866" />
<path d="M70.1,490.1l0.8,0l0,-48.2l-0.8,0l0,48.2Z" class="g2_1866" />
<path d="M186.8,490.8l0.8,0l0,-49.6l-0.8,0l0,49.6Z" class="g2_1866" />
<path d="M354.7,490.8l0.8,0l0,-49.6l-0.8,0l0,49.6Z" class="g2_1866" />
<path d="M526.6,490.8l0.8,0l0,-49.6l-0.8,0l0,49.6Z" class="g2_1866" />
<path d="M689.1,490.8l0.7,0l0,-49.6l-0.7,0l0,49.6Z" class="g2_1866" />
<path d="M850.3,490.1l0.7,0l0,-48.2l-0.7,0l0,48.2Z" class="g2_1866" />
<path d="M70.1,441.9l780.9,0l0,-0.7l-780.9,0l0,0.7Z" class="g2_1866" />
<path d="M70.1,466.4l780.9,0l0,-0.7l-780.9,0l0,0.7Z" class="g2_1866" />
<path d="M70.1,490.8l780.9,0l0,-0.8L70.1,490l0,0.8Z" class="g2_1866" />
</svg>