<?xml version="1.0" encoding="UTF-8" standalone="no"?>
<!DOCTYPE svg PUBLIC "-//W3C//DTD SVG 1.1//EN"
"http://www.w3.org/Graphics/SVG/1.1/DTD/svg11.dtd">
<svg viewBox="0 0 935 1210" version="1.1" xmlns="http://www.w3.org/2000/svg" xmlns:xlink="http://www.w3.org/1999/xlink">
<defs>
<style type="text/css"><![CDATA[
.g1_1455{
fill: #FFFFFF;
}
.g2_1455{
}
]]></style>
</defs>
<path d="M68.9,1149.3l686.3,0l0,-21.2l-686.3,0l0,21.2Z" class="g1_1455" />
<path d="M771.3,1149.3l83.7,0l0,-21.2l-83.7,0l0,21.2Z" class="g1_1455" />
<path d="M69.9,571l0.8,0l0,-424l-0.8,0l0,424Z" class="g2_1455" />
<path d="M332.7,571.8l0.7,0l0,-425.5l-0.7,0l0,425.5Z" class="g2_1455" />
<path d="M376.2,571.8l0.7,0l0,-425.5l-0.7,0l0,425.5Z" class="g2_1455" />
<path d="M450.6,571.8l0.8,0l0,-425.5l-0.8,0l0,425.5Z" class="g2_1455" />
<path d="M536.6,571.8l0.8,0l0,-425.5l-0.8,0l0,425.5Z" class="g2_1455" />
<path d="M855.2,571l0.8,0l0,-424l-0.8,0l0,424Z" class="g2_1455" />
<path d="M69.9,147L856,147l0,-0.7l-786.1,0l0,0.7Z" class="g2_1455" />
<path d="M69.9,197.4l786.1,0l0,-0.7l-786.1,0l0,0.7Z" class="g2_1455" />
<path d="M69.9,250.9l786.1,0l0,-0.7l-786.1,0l0,0.7Z" class="g2_1455" />
<path d="M69.9,304.4l786.1,0l0,-0.7l-786.1,0l0,0.7Z" class="g2_1455" />
<path d="M69.9,357.9l786.1,0l0,-0.8l-786.1,0l0,0.8Z" class="g2_1455" />
<path d="M69.9,411.4l786.1,0l0,-0.7l-786.1,0l0,0.7Z" class="g2_1455" />
<path d="M69.9,464.8l786.1,0l0,-0.7l-786.1,0l0,0.7Z" class="g2_1455" />
<path d="M69.9,518.3l786.1,0l0,-0.7l-786.1,0l0,0.7Z" class="g2_1455" />
<path d="M69.9,571.8l786.1,0l0,-0.7l-786.1,0l0,0.7Z" class="g2_1455" />
<path d="M69.7,699.3l0.7,0l0,-72.5l-0.7,0l0,72.5Z" class="g2_1455" />
<path d="M198.6,700.2l0.8,0l0,-74.2l-0.8,0l0,74.2Z" class="g2_1455" />
<path d="M363,700.2l0.7,0l0,-74.2l-0.7,0l0,74.2Z" class="g2_1455" />
<path d="M517.6,700.2l0.7,0l0,-74.2l-0.7,0l0,74.2Z" class="g2_1455" />
<path d="M684,700.2l0.8,0l0,-74.2l-0.8,0l0,74.2Z" class="g2_1455" />
<path d="M852.3,699.3l0.8,0l0,-72.5l-0.8,0l0,72.5Z" class="g2_1455" />
<path d="M69.7,626.8l783.3,0l0,-0.7l-783.3,0l0,0.7Z" class="g2_1455" />
<path d="M69.7,651.2l783.3,0l0,-0.7l-783.3,0l0,0.7Z" class="g2_1455" />
<path d="M69.7,675.7l783.3,0l0,-0.8l-783.3,0l0,0.8Z" class="g2_1455" />
<path d="M69.7,700.2l783.3,0l0,-0.8l-783.3,0l0,0.8Z" class="g2_1455" />
</svg>