<?xml version="1.0" encoding="UTF-8" standalone="no"?>
<!DOCTYPE svg PUBLIC "-//W3C//DTD SVG 1.1//EN"
"http://www.w3.org/Graphics/SVG/1.1/DTD/svg11.dtd">
<svg viewBox="0 0 935 1210" version="1.1" xmlns="http://www.w3.org/2000/svg" xmlns:xlink="http://www.w3.org/1999/xlink">
<defs>
<style type="text/css"><![CDATA[
.g1_135{
fill: #FFFFFF;
}
.g2_135{
}
]]></style>
</defs>
<path d="M68.9,1149.3l686.3,0l0,-21.2l-686.3,0l0,21.2Z" class="g1_135" />
<path d="M771.3,1149.3l83.7,0l0,-21.2l-83.7,0l0,21.2Z" class="g1_135" />
<path d="M69.9,479.3l0.8,0l0,-353.6l-0.8,0l0,353.6Z" class="g2_135" />
<path d="M280.1,480.2l0.8,0l0,-355.3l-0.8,0l0,355.3Z" class="g2_135" />
<path d="M327.2,480.2l0.7,0l0,-355.3l-0.7,0l0,355.3Z" class="g2_135" />
<path d="M401.6,480.2l0.7,0l0,-355.3l-0.7,0l0,355.3Z" class="g2_135" />
<path d="M487.9,480.2l0.7,0l0,-355.3l-0.7,0l0,355.3Z" class="g2_135" />
<path d="M851.7,479.3l0.7,0l0,-353.6l-0.7,0l0,353.6Z" class="g2_135" />
<path d="M69.9,125.7l782.5,0l0,-0.8l-782.5,0l0,0.8Z" class="g2_135" />
<path d="M69.9,176.1l782.5,0l0,-0.7l-782.5,0l0,0.7Z" class="g2_135" />
<path d="M69.9,212.8l782.5,0l0,-0.8L69.9,212l0,0.8Z" class="g2_135" />
<path d="M69.9,266.2l782.5,0l0,-0.7l-782.5,0l0,0.7Z" class="g2_135" />
<path d="M69.9,319.6l782.5,0l0,-0.7l-782.5,0l0,0.7Z" class="g2_135" />
<path d="M69.9,373.2l782.5,0l0,-0.8l-782.5,0l0,0.8Z" class="g2_135" />
<path d="M69.9,426.6l782.5,0l0,-0.7l-782.5,0l0,0.7Z" class="g2_135" />
<path d="M69.9,480.2l782.5,0l0,-0.8l-782.5,0l0,0.8Z" class="g2_135" />
<path d="M71.3,632.1l0.8,0l0,-96.9l-0.8,0l0,96.9Z" class="g2_135" />
<path d="M194.9,632.9l0.7,0l0,-98.6l-0.7,0l0,98.6Z" class="g2_135" />
<path d="M360.3,632.9l0.8,0l0,-98.6l-0.8,0l0,98.6Z" class="g2_135" />
<path d="M530.3,632.9l0.7,0l0,-98.6l-0.7,0l0,98.6Z" class="g2_135" />
<path d="M692.5,632.9l0.8,0l0,-98.6l-0.8,0l0,98.6Z" class="g2_135" />
<path d="M850.7,632.1l0.7,0l0,-96.9l-0.7,0l0,96.9Z" class="g2_135" />
<path d="M71.3,535.2l780.1,0l0,-0.8l-780.1,0l0,0.8Z" class="g2_135" />
<path d="M71.3,559.5l780.1,0l0,-0.7l-780.1,0l0,0.7Z" class="g2_135" />
<path d="M71.3,584l780.1,0l0,-0.7l-780.1,0l0,0.7Z" class="g2_135" />
<path d="M71.3,608.5l780.1,0l0,-0.8l-780.1,0l0,0.8Z" class="g2_135" />
<path d="M71.3,632.9l780.1,0l0,-0.8l-780.1,0l0,0.8Z" class="g2_135" />
</svg>