<?xml version="1.0" encoding="UTF-8" standalone="no"?>
<!DOCTYPE svg PUBLIC "-//W3C//DTD SVG 1.1//EN"
"http://www.w3.org/Graphics/SVG/1.1/DTD/svg11.dtd">
<svg viewBox="0 0 935 1210" version="1.1" xmlns="http://www.w3.org/2000/svg" xmlns:xlink="http://www.w3.org/1999/xlink">
<defs>
<style type="text/css"><![CDATA[
.g1_2035{
fill: #FFFFFF;
}
.g2_2035{
fill: #E6E6E6;
}
.g3_2035{
}
]]></style>
</defs>
<path d="M68.9,1149l783.8,0l0,-21.4l-783.8,0l0,21.4Z" class="g1_2035" />
<path d="M391.6,728.8l87.2,0l0,-126.1l-87.2,0l0,126.1Z" class="g2_2035" />
<path d="M68.7,727.7l2.2,0l0,-572.2l-2.2,0l0,572.2Z" class="g3_2035" />
<path d="M99.5,729.9l0.7,0l0,-576.7l-0.7,0l0,576.7Z" class="g3_2035" />
<path d="M128.7,729.9l2.3,0l0,-576.7l-2.3,0l0,576.7Z" class="g3_2035" />
<path d="M216.9,729.9l0.4,0l0,-576.7l-0.4,0l0,576.7Z" class="g3_2035" />
<path d="M304.2,729.9l0.3,0l0,-576.7l-0.3,0l0,576.7Z" class="g3_2035" />
<path d="M391.4,729.9l0.4,0l0,-576.7l-0.4,0l0,576.7Z" class="g3_2035" />
<path d="M478.4,475.4l0.7,0l0,-322.2l-0.7,0l0,322.2Z" class="g3_2035" />
<path d="M478.6,549.5l0.4,0l0,-74.6l-0.4,0l0,74.6Z" class="g3_2035" />
<path d="M478.4,603.9l0.7,0l0,-54.8l-0.7,0l0,54.8Z" class="g3_2035" />
<path d="M478.6,729.9l0.4,0l0,-128.3l-0.4,0l0,128.3Z" class="g3_2035" />
<path d="M565.9,729.9l0.3,0l0,-576.7l-0.3,0l0,576.7Z" class="g3_2035" />
<path d="M653.1,729.9l0.4,0l0,-576.7l-0.4,0l0,576.7Z" class="g3_2035" />
<path d="M752.8,729.9l0.3,0l0,-576.7l-0.3,0l0,576.7Z" class="g3_2035" />
<path d="M851.5,727.7l2.3,0l0,-572.2l-2.3,0l0,572.2Z" class="g3_2035" />
<path d="M68.6,155.5l785.2,0l0,-2.3l-785.2,0l0,2.3Z" class="g3_2035" />
<path d="M68.6,170l785.2,0l0,-2.3l-785.2,0l0,2.3Z" class="g3_2035" />
<path d="M99.4,205.3l754.4,0l0,-0.3L99.4,205l0,0.3Z" class="g3_2035" />
<path d="M68.6,231.5l785.2,0l0,-2.2l-785.2,0l0,2.2Z" class="g3_2035" />
<path d="M68.6,288.9l785.2,0l0,-0.3l-785.2,0l0,0.3Z" class="g3_2035" />
<path d="M68.6,314.3l785.2,0l0,-0.7l-785.2,0l0,0.7Z" class="g3_2035" />
<path d="M68.6,339.5l785.2,0l0,-0.7l-785.2,0l0,0.7Z" class="g3_2035" />
<path d="M68.6,364.7l785.2,0l0,-0.7L68.6,364l0,0.7Z" class="g3_2035" />
<path d="M68.6,389.4l785.2,0l0,-0.4L68.6,389l0,0.4Z" class="g3_2035" />
<path d="M68.6,403.5l785.2,0l0,-0.4l-785.2,0l0,0.4Z" class="g3_2035" />
<path d="M68.6,428.2l785.2,0l0,-0.8l-785.2,0l0,0.8Z" class="g3_2035" />
<path d="M68.6,475.4l584.9,0l0,-0.4L68.6,475l0,0.4Z" class="g3_2035" />
<path d="M653.1,475.6l200.7,0l0,-0.8l-200.7,0l0,0.8Z" class="g3_2035" />
<path d="M68.6,500.6l584.9,0l0,-0.4l-584.9,0l0,0.4Z" class="g3_2035" />
<path d="M653.1,500.8l200.7,0l0,-0.8l-200.7,0l0,0.8Z" class="g3_2035" />
<path d="M68.6,525.2l235.9,0l0,-0.8l-235.9,0l0,0.8Z" class="g3_2035" />
<path d="M304.2,525L479,525l0,-0.4l-174.8,0l0,0.4Z" class="g3_2035" />
<path d="M478.6,525.2l375.2,0l0,-0.8l-375.2,0l0,0.8Z" class="g3_2035" />
<path d="M68.6,549.5l62.4,0l0,-0.4l-62.4,0l0,0.4Z" class="g3_2035" />
<path d="M128.7,549.6l175.8,0l0,-0.7l-175.8,0l0,0.7Z" class="g3_2035" />
<path d="M304.2,549.5l549.6,0l0,-0.4l-549.6,0l0,0.4Z" class="g3_2035" />
<path d="M68.6,563.6l62.4,0l0,-0.4l-62.4,0l0,0.4Z" class="g3_2035" />
<path d="M128.7,563.8l175.8,0l0,-0.8l-175.8,0l0,0.8Z" class="g3_2035" />
<path d="M304.2,563.6l549.6,0l0,-0.4l-549.6,0l0,0.4Z" class="g3_2035" />
<path d="M68.6,589l785.2,0l0,-0.8l-785.2,0l0,0.8Z" class="g3_2035" />
<path d="M68.6,603.9l785.2,0l0,-2.3l-785.2,0l0,2.3Z" class="g3_2035" />
<path d="M99.4,628.3l292.4,0l0,-0.7l-292.4,0l0,0.7Z" class="g3_2035" />
<path d="M478.6,628.3l375.2,0l0,-0.7l-375.2,0l0,0.7Z" class="g3_2035" />
<path d="M99.4,653.5l292.4,0l0,-0.7l-292.4,0l0,0.7Z" class="g3_2035" />
<path d="M478.6,653.5l375.2,0l0,-0.7l-375.2,0l0,0.7Z" class="g3_2035" />
<path d="M99.4,678.7l292.4,0l0,-0.7L99.4,678l0,0.7Z" class="g3_2035" />
<path d="M478.6,678.7l375.2,0l0,-0.7l-375.2,0l0,0.7Z" class="g3_2035" />
<path d="M99.4,703.9l292.4,0l0,-0.7l-292.4,0l0,0.7Z" class="g3_2035" />
<path d="M478.6,703.9l375.2,0l0,-0.7l-375.2,0l0,0.7Z" class="g3_2035" />
<path d="M68.6,729.9l785.2,0l0,-2.2l-785.2,0l0,2.2Z" class="g3_2035" />
</svg>