<?xml version="1.0" encoding="UTF-8" standalone="no"?>
<!DOCTYPE svg PUBLIC "-//W3C//DTD SVG 1.1//EN"
"http://www.w3.org/Graphics/SVG/1.1/DTD/svg11.dtd">
<svg viewBox="0 0 935 1210" version="1.1" xmlns="http://www.w3.org/2000/svg" xmlns:xlink="http://www.w3.org/1999/xlink">
<defs>
<style type="text/css"><![CDATA[
.g1_1445{
fill: #FFFFFF;
}
.g2_1445{
}
]]></style>
</defs>
<path d="M68.9,1149.3l686.3,0l0,-21.2l-686.3,0l0,21.2Z" class="g1_1445" />
<path d="M771.3,1149.3l83.7,0l0,-21.2l-83.7,0l0,21.2Z" class="g1_1445" />
<path d="M69.9,302.1l0.8,0l0,-176.4l-0.8,0l0,176.4Z" class="g2_1445" />
<path d="M324.7,302.9l0.7,0l0,-178l-0.7,0l0,178Z" class="g2_1445" />
<path d="M368.2,302.9l0.8,0l0,-178l-0.8,0l0,178Z" class="g2_1445" />
<path d="M442.7,302.9l0.7,0l0,-178l-0.7,0l0,178Z" class="g2_1445" />
<path d="M527.6,302.9l0.8,0l0,-178l-0.8,0l0,178Z" class="g2_1445" />
<path d="M852.8,302.1l0.7,0l0,-176.4l-0.7,0l0,176.4Z" class="g2_1445" />
<path d="M69.9,125.7l783.6,0l0,-0.8l-783.6,0l0,0.8Z" class="g2_1445" />
<path d="M69.9,176.1l783.6,0l0,-0.7l-783.6,0l0,0.7Z" class="g2_1445" />
<path d="M69.9,229.5l783.6,0l0,-0.7l-783.6,0l0,0.7Z" class="g2_1445" />
<path d="M69.9,266.2l783.6,0l0,-0.7l-783.6,0l0,0.7Z" class="g2_1445" />
<path d="M69.9,302.9l783.6,0l0,-0.8l-783.6,0l0,0.8Z" class="g2_1445" />
<path d="M70.5,407.6l0.7,0l0,-48.2l-0.7,0l0,48.2Z" class="g2_1445" />
<path d="M186,408.3l0.7,0l0,-49.6l-0.7,0l0,49.6Z" class="g2_1445" />
<path d="M343.4,408.3l0.7,0l0,-49.6l-0.7,0l0,49.6Z" class="g2_1445" />
<path d="M513.4,408.3l0.8,0l0,-49.6l-0.8,0l0,49.6Z" class="g2_1445" />
<path d="M683,408.3l0.7,0l0,-49.6l-0.7,0l0,49.6Z" class="g2_1445" />
<path d="M851.5,407.6l0.7,0l0,-48.2l-0.7,0l0,48.2Z" class="g2_1445" />
<path d="M70.5,359.4l781.7,0l0,-0.7l-781.7,0l0,0.7Z" class="g2_1445" />
<path d="M70.5,383.8l781.7,0l0,-0.7l-781.7,0l0,0.7Z" class="g2_1445" />
<path d="M70.5,408.3l781.7,0l0,-0.8l-781.7,0l0,0.8Z" class="g2_1445" />
</svg>