<?xml version="1.0" encoding="UTF-8" standalone="no"?>
<!DOCTYPE svg PUBLIC "-//W3C//DTD SVG 1.1//EN"
"http://www.w3.org/Graphics/SVG/1.1/DTD/svg11.dtd">
<svg viewBox="0 0 935 1210" version="1.1" xmlns="http://www.w3.org/2000/svg" xmlns:xlink="http://www.w3.org/1999/xlink">
<defs>
<style type="text/css"><![CDATA[
.g1_1369{
fill: #FFFFFF;
}
.g2_1369{
}
]]></style>
</defs>
<path d="M68.9,1149.3l686.3,0l0,-21.2l-686.3,0l0,21.2Z" class="g1_1369" />
<path d="M771.3,1149.3l83.7,0l0,-21.2l-83.7,0l0,21.2Z" class="g1_1369" />
<path d="M70.7,195.2l0.7,0l0,-72.6l-0.7,0l0,72.6Z" class="g2_1369" />
<path d="M185.4,196l0.8,0l0,-74.2l-0.8,0l0,74.2Z" class="g2_1369" />
<path d="M347.8,196l0.7,0l0,-74.2l-0.7,0l0,74.2Z" class="g2_1369" />
<path d="M515.6,196l0.8,0l0,-74.2l-0.8,0l0,74.2Z" class="g2_1369" />
<path d="M684,196l0.8,0l0,-74.2l-0.8,0l0,74.2Z" class="g2_1369" />
<path d="M851.3,195.2l0.7,0l0,-72.6l-0.7,0l0,72.6Z" class="g2_1369" />
<path d="M70.7,122.6l781.3,0l0,-0.8l-781.3,0l0,0.8Z" class="g2_1369" />
<path d="M70.7,147L852,147l0,-0.7l-781.3,0l0,0.7Z" class="g2_1369" />
<path d="M70.7,171.5l781.3,0l0,-0.7l-781.3,0l0,0.7Z" class="g2_1369" />
<path d="M70.7,195.9l781.3,0l0,-0.7l-781.3,0l0,0.7Z" class="g2_1369" />
<path d="M158.5,815.7l0.7,0l0,-172.1l-0.7,0l0,172.1Z" class="g2_1369" />
<path d="M763.5,815.7l0.7,0l0,-172.1l-0.7,0l0,172.1Z" class="g2_1369" />
<path d="M158.5,643.6l605.7,0l0,-0.7l-605.7,0l0,0.7Z" class="g2_1369" />
<path d="M158.5,816.5l605.7,0l0,-0.8l-605.7,0l0,0.8Z" class="g2_1369" />
<path d="M158.5,1070.2l0.7,0l0,-172.8l-0.7,0l0,172.8Z" class="g2_1369" />
<path d="M763.5,1070.2l0.7,0l0,-172.8l-0.7,0l0,172.8Z" class="g2_1369" />
<path d="M158.5,897.4l605.7,0l0,-0.7l-605.7,0l0,0.7Z" class="g2_1369" />
<path d="M158.5,1070.9l605.7,0l0,-0.7l-605.7,0l0,0.7Z" class="g2_1369" />
<path fill-rule="evenodd" d="M499.6,764l0.2,0.3l0.1,0.2c1.2,0.9,2.9,-0.1,2.5,-1.6l-0.1,-0.2l-0.2,-0.3c-0.8,-1.2,-2.8,-0.5,-2.7,1l0.1,0.4l0.1,0.2Z" class="g2_1369" />
<path d="M500.9,763.3l3,5.9l0.4,0.9l-1,0.2L480,774.9l-2.7,0.5l2,-1.8l17.4,-16.3l0.8,-0.7l0.4,0.8l-0.2,1l-17.4,16.3l-1,-1.1l0.4,-0.2l23.4,-4.6l0.2,1.5l-0.8,-0.4l-3,-5.9Z" class="g2_1369" />
<path d="M497.9,757.4l3,5.9l-1.4,0.7l-2.9,-5.8Z" class="g2_1369" />
<path fill-rule="evenodd" d="M500.2,763.7l3.1,5.8l-23.4,4.6l17.4,-16.3Z" class="g2_1369" />
<path d="M648.4,689.1L647,686.5L500.3,762l1.4,2.7Z" class="g2_1369" />
<path d="M621.9,687.8l56.6,0l0,-20.7l-56.6,0l0,20.7Z" class="g1_1369" />
<path d="M621.9,667.5l57,0l0,-0.7l-57,0l0,0.7Z" class="g2_1369" />
<path d="M678.2,688.1l0.7,0l0,-20.9l-0.7,0l0,20.9Z" class="g2_1369" />
<path d="M621.5,688.1l57,0l0,-0.7l-57,0l0,0.7Z" class="g2_1369" />
<path d="M621.5,687.8l0.7,0l0,-21l-0.7,0l0,21Z" class="g2_1369" />
<path fill-rule="evenodd" d="M647.8,750.6l0.4,-0.1l0.5,-0.2l0.2,-0.2l0.2,-0.3l0.2,-0.2l0.1,-0.3l0,-0.6c-0.2,-0.6,-0.2,-0.9,-0.9,-1.1l-0.6,-0.2l-0.4,0.1c-1.4,0.2,-1.6,2.4,-0.2,2.9l0.5,0.2Z" class="g2_1369" />
<path d="M647.9,749l6.5,0.1l1,0.1l-0.3,0.9l-6.7,22.8l-0.8,2.6l-0.7,-2.6L640.6,750l-0.3,-1l1,0l0.7,0.6l6.4,22.9l-1.5,0.4l0,-0.4l6.8,-22.8l1.4,0.4l-0.7,0.6l-6.5,-0.1Z" class="g2_1369" />
<path d="M641.3,750.6l6.6,0l0,-1.6l-6.6,0l0,1.6Z" class="g2_1369" />
<path fill-rule="evenodd" d="M647.9,749.7l6.5,0.1l-6.8,22.9l-6.3,-23Z" class="g2_1369" />
<path d="M650,687.8l-3,0L646.4,749l3.1,0Z" class="g2_1369" />
<path fill-rule="evenodd" d="M604.5,754.5l0.2,0.2l0.3,0.1c1.6,0,2.3,-1.6,1.3,-2.7l-0.2,-0.2l-0.3,-0.1c-1.4,-0.6,-2.7,1.2,-1.8,2.3l0.2,0.2l0.3,0.2Z" class="g2_1369" />
<path d="M605.2,753.2l5.5,3.6l0.8,0.6l-0.7,0.7l-18,15.7l-2,1.7l0.8,-2.6l7,-22.8l0.3,-1l0.8,0.5l0.4,1l-7,22.8l-1.5,-0.5l0.2,-0.3l18,-15.7l1,1.2l-0.9,0.1l-5.5,-3.6Z" class="g2_1369" />
<path d="M599.7,749.6l5.5,3.6l-0.8,1.4L598.9,751Z" class="g2_1369" />
<path fill-rule="evenodd" d="M604.8,753.9l5.5,3.5l-17.9,15.7l6.9,-22.8Z" class="g2_1369" />
<path d="M648.9,688.6L646.3,687L604,752.4l2.6,1.7Z" class="g2_1369" />
<path fill-rule="evenodd" d="M553.8,760.2l0.3,0.3l0.2,0.1c1.4,0.9,2.8,-0.9,2.1,-2l-0.1,-0.2l-0.4,-0.5l-0.6,-0.2l-0.4,0l-0.5,0.2l-0.3,0.2l-0.2,0.2l-0.1,0.2l-0.1,0.3l-0.1,0.3l0,0.5l0.1,0.3l0.1,0.3Z" class="g2_1369" />
<path d="M555,759.3l4.1,5.2l0.6,0.8l-0.9,0.4l-22.2,8.8l-2.5,1l1.6,-2.2l14.1,-19.2l0.7,-0.9l0.5,0.9l0,0.9l-14.1,19.2l-1.2,-0.9l0.4,-0.3l22.1,-8.8l0.6,1.5l-0.9,-0.3l-4.1,-5.1Z" class="g2_1369" />
<path d="M551,754.1l4,5.2l-1.2,1l-4,-5.2Z" class="g2_1369" />
<path fill-rule="evenodd" d="M554.5,759.7l4,5.3l-22.2,8.8l14.2,-19.3Z" class="g2_1369" />
<path d="M648.5,689l-1.8,-2.4l-92.6,71.5l1.9,2.4Z" class="g2_1369" />
<path d="M621.9,796l56.6,0l0,-20.6l-56.6,0l0,20.6Z" class="g1_1369" />
<path d="M621.9,775.8l57,0l0,-0.8l-57,0l0,0.8Z" class="g2_1369" />
<path d="M678.2,796.4l0.7,0l0,-21l-0.7,0l0,21Z" class="g2_1369" />
<path d="M621.5,796.4l57,0l0,-0.7l-57,0l0,0.7Z" class="g2_1369" />
<path d="M621.5,796l0.7,0l0,-21l-0.7,0l0,21Z" class="g2_1369" />
<path d="M508.4,796l56.7,0l0,-20.6l-56.7,0l0,20.6Z" class="g1_1369" />
<path d="M508.4,775.8l57.1,0l0,-0.8l-57.1,0l0,0.8Z" class="g2_1369" />
<path d="M564.8,796.4l0.7,0l0,-21l-0.7,0l0,21Z" class="g2_1369" />
<path d="M508,796.4l57.1,0l0,-0.7l-57.1,0l0,0.7Z" class="g2_1369" />
<path d="M508,796l0.8,0l0,-21l-0.8,0l0,21Z" class="g2_1369" />
<path d="M565.1,796l56.8,0l0,-20.6l-56.8,0l0,20.6Z" class="g1_1369" />
<path d="M565.1,775.8l57.1,0l0,-0.8l-57.1,0l0,0.8Z" class="g2_1369" />
<path d="M621.5,796.4l0.7,0l0,-21l-0.7,0l0,21Z" class="g2_1369" />
<path d="M564.8,796.4l57.1,0l0,-0.7l-57.1,0l0,0.7Z" class="g2_1369" />
<path d="M564.8,796l0.7,0l0,-21l-0.7,0l0,21Z" class="g2_1369" />
<path d="M395,796l56.6,0l0,-20.6l-56.6,0l0,20.6Z" class="g1_1369" />
<path d="M395,775.8l57,0l0,-0.8l-57,0l0,0.8Z" class="g2_1369" />
<path d="M451.3,796.4l0.7,0l0,-21l-0.7,0l0,21Z" class="g2_1369" />
<path d="M394.6,796.4l57,0l0,-0.7l-57,0l0,0.7Z" class="g2_1369" />
<path d="M394.6,796l0.8,0l0,-21l-0.8,0l0,21Z" class="g2_1369" />
<path d="M451.6,796l56.8,0l0,-20.6l-56.8,0l0,20.6Z" class="g1_1369" />
<path d="M451.6,775.8l57.2,0l0,-0.8l-57.2,0l0,0.8Z" class="g2_1369" />
<path d="M508,796.4l0.8,0l0,-21l-0.8,0l0,21Z" class="g2_1369" />
<path d="M451.3,796.4l57.1,0l0,-0.7l-57.1,0l0,0.7Z" class="g2_1369" />
<path d="M451.3,796l0.7,0l0,-21l-0.7,0l0,21Z" class="g2_1369" />
<path d="M281.5,796l56.7,0l0,-20.6l-56.7,0l0,20.6Z" class="g1_1369" />
<path d="M281.5,775.8l57.1,0l0,-0.8l-57.1,0l0,0.8Z" class="g2_1369" />
<path d="M337.9,796.4l0.7,0l0,-21l-0.7,0l0,21Z" class="g2_1369" />
<path d="M281.1,796.4l57.2,0l0,-0.7l-57.2,0l0,0.7Z" class="g2_1369" />
<path d="M281.1,796l0.8,0l0,-21l-0.8,0l0,21Z" class="g2_1369" />
<path d="M338.2,796l56.8,0l0,-20.6l-56.8,0l0,20.6Z" class="g1_1369" />
<path d="M338.2,775.8l57.2,0l0,-0.8l-57.2,0l0,0.8Z" class="g2_1369" />
<path d="M394.6,796.4l0.8,0l0,-21l-0.8,0l0,21Z" class="g2_1369" />
<path d="M337.9,796.4l57.1,0l0,-0.7l-57.1,0l0,0.7Z" class="g2_1369" />
<path d="M337.9,796l0.7,0l0,-21l-0.7,0l0,21Z" class="g2_1369" />
<path d="M224.8,796l56.7,0l0,-20.6l-56.7,0l0,20.6Z" class="g1_1369" />
<path d="M224.8,775.8l57.1,0l0,-0.8l-57.1,0l0,0.8Z" class="g2_1369" />
<path d="M281.1,796.4l0.8,0l0,-21l-0.8,0l0,21Z" class="g2_1369" />
<path d="M224.4,796.4l57.1,0l0,-0.7l-57.1,0l0,0.7Z" class="g2_1369" />
<path d="M224.4,796l0.7,0l0,-21l-0.7,0l0,21Z" class="g2_1369" />
<path fill-rule="evenodd" d="M449.1,766.2l0.1,0.3l0.1,0.3c1.2,1.1,2.8,0.1,2.7,-1.4l-0.1,-0.3l-0.2,-0.2l-0.1,-0.2l-0.2,-0.3l-0.6,-0.2l-0.6,0l-0.3,0.1c-0.5,0.1,-0.8,0.6,-0.9,1.1l0,0.6l0.1,0.2Z" class="g2_1369" />
<path d="M450.4,765.7l2.4,6.1l0.4,1l-1,0.1l-23.7,2.3l-2.7,0.2l2.1,-1.6l18.9,-14.4l0.8,-0.7l0.4,0.9l-0.2,1L428.9,775l-1,-1.2l0.5,-0.1l23.7,-2.3l0.1,1.5l-0.7,-0.5L449,766.2Z" class="g2_1369" />
<path d="M448,759.6l2.4,6.1l-1.4,0.5l-2.4,-6Z" class="g2_1369" />
<path fill-rule="evenodd" d="M449.7,766l2.5,6.1l-23.8,2.3l18.9,-14.5Z" class="g2_1369" />
<path d="M648.2,689.2l-1.1,-2.8L449.9,764.3l1.1,2.9Z" class="g2_1369" />
<path fill-rule="evenodd" d="M387.8,768.1l0.1,0.2l0.2,0.3c1.1,1.2,2.7,0.4,2.7,-1.2l-0.2,-0.5l-0.2,-0.3l-0.2,-0.2L390,766.2l-0.3,-0.1l-0.8,0l-0.4,0.1l-0.2,0.2l-0.2,0.3l-0.2,0.2l-0.1,0.5l0,0.4l0,0.3Z" class="g2_1369" />
<path d="M389.3,767.7l1.9,6.2l0.3,1l-1.1,0l-23.7,0.5l-2.8,0l2.3,-1.5l19.9,-13l0.8,-0.5l0.4,1l-0.4,0.8l-19.9,13l-0.8,-1.3l0.5,-0.1l23.8,-0.4l-0.1,1.5l-0.7,-0.5l-1.9,-6.2Z" class="g2_1369" />
<path d="M387.3,761.4l2,6.3l-1.5,0.5l-2.1,-6.4Z" class="g2_1369" />
<path fill-rule="evenodd" d="M388.6,767.9l1.9,6.2l-23.8,0.5l19.9,-13Z" class="g2_1369" />
<path d="M648.1,689.2l-0.9,-2.9L388.9,766.2l0.9,2.9Z" class="g2_1369" />
<path fill-rule="evenodd" d="M336.5,769.2l0.2,0.2l0.1,0.2c0.7,1.2,2.9,0.7,2.7,-1l0,-0.3l-0.2,-0.2l0,-0.3L339,767.6l-0.2,-0.2l-0.6,-0.2l-0.6,0c-0.4,0.1,-0.9,0.6,-1,1.1l-0.1,0.2l0,0.7Z" class="g2_1369" />
<path d="M338,768.7l1.7,6.4l0.2,1l-1,-0.1l-23.8,-0.4l-2.7,-0.1l2.3,-1.4l20.4,-12.2l1,-0.5l0.2,1l-0.3,0.8l-20.5,12.2l-0.8,-1.3l0.5,-0.1l23.8,0.6l-0.1,1.4l-0.7,-0.5l-1.8,-6.4Z" class="g2_1369" />
<path d="M336.3,762.4l1.7,6.3l-1.6,0.4l-1.6,-6.3Z" class="g2_1369" />
<path fill-rule="evenodd" d="M337.2,768.9l1.8,6.4l-23.8,-0.5l20.4,-12.2Z" class="g2_1369" />
<path d="M648,689.2l-0.7,-2.9l-309.7,81l0.7,2.9Z" class="g2_1369" />
<path fill-rule="evenodd" d="M274.9,770.1l0.2,0.5l0.3,0.2l0.2,0.2l0.2,0.2l0.3,0l0.3,0.1l0.3,-0.1l0.6,-0.2l0.2,-0.2l0.3,-0.5l0,-0.3l0.1,-0.3l-0.1,-0.3l0,-0.3l-0.1,-0.3l-0.2,-0.2l-0.3,-0.2l-0.8,-0.2l-0.4,0.1l-0.5,0.1l-0.2,0.3l-0.2,0.2l-0.3,0.8l0.1,0.4Z" class="g2_1369" />
<path d="M276.4,769.7l1.3,6.4l0.1,1l-0.9,0l-23.7,-1.5l-2.7,-0.1l2.3,-1.3l20.9,-11.3l0.9,-0.5l0.3,0.9l-0.4,0.8l-20.9,11.4l-0.8,-1.3l0.5,-0.1l23.7,1.5l-0.1,1.5l-0.7,-0.6l-1.4,-6.4Z" class="g2_1369" />
<path d="M274.9,763.3l1.5,6.4l-1.6,0.4l-1.5,-6.4Z" class="g2_1369" />
<path fill-rule="evenodd" d="M275.6,769.9l1.4,6.4l-23.7,-1.4l20.9,-11.4Z" class="g2_1369" />
<path d="M648,689.2l-0.6,-2.9l-371.3,82l0.6,2.9Z" class="g2_1369" />
<path fill-rule="evenodd" d="M499.6,1018.5l0.2,0.3l0.1,0.2c1.2,0.9,2.9,-0.1,2.5,-1.6l-0.1,-0.3l-0.2,-0.2c-0.9,-1.2,-2.8,-0.5,-2.7,1.1l0.2,0.5Z" class="g2_1369" />
<path d="M500.9,1017.8l3,5.8l0.4,1l-1,0.1l-23.3,4.7l-2.7,0.6l2,-1.9l17.4,-16.4l0.8,-0.6l0.4,0.8l-0.2,0.9l-17.4,16.4l-1,-1.1l0.4,-0.1l23.4,-4.7l0.2,1.4l-0.8,-0.3l-3,-5.9Z" class="g2_1369" />
<path d="M497.9,1011.9l3,5.9l-1.4,0.7l-2.9,-5.9Z" class="g2_1369" />
<path fill-rule="evenodd" d="M500.2,1018.1l3.1,5.9l-23.4,4.7l17.4,-16.4Z" class="g2_1369" />
<path d="M648.4,943.6L647,941l-146.7,75.5l1.4,2.7Z" class="g2_1369" />
<path d="M621.9,942.2l56.6,0l0,-20.6l-56.6,0l0,20.6Z" class="g1_1369" />
<path d="M621.9,922l57,0l0,-0.7l-57,0l0,0.7Z" class="g2_1369" />
<path d="M678.2,942.6l0.7,0l0,-21l-0.7,0l0,21Z" class="g2_1369" />
<path d="M621.5,942.6l57,0l0,-0.7l-57,0l0,0.7Z" class="g2_1369" />
<path d="M621.5,942.2l0.7,0l0,-20.9l-0.7,0l0,20.9Z" class="g2_1369" />
<path fill-rule="evenodd" d="M647.8,1005l0.4,-0.1l0.5,-0.1l0.4,-0.4l0.2,-0.3l0.1,-0.3l0,-0.6c-0.2,-0.6,-0.2,-0.9,-0.9,-1.1l-0.6,-0.2l-0.4,0.1c-1.4,0.2,-1.6,2.3,-0.2,2.9l0.5,0.1Z" class="g2_1369" />
<path d="M647.9,1003.5l6.5,0.1l1,0.1l-0.3,0.9l-6.7,22.8l-0.8,2.6l-0.7,-2.6l-6.3,-22.9l-0.3,-1l1,0l0.7,0.5l6.4,22.9l-1.5,0.5l0,-0.5l6.8,-22.8l1.4,0.5l-0.7,0.5l-6.5,-0.1Z" class="g2_1369" />
<path d="M641.3,1005l6.6,0l0,-1.5l-6.6,0l0,1.5Z" class="g2_1369" />
<path fill-rule="evenodd" d="M647.9,1004.2l6.5,0.1l-6.8,22.8l-6.3,-22.9Z" class="g2_1369" />
<path d="M650,942.2l-3,0l-0.6,61.3l3.1,0Z" class="g2_1369" />
<path fill-rule="evenodd" d="M604.5,1009l0.2,0.2l0.3,0l0.6,0l0.2,0l0.6,-0.4l0.2,-0.3l0.1,-0.3c0.2,-0.4,0,-0.9,-0.1,-1.3l-0.5,-0.5l-0.3,-0.1c-1.3,-0.6,-2.7,1.1,-1.8,2.3l0.2,0.2l0.3,0.2Z" class="g2_1369" />
<path d="M605.2,1007.7l5.5,3.6l0.8,0.6l-0.7,0.7l-18,15.6l-2,1.8l0.8,-2.6l7,-22.8l0.3,-1l0.8,0.5l0.4,0.9l-7,22.9l-1.5,-0.5l0.2,-0.4l18,-15.6l1,1.2l-0.9,0l-5.5,-3.5Z" class="g2_1369" />
<path d="M599.7,1004.1l5.5,3.6l-0.8,1.4l-5.5,-3.6Z" class="g2_1369" />
<path fill-rule="evenodd" d="M604.8,1008.3l5.5,3.6l-17.9,15.7l6.9,-22.8Z" class="g2_1369" />
<path d="M648.9,943.1l-2.6,-1.7L604,1006.9l2.6,1.6Z" class="g2_1369" />
<path fill-rule="evenodd" d="M553.8,1014.7l0.5,0.4l0.6,0.2l0.3,0l0.6,-0.2l0.2,-0.2l0.2,-0.1c0.3,-0.4,0.4,-0.9,0.4,-1.4l-0.2,-0.3l-0.1,-0.3l-0.3,-0.2c-1.2,-0.9,-2.6,0,-2.4,1.5l0.1,0.3l0.1,0.3Z" class="g2_1369" />
<path d="M555,1013.7l4.1,5.3l0.6,0.8l-0.9,0.4l-22.2,8.8l-2.5,1l1.6,-2.2l14.1,-19.1l0.7,-0.9l0.5,0.8l0,0.9l-14.1,19.2l-1.2,-0.9l0.4,-0.3l22.1,-8.8l0.6,1.5l-0.9,-0.3l-4.1,-5.1Z" class="g2_1369" />
<path d="M551,1008.6l4,5.1l-1.2,1l-4,-5.1Z" class="g2_1369" />
<path fill-rule="evenodd" d="M554.5,1014.2l4,5.2l-22.2,8.8l14.2,-19.1Z" class="g2_1369" />
<path d="M648.5,943.4l-1.8,-2.3l-92.6,71.5l1.9,2.3Z" class="g2_1369" />
<path d="M621.9,1050.5l56.6,0l0,-20.6l-56.6,0l0,20.6Z" class="g1_1369" />
<path d="M621.9,1030.2l57,0l0,-0.7l-57,0l0,0.7Z" class="g2_1369" />
<path d="M678.2,1050.9l0.7,0l0,-21l-0.7,0l0,21Z" class="g2_1369" />
<path d="M621.5,1050.9l57,0l0,-0.8l-57,0l0,0.8Z" class="g2_1369" />
<path d="M621.5,1050.5l0.7,0l0,-21l-0.7,0l0,21Z" class="g2_1369" />
<path d="M508.4,1050.5l56.7,0l0,-20.6l-56.7,0l0,20.6Z" class="g1_1369" />
<path d="M508.4,1030.2l57.1,0l0,-0.7l-57.1,0l0,0.7Z" class="g2_1369" />
<path d="M564.8,1050.9l0.7,0l0,-21l-0.7,0l0,21Z" class="g2_1369" />
<path d="M508,1050.9l57.1,0l0,-0.8l-57.1,0l0,0.8Z" class="g2_1369" />
<path d="M508,1050.5l0.8,0l0,-21l-0.8,0l0,21Z" class="g2_1369" />
<path d="M565.1,1050.5l56.8,0l0,-20.6l-56.8,0l0,20.6Z" class="g1_1369" />
<path d="M565.1,1030.2l57.1,0l0,-0.7l-57.1,0l0,0.7Z" class="g2_1369" />
<path d="M621.5,1050.9l0.7,0l0,-21l-0.7,0l0,21Z" class="g2_1369" />
<path d="M564.8,1050.9l57.1,0l0,-0.8l-57.1,0l0,0.8Z" class="g2_1369" />
<path d="M564.8,1050.5l0.7,0l0,-21l-0.7,0l0,21Z" class="g2_1369" />
<path d="M395,1050.5l56.6,0l0,-20.6l-56.6,0l0,20.6Z" class="g1_1369" />
<path d="M395,1030.2l57,0l0,-0.7l-57,0l0,0.7Z" class="g2_1369" />
<path d="M451.3,1050.9l0.7,0l0,-21l-0.7,0l0,21Z" class="g2_1369" />
<path d="M394.6,1050.9l57,0l0,-0.8l-57,0l0,0.8Z" class="g2_1369" />
<path d="M394.6,1050.5l0.8,0l0,-21l-0.8,0l0,21Z" class="g2_1369" />
<path d="M451.6,1050.5l56.8,0l0,-20.6l-56.8,0l0,20.6Z" class="g1_1369" />
<path d="M451.6,1030.2l57.2,0l0,-0.7l-57.2,0l0,0.7Z" class="g2_1369" />
<path d="M508,1050.9l0.8,0l0,-21l-0.8,0l0,21Z" class="g2_1369" />
<path d="M451.3,1050.9l57.1,0l0,-0.8l-57.1,0l0,0.8Z" class="g2_1369" />
<path d="M451.3,1050.5l0.7,0l0,-21l-0.7,0l0,21Z" class="g2_1369" />
<path d="M281.5,1050.5l56.7,0l0,-20.6l-56.7,0l0,20.6Z" class="g1_1369" />
<path d="M281.5,1030.2l57.1,0l0,-0.7l-57.1,0l0,0.7Z" class="g2_1369" />
<path d="M337.9,1050.9l0.7,0l0,-21l-0.7,0l0,21Z" class="g2_1369" />
<path d="M281.1,1050.9l57.2,0l0,-0.8l-57.2,0l0,0.8Z" class="g2_1369" />
<path d="M281.1,1050.5l0.8,0l0,-21l-0.8,0l0,21Z" class="g2_1369" />
<path d="M338.2,1050.5l56.8,0l0,-20.6l-56.8,0l0,20.6Z" class="g1_1369" />
<path d="M338.2,1030.2l57.2,0l0,-0.7l-57.2,0l0,0.7Z" class="g2_1369" />
<path d="M394.6,1050.9l0.8,0l0,-21l-0.8,0l0,21Z" class="g2_1369" />
<path d="M337.9,1050.9l57.1,0l0,-0.8l-57.1,0l0,0.8Z" class="g2_1369" />
<path d="M337.9,1050.5l0.7,0l0,-21l-0.7,0l0,21Z" class="g2_1369" />
<path d="M224.8,1050.5l56.7,0l0,-20.6l-56.7,0l0,20.6Z" class="g1_1369" />
<path d="M224.8,1030.2l57.1,0l0,-0.7l-57.1,0l0,0.7Z" class="g2_1369" />
<path d="M281.1,1050.9l0.8,0l0,-21l-0.8,0l0,21Z" class="g2_1369" />
<path d="M224.4,1050.9l57.1,0l0,-0.8l-57.1,0l0,0.8Z" class="g2_1369" />
<path d="M224.4,1050.5l0.7,0l0,-21l-0.7,0l0,21Z" class="g2_1369" />
</svg>