<?xml version="1.0" encoding="UTF-8" standalone="no"?>
<!DOCTYPE svg PUBLIC "-//W3C//DTD SVG 1.1//EN"
"http://www.w3.org/Graphics/SVG/1.1/DTD/svg11.dtd">
<svg viewBox="0 0 935 1210" version="1.1" xmlns="http://www.w3.org/2000/svg" xmlns:xlink="http://www.w3.org/1999/xlink">
<defs>
<style type="text/css"><![CDATA[
.g1_2170{
fill: #FFFFFF;
}
.g2_2170{
}
]]></style>
</defs>
<path d="M68.8,1149.3l783.7,0l0,-21.2l-783.7,0l0,21.2Z" class="g1_2170" />
<path d="M69.9,603.1l0.8,0l0,-479l-0.8,0l0,479Z" class="g2_2170" />
<path d="M444.8,603.9l0.7,0l0,-480.5l-0.7,0l0,480.5Z" class="g2_2170" />
<path d="M850.4,603.1l0.7,0l0,-479l-0.7,0l0,479Z" class="g2_2170" />
<path d="M69.9,124.1l781.2,0l0,-0.7l-781.2,0l0,0.7Z" class="g2_2170" />
<path d="M69.9,147l781.2,0l0,-0.7l-781.2,0l0,0.7Z" class="g2_2170" />
<path d="M69.9,169.9l781.2,0l0,-0.7l-781.2,0l0,0.7Z" class="g2_2170" />
<path d="M69.9,192.9l781.2,0l0,-0.8l-781.2,0l0,0.8Z" class="g2_2170" />
<path d="M69.9,231.1l781.2,0l0,-0.7l-781.2,0l0,0.7Z" class="g2_2170" />
<path d="M69.9,254l781.2,0l0,-0.7l-781.2,0l0,0.7Z" class="g2_2170" />
<path d="M69.9,276.9l781.2,0l0,-0.7l-781.2,0l0,0.7Z" class="g2_2170" />
<path d="M69.9,315.1l781.2,0l0,-0.8l-781.2,0l0,0.8Z" class="g2_2170" />
<path d="M69.9,402.2l781.2,0l0,-0.7l-781.2,0l0,0.7Z" class="g2_2170" />
<path d="M69.9,425.2l781.2,0l0,-0.8l-781.2,0l0,0.8Z" class="g2_2170" />
<path d="M69.9,512.2l781.2,0l0,-0.7l-781.2,0l0,0.7Z" class="g2_2170" />
<path d="M69.9,535.2l781.2,0l0,-0.8l-781.2,0l0,0.8Z" class="g2_2170" />
<path d="M69.9,558.1l781.2,0l0,-0.8l-781.2,0l0,0.8Z" class="g2_2170" />
<path d="M69.9,581l781.2,0l0,-0.8l-781.2,0l0,0.8Z" class="g2_2170" />
<path d="M69.9,603.9l781.2,0l0,-0.7l-781.2,0l0,0.7Z" class="g2_2170" />
<path d="M169.7,992.8l0.7,0l0,-243.8l-0.7,0l0,243.8Z" class="g2_2170" />
<path d="M440.1,993.5l0.7,0l0,-245.2l-0.7,0l0,245.2Z" class="g2_2170" />
<path d="M750.7,992.8l0.8,0l0,-243.8l-0.8,0l0,243.8Z" class="g2_2170" />
<path d="M169.7,749l581.8,0l0,-0.7l-581.8,0l0,0.7Z" class="g2_2170" />
<path d="M169.7,771.9l581.8,0l0,-0.7l-581.8,0l0,0.7Z" class="g2_2170" />
<path d="M169.7,810.2l581.8,0l0,-0.8l-581.8,0l0,0.8Z" class="g2_2170" />
<path d="M169.7,833.1l581.8,0l0,-0.8l-581.8,0l0,0.8Z" class="g2_2170" />
<path d="M169.7,856l581.8,0l0,-0.8l-581.8,0l0,0.8Z" class="g2_2170" />
<path d="M169.7,878.9l581.8,0l0,-0.7l-581.8,0l0,0.7Z" class="g2_2170" />
<path d="M169.7,901.8l581.8,0l0,-0.7l-581.8,0l0,0.7Z" class="g2_2170" />
<path d="M169.7,924.7l581.8,0l0,-0.7l-581.8,0l0,0.7Z" class="g2_2170" />
<path d="M169.7,947.7l581.8,0l0,-0.8l-581.8,0l0,0.8Z" class="g2_2170" />
<path d="M169.7,970.6l581.8,0l0,-0.8l-581.8,0l0,0.8Z" class="g2_2170" />
<path d="M169.7,993.5l581.8,0l0,-0.7l-581.8,0l0,0.7Z" class="g2_2170" />
</svg>