<?xml version="1.0" encoding="UTF-8" standalone="no"?>
<!DOCTYPE svg PUBLIC "-//W3C//DTD SVG 1.1//EN"
"http://www.w3.org/Graphics/SVG/1.1/DTD/svg11.dtd">
<svg viewBox="0 0 935 1210" version="1.1" xmlns="http://www.w3.org/2000/svg" xmlns:xlink="http://www.w3.org/1999/xlink">
<defs>
<style type="text/css"><![CDATA[
.g1_1770{
fill: #FFFFFF;
}
.g2_1770{
}
]]></style>
</defs>
<path d="M165,1149.3l687.5,0l0,-21.2l-687.5,0l0,21.2Z" class="g1_1770" />
<path d="M68.8,1149.3l82.5,0l0,-21.2l-82.5,0l0,21.2Z" class="g1_1770" />
<path d="M68.6,757.4l0.7,0l0,-631.7l-0.7,0l0,631.7Z" class="g2_1770" />
<path d="M329.8,758.2l0.8,0l0,-633.3l-0.8,0l0,633.3Z" class="g2_1770" />
<path d="M376.1,758.2l0.7,0l0,-633.3l-0.7,0l0,633.3Z" class="g2_1770" />
<path d="M448.3,758.2l0.8,0l0,-633.3l-0.8,0l0,633.3Z" class="g2_1770" />
<path d="M533.1,758.2l0.8,0l0,-633.3l-0.8,0l0,633.3Z" class="g2_1770" />
<path d="M848.6,757.4l0.7,0l0,-631.7l-0.7,0l0,631.7Z" class="g2_1770" />
<path d="M68.6,125.7l780.8,0l0,-0.8l-780.8,0l0,0.8Z" class="g2_1770" />
<path d="M68.6,176.1l780.8,0l0,-0.7l-780.8,0l0,0.7Z" class="g2_1770" />
<path d="M68.6,229.5l780.8,0l0,-0.7l-780.8,0l0,0.7Z" class="g2_1770" />
<path d="M68.6,299.8l780.8,0l0,-0.7l-780.8,0l0,0.7Z" class="g2_1770" />
<path d="M68.6,370.1l780.8,0l0,-0.8l-780.8,0l0,0.8Z" class="g2_1770" />
<path d="M68.6,423.6l780.8,0l0,-0.7l-780.8,0l0,0.7Z" class="g2_1770" />
<path d="M68.6,493.9l780.8,0l0,-0.7l-780.8,0l0,0.7Z" class="g2_1770" />
<path d="M68.6,564.1l780.8,0l0,-0.7l-780.8,0l0,0.7Z" class="g2_1770" />
<path d="M68.6,617.7l780.8,0l0,-0.8l-780.8,0l0,0.8Z" class="g2_1770" />
<path d="M68.6,687.9l780.8,0l0,-0.8l-780.8,0l0,0.8Z" class="g2_1770" />
<path d="M68.6,758.2l780.8,0l0,-0.8l-780.8,0l0,0.8Z" class="g2_1770" />
<path d="M71.8,861.3l0.7,0l0,-48.1l-0.7,0l0,48.1Z" class="g2_1770" />
<path d="M192.3,862.1l0.8,0l0,-49.7l-0.8,0l0,49.7Z" class="g2_1770" />
<path d="M347.5,862.1l0.7,0l0,-49.7l-0.7,0l0,49.7Z" class="g2_1770" />
<path d="M521.5,862.1l0.7,0l0,-49.7l-0.7,0l0,49.7Z" class="g2_1770" />
<path d="M686.3,862.1l0.7,0l0,-49.7l-0.7,0l0,49.7Z" class="g2_1770" />
<path d="M848.6,861.3l0.8,0l0,-48.1l-0.8,0l0,48.1Z" class="g2_1770" />
<path d="M71.8,813.2l777.6,0l0,-0.8l-777.6,0l0,0.8Z" class="g2_1770" />
<path d="M71.8,837.7l777.6,0l0,-0.8l-777.6,0l0,0.8Z" class="g2_1770" />
<path d="M71.8,862l777.6,0l0,-0.7l-777.6,0l0,0.7Z" class="g2_1770" />
</svg>