<?xml version="1.0" encoding="UTF-8" standalone="no"?>
<!DOCTYPE svg PUBLIC "-//W3C//DTD SVG 1.1//EN"
"http://www.w3.org/Graphics/SVG/1.1/DTD/svg11.dtd">
<svg viewBox="0 0 935 1210" version="1.1" xmlns="http://www.w3.org/2000/svg" xmlns:xlink="http://www.w3.org/1999/xlink">
<defs>
<style type="text/css"><![CDATA[
.g1_629{
fill: #FFFFFF;
}
.g2_629{
}
]]></style>
</defs>
<path d="M68.9,1149.3l686.3,0l0,-21.2l-686.3,0l0,21.2Z" class="g1_629" />
<path d="M771.3,1149.3l83.7,0l0,-21.2l-83.7,0l0,21.2Z" class="g1_629" />
<path d="M72.1,231.8l0.7,0l0,-106.1l-0.7,0l0,106.1Z" class="g2_629" />
<path d="M220,232.7l0.7,0l0,-107.8l-0.7,0l0,107.8Z" class="g2_629" />
<path d="M387.9,232.7l0.8,0l0,-107.8l-0.8,0l0,107.8Z" class="g2_629" />
<path d="M425.7,232.7l0.7,0l0,-107.8l-0.7,0l0,107.8Z" class="g2_629" />
<path d="M499.1,232.7l0.8,0l0,-107.8l-0.8,0l0,107.8Z" class="g2_629" />
<path d="M570.5,232.7l0.8,0l0,-107.8l-0.8,0l0,107.8Z" class="g2_629" />
<path d="M849.9,231.8l0.8,0l0,-106.1l-0.8,0l0,106.1Z" class="g2_629" />
<path d="M72.1,125.7l778.6,0l0,-0.8l-778.6,0l0,0.8Z" class="g2_629" />
<path d="M72.1,163.8l778.6,0l0,-0.7l-778.6,0l0,0.7Z" class="g2_629" />
<path d="M72.1,186.7l778.6,0l0,-0.7L72.1,186l0,0.7Z" class="g2_629" />
<path d="M72.1,209.6l778.6,0l0,-0.7l-778.6,0l0,0.7Z" class="g2_629" />
<path d="M72.1,232.6l778.6,0l0,-0.8l-778.6,0l0,0.8Z" class="g2_629" />
<path d="M70.5,335.8l0.7,0l0,-48.1l-0.7,0l0,48.1Z" class="g2_629" />
<path d="M143,336.5l0.7,0l0,-49.7l-0.7,0l0,49.7Z" class="g2_629" />
<path d="M307.6,336.5l0.8,0l0,-49.7l-0.8,0l0,49.7Z" class="g2_629" />
<path d="M487.6,336.5l0.7,0l0,-49.7l-0.7,0l0,49.7Z" class="g2_629" />
<path d="M662.1,336.5l0.7,0l0,-49.7l-0.7,0l0,49.7Z" class="g2_629" />
<path d="M851.5,335.8l0.7,0l0,-48.1l-0.7,0l0,48.1Z" class="g2_629" />
<path d="M70.5,287.6l781.8,0l0,-0.8l-781.8,0l0,0.8Z" class="g2_629" />
<path d="M70.5,312l781.8,0l0,-0.7l-781.8,0l0,0.7Z" class="g2_629" />
<path d="M70.5,336.5l781.8,0l0,-0.7l-781.8,0l0,0.7Z" class="g2_629" />
</svg>