<?xml version="1.0" encoding="UTF-8" standalone="no"?>
<!DOCTYPE svg PUBLIC "-//W3C//DTD SVG 1.1//EN"
"http://www.w3.org/Graphics/SVG/1.1/DTD/svg11.dtd">
<svg viewBox="0 0 935 1210" version="1.1" xmlns="http://www.w3.org/2000/svg" xmlns:xlink="http://www.w3.org/1999/xlink">
<defs>
<style type="text/css"><![CDATA[
.g1_83{
fill: #FFFFFF;
}
.g2_83{
}
]]></style>
</defs>
<path d="M68.9,1149.3l783.8,0l0,-21.2l-783.8,0l0,21.2Z" class="g1_83" />
<path d="M74.5,791.1l0.8,0l0,-615l-0.8,0l0,615Z" class="g2_83" />
<path d="M201.2,791.8l0.7,0l0,-616.4l-0.7,0l0,616.4Z" class="g2_83" />
<path d="M237.9,791.8l0.7,0l0,-616.4l-0.7,0l0,616.4Z" class="g2_83" />
<path d="M279.9,791.8l0.7,0l0,-616.4l-0.7,0l0,616.4Z" class="g2_83" />
<path d="M319.3,791.8l0.7,0l0,-616.4l-0.7,0l0,616.4Z" class="g2_83" />
<path d="M354.7,791.8l0.8,0l0,-616.4l-0.8,0l0,616.4Z" class="g2_83" />
<path d="M847.6,791.1l0.7,0l0,-615l-0.7,0l0,615Z" class="g2_83" />
<path d="M74.4,176.1l773.9,0l0,-0.7l-773.9,0l0,0.7Z" class="g2_83" />
<path d="M74.4,279.9l773.9,0l0,-0.7l-773.9,0l0,0.7Z" class="g2_83" />
<path d="M201.2,304.4l647.1,0l0,-0.7l-647.1,0l0,0.7Z" class="g2_83" />
<path d="M201.2,438.9l647.1,0l0,-0.7l-647.1,0l0,0.7Z" class="g2_83" />
<path d="M201.2,463.3l647.1,0l0,-0.8l-647.1,0l0,0.8Z" class="g2_83" />
<path d="M201.2,487.8l647.1,0l0,-0.8l-647.1,0l0,0.8Z" class="g2_83" />
<path d="M74.4,512.2l773.9,0l0,-0.7l-773.9,0l0,0.7Z" class="g2_83" />
<path d="M74.4,553.5l773.9,0l0,-0.8l-773.9,0l0,0.8Z" class="g2_83" />
<path d="M201.2,577.9l647.1,0l0,-0.8l-647.1,0l0,0.8Z" class="g2_83" />
<path d="M74.4,602.3l773.9,0l0,-0.7l-773.9,0l0,0.7Z" class="g2_83" />
<path d="M201.2,660.4l647.1,0l0,-0.8l-647.1,0l0,0.8Z" class="g2_83" />
<path d="M201.2,701.6l647.1,0l0,-0.7l-647.1,0l0,0.7Z" class="g2_83" />
<path d="M201.2,726.1l647.1,0l0,-0.7l-647.1,0l0,0.7Z" class="g2_83" />
<path d="M74.4,750.6l773.9,0l0,-0.8l-773.9,0l0,0.8Z" class="g2_83" />
<path d="M74.4,791.8l773.9,0l0,-0.7l-773.9,0l0,0.7Z" class="g2_83" />
</svg>