<?xml version="1.0" encoding="UTF-8" standalone="no"?>
<!DOCTYPE svg PUBLIC "-//W3C//DTD SVG 1.1//EN"
"http://www.w3.org/Graphics/SVG/1.1/DTD/svg11.dtd">
<svg viewBox="0 0 935 1210" version="1.1" xmlns="http://www.w3.org/2000/svg" xmlns:xlink="http://www.w3.org/1999/xlink">
<defs>
<style type="text/css"><![CDATA[
.g1_1476{
fill: #FFFFFF;
}
.g2_1476{
}
]]></style>
</defs>
<path d="M165,1149.3l687.5,0l0,-21.2l-687.5,0l0,21.2Z" class="g1_1476" />
<path d="M68.8,1149.3l82.5,0l0,-21.2l-82.5,0l0,21.2Z" class="g1_1476" />
<path d="M68.6,228.8l0.7,0l0,-103.1l-0.7,0l0,103.1Z" class="g2_1476" />
<path d="M286.6,229.5l0.8,0l0,-104.6l-0.8,0l0,104.6Z" class="g2_1476" />
<path d="M330.2,229.5l0.7,0l0,-104.6l-0.7,0l0,104.6Z" class="g2_1476" />
<path d="M404.7,229.5l0.7,0l0,-104.6l-0.7,0l0,104.6Z" class="g2_1476" />
<path d="M486.6,229.5l0.7,0l0,-104.6l-0.7,0l0,104.6Z" class="g2_1476" />
<path d="M852.7,228.8l0.7,0l0,-103.1l-0.7,0l0,103.1Z" class="g2_1476" />
<path d="M68.6,125.7l784.8,0l0,-0.8l-784.8,0l0,0.8Z" class="g2_1476" />
<path d="M68.6,176.1l784.8,0l0,-0.7l-784.8,0l0,0.7Z" class="g2_1476" />
<path d="M68.6,229.5l784.8,0l0,-0.7l-784.8,0l0,0.7Z" class="g2_1476" />
<path d="M69.6,332.7l0.7,0l0,-48.2l-0.7,0l0,48.2Z" class="g2_1476" />
<path d="M185.1,333.5l0.7,0l0,-49.7l-0.7,0l0,49.7Z" class="g2_1476" />
<path d="M352.7,333.5l0.8,0l0,-49.7l-0.8,0l0,49.7Z" class="g2_1476" />
<path d="M520.4,333.5l0.7,0l0,-49.7l-0.7,0l0,49.7Z" class="g2_1476" />
<path d="M684,333.5l0.8,0l0,-49.7l-0.8,0l0,49.7Z" class="g2_1476" />
<path d="M850.8,332.7l0.7,0l0,-48.2l-0.7,0l0,48.2Z" class="g2_1476" />
<path d="M69.6,284.5l782,0l0,-0.7l-782,0l0,0.7Z" class="g2_1476" />
<path d="M69.6,309l782,0l0,-0.7l-782,0l0,0.7Z" class="g2_1476" />
<path d="M69.6,333.4l782,0l0,-0.7l-782,0l0,0.7Z" class="g2_1476" />
</svg>