<?xml version="1.0" encoding="UTF-8" standalone="no"?>
<!DOCTYPE svg PUBLIC "-//W3C//DTD SVG 1.1//EN"
"http://www.w3.org/Graphics/SVG/1.1/DTD/svg11.dtd">
<svg viewBox="0 0 935 1210" version="1.1" xmlns="http://www.w3.org/2000/svg" xmlns:xlink="http://www.w3.org/1999/xlink">
<defs>
<style type="text/css"><![CDATA[
.g1_622{
fill: #FFFFFF;
}
.g2_622{
}
]]></style>
</defs>
<path d="M165,1149.3l687.5,0l0,-21.2l-687.5,0l0,21.2Z" class="g1_622" />
<path d="M68.8,1149.3l82.5,0l0,-21.2l-82.5,0l0,21.2Z" class="g1_622" />
<path d="M70.1,267l0.8,0l0,-141.3l-0.8,0l0,141.3Z" class="g2_622" />
<path d="M391.7,267.8l0.7,0l0,-142.9l-0.7,0l0,142.9Z" class="g2_622" />
<path d="M429.6,267.8l0.7,0l0,-142.9l-0.7,0l0,142.9Z" class="g2_622" />
<path d="M502.9,267.8l0.7,0l0,-142.9l-0.7,0l0,142.9Z" class="g2_622" />
<path d="M574.3,267.8l0.7,0l0,-142.9l-0.7,0l0,142.9Z" class="g2_622" />
<path d="M850.3,267l0.7,0l0,-141.3l-0.7,0l0,141.3Z" class="g2_622" />
<path d="M70.1,125.7l780.9,0l0,-0.8l-780.9,0l0,0.8Z" class="g2_622" />
<path d="M70.1,179.1l780.9,0l0,-0.7l-780.9,0l0,0.7Z" class="g2_622" />
<path d="M70.1,223.4l780.9,0l0,-0.7l-780.9,0l0,0.7Z" class="g2_622" />
<path d="M70.1,267.8l780.9,0l0,-0.8L70.1,267l0,0.8Z" class="g2_622" />
<path d="M69.1,370.9l0.8,0l0,-48.1l-0.8,0l0,48.1Z" class="g2_622" />
<path d="M142.3,371.6l0.7,0L143,322l-0.7,0l0,49.6Z" class="g2_622" />
<path d="M312.8,371.6l0.7,0l0,-49.6l-0.7,0l0,49.6Z" class="g2_622" />
<path d="M491.3,371.6l0.8,0l0,-49.6l-0.8,0l0,49.6Z" class="g2_622" />
<path d="M666.9,371.6l0.7,0l0,-49.6l-0.7,0l0,49.6Z" class="g2_622" />
<path d="M851.3,370.9l0.7,0l0,-48.1l-0.7,0l0,48.1Z" class="g2_622" />
<path d="M69.1,322.8l782.9,0l0,-0.8L69.1,322l0,0.8Z" class="g2_622" />
<path d="M69.1,347.1l782.9,0l0,-0.7l-782.9,0l0,0.7Z" class="g2_622" />
<path d="M69.1,371.6l782.9,0l0,-0.7l-782.9,0l0,0.7Z" class="g2_622" />
</svg>