<?xml version="1.0" encoding="UTF-8" standalone="no"?>
<!DOCTYPE svg PUBLIC "-//W3C//DTD SVG 1.1//EN"
"http://www.w3.org/Graphics/SVG/1.1/DTD/svg11.dtd">
<svg viewBox="0 0 935 1210" version="1.1" xmlns="http://www.w3.org/2000/svg" xmlns:xlink="http://www.w3.org/1999/xlink">
<defs>
<style type="text/css"><![CDATA[
.g1_1135{
fill: #FFFFFF;
}
.g2_1135{
}
]]></style>
</defs>
<path d="M68.9,1149.3l686.3,0l0,-21.2l-686.3,0l0,21.2Z" class="g1_1135" />
<path d="M771.3,1149.3l83.7,0l0,-21.2l-83.7,0l0,21.2Z" class="g1_1135" />
<path d="M68,997.3l0.8,0l0,-871.6l-0.8,0l0,871.6Z" class="g2_1135" />
<path d="M387.3,998.1l0.7,0l0,-873.2l-0.7,0l0,873.2Z" class="g2_1135" />
<path d="M425.2,998.1l0.7,0l0,-873.2l-0.7,0l0,873.2Z" class="g2_1135" />
<path d="M498.6,998.1l0.7,0l0,-873.2l-0.7,0l0,873.2Z" class="g2_1135" />
<path d="M578,998.1l0.7,0l0,-873.2l-0.7,0l0,873.2Z" class="g2_1135" />
<path d="M854,997.3l0.7,0l0,-871.6l-0.7,0l0,871.6Z" class="g2_1135" />
<path d="M68,125.7l786.7,0l0,-0.8L68,124.9l0,0.8Z" class="g2_1135" />
<path d="M68,179.1l786.7,0l0,-0.7L68,178.4l0,0.7Z" class="g2_1135" />
<path d="M68,235.7l786.7,0l0,-0.8L68,234.9l0,0.8Z" class="g2_1135" />
<path d="M68,292.1l786.7,0l0,-0.7L68,291.4l0,0.7Z" class="g2_1135" />
<path d="M68,348.7l786.7,0l0,-0.7L68,348l0,0.7Z" class="g2_1135" />
<path d="M68,405.3l786.7,0l0,-0.8L68,404.5l0,0.8Z" class="g2_1135" />
<path d="M68,461.8l786.7,0l0,-0.7L68,461.1l0,0.7Z" class="g2_1135" />
<path d="M68,518.3l786.7,0l0,-0.7L68,517.6l0,0.7Z" class="g2_1135" />
<path d="M68,574.8l786.7,0l0,-0.7L68,574.1l0,0.7Z" class="g2_1135" />
<path d="M68,631.4l786.7,0l0,-0.7L68,630.7l0,0.7Z" class="g2_1135" />
<path d="M68,704.7l786.7,0l0,-0.7L68,704l0,0.7Z" class="g2_1135" />
<path d="M68,778.1l786.7,0l0,-0.8L68,777.3l0,0.8Z" class="g2_1135" />
<path d="M68,851.4l786.7,0l0,-0.7L68,850.7l0,0.7Z" class="g2_1135" />
<path d="M68,924.7l786.7,0l0,-0.7L68,924l0,0.7Z" class="g2_1135" />
<path d="M68,998.1l786.7,0l0,-0.8L68,997.3l0,0.8Z" class="g2_1135" />
</svg>