<?xml version="1.0" encoding="UTF-8" standalone="no"?>
<!DOCTYPE svg PUBLIC "-//W3C//DTD SVG 1.1//EN"
"http://www.w3.org/Graphics/SVG/1.1/DTD/svg11.dtd">
<svg viewBox="0 0 935 1210" version="1.1" xmlns="http://www.w3.org/2000/svg" xmlns:xlink="http://www.w3.org/1999/xlink">
<defs>
<style type="text/css"><![CDATA[
.g1_1921{
fill: #FFFFFF;
}
.g2_1921{
}
]]></style>
</defs>
<path d="M68.9,1149.3l686.3,0l0,-21.2l-686.3,0l0,21.2Z" class="g1_1921" />
<path d="M771.3,1149.3l83.7,0l0,-21.2l-83.7,0l0,21.2Z" class="g1_1921" />
<path d="M69.2,222.7l0.7,0l0,-97l-0.7,0l0,97Z" class="g2_1921" />
<path d="M391.9,223.5l0.7,0l0,-98.6l-0.7,0l0,98.6Z" class="g2_1921" />
<path d="M429.7,223.5l0.8,0l0,-98.6l-0.8,0l0,98.6Z" class="g2_1921" />
<path d="M503.2,223.5l0.7,0l0,-98.6l-0.7,0l0,98.6Z" class="g2_1921" />
<path d="M574.5,223.5l0.7,0l0,-98.6l-0.7,0l0,98.6Z" class="g2_1921" />
<path d="M852.8,222.7l0.7,0l0,-97l-0.7,0l0,97Z" class="g2_1921" />
<path d="M69.2,125.7l784.4,0l0,-0.8l-784.4,0l0,0.8Z" class="g2_1921" />
<path d="M69.2,179.1l784.4,0l0,-0.7l-784.4,0l0,0.7Z" class="g2_1921" />
<path d="M69.2,223.4l784.4,0l0,-0.7l-784.4,0l0,0.7Z" class="g2_1921" />
<path d="M70.5,326.6l0.7,0l0,-48.1l-0.7,0l0,48.1Z" class="g2_1921" />
<path d="M144.6,327.3l0.7,0l0,-49.6l-0.7,0l0,49.6Z" class="g2_1921" />
<path d="M316.5,327.3l0.8,0l0,-49.6l-0.8,0l0,49.6Z" class="g2_1921" />
<path d="M491.6,327.3l0.7,0l0,-49.6l-0.7,0l0,49.6Z" class="g2_1921" />
<path d="M668.4,327.3l0.8,0l0,-49.6l-0.8,0l0,49.6Z" class="g2_1921" />
<path d="M851.5,326.6l0.7,0l0,-48.1l-0.7,0l0,48.1Z" class="g2_1921" />
<path d="M70.5,278.4l781.8,0l0,-0.7l-781.8,0l0,0.7Z" class="g2_1921" />
<path d="M70.5,302.9l781.8,0l0,-0.8l-781.8,0l0,0.8Z" class="g2_1921" />
<path d="M70.5,327.3l781.8,0l0,-0.7l-781.8,0l0,0.7Z" class="g2_1921" />
</svg>