<?xml version="1.0" encoding="UTF-8" standalone="no"?>
<!DOCTYPE svg PUBLIC "-//W3C//DTD SVG 1.1//EN"
"http://www.w3.org/Graphics/SVG/1.1/DTD/svg11.dtd">
<svg viewBox="0 0 935 1210" version="1.1" xmlns="http://www.w3.org/2000/svg" xmlns:xlink="http://www.w3.org/1999/xlink">
<defs>
<style type="text/css"><![CDATA[
.g1_560{
fill: #FFFFFF;
}
.g2_560{
}
]]></style>
</defs>
<path d="M165,1149.3l687.5,0l0,-21.2l-687.5,0l0,21.2Z" class="g1_560" />
<path d="M68.8,1149.3l82.5,0l0,-21.2l-82.5,0l0,21.2Z" class="g1_560" />
<path d="M67.4,548.1l0.7,0l0,-424l-0.7,0l0,424Z" class="g2_560" />
<path d="M239.8,548.9l0.7,0l0,-425.5l-0.7,0l0,425.5Z" class="g2_560" />
<path d="M285.1,548.9l0.7,0l0,-425.5l-0.7,0l0,425.5Z" class="g2_560" />
<path d="M353.2,548.9l0.7,0l0,-425.5l-0.7,0l0,425.5Z" class="g2_560" />
<path d="M414.7,548.9l0.7,0l0,-425.5l-0.7,0l0,425.5Z" class="g2_560" />
<path d="M502.2,548.9l0.8,0l0,-425.5l-0.8,0l0,425.5Z" class="g2_560" />
<path d="M588.9,548.9l0.7,0l0,-425.5l-0.7,0l0,425.5Z" class="g2_560" />
<path d="M676.2,548.9l0.8,0l0,-425.5l-0.8,0l0,425.5Z" class="g2_560" />
<path d="M764.9,548.9l0.7,0l0,-425.5l-0.7,0l0,425.5Z" class="g2_560" />
<path d="M853,548.1l0.8,0l0,-424l-0.8,0l0,424Z" class="g2_560" />
<path d="M67.4,124.1l786.4,0l0,-0.7l-786.4,0l0,0.7Z" class="g2_560" />
<path d="M67.4,148.6l786.4,0l0,-0.7l-786.4,0l0,0.7Z" class="g2_560" />
<path d="M67.4,173l786.4,0l0,-0.8l-786.4,0l0,0.8Z" class="g2_560" />
<path d="M67.4,197.4l786.4,0l0,-0.7l-786.4,0l0,0.7Z" class="g2_560" />
<path d="M67.4,235.7l786.4,0l0,-0.8l-786.4,0l0,0.8Z" class="g2_560" />
<path d="M67.4,260.1l786.4,0l0,-0.8l-786.4,0l0,0.8Z" class="g2_560" />
<path d="M67.4,298.3l786.4,0l0,-0.7l-786.4,0l0,0.7Z" class="g2_560" />
<path d="M67.4,322.8l786.4,0l0,-0.8L67.4,322l0,0.8Z" class="g2_560" />
<path d="M67.4,347.1l786.4,0l0,-0.7l-786.4,0l0,0.7Z" class="g2_560" />
<path d="M67.4,385.4l786.4,0l0,-0.8l-786.4,0l0,0.8Z" class="g2_560" />
<path d="M67.4,423.6l786.4,0l0,-0.7l-786.4,0l0,0.7Z" class="g2_560" />
<path d="M67.4,461.8l786.4,0l0,-0.7l-786.4,0l0,0.7Z" class="g2_560" />
<path d="M67.4,499.9l786.4,0l0,-0.7l-786.4,0l0,0.7Z" class="g2_560" />
<path d="M67.4,524.4l786.4,0l0,-0.7l-786.4,0l0,0.7Z" class="g2_560" />
<path d="M67.4,548.9l786.4,0l0,-0.7l-786.4,0l0,0.7Z" class="g2_560" />
</svg>