<?xml version="1.0" encoding="UTF-8" standalone="no"?>
<!DOCTYPE svg PUBLIC "-//W3C//DTD SVG 1.1//EN"
"http://www.w3.org/Graphics/SVG/1.1/DTD/svg11.dtd">
<svg viewBox="0 0 935 1210" version="1.1" xmlns="http://www.w3.org/2000/svg" xmlns:xlink="http://www.w3.org/1999/xlink">
<defs>
<style type="text/css"><![CDATA[
.g1_1478{
fill: #FFFFFF;
}
.g2_1478{
}
.g3_1478{
fill: none;
stroke: #000000;
stroke-width: 1.0740278;
stroke-linecap: round;
stroke-linejoin: round;
}
.g4_1478{
fill: #FACCA7;
}
.g5_1478{
fill: #FFFFCC;
}
.g6_1478{
fill: none;
stroke: #FF0000;
stroke-width: 1.0740278;
stroke-linecap: round;
stroke-linejoin: round;
}
]]></style>
</defs>
<path d="M165,1149.3l687.5,0l0,-21.2l-687.5,0l0,21.2Z" class="g1_1478" />
<path d="M68.8,1149.3l82.5,0l0,-21.2l-82.5,0l0,21.2Z" class="g1_1478" />
<path d="M157.7,671.4l0.7,0l0,-299.8l-0.7,0l0,299.8Z" class="g2_1478" />
<path d="M762.8,671.4l0.7,0l0,-299.8l-0.7,0l0,299.8Z" class="g2_1478" />
<path d="M157.7,371.6l605.8,0l0,-0.7l-605.8,0l0,0.7Z" class="g2_1478" />
<path d="M157.7,672.2l605.8,0l0,-0.7l-605.8,0l0,0.7Z" class="g2_1478" />
<path d="M378.4,451.5l123.7,0l0,-13.8" class="g3_1478" />
<path fill-rule="evenodd" d="M496.4,438.8L502.1,424l4.6,14.8l-10.3,0Z" class="g2_1478" />
<path d="M378.4,479l150.1,0l0,-41.3" class="g3_1478" />
<path fill-rule="evenodd" d="M523.9,438.8L528.5,424l5.7,14.8l-10.3,0Z" class="g2_1478" />
<path d="M378.4,506.5l177.6,0l0,-68.8" class="g3_1478" />
<path fill-rule="evenodd" d="M551.4,438.8L556,424l5.7,14.8l-10.3,0Z" class="g2_1478" />
<path d="M378.4,534l205.1,0l0,-96.3" class="g3_1478" />
<path fill-rule="evenodd" d="M578.9,438.8L583.5,424l5.7,14.8l-10.3,0Z" class="g2_1478" />
<path d="M378.4,561.5l232.6,0l0,-123.8" class="g3_1478" />
<path fill-rule="evenodd" d="M606.4,438.8L611,424l5.7,14.8l-10.3,0Z" class="g2_1478" />
<path d="M378.4,589l260.1,0l0,-151.3" class="g3_1478" />
<path fill-rule="evenodd" d="M633.9,438.8L638.5,424l4.5,14.8l-9.1,0Z" class="g2_1478" />
<path d="M378.4,615.3l287.6,0l0,-177.6" class="g3_1478" />
<path fill-rule="evenodd" d="M661.4,438.8L666,424l4.5,14.8l-9.1,0Z" class="g2_1478" />
<path d="M378.4,642.8l315.1,0l0,-205.1" class="g3_1478" />
<path fill-rule="evenodd" d="M688.9,438.8L693.5,424l4.5,14.8l-9.1,0Z" class="g2_1478" />
<path d="M488.4,424l27.5,0l0,-27.5l-27.5,0l0,27.5Z" class="g4_1478" />
<path d="M488.4,424l27.5,0l0,-27.5l-27.5,0l0,27.5Z" class="g3_1478" />
<path d="M515.9,424l26.3,0l0,-27.5l-26.3,0l0,27.5Z" class="g4_1478" />
<path d="M515.9,424l26.3,0l0,-27.5l-26.3,0l0,27.5Z" class="g3_1478" />
<path d="M542.2,424l27.5,0l0,-27.5l-27.5,0l0,27.5Z" class="g4_1478" />
<path d="M542.2,424l27.5,0l0,-27.5l-27.5,0l0,27.5Z" class="g3_1478" />
<path d="M569.7,424l27.5,0l0,-27.5l-27.5,0l0,27.5Z" class="g4_1478" />
<path d="M569.7,424l27.5,0l0,-27.5l-27.5,0l0,27.5Z" class="g3_1478" />
<path d="M597.2,424l27.5,0l0,-27.5l-27.5,0l0,27.5Z" class="g4_1478" />
<path d="M597.2,424l27.5,0l0,-27.5l-27.5,0l0,27.5Z" class="g3_1478" />
<path d="M624.7,424l27.5,0l0,-27.5l-27.5,0l0,27.5Z" class="g4_1478" />
<path d="M624.7,424l27.5,0l0,-27.5l-27.5,0l0,27.5Z" class="g3_1478" />
<path d="M652.2,424l27.5,0l0,-27.5l-27.5,0l0,27.5Z" class="g4_1478" />
<path d="M652.2,424l27.5,0l0,-27.5l-27.5,0l0,27.5Z" class="g3_1478" />
<path d="M679.7,424l27.5,0l0,-27.5l-27.5,0l0,27.5Z" class="g4_1478" />
<path d="M679.7,424l27.5,0l0,-27.5l-27.5,0l0,27.5Z" class="g3_1478" />
<path d="M213.4,465.2l165,0l0,-27.5l-165,0l0,27.5Z" class="g5_1478" />
<path d="M213.4,465.2l165,0l0,-27.5l-165,0l0,27.5Z" class="g6_1478" />
<path d="M213.4,520.2l165,0l0,-27.5l-165,0l0,27.5Z" class="g5_1478" />
<path d="M213.4,520.2l165,0l0,-27.5l-165,0l0,27.5Z" class="g6_1478" />
<path d="M213.4,547.7l165,0l0,-27.5l-165,0l0,27.5Z" class="g5_1478" />
<path d="M213.4,547.7l165,0l0,-27.5l-165,0l0,27.5Z" class="g6_1478" />
<path d="M213.4,492.7l165,0l0,-27.5l-165,0l0,27.5Z" class="g5_1478" />
<path d="M213.4,492.7l165,0l0,-27.5l-165,0l0,27.5Z" class="g6_1478" />
<path d="M213.4,574l165,0l0,-26.3l-165,0l0,26.3Z" class="g5_1478" />
<path d="M213.4,574l165,0l0,-26.3l-165,0l0,26.3Z" class="g6_1478" />
<path d="M213.4,601.5l165,0l0,-27.5l-165,0l0,27.5Z" class="g5_1478" />
<path d="M213.4,601.5l165,0l0,-27.5l-165,0l0,27.5Z" class="g6_1478" />
<path d="M213.4,629l165,0l0,-27.5l-165,0l0,27.5Z" class="g5_1478" />
<path d="M213.4,629l165,0l0,-27.5l-165,0l0,27.5Z" class="g6_1478" />
<path d="M213.4,656.5l165,0l0,-27.5l-165,0l0,27.5Z" class="g5_1478" />
<path d="M213.4,656.5l165,0l0,-27.5l-165,0l0,27.5Z" class="g6_1478" />
</svg>