<?xml version="1.0" encoding="UTF-8" standalone="no"?>
<!DOCTYPE svg PUBLIC "-//W3C//DTD SVG 1.1//EN"
"http://www.w3.org/Graphics/SVG/1.1/DTD/svg11.dtd">
<svg viewBox="0 0 935 1210" version="1.1" xmlns="http://www.w3.org/2000/svg" xmlns:xlink="http://www.w3.org/1999/xlink">
<defs>
<style type="text/css"><![CDATA[
.g1_266{
fill: #FFFFFF;
}
.g2_266{
}
]]></style>
</defs>
<path d="M165,1149.3l687.5,0l0,-21.2l-687.5,0l0,21.2Z" class="g1_266" />
<path d="M68.8,1149.3l82.5,0l0,-21.2l-82.5,0l0,21.2Z" class="g1_266" />
<path d="M69.8,930l0.7,0l0,-805.9l-0.7,0l0,805.9Z" class="g2_266" />
<path d="M469.3,930.9l0.8,0l0,-807.5l-0.8,0l0,807.5Z" class="g2_266" />
<path d="M850.7,930l0.7,0l0,-805.9l-0.7,0l0,805.9Z" class="g2_266" />
<path d="M69.8,124.1l781.6,0l0,-0.7l-781.6,0l0,0.7Z" class="g2_266" />
<path d="M69.8,148.6l781.6,0l0,-0.7l-781.6,0l0,0.7Z" class="g2_266" />
<path d="M69.8,173l781.6,0l0,-0.8l-781.6,0l0,0.8Z" class="g2_266" />
<path d="M69.8,197.4l781.6,0l0,-0.7l-781.6,0l0,0.7Z" class="g2_266" />
<path d="M69.8,221.9l781.6,0l0,-0.7l-781.6,0l0,0.7Z" class="g2_266" />
<path d="M69.8,246.3l781.6,0l0,-0.7l-781.6,0l0,0.7Z" class="g2_266" />
<path d="M69.8,270.8l781.6,0l0,-0.7l-781.6,0l0,0.7Z" class="g2_266" />
<path d="M69.8,295.3l781.6,0l0,-0.8l-781.6,0l0,0.8Z" class="g2_266" />
<path d="M69.8,319.6l781.6,0l0,-0.7l-781.6,0l0,0.7Z" class="g2_266" />
<path d="M69.8,346l781.6,0l0,-4.5l-781.6,0l0,4.5Z" class="g2_266" />
<path d="M69.8,368.6l781.6,0l0,-0.7l-781.6,0l0,0.7Z" class="g2_266" />
<path d="M69.8,393l781.6,0l0,-0.8l-781.6,0l0,0.8Z" class="g2_266" />
<path d="M69.8,417.4l781.6,0l0,-0.7l-781.6,0l0,0.7Z" class="g2_266" />
<path d="M69.8,441.9l781.6,0l0,-0.7l-781.6,0l0,0.7Z" class="g2_266" />
<path d="M69.8,466.4l781.6,0l0,-0.7l-781.6,0l0,0.7Z" class="g2_266" />
<path d="M69.8,490.8l781.6,0l0,-0.8L69.8,490l0,0.8Z" class="g2_266" />
<path d="M69.8,515.3l781.6,0l0,-0.8l-781.6,0l0,0.8Z" class="g2_266" />
<path d="M69.8,541.7l781.6,0l0,-4.6l-781.6,0l0,4.6Z" class="g2_266" />
<path d="M69.8,564.1l781.6,0l0,-0.7l-781.6,0l0,0.7Z" class="g2_266" />
<path d="M69.8,588.6l781.6,0l0,-0.7l-781.6,0l0,0.7Z" class="g2_266" />
<path d="M69.8,613.1l781.6,0l0,-0.8l-781.6,0l0,0.8Z" class="g2_266" />
<path d="M69.8,637.4l781.6,0l0,-0.7l-781.6,0l0,0.7Z" class="g2_266" />
<path d="M69.8,661.9l781.6,0l0,-0.7l-781.6,0l0,0.7Z" class="g2_266" />
<path d="M69.8,686.4l781.6,0l0,-0.7l-781.6,0l0,0.7Z" class="g2_266" />
<path d="M69.8,710.8l781.6,0l0,-0.8L69.8,710l0,0.8Z" class="g2_266" />
<path d="M69.8,737.2l781.6,0l0,-4.6l-781.6,0l0,4.6Z" class="g2_266" />
<path d="M69.8,759.7l781.6,0l0,-0.7L69.8,759l0,0.7Z" class="g2_266" />
<path d="M69.8,784.1l781.6,0l0,-0.7l-781.6,0l0,0.7Z" class="g2_266" />
<path d="M69.8,808.6l781.6,0l0,-0.7l-781.6,0l0,0.7Z" class="g2_266" />
<path d="M69.8,833.1l781.6,0l0,-0.8l-781.6,0l0,0.8Z" class="g2_266" />
<path d="M69.8,857.5l781.6,0l0,-0.8l-781.6,0l0,0.8Z" class="g2_266" />
<path d="M69.8,881.9l781.6,0l0,-0.7l-781.6,0l0,0.7Z" class="g2_266" />
<path d="M69.8,906.4l781.6,0l0,-0.7l-781.6,0l0,0.7Z" class="g2_266" />
<path d="M69.8,930.8l781.6,0l0,-0.7l-781.6,0l0,0.7Z" class="g2_266" />
</svg>