<?xml version="1.0" encoding="UTF-8" standalone="no"?>
<!DOCTYPE svg PUBLIC "-//W3C//DTD SVG 1.1//EN"
"http://www.w3.org/Graphics/SVG/1.1/DTD/svg11.dtd">
<svg viewBox="0 0 935 1210" version="1.1" xmlns="http://www.w3.org/2000/svg" xmlns:xlink="http://www.w3.org/1999/xlink">
<defs>
<style type="text/css"><![CDATA[
.g1_1269{
fill: #FFFFFF;
}
.g2_1269{
}
]]></style>
</defs>
<path d="M68.9,1149.3l686.3,0l0,-21.2l-686.3,0l0,21.2Z" class="g1_1269" />
<path d="M771.3,1149.3l83.7,0l0,-21.2l-83.7,0l0,21.2Z" class="g1_1269" />
<path d="M69.9,597l0.8,0l0,-471.3l-0.8,0l0,471.3Z" class="g2_1269" />
<path d="M316.3,597.8l0.7,0l0,-472.9l-0.7,0l0,472.9Z" class="g2_1269" />
<path d="M369,597.8l0.7,0l0,-472.9l-0.7,0l0,472.9Z" class="g2_1269" />
<path d="M443.5,597.8l0.7,0l0,-472.9l-0.7,0l0,472.9Z" class="g2_1269" />
<path d="M529.4,597.8l0.7,0l0,-472.9l-0.7,0l0,472.9Z" class="g2_1269" />
<path d="M851.1,597l0.8,0l0,-471.3l-0.8,0l0,471.3Z" class="g2_1269" />
<path d="M69.9,125.7l782,0l0,-0.8l-782,0l0,0.8Z" class="g2_1269" />
<path d="M69.9,176.1l782,0l0,-0.7l-782,0l0,0.7Z" class="g2_1269" />
<path d="M69.9,246.3l782,0l0,-0.7l-782,0l0,0.7Z" class="g2_1269" />
<path d="M69.9,316.6l782,0l0,-0.7l-782,0l0,0.7Z" class="g2_1269" />
<path d="M69.9,386.9l782,0l0,-0.7l-782,0l0,0.7Z" class="g2_1269" />
<path d="M69.9,457.2l782,0l0,-0.7l-782,0l0,0.7Z" class="g2_1269" />
<path d="M69.9,527.4l782,0l0,-0.7l-782,0l0,0.7Z" class="g2_1269" />
<path d="M69.9,597.8l782,0l0,-0.8l-782,0l0,0.8Z" class="g2_1269" />
<path d="M72.5,749.7l0.7,0l0,-96.9l-0.7,0l0,96.9Z" class="g2_1269" />
<path d="M195.2,750.6l0.7,0l0,-98.6l-0.7,0l0,98.6Z" class="g2_1269" />
<path d="M356.3,750.6l0.7,0L357,652l-0.7,0l0,98.6Z" class="g2_1269" />
<path d="M525.1,750.6l0.7,0l0,-98.6l-0.7,0l0,98.6Z" class="g2_1269" />
<path d="M695,750.6l0.7,0l0,-98.6l-0.7,0l0,98.6Z" class="g2_1269" />
<path d="M849.5,749.7l0.7,0l0,-96.9l-0.7,0l0,96.9Z" class="g2_1269" />
<path d="M72.5,652.8l777.7,0l0,-0.8L72.5,652l0,0.8Z" class="g2_1269" />
<path d="M72.5,677.2l777.7,0l0,-0.7l-777.7,0l0,0.7Z" class="g2_1269" />
<path d="M72.5,701.6l777.7,0l0,-0.7l-777.7,0l0,0.7Z" class="g2_1269" />
<path d="M72.5,726.1l777.7,0l0,-0.7l-777.7,0l0,0.7Z" class="g2_1269" />
<path d="M72.5,750.6l777.7,0l0,-0.8l-777.7,0l0,0.8Z" class="g2_1269" />
</svg>