<?xml version="1.0" encoding="UTF-8" standalone="no"?>
<!DOCTYPE svg PUBLIC "-//W3C//DTD SVG 1.1//EN"
"http://www.w3.org/Graphics/SVG/1.1/DTD/svg11.dtd">
<svg viewBox="0 0 935 1210" version="1.1" xmlns="http://www.w3.org/2000/svg" xmlns:xlink="http://www.w3.org/1999/xlink">
<defs>
<style type="text/css"><![CDATA[
.g1_298{
fill: #FFFFFF;
}
.g2_298{
}
]]></style>
</defs>
<path d="M165,1149.3l687.5,0l0,-21.2l-687.5,0l0,21.2Z" class="g1_298" />
<path d="M68.8,1149.3l82.5,0l0,-21.2l-82.5,0l0,21.2Z" class="g1_298" />
<path d="M70.8,1084.4l0.7,0l0,-960.5l-0.7,0l0,960.5Z" class="g2_298" />
<path d="M158,165.4l0.4,0l0,-41.8l-0.4,0l0,41.8Z" class="g2_298" />
<path d="M157.9,357.9l0.7,0l0,-193.3l-0.7,0l0,193.3Z" class="g2_298" />
<path d="M157.9,427.8l0.7,0l0,-46l-0.7,0l0,46Z" class="g2_298" />
<path d="M158,778.1l0.4,0l0,-350.3l-0.4,0l0,350.3Z" class="g2_298" />
<path d="M158,1085.2l0.4,0l0,-283.5l-0.4,0l0,283.5Z" class="g2_298" />
<path d="M849.7,1084.4l0.7,0l0,-960.5l-0.7,0l0,960.5Z" class="g2_298" />
<path d="M70.8,123.9l779.6,0l0,-0.3l-779.6,0l0,0.3Z" class="g2_298" />
<path d="M70.8,165.4l779.6,0l0,-0.8l-779.6,0l0,0.8Z" class="g2_298" />
<path d="M70.8,357.9l779.6,0l0,-0.8l-779.6,0l0,0.8Z" class="g2_298" />
<path d="M70.8,382.2l779.6,0l0,-0.4l-779.6,0l0,0.4Z" class="g2_298" />
<path d="M70.8,778.1l779.6,0l0,-0.8l-779.6,0l0,0.8Z" class="g2_298" />
<path d="M70.8,802.4l779.6,0l0,-0.7l-779.6,0l0,0.7Z" class="g2_298" />
<path d="M70.8,1085.2l779.6,0l0,-0.8l-779.6,0l0,0.8Z" class="g2_298" />
</svg>