<?xml version="1.0" encoding="UTF-8" standalone="no"?>
<!DOCTYPE svg PUBLIC "-//W3C//DTD SVG 1.1//EN"
"http://www.w3.org/Graphics/SVG/1.1/DTD/svg11.dtd">
<svg viewBox="0 0 935 1210" version="1.1" xmlns="http://www.w3.org/2000/svg" xmlns:xlink="http://www.w3.org/1999/xlink">
<defs>
<style type="text/css"><![CDATA[
.g1_2041{
fill: #FFFFFF;
}
.g2_2041{
fill: #E6E6E6;
}
.g3_2041{
}
]]></style>
</defs>
<path d="M68.9,1149l783.8,0l0,-21.4l-783.8,0l0,21.4Z" class="g1_2041" />
<path d="M156.6,166.6l47.4,0l0,-42.8l-47.4,0l0,42.8Z" class="g2_2041" />
<path d="M156.6,330l47.4,0l0,-163.4l-47.4,0l0,163.4Z" class="g2_2041" />
<path d="M156.6,277.3l47.4,0l0,-46.6l-47.4,0l0,46.6Z" class="g2_2041" />
<path d="M156.6,312.4l47.4,0l0,-35.1l-47.4,0l0,35.1Z" class="g2_2041" />
<path d="M69.2,311.3l2.3,0l0,-186.4l-2.3,0l0,186.4Z" class="g3_2041" />
<path d="M156.2,313.6l0.7,0l0,-190.9l-0.7,0l0,190.9Z" class="g3_2041" />
<path d="M202.9,313.6l2.3,0l0,-190.9l-2.3,0l0,190.9Z" class="g3_2041" />
<path d="M253.6,313.6l0.8,0l0,-190.9l-0.8,0l0,190.9Z" class="g3_2041" />
<path d="M287.6,313.6l2.3,0l0,-190.9l-2.3,0l0,190.9Z" class="g3_2041" />
<path d="M358.1,167.7l2.3,0l0,-23.7l-2.3,0l0,23.7Z" class="g3_2041" />
<path d="M358.9,313.6l0.7,0l0,-148.2l-0.7,0l0,148.2Z" class="g3_2041" />
<path d="M430.9,167.7l2.3,0l0,-23.7l-2.3,0l0,23.7Z" class="g3_2041" />
<path d="M431.7,313.6l0.7,0l0,-148.2l-0.7,0l0,148.2Z" class="g3_2041" />
<path d="M498.4,167.7l2.3,0l0,-23.7l-2.3,0l0,23.7Z" class="g3_2041" />
<path d="M499.1,313.6l0.8,0l0,-148.2l-0.8,0l0,148.2Z" class="g3_2041" />
<path d="M579.1,167.7l2.2,0l0,-23.7l-2.2,0l0,23.7Z" class="g3_2041" />
<path d="M579.8,313.6l0.7,0l0,-148.2l-0.7,0l0,148.2Z" class="g3_2041" />
<path d="M651.1,167.7l2.3,0l0,-23.7l-2.3,0l0,23.7Z" class="g3_2041" />
<path d="M651.8,313.6l0.8,0l0,-148.2l-0.8,0l0,148.2Z" class="g3_2041" />
<path d="M704.2,167.7l2.3,0l0,-23.7l-2.3,0l0,23.7Z" class="g3_2041" />
<path d="M704.9,313.6l0.8,0l0,-148.2l-0.8,0l0,148.2Z" class="g3_2041" />
<path d="M774.7,167.7l2.3,0L777,144l-2.3,0l0,23.7Z" class="g3_2041" />
<path d="M775.4,313.6l0.7,0l0,-148.2l-0.7,0l0,148.2Z" class="g3_2041" />
<path d="M854.5,311.3l2.3,0l0,-186.4l-2.3,0l0,186.4Z" class="g3_2041" />
<path d="M69.1,124.9l787.7,0l0,-2.2l-787.7,0l0,2.2Z" class="g3_2041" />
<path d="M287.6,146.3l569.2,0l0,-2.3l-569.2,0l0,2.3Z" class="g3_2041" />
<path d="M69.1,167.7l787.7,0l0,-2.2l-787.7,0l0,2.2Z" class="g3_2041" />
<path d="M202.9,184.2l653.9,0l0,-0.3l-653.9,0l0,0.3Z" class="g3_2041" />
<path d="M253.6,201.8l603.2,0l0,-0.3l-603.2,0l0,0.3Z" class="g3_2041" />
<path d="M69.1,231.1l787.7,0l0,-0.7l-787.7,0l0,0.7Z" class="g3_2041" />
<path d="M202.9,260.1l653.9,0l0,-0.8l-653.9,0l0,0.8Z" class="g3_2041" />
<path d="M69.1,278.5l787.7,0l0,-2.3l-787.7,0l0,2.3Z" class="g3_2041" />
<path d="M202.9,295.3l156.8,0l0,-0.8l-156.8,0l0,0.8Z" class="g3_2041" />
<path d="M579.8,295.3l277,0l0,-0.8l-277,0l0,0.8Z" class="g3_2041" />
<path d="M69.1,313.6l787.7,0l0,-2.3l-787.7,0l0,2.3Z" class="g3_2041" />
</svg>