<?xml version="1.0" encoding="UTF-8" standalone="no"?>
<!DOCTYPE svg PUBLIC "-//W3C//DTD SVG 1.1//EN"
"http://www.w3.org/Graphics/SVG/1.1/DTD/svg11.dtd">
<svg viewBox="0 0 935 1210" version="1.1" xmlns="http://www.w3.org/2000/svg" xmlns:xlink="http://www.w3.org/1999/xlink">
<defs>
<style type="text/css"><![CDATA[
.g1_1331{
fill: #FFFFFF;
}
.g2_1331{
}
]]></style>
</defs>
<path d="M68.9,1149.3l686.3,0l0,-21.2l-686.3,0l0,21.2Z" class="g1_1331" />
<path d="M771.3,1149.3l83.7,0l0,-21.2l-83.7,0l0,21.2Z" class="g1_1331" />
<path d="M72.1,725.4l0.7,0l0,-593.6l-0.7,0l0,593.6Z" class="g2_1331" />
<path d="M220.6,726.1l0.7,0l0,-595.1l-0.7,0l0,595.1Z" class="g2_1331" />
<path d="M389,726.1l0.8,0l0,-595.1l-0.8,0l0,595.1Z" class="g2_1331" />
<path d="M426.9,726.1l0.7,0l0,-595.1l-0.7,0l0,595.1Z" class="g2_1331" />
<path d="M500.2,726.1l0.8,0L501,131l-0.8,0l0,595.1Z" class="g2_1331" />
<path d="M571.6,726.1l0.8,0l0,-595.1l-0.8,0l0,595.1Z" class="g2_1331" />
<path d="M849.9,725.4l0.8,0l0,-593.6l-0.8,0l0,593.6Z" class="g2_1331" />
<path d="M72.1,131.7l778.6,0l0,-0.7L72.1,131l0,0.7Z" class="g2_1331" />
<path d="M72.1,169.9l778.6,0l0,-0.7l-778.6,0l0,0.7Z" class="g2_1331" />
<path d="M72.1,209.6l778.6,0l0,-0.7l-778.6,0l0,0.7Z" class="g2_1331" />
<path d="M72.1,249.4l778.6,0l0,-0.7l-778.6,0l0,0.7Z" class="g2_1331" />
<path d="M72.1,289.1l778.6,0l0,-0.7l-778.6,0l0,0.7Z" class="g2_1331" />
<path d="M72.1,328.8l778.6,0l0,-0.7l-778.6,0l0,0.7Z" class="g2_1331" />
<path d="M72.1,368.6l778.6,0l0,-0.7l-778.6,0l0,0.7Z" class="g2_1331" />
<path d="M72.1,408.3l778.6,0l0,-0.8l-778.6,0l0,0.8Z" class="g2_1331" />
<path d="M72.1,448.1l778.6,0l0,-0.8l-778.6,0l0,0.8Z" class="g2_1331" />
<path d="M72.1,487.8l778.6,0l0,-0.8L72.1,487l0,0.8Z" class="g2_1331" />
<path d="M72.1,527.4l778.6,0l0,-0.7l-778.6,0l0,0.7Z" class="g2_1331" />
<path d="M72.1,567.2l778.6,0l0,-0.7l-778.6,0l0,0.7Z" class="g2_1331" />
<path d="M72.1,606.9l778.6,0l0,-0.7l-778.6,0l0,0.7Z" class="g2_1331" />
<path d="M72.1,646.6l778.6,0l0,-0.7l-778.6,0l0,0.7Z" class="g2_1331" />
<path d="M72.1,686.4l778.6,0l0,-0.7l-778.6,0l0,0.7Z" class="g2_1331" />
<path d="M72.1,726.1l778.6,0l0,-0.7l-778.6,0l0,0.7Z" class="g2_1331" />
<path d="M71,917.9l0.8,0l0,-97l-0.8,0l0,97Z" class="g2_1331" />
<path d="M144.7,918.6l0.7,0l0,-98.6l-0.7,0l0,98.6Z" class="g2_1331" />
<path d="M315.1,918.6l0.7,0l0,-98.6l-0.7,0l0,98.6Z" class="g2_1331" />
<path d="M494.7,918.6l0.8,0l0,-98.6l-0.8,0l0,98.6Z" class="g2_1331" />
<path d="M669,918.6l0.7,0l0,-98.6l-0.7,0l0,98.6Z" class="g2_1331" />
<path d="M850.9,917.9l0.8,0l0,-97l-0.8,0l0,97Z" class="g2_1331" />
<path d="M71,820.8l780.7,0l0,-0.7L71,820.1l0,0.7Z" class="g2_1331" />
<path d="M71,845.3l780.7,0l0,-0.8L71,844.5l0,0.8Z" class="g2_1331" />
<path d="M71,869.7l780.7,0l0,-0.7L71,869l0,0.7Z" class="g2_1331" />
<path d="M71,894.1l780.7,0l0,-0.7L71,893.4l0,0.7Z" class="g2_1331" />
<path d="M71,918.6l780.7,0l0,-0.7L71,917.9l0,0.7Z" class="g2_1331" />
</svg>