<?xml version="1.0" encoding="UTF-8" standalone="no"?>
<!DOCTYPE svg PUBLIC "-//W3C//DTD SVG 1.1//EN"
"http://www.w3.org/Graphics/SVG/1.1/DTD/svg11.dtd">
<svg viewBox="0 0 935 1210" version="1.1" xmlns="http://www.w3.org/2000/svg" xmlns:xlink="http://www.w3.org/1999/xlink">
<defs>
<style type="text/css"><![CDATA[
.g1_918{
fill: #FFFFFF;
}
.g2_918{
}
]]></style>
</defs>
<path d="M165,1149.3l687.5,0l0,-21.2l-687.5,0l0,21.2Z" class="g1_918" />
<path d="M68.8,1149.3l82.5,0l0,-21.2l-82.5,0l0,21.2Z" class="g1_918" />
<path d="M68.4,291.4l0.7,0l0,-165.7l-0.7,0l0,165.7Z" class="g2_918" />
<path d="M391.1,292.2l0.8,0l0,-167.3l-0.8,0l0,167.3Z" class="g2_918" />
<path d="M428.9,292.2l0.7,0l0,-167.3l-0.7,0l0,167.3Z" class="g2_918" />
<path d="M502.3,292.2l0.8,0l0,-167.3l-0.8,0l0,167.3Z" class="g2_918" />
<path d="M573.7,292.2l0.8,0l0,-167.3l-0.8,0l0,167.3Z" class="g2_918" />
<path d="M852,291.4l0.8,0l0,-165.7l-0.8,0l0,165.7Z" class="g2_918" />
<path d="M68.4,125.7l784.4,0l0,-0.8l-784.4,0l0,0.8Z" class="g2_918" />
<path d="M68.4,179.1l784.4,0l0,-0.7l-784.4,0l0,0.7Z" class="g2_918" />
<path d="M68.4,235.7l784.4,0l0,-0.8l-784.4,0l0,0.8Z" class="g2_918" />
<path d="M68.4,292.1l784.4,0l0,-0.7l-784.4,0l0,0.7Z" class="g2_918" />
<path d="M68.6,395.4l0.7,0l0,-48.2l-0.7,0l0,48.2Z" class="g2_918" />
<path d="M136.1,396.1l0.8,0l0,-49.7l-0.8,0l0,49.7Z" class="g2_918" />
<path d="M319.6,396.1l0.7,0l0,-49.7l-0.7,0l0,49.7Z" class="g2_918" />
<path d="M502.5,396.1l0.7,0l0,-49.7l-0.7,0l0,49.7Z" class="g2_918" />
<path d="M675.1,396.1l0.8,0l0,-49.7l-0.8,0l0,49.7Z" class="g2_918" />
<path d="M851.9,395.4l0.7,0l0,-48.2l-0.7,0l0,48.2Z" class="g2_918" />
<path d="M68.5,347.1l784.1,0l0,-0.7l-784.1,0l0,0.7Z" class="g2_918" />
<path d="M68.5,371.6l784.1,0l0,-0.7l-784.1,0l0,0.7Z" class="g2_918" />
<path d="M68.5,396.1l784.1,0l0,-0.7l-784.1,0l0,0.7Z" class="g2_918" />
<path d="M70.3,994.2l0.7,0L71,878.9l-0.7,0l0,115.3Z" class="g2_918" />
<path d="M274,995l0.7,0l0,-116.8l-0.7,0L274,995Z" class="g2_918" />
<path d="M403.7,995l0.7,0l0,-116.8l-0.7,0l0,116.8Z" class="g2_918" />
<path d="M545.8,995l0.7,0l0,-116.8l-0.7,0l0,116.8Z" class="g2_918" />
<path d="M850,994.2l0.8,0l0,-115.3l-0.8,0l0,115.3Z" class="g2_918" />
<path d="M70.3,878.9l780.5,0l0,-0.7l-780.5,0l0,0.7Z" class="g2_918" />
<path d="M70.3,907.9l780.5,0l0,-0.8l-780.5,0l0,0.8Z" class="g2_918" />
<path d="M70.3,936.9l780.5,0l0,-0.7l-780.5,0l0,0.7Z" class="g2_918" />
<path d="M70.3,966l780.5,0l0,-0.7l-780.5,0l0,0.7Z" class="g2_918" />
<path d="M70.3,995l780.5,0l0,-0.8l-780.5,0l0,0.8Z" class="g2_918" />
</svg>