<?xml version="1.0" encoding="UTF-8" standalone="no"?>
<!DOCTYPE svg PUBLIC "-//W3C//DTD SVG 1.1//EN"
"http://www.w3.org/Graphics/SVG/1.1/DTD/svg11.dtd">
<svg viewBox="0 0 935 1210" version="1.1" xmlns="http://www.w3.org/2000/svg" xmlns:xlink="http://www.w3.org/1999/xlink">
<defs>
<style type="text/css"><![CDATA[
.g1_672{
fill: #FFFFFF;
}
.g2_672{
}
]]></style>
</defs>
<path d="M165,1149.3l687.5,0l0,-21.2l-687.5,0l0,21.2Z" class="g1_672" />
<path d="M68.8,1149.3l82.5,0l0,-21.2l-82.5,0l0,21.2Z" class="g1_672" />
<path d="M68.6,318.9l0.7,0l0,-193.2l-0.7,0l0,193.2Z" class="g2_672" />
<path d="M290.9,319.7l0.7,0l0,-194.8l-0.7,0l0,194.8Z" class="g2_672" />
<path d="M336.7,319.7l0.7,0l0,-194.8l-0.7,0l0,194.8Z" class="g2_672" />
<path d="M411.2,319.7l0.7,0l0,-194.8l-0.7,0l0,194.8Z" class="g2_672" />
<path d="M491.1,319.7l0.7,0l0,-194.8l-0.7,0l0,194.8Z" class="g2_672" />
<path d="M851.9,318.9l0.7,0l0,-193.2l-0.7,0l0,193.2Z" class="g2_672" />
<path d="M68.6,125.7l784,0l0,-0.8l-784,0l0,0.8Z" class="g2_672" />
<path d="M68.6,176.1l784,0l0,-0.7l-784,0l0,0.7Z" class="g2_672" />
<path d="M68.6,212.8l784,0l0,-0.8l-784,0l0,0.8Z" class="g2_672" />
<path d="M68.6,266.2l784,0l0,-0.7l-784,0l0,0.7Z" class="g2_672" />
<path d="M68.6,319.6l784,0l0,-0.7l-784,0l0,0.7Z" class="g2_672" />
<path d="M69.2,471.7l0.7,0l0,-97l-0.7,0l0,97Z" class="g2_672" />
<path d="M182.9,472.4l0.7,0l0,-98.5l-0.7,0l0,98.5Z" class="g2_672" />
<path d="M344.9,472.4l0.7,0l0,-98.5l-0.7,0l0,98.5Z" class="g2_672" />
<path d="M517.3,472.4l0.7,0l0,-98.5l-0.7,0l0,98.5Z" class="g2_672" />
<path d="M682.6,472.4l0.7,0l0,-98.5l-0.7,0l0,98.5Z" class="g2_672" />
<path d="M851.2,471.7l0.7,0l0,-97l-0.7,0l0,97Z" class="g2_672" />
<path d="M69.2,374.6l782.8,0l0,-0.7l-782.8,0l0,0.7Z" class="g2_672" />
<path d="M69.2,399.1l782.8,0l0,-0.7l-782.8,0l0,0.7Z" class="g2_672" />
<path d="M69.2,423.6l782.8,0l0,-0.7l-782.8,0l0,0.7Z" class="g2_672" />
<path d="M69.2,448.1l782.8,0l0,-0.8l-782.8,0l0,0.8Z" class="g2_672" />
<path d="M69.2,472.4l782.8,0l0,-0.7l-782.8,0l0,0.7Z" class="g2_672" />
</svg>