<?xml version="1.0" encoding="UTF-8" standalone="no"?>
<!DOCTYPE svg PUBLIC "-//W3C//DTD SVG 1.1//EN"
"http://www.w3.org/Graphics/SVG/1.1/DTD/svg11.dtd">
<svg viewBox="0 0 935 1210" version="1.1" xmlns="http://www.w3.org/2000/svg" xmlns:xlink="http://www.w3.org/1999/xlink">
<defs>
<style type="text/css"><![CDATA[
.g1_363{
fill: #FFFFFF;
}
.g2_363{
}
]]></style>
</defs>
<path d="M68.9,1149.3l686.3,0l0,-21.2l-686.3,0l0,21.2Z" class="g1_363" />
<path d="M771.3,1149.3l83.7,0l0,-21.2l-83.7,0l0,21.2Z" class="g1_363" />
<path d="M69.9,357.1l0.8,0L70.7,147l-0.8,0l0,210.1Z" class="g2_363" />
<path d="M303.5,357.9l0.7,0l0,-211.6l-0.7,0l0,211.6Z" class="g2_363" />
<path d="M351,357.9l0.7,0l0,-211.6l-0.7,0l0,211.6Z" class="g2_363" />
<path d="M425.4,357.9l0.8,0l0,-211.6l-0.8,0l0,211.6Z" class="g2_363" />
<path d="M505.3,357.9l0.7,0l0,-211.6l-0.7,0l0,211.6Z" class="g2_363" />
<path d="M853.5,357.1l0.7,0l0,-210.1l-0.7,0l0,210.1Z" class="g2_363" />
<path d="M69.9,147l784.3,0l0,-0.7l-784.3,0l0,0.7Z" class="g2_363" />
<path d="M69.9,197.4l784.3,0l0,-0.7l-784.3,0l0,0.7Z" class="g2_363" />
<path d="M69.9,250.9l784.3,0l0,-0.7l-784.3,0l0,0.7Z" class="g2_363" />
<path d="M69.9,304.4l784.3,0l0,-0.7l-784.3,0l0,0.7Z" class="g2_363" />
<path d="M69.9,357.9l784.3,0l0,-0.8l-784.3,0l0,0.8Z" class="g2_363" />
<path d="M70.8,509.9l0.7,0l0,-97l-0.7,0l0,97Z" class="g2_363" />
<path d="M178.9,510.7l0.8,0l0,-98.6l-0.8,0l0,98.6Z" class="g2_363" />
<path d="M347.1,510.7l0.8,0l0,-98.6l-0.8,0l0,98.6Z" class="g2_363" />
<path d="M516.3,510.7l0.7,0l0,-98.6l-0.7,0l0,98.6Z" class="g2_363" />
<path d="M677.7,510.7l0.7,0l0,-98.6l-0.7,0l0,98.6Z" class="g2_363" />
<path d="M851.2,509.9l0.7,0l0,-97l-0.7,0l0,97Z" class="g2_363" />
<path d="M70.8,412.9l781.2,0l0,-0.8l-781.2,0l0,0.8Z" class="g2_363" />
<path d="M70.8,437.3l781.2,0l0,-0.7l-781.2,0l0,0.7Z" class="g2_363" />
<path d="M70.8,461.8l781.2,0l0,-0.7l-781.2,0l0,0.7Z" class="g2_363" />
<path d="M70.8,486.2l781.2,0l0,-0.7l-781.2,0l0,0.7Z" class="g2_363" />
<path d="M70.8,510.7l781.2,0l0,-0.8l-781.2,0l0,0.8Z" class="g2_363" />
</svg>