<?xml version="1.0" encoding="UTF-8" standalone="no"?>
<!DOCTYPE svg PUBLIC "-//W3C//DTD SVG 1.1//EN"
"http://www.w3.org/Graphics/SVG/1.1/DTD/svg11.dtd">
<svg viewBox="0 0 935 1210" version="1.1" xmlns="http://www.w3.org/2000/svg" xmlns:xlink="http://www.w3.org/1999/xlink">
<defs>
<style type="text/css"><![CDATA[
.g1_907{
fill: #FFFFFF;
}
.g2_907{
}
]]></style>
</defs>
<path d="M68.9,1149.3l686.3,0l0,-21.2l-686.3,0l0,21.2Z" class="g1_907" />
<path d="M771.3,1149.3l83.7,0l0,-21.2l-83.7,0l0,21.2Z" class="g1_907" />
<path d="M69.2,291.4l0.7,0l0,-165.7l-0.7,0l0,165.7Z" class="g2_907" />
<path d="M393.1,292.2l0.7,0l0,-167.3l-0.7,0l0,167.3Z" class="g2_907" />
<path d="M430.9,292.2l0.8,0l0,-167.3l-0.8,0l0,167.3Z" class="g2_907" />
<path d="M504.3,292.2l0.7,0l0,-167.3l-0.7,0l0,167.3Z" class="g2_907" />
<path d="M575.7,292.2l0.7,0l0,-167.3l-0.7,0l0,167.3Z" class="g2_907" />
<path d="M852.8,291.4l0.7,0l0,-165.7l-0.7,0l0,165.7Z" class="g2_907" />
<path d="M69.2,125.7l784.4,0l0,-0.8l-784.4,0l0,0.8Z" class="g2_907" />
<path d="M69.2,179.1l784.4,0l0,-0.7l-784.4,0l0,0.7Z" class="g2_907" />
<path d="M69.2,235.7l784.4,0l0,-0.8l-784.4,0l0,0.8Z" class="g2_907" />
<path d="M69.2,292.1l784.4,0l0,-0.7l-784.4,0l0,0.7Z" class="g2_907" />
<path d="M71,395.4l0.8,0l0,-48.2l-0.8,0l0,48.2Z" class="g2_907" />
<path d="M136.9,396.1l0.7,0l0,-49.7l-0.7,0l0,49.7Z" class="g2_907" />
<path d="M312.5,396.1l0.7,0l0,-49.7l-0.7,0l0,49.7Z" class="g2_907" />
<path d="M493.9,396.1l0.7,0l0,-49.7l-0.7,0l0,49.7Z" class="g2_907" />
<path d="M670.9,396.1l0.7,0l0,-49.7l-0.7,0l0,49.7Z" class="g2_907" />
<path d="M850.9,395.4l0.8,0l0,-48.2l-0.8,0l0,48.2Z" class="g2_907" />
<path d="M71,347.1l780.7,0l0,-0.7L71,346.4l0,0.7Z" class="g2_907" />
<path d="M71,371.6l780.7,0l0,-0.7L71,370.9l0,0.7Z" class="g2_907" />
<path d="M71,396.1l780.7,0l0,-0.7L71,395.4l0,0.7Z" class="g2_907" />
</svg>