<?xml version="1.0" encoding="UTF-8" standalone="no"?>
<!DOCTYPE svg PUBLIC "-//W3C//DTD SVG 1.1//EN"
"http://www.w3.org/Graphics/SVG/1.1/DTD/svg11.dtd">
<svg viewBox="0 0 935 1210" version="1.1" xmlns="http://www.w3.org/2000/svg" xmlns:xlink="http://www.w3.org/1999/xlink">
<defs>
<style type="text/css"><![CDATA[
.g1_1701{
fill: #FFFFFF;
}
.g2_1701{
}
]]></style>
</defs>
<path d="M68.9,1149.3l686.3,0l0,-21.2l-686.3,0l0,21.2Z" class="g1_1701" />
<path d="M771.3,1149.3l83.7,0l0,-21.2l-83.7,0l0,21.2Z" class="g1_1701" />
<path d="M69.9,597l0.8,0l0,-471.3l-0.8,0l0,471.3Z" class="g2_1701" />
<path d="M300.2,597.8l0.7,0l0,-472.9l-0.7,0l0,472.9Z" class="g2_1701" />
<path d="M346.3,597.8l0.7,0l0,-472.9l-0.7,0l0,472.9Z" class="g2_1701" />
<path d="M420.7,597.8l0.8,0l0,-472.9l-0.8,0l0,472.9Z" class="g2_1701" />
<path d="M505.7,597.8l0.8,0l0,-472.9l-0.8,0l0,472.9Z" class="g2_1701" />
<path d="M855.9,597l0.7,0l0,-471.3l-0.7,0l0,471.3Z" class="g2_1701" />
<path d="M69.9,125.7l786.7,0l0,-0.8l-786.7,0l0,0.8Z" class="g2_1701" />
<path d="M69.9,176.1l786.7,0l0,-0.7l-786.7,0l0,0.7Z" class="g2_1701" />
<path d="M69.9,246.3l786.7,0l0,-0.7l-786.7,0l0,0.7Z" class="g2_1701" />
<path d="M69.9,316.6l786.7,0l0,-0.7l-786.7,0l0,0.7Z" class="g2_1701" />
<path d="M69.9,386.9l786.7,0l0,-0.7l-786.7,0l0,0.7Z" class="g2_1701" />
<path d="M69.9,457.2l786.7,0l0,-0.7l-786.7,0l0,0.7Z" class="g2_1701" />
<path d="M69.9,527.4l786.7,0l0,-0.7l-786.7,0l0,0.7Z" class="g2_1701" />
<path d="M69.9,597.8l786.7,0l0,-0.8L69.9,597l0,0.8Z" class="g2_1701" />
<path d="M71.3,700.9l0.8,0l0,-48.1l-0.8,0l0,48.1Z" class="g2_1701" />
<path d="M178.9,701.6l0.8,0l0,-49.6l-0.8,0l0,49.6Z" class="g2_1701" />
<path d="M346.2,701.6l0.8,0L347,652l-0.8,0l0,49.6Z" class="g2_1701" />
<path d="M518.8,701.6l0.8,0l0,-49.6l-0.8,0l0,49.6Z" class="g2_1701" />
<path d="M683.7,701.6l0.8,0l0,-49.6l-0.8,0l0,49.6Z" class="g2_1701" />
<path d="M850.7,700.9l0.7,0l0,-48.1l-0.7,0l0,48.1Z" class="g2_1701" />
<path d="M71.3,652.8l780.1,0l0,-0.8L71.3,652l0,0.8Z" class="g2_1701" />
<path d="M71.3,677.2l780.1,0l0,-0.7l-780.1,0l0,0.7Z" class="g2_1701" />
<path d="M71.3,701.6l780.1,0l0,-0.7l-780.1,0l0,0.7Z" class="g2_1701" />
</svg>