<?xml version="1.0" encoding="UTF-8" standalone="no"?>
<!DOCTYPE svg PUBLIC "-//W3C//DTD SVG 1.1//EN"
"http://www.w3.org/Graphics/SVG/1.1/DTD/svg11.dtd">
<svg viewBox="0 0 935 1210" version="1.1" xmlns="http://www.w3.org/2000/svg" xmlns:xlink="http://www.w3.org/1999/xlink">
<defs>
<style type="text/css"><![CDATA[
.g1_1453{
fill: #FFFFFF;
}
.g2_1453{
fill: #0860A8;
}
.g3_1453{
}
]]></style>
</defs>
<path d="M68.9,1149.3l686.3,0l0,-21.2l-686.3,0l0,21.2Z" class="g1_1453" />
<path d="M771.3,1149.3l83.7,0l0,-21.2l-83.7,0l0,21.2Z" class="g1_1453" />
<path d="M515.2,585.3l328,0l0,-0.8l-328,0l0,0.8Z" class="g2_1453" />
<path d="M70.3,602.1l673.5,0l0,-0.9l-673.5,0l0,0.9Z" class="g2_1453" />
<path d="M69.9,267l0.8,0l0,-120l-0.8,0l0,120Z" class="g3_1453" />
<path d="M259.5,267.8l0.7,0l0,-121.5l-0.7,0l0,121.5Z" class="g3_1453" />
<path d="M304.2,267.8l0.7,0l0,-121.5l-0.7,0l0,121.5Z" class="g3_1453" />
<path d="M378.7,267.8l0.7,0l0,-121.5l-0.7,0l0,121.5Z" class="g3_1453" />
<path d="M465.7,267.8l0.7,0l0,-121.5l-0.7,0l0,121.5Z" class="g3_1453" />
<path d="M852,267l0.8,0l0,-120l-0.8,0l0,120Z" class="g3_1453" />
<path d="M69.9,147l782.9,0l0,-0.7l-782.9,0l0,0.7Z" class="g3_1453" />
<path d="M69.9,197.4l782.9,0l0,-0.7l-782.9,0l0,0.7Z" class="g3_1453" />
<path d="M69.9,267.8l782.9,0l0,-0.8L69.9,267l0,0.8Z" class="g3_1453" />
<path d="M70,370.9l0.8,0l0,-48.1l-0.8,0l0,48.1Z" class="g3_1453" />
<path d="M168.6,371.6l0.7,0l0,-49.6l-0.7,0l0,49.6Z" class="g3_1453" />
<path d="M342.1,371.6l0.7,0l0,-49.6l-0.7,0l0,49.6Z" class="g3_1453" />
<path d="M515.5,371.6l0.8,0l0,-49.6l-0.8,0l0,49.6Z" class="g3_1453" />
<path d="M681.7,371.6l0.8,0l0,-49.6l-0.8,0l0,49.6Z" class="g3_1453" />
<path d="M852,370.9l0.7,0l0,-48.1l-0.7,0l0,48.1Z" class="g3_1453" />
<path d="M70,322.8l782.8,0l0,-0.8L70,322l0,0.8Z" class="g3_1453" />
<path d="M70,347.1l782.8,0l0,-0.7L70,346.4l0,0.7Z" class="g3_1453" />
<path d="M70,371.6l782.8,0l0,-0.7L70,370.9l0,0.7Z" class="g3_1453" />
</svg>