<?xml version="1.0" encoding="UTF-8" standalone="no"?>
<!DOCTYPE svg PUBLIC "-//W3C//DTD SVG 1.1//EN"
"http://www.w3.org/Graphics/SVG/1.1/DTD/svg11.dtd">
<svg viewBox="0 0 935 1210" version="1.1" xmlns="http://www.w3.org/2000/svg" xmlns:xlink="http://www.w3.org/1999/xlink">
<defs>
<style type="text/css"><![CDATA[
.g1_1801{
fill: #FFFFFF;
}
.g2_1801{
}
]]></style>
</defs>
<path d="M68.9,1149.3l686.3,0l0,-21.2l-686.3,0l0,21.2Z" class="g1_1801" />
<path d="M771.3,1149.3l83.7,0l0,-21.2l-83.7,0l0,21.2Z" class="g1_1801" />
<path d="M69.9,870.5l0.8,0l0,-744.8l-0.8,0l0,744.8Z" class="g2_1801" />
<path d="M306.5,871.3l0.8,0l0,-746.4l-0.8,0l0,746.4Z" class="g2_1801" />
<path d="M353.9,871.3l0.8,0l0,-746.4l-0.8,0l0,746.4Z" class="g2_1801" />
<path d="M428.5,871.3l0.7,0l0,-746.4l-0.7,0l0,746.4Z" class="g2_1801" />
<path d="M515.3,871.3l0.7,0l0,-746.4l-0.7,0l0,746.4Z" class="g2_1801" />
<path d="M852.1,870.5l0.8,0l0,-744.8l-0.8,0l0,744.8Z" class="g2_1801" />
<path d="M69.9,125.7l783,0l0,-0.8l-783,0l0,0.8Z" class="g2_1801" />
<path d="M69.9,176.1l783,0l0,-0.7l-783,0l0,0.7Z" class="g2_1801" />
<path d="M69.9,229.5l783,0l0,-0.7l-783,0l0,0.7Z" class="g2_1801" />
<path d="M69.9,283l783,0l0,-0.8l-783,0l0,0.8Z" class="g2_1801" />
<path d="M69.9,336.5l783,0l0,-0.7l-783,0l0,0.7Z" class="g2_1801" />
<path d="M69.9,389.9l783,0l0,-0.7l-783,0l0,0.7Z" class="g2_1801" />
<path d="M69.9,443.5l783,0l0,-0.8l-783,0l0,0.8Z" class="g2_1801" />
<path d="M69.9,496.9l783,0l0,-0.7l-783,0l0,0.7Z" class="g2_1801" />
<path d="M69.9,550.4l783,0l0,-0.8l-783,0l0,0.8Z" class="g2_1801" />
<path d="M69.9,603.9l783,0l0,-0.7l-783,0l0,0.7Z" class="g2_1801" />
<path d="M69.9,657.3l783,0l0,-0.7l-783,0l0,0.7Z" class="g2_1801" />
<path d="M69.9,710.8l783,0l0,-0.8l-783,0l0,0.8Z" class="g2_1801" />
<path d="M69.9,764.3l783,0l0,-0.7l-783,0l0,0.7Z" class="g2_1801" />
<path d="M69.9,817.8l783,0l0,-0.8l-783,0l0,0.8Z" class="g2_1801" />
<path d="M69.9,871.2l783,0l0,-0.7l-783,0l0,0.7Z" class="g2_1801" />
<path d="M70.8,1023.3l0.7,0l0,-97l-0.7,0l0,97Z" class="g2_1801" />
<path d="M198.6,1024l0.8,0l0,-98.5l-0.8,0l0,98.5Z" class="g2_1801" />
<path d="M353.6,1024l0.7,0l0,-98.5l-0.7,0l0,98.5Z" class="g2_1801" />
<path d="M518.3,1024l0.7,0l0,-98.5l-0.7,0l0,98.5Z" class="g2_1801" />
<path d="M686.3,1024l0.7,0l0,-98.5l-0.7,0l0,98.5Z" class="g2_1801" />
<path d="M851.2,1023.3l0.7,0l0,-97l-0.7,0l0,97Z" class="g2_1801" />
<path d="M70.8,926.2l781.2,0l0,-0.7l-781.2,0l0,0.7Z" class="g2_1801" />
<path d="M70.8,950.7l781.2,0l0,-0.8l-781.2,0l0,0.8Z" class="g2_1801" />
<path d="M70.8,975.2l781.2,0l0,-0.8l-781.2,0l0,0.8Z" class="g2_1801" />
<path d="M70.8,999.5l781.2,0l0,-0.7l-781.2,0l0,0.7Z" class="g2_1801" />
<path d="M70.8,1024l781.2,0l0,-0.7l-781.2,0l0,0.7Z" class="g2_1801" />
</svg>