<?xml version="1.0" encoding="UTF-8" standalone="no"?>
<!DOCTYPE svg PUBLIC "-//W3C//DTD SVG 1.1//EN"
"http://www.w3.org/Graphics/SVG/1.1/DTD/svg11.dtd">
<svg viewBox="0 0 935 1210" version="1.1" xmlns="http://www.w3.org/2000/svg" xmlns:xlink="http://www.w3.org/1999/xlink">
<defs>
<style type="text/css"><![CDATA[
.g1_926{
fill: #FFFFFF;
}
.g2_926{
}
]]></style>
</defs>
<path d="M165,1149.3l687.5,0l0,-21.2l-687.5,0l0,21.2Z" class="g1_926" />
<path d="M68.8,1149.3l82.5,0l0,-21.2l-82.5,0l0,21.2Z" class="g1_926" />
<path d="M66.5,756.9l788.2,0l0,-29.6l-788.2,0l0,29.6Z" class="g1_926" />
<path d="M67.4,750.2l53.5,0l0,-12.5l-53.5,0l0,12.5Z" class="g1_926" />
<path d="M66.1,703.9l0.7,0l0,-578.2l-0.7,0l0,578.2Z" class="g2_926" />
<path d="M332.7,704.7l0.7,0l0,-579.8l-0.7,0l0,579.8Z" class="g2_926" />
<path d="M392.2,704.7l0.8,0l0,-579.8l-0.8,0l0,579.8Z" class="g2_926" />
<path d="M465.7,704.7l0.7,0l0,-579.8l-0.7,0l0,579.8Z" class="g2_926" />
<path d="M546.2,704.7l0.8,0l0,-579.8l-0.8,0l0,579.8Z" class="g2_926" />
<path d="M854.3,703.9l0.8,0l0,-578.2l-0.8,0l0,578.2Z" class="g2_926" />
<path d="M66.1,125.7l789,0l0,-0.8l-789,0l0,0.8Z" class="g2_926" />
<path d="M66.1,179.1l789,0l0,-0.7l-789,0l0,0.7Z" class="g2_926" />
<path d="M66.1,235.7l789,0l0,-0.8l-789,0l0,0.8Z" class="g2_926" />
<path d="M66.1,292.1l789,0l0,-0.7l-789,0l0,0.7Z" class="g2_926" />
<path d="M66.1,365.5l789,0l0,-0.8l-789,0l0,0.8Z" class="g2_926" />
<path d="M66.1,422l789,0l0,-0.7l-789,0l0,0.7Z" class="g2_926" />
<path d="M66.1,478.6l789,0l0,-0.7l-789,0l0,0.7Z" class="g2_926" />
<path d="M66.1,535.2l789,0l0,-0.8l-789,0l0,0.8Z" class="g2_926" />
<path d="M66.1,591.6l789,0l0,-0.7l-789,0l0,0.7Z" class="g2_926" />
<path d="M66.1,648.2l789,0l0,-0.8l-789,0l0,0.8Z" class="g2_926" />
<path d="M66.1,704.7l789,0l0,-0.7l-789,0l0,0.7Z" class="g2_926" />
<path d="M68.6,924.6l0.7,0l0,-48.2l-0.7,0l0,48.2Z" class="g2_926" />
<path d="M134.5,925.3l0.7,0l0,-49.7l-0.7,0l0,49.7Z" class="g2_926" />
<path d="M319.4,925.3l0.7,0l0,-49.7l-0.7,0l0,49.7Z" class="g2_926" />
<path d="M497.9,925.3l0.8,0l0,-49.7l-0.8,0l0,49.7Z" class="g2_926" />
<path d="M672.3,925.3l0.7,0l0,-49.7l-0.7,0l0,49.7Z" class="g2_926" />
<path d="M851.9,924.6l0.7,0l0,-48.2l-0.7,0l0,48.2Z" class="g2_926" />
<path d="M68.5,876.4l784.1,0l0,-0.7l-784.1,0l0,0.7Z" class="g2_926" />
<path d="M68.5,900.8l784.1,0l0,-0.7l-784.1,0l0,0.7Z" class="g2_926" />
<path d="M68.5,925.3l784.1,0l0,-0.8l-784.1,0l0,0.8Z" class="g2_926" />
</svg>