<?xml version="1.0" encoding="UTF-8" standalone="no"?>
<!DOCTYPE svg PUBLIC "-//W3C//DTD SVG 1.1//EN"
"http://www.w3.org/Graphics/SVG/1.1/DTD/svg11.dtd">
<svg viewBox="0 0 935 1210" version="1.1" xmlns="http://www.w3.org/2000/svg" xmlns:xlink="http://www.w3.org/1999/xlink">
<defs>
<style type="text/css"><![CDATA[
.g1_571{
fill: #FFFFFF;
}
.g2_571{
}
]]></style>
</defs>
<path d="M68.9,1149.3l686.3,0l0,-21.2l-686.3,0l0,21.2Z" class="g1_571" />
<path d="M771.3,1149.3l83.7,0l0,-21.2l-83.7,0l0,21.2Z" class="g1_571" />
<path d="M72.1,202.9l0.7,0l0,-77.2l-0.7,0l0,77.2Z" class="g2_571" />
<path d="M221.7,203.6l0.7,0l0,-78.7l-0.7,0l0,78.7Z" class="g2_571" />
<path d="M391.3,203.6l0.8,0l0,-78.7l-0.8,0l0,78.7Z" class="g2_571" />
<path d="M429.2,203.6l0.7,0l0,-78.7l-0.7,0l0,78.7Z" class="g2_571" />
<path d="M502.5,203.6l0.7,0l0,-78.7l-0.7,0l0,78.7Z" class="g2_571" />
<path d="M573.9,203.6l0.8,0l0,-78.7l-0.8,0l0,78.7Z" class="g2_571" />
<path d="M849.9,202.9l0.8,0l0,-77.2l-0.8,0l0,77.2Z" class="g2_571" />
<path d="M72.1,125.7l778.6,0l0,-0.8l-778.6,0l0,0.8Z" class="g2_571" />
<path d="M72.1,163.8l778.6,0l0,-0.7l-778.6,0l0,0.7Z" class="g2_571" />
<path d="M72.1,203.6l778.6,0l0,-0.7l-778.6,0l0,0.7Z" class="g2_571" />
<path d="M71.6,349.5l0.7,0l0,-48.1l-0.7,0l0,48.1Z" class="g2_571" />
<path d="M144.7,350.3l0.8,0l0,-49.7l-0.8,0l0,49.7Z" class="g2_571" />
<path d="M315.3,350.3l0.8,0l0,-49.7l-0.8,0l0,49.7Z" class="g2_571" />
<path d="M494,350.3l0.7,0l0,-49.7l-0.7,0l0,49.7Z" class="g2_571" />
<path d="M670.7,350.3l0.8,0l0,-49.7l-0.8,0l0,49.7Z" class="g2_571" />
<path d="M850.4,349.5l0.7,0l0,-48.1l-0.7,0l0,48.1Z" class="g2_571" />
<path d="M71.6,301.3l779.5,0l0,-0.7l-779.5,0l0,0.7Z" class="g2_571" />
<path d="M71.6,325.8l779.5,0l0,-0.7l-779.5,0l0,0.7Z" class="g2_571" />
<path d="M71.6,350.3l779.5,0l0,-0.8l-779.5,0l0,0.8Z" class="g2_571" />
</svg>