<?xml version="1.0" encoding="UTF-8" standalone="no"?>
<!DOCTYPE svg PUBLIC "-//W3C//DTD SVG 1.1//EN"
"http://www.w3.org/Graphics/SVG/1.1/DTD/svg11.dtd">
<svg viewBox="0 0 935 1210" version="1.1" xmlns="http://www.w3.org/2000/svg" xmlns:xlink="http://www.w3.org/1999/xlink">
<defs>
<style type="text/css"><![CDATA[
.g1_1068{
fill: #FFFFFF;
}
.g2_1068{
}
]]></style>
</defs>
<path d="M165,1149.3l687.5,0l0,-21.2l-687.5,0l0,21.2Z" class="g1_1068" />
<path d="M68.8,1149.3l82.5,0l0,-21.2l-82.5,0l0,21.2Z" class="g1_1068" />
<path d="M65,480.9l0.7,0l0,-355.2l-0.7,0l0,355.2Z" class="g2_1068" />
<path d="M363.6,481.6l0.8,0l0,-356.7l-0.8,0l0,356.7Z" class="g2_1068" />
<path d="M401.4,481.6l0.7,0l0,-356.7l-0.7,0l0,356.7Z" class="g2_1068" />
<path d="M474.8,481.6l0.8,0l0,-356.7l-0.8,0l0,356.7Z" class="g2_1068" />
<path d="M549.6,481.6l0.8,0l0,-356.7l-0.8,0l0,356.7Z" class="g2_1068" />
<path d="M855.4,480.9l0.8,0l0,-355.2l-0.8,0l0,355.2Z" class="g2_1068" />
<path d="M64.9,125.7l791.3,0l0,-0.8l-791.3,0l0,0.8Z" class="g2_1068" />
<path d="M64.9,179.1l791.3,0l0,-0.7l-791.3,0l0,0.7Z" class="g2_1068" />
<path d="M64.9,223.4l791.3,0l0,-0.7l-791.3,0l0,0.7Z" class="g2_1068" />
<path d="M64.9,267.8l791.3,0l0,-0.8L64.9,267l0,0.8Z" class="g2_1068" />
<path d="M64.9,312l791.3,0l0,-0.7l-791.3,0l0,0.7Z" class="g2_1068" />
<path d="M64.9,368.6l791.3,0l0,-0.7l-791.3,0l0,0.7Z" class="g2_1068" />
<path d="M64.9,425.2l791.3,0l0,-0.8l-791.3,0l0,0.8Z" class="g2_1068" />
<path d="M64.9,481.6l791.3,0l0,-0.7l-791.3,0l0,0.7Z" class="g2_1068" />
<path d="M70.2,609.2l0.8,0l0,-72.6l-0.8,0l0,72.6Z" class="g2_1068" />
<path d="M139.5,609.9l0.8,0l0,-74l-0.8,0l0,74Z" class="g2_1068" />
<path d="M312.4,609.9l0.7,0l0,-74l-0.7,0l0,74Z" class="g2_1068" />
<path d="M487.2,609.9l0.7,0l0,-74l-0.7,0l0,74Z" class="g2_1068" />
<path d="M659.1,609.9l0.7,0l0,-74l-0.7,0l0,74Z" class="g2_1068" />
<path d="M850.1,609.2l0.7,0l0,-72.6l-0.7,0l0,72.6Z" class="g2_1068" />
<path d="M70.2,536.6l780.7,0l0,-0.7l-780.7,0l0,0.7Z" class="g2_1068" />
<path d="M70.2,561.1l780.7,0l0,-0.7l-780.7,0l0,0.7Z" class="g2_1068" />
<path d="M70.2,585.6l780.7,0l0,-0.8l-780.7,0l0,0.8Z" class="g2_1068" />
<path d="M70.2,609.9l780.7,0l0,-0.7l-780.7,0l0,0.7Z" class="g2_1068" />
</svg>