<?xml version="1.0" encoding="UTF-8" standalone="no"?>
<!DOCTYPE svg PUBLIC "-//W3C//DTD SVG 1.1//EN"
"http://www.w3.org/Graphics/SVG/1.1/DTD/svg11.dtd">
<svg viewBox="0 0 935 1210" version="1.1" xmlns="http://www.w3.org/2000/svg" xmlns:xlink="http://www.w3.org/1999/xlink">
<defs>
<style type="text/css"><![CDATA[
.g1_2141{
fill: #FFFFFF;
}
.g2_2141{
}
]]></style>
</defs>
<path d="M68.9,1149.3l783.8,0l0,-21.2l-783.8,0l0,21.2Z" class="g1_2141" />
<path d="M69.9,1093.6l0.8,0l0,-986.3l-0.8,0l0,986.3Z" class="g2_2141" />
<path d="M445.2,1094.3l0.8,0l0,-987.7l-0.8,0l0,987.7Z" class="g2_2141" />
<path d="M851.3,1093.6l0.7,0l0,-986.3l-0.7,0l0,986.3Z" class="g2_2141" />
<path d="M69.9,107.3l782.1,0l0,-0.7l-782.1,0l0,0.7Z" class="g2_2141" />
<path d="M69.9,131.7l782.1,0l0,-0.7L69.9,131l0,0.7Z" class="g2_2141" />
<path d="M69.9,156.2l782.1,0l0,-0.7l-782.1,0l0,0.7Z" class="g2_2141" />
<path d="M69.9,180.7l782.1,0l0,-0.8l-782.1,0l0,0.8Z" class="g2_2141" />
<path d="M69.9,205.1l782.1,0l0,-0.8l-782.1,0l0,0.8Z" class="g2_2141" />
<path d="M69.9,229.5l782.1,0l0,-0.7l-782.1,0l0,0.7Z" class="g2_2141" />
<path d="M69.9,254L852,254l0,-0.7l-782.1,0l0,0.7Z" class="g2_2141" />
<path d="M69.9,278.4l782.1,0l0,-0.7l-782.1,0l0,0.7Z" class="g2_2141" />
<path d="M69.9,302.9l782.1,0l0,-0.8l-782.1,0l0,0.8Z" class="g2_2141" />
<path d="M69.9,327.3l782.1,0l0,-0.7l-782.1,0l0,0.7Z" class="g2_2141" />
<path d="M69.9,351.7l782.1,0l0,-0.7L69.9,351l0,0.7Z" class="g2_2141" />
<path d="M69.9,376.2l782.1,0l0,-0.7l-782.1,0l0,0.7Z" class="g2_2141" />
<path d="M69.9,400.7l782.1,0l0,-0.8l-782.1,0l0,0.8Z" class="g2_2141" />
<path d="M69.9,425.2l782.1,0l0,-0.8l-782.1,0l0,0.8Z" class="g2_2141" />
<path d="M69.9,449.5l782.1,0l0,-0.7l-782.1,0l0,0.7Z" class="g2_2141" />
<path d="M69.9,474L852,474l0,-0.7l-782.1,0l0,0.7Z" class="g2_2141" />
<path d="M69.9,498.5l782.1,0l0,-0.8l-782.1,0l0,0.8Z" class="g2_2141" />
<path d="M69.9,522.9l782.1,0l0,-0.8l-782.1,0l0,0.8Z" class="g2_2141" />
<path d="M69.9,547.3l782.1,0l0,-0.7l-782.1,0l0,0.7Z" class="g2_2141" />
<path d="M69.9,571.8l782.1,0l0,-0.7l-782.1,0l0,0.7Z" class="g2_2141" />
<path d="M69.9,596.2l782.1,0l0,-0.7l-782.1,0l0,0.7Z" class="g2_2141" />
<path d="M69.9,620.7l782.1,0l0,-0.8l-782.1,0l0,0.8Z" class="g2_2141" />
<path d="M69.9,645.2l782.1,0l0,-0.8l-782.1,0l0,0.8Z" class="g2_2141" />
<path d="M69.9,669.5l782.1,0l0,-0.7l-782.1,0l0,0.7Z" class="g2_2141" />
<path d="M69.9,694L852,694l0,-0.7l-782.1,0l0,0.7Z" class="g2_2141" />
<path d="M69.9,718.5l782.1,0l0,-0.7l-782.1,0l0,0.7Z" class="g2_2141" />
<path d="M69.9,742.9l782.1,0l0,-0.8l-782.1,0l0,0.8Z" class="g2_2141" />
<path d="M69.9,767.3l782.1,0l0,-0.7l-782.1,0l0,0.7Z" class="g2_2141" />
<path d="M69.9,791.8l782.1,0l0,-0.7l-782.1,0l0,0.7Z" class="g2_2141" />
<path d="M69.9,816.2l782.1,0l0,-0.7l-782.1,0l0,0.7Z" class="g2_2141" />
<path d="M69.9,840.7l782.1,0l0,-0.8l-782.1,0l0,0.8Z" class="g2_2141" />
<path d="M69.9,881.9l782.1,0l0,-0.7l-782.1,0l0,0.7Z" class="g2_2141" />
<path d="M69.9,906.4l782.1,0l0,-0.7l-782.1,0l0,0.7Z" class="g2_2141" />
<path d="M69.9,930.8l782.1,0l0,-0.7l-782.1,0l0,0.7Z" class="g2_2141" />
<path d="M69.9,955.3l782.1,0l0,-0.8l-782.1,0l0,0.8Z" class="g2_2141" />
<path d="M69.9,979.7l782.1,0l0,-0.7L69.9,979l0,0.7Z" class="g2_2141" />
<path d="M69.9,1021l782.1,0l0,-0.7l-782.1,0l0,0.7Z" class="g2_2141" />
<path d="M69.9,1045.4l782.1,0l0,-0.8l-782.1,0l0,0.8Z" class="g2_2141" />
<path d="M69.9,1069.8l782.1,0l0,-0.7l-782.1,0l0,0.7Z" class="g2_2141" />
<path d="M69.9,1094.3l782.1,0l0,-0.7l-782.1,0l0,0.7Z" class="g2_2141" />
</svg>