<?xml version="1.0" encoding="UTF-8" standalone="no"?>
<!DOCTYPE svg PUBLIC "-//W3C//DTD SVG 1.1//EN"
"http://www.w3.org/Graphics/SVG/1.1/DTD/svg11.dtd">
<svg viewBox="0 0 935 1210" version="1.1" xmlns="http://www.w3.org/2000/svg" xmlns:xlink="http://www.w3.org/1999/xlink">
<defs>
<style type="text/css"><![CDATA[
.g1_929{
fill: #FFFFFF;
}
.g2_929{
}
]]></style>
</defs>
<path d="M68.9,1149.3l686.3,0l0,-21.2l-686.3,0l0,21.2Z" class="g1_929" />
<path d="M771.3,1149.3l83.7,0l0,-21.2l-83.7,0l0,21.2Z" class="g1_929" />
<path d="M72.1,658.1l0.7,0l0,-532.4l-0.7,0l0,532.4Z" class="g2_929" />
<path d="M390.2,658.9l0.8,0l0,-534l-0.8,0l0,534Z" class="g2_929" />
<path d="M428,658.9l0.7,0l0,-534l-0.7,0l0,534Z" class="g2_929" />
<path d="M501.4,658.9l0.7,0l0,-534l-0.7,0l0,534Z" class="g2_929" />
<path d="M572.8,658.9l0.8,0l0,-534l-0.8,0l0,534Z" class="g2_929" />
<path d="M849.9,658.1l0.8,0l0,-532.4l-0.8,0l0,532.4Z" class="g2_929" />
<path d="M72.1,125.7l778.6,0l0,-0.8l-778.6,0l0,0.8Z" class="g2_929" />
<path d="M72.1,179.1l778.6,0l0,-0.7l-778.6,0l0,0.7Z" class="g2_929" />
<path d="M72.1,235.7l778.6,0l0,-0.8l-778.6,0l0,0.8Z" class="g2_929" />
<path d="M72.1,292.1l778.6,0l0,-0.7l-778.6,0l0,0.7Z" class="g2_929" />
<path d="M72.1,365.5l778.6,0l0,-0.8l-778.6,0l0,0.8Z" class="g2_929" />
<path d="M72.1,438.9l778.6,0l0,-0.7l-778.6,0l0,0.7Z" class="g2_929" />
<path d="M72.1,512.2l778.6,0l0,-0.7l-778.6,0l0,0.7Z" class="g2_929" />
<path d="M72.1,585.6l778.6,0l0,-0.8l-778.6,0l0,0.8Z" class="g2_929" />
<path d="M72.1,658.9l778.6,0l0,-0.7l-778.6,0l0,0.7Z" class="g2_929" />
<path d="M71.6,885.8l0.7,0l0,-72.6l-0.7,0l0,72.6Z" class="g2_929" />
<path d="M136.4,886.5l0.7,0l0,-74.1l-0.7,0l0,74.1Z" class="g2_929" />
<path d="M311.8,886.5l0.7,0l0,-74.1l-0.7,0l0,74.1Z" class="g2_929" />
<path d="M490.4,886.5l0.8,0l0,-74.1l-0.8,0l0,74.1Z" class="g2_929" />
<path d="M666,886.5l0.7,0l0,-74.1l-0.7,0l0,74.1Z" class="g2_929" />
<path d="M850.4,885.8l0.7,0l0,-72.6l-0.7,0l0,72.6Z" class="g2_929" />
<path d="M71.6,813.2l779.5,0l0,-0.8l-779.5,0l0,0.8Z" class="g2_929" />
<path d="M71.6,837.7l779.5,0l0,-0.8l-779.5,0l0,0.8Z" class="g2_929" />
<path d="M71.6,862l779.5,0l0,-0.7l-779.5,0l0,0.7Z" class="g2_929" />
<path d="M71.6,886.5l779.5,0l0,-0.7l-779.5,0l0,0.7Z" class="g2_929" />
</svg>