<?xml version="1.0" encoding="UTF-8" standalone="no"?>
<!DOCTYPE svg PUBLIC "-//W3C//DTD SVG 1.1//EN"
"http://www.w3.org/Graphics/SVG/1.1/DTD/svg11.dtd">
<svg viewBox="0 0 935 1210" version="1.1" xmlns="http://www.w3.org/2000/svg" xmlns:xlink="http://www.w3.org/1999/xlink">
<defs>
<style type="text/css"><![CDATA[
.g1_1122{
fill: #FFFFFF;
}
.g2_1122{
}
]]></style>
</defs>
<path d="M165,1149.3l687.5,0l0,-21.2l-687.5,0l0,21.2Z" class="g1_1122" />
<path d="M68.8,1149.3l82.5,0l0,-21.2l-82.5,0l0,21.2Z" class="g1_1122" />
<path d="M65,276.2l0.7,0l0,-168.9l-0.7,0l0,168.9Z" class="g2_1122" />
<path d="M387.7,276.9l0.7,0l0,-170.3l-0.7,0l0,170.3Z" class="g2_1122" />
<path d="M425.5,276.9l0.8,0l0,-170.3l-0.8,0l0,170.3Z" class="g2_1122" />
<path d="M498.8,276.9l0.8,0l0,-170.3l-0.8,0l0,170.3Z" class="g2_1122" />
<path d="M579.4,276.9l0.8,0l0,-170.3l-0.8,0l0,170.3Z" class="g2_1122" />
<path d="M855.4,276.2l0.8,0l0,-168.9l-0.8,0l0,168.9Z" class="g2_1122" />
<path d="M64.9,107.3l791.3,0l0,-0.7l-791.3,0l0,0.7Z" class="g2_1122" />
<path d="M64.9,163.8l791.3,0l0,-0.7l-791.3,0l0,0.7Z" class="g2_1122" />
<path d="M64.9,220.4l791.3,0l0,-0.8l-791.3,0l0,0.8Z" class="g2_1122" />
<path d="M64.9,276.9l791.3,0l0,-0.7l-791.3,0l0,0.7Z" class="g2_1122" />
<path d="M70.9,528.3l0.7,0l0,-121.5l-0.7,0l0,121.5Z" class="g2_1122" />
<path d="M132.6,529l0.8,0l0,-123l-0.8,0l0,123Z" class="g2_1122" />
<path d="M305.4,529l0.8,0l0,-123l-0.8,0l0,123Z" class="g2_1122" />
<path d="M483,529l0.7,0l0,-123l-0.7,0l0,123Z" class="g2_1122" />
<path d="M661.4,529l0.7,0l0,-123l-0.7,0l0,123Z" class="g2_1122" />
<path d="M849.6,528.3l0.7,0l0,-121.5l-0.7,0l0,121.5Z" class="g2_1122" />
<path d="M70.8,406.8l779.5,0l0,-0.7l-779.5,0l0,0.7Z" class="g2_1122" />
<path d="M70.8,431.2l779.5,0l0,-0.7l-779.5,0l0,0.7Z" class="g2_1122" />
<path d="M70.8,455.7l779.5,0l0,-0.8l-779.5,0l0,0.8Z" class="g2_1122" />
<path d="M70.8,480.2l779.5,0l0,-0.8l-779.5,0l0,0.8Z" class="g2_1122" />
<path d="M70.8,504.5l779.5,0l0,-0.7l-779.5,0l0,0.7Z" class="g2_1122" />
<path d="M70.8,529l779.5,0l0,-0.7l-779.5,0l0,0.7Z" class="g2_1122" />
</svg>