<?xml version="1.0" encoding="UTF-8" standalone="no"?>
<!DOCTYPE svg PUBLIC "-//W3C//DTD SVG 1.1//EN"
"http://www.w3.org/Graphics/SVG/1.1/DTD/svg11.dtd">
<svg viewBox="0 0 935 1210" version="1.1" xmlns="http://www.w3.org/2000/svg" xmlns:xlink="http://www.w3.org/1999/xlink">
<defs>
<style type="text/css"><![CDATA[
.g1_525{
fill: #FFFFFF;
}
.g2_525{
}
]]></style>
</defs>
<path d="M68.9,1149.3l686.3,0l0,-21.2l-686.3,0l0,21.2Z" class="g1_525" />
<path d="M771.3,1149.3l83.7,0l0,-21.2l-83.7,0l0,21.2Z" class="g1_525" />
<path d="M69.5,208.9l0.7,0l0,-77.1l-0.7,0l0,77.1Z" class="g2_525" />
<path d="M195.8,209.7l0.7,0l0,-78.7l-0.7,0l0,78.7Z" class="g2_525" />
<path d="M346.3,209.7l0.7,0L347,131l-0.7,0l0,78.7Z" class="g2_525" />
<path d="M420,209.7l0.7,0l0,-78.7l-0.7,0l0,78.7Z" class="g2_525" />
<path d="M511.2,209.7l0.8,0L512,131l-0.8,0l0,78.7Z" class="g2_525" />
<path d="M852.5,208.9l0.7,0l0,-77.1l-0.7,0l0,77.1Z" class="g2_525" />
<path d="M69.5,131.7l783.7,0l0,-0.7L69.5,131l0,0.7Z" class="g2_525" />
<path d="M69.5,169.9l783.7,0l0,-0.7l-783.7,0l0,0.7Z" class="g2_525" />
<path d="M69.5,209.6l783.7,0l0,-0.7l-783.7,0l0,0.7Z" class="g2_525" />
<path d="M71.7,589.3l0.7,0l0,-219.2l-0.7,0l0,219.2Z" class="g2_525" />
<path d="M144.5,590.2l2.3,0l0,-194.8l-2.3,0l0,194.8Z" class="g2_525" />
<path d="M217.9,590.2l2.3,0l0,-197.1l-2.3,0l0,197.1Z" class="g2_525" />
<path d="M292.1,590.2l0.8,0l0,-197.1l-0.8,0l0,197.1Z" class="g2_525" />
<path d="M365.7,590.2l0.7,0l0,-197.1l-0.7,0l0,197.1Z" class="g2_525" />
<path d="M439.2,590.2l0.7,0l0,-197.1l-0.7,0l0,197.1Z" class="g2_525" />
<path d="M551.6,590.2l0.8,0l0,-197.1l-0.8,0l0,197.1Z" class="g2_525" />
<path d="M625.2,590.2l0.7,0l0,-197.1l-0.7,0l0,197.1Z" class="g2_525" />
<path d="M703.4,590.2l0.7,0l0,-197.1l-0.7,0l0,197.1Z" class="g2_525" />
<path d="M776.9,590.2l0.7,0l0,-197.1l-0.7,0l0,197.1Z" class="g2_525" />
<path d="M850.3,589.3l0.7,0l0,-219.2l-0.7,0l0,219.2Z" class="g2_525" />
<path d="M71.7,370.1l779.3,0l0,-0.8l-779.3,0l0,0.8Z" class="g2_525" />
<path d="M144.4,395.4l706.6,0l0,-2.3l-706.6,0l0,2.3Z" class="g2_525" />
<path d="M144.4,419.8l706.6,0l0,-2.3l-706.6,0l0,2.3Z" class="g2_525" />
<path d="M144.4,443.5l706.6,0l0,-0.8l-706.6,0l0,0.8Z" class="g2_525" />
<path d="M144.4,467.9l706.6,0l0,-0.8l-706.6,0l0,0.8Z" class="g2_525" />
<path d="M144.4,492.3l706.6,0l0,-0.7l-706.6,0l0,0.7Z" class="g2_525" />
<path d="M144.4,516.8l706.6,0l0,-0.7l-706.6,0l0,0.7Z" class="g2_525" />
<path d="M144.4,541.2l706.6,0l0,-0.7l-706.6,0l0,0.7Z" class="g2_525" />
<path d="M144.4,565.7l706.6,0l0,-0.8l-706.6,0l0,0.8Z" class="g2_525" />
<path d="M71.7,590.2l779.3,0l0,-0.8l-779.3,0l0,0.8Z" class="g2_525" />
</svg>