<?xml version="1.0" encoding="UTF-8" standalone="no"?>
<!DOCTYPE svg PUBLIC "-//W3C//DTD SVG 1.1//EN"
"http://www.w3.org/Graphics/SVG/1.1/DTD/svg11.dtd">
<svg viewBox="0 0 935 1210" version="1.1" xmlns="http://www.w3.org/2000/svg" xmlns:xlink="http://www.w3.org/1999/xlink">
<defs>
<style type="text/css"><![CDATA[
.g1_1136{
fill: #FFFFFF;
}
.g2_1136{
}
]]></style>
</defs>
<path d="M165,1149.3l687.5,0l0,-21.2l-687.5,0l0,21.2Z" class="g1_1136" />
<path d="M68.8,1149.3l82.5,0l0,-21.2l-82.5,0l0,21.2Z" class="g1_1136" />
<path d="M67.3,179.9l0.7,0l0,-72.6l-0.7,0l0,72.6Z" class="g2_1136" />
<path d="M386.6,180.7l0.7,0l0,-74.1l-0.7,0l0,74.1Z" class="g2_1136" />
<path d="M424.3,180.7l0.8,0l0,-74.1l-0.8,0l0,74.1Z" class="g2_1136" />
<path d="M497.7,180.7l0.8,0l0,-74.1l-0.8,0l0,74.1Z" class="g2_1136" />
<path d="M577.1,180.7l0.8,0l0,-74.1l-0.8,0l0,74.1Z" class="g2_1136" />
<path d="M853.1,179.9l0.8,0l0,-72.6l-0.8,0l0,72.6Z" class="g2_1136" />
<path d="M67.2,107.3l786.7,0l0,-0.7l-786.7,0l0,0.7Z" class="g2_1136" />
<path d="M67.2,180.7l786.7,0l0,-0.8l-786.7,0l0,0.8Z" class="g2_1136" />
<path d="M70.2,407.6l0.8,0l0,-97l-0.8,0l0,97Z" class="g2_1136" />
<path d="M134.9,408.3l0.8,0l0,-98.6l-0.8,0l0,98.6Z" class="g2_1136" />
<path d="M310.4,408.3l0.7,0l0,-98.6l-0.7,0l0,98.6Z" class="g2_1136" />
<path d="M485.5,408.3l0.7,0l0,-98.6l-0.7,0l0,98.6Z" class="g2_1136" />
<path d="M661.6,408.3l0.7,0l0,-98.6l-0.7,0l0,98.6Z" class="g2_1136" />
<path d="M850.1,407.6l0.7,0l0,-97l-0.7,0l0,97Z" class="g2_1136" />
<path d="M70.2,310.5l780.7,0l0,-0.8l-780.7,0l0,0.8Z" class="g2_1136" />
<path d="M70.2,334.9l780.7,0l0,-0.7l-780.7,0l0,0.7Z" class="g2_1136" />
<path d="M70.2,359.4l780.7,0l0,-0.7l-780.7,0l0,0.7Z" class="g2_1136" />
<path d="M70.2,383.8l780.7,0l0,-0.7l-780.7,0l0,0.7Z" class="g2_1136" />
<path d="M70.2,408.3l780.7,0l0,-0.8l-780.7,0l0,0.8Z" class="g2_1136" />
</svg>