<?xml version="1.0" encoding="UTF-8" standalone="no"?>
<!DOCTYPE svg PUBLIC "-//W3C//DTD SVG 1.1//EN"
"http://www.w3.org/Graphics/SVG/1.1/DTD/svg11.dtd">
<svg viewBox="0 0 935 1210" version="1.1" xmlns="http://www.w3.org/2000/svg" xmlns:xlink="http://www.w3.org/1999/xlink">
<defs>
<style type="text/css"><![CDATA[
.g1_1442{
fill: #FFFFFF;
}
.g2_1442{
}
]]></style>
</defs>
<path d="M165,1149.3l687.5,0l0,-21.2l-687.5,0l0,21.2Z" class="g1_1442" />
<path d="M68.8,1149.3l82.5,0l0,-21.2l-82.5,0l0,21.2Z" class="g1_1442" />
<path d="M83.5,726.8l0.7,0l0,-602.7l-0.7,0l0,602.7Z" class="g2_1442" />
<path d="M836.8,726.8l0.8,0l0,-602.7l-0.8,0l0,602.7Z" class="g2_1442" />
<path d="M83.5,124.1l754.1,0l0,-0.7l-754.1,0l0,0.7Z" class="g2_1442" />
<path d="M83.5,727.6l754.1,0l0,-0.8l-754.1,0l0,0.8Z" class="g2_1442" />
<path d="M254,685.1l440.4,0l0,-0.7l-440.4,0l0,0.7Z" class="g2_1442" />
<path d="M693.6,705.4l0.8,0l0,-20.6l-0.8,0l0,20.6Z" class="g2_1442" />
<path d="M253.6,705.4l440.4,0l0,-0.8l-440.4,0l0,0.8Z" class="g2_1442" />
<path d="M253.6,705l0.8,0l0,-20.6l-0.8,0l0,20.6Z" class="g2_1442" />
<path d="M583.6,685.2l0.8,0l0,-0.4l-0.8,0l0,0.4Z" class="g2_1442" />
<path d="M583.6,705.4l0.8,0l0,-20.2l-0.8,0l0,20.2Z" class="g2_1442" />
<path d="M473.6,685.2l0.8,0l0,-0.4l-0.8,0l0,0.4Z" class="g2_1442" />
<path d="M473.6,705.4l0.8,0l0,-20.2l-0.8,0l0,20.2Z" class="g2_1442" />
<path d="M363.6,685.2l0.8,0l0,-0.4l-0.8,0l0,0.4Z" class="g2_1442" />
<path d="M363.6,705.4l0.8,0l0,-20.2l-0.8,0l0,20.2Z" class="g2_1442" />
<path d="M525.5,417l106,0l0,-0.7l-106,0l0,0.7Z" class="g2_1442" />
<path d="M630.8,435.3l0.7,0l0,-18.7l-0.7,0l0,18.7Z" class="g2_1442" />
<path d="M525.2,435.3l105.9,0l0,-0.7l-105.9,0l0,0.7Z" class="g2_1442" />
<path d="M525.2,435l0.7,0l0,-18.7l-0.7,0l0,18.7Z" class="g2_1442" />
<path d="M551.6,416.6l0.7,0l0,-0.3l-0.7,0l0,0.3Z" class="g2_1442" />
<path d="M551.6,435l0.7,0l0,-18.4l-0.7,0l0,18.4Z" class="g2_1442" />
<path d="M578,416.6l0.7,0l0,-0.3l-0.7,0l0,0.3Z" class="g2_1442" />
<path d="M578,435l0.7,0l0,-18.4l-0.7,0l0,18.4Z" class="g2_1442" />
<path d="M604.4,416.6l0.7,0l0,-0.3l-0.7,0l0,0.3Z" class="g2_1442" />
<path d="M604.4,435l0.7,0l0,-18.4l-0.7,0l0,18.4Z" class="g2_1442" />
<path d="M525.5,467l106,0l0,-0.8l-106,0l0,0.8Z" class="g2_1442" />
<path d="M630.8,485.3l0.7,0l0,-18.7l-0.7,0l0,18.7Z" class="g2_1442" />
<path d="M525.2,485.3l105.9,0l0,-0.7l-105.9,0l0,0.7Z" class="g2_1442" />
<path d="M525.2,484.9l0.7,0l0,-18.7l-0.7,0l0,18.7Z" class="g2_1442" />
<path d="M551.6,466.6l0.7,0l0,-0.4l-0.7,0l0,0.4Z" class="g2_1442" />
<path d="M551.6,484.8l0.7,0l0,-18.2l-0.7,0l0,18.2Z" class="g2_1442" />
<path d="M578,466.6l0.7,0l0,-0.4l-0.7,0l0,0.4Z" class="g2_1442" />
<path d="M578,484.8l0.7,0l0,-18.2l-0.7,0l0,18.2Z" class="g2_1442" />
<path d="M604.4,466.6l0.7,0l0,-0.4l-0.7,0l0,0.4Z" class="g2_1442" />
<path d="M604.4,484.8l0.7,0l0,-18.2l-0.7,0l0,18.2Z" class="g2_1442" />
<path d="M526.3,381.3l105.9,0l0,-0.7l-105.9,0l0,0.7Z" class="g2_1442" />
<path d="M631.5,399.7l0.7,0l0,-18.7l-0.7,0l0,18.7Z" class="g2_1442" />
<path d="M525.9,399.7l106,0l0,-0.8l-106,0l0,0.8Z" class="g2_1442" />
<path d="M525.9,399.3l0.7,0l0,-18.7l-0.7,0l0,18.7Z" class="g2_1442" />
<path d="M552.3,381l0.7,0l0,-0.4l-0.7,0l0,0.4Z" class="g2_1442" />
<path d="M552.3,399.3l0.7,0L553,381l-0.7,0l0,18.3Z" class="g2_1442" />
<path d="M578.7,381l0.7,0l0,-0.4l-0.7,0l0,0.4Z" class="g2_1442" />
<path d="M578.7,399.3l0.7,0l0,-18.3l-0.7,0l0,18.3Z" class="g2_1442" />
<path d="M605.1,381l0.7,0l0,-0.4l-0.7,0l0,0.4Z" class="g2_1442" />
<path d="M605.1,399.3l0.7,0l0,-18.3l-0.7,0l0,18.3Z" class="g2_1442" />
<path d="M375.8,651.1l-1.4,0.2l-1.4,0.4l0.1,0l-1.3,0.7l0.1,-0.1l-1,0.8l-0.9,1.1l0.1,-0.1l-0.8,1.3l0,-0.1l-0.3,1.4l-0.2,1.5l0,-0.1l0.2,1.4l0,-0.1l0.3,1.4l0,-0.1l0.8,1.2l-0.1,0l0.9,1.1l0,-0.1l1,0.9l-0.1,0l1.3,0.7l0,-0.1l1.4,0.5l-0.1,0l1.4,0.1l-0.1,0l0.7,0l1.5,-0.1l-0.1,0l1.3,-0.5l-0.1,0.1l1.3,-0.7l1,-0.9l-0.1,0.1l1,-1.1l0.7,-1.2l-0.1,0.1l0.4,-1.4l0,0.1l0.2,-1.4l0,0.1l-0.2,-1.5l-0.4,-1.4l0.1,0.1l-0.7,-1.3l0,0.1l-1,-1.1l0.1,0l-1,-0.8l0,0.1L379,651.7l0.1,0l-1.3,-0.4l0.1,0l-1.5,-0.2l-0.7,0l0,-0.7l0.4,0c2.6,-0.1,5.2,1.2,6.6,3.4l0.1,0l0.7,1.2l0,0.1c1.1,3.2,0.7,6,-1.7,8.4l-1,0.9l-0.1,0.1c-2.3,1.4,-5.4,1.7,-7.9,0.6l-0.1,0l-1.3,-0.6l0,-0.1l-1,-0.9l-0.1,0l-0.9,-1.1l0,-0.1l-0.7,-1.2L368.6,661l-0.4,-1.4L368,658.2l0,-0.1l0.2,-1.5l0,-0.1c0.4,-2.6,3.3,-5.6,6,-5.9l0.1,0l1.4,-0.2Z" class="g2_1442" />
<path d="M375.7,651.1l0.1,0l-0.1,-0.7Z" class="g2_1442" />
<path d="M535.9,439.4l-1.3,0.1l-1.2,0.4l0.1,0l-1,0.6l0.1,-0.1l-0.9,0.7l-0.9,0.9l0.1,-0.1l-0.5,1.1l0,-0.1l-0.4,1.2l-0.1,1.3l0,-0.1l0.1,1.3l0,-0.1l0.4,1.1l0,-0.1l0.5,1.1l-0.1,0l0.9,0.9l0,-0.1l0.9,0.8l-0.1,0l1,0.6l-0.1,-0.1l1.2,0.4l1.3,0.1l-0.1,0l2.7,0l1.3,-0.1l-0.1,0l1.1,-0.4l-0.1,0.1l1.1,-0.6l1,-0.8l-0.1,0.1l0.8,-0.9l0.5,-1.1l0,0.1l0.3,-1.1l0,0.1l0.1,-1.3l0,0.1l-0.1,-1.3L544,442.9l0,0.1l-0.5,-1.1l0,0.1l-0.8,-0.9l0.1,0l-1,-0.7l0,0.1l-1.1,-0.6l0.1,0l-1.1,-0.4l0.1,0l-1.3,-0.1l-2.7,0l0,-0.8l2.8,0l1.3,0.2l0.1,0l1.1,0.4l0,0.1l1.1,0.5l0.1,0l0.9,0.7l0,0.1l0.8,1l0.1,0l0.6,1.1c0.9,2.4,0.5,5.6,-1.5,7.3l-0.9,0.7l-0.1,0.1l-1.1,0.7l-1.1,0.3l-0.1,0l-1.3,0.1l-2.8,0l-1.3,-0.1l-0.1,0l-1.2,-0.3l-0.1,0l-1,-0.7l0,-0.1L531.2,450l-0.1,0l-0.8,-0.9l0,-0.1l-0.6,-1.1l-0.4,-1.1l0,-0.1c-0.2,-1.3,-0.2,-2.7,0.4,-4l0.6,-1.1c1,-1.4,2.5,-2.4,4.1,-2.8l0.1,0l1.3,-0.2Z" class="g2_1442" />
<path d="M535.8,439.4l0.1,0l-0.1,-0.8Z" class="g2_1442" />
<path d="M530.1,453l-1.2,0.1l0.1,0l-1.1,0.4l-1.1,0.5l0.1,-0.1l-0.8,0.8l-0.8,0.9l0,-0.1l-0.5,1l0,-0.1l-0.3,1.2l-0.2,1.2l0,-0.1l0.2,1.2l0,-0.1l0.3,1.2l0,-0.1l0.5,1l0.8,0.9l0,-0.1l0.8,0.8l-0.1,0l1.1,0.5l0,-0.1l1.1,0.4l-0.1,0l1.2,0.1l-0.1,0l16.1,0l1.2,-0.1l1.1,-0.4l-0.1,0.1l1,-0.5l0.9,-0.8l-0.1,0.1l0.7,-0.9l0.6,-1l-0.1,0.1l0.4,-1.2l0,0.1l0,-1.2l0,0.1l0,-1.2l-0.4,-1.2l0.1,0.1l-0.6,-1l0,0.1l-0.7,-0.9l0.1,0l-0.9,-0.8l0,0.1l-1,-0.5l0.1,0l-1.1,-0.4L546.1,453L530,453l0,-0.7l16.2,0l1.2,0.1l0.1,0l1.1,0.3l0,0.1l1,0.6l0.1,0l0.9,0.7l0,0.1l0.8,0.9l0.1,0l0.5,1l0,0.1c1,2.4,0.5,5.2,-1.4,7.1l-0.9,0.7l-0.1,0.1l-1,0.6l-1.1,0.3l-0.1,0l-1.2,0.1l-16.2,0L528.8,465l-0.1,0l-1.1,-0.3l-0.1,0l-1.1,-0.6l0,-0.1l-0.8,-0.7l-0.1,0l-0.8,-0.9l0,-0.1l-0.5,-1l-0.1,-0.1L523.8,460l-0.2,-1.2l0,-0.1l0.2,-1.2l0,-0.1c0.3,-2.5,2.6,-4.4,4.9,-5l0.1,0l1.2,-0.1Z" class="g2_1442" />
<path d="M530,453l0.1,0L530,452.3Z" class="g2_1442" />
<path d="M619.5,439.4l-1.3,0.1l-1.2,0.4l0.1,0l-1,0.6l0.1,-0.1l-0.9,0.7l-0.9,0.9l0.1,-0.1L614,443l0,-0.1l-0.4,1.2l-0.1,1.3l0,-0.1l0.1,1.3l0,-0.1l0.4,1.1l0,-0.1l0.5,1.1l-0.1,0l0.9,0.9l0,-0.1l0.9,0.8l-0.1,0l1,0.6L617,450.7l1.2,0.4l1.3,0.1l-0.1,0l2.7,0l1.3,-0.1l-0.1,0l1.2,-0.4l-0.1,0.1l1,-0.6l1,-0.8l-0.1,0.1l0.8,-0.9l0.5,-1.1l0,0.1l0.3,-1.1l0,0.1l0.1,-1.3l0,0.1l-0.1,-1.3l-0.3,-1.2l0,0.1l-0.5,-1.1l0,0.1l-0.8,-0.9l0.1,0l-1,-0.7l0,0.1l-1,-0.6l0.1,0l-1.2,-0.4l0.1,0l-1.3,-0.1l-2.7,0l0,-0.8l1.4,0c2.7,-0.2,5.2,0.7,6.8,3l0.1,0l0.6,1.1c0.9,2.4,0.5,5.6,-1.5,7.3l-0.9,0.7l-0.1,0.1l-1,0.7l-0.1,0l-1.2,0.3l-1.3,0.1l-2.8,0l-1.3,-0.1l-0.1,0l-1.2,-0.3l-0.1,0l-1,-0.7l0,-0.1L614.8,450l-0.1,0l-0.8,-0.9l0,-0.1l-0.6,-1.1l-0.4,-1.1l0,-0.1c-0.2,-1.3,-0.2,-2.7,0.4,-4l0.6,-1.1c1,-1.4,2.5,-2.4,4.1,-2.8l0.1,0l1.3,-0.2Z" class="g2_1442" />
<path d="M619.4,439.4l0.1,0l-0.1,-0.8Z" class="g2_1442" />
<path d="M613.7,453l-1.2,0.1l0.1,0l-1.1,0.4l-1.1,0.5l0.1,-0.1l-0.8,0.8l-0.8,0.9l0.1,-0.1l-0.6,1l0,-0.1l-0.3,1.2l-0.2,1.2l0,-0.1l0.2,1.2l0,-0.1l0.3,1.2l0,-0.1l0.6,1l-0.1,0l0.8,0.9l0,-0.1l0.8,0.8l-0.1,0l1.1,0.5l0,-0.1l1.1,0.4l-0.1,0l1.2,0.1l-0.1,0l16.1,0l1.2,-0.1l1.1,-0.4l-0.1,0.1l1,-0.5l0.9,-0.8l-0.1,0.1l0.7,-0.9l0.6,-1l-0.1,0.1l0.4,-1.2l0,0.1l0,-1.2l0,0.1l0,-1.2l-0.4,-1.2l0.1,0.1l-0.6,-1l0,0.1l-0.7,-0.9l0.1,0l-0.9,-0.8l0,0.1l-1,-0.5l0.1,0l-1.1,-0.4L629.7,453l-16.1,0l0,-0.7l16.2,0l1.2,0.1l0.1,0l1.1,0.3l0,0.1l1,0.6l0.1,0l0.9,0.7l0,0.1l0.8,0.9l0.1,0l0.5,1l0,0.1c1,2.4,0.5,5.2,-1.4,7.1l-0.9,0.7l-0.1,0.1l-1,0.6l-1.1,0.3l-0.1,0l-1.2,0.1l-16.2,0L612.4,465l-0.1,0l-1.1,-0.3l-0.1,0L610,464.1l0,-0.1l-0.8,-0.7l-0.1,0l-0.7,-0.9l0,-0.1l-0.6,-1l-0.1,-0.1L607.4,460l-0.2,-1.2l0,-0.1l0.2,-1.2l0,-0.1c0.2,-2.2,2.7,-4.6,4.9,-5l0.1,0l1.2,-0.1Z" class="g2_1442" />
<path d="M613.6,453l0.1,0l-0.1,-0.7Z" class="g2_1442" />
<path d="M563.8,439.4l-1.3,0.1l-1.2,0.4l0.1,0l-1,0.6l0,-0.1l-0.9,0.7l-0.8,0.9l0.1,-0.1l-0.6,1.1l0,-0.1l-0.3,1.2l-0.1,1.3l0,-0.1l0.1,1.3l0,-0.1l0.3,1.1l0,-0.1l0.6,1.1l-0.1,0l0.8,0.9l0,-0.1l0.9,0.8l1,0.6l-0.1,-0.1l1.2,0.4l1.3,0.1l-0.1,0l2.7,0l1.3,-0.1l-0.1,0l1.2,-0.4l-0.1,0.1l1,-0.6l0.9,-0.8l-0.1,0.1l0.9,-0.9l0.5,-1.1l-0.1,0.1l0.4,-1.1l0,0.1l0.1,-1.3l0,0.1l-0.1,-1.3l-0.4,-1.2l0.1,0.1l-0.5,-1.1l0,0.1l-0.9,-0.9l0.1,0l-0.9,-0.7l0,0.1l-1,-0.6l0.1,0l-1.2,-0.4l0.1,0l-1.3,-0.1l-2.7,0l0,-0.8l1.3,0c2.8,-0.2,5.3,0.7,6.9,3l0.1,0l0.6,1.1c0.9,2.4,0.5,5.6,-1.5,7.3l-0.9,0.7l-0.1,0.1l-1,0.7l-0.1,0l-1.2,0.3l-1.3,0.1l-2.8,0l-1.3,-0.1l-0.1,0l-1.2,-0.3l-0.1,0l-1,-0.7l0,-0.1L559.1,450l-0.1,0l-0.8,-0.9l0,-0.1l-0.6,-1.1l-0.1,0l-0.4,-1.1l0,-0.1c-0.1,-1.3,-0.1,-2.7,0.4,-4l0.1,0l0.6,-1.1c1,-1.4,2.4,-2.4,4.1,-2.8l0.1,0l1.3,-0.2Z" class="g2_1442" />
<path d="M563.7,439.4l0.1,0l-0.1,-0.8Z" class="g2_1442" />
<path d="M558,453l-1.2,0.1l0.1,0l-1.1,0.4l-1.1,0.5l0.1,-0.1l-0.9,0.8l-0.8,0.9l0.1,-0.1l-0.5,1l0,-0.1l-0.3,1.2l-0.2,1.2l0,-0.1l0.2,1.2l0,-0.1l0.3,1.2l0,-0.1l0.5,1l-0.1,0l0.8,0.9l0,-0.1l0.9,0.8l-0.1,0l1.1,0.5l0,-0.1l1.1,0.4l-0.1,0l1.2,0.1l-0.1,0l16,0l1.3,-0.1l-0.1,0l1.1,-0.4l-0.1,0.1l1,-0.5l1,-0.8l-0.1,0.1l0.7,-0.9l0.5,-1l-0.1,0.1l0.4,-1.2l0,0.1l0.1,-1.2l0,0.1l-0.1,-1.2l-0.4,-1.2l0.1,0.1l-0.5,-1l0,0.1L578,454.7l0.1,0l-1,-0.8l0,0.1l-1,-0.5l0.1,0l-1.1,-0.4l0.1,0L573.9,453l-16,0l0,-0.7l16.1,0l1.3,0.1l0.1,0l1.1,0.3l0,0.1l1,0.6l0.1,0l0.9,0.7l0,0.1l0.7,0.9l0.1,0l0.6,1l0,0.1c0.9,2.4,0.5,5.2,-1.4,7.1l-0.9,0.7l-0.1,0.1l-1,0.6l-1.1,0.3l-0.1,0l-1.3,0.1l-16.1,0L556.7,465l-0.1,0l-1.1,-0.3l-0.1,0l-1.1,-0.6l0,-0.1l-0.8,-0.7l-0.1,0l-0.8,-0.9l0,-0.1l-0.6,-1l-0.1,-0.1L551.6,460l-0.1,-1.2l0,-0.1l0.1,-1.2l0,-0.1c0.4,-2.5,2.7,-4.4,5,-5l0.1,0l1.2,-0.1Z" class="g2_1442" />
<path d="M557.9,453l0.1,0l-0.1,-0.7Z" class="g2_1442" />
<path d="M591.6,439.4l-1.3,0.1l-1.2,0.4l0.1,0l-1,0.6l0.1,-0.1l-0.9,0.7l-0.8,0.9l0.1,-0.1l-0.6,1.1l0,-0.1l-0.4,1.2l0,1.3l0,-0.1l0,1.3l0,-0.1l0.4,1.1l0,-0.1l0.6,1.1l-0.1,0l0.8,0.9l0,-0.1l0.9,0.8l-0.1,0l1,0.6l-0.1,-0.1l1.2,0.4l1.3,0.1l-0.1,0l2.8,0l1.3,-0.1l-0.1,0l1.2,-0.4l-0.1,0.1l1,-0.6l0.9,-0.8l-0.1,0.1l0.8,-0.9l0.6,-1.1l-0.1,0.1l0.3,-1.1l0,0.1l0.1,-1.3l0,0.1L600,444.1l-0.3,-1.2l0.1,0.1l-0.6,-1.1l0,0.1l-0.8,-0.9l0.1,0l-0.9,-0.7l0,0.1l-1,-0.6l0.1,0l-1.2,-0.4l0.1,0l-1.3,-0.1l-2.8,0l0,-0.8l1.4,0c2.8,-0.2,5.3,0.7,6.9,3l0.1,0l0.5,1.1c0.9,2.4,0.6,5.6,-1.5,7.3l-0.9,0.7l-0.1,0.1l-1,0.7l-0.1,0l-1.1,0.3l-1.3,0.1l-2.9,0l-1.3,-0.1L589,451.5l-0.1,0l-1,-0.7l0,-0.1l-1,-0.7l-0.1,0L586,449.1l0,-0.1l-0.5,-1.1l-0.1,0L585,446.8l0,-0.1c-0.1,-1.3,-0.2,-2.7,0.4,-4l0.1,0l0.5,-1.1c1.1,-1.4,2.5,-2.4,4.2,-2.8l1.3,-0.2Z" class="g2_1442" />
<path d="M591.5,439.4l0.1,0l-0.1,-0.8Z" class="g2_1442" />
<path d="M585.8,453l-1.2,0.1l0.1,0l-1.1,0.4l-1.1,0.5l0.1,-0.1l-0.8,0.8l-0.8,0.9l0.1,-0.1l-0.6,1l0,-0.1l-0.3,1.2l-0.1,1.2l0,-0.1l0.1,1.2l0,-0.1l0.3,1.2l0,-0.1l0.6,1l-0.1,0l0.8,0.9l0,-0.1l0.8,0.8l-0.1,0l1.1,0.5l0,-0.1l1.1,0.4l-0.1,0l1.2,0.1l-0.1,0l16.1,0l1.3,-0.1l-0.1,0l1.1,-0.4L604,464l1,-0.5l0.9,-0.8l-0.1,0.1l0.8,-0.9l0.5,-1L607,461l0.4,-1.2l0,0.1l0.1,-1.2l0,0.1l-0.1,-1.2L607,456.4l0.1,0.1l-0.5,-1l0,0.1l-0.8,-0.9l0.1,0L605,453.9l0,0.1l-1,-0.5l0.1,0L603,453.1l0.1,0L601.8,453l-16.1,0l0,-0.7l16.2,0l1.3,0.1l0.1,0l1.1,0.3l0,0.1l1,0.6l0.1,0l0.9,0.7l0,0.1l0.7,0.9l0.1,0l0.5,1l0,0.1c1,2.4,0.5,5.2,-1.3,7.1l-0.9,0.7l-0.1,0.1l-1,0.6l-1.1,0.3l-0.1,0l-1.3,0.1l-16.2,0L584.6,465l-0.1,0l-1.1,-0.3l-0.1,0l-1.1,-0.6l0,-0.1l-0.9,-0.7l-0.9,-0.9l0,-0.1l-0.5,-1l-0.1,-0.1L579.5,460l-0.2,-1.2l0,-0.1l0.2,-1.2l0,-0.1c0.3,-2.5,2.6,-4.4,5,-5l0.1,0l1.1,-0.1Z" class="g2_1442" />
<path d="M585.7,453l0.1,0l-0.1,-0.7Z" class="g2_1442" />
<path d="M619.9,437.1l0.7,0l0,-16.3l-0.7,0l0,16.3Z" class="g2_1442" />
<path d="M625.2,421.3l-0.8,-0.2L619.9,437l0,0.2l0.3,1.2l0.4,-1.2Z" class="g2_1442" />
<path d="M619.9,437.2l0.7,-0.2l-4.5,-15.9l-0.7,0.2Z" class="g2_1442" />
<path d="M619.9,388.9l0.7,0l0,-0.3l-0.7,0l0,0.3Z" class="g2_1442" />
<path d="M619.9,421.2l0.7,0l0,-32.3l-0.7,0l0,32.3Z" class="g2_1442" />
<path d="M538.9,437.8l0.7,0l0,-16.2l-0.7,0l0,16.2Z" class="g2_1442" />
<path d="M544.2,422l-0.7,-0.2l-4.6,15.9l0,0.2l0.4,1.3l0.3,-1.3Z" class="g2_1442" />
<path d="M538.9,437.9l0.7,-0.2l-4.5,-15.9l-0.8,0.2Z" class="g2_1442" />
<path d="M538.9,389.7l0.7,0l0,-0.4l-0.7,0l0,0.4Z" class="g2_1442" />
<path d="M538.9,421.9l0.7,0l0,-32.2l-0.7,0l0,32.2Z" class="g2_1442" />
<path d="M564.1,439.4l0.7,0l0,-16.3l-0.7,0l0,16.3Z" class="g2_1442" />
<path d="M569.4,423.6l-0.7,-0.2l-4.6,15.9l0,0.2l0.4,1.2l0.4,-1.2Z" class="g2_1442" />
<path d="M564.1,439.5l0.8,-0.2l-4.6,-15.9l-0.8,0.2Z" class="g2_1442" />
<path d="M564.1,391.2l0.7,0l0,-0.3l-0.7,0l0,0.3Z" class="g2_1442" />
<path d="M564.1,423.5l0.7,0l0,-32.3l-0.7,0l0,32.3Z" class="g2_1442" />
<path d="M592.4,437.1l0.7,0l0,-16.3l-0.7,0l0,16.3Z" class="g2_1442" />
<path d="M597.7,421.3l-0.8,-0.2L592.4,437l0,0.2l0.3,1.2l0.4,-1.2Z" class="g2_1442" />
<path d="M592.4,437.2l0.7,-0.2l-4.5,-15.9l-0.7,0.2Z" class="g2_1442" />
<path d="M592.4,388.9l0.7,0l0,-0.3l-0.7,0l0,0.3Z" class="g2_1442" />
<path d="M592.4,421.2l0.7,0l0,-32.3l-0.7,0l0,32.3Z" class="g2_1442" />
<path d="M649.7,659.1l-1.4,0.1l0.2,0l-1.4,0.4l-1.2,0.7l0.1,-0.1l-1.1,0.9l-0.9,1.1l0.1,-0.1l-0.7,1.3l-0.5,1.4l0,-0.2l0,1.4l0,1.5l0,-0.1l0.5,1.4l0,-0.1l0.7,1.2l-0.1,0l0.9,1.1l0,-0.1l1.1,0.9l-0.1,0l1.2,0.7l0,-0.1l1.4,0.4l-0.2,0l1.4,0.1l0.7,0l1.5,-0.1l-0.1,0l1.3,-0.4l-0.1,0.1l1.3,-0.7l1.1,-0.9l-0.1,0.1l0.9,-1.1l0.7,-1.2l-0.1,0.1l0.5,-1.4l0,0.1l0,-1.5l0,-1.4l0,0.2l-0.5,-1.4l0.1,0l-0.7,-1.3l0,0.1l-0.9,-1.1l0.1,0l-1.1,-0.9l0,0.1L653,659.6l0.1,0l-1.3,-0.4l0.1,0l-1.5,-0.1l-0.7,0l0,-0.8l0.7,0l1.5,0.1l0.2,0l1.3,0.5l0,0.1l1.3,0.6l0.1,0l1.1,0.9l0,0.1l0.9,1.1l0.1,0l0.6,1.3l0,0.1c1.2,2.8,0.6,6.3,-1.6,8.4l-1.1,0.9l-0.1,0.1c-2.2,1.4,-5.5,1.5,-7.9,0.6l-0.1,0l-1.2,-0.6l0,-0.1l-1.1,-0.9l-0.1,0l-0.9,-1.1l0,-0.1l-0.6,-1.2l-0.1,0l-0.5,-1.4l0,-0.2L642.1,666l0.1,-1.4l0,-0.1l0.5,-1.4l0.1,-0.1l0.6,-1.3l0.9,-1.1c1,-1,2.5,-1.8,3.9,-2.2l0.1,0l1.4,-0.1Z" class="g2_1442" />
<path d="M649.7,659.1l0,-0.8Z" class="g2_1442" />
<path d="M552.1,498.7l-0.5,0.5l12.3,10.6l0.6,-0.6Z" class="g2_1442" />
<path d="M555.3,495.5l-0.5,0.4l9.1,13.8l0.1,0.1l1.2,0.6l-0.7,-1.1Z" class="g2_1442" />
<path d="M564,509.9l0.4,-0.8l-15,-6.9L549,503Z" class="g2_1442" />
<path d="M539.6,487.9l-0.3,-0.1l-0.5,0.5l0.3,0.2Z" class="g2_1442" />
<path d="M552.1,498.7l0.3,0.1l-0.5,0.6l-0.2,-0.2Z" class="g2_1442" />
<path d="M539.6,487.9l-0.5,0.6l12.6,10.7l0.4,-0.5Z" class="g2_1442" />
<path d="M564.7,490.1l-0.8,0.1l3.7,15.9l0.7,-0.2Z" class="g2_1442" />
<path d="M569.2,489.5l-0.8,0L567.6,506l0,0.2l0.6,1.2l0.1,-1.4Z" class="g2_1442" />
<path d="M567.6,506.2l0.7,-0.4l-7.9,-14.4l-0.8,0.4Z" class="g2_1442" />
<path d="M563.3,484.3l-0.1,-0.4l-0.7,0.2l0.1,0.4Z" class="g2_1442" />
<path d="M564.7,490.1l0.1,0.3l-0.8,0.2l-0.1,-0.4Z" class="g2_1442" />
<path d="M563.3,484.3l-0.7,0.2l1.3,5.7l0.8,-0.1Z" class="g2_1442" />
<path d="M582.3,492.7l-0.8,-0.4l-7.6,14.3l0.8,0.4Z" class="g2_1442" />
<path d="M586,495.3l-0.5,-0.6L574,506.6l-0.1,0.1l-0.3,1.3l1,-0.9Z" class="g2_1442" />
<path d="M573.9,506.7l0.8,0.2l3.4,-16.1l-0.8,-0.2Z" class="g2_1442" />
<path d="M587,483.8l0.2,-0.3l-0.6,-0.3l-0.2,0.3Z" class="g2_1442" />
<path d="M582.3,492.7l-0.2,0.3l-0.7,-0.4l0.2,-0.3Z" class="g2_1442" />
<path d="M587,483.8l-0.6,-0.3l-4.8,8.8l0.7,0.4Z" class="g2_1442" />
<path d="M595.5,499.6L595.1,499l-13.6,8.8l0.4,0.6Z" class="g2_1442" />
<path d="M597.6,503.7L597.4,503l-15.8,4.7l-0.2,0.1l-0.9,1l1.3,-0.3Z" class="g2_1442" />
<path d="M581.4,507.8l0.6,0.6l10.8,-12.5l-0.5,-0.5Z" class="g2_1442" />
<path d="M617.4,485.6l0.3,-0.2l-0.4,-0.7l-0.3,0.2Z" class="g2_1442" />
<path d="M595.5,499.7l-0.3,0.2l-0.4,-0.7l0.3,-0.2Z" class="g2_1442" />
<path d="M617.4,485.6L617,484.9L595.1,499l0.4,0.7Z" class="g2_1442" />
<path d="M601.9,569l106,0l0,-0.8l-106,0l0,0.8Z" class="g2_1442" />
<path d="M707.1,587.3l0.8,0l0,-18.7l-0.8,0l0,18.7Z" class="g2_1442" />
<path d="M601.5,587.3l106,0l0,-0.7l-106,0l0,0.7Z" class="g2_1442" />
<path d="M601.5,586.9l0.8,0l0,-18.7l-0.8,0l0,18.7Z" class="g2_1442" />
<path d="M627.9,586.9l0.8,0l0,-18.7l-0.8,0l0,18.7Z" class="g2_1442" />
<path d="M654.3,586.9l0.8,0l0,-18.7l-0.8,0l0,18.7Z" class="g2_1442" />
<path d="M680.7,586.9l0.7,0l0,-18.7l-0.7,0l0,18.7Z" class="g2_1442" />
<path d="M601.9,618.9l106,0l0,-0.7l-106,0l0,0.7Z" class="g2_1442" />
<path d="M707.1,637.3l0.8,0l0,-18.7l-0.8,0l0,18.7Z" class="g2_1442" />
<path d="M601.5,637.3l106,0l0,-0.8l-106,0l0,0.8Z" class="g2_1442" />
<path d="M601.5,636.9l0.8,0l0,-18.7l-0.8,0l0,18.7Z" class="g2_1442" />
<path d="M627.9,636.9l0.8,0l0,-18.7l-0.8,0l0,18.7Z" class="g2_1442" />
<path d="M654.3,636.9l0.8,0l0,-18.7l-0.8,0l0,18.7Z" class="g2_1442" />
<path d="M680.7,636.9l0.7,0l0,-18.7l-0.7,0l0,18.7Z" class="g2_1442" />
<path d="M602.6,533.4l106,0l0,-0.7l-106,0l0,0.7Z" class="g2_1442" />
<path d="M707.9,551.7l0.7,0l0,-18.7l-0.7,0l0,18.7Z" class="g2_1442" />
<path d="M602.3,551.7l105.9,0l0,-0.7l-105.9,0l0,0.7Z" class="g2_1442" />
<path d="M602.3,551.4l0.7,0l0,-18.7l-0.7,0l0,18.7Z" class="g2_1442" />
<path d="M628.7,551.3l0.7,0l0,-18.6l-0.7,0l0,18.6Z" class="g2_1442" />
<path d="M655.1,551.3l0.7,0l0,-18.6l-0.7,0l0,18.6Z" class="g2_1442" />
<path d="M681.5,551.3l0.7,0l0,-18.6l-0.7,0l0,18.6Z" class="g2_1442" />
<path d="M612.2,591.4l-1.2,0.1l-1.1,0.4l-1.1,0.5l0.1,0l-0.9,0.8l-0.7,0.9l0.1,-0.1l-0.7,1l0,-0.1l-0.3,1.2l-0.1,1.3l0,-0.1l0.1,1.3l0,-0.1l0.3,1.2l0,-0.1l0.7,1l-0.1,0l0.7,0.9l0,-0.1l0.9,0.8l-0.1,0l1.1,0.6l0,-0.1l1.1,0.4l1.2,0.2l-0.1,0l2.8,0l1.3,-0.2l-0.1,0l1.2,-0.4l-0.1,0.1l1,-0.6l1,-0.8l-0.1,0.1l0.8,-0.9l0.5,-1l-0.1,0.1l0.4,-1.2l0,0.1l0.2,-1.3l0,0.1l-0.2,-1.3l-0.4,-1.2l0.1,0.1l-0.5,-1l0,0.1l-0.8,-0.9l0.1,0l-1,-0.8l-1,-0.5l0.1,0l-1.2,-0.4l0.1,0l-1.3,-0.1l-2.8,0l0,-0.7l1.4,0c2.7,-0.3,5.5,0.6,6.9,2.9l0.1,0l0.5,1l0,0.1c1.1,2.6,0.6,5.3,-1.3,7.3l-1,0.8l-0.1,0.1c-1.9,1.4,-6.9,1.4,-8.9,0.5l-0.1,0l-1.1,-0.5l0,-0.1L607.6,602l-0.1,0l-0.8,-0.9l0,-0.1l-0.6,-1L606,599.9l-0.4,-1.2l-0.1,-1.3l0,-0.1l0.1,-1.3l0,-0.1c0.6,-2.4,2.8,-4.6,5.3,-5.1l0.1,0l1.1,-0.1Z" class="g2_1442" />
<path d="M612.1,591.4l0.1,0l-0.1,-0.7Z" class="g2_1442" />
<path d="M606.6,605.1l-1.3,0.1l0.1,0l-1.1,0.3l-1,0.6l0,-0.1l-0.9,0.7l-0.7,1l0.1,-0.1l-0.6,1l-0.3,1.1l0,-0.1l-0.1,1.3l0,-0.1l0.1,1.2l0,-0.1l0.3,1.1l0,-0.1l0.6,1l-0.1,0l0.7,0.9l0,-0.1l0.9,0.7l1,0.6l0,-0.1l1.1,0.4l-0.1,0l1.3,0.2l-0.1,0l16,0l1.2,-0.2l-0.1,0l1.1,-0.4l-0.1,0.1l1.1,-0.6l0.8,-0.7l-0.1,0.1l0.8,-0.9l0.6,-1l-0.1,0.1l0.3,-1.1l0,0.1l0.2,-1.2l0,0.1L628,609.6l-0.3,-1.1l0.1,0.1l-0.6,-1l0,0.1l-0.8,-1l0.1,0L625.7,606l0,0.1l-1.1,-0.6l0.1,0l-1.1,-0.3l0.1,0l-1.2,-0.1l-16,0l0,-0.7l16.1,0l1.2,0l0.1,0l1.1,0.4l0,0.1l1.1,0.6l0.1,0l0.8,0.7l0,0.1l0.7,0.9l0.1,0l0.7,1l0,0.1c0.8,2.7,0.5,4.9,-1.5,7l-0.8,0.7l-0.1,0.1l-1.1,0.5l-1.1,0.4l-0.1,0l-1.2,0.2l-16.1,0L605.2,617l-0.1,0L604,616.6l-0.1,0l-1,-0.5l0,-0.1L602,615.3l-0.1,0l-0.8,-1l-0.5,-1.1l-0.1,0l-0.4,-1.1c-0.1,-1.3,-0.2,-2.7,0.4,-3.8l0.1,-0.1l0.5,-1c0.9,-1.3,2.5,-2.4,4,-2.8l0.1,0l1.3,0Z" class="g2_1442" />
<path d="M606.5,605.1l0.1,0l-0.1,-0.7Z" class="g2_1442" />
<path d="M695.8,591.4l-1.2,0.1l-1.1,0.4l-1.1,0.5l0.1,0l-0.9,0.8l-0.7,0.9L691,594l-0.7,1l0,-0.1l-0.3,1.2l-0.1,1.3l0,-0.1l0.1,1.3l0,-0.1l0.3,1.2l0,-0.1l0.7,1l-0.1,0l0.7,0.9l0,-0.1l0.9,0.8l-0.1,0l1.1,0.6l0,-0.1l1.1,0.4l1.2,0.2l-0.1,0l2.8,0l1.3,-0.2l-0.1,0l1.2,-0.4l-0.1,0.1l1.1,-0.6l0.9,-0.8l-0.1,0.1l0.8,-0.9l0.5,-1l-0.1,0.1l0.4,-1.2l0,0.1l0.2,-1.3l0,0.1l-0.2,-1.3l-0.4,-1.2L704,595l-0.5,-1l0,0.1l-0.8,-0.9l0.1,0l-0.9,-0.8l-1.1,-0.5l0.1,0l-1.2,-0.4l0.1,0l-1.3,-0.1l-2.8,0l0,-0.7l1.4,0c2.7,-0.2,5.5,0.5,6.9,2.9l0.1,0l0.5,1l0,0.1c1.1,2.6,0.6,5.3,-1.3,7.3l-0.9,0.8l-0.1,0.1c-2.1,1.4,-6.8,1.4,-9,0.5l-0.1,0l-1.1,-0.5l0,-0.1L691.2,602l-0.1,0l-0.8,-0.9l0,-0.1l-0.6,-1l-0.1,-0.1l-0.4,-1.2l-0.1,-1.3l0,-0.1l0.1,-1.3l0,-0.1c0.6,-2.4,2.8,-4.6,5.3,-5.1l0.1,0l1.1,-0.1Z" class="g2_1442" />
<path d="M695.7,591.4l0.1,0l-0.1,-0.7Z" class="g2_1442" />
<path d="M690.2,605.1l-1.3,0.1l0.1,0l-1.1,0.3l-1,0.6l0,-0.1l-0.9,0.7l-0.7,1l0.1,-0.1l-0.6,1l-0.3,1.1l0,-0.1l-0.1,1.3l0,-0.1l0.1,1.2l0,-0.1l0.3,1.1l0,-0.1l0.6,1l-0.1,0l0.7,0.9l0,-0.1l0.9,0.7l1,0.6l0,-0.1l1.1,0.4l-0.1,0l1.3,0.2l-0.1,0l16,0l1.2,-0.2l-0.1,0l1.1,-0.4l-0.1,0.1l1.1,-0.6l0.8,-0.7l-0.1,0.1l0.9,-0.9l0.5,-1l-0.1,0.1l0.3,-1.1l0,0.1l0.2,-1.2l0,0.1l-0.2,-1.3l-0.3,-1.1l0.1,0.1l-0.5,-1l0,0.1l-0.9,-1l0.1,0L709.3,606l0,0.1l-1.1,-0.6l0.1,0l-1.1,-0.3l0.1,0l-1.2,-0.1l-16,0l0,-0.7l16.1,0l1.2,0l0.1,0l1.1,0.4l0,0.1l1.1,0.6l0.1,0l0.8,0.7l0,0.1l0.8,0.9l0.1,0l0.6,1l0,0.1c0.8,2.4,0.5,5.3,-1.5,7l-0.8,0.7l-0.1,0.1l-1.1,0.5l-1.1,0.4l-0.1,0l-1.2,0.2l-16.1,0L688.8,617l-0.1,0l-1.1,-0.4l-0.1,0l-1,-0.5l0,-0.1l-0.9,-0.7l-0.1,0l-0.8,-1l-0.5,-1.1l-0.1,0l-0.4,-1.1c-0.1,-1.3,-0.2,-2.7,0.4,-3.8l0.1,-0.1l0.5,-1c0.9,-1.3,2.5,-2.4,4,-2.8l0.1,0l1.3,0Z" class="g2_1442" />
<path d="M690.1,605.1l0.1,0l-0.1,-0.7Z" class="g2_1442" />
<path d="M640.1,591.4l-1.2,0.1l-1.2,0.4l0.1,0l-1.1,0.5l0.1,0l-0.9,0.8l-0.7,0.9l0.1,-0.1l-0.7,1l0,-0.1l-0.4,1.2l0,1.3l0,-0.1l0,1.3l0,-0.1l0.4,1.2l0,-0.1l0.7,1l-0.1,0l0.7,0.9l0,-0.1l0.9,0.8l-0.1,0l1.1,0.6l-0.1,-0.1l1.2,0.4l1.2,0.2l-0.1,0l2.8,0l1.3,-0.2l-0.1,0l1.2,-0.4l-0.1,0.1l1,-0.6l1,-0.8l-0.1,0.1l0.7,-0.9l0.6,-1l-0.1,0.1l0.3,-1.2l0,0.1l0.2,-1.3l0,0.1l-0.2,-1.3l-0.3,-1.2l0.1,0.1l-0.6,-1l0,0.1L647,593.2l0.1,0l-1,-0.8l-1,-0.5l0.1,0L644,591.5l0.1,0l-1.3,-0.1l-2.8,0l0,-0.7l1.4,0c2.6,-0.3,5.5,0.6,6.9,2.9l0.1,0l0.5,1l0,0.1c1.1,2.6,0.5,5.3,-1.4,7.3l-1,0.8l-0.1,0.1c-1.8,1.4,-6.8,1.4,-8.9,0.5l-1.1,-0.5l0,-0.1l-1,-0.8l-0.1,0l-0.7,-0.9l0,-0.1L634,600l-0.1,-0.1l-0.4,-1.2l-0.1,-1.3l0,-0.1l0.1,-1.3l0,-0.1c0.5,-2.4,2.8,-4.6,5.2,-5.1l0.1,0l1.2,-0.1Z" class="g2_1442" />
<path d="M640,591.4l0.1,0L640,590.7Z" class="g2_1442" />
<path d="M634.4,605.1l-1.3,0.1l0.1,0l-1.1,0.3l-1,0.6l0.1,-0.1l-0.9,0.7l-0.7,1l0.1,-0.1l-0.6,1l-0.4,1.1l0,-0.1l0,1.3l0,-0.1l0,1.2l0,-0.1l0.4,1.1l0,-0.1l0.6,1l-0.1,0l0.7,0.9l0,-0.1l0.9,0.7l-0.1,0l1,0.6l0,-0.1l1.1,0.4l-0.1,0l1.3,0.2l-0.1,0l16.1,0l1.2,-0.2l-0.1,0l1.1,-0.4l-0.1,0.1l1.1,-0.6l0.8,-0.7l-0.1,0.1l0.8,-0.9l0.6,-1l-0.1,0.1l0.3,-1.1l0,0.1l0.2,-1.2l0,0.1l-0.2,-1.3l-0.3,-1.1l0.1,0.1l-0.6,-1l0,0.1l-0.8,-1l0.1,0L653.6,606l0,0.1l-1.1,-0.6l0.1,0l-1.1,-0.3l0.1,0l-1.2,-0.1l-16.1,0l0,-0.7l16.2,0l1.2,0l0.1,0l1.1,0.4l0,0.1l1.1,0.6l0.9,0.7l0,0.1l0.8,0.9l0.1,0l0.5,1l0,0.1c0.8,2.4,0.6,5.3,-1.4,7L654,616l0,0.1l-1.1,0.5l-1.1,0.4l-0.1,0l-1.2,0.2l-16.2,0L633.1,617l-0.1,0l-1.1,-0.4l-0.1,0l-1,-0.5l0,-0.1l-1,-0.7l-0.8,-1l-0.5,-1.1l-0.1,0L628,612.1c-0.1,-1.3,-0.2,-2.7,0.4,-3.8l0.1,-0.1l0.5,-1c0.8,-1.3,2.5,-2.4,4,-2.8l0.1,0l1.2,0Z" class="g2_1442" />
<path d="M634.3,605.1l0.1,0l-0.1,-0.7Z" class="g2_1442" />
<path d="M668,591.4l-1.2,0.1l-1.2,0.4l0.1,0l-1.1,0.5l0.1,0l-0.9,0.8l-0.8,0.9l0.1,-0.1l-0.6,1l0,-0.1l-0.4,1.2l-0.1,1.3l0,-0.1l0.1,1.3l0,-0.1l0.4,1.2l0,-0.1l0.6,1l-0.1,0l0.8,0.9l0,-0.1l0.9,0.8l-0.1,0l1.1,0.6l-0.1,-0.1l1.2,0.4l1.2,0.2l-0.1,0l2.7,0l1.3,-0.2l-0.1,0l1.2,-0.4l-0.1,0.1l1,-0.6l1,-0.8l0,0.1l0.7,-0.9l0.5,-1l-0.1,0.1l0.4,-1.2l0,0.1l0.2,-1.3l0,0.1l-0.2,-1.3L676,594.9l0.1,0.1l-0.5,-1l0,0.1l-0.7,-0.9l-1,-0.8l-1,-0.5l0.1,0l-1.2,-0.4l0.1,0l-1.3,-0.1l-2.7,0l0,-0.7l1.4,0c2.6,-0.3,5.4,0.6,6.8,2.9l0.1,0l0.6,1l0,0.1c1,2.6,0.5,5.3,-1.4,7.3l-1,0.8l-0.1,0.1c-1.8,1.4,-6.9,1.4,-8.9,0.5l-0.1,0l-1.1,-0.5l0,-0.1L663.3,602l-0.1,0l-0.7,-0.9l0,-0.1l-0.7,-1l-0.1,-0.1l-0.3,-1.2l-0.1,-1.3l0,-0.1l0.1,-1.3l0,-0.1c0.5,-2.4,2.8,-4.6,5.2,-5.1l0.1,0l1.2,-0.1Z" class="g2_1442" />
<path d="M667.9,591.4l0.1,0l-0.1,-0.7Z" class="g2_1442" />
<path d="M662.3,605.1l-1.3,0.1l0.1,0l-1.1,0.3l-1,0.6l0.1,-0.1l-0.9,0.7l-0.8,1l0.1,-0.1l-0.5,1l-0.4,1.1l0,-0.1l-0.1,1.3l0,-0.1l0.1,1.2l0,-0.1L657,613l0,-0.1l0.5,1l-0.1,0l0.8,0.9l0,-0.1l0.9,0.7l-0.1,0l1,0.6l0,-0.1l1.1,0.4l-0.1,0l1.3,0.2l-0.1,0l16,0l1.2,-0.2l-0.1,0l1.1,-0.4l0,0.1l1.1,-0.6l0.8,-0.7l-0.1,0.1l0.8,-0.9l0.6,-1l-0.1,0.1l0.2,-1.1l0,0.1l0.2,-1.2l0,0.1l-0.2,-1.3l-0.2,-1.1l0.1,0.1l-0.6,-1l0,0.1l-0.8,-1l0.1,0L681.5,606l0,0.1l-1.1,-0.6l-1.1,-0.3l0.1,0l-1.2,-0.1l-16,0l0,-0.7l16.1,0l1.2,0l0.1,0l1.1,0.4l0,0.1l1.1,0.6l0.1,0l0.8,0.7l0,0.1l0.9,0.9l0.1,0l0.5,1l0,0.1c0.8,2.4,0.5,5.3,-1.5,7l-0.8,0.7l-0.1,0.1l-1.1,0.5l-1.1,0.4l-0.1,0l-1.2,0.2l-16.1,0L660.9,617l-0.1,0l-1.1,-0.4l-0.1,0l-1,-0.5l0,-0.1l-0.9,-0.7l-0.1,0l-0.7,-1l-0.6,-1.1l-0.1,0l-0.3,-1.1c-0.2,-1.3,-0.2,-2.7,0.3,-3.8l0.1,-0.1l0.6,-1c0.8,-1.3,2.5,-2.4,3.9,-2.8l0.1,0l1.3,0Z" class="g2_1442" />
<path d="M662.2,605.1l0.1,0l-0.1,-0.7Z" class="g2_1442" />
<path d="M696.3,589.1l0.7,0l0,-16.3l-0.7,0l0,16.3Z" class="g2_1442" />
<path d="M701.5,573.3l-0.7,-0.2L696.3,589l0,0.1l0.4,1.3l0.3,-1.3Z" class="g2_1442" />
<path d="M696.3,589.1L697,589l-4.5,-15.9l-0.8,0.2Z" class="g2_1442" />
<path d="M696.3,573.2l0.7,0l0,-32.6l-0.7,0l0,32.6Z" class="g2_1442" />
<path d="M615.3,589.8l0.7,0l0,-16.2l-0.7,0l0,16.2Z" class="g2_1442" />
<path d="M620.6,574l-0.7,-0.2l-4.6,15.9l0,0.2l0.3,1.3l0.4,-1.3Z" class="g2_1442" />
<path d="M615.3,589.9l0.7,-0.2l-4.5,-15.9l-0.7,0.2Z" class="g2_1442" />
<path d="M615.3,573.9l0.7,0l0,-32.6l-0.7,0l0,32.6Z" class="g2_1442" />
<path d="M640.5,591.3l0.7,0l0,-16.2l-0.7,0l0,16.2Z" class="g2_1442" />
<path d="M645.8,575.6l-0.7,-0.2l-4.6,15.9l0,0.1l0.3,1.3l0.4,-1.3Z" class="g2_1442" />
<path d="M640.5,591.4l0.7,-0.1l-4.5,-15.9l-0.7,0.2Z" class="g2_1442" />
<path d="M640.5,575.5l0.7,0l0,-32.6l-0.7,0l0,32.6Z" class="g2_1442" />
<path d="M668.8,589.1l0.7,0l0,-16.3l-0.7,0l0,16.3Z" class="g2_1442" />
<path d="M674,573.3l-0.7,-0.2L668.8,589l0,0.1l0.4,1.3l0.3,-1.3Z" class="g2_1442" />
<path d="M668.8,589.1l0.7,-0.1L665,573.1l-0.8,0.2Z" class="g2_1442" />
<path d="M668.8,573.2l0.7,0l0,-32.6l-0.7,0l0,32.6Z" class="g2_1442" />
<path d="M628.5,650.7l-0.6,0.5l12.4,10.5l0.5,-0.5Z" class="g2_1442" />
<path d="M631.8,647.5l-0.6,0.4l9.1,13.7l0.1,0.2l1.2,0.6l-0.8,-1.1Z" class="g2_1442" />
<path d="M640.4,661.8l0.3,-0.7l-15,-6.8l-0.3,0.8Z" class="g2_1442" />
<path d="M615.9,639.9l-0.3,-0.2l-0.4,0.6l0.3,0.2Z" class="g2_1442" />
<path d="M628.5,650.7l0.2,0.1l-0.4,0.6L628,651.2Z" class="g2_1442" />
<path d="M615.9,639.9l-0.4,0.6L628,651.2l0.5,-0.6Z" class="g2_1442" />
<path d="M641,642.1l-0.7,0.2l3.8,15.8l0.7,-0.2Z" class="g2_1442" />
<path d="M645.6,641.5l-0.7,0L644.1,658l0,0.2l0.6,1.2l0.1,-1.4Z" class="g2_1442" />
<path d="M644.1,658.2l0.7,-0.4l-8.1,-14.4l-0.7,0.4Z" class="g2_1442" />
<path d="M639.7,636.3L639.6,636l-0.7,0.2l0.1,0.3Z" class="g2_1442" />
<path d="M641,642.1l0.1,0.4l-0.7,0.2l-0.1,-0.4Z" class="g2_1442" />
<path d="M639.7,636.3l-0.7,0.2l1.3,5.8l0.7,-0.2Z" class="g2_1442" />
<path d="M658.7,644.7L658,644.3l-7.7,14.4l0.7,0.4Z" class="g2_1442" />
<path d="M662.4,647.3l-0.6,-0.6l-11.4,11.9l-0.1,0.2l-0.3,1.3l0.9,-0.9Z" class="g2_1442" />
<path d="M650.3,658.8L651,659l3.5,-16.1l-0.7,-0.2Z" class="g2_1442" />
<path d="M663.4,635.8l0.2,-0.3l-0.7,-0.3l-0.2,0.2Z" class="g2_1442" />
<path d="M658.7,644.7l-0.2,0.3l-0.6,-0.4l0.2,-0.3Z" class="g2_1442" />
<path d="M663.4,635.8l-0.7,-0.4l-4.6,8.9l0.6,0.4Z" class="g2_1442" />
<path d="M671.9,651.6L671.6,651l-13.7,8.8l0.4,0.6Z" class="g2_1442" />
<path d="M673.9,655.7L673.8,655L658,659.7l-0.2,0.1l-0.9,1l1.3,-0.3Z" class="g2_1442" />
<path d="M657.8,659.8l0.5,0.6L669.2,648l-0.6,-0.6Z" class="g2_1442" />
<path d="M693.7,637.5l0.3,-0.1l-0.4,-0.7l-0.2,0.2Z" class="g2_1442" />
<path d="M671.9,651.7l-0.3,0.1l-0.3,-0.6l0.3,-0.2Z" class="g2_1442" />
<path d="M693.7,637.5l-0.3,-0.6L671.6,651l0.3,0.7Z" class="g2_1442" />
<path d="M326.8,561.9l106,0l0,-0.7l-106,0l0,0.7Z" class="g2_1442" />
<path d="M432,580.2l0.8,0l0,-18.6l-0.8,0l0,18.6Z" class="g2_1442" />
<path d="M326.4,580.2l106,0l0,-0.7l-106,0l0,0.7Z" class="g2_1442" />
<path d="M326.4,579.9l0.8,0l0,-18.7l-0.8,0l0,18.7Z" class="g2_1442" />
<path d="M352.8,579.9l0.8,0l0,-18.7l-0.8,0l0,18.7Z" class="g2_1442" />
<path d="M379.2,579.9l0.8,0l0,-18.7l-0.8,0l0,18.7Z" class="g2_1442" />
<path d="M405.6,579.9l0.8,0l0,-18.7l-0.8,0l0,18.7Z" class="g2_1442" />
<path d="M326.8,611.9l106,0l0,-0.8l-106,0l0,0.8Z" class="g2_1442" />
<path d="M432,630.2l0.8,0l0,-18.7l-0.8,0l0,18.7Z" class="g2_1442" />
<path d="M326.4,630.2l106,0l0,-0.7l-106,0l0,0.7Z" class="g2_1442" />
<path d="M326.4,629.8l0.8,0l0,-18.7l-0.8,0l0,18.7Z" class="g2_1442" />
<path d="M352.8,629.8l0.8,0l0,-18.7l-0.8,0l0,18.7Z" class="g2_1442" />
<path d="M379.2,629.8l0.8,0l0,-18.7l-0.8,0l0,18.7Z" class="g2_1442" />
<path d="M405.6,629.8l0.8,0l0,-18.7l-0.8,0l0,18.7Z" class="g2_1442" />
<path d="M327.5,526.3l106,0l0,-0.8l-106,0l0,0.8Z" class="g2_1442" />
<path d="M432.8,544.6l0.7,0l0,-18.7l-0.7,0l0,18.7Z" class="g2_1442" />
<path d="M327.2,544.6l105.9,0l0,-0.7l-105.9,0l0,0.7Z" class="g2_1442" />
<path d="M327.2,544.2l0.7,0l0,-18.7l-0.7,0l0,18.7Z" class="g2_1442" />
<path d="M353.6,544.2l0.7,0l0,-18.7l-0.7,0l0,18.7Z" class="g2_1442" />
<path d="M380,544.2l0.7,0l0,-18.7l-0.7,0l0,18.7Z" class="g2_1442" />
<path d="M406.4,525.9l0.7,0l0,-0.4l-0.7,0l0,0.4Z" class="g2_1442" />
<path d="M406.4,544.2l0.7,0l0,-18.3l-0.7,0l0,18.3Z" class="g2_1442" />
<path d="M337.1,584.3l-1.2,0.2l-1.2,0.3l0.1,0l-1,0.6l0,-0.1l-0.9,0.7l-0.8,0.9l0.1,-0.1l-0.6,1.1l-0.3,1.2l-0.1,1.2l0,-0.1l0.1,1.3l0,-0.1l0.3,1.1l0,-0.1l0.6,1.1l-0.1,0l0.8,1l0,-0.1l0.9,0.7l1,0.6l-0.1,0l1.2,0.3l1.2,0.1l2.7,0l1.3,-0.1l-0.1,0l1.2,-0.3l-0.1,0l1,-0.6l0.9,-0.7l-0.1,0.1l0.9,-1l0.5,-1.1l-0.1,0.1l0.4,-1.1l0,0.1l0.1,-1.3l0,0.1l-0.1,-1.2l-0.4,-1.2l0.1,0l-0.5,-1.1l0,0.1L343.9,586l0.1,0l-0.9,-0.7l0,0.1l-1,-0.6l0.1,0L341,584.5l0.1,0l-1.3,-0.2l-2.7,0l0,-0.8l1.3,0c2.8,-0.2,5.3,0.7,6.9,3l0.1,0l0.5,1.1l0,0.1c1,2.4,0.6,5.5,-1.4,7.2l-0.9,0.8l-0.1,0l-1,0.7l-0.1,0l-1.2,0.4l-1.3,0l-2.8,0l-1.3,0l-0.1,0l-1.2,-0.4l-0.1,0l-1,-0.7l-0.9,-0.8l-0.1,0L331.6,594l0,-0.1L331,592.8l-0.1,0l-0.4,-1.1l0,-0.1c-0.1,-1.3,-0.1,-2.7,0.4,-3.9l0.1,-0.1l0.6,-1.1c1,-1.3,2.4,-2.4,4.1,-2.8l0.1,0l1.3,-0.2Z" class="g2_1442" />
<path d="M337.1,584.3l0,-0.8Z" class="g2_1442" />
<path d="M331.4,597.9l-1.2,0.1l0.1,0l-1.1,0.4l-1.1,0.6l0.1,-0.1l-0.9,0.7l-0.7,0.9l0.1,-0.1l-0.6,1l0,-0.1l-0.3,1.2l-0.2,1.2l0,-0.1l0.2,1.2l0,-0.1l0.3,1.2l0,-0.1l0.6,1l-0.1,0l0.7,1l0,-0.1l0.9,0.7l-0.1,0l1.1,0.5l1.1,0.3l-0.1,0l1.2,0.1l-0.1,0l16,0l1.3,-0.1l-0.1,0l1.1,-0.3l-0.1,0l1,-0.5l0.9,-0.7l0,0.1l0.7,-1l0.5,-1l-0.1,0.1l0.4,-1.2l0,0.1l0.1,-1.2l0,0.1l-0.1,-1.2l-0.4,-1.2l0.1,0.1l-0.5,-1l0,0.1l-0.7,-0.9l-0.9,-0.7l0,0.1l-1,-0.6l0.1,0L348.5,598l0.1,0l-1.3,-0.1l-16,0l0,-0.7l16.1,0l1.3,0.1l0.1,0l1.1,0.4l0,0.1l1,0.5l0.1,0l0.9,0.7l0,0.1l0.7,1l0.1,0l0.6,1l0,0.1c0.9,2.3,0.5,5.2,-1.4,7l-0.9,0.7l-0.1,0.1l-1,0.6l-1.1,0.3l-0.1,0l-1.3,0.1l-16.1,0l-1.2,-0.1l-0.1,0l-1.1,-0.3l-0.1,0L327.7,609l0,-0.1l-0.8,-0.7l-0.1,0l-0.7,-0.9l0,-0.1l-0.7,-1l-0.1,-0.1L325,604.9l-0.1,-1.2l0,-0.1l0.1,-1.2l0,-0.1c0.3,-2.2,2.8,-4.5,5,-5l0.1,0l1.2,-0.1Z" class="g2_1442" />
<path d="M331.3,597.9l0.1,0l-0.1,-0.7Z" class="g2_1442" />
<path d="M420.7,584.3l-1.2,0.2l-1.2,0.3l0.1,0l-1,0.6l0,-0.1l-0.9,0.7l-0.8,0.9l0.1,-0.1l-0.6,1.1l-0.3,1.2l-0.1,1.2l0,-0.1l0.1,1.3l0,-0.1l0.3,1.1l0,-0.1l0.6,1.1l-0.1,0l0.8,1l0,-0.1l0.9,0.7l1,0.6l-0.1,0l1.2,0.3l1.2,0.1l2.7,0l1.3,-0.1l-0.1,0l1.2,-0.3l-0.1,0l1,-0.6l0.9,-0.7l-0.1,0.1l0.9,-1l0.5,-1.1l-0.1,0.1l0.4,-1.1l0,0.1l0.1,-1.3l0,0.1l-0.1,-1.2l-0.4,-1.2l0.1,0l-0.5,-1.1l0,0.1L427.5,586l0.1,0l-0.9,-0.7l0,0.1l-1,-0.6l0.1,0l-1.2,-0.3l0.1,0l-1.3,-0.2l-2.7,0l0,-0.8l1.3,0c2.8,-0.2,5.3,0.7,6.9,3l0.1,0l0.6,1.1l0,0.1c0.9,2.4,0.5,5.5,-1.5,7.2l-0.9,0.8l-0.1,0l-1,0.7l-0.1,0l-1.2,0.4l-1.3,0l-2.8,0l-1.3,0l-0.1,0l-1.2,-0.4l-0.1,0l-1,-0.7l-0.9,-0.8l-0.1,0L415.2,594l0,-0.1l-0.6,-1.1l-0.1,0l-0.4,-1.1l0,-0.1c-0.1,-1.3,-0.1,-2.7,0.4,-3.9l0.1,-0.1l0.6,-1.1c1,-1.3,2.4,-2.4,4.1,-2.8l0.1,0l1.3,-0.2Z" class="g2_1442" />
<path d="M420.7,584.3l0,-0.8Z" class="g2_1442" />
<path d="M415,597.9l-1.2,0.1l0.1,0l-1.1,0.4l-1.1,0.6l0.1,-0.1l-0.9,0.7l-0.7,0.9l0.1,-0.1l-0.6,1l0,-0.1l-0.3,1.2l-0.2,1.2l0,-0.1l0.2,1.2l0,-0.1l0.3,1.2l0,-0.1l0.6,1l-0.1,0l0.7,1l0,-0.1l0.9,0.7l-0.1,0l1.1,0.5l1.1,0.3l-0.1,0l1.2,0.1l-0.1,0l16.1,0l1.2,-0.1l-0.1,0l1.1,-0.3l-0.1,0l1,-0.5l1,-0.7l-0.1,0.1l0.7,-1l0.5,-1l-0.1,0.1l0.4,-1.2l0,0.1l0.2,-1.2l0,0.1l-0.2,-1.2l-0.4,-1.2l0.1,0.1l-0.5,-1l0,0.1L435,599.6l0.1,0l-1,-0.7l0,0.1l-1,-0.6l0.1,0L432.1,598l0.1,0L431,597.9l-16.1,0l0,-0.7l16.2,0l1.2,0.1l0.1,0l1.1,0.4l0,0.1l1,0.5l0.1,0l0.9,0.7l0,0.1l0.7,1l0.1,0l0.6,1l0,0.1c1,2.5,0.5,5,-1.4,7l-0.9,0.7l-0.1,0.1l-1,0.6l-1.1,0.3l-0.1,0l-1.2,0.1l-16.2,0l-1.2,-0.1l-0.1,0l-1.1,-0.3l-0.1,0L411.3,609l0,-0.1l-0.8,-0.7l-0.1,0l-0.7,-0.9l0,-0.1l-0.7,-1l-0.1,-0.1l-0.3,-1.2l-0.1,-1.2l0,-0.1l0.1,-1.2l0,-0.1c0.3,-2.2,2.8,-4.5,5,-5l0.1,0l1.2,-0.1Z" class="g2_1442" />
<path d="M414.9,597.9l0.1,0l-0.1,-0.7Z" class="g2_1442" />
<path d="M365,584.3l-1.3,0.2l-1.2,0.3l0.1,0l-1,0.6l0.1,-0.1l-0.9,0.7l-0.8,0.9l0.1,-0.1l-0.6,1.1l-0.3,1.2l-0.1,1.2l0,-0.1l0.1,1.3l0,-0.1l0.3,1.1l0,-0.1l0.6,1.1l-0.1,0l0.8,1l0,-0.1l0.9,0.7l-0.1,0l1,0.6l-0.1,0l1.2,0.3l1.3,0.1l-0.1,0l2.8,0L369,596l-0.1,0l1.2,-0.3l-0.1,0l1,-0.6l0.9,-0.7l-0.1,0.1l0.8,-1l0.6,-1.1l-0.1,0.1l0.4,-1.1l0,0.1l0,-1.3l0,0.1l0,-1.2l-0.4,-1.2l0.1,0l-0.6,-1.1l0,0.1L371.8,586l0.1,0L371,585.3l0,0.1l-1,-0.6l0.1,0l-1.2,-0.3l0.1,0l-1.3,-0.2l-2.8,0l0,-0.8l1.4,0c2.8,-0.2,5.3,0.7,6.9,3l0.1,0l0.5,1.1l0,0.1c0.9,2.4,0.6,5.5,-1.4,7.2l-1,0.8l-0.1,0l-1,0.7l-0.1,0l-1.2,0.4l-1.2,0l-2.9,0l-1.3,0l-0.1,0l-1.1,-0.4l-0.1,0l-1,-0.7l-1,-0.8L359.4,594l0,-0.1l-0.5,-1.1l-0.1,0l-0.4,-1.1l0,-0.1c-0.1,-1.3,-0.2,-2.7,0.4,-3.9l0.1,-0.1l0.5,-1.1c1.1,-1.3,2.5,-2.4,4.1,-2.8l0.1,0l1.3,-0.2Z" class="g2_1442" />
<path d="M364.9,584.3l0.1,0l-0.1,-0.8Z" class="g2_1442" />
<path d="M359.2,597.9l-1.1,0.1l-1.1,0.4l-1.1,0.6l0.1,-0.1l-0.8,0.7l-0.7,0.9l0.1,-0.1l-0.7,1l0,-0.1l-0.3,1.2l-0.1,1.2l0,-0.1l0.1,1.2l0,-0.1l0.3,1.2l0,-0.1l0.7,1l-0.1,0l0.7,1l0,-0.1l0.8,0.7l-0.1,0l1.1,0.5l1.1,0.3l1.1,0.1l16,0l1.3,-0.1l-0.1,0l1.1,-0.3l-0.1,0l1,-0.5l0.9,-0.7l-0.1,0.1l0.8,-1l0.5,-1l-0.1,0.1l0.4,-1.2l0,0.1l0.1,-1.2l0,0.1l-0.1,-1.2l-0.4,-1.2l0.1,0.1l-0.5,-1l0,0.1l-0.8,-0.9l0.1,0l-0.9,-0.7l0,0.1l-1,-0.6l0.1,0L376.4,598l0.1,0l-1.3,-0.1l-16,0l0,-0.7l16.1,0l1.3,0.1l0.1,0l1.1,0.4l0,0.1l1,0.5l0.1,0l0.9,0.7l0,0.1l0.7,1l0.1,0l0.5,1l0,0.1c1,2.3,0.5,5.2,-1.3,7l-0.9,0.7l-0.1,0.1l-1,0.6l-1.1,0.3l-0.1,0l-1.3,0.1l-16.1,0L358,609.9l-0.1,0l-1.1,-0.3l-0.1,0L355.6,609l0,-0.1l-0.9,-0.7l-0.8,-0.9l0,-0.1l-0.6,-1l-0.1,-0.1l-0.3,-1.2l-0.2,-1.2l0,-0.1l0.2,-1.2l0,-0.1c0.2,-2.2,2.7,-4.5,5,-5l0.1,0l1.2,-0.1Z" class="g2_1442" />
<path d="M359.2,597.9l0,-0.7Z" class="g2_1442" />
<path d="M392.9,584.3l-1.3,0.2l-1.2,0.3l0.1,0l-1,0.6l0.1,-0.1l-0.9,0.7l-0.9,0.9l0.1,-0.1l-0.5,1.1l-0.4,1.2l-0.1,1.2l0,-0.1l0.1,1.3l0,-0.1l0.4,1.1l0,-0.1l0.5,1.1l-0.1,0l0.9,1l0,-0.1l0.9,0.7l-0.1,0l1,0.6l-0.1,0l1.2,0.3l1.3,0.1l-0.1,0l2.7,0l1.3,-0.1l-0.1,0l1.2,-0.3l-0.1,0l1,-0.6l1,-0.7l-0.1,0.1l0.8,-1l0.5,-1.1l0,0.1l0.3,-1.1l0,0.1l0.1,-1.3l0,0.1l-0.1,-1.2L401,587.9l-0.5,-1.1l0,0.1L399.7,586l0.1,0l-1,-0.7l0,0.1l-1,-0.6l0.1,0l-1.2,-0.3l0.1,0l-1.3,-0.2l-2.7,0l0,-0.8l1.4,0c2.7,-0.2,5.2,0.7,6.8,3l0.1,0l0.6,1.1l0,0.1c0.9,2.4,0.5,5.5,-1.5,7.2l-0.9,0.8l-0.1,0l-1,0.7l-0.1,0l-1.2,0.4l-1.3,0l-2.8,0l-1.3,0l-0.1,0l-1.2,-0.4l-0.1,0l-1,-0.7l-0.9,-0.8l-0.1,0L387.3,594l0,-0.1l-0.6,-1.1l-0.4,-1.1l0,-0.1c-0.2,-1.3,-0.2,-2.7,0.4,-3.9l0,-0.1l0.6,-1.1c1,-1.3,2.5,-2.4,4.1,-2.8l0.1,0l1.3,-0.2Z" class="g2_1442" />
<path d="M392.8,584.3l0.1,0l-0.1,-0.8Z" class="g2_1442" />
<path d="M387.1,597.9l-1.2,0.1l0.1,0l-1.1,0.4l-1.1,0.6l0.1,-0.1l-0.8,0.7l-0.8,0.9l0.1,-0.1l-0.6,1l0,-0.1l-0.3,1.2l-0.2,1.2l0,-0.1l0.2,1.2l0,-0.1l0.3,1.2l0,-0.1l0.6,1l-0.1,0l0.8,1l0,-0.1l0.8,0.7l-0.1,0l1.1,0.5l1.1,0.3l-0.1,0l1.2,0.1l-0.1,0l16.2,0l1.1,-0.1l1.1,-0.3l-0.1,0l1,-0.5l0.9,-0.7l-0.1,0.1l0.7,-1l0.6,-1l-0.1,0.1l0.4,-1.2l0,0.1l0.1,-1.2l0,0.1l-0.1,-1.2l-0.4,-1.2l0.1,0.1l-0.6,-1l0,0.1l-0.7,-0.9l0.1,0l-0.9,-0.7l0,0.1l-1,-0.6l0.1,0L404.3,598l-1.1,-0.1l-16.2,0l0,-0.7l16.2,0l1.2,0.1l0.1,0l1.1,0.4l0,0.1l1,0.5l0.1,0l0.9,0.7l0,0.1l0.8,1l0.1,0l0.5,1l0,0.1c1.1,2.5,0.5,5,-1.4,7l-0.9,0.7l-0.1,0.1l-1,0.6l-1.1,0.3l-0.1,0l-1.2,0.1L387,610l-1.2,-0.1l-0.1,0l-1.1,-0.3l-0.1,0L383.4,609l0,-0.1l-0.8,-0.7l-0.1,0l-0.7,-0.9l0,-0.1l-0.6,-1l-0.1,-0.1l-0.3,-1.2l-0.2,-1.2l0,-0.1l0.2,-1.2l0,-0.1c0.2,-2.2,2.7,-4.5,4.9,-5l0.1,0l1.2,-0.1Z" class="g2_1442" />
<path d="M387,597.9l0.1,0L387,597.2Z" class="g2_1442" />
<path d="M421.1,582l0.8,0l0,-16.2l-0.8,0l0,16.2Z" class="g2_1442" />
<path d="M426.4,566.2L425.7,566l-4.6,15.9l0,0.2l0.4,1.3l0.3,-1.3Z" class="g2_1442" />
<path d="M421.1,582.1l0.8,-0.2L417.4,566l-0.8,0.2Z" class="g2_1442" />
<path d="M421.1,566.1l0.8,0l0,-32.6l-0.8,0l0,32.6Z" class="g2_1442" />
<path d="M340.2,582.7l0.7,0l0,-16.2l-0.7,0l0,16.2Z" class="g2_1442" />
<path d="M345.5,567l-0.7,-0.2l-4.6,15.8l0,0.2l0.3,1.3l0.4,-1.3Z" class="g2_1442" />
<path d="M340.2,582.8l0.7,-0.2l-4.6,-15.8l-0.7,0.2Z" class="g2_1442" />
<path d="M340.2,566.9l0.7,0l0,-32.7l-0.7,0l0,32.7Z" class="g2_1442" />
<path d="M365.4,584.3l0.7,0l0,-16.2l-0.7,0l0,16.2Z" class="g2_1442" />
<path d="M370.7,568.5L370,568.3l-4.6,15.9l0,0.2l0.3,1.3l0.4,-1.3Z" class="g2_1442" />
<path d="M365.4,584.4l0.7,-0.2l-4.6,-15.9l-0.7,0.2Z" class="g2_1442" />
<path d="M365.4,568.4l0.7,0l0,-32.6l-0.7,0l0,32.6Z" class="g2_1442" />
<path d="M393.6,582l0.8,0l0,-16.2l-0.8,0l0,16.2Z" class="g2_1442" />
<path d="M398.9,566.2L398.2,566l-4.6,15.9l0,0.2l0.4,1.3l0.3,-1.3Z" class="g2_1442" />
<path d="M393.6,582.1l0.8,-0.2L389.9,566l-0.8,0.2Z" class="g2_1442" />
<path d="M393.6,566.1l0.8,0l0,-32.6l-0.8,0l0,32.6Z" class="g2_1442" />
<path d="M353.4,643.6l-0.6,0.5l12.4,10.6l0.6,-0.6Z" class="g2_1442" />
<path d="M356.6,640.5l-0.6,0.3l9.2,13.8l0.1,0.2l1.2,0.5l-0.8,-1.1Z" class="g2_1442" />
<path d="M365.3,654.8l0.4,-0.8l-15.1,-6.8l-0.3,0.7Z" class="g2_1442" />
<path d="M340.8,632.9l-0.3,-0.2l-0.4,0.5l0.3,0.2Z" class="g2_1442" />
<path d="M353.4,643.6l0.2,0.2l-0.4,0.5l-0.3,-0.2Z" class="g2_1442" />
<path d="M340.8,632.9l-0.4,0.5l12.5,10.7l0.5,-0.5Z" class="g2_1442" />
<path d="M365.9,635l-0.7,0.2l3.7,15.8l0.7,-0.2Z" class="g2_1442" />
<path d="M370.4,634.4l-0.7,0l-0.8,16.5l0,0.2l0.6,1.2l0.1,-1.4Z" class="g2_1442" />
<path d="M368.9,651.1l0.7,-0.4l-8,-14.4l-0.7,0.4Z" class="g2_1442" />
<path d="M364.6,629.2l-0.1,-0.4l-0.8,0.2l0.1,0.4Z" class="g2_1442" />
<path d="M365.9,635l0.1,0.3l-0.7,0.2l-0.1,-0.3Z" class="g2_1442" />
<path d="M364.6,629.2l-0.8,0.2l1.4,5.8l0.7,-0.2Z" class="g2_1442" />
<path d="M383.5,637.6l-0.7,-0.3l-7.6,14.3l0.7,0.3Z" class="g2_1442" />
<path d="M387.3,640.2l-0.6,-0.5l-11.4,11.8l-0.1,0.2l-0.3,1.2l0.9,-0.9Z" class="g2_1442" />
<path d="M375.2,651.7l0.7,0.1l3.4,-16.1l-0.7,-0.2Z" class="g2_1442" />
<path d="M388.3,628.7l0.2,-0.2l-0.7,-0.4l-0.1,0.3Z" class="g2_1442" />
<path d="M383.5,637.6l-0.1,0.3l-0.7,-0.4l0.2,-0.2Z" class="g2_1442" />
<path d="M388.3,628.7l-0.6,-0.3l-4.8,8.9l0.6,0.3Z" class="g2_1442" />
<path d="M396.8,644.5L396.5,644l-13.7,8.8l0.4,0.5Z" class="g2_1442" />
<path d="M398.8,648.6l-0.1,-0.7l-15.8,4.8l-0.2,0.1l-0.9,1l1.3,-0.4Z" class="g2_1442" />
<path d="M382.7,652.8l0.6,0.5l10.8,-12.5l-0.6,-0.5Z" class="g2_1442" />
<path d="M418.6,630.5l0.3,-0.2l-0.4,-0.6l-0.2,0.1Z" class="g2_1442" />
<path d="M396.8,644.6l-0.3,0.2l-0.3,-0.7l0.3,-0.1Z" class="g2_1442" />
<path d="M418.6,630.5l-0.3,-0.7L396.5,644l0.3,0.6Z" class="g2_1442" />
<path d="M193.4,418l106,0l0,-0.7l-106,0l0,0.7Z" class="g2_1442" />
<path d="M298.6,436.3l0.8,0l0,-18.7l-0.8,0l0,18.7Z" class="g2_1442" />
<path d="M193.1,436.3l105.9,0l0,-0.7l-105.9,0l0,0.7Z" class="g2_1442" />
<path d="M193.1,436l0.7,0l0,-18.7l-0.7,0l0,18.7Z" class="g2_1442" />
<path d="M219.5,435.9l0.7,0l0,-18.6l-0.7,0l0,18.6Z" class="g2_1442" />
<path d="M245.8,435.9l0.8,0l0,-18.6l-0.8,0l0,18.6Z" class="g2_1442" />
<path d="M272.2,435.9l0.8,0l0,-18.6l-0.8,0l0,18.6Z" class="g2_1442" />
<path d="M193.4,467.9l106,0l0,-0.8l-106,0l0,0.8Z" class="g2_1442" />
<path d="M298.6,486.2l0.8,0l0,-18.7l-0.8,0l0,18.7Z" class="g2_1442" />
<path d="M193.1,486.2l105.9,0l0,-0.7l-105.9,0l0,0.7Z" class="g2_1442" />
<path d="M193.1,485.8l0.7,0l0,-18.7l-0.7,0l0,18.7Z" class="g2_1442" />
<path d="M219.5,485.8l0.7,0l0,-18.7l-0.7,0l0,18.7Z" class="g2_1442" />
<path d="M245.8,485.8l0.8,0l0,-18.7l-0.8,0l0,18.7Z" class="g2_1442" />
<path d="M272.2,485.8l0.8,0l0,-18.7l-0.8,0l0,18.7Z" class="g2_1442" />
<path d="M194.2,382.3l105.9,0l0,-0.7l-105.9,0l0,0.7Z" class="g2_1442" />
<path d="M299.4,400.7l0.7,0l0,-18.7l-0.7,0l0,18.7Z" class="g2_1442" />
<path d="M193.8,400.7l105.9,0l0,-0.8l-105.9,0l0,0.8Z" class="g2_1442" />
<path d="M193.8,400.3l0.7,0l0,-18.7l-0.7,0l0,18.7Z" class="g2_1442" />
<path d="M220.2,400.3l0.7,0l0,-18.7l-0.7,0l0,18.7Z" class="g2_1442" />
<path d="M246.6,400.3l0.7,0l0,-18.7l-0.7,0l0,18.7Z" class="g2_1442" />
<path d="M273,400.3l0.7,0l0,-18.7l-0.7,0l0,18.7Z" class="g2_1442" />
<path d="M203.8,440.4l-1.3,0.1l0.1,0l-1.1,0.3l-1.1,0.7l0.1,-0.1l-0.9,0.7l-0.8,0.9l0.1,-0.1l-0.6,1.1l0,-0.1l-0.4,1.2l-0.1,1.2l0,-0.1l0.1,1.3l0,-0.1l0.4,1.2l0,-0.1l0.6,1.1l-0.1,0l0.8,0.9l0,-0.1l0.9,0.8l-0.1,0l1.1,0.5l0,-0.1l1.1,0.4l-0.1,0l1.3,0.2l-0.1,0l2.7,0l1.3,-0.2l-0.1,0l1.2,-0.4l-0.1,0.1l1,-0.5l1,-0.8l-0.1,0.1l0.8,-0.9l0.5,-1.1l-0.1,0.1l0.4,-1.2l0,0.1l0.2,-1.3l0,0.1l-0.2,-1.2l-0.4,-1.2l0.1,0.1l-0.5,-1.1l0,0.1l-0.8,-0.9l0.1,0l-1,-0.7l0,0.1l-1,-0.7l0.1,0l-1.2,-0.3l0.1,0l-1.3,-0.1l-2.7,0l0,-0.8l1.4,0c2.9,-0.2,5.1,0.7,6.8,3l0.1,0l0.6,1.1l0,0.1c1,2.3,0.4,5.5,-1.5,7.2l-0.9,0.7l-0.1,0.1l-1,0.6l-0.1,0l-1.2,0.3l-1.3,0.2l-2.8,0l-1.3,-0.2l-0.1,0l-1.1,-0.3l-0.1,0L200,451.8l0,-0.1L199.1,451l-0.1,0l-0.7,-0.9l0,-0.1l-0.7,-1.1l-0.1,-0.1l-0.3,-1.2l-0.1,-1.3l0,-0.1l0.1,-1.2l0,-0.1c0.5,-2.4,2.7,-4.5,5.1,-5.2l0.1,0l1.3,-0.1Z" class="g2_1442" />
<path d="M203.7,440.4l0.1,0l-0.1,-0.8Z" class="g2_1442" />
<path d="M198,454l-1.2,0.1l0.1,0l-1.1,0.4l-1,0.5l0.1,-0.1l-0.9,0.8l-0.8,0.9l0.1,-0.1l-0.5,1l0,-0.1l-0.4,1.2l-0.2,1.2l0,-0.1l0.2,1.2l0,-0.1l0.4,1.2l0,-0.1l0.5,1l-0.1,0l0.8,0.9l0,-0.1l0.9,0.8l-0.1,0l1,0.5l0,-0.1l1.1,0.4l-0.1,0l1.2,0.1l-0.1,0l16.1,0l1.2,-0.1l-0.1,0l1.1,-0.4l0,0.1l1.1,-0.5l0.8,-0.8l-0.1,0.1l0.7,-0.9l0.6,-1l-0.1,0.1l0.3,-1.2l0,0.1l0.2,-1.2l0,0.1l-0.2,-1.2l-0.3,-1.2l0.1,0.1l-0.6,-1l0,0.1L218,455.7l0.1,0l-0.8,-0.8l0,0.1l-1.1,-0.5l-1.1,-0.4l0.1,0L214,454l-16.1,0l0,-0.7l16.2,0l1.2,0.1l0.1,0l1.1,0.4l1.1,0.6l0.1,0l0.8,0.7l0,0.1l0.8,0.9l0.1,0l0.5,1l0,0.1c1.1,2.6,0.5,5.1,-1.4,7.1l-0.8,0.7l-0.1,0.1l-1.1,0.6l-1.1,0.3l-0.1,0l-1.2,0.1l-16.2,0L196.7,466l-0.1,0l-1.1,-0.3l-0.1,0l-1,-0.6l0,-0.1l-0.9,-0.7l-0.1,0l-0.7,-0.9l0,-0.1l-0.6,-1L192,462.2L191.7,461l-0.2,-1.2l0,-0.1l0.2,-1.2l0,-0.1c0.6,-2.5,2.4,-4.3,4.9,-5l0.1,0l1.2,-0.1Z" class="g2_1442" />
<path d="M197.9,454l0.1,0l-0.1,-0.7Z" class="g2_1442" />
<path d="M287.4,440.4l-1.2,0.1l-1.2,0.3l0.1,0l-1.1,0.7l0.1,-0.1l-0.9,0.7l-0.8,0.9l0.1,-0.1l-0.6,1.1l0,-0.1l-0.4,1.2l-0.1,1.2l0,-0.1l0.1,1.3l0,-0.1l0.4,1.2l0,-0.1l0.6,1.1l-0.1,0l0.8,0.9l0,-0.1l0.9,0.8l-0.1,0l1.1,0.5L285,451.6l1.2,0.4l1.2,0.2l-0.1,0l2.7,0l1.3,-0.2l-0.1,0l1.2,-0.4l-0.1,0.1l1,-0.5l1,-0.8l0,0.1l0.7,-0.9l0.5,-1.1l-0.1,0.1l0.4,-1.2l0,0.1l0.2,-1.3l0,0.1l-0.2,-1.2l-0.4,-1.2l0.1,0.1L295,442.9l0,0.1l-0.7,-0.9l-1,-0.7l0,0.1l-1,-0.7l0.1,0l-1.2,-0.3l0.1,0L290,440.4l-2.7,0l0,-0.8l2.8,0l1.3,0.1l1.2,0.4l0.1,0.1l1,0.6l0.1,0l1,0.8l0.7,1l0.1,0l0.6,1.1l0,0.1c1,2.4,0.4,5.3,-1.4,7.2l-1,0.7l-0.1,0.1c-1.8,1.5,-6.9,1.4,-8.9,0.6l-0.1,0l-1.1,-0.6l0,-0.1L282.7,451l-0.1,0l-0.7,-0.9l0,-0.1l-0.7,-1.1l-0.1,-0.1l-0.3,-1.2l-0.1,-1.3l0,-0.1l0.1,-1.2l0,-0.1c0.5,-2.4,2.7,-4.6,5.2,-5.2l0.1,0l1.2,-0.1Z" class="g2_1442" />
<path d="M287.3,440.4l0.1,0l-0.1,-0.8Z" class="g2_1442" />
<path d="M281.6,454l-1.2,0.1l0.1,0l-1.1,0.4l-1,0.5l0.1,-0.1l-0.9,0.8l-0.8,0.9l0.1,-0.1l-0.5,1l0,-0.1l-0.4,1.2l-0.2,1.2l0,-0.1l0.2,1.2l0,-0.1l0.4,1.2l0,-0.1l0.5,1l-0.1,0l0.8,0.9l0,-0.1l0.9,0.8l-0.1,0l1,0.5l0,-0.1l1.1,0.4l-0.1,0l1.2,0.1l-0.1,0l16.1,0l1.2,-0.1l-0.1,0l1.1,-0.4l0,0.1l1.1,-0.5l0.8,-0.8l-0.1,0.1l0.7,-0.9l0.7,-1l-0.1,0.1l0.2,-1.2l0,0.1l0.2,-1.2l0,0.1l-0.2,-1.2l-0.2,-1.2l0.1,0.1l-0.7,-1l0,0.1l-0.7,-0.9l0.1,0l-0.8,-0.8l0,0.1l-1.1,-0.5l-1.1,-0.4l0.1,0L297.6,454l-16.1,0l0,-0.7l16.2,0l1.2,0.1l0.1,0l1.1,0.4l1.1,0.6l0.1,0l0.8,0.7l0,0.1l0.8,0.9l0.1,0l0.6,1l0,0.1l0.3,1.2l0,0.1l0.2,1.2l0,0.1l-0.2,1.2l-0.3,1.2l0,0.1l-0.6,1l-0.1,0.1l-0.8,0.9l-0.8,0.7l-0.1,0.1l-1.1,0.6L299,466l-0.1,0l-1.2,0.1l-16.2,0L280.3,466l-0.1,0l-1.1,-0.3l-0.1,0l-1,-0.6l0,-0.1l-0.9,-0.7l-0.1,0l-0.7,-0.9l0,-0.1l-0.6,-1l-0.1,-0.1L275.3,461l-0.2,-1.2l0,-0.1l0.2,-1.2l0,-0.1c0.6,-2.5,2.4,-4.3,4.9,-5l0.1,0l1.2,-0.1Z" class="g2_1442" />
<path d="M281.5,454l0.1,0l-0.1,-0.7Z" class="g2_1442" />
<path d="M231.6,440.4l-1.2,0.1l-1.1,0.3l-1.1,0.7l0.1,-0.1l-0.9,0.7l-0.7,0.9l0.1,-0.1l-0.7,1.1l0,-0.1l-0.3,1.2l-0.1,1.2l0,-0.1l0.1,1.3l0,-0.1l0.3,1.2l0,-0.1l0.7,1.1l-0.1,0l0.7,0.9l0,-0.1l0.9,0.8l-0.1,0l1.1,0.5l0,-0.1l1.1,0.4l1.2,0.2l-0.1,0l2.8,0l1.3,-0.2l-0.1,0l1.2,-0.4l-0.1,0.1l1,-0.5l1,-0.8l-0.1,0.1l0.7,-0.9l0.6,-1.1l-0.1,0.1l0.4,-1.2l0,0.1l0.2,-1.3l0,0.1l-0.2,-1.2l-0.4,-1.2l0.1,0.1l-0.6,-1.1l0,0.1l-0.7,-0.9l0.1,0l-1,-0.7l0,0.1l-1,-0.7l0.1,0l-1.2,-0.3l0.1,0l-1.3,-0.1l-2.8,0l0,-0.8l2.9,0l1.3,0.1l1.2,0.4l0.1,0.1l1,0.6l0.1,0l1,0.8l0.7,1l0.1,0l0.5,1.1l0,0.1c1.1,2.4,0.5,5.3,-1.3,7.2l-1,0.7l-0.1,0.1l-1,0.6l-0.1,0l-1.2,0.3l-1.3,0.2l-2.9,0l-1.2,-0.2l-0.1,0l-1.1,-0.3l-0.1,0l-1.1,-0.6l0,-0.1L227,451l-0.1,0l-0.8,-0.9l0,-0.1l-0.6,-1.1l-0.1,-0.1L225,447.6l-0.1,-1.3l0,-0.1L225,445l0,-0.1c0.6,-2.4,2.7,-4.5,5.2,-5.2l0.1,0l1.2,-0.1Z" class="g2_1442" />
<path d="M231.5,440.4l0.1,0l-0.1,-0.8Z" class="g2_1442" />
<path d="M225.9,454l-1.2,0.1l0.1,0l-1.1,0.4l-1,0.5l0.1,-0.1l-1,0.8l-0.7,0.9l0.1,-0.1l-0.6,1l0,-0.1l-0.3,1.2l-0.2,1.2l0,-0.1l0.2,1.2l0,-0.1l0.3,1.2l0,-0.1l0.6,1l-0.1,0l0.7,0.9l0,-0.1l1,0.8l-0.1,0l1,0.5l0,-0.1l1.1,0.4l-0.1,0l1.2,0.1l-0.1,0l16.1,0l1.2,-0.1l-0.1,0l1.1,-0.4L244,465l1.1,-0.5l0.8,-0.8l-0.1,0.1l0.8,-0.9l0.5,-1L247,462l0.4,-1.2l0,0.1l0.2,-1.2l0,0.1l-0.2,-1.2L247,457.4l0.1,0.1l-0.5,-1l0,0.1l-0.8,-0.9l0.1,0l-0.8,-0.8l0,0.1L244,454.5l0.1,0L243,454.1l0.1,0L241.9,454l-16.1,0l0,-0.7l16.2,0l1.2,0.1l0.1,0l1.1,0.4l1.1,0.6l0.1,0l0.8,0.7l0,0.1l0.7,0.9l0.1,0l0.6,1l0,0.1c1,2.6,0.4,5.1,-1.4,7.1l-0.8,0.7l-0.1,0.1l-1.1,0.6l-1.1,0.3l-0.1,0l-1.2,0.1l-16.2,0L224.6,466l-0.1,0l-1.1,-0.3l-0.1,0l-1,-0.6l0,-0.1l-0.9,-0.7l-0.1,0l-0.7,-0.9l0,-0.1l-0.6,-1l-0.1,-0.1L219.5,461l-0.1,-1.2l0,-0.1l0.1,-1.2l0,-0.1c0.6,-2.5,2.5,-4.3,5,-5l0.1,0l1.2,-0.1Z" class="g2_1442" />
<path d="M225.8,454l0.1,0l-0.1,-0.7Z" class="g2_1442" />
<path d="M259.5,440.4l-1.2,0.1l-1.2,0.3l0.1,0l-1.1,0.7l0.1,-0.1l-0.9,0.7l-0.7,0.9l0.1,-0.1L254,444l0,-0.1l-0.4,1.2l0,1.2l0,-0.1l0,1.3l0,-0.1l0.4,1.2l0,-0.1l0.7,1.1l-0.1,0l0.7,0.9l0,-0.1l0.9,0.8l-0.1,0l1.1,0.5l-0.1,-0.1l1.2,0.4l1.2,0.2l-0.1,0l2.8,0l1.3,-0.2l-0.1,0l1.2,-0.4l-0.1,0.1l1,-0.5l1,-0.8l-0.1,0.1l0.7,-0.9l0.6,-1.1l-0.1,0.1l0.3,-1.2l0,0.1l0.2,-1.3l0,0.1l-0.2,-1.2l-0.3,-1.2l0.1,0.1l-0.6,-1.1l0,0.1l-0.7,-0.9l0.1,0l-1,-0.7l0,0.1l-1,-0.7l0.1,0l-1.2,-0.3l0.1,0l-1.3,-0.1l-2.8,0l0,-0.8l2.9,0l1.2,0.1l1.2,0.4l0.1,0.1l1,0.6l0.1,0l1,0.8l0.8,1l0.1,0l0.5,1.1l0,0.1c1.1,2.4,0.4,5.3,-1.4,7.2l-1,0.7l-0.1,0.1c-1.8,1.5,-6.8,1.4,-8.9,0.6l-0.1,0l-1.1,-0.6l0,-0.1L254.8,451l-0.1,0L254,450.1l0,-0.1l-0.6,-1.1l-0.1,-0.1l-0.4,-1.2l-0.1,-1.3l0,-0.1l0.1,-1.2l0,-0.1c0.5,-2.4,2.8,-4.6,5.2,-5.2l0.1,0l1.2,-0.1Z" class="g2_1442" />
<path d="M259.4,440.4l0.1,0l-0.1,-0.8Z" class="g2_1442" />
<path d="M253.7,454l-1.2,0.1l0.1,0l-1.1,0.4l-1,0.5l0.1,-0.1l-0.9,0.8l-0.7,0.9l0.1,-0.1l-0.6,1l0,-0.1l-0.4,1.2l-0.1,1.2l0,-0.1l0.1,1.2l0,-0.1l0.4,1.2l0,-0.1l0.6,1l-0.1,0l0.7,0.9l0,-0.1l0.9,0.8l-0.1,0l1,0.5l0,-0.1l1.1,0.4l-0.1,0l1.2,0.1l-0.1,0l16.2,0l1.2,-0.1l-0.1,0l1.1,-0.4l-0.1,0.1l1.1,-0.5l0.8,-0.8l-0.1,0.1l0.8,-0.9l0.6,-1L275,462l0.3,-1.2l0,0.1l0.2,-1.2l0,0.1l-0.2,-1.2L275,457.4l0.1,0.1l-0.6,-1l0,0.1l-0.8,-0.9l0.1,0L273,454.9l0,0.1l-1.1,-0.5l0.1,0l-1.1,-0.4l0.1,0L269.8,454l-16.2,0l0,-0.7l16.3,0l1.2,0.1l1.1,0.4l1.1,0.6l0.1,0l0.9,0.7l0,0.1l0.7,0.9l0.1,0l0.6,1l0,0.1l0.3,1.2l0,0.1l0.2,1.2l0,0.1L276,461l-0.3,1.2l0,0.1l-0.6,1l-0.1,0.1l-0.7,0.9l-0.9,0.7l-0.1,0.1l-1.1,0.6l-1.1,0.3l-1.2,0.1l-16.3,0L252.5,466l-0.1,0l-1.1,-0.3l-0.1,0l-1,-0.6l0,-0.1l-1,-0.7l-0.8,-0.9l0,-0.1l-0.5,-1l-0.1,-0.1L247.4,461l-0.2,-1.2l0,-0.1l0.2,-1.2l0,-0.1c0.6,-2.5,2.5,-4.3,5,-5l0.1,0l1.1,-0.1Z" class="g2_1442" />
<path d="M253.6,454l0.1,0l-0.1,-0.7Z" class="g2_1442" />
<path d="M287.8,438l0.8,0l0,-16.2l-0.8,0l0,16.2Z" class="g2_1442" />
<path d="M293.1,422.2L292.3,422l-4.5,15.9l0,0.2l0.4,1.3l0.4,-1.3Z" class="g2_1442" />
<path d="M287.8,438.1l0.8,-0.2L284,422l-0.8,0.2Z" class="g2_1442" />
<path d="M287.8,422.1l0.8,0l0,-32.6l-0.8,0l0,32.6Z" class="g2_1442" />
<path d="M206.8,438.8l0.7,0l0,-16.2l-0.7,0l0,16.2Z" class="g2_1442" />
<path d="M212.1,423l-0.7,-0.1l-4.6,15.8l0,0.2l0.4,1.3l0.3,-1.3Z" class="g2_1442" />
<path d="M206.8,438.9l0.7,-0.2L203,422.9l-0.7,0.1Z" class="g2_1442" />
<path d="M206.8,423l0.7,0l0,-32.7l-0.7,0l0,32.7Z" class="g2_1442" />
<path d="M232,440.3l0.7,0l0,-16.3l-0.7,0l0,16.3Z" class="g2_1442" />
<path d="M237.3,424.5l-0.7,-0.2L232,440.2l0,0.2l0.4,1.2l0.3,-1.2Z" class="g2_1442" />
<path d="M232,440.4l0.7,-0.2l-4.5,-15.9l-0.7,0.2Z" class="g2_1442" />
<path d="M232,424.4l0.7,0l0,-32.6l-0.7,0l0,32.6Z" class="g2_1442" />
<path d="M260.3,438l0.8,0l0,-16.2l-0.8,0l0,16.2Z" class="g2_1442" />
<path d="M265.6,422.2L264.8,422l-4.5,15.9l0,0.2l0.4,1.3l0.4,-1.3Z" class="g2_1442" />
<path d="M260.3,438.1l0.8,-0.2L256.5,422l-0.8,0.2Z" class="g2_1442" />
<path d="M260.3,422.1l0.8,0l0,-32.6l-0.8,0l0,32.6Z" class="g2_1442" />
<path d="M220,499.7l-0.5,0.5l12.3,10.6l0.6,-0.6Z" class="g2_1442" />
<path d="M223.3,496.6l-0.5,0.3l9,13.8l0.1,0.2l1.2,0.5l-0.7,-1.1Z" class="g2_1442" />
<path d="M231.9,510.9l0.4,-0.8l-15.1,-6.9l-0.3,0.8Z" class="g2_1442" />
<path d="M207.4,489l-0.2,-0.2l-0.5,0.5l0.3,0.2Z" class="g2_1442" />
<path d="M220,499.7l0.3,0.2l-0.5,0.5l-0.3,-0.2Z" class="g2_1442" />
<path d="M207.4,489l-0.4,0.5l12.5,10.7l0.5,-0.5Z" class="g2_1442" />
<path d="M232.6,491.1l-0.8,0.1l3.7,15.8l0.7,-0.2Z" class="g2_1442" />
<path d="M237.1,490.5l-0.8,0l-0.8,16.4l0,0.2l0.6,1.2l0.1,-1.4Z" class="g2_1442" />
<path d="M235.5,507.1l0.7,-0.4l-8,-14.4l-0.7,0.4Z" class="g2_1442" />
<path d="M231.3,485.3l-0.1,-0.4l-0.7,0.2l0,0.4Z" class="g2_1442" />
<path d="M232.6,491.1l0.1,0.3l-0.8,0.2l-0.1,-0.4Z" class="g2_1442" />
<path d="M231.3,485.3l-0.8,0.2l1.3,5.7l0.8,-0.1Z" class="g2_1442" />
<path d="M250.2,493.7l-0.8,-0.3l-7.6,14.3l0.8,0.3Z" class="g2_1442" />
<path d="M253.9,496.3l-0.5,-0.6l-11.5,11.9l-0.1,0.1l-0.3,1.3l1,-0.9Z" class="g2_1442" />
<path d="M241.8,507.7l0.7,0.2L246,491.8l-0.7,-0.2Z" class="g2_1442" />
<path d="M254.9,484.8l0.2,-0.2l-0.6,-0.4l-0.2,0.3Z" class="g2_1442" />
<path d="M250.2,493.7L250,494l-0.7,-0.4l0.2,-0.2Z" class="g2_1442" />
<path d="M254.9,484.8l-0.6,-0.3l-4.8,8.8l0.7,0.4Z" class="g2_1442" />
<path d="M263.5,500.6L263.1,500l-13.7,8.8l0.4,0.6Z" class="g2_1442" />
<path d="M265.5,504.6l-0.2,-0.7l-15.8,4.9l-0.2,0l-0.9,1.1l1.3,-0.4Z" class="g2_1442" />
<path d="M249.3,508.8l0.6,0.6l10.8,-12.5l-0.5,-0.5Z" class="g2_1442" />
<path d="M285.3,486.5l0.2,-0.2l-0.3,-0.6l-0.3,0.1Z" class="g2_1442" />
<path d="M263.5,500.7l-0.3,0.2l-0.4,-0.7l0.3,-0.2Z" class="g2_1442" />
<path d="M285.3,486.5l-0.4,-0.7L263.1,500l0.4,0.7Z" class="g2_1442" />
<path d="M572.9,507.8l-1.4,0.1l0.1,0l-1.3,0.5l-1.2,0.6l0.1,-0.1l-1.1,1l-1,1.1l0.1,-0.1l-0.6,1.2l-0.5,1.4l0,-0.1l-0.1,1.5l0,-0.1l0.1,1.5l0,-0.1l0.5,1.3l0.6,1.1l-0.1,0l1,1.1l1.1,0.9l-0.1,0l1.2,0.6l0,-0.1l1.3,0.5l-0.1,0l1.4,0.1l0.7,0l1.4,-0.1l-0.1,0l1.4,-0.5l-0.1,0.1l1.3,-0.6l1.1,-0.9l-0.1,0l0.8,-1.1l0.8,-1.1l-0.1,0l0.3,-1.3l0,0.1l0.2,-1.5l0,0.1l-0.2,-1.5L580,512.1l0.1,0l-0.8,-1.2l0,0.1l-0.8,-1.1l0.1,0l-1.1,-1l0,0.1l-1.3,-0.6l0.1,0l-1.4,-0.5l0.1,0l-1.4,-0.1l-0.7,0l0,-0.7l0.7,0l1.4,0.1l0.2,0l1.4,0.5l1.3,0.7l0.1,0l1.1,0.9l0,0.1l0.8,1.1l0.1,0l0.7,1.3l0,0.1c0.8,2.3,0.8,5.2,-0.8,7.2l-0.8,1.1l-1.1,0.9c-2,1.5,-5.7,1.7,-8,0.8l-0.1,0l-1.2,-0.7l0,-0.1l-1.1,-0.9l-0.1,0l-0.9,-1.1l0,-0.1L566,517.8l-0.1,0l-0.5,-1.3l0,-0.1c-0.4,-1.5,-0.1,-3.2,0.5,-4.5l0.1,-0.1l0.6,-1.3c1.2,-1.7,2.8,-2.8,4.8,-3.3l0.1,0l1.4,-0.1Z" class="g2_1442" />
<path d="M572.9,507.8l0,-0.7Z" class="g2_1442" />
<path d="M241.2,508.3l-1.5,0.1l0.2,0l-1.4,0.4l-1.3,0.7l0.1,-0.1l-1,0.9l-0.9,1.1l0.1,-0.1l-0.6,1.2l-0.5,1.4l0,-0.1l-0.2,1.5l0,-0.1l0.2,1.4l0,-0.1l0.5,1.4l0,-0.1l0.6,1.3l-0.1,0l0.9,1.1l0,-0.1l1,0.9l-0.1,0l1.3,0.7l0,-0.1l1.4,0.4l-0.2,0l1.5,0.1l0.6,0l1.5,-0.1l-0.1,0l1.4,-0.4l-0.1,0.1l1.3,-0.7l1.1,-0.9l-0.1,0.1l0.8,-1.1l0.7,-1.3l-0.1,0.1l0.4,-1.4l0,0.1l0.2,-1.4l0,0.1l-0.2,-1.5l-0.4,-1.4l0.1,0.1l-0.7,-1.2l0,0.1l-0.8,-1.1l0.1,0l-1.1,-0.9l0,0.1l-1.3,-0.7l0.1,0l-1.4,-0.4l0.1,0l-1.5,-0.1l-0.6,0l0,-0.7l0.6,0l1.5,0.1l0.2,0l1.3,0.4l0,0.1l1.3,0.6l0.1,0l1.1,1l0,0.1l0.8,1.1l0.1,0l0.8,1.1l0,0.1c0.8,2.4,0.7,5.3,-0.9,7.4l-0.8,1.1l-1.1,0.9c-2,1.5,-5.7,1.7,-8,0.7l-1.3,-0.6l0,-0.1l-1,-0.9l-0.1,0l-0.9,-1.1l0,-0.1l-0.7,-1.3l-0.1,0l-0.4,-1.4l0,-0.1c-0.4,-1.4,-0.2,-3.1,0.4,-4.5l0.1,-0.1l0.7,-1.1c1.5,-2.1,2.3,-2.6,4.7,-3.3l0.1,0l1.5,-0.1Z" class="g2_1442" />
<path d="M241.2,508.3l0,-0.7Z" class="g2_1442" />
<path d="M317.4,673l-0.8,0.4l7.1,14.6l0.7,-0.3Z" class="g2_1442" />
<path d="M321.7,671.6l-0.8,0.1l2.8,16.3l0.1,0.1l0.8,1l-0.2,-1.3Z" class="g2_1442" />
<path d="M323.8,688.1l0.5,-0.5l-11,-12.3l-0.5,0.6Z" class="g2_1442" />
<path d="M244.8,521.7l-0.1,-0.3l-0.6,0.3l0.1,0.2Z" class="g2_1442" />
<path d="M317.4,673.1l0,0.3l-0.6,0.3l-0.1,-0.3Z" class="g2_1442" />
<path d="M244.8,521.7l-0.6,0.2l72.5,151.5l0.7,-0.3Z" class="g2_1442" />
<path d="M548.2,674.4l-0.8,-0.2l-2.8,16l0.7,0.1Z" class="g2_1442" />
<path d="M552.6,675.6l-0.8,-0.4l-7.2,14.9l0,0.2l0.1,1.3l0.6,-1.2Z" class="g2_1442" />
<path d="M544.6,690.2l0.7,0l-1.6,-16.4l-0.8,0Z" class="g2_1442" />
<path d="M574,527.2l0,-0.4l-0.7,-0.1l0,0.4Z" class="g2_1442" />
<path d="M548.2,674.4l0,0.4l-0.8,-0.1l0,-0.4Z" class="g2_1442" />
<path d="M574,527.2l-0.7,-0.1L547.4,674.3l0.8,0.1Z" class="g2_1442" />
<path d="M642.9,682.3l-0.6,-0.6l-11.4,11.5l0.5,0.5Z" class="g2_1442" />
<path d="M645.8,685.9l-0.4,-0.8l-14.5,8l0,0.2l-0.8,1.2l1.2,-0.8Z" class="g2_1442" />
<path d="M630.9,693.3l0.6,0.3l8,-14.3l-0.8,-0.4Z" class="g2_1442" />
<path d="M649.6,675.6l0.2,-0.3l-0.5,-0.5L649,675Z" class="g2_1442" />
<path d="M642.9,682.3l-0.3,0.2L642,682l0.3,-0.3Z" class="g2_1442" />
<path d="M649.6,675.6L649,675l-6.7,6.7l0.6,0.6Z" class="g2_1442" />
<path d="M408.1,683.2l-0.5,0.5l12,10.9l0.5,-0.6Z" class="g2_1442" />
<path d="M411.4,680.2l-0.5,0.3l8.7,14l0,0.2l1.2,0.5l-0.7,-1.1Z" class="g2_1442" />
<path d="M419.6,694.6l0.4,-0.7l-14.8,-7.2l-0.4,0.7Z" class="g2_1442" />
<path d="M385.3,662.6L385,662.4l-0.5,0.5l0.3,0.2Z" class="g2_1442" />
<path d="M408.1,683.2l0.3,0.2l-0.5,0.5l-0.3,-0.2Z" class="g2_1442" />
<path d="M385.3,662.6l-0.5,0.5l22.8,20.6l0.5,-0.5Z" class="g2_1442" />
<path d="M269.5,159l440.4,0l0,-0.7l-440.4,0l0,0.7Z" class="g2_1442" />
<path d="M709.1,179.3l0.8,0l0,-20.6l-0.8,0l0,20.6Z" class="g2_1442" />
<path d="M269.1,179.3l440.4,0l0,-0.7l-440.4,0l0,0.7Z" class="g2_1442" />
<path d="M269.1,178.9l0.8,0l0,-20.6l-0.8,0l0,20.6Z" class="g2_1442" />
<path d="M599.1,179.3l0.8,0l0,-20.6l-0.8,0l0,20.6Z" class="g2_1442" />
<path d="M489.1,179.3l0.8,0l0,-20.6l-0.8,0l0,20.6Z" class="g2_1442" />
<path d="M379.1,179.3l0.8,0l0,-20.6l-0.8,0l0,20.6Z" class="g2_1442" />
<path d="M467.5,213.4l106,0l0,-0.7l-106,0l0,0.7Z" class="g2_1442" />
<path d="M572.7,231.7l0.8,0l0,-18.7l-0.8,0l0,18.7Z" class="g2_1442" />
<path d="M467.1,231.7l106,0l0,-0.7l-106,0l0,0.7Z" class="g2_1442" />
<path d="M467.1,231.4l0.8,0l0,-18.7l-0.8,0l0,18.7Z" class="g2_1442" />
<path d="M493.5,231.4l0.8,0l0,-18.7l-0.8,0l0,18.7Z" class="g2_1442" />
<path d="M519.9,231.4l0.8,0l0,-18.7l-0.8,0l0,18.7Z" class="g2_1442" />
<path d="M546.3,231.4l0.8,0l0,-18.7l-0.8,0l0,18.7Z" class="g2_1442" />
<path d="M519.6,213.6l0.9,-4l0.3,-0.9l0.9,0.5l12.8,7l2.3,1.3l-2.7,0.1l-14.5,0.8l-1,0.1l0.1,-1l0.8,-0.5l14.6,-0.9l0,1.5l-0.4,-0.1l-12.9,-7l0.9,-1.3L522,210l-0.9,3.9Z" class="g2_1442" />
<path d="M518.7,217.5l0.9,-3.9l1.5,0.3l-0.8,4Z" class="g2_1442" />
<path fill-rule="evenodd" d="M520.3,213.8l0.9,-4l12.9,7.1l-14.6,0.8Z" class="g2_1442" />
<path d="M350.2,175.6l-0.4,-0.1l-0.2,0.8l0.4,0.1Z" class="g2_1442" />
<path d="M519.7,213.2l0.3,0.1l-0.2,0.7l-0.3,-0.1Z" class="g2_1442" />
<path d="M350.2,175.6l-0.2,0.8L519.5,214l0.2,-0.8Z" class="g2_1442" />
<path d="M522.3,208.4l1.9,-3.7l0.5,-0.8l0.6,0.6l10.9,9.8l2,1.8l-2.7,-0.4l-14.4,-2.6l-1,-0.2l0.5,-1l0.8,-0.3l14.4,2.5l-0.3,1.6l-0.3,-0.3l-10.9,-9.8l1,-1.1l0.2,0.9l-1.8,3.7Z" class="g2_1442" />
<path d="M520.6,211.9l1.7,-3.5l1.4,0.7l-1.8,3.6Z" class="g2_1442" />
<path fill-rule="evenodd" d="M523,208.7l1.8,-3.6l10.8,9.8l-14.4,-2.6Z" class="g2_1442" />
<path d="M450.4,172.6l-0.3,-0.2l-0.4,0.7l0.3,0.1Z" class="g2_1442" />
<path d="M522.5,208.1l0.3,0.2l-0.4,0.6l-0.3,-0.2Z" class="g2_1442" />
<path d="M450.4,172.6l-0.4,0.6l72.1,35.5l0.4,-0.6Z" class="g2_1442" />
<path d="M534.4,201.9l4.1,-0.5l1,-0.1l-0.2,1l-2.1,14.6l-0.4,2.6l-1.1,-2.4l-5.9,-13.5l-0.3,-0.9l1,-0.2l0.8,0.4l5.9,13.5l-1.5,0.7l0,-0.5L537.8,202l1.5,0.3l-0.7,0.6l-4,0.6Z" class="g2_1442" />
<path d="M530.5,202.5l3.9,-0.6l0.2,1.6l-3.9,0.5Z" class="g2_1442" />
<path fill-rule="evenodd" d="M534.5,202.7l4,-0.6l-2.1,14.6l-5.8,-13.5Z" class="g2_1442" />
<path d="M530.7,171.4l0,-0.3l-0.7,0l0,0.4Z" class="g2_1442" />
<path d="M534.8,201.9l0,0.4l-0.7,0.1l0,-0.4Z" class="g2_1442" />
<path d="M530.7,171.4l-0.7,0.1l4.1,30.5l0.7,-0.1Z" class="g2_1442" />
<path d="M554.2,207.7l1.9,3.6l0.5,0.9l-1,0.2l-14.3,3.1l-2.6,0.7l2,-2L551.1,204l0.7,-0.6l0.5,0.8l-0.1,1l-10.4,10.1l-1.1,-1.1L541,214l14.3,-3.1l0.3,1.5L554.8,212l-2,-3.5Z" class="g2_1442" />
<path d="M552.3,204.2l1.9,3.5l-1.4,0.8L550.9,205Z" class="g2_1442" />
<path fill-rule="evenodd" d="M553.6,208.1l1.9,3.6l-14.3,3.1l10.4,-10.2Z" class="g2_1442" />
<path d="M617.7,174.1l0.2,-0.2l-0.3,-0.6l-0.3,0.1Z" class="g2_1442" />
<path d="M554.5,208.2l-0.3,0.2l-0.4,-0.7l0.3,-0.2Z" class="g2_1442" />
<path d="M617.7,174.1l-0.4,-0.7l-63.2,34.1l0.4,0.7Z" class="g2_1442" />
<path d="M267.6,288L708,288l0,-0.7l-440.4,0l0,0.7Z" class="g2_1442" />
<path d="M707.3,308.3l0.7,0l0,-20.6l-0.7,0l0,20.6Z" class="g2_1442" />
<path d="M267.2,308.3l440.5,0l0,-0.8l-440.5,0l0,0.8Z" class="g2_1442" />
<path d="M267.2,307.9l0.7,0l0,-20.6l-0.7,0l0,20.6Z" class="g2_1442" />
<path d="M597.3,308.3l0.7,0l0,-20.6l-0.7,0l0,20.6Z" class="g2_1442" />
<path d="M487.3,308.3l0.7,0l0,-20.6l-0.7,0l0,20.6Z" class="g2_1442" />
<path d="M377.3,308.3l0.7,0l0,-20.6l-0.7,0l0,20.6Z" class="g2_1442" />
<path d="M544,280.3l3.9,-0.8l1,-0.2l-0.1,1l-0.9,14.6l-0.2,2.6l-1.2,-2.2l-6.9,-13l-0.5,-1l0.9,-0.2l0.8,0.4l7,12.9l-1.3,0.9l-0.1,-0.5l0.9,-14.6l1.5,0.1l-0.5,0.7l-4,0.9Z" class="g2_1442" />
<path d="M540,281.1l3.9,-0.8l0.4,1.6l-3.9,0.8Z" class="g2_1442" />
<path fill-rule="evenodd" d="M544.1,281.1l4,-0.9l-0.9,14.6l-7,-12.9Z" class="g2_1442" />
<path d="M534.5,234.4L534.4,234l-0.7,0.2l0.1,0.4Z" class="g2_1442" />
<path d="M544.4,280.2l0.1,0.4l-0.7,0.2l-0.1,-0.4Z" class="g2_1442" />
<path d="M534.5,234.4l-0.7,0.2l9.9,45.8l0.7,-0.2Z" class="g2_1442" />
<path d="M651.6,289.8l2.3,-3.3l0.6,-0.7l0.6,0.7l9.4,11.3l1.7,2L663.7,299l-14,-4.7l-1,-0.2l0.6,-1l0.9,-0.2l13.9,4.6l-0.4,1.5l-0.4,-0.3L654,287.5l1.1,-1l0,1l-2.2,3.3Z" class="g2_1442" />
<path d="M649.3,293.2l2.3,-3.3l1.3,0.9l-2.3,3.3Z" class="g2_1442" />
<path fill-rule="evenodd" d="M652.2,290.3l2.3,-3.3l9.3,11.3l-13.9,-4.7Z" class="g2_1442" />
<path d="M569.8,233.6l-0.3,-0.2l-0.4,0.6l0.2,0.2Z" class="g2_1442" />
<path d="M651.8,289.6l0.3,0.2l-0.4,0.6l-0.3,-0.2Z" class="g2_1442" />
<path d="M569.8,233.6l-0.5,0.6l82.1,56l0.4,-0.6Z" class="g2_1442" />
<path d="M466.1,287.6l3.2,2.4l0.8,0.7l-0.9,0.5l-11.9,8.6l-2.1,1.6l1,-2.5l5.5,-13.5l0.4,-1l0.8,0.7l0.3,0.8l-5.5,13.6l-1.5,-0.6l0.3,-0.3l11.9,-8.7l0.8,1.3l-0.9,0l-3.2,-2.4Z" class="g2_1442" />
<path d="M462.9,285.1l3.2,2.5l-1,1.2l-3.2,-2.5Z" class="g2_1442" />
<path fill-rule="evenodd" d="M465.7,288.1l3.2,2.5L457,299.2l5.5,-13.6Z" class="g2_1442" />
<path d="M509.6,232.7l0.2,-0.2L509.2,232l-0.2,0.3Z" class="g2_1442" />
<path d="M466.4,287.7l-0.2,0.3l-0.5,-0.4l0.2,-0.3Z" class="g2_1442" />
<path d="M509.6,232.7L509,232.3l-43.1,55l0.5,0.4Z" class="g2_1442" />
<path d="M332.3,291.1l1.6,3.8l0.3,0.9l-1,0.2l-14.5,1.7l-2.5,0.3l2,-1.6l11.3,-9.3l0.9,-0.6l0.3,0.9l-0.1,0.9l-11.4,9.3l-1,-1.2l0.4,-0.2l14.5,-1.8l0.1,1.6l-0.7,-0.5l-1.6,-3.7Z" class="g2_1442" />
<path d="M330.7,287.4l1.6,3.7l-1.4,0.7L329.4,288Z" class="g2_1442" />
<path fill-rule="evenodd" d="M331.7,291.4l1.5,3.8l-14.5,1.7l11.4,-9.3Z" class="g2_1442" />
<path d="M469.5,233.6l0.3,-0.1l-0.3,-0.7l-0.3,0.1Z" class="g2_1442" />
<path d="M332.6,291.5l-0.3,0.1L332,291l0.3,-0.1Z" class="g2_1442" />
<path d="M469.5,233.6l-0.3,-0.7l-136.9,58l0.3,0.6Z" class="g2_1442" />
<path d="M489.3,325.8l0.5,0l0,-9.3l-0.5,0l0,9.3Z" class="g2_1442" />
<path d="M489.5,325.8l217.6,0l0,-0.5l-217.6,0l0,0.5Z" class="g2_1442" />
<path d="M706.7,325.5l0.4,0l0,-8.8l-0.4,0l0,8.8Z" class="g2_1442" />
<path d="M640.8,373.1l-0.5,-0.6L630,385.2l0.6,0.4Z" class="g2_1442" />
<path d="M644.1,376.3l-0.4,-0.6l-13.6,9.5l-0.2,0.1l-0.4,1.3l1,-0.9Z" class="g2_1442" />
<path d="M629.9,385.3l0.8,0.3l6.5,-15.2l-0.8,-0.3Z" class="g2_1442" />
<path d="M680.2,325l0.2,-0.3l-0.6,-0.5l-0.2,0.3Z" class="g2_1442" />
<path d="M640.8,373.1l-0.1,0.3l-0.6,-0.5l0.2,-0.3Z" class="g2_1442" />
<path d="M680.2,325l-0.6,-0.5l-39.3,48.1l0.5,0.5Z" class="g2_1442" />
<path d="M650.7,521.3l-0.8,-0.2l-3,16l0.7,0.2Z" class="g2_1442" />
<path d="M655.1,522.6l-0.8,-0.4L646.9,537l0,0.2l0.1,1.3l0.6,-1.1Z" class="g2_1442" />
<path d="M646.9,537.2l0.7,0l-1.4,-16.4l-0.8,0Z" class="g2_1442" />
<path d="M687.1,328.5l0,-0.3l-0.7,-0.1l0,0.3Z" class="g2_1442" />
<path d="M650.7,521.3l0,0.4l-0.8,-0.1l0,-0.4Z" class="g2_1442" />
<path d="M687.1,328.5l-0.7,-0.1L649.9,521.2l0.8,0.1Z" class="g2_1442" />
<path d="M311.2,382.3L311,381.5l-15.7,4.3l0.2,0.8Z" class="g2_1442" />
<path d="M311.9,386.7l0,-0.7l-16.5,-0.2l-0.1,0l-1.1,0.8l1.2,0Z" class="g2_1442" />
<path d="M295.3,385.8l0.3,0.8l14.1,-8.7l-0.3,-0.7Z" class="g2_1442" />
<path d="M512.7,327.3l0.4,0l-0.2,-0.8l-0.4,0.1Z" class="g2_1442" />
<path d="M311.2,382.3l-0.4,0l-0.1,-0.7l0.3,-0.1Z" class="g2_1442" />
<path d="M512.7,327.3l-0.2,-0.7L311,381.5l0.2,0.8Z" class="g2_1442" />
<path d="M406.9,514.6l-0.5,-0.3L397.7,528l0.5,0.4Z" class="g2_1442" />
<path d="M410.6,517.6L410,517l-12.3,10.9l-0.1,0.2l-0.4,1.3l1,-0.9Z" class="g2_1442" />
<path d="M397.6,528.1l0.7,0.2L403,512.4l-0.8,-0.2Z" class="g2_1442" />
<path d="M525.2,327.9l0.1,-0.3l-0.6,-0.3l-0.2,0.2Z" class="g2_1442" />
<path d="M407,514.6l-0.2,0.3l-0.6,-0.4l0.2,-0.2Z" class="g2_1442" />
<path d="M525.2,327.9l-0.7,-0.4L406.4,514.3l0.6,0.3Z" class="g2_1442" />
</svg>