<?xml version="1.0" encoding="UTF-8" standalone="no"?>
<!DOCTYPE svg PUBLIC "-//W3C//DTD SVG 1.1//EN"
"http://www.w3.org/Graphics/SVG/1.1/DTD/svg11.dtd">
<svg viewBox="0 0 935 1210" version="1.1" xmlns="http://www.w3.org/2000/svg" xmlns:xlink="http://www.w3.org/1999/xlink">
<defs>
<style type="text/css"><![CDATA[
.g1_1275{
fill: #FFFFFF;
}
.g2_1275{
}
]]></style>
</defs>
<path d="M68.9,1149.3l686.3,0l0,-21.2l-686.3,0l0,21.2Z" class="g1_1275" />
<path d="M771.3,1149.3l83.7,0l0,-21.2l-83.7,0l0,21.2Z" class="g1_1275" />
<path d="M93.8,376.4l0.7,0l0,-195.7l-0.7,0l0,195.7Z" class="g2_1275" />
<path d="M828.2,376.4l0.7,0l0,-195.7l-0.7,0l0,195.7Z" class="g2_1275" />
<path d="M93.8,180.7l735.1,0l0,-0.8l-735.1,0l0,0.8Z" class="g2_1275" />
<path d="M93.8,377.2l735.1,0l0,-0.7l-735.1,0l0,0.7Z" class="g2_1275" />
<path d="M231.4,343.8l56.7,0l0,-20.7l-56.7,0l0,20.7Z" class="g1_1275" />
<path d="M231.4,323.5l57.1,0l0,-0.7l-57.1,0l0,0.7Z" class="g2_1275" />
<path d="M287.7,344.1l0.8,0l0,-21l-0.8,0l0,21Z" class="g2_1275" />
<path d="M231,344.1l57.1,0l0,-0.7l-57.1,0l0,0.7Z" class="g2_1275" />
<path d="M231,343.8l0.7,0l0,-21l-0.7,0l0,21Z" class="g2_1275" />
<path d="M344.8,343.8l56.7,0l0,-20.7l-56.7,0l0,20.7Z" class="g1_1275" />
<path d="M344.8,323.5l57.1,0l0,-0.7l-57.1,0l0,0.7Z" class="g2_1275" />
<path d="M401.1,344.1l0.8,0l0,-21l-0.8,0l0,21Z" class="g2_1275" />
<path d="M344.4,344.1l57.1,0l0,-0.7l-57.1,0l0,0.7Z" class="g2_1275" />
<path d="M344.4,343.8l0.7,0l0,-21l-0.7,0l0,21Z" class="g2_1275" />
<path d="M458.2,343.8l56.8,0l0,-20.7l-56.8,0l0,20.7Z" class="g1_1275" />
<path d="M458.2,323.5l57.2,0l0,-0.7l-57.2,0l0,0.7Z" class="g2_1275" />
<path d="M514.6,344.1l0.8,0l0,-21l-0.8,0l0,21Z" class="g2_1275" />
<path d="M457.9,344.1l57.1,0l0,-0.7l-57.1,0l0,0.7Z" class="g2_1275" />
<path d="M457.9,343.8l0.7,0l0,-21l-0.7,0l0,21Z" class="g2_1275" />
<path d="M571.7,343.8l56.7,0l0,-20.7l-56.7,0l0,20.7Z" class="g1_1275" />
<path d="M571.7,323.5l57,0l0,-0.7l-57,0l0,0.7Z" class="g2_1275" />
<path d="M628,344.1l0.7,0l0,-21l-0.7,0l0,21Z" class="g2_1275" />
<path d="M571.4,344.1l57,0l0,-0.7l-57,0l0,0.7Z" class="g2_1275" />
<path d="M571.4,343.8l0.7,0l0,-21l-0.7,0l0,21Z" class="g2_1275" />
<path fill-rule="evenodd" d="M512,313.1l0.1,0.3l0.2,0.3c1.2,0.9,2.8,0.1,2.6,-1.5l-0.1,-0.3l-0.2,-0.2c-0.7,-1.3,-2.8,-0.6,-2.7,0.9l0,0.3l0.1,0.2Z" class="g2_1275" />
<path d="M513.3,312.6l2.7,6l0.4,0.9l-1,0.2l-23.7,3.1l-2.6,0.3l2.1,-1.6l18.3,-15.2l0.8,-0.7l0.4,0.9l-0.2,0.9l-18.3,15.3l-1,-1.2l0.4,-0.2l23.7,-3.1l0.1,1.5l-0.8,-0.4L512,313.2Z" class="g2_1275" />
<path d="M510.7,306.5l2.6,6.1l-1.3,0.6l-2.7,-6Z" class="g2_1275" />
<path fill-rule="evenodd" d="M512.7,312.9l2.6,6L491.7,322L510,306.8Z" class="g2_1275" />
<path d="M572.4,288.4l-1.2,-2.8l-58.3,25.6l1.2,2.8Z" class="g2_1275" />
<path d="M628.4,240.6l56.7,0l0,-20.6l-56.7,0l0,20.6Z" class="g1_1275" />
<path d="M628.4,220.4l57.1,0l0,-0.8l-57.1,0l0,0.8Z" class="g2_1275" />
<path d="M684.8,241l0.7,0l0,-21l-0.7,0l0,21Z" class="g2_1275" />
<path d="M628,241l57.1,0l0,-0.7l-57.1,0l0,0.7Z" class="g2_1275" />
<path d="M628,240.6l0.7,0l0,-21l-0.7,0l0,21Z" class="g2_1275" />
<path fill-rule="evenodd" d="M636.5,305.5l0.3,-0.3l0.1,-0.2c0.5,-1.5,-0.9,-2.5,-2.2,-1.9l-0.3,0.2l-0.2,0.3c-0.9,1.1,0.6,2.9,1.9,2.3l0.3,-0.2l0.1,-0.2Z" class="g2_1275" />
<path d="M635.5,304.4l4.6,-4.6l0.8,-0.7l0.5,0.8l11.5,20.9l1.3,2.4l-2.4,-1.3L631,310.4l-0.8,-0.6l0.7,-0.7l0.9,-0.1l20.8,11.6l-0.8,1.3l-0.2,-0.3L640,300.7l1.4,-0.8l-0.2,0.9l-4.6,4.7Z" class="g2_1275" />
<path d="M630.9,309.1l4.6,-4.7l1.1,1.1l-4.6,4.7Z" class="g2_1275" />
<path fill-rule="evenodd" d="M636.1,305l4.6,-4.7l11.5,20.9L631.4,309.6Z" class="g2_1275" />
<path d="M572.8,239.6l-2.1,2.1l63.8,63.8l2.1,-2.1Z" class="g2_1275" />
<path fill-rule="evenodd" d="M590.1,299.4l0.2,-0.2l0.3,-0.1l0.2,-0.3l0.2,-0.1l0.1,-0.3l0,-0.9l-0.2,-0.3l-0.1,-0.3l-0.3,-0.2l-0.2,-0.2l-0.2,0l-0.4,-0.1l-0.3,0l-0.5,0.1c-1.4,0.8,-0.9,2.9,0.5,2.9l0.7,0Z" class="g2_1275" />
<path d="M589.6,297.9l6.3,-2l0.9,-0.2l0.1,0.9l0.6,23.9l0,2.7L596,320.9L582.9,301l-0.5,-0.8l1,-0.4l0.8,0.4l13.1,19.9l-1.3,0.8l-0.1,-0.4l-0.5,-23.9l1.5,0l-0.5,0.9l-6.3,2Z" class="g2_1275" />
<path d="M583.4,299.8l6.2,-1.9l0.5,1.6l-6.3,1.9Z" class="g2_1275" />
<path fill-rule="evenodd" d="M589.8,298.6l6.3,-2l0.6,23.9L583.6,300.6Z" class="g2_1275" />
<path d="M573.2,240.2l-2.9,0.9l17.8,57.3l3,-0.9Z" class="g2_1275" />
<path fill-rule="evenodd" d="M557,304.2l0.2,0.2l0.3,0.1c1.3,0.5,2.6,-1.2,1.7,-2.4L559,302l-0.6,-0.4l-0.9,0l-0.3,0.1l-0.1,0.2l-0.3,0.1l-0.2,0.3l-0.2,0.6l0,0.2l0.1,0.4l0.1,0.3l0.2,0.2l0.2,0.2Z" class="g2_1275" />
<path d="M557.9,303.1l5,4.3l0.8,0.7l-0.9,0.4l-19.9,13.2l-2.2,1.4l1.1,-2.4l9.9,-21.6l0.5,-0.9l0.7,0.6l0.2,1l-9.9,21.6l-1.4,-0.7l0.3,-0.3L562,307.3l0.8,1.2l-0.9,0l-5,-4.2Z" class="g2_1275" />
<path d="M552.9,298.8l5,4.3l-1,1.2l-5,-4.3Z" class="g2_1275" />
<path fill-rule="evenodd" d="M557.4,303.7l5.1,4.2L542.6,321l9.9,-21.6Z" class="g2_1275" />
<path d="M572.9,288l-2.3,-1.9l-13.7,16l2.3,2Z" class="g2_1275" />
<path d="M571.7,240.6l56.7,0l0,-20.6l-56.7,0l0,20.6Z" class="g1_1275" />
<path d="M571.7,220.4l57,0l0,-0.8l-57,0l0,0.8Z" class="g2_1275" />
<path d="M628,241l0.7,0l0,-21l-0.7,0l0,21Z" class="g2_1275" />
<path d="M571.4,241l57,0l0,-0.7l-57,0l0,0.7Z" class="g2_1275" />
<path d="M571.4,240.6l0.7,0l0,-21l-0.7,0l0,21Z" class="g2_1275" />
<path d="M515,220l56.7,0l0,20.6l-56.7,0Z" class="g1_1275" />
<path d="M515,220.4l57.1,0l0,-0.8l-57.1,0l0,0.8Z" class="g2_1275" />
<path d="M571.4,241l0.7,0l0,-21l-0.7,0l0,21Z" class="g2_1275" />
<path d="M514.6,241l57.1,0l0,-0.7l-57.1,0l0,0.7Z" class="g2_1275" />
<path d="M514.6,240.6l0.8,0l0,-21l-0.8,0l0,21Z" class="g2_1275" />
<path d="M458.2,240.6l56.8,0L515,220l-56.8,0l0,20.6Z" class="g1_1275" />
<path d="M458.2,220.4l57.2,0l0,-0.8l-57.2,0l0,0.8Z" class="g2_1275" />
<path d="M514.6,241l0.8,0l0,-21l-0.8,0l0,21Z" class="g2_1275" />
<path d="M457.9,241l57.1,0l0,-0.7l-57.1,0l0,0.7Z" class="g2_1275" />
<path d="M457.9,240.6l0.7,0l0,-21l-0.7,0l0,21Z" class="g2_1275" />
<path d="M401.5,240.6l56.7,0l0,-20.6l-56.7,0l0,20.6Z" class="g1_1275" />
<path d="M401.5,220.4l57.1,0l0,-0.8l-57.1,0l0,0.8Z" class="g2_1275" />
<path d="M457.9,241l0.7,0l0,-21l-0.7,0l0,21Z" class="g2_1275" />
<path d="M401.1,241l57.1,0l0,-0.7l-57.1,0l0,0.7Z" class="g2_1275" />
<path d="M401.1,240.6l0.8,0l0,-21l-0.8,0l0,21Z" class="g2_1275" />
<path d="M344.8,240.6l56.7,0l0,-20.6l-56.7,0l0,20.6Z" class="g1_1275" />
<path d="M344.8,220.4l57.1,0l0,-0.8l-57.1,0l0,0.8Z" class="g2_1275" />
<path d="M401.1,241l0.8,0l0,-21l-0.8,0l0,21Z" class="g2_1275" />
<path d="M344.4,241l57.1,0l0,-0.7l-57.1,0l0,0.7Z" class="g2_1275" />
<path d="M344.4,240.6l0.7,0l0,-21l-0.7,0l0,21Z" class="g2_1275" />
<path d="M288.1,240.6l56.7,0l0,-20.6l-56.7,0l0,20.6Z" class="g1_1275" />
<path d="M288.1,220.4l57,0l0,-0.8l-57,0l0,0.8Z" class="g2_1275" />
<path d="M344.4,241l0.7,0l0,-21l-0.7,0l0,21Z" class="g2_1275" />
<path d="M287.7,241l57.1,0l0,-0.7l-57.1,0l0,0.7Z" class="g2_1275" />
<path d="M287.7,240.6l0.8,0l0,-21l-0.8,0l0,21Z" class="g2_1275" />
<path d="M231.4,240.6l56.7,0l0,-20.6l-56.7,0l0,20.6Z" class="g1_1275" />
<path d="M231.4,220.4l57.1,0l0,-0.8l-57.1,0l0,0.8Z" class="g2_1275" />
<path d="M287.7,241l0.8,0l0,-21l-0.8,0l0,21Z" class="g2_1275" />
<path d="M231,241l57.1,0l0,-0.7l-57.1,0l0,0.7Z" class="g2_1275" />
<path d="M231,240.6l0.7,0l0,-21l-0.7,0l0,21Z" class="g2_1275" />
<path d="M628.4,287l56.7,0l0,-20.6l-56.7,0l0,20.6Z" class="g1_1275" />
<path d="M628.4,266.7l57.1,0l0,-0.7l-57.1,0l0,0.7Z" class="g2_1275" />
<path d="M684.8,287.4l0.7,0l0,-21l-0.7,0l0,21Z" class="g2_1275" />
<path d="M628,287.4l57.1,0l0,-0.8l-57.1,0l0,0.8Z" class="g2_1275" />
<path d="M628,287l0.7,0l0,-21l-0.7,0l0,21Z" class="g2_1275" />
<path d="M571.7,287l56.7,0l0,-20.6l-56.7,0l0,20.6Z" class="g1_1275" />
<path d="M571.7,266.7l57,0l0,-0.7l-57,0l0,0.7Z" class="g2_1275" />
<path d="M628,287.4l0.7,0l0,-21l-0.7,0l0,21Z" class="g2_1275" />
<path d="M571.4,287.4l57,0l0,-0.8l-57,0l0,0.8Z" class="g2_1275" />
<path d="M571.4,287l0.7,0l0,-21l-0.7,0l0,21Z" class="g2_1275" />
<path d="M515,266.4l56.7,0l0,20.6L515,287Z" class="g1_1275" />
<path d="M515,266.7l57.1,0l0,-0.7L515,266l0,0.7Z" class="g2_1275" />
<path d="M571.4,287.4l0.7,0l0,-21l-0.7,0l0,21Z" class="g2_1275" />
<path d="M514.6,287.4l57.1,0l0,-0.8l-57.1,0l0,0.8Z" class="g2_1275" />
<path d="M514.6,287l0.8,0l0,-21l-0.8,0l0,21Z" class="g2_1275" />
<path d="M458.2,287l56.8,0l0,-20.6l-56.8,0l0,20.6Z" class="g1_1275" />
<path d="M458.2,266.7l57.2,0l0,-0.7l-57.2,0l0,0.7Z" class="g2_1275" />
<path d="M514.6,287.4l0.8,0l0,-21l-0.8,0l0,21Z" class="g2_1275" />
<path d="M457.9,287.4l57.1,0l0,-0.8l-57.1,0l0,0.8Z" class="g2_1275" />
<path d="M457.9,287l0.7,0l0,-21l-0.7,0l0,21Z" class="g2_1275" />
<path d="M401.5,287l56.7,0l0,-20.6l-56.7,0l0,20.6Z" class="g1_1275" />
<path d="M401.5,266.7l57.1,0l0,-0.7l-57.1,0l0,0.7Z" class="g2_1275" />
<path d="M457.9,287.4l0.7,0l0,-21l-0.7,0l0,21Z" class="g2_1275" />
<path d="M401.1,287.4l57.1,0l0,-0.8l-57.1,0l0,0.8Z" class="g2_1275" />
<path d="M401.1,287l0.8,0l0,-21l-0.8,0l0,21Z" class="g2_1275" />
<path d="M344.8,287l56.7,0l0,-20.6l-56.7,0l0,20.6Z" class="g1_1275" />
<path d="M344.8,266.7l57.1,0l0,-0.7l-57.1,0l0,0.7Z" class="g2_1275" />
<path d="M401.1,287.4l0.8,0l0,-21l-0.8,0l0,21Z" class="g2_1275" />
<path d="M344.4,287.4l57.1,0l0,-0.8l-57.1,0l0,0.8Z" class="g2_1275" />
<path d="M344.4,287l0.7,0l0,-21l-0.7,0l0,21Z" class="g2_1275" />
<path d="M288.1,287l56.7,0l0,-20.6l-56.7,0l0,20.6Z" class="g1_1275" />
<path d="M288.1,266.7l57,0l0,-0.7l-57,0l0,0.7Z" class="g2_1275" />
<path d="M344.4,287.4l0.7,0l0,-21l-0.7,0l0,21Z" class="g2_1275" />
<path d="M287.7,287.4l57.1,0l0,-0.8l-57.1,0l0,0.8Z" class="g2_1275" />
<path d="M287.7,287l0.8,0l0,-21l-0.8,0l0,21Z" class="g2_1275" />
<path d="M231.4,287l56.7,0l0,-20.6l-56.7,0l0,20.6Z" class="g1_1275" />
<path d="M231.4,266.7l57.1,0l0,-0.7l-57.1,0l0,0.7Z" class="g2_1275" />
<path d="M287.7,287.4l0.8,0l0,-21l-0.8,0l0,21Z" class="g2_1275" />
<path d="M231,287.4l57.1,0l0,-0.8l-57.1,0l0,0.8Z" class="g2_1275" />
<path d="M231,287l0.7,0l0,-21l-0.7,0l0,21Z" class="g2_1275" />
<path d="M628.4,343.8l56.7,0l0,-20.7l-56.7,0l0,20.7Z" class="g1_1275" />
<path d="M628.4,323.5l57.1,0l0,-0.7l-57.1,0l0,0.7Z" class="g2_1275" />
<path d="M684.8,344.1l0.7,0l0,-21l-0.7,0l0,21Z" class="g2_1275" />
<path d="M628,344.1l57.1,0l0,-0.7l-57.1,0l0,0.7Z" class="g2_1275" />
<path d="M628,343.8l0.7,0l0,-21l-0.7,0l0,21Z" class="g2_1275" />
<path d="M288.1,343.8l56.7,0l0,-20.7l-56.7,0l0,20.7Z" class="g1_1275" />
<path d="M288.1,323.5l57,0l0,-0.7l-57,0l0,0.7Z" class="g2_1275" />
<path d="M344.4,344.1l0.7,0l0,-21l-0.7,0l0,21Z" class="g2_1275" />
<path d="M287.7,344.1l57.1,0l0,-0.7l-57.1,0l0,0.7Z" class="g2_1275" />
<path d="M287.7,343.8l0.8,0l0,-21l-0.8,0l0,21Z" class="g2_1275" />
<path d="M401.5,343.8l56.7,0l0,-20.7l-56.7,0l0,20.7Z" class="g1_1275" />
<path d="M401.5,323.5l57.1,0l0,-0.7l-57.1,0l0,0.7Z" class="g2_1275" />
<path d="M457.9,344.1l0.7,0l0,-21l-0.7,0l0,21Z" class="g2_1275" />
<path d="M401.1,344.1l57.1,0l0,-0.7l-57.1,0l0,0.7Z" class="g2_1275" />
<path d="M401.1,343.8l0.8,0l0,-21l-0.8,0l0,21Z" class="g2_1275" />
<path d="M515,323.1l56.7,0l0,20.7l-56.7,0Z" class="g1_1275" />
<path d="M515,323.5l57.1,0l0,-0.7l-57.1,0l0,0.7Z" class="g2_1275" />
<path d="M571.4,344.1l0.7,0l0,-21l-0.7,0l0,21Z" class="g2_1275" />
<path d="M514.6,344.1l57.1,0l0,-0.7l-57.1,0l0,0.7Z" class="g2_1275" />
<path d="M514.6,343.8l0.8,0l0,-21l-0.8,0l0,21Z" class="g2_1275" />
<path fill-rule="evenodd" d="M285.1,313.1l0.2,0.3l0.2,0.3c1.1,0.9,2.8,0.1,2.5,-1.5l-0.1,-0.3l-0.2,-0.2c-0.7,-1.3,-2.8,-0.6,-2.7,0.9l0,0.3l0.1,0.2Z" class="g2_1275" />
<path d="M286.5,312.6l2.6,6l0.4,0.9l-1,0.2l-23.7,3.1l-2.5,0.3l2,-1.6l18.3,-15.2l0.8,-0.7l0.4,0.9l-0.2,0.9l-18.3,15.3l-1,-1.2l0.4,-0.2l23.7,-3.1l0.1,1.5l-0.8,-0.4l-2.6,-6.1Z" class="g2_1275" />
<path d="M283.8,306.5l2.7,6.1l-1.4,0.6l-2.7,-6Z" class="g2_1275" />
<path fill-rule="evenodd" d="M285.8,312.9l2.7,6L264.8,322l18.4,-15.2Z" class="g2_1275" />
<path d="M345.4,288.4l-1.2,-2.8L286,311.2l1.2,2.8Z" class="g2_1275" />
<path fill-rule="evenodd" d="M409.7,305.5l0.2,-0.3L410,305c0.5,-1.6,-0.9,-2.5,-2.3,-1.9l-0.1,0.2l-0.2,0.3c-0.9,1,0.3,2.9,1.8,2.3l0.3,-0.2l0.2,-0.2Z" class="g2_1275" />
<path d="M408.6,304.4l4.6,-4.6l0.8,-0.7l0.5,0.8l11.6,20.9l1.3,2.4L425,321.9L404.2,310.4l-0.9,-0.6l0.7,-0.7l0.9,-0.1l20.8,11.6l-0.7,1.3l-0.3,-0.3L413.1,300.7l1.4,-0.8l-0.2,0.9l-4.6,4.7Z" class="g2_1275" />
<path d="M404,309.1l4.6,-4.7l1.1,1.1l-4.6,4.7Z" class="g2_1275" />
<path fill-rule="evenodd" d="M409.1,305l4.7,-4.7l11.5,20.9L404.5,309.6Z" class="g2_1275" />
<path d="M345.9,239.6l-2.1,2.1l63.8,63.8l2.2,-2.1Z" class="g2_1275" />
<path fill-rule="evenodd" d="M363.2,299.4l0.3,-0.2l0.1,-0.1c1.2,-1,0.5,-2.8,-1.1,-2.7l-0.5,0.1c-1.4,0.8,-0.9,2.9,0.5,2.9l0.7,0Z" class="g2_1275" />
<path d="M362.7,297.9l6.3,-2l1,-0.2l0.1,0.9l0.5,23.9l0,2.7l-1.5,-2.3L356,301l-0.5,-0.8l1,-0.4l0.8,0.4l13.1,19.9l-1.3,0.8L369,320.5l-0.5,-23.9l1.6,0l-0.6,0.9l-6.3,2Z" class="g2_1275" />
<path d="M356.5,299.8l6.2,-1.9l0.5,1.6l-6.2,1.9Z" class="g2_1275" />
<path fill-rule="evenodd" d="M362.9,298.6l6.3,-2l0.6,23.9L356.7,300.6Z" class="g2_1275" />
<path d="M346.2,240.2l-2.8,0.9l17.9,57.3l2.9,-0.9Z" class="g2_1275" />
<path fill-rule="evenodd" d="M330.1,304.2l0.3,0.2l0.2,0.1c1.3,0.5,2.6,-1.2,1.7,-2.4L332,302l-0.2,-0.2c-1.3,-0.8,-2.8,0.6,-2.1,2l0.1,0.2l0.3,0.2Z" class="g2_1275" />
<path d="M331,303.1l5.1,4.3l0.7,0.7l-0.8,0.4l-19.9,13.2l-2.2,1.4l1.1,-2.4l9.9,-21.6l0.4,-0.9l0.8,0.6l0.1,1l-9.9,21.6L315,320.7l0.2,-0.3l19.9,-13.1l0.9,1.2l-1,0l-5,-4.2Z" class="g2_1275" />
<path d="M326.1,298.8l4.9,4.3l-1,1.2L325,300Z" class="g2_1275" />
<path fill-rule="evenodd" d="M330.6,303.7l5,4.2L315.7,321l9.9,-21.6Z" class="g2_1275" />
<path d="M346,288l-2.3,-1.9l-13.7,16l2.3,2Z" class="g2_1275" />
</svg>