<?xml version="1.0" encoding="UTF-8" standalone="no"?>
<!DOCTYPE svg PUBLIC "-//W3C//DTD SVG 1.1//EN"
"http://www.w3.org/Graphics/SVG/1.1/DTD/svg11.dtd">
<svg viewBox="0 0 935 1210" version="1.1" xmlns="http://www.w3.org/2000/svg" xmlns:xlink="http://www.w3.org/1999/xlink">
<defs>
<style type="text/css"><![CDATA[
.g1_1290{
fill: #FFFFFF;
}
.g2_1290{
}
]]></style>
</defs>
<path d="M165,1149.3l687.5,0l0,-21.2l-687.5,0l0,21.2Z" class="g1_1290" />
<path d="M68.8,1149.3l82.5,0l0,-21.2l-82.5,0l0,21.2Z" class="g1_1290" />
<path d="M68.6,369.3l0.7,0l0,-243.6l-0.7,0l0,243.6Z" class="g2_1290" />
<path d="M286.5,370.2l0.8,0l0,-245.3l-0.8,0l0,245.3Z" class="g2_1290" />
<path d="M335.8,370.2l0.7,0l0,-245.3l-0.7,0l0,245.3Z" class="g2_1290" />
<path d="M410.3,370.2l0.7,0l0,-245.3l-0.7,0l0,245.3Z" class="g2_1290" />
<path d="M492.2,370.2l0.7,0l0,-245.3l-0.7,0l0,245.3Z" class="g2_1290" />
<path d="M850.8,369.3l0.7,0l0,-243.6l-0.7,0l0,243.6Z" class="g2_1290" />
<path d="M68.6,125.7l783,0l0,-0.8l-783,0l0,0.8Z" class="g2_1290" />
<path d="M68.6,176.1l783,0l0,-0.7l-783,0l0,0.7Z" class="g2_1290" />
<path d="M68.6,212.8l783,0l0,-0.8l-783,0l0,0.8Z" class="g2_1290" />
<path d="M68.6,283l783,0l0,-0.8l-783,0l0,0.8Z" class="g2_1290" />
<path d="M68.6,370.1l783,0l0,-0.8l-783,0l0,0.8Z" class="g2_1290" />
<path d="M70.4,522.1l0.7,0l0,-96.9l-0.7,0l0,96.9Z" class="g2_1290" />
<path d="M191.1,522.9l0.8,0l0,-98.6l-0.8,0l0,98.6Z" class="g2_1290" />
<path d="M354.7,522.9l0.7,0l0,-98.6l-0.7,0l0,98.6Z" class="g2_1290" />
<path d="M520.1,522.9l0.8,0l0,-98.6l-0.8,0l0,98.6Z" class="g2_1290" />
<path d="M686.6,522.9l0.7,0l0,-98.6l-0.7,0l0,98.6Z" class="g2_1290" />
<path d="M850,522.1l0.8,0l0,-96.9l-0.8,0l0,96.9Z" class="g2_1290" />
<path d="M70.4,425.2l780.4,0l0,-0.8l-780.4,0l0,0.8Z" class="g2_1290" />
<path d="M70.4,449.5l780.4,0l0,-0.7l-780.4,0l0,0.7Z" class="g2_1290" />
<path d="M70.4,474l780.4,0l0,-0.7l-780.4,0l0,0.7Z" class="g2_1290" />
<path d="M70.4,498.5l780.4,0l0,-0.8l-780.4,0l0,0.8Z" class="g2_1290" />
<path d="M70.4,522.9l780.4,0l0,-0.8l-780.4,0l0,0.8Z" class="g2_1290" />
</svg>