<?xml version="1.0" encoding="UTF-8" standalone="no"?>
<!DOCTYPE svg PUBLIC "-//W3C//DTD SVG 1.1//EN"
"http://www.w3.org/Graphics/SVG/1.1/DTD/svg11.dtd">
<svg viewBox="0 0 935 1210" version="1.1" xmlns="http://www.w3.org/2000/svg" xmlns:xlink="http://www.w3.org/1999/xlink">
<defs>
<style type="text/css"><![CDATA[
.g1_2129{
fill: #FFFFFF;
}
.g2_2129{
}
]]></style>
</defs>
<path d="M68.9,1149.3l783.8,0l0,-21.2l-783.8,0l0,21.2Z" class="g1_2129" />
<path d="M69.9,1093.6l0.8,0l0,-986.3l-0.8,0l0,986.3Z" class="g2_2129" />
<path d="M445.2,1094.3l0.8,0l0,-987.7l-0.8,0l0,987.7Z" class="g2_2129" />
<path d="M851.3,1093.6l0.7,0l0,-986.3l-0.7,0l0,986.3Z" class="g2_2129" />
<path d="M69.9,107.3l782.1,0l0,-0.7l-782.1,0l0,0.7Z" class="g2_2129" />
<path d="M69.9,131.7l782.1,0l0,-0.7L69.9,131l0,0.7Z" class="g2_2129" />
<path d="M69.9,156.2l782.1,0l0,-0.7l-782.1,0l0,0.7Z" class="g2_2129" />
<path d="M69.9,180.7l782.1,0l0,-0.8l-782.1,0l0,0.8Z" class="g2_2129" />
<path d="M69.9,220.4l782.1,0l0,-0.8l-782.1,0l0,0.8Z" class="g2_2129" />
<path d="M69.9,244.8l782.1,0l0,-0.7l-782.1,0l0,0.7Z" class="g2_2129" />
<path d="M69.9,269.2l782.1,0l0,-0.7l-782.1,0l0,0.7Z" class="g2_2129" />
<path d="M69.9,309L852,309l0,-0.7l-782.1,0l0,0.7Z" class="g2_2129" />
<path d="M69.9,333.4l782.1,0l0,-0.7l-782.1,0l0,0.7Z" class="g2_2129" />
<path d="M69.9,357.9l782.1,0l0,-0.8l-782.1,0l0,0.8Z" class="g2_2129" />
<path d="M69.9,397.7l782.1,0l0,-0.8l-782.1,0l0,0.8Z" class="g2_2129" />
<path d="M69.9,422L852,422l0,-0.7l-782.1,0l0,0.7Z" class="g2_2129" />
<path d="M69.9,446.5l782.1,0l0,-0.7l-782.1,0l0,0.7Z" class="g2_2129" />
<path d="M69.9,486.2l782.1,0l0,-0.7l-782.1,0l0,0.7Z" class="g2_2129" />
<path d="M69.9,510.7l782.1,0l0,-0.8l-782.1,0l0,0.8Z" class="g2_2129" />
<path d="M69.9,535.2l782.1,0l0,-0.8l-782.1,0l0,0.8Z" class="g2_2129" />
<path d="M69.9,559.5l782.1,0l0,-0.7l-782.1,0l0,0.7Z" class="g2_2129" />
<path d="M69.9,584L852,584l0,-0.7l-782.1,0l0,0.7Z" class="g2_2129" />
<path d="M69.9,608.5l782.1,0l0,-0.8l-782.1,0l0,0.8Z" class="g2_2129" />
<path d="M69.9,632.9l782.1,0l0,-0.8l-782.1,0l0,0.8Z" class="g2_2129" />
<path d="M69.9,657.3l782.1,0l0,-0.7l-782.1,0l0,0.7Z" class="g2_2129" />
<path d="M69.9,697L852,697l0,-0.7l-782.1,0l0,0.7Z" class="g2_2129" />
<path d="M69.9,721.5l782.1,0l0,-0.7l-782.1,0l0,0.7Z" class="g2_2129" />
<path d="M69.9,746L852,746l0,-0.7l-782.1,0l0,0.7Z" class="g2_2129" />
<path d="M69.9,770.4l782.1,0l0,-0.8l-782.1,0l0,0.8Z" class="g2_2129" />
<path d="M69.9,794.8l782.1,0l0,-0.7l-782.1,0l0,0.7Z" class="g2_2129" />
<path d="M69.9,819.3l782.1,0l0,-0.7l-782.1,0l0,0.7Z" class="g2_2129" />
<path d="M69.9,843.7l782.1,0l0,-0.7L69.9,843l0,0.7Z" class="g2_2129" />
<path d="M69.9,868.2l782.1,0l0,-0.8l-782.1,0l0,0.8Z" class="g2_2129" />
<path d="M69.9,892.7l782.1,0l0,-0.8l-782.1,0l0,0.8Z" class="g2_2129" />
<path d="M69.9,917L852,917l0,-0.7l-782.1,0l0,0.7Z" class="g2_2129" />
<path d="M69.9,956.8l782.1,0l0,-0.7l-782.1,0l0,0.7Z" class="g2_2129" />
<path d="M69.9,981.2l782.1,0l0,-0.7l-782.1,0l0,0.7Z" class="g2_2129" />
<path d="M69.9,1005.7l782.1,0l0,-0.8l-782.1,0l0,0.8Z" class="g2_2129" />
<path d="M69.9,1045.4l782.1,0l0,-0.8l-782.1,0l0,0.8Z" class="g2_2129" />
<path d="M69.9,1069.8l782.1,0l0,-0.7l-782.1,0l0,0.7Z" class="g2_2129" />
<path d="M69.9,1094.3l782.1,0l0,-0.7l-782.1,0l0,0.7Z" class="g2_2129" />
</svg>