<?xml version="1.0" encoding="UTF-8" standalone="no"?>
<!DOCTYPE svg PUBLIC "-//W3C//DTD SVG 1.1//EN"
"http://www.w3.org/Graphics/SVG/1.1/DTD/svg11.dtd">
<svg viewBox="0 0 935 1210" version="1.1" xmlns="http://www.w3.org/2000/svg" xmlns:xlink="http://www.w3.org/1999/xlink">
<defs>
<style type="text/css"><![CDATA[
.g1_1595{
fill: #FFFFFF;
}
.g2_1595{
}
]]></style>
</defs>
<path d="M68.9,1149.3l686.3,0l0,-21.2l-686.3,0l0,21.2Z" class="g1_1595" />
<path d="M771.3,1149.3l83.7,0l0,-21.2l-83.7,0l0,21.2Z" class="g1_1595" />
<path d="M69.9,517.6l0.8,0L70.7,147l-0.8,0l0,370.6Z" class="g2_1595" />
<path d="M274.6,518.3l0.8,0l0,-372l-0.8,0l0,372Z" class="g2_1595" />
<path d="M322.8,518.3l0.7,0l0,-372l-0.7,0l0,372Z" class="g2_1595" />
<path d="M395,518.3l0.7,0l0,-372l-0.7,0l0,372Z" class="g2_1595" />
<path d="M478.8,518.3l0.7,0l0,-372l-0.7,0l0,372Z" class="g2_1595" />
<path d="M853.2,517.6l0.8,0L854,147l-0.8,0l0,370.6Z" class="g2_1595" />
<path d="M69.9,147L854,147l0,-0.7l-784.1,0l0,0.7Z" class="g2_1595" />
<path d="M69.9,197.4l784.1,0l0,-0.7l-784.1,0l0,0.7Z" class="g2_1595" />
<path d="M69.9,250.9l784.1,0l0,-0.7l-784.1,0l0,0.7Z" class="g2_1595" />
<path d="M69.9,304.4l784.1,0l0,-0.7l-784.1,0l0,0.7Z" class="g2_1595" />
<path d="M69.9,357.9l784.1,0l0,-0.8l-784.1,0l0,0.8Z" class="g2_1595" />
<path d="M69.9,411.4l784.1,0l0,-0.7l-784.1,0l0,0.7Z" class="g2_1595" />
<path d="M69.9,464.8l784.1,0l0,-0.7l-784.1,0l0,0.7Z" class="g2_1595" />
<path d="M69.9,518.3l784.1,0l0,-0.7l-784.1,0l0,0.7Z" class="g2_1595" />
<path d="M71,645.9l0.8,0l0,-72.6l-0.8,0l0,72.6Z" class="g2_1595" />
<path d="M196.7,646.6l0.7,0l0,-74.1l-0.7,0l0,74.1Z" class="g2_1595" />
<path d="M355.1,646.6l0.8,0l0,-74.1l-0.8,0l0,74.1Z" class="g2_1595" />
<path d="M520.8,646.6l0.7,0l0,-74.1l-0.7,0l0,74.1Z" class="g2_1595" />
<path d="M684.1,646.6l0.7,0l0,-74.1l-0.7,0l0,74.1Z" class="g2_1595" />
<path d="M850.9,645.9l0.8,0l0,-72.6l-0.8,0l0,72.6Z" class="g2_1595" />
<path d="M71,573.3l780.7,0l0,-0.7L71,572.6l0,0.7Z" class="g2_1595" />
<path d="M71,597.8l780.7,0l0,-0.8L71,597l0,0.8Z" class="g2_1595" />
<path d="M71,622.2l780.7,0l0,-0.7L71,621.5l0,0.7Z" class="g2_1595" />
<path d="M71,646.6l780.7,0l0,-0.7L71,645.9l0,0.7Z" class="g2_1595" />
</svg>