<?xml version="1.0" encoding="UTF-8" standalone="no"?>
<!DOCTYPE svg PUBLIC "-//W3C//DTD SVG 1.1//EN"
"http://www.w3.org/Graphics/SVG/1.1/DTD/svg11.dtd">
<svg viewBox="0 0 935 1210" version="1.1" xmlns="http://www.w3.org/2000/svg" xmlns:xlink="http://www.w3.org/1999/xlink">
<defs>
<style type="text/css"><![CDATA[
.g1_1241{
fill: #FFFFFF;
}
.g2_1241{
}
]]></style>
</defs>
<path d="M68.9,1149.3l686.3,0l0,-21.2l-686.3,0l0,21.2Z" class="g1_1241" />
<path d="M771.3,1149.3l83.7,0l0,-21.2l-83.7,0l0,21.2Z" class="g1_1241" />
<path d="M70.9,781.9l0.7,0l0,-647.1l-0.7,0l0,647.1Z" class="g2_1241" />
<path d="M220.5,782.7l0.7,0l0,-648.6l-0.7,0l0,648.6Z" class="g2_1241" />
<path d="M390.2,782.7l0.8,0l0,-648.6l-0.8,0l0,648.6Z" class="g2_1241" />
<path d="M428,782.7l0.7,0l0,-648.6l-0.7,0l0,648.6Z" class="g2_1241" />
<path d="M501.4,782.7l0.7,0l0,-648.6l-0.7,0l0,648.6Z" class="g2_1241" />
<path d="M572.8,782.7l0.8,0l0,-648.6l-0.8,0l0,648.6Z" class="g2_1241" />
<path d="M851.1,781.9l0.8,0l0,-647.1l-0.8,0l0,647.1Z" class="g2_1241" />
<path d="M70.9,134.8l781,0l0,-0.7l-781,0l0,0.7Z" class="g2_1241" />
<path d="M70.9,173l781,0l0,-0.8l-781,0l0,0.8Z" class="g2_1241" />
<path d="M70.9,195.9l781,0l0,-0.7l-781,0l0,0.7Z" class="g2_1241" />
<path d="M70.9,218.8l781,0l0,-0.7l-781,0l0,0.7Z" class="g2_1241" />
<path d="M70.9,241.7l781,0l0,-0.7l-781,0l0,0.7Z" class="g2_1241" />
<path d="M70.9,281.5l781,0l0,-0.7l-781,0l0,0.7Z" class="g2_1241" />
<path d="M70.9,304.4l781,0l0,-0.7l-781,0l0,0.7Z" class="g2_1241" />
<path d="M70.9,327.3l781,0l0,-0.7l-781,0l0,0.7Z" class="g2_1241" />
<path d="M70.9,350.3l781,0l0,-0.8l-781,0l0,0.8Z" class="g2_1241" />
<path d="M70.9,373.2l781,0l0,-0.8l-781,0l0,0.8Z" class="g2_1241" />
<path d="M70.9,412.9l781,0l0,-0.8l-781,0l0,0.8Z" class="g2_1241" />
<path d="M70.9,452.7l781,0l0,-0.8l-781,0l0,0.8Z" class="g2_1241" />
<path d="M70.9,492.3l781,0l0,-0.7l-781,0l0,0.7Z" class="g2_1241" />
<path d="M70.9,532l781,0l0,-0.7l-781,0l0,0.7Z" class="g2_1241" />
<path d="M70.9,554.9l781,0l0,-0.7l-781,0l0,0.7Z" class="g2_1241" />
<path d="M70.9,577.9l781,0l0,-0.8l-781,0l0,0.8Z" class="g2_1241" />
<path d="M70.9,600.8l781,0l0,-0.7l-781,0l0,0.7Z" class="g2_1241" />
<path d="M70.9,623.7l781,0l0,-0.7l-781,0l0,0.7Z" class="g2_1241" />
<path d="M70.9,646.6l781,0l0,-0.7l-781,0l0,0.7Z" class="g2_1241" />
<path d="M70.9,669.5l781,0l0,-0.7l-781,0l0,0.7Z" class="g2_1241" />
<path d="M70.9,692.4l781,0l0,-0.7l-781,0l0,0.7Z" class="g2_1241" />
<path d="M70.9,736.8l781,0l0,-0.7l-781,0l0,0.7Z" class="g2_1241" />
<path d="M70.9,759.7l781,0l0,-0.7l-781,0l0,0.7Z" class="g2_1241" />
<path d="M70.9,782.7l781,0l0,-0.8l-781,0l0,0.8Z" class="g2_1241" />
<path d="M70.5,998.8l0.7,0l0,-121.5l-0.7,0l0,121.5Z" class="g2_1241" />
<path d="M138.1,999.6l0.7,0l0,-123l-0.7,0l0,123Z" class="g2_1241" />
<path d="M312.6,999.6l0.7,0l0,-123l-0.7,0l0,123Z" class="g2_1241" />
<path d="M495.4,999.6l0.7,0l0,-123l-0.7,0l0,123Z" class="g2_1241" />
<path d="M668.9,999.6l0.7,0l0,-123l-0.7,0l0,123Z" class="g2_1241" />
<path d="M851.5,998.8l0.7,0l0,-121.5l-0.7,0l0,121.5Z" class="g2_1241" />
<path d="M70.5,877.3l781.8,0l0,-0.7l-781.8,0l0,0.7Z" class="g2_1241" />
<path d="M70.5,901.8l781.8,0l0,-0.7l-781.8,0l0,0.7Z" class="g2_1241" />
<path d="M70.5,926.2l781.8,0l0,-0.7l-781.8,0l0,0.7Z" class="g2_1241" />
<path d="M70.5,950.7l781.8,0l0,-0.8l-781.8,0l0,0.8Z" class="g2_1241" />
<path d="M70.5,975.2l781.8,0l0,-0.8l-781.8,0l0,0.8Z" class="g2_1241" />
<path d="M70.5,999.5l781.8,0l0,-0.7l-781.8,0l0,0.7Z" class="g2_1241" />
</svg>