<?xml version="1.0" encoding="UTF-8" standalone="no"?>
<!DOCTYPE svg PUBLIC "-//W3C//DTD SVG 1.1//EN"
"http://www.w3.org/Graphics/SVG/1.1/DTD/svg11.dtd">
<svg viewBox="0 0 935 1210" version="1.1" xmlns="http://www.w3.org/2000/svg" xmlns:xlink="http://www.w3.org/1999/xlink">
<defs>
<style type="text/css"><![CDATA[
.g1_515{
fill: #FFFFFF;
}
.g2_515{
fill: #E6E6E6;
}
.g3_515{
}
]]></style>
</defs>
<path d="M68.9,1149.3l686.3,0l0,-21.2l-686.3,0l0,21.2Z" class="g1_515" />
<path d="M771.3,1149.3l83.7,0l0,-21.2l-83.7,0l0,21.2Z" class="g1_515" />
<path d="M70.9,658.5l88.8,0l0,-24.4l-88.8,0l0,24.4Z" class="g2_515" />
<path d="M514.8,658.5l44.5,0l0,-24.4l-44.5,0l0,24.4Z" class="g2_515" />
<path d="M426.1,682.9l88.7,0l0,-24.4l-88.7,0l0,24.4Z" class="g2_515" />
<path d="M70.9,707.4l266.3,0l0,-24.5l-266.3,0l0,24.5Z" class="g2_515" />
<path d="M70.9,731.9l266.3,0l0,-24.5l-266.3,0l0,24.5Z" class="g2_515" />
<path d="M70.9,756.3l266.3,0l0,-24.4l-266.3,0l0,24.4Z" class="g2_515" />
<path d="M70.9,780.7l266.3,0l0,-24.4l-266.3,0l0,24.4Z" class="g2_515" />
<path d="M70.9,805.2l266.3,0l0,-24.5l-266.3,0l0,24.5Z" class="g2_515" />
<path d="M70.9,829.6l266.3,0l0,-24.4l-266.3,0l0,24.4Z" class="g2_515" />
<path d="M70.9,854.1l266.3,0l0,-24.5l-266.3,0l0,24.5Z" class="g2_515" />
<path d="M70.9,878.5l266.3,0l0,-24.4l-266.3,0l0,24.4Z" class="g2_515" />
<path d="M70.9,1098.5l721.7,0l0,-24.4l-721.7,0l0,24.4Z" class="g2_515" />
<path d="M70.3,251.7l0.7,0l0,-126l-0.7,0l0,126Z" class="g3_515" />
<path d="M390.8,252.4l0.7,0l0,-127.5l-0.7,0l0,127.5Z" class="g3_515" />
<path d="M428.6,252.4l0.8,0l0,-127.5l-0.8,0l0,127.5Z" class="g3_515" />
<path d="M502,252.4l0.7,0l0,-127.5l-0.7,0l0,127.5Z" class="g3_515" />
<path d="M573.4,252.4l0.7,0l0,-127.5l-0.7,0l0,127.5Z" class="g3_515" />
<path d="M851.7,251.7l0.7,0l0,-126l-0.7,0l0,126Z" class="g3_515" />
<path d="M70.3,125.7l782.1,0l0,-0.8l-782.1,0l0,0.8Z" class="g3_515" />
<path d="M70.3,163.8l782.1,0l0,-0.7l-782.1,0l0,0.7Z" class="g3_515" />
<path d="M70.3,208.2l782.1,0l0,-0.8l-782.1,0l0,0.8Z" class="g3_515" />
<path d="M70.3,252.4l782.1,0l0,-0.7l-782.1,0l0,0.7Z" class="g3_515" />
<path d="M70.5,355.6l0.7,0l0,-48.2l-0.7,0l0,48.2Z" class="g3_515" />
<path d="M140.8,356.4l0.7,0l0,-49.7l-0.7,0l0,49.7Z" class="g3_515" />
<path d="M311.5,356.4l0.7,0l0,-49.7l-0.7,0l0,49.7Z" class="g3_515" />
<path d="M489,356.4l0.8,0l0,-49.7l-0.8,0l0,49.7Z" class="g3_515" />
<path d="M669.4,356.4l0.8,0l0,-49.7l-0.8,0l0,49.7Z" class="g3_515" />
<path d="M851.5,355.6l0.7,0l0,-48.2l-0.7,0l0,48.2Z" class="g3_515" />
<path d="M70.5,307.4l781.8,0l0,-0.7l-781.8,0l0,0.7Z" class="g3_515" />
<path d="M70.5,331.9l781.8,0l0,-0.7l-781.8,0l0,0.7Z" class="g3_515" />
<path d="M70.5,356.3l781.8,0l0,-0.7l-781.8,0l0,0.7Z" class="g3_515" />
<path d="M69.8,632.9l2.3,0l0,-22.1l-2.3,0l0,22.1Z" class="g3_515" />
<path d="M70.5,658.1l0.7,0l0,-22.9l-0.7,0l0,22.9Z" class="g3_515" />
<path d="M70.5,1073.7l0.7,0l0,-414.8l-0.7,0l0,414.8Z" class="g3_515" />
<path d="M70.5,1098.2l0.7,0l0,-23.8l-0.7,0l0,23.8Z" class="g3_515" />
<path d="M159.3,635.2l0.8,0l0,-26.7l-0.8,0l0,26.7Z" class="g3_515" />
<path d="M159.3,658.9l0.8,0l0,-26l-0.8,0l0,26Z" class="g3_515" />
<path d="M248.1,683.3l0.8,0l0,-74.8l-0.8,0l0,74.8Z" class="g3_515" />
<path d="M336.9,635.2l0.7,0l0,-26.7l-0.7,0l0,26.7Z" class="g3_515" />
<path d="M336.9,878.9l0.7,0l0,-196.3l-0.7,0l0,196.3Z" class="g3_515" />
<path d="M425.7,683.3l0.7,0l0,-74.8l-0.7,0l0,74.8Z" class="g3_515" />
<path d="M514.4,635.2l0.8,0l0,-26.7l-0.8,0l0,26.7Z" class="g3_515" />
<path d="M514.4,658.9l0.8,0l0,-26l-0.8,0l0,26Z" class="g3_515" />
<path d="M514.4,683.3l0.8,0l0,-25.2l-0.8,0l0,25.2Z" class="g3_515" />
<path d="M558.9,635.2l0.7,0l0,-26.7l-0.7,0l0,26.7Z" class="g3_515" />
<path d="M558.9,658.9l0.7,0l0,-26l-0.7,0l0,26Z" class="g3_515" />
<path d="M614.7,683.3l0.7,0l0,-74.8l-0.7,0l0,74.8Z" class="g3_515" />
<path d="M703.5,658.9l0.7,0l0,-50.4l-0.7,0l0,50.4Z" class="g3_515" />
<path d="M792.3,635.2l0.7,0l0,-26.7l-0.7,0l0,26.7Z" class="g3_515" />
<path d="M791.5,1098.9l2.3,0l0,-466l-2.3,0l0,466Z" class="g3_515" />
<path d="M850.8,1098.2l2.2,0l0,-487.4l-2.2,0l0,487.4Z" class="g3_515" />
<path d="M69.8,610.8l783.2,0l0,-2.3l-783.2,0l0,2.3Z" class="g3_515" />
<path d="M69.8,635.2l783.2,0l0,-2.2L69.8,633l0,2.2Z" class="g3_515" />
<path d="M70.5,658.9l444.8,0l0,-0.7l-444.8,0l0,0.7Z" class="g3_515" />
<path d="M514.4,658.9l44.5,0l0,-0.7l-44.5,0l0,0.7Z" class="g3_515" />
<path d="M559.6,658.9l293.4,0l0,-0.7l-293.4,0l0,0.7Z" class="g3_515" />
<path d="M70.5,683.3l782.5,0l0,-0.7l-782.5,0l0,0.7Z" class="g3_515" />
<path d="M70.5,707.8l782.5,0l0,-0.8L70.5,707l0,0.8Z" class="g3_515" />
<path d="M70.5,732.2l782.5,0l0,-0.7l-782.5,0l0,0.7Z" class="g3_515" />
<path d="M70.5,756.6l782.5,0l0,-0.7l-782.5,0l0,0.7Z" class="g3_515" />
<path d="M70.5,781.1l782.5,0l0,-0.7l-782.5,0l0,0.7Z" class="g3_515" />
<path d="M70.5,805.6l782.5,0l0,-0.8l-782.5,0l0,0.8Z" class="g3_515" />
<path d="M70.5,830L853,830l0,-0.8l-782.5,0l0,0.8Z" class="g3_515" />
<path d="M70.5,854.4l782.5,0l0,-0.7l-782.5,0l0,0.7Z" class="g3_515" />
<path d="M70.5,878.9l782.5,0l0,-0.7l-782.5,0l0,0.7Z" class="g3_515" />
<path d="M70.5,903.3l782.5,0l0,-0.7l-782.5,0l0,0.7Z" class="g3_515" />
<path d="M70.5,927.8l782.5,0l0,-0.8L70.5,927l0,0.8Z" class="g3_515" />
<path d="M70.5,952.2l782.5,0l0,-0.7l-782.5,0l0,0.7Z" class="g3_515" />
<path d="M70.5,976.6l782.5,0l0,-0.7l-782.5,0l0,0.7Z" class="g3_515" />
<path d="M70.5,1001.1l782.5,0l0,-0.7l-782.5,0l0,0.7Z" class="g3_515" />
<path d="M70.5,1025.6l782.5,0l0,-0.8l-782.5,0l0,0.8Z" class="g3_515" />
<path d="M70.5,1050l782.5,0l0,-0.8l-782.5,0l0,0.8Z" class="g3_515" />
<path d="M70.5,1074.4l723.3,0l0,-0.7l-723.3,0l0,0.7Z" class="g3_515" />
<path d="M791.5,1074.4l61.5,0l0,-0.7l-61.5,0l0,0.7Z" class="g3_515" />
<path d="M70.5,1098.9l782.5,0l0,-0.7l-782.5,0l0,0.7Z" class="g3_515" />
</svg>