<?xml version="1.0" encoding="UTF-8" standalone="no"?>
<!DOCTYPE svg PUBLIC "-//W3C//DTD SVG 1.1//EN"
"http://www.w3.org/Graphics/SVG/1.1/DTD/svg11.dtd">
<svg viewBox="0 0 935 1210" version="1.1" xmlns="http://www.w3.org/2000/svg" xmlns:xlink="http://www.w3.org/1999/xlink">
<defs>
<style type="text/css"><![CDATA[
.g1_813{
fill: #FFFFFF;
}
.g2_813{
}
]]></style>
</defs>
<path d="M68.9,1149.3l686.3,0l0,-21.2l-686.3,0l0,21.2Z" class="g1_813" />
<path d="M771.3,1149.3l83.7,0l0,-21.2l-83.7,0l0,21.2Z" class="g1_813" />
<path d="M70.9,293l0.7,0l0,-152l-0.7,0l0,152Z" class="g2_813" />
<path d="M219.9,293.7l0.7,0l0,-153.5l-0.7,0l0,153.5Z" class="g2_813" />
<path d="M388.9,293.7l0.8,0l0,-153.5l-0.8,0l0,153.5Z" class="g2_813" />
<path d="M426.8,293.7l0.7,0l0,-153.5l-0.7,0l0,153.5Z" class="g2_813" />
<path d="M500.2,293.7l0.8,0l0,-153.5l-0.8,0l0,153.5Z" class="g2_813" />
<path d="M571.6,293.7l0.8,0l0,-153.5l-0.8,0l0,153.5Z" class="g2_813" />
<path d="M851.1,293l0.8,0l0,-152l-0.8,0l0,152Z" class="g2_813" />
<path d="M70.9,140.9l781,0l0,-0.7l-781,0l0,0.7Z" class="g2_813" />
<path d="M70.9,179.1l781,0l0,-0.7l-781,0l0,0.7Z" class="g2_813" />
<path d="M70.9,202l781,0l0,-0.7l-781,0l0,0.7Z" class="g2_813" />
<path d="M70.9,224.9l781,0l0,-0.7l-781,0l0,0.7Z" class="g2_813" />
<path d="M70.9,247.9l781,0l0,-0.8l-781,0l0,0.8Z" class="g2_813" />
<path d="M70.9,270.8l781,0l0,-0.7l-781,0l0,0.7Z" class="g2_813" />
<path d="M70.9,293.7l781,0l0,-0.7l-781,0l0,0.7Z" class="g2_813" />
<path d="M69.3,436.6l0.7,0l0,-48.1l-0.7,0l0,48.1Z" class="g2_813" />
<path d="M139.1,437.3l0.7,0l0,-49.6l-0.7,0l0,49.6Z" class="g2_813" />
<path d="M312.6,437.3l0.7,0l0,-49.6l-0.7,0l0,49.6Z" class="g2_813" />
<path d="M491.7,437.3l0.7,0l0,-49.6l-0.7,0l0,49.6Z" class="g2_813" />
<path d="M670.1,437.3l0.7,0l0,-49.6l-0.7,0l0,49.6Z" class="g2_813" />
<path d="M852.7,436.6l0.7,0l0,-48.1l-0.7,0l0,48.1Z" class="g2_813" />
<path d="M69.3,388.4l784.1,0l0,-0.7l-784.1,0l0,0.7Z" class="g2_813" />
<path d="M69.3,412.9l784.1,0l0,-0.8l-784.1,0l0,0.8Z" class="g2_813" />
<path d="M69.3,437.3l784.1,0l0,-0.7l-784.1,0l0,0.7Z" class="g2_813" />
</svg>