<?xml version="1.0" encoding="UTF-8" standalone="no"?>
<!DOCTYPE svg PUBLIC "-//W3C//DTD SVG 1.1//EN"
"http://www.w3.org/Graphics/SVG/1.1/DTD/svg11.dtd">
<svg viewBox="0 0 935 1210" version="1.1" xmlns="http://www.w3.org/2000/svg" xmlns:xlink="http://www.w3.org/1999/xlink">
<defs>
<style type="text/css"><![CDATA[
.g1_338{
fill: #FFFFFF;
}
.g2_338{
}
]]></style>
</defs>
<path d="M165,1149.3l687.5,0l0,-21.2l-687.5,0l0,21.2Z" class="g1_338" />
<path d="M68.8,1149.3l82.5,0l0,-21.2l-82.5,0l0,21.2Z" class="g1_338" />
<path d="M157.7,315l0.7,0l0,-190.9l-0.7,0l0,190.9Z" class="g2_338" />
<path d="M762.7,315l0.7,0l0,-190.9l-0.7,0l0,190.9Z" class="g2_338" />
<path d="M157.7,124.1l605.8,0l0,-0.7l-605.8,0l0,0.7Z" class="g2_338" />
<path d="M157.7,315.7l605.8,0l0,-0.7l-605.8,0l0,0.7Z" class="g2_338" />
<path fill-rule="evenodd" d="M438.2,259.2l0.1,-0.2l0,-0.4c0,-1.5,-2.1,-2,-2.8,-0.7l-0.2,0.2l-0.1,0.3c-0.1,1.5,1.7,2.5,2.7,1.3l0.2,-0.2l0.1,-0.3Z" class="g2_338" />
<path d="M436.9,258.7l2.3,-6.2l0.3,-0.9l0.9,0.7l19,14.2l2.1,1.5l-2.6,-0.1l-23.8,-2l-1,-0.2l0.4,-0.9l0.7,-0.4l23.8,1.9l-0.1,1.6l-0.5,-0.2l-19,-14.2l1,-1.2l0.1,0.8l-2.2,6.1Z" class="g2_338" />
<path d="M434.5,264.8l2.4,-6.1l1.4,0.5l-2.4,6.2Z" class="g2_338" />
<path fill-rule="evenodd" d="M437.5,259l2.3,-6.2L458.9,267l-23.8,-1.9Z" class="g2_338" />
<path d="M255.8,189.2l-1.1,2.8l181.5,68.2l1.1,-2.9Z" class="g2_338" />
<path d="M600.8,288.6l56.6,0l0,-20.7l-56.6,0l0,20.7Z" class="g1_338" />
<path d="M600.8,268.3l57,0l0,-0.7l-57,0l0,0.7Z" class="g2_338" />
<path d="M657.1,288.9l0.7,0l0,-21l-0.7,0l0,21Z" class="g2_338" />
<path d="M600.4,288.9l57,0l0,-0.7l-57,0l0,0.7Z" class="g2_338" />
<path d="M600.4,288.6l0.8,0l0,-21l-0.8,0l0,21Z" class="g2_338" />
<path fill-rule="evenodd" d="M618.7,244.3l0.2,-0.1l0.3,-0.2l0.2,-0.2l0.2,-0.2l0.1,-0.3l0,-0.6l-0.1,-0.3l-0.1,-0.3c-0.7,-0.8,-0.2,-0.4,-1.2,-0.7l-0.3,0l-0.3,0.1l-0.3,0l-0.2,0.2l-0.3,0.2l-0.2,0.6l-0.1,0.2l0,0.4l0.1,0.3c0.4,0.9,0.6,0.6,1,1l0.7,0l0.3,-0.1Z" class="g2_338" />
<path d="M618.1,242.8l6.2,-2l1,-0.2l0.1,0.9l1,23.8l0.1,2.6L625,265.7L611.5,246.1L611,245.3l0.9,-0.4l0.9,0.4l13.5,19.6l-1.3,0.8l-0.1,-0.3l-1,-23.8l1.5,-0.1l-0.5,0.9l-6.2,2Z" class="g2_338" />
<path d="M611.9,244.9l6.2,-2.1l0.6,1.6l-6.3,2.1Z" class="g2_338" />
<path fill-rule="evenodd" d="M618.4,243.6l6.2,-2.1l1,23.8L612.2,245.7Z" class="g2_338" />
<path d="M602.3,190.1l-2.9,0.9l17.4,52.4l2.9,-0.9Z" class="g2_338" />
<path fill-rule="evenodd" d="M552.8,249.8l0.2,-0.3l0.2,-0.3c0.5,-1.4,-0.8,-2.6,-2.2,-1.9l-0.3,0.2l-0.2,0.3c-0.8,1.1,0.3,2.8,1.8,2.3l0.3,-0.1l0.2,-0.2Z" class="g2_338" />
<path d="M551.8,248.6l4.8,-4.4l0.7,-0.6l0.5,0.9l10.8,21.1l1.2,2.4l-2.3,-1.3L547.2,254.4l-0.9,-0.6l0.8,-0.7l0.8,-0.1l20.3,12.3l-0.7,1.4l-0.3,-0.4L556.4,245.1l1.4,-0.6l-0.2,0.9l-4.8,4.4Z" class="g2_338" />
<path d="M547.1,253.1l4.7,-4.5l1,1.2l-4.7,4.5Z" class="g2_338" />
<path fill-rule="evenodd" d="M552.3,249.2l4.8,-4.4l10.8,21.1L547.5,253.6Z" class="g2_338" />
<path d="M498.8,189.6l-2.2,2.1l54,58l2.2,-2.1Z" class="g2_338" />
<path fill-rule="evenodd" d="M496.5,255.8l0.1,-0.5c0.2,-1.6,-1.7,-2.2,-2.6,-1.2l-0.2,0.3l-0.1,0.2c-0.6,1.5,1.2,2.7,2.4,1.7l0.2,-0.2l0.2,-0.3Z" class="g2_338" />
<path d="M495.2,255.1l3.2,-5.7l0.5,-0.8l0.8,0.6l16.7,16.9l1.9,1.9l-2.6,-0.6L492.5,262l-1,-0.2l0.5,-0.9l0.8,-0.4l23.2,5.4l-0.3,1.5l-0.4,-0.2L498.5,250.3l1.2,-1.1l0.1,1l-3.2,5.6Z" class="g2_338" />
<path d="M492,260.9l3.2,-5.8l1.4,0.7l-3.3,5.8Z" class="g2_338" />
<path fill-rule="evenodd" d="M495.8,255.5l3.2,-5.7l16.8,16.9l-23.2,-5.4Z" class="g2_338" />
<path d="M379.8,189.3l-1.5,2.7l116.1,64.5l1.4,-2.7Z" class="g2_338" />
<path d="M544,288.6l56.8,0l0,-20.7l-56.8,0l0,20.7Z" class="g1_338" />
<path d="M544,268.3l57.2,0l0,-0.7l-57.2,0l0,0.7Z" class="g2_338" />
<path d="M600.4,288.9l0.8,0l0,-21l-0.8,0l0,21Z" class="g2_338" />
<path d="M543.7,288.9l57.1,0l0,-0.7l-57.1,0l0,0.7Z" class="g2_338" />
<path d="M543.7,288.6l0.7,0l0,-21l-0.7,0l0,21Z" class="g2_338" />
<path d="M487.3,288.6l56.7,0l0,-20.7l-56.7,0l0,20.7Z" class="g1_338" />
<path d="M487.3,268.3l57.1,0l0,-0.7l-57.1,0l0,0.7Z" class="g2_338" />
<path d="M543.7,288.9l0.7,0l0,-21l-0.7,0l0,21Z" class="g2_338" />
<path d="M486.9,288.9l57.1,0l0,-0.7l-57.1,0l0,0.7Z" class="g2_338" />
<path d="M486.9,288.6l0.8,0l0,-21l-0.8,0l0,21Z" class="g2_338" />
<path d="M430.6,288.6l56.7,0l0,-20.7l-56.7,0l0,20.7Z" class="g1_338" />
<path d="M430.6,268.3l57.1,0l0,-0.7l-57.1,0l0,0.7Z" class="g2_338" />
<path d="M486.9,288.9l0.8,0l0,-21l-0.8,0l0,21Z" class="g2_338" />
<path d="M430.2,288.9l57.1,0l0,-0.7l-57.1,0l0,0.7Z" class="g2_338" />
<path d="M430.2,288.6l0.7,0l0,-21l-0.7,0l0,21Z" class="g2_338" />
<path d="M544,190.6l113.4,0l0,-20.7l-113.4,0l0,20.7Z" class="g1_338" />
<path d="M544,170.3l113.8,0l0,-0.7l-113.8,0l0,0.7Z" class="g2_338" />
<path d="M657.1,190.9l0.7,0l0,-21l-0.7,0l0,21Z" class="g2_338" />
<path d="M543.7,190.9l113.7,0l0,-0.7l-113.7,0l0,0.7Z" class="g2_338" />
<path d="M543.7,190.6l0.7,0l0,-21l-0.7,0l0,21Z" class="g2_338" />
<path d="M203.7,190.6l113.5,0l0,-20.7l-113.5,0l0,20.7Z" class="g1_338" />
<path d="M203.7,170.3l113.8,0l0,-0.7l-113.8,0l0,0.7Z" class="g2_338" />
<path d="M316.8,190.9l0.7,0l0,-21l-0.7,0l0,21Z" class="g2_338" />
<path d="M203.3,190.9l113.9,0l0,-0.7l-113.9,0l0,0.7Z" class="g2_338" />
<path d="M203.3,190.6l0.8,0l0,-21l-0.8,0l0,21Z" class="g2_338" />
<path d="M317.2,190.6l113.4,0l0,-20.7l-113.4,0l0,20.7Z" class="g1_338" />
<path d="M317.2,170.3l113.7,0l0,-0.7l-113.7,0l0,0.7Z" class="g2_338" />
<path d="M430.2,190.9l0.7,0l0,-21l-0.7,0l0,21Z" class="g2_338" />
<path d="M316.8,190.9l113.8,0l0,-0.7l-113.8,0l0,0.7Z" class="g2_338" />
<path d="M316.8,190.6l0.7,0l0,-21l-0.7,0l0,21Z" class="g2_338" />
<path d="M430.6,190.6l113.4,0l0,-20.7l-113.4,0l0,20.7Z" class="g1_338" />
<path d="M430.6,170.3l113.8,0l0,-0.7l-113.8,0l0,0.7Z" class="g2_338" />
<path d="M543.7,190.9l0.7,0l0,-21l-0.7,0l0,21Z" class="g2_338" />
<path d="M430.2,190.9l113.8,0l0,-0.7l-113.8,0l0,0.7Z" class="g2_338" />
<path d="M430.2,190.6l0.7,0l0,-21l-0.7,0l0,21Z" class="g2_338" />
<path d="M206.9,288.6l222.3,0l0,-20.7l-222.3,0l0,20.7Z" class="g1_338" />
<path d="M206.9,268.3l222.7,0l0,-0.7l-222.7,0l0,0.7Z" class="g2_338" />
<path d="M428.8,288.9l0.8,0l0,-21l-0.8,0l0,21Z" class="g2_338" />
<path d="M206.5,288.9l222.7,0l0,-0.7l-222.7,0l0,0.7Z" class="g2_338" />
<path d="M206.5,288.6l0.8,0l0,-21l-0.8,0l0,21Z" class="g2_338" />
</svg>