<?xml version="1.0" encoding="UTF-8" standalone="no"?>
<!DOCTYPE svg PUBLIC "-//W3C//DTD SVG 1.1//EN"
"http://www.w3.org/Graphics/SVG/1.1/DTD/svg11.dtd">
<svg viewBox="0 0 935 1210" version="1.1" xmlns="http://www.w3.org/2000/svg" xmlns:xlink="http://www.w3.org/1999/xlink">
<defs>
<style type="text/css"><![CDATA[
.g1_294{
fill: #FFFFFF;
}
.g2_294{
}
]]></style>
</defs>
<path d="M165,1149.3l687.5,0l0,-21.2l-687.5,0l0,21.2Z" class="g1_294" />
<path d="M68.8,1149.3l82.5,0l0,-21.2l-82.5,0l0,21.2Z" class="g1_294" />
<path d="M70.8,962.1l0.7,0l0,-838.2l-0.7,0l0,838.2Z" class="g2_294" />
<path d="M158,963l0.4,0l0,-839.4l-0.4,0L158,963Z" class="g2_294" />
<path d="M849.7,962.1l0.7,0l0,-838.2l-0.7,0l0,838.2Z" class="g2_294" />
<path d="M70.8,123.9l779.6,0l0,-0.3l-779.6,0l0,0.3Z" class="g2_294" />
<path d="M70.8,165.2l779.6,0l0,-0.4l-779.6,0l0,0.4Z" class="g2_294" />
<path d="M70.8,781.1l779.6,0l0,-0.7l-779.6,0l0,0.7Z" class="g2_294" />
<path d="M70.8,805.4l779.6,0l0,-0.4L70.8,805l0,0.4Z" class="g2_294" />
<path d="M70.8,962.9l779.6,0l0,-0.8l-779.6,0l0,0.8Z" class="g2_294" />
</svg>