<?xml version="1.0" encoding="UTF-8" standalone="no"?>
<!DOCTYPE svg PUBLIC "-//W3C//DTD SVG 1.1//EN"
"http://www.w3.org/Graphics/SVG/1.1/DTD/svg11.dtd">
<svg viewBox="0 0 935 1210" version="1.1" xmlns="http://www.w3.org/2000/svg" xmlns:xlink="http://www.w3.org/1999/xlink">
<defs>
<style type="text/css"><![CDATA[
.g1_169{
fill: #FFFFFF;
}
.g2_169{
}
]]></style>
</defs>
<path d="M68.9,1149.3l686.3,0l0,-21.2l-686.3,0l0,21.2Z" class="g1_169" />
<path d="M771.3,1149.3l83.7,0l0,-21.2l-83.7,0l0,21.2Z" class="g1_169" />
<path d="M69.9,479.3l0.8,0l0,-353.6l-0.8,0l0,353.6Z" class="g2_169" />
<path d="M275.6,480.2l0.7,0l0,-355.3l-0.7,0l0,355.3Z" class="g2_169" />
<path d="M321.8,480.2l0.8,0l0,-355.3l-0.8,0l0,355.3Z" class="g2_169" />
<path d="M396.3,480.2l0.7,0l0,-355.3l-0.7,0l0,355.3Z" class="g2_169" />
<path d="M483.4,480.2l0.7,0l0,-355.3l-0.7,0l0,355.3Z" class="g2_169" />
<path d="M855.8,479.3l0.7,0l0,-353.6l-0.7,0l0,353.6Z" class="g2_169" />
<path d="M69.9,125.7l786.6,0l0,-0.8l-786.6,0l0,0.8Z" class="g2_169" />
<path d="M69.9,176.1l786.6,0l0,-0.7l-786.6,0l0,0.7Z" class="g2_169" />
<path d="M69.9,212.8l786.6,0l0,-0.8L69.9,212l0,0.8Z" class="g2_169" />
<path d="M69.9,266.2l786.6,0l0,-0.7l-786.6,0l0,0.7Z" class="g2_169" />
<path d="M69.9,319.6l786.6,0l0,-0.7l-786.6,0l0,0.7Z" class="g2_169" />
<path d="M69.9,373.2l786.6,0l0,-0.8l-786.6,0l0,0.8Z" class="g2_169" />
<path d="M69.9,426.6l786.6,0l0,-0.7l-786.6,0l0,0.7Z" class="g2_169" />
<path d="M69.9,480.2l786.6,0l0,-0.8l-786.6,0l0,0.8Z" class="g2_169" />
<path d="M70.5,632.1l0.7,0l0,-96.9l-0.7,0l0,96.9Z" class="g2_169" />
<path d="M186,632.9l0.7,0l0,-98.6l-0.7,0l0,98.6Z" class="g2_169" />
<path d="M339.1,632.9l0.7,0l0,-98.6l-0.7,0l0,98.6Z" class="g2_169" />
<path d="M557.3,632.9l0.8,0l0,-98.6l-0.8,0l0,98.6Z" class="g2_169" />
<path d="M712.2,632.9l0.7,0l0,-98.6l-0.7,0l0,98.6Z" class="g2_169" />
<path d="M851.5,632.1l0.7,0l0,-96.9l-0.7,0l0,96.9Z" class="g2_169" />
<path d="M70.5,535.2l781.8,0l0,-0.8l-781.8,0l0,0.8Z" class="g2_169" />
<path d="M70.5,559.5l781.8,0l0,-0.7l-781.8,0l0,0.7Z" class="g2_169" />
<path d="M70.5,584l781.8,0l0,-0.7l-781.8,0l0,0.7Z" class="g2_169" />
<path d="M70.5,608.5l781.8,0l0,-0.8l-781.8,0l0,0.8Z" class="g2_169" />
<path d="M70.5,632.9l781.8,0l0,-0.8l-781.8,0l0,0.8Z" class="g2_169" />
</svg>