<?xml version="1.0" encoding="UTF-8" standalone="no"?>
<!DOCTYPE svg PUBLIC "-//W3C//DTD SVG 1.1//EN"
"http://www.w3.org/Graphics/SVG/1.1/DTD/svg11.dtd">
<svg viewBox="0 0 935 1210" version="1.1" xmlns="http://www.w3.org/2000/svg" xmlns:xlink="http://www.w3.org/1999/xlink">
<defs>
<style type="text/css"><![CDATA[
.g1_1085{
fill: #FFFFFF;
}
.g2_1085{
}
]]></style>
</defs>
<path d="M68.9,1149.3l686.3,0l0,-21.2l-686.3,0l0,21.2Z" class="g1_1085" />
<path d="M771.3,1149.3l83.7,0l0,-21.2l-83.7,0l0,21.2Z" class="g1_1085" />
<path d="M68.6,1079.8l0.7,0L69.3,141l-0.7,0l0,938.8Z" class="g2_1085" />
<path d="M366.1,1080.6l0.7,0l0,-940.4l-0.7,0l0,940.4Z" class="g2_1085" />
<path d="M409.7,1080.6l0.7,0l0,-940.4l-0.7,0l0,940.4Z" class="g2_1085" />
<path d="M483.1,1080.6l0.7,0l0,-940.4l-0.7,0l0,940.4Z" class="g2_1085" />
<path d="M562.5,1080.6l0.7,0l0,-940.4l-0.7,0l0,940.4Z" class="g2_1085" />
<path d="M853.4,1079.8l0.7,0l0,-938.8l-0.7,0l0,938.8Z" class="g2_1085" />
<path d="M68.6,140.9l785.6,0l0,-0.7l-785.6,0l0,0.7Z" class="g2_1085" />
<path d="M68.6,194.4l785.6,0l0,-0.7l-785.6,0l0,0.7Z" class="g2_1085" />
<path d="M68.6,238.7l785.6,0l0,-0.7L68.6,238l0,0.7Z" class="g2_1085" />
<path d="M68.6,283l785.6,0l0,-0.8l-785.6,0l0,0.8Z" class="g2_1085" />
<path d="M68.6,327.3l785.6,0l0,-0.7l-785.6,0l0,0.7Z" class="g2_1085" />
<path d="M68.6,371.6l785.6,0l0,-0.7l-785.6,0l0,0.7Z" class="g2_1085" />
<path d="M68.6,416l785.6,0l0,-0.7l-785.6,0l0,0.7Z" class="g2_1085" />
<path d="M68.6,460.3l785.6,0l0,-0.8l-785.6,0l0,0.8Z" class="g2_1085" />
<path d="M68.6,504.5l785.6,0l0,-0.7l-785.6,0l0,0.7Z" class="g2_1085" />
<path d="M68.6,548.9l785.6,0l0,-0.7l-785.6,0l0,0.7Z" class="g2_1085" />
<path d="M68.6,593.2l785.6,0l0,-0.8l-785.6,0l0,0.8Z" class="g2_1085" />
<path d="M68.6,637.4l785.6,0l0,-0.7l-785.6,0l0,0.7Z" class="g2_1085" />
<path d="M68.6,681.8l785.6,0l0,-0.7l-785.6,0l0,0.7Z" class="g2_1085" />
<path d="M68.6,726.1l785.6,0l0,-0.7l-785.6,0l0,0.7Z" class="g2_1085" />
<path d="M68.6,770.4l785.6,0l0,-0.8l-785.6,0l0,0.8Z" class="g2_1085" />
<path d="M68.6,814.7l785.6,0l0,-0.7L68.6,814l0,0.7Z" class="g2_1085" />
<path d="M68.6,859l785.6,0l0,-0.7l-785.6,0l0,0.7Z" class="g2_1085" />
<path d="M68.6,903.3l785.6,0l0,-0.7l-785.6,0l0,0.7Z" class="g2_1085" />
<path d="M68.6,947.7l785.6,0l0,-0.8l-785.6,0l0,0.8Z" class="g2_1085" />
<path d="M68.6,991.9l785.6,0l0,-0.7l-785.6,0l0,0.7Z" class="g2_1085" />
<path d="M68.6,1036.2l785.6,0l0,-0.7l-785.6,0l0,0.7Z" class="g2_1085" />
<path d="M68.6,1080.6l785.6,0l0,-0.8l-785.6,0l0,0.8Z" class="g2_1085" />
</svg>