<?xml version="1.0" encoding="UTF-8" standalone="no"?>
<!DOCTYPE svg PUBLIC "-//W3C//DTD SVG 1.1//EN"
"http://www.w3.org/Graphics/SVG/1.1/DTD/svg11.dtd">
<svg viewBox="0 0 935 1210" version="1.1" xmlns="http://www.w3.org/2000/svg" xmlns:xlink="http://www.w3.org/1999/xlink">
<defs>
<style type="text/css"><![CDATA[
.g1_2040{
fill: #FFFFFF;
}
.g2_2040{
fill: #E6E6E6;
}
.g3_2040{
}
]]></style>
</defs>
<path d="M68.8,1149l784.5,0l0,-21.4l-784.5,0l0,21.4Z" class="g1_2040" />
<path d="M154.8,166.6l47.5,0l0,-42.8l-47.5,0l0,42.8Z" class="g2_2040" />
<path d="M154.8,184.1l47.5,0l0,-17.5l-47.5,0l0,17.5Z" class="g2_2040" />
<path d="M154.8,201.7l47.5,0l0,-17.6l-47.5,0l0,17.6Z" class="g2_2040" />
<path d="M154.8,242.2l47.5,0l0,-40.5l-47.5,0l0,40.5Z" class="g2_2040" />
<path d="M154.8,271.1l47.5,0l0,-28.9l-47.5,0l0,28.9Z" class="g2_2040" />
<path d="M154.8,300.2l47.5,0l0,-29.1l-47.5,0l0,29.1Z" class="g2_2040" />
<path d="M154.8,329.3l47.5,0l0,-29.1l-47.5,0l0,29.1Z" class="g2_2040" />
<path d="M154.8,358.2l47.5,0l0,-28.9l-47.5,0l0,28.9Z" class="g2_2040" />
<path d="M154.8,474.4l47.5,0l0,-116.2l-47.5,0l0,116.2Z" class="g2_2040" />
<path d="M154.8,492l47.5,0l0,-17.6l-47.5,0l0,17.6Z" class="g2_2040" />
<path d="M154.8,648.5l47.5,0l0,-156.5l-47.5,0l0,156.5Z" class="g2_2040" />
<path d="M154.8,683.7l47.5,0l0,-35.2l-47.5,0l0,35.2Z" class="g2_2040" />
<path d="M154.8,835l47.5,0l0,-75.6l-47.5,0l0,75.6Z" class="g2_2040" />
<path d="M154.8,910.6l47.5,0l0,-75.6l-47.5,0l0,75.6Z" class="g2_2040" />
<path d="M154.8,986.2l47.5,0l0,-75.6l-47.5,0l0,75.6Z" class="g2_2040" />
<path d="M67.5,985.1l2.3,0l0,-860.2l-2.3,0l0,860.2Z" class="g3_2040" />
<path d="M153.7,760.5l2.3,0l0,-637.8l-2.3,0l0,637.8Z" class="g3_2040" />
<path d="M154.5,987.3l0.7,0l0,-229.1l-0.7,0l0,229.1Z" class="g3_2040" />
<path d="M201.2,987.3l2.3,0l0,-864.6l-2.3,0l0,864.6Z" class="g3_2040" />
<path d="M251.2,760.5l2.3,0l0,-637.8l-2.3,0l0,637.8Z" class="g3_2040" />
<path d="M251.9,987.3l0.7,0l0,-229.1l-0.7,0l0,229.1Z" class="g3_2040" />
<path d="M285.8,987.3l2.3,0l0,-864.6l-2.3,0l0,864.6Z" class="g3_2040" />
<path d="M356.4,167.7l2.3,0l0,-23.7l-2.3,0l0,23.7Z" class="g3_2040" />
<path d="M357.1,649.7l0.8,0l0,-484.3l-0.8,0l0,484.3Z" class="g3_2040" />
<path d="M357.1,987.3l0.8,0l0,-304.7l-0.8,0l0,304.7Z" class="g3_2040" />
<path d="M429.2,167.7l2.3,0l0,-23.7l-2.3,0l0,23.7Z" class="g3_2040" />
<path d="M429.9,649.7l0.8,0l0,-484.3l-0.8,0l0,484.3Z" class="g3_2040" />
<path d="M429.9,987.3l0.8,0l0,-304.7l-0.8,0l0,304.7Z" class="g3_2040" />
<path d="M496.6,167.7l2.3,0l0,-23.7l-2.3,0l0,23.7Z" class="g3_2040" />
<path d="M497.4,271.6l0.7,0l0,-106.2l-0.7,0l0,106.2Z" class="g3_2040" />
<path d="M497.4,649.7l0.7,0l0,-349.9l-0.7,0l0,349.9Z" class="g3_2040" />
<path d="M497.4,987.3l0.7,0l0,-304.7l-0.7,0l0,304.7Z" class="g3_2040" />
<path d="M577.3,167.7l2.3,0l0,-23.7l-2.3,0l0,23.7Z" class="g3_2040" />
<path d="M578,271.6l0.8,0l0,-106.2l-0.8,0l0,106.2Z" class="g3_2040" />
<path d="M578,649.7l0.8,0l0,-349.9l-0.8,0l0,349.9Z" class="g3_2040" />
<path d="M578,987.3l0.8,0l0,-304.7l-0.8,0l0,304.7Z" class="g3_2040" />
<path d="M649.4,167.7l2.3,0l0,-23.7l-2.3,0l0,23.7Z" class="g3_2040" />
<path d="M650.1,271.6l0.7,0l0,-106.2l-0.7,0l0,106.2Z" class="g3_2040" />
<path d="M650.1,649.7l0.7,0l0,-349.9l-0.7,0l0,349.9Z" class="g3_2040" />
<path d="M650.1,987.3l0.7,0l0,-304.7l-0.7,0l0,304.7Z" class="g3_2040" />
<path d="M702.4,167.7l2.3,0l0,-23.7l-2.3,0l0,23.7Z" class="g3_2040" />
<path d="M703.2,271.6l0.7,0l0,-106.2l-0.7,0l0,106.2Z" class="g3_2040" />
<path d="M703.2,649.7l0.7,0l0,-349.9l-0.7,0l0,349.9Z" class="g3_2040" />
<path d="M703.2,987.3l0.7,0l0,-304.7l-0.7,0l0,304.7Z" class="g3_2040" />
<path d="M772.9,167.7l2.3,0l0,-23.7l-2.3,0l0,23.7Z" class="g3_2040" />
<path d="M773.7,271.6l0.7,0l0,-106.2l-0.7,0l0,106.2Z" class="g3_2040" />
<path d="M773.7,649.7l0.7,0l0,-349.9l-0.7,0l0,349.9Z" class="g3_2040" />
<path d="M773.7,987.3l0.7,0l0,-304.7l-0.7,0l0,304.7Z" class="g3_2040" />
<path d="M852.8,985.1l2.3,0l0,-860.2l-2.3,0l0,860.2Z" class="g3_2040" />
<path d="M67.4,124.9l787.7,0l0,-2.2l-787.7,0l0,2.2Z" class="g3_2040" />
<path d="M285.8,146.3l569.3,0l0,-2.3l-569.3,0l0,2.3Z" class="g3_2040" />
<path d="M67.4,167.7l787.7,0l0,-2.2l-787.7,0l0,2.2Z" class="g3_2040" />
<path d="M67.4,185.3l787.7,0l0,-2.3L67.4,183l0,2.3Z" class="g3_2040" />
<path d="M67.4,202l787.7,0l0,-0.7l-787.7,0l0,0.7Z" class="g3_2040" />
<path d="M67.4,242.6l787.7,0l0,-0.8l-787.7,0l0,0.8Z" class="g3_2040" />
<path d="M67.4,271.5l787.7,0l0,-0.7l-787.7,0l0,0.7Z" class="g3_2040" />
<path d="M67.4,300.6l787.7,0l0,-0.8l-787.7,0l0,0.8Z" class="g3_2040" />
<path d="M67.4,329.6l787.7,0l0,-0.7l-787.7,0l0,0.7Z" class="g3_2040" />
<path d="M67.4,358.6l787.7,0l0,-0.7l-787.7,0l0,0.7Z" class="g3_2040" />
<path d="M201.2,387.7l377.6,0l0,-0.8l-377.6,0l0,0.8Z" class="g3_2040" />
<path d="M650.1,387.7l53.8,0l0,-0.8l-53.8,0l0,0.8Z" class="g3_2040" />
<path d="M773.7,387.7l81.4,0l0,-0.8l-81.4,0l0,0.8Z" class="g3_2040" />
<path d="M67.4,474.7l787.7,0l0,-0.7L67.4,474l0,0.7Z" class="g3_2040" />
<path d="M67.4,493.2l787.7,0l0,-2.3l-787.7,0l0,2.3Z" class="g3_2040" />
<path d="M251.2,532.9l603.9,0l0,-0.8l-603.9,0l0,0.8Z" class="g3_2040" />
<path d="M251.2,561.8l603.9,0l0,-0.7l-603.9,0l0,0.7Z" class="g3_2040" />
<path d="M201.2,590.9l653.9,0l0,-0.7l-653.9,0l0,0.7Z" class="g3_2040" />
<path d="M251.2,619.9l36.9,0l0,-0.7l-36.9,0l0,0.7Z" class="g3_2040" />
<path d="M285.8,620.8l569.3,0l0,-2.3l-569.3,0l0,2.3Z" class="g3_2040" />
<path d="M67.4,649.7l787.7,0l0,-2.3l-787.7,0l0,2.3Z" class="g3_2040" />
<path d="M201.2,666.5l86.9,0l0,-0.7l-86.9,0l0,0.7Z" class="g3_2040" />
<path d="M67.4,684.9l787.7,0l0,-2.3l-787.7,0l0,2.3Z" class="g3_2040" />
<path d="M201.2,701.6l86.9,0l0,-0.7l-86.9,0l0,0.7Z" class="g3_2040" />
<path d="M357.1,701.6l498,0l0,-0.7l-498,0l0,0.7Z" class="g3_2040" />
<path d="M67.4,725.4l88.5,0l0,-2.3l-88.5,0l0,2.3Z" class="g3_2040" />
<path d="M201.2,725.4l653.9,0l0,-2.3l-653.9,0l0,2.3Z" class="g3_2040" />
<path d="M201.2,742.1l86.9,0l0,-0.7l-86.9,0l0,0.7Z" class="g3_2040" />
<path d="M357.1,742.1l498,0l0,-0.7l-498,0l0,0.7Z" class="g3_2040" />
<path d="M67.4,760.6l787.7,0l0,-2.3l-787.7,0l0,2.3Z" class="g3_2040" />
<path d="M201.2,777.2l653.9,0l0,-0.7l-653.9,0l0,0.7Z" class="g3_2040" />
<path d="M251.9,806.3l603.2,0l0,-0.7l-603.2,0l0,0.7Z" class="g3_2040" />
<path d="M67.4,836.2l787.7,0l0,-2.3l-787.7,0l0,2.3Z" class="g3_2040" />
<path d="M201.2,852.9l653.9,0l0,-0.8l-653.9,0l0,0.8Z" class="g3_2040" />
<path d="M251.9,881.9l603.2,0l0,-0.7l-603.2,0l0,0.7Z" class="g3_2040" />
<path d="M67.4,911.8l787.7,0l0,-2.3l-787.7,0l0,2.3Z" class="g3_2040" />
<path d="M201.2,928.5l653.9,0l0,-0.7l-653.9,0l0,0.7Z" class="g3_2040" />
<path d="M251.9,957.5l603.2,0l0,-0.7l-603.2,0l0,0.7Z" class="g3_2040" />
<path d="M67.4,987.4l787.7,0l0,-2.3l-787.7,0l0,2.3Z" class="g3_2040" />
</svg>