<?xml version="1.0" encoding="UTF-8" standalone="no"?>
<!DOCTYPE svg PUBLIC "-//W3C//DTD SVG 1.1//EN"
"http://www.w3.org/Graphics/SVG/1.1/DTD/svg11.dtd">
<svg viewBox="0 0 935 1210" version="1.1" xmlns="http://www.w3.org/2000/svg" xmlns:xlink="http://www.w3.org/1999/xlink">
<defs>
<style type="text/css"><![CDATA[
.g1_57{
fill: #FFFFFF;
}
.g2_57{
}
]]></style>
</defs>
<path d="M68.9,1149.3l783.8,0l0,-21.2l-783.8,0l0,21.2Z" class="g1_57" />
<path d="M72.4,1012.7l0.4,0l0,-890.3l-0.4,0l0,890.3Z" class="g2_57" />
<path d="M187.4,1013.2l0.3,0l0,-891.2l-0.3,0l0,891.2Z" class="g2_57" />
<path d="M849.9,1012.7l0.4,0l0,-890.3l-0.4,0l0,890.3Z" class="g2_57" />
<path d="M72.4,122.4l778,0l0,-0.4l-778,0l0,0.4Z" class="g2_57" />
<path d="M72.4,143.8l778,0l0,-0.3l-778,0l0,0.3Z" class="g2_57" />
<path d="M72.4,165.2l778,0l0,-0.4l-778,0l0,0.4Z" class="g2_57" />
<path d="M72.4,337.8l778,0l0,-0.4l-778,0l0,0.4Z" class="g2_57" />
<path d="M72.4,476.8l778,0l0,-0.3l-778,0l0,0.3Z" class="g2_57" />
<path d="M72.4,784.1l778,0l0,-0.7l-778,0l0,0.7Z" class="g2_57" />
<path d="M72.4,838.9l778,0l0,-0.3l-778,0l0,0.3Z" class="g2_57" />
<path d="M72.4,893.9l778,0l0,-0.3l-778,0l0,0.3Z" class="g2_57" />
<path d="M72.4,932.2l778,0l0,-0.4l-778,0l0,0.4Z" class="g2_57" />
<path d="M72.4,953.5l778,0l0,-0.4l-778,0l0,0.4Z" class="g2_57" />
<path d="M72.4,975l778,0l0,-0.4l-778,0l0,0.4Z" class="g2_57" />
<path d="M72.4,1013.1l778,0l0,-0.4l-778,0l0,0.4Z" class="g2_57" />
</svg>