<?xml version="1.0" encoding="UTF-8" standalone="no"?>
<!DOCTYPE svg PUBLIC "-//W3C//DTD SVG 1.1//EN"
"http://www.w3.org/Graphics/SVG/1.1/DTD/svg11.dtd">
<svg viewBox="0 0 935 1210" version="1.1" xmlns="http://www.w3.org/2000/svg" xmlns:xlink="http://www.w3.org/1999/xlink">
<defs>
<style type="text/css"><![CDATA[
.g1_117{
fill: #FFFFFF;
}
.g2_117{
}
]]></style>
</defs>
<path d="M68.9,1149.3l686.3,0l0,-21.2l-686.3,0l0,21.2Z" class="g1_117" />
<path d="M771.3,1149.3l83.7,0l0,-21.2l-83.7,0l0,21.2Z" class="g1_117" />
<path d="M73,846.1l0.7,0l0,-587.5l-0.7,0l0,587.5Z" class="g2_117" />
<path d="M144,846.8l0.7,0l0,-588.9l-0.7,0l0,588.9Z" class="g2_117" />
<path d="M358.4,846.8l0.8,0l0,-588.9l-0.8,0l0,588.9Z" class="g2_117" />
<path d="M644.1,846.8l0.7,0l0,-588.9l-0.7,0l0,588.9Z" class="g2_117" />
<path d="M719.9,846.8l0.8,0l0,-588.9l-0.8,0l0,588.9Z" class="g2_117" />
<path d="M792.6,846.8l0.8,0l0,-588.9l-0.8,0l0,588.9Z" class="g2_117" />
<path d="M849,846.1l0.7,0l0,-587.5l-0.7,0l0,587.5Z" class="g2_117" />
<path d="M73,258.6l776.8,0l0,-0.7L73,257.9l0,0.7Z" class="g2_117" />
<path d="M73,313.6l776.8,0l0,-0.7L73,312.9l0,0.7Z" class="g2_117" />
<path d="M73,338l776.8,0l0,-0.8L73,337.2l0,0.8Z" class="g2_117" />
<path d="M73,362.4l776.8,0l0,-0.7L73,361.7l0,0.7Z" class="g2_117" />
<path d="M73,386.9l776.8,0l0,-0.7L73,386.2l0,0.7Z" class="g2_117" />
<path d="M73,411.4l776.8,0l0,-0.7L73,410.7l0,0.7Z" class="g2_117" />
<path d="M73,435.8l776.8,0l0,-0.8L73,435l0,0.8Z" class="g2_117" />
<path d="M73,477l776.8,0l0,-0.7L73,476.3l0,0.7Z" class="g2_117" />
<path d="M73,518.3l776.8,0l0,-0.7L73,517.6l0,0.7Z" class="g2_117" />
<path d="M73,559.5l776.8,0l0,-0.7L73,558.8l0,0.7Z" class="g2_117" />
<path d="M73,584l776.8,0l0,-0.7L73,583.3l0,0.7Z" class="g2_117" />
<path d="M73,625.3l776.8,0l0,-0.8L73,624.5l0,0.8Z" class="g2_117" />
<path d="M73,649.7l776.8,0l0,-0.7L73,649l0,0.7Z" class="g2_117" />
<path d="M73,691l776.8,0l0,-0.7L73,690.3l0,0.7Z" class="g2_117" />
<path d="M73,715.4l776.8,0l0,-0.8L73,714.6l0,0.8Z" class="g2_117" />
<path d="M73,756.6l776.8,0l0,-0.7L73,755.9l0,0.7Z" class="g2_117" />
<path d="M73,781.1l776.8,0l0,-0.7L73,780.4l0,0.7Z" class="g2_117" />
<path d="M73,805.6l776.8,0l0,-0.8L73,804.8l0,0.8Z" class="g2_117" />
<path d="M73,846.8l776.8,0l0,-0.7L73,846.1l0,0.7Z" class="g2_117" />
</svg>