<?xml version="1.0" encoding="UTF-8" standalone="no"?>
<!DOCTYPE svg PUBLIC "-//W3C//DTD SVG 1.1//EN"
"http://www.w3.org/Graphics/SVG/1.1/DTD/svg11.dtd">
<svg viewBox="0 0 935 1210" version="1.1" xmlns="http://www.w3.org/2000/svg" xmlns:xlink="http://www.w3.org/1999/xlink">
<defs>
<style type="text/css"><![CDATA[
.g1_61{
fill: #FFFFFF;
}
.g2_61{
}
]]></style>
</defs>
<path d="M68.9,1149.3l783.8,0l0,-21.2l-783.8,0l0,21.2Z" class="g1_61" />
<path d="M71,763.8l0.4,0l0,-589.5l-0.4,0l0,589.5Z" class="g2_61" />
<path d="M187,764.1l0.4,0l0,-590.1l-0.4,0l0,590.1Z" class="g2_61" />
<path d="M220.5,764.1l0.3,0l0,-590.1l-0.3,0l0,590.1Z" class="g2_61" />
<path d="M258.1,764.1l0.4,0l0,-590.1l-0.4,0l0,590.1Z" class="g2_61" />
<path d="M297.5,764.1l0.3,0l0,-590.1l-0.3,0l0,590.1Z" class="g2_61" />
<path d="M329.8,764.1l0.4,0l0,-590.1l-0.4,0l0,590.1Z" class="g2_61" />
<path d="M851.3,763.8l0.4,0l0,-589.5l-0.4,0l0,589.5Z" class="g2_61" />
<path d="M71,174.3l780.7,0l0,-0.3L71,174l0,0.3Z" class="g2_61" />
<path d="M71,284.3l780.7,0l0,-0.3L71,284l0,0.3Z" class="g2_61" />
<path d="M187,305.7l664.7,0l0,-0.4l-664.7,0l0,0.4Z" class="g2_61" />
<path d="M187,327.2l664.7,0l0,-0.4l-664.7,0l0,0.4Z" class="g2_61" />
<path d="M187,385.2l664.7,0l0,-0.4l-664.7,0l0,0.4Z" class="g2_61" />
<path d="M187,440.2l664.7,0l0,-0.4l-664.7,0l0,0.4Z" class="g2_61" />
<path d="M187,461.6l664.7,0l0,-0.3l-664.7,0l0,0.3Z" class="g2_61" />
<path d="M187,483l664.7,0l0,-0.4l-664.7,0l0,0.4Z" class="g2_61" />
<path d="M71,504.3l780.7,0l0,-0.3L71,504l0,0.3Z" class="g2_61" />
<path d="M71,542.6l780.7,0l0,-0.4L71,542.2l0,0.4Z" class="g2_61" />
<path d="M187,563.9l664.7,0l0,-0.3l-664.7,0l0,0.3Z" class="g2_61" />
<path d="M71,585.4l780.7,0l0,-0.4L71,585l0,0.4Z" class="g2_61" />
<path d="M187,606.7l664.7,0l0,-0.3l-664.7,0l0,0.3Z" class="g2_61" />
<path d="M187,628.1l664.7,0l0,-0.4l-664.7,0l0,0.4Z" class="g2_61" />
<path d="M187,649.6l664.7,0l0,-0.4l-664.7,0l0,0.4Z" class="g2_61" />
<path d="M71,670.9l780.7,0l0,-0.4L71,670.5l0,0.4Z" class="g2_61" />
<path d="M71,709.1l780.7,0l0,-0.3L71,708.8l0,0.3Z" class="g2_61" />
<path d="M71,764.1l780.7,0l0,-0.3L71,763.8l0,0.3Z" class="g2_61" />
</svg>