<?xml version="1.0" encoding="UTF-8" standalone="no"?>
<!DOCTYPE svg PUBLIC "-//W3C//DTD SVG 1.1//EN"
"http://www.w3.org/Graphics/SVG/1.1/DTD/svg11.dtd">
<svg viewBox="0 0 935 1210" version="1.1" xmlns="http://www.w3.org/2000/svg" xmlns:xlink="http://www.w3.org/1999/xlink">
<defs>
<style type="text/css"><![CDATA[
.g1_2031{
fill: #FFFFFF;
}
.g2_2031{
fill: #E6E6E6;
}
.g3_2031{
}
]]></style>
</defs>
<path d="M68.9,1149l783.8,0l0,-21.4l-783.8,0l0,21.4Z" class="g1_2031" />
<path d="M129.2,189.5l89.8,0L219,149l-89.8,0l0,40.5Z" class="g2_2031" />
<path d="M219,189.5l89.8,0l0,-40.5L219,149l0,40.5Z" class="g2_2031" />
<path d="M219,867.1l89.8,0l0,-127.6l-89.8,0l0,127.6Z" class="g2_2031" />
<path d="M308.8,867.1l89.8,0l0,-127.6l-89.8,0l0,127.6Z" class="g2_2031" />
<path d="M398.6,867.1l83.3,0l0,-127.6l-83.3,0l0,127.6Z" class="g2_2031" />
<path d="M68.2,865.9l2.3,0l0,-733.3l-2.3,0l0,733.3Z" class="g3_2031" />
<path d="M98.9,868.2l0.7,0l0,-737.9l-0.7,0l0,737.9Z" class="g3_2031" />
<path d="M128.1,868.2l2.3,0l0,-737.9l-2.3,0l0,737.9Z" class="g3_2031" />
<path d="M218.6,479.3l0.8,0l0,-349l-0.8,0l0,349Z" class="g3_2031" />
<path d="M218.6,868.2l0.8,0l0,-372.4l-0.8,0l0,372.4Z" class="g3_2031" />
<path d="M308.5,479.3l0.7,0l0,-349l-0.7,0l0,349Z" class="g3_2031" />
<path d="M308.5,868.2l0.7,0l0,-372.4l-0.7,0l0,372.4Z" class="g3_2031" />
<path d="M398.2,479.3l0.7,0l0,-349l-0.7,0l0,349Z" class="g3_2031" />
<path d="M398.2,868.2l0.7,0l0,-372.4l-0.7,0l0,372.4Z" class="g3_2031" />
<path d="M481.5,479.3l0.8,0l0,-349l-0.8,0l0,349Z" class="g3_2031" />
<path d="M481.5,868.2l0.8,0l0,-372.4l-0.8,0l0,372.4Z" class="g3_2031" />
<path d="M576.9,479.3l0.7,0l0,-349l-0.7,0l0,349Z" class="g3_2031" />
<path d="M576.9,868.2l0.7,0l0,-372.4l-0.7,0l0,372.4Z" class="g3_2031" />
<path d="M673.1,479.3l0.7,0l0,-349l-0.7,0l0,349Z" class="g3_2031" />
<path d="M673.1,868.2l0.7,0l0,-372.4l-0.7,0l0,372.4Z" class="g3_2031" />
<path d="M762.9,479.3l0.8,0l0,-349l-0.8,0l0,349Z" class="g3_2031" />
<path d="M762.9,868.2l0.8,0l0,-372.4l-0.8,0l0,372.4Z" class="g3_2031" />
<path d="M852,865.9l2.2,0l0,-733.3l-2.2,0l0,733.3Z" class="g3_2031" />
<path d="M68.1,132.6l786.1,0l0,-2.3l-786.1,0l0,2.3Z" class="g3_2031" />
<path d="M68.1,150.2l786.1,0l0,-2.3l-786.1,0l0,2.3Z" class="g3_2031" />
<path d="M68.1,190.7l786.1,0l0,-2.3l-786.1,0l0,2.3Z" class="g3_2031" />
<path d="M98.9,241.7l755.3,0l0,-0.7L98.9,241l0,0.7Z" class="g3_2031" />
<path d="M98.9,270.8l755.3,0l0,-0.7l-755.3,0l0,0.7Z" class="g3_2031" />
<path d="M98.9,299.8l755.3,0l0,-0.7l-755.3,0l0,0.7Z" class="g3_2031" />
<path d="M68.1,329.6l786.1,0l0,-2.3l-786.1,0l0,2.3Z" class="g3_2031" />
<path d="M68.1,450.4l786.1,0l0,-2.3l-786.1,0l0,2.3Z" class="g3_2031" />
<path d="M68.1,479.4l786.1,0l0,-2.3l-786.1,0l0,2.3Z" class="g3_2031" />
<path d="M68.1,537.4l786.1,0l0,-2.2l-786.1,0l0,2.2Z" class="g3_2031" />
<path d="M98.9,565.7l755.3,0l0,-0.8l-755.3,0l0,0.8Z" class="g3_2031" />
<path d="M98.9,594.7l755.3,0l0,-0.7L98.9,594l0,0.7Z" class="g3_2031" />
<path d="M98.9,623.7l755.3,0l0,-0.7L98.9,623l0,0.7Z" class="g3_2031" />
<path d="M68.1,653.6l786.1,0l0,-2.3l-786.1,0l0,2.3Z" class="g3_2031" />
<path d="M98.9,681.8l755.3,0l0,-0.7l-755.3,0l0,0.7Z" class="g3_2031" />
<path d="M98.9,710.8l755.3,0l0,-0.8L98.9,710l0,0.8Z" class="g3_2031" />
<path d="M68.1,740.7l786.1,0l0,-2.3l-786.1,0l0,2.3Z" class="g3_2031" />
<path d="M98.9,780.4l120.6,0l0,-0.8l-120.6,0l0,0.8Z" class="g3_2031" />
<path d="M481.5,780.4l372.7,0l0,-0.8l-372.7,0l0,0.8Z" class="g3_2031" />
<path d="M98.9,809.3l120.6,0l0,-0.7l-120.6,0l0,0.7Z" class="g3_2031" />
<path d="M481.5,809.3l372.7,0l0,-0.7l-372.7,0l0,0.7Z" class="g3_2031" />
<path d="M98.9,838.4l120.6,0l0,-0.7l-120.6,0l0,0.7Z" class="g3_2031" />
<path d="M481.5,838.4l372.7,0l0,-0.7l-372.7,0l0,0.7Z" class="g3_2031" />
<path d="M68.1,868.3l786.1,0l0,-2.3L68.1,866l0,2.3Z" class="g3_2031" />
</svg>