<?xml version="1.0" encoding="UTF-8" standalone="no"?>
<!DOCTYPE svg PUBLIC "-//W3C//DTD SVG 1.1//EN"
"http://www.w3.org/Graphics/SVG/1.1/DTD/svg11.dtd">
<svg viewBox="0 0 935 1210" version="1.1" xmlns="http://www.w3.org/2000/svg" xmlns:xlink="http://www.w3.org/1999/xlink">
<defs>
<style type="text/css"><![CDATA[
.g1_62{
fill: #FFFFFF;
}
.g2_62{
}
]]></style>
</defs>
<path d="M68.8,1149.3l783.7,0l0,-21.2l-783.7,0l0,21.2Z" class="g1_62" />
<path d="M68.1,797.3l0.4,0l0,-623l-0.4,0l0,623Z" class="g2_62" />
<path d="M207.8,797.7l0.4,0l0,-623.7l-0.4,0l0,623.7Z" class="g2_62" />
<path d="M244.5,797.7l0.3,0l0,-623.7l-0.3,0l0,623.7Z" class="g2_62" />
<path d="M286.5,797.7l0.3,0l0,-623.7l-0.3,0l0,623.7Z" class="g2_62" />
<path d="M325.8,797.7l0.3,0l0,-623.7l-0.3,0l0,623.7Z" class="g2_62" />
<path d="M361.4,797.7l0.3,0l0,-623.7l-0.3,0l0,623.7Z" class="g2_62" />
<path d="M852.7,797.3l0.4,0l0,-623l-0.4,0l0,623Z" class="g2_62" />
<path d="M68.1,174.3l785,0l0,-0.3l-785,0l0,0.3Z" class="g2_62" />
<path d="M68.1,284.3l785,0l0,-0.3l-785,0l0,0.3Z" class="g2_62" />
<path d="M207.8,305.7l645.2,0l0,-0.4l-645.2,0l0,0.4Z" class="g2_62" />
<path d="M207.8,327.2l645.2,0l0,-0.4l-645.2,0l0,0.4Z" class="g2_62" />
<path d="M207.8,385.2l645.2,0l0,-0.4l-645.2,0l0,0.4Z" class="g2_62" />
<path d="M207.8,440.2l645.2,0l0,-0.4l-645.2,0l0,0.4Z" class="g2_62" />
<path d="M207.8,461.6l645.2,0l0,-0.3l-645.2,0l0,0.3Z" class="g2_62" />
<path d="M207.8,483L853,483l0,-0.4l-645.2,0l0,0.4Z" class="g2_62" />
<path d="M68.1,504.3l785,0l0,-0.3l-785,0l0,0.3Z" class="g2_62" />
<path d="M68.1,542.6l785,0l0,-0.4l-785,0l0,0.4Z" class="g2_62" />
<path d="M207.8,563.9l645.2,0l0,-0.3l-645.2,0l0,0.3Z" class="g2_62" />
<path d="M68.1,585.4l785,0l0,-0.4l-785,0l0,0.4Z" class="g2_62" />
<path d="M207.8,623.5l645.2,0l0,-0.3l-645.2,0l0,0.3Z" class="g2_62" />
<path d="M207.8,645L853,645l0,-0.4l-645.2,0l0,0.4Z" class="g2_62" />
<path d="M68.1,683.1l785,0l0,-0.4l-785,0l0,0.4Z" class="g2_62" />
<path d="M68.1,721.3l785,0l0,-0.3l-785,0l0,0.3Z" class="g2_62" />
<path d="M68.1,759.6l785,0l0,-0.4l-785,0l0,0.4Z" class="g2_62" />
<path d="M68.1,797.7l785,0l0,-0.4l-785,0l0,0.4Z" class="g2_62" />
</svg>