<?xml version="1.0" encoding="UTF-8" standalone="no"?>
<!DOCTYPE svg PUBLIC "-//W3C//DTD SVG 1.1//EN"
"http://www.w3.org/Graphics/SVG/1.1/DTD/svg11.dtd">
<svg viewBox="0 0 935 1210" version="1.1" xmlns="http://www.w3.org/2000/svg" xmlns:xlink="http://www.w3.org/1999/xlink">
<defs>
<style type="text/css"><![CDATA[
.g1_1397{
fill: #FFFFFF;
}
.g2_1397{
}
]]></style>
</defs>
<path d="M68.9,1149.3l686.3,0l0,-21.2l-686.3,0l0,21.2Z" class="g1_1397" />
<path d="M771.3,1149.3l83.7,0l0,-21.2l-83.7,0l0,21.2Z" class="g1_1397" />
<path d="M69.9,407.6l0.8,0L70.7,147l-0.8,0l0,260.6Z" class="g2_1397" />
<path d="M308.4,408.3l0.7,0l0,-262l-0.7,0l0,262Z" class="g2_1397" />
<path d="M351.9,408.3l0.7,0l0,-262l-0.7,0l0,262Z" class="g2_1397" />
<path d="M426.4,408.3l0.8,0l0,-262l-0.8,0l0,262Z" class="g2_1397" />
<path d="M509.7,408.3l0.7,0l0,-262l-0.7,0l0,262Z" class="g2_1397" />
<path d="M854.4,407.6l0.8,0l0,-260.6l-0.8,0l0,260.6Z" class="g2_1397" />
<path d="M69.9,147l785.4,0l0,-0.7l-785.4,0l0,0.7Z" class="g2_1397" />
<path d="M69.9,197.4l785.4,0l0,-0.7l-785.4,0l0,0.7Z" class="g2_1397" />
<path d="M69.9,267.8l785.4,0l0,-0.8L69.9,267l0,0.8Z" class="g2_1397" />
<path d="M69.9,338l785.4,0l0,-0.8l-785.4,0l0,0.8Z" class="g2_1397" />
<path d="M69.9,408.3l785.4,0l0,-0.8l-785.4,0l0,0.8Z" class="g2_1397" />
<path d="M72.7,511.4l0.7,0l0,-48.1l-0.7,0l0,48.1Z" class="g2_1397" />
<path d="M849.3,511.4l0.7,0l0,-48.1l-0.7,0l0,48.1Z" class="g2_1397" />
<path d="M72.7,463.3l777.4,0l0,-0.8l-777.4,0l0,0.8Z" class="g2_1397" />
<path d="M72.7,512.2l777.4,0l0,-0.7l-777.4,0l0,0.7Z" class="g2_1397" />
</svg>