<?xml version="1.0" encoding="UTF-8" standalone="no"?>
<!DOCTYPE svg PUBLIC "-//W3C//DTD SVG 1.1//EN"
"http://www.w3.org/Graphics/SVG/1.1/DTD/svg11.dtd">
<svg viewBox="0 0 935 1210" version="1.1" xmlns="http://www.w3.org/2000/svg" xmlns:xlink="http://www.w3.org/1999/xlink">
<defs>
<style type="text/css"><![CDATA[
.g1_161{
fill: #FFFFFF;
}
.g2_161{
}
]]></style>
</defs>
<path d="M68.9,1149.3l686.3,0l0,-21.2l-686.3,0l0,21.2Z" class="g1_161" />
<path d="M771.3,1149.3l83.7,0l0,-21.2l-83.7,0l0,21.2Z" class="g1_161" />
<path d="M70.9,358.7l0.8,0l0,-233l-0.8,0l0,233Z" class="g2_161" />
<path d="M393.8,359.4l0.7,0l0,-234.5l-0.7,0l0,234.5Z" class="g2_161" />
<path d="M431.6,359.4l0.7,0l0,-234.5l-0.7,0l0,234.5Z" class="g2_161" />
<path d="M504.7,359.4l0.7,0l0,-234.5l-0.7,0l0,234.5Z" class="g2_161" />
<path d="M575.9,359.4l0.7,0l0,-234.5l-0.7,0l0,234.5Z" class="g2_161" />
<path d="M851,358.7l0.8,0l0,-233l-0.8,0l0,233Z" class="g2_161" />
<path d="M70.9,125.7l781,0l0,-0.8l-781,0l0,0.8Z" class="g2_161" />
<path d="M70.9,179.1l781,0l0,-0.7l-781,0l0,0.7Z" class="g2_161" />
<path d="M70.9,269.2l781,0l0,-0.7l-781,0l0,0.7Z" class="g2_161" />
<path d="M70.9,359.4l781,0l0,-0.7l-781,0l0,0.7Z" class="g2_161" />
<path d="M70.5,462.6l0.7,0l0,-48.2l-0.7,0l0,48.2Z" class="g2_161" />
<path d="M139.1,463.3l0.7,0l0,-49.6l-0.7,0l0,49.6Z" class="g2_161" />
<path d="M311.5,463.3l0.7,0l0,-49.6l-0.7,0l0,49.6Z" class="g2_161" />
<path d="M497.1,463.3l0.7,0l0,-49.6l-0.7,0l0,49.6Z" class="g2_161" />
<path d="M673.5,463.3l0.7,0l0,-49.6l-0.7,0l0,49.6Z" class="g2_161" />
<path d="M851.5,462.6l0.7,0l0,-48.2l-0.7,0l0,48.2Z" class="g2_161" />
<path d="M70.5,414.4l781.8,0l0,-0.7l-781.8,0l0,0.7Z" class="g2_161" />
<path d="M70.5,438.9l781.8,0l0,-0.7l-781.8,0l0,0.7Z" class="g2_161" />
<path d="M70.5,463.3l781.8,0l0,-0.8l-781.8,0l0,0.8Z" class="g2_161" />
</svg>