<?xml version="1.0" encoding="UTF-8" standalone="no"?>
<!DOCTYPE svg PUBLIC "-//W3C//DTD SVG 1.1//EN"
"http://www.w3.org/Graphics/SVG/1.1/DTD/svg11.dtd">
<svg viewBox="0 0 935 1210" version="1.1" xmlns="http://www.w3.org/2000/svg" xmlns:xlink="http://www.w3.org/1999/xlink">
<defs>
<clipPath id="c0_2053"><path d="M69.1,165l0,-9.2l783.3,0l0,9.2Z" /></clipPath>
<style type="text/css"><![CDATA[
.g1_2053{
fill: #FFFFFF;
}
.g2_2053{
}
]]></style>
</defs>
<path d="M67.7,1149.3l785,0l0,-21.2l-785,0l0,21.2Z" class="g1_2053" />
<g clip-path="url(#c0_2053)">
<path d="M69.1,158.6l783.3,0l0,-1.6L69.1,157l0,1.6Z" class="g2_2053" />
</g>
<path d="M170.8,824.6l0.7,0l0,-330.7l-0.7,0l0,330.7Z" class="g2_2053" />
<path d="M750.1,824.6l0.7,0l0,-330.7l-0.7,0l0,330.7Z" class="g2_2053" />
<path d="M170.8,493.9l580,0l0,-0.7l-580,0l0,0.7Z" class="g2_2053" />
<path d="M170.8,825.4l580,0l0,-0.8l-580,0l0,0.8Z" class="g2_2053" />
<path d="M409.5,545.9l83.8,0l0,-21.5l-83.8,0l0,21.5Z" class="g1_2053" />
<path d="M409.5,524.8l84.2,0l0,-0.7l-84.2,0l0,0.7Z" class="g2_2053" />
<path d="M493,546.2l0.7,0l0,-21.8l-0.7,0l0,21.8Z" class="g2_2053" />
<path d="M409.1,546.2l84.2,0l0,-0.7l-84.2,0l0,0.7Z" class="g2_2053" />
<path d="M409.1,545.9l0.7,0l0,-21.8l-0.7,0l0,21.8Z" class="g2_2053" />
<path d="M345.1,654.4l92.3,0l0,-21.4l-92.3,0l0,21.4Z" class="g1_2053" />
<path d="M345.1,633.4l92.7,0l0,-0.7l-92.7,0l0,0.7Z" class="g2_2053" />
<path d="M437.1,654.8l0.7,0l0,-21.8l-0.7,0l0,21.8Z" class="g2_2053" />
<path d="M344.8,654.8l92.6,0l0,-0.8l-92.6,0l0,0.8Z" class="g2_2053" />
<path d="M344.8,654.4l0.7,0l0,-21.7l-0.7,0l0,21.7Z" class="g2_2053" />
<path d="M492.8,545.9l82.5,0l0,-21.5l-82.5,0l0,21.5Z" class="g1_2053" />
<path d="M492.8,524.8l82.9,0l0,-0.7l-82.9,0l0,0.7Z" class="g2_2053" />
<path d="M574.9,546.2l0.8,0l0,-21.8l-0.8,0l0,21.8Z" class="g2_2053" />
<path d="M492.4,546.2l82.9,0l0,-0.7l-82.9,0l0,0.7Z" class="g2_2053" />
<path d="M492.4,545.9l0.8,0l0,-21.8l-0.8,0l0,21.8Z" class="g2_2053" />
<path d="M250.3,654.4l94.8,0l0,-21.4l-94.8,0l0,21.4Z" class="g1_2053" />
<path d="M250.3,633.4l95.2,0l0,-0.7l-95.2,0l0,0.7Z" class="g2_2053" />
<path d="M344.8,654.8l0.7,0l0,-21.8l-0.7,0l0,21.8Z" class="g2_2053" />
<path d="M250,654.8l95.1,0l0,-0.8L250,654l0,0.8Z" class="g2_2053" />
<path d="M250,654.4l0.7,0l0,-21.7l-0.7,0l0,21.7Z" class="g2_2053" />
<path d="M449.5,660.4l-0.2,-0.2l-0.5,0.5l0.3,0.2Z" class="g2_2053" />
<path d="M449.5,660.4l6.6,5.2l-0.2,0.6l0,-0.7l26.5,0l0,0.1l6.9,5.4l0,0.6L488.9,671l7.1,-5.7l0.1,-0.1l0.1,0l0.3,0.7l-7.2,5.7l-0.3,0.1l-0.1,-0.1L482,666.1l0.4,-0.5l-0.2,0.6l-26.4,0l-0.1,-0.1l-6.6,-5.2Z" class="g2_2053" />
<path d="M496.2,665.2l25.9,0l0.3,0.7l-0.1,0.1l-26.1,0Z" class="g2_2053" />
<path d="M528.5,660.2l0.2,-0.2l0.5,0.5l-0.3,0.2Z" class="g2_2053" />
<path d="M522,665.3l0.4,0.6l6.5,-5.2l-0.4,-0.5Z" class="g2_2053" />
<path d="M263.9,661.1l-0.3,-0.2l-0.4,0.6l0.3,0.1Z" class="g2_2053" />
<path d="M263.9,661.1l6.6,5.2l-0.3,0.7l0,-0.8l26.5,0l0.1,0.1l6.9,5.4l0,0.6l-0.5,-0.6l7.2,-5.7l0.1,0l0.1,0l0.2,0.6l-7.1,5.7l-0.3,0.2l-0.2,-0.2l-6.8,-5.4l0.4,-0.6l-0.3,0.7l-26.4,0l0,-0.1l-6.6,-5.3Z" class="g2_2053" />
<path d="M310.6,666l25.9,0l0.3,0.6l-0.1,0.1l-26.1,0Z" class="g2_2053" />
<path d="M342.8,661l0.3,-0.2l0.5,0.6l-0.3,0.2Z" class="g2_2053" />
<path d="M336.3,666l0.5,0.6l6.5,-5L342.8,661Z" class="g2_2053" />
<path d="M347.1,661.1l-0.2,-0.2l-0.5,0.6l0.3,0.1Z" class="g2_2053" />
<path d="M347.1,661.1l6.7,5.2l-0.2,0.7l0,-0.8l26.5,0l0,0.1l6.8,5.4l0,0.6l-0.4,-0.6l7.1,-5.7l0.1,0l0.1,0l0.3,0.6l-7.2,5.7l-0.2,0.2l-0.2,-0.2l-6.8,-5.4l0.4,-0.6l-0.2,0.7l-26.4,0l-0.1,-0.1l-6.7,-5.3Z" class="g2_2053" />
<path d="M393.8,666l26,0l0.3,0.6l-0.1,0.1l-26.2,0Z" class="g2_2053" />
<path d="M426.1,661l0.2,-0.2l0.5,0.6l-0.3,0.2Z" class="g2_2053" />
<path d="M419.6,666l0.5,0.6l6.4,-5L426.1,661Z" class="g2_2053" />
<path d="M554.2,661.1l-0.3,-0.2l-0.4,0.6l0.3,0.1Z" class="g2_2053" />
<path d="M554.2,661.1l6.6,5.2l-0.3,0.7l0,-0.8l26.5,0l0.1,0.1l6.8,5.4l0,0.6l-0.4,-0.6l7.2,-5.7l0.1,0l0.1,0l0.3,0.6l-7.3,5.7l-0.3,0.2l-0.1,-0.2l-6.8,-5.4l0.4,-0.6l-0.3,0.7l-26.4,0l0,-0.1l-6.6,-5.3Z" class="g2_2053" />
<path d="M600.9,666l25.9,0l0.3,0.6l-0.1,0.1l-26.1,0Z" class="g2_2053" />
<path d="M633,661l0.3,-0.2l0.5,0.6l-0.3,0.2Z" class="g2_2053" />
<path d="M626.6,666l0.5,0.6l6.4,-5L633.1,661Z" class="g2_2053" />
<path d="M419.4,549.2L419.1,549l-0.5,0.6l0.3,0.2Z" class="g2_2053" />
<path d="M419.4,549.2l8.6,6.1l-0.3,0.7l-0.2,0l-8.6,-6.2Z" class="g2_2053" />
<path d="M427.7,555.2l96.9,0l0.1,0.1l-0.3,0.7l-96.7,0Z" class="g2_2053" />
<path d="M532.9,561.3l0.3,0.2l-0.4,0.5l-0.3,-0.2Z" class="g2_2053" />
<path d="M524.7,555.3l-0.5,0.6l8.3,5.9l0.4,-0.5Z" class="g2_2053" />
<path d="M647,550.1l0.3,-0.2l-0.5,-0.6l-0.3,0.1Z" class="g2_2053" />
<path d="M647,550.1l-8.6,6.1l-0.3,0l-0.2,-0.6l8.6,-6.2Z" class="g2_2053" />
<path d="M638.1,556.2l-96.7,0l-0.2,-0.6l0.1,-0.1l96.8,0Z" class="g2_2053" />
<path d="M533.4,562.1l-0.3,0.2l-0.4,-0.6l0.3,-0.1Z" class="g2_2053" />
<path d="M541.7,556.1l-0.5,-0.5l-8.3,6l0.5,0.5Z" class="g2_2053" />
<path d="M303.5,696.1l-0.3,-0.2l-0.4,0.6l0.3,0.2Z" class="g2_2053" />
<path d="M303.5,696.1l6.6,5.2l-0.3,0.7l0,-0.7l26.6,0l0.1,0l6.8,5.5l0,0.5l-0.5,-0.5l7.2,-5.7l0.1,-0.1l0.1,0l0.2,0.6l-7.1,5.7l-0.3,0.2l-0.2,-0.2l-6.7,-5.4l0.4,-0.6l-0.3,0.7l-26.5,0l0,-0.1l-6.6,-5.2Z" class="g2_2053" />
<path d="M350.2,701l25.9,0l0.3,0.6l-0.1,0.1l-26.1,0Z" class="g2_2053" />
<path d="M382.4,695.9l0.3,-0.2l0.5,0.6l-0.3,0.2Z" class="g2_2053" />
<path d="M375.9,701.1l0.5,0.5l6.5,-5.1l-0.5,-0.6Z" class="g2_2053" />
<path d="M230.4,545.4l88.3,0l0,-20.8l-88.3,0l0,20.8Z" class="g1_2053" />
<path d="M230.4,525l88.7,0l0,-0.8l-88.7,0l0,0.8Z" class="g2_2053" />
<path d="M318.4,545.8l0.7,0l0,-21.2l-0.7,0l0,21.2Z" class="g2_2053" />
<path d="M230,545.8l88.7,0l0,-0.7l-88.7,0l0,0.7Z" class="g2_2053" />
<path d="M230,545.4l0.7,0l0,-21.2l-0.7,0l0,21.2Z" class="g2_2053" />
<path d="M318.3,545.4l92.1,0l0,-20.5l-92.1,0l0,20.5Z" class="g1_2053" />
<path d="M318.3,525.2l92.5,0l0,-0.7l-92.5,0l0,0.7Z" class="g2_2053" />
<path d="M410,545.8l0.8,0l0,-20.9l-0.8,0l0,20.9Z" class="g2_2053" />
<path d="M317.9,545.8l92.5,0l0,-0.7l-92.5,0l0,0.7Z" class="g2_2053" />
<path d="M317.9,545.4l0.7,0l0,-20.9l-0.7,0l0,20.9Z" class="g2_2053" />
<path d="M575.4,546.2l82.5,0l0,-21.5l-82.5,0l0,21.5Z" class="g1_2053" />
<path d="M575.4,525.1l82.9,0l0,-0.8l-82.9,0l0,0.8Z" class="g2_2053" />
<path d="M657.5,546.5l0.8,0l0,-21.8l-0.8,0l0,21.8Z" class="g2_2053" />
<path d="M575,546.5l82.9,0l0,-0.7l-82.9,0l0,0.7Z" class="g2_2053" />
<path d="M575,546.2l0.8,0l0,-21.9l-0.8,0l0,21.9Z" class="g2_2053" />
<path d="M324.4,585.9l73.3,0l0,-35.8l-73.3,0l0,35.8Z" class="g1_2053" />
<path d="M658.3,533.6l0.3,0l0,-0.7l-0.3,0l0,0.7Z" class="g2_2053" />
<path d="M658.6,533.6l50.1,0l0,-0.7l-50.1,0l0,0.7Z" class="g2_2053" />
<path d="M707.1,533.2l0.8,0l0,-0.3l-0.8,0l0,0.3Z" class="g2_2053" />
<path d="M707.1,612.4l0.8,0l0,-79.2l-0.8,0l0,79.2Z" class="g2_2053" />
<path d="M706.5,612.4l0.3,0l0,-0.7l-0.3,0l0,0.7Z" class="g2_2053" />
<path d="M207.7,612.4l498.8,0l0,-0.7l-498.8,0l0,0.7Z" class="g2_2053" />
<path d="M208.4,643.6l0.7,0l0,-0.4l-0.7,0l0,0.4Z" class="g2_2053" />
<path d="M208.4,643.2l0.7,0l0,-31.2l-0.7,0l0,31.2Z" class="g2_2053" />
<path d="M219.9,643.2l0,-5l1,0.3l16.7,4.7L220.9,648l-1,0.3l0,-1l0.6,-0.8l14.1,-4L235,644l-0.4,0l-14.1,-4.1l0.4,-1.4l0.6,0.7l0,4Z" class="g2_2053" />
<path d="M219.9,647.3l1.6,0l0,-4.1l-1.6,0l0,4.1Z" class="g2_2053" />
<path fill-rule="evenodd" d="M220.6,643.2l0,-4l14.2,4l-14.2,4.1Z" class="g2_2053" />
<path d="M208.2,643.6l0.3,0l0,-0.7l-0.3,0l0,0.7Z" class="g2_2053" />
<path d="M208.5,643.6l11.8,0l0,-0.7l-11.8,0l0,0.7Z" class="g2_2053" />
</svg>