<?xml version="1.0" encoding="UTF-8" standalone="no"?>
<!DOCTYPE svg PUBLIC "-//W3C//DTD SVG 1.1//EN"
"http://www.w3.org/Graphics/SVG/1.1/DTD/svg11.dtd">
<svg viewBox="0 0 935 1210" version="1.1" xmlns="http://www.w3.org/2000/svg" xmlns:xlink="http://www.w3.org/1999/xlink">
<defs>
<style type="text/css"><![CDATA[
.g1_530{
fill: #FFFFFF;
}
.g2_530{
}
]]></style>
</defs>
<path d="M165,1149.3l687.5,0l0,-21.2l-687.5,0l0,21.2Z" class="g1_530" />
<path d="M68.8,1149.3l82.5,0l0,-21.2l-82.5,0l0,21.2Z" class="g1_530" />
<path d="M247.2,292.6l113.5,0l0,-20.6l-113.5,0l0,20.6Z" class="g1_530" />
<path d="M247.2,272.3l113.9,0l0,-0.7l-113.9,0l0,0.7Z" class="g2_530" />
<path d="M360.3,293l0.8,0l0,-21l-0.8,0l0,21Z" class="g2_530" />
<path d="M246.9,293l113.8,0l0,-0.8l-113.8,0l0,0.8Z" class="g2_530" />
<path d="M246.9,292.6l0.7,0l0,-21l-0.7,0l0,21Z" class="g2_530" />
<path d="M360.7,292.6l113.4,0l0,-20.6l-113.4,0l0,20.6Z" class="g1_530" />
<path d="M360.7,272.3l113.8,0l0,-0.7l-113.8,0l0,0.7Z" class="g2_530" />
<path d="M473.7,293l0.8,0l0,-21l-0.8,0l0,21Z" class="g2_530" />
<path d="M360.3,293l113.8,0l0,-0.8l-113.8,0l0,0.8Z" class="g2_530" />
<path d="M360.3,292.6l0.8,0l0,-21l-0.8,0l0,21Z" class="g2_530" />
<path d="M474.1,292.6l113.5,0l0,-20.6l-113.5,0l0,20.6Z" class="g1_530" />
<path d="M474.1,272.3l113.8,0l0,-0.7l-113.8,0l0,0.7Z" class="g2_530" />
<path d="M587.2,293l0.7,0l0,-21l-0.7,0l0,21Z" class="g2_530" />
<path d="M473.7,293l113.9,0l0,-0.8l-113.9,0l0,0.8Z" class="g2_530" />
<path d="M473.7,292.6l0.8,0l0,-21l-0.8,0l0,21Z" class="g2_530" />
<path d="M587.6,292.6l113.4,0L701,272l-113.4,0l0,20.6Z" class="g1_530" />
<path d="M587.6,272.3l113.7,0l0,-0.7l-113.7,0l0,0.7Z" class="g2_530" />
<path d="M700.6,293l0.7,0l0,-21l-0.7,0l0,21Z" class="g2_530" />
<path d="M587.2,293L701,293l0,-0.8l-113.8,0l0,0.8Z" class="g2_530" />
<path d="M587.2,292.6l0.7,0l0,-21l-0.7,0l0,21Z" class="g2_530" />
<path d="M247.2,189.5l113.5,0l0,-20.6l-113.5,0l0,20.6Z" class="g1_530" />
<path d="M247.2,169.2l113.9,0l0,-0.7l-113.9,0l0,0.7Z" class="g2_530" />
<path d="M360.3,189.8l0.8,0l0,-20.9l-0.8,0l0,20.9Z" class="g2_530" />
<path d="M246.9,189.8l113.8,0l0,-0.7l-113.8,0l0,0.7Z" class="g2_530" />
<path d="M246.9,189.5l0.7,0l0,-21l-0.7,0l0,21Z" class="g2_530" />
<path d="M360.7,189.5l113.4,0l0,-20.6l-113.4,0l0,20.6Z" class="g1_530" />
<path d="M360.7,169.2l113.8,0l0,-0.7l-113.8,0l0,0.7Z" class="g2_530" />
<path d="M473.7,189.8l0.8,0l0,-20.9l-0.8,0l0,20.9Z" class="g2_530" />
<path d="M360.3,189.8l113.8,0l0,-0.7l-113.8,0l0,0.7Z" class="g2_530" />
<path d="M360.3,189.5l0.8,0l0,-21l-0.8,0l0,21Z" class="g2_530" />
<path fill-rule="evenodd" d="M402.4,257.3l0.2,-0.3l0.1,-0.2c0.2,-1.6,-1.4,-2.4,-2.6,-1.5l-0.2,0.2l-0.1,0.2c-0.7,1.7,1.2,2.8,2.2,2l0.2,-0.2l0.2,-0.2Z" class="g2_530" />
<path d="M401.2,256.4l3.9,-5.3l0.6,-0.8l0.6,0.8l14.6,18.8l1.7,2.1l-2.5,-0.9l-22.4,-8.2l-1,-0.4l0.7,-0.8l0.8,-0.3l22.4,8.2l-0.5,1.5l-0.4,-0.3L405.1,252l1.2,-0.9l0,0.9l-3.9,5.3Z" class="g2_530" />
<path d="M397.4,261.7l3.8,-5.3l1.2,0.9l-3.8,5.3Z" class="g2_530" />
<path fill-rule="evenodd" d="M401.8,256.8l3.8,-5.3l14.7,18.8l-22.4,-8.1Z" class="g2_530" />
<path d="M310,188.3l-1.7,2.5l92.1,66.9l1.7,-2.5Z" class="g2_530" />
<path d="M474.1,189.5l113.5,0l0,-20.6l-113.5,0l0,20.6Z" class="g1_530" />
<path d="M474.1,169.2l113.8,0l0,-0.7l-113.8,0l0,0.7Z" class="g2_530" />
<path d="M587.2,189.8l0.7,0l0,-20.9l-0.7,0l0,20.9Z" class="g2_530" />
<path d="M473.7,189.8l113.9,0l0,-0.7l-113.9,0l0,0.7Z" class="g2_530" />
<path d="M473.7,189.5l0.8,0l0,-21l-0.8,0l0,21Z" class="g2_530" />
<path d="M587.6,189.5l113.4,0l0,-20.6l-113.4,0l0,20.6Z" class="g1_530" />
<path d="M587.6,169.2l113.7,0l0,-0.7l-113.7,0l0,0.7Z" class="g2_530" />
<path d="M700.6,189.8l0.7,0l0,-20.9l-0.7,0l0,20.9Z" class="g2_530" />
<path d="M587.2,189.8l113.8,0l0,-0.7l-113.8,0l0,0.7Z" class="g2_530" />
<path d="M587.2,189.5l0.7,0l0,-21l-0.7,0l0,21Z" class="g2_530" />
<path fill-rule="evenodd" d="M649.5,247l0.2,0l0.3,0c1.4,-0.7,1.3,-2.6,-0.3,-3l-0.5,0l-0.4,0.1l-0.2,0.2l-0.2,0.2l-0.2,0.2l-0.1,0.2l-0.1,0.3l-0.1,0.3c0.2,0.6,0.1,1,0.7,1.3l0.2,0.2l0.4,0l0.3,0Z" class="g2_530" />
<path d="M649.5,245.6l7.6,0l-0.3,1l-6.6,22.9l-0.7,2.6l-0.8,-2.6l-6.6,-22.9l-0.3,-1l1.1,0l0.7,0.5l6.6,22.9l-1.5,0.5l0,-0.5l6.6,-22.9l1.5,0.5l-0.7,0.5l-6.6,0Z" class="g2_530" />
<path d="M642.9,247.1l6.6,0l0,-1.5l-6.6,0l0,1.5Z" class="g2_530" />
<path fill-rule="evenodd" d="M649.5,246.3l6.6,0l-6.6,22.9l-6.6,-22.9Z" class="g2_530" />
<path d="M648,245.5l3,0l0,-56l-3,0l0,56Z" class="g2_530" />
<path d="M309.1,232.3l113.5,0l0,-3l-113.5,0l0,3Z" class="g2_530" />
<path d="M536,232.3l113.5,0l0,-3l-113.5,0l0,3Z" class="g2_530" />
<path d="M247.2,235.9l113.5,0l0,-20.7l-113.5,0l0,20.7Z" class="g1_530" />
<path d="M247.2,215.6l113.9,0l0,-0.7l-113.9,0l0,0.7Z" class="g2_530" />
<path d="M360.3,236.2l0.8,0l0,-21l-0.8,0l0,21Z" class="g2_530" />
<path d="M246.9,236.2l113.8,0l0,-0.7l-113.8,0l0,0.7Z" class="g2_530" />
<path d="M246.9,235.9l0.7,0l0,-21l-0.7,0l0,21Z" class="g2_530" />
<path d="M360.7,235.9l113.4,0l0,-20.7l-113.4,0l0,20.7Z" class="g1_530" />
<path d="M360.7,215.6l113.8,0l0,-0.7l-113.8,0l0,0.7Z" class="g2_530" />
<path d="M473.7,236.2l0.8,0l0,-21l-0.8,0l0,21Z" class="g2_530" />
<path d="M360.3,236.2l113.8,0l0,-0.7l-113.8,0l0,0.7Z" class="g2_530" />
<path d="M360.3,235.9l0.8,0l0,-21l-0.8,0l0,21Z" class="g2_530" />
<path d="M474.1,235.9l113.5,0l0,-20.7l-113.5,0l0,20.7Z" class="g1_530" />
<path d="M474.1,215.6l113.8,0l0,-0.7l-113.8,0l0,0.7Z" class="g2_530" />
<path d="M587.2,236.2l0.7,0l0,-21l-0.7,0l0,21Z" class="g2_530" />
<path d="M473.7,236.2l113.9,0l0,-0.7l-113.9,0l0,0.7Z" class="g2_530" />
<path d="M473.7,235.9l0.8,0l0,-21l-0.8,0l0,21Z" class="g2_530" />
<path d="M587.6,235.9l113.4,0l0,-20.7l-113.4,0l0,20.7Z" class="g1_530" />
<path d="M587.6,215.6l113.7,0l0,-0.7l-113.7,0l0,0.7Z" class="g2_530" />
<path d="M700.6,236.2l0.7,0l0,-21l-0.7,0l0,21Z" class="g2_530" />
<path d="M587.2,236.2l113.8,0l0,-0.7l-113.8,0l0,0.7Z" class="g2_530" />
<path d="M587.2,235.9l0.7,0l0,-21l-0.7,0l0,21Z" class="g2_530" />
<path fill-rule="evenodd" d="M629,257.8l0.2,-0.6c0.5,-1.4,-1.4,-2.5,-2.5,-1.5l-0.2,0.3l-0.1,0.3c-0.7,1.4,1.2,2.7,2.2,1.8l0.2,-0.2l0.2,-0.1Z" class="g2_530" />
<path d="M627.7,256.8l3.8,-5.4l0.6,-0.8l0.7,0.8l15,18.6l1.7,2.1l-2.5,-1l-22.6,-7.6l-1,-0.4l0.6,-0.8l0.9,-0.3l22.5,7.7l-0.4,1.4l-0.4,-0.2l-15,-18.5l1.2,-1l0,1l-3.8,5.4Z" class="g2_530" />
<path d="M624,262.3l3.7,-5.5l1.3,1l-3.7,5.4Z" class="g2_530" />
<path fill-rule="evenodd" d="M628.4,257.3l3.7,-5.4l15.1,18.5l-22.6,-7.7Z" class="g2_530" />
<path d="M531.8,188.3l-1.8,2.5l96.9,67.3l1.7,-2.4Z" class="g2_530" />
<path fill-rule="evenodd" d="M422.6,247l0.3,0l0.2,0l0.6,-0.4l0.2,-0.2l0.1,-0.6l0,-0.6c-0.2,-0.8,-0.1,-0.5,-0.9,-1.1L422.9,244l-0.7,0c-1.4,0.5,-1.7,2.2,-0.3,3l0.3,0l0.4,0Z" class="g2_530" />
<path d="M422.6,245.6l7.5,0l-0.3,1l-6.5,22.9l-0.7,2.6l-0.8,-2.6l-6.5,-22.9l-0.3,-1l1,0l0.7,0.5l6.6,22.9l-1.5,0.5l0,-0.5l6.6,-22.9l1.4,0.5l-0.7,0.5l-6.5,0Z" class="g2_530" />
<path d="M416,247.1l6.6,0l0,-1.5l-6.6,0l0,1.5Z" class="g2_530" />
<path fill-rule="evenodd" d="M422.6,246.3l6.5,0l-6.5,22.9L416,246.3Z" class="g2_530" />
<path d="M421.1,245.5l3,0l0,-56l-3,0l0,56Z" class="g2_530" />
<path fill-rule="evenodd" d="M304,247l0.2,0l0.3,0c1.4,-0.7,1.3,-2.6,-0.3,-3l-0.5,0l-0.4,0.1l-0.2,0.2l-0.2,0.2l-0.2,0.2l-0.1,0.2l-0.1,0.3l-0.1,0.3c0.2,0.6,0.1,1,0.7,1.3l0.2,0.2l0.4,0l0.3,0Z" class="g2_530" />
<path d="M304,245.6l7.6,0l-0.3,1l-6.6,22.9l-0.7,2.6l-0.8,-2.6l-6.6,-22.9l-0.2,-1l1,0l0.7,0.5l6.6,22.9l-1.5,0.5l0,-0.5l6.6,-22.9l1.5,0.5l-0.7,0.5l-6.6,0Z" class="g2_530" />
<path d="M297.4,247.1l6.6,0l0,-1.5l-6.6,0l0,1.5Z" class="g2_530" />
<path fill-rule="evenodd" d="M304,246.3l6.6,0L304,269.2l-6.6,-22.9Z" class="g2_530" />
<path d="M302.5,245.5l3,0l0,-9.6l-3,0l0,9.6Z" class="g2_530" />
<path fill-rule="evenodd" d="M530.8,247l0.3,0l0.4,0l0.2,-0.2l0.2,-0.2l0.2,-0.2l0.2,-0.6l0.1,-0.3l-0.1,-0.3l-0.1,-0.3l-0.1,-0.2l-0.2,-0.2l-0.2,-0.2l-0.2,-0.2L531.1,244l-0.5,0c-1.6,0.4,-1.7,2.3,-0.3,3l0.3,0l0.2,0Z" class="g2_530" />
<path d="M530.8,245.6l7.7,0l-0.3,1l-6.6,22.9l-0.8,2.6l-0.7,-2.6l-6.6,-22.9l-0.3,-1l1,0l0.8,0.5l6.6,22.9l-1.5,0.5l0,-0.5l6.6,-22.9l1.5,0.5l-0.8,0.5l-6.6,0Z" class="g2_530" />
<path d="M524.2,247.1l6.6,0l0,-1.5l-6.6,0l0,1.5Z" class="g2_530" />
<path fill-rule="evenodd" d="M530.8,246.3l6.6,0l-6.6,22.9l-6.6,-22.9Z" class="g2_530" />
<path d="M529.4,245.5l3,0l0,-9.6l-3,0l0,9.6Z" class="g2_530" />
<path fill-rule="evenodd" d="M327.6,264.1l0.1,0.3l0.2,0.2c1,1,2.8,0.4,2.7,-1.1l-0.1,-0.4l-0.1,-0.3l-0.2,-0.2L330,262.3l-0.8,-0.2l-0.3,0l-0.4,0.1c-0.5,0.1,-0.8,0.5,-1,1l0,0.6l0.1,0.3Z" class="g2_530" />
<path d="M329.1,263.5l2,6.3l0.2,1l-0.9,0.1l-23.8,1L304,272l2.2,-1.6l19.6,-13.5l0.8,-0.5l0.4,0.9l-0.4,0.9L307,271.7l-0.8,-1.3l0.3,-0.1l23.8,-1l0.1,1.6l-0.9,-0.6l-2,-6.2Z" class="g2_530" />
<path d="M327,257.3l2.1,6.2l-1.6,0.6l-2.1,-6.2Z" class="g2_530" />
<path fill-rule="evenodd" d="M328.4,263.8l2,6.3l-23.8,1l19.6,-13.5Z" class="g2_530" />
<path d="M412.7,237.3l-0.9,-2.8l-83.2,27.8l0.9,2.8Z" class="g2_530" />
<path fill-rule="evenodd" d="M559.5,263.7l0.1,0.3l0.2,0.3l0.3,0.2l0.2,0.1l0.2,0.1l0.7,0l0.5,-0.2l0.3,-0.1l0.2,-0.3l0.2,-0.2l0.1,-0.3l0,-0.6l-0.2,-0.6c-0.8,-1.3,-2.9,-0.6,-2.9,0.7l0,0.4l0.1,0.2Z" class="g2_530" />
<path d="M561,263.2l2.1,6.2l0.2,1l-0.9,0.1l-23.8,1.4L536,272l2.2,-1.6l19.4,-13.7l0.8,-0.6l0.4,0.9l-0.3,1l-19.4,13.7l-0.9,-1.3l0.3,-0.1L562.3,269l0.1,1.5L561.6,270l-2.1,-6.3Z" class="g2_530" />
<path d="M558.8,257l2.2,6.2l-1.5,0.5l-2.3,-6.1Z" class="g2_530" />
<path fill-rule="evenodd" d="M560.3,263.5l2.1,6.2l-23.8,1.4l19.5,-13.8Z" class="g2_530" />
<path d="M639.6,237.3l-1,-2.8l-78.1,27.4l1.1,2.8Z" class="g2_530" />
</svg>