<?xml version="1.0" encoding="UTF-8" standalone="no"?>
<!DOCTYPE svg PUBLIC "-//W3C//DTD SVG 1.1//EN"
"http://www.w3.org/Graphics/SVG/1.1/DTD/svg11.dtd">
<svg viewBox="0 0 935 1210" version="1.1" xmlns="http://www.w3.org/2000/svg" xmlns:xlink="http://www.w3.org/1999/xlink">
<defs>
<style type="text/css"><![CDATA[
.g1_915{
fill: #FFFFFF;
}
.g2_915{
}
]]></style>
</defs>
<path d="M68.9,1149.3l686.3,0l0,-21.2l-686.3,0l0,21.2Z" class="g1_915" />
<path d="M771.3,1149.3l83.7,0l0,-21.2l-83.7,0l0,21.2Z" class="g1_915" />
<path d="M68.6,517.6l0.7,0l0,-391.9l-0.7,0l0,391.9Z" class="g2_915" />
<path d="M366.1,518.3l0.7,0l0,-393.4l-0.7,0l0,393.4Z" class="g2_915" />
<path d="M404,518.3l0.7,0l0,-393.4l-0.7,0l0,393.4Z" class="g2_915" />
<path d="M477.3,518.3l0.7,0l0,-393.4l-0.7,0l0,393.4Z" class="g2_915" />
<path d="M553.3,518.3l0.7,0l0,-393.4l-0.7,0l0,393.4Z" class="g2_915" />
<path d="M853.4,517.6l0.7,0l0,-391.9l-0.7,0l0,391.9Z" class="g2_915" />
<path d="M68.6,125.7l785.6,0l0,-0.8l-785.6,0l0,0.8Z" class="g2_915" />
<path d="M68.6,179.1l785.6,0l0,-0.7l-785.6,0l0,0.7Z" class="g2_915" />
<path d="M68.6,218.8l785.6,0l0,-0.7l-785.6,0l0,0.7Z" class="g2_915" />
<path d="M68.6,258.6l785.6,0l0,-0.7l-785.6,0l0,0.7Z" class="g2_915" />
<path d="M68.6,298.3l785.6,0l0,-0.7l-785.6,0l0,0.7Z" class="g2_915" />
<path d="M68.6,371.6l785.6,0l0,-0.7l-785.6,0l0,0.7Z" class="g2_915" />
<path d="M68.6,444.9l785.6,0l0,-0.7l-785.6,0l0,0.7Z" class="g2_915" />
<path d="M68.6,518.3l785.6,0l0,-0.7l-785.6,0l0,0.7Z" class="g2_915" />
<path d="M71.6,670.4l0.7,0l0,-97.1l-0.7,0l0,97.1Z" class="g2_915" />
<path d="M141.5,671.1l0.8,0l0,-98.5l-0.8,0l0,98.5Z" class="g2_915" />
<path d="M318.9,671.1l0.7,0l0,-98.5l-0.7,0l0,98.5Z" class="g2_915" />
<path d="M498.3,671.1l0.7,0l0,-98.5l-0.7,0l0,98.5Z" class="g2_915" />
<path d="M668.7,671.1l0.7,0l0,-98.5l-0.7,0l0,98.5Z" class="g2_915" />
<path d="M850.4,670.4l0.7,0l0,-97.1l-0.7,0l0,97.1Z" class="g2_915" />
<path d="M71.6,573.3l779.5,0l0,-0.7l-779.5,0l0,0.7Z" class="g2_915" />
<path d="M71.6,597.8l779.5,0l0,-0.8L71.6,597l0,0.8Z" class="g2_915" />
<path d="M71.6,622.2l779.5,0l0,-0.7l-779.5,0l0,0.7Z" class="g2_915" />
<path d="M71.6,646.6l779.5,0l0,-0.7l-779.5,0l0,0.7Z" class="g2_915" />
<path d="M71.6,671.1l779.5,0l0,-0.7l-779.5,0l0,0.7Z" class="g2_915" />
</svg>