<?xml version="1.0" encoding="UTF-8" standalone="no"?>
<!DOCTYPE svg PUBLIC "-//W3C//DTD SVG 1.1//EN"
"http://www.w3.org/Graphics/SVG/1.1/DTD/svg11.dtd">
<svg viewBox="0 0 935 1210" version="1.1" xmlns="http://www.w3.org/2000/svg" xmlns:xlink="http://www.w3.org/1999/xlink">
<defs>
<style type="text/css"><![CDATA[
.g1_2108{
fill: #FFFFFF;
}
.g2_2108{
}
]]></style>
</defs>
<path d="M68.8,1149.3l783.7,0l0,-21.2l-783.7,0l0,21.2Z" class="g1_2108" />
<path d="M68.6,1079.8l0.7,0l0,-955.7l-0.7,0l0,955.7Z" class="g2_2108" />
<path d="M397.6,1080.6l0.7,0l0,-957.2l-0.7,0l0,957.2Z" class="g2_2108" />
<path d="M849.9,1079.8l0.8,0l0,-955.7l-0.8,0l0,955.7Z" class="g2_2108" />
<path d="M68.6,124.1l782.1,0l0,-0.7l-782.1,0l0,0.7Z" class="g2_2108" />
<path d="M68.6,148.6l782.1,0l0,-0.7l-782.1,0l0,0.7Z" class="g2_2108" />
<path d="M68.6,188.3l782.1,0l0,-0.7l-782.1,0l0,0.7Z" class="g2_2108" />
<path d="M68.6,212.8l782.1,0l0,-0.8L68.6,212l0,0.8Z" class="g2_2108" />
<path d="M68.6,237.1l782.1,0l0,-0.7l-782.1,0l0,0.7Z" class="g2_2108" />
<path d="M68.6,276.9l782.1,0l0,-0.7l-782.1,0l0,0.7Z" class="g2_2108" />
<path d="M68.6,301.3l782.1,0l0,-0.7l-782.1,0l0,0.7Z" class="g2_2108" />
<path d="M68.6,325.8l782.1,0l0,-0.7l-782.1,0l0,0.7Z" class="g2_2108" />
<path d="M68.6,350.3l782.1,0l0,-0.8l-782.1,0l0,0.8Z" class="g2_2108" />
<path d="M68.6,374.6l782.1,0l0,-0.7l-782.1,0l0,0.7Z" class="g2_2108" />
<path d="M68.6,399.1l782.1,0l0,-0.7l-782.1,0l0,0.7Z" class="g2_2108" />
<path d="M68.6,438.9l782.1,0l0,-0.7l-782.1,0l0,0.7Z" class="g2_2108" />
<path d="M68.6,463.3l782.1,0l0,-0.8l-782.1,0l0,0.8Z" class="g2_2108" />
<path d="M68.6,487.8l782.1,0l0,-0.8L68.6,487l0,0.8Z" class="g2_2108" />
<path d="M68.6,512.2l782.1,0l0,-0.7l-782.1,0l0,0.7Z" class="g2_2108" />
<path d="M68.6,536.6l782.1,0l0,-0.7l-782.1,0l0,0.7Z" class="g2_2108" />
<path d="M68.6,576.4l782.1,0l0,-0.7l-782.1,0l0,0.7Z" class="g2_2108" />
<path d="M68.6,600.8l782.1,0l0,-0.7l-782.1,0l0,0.7Z" class="g2_2108" />
<path d="M68.6,625.3l782.1,0l0,-0.8l-782.1,0l0,0.8Z" class="g2_2108" />
<path d="M68.6,649.7l782.1,0l0,-0.7L68.6,649l0,0.7Z" class="g2_2108" />
<path d="M68.6,674.1l782.1,0l0,-0.7l-782.1,0l0,0.7Z" class="g2_2108" />
<path d="M68.6,698.6l782.1,0l0,-0.7l-782.1,0l0,0.7Z" class="g2_2108" />
<path d="M68.6,723.1l782.1,0l0,-0.8l-782.1,0l0,0.8Z" class="g2_2108" />
<path d="M68.6,747.4l782.1,0l0,-0.7l-782.1,0l0,0.7Z" class="g2_2108" />
<path d="M68.6,771.9l782.1,0l0,-0.7l-782.1,0l0,0.7Z" class="g2_2108" />
<path d="M68.6,811.6l782.1,0l0,-0.7l-782.1,0l0,0.7Z" class="g2_2108" />
<path d="M68.6,836.1l782.1,0l0,-0.7l-782.1,0l0,0.7Z" class="g2_2108" />
<path d="M68.6,860.6l782.1,0l0,-0.8l-782.1,0l0,0.8Z" class="g2_2108" />
<path d="M68.6,885l782.1,0l0,-0.8l-782.1,0l0,0.8Z" class="g2_2108" />
<path d="M68.6,909.4l782.1,0l0,-0.7l-782.1,0l0,0.7Z" class="g2_2108" />
<path d="M68.6,933.9l782.1,0l0,-0.7l-782.1,0l0,0.7Z" class="g2_2108" />
<path d="M68.6,958.3l782.1,0l0,-0.7l-782.1,0l0,0.7Z" class="g2_2108" />
<path d="M68.6,982.8l782.1,0l0,-0.8L68.6,982l0,0.8Z" class="g2_2108" />
<path d="M68.6,1007.2l782.1,0l0,-0.7l-782.1,0l0,0.7Z" class="g2_2108" />
<path d="M68.6,1031.6l782.1,0l0,-0.7l-782.1,0l0,0.7Z" class="g2_2108" />
<path d="M68.6,1056.1l782.1,0l0,-0.7l-782.1,0l0,0.7Z" class="g2_2108" />
<path d="M68.6,1080.6l782.1,0l0,-0.8l-782.1,0l0,0.8Z" class="g2_2108" />
</svg>