<?xml version="1.0" encoding="UTF-8" standalone="no"?>
<!DOCTYPE svg PUBLIC "-//W3C//DTD SVG 1.1//EN"
"http://www.w3.org/Graphics/SVG/1.1/DTD/svg11.dtd">
<svg viewBox="0 0 935 1210" version="1.1" xmlns="http://www.w3.org/2000/svg" xmlns:xlink="http://www.w3.org/1999/xlink">
<defs>
<style type="text/css"><![CDATA[
.g1_1002{
fill: #FFFFFF;
}
.g2_1002{
}
]]></style>
</defs>
<path d="M165,1149.3l687.5,0l0,-21.2l-687.5,0l0,21.2Z" class="g1_1002" />
<path d="M68.8,1149.3l82.5,0l0,-21.2l-82.5,0l0,21.2Z" class="g1_1002" />
<path d="M68.6,1087.4l0.7,0l0,-961.7l-0.7,0l0,961.7Z" class="g2_1002" />
<path d="M323.2,1088.2l0.7,0l0,-963.3l-0.7,0l0,963.3Z" class="g2_1002" />
<path d="M371.6,1088.2l0.8,0l0,-963.3l-0.8,0l0,963.3Z" class="g2_1002" />
<path d="M444.9,1088.2l0.8,0l0,-963.3l-0.8,0l0,963.3Z" class="g2_1002" />
<path d="M532.8,1088.2l0.7,0l0,-963.3l-0.7,0l0,963.3Z" class="g2_1002" />
<path d="M853.1,1087.4l0.8,0l0,-961.7l-0.8,0l0,961.7Z" class="g2_1002" />
<path d="M68.6,125.7l785.3,0l0,-0.8l-785.3,0l0,0.8Z" class="g2_1002" />
<path d="M68.6,176.1l785.3,0l0,-0.7l-785.3,0l0,0.7Z" class="g2_1002" />
<path d="M68.6,229.5l785.3,0l0,-0.7l-785.3,0l0,0.7Z" class="g2_1002" />
<path d="M68.6,283l785.3,0l0,-0.8l-785.3,0l0,0.8Z" class="g2_1002" />
<path d="M68.6,336.5l785.3,0l0,-0.7l-785.3,0l0,0.7Z" class="g2_1002" />
<path d="M68.6,389.9l785.3,0l0,-0.7l-785.3,0l0,0.7Z" class="g2_1002" />
<path d="M68.6,443.5l785.3,0l0,-0.8l-785.3,0l0,0.8Z" class="g2_1002" />
<path d="M68.6,496.9l785.3,0l0,-0.7l-785.3,0l0,0.7Z" class="g2_1002" />
<path d="M68.6,550.4l785.3,0l0,-0.8l-785.3,0l0,0.8Z" class="g2_1002" />
<path d="M68.6,603.9l785.3,0l0,-0.7l-785.3,0l0,0.7Z" class="g2_1002" />
<path d="M68.6,657.3l785.3,0l0,-0.7l-785.3,0l0,0.7Z" class="g2_1002" />
<path d="M68.6,710.8l785.3,0l0,-0.8L68.6,710l0,0.8Z" class="g2_1002" />
<path d="M68.6,764.3l785.3,0l0,-0.7l-785.3,0l0,0.7Z" class="g2_1002" />
<path d="M68.6,817.8l785.3,0l0,-0.8L68.6,817l0,0.8Z" class="g2_1002" />
<path d="M68.6,854.4l785.3,0l0,-0.7l-785.3,0l0,0.7Z" class="g2_1002" />
<path d="M68.6,907.9l785.3,0l0,-0.8l-785.3,0l0,0.8Z" class="g2_1002" />
<path d="M68.6,961.4l785.3,0l0,-0.7l-785.3,0l0,0.7Z" class="g2_1002" />
<path d="M68.6,998.1l785.3,0l0,-0.8l-785.3,0l0,0.8Z" class="g2_1002" />
<path d="M68.6,1051.5l785.3,0l0,-0.7l-785.3,0l0,0.7Z" class="g2_1002" />
<path d="M68.6,1088.2l785.3,0l0,-0.8l-785.3,0l0,0.8Z" class="g2_1002" />
</svg>