<?xml version="1.0" encoding="UTF-8" standalone="no"?>
<!DOCTYPE svg PUBLIC "-//W3C//DTD SVG 1.1//EN"
"http://www.w3.org/Graphics/SVG/1.1/DTD/svg11.dtd">
<svg viewBox="0 0 935 1210" version="1.1" xmlns="http://www.w3.org/2000/svg" xmlns:xlink="http://www.w3.org/1999/xlink">
<defs>
<style type="text/css"><![CDATA[
.g1_1975{
fill: #FFFFFF;
}
.g2_1975{
}
]]></style>
</defs>
<path d="M68.9,1149.3l686.3,0l0,-21.2l-686.3,0l0,21.2Z" class="g1_1975" />
<path d="M771.3,1149.3l83.7,0l0,-21.2l-83.7,0l0,21.2Z" class="g1_1975" />
<path d="M70.3,993l0,-0.7Z" class="g2_1975" />
<path d="M70.3,993l220.4,0l0,-0.7l-220.4,0l0,0.7Z" class="g2_1975" />
<path d="M70.9,276.2l0.7,0l0,-150.5l-0.7,0l0,150.5Z" class="g2_1975" />
<path d="M220.5,276.9l0.7,0l0,-152l-0.7,0l0,152Z" class="g2_1975" />
<path d="M390.2,276.9l0.8,0l0,-152l-0.8,0l0,152Z" class="g2_1975" />
<path d="M428,276.9l0.7,0l0,-152l-0.7,0l0,152Z" class="g2_1975" />
<path d="M501.4,276.9l0.7,0l0,-152l-0.7,0l0,152Z" class="g2_1975" />
<path d="M572.8,276.9l0.8,0l0,-152l-0.8,0l0,152Z" class="g2_1975" />
<path d="M851.1,276.2l0.8,0l0,-150.5l-0.8,0l0,150.5Z" class="g2_1975" />
<path d="M70.9,125.7l781,0l0,-0.8l-781,0l0,0.8Z" class="g2_1975" />
<path d="M70.9,163.8l781,0l0,-0.7l-781,0l0,0.7Z" class="g2_1975" />
<path d="M70.9,220.4l781,0l0,-0.8l-781,0l0,0.8Z" class="g2_1975" />
<path d="M70.9,276.9l781,0l0,-0.7l-781,0l0,0.7Z" class="g2_1975" />
<path d="M71.6,380.1l0.7,0l0,-48.2l-0.7,0l0,48.2Z" class="g2_1975" />
<path d="M147.6,380.8l0.7,0l0,-49.6l-0.7,0l0,49.6Z" class="g2_1975" />
<path d="M327.4,380.8l0.8,0l0,-49.6l-0.8,0l0,49.6Z" class="g2_1975" />
<path d="M498.9,380.8l0.8,0l0,-49.6l-0.8,0l0,49.6Z" class="g2_1975" />
<path d="M674.4,380.8l0.7,0l0,-49.6l-0.7,0l0,49.6Z" class="g2_1975" />
<path d="M850.4,380.1l0.7,0l0,-48.2l-0.7,0l0,48.2Z" class="g2_1975" />
<path d="M71.6,331.9l779.5,0l0,-0.7l-779.5,0l0,0.7Z" class="g2_1975" />
<path d="M71.6,356.3l779.5,0l0,-0.7l-779.5,0l0,0.7Z" class="g2_1975" />
<path d="M71.6,380.8l779.5,0l0,-0.8L71.6,380l0,0.8Z" class="g2_1975" />
</svg>