<?xml version="1.0" encoding="UTF-8" standalone="no"?>
<!DOCTYPE svg PUBLIC "-//W3C//DTD SVG 1.1//EN"
"http://www.w3.org/Graphics/SVG/1.1/DTD/svg11.dtd">
<svg viewBox="0 0 935 1210" version="1.1" xmlns="http://www.w3.org/2000/svg" xmlns:xlink="http://www.w3.org/1999/xlink">
<defs>
<style type="text/css"><![CDATA[
.g1_1607{
fill: #FFFFFF;
}
.g2_1607{
}
]]></style>
</defs>
<path d="M68.9,1149.3l686.3,0l0,-21.2l-686.3,0l0,21.2Z" class="g1_1607" />
<path d="M771.3,1149.3l83.7,0l0,-21.2l-83.7,0l0,21.2Z" class="g1_1607" />
<path d="M69.9,509.9l0.8,0l0,-384.2l-0.8,0l0,384.2Z" class="g2_1607" />
<path d="M318,510.7l0.7,0l0,-385.8l-0.7,0l0,385.8Z" class="g2_1607" />
<path d="M366.3,510.7l0.7,0l0,-385.8l-0.7,0l0,385.8Z" class="g2_1607" />
<path d="M420.2,510.7l0.7,0l0,-385.8l-0.7,0l0,385.8Z" class="g2_1607" />
<path d="M487.8,510.7l0.7,0l0,-385.8l-0.7,0l0,385.8Z" class="g2_1607" />
<path d="M852.9,509.9l0.7,0l0,-384.2l-0.7,0l0,384.2Z" class="g2_1607" />
<path d="M69.9,125.7l783.7,0l0,-0.8l-783.7,0l0,0.8Z" class="g2_1607" />
<path d="M69.9,179.1l783.7,0l0,-0.7l-783.7,0l0,0.7Z" class="g2_1607" />
<path d="M69.9,266.2l783.7,0l0,-0.7l-783.7,0l0,0.7Z" class="g2_1607" />
<path d="M69.9,353.3l783.7,0l0,-0.7l-783.7,0l0,0.7Z" class="g2_1607" />
<path d="M69.9,440.4l783.7,0l0,-0.8l-783.7,0l0,0.8Z" class="g2_1607" />
<path d="M69.9,510.7l783.7,0l0,-0.8l-783.7,0l0,0.8Z" class="g2_1607" />
<path d="M69.3,630.6l0.7,0l0,-64.9l-0.7,0l0,64.9Z" class="g2_1607" />
<path d="M138.4,631.4l0.8,0l0,-66.5l-0.8,0l0,66.5Z" class="g2_1607" />
<path d="M316,631.4l0.7,0l0,-66.5l-0.7,0l0,66.5Z" class="g2_1607" />
<path d="M497.8,631.4l0.8,0l0,-66.5l-0.8,0l0,66.5Z" class="g2_1607" />
<path d="M671,631.4l0.7,0l0,-66.5l-0.7,0l0,66.5Z" class="g2_1607" />
<path d="M852.7,630.6l0.7,0l0,-64.9l-0.7,0l0,64.9Z" class="g2_1607" />
<path d="M69.3,565.7l784.1,0l0,-0.8l-784.1,0l0,0.8Z" class="g2_1607" />
<path d="M69.3,590.2l784.1,0l0,-0.8l-784.1,0l0,0.8Z" class="g2_1607" />
<path d="M69.3,631.4l784.1,0l0,-0.7l-784.1,0l0,0.7Z" class="g2_1607" />
</svg>