<?xml version="1.0" encoding="UTF-8" standalone="no"?>
<!DOCTYPE svg PUBLIC "-//W3C//DTD SVG 1.1//EN"
"http://www.w3.org/Graphics/SVG/1.1/DTD/svg11.dtd">
<svg viewBox="0 0 935 1210" version="1.1" xmlns="http://www.w3.org/2000/svg" xmlns:xlink="http://www.w3.org/1999/xlink">
<defs>
<style type="text/css"><![CDATA[
.g1_393{
fill: #FFFFFF;
}
.g2_393{
}
]]></style>
</defs>
<path d="M68.9,1149.3l686.3,0l0,-21.2l-686.3,0l0,21.2Z" class="g1_393" />
<path d="M771.3,1149.3l83.7,0l0,-21.2l-83.7,0l0,21.2Z" class="g1_393" />
<path d="M69.9,546.6l0.8,0l0,-420.9l-0.8,0l0,420.9Z" class="g2_393" />
<path d="M327.7,547.3l0.7,0l0,-422.4l-0.7,0l0,422.4Z" class="g2_393" />
<path d="M373.1,547.3l0.7,0l0,-422.4l-0.7,0l0,422.4Z" class="g2_393" />
<path d="M447.5,547.3l0.7,0l0,-422.4l-0.7,0l0,422.4Z" class="g2_393" />
<path d="M531.6,547.3l0.7,0l0,-422.4l-0.7,0l0,422.4Z" class="g2_393" />
<path d="M854.9,546.6l0.7,0l0,-420.9l-0.7,0l0,420.9Z" class="g2_393" />
<path d="M69.9,125.7l785.7,0l0,-0.8l-785.7,0l0,0.8Z" class="g2_393" />
<path d="M69.9,176.1l785.7,0l0,-0.7l-785.7,0l0,0.7Z" class="g2_393" />
<path d="M69.9,229.5l785.7,0l0,-0.7l-785.7,0l0,0.7Z" class="g2_393" />
<path d="M69.9,283l785.7,0l0,-0.8l-785.7,0l0,0.8Z" class="g2_393" />
<path d="M69.9,336.5l785.7,0l0,-0.7l-785.7,0l0,0.7Z" class="g2_393" />
<path d="M69.9,406.8l785.7,0l0,-0.7l-785.7,0l0,0.7Z" class="g2_393" />
<path d="M69.9,477l785.7,0l0,-0.7l-785.7,0l0,0.7Z" class="g2_393" />
<path d="M69.9,547.3l785.7,0l0,-0.7l-785.7,0l0,0.7Z" class="g2_393" />
<path d="M70.9,699.3l0.8,0l0,-97l-0.8,0l0,97Z" class="g2_393" />
<path d="M165.9,700.2l0.8,0l0,-98.6l-0.8,0l0,98.6Z" class="g2_393" />
<path d="M335.2,700.2l0.8,0l0,-98.6l-0.8,0l0,98.6Z" class="g2_393" />
<path d="M509.6,700.2l0.7,0l0,-98.6l-0.7,0l0,98.6Z" class="g2_393" />
<path d="M679.4,700.2l0.8,0l0,-98.6l-0.8,0l0,98.6Z" class="g2_393" />
<path d="M851,699.3l0.8,0l0,-97l-0.8,0l0,97Z" class="g2_393" />
<path d="M70.9,602.3l780.9,0l0,-0.7l-780.9,0l0,0.7Z" class="g2_393" />
<path d="M70.9,626.8l780.9,0l0,-0.7l-780.9,0l0,0.7Z" class="g2_393" />
<path d="M70.9,651.2l780.9,0l0,-0.7l-780.9,0l0,0.7Z" class="g2_393" />
<path d="M70.9,675.7l780.9,0l0,-0.8l-780.9,0l0,0.8Z" class="g2_393" />
<path d="M70.9,700.2l780.9,0l0,-0.8l-780.9,0l0,0.8Z" class="g2_393" />
</svg>