<?xml version="1.0" encoding="UTF-8" standalone="no"?>
<!DOCTYPE svg PUBLIC "-//W3C//DTD SVG 1.1//EN"
"http://www.w3.org/Graphics/SVG/1.1/DTD/svg11.dtd">
<svg viewBox="0 0 935 1210" version="1.1" xmlns="http://www.w3.org/2000/svg" xmlns:xlink="http://www.w3.org/1999/xlink">
<defs>
<style type="text/css"><![CDATA[
.g1_948{
fill: #FFFFFF;
}
.g2_948{
}
]]></style>
</defs>
<path d="M165,1149.3l687.5,0l0,-21.2l-687.5,0l0,21.2Z" class="g1_948" />
<path d="M68.8,1149.3l82.5,0l0,-21.2l-82.5,0l0,21.2Z" class="g1_948" />
<path d="M68.4,392.2l0.7,0l0,-266.5l-0.7,0l0,266.5Z" class="g2_948" />
<path d="M375.1,393.1l0.7,0l0,-268.2l-0.7,0l0,268.2Z" class="g2_948" />
<path d="M425.5,393.1l0.8,0l0,-268.2l-0.8,0l0,268.2Z" class="g2_948" />
<path d="M498.8,393.1l0.8,0l0,-268.2l-0.8,0l0,268.2Z" class="g2_948" />
<path d="M577.1,393.1l0.8,0l0,-268.2l-0.8,0l0,268.2Z" class="g2_948" />
<path d="M852,392.2l0.8,0l0,-266.5l-0.8,0l0,266.5Z" class="g2_948" />
<path d="M68.4,125.7l784.4,0l0,-0.8l-784.4,0l0,0.8Z" class="g2_948" />
<path d="M68.4,179.1l784.4,0l0,-0.7l-784.4,0l0,0.7Z" class="g2_948" />
<path d="M68.4,235.7l784.4,0l0,-0.8l-784.4,0l0,0.8Z" class="g2_948" />
<path d="M68.4,279.9l784.4,0l0,-0.7l-784.4,0l0,0.7Z" class="g2_948" />
<path d="M68.4,336.5l784.4,0l0,-0.7l-784.4,0l0,0.7Z" class="g2_948" />
<path d="M68.4,393l784.4,0l0,-0.8l-784.4,0l0,0.8Z" class="g2_948" />
<path d="M68.6,644.3l0.7,0l0,-97l-0.7,0l0,97Z" class="g2_948" />
<path d="M156.2,645.2l0.7,0l0,-98.6l-0.7,0l0,98.6Z" class="g2_948" />
<path d="M331.4,645.2l0.7,0l0,-98.6l-0.7,0l0,98.6Z" class="g2_948" />
<path d="M509.7,645.2l0.7,0l0,-98.6l-0.7,0l0,98.6Z" class="g2_948" />
<path d="M688.5,645.2l0.7,0l0,-98.6l-0.7,0l0,98.6Z" class="g2_948" />
<path d="M851.9,644.3l0.7,0l0,-97l-0.7,0l0,97Z" class="g2_948" />
<path d="M68.5,547.3l784.1,0l0,-0.7l-784.1,0l0,0.7Z" class="g2_948" />
<path d="M68.5,571.8l784.1,0l0,-0.7l-784.1,0l0,0.7Z" class="g2_948" />
<path d="M68.5,596.2l784.1,0l0,-0.7l-784.1,0l0,0.7Z" class="g2_948" />
<path d="M68.5,620.7l784.1,0l0,-0.8l-784.1,0l0,0.8Z" class="g2_948" />
<path d="M68.5,645.2l784.1,0l0,-0.8l-784.1,0l0,0.8Z" class="g2_948" />
</svg>