<?xml version="1.0" encoding="UTF-8" standalone="no"?>
<!DOCTYPE svg PUBLIC "-//W3C//DTD SVG 1.1//EN"
"http://www.w3.org/Graphics/SVG/1.1/DTD/svg11.dtd">
<svg viewBox="0 0 935 1210" version="1.1" xmlns="http://www.w3.org/2000/svg" xmlns:xlink="http://www.w3.org/1999/xlink">
<defs>
<style type="text/css"><![CDATA[
.g1_1878{
fill: #FFFFFF;
}
.g2_1878{
}
]]></style>
</defs>
<path d="M165,1149.3l687.5,0l0,-21.2l-687.5,0l0,21.2Z" class="g1_1878" />
<path d="M68.8,1149.3l82.5,0l0,-21.2l-82.5,0l0,21.2Z" class="g1_1878" />
<path d="M217.5,671.8l0.8,0l0,-170.3l-0.8,0l0,170.3Z" class="g2_1878" />
<path d="M328.9,672.7l0.7,0l0,-171.9l-0.7,0l0,171.9Z" class="g2_1878" />
<path d="M441.6,672.7l0.8,0l0,-171.9l-0.8,0l0,171.9Z" class="g2_1878" />
<path d="M702.9,671.8l0.7,0l0,-170.3l-0.7,0l0,170.3Z" class="g2_1878" />
<path d="M217.5,501.5l486.1,0l0,-0.7l-486.1,0l0,0.7Z" class="g2_1878" />
<path d="M217.5,526l486.1,0l0,-0.8l-486.1,0l0,0.8Z" class="g2_1878" />
<path d="M217.5,550.4l486.1,0l0,-0.8l-486.1,0l0,0.8Z" class="g2_1878" />
<path d="M217.5,574.8l486.1,0l0,-0.7l-486.1,0l0,0.7Z" class="g2_1878" />
<path d="M217.5,599.3l486.1,0l0,-0.7l-486.1,0l0,0.7Z" class="g2_1878" />
<path d="M217.5,623.7l486.1,0l0,-0.7l-486.1,0l0,0.7Z" class="g2_1878" />
<path d="M217.5,648.2l486.1,0l0,-0.8l-486.1,0l0,0.8Z" class="g2_1878" />
<path d="M217.5,672.7l486.1,0l0,-0.8l-486.1,0l0,0.8Z" class="g2_1878" />
</svg>