<?xml version="1.0" encoding="UTF-8" standalone="no"?>
<!DOCTYPE svg PUBLIC "-//W3C//DTD SVG 1.1//EN"
"http://www.w3.org/Graphics/SVG/1.1/DTD/svg11.dtd">
<svg viewBox="0 0 935 1210" version="1.1" xmlns="http://www.w3.org/2000/svg" xmlns:xlink="http://www.w3.org/1999/xlink">
<defs>
<style type="text/css"><![CDATA[
.g1_1893{
fill: #FFFFFF;
}
.g2_1893{
}
]]></style>
</defs>
<path d="M68.9,1149.3l686.3,0l0,-21.2l-686.3,0l0,21.2Z" class="g1_1893" />
<path d="M771.3,1149.3l83.7,0l0,-21.2l-83.7,0l0,21.2Z" class="g1_1893" />
<path d="M69.9,335.8l0.8,0l0,-210.1l-0.8,0l0,210.1Z" class="g2_1893" />
<path d="M304.2,336.5l0.8,0l0,-211.6l-0.8,0l0,211.6Z" class="g2_1893" />
<path d="M349,336.5l0.7,0l0,-211.6l-0.7,0l0,211.6Z" class="g2_1893" />
<path d="M421.1,336.5l0.8,0l0,-211.6l-0.8,0l0,211.6Z" class="g2_1893" />
<path d="M505,336.5l0.7,0l0,-211.6l-0.7,0l0,211.6Z" class="g2_1893" />
<path d="M853.7,335.8l0.7,0l0,-210.1l-0.7,0l0,210.1Z" class="g2_1893" />
<path d="M69.9,125.7l784.5,0l0,-0.8l-784.5,0l0,0.8Z" class="g2_1893" />
<path d="M69.9,176.1l784.5,0l0,-0.7l-784.5,0l0,0.7Z" class="g2_1893" />
<path d="M69.9,229.5l784.5,0l0,-0.7l-784.5,0l0,0.7Z" class="g2_1893" />
<path d="M69.9,283l784.5,0l0,-0.8l-784.5,0l0,0.8Z" class="g2_1893" />
<path d="M69.9,336.5l784.5,0l0,-0.7l-784.5,0l0,0.7Z" class="g2_1893" />
<path d="M70.3,439.6l0.7,0l0,-48.1l-0.7,0l0,48.1Z" class="g2_1893" />
<path d="M187.3,440.4l0.7,0l0,-49.6l-0.7,0l0,49.6Z" class="g2_1893" />
<path d="M345.4,440.4l0.7,0l0,-49.6l-0.7,0l0,49.6Z" class="g2_1893" />
<path d="M513.1,440.4l0.7,0l0,-49.6l-0.7,0l0,49.6Z" class="g2_1893" />
<path d="M680.9,440.4l0.7,0l0,-49.6l-0.7,0l0,49.6Z" class="g2_1893" />
<path d="M851.7,439.6l0.7,0l0,-48.1l-0.7,0l0,48.1Z" class="g2_1893" />
<path d="M70.3,391.5l782.1,0l0,-0.7l-782.1,0l0,0.7Z" class="g2_1893" />
<path d="M70.3,416l782.1,0l0,-0.7l-782.1,0l0,0.7Z" class="g2_1893" />
<path d="M70.3,440.4l782.1,0l0,-0.8l-782.1,0l0,0.8Z" class="g2_1893" />
<path d="M72.4,973.5l0.8,0l0,-170.4l-0.8,0l0,170.4Z" class="g2_1893" />
<path d="M124,974.2l0.8,0l0,-171.8l-0.8,0l0,171.8Z" class="g2_1893" />
<path d="M220.6,974.2l0.7,0l0,-171.8l-0.7,0l0,171.8Z" class="g2_1893" />
<path d="M319.4,974.2l0.7,0l0,-147.4l-0.7,0l0,147.4Z" class="g2_1893" />
<path d="M439.8,974.2l0.8,0l0,-147.4l-0.8,0l0,147.4Z" class="g2_1893" />
<path d="M558.7,974.2l0.7,0l0,-147.4l-0.7,0l0,147.4Z" class="g2_1893" />
<path d="M683.1,974.2l0.7,0l0,-171.8l-0.7,0l0,171.8Z" class="g2_1893" />
<path d="M849.6,973.5l0.7,0l0,-170.4l-0.7,0l0,170.4Z" class="g2_1893" />
<path d="M72.4,803.1l777.9,0l0,-0.7l-777.9,0l0,0.7Z" class="g2_1893" />
<path d="M72.4,827.6l777.9,0l0,-0.8l-777.9,0l0,0.8Z" class="g2_1893" />
<path d="M72.4,852l777.9,0l0,-0.8l-777.9,0l0,0.8Z" class="g2_1893" />
<path d="M72.4,876.4l777.9,0l0,-0.7l-777.9,0l0,0.7Z" class="g2_1893" />
<path d="M72.4,900.9l777.9,0l0,-0.7l-777.9,0l0,0.7Z" class="g2_1893" />
<path d="M72.4,925.3l777.9,0l0,-0.8l-777.9,0l0,0.8Z" class="g2_1893" />
<path d="M72.4,949.8l777.9,0l0,-0.8L72.4,949l0,0.8Z" class="g2_1893" />
<path d="M72.4,974.2l777.9,0l0,-0.7l-777.9,0l0,0.7Z" class="g2_1893" />
</svg>