<?xml version="1.0" encoding="UTF-8" standalone="no"?>
<!DOCTYPE svg PUBLIC "-//W3C//DTD SVG 1.1//EN"
"http://www.w3.org/Graphics/SVG/1.1/DTD/svg11.dtd">
<svg viewBox="0 0 935 1210" version="1.1" xmlns="http://www.w3.org/2000/svg" xmlns:xlink="http://www.w3.org/1999/xlink">
<defs>
<style type="text/css"><![CDATA[
.g1_820{
fill: #FFFFFF;
}
.g2_820{
}
]]></style>
</defs>
<path d="M165,1149.3l687.5,0l0,-21.2l-687.5,0l0,21.2Z" class="g1_820" />
<path d="M68.8,1149.3l82.5,0l0,-21.2l-82.5,0l0,21.2Z" class="g1_820" />
<path d="M68.6,445.8l0.7,0l0,-320.1l-0.7,0l0,320.1Z" class="g2_820" />
<path d="M296.8,446.5l0.7,0l0,-321.6l-0.7,0l0,321.6Z" class="g2_820" />
<path d="M346.1,446.5l0.8,0l0,-321.6l-0.8,0l0,321.6Z" class="g2_820" />
<path d="M420.6,446.5l0.7,0l0,-321.6l-0.7,0l0,321.6Z" class="g2_820" />
<path d="M506.6,446.5l0.7,0l0,-321.6l-0.7,0l0,321.6Z" class="g2_820" />
<path d="M856,445.8l0.7,0l0,-320.1l-0.7,0l0,320.1Z" class="g2_820" />
<path d="M68.6,125.7l788.2,0l0,-0.8l-788.2,0l0,0.8Z" class="g2_820" />
<path d="M68.6,176.1l788.2,0l0,-0.7l-788.2,0l0,0.7Z" class="g2_820" />
<path d="M68.6,212.8l788.2,0l0,-0.8L68.6,212l0,0.8Z" class="g2_820" />
<path d="M68.6,249.4l788.2,0l0,-0.7l-788.2,0l0,0.7Z" class="g2_820" />
<path d="M68.6,286.1l788.2,0l0,-0.7l-788.2,0l0,0.7Z" class="g2_820" />
<path d="M68.6,339.5l788.2,0l0,-0.7l-788.2,0l0,0.7Z" class="g2_820" />
<path d="M68.6,393l788.2,0l0,-0.8l-788.2,0l0,0.8Z" class="g2_820" />
<path d="M68.6,446.5l788.2,0l0,-0.7l-788.2,0l0,0.7Z" class="g2_820" />
<path d="M68.1,598.5l0.7,0l0,-97l-0.7,0l0,97Z" class="g2_820" />
<path d="M228.1,599.3l0.7,0l0,-98.5l-0.7,0l0,98.5Z" class="g2_820" />
<path d="M371.6,599.3l0.8,0l0,-98.5l-0.8,0l0,98.5Z" class="g2_820" />
<path d="M576.4,599.3l0.7,0l0,-98.5l-0.7,0l0,98.5Z" class="g2_820" />
<path d="M721.6,599.3l0.7,0l0,-98.5l-0.7,0l0,98.5Z" class="g2_820" />
<path d="M852.3,598.5l0.8,0l0,-97l-0.8,0l0,97Z" class="g2_820" />
<path d="M68.1,501.5l785,0l0,-0.7l-785,0l0,0.7Z" class="g2_820" />
<path d="M68.1,526l785,0l0,-0.8l-785,0l0,0.8Z" class="g2_820" />
<path d="M68.1,550.4l785,0l0,-0.8l-785,0l0,0.8Z" class="g2_820" />
<path d="M68.1,574.8l785,0l0,-0.7l-785,0l0,0.7Z" class="g2_820" />
<path d="M68.1,599.3l785,0l0,-0.7l-785,0l0,0.7Z" class="g2_820" />
</svg>