<?xml version="1.0" encoding="UTF-8" standalone="no"?>
<!DOCTYPE svg PUBLIC "-//W3C//DTD SVG 1.1//EN"
"http://www.w3.org/Graphics/SVG/1.1/DTD/svg11.dtd">
<svg viewBox="0 0 935 1210" version="1.1" xmlns="http://www.w3.org/2000/svg" xmlns:xlink="http://www.w3.org/1999/xlink">
<defs>
<style type="text/css"><![CDATA[
.g1_1930{
fill: #FFFFFF;
}
.g2_1930{
}
]]></style>
</defs>
<path d="M165,1149.3l687.5,0l0,-21.2l-687.5,0l0,21.2Z" class="g1_1930" />
<path d="M68.8,1149.3l82.5,0l0,-21.2l-82.5,0l0,21.2Z" class="g1_1930" />
<path d="M67.9,204.3l0.8,0l0,-78.6l-0.8,0l0,78.6Z" class="g2_1930" />
<path d="M205.8,205.2l0.7,0l0,-80.3l-0.7,0l0,80.3Z" class="g2_1930" />
<path d="M348.2,205.2l0.8,0l0,-80.3l-0.8,0l0,80.3Z" class="g2_1930" />
<path d="M386.1,205.2l0.7,0l0,-80.3l-0.7,0l0,80.3Z" class="g2_1930" />
<path d="M459.4,205.2l0.8,0l0,-80.3l-0.8,0l0,80.3Z" class="g2_1930" />
<path d="M530.8,205.2l0.8,0l0,-80.3l-0.8,0l0,80.3Z" class="g2_1930" />
<path d="M852.5,204.3l0.7,0l0,-78.6l-0.7,0l0,78.6Z" class="g2_1930" />
<path d="M67.9,125.7l785.3,0l0,-0.8l-785.3,0l0,0.8Z" class="g2_1930" />
<path d="M67.9,182.1l785.3,0l0,-0.7l-785.3,0l0,0.7Z" class="g2_1930" />
<path d="M67.9,205.1l785.3,0l0,-0.8l-785.3,0l0,0.8Z" class="g2_1930" />
<path d="M69.1,308.3l0.8,0l0,-48.1l-0.8,0l0,48.1Z" class="g2_1930" />
<path d="M134.4,309l0.7,0l0,-49.7l-0.7,0l0,49.7Z" class="g2_1930" />
<path d="M305.5,309l0.8,0l0,-49.7l-0.8,0l0,49.7Z" class="g2_1930" />
<path d="M482.2,309l0.7,0l0,-49.7l-0.7,0l0,49.7Z" class="g2_1930" />
<path d="M664.1,309l0.8,0l0,-49.7l-0.8,0l0,49.7Z" class="g2_1930" />
<path d="M851.3,308.3l0.7,0l0,-48.1l-0.7,0l0,48.1Z" class="g2_1930" />
<path d="M69.1,260.1l782.9,0l0,-0.8l-782.9,0l0,0.8Z" class="g2_1930" />
<path d="M69.1,284.5l782.9,0l0,-0.7l-782.9,0l0,0.7Z" class="g2_1930" />
<path d="M69.1,309L852,309l0,-0.7l-782.9,0l0,0.7Z" class="g2_1930" />
</svg>