<?xml version="1.0" encoding="UTF-8" standalone="no"?>
<!DOCTYPE svg PUBLIC "-//W3C//DTD SVG 1.1//EN"
"http://www.w3.org/Graphics/SVG/1.1/DTD/svg11.dtd">
<svg viewBox="0 0 935 1210" version="1.1" xmlns="http://www.w3.org/2000/svg" xmlns:xlink="http://www.w3.org/1999/xlink">
<defs>
<style type="text/css"><![CDATA[
.g1_1391{
fill: #FFFFFF;
}
.g2_1391{
}
.g3_1391{
fill: none;
stroke: #000000;
stroke-width: 0.59093034;
stroke-linecap: round;
stroke-linejoin: round;
}
.g4_1391{
fill: #C0C0C0;
}
]]></style>
</defs>
<path d="M68.9,1149.3l686.3,0l0,-21.2l-686.3,0l0,21.2Z" class="g1_1391" />
<path d="M771.3,1149.3l83.7,0l0,-21.2l-83.7,0l0,21.2Z" class="g1_1391" />
<path d="M158.5,318.6l0.7,0l0,-194.5l-0.7,0l0,194.5Z" class="g2_1391" />
<path d="M763.5,318.6l0.7,0l0,-194.5l-0.7,0l0,194.5Z" class="g2_1391" />
<path d="M158.5,124.1l605.7,0l0,-0.7l-605.7,0l0,0.7Z" class="g2_1391" />
<path d="M158.5,319.4l605.7,0l0,-0.8l-605.7,0l0,0.8Z" class="g2_1391" />
<path d="M598.1,191l60.9,0l0,-14.3l-60.9,0l0,14.3Z" class="g1_1391" />
<path d="M598.1,191l60.9,0l0,-14.3l-60.9,0l0,14.3Z" class="g3_1391" />
<path d="M537.4,191l60.7,0l0,-14.3l-60.7,0l0,14.3Z" class="g1_1391" />
<path d="M537.3,191l60.8,0l0,-14.3l-60.8,0l0,14.3Z" class="g3_1391" />
<path d="M476.6,191l60.8,0l0,-14.3l-60.8,0l0,14.3Z" class="g1_1391" />
<path d="M476.6,191l60.7,0l0,-14.3l-60.7,0l0,14.3Z" class="g3_1391" />
<path d="M415.7,191l60.9,0l0,-14.3l-60.9,0l0,14.3Z" class="g1_1391" />
<path d="M415.7,191l60.9,0l0,-14.3l-60.9,0l0,14.3Z" class="g3_1391" />
<path d="M294.2,191l121.5,0l0,-14.3l-121.5,0l0,14.3Z" class="g4_1391" />
<path d="M294.1,191l121.6,0l0,-14.3l-121.6,0l0,14.3Z" class="g3_1391" />
<path d="M172.5,191l121.7,0l0,-14.3l-121.7,0l0,14.3Z" class="g4_1391" />
<path d="M172.5,191l121.6,0l0,-14.3l-121.6,0l0,14.3Z" class="g3_1391" />
<path d="M537.4,305.3l121.6,0L659,291l-121.6,0l0,14.3Z" class="g1_1391" />
<path d="M537.3,305.3l121.7,0L659,291l-121.7,0l0,14.3Z" class="g3_1391" />
<path d="M415.7,305.3l121.7,0l0,-14.3l-121.7,0l0,14.3Z" class="g1_1391" />
<path d="M415.7,305.3l121.6,0l0,-14.3l-121.6,0l0,14.3Z" class="g3_1391" />
<path d="M294.2,305.3l121.5,0l0,-14.3l-121.5,0l0,14.3Z" class="g1_1391" />
<path d="M294.1,305.3l121.6,0l0,-14.3l-121.6,0l0,14.3Z" class="g3_1391" />
<path d="M172.5,305.3l121.7,0l0,-14.3l-121.7,0l0,14.3Z" class="g1_1391" />
<path d="M172.5,305.3l121.6,0l0,-14.3l-121.6,0l0,14.3Z" class="g3_1391" />
<path d="M628.5,191l0,71.4l-30.4,0l0,28.6" class="g3_1391" />
<path d="M567.8,191l0,57.1l-91.2,0l0,42.9" class="g3_1391" />
<path d="M506.9,191l0,42.8l-152,0l0,57.2" class="g3_1391" />
<path d="M446.1,191l0,28.5l-212.8,0l0,71.5" class="g3_1391" />
<path d="M546.1,241l43.3,0l0,-14.3l-43.3,0l0,14.3Z" class="g1_1391" />
<path d="M606.9,241l43.3,0l0,-14.3l-43.3,0l0,14.3Z" class="g1_1391" />
<path d="M333.3,255.3l43.3,0l0,-14.3l-43.3,0l0,14.3Z" class="g1_1391" />
<path d="M211.7,255.3l43.2,0l0,-14.3l-43.2,0l0,14.3Z" class="g1_1391" />
</svg>