<?xml version="1.0" encoding="UTF-8" standalone="no"?>
<!DOCTYPE svg PUBLIC "-//W3C//DTD SVG 1.1//EN"
"http://www.w3.org/Graphics/SVG/1.1/DTD/svg11.dtd">
<svg viewBox="0 0 935 1210" version="1.1" xmlns="http://www.w3.org/2000/svg" xmlns:xlink="http://www.w3.org/1999/xlink">
<defs>
<style type="text/css"><![CDATA[
.g1_2111{
fill: #FFFFFF;
}
.g2_2111{
}
]]></style>
</defs>
<path d="M68.9,1149.3l783.8,0l0,-21.2l-783.8,0l0,21.2Z" class="g1_2111" />
<path d="M69.9,820l0.8,0l0,-555.3l-0.8,0l0,555.3Z" class="g2_2111" />
<path d="M446.2,820.9l0.8,0l0,-557l-0.8,0l0,557Z" class="g2_2111" />
<path d="M851.6,820l0.7,0l0,-555.3l-0.7,0l0,555.3Z" class="g2_2111" />
<path d="M69.9,264.6l782.4,0l0,-0.7l-782.4,0l0,0.7Z" class="g2_2111" />
<path d="M69.9,289.1l782.4,0l0,-0.7l-782.4,0l0,0.7Z" class="g2_2111" />
<path d="M69.9,328.8l782.4,0l0,-0.7l-782.4,0l0,0.7Z" class="g2_2111" />
<path d="M69.9,353.3l782.4,0l0,-0.7l-782.4,0l0,0.7Z" class="g2_2111" />
<path d="M69.9,377.8l782.4,0l0,-0.8L69.9,377l0,0.8Z" class="g2_2111" />
<path d="M69.9,417.4l782.4,0l0,-0.7l-782.4,0l0,0.7Z" class="g2_2111" />
<path d="M69.9,441.9l782.4,0l0,-0.7l-782.4,0l0,0.7Z" class="g2_2111" />
<path d="M69.9,466.4l782.4,0l0,-0.7l-782.4,0l0,0.7Z" class="g2_2111" />
<path d="M69.9,506.1l782.4,0l0,-0.7l-782.4,0l0,0.7Z" class="g2_2111" />
<path d="M69.9,530.6l782.4,0l0,-0.8l-782.4,0l0,0.8Z" class="g2_2111" />
<path d="M69.9,554.9l782.4,0l0,-0.7l-782.4,0l0,0.7Z" class="g2_2111" />
<path d="M69.9,594.7l782.4,0l0,-0.7L69.9,594l0,0.7Z" class="g2_2111" />
<path d="M69.9,619.1l782.4,0l0,-0.7l-782.4,0l0,0.7Z" class="g2_2111" />
<path d="M69.9,643.6l782.4,0l0,-0.7l-782.4,0l0,0.7Z" class="g2_2111" />
<path d="M69.9,683.3l782.4,0l0,-0.7l-782.4,0l0,0.7Z" class="g2_2111" />
<path d="M69.9,707.8l782.4,0l0,-0.8L69.9,707l0,0.8Z" class="g2_2111" />
<path d="M69.9,732.2l782.4,0l0,-0.7l-782.4,0l0,0.7Z" class="g2_2111" />
<path d="M69.9,771.9l782.4,0l0,-0.7l-782.4,0l0,0.7Z" class="g2_2111" />
<path d="M69.9,796.4l782.4,0l0,-0.7l-782.4,0l0,0.7Z" class="g2_2111" />
<path d="M69.9,820.8l782.4,0l0,-0.7l-782.4,0l0,0.7Z" class="g2_2111" />
<path d="M69.9,1008l0.8,0l0,-152l-0.8,0l0,152Z" class="g2_2111" />
<path d="M447.3,1008.8l0.8,0l0,-153.5l-0.8,0l0,153.5Z" class="g2_2111" />
<path d="M853.9,1008l0.7,0l0,-152l-0.7,0l0,152Z" class="g2_2111" />
<path d="M69.9,856l784.7,0l0,-0.8l-784.7,0l0,0.8Z" class="g2_2111" />
<path d="M69.9,880.4l784.7,0l0,-0.8l-784.7,0l0,0.8Z" class="g2_2111" />
<path d="M69.9,920.2l784.7,0l0,-0.8l-784.7,0l0,0.8Z" class="g2_2111" />
<path d="M69.9,944.5l784.7,0l0,-0.7l-784.7,0l0,0.7Z" class="g2_2111" />
<path d="M69.9,984.3l784.7,0l0,-0.7l-784.7,0l0,0.7Z" class="g2_2111" />
<path d="M69.9,1008.7l784.7,0l0,-0.7l-784.7,0l0,0.7Z" class="g2_2111" />
</svg>