<?xml version="1.0" encoding="UTF-8" standalone="no"?>
<!DOCTYPE svg PUBLIC "-//W3C//DTD SVG 1.1//EN"
"http://www.w3.org/Graphics/SVG/1.1/DTD/svg11.dtd">
<svg viewBox="0 0 935 1210" version="1.1" xmlns="http://www.w3.org/2000/svg" xmlns:xlink="http://www.w3.org/1999/xlink">
<defs>
<style type="text/css"><![CDATA[
.g1_846{
fill: #FFFFFF;
}
.g2_846{
}
]]></style>
</defs>
<path d="M165,1149.3l687.5,0l0,-21.2l-687.5,0l0,21.2Z" class="g1_846" />
<path d="M68.8,1149.3l82.5,0l0,-21.2l-82.5,0l0,21.2Z" class="g1_846" />
<path d="M68.6,597l0.7,0l0,-471.3l-0.7,0l0,471.3Z" class="g2_846" />
<path d="M279,597.8l0.8,0l0,-472.9l-0.8,0l0,472.9Z" class="g2_846" />
<path d="M327.2,597.8l0.7,0l0,-472.9l-0.7,0l0,472.9Z" class="g2_846" />
<path d="M400.5,597.8l0.7,0l0,-472.9l-0.7,0l0,472.9Z" class="g2_846" />
<path d="M491.5,597.8l0.8,0l0,-472.9l-0.8,0l0,472.9Z" class="g2_846" />
<path d="M853.4,597l0.7,0l0,-471.3l-0.7,0l0,471.3Z" class="g2_846" />
<path d="M68.6,125.7l785.6,0l0,-0.8l-785.6,0l0,0.8Z" class="g2_846" />
<path d="M68.6,176.1l785.6,0l0,-0.7l-785.6,0l0,0.7Z" class="g2_846" />
<path d="M68.6,246.3l785.6,0l0,-0.7l-785.6,0l0,0.7Z" class="g2_846" />
<path d="M68.6,316.6l785.6,0l0,-0.7l-785.6,0l0,0.7Z" class="g2_846" />
<path d="M68.6,386.9l785.6,0l0,-0.7l-785.6,0l0,0.7Z" class="g2_846" />
<path d="M68.6,457.2l785.6,0l0,-0.7l-785.6,0l0,0.7Z" class="g2_846" />
<path d="M68.6,527.4l785.6,0l0,-0.7l-785.6,0l0,0.7Z" class="g2_846" />
<path d="M68.6,597.8l785.6,0l0,-0.8L68.6,597l0,0.8Z" class="g2_846" />
<path d="M73.2,749.7l0.7,0l0,-96.9l-0.7,0l0,96.9Z" class="g2_846" />
<path d="M220.5,750.6l0.7,0l0,-98.6l-0.7,0l0,98.6Z" class="g2_846" />
<path d="M364.6,750.6l0.8,0l0,-98.6l-0.8,0l0,98.6Z" class="g2_846" />
<path d="M570.2,750.6l0.7,0l0,-98.6l-0.7,0l0,98.6Z" class="g2_846" />
<path d="M716,750.6l0.7,0l0,-98.6l-0.7,0l0,98.6Z" class="g2_846" />
<path d="M847.3,749.7l0.7,0l0,-96.9l-0.7,0l0,96.9Z" class="g2_846" />
<path d="M73.2,652.8l774.8,0l0,-0.8L73.2,652l0,0.8Z" class="g2_846" />
<path d="M73.2,677.2l774.8,0l0,-0.7l-774.8,0l0,0.7Z" class="g2_846" />
<path d="M73.2,701.6l774.8,0l0,-0.7l-774.8,0l0,0.7Z" class="g2_846" />
<path d="M73.2,726.1l774.8,0l0,-0.7l-774.8,0l0,0.7Z" class="g2_846" />
<path d="M73.2,750.6l774.8,0l0,-0.8l-774.8,0l0,0.8Z" class="g2_846" />
</svg>