<?xml version="1.0" encoding="UTF-8" standalone="no"?>
<!DOCTYPE svg PUBLIC "-//W3C//DTD SVG 1.1//EN"
"http://www.w3.org/Graphics/SVG/1.1/DTD/svg11.dtd">
<svg viewBox="0 0 935 1210" version="1.1" xmlns="http://www.w3.org/2000/svg" xmlns:xlink="http://www.w3.org/1999/xlink">
<defs>
<style type="text/css"><![CDATA[
.g1_908{
fill: #FFFFFF;
}
.g2_908{
}
]]></style>
</defs>
<path d="M165,1149.3l687.5,0l0,-21.2l-687.5,0l0,21.2Z" class="g1_908" />
<path d="M68.8,1149.3l82.5,0l0,-21.2l-82.5,0l0,21.2Z" class="g1_908" />
<path d="M71.1,263.9l0.8,0l0,-121.5l-0.8,0l0,121.5Z" class="g2_908" />
<path d="M218.2,264.7l0.7,0l0,-123l-0.7,0l0,123Z" class="g2_908" />
<path d="M346.9,264.7l0.7,0l0,-123l-0.7,0l0,123Z" class="g2_908" />
<path d="M475.5,264.7l0.7,0l0,-123l-0.7,0l0,123Z" class="g2_908" />
<path d="M604.2,264.7l0.7,0l0,-123l-0.7,0l0,123Z" class="g2_908" />
<path d="M714.5,264.7l0.7,0l0,-123l-0.7,0l0,123Z" class="g2_908" />
<path d="M849.2,263.9l0.7,0l0,-121.5l-0.7,0l0,121.5Z" class="g2_908" />
<path d="M71.1,142.4l778.8,0l0,-0.7l-778.8,0l0,0.7Z" class="g2_908" />
<path d="M71.1,166.9l778.8,0l0,-0.7l-778.8,0l0,0.7Z" class="g2_908" />
<path d="M71.1,191.3l778.8,0l0,-0.7l-778.8,0l0,0.7Z" class="g2_908" />
<path d="M71.1,215.8l778.8,0l0,-0.8L71.1,215l0,0.8Z" class="g2_908" />
<path d="M71.1,240.3l778.8,0l0,-0.8l-778.8,0l0,0.8Z" class="g2_908" />
<path d="M71.1,264.6l778.8,0l0,-0.7l-778.8,0l0,0.7Z" class="g2_908" />
</svg>