<?xml version="1.0" encoding="UTF-8" standalone="no"?>
<!DOCTYPE svg PUBLIC "-//W3C//DTD SVG 1.1//EN"
"http://www.w3.org/Graphics/SVG/1.1/DTD/svg11.dtd">
<svg viewBox="0 0 935 1210" version="1.1" xmlns="http://www.w3.org/2000/svg" xmlns:xlink="http://www.w3.org/1999/xlink">
<defs>
<style type="text/css"><![CDATA[
.g1_1166{
fill: #FFFFFF;
}
.g2_1166{
}
]]></style>
</defs>
<path d="M165,1149.3l687.5,0l0,-21.2l-687.5,0l0,21.2Z" class="g1_1166" />
<path d="M68.8,1149.3l82.5,0l0,-21.2l-82.5,0l0,21.2Z" class="g1_1166" />
<path d="M70.1,225.8l0.8,0l0,-100.1l-0.8,0l0,100.1Z" class="g2_1166" />
<path d="M219.2,226.5l0.7,0l0,-101.6l-0.7,0l0,101.6Z" class="g2_1166" />
<path d="M388.2,226.5l0.7,0l0,-101.6l-0.7,0l0,101.6Z" class="g2_1166" />
<path d="M426.1,226.5l0.7,0l0,-101.6l-0.7,0l0,101.6Z" class="g2_1166" />
<path d="M499.5,226.5l0.7,0l0,-101.6l-0.7,0l0,101.6Z" class="g2_1166" />
<path d="M570.8,226.5l0.7,0l0,-101.6l-0.7,0l0,101.6Z" class="g2_1166" />
<path d="M850.3,225.8l0.7,0l0,-100.1l-0.7,0l0,100.1Z" class="g2_1166" />
<path d="M70.1,125.7l780.9,0l0,-0.8l-780.9,0l0,0.8Z" class="g2_1166" />
<path d="M70.1,163.8l780.9,0l0,-0.7l-780.9,0l0,0.7Z" class="g2_1166" />
<path d="M70.1,186.7l780.9,0l0,-0.7L70.1,186l0,0.7Z" class="g2_1166" />
<path d="M70.1,226.5l780.9,0l0,-0.7l-780.9,0l0,0.7Z" class="g2_1166" />
<path d="M69.1,329.6l0.8,0l0,-48.1l-0.8,0l0,48.1Z" class="g2_1166" />
<path d="M141.7,330.4l0.8,0l0,-49.6l-0.8,0l0,49.6Z" class="g2_1166" />
<path d="M319.3,330.4l0.7,0l0,-49.6l-0.7,0l0,49.6Z" class="g2_1166" />
<path d="M496.5,330.4l0.7,0l0,-49.6l-0.7,0l0,49.6Z" class="g2_1166" />
<path d="M675.4,330.4l0.7,0l0,-49.6l-0.7,0l0,49.6Z" class="g2_1166" />
<path d="M851.3,329.6l0.7,0l0,-48.1l-0.7,0l0,48.1Z" class="g2_1166" />
<path d="M69.1,281.5l782.9,0l0,-0.7l-782.9,0l0,0.7Z" class="g2_1166" />
<path d="M69.1,305.9l782.9,0l0,-0.7l-782.9,0l0,0.7Z" class="g2_1166" />
<path d="M69.1,330.4l782.9,0l0,-0.8l-782.9,0l0,0.8Z" class="g2_1166" />
</svg>