<?xml version="1.0" encoding="UTF-8" standalone="no"?>
<!DOCTYPE svg PUBLIC "-//W3C//DTD SVG 1.1//EN"
"http://www.w3.org/Graphics/SVG/1.1/DTD/svg11.dtd">
<svg viewBox="0 0 935 1210" version="1.1" xmlns="http://www.w3.org/2000/svg" xmlns:xlink="http://www.w3.org/1999/xlink">
<defs>
<style type="text/css"><![CDATA[
.g1_1695{
fill: #FFFFFF;
}
.g2_1695{
}
]]></style>
</defs>
<path d="M68.9,1149.3l686.3,0l0,-21.2l-686.3,0l0,21.2Z" class="g1_1695" />
<path d="M771.3,1149.3l83.7,0l0,-21.2l-83.7,0l0,21.2Z" class="g1_1695" />
<path d="M69.9,597l0.8,0l0,-471.3l-0.8,0l0,471.3Z" class="g2_1695" />
<path d="M294.8,597.8l0.7,0l0,-472.9l-0.7,0l0,472.9Z" class="g2_1695" />
<path d="M341.7,597.8l0.8,0l0,-472.9l-0.8,0l0,472.9Z" class="g2_1695" />
<path d="M414,597.8l0.7,0l0,-472.9l-0.7,0l0,472.9Z" class="g2_1695" />
<path d="M503,597.8l0.7,0l0,-472.9l-0.7,0l0,472.9Z" class="g2_1695" />
<path d="M852,597l0.7,0l0,-471.3l-0.7,0L852,597Z" class="g2_1695" />
<path d="M69.9,125.7l782.8,0l0,-0.8l-782.8,0l0,0.8Z" class="g2_1695" />
<path d="M69.9,176.1l782.8,0l0,-0.7l-782.8,0l0,0.7Z" class="g2_1695" />
<path d="M69.9,246.3l782.8,0l0,-0.7l-782.8,0l0,0.7Z" class="g2_1695" />
<path d="M69.9,316.6l782.8,0l0,-0.7l-782.8,0l0,0.7Z" class="g2_1695" />
<path d="M69.9,386.9l782.8,0l0,-0.7l-782.8,0l0,0.7Z" class="g2_1695" />
<path d="M69.9,457.2l782.8,0l0,-0.7l-782.8,0l0,0.7Z" class="g2_1695" />
<path d="M69.9,527.4l782.8,0l0,-0.7l-782.8,0l0,0.7Z" class="g2_1695" />
<path d="M69.9,597.8l782.8,0l0,-0.8L69.9,597l0,0.8Z" class="g2_1695" />
<path d="M68.7,700.9l0.7,0l0,-48.1l-0.7,0l0,48.1Z" class="g2_1695" />
<path d="M196.8,701.6l0.7,0l0,-49.6l-0.7,0l0,49.6Z" class="g2_1695" />
<path d="M353.3,701.6l0.7,0L354,652l-0.7,0l0,49.6Z" class="g2_1695" />
<path d="M523.8,701.6l0.7,0l0,-49.6l-0.7,0l0,49.6Z" class="g2_1695" />
<path d="M690.8,701.6l0.7,0l0,-49.6l-0.7,0l0,49.6Z" class="g2_1695" />
<path d="M853.3,700.9l0.8,0l0,-48.1l-0.8,0l0,48.1Z" class="g2_1695" />
<path d="M68.7,652.8l785.4,0l0,-0.8L68.7,652l0,0.8Z" class="g2_1695" />
<path d="M68.7,677.2l785.4,0l0,-0.7l-785.4,0l0,0.7Z" class="g2_1695" />
<path d="M68.7,701.6l785.4,0l0,-0.7l-785.4,0l0,0.7Z" class="g2_1695" />
</svg>