<?xml version="1.0" encoding="UTF-8" standalone="no"?>
<!DOCTYPE svg PUBLIC "-//W3C//DTD SVG 1.1//EN"
"http://www.w3.org/Graphics/SVG/1.1/DTD/svg11.dtd">
<svg viewBox="0 0 935 1210" version="1.1" xmlns="http://www.w3.org/2000/svg" xmlns:xlink="http://www.w3.org/1999/xlink">
<defs>
<style type="text/css"><![CDATA[
.g1_415{
fill: #FFFFFF;
}
.g2_415{
}
]]></style>
</defs>
<path d="M68.9,1149.3l686.3,0l0,-21.2l-686.3,0l0,21.2Z" class="g1_415" />
<path d="M771.3,1149.3l83.7,0l0,-21.2l-83.7,0l0,21.2Z" class="g1_415" />
<path d="M73.3,343.4l0.8,0l0,-219.3l-0.8,0l0,219.3Z" class="g2_415" />
<path d="M149.1,344.9l2.3,0l0,-195.6l-2.3,0l0,195.6Z" class="g2_415" />
<path d="M235.1,344.9l2.3,0l0,-197.9l-2.3,0l0,197.9Z" class="g2_415" />
<path d="M321.8,344.9l0.8,0l0,-197.9l-0.8,0l0,197.9Z" class="g2_415" />
<path d="M413.9,344.9l0.7,0l0,-197.9l-0.7,0l0,197.9Z" class="g2_415" />
<path d="M499.9,344.9l0.7,0l0,-197.9l-0.7,0l0,197.9Z" class="g2_415" />
<path d="M585.8,344.9l0.8,0l0,-197.9l-0.8,0l0,197.9Z" class="g2_415" />
<path d="M676.6,344.9l0.7,0l0,-197.9l-0.7,0l0,197.9Z" class="g2_415" />
<path d="M762.7,344.9l0.7,0l0,-197.9l-0.7,0l0,197.9Z" class="g2_415" />
<path d="M848.6,147l0.8,0l0,-22.9l-0.8,0l0,22.9Z" class="g2_415" />
<path d="M847.9,342.7l2.3,0l0,-193.4l-2.3,0l0,193.4Z" class="g2_415" />
<path d="M73.3,124.1l776.1,0l0,-0.7l-776.1,0l0,0.7Z" class="g2_415" />
<path d="M149.1,149.4l701,0l0,-2.3l-701,0l0,2.3Z" class="g2_415" />
<path d="M149.1,173.8l701,0l0,-2.3l-701,0l0,2.3Z" class="g2_415" />
<path d="M149.1,197.4l701,0l0,-0.7l-701,0l0,0.7Z" class="g2_415" />
<path d="M149.1,221.9l701,0l0,-0.7l-701,0l0,0.7Z" class="g2_415" />
<path d="M149.1,246.3l701,0l0,-0.7l-701,0l0,0.7Z" class="g2_415" />
<path d="M149.1,270.8l701,0l0,-0.7l-701,0l0,0.7Z" class="g2_415" />
<path d="M149.1,295.3l701,0l0,-0.8l-701,0l0,0.8Z" class="g2_415" />
<path d="M149.1,319.6l701,0l0,-0.7l-701,0l0,0.7Z" class="g2_415" />
<path d="M73.3,344.1l75.8,0l0,-0.7l-75.8,0l0,0.7Z" class="g2_415" />
<path d="M151.4,344.9l698.7,0l0,-2.2l-698.7,0l0,2.2Z" class="g2_415" />
</svg>