<?xml version="1.0" encoding="UTF-8" standalone="no"?>
<!DOCTYPE svg PUBLIC "-//W3C//DTD SVG 1.1//EN"
"http://www.w3.org/Graphics/SVG/1.1/DTD/svg11.dtd">
<svg viewBox="0 0 935 1210" version="1.1" xmlns="http://www.w3.org/2000/svg" xmlns:xlink="http://www.w3.org/1999/xlink">
<defs>
<style type="text/css"><![CDATA[
.g1_280{
fill: #FFFFFF;
}
.g2_280{
}
]]></style>
</defs>
<path d="M165,1149.3l687.5,0l0,-21.2l-687.5,0l0,21.2Z" class="g1_280" />
<path d="M68.8,1149.3l82.5,0l0,-21.2l-82.5,0l0,21.2Z" class="g1_280" />
<path d="M72.1,493.1l0.7,0l0,-219.2l-0.7,0l0,219.2Z" class="g2_280" />
<path d="M469.3,493.9l0.8,0l0,-220.8l-0.8,0l0,220.8Z" class="g2_280" />
<path d="M848.4,493.1l0.7,0l0,-219.2l-0.7,0l0,219.2Z" class="g2_280" />
<path d="M72.1,273.8l777,0l0,-0.7l-777,0l0,0.7Z" class="g2_280" />
<path d="M72.1,298.3l777,0l0,-0.7l-777,0l0,0.7Z" class="g2_280" />
<path d="M72.1,322.8l777,0l0,-0.8l-777,0l0,0.8Z" class="g2_280" />
<path d="M72.1,347.1l777,0l0,-0.7l-777,0l0,0.7Z" class="g2_280" />
<path d="M72.1,371.6l777,0l0,-0.7l-777,0l0,0.7Z" class="g2_280" />
<path d="M72.1,396.1l777,0l0,-0.7l-777,0l0,0.7Z" class="g2_280" />
<path d="M72.1,420.6l777,0l0,-0.8l-777,0l0,0.8Z" class="g2_280" />
<path d="M72.1,444.9l777,0l0,-0.7l-777,0l0,0.7Z" class="g2_280" />
<path d="M72.1,469.4l777,0l0,-0.7l-777,0l0,0.7Z" class="g2_280" />
<path d="M72.1,493.9l777,0l0,-0.7l-777,0l0,0.7Z" class="g2_280" />
<path d="M70.7,1095.1l0.7,0l0,-366l-0.7,0l0,366Z" class="g2_280" />
<path d="M469.3,1095.9l0.8,0l0,-367.5l-0.8,0l0,367.5Z" class="g2_280" />
<path d="M849.8,1095.1l0.7,0l0,-366l-0.7,0l0,366Z" class="g2_280" />
<path d="M70.7,729.1l779.8,0l0,-0.7l-779.8,0l0,0.7Z" class="g2_280" />
<path d="M70.7,753.6l779.8,0l0,-0.7l-779.8,0l0,0.7Z" class="g2_280" />
<path d="M70.7,778.1l779.8,0l0,-0.8l-779.8,0l0,0.8Z" class="g2_280" />
<path d="M70.7,802.4l779.8,0l0,-0.7l-779.8,0l0,0.7Z" class="g2_280" />
<path d="M70.7,826.9l779.8,0l0,-0.7l-779.8,0l0,0.7Z" class="g2_280" />
<path d="M70.7,851.4l779.8,0l0,-0.7l-779.8,0l0,0.7Z" class="g2_280" />
<path d="M70.7,875.8l779.8,0l0,-0.7l-779.8,0l0,0.7Z" class="g2_280" />
<path d="M70.7,900.3l779.8,0l0,-0.8l-779.8,0l0,0.8Z" class="g2_280" />
<path d="M70.7,924.7l779.8,0l0,-0.7L70.7,924l0,0.7Z" class="g2_280" />
<path d="M70.7,951l779.8,0l0,-4.5l-779.8,0l0,4.5Z" class="g2_280" />
<path d="M70.7,973.6l779.8,0l0,-0.7l-779.8,0l0,0.7Z" class="g2_280" />
<path d="M70.7,998.1l779.8,0l0,-0.8l-779.8,0l0,0.8Z" class="g2_280" />
<path d="M70.7,1022.5l779.8,0l0,-0.8l-779.8,0l0,0.8Z" class="g2_280" />
<path d="M70.7,1046.9l779.8,0l0,-0.7l-779.8,0l0,0.7Z" class="g2_280" />
<path d="M70.7,1071.4l779.8,0l0,-0.7l-779.8,0l0,0.7Z" class="g2_280" />
<path d="M70.7,1095.8l779.8,0l0,-0.8l-779.8,0l0,0.8Z" class="g2_280" />
</svg>