<?xml version="1.0" encoding="UTF-8" standalone="no"?>
<!DOCTYPE svg PUBLIC "-//W3C//DTD SVG 1.1//EN"
"http://www.w3.org/Graphics/SVG/1.1/DTD/svg11.dtd">
<svg viewBox="0 0 935 1210" version="1.1" xmlns="http://www.w3.org/2000/svg" xmlns:xlink="http://www.w3.org/1999/xlink">
<defs>
<style type="text/css"><![CDATA[
.g1_2017{
fill: #FFFFFF;
}
.g2_2017{
}
]]></style>
</defs>
<path d="M68.9,1149.3l686.3,0l0,-21.2l-686.3,0l0,21.2Z" class="g1_2017" />
<path d="M771.3,1149.3l83.7,0l0,-21.2l-83.7,0l0,21.2Z" class="g1_2017" />
<path d="M69.9,186l0.8,0l0,-45l-0.8,0l0,45Z" class="g2_2017" />
<path d="M852.3,186l0.8,0l0,-45l-0.8,0l0,45Z" class="g2_2017" />
<path d="M69.9,140.9l783.2,0l0,-0.7l-783.2,0l0,0.7Z" class="g2_2017" />
<path d="M69.9,186.7l783.2,0l0,-0.7L69.9,186l0,0.7Z" class="g2_2017" />
<path d="M70.1,997.3l0.8,0l0,-252.9l-0.8,0l0,252.9Z" class="g2_2017" />
<path d="M378.1,998.1l0.8,0l0,-254.4l-0.8,0l0,254.4Z" class="g2_2017" />
<path d="M851.9,997.3l0.7,0l0,-252.9l-0.7,0l0,252.9Z" class="g2_2017" />
<path d="M70.1,744.4l782.5,0l0,-0.7l-782.5,0l0,0.7Z" class="g2_2017" />
<path d="M70.1,998.1l782.5,0l0,-0.8l-782.5,0l0,0.8Z" class="g2_2017" />
</svg>