<?xml version="1.0" encoding="UTF-8" standalone="no"?>
<!DOCTYPE svg PUBLIC "-//W3C//DTD SVG 1.1//EN"
"http://www.w3.org/Graphics/SVG/1.1/DTD/svg11.dtd">
<svg viewBox="0 0 935 1210" version="1.1" xmlns="http://www.w3.org/2000/svg" xmlns:xlink="http://www.w3.org/1999/xlink">
<defs>
<style type="text/css"><![CDATA[
.g1_1111{
fill: #FFFFFF;
}
.g2_1111{
}
]]></style>
</defs>
<path d="M68.9,1149.3l686.3,0l0,-21.2l-686.3,0l0,21.2Z" class="g1_1111" />
<path d="M771.3,1149.3l83.7,0l0,-21.2l-83.7,0l0,21.2Z" class="g1_1111" />
<path d="M67.5,276.2l0.7,0l0,-168.9l-0.7,0l0,168.9Z" class="g2_1111" />
<path d="M373,276.9l0.7,0l0,-170.3l-0.7,0l0,170.3Z" class="g2_1111" />
<path d="M417.7,276.9l0.8,0l0,-170.3l-0.8,0l0,170.3Z" class="g2_1111" />
<path d="M491.1,276.9l0.7,0l0,-170.3l-0.7,0l0,170.3Z" class="g2_1111" />
<path d="M576.2,276.9l0.8,0l0,-170.3l-0.8,0l0,170.3Z" class="g2_1111" />
<path d="M854.5,276.2l0.7,0l0,-168.9l-0.7,0l0,168.9Z" class="g2_1111" />
<path d="M67.5,107.3l787.7,0l0,-0.7l-787.7,0l0,0.7Z" class="g2_1111" />
<path d="M67.5,163.8l787.7,0l0,-0.7l-787.7,0l0,0.7Z" class="g2_1111" />
<path d="M67.5,220.4l787.7,0l0,-0.8l-787.7,0l0,0.8Z" class="g2_1111" />
<path d="M67.5,276.9l787.7,0l0,-0.7l-787.7,0l0,0.7Z" class="g2_1111" />
<path d="M69.9,601.6l0.7,0l0,-194.8l-0.7,0l0,194.8Z" class="g2_1111" />
<path d="M137.3,602.3l0.8,0l0,-196.3l-0.8,0l0,196.3Z" class="g2_1111" />
<path d="M315.5,602.3l0.8,0l0,-196.3l-0.8,0l0,196.3Z" class="g2_1111" />
<path d="M494.6,602.3l0.8,0l0,-196.3l-0.8,0l0,196.3Z" class="g2_1111" />
<path d="M673.1,602.3l0.7,0l0,-196.3l-0.7,0l0,196.3Z" class="g2_1111" />
<path d="M852.1,601.6l0.8,0l0,-194.8l-0.8,0l0,194.8Z" class="g2_1111" />
<path d="M69.9,406.8l783,0l0,-0.7l-783,0l0,0.7Z" class="g2_1111" />
<path d="M69.9,431.2l783,0l0,-0.7l-783,0l0,0.7Z" class="g2_1111" />
<path d="M69.9,455.7l783,0l0,-0.8l-783,0l0,0.8Z" class="g2_1111" />
<path d="M69.9,480.2l783,0l0,-0.8l-783,0l0,0.8Z" class="g2_1111" />
<path d="M69.9,504.5l783,0l0,-0.7l-783,0l0,0.7Z" class="g2_1111" />
<path d="M69.9,529l783,0l0,-0.7l-783,0l0,0.7Z" class="g2_1111" />
<path d="M69.9,553.5l783,0l0,-0.8l-783,0l0,0.8Z" class="g2_1111" />
<path d="M69.9,577.9l783,0l0,-0.8l-783,0l0,0.8Z" class="g2_1111" />
<path d="M69.9,602.3l783,0l0,-0.7l-783,0l0,0.7Z" class="g2_1111" />
<path d="M171.3,910.4l0.8,0l0,-133.9l-0.8,0l0,133.9Z" class="g2_1111" />
<path d="M750.7,910.4l0.7,0l0,-133.9l-0.7,0l0,133.9Z" class="g2_1111" />
<path d="M171.3,776.5l580.1,0l0,-0.7l-580.1,0l0,0.7Z" class="g2_1111" />
<path d="M171.3,911.2l580.1,0l0,-0.8l-580.1,0l0,0.8Z" class="g2_1111" />
<path d="M297.5,820.6l96,0l0,-27.5l-96,0l0,27.5Z" class="g1_1111" />
<path d="M297.5,793.5l96.4,0l0,-0.8l-96.4,0l0,0.8Z" class="g2_1111" />
<path d="M393.2,821l0.7,0l0,-27.9l-0.7,0l0,27.9Z" class="g2_1111" />
<path d="M297.1,821l96.4,0l0,-0.8l-96.4,0l0,0.8Z" class="g2_1111" />
<path d="M297.1,820.6l0.7,0l0,-27.9l-0.7,0l0,27.9Z" class="g2_1111" />
<path d="M393.5,820.6l96.1,0l0,-27.5l-96.1,0l0,27.5Z" class="g1_1111" />
<path d="M393.5,793.5l96.5,0l0,-0.8l-96.5,0l0,0.8Z" class="g2_1111" />
<path d="M489.2,821l0.8,0l0,-27.9l-0.8,0l0,27.9Z" class="g2_1111" />
<path d="M393.2,821l96.4,0l0,-0.8l-96.4,0l0,0.8Z" class="g2_1111" />
<path d="M393.2,820.6l0.7,0l0,-27.9l-0.7,0l0,27.9Z" class="g2_1111" />
<path d="M489.6,820.6l96.1,0l0,-27.5l-96.1,0l0,27.5Z" class="g1_1111" />
<path d="M489.6,793.5l96.5,0l0,-0.8l-96.5,0l0,0.8Z" class="g2_1111" />
<path d="M585.4,821l0.7,0l0,-27.9l-0.7,0l0,27.9Z" class="g2_1111" />
<path d="M489.2,821l96.5,0l0,-0.8l-96.5,0l0,0.8Z" class="g2_1111" />
<path d="M489.2,820.6l0.8,0l0,-27.9l-0.8,0l0,27.9Z" class="g2_1111" />
<path d="M585.7,820.6l96.1,0l0,-27.5l-96.1,0l0,27.5Z" class="g1_1111" />
<path d="M585.7,793.5l96.5,0l0,-0.8l-96.5,0l0,0.8Z" class="g2_1111" />
<path d="M681.5,821l0.7,0l0,-27.9l-0.7,0l0,27.9Z" class="g2_1111" />
<path d="M585.4,821l96.4,0l0,-0.8l-96.4,0l0,0.8Z" class="g2_1111" />
<path d="M585.4,820.6l0.7,0l0,-27.9l-0.7,0l0,27.9Z" class="g2_1111" />
<path d="M296.5,901.6l96.2,0l0,-27.5l-96.2,0l0,27.5Z" class="g1_1111" />
<path d="M296.5,874.5l96.6,0l0,-0.7l-96.6,0l0,0.7Z" class="g2_1111" />
<path d="M392.3,902l0.8,0l0,-27.9l-0.8,0l0,27.9Z" class="g2_1111" />
<path d="M296.2,902l96.5,0l0,-0.7l-96.5,0l0,0.7Z" class="g2_1111" />
<path d="M296.2,901.6l0.7,0l0,-27.8l-0.7,0l0,27.8Z" class="g2_1111" />
<path d="M392.7,901.6l96.1,0l0,-27.5l-96.1,0l0,27.5Z" class="g1_1111" />
<path d="M392.7,874.5l96.4,0l0,-0.7l-96.4,0l0,0.7Z" class="g2_1111" />
<path d="M488.4,902l0.7,0l0,-27.9l-0.7,0l0,27.9Z" class="g2_1111" />
<path d="M392.3,902l96.5,0l0,-0.7l-96.5,0l0,0.7Z" class="g2_1111" />
<path d="M392.3,901.6l0.8,0l0,-27.8l-0.8,0l0,27.8Z" class="g2_1111" />
<path d="M488.8,901.6l96,0l0,-27.5l-96,0l0,27.5Z" class="g1_1111" />
<path d="M488.8,874.5l96.4,0l0,-0.7l-96.4,0l0,0.7Z" class="g2_1111" />
<path d="M584.5,902l0.7,0l0,-27.9l-0.7,0l0,27.9Z" class="g2_1111" />
<path d="M488.4,902l96.4,0l0,-0.7l-96.4,0l0,0.7Z" class="g2_1111" />
<path d="M488.4,901.6l0.7,0l0,-27.8l-0.7,0l0,27.8Z" class="g2_1111" />
<path d="M584.8,901.6l96.1,0l0,-27.5l-96.1,0l0,27.5Z" class="g1_1111" />
<path d="M584.8,874.5l96.5,0l0,-0.7l-96.5,0l0,0.7Z" class="g2_1111" />
<path d="M680.5,902l0.8,0l0,-27.9l-0.8,0l0,27.9Z" class="g2_1111" />
<path d="M584.5,902l96.4,0l0,-0.7l-96.4,0l0,0.7Z" class="g2_1111" />
<path d="M584.5,901.6l0.7,0l0,-27.8l-0.7,0l0,27.8Z" class="g2_1111" />
<path d="M642.5,864.4l0.7,0l0,-1.6l-0.7,0l0,1.6Z" class="g2_1111" />
<path d="M642.6,863.7l2.4,-0.8l1.4,-0.6l-0.4,1.6l-2.4,8.1l-0.7,2.5L642.1,872l-2.4,-8.1l-0.4,-1.6l1.4,0.6l0.5,0.5l2.4,8.2l-1.5,0.4l0,-0.4l2.4,-8.2l1.5,0.5l-0.5,0.4l-2.4,0.9Z" class="g2_1111" />
<path d="M640.7,862.9l2.4,0.8l0,1.5l-0.2,0l-0.3,0l-2.4,-0.9Z" class="g2_1111" />
<path fill-rule="evenodd" d="M642.9,864.4l2.3,-0.8l-2.3,8.2l-2.4,-8.2Z" class="g2_1111" />
<path d="M603.2,843.8l0.7,0l0,-22.8l-0.7,0l0,22.8Z" class="g2_1111" />
<path d="M603.5,843.8l39.7,0l0,-0.7l-39.7,0l0,0.7Z" class="g2_1111" />
<path d="M642.5,863.1l0.7,0l0,-19.7l-0.7,0l0,19.7Z" class="g2_1111" />
<path d="M364.2,864.4l0.7,0l0,-1.6l-0.7,0l0,1.6Z" class="g2_1111" />
<path d="M364.3,863.7l2.3,-0.9l1.4,-0.7l-2.7,9.9l-0.7,2.6L363.8,872l-2.4,-8.2L361,862.2l1.5,0.6l0.4,0.5l2.4,8.3l-1.5,0.4l0,-0.4l2.3,-8.3l1.5,0.5l-0.5,0.4l-2.3,1Z" class="g2_1111" />
<path d="M362.5,862.8l2.3,0.9l0,1.5l-0.2,0l-0.3,0l-2.4,-1Z" class="g2_1111" />
<path fill-rule="evenodd" d="M364.6,864.4l2.2,-0.9l-2.2,8.3l-2.4,-8.3Z" class="g2_1111" />
<path d="M324.9,843.8l0.7,0l0,-22.8l-0.7,0l0,22.8Z" class="g2_1111" />
<path d="M325.2,843.8l39.7,0l0,-0.7l-39.7,0l0,0.7Z" class="g2_1111" />
<path d="M364.2,863.1l0.7,0l0,-19.7l-0.7,0l0,19.7Z" class="g2_1111" />
<path d="M461.5,864.3l0.8,0l0,-1.6l-0.8,0l0,1.6Z" class="g2_1111" />
<path d="M461.6,863.6l2.3,-0.8l1.5,-0.7l-0.5,1.7l-2.3,8.1l-0.7,2.5l-0.7,-2.5l-2.4,-8.1l-0.5,-1.6l1.5,0.6l0.5,0.5l2.3,8.2l-1.4,0.4l0,-0.4l2.3,-8.2l1.4,0.5l-0.4,0.4l-2.3,0.9Z" class="g2_1111" />
<path d="M459.8,862.8l2.4,0.8l0,1.5l-0.3,0.1l-0.3,-0.1l-2.3,-0.9Z" class="g2_1111" />
<path fill-rule="evenodd" d="M461.9,864.3l2.3,-0.8l-2.3,8.2l-2.4,-8.2Z" class="g2_1111" />
<path d="M422.2,843.7l0.7,0l0,-22.8l-0.7,0l0,22.8Z" class="g2_1111" />
<path d="M422.6,843.7l39.7,0l0,-0.7l-39.7,0l0,0.7Z" class="g2_1111" />
<path d="M461.5,863l0.8,0l0,-19.7l-0.8,0l0,19.7Z" class="g2_1111" />
<path d="M548.2,865.1l0.7,0l0,-1.6l-0.7,0l0,1.6Z" class="g2_1111" />
<path d="M548.3,864.3l2.3,-0.8l1.5,-0.5l-0.5,1.5l-2.3,8.3l-0.8,2.6l-0.7,-2.6l-2.3,-8.3L545,863l1.5,0.5l0.5,0.6l2.3,8.2l-1.5,0.5l0,-0.5l2.4,-8.2l1.4,0.4l-0.4,0.5l-2.4,0.8Z" class="g2_1111" />
<path d="M546.5,863.5l2.3,0.8l0,1.5l-0.3,0.1l-0.2,-0.1L546,865Z" class="g2_1111" />
<path fill-rule="evenodd" d="M548.5,865.1l2.4,-0.9l-2.4,8.3l-2.3,-8.3Z" class="g2_1111" />
<path d="M508.9,844.4l0.8,0l0,-22.8l-0.8,0l0,22.8Z" class="g2_1111" />
<path d="M509.3,844.4l39.6,0l0,-0.7l-39.6,0l0,0.7Z" class="g2_1111" />
<path d="M548.2,863.9l0.7,0l0,-19.8l-0.7,0l0,19.8Z" class="g2_1111" />
</svg>