<?xml version="1.0" encoding="UTF-8" standalone="no"?>
<!DOCTYPE svg PUBLIC "-//W3C//DTD SVG 1.1//EN"
"http://www.w3.org/Graphics/SVG/1.1/DTD/svg11.dtd">
<svg viewBox="0 0 935 1210" version="1.1" xmlns="http://www.w3.org/2000/svg" xmlns:xlink="http://www.w3.org/1999/xlink">
<defs>
<style type="text/css"><![CDATA[
.g1_2130{
fill: #FFFFFF;
}
.g2_2130{
}
]]></style>
</defs>
<path d="M68.8,1149.3l783.7,0l0,-21.2l-783.7,0l0,21.2Z" class="g1_2130" />
<path d="M68.6,1078.3l0.7,0l0,-971l-0.7,0l0,971Z" class="g2_2130" />
<path d="M443.8,1079l0.8,0l0,-972.4l-0.8,0l0,972.4Z" class="g2_2130" />
<path d="M849.9,1078.3l0.8,0l0,-971l-0.8,0l0,971Z" class="g2_2130" />
<path d="M68.6,107.3l782.1,0l0,-0.7l-782.1,0l0,0.7Z" class="g2_2130" />
<path d="M68.6,131.7l782.1,0l0,-0.7L68.6,131l0,0.7Z" class="g2_2130" />
<path d="M68.6,171.5l782.1,0l0,-0.7l-782.1,0l0,0.7Z" class="g2_2130" />
<path d="M68.6,195.9l782.1,0l0,-0.7l-782.1,0l0,0.7Z" class="g2_2130" />
<path d="M68.6,220.4l782.1,0l0,-0.8l-782.1,0l0,0.8Z" class="g2_2130" />
<path d="M68.6,260.1l782.1,0l0,-0.8l-782.1,0l0,0.8Z" class="g2_2130" />
<path d="M68.6,284.5l782.1,0l0,-0.7l-782.1,0l0,0.7Z" class="g2_2130" />
<path d="M68.6,309l782.1,0l0,-0.7l-782.1,0l0,0.7Z" class="g2_2130" />
<path d="M68.6,333.4l782.1,0l0,-0.7l-782.1,0l0,0.7Z" class="g2_2130" />
<path d="M68.6,357.9l782.1,0l0,-0.8l-782.1,0l0,0.8Z" class="g2_2130" />
<path d="M68.6,382.3l782.1,0l0,-0.7l-782.1,0l0,0.7Z" class="g2_2130" />
<path d="M68.6,422l782.1,0l0,-0.7l-782.1,0l0,0.7Z" class="g2_2130" />
<path d="M68.6,446.5l782.1,0l0,-0.7l-782.1,0l0,0.7Z" class="g2_2130" />
<path d="M68.6,471l782.1,0l0,-0.8l-782.1,0l0,0.8Z" class="g2_2130" />
<path d="M68.6,510.7l782.1,0l0,-0.8l-782.1,0l0,0.8Z" class="g2_2130" />
<path d="M68.6,535.2l782.1,0l0,-0.8l-782.1,0l0,0.8Z" class="g2_2130" />
<path d="M68.6,559.5l782.1,0l0,-0.7l-782.1,0l0,0.7Z" class="g2_2130" />
<path d="M68.6,584l782.1,0l0,-0.7l-782.1,0l0,0.7Z" class="g2_2130" />
<path d="M68.6,608.5l782.1,0l0,-0.8l-782.1,0l0,0.8Z" class="g2_2130" />
<path d="M68.6,632.9l782.1,0l0,-0.8l-782.1,0l0,0.8Z" class="g2_2130" />
<path d="M68.6,672.7l782.1,0l0,-0.8l-782.1,0l0,0.8Z" class="g2_2130" />
<path d="M68.6,697l782.1,0l0,-0.7l-782.1,0l0,0.7Z" class="g2_2130" />
<path d="M68.6,721.5l782.1,0l0,-0.7l-782.1,0l0,0.7Z" class="g2_2130" />
<path d="M68.6,746l782.1,0l0,-0.7l-782.1,0l0,0.7Z" class="g2_2130" />
<path d="M68.6,770.4l782.1,0l0,-0.8l-782.1,0l0,0.8Z" class="g2_2130" />
<path d="M68.6,794.8l782.1,0l0,-0.7l-782.1,0l0,0.7Z" class="g2_2130" />
<path d="M68.6,834.5l782.1,0l0,-0.7l-782.1,0l0,0.7Z" class="g2_2130" />
<path d="M68.6,859l782.1,0l0,-0.7l-782.1,0l0,0.7Z" class="g2_2130" />
<path d="M68.6,883.5l782.1,0l0,-0.8l-782.1,0l0,0.8Z" class="g2_2130" />
<path d="M68.6,907.9l782.1,0l0,-0.8l-782.1,0l0,0.8Z" class="g2_2130" />
<path d="M68.6,932.3l782.1,0l0,-0.7l-782.1,0l0,0.7Z" class="g2_2130" />
<path d="M68.6,956.8l782.1,0l0,-0.7l-782.1,0l0,0.7Z" class="g2_2130" />
<path d="M68.6,981.2l782.1,0l0,-0.7l-782.1,0l0,0.7Z" class="g2_2130" />
<path d="M68.6,1005.7l782.1,0l0,-0.8l-782.1,0l0,0.8Z" class="g2_2130" />
<path d="M68.6,1030.2l782.1,0l0,-0.8l-782.1,0l0,0.8Z" class="g2_2130" />
<path d="M68.6,1054.5l782.1,0l0,-0.7l-782.1,0l0,0.7Z" class="g2_2130" />
<path d="M68.6,1079l782.1,0l0,-0.7l-782.1,0l0,0.7Z" class="g2_2130" />
</svg>