<?xml version="1.0" encoding="UTF-8" standalone="no"?>
<!DOCTYPE svg PUBLIC "-//W3C//DTD SVG 1.1//EN"
"http://www.w3.org/Graphics/SVG/1.1/DTD/svg11.dtd">
<svg viewBox="0 0 935 1210" version="1.1" xmlns="http://www.w3.org/2000/svg" xmlns:xlink="http://www.w3.org/1999/xlink">
<defs>
<style type="text/css"><![CDATA[
.g1_656{
fill: #FFFFFF;
}
.g2_656{
}
]]></style>
</defs>
<path d="M165,1149.3l687.5,0l0,-21.2l-687.5,0l0,21.2Z" class="g1_656" />
<path d="M68.8,1149.3l82.5,0l0,-21.2l-82.5,0l0,21.2Z" class="g1_656" />
<path d="M68.6,235.1l0.7,0l0,-72.5l-0.7,0l0,72.5Z" class="g2_656" />
<path d="M134.3,236l0.7,0l0,-74.2l-0.7,0l0,74.2Z" class="g2_656" />
<path d="M277.3,236l0.7,0l0,-74.2l-0.7,0l0,74.2Z" class="g2_656" />
<path d="M852.6,235.1l0.7,0l0,-72.5l-0.7,0l0,72.5Z" class="g2_656" />
<path d="M68.6,162.5l784.7,0l0,-0.7l-784.7,0l0,0.7Z" class="g2_656" />
<path d="M68.6,187l784.7,0l0,-0.7l-784.7,0l0,0.7Z" class="g2_656" />
<path d="M68.6,235.9l784.7,0l0,-0.8l-784.7,0l0,0.8Z" class="g2_656" />
<path d="M68.6,459.7l0.7,0l0,-122.9l-0.7,0l0,122.9Z" class="g2_656" />
<path d="M139.2,460.5l0.7,0l0,-124.5l-0.7,0l0,124.5Z" class="g2_656" />
<path d="M265.7,460.5l0.7,0l0,-124.5l-0.7,0l0,124.5Z" class="g2_656" />
<path d="M852.3,459.7l0.8,0l0,-122.9l-0.8,0l0,122.9Z" class="g2_656" />
<path d="M68.6,336.8l784.4,0l0,-0.7l-784.4,0l0,0.7Z" class="g2_656" />
<path d="M68.6,361.2l784.4,0l0,-0.8l-784.4,0l0,0.8Z" class="g2_656" />
<path d="M68.6,460.5l784.4,0l0,-0.7l-784.4,0l0,0.7Z" class="g2_656" />
<path d="M68.6,878.5l0.7,0l0,-143l-0.7,0l0,143Z" class="g2_656" />
<path d="M180.1,879.3l0.8,0l0,-144.5l-0.8,0l0,144.5Z" class="g2_656" />
<path d="M301.6,879.3l0.7,0l0,-144.5l-0.7,0l0,144.5Z" class="g2_656" />
<path d="M429.2,879.3l0.7,0l0,-144.5l-0.7,0l0,144.5Z" class="g2_656" />
<path d="M547.5,879.3l0.8,0l0,-144.5l-0.8,0l0,144.5Z" class="g2_656" />
<path d="M685.9,879.3l0.7,0l0,-144.5l-0.7,0l0,144.5Z" class="g2_656" />
<path d="M851.9,878.5l0.7,0l0,-143l-0.7,0l0,143Z" class="g2_656" />
<path d="M68.6,735.5l784,0l0,-0.7l-784,0l0,0.7Z" class="g2_656" />
<path d="M68.6,781.5l784,0l0,-0.8l-784,0l0,0.8Z" class="g2_656" />
<path d="M68.6,805.9l784,0l0,-0.7l-784,0l0,0.7Z" class="g2_656" />
<path d="M68.6,830.4l784,0l0,-0.7l-784,0l0,0.7Z" class="g2_656" />
<path d="M68.6,854.8l784,0l0,-0.7l-784,0l0,0.7Z" class="g2_656" />
<path d="M68.6,879.3l784,0l0,-0.8l-784,0l0,0.8Z" class="g2_656" />
</svg>