<?xml version="1.0" encoding="UTF-8" standalone="no"?>
<!DOCTYPE svg PUBLIC "-//W3C//DTD SVG 1.1//EN"
"http://www.w3.org/Graphics/SVG/1.1/DTD/svg11.dtd">
<svg viewBox="0 0 935 1210" version="1.1" xmlns="http://www.w3.org/2000/svg" xmlns:xlink="http://www.w3.org/1999/xlink">
<defs>
<style type="text/css"><![CDATA[
.g1_1097{
fill: #FFFFFF;
}
.g2_1097{
}
]]></style>
</defs>
<path d="M68.9,1149.3l686.3,0l0,-21.2l-686.3,0l0,21.2Z" class="g1_1097" />
<path d="M771.3,1149.3l83.7,0l0,-21.2l-83.7,0l0,21.2Z" class="g1_1097" />
<path d="M64.6,1087.4l0.8,0l0,-955.6l-0.8,0l0,955.6Z" class="g2_1097" />
<path d="M359.8,1088.2l0.7,0l0,-957.2l-0.7,0l0,957.2Z" class="g2_1097" />
<path d="M403.4,1088.2l0.8,0l0,-957.2l-0.8,0l0,957.2Z" class="g2_1097" />
<path d="M476.8,1088.2l0.7,0l0,-957.2l-0.7,0l0,957.2Z" class="g2_1097" />
<path d="M556.1,1088.2l0.8,0l0,-957.2l-0.8,0l0,957.2Z" class="g2_1097" />
<path d="M857.4,1087.4l0.7,0l0,-955.6l-0.7,0l0,955.6Z" class="g2_1097" />
<path d="M64.6,131.7l793.6,0l0,-0.7L64.6,131l0,0.7Z" class="g2_1097" />
<path d="M64.6,185.3l793.6,0l0,-0.8l-793.6,0l0,0.8Z" class="g2_1097" />
<path d="M64.6,229.5l793.6,0l0,-0.7l-793.6,0l0,0.7Z" class="g2_1097" />
<path d="M64.6,273.8l793.6,0l0,-0.7l-793.6,0l0,0.7Z" class="g2_1097" />
<path d="M64.6,318.2l793.6,0l0,-0.8l-793.6,0l0,0.8Z" class="g2_1097" />
<path d="M64.6,362.4l793.6,0l0,-0.7l-793.6,0l0,0.7Z" class="g2_1097" />
<path d="M64.6,406.8l793.6,0l0,-0.7l-793.6,0l0,0.7Z" class="g2_1097" />
<path d="M64.6,451.1l793.6,0l0,-0.7l-793.6,0l0,0.7Z" class="g2_1097" />
<path d="M64.6,495.4l793.6,0l0,-0.8l-793.6,0l0,0.8Z" class="g2_1097" />
<path d="M64.6,539.7l793.6,0l0,-0.7L64.6,539l0,0.7Z" class="g2_1097" />
<path d="M64.6,584l793.6,0l0,-0.7l-793.6,0l0,0.7Z" class="g2_1097" />
<path d="M64.6,628.3l793.6,0l0,-0.7l-793.6,0l0,0.7Z" class="g2_1097" />
<path d="M64.6,684.8l793.6,0l0,-0.7l-793.6,0l0,0.7Z" class="g2_1097" />
<path d="M64.6,729.1l793.6,0l0,-0.7l-793.6,0l0,0.7Z" class="g2_1097" />
<path d="M64.6,773.5l793.6,0l0,-0.8l-793.6,0l0,0.8Z" class="g2_1097" />
<path d="M64.6,817.8l793.6,0l0,-0.8L64.6,817l0,0.8Z" class="g2_1097" />
<path d="M64.6,874.3l793.6,0l0,-0.7l-793.6,0l0,0.7Z" class="g2_1097" />
<path d="M64.6,918.6l793.6,0l0,-0.7l-793.6,0l0,0.7Z" class="g2_1097" />
<path d="M64.6,975.2l793.6,0l0,-0.8l-793.6,0l0,0.8Z" class="g2_1097" />
<path d="M64.6,1031.6l793.6,0l0,-0.7l-793.6,0l0,0.7Z" class="g2_1097" />
<path d="M64.6,1088.2l793.6,0l0,-0.8l-793.6,0l0,0.8Z" class="g2_1097" />
</svg>