<?xml version="1.0" encoding="UTF-8" standalone="no"?>
<!DOCTYPE svg PUBLIC "-//W3C//DTD SVG 1.1//EN"
"http://www.w3.org/Graphics/SVG/1.1/DTD/svg11.dtd">
<svg viewBox="0 0 935 1210" version="1.1" xmlns="http://www.w3.org/2000/svg" xmlns:xlink="http://www.w3.org/1999/xlink">
<defs>
<style type="text/css"><![CDATA[
.g1_255{
fill: #FFFFFF;
}
.g2_255{
}
]]></style>
</defs>
<path d="M68.9,1149.3l686.3,0l0,-21.2l-686.3,0l0,21.2Z" class="g1_255" />
<path d="M771.3,1149.3l83.7,0l0,-21.2l-83.7,0l0,21.2Z" class="g1_255" />
<path d="M70.3,707l0.7,0L71,131.8l-0.7,0l0,575.2Z" class="g2_255" />
<path d="M221.3,707.8l0.7,0L222,131l-0.7,0l0,576.8Z" class="g2_255" />
<path d="M392.6,707.8l0.7,0l0,-576.8l-0.7,0l0,576.8Z" class="g2_255" />
<path d="M430.4,707.8l0.7,0l0,-576.8l-0.7,0l0,576.8Z" class="g2_255" />
<path d="M503.6,707.8l0.7,0l0,-576.8l-0.7,0l0,576.8Z" class="g2_255" />
<path d="M574.9,707.8l0.8,0l0,-576.8l-0.8,0l0,576.8Z" class="g2_255" />
<path d="M851.7,707l0.7,0l0,-575.2l-0.7,0l0,575.2Z" class="g2_255" />
<path d="M70.3,131.7l782.1,0l0,-0.7L70.3,131l0,0.7Z" class="g2_255" />
<path d="M70.3,169.9l782.1,0l0,-0.7l-782.1,0l0,0.7Z" class="g2_255" />
<path d="M70.3,192.9l782.1,0l0,-0.8l-782.1,0l0,0.8Z" class="g2_255" />
<path d="M70.3,215.8l782.1,0l0,-0.8L70.3,215l0,0.8Z" class="g2_255" />
<path d="M70.3,238.7l782.1,0l0,-0.7L70.3,238l0,0.7Z" class="g2_255" />
<path d="M70.3,278.4l782.1,0l0,-0.7l-782.1,0l0,0.7Z" class="g2_255" />
<path d="M70.3,301.3l782.1,0l0,-0.7l-782.1,0l0,0.7Z" class="g2_255" />
<path d="M70.3,324.2l782.1,0l0,-0.7l-782.1,0l0,0.7Z" class="g2_255" />
<path d="M70.3,347.1l782.1,0l0,-0.7l-782.1,0l0,0.7Z" class="g2_255" />
<path d="M70.3,370.1l782.1,0l0,-0.8l-782.1,0l0,0.8Z" class="g2_255" />
<path d="M70.3,409.8l782.1,0l0,-0.7l-782.1,0l0,0.7Z" class="g2_255" />
<path d="M70.3,432.8l782.1,0l0,-0.8L70.3,432l0,0.8Z" class="g2_255" />
<path d="M70.3,455.7l782.1,0l0,-0.8l-782.1,0l0,0.8Z" class="g2_255" />
<path d="M70.3,478.6l782.1,0l0,-0.7l-782.1,0l0,0.7Z" class="g2_255" />
<path d="M70.3,501.5l782.1,0l0,-0.7l-782.1,0l0,0.7Z" class="g2_255" />
<path d="M70.3,524.4l782.1,0l0,-0.7l-782.1,0l0,0.7Z" class="g2_255" />
<path d="M70.3,547.3l782.1,0l0,-0.7l-782.1,0l0,0.7Z" class="g2_255" />
<path d="M70.3,570.3l782.1,0l0,-0.8l-782.1,0l0,0.8Z" class="g2_255" />
<path d="M70.3,593.2l782.1,0l0,-0.8l-782.1,0l0,0.8Z" class="g2_255" />
<path d="M70.3,616.1l782.1,0l0,-0.7l-782.1,0l0,0.7Z" class="g2_255" />
<path d="M70.3,639l782.1,0l0,-0.7l-782.1,0l0,0.7Z" class="g2_255" />
<path d="M70.3,661.9l782.1,0l0,-0.7l-782.1,0l0,0.7Z" class="g2_255" />
<path d="M70.3,684.8l782.1,0l0,-0.7l-782.1,0l0,0.7Z" class="g2_255" />
<path d="M70.3,707.8l782.1,0l0,-0.8L70.3,707l0,0.8Z" class="g2_255" />
<path d="M71,924l0.8,0l0,-121.5l-0.8,0L71,924Z" class="g2_255" />
<path d="M139,924.7l0.7,0l0,-123l-0.7,0l0,123Z" class="g2_255" />
<path d="M311.4,924.7l0.7,0l0,-123l-0.7,0l0,123Z" class="g2_255" />
<path d="M491.9,924.7l0.7,0l0,-123l-0.7,0l0,123Z" class="g2_255" />
<path d="M669.3,924.7l0.8,0l0,-123l-0.8,0l0,123Z" class="g2_255" />
<path d="M850.9,924l0.8,0l0,-121.5l-0.8,0l0,121.5Z" class="g2_255" />
<path d="M71,802.4l780.7,0l0,-0.7L71,801.7l0,0.7Z" class="g2_255" />
<path d="M71,826.9l780.7,0l0,-0.7L71,826.2l0,0.7Z" class="g2_255" />
<path d="M71,851.4l780.7,0l0,-0.7L71,850.7l0,0.7Z" class="g2_255" />
<path d="M71,875.8l780.7,0l0,-0.7L71,875.1l0,0.7Z" class="g2_255" />
<path d="M71,900.3l780.7,0l0,-0.8L71,899.5l0,0.8Z" class="g2_255" />
<path d="M71,924.7l780.7,0l0,-0.7L71,924l0,0.7Z" class="g2_255" />
</svg>