<?xml version="1.0" encoding="UTF-8" standalone="no"?>
<!DOCTYPE svg PUBLIC "-//W3C//DTD SVG 1.1//EN"
"http://www.w3.org/Graphics/SVG/1.1/DTD/svg11.dtd">
<svg viewBox="0 0 935 1210" version="1.1" xmlns="http://www.w3.org/2000/svg" xmlns:xlink="http://www.w3.org/1999/xlink">
<defs>
<style type="text/css"><![CDATA[
.g1_1774{
fill: #FFFFFF;
}
.g2_1774{
}
]]></style>
</defs>
<path d="M165,1149.3l687.5,0l0,-21.2l-687.5,0l0,21.2Z" class="g1_1774" />
<path d="M68.8,1149.3l82.5,0l0,-21.2l-82.5,0l0,21.2Z" class="g1_1774" />
<path d="M68.6,757.4l0.7,0l0,-631.7l-0.7,0l0,631.7Z" class="g2_1774" />
<path d="M318.6,758.2l0.8,0l0,-633.3l-0.8,0l0,633.3Z" class="g2_1774" />
<path d="M367.7,758.2l0.7,0l0,-633.3l-0.7,0l0,633.3Z" class="g2_1774" />
<path d="M441,758.2l0.7,0l0,-633.3l-0.7,0l0,633.3Z" class="g2_1774" />
<path d="M524.8,758.2l0.7,0l0,-633.3l-0.7,0l0,633.3Z" class="g2_1774" />
<path d="M853.6,757.4l0.7,0l0,-631.7l-0.7,0l0,631.7Z" class="g2_1774" />
<path d="M68.6,125.7l785.8,0l0,-0.8l-785.8,0l0,0.8Z" class="g2_1774" />
<path d="M68.6,176.1l785.8,0l0,-0.7l-785.8,0l0,0.7Z" class="g2_1774" />
<path d="M68.6,229.5l785.8,0l0,-0.7l-785.8,0l0,0.7Z" class="g2_1774" />
<path d="M68.6,299.8l785.8,0l0,-0.7l-785.8,0l0,0.7Z" class="g2_1774" />
<path d="M68.6,370.1l785.8,0l0,-0.8l-785.8,0l0,0.8Z" class="g2_1774" />
<path d="M68.6,423.6l785.8,0l0,-0.7l-785.8,0l0,0.7Z" class="g2_1774" />
<path d="M68.6,493.9l785.8,0l0,-0.7l-785.8,0l0,0.7Z" class="g2_1774" />
<path d="M68.6,564.1l785.8,0l0,-0.7l-785.8,0l0,0.7Z" class="g2_1774" />
<path d="M68.6,617.7l785.8,0l0,-0.8l-785.8,0l0,0.8Z" class="g2_1774" />
<path d="M68.6,687.9l785.8,0l0,-0.8l-785.8,0l0,0.8Z" class="g2_1774" />
<path d="M68.6,758.2l785.8,0l0,-0.8l-785.8,0l0,0.8Z" class="g2_1774" />
<path d="M69.1,861.3l0.8,0l0,-48.1l-0.8,0l0,48.1Z" class="g2_1774" />
<path d="M183.7,862.1l0.7,0l0,-49.7l-0.7,0l0,49.7Z" class="g2_1774" />
<path d="M348.7,862.1l0.7,0l0,-49.7l-0.7,0l0,49.7Z" class="g2_1774" />
<path d="M520.2,862.1l0.7,0l0,-49.7l-0.7,0l0,49.7Z" class="g2_1774" />
<path d="M684.4,862.1l0.7,0l0,-49.7l-0.7,0l0,49.7Z" class="g2_1774" />
<path d="M851.2,861.3l0.7,0l0,-48.1l-0.7,0l0,48.1Z" class="g2_1774" />
<path d="M69.1,813.2l782.9,0l0,-0.8l-782.9,0l0,0.8Z" class="g2_1774" />
<path d="M69.1,837.7l782.9,0l0,-0.8l-782.9,0l0,0.8Z" class="g2_1774" />
<path d="M69.1,862L852,862l0,-0.7l-782.9,0l0,0.7Z" class="g2_1774" />
</svg>