<?xml version="1.0" encoding="UTF-8" standalone="no"?>
<!DOCTYPE svg PUBLIC "-//W3C//DTD SVG 1.1//EN"
"http://www.w3.org/Graphics/SVG/1.1/DTD/svg11.dtd">
<svg viewBox="0 0 935 1210" version="1.1" xmlns="http://www.w3.org/2000/svg" xmlns:xlink="http://www.w3.org/1999/xlink">
<defs>
<style type="text/css"><![CDATA[
.g1_1641{
fill: #FFFFFF;
}
.g2_1641{
}
]]></style>
</defs>
<path d="M68.9,1149.3l686.3,0l0,-21.2l-686.3,0l0,21.2Z" class="g1_1641" />
<path d="M771.3,1149.3l83.7,0l0,-21.2l-83.7,0l0,21.2Z" class="g1_1641" />
<path d="M69.9,395.4l0.8,0l0,-269.7l-0.8,0l0,269.7Z" class="g2_1641" />
<path d="M292.1,396.1l0.7,0l0,-271.2l-0.7,0l0,271.2Z" class="g2_1641" />
<path d="M339.1,396.1l0.7,0l0,-271.2l-0.7,0l0,271.2Z" class="g2_1641" />
<path d="M413.5,396.1l0.7,0l0,-271.2l-0.7,0l0,271.2Z" class="g2_1641" />
<path d="M496.8,396.1l0.8,0l0,-271.2l-0.8,0l0,271.2Z" class="g2_1641" />
<path d="M855.1,395.4l0.7,0l0,-269.7l-0.7,0l0,269.7Z" class="g2_1641" />
<path d="M69.9,125.7l785.9,0l0,-0.8l-785.9,0l0,0.8Z" class="g2_1641" />
<path d="M69.9,176.1l785.9,0l0,-0.7l-785.9,0l0,0.7Z" class="g2_1641" />
<path d="M69.9,212.8l785.9,0l0,-0.8L69.9,212l0,0.8Z" class="g2_1641" />
<path d="M69.9,249.4l785.9,0l0,-0.7l-785.9,0l0,0.7Z" class="g2_1641" />
<path d="M69.9,286.1l785.9,0l0,-0.7l-785.9,0l0,0.7Z" class="g2_1641" />
<path d="M69.9,322.8l785.9,0l0,-0.8L69.9,322l0,0.8Z" class="g2_1641" />
<path d="M69.9,359.4l785.9,0l0,-0.7l-785.9,0l0,0.7Z" class="g2_1641" />
<path d="M69.9,396.1l785.9,0l0,-0.7l-785.9,0l0,0.7Z" class="g2_1641" />
<path d="M72.1,516l0.8,0l0,-64.9l-0.8,0l0,64.9Z" class="g2_1641" />
<path d="M182.5,516.8l0.7,0l0,-66.4l-0.7,0l0,66.4Z" class="g2_1641" />
<path d="M347.4,516.8l0.7,0l0,-66.4l-0.7,0l0,66.4Z" class="g2_1641" />
<path d="M509.8,516.8l0.7,0l0,-66.4l-0.7,0l0,66.4Z" class="g2_1641" />
<path d="M680.4,516.8l0.8,0l0,-66.4l-0.8,0l0,66.4Z" class="g2_1641" />
<path d="M849.8,516l0.8,0l0,-64.9l-0.8,0l0,64.9Z" class="g2_1641" />
<path d="M72.1,451.1l778.5,0l0,-0.7l-778.5,0l0,0.7Z" class="g2_1641" />
<path d="M72.1,475.6l778.5,0l0,-0.8l-778.5,0l0,0.8Z" class="g2_1641" />
<path d="M72.1,516.8l778.5,0l0,-0.7l-778.5,0l0,0.7Z" class="g2_1641" />
</svg>