<?xml version="1.0" encoding="UTF-8" standalone="no"?>
<!DOCTYPE svg PUBLIC "-//W3C//DTD SVG 1.1//EN"
"http://www.w3.org/Graphics/SVG/1.1/DTD/svg11.dtd">
<svg viewBox="0 0 935 1210" version="1.1" xmlns="http://www.w3.org/2000/svg" xmlns:xlink="http://www.w3.org/1999/xlink">
<defs>
<style type="text/css"><![CDATA[
.g1_818{
fill: #FFFFFF;
}
.g2_818{
}
]]></style>
</defs>
<path d="M165,1149.3l687.5,0l0,-21.2l-687.5,0l0,21.2Z" class="g1_818" />
<path d="M68.8,1149.3l82.5,0l0,-21.2l-82.5,0l0,21.2Z" class="g1_818" />
<path d="M70.1,673.4l0.8,0l0,-541.6l-0.8,0l0,541.6Z" class="g2_818" />
<path d="M220.7,674.1l0.8,0l0,-543.1l-0.8,0l0,543.1Z" class="g2_818" />
<path d="M391.7,674.1l0.7,0l0,-543.1l-0.7,0l0,543.1Z" class="g2_818" />
<path d="M429.6,674.1l0.7,0l0,-543.1l-0.7,0l0,543.1Z" class="g2_818" />
<path d="M502.9,674.1l0.7,0l0,-543.1l-0.7,0l0,543.1Z" class="g2_818" />
<path d="M574.3,674.1l0.7,0L575,131l-0.7,0l0,543.1Z" class="g2_818" />
<path d="M850.3,673.4l0.7,0l0,-541.6l-0.7,0l0,541.6Z" class="g2_818" />
<path d="M70.1,131.7l780.9,0l0,-0.7L70.1,131l0,0.7Z" class="g2_818" />
<path d="M70.1,169.9l780.9,0l0,-0.7l-780.9,0l0,0.7Z" class="g2_818" />
<path d="M70.1,192.9l780.9,0l0,-0.8l-780.9,0l0,0.8Z" class="g2_818" />
<path d="M70.1,215.8l780.9,0l0,-0.8L70.1,215l0,0.8Z" class="g2_818" />
<path d="M70.1,238.7l780.9,0l0,-0.7L70.1,238l0,0.7Z" class="g2_818" />
<path d="M70.1,261.6l780.9,0l0,-0.7l-780.9,0l0,0.7Z" class="g2_818" />
<path d="M70.1,284.5l780.9,0l0,-0.7l-780.9,0l0,0.7Z" class="g2_818" />
<path d="M70.1,307.4l780.9,0l0,-0.7l-780.9,0l0,0.7Z" class="g2_818" />
<path d="M70.1,330.4l780.9,0l0,-0.8l-780.9,0l0,0.8Z" class="g2_818" />
<path d="M70.1,353.3l780.9,0l0,-0.7l-780.9,0l0,0.7Z" class="g2_818" />
<path d="M70.1,376.2l780.9,0l0,-0.7l-780.9,0l0,0.7Z" class="g2_818" />
<path d="M70.1,399.1l780.9,0l0,-0.7l-780.9,0l0,0.7Z" class="g2_818" />
<path d="M70.1,422L851,422l0,-0.7l-780.9,0l0,0.7Z" class="g2_818" />
<path d="M70.1,444.9l780.9,0l0,-0.7l-780.9,0l0,0.7Z" class="g2_818" />
<path d="M70.1,467.9l780.9,0l0,-0.8l-780.9,0l0,0.8Z" class="g2_818" />
<path d="M70.1,490.8l780.9,0l0,-0.8L70.1,490l0,0.8Z" class="g2_818" />
<path d="M70.1,513.7l780.9,0l0,-0.7L70.1,513l0,0.7Z" class="g2_818" />
<path d="M70.1,536.6l780.9,0l0,-0.7l-780.9,0l0,0.7Z" class="g2_818" />
<path d="M70.1,559.5l780.9,0l0,-0.7l-780.9,0l0,0.7Z" class="g2_818" />
<path d="M70.1,582.4l780.9,0l0,-0.7l-780.9,0l0,0.7Z" class="g2_818" />
<path d="M70.1,605.4l780.9,0l0,-0.8l-780.9,0l0,0.8Z" class="g2_818" />
<path d="M70.1,628.3l780.9,0l0,-0.7l-780.9,0l0,0.7Z" class="g2_818" />
<path d="M70.1,651.2l780.9,0l0,-0.7l-780.9,0l0,0.7Z" class="g2_818" />
<path d="M70.1,674.1l780.9,0l0,-0.7l-780.9,0l0,0.7Z" class="g2_818" />
<path d="M69.7,890.4l0.7,0l0,-121.5l-0.7,0l0,121.5Z" class="g2_818" />
<path d="M138.8,891.1l0.7,0l0,-123l-0.7,0l0,123Z" class="g2_818" />
<path d="M313.6,891.1l0.7,0l0,-123l-0.7,0l0,123Z" class="g2_818" />
<path d="M494.1,891.1l0.7,0l0,-123l-0.7,0l0,123Z" class="g2_818" />
<path d="M671.6,891.1l0.7,0l0,-123l-0.7,0l0,123Z" class="g2_818" />
<path d="M850.8,890.4l0.7,0l0,-121.5l-0.7,0l0,121.5Z" class="g2_818" />
<path d="M69.7,768.9l781.8,0l0,-0.7l-781.8,0l0,0.7Z" class="g2_818" />
<path d="M69.7,793.3l781.8,0l0,-0.7l-781.8,0l0,0.7Z" class="g2_818" />
<path d="M69.7,817.8l781.8,0l0,-0.8L69.7,817l0,0.8Z" class="g2_818" />
<path d="M69.7,842.2l781.8,0l0,-0.7l-781.8,0l0,0.7Z" class="g2_818" />
<path d="M69.7,866.6l781.8,0l0,-0.7l-781.8,0l0,0.7Z" class="g2_818" />
<path d="M69.7,891.1l781.8,0l0,-0.7l-781.8,0l0,0.7Z" class="g2_818" />
</svg>