<?xml version="1.0" encoding="UTF-8" standalone="no"?>
<!DOCTYPE svg PUBLIC "-//W3C//DTD SVG 1.1//EN"
"http://www.w3.org/Graphics/SVG/1.1/DTD/svg11.dtd">
<svg viewBox="0 0 935 1210" version="1.1" xmlns="http://www.w3.org/2000/svg" xmlns:xlink="http://www.w3.org/1999/xlink">
<defs>
<style type="text/css"><![CDATA[
.g1_1004{
fill: #FFFFFF;
}
.g2_1004{
}
]]></style>
</defs>
<path d="M165,1149.3l687.5,0l0,-21.2l-687.5,0l0,21.2Z" class="g1_1004" />
<path d="M68.8,1149.3l82.5,0l0,-21.2l-82.5,0l0,21.2Z" class="g1_1004" />
<path d="M68.6,317.4l0.7,0l0,-210.1l-0.7,0l0,210.1Z" class="g2_1004" />
<path d="M323.2,318.2l0.7,0l0,-211.6l-0.7,0l0,211.6Z" class="g2_1004" />
<path d="M371.6,318.2l0.8,0l0,-211.6l-0.8,0l0,211.6Z" class="g2_1004" />
<path d="M444.9,318.2l0.8,0l0,-211.6l-0.8,0l0,211.6Z" class="g2_1004" />
<path d="M532.8,318.2l0.7,0l0,-211.6l-0.7,0l0,211.6Z" class="g2_1004" />
<path d="M853.1,317.4l0.8,0l0,-210.1l-0.8,0l0,210.1Z" class="g2_1004" />
<path d="M68.6,107.3l785.3,0l0,-0.7l-785.3,0l0,0.7Z" class="g2_1004" />
<path d="M68.6,157.8l785.3,0l0,-0.8L68.6,157l0,0.8Z" class="g2_1004" />
<path d="M68.6,211.2l785.3,0l0,-0.7l-785.3,0l0,0.7Z" class="g2_1004" />
<path d="M68.6,264.6l785.3,0l0,-0.7l-785.3,0l0,0.7Z" class="g2_1004" />
<path d="M68.6,318.2l785.3,0l0,-0.8l-785.3,0l0,0.8Z" class="g2_1004" />
<path d="M70.8,442.7l0.7,0l0,-72.6l-0.7,0l0,72.6Z" class="g2_1004" />
<path d="M204.2,443.5l0.8,0l0,-74.2l-0.8,0l0,74.2Z" class="g2_1004" />
<path d="M367.8,443.5l0.7,0l0,-74.2l-0.7,0l0,74.2Z" class="g2_1004" />
<path d="M523.6,443.5l0.7,0l0,-74.2l-0.7,0l0,74.2Z" class="g2_1004" />
<path d="M683.6,443.5l0.7,0l0,-74.2l-0.7,0l0,74.2Z" class="g2_1004" />
<path d="M849.7,442.7l0.7,0l0,-72.6l-0.7,0l0,72.6Z" class="g2_1004" />
<path d="M70.8,370.1l779.6,0l0,-0.8l-779.6,0l0,0.8Z" class="g2_1004" />
<path d="M70.8,394.5l779.6,0l0,-0.7l-779.6,0l0,0.7Z" class="g2_1004" />
<path d="M70.8,419l779.6,0l0,-0.7l-779.6,0l0,0.7Z" class="g2_1004" />
<path d="M70.8,443.5l779.6,0l0,-0.8l-779.6,0l0,0.8Z" class="g2_1004" />
</svg>