<?xml version="1.0" encoding="UTF-8" standalone="no"?>
<!DOCTYPE svg PUBLIC "-//W3C//DTD SVG 1.1//EN"
"http://www.w3.org/Graphics/SVG/1.1/DTD/svg11.dtd">
<svg viewBox="0 0 935 1210" version="1.1" xmlns="http://www.w3.org/2000/svg" xmlns:xlink="http://www.w3.org/1999/xlink">
<defs>
<style type="text/css"><![CDATA[
.g1_620{
fill: #FFFFFF;
}
.g2_620{
}
]]></style>
</defs>
<path d="M165,1149.3l687.5,0l0,-21.2l-687.5,0l0,21.2Z" class="g1_620" />
<path d="M68.8,1149.3l82.5,0l0,-21.2l-82.5,0l0,21.2Z" class="g1_620" />
<path d="M71.9,311.3l0.7,0l0,-185.6l-0.7,0l0,185.6Z" class="g2_620" />
<path d="M387.7,312l0.7,0l0,-187.1l-0.7,0l0,187.1Z" class="g2_620" />
<path d="M425.5,312l0.8,0l0,-187.1l-0.8,0l0,187.1Z" class="g2_620" />
<path d="M498.8,312l0.8,0l0,-187.1l-0.8,0l0,187.1Z" class="g2_620" />
<path d="M570.3,312l0.7,0l0,-187.1l-0.7,0l0,187.1Z" class="g2_620" />
<path d="M848.6,311.3l0.7,0l0,-185.6l-0.7,0l0,185.6Z" class="g2_620" />
<path d="M71.8,125.7l777.5,0l0,-0.8l-777.5,0l0,0.8Z" class="g2_620" />
<path d="M71.8,179.1l777.5,0l0,-0.7l-777.5,0l0,0.7Z" class="g2_620" />
<path d="M71.8,223.4l777.5,0l0,-0.7l-777.5,0l0,0.7Z" class="g2_620" />
<path d="M71.8,267.8l777.5,0l0,-0.8L71.8,267l0,0.8Z" class="g2_620" />
<path d="M71.8,312l777.5,0l0,-0.7l-777.5,0l0,0.7Z" class="g2_620" />
<path d="M69.1,415.2l0.8,0l0,-48.2l-0.8,0l0,48.2Z" class="g2_620" />
<path d="M148.5,416l0.7,0l0,-49.7l-0.7,0l0,49.7Z" class="g2_620" />
<path d="M322.2,416l0.7,0l0,-49.7l-0.7,0l0,49.7Z" class="g2_620" />
<path d="M504.1,416l0.7,0l0,-49.7l-0.7,0l0,49.7Z" class="g2_620" />
<path d="M674.4,416l0.7,0l0,-49.7l-0.7,0l0,49.7Z" class="g2_620" />
<path d="M851.3,415.2l0.7,0L852,367l-0.7,0l0,48.2Z" class="g2_620" />
<path d="M69.1,367L852,367l0,-0.7l-782.9,0l0,0.7Z" class="g2_620" />
<path d="M69.1,391.5l782.9,0l0,-0.7l-782.9,0l0,0.7Z" class="g2_620" />
<path d="M69.1,416L852,416l0,-0.7l-782.9,0l0,0.7Z" class="g2_620" />
</svg>