<?xml version="1.0" encoding="UTF-8" standalone="no"?>
<!DOCTYPE svg PUBLIC "-//W3C//DTD SVG 1.1//EN"
"http://www.w3.org/Graphics/SVG/1.1/DTD/svg11.dtd">
<svg viewBox="0 0 935 1210" version="1.1" xmlns="http://www.w3.org/2000/svg" xmlns:xlink="http://www.w3.org/1999/xlink">
<defs>
<style type="text/css"><![CDATA[
.g1_2097{
fill: #FFFFFF;
}
.g2_2097{
}
]]></style>
</defs>
<path d="M68.9,1149.3l783.8,0l0,-21.2l-783.8,0l0,21.2Z" class="g1_2097" />
<path d="M69.9,1082.9l0.8,0l0,-958.8l-0.8,0l0,958.8Z" class="g2_2097" />
<path d="M417.4,1083.6l0.7,0l0,-960.2l-0.7,0l0,960.2Z" class="g2_2097" />
<path d="M853.2,1082.9l0.8,0l0,-958.8l-0.8,0l0,958.8Z" class="g2_2097" />
<path d="M69.9,124.1l784.2,0l0,-0.7l-784.2,0l0,0.7Z" class="g2_2097" />
<path d="M69.9,148.6l784.2,0l0,-0.7l-784.2,0l0,0.7Z" class="g2_2097" />
<path d="M69.9,173l784.2,0l0,-0.8l-784.2,0l0,0.8Z" class="g2_2097" />
<path d="M69.9,197.4l784.2,0l0,-0.7l-784.2,0l0,0.7Z" class="g2_2097" />
<path d="M69.9,237.1l784.2,0l0,-0.7l-784.2,0l0,0.7Z" class="g2_2097" />
<path d="M69.9,261.6l784.2,0l0,-0.7l-784.2,0l0,0.7Z" class="g2_2097" />
<path d="M69.9,286.1l784.2,0l0,-0.7l-784.2,0l0,0.7Z" class="g2_2097" />
<path d="M69.9,310.5l784.2,0l0,-0.8l-784.2,0l0,0.8Z" class="g2_2097" />
<path d="M69.9,334.9l784.2,0l0,-0.7l-784.2,0l0,0.7Z" class="g2_2097" />
<path d="M69.9,374.6l784.2,0l0,-0.7l-784.2,0l0,0.7Z" class="g2_2097" />
<path d="M69.9,399.1l784.2,0l0,-0.7l-784.2,0l0,0.7Z" class="g2_2097" />
<path d="M69.9,423.6l784.2,0l0,-0.7l-784.2,0l0,0.7Z" class="g2_2097" />
<path d="M69.9,463.3l784.2,0l0,-0.8l-784.2,0l0,0.8Z" class="g2_2097" />
<path d="M69.9,487.8l784.2,0l0,-0.8L69.9,487l0,0.8Z" class="g2_2097" />
<path d="M69.9,512.2l784.2,0l0,-0.7l-784.2,0l0,0.7Z" class="g2_2097" />
<path d="M69.9,551.9l784.2,0l0,-0.7l-784.2,0l0,0.7Z" class="g2_2097" />
<path d="M69.9,576.4l784.2,0l0,-0.7l-784.2,0l0,0.7Z" class="g2_2097" />
<path d="M69.9,600.8l784.2,0l0,-0.7l-784.2,0l0,0.7Z" class="g2_2097" />
<path d="M69.9,640.6l784.2,0l0,-0.8l-784.2,0l0,0.8Z" class="g2_2097" />
<path d="M69.9,664.9l784.2,0l0,-0.7l-784.2,0l0,0.7Z" class="g2_2097" />
<path d="M69.9,689.4l784.2,0l0,-0.7l-784.2,0l0,0.7Z" class="g2_2097" />
<path d="M69.9,729.1l784.2,0l0,-0.7l-784.2,0l0,0.7Z" class="g2_2097" />
<path d="M69.9,753.6l784.2,0l0,-0.7l-784.2,0l0,0.7Z" class="g2_2097" />
<path d="M69.9,778.1l784.2,0l0,-0.8l-784.2,0l0,0.8Z" class="g2_2097" />
<path d="M69.9,817.8l784.2,0l0,-0.8L69.9,817l0,0.8Z" class="g2_2097" />
<path d="M69.9,842.2l784.2,0l0,-0.7l-784.2,0l0,0.7Z" class="g2_2097" />
<path d="M69.9,866.6l784.2,0l0,-0.7l-784.2,0l0,0.7Z" class="g2_2097" />
<path d="M69.9,906.4l784.2,0l0,-0.7l-784.2,0l0,0.7Z" class="g2_2097" />
<path d="M69.9,930.8l784.2,0l0,-0.7l-784.2,0l0,0.7Z" class="g2_2097" />
<path d="M69.9,955.3l784.2,0l0,-0.8l-784.2,0l0,0.8Z" class="g2_2097" />
<path d="M69.9,995l784.2,0l0,-0.8l-784.2,0l0,0.8Z" class="g2_2097" />
<path d="M69.9,1019.4l784.2,0l0,-0.7l-784.2,0l0,0.7Z" class="g2_2097" />
<path d="M69.9,1043.9l784.2,0l0,-0.7l-784.2,0l0,0.7Z" class="g2_2097" />
<path d="M69.9,1083.6l784.2,0l0,-0.7l-784.2,0l0,0.7Z" class="g2_2097" />
</svg>