<?xml version="1.0" encoding="UTF-8" standalone="no"?>
<!DOCTYPE svg PUBLIC "-//W3C//DTD SVG 1.1//EN"
"http://www.w3.org/Graphics/SVG/1.1/DTD/svg11.dtd">
<svg viewBox="0 0 935 1210" version="1.1" xmlns="http://www.w3.org/2000/svg" xmlns:xlink="http://www.w3.org/1999/xlink">
<defs>
<style type="text/css"><![CDATA[
.g1_950{
fill: #FFFFFF;
}
.g2_950{
}
]]></style>
</defs>
<path d="M165,1149.3l687.5,0l0,-21.2l-687.5,0l0,21.2Z" class="g1_950" />
<path d="M68.8,1149.3l82.5,0l0,-21.2l-82.5,0l0,21.2Z" class="g1_950" />
<path d="M66.6,624.5l0.8,0l0,-498.8l-0.8,0l0,498.8Z" class="g2_950" />
<path d="M385.9,625.3l0.8,0l0,-500.4l-0.8,0l0,500.4Z" class="g2_950" />
<path d="M423.8,625.3l0.7,0l0,-500.4l-0.7,0l0,500.4Z" class="g2_950" />
<path d="M497.2,625.3l0.7,0l0,-500.4l-0.7,0l0,500.4Z" class="g2_950" />
<path d="M576.6,625.3l0.7,0l0,-500.4l-0.7,0l0,500.4Z" class="g2_950" />
<path d="M853.7,624.5l0.7,0l0,-498.8l-0.7,0l0,498.8Z" class="g2_950" />
<path d="M66.6,125.7l787.9,0l0,-0.8l-787.9,0l0,0.8Z" class="g2_950" />
<path d="M66.6,179.1l787.9,0l0,-0.7l-787.9,0l0,0.7Z" class="g2_950" />
<path d="M66.6,235.7l787.9,0l0,-0.8l-787.9,0l0,0.8Z" class="g2_950" />
<path d="M66.6,292.1l787.9,0l0,-0.7l-787.9,0l0,0.7Z" class="g2_950" />
<path d="M66.6,348.7l787.9,0l0,-0.7L66.6,348l0,0.7Z" class="g2_950" />
<path d="M66.6,405.3l787.9,0l0,-0.8l-787.9,0l0,0.8Z" class="g2_950" />
<path d="M66.6,478.6l787.9,0l0,-0.7l-787.9,0l0,0.7Z" class="g2_950" />
<path d="M66.6,551.9l787.9,0l0,-0.7l-787.9,0l0,0.7Z" class="g2_950" />
<path d="M66.6,625.3l787.9,0l0,-0.8l-787.9,0l0,0.8Z" class="g2_950" />
<path d="M72,855.3l0.7,0l0,-97.1l-0.7,0l0,97.1Z" class="g2_950" />
<path d="M139.6,856l0.7,0l0,-98.6l-0.7,0l0,98.6Z" class="g2_950" />
<path d="M317,856l0.7,0l0,-98.6l-0.7,0l0,98.6Z" class="g2_950" />
<path d="M490.5,856l0.7,0l0,-98.6l-0.7,0l0,98.6Z" class="g2_950" />
<path d="M671.6,856l0.7,0l0,-98.6l-0.7,0l0,98.6Z" class="g2_950" />
<path d="M848.5,855.3l0.7,0l0,-97.1l-0.7,0l0,97.1Z" class="g2_950" />
<path d="M72,758.2l777.2,0l0,-0.8L72,757.4l0,0.8Z" class="g2_950" />
<path d="M72,782.7l777.2,0l0,-0.8L72,781.9l0,0.8Z" class="g2_950" />
<path d="M72,807l777.2,0l0,-0.7L72,806.3l0,0.7Z" class="g2_950" />
<path d="M72,831.5l777.2,0l0,-0.7L72,830.8l0,0.7Z" class="g2_950" />
<path d="M72,856l777.2,0l0,-0.8L72,855.2l0,0.8Z" class="g2_950" />
</svg>