<?xml version="1.0" encoding="UTF-8" standalone="no"?>
<!DOCTYPE svg PUBLIC "-//W3C//DTD SVG 1.1//EN"
"http://www.w3.org/Graphics/SVG/1.1/DTD/svg11.dtd">
<svg viewBox="0 0 935 1210" version="1.1" xmlns="http://www.w3.org/2000/svg" xmlns:xlink="http://www.w3.org/1999/xlink">
<defs>
<style type="text/css"><![CDATA[
.g1_2113{
fill: #FFFFFF;
}
.g2_2113{
}
]]></style>
</defs>
<path d="M68.9,1149.3l783.8,0l0,-21.2l-783.8,0l0,21.2Z" class="g1_2113" />
<path d="M69.9,1069.1l0.8,0l0,-945l-0.8,0l0,945Z" class="g2_2113" />
<path d="M447.2,1069.8l0.8,0l0,-946.4l-0.8,0l0,946.4Z" class="g2_2113" />
<path d="M853,1069.1l0.7,0l0,-945l-0.7,0l0,945Z" class="g2_2113" />
<path d="M69.9,124.1l783.8,0l0,-0.7l-783.8,0l0,0.7Z" class="g2_2113" />
<path d="M69.9,148.6l783.8,0l0,-0.7l-783.8,0l0,0.7Z" class="g2_2113" />
<path d="M69.9,173l783.8,0l0,-0.8l-783.8,0l0,0.8Z" class="g2_2113" />
<path d="M69.9,197.4l783.8,0l0,-0.7l-783.8,0l0,0.7Z" class="g2_2113" />
<path d="M69.9,238.7l783.8,0l0,-0.7L69.9,238l0,0.7Z" class="g2_2113" />
<path d="M69.9,263.2l783.8,0l0,-0.8l-783.8,0l0,0.8Z" class="g2_2113" />
<path d="M69.9,287.6l783.8,0l0,-0.8l-783.8,0l0,0.8Z" class="g2_2113" />
<path d="M69.9,312l783.8,0l0,-0.7l-783.8,0l0,0.7Z" class="g2_2113" />
<path d="M69.9,336.5l783.8,0l0,-0.7l-783.8,0l0,0.7Z" class="g2_2113" />
<path d="M69.9,377.8l783.8,0l0,-0.8L69.9,377l0,0.8Z" class="g2_2113" />
<path d="M69.9,419l783.8,0l0,-0.7l-783.8,0l0,0.7Z" class="g2_2113" />
<path d="M69.9,443.5l783.8,0l0,-0.8l-783.8,0l0,0.8Z" class="g2_2113" />
<path d="M69.9,467.9l783.8,0l0,-0.8l-783.8,0l0,0.8Z" class="g2_2113" />
<path d="M69.9,492.3l783.8,0l0,-0.7l-783.8,0l0,0.7Z" class="g2_2113" />
<path d="M69.9,533.6l783.8,0l0,-0.7l-783.8,0l0,0.7Z" class="g2_2113" />
<path d="M69.9,558.1l783.8,0l0,-0.8l-783.8,0l0,0.8Z" class="g2_2113" />
<path d="M69.9,582.4l783.8,0l0,-0.7l-783.8,0l0,0.7Z" class="g2_2113" />
<path d="M69.9,606.9l783.8,0l0,-0.7l-783.8,0l0,0.7Z" class="g2_2113" />
<path d="M69.9,631.4l783.8,0l0,-0.7l-783.8,0l0,0.7Z" class="g2_2113" />
<path d="M69.9,672.7l783.8,0l0,-0.8l-783.8,0l0,0.8Z" class="g2_2113" />
<path d="M69.9,718.5l783.8,0l0,-0.7l-783.8,0l0,0.7Z" class="g2_2113" />
<path d="M69.9,742.9l783.8,0l0,-0.8l-783.8,0l0,0.8Z" class="g2_2113" />
<path d="M69.9,767.3l783.8,0l0,-0.7l-783.8,0l0,0.7Z" class="g2_2113" />
<path d="M69.9,791.8l783.8,0l0,-0.7l-783.8,0l0,0.7Z" class="g2_2113" />
<path d="M69.9,833.1l783.8,0l0,-0.8l-783.8,0l0,0.8Z" class="g2_2113" />
<path d="M69.9,857.5l783.8,0l0,-0.8l-783.8,0l0,0.8Z" class="g2_2113" />
<path d="M69.9,881.9l783.8,0l0,-0.7l-783.8,0l0,0.7Z" class="g2_2113" />
<path d="M69.9,906.4l783.8,0l0,-0.7l-783.8,0l0,0.7Z" class="g2_2113" />
<path d="M69.9,930.8l783.8,0l0,-0.7l-783.8,0l0,0.7Z" class="g2_2113" />
<path d="M69.9,972l783.8,0l0,-0.7l-783.8,0l0,0.7Z" class="g2_2113" />
<path d="M69.9,996.5l783.8,0l0,-0.7l-783.8,0l0,0.7Z" class="g2_2113" />
<path d="M69.9,1021l783.8,0l0,-0.7l-783.8,0l0,0.7Z" class="g2_2113" />
<path d="M69.9,1045.4l783.8,0l0,-0.8l-783.8,0l0,0.8Z" class="g2_2113" />
<path d="M69.9,1069.8l783.8,0l0,-0.7l-783.8,0l0,0.7Z" class="g2_2113" />
</svg>