<?xml version="1.0" encoding="UTF-8" standalone="no"?>
<!DOCTYPE svg PUBLIC "-//W3C//DTD SVG 1.1//EN"
"http://www.w3.org/Graphics/SVG/1.1/DTD/svg11.dtd">
<svg viewBox="0 0 935 1210" version="1.1" xmlns="http://www.w3.org/2000/svg" xmlns:xlink="http://www.w3.org/1999/xlink">
<defs>
<style type="text/css"><![CDATA[
.g1_64{
fill: #FFFFFF;
}
.g2_64{
}
]]></style>
</defs>
<path d="M68.8,1149.3l783.7,0l0,-21.2l-783.7,0l0,21.2Z" class="g1_64" />
<path d="M69.2,737.7l0.4,0l0,-563.4l-0.4,0l0,563.4Z" class="g2_64" />
<path d="M209,738.1l0.4,0l0,-564.1l-0.4,0l0,564.1Z" class="g2_64" />
<path d="M245.6,738.1l0.3,0l0,-564.1l-0.3,0l0,564.1Z" class="g2_64" />
<path d="M287.6,738.1l0.3,0l0,-564.1l-0.3,0l0,564.1Z" class="g2_64" />
<path d="M327,738.1l0.3,0l0,-564.1l-0.3,0l0,564.1Z" class="g2_64" />
<path d="M362.5,738.1l0.3,0l0,-564.1l-0.3,0l0,564.1Z" class="g2_64" />
<path d="M851.5,737.7l0.4,0l0,-563.4l-0.4,0l0,563.4Z" class="g2_64" />
<path d="M69.2,174.3l782.7,0l0,-0.3L69.2,174l0,0.3Z" class="g2_64" />
<path d="M69.2,284.3l782.7,0l0,-0.3L69.2,284l0,0.3Z" class="g2_64" />
<path d="M208.9,305.7l643,0l0,-0.4l-643,0l0,0.4Z" class="g2_64" />
<path d="M208.9,363.8l643,0l0,-0.3l-643,0l0,0.3Z" class="g2_64" />
<path d="M208.9,418.8l643,0l0,-0.3l-643,0l0,0.3Z" class="g2_64" />
<path d="M208.9,440.2l643,0l0,-0.4l-643,0l0,0.4Z" class="g2_64" />
<path d="M208.9,461.6l643,0l0,-0.3l-643,0l0,0.3Z" class="g2_64" />
<path d="M69.2,483.2l140.2,0l0,-0.8l-140.2,0l0,0.8Z" class="g2_64" />
<path d="M208.9,483l643,0l0,-0.4l-643,0l0,0.4Z" class="g2_64" />
<path d="M69.2,521.2l782.7,0l0,-0.3l-782.7,0l0,0.3Z" class="g2_64" />
<path d="M208.9,542.6l643,0l0,-0.4l-643,0l0,0.4Z" class="g2_64" />
<path d="M69.2,563.9l782.7,0l0,-0.3l-782.7,0l0,0.3Z" class="g2_64" />
<path d="M208.9,602.2l643,0l0,-0.4l-643,0l0,0.4Z" class="g2_64" />
<path d="M208.9,623.5l643,0l0,-0.3l-643,0l0,0.3Z" class="g2_64" />
<path d="M69.2,661.7l782.7,0l0,-0.3l-782.7,0l0,0.3Z" class="g2_64" />
<path d="M69.2,700l782.7,0l0,-0.4l-782.7,0l0,0.4Z" class="g2_64" />
<path d="M69.2,738.1l782.7,0l0,-0.4l-782.7,0l0,0.4Z" class="g2_64" />
</svg>