<?xml version="1.0" encoding="UTF-8" standalone="no"?>
<!DOCTYPE svg PUBLIC "-//W3C//DTD SVG 1.1//EN"
"http://www.w3.org/Graphics/SVG/1.1/DTD/svg11.dtd">
<svg viewBox="0 0 935 1210" version="1.1" xmlns="http://www.w3.org/2000/svg" xmlns:xlink="http://www.w3.org/1999/xlink">
<defs>
<style type="text/css"><![CDATA[
.g1_1072{
fill: #FFFFFF;
}
.g2_1072{
}
]]></style>
</defs>
<path d="M165,1149.3l687.5,0l0,-21.2l-687.5,0l0,21.2Z" class="g1_1072" />
<path d="M68.8,1149.3l82.5,0l0,-21.2l-82.5,0l0,21.2Z" class="g1_1072" />
<path d="M67.8,517.6l0.8,0l0,-391.9l-0.8,0l0,391.9Z" class="g2_1072" />
<path d="M377.9,518.3l0.8,0l0,-393.4l-0.8,0l0,393.4Z" class="g2_1072" />
<path d="M415.8,518.3l0.7,0l0,-393.4l-0.7,0l0,393.4Z" class="g2_1072" />
<path d="M489.1,518.3l0.8,0l0,-393.4l-0.8,0l0,393.4Z" class="g2_1072" />
<path d="M567.4,518.3l0.8,0l0,-393.4l-0.8,0l0,393.4Z" class="g2_1072" />
<path d="M852.6,517.6l0.7,0l0,-391.9l-0.7,0l0,391.9Z" class="g2_1072" />
<path d="M67.8,125.7l785.5,0l0,-0.8l-785.5,0l0,0.8Z" class="g2_1072" />
<path d="M67.8,179.1l785.5,0l0,-0.7l-785.5,0l0,0.7Z" class="g2_1072" />
<path d="M67.8,235.7l785.5,0l0,-0.8l-785.5,0l0,0.8Z" class="g2_1072" />
<path d="M67.8,292.1l785.5,0l0,-0.7l-785.5,0l0,0.7Z" class="g2_1072" />
<path d="M67.8,348.7l785.5,0l0,-0.7L67.8,348l0,0.7Z" class="g2_1072" />
<path d="M67.8,405.3l785.5,0l0,-0.8l-785.5,0l0,0.8Z" class="g2_1072" />
<path d="M67.8,461.8l785.5,0l0,-0.7l-785.5,0l0,0.7Z" class="g2_1072" />
<path d="M67.8,518.3l785.5,0l0,-0.7l-785.5,0l0,0.7Z" class="g2_1072" />
<path d="M69.1,645.9l0.8,0l0,-72.6l-0.8,0l0,72.6Z" class="g2_1072" />
<path d="M138.4,646.6l0.8,0l0,-74.1l-0.8,0l0,74.1Z" class="g2_1072" />
<path d="M318,646.6l0.7,0l0,-74.1l-0.7,0l0,74.1Z" class="g2_1072" />
<path d="M496,646.6l0.7,0l0,-74.1l-0.7,0l0,74.1Z" class="g2_1072" />
<path d="M669.9,646.6l0.7,0l0,-74.1l-0.7,0l0,74.1Z" class="g2_1072" />
<path d="M851.3,645.9l0.7,0l0,-72.6l-0.7,0l0,72.6Z" class="g2_1072" />
<path d="M69.1,573.3l782.9,0l0,-0.7l-782.9,0l0,0.7Z" class="g2_1072" />
<path d="M69.1,597.8l782.9,0l0,-0.8L69.1,597l0,0.8Z" class="g2_1072" />
<path d="M69.1,622.2l782.9,0l0,-0.7l-782.9,0l0,0.7Z" class="g2_1072" />
<path d="M69.1,646.6l782.9,0l0,-0.7l-782.9,0l0,0.7Z" class="g2_1072" />
</svg>