<?xml version="1.0" encoding="UTF-8" standalone="no"?>
<!DOCTYPE svg PUBLIC "-//W3C//DTD SVG 1.1//EN"
"http://www.w3.org/Graphics/SVG/1.1/DTD/svg11.dtd">
<svg viewBox="0 0 935 1210" version="1.1" xmlns="http://www.w3.org/2000/svg" xmlns:xlink="http://www.w3.org/1999/xlink">
<defs>
<style type="text/css"><![CDATA[
.g1_697{
fill: #FFFFFF;
}
.g2_697{
}
]]></style>
</defs>
<path d="M68.9,1149.3l686.3,0l0,-21.2l-686.3,0l0,21.2Z" class="g1_697" />
<path d="M771.3,1149.3l83.7,0l0,-21.2l-83.7,0l0,21.2Z" class="g1_697" />
<path d="M69.9,716.2l0.8,0l0,-590.5l-0.8,0l0,590.5Z" class="g2_697" />
<path d="M321.3,716.9l0.7,0l0,-592l-0.7,0l0,592Z" class="g2_697" />
<path d="M390,716.9l0.7,0l0,-592l-0.7,0l0,592Z" class="g2_697" />
<path d="M464.4,716.9l0.7,0l0,-592l-0.7,0l0,592Z" class="g2_697" />
<path d="M550.4,716.9l0.7,0l0,-592l-0.7,0l0,592Z" class="g2_697" />
<path d="M853.3,716.2l0.8,0l0,-590.5l-0.8,0l0,590.5Z" class="g2_697" />
<path d="M69.9,125.7l784.2,0l0,-0.8l-784.2,0l0,0.8Z" class="g2_697" />
<path d="M69.9,176.1l784.2,0l0,-0.7l-784.2,0l0,0.7Z" class="g2_697" />
<path d="M69.9,212.8l784.2,0l0,-0.8L69.9,212l0,0.8Z" class="g2_697" />
<path d="M69.9,249.4l784.2,0l0,-0.7l-784.2,0l0,0.7Z" class="g2_697" />
<path d="M69.9,286.1l784.2,0l0,-0.7l-784.2,0l0,0.7Z" class="g2_697" />
<path d="M69.9,322.8l784.2,0l0,-0.8L69.9,322l0,0.8Z" class="g2_697" />
<path d="M69.9,359.4l784.2,0l0,-0.7l-784.2,0l0,0.7Z" class="g2_697" />
<path d="M69.9,396.1l784.2,0l0,-0.7l-784.2,0l0,0.7Z" class="g2_697" />
<path d="M69.9,449.5l784.2,0l0,-0.7l-784.2,0l0,0.7Z" class="g2_697" />
<path d="M69.9,503.1l784.2,0l0,-0.8l-784.2,0l0,0.8Z" class="g2_697" />
<path d="M69.9,556.5l784.2,0l0,-0.7l-784.2,0l0,0.7Z" class="g2_697" />
<path d="M69.9,609.9l784.2,0l0,-0.7l-784.2,0l0,0.7Z" class="g2_697" />
<path d="M69.9,663.5l784.2,0l0,-0.7l-784.2,0l0,0.7Z" class="g2_697" />
<path d="M69.9,716.9l784.2,0l0,-0.7l-784.2,0l0,0.7Z" class="g2_697" />
<path d="M71.7,893.4l0.7,0l0,-121.5l-0.7,0l0,121.5Z" class="g2_697" />
<path d="M178.2,894.2l0.7,0l0,-123l-0.7,0l0,123Z" class="g2_697" />
<path d="M350.8,894.2l0.7,0l0,-123l-0.7,0l0,123Z" class="g2_697" />
<path d="M516.8,894.2l0.8,0l0,-123l-0.8,0l0,123Z" class="g2_697" />
<path d="M681.6,894.2l0.8,0l0,-123l-0.8,0l0,123Z" class="g2_697" />
<path d="M850.3,893.4l0.7,0l0,-121.5l-0.7,0l0,121.5Z" class="g2_697" />
<path d="M71.7,771.9l779.3,0l0,-0.7l-779.3,0l0,0.7Z" class="g2_697" />
<path d="M71.7,796.4l779.3,0l0,-0.7l-779.3,0l0,0.7Z" class="g2_697" />
<path d="M71.7,820.8l779.3,0l0,-0.7l-779.3,0l0,0.7Z" class="g2_697" />
<path d="M71.7,845.3l779.3,0l0,-0.8l-779.3,0l0,0.8Z" class="g2_697" />
<path d="M71.7,869.7l779.3,0l0,-0.7L71.7,869l0,0.7Z" class="g2_697" />
<path d="M71.7,894.1l779.3,0l0,-0.7l-779.3,0l0,0.7Z" class="g2_697" />
</svg>