<?xml version="1.0" encoding="UTF-8" standalone="no"?>
<!DOCTYPE svg PUBLIC "-//W3C//DTD SVG 1.1//EN"
"http://www.w3.org/Graphics/SVG/1.1/DTD/svg11.dtd">
<svg viewBox="0 0 935 1210" version="1.1" xmlns="http://www.w3.org/2000/svg" xmlns:xlink="http://www.w3.org/1999/xlink">
<defs>
<style type="text/css"><![CDATA[
.g1_1817{
fill: #FFFFFF;
}
.g2_1817{
}
]]></style>
</defs>
<path d="M68.9,1149.3l686.3,0l0,-21.2l-686.3,0l0,21.2Z" class="g1_1817" />
<path d="M771.3,1149.3l83.7,0l0,-21.2l-83.7,0l0,21.2Z" class="g1_1817" />
<path d="M78.4,424.3l0.7,0l0,-243.6l-0.7,0l0,243.6Z" class="g2_1817" />
<path d="M171.1,425.2l0.7,0l0,-220.9l-0.7,0l0,220.9Z" class="g2_1817" />
<path d="M263.6,425.2l0.8,0l0,-220.9l-0.8,0l0,220.9Z" class="g2_1817" />
<path d="M356.3,425.2l0.7,0l0,-245.3l-0.7,0l0,245.3Z" class="g2_1817" />
<path d="M460.4,425.2l0.8,0l0,-245.3l-0.8,0l0,245.3Z" class="g2_1817" />
<path d="M553.1,425.2l0.7,0l0,-220.9l-0.7,0l0,220.9Z" class="g2_1817" />
<path d="M645.7,425.2l0.7,0l0,-220.9l-0.7,0l0,220.9Z" class="g2_1817" />
<path d="M738.4,425.2l0.7,0l0,-245.3l-0.7,0l0,245.3Z" class="g2_1817" />
<path d="M843.6,424.3l0.7,0l0,-243.6l-0.7,0l0,243.6Z" class="g2_1817" />
<path d="M78.4,180.7l765.9,0l0,-0.8l-765.9,0l0,0.8Z" class="g2_1817" />
<path d="M78.4,205.1l278.6,0l0,-0.8l-278.6,0l0,0.8Z" class="g2_1817" />
<path d="M460.4,205.1l278.7,0l0,-0.8l-278.7,0l0,0.8Z" class="g2_1817" />
<path d="M78.4,229.5l765.9,0l0,-0.7l-765.9,0l0,0.7Z" class="g2_1817" />
<path d="M78.4,254l765.9,0l0,-0.7l-765.9,0l0,0.7Z" class="g2_1817" />
<path d="M78.4,278.4l765.9,0l0,-0.7l-765.9,0l0,0.7Z" class="g2_1817" />
<path d="M78.4,302.9l765.9,0l0,-0.8l-765.9,0l0,0.8Z" class="g2_1817" />
<path d="M78.4,327.3l765.9,0l0,-0.7l-765.9,0l0,0.7Z" class="g2_1817" />
<path d="M78.4,351.7l765.9,0l0,-0.7L78.4,351l0,0.7Z" class="g2_1817" />
<path d="M78.4,376.2l765.9,0l0,-0.7l-765.9,0l0,0.7Z" class="g2_1817" />
<path d="M78.4,400.7l765.9,0l0,-0.8l-765.9,0l0,0.8Z" class="g2_1817" />
<path d="M78.4,425.2l765.9,0l0,-0.8l-765.9,0l0,0.8Z" class="g2_1817" />
</svg>