<?xml version="1.0" encoding="UTF-8" standalone="no"?>
<!DOCTYPE svg PUBLIC "-//W3C//DTD SVG 1.1//EN"
"http://www.w3.org/Graphics/SVG/1.1/DTD/svg11.dtd">
<svg viewBox="0 0 935 1210" version="1.1" xmlns="http://www.w3.org/2000/svg" xmlns:xlink="http://www.w3.org/1999/xlink">
<defs>
<style type="text/css"><![CDATA[
.g1_414{
fill: #FFFFFF;
}
.g2_414{
}
]]></style>
</defs>
<path d="M165,1149.3l687.5,0l0,-21.2l-687.5,0l0,21.2Z" class="g1_414" />
<path d="M68.8,1149.3l82.5,0l0,-21.2l-82.5,0l0,21.2Z" class="g1_414" />
<path d="M68.6,386.2l0.7,0l0,-254.4l-0.7,0l0,254.4Z" class="g2_414" />
<path d="M189.2,386.9l0.7,0l0,-255.9l-0.7,0l0,255.9Z" class="g2_414" />
<path d="M376.9,386.9l0.8,0l0,-255.9l-0.8,0l0,255.9Z" class="g2_414" />
<path d="M445.2,386.9l0.8,0L446,131l-0.8,0l0,255.9Z" class="g2_414" />
<path d="M529,386.9l0.7,0l0,-255.9l-0.7,0l0,255.9Z" class="g2_414" />
<path d="M851.8,386.2l0.7,0l0,-254.4l-0.7,0l0,254.4Z" class="g2_414" />
<path d="M68.6,131.7l784,0l0,-0.7l-784,0l0,0.7Z" class="g2_414" />
<path d="M68.6,169.9l784,0l0,-0.7l-784,0l0,0.7Z" class="g2_414" />
<path d="M68.6,192.9l784,0l0,-0.8l-784,0l0,0.8Z" class="g2_414" />
<path d="M68.6,215.8l784,0l0,-0.8l-784,0l0,0.8Z" class="g2_414" />
<path d="M68.6,238.7l784,0l0,-0.7l-784,0l0,0.7Z" class="g2_414" />
<path d="M68.6,261.6l784,0l0,-0.7l-784,0l0,0.7Z" class="g2_414" />
<path d="M68.6,301.3l784,0l0,-0.7l-784,0l0,0.7Z" class="g2_414" />
<path d="M68.6,341.1l784,0l0,-0.7l-784,0l0,0.7Z" class="g2_414" />
<path d="M68.6,364l784,0l0,-0.7l-784,0l0,0.7Z" class="g2_414" />
<path d="M68.6,386.9l784,0l0,-0.7l-784,0l0,0.7Z" class="g2_414" />
</svg>