<?xml version="1.0" encoding="UTF-8" standalone="no"?>
<!DOCTYPE svg PUBLIC "-//W3C//DTD SVG 1.1//EN"
"http://www.w3.org/Graphics/SVG/1.1/DTD/svg11.dtd">
<svg viewBox="0 0 935 1210" version="1.1" xmlns="http://www.w3.org/2000/svg" xmlns:xlink="http://www.w3.org/1999/xlink">
<defs>
<style type="text/css"><![CDATA[
.g1_763{
fill: #FFFFFF;
}
.g2_763{
}
]]></style>
</defs>
<path d="M68.9,1149.3l686.3,0l0,-21.2l-686.3,0l0,21.2Z" class="g1_763" />
<path d="M771.3,1149.3l83.7,0l0,-21.2l-83.7,0l0,21.2Z" class="g1_763" />
<path d="M69.9,612.2l0.8,0l0,-486.5l-0.8,0l0,486.5Z" class="g2_763" />
<path d="M311.3,613.1l0.7,0l0,-488.2l-0.7,0l0,488.2Z" class="g2_763" />
<path d="M377,613.1l0.8,0l0,-488.2l-0.8,0l0,488.2Z" class="g2_763" />
<path d="M451.6,613.1l0.7,0l0,-488.2l-0.7,0l0,488.2Z" class="g2_763" />
<path d="M532.4,613.1l0.7,0l0,-488.2l-0.7,0l0,488.2Z" class="g2_763" />
<path d="M853.6,612.2l0.7,0l0,-486.5l-0.7,0l0,486.5Z" class="g2_763" />
<path d="M69.9,125.7l784.4,0l0,-0.8l-784.4,0l0,0.8Z" class="g2_763" />
<path d="M69.9,176.1l784.4,0l0,-0.7l-784.4,0l0,0.7Z" class="g2_763" />
<path d="M69.9,212.8l784.4,0l0,-0.8L69.9,212l0,0.8Z" class="g2_763" />
<path d="M69.9,249.4l784.4,0l0,-0.7l-784.4,0l0,0.7Z" class="g2_763" />
<path d="M69.9,286.1l784.4,0l0,-0.7l-784.4,0l0,0.7Z" class="g2_763" />
<path d="M69.9,322.8l784.4,0l0,-0.8L69.9,322l0,0.8Z" class="g2_763" />
<path d="M69.9,359.4l784.4,0l0,-0.7l-784.4,0l0,0.7Z" class="g2_763" />
<path d="M69.9,396.1l784.4,0l0,-0.7l-784.4,0l0,0.7Z" class="g2_763" />
<path d="M69.9,432.8l784.4,0l0,-0.8L69.9,432l0,0.8Z" class="g2_763" />
<path d="M69.9,486.2l784.4,0l0,-0.7l-784.4,0l0,0.7Z" class="g2_763" />
<path d="M69.9,522.9l784.4,0l0,-0.8l-784.4,0l0,0.8Z" class="g2_763" />
<path d="M69.9,576.4l784.4,0l0,-0.7l-784.4,0l0,0.7Z" class="g2_763" />
<path d="M69.9,613.1l784.4,0l0,-0.8l-784.4,0l0,0.8Z" class="g2_763" />
<path d="M70.7,862.9l0.7,0l0,-194.8l-0.7,0l0,194.8Z" class="g2_763" />
<path d="M188.2,863.6l0.7,0l0,-196.4l-0.7,0l0,196.4Z" class="g2_763" />
<path d="M352.7,863.6l0.8,0l0,-196.4l-0.8,0l0,196.4Z" class="g2_763" />
<path d="M526.7,863.6l0.7,0l0,-196.4l-0.7,0l0,196.4Z" class="g2_763" />
<path d="M692.2,863.6l0.7,0l0,-196.4l-0.7,0l0,196.4Z" class="g2_763" />
<path d="M851.4,862.9l0.7,0l0,-194.8l-0.7,0l0,194.8Z" class="g2_763" />
<path d="M70.6,668.1l781.5,0l0,-0.8l-781.5,0l0,0.8Z" class="g2_763" />
<path d="M70.6,692.4l781.5,0l0,-0.7l-781.5,0l0,0.7Z" class="g2_763" />
<path d="M70.6,716.9l781.5,0l0,-0.7l-781.5,0l0,0.7Z" class="g2_763" />
<path d="M70.6,741.4l781.5,0l0,-0.7l-781.5,0l0,0.7Z" class="g2_763" />
<path d="M70.6,765.8l781.5,0l0,-0.7l-781.5,0l0,0.7Z" class="g2_763" />
<path d="M70.6,790.3l781.5,0l0,-0.8l-781.5,0l0,0.8Z" class="g2_763" />
<path d="M70.6,814.7l781.5,0l0,-0.7L70.6,814l0,0.7Z" class="g2_763" />
<path d="M70.6,839.1l781.5,0l0,-0.7l-781.5,0l0,0.7Z" class="g2_763" />
<path d="M70.6,863.6l781.5,0l0,-0.7l-781.5,0l0,0.7Z" class="g2_763" />
</svg>