<?xml version="1.0" encoding="UTF-8" standalone="no"?>
<!DOCTYPE svg PUBLIC "-//W3C//DTD SVG 1.1//EN"
"http://www.w3.org/Graphics/SVG/1.1/DTD/svg11.dtd">
<svg viewBox="0 0 935 1210" version="1.1" xmlns="http://www.w3.org/2000/svg" xmlns:xlink="http://www.w3.org/1999/xlink">
<defs>
<style type="text/css"><![CDATA[
.g1_1155{
fill: #FFFFFF;
}
.g2_1155{
}
]]></style>
</defs>
<path d="M68.9,1149.3l686.3,0l0,-21.2l-686.3,0l0,21.2Z" class="g1_1155" />
<path d="M771.3,1149.3l83.7,0l0,-21.2l-83.7,0l0,21.2Z" class="g1_1155" />
<path d="M171.3,264.5l0.8,0l0,-151l-0.8,0l0,151Z" class="g2_1155" />
<path d="M750.7,264.5l0.7,0l0,-151l-0.7,0l0,151Z" class="g2_1155" />
<path d="M171.3,113.4l580.1,0l0,-0.7l-580.1,0l0,0.7Z" class="g2_1155" />
<path d="M171.3,265.3l580.1,0l0,-0.8l-580.1,0l0,0.8Z" class="g2_1155" />
<path d="M426.1,254.1l220,0l0,-27.5l-220,0l0,27.5Z" class="g1_1155" />
<path d="M426.1,227l220.3,0l0,-0.8l-220.3,0l0,0.8Z" class="g2_1155" />
<path d="M645.7,254.5l0.7,0l0,-27.9l-0.7,0l0,27.9Z" class="g2_1155" />
<path d="M425.7,254.5l220.4,0l0,-0.8l-220.4,0l0,0.8Z" class="g2_1155" />
<path d="M425.7,254.1l0.7,0l0,-27.9l-0.7,0l0,27.9Z" class="g2_1155" />
<path d="M480.4,226.6l0.8,0l0,-0.4l-0.8,0l0,0.4Z" class="g2_1155" />
<path d="M480.4,254.5l0.8,0l0,-27.9l-0.8,0l0,27.9Z" class="g2_1155" />
<path d="M535.5,226.6l0.8,0l0,-0.4l-0.8,0l0,0.4Z" class="g2_1155" />
<path d="M535.5,254.5l0.8,0l0,-27.9l-0.8,0l0,27.9Z" class="g2_1155" />
<path d="M590.6,226.6l0.7,0l0,-0.4l-0.7,0l0,0.4Z" class="g2_1155" />
<path d="M590.6,254.5l0.7,0l0,-27.9l-0.7,0l0,27.9Z" class="g2_1155" />
<path d="M618.2,226.6l0.7,0l0,-0.4l-0.7,0l0,0.4Z" class="g2_1155" />
<path d="M618.2,254.5l0.7,0l0,-27.9l-0.7,0l0,27.9Z" class="g2_1155" />
<path d="M508.2,226.6l0.7,0l0,-0.4l-0.7,0l0,0.4Z" class="g2_1155" />
<path d="M508.2,254.5l0.7,0l0,-27.9l-0.7,0l0,27.9Z" class="g2_1155" />
<path d="M563.2,226.6l0.7,0l0,-0.4l-0.7,0l0,0.4Z" class="g2_1155" />
<path d="M563.2,254.5l0.7,0l0,-27.9l-0.7,0l0,27.9Z" class="g2_1155" />
<path d="M453.2,226.6l0.7,0l0,-0.4l-0.7,0l0,0.4Z" class="g2_1155" />
<path d="M453.2,254.5l0.7,0l0,-27.9l-0.7,0l0,27.9Z" class="g2_1155" />
<path d="M473.7,158.3l220,0l0,-27.5l-220,0l0,27.5Z" class="g1_1155" />
<path d="M473.7,131.2l220.4,0l0,-0.8l-220.4,0l0,0.8Z" class="g2_1155" />
<path d="M693.4,158.7l0.7,0l0,-27.9l-0.7,0l0,27.9Z" class="g2_1155" />
<path d="M473.4,158.7l220.3,0l0,-0.8l-220.3,0l0,0.8Z" class="g2_1155" />
<path d="M473.4,158.3l0.7,0l0,-27.9l-0.7,0l0,27.9Z" class="g2_1155" />
<path d="M528.1,130.8l0.7,0l0,-0.4l-0.7,0l0,0.4Z" class="g2_1155" />
<path d="M528.1,158.7l0.7,0l0,-27.9l-0.7,0l0,27.9Z" class="g2_1155" />
<path d="M583.2,130.8l0.7,0l0,-0.4l-0.7,0l0,0.4Z" class="g2_1155" />
<path d="M583.2,158.7l0.7,0l0,-27.9l-0.7,0l0,27.9Z" class="g2_1155" />
<path d="M638.3,130.8l0.7,0l0,-0.4l-0.7,0l0,0.4Z" class="g2_1155" />
<path d="M638.3,158.7l0.7,0l0,-27.9l-0.7,0l0,27.9Z" class="g2_1155" />
<path d="M665.9,130.8l0.7,0l0,-0.4l-0.7,0l0,0.4Z" class="g2_1155" />
<path d="M665.9,158.7l0.7,0l0,-27.9l-0.7,0l0,27.9Z" class="g2_1155" />
<path d="M555.9,130.8l0.7,0l0,-0.4l-0.7,0l0,0.4Z" class="g2_1155" />
<path d="M555.9,158.7l0.7,0l0,-27.9l-0.7,0l0,27.9Z" class="g2_1155" />
<path d="M610.9,130.8l0.7,0l0,-0.4l-0.7,0l0,0.4Z" class="g2_1155" />
<path d="M610.9,158.7l0.7,0l0,-27.9l-0.7,0l0,27.9Z" class="g2_1155" />
<path d="M500.9,130.8l0.7,0l0,-0.4l-0.7,0l0,0.4Z" class="g2_1155" />
<path d="M500.9,158.7l0.7,0l0,-27.9l-0.7,0l0,27.9Z" class="g2_1155" />
<path d="M225.9,158.4l220,0l0,-27.5l-220,0l0,27.5Z" class="g1_1155" />
<path d="M225.9,131.3l220.3,0l0,-0.8l-220.3,0l0,0.8Z" class="g2_1155" />
<path d="M445.5,158.8l0.7,0l0,-27.9l-0.7,0l0,27.9Z" class="g2_1155" />
<path d="M225.5,158.8l220.4,0l0,-0.8l-220.4,0l0,0.8Z" class="g2_1155" />
<path d="M225.5,158.4l0.7,0l0,-27.9l-0.7,0l0,27.9Z" class="g2_1155" />
<path d="M280.2,130.9l0.8,0l0,-0.4l-0.8,0l0,0.4Z" class="g2_1155" />
<path d="M280.2,158.8l0.8,0l0,-27.9l-0.8,0l0,27.9Z" class="g2_1155" />
<path d="M335.3,130.9l0.8,0l0,-0.4l-0.8,0l0,0.4Z" class="g2_1155" />
<path d="M335.3,158.8l0.8,0l0,-27.9l-0.8,0l0,27.9Z" class="g2_1155" />
<path d="M390.4,130.9l0.7,0l0,-0.4l-0.7,0l0,0.4Z" class="g2_1155" />
<path d="M390.4,158.8l0.7,0l0,-27.9l-0.7,0l0,27.9Z" class="g2_1155" />
<path d="M418,130.9l0.7,0l0,-0.4l-0.7,0l0,0.4Z" class="g2_1155" />
<path d="M418,158.8l0.7,0l0,-27.9l-0.7,0l0,27.9Z" class="g2_1155" />
<path d="M308,130.9l0.7,0l0,-0.4l-0.7,0l0,0.4Z" class="g2_1155" />
<path d="M308,158.8l0.7,0l0,-27.9l-0.7,0l0,27.9Z" class="g2_1155" />
<path d="M363,130.9l0.7,0l0,-0.4l-0.7,0l0,0.4Z" class="g2_1155" />
<path d="M363,158.8l0.7,0l0,-27.9l-0.7,0l0,27.9Z" class="g2_1155" />
<path d="M253,130.9l0.7,0l0,-0.4l-0.7,0l0,0.4Z" class="g2_1155" />
<path d="M253,158.8l0.7,0l0,-27.9l-0.7,0l0,27.9Z" class="g2_1155" />
<path d="M477.4,221.4L477,220.6l-1.3,0.8l0.3,0.7Z" class="g2_1155" />
<path d="M476.4,221.2l1.8,1.7l1.2,1l-1.6,0.3l-8.4,1.8l-2.5,0.5l1.9,-1.8l6.1,-6l1.1,-1.1l0.2,1.6l-0.3,0.6l-6.1,6l-1,-1.1l0.4,-0.2l8.3,-1.7l0.3,1.4l-0.7,-0.3l-1.8,-1.7Z" class="g2_1155" />
<path d="M476.2,219.2l0.4,2.5l-1.3,0.5L475.1,222l0,-0.2l-0.4,-2.4Z" class="g2_1155" />
<path fill-rule="evenodd" d="M475.8,221.7l1.9,1.8l-8.4,1.7l6.2,-5.9Z" class="g2_1155" />
<path d="M594.7,160l0.3,-0.2l-0.4,-0.7l-0.2,0.2Z" class="g2_1155" />
<path d="M477.4,221.4l-0.3,0.2l-0.3,-0.7l0.2,-0.2Z" class="g2_1155" />
<path d="M594.7,160l-0.3,-0.7L477,220.7l0.4,0.7Z" class="g2_1155" />
<path d="M531.7,220.3l-0.4,-0.6l-1.4,0.9l0.4,0.6Z" class="g2_1155" />
<path d="M530.6,220.3l2,1.4l1.4,1l-1.7,0.4l-8.2,2.6l-2.5,0.8l1.7,-2l5.6,-6.5l1.1,-1.3l0.3,1.6l-0.2,0.7l-5.6,6.5l-1.2,-1l0.4,-0.3l8.1,-2.5l0.5,1.4L531.7,223l-2.1,-1.4Z" class="g2_1155" />
<path d="M530.3,218.3l0.5,2.4l-1.2,0.9l-0.2,-0.2l0,-0.3l-0.6,-2.5Z" class="g2_1155" />
<path fill-rule="evenodd" d="M530.1,220.9l2,1.5l-8.1,2.5l5.6,-6.5Z" class="g2_1155" />
<path d="M623.3,160l0.3,-0.2l-0.4,-0.7l-0.2,0.2Z" class="g2_1155" />
<path d="M531.7,220.4l-0.3,0.1L531,219.9l0.3,-0.2Z" class="g2_1155" />
<path d="M623.3,160L623,159.3l-91.7,60.4l0.4,0.7Z" class="g2_1155" />
<path d="M586.3,218.8l-0.5,-0.5l-1.2,1.1l0.5,0.5Z" class="g2_1155" />
<path d="M585.2,218.9l2.2,1.2l1.4,0.7l-1.5,0.8l-7.6,3.7l-2.4,1.2l1.4,-2.3l4.5,-7.2l0.9,-1.4l0.6,1.5l-0.1,0.7l-4.5,7.2l-1.4,-0.8l0.4,-0.3l7.6,-3.7l0.6,1.4l-0.6,0l-2.2,-1.2Z" class="g2_1155" />
<path d="M584.6,217.1l1,2.3l-1.1,1l-0.3,-0.2l-0.1,-0.3l-0.9,-2.3Z" class="g2_1155" />
<path fill-rule="evenodd" d="M584.8,219.6l2.2,1.2l-7.6,3.8l4.5,-7.3Z" class="g2_1155" />
<path d="M652.1,159l0.3,-0.1l-0.5,-0.6l-0.2,0.2Z" class="g2_1155" />
<path d="M586.3,218.8L586,219l-0.4,-0.6l0.2,-0.1Z" class="g2_1155" />
<path d="M652.1,159l-0.4,-0.5l-65.9,59.8l0.5,0.5Z" class="g2_1155" />
<path d="M637.7,217.2l-0.5,-0.4l-0.9,1.3l0.5,0.3Z" class="g2_1155" />
<path d="M636.7,217.5l2.4,0.8l1.6,0.3l-1.3,1l-6.8,5.3l-2.1,1.6l0.9,-2.5l2.9,-7.9l0.6,-1.5l0.7,1.2l0.2,0.7l-2.9,8L631.4,224l0.3,-0.3l6.8,-5.3l0.9,1.2l-0.8,0.1L636.3,219Z" class="g2_1155" />
<path d="M635.6,215.8l1.5,2l-0.8,1.2l-0.2,-0.1l-0.2,-0.2l-1.5,-2Z" class="g2_1155" />
<path fill-rule="evenodd" d="M636.5,218.3l2.4,0.7l-6.8,5.2l3,-8Z" class="g2_1155" />
<path d="M679.9,159l0.2,-0.2l-0.6,-0.5l-0.2,0.3Z" class="g2_1155" />
<path d="M637.7,217.3l-0.2,0.2L637,217.1l0.2,-0.3Z" class="g2_1155" />
<path d="M679.9,159l-0.6,-0.4l-42.1,58.2l0.5,0.4Z" class="g2_1155" />
<path d="M594.3,221.8l-0.2,0.8l1.6,0.6l0.1,-0.7Z" class="g2_1155" />
<path d="M594.9,222.8l0,-2.5l0.1,-1.6l1.3,1l6.9,5.2l2.2,1.7l-2.8,-0.3l-8.5,-0.8l-1.7,-0.2l1.1,-1.2l0.7,-0.2l8.5,0.9l-0.1,1.5l-0.4,-0.2l-6.9,-5.2l1,-1.2l0.3,0.6l0,2.5Z" class="g2_1155" />
<path d="M593.5,224.1l1.7,-1.8l1.4,0.5l-0.1,0.3l-0.2,0.3l-1.7,1.8Z" class="g2_1155" />
<path fill-rule="evenodd" d="M595.7,222.8l0,-2.5l6.9,5.2l-8.5,-0.8Z" class="g2_1155" />
<path d="M430.2,158.5l-0.3,-0.1l-0.3,0.6l0.3,0.1Z" class="g2_1155" />
<path d="M594.4,221.9l0.2,0.1l-0.2,0.7l-0.3,-0.1Z" class="g2_1155" />
<path d="M430.2,158.5l-0.3,0.6l164.2,63.5l0.3,-0.7Z" class="g2_1155" />
<path d="M538.3,221.2l-0.4,0.7l1.5,0.7l0.3,-0.8Z" class="g2_1155" />
<path d="M538.7,222.1l0.2,-2.5l0.2,-1.5l1.2,1.1l6.4,5.6l2,1.7l-2.6,-0.4l-8.5,-1.3l-1.5,-0.3l1.1,-1.1l0.7,-0.2l8.4,1.4l-0.2,1.5l-0.4,-0.2l-6.4,-5.6l1,-1.1l0.3,0.6l-0.2,2.5Z" class="g2_1155" />
<path d="M537.2,223.4l1.8,-1.8l1.4,0.7l-0.1,0.3l-0.2,0.1l-1.8,1.8Z" class="g2_1155" />
<path fill-rule="evenodd" d="M539.6,222.2l0.1,-2.5l6.5,5.6l-8.5,-1.4Z" class="g2_1155" />
<path d="M403.2,158.3l-0.3,-0.1l-0.3,0.7l0.3,0Z" class="g2_1155" />
<path d="M538.3,221.3l0.2,0.1l-0.2,0.6L538,221.9Z" class="g2_1155" />
<path d="M403.2,158.3l-0.3,0.6l135.1,63l0.3,-0.6Z" class="g2_1155" />
<path d="M483.9,221.1l-0.4,0.5l1.4,0.9l0.4,-0.6Z" class="g2_1155" />
<path d="M484.4,222.1l0.4,-2.5l0.2,-1.5l1.2,1.2l5.9,6.1l1.7,1.8l-2.5,-0.6l-8.2,-2l-1.7,-0.4l1.3,-1l0.7,-0.1l8.2,2l-0.3,1.5l-0.4,-0.2L485,220.3l1.2,-1l0.1,0.5l-0.5,2.5Z" class="g2_1155" />
<path d="M482.7,223.2l1.9,-1.6l1.2,0.7l0,0.4l-0.2,0.1l-2,1.7Z" class="g2_1155" />
<path fill-rule="evenodd" d="M485.1,222.2l0.5,-2.5l5.8,6.2l-8.2,-2Z" class="g2_1155" />
<path d="M377,159.1l-0.2,-0.2l-0.4,0.7l0.3,0.2Z" class="g2_1155" />
<path d="M483.9,221.1l0.3,0.2l-0.4,0.6l-0.3,-0.2Z" class="g2_1155" />
<path d="M377,159.1l-0.3,0.7l106.8,61.9l0.4,-0.6Z" class="g2_1155" />
<path d="M429.8,219.1l-0.3,0.5l1.2,1l0.4,-0.5Z" class="g2_1155" />
<path d="M430.2,220.2l0.7,-2.4l0.4,-1.6l1,1.3l5.1,6.8l1.6,2.1l-2.4,-0.9l-8,-3l-1.5,-0.6l1.3,-0.8l0.7,-0.1l8,3l-0.5,1.5l-0.4,-0.3l-5.1,-6.8l1.2,-0.9l0.1,0.7l-0.7,2.3Z" class="g2_1155" />
<path d="M428.4,221.1l2.1,-1.4l1.2,0.8l-0.1,0.3l-0.2,0.2l-2.1,1.4Z" class="g2_1155" />
<path fill-rule="evenodd" d="M430.9,220.4l0.8,-2.4l5.1,6.8l-8,-3.1Z" class="g2_1155" />
<path d="M350.9,159.3l-0.3,-0.2l-0.4,0.6l0.2,0.2Z" class="g2_1155" />
<path d="M429.9,219.1l0.3,0.2l-0.5,0.5l-0.2,-0.2Z" class="g2_1155" />
<path d="M350.9,159.3l-0.5,0.6l79.1,59.7l0.4,-0.5Z" class="g2_1155" />
<path d="M426.1,494.3l220,0l0,-27.5l-220,0l0,27.5Z" class="g1_1155" />
<path d="M426.1,467.1l220.3,0l0,-0.7l-220.3,0l0,0.7Z" class="g2_1155" />
<path d="M645.7,494.6l0.7,0l0,-27.8l-0.7,0l0,27.8Z" class="g2_1155" />
<path d="M425.7,494.6l220.4,0l0,-0.7l-220.4,0l0,0.7Z" class="g2_1155" />
<path d="M425.7,494.3l0.7,0l0,-27.9l-0.7,0l0,27.9Z" class="g2_1155" />
<path d="M480.4,494.6l0.8,0l0,-28.2l-0.8,0l0,28.2Z" class="g2_1155" />
<path d="M535.5,494.6l0.8,0l0,-28.2l-0.8,0l0,28.2Z" class="g2_1155" />
<path d="M590.6,494.6l0.7,0l0,-28.2l-0.7,0l0,28.2Z" class="g2_1155" />
<path d="M618.2,494.6l0.7,0l0,-28.2l-0.7,0l0,28.2Z" class="g2_1155" />
<path d="M508.2,494.6l0.7,0l0,-28.2l-0.7,0l0,28.2Z" class="g2_1155" />
<path d="M563.2,494.6l0.7,0l0,-28.2l-0.7,0l0,28.2Z" class="g2_1155" />
<path d="M453.2,494.6l0.7,0l0,-28.2l-0.7,0l0,28.2Z" class="g2_1155" />
<path d="M473.7,398.5l220,0l0,-27.5l-220,0l0,27.5Z" class="g1_1155" />
<path d="M473.7,371.3l220.4,0l0,-0.7l-220.4,0l0,0.7Z" class="g2_1155" />
<path d="M693.4,398.8l0.7,0l0,-27.8l-0.7,0l0,27.8Z" class="g2_1155" />
<path d="M473.4,398.8l220.3,0l0,-0.7l-220.3,0l0,0.7Z" class="g2_1155" />
<path d="M473.4,398.5l0.7,0l0,-27.9l-0.7,0l0,27.9Z" class="g2_1155" />
<path d="M528.1,398.8l0.7,0l0,-28.2l-0.7,0l0,28.2Z" class="g2_1155" />
<path d="M583.2,398.8l0.7,0l0,-28.2l-0.7,0l0,28.2Z" class="g2_1155" />
<path d="M638.3,398.8l0.7,0l0,-28.2l-0.7,0l0,28.2Z" class="g2_1155" />
<path d="M665.9,398.8l0.7,0l0,-28.2l-0.7,0l0,28.2Z" class="g2_1155" />
<path d="M555.9,398.8l0.7,0l0,-28.2l-0.7,0l0,28.2Z" class="g2_1155" />
<path d="M610.9,398.8l0.7,0l0,-28.2l-0.7,0l0,28.2Z" class="g2_1155" />
<path d="M500.9,398.8l0.7,0l0,-28.2l-0.7,0l0,28.2Z" class="g2_1155" />
<path d="M225.9,398.6l220,0l0,-27.5l-220,0l0,27.5Z" class="g1_1155" />
<path d="M225.9,371.4l220.3,0l0,-0.7l-220.3,0l0,0.7Z" class="g2_1155" />
<path d="M445.5,398.9l0.7,0l0,-27.8l-0.7,0l0,27.8Z" class="g2_1155" />
<path d="M225.5,398.9l220.4,0l0,-0.7l-220.4,0l0,0.7Z" class="g2_1155" />
<path d="M225.5,398.6l0.7,0l0,-27.9l-0.7,0l0,27.9Z" class="g2_1155" />
<path d="M280.2,398.9l0.8,0l0,-28.2l-0.8,0l0,28.2Z" class="g2_1155" />
<path d="M335.3,398.9l0.8,0l0,-28.2l-0.8,0l0,28.2Z" class="g2_1155" />
<path d="M390.4,398.9l0.7,0l0,-28.2l-0.7,0l0,28.2Z" class="g2_1155" />
<path d="M418,398.9l0.7,0l0,-28.2l-0.7,0l0,28.2Z" class="g2_1155" />
<path d="M308,398.9l0.7,0l0,-28.2l-0.7,0l0,28.2Z" class="g2_1155" />
<path d="M363,398.9l0.7,0l0,-28.2l-0.7,0l0,28.2Z" class="g2_1155" />
<path d="M253,398.9l0.7,0l0,-28.2l-0.7,0l0,28.2Z" class="g2_1155" />
<path d="M475.8,459.1l-0.5,-0.6l-1.2,1l0.5,0.6Z" class="g2_1155" />
<path d="M474.7,459.1l2.2,1.2l1.4,0.7l-1.5,0.7l-7.7,3.8l-2.3,1.2l1.3,-2.3l4.5,-7.3l0.9,-1.2l0.5,1.2l0,0.9l-4.5,7.2l-1.4,-0.8l0.4,-0.3l7.7,-3.7l0.6,1.3l-0.6,0L474,460.5Z" class="g2_1155" />
<path d="M474,457.1l1,2.3l-1,1.1l-0.3,-0.1l-0.1,-0.3l-1,-2.3Z" class="g2_1155" />
<path fill-rule="evenodd" d="M474.4,459.8l2.2,1.2l-7.7,3.7l4.5,-7.2Z" class="g2_1155" />
<path d="M541,399.9l0.3,-0.1l-0.5,-0.6l-0.2,0.2Z" class="g2_1155" />
<path d="M475.8,459.1l-0.2,0.2l-0.5,-0.6l0.3,-0.2Z" class="g2_1155" />
<path d="M541,399.9l-0.4,-0.5l-65.2,59.1l0.4,0.6Z" class="g2_1155" />
<path d="M529.1,457.5l-0.5,-0.4l-1,1.3l0.6,0.4Z" class="g2_1155" />
<path d="M528.2,457.9l2.4,0.7L532,459l-1.3,1l-6.8,5.1l-2.1,1.6l0.9,-2.5l3.1,-8l0.5,-1.4l0.9,1.2l0.1,0.8l-3.2,8l-1.4,-0.6l0.3,-0.3l6.8,-5.1l0.9,1.2l-0.7,0.1l-2.4,-0.8Z" class="g2_1155" />
<path d="M527.2,456l1.3,2.2l-0.9,1.1l-0.2,0l-0.1,-0.2L525.9,457Z" class="g2_1155" />
<path fill-rule="evenodd" d="M527.9,458.6l2.4,0.7l-6.9,5.2l3.1,-8Z" class="g2_1155" />
<path d="M572.2,401.8l0.2,-0.3L571.8,401l-0.2,0.3Z" class="g2_1155" />
<path d="M529.1,457.6l-0.2,0.3l-0.5,-0.5l0.2,-0.3Z" class="g2_1155" />
<path d="M572.2,401.8l-0.6,-0.5l-43.1,55.8l0.6,0.5Z" class="g2_1155" />
<path d="M586.3,459l-0.5,-0.6l-1.2,1.1l0.5,0.6Z" class="g2_1155" />
<path d="M585.2,459.1l2.2,1.2l1.4,0.7l-1.5,0.7l-7.6,3.8l-2.3,1.1l1.3,-2.2l4.4,-7.3l0.8,-1.2l0.6,1.2l0,0.9l-4.4,7.2l-1.4,-0.8l0.4,-0.3l7.6,-3.7l0.6,1.3l-0.6,0l-2.2,-1.2Z" class="g2_1155" />
<path d="M584.5,457.1l1,2.3l-1,1.1l-0.3,-0.1l-0.1,-0.3l-1,-2.3Z" class="g2_1155" />
<path fill-rule="evenodd" d="M584.8,459.8L587,461l-7.6,3.7l4.4,-7.2Z" class="g2_1155" />
<path d="M652.9,398.1l0.2,-0.2l-0.4,-0.5l-0.3,0.2Z" class="g2_1155" />
<path d="M586.3,459l-0.3,0.2l-0.4,-0.6l0.2,-0.2Z" class="g2_1155" />
<path d="M652.9,398.1l-0.5,-0.5l-66.6,60.8l0.5,0.6Z" class="g2_1155" />
<path d="M638.2,457.8l-0.6,-0.6l-1,1.3l0.6,0.6Z" class="g2_1155" />
<path d="M637.2,458.1l2.4,0.7l1.5,0.4l-1.5,1l-6.9,4.9l-2.1,1.6l1,-2.5l3.3,-7.9l0.6,-1.4l0.8,1.3l0,0.7l-3.3,7.9l-1.4,-0.6l0.3,-0.4l6.9,-4.9l0.8,1.3l-0.6,0.1l-2.4,-0.8Z" class="g2_1155" />
<path d="M636.3,456.2l1.2,2.2l-0.9,1.1l-0.3,-0.1l0,-0.2L635,457Z" class="g2_1155" />
<path fill-rule="evenodd" d="M636.9,458.8l2.4,0.7l-7,5l3.3,-7.9Z" class="g2_1155" />
<path d="M684,400.9l0.2,-0.3l-0.5,-0.5l-0.2,0.3Z" class="g2_1155" />
<path d="M638.2,457.8l-0.2,0.3l-0.6,-0.5l0.2,-0.3Z" class="g2_1155" />
<path d="M684,400.9l-0.5,-0.5l-45.9,56.9l0.6,0.5Z" class="g2_1155" />
<path d="M594.3,462l-0.2,0.7l1.6,0.7l0.1,-0.8Z" class="g2_1155" />
<path d="M594.9,463l0.1,-2.6l0.1,-1.5l1.3,1l6.8,5.2l2.1,1.6l-2.7,-0.2l-8.5,-0.8l-1.7,-0.2l1.1,-1.2l0.7,-0.2l8.5,0.8l-0.1,1.6l-0.4,-0.2l-6.8,-5.2l1,-1.2l0.3,0.5l-0.1,2.6Z" class="g2_1155" />
<path d="M593.5,464.3l1.7,-1.8l1.4,0.5l-0.1,0.3l-0.2,0.3l-1.7,1.8Z" class="g2_1155" />
<path fill-rule="evenodd" d="M595.7,463l0.1,-2.6l6.8,5.3l-8.5,-0.9Z" class="g2_1155" />
<path d="M435.5,400.3l-0.3,-0.1l-0.2,0.7l0.2,0.1Z" class="g2_1155" />
<path d="M594.4,462.1l0.2,0.1l-0.2,0.6l-0.3,-0.1Z" class="g2_1155" />
<path d="M435.5,400.3l-0.3,0.7l158.9,61.7l0.3,-0.6Z" class="g2_1155" />
<path d="M538.2,461.4l-0.4,0.7l1.5,0.6l0.3,-0.7Z" class="g2_1155" />
<path d="M538.6,462.3l0.3,-2.5l0.2,-1.6l1.2,1.1l6.4,5.6l2,1.8l-2.6,-0.4L537.6,465l-1.4,-0.3l1,-1l0.7,-0.2l8.4,1.2l-0.2,1.6L545.7,466l-6.4,-5.6l1,-1.1l0.2,0.8l-0.3,2.4Z" class="g2_1155" />
<path d="M537.2,463.7l1.7,-1.8l1.3,0.7l0,0.2l-0.2,0.1l-1.7,1.9Z" class="g2_1155" />
<path fill-rule="evenodd" d="M539.5,462.4l0.2,-2.5l6.5,5.6l-8.5,-1.3Z" class="g2_1155" />
<path d="M405.3,400.3L405,400.2l-0.3,0.7L405,401Z" class="g2_1155" />
<path d="M538.2,461.5l0.3,0l-0.3,0.7l-0.3,-0.1Z" class="g2_1155" />
<path d="M405.3,400.3L405,401l132.9,61.1l0.3,-0.6Z" class="g2_1155" />
<path d="M483.1,462.7l-0.2,0.8l1.5,0.6l0.2,-0.7Z" class="g2_1155" />
<path d="M483.6,463.7l0.1,-2.5l0,-1.7l1.4,1.1l6.8,5.3l2,1.5l-2.6,-0.2l-8.5,-0.8l-1.6,-0.2l1.1,-1.2l0.6,-0.2l8.5,0.9l-0.1,1.5L490.9,467l-6.8,-5.2l1,-1.2l0.3,0.6l-0.1,2.5Z" class="g2_1155" />
<path d="M482.3,465l1.6,-1.8l1.4,0.5l-0.1,0.3l-0.2,0.3l-1.6,1.8Z" class="g2_1155" />
<path fill-rule="evenodd" d="M484.5,463.7l0.1,-2.5l6.7,5.2l-8.5,-0.8Z" class="g2_1155" />
<path d="M324.6,399.4l-0.3,-0.1l-0.3,0.6l0.3,0.1Z" class="g2_1155" />
<path d="M483.2,462.8l0.3,0.1l-0.3,0.7l-0.3,-0.1Z" class="g2_1155" />
<path d="M324.6,399.4l-0.3,0.6l158.6,63.5l0.3,-0.7Z" class="g2_1155" />
<path d="M428.5,461.5l-0.4,0.7l1.5,0.7l0.3,-0.7Z" class="g2_1155" />
<path d="M428.9,462.5l0.2,-2.6l0.1,-1.6l1.3,1.1l6.6,5.5l2,1.8l-2.7,-0.4l-8.5,-1.2l-1.6,-0.3l1.1,-1.1l0.7,-0.1l8.5,1.2l-0.2,1.5L436.1,466l-6.6,-5.5l1,-1.1l0.2,0.7l-0.1,2.5Z" class="g2_1155" />
<path d="M427.4,463.7l1.8,-1.7l1.4,0.6l-0.1,0.3l-2,1.9Z" class="g2_1155" />
<path fill-rule="evenodd" d="M429.7,462.6l0.2,-2.6l6.6,5.5L428,464.3Z" class="g2_1155" />
<path d="M293.4,401.2l-0.2,-0.1l-0.3,0.7l0.3,0.1Z" class="g2_1155" />
<path d="M428.5,461.5l0.2,0.1l-0.2,0.7l-0.3,-0.1Z" class="g2_1155" />
<path d="M293.4,401.2l-0.2,0.7l135,60.3l0.3,-0.7Z" class="g2_1155" />
</svg>