<?xml version="1.0" encoding="UTF-8" standalone="no"?>
<!DOCTYPE svg PUBLIC "-//W3C//DTD SVG 1.1//EN"
"http://www.w3.org/Graphics/SVG/1.1/DTD/svg11.dtd">
<svg viewBox="0 0 935 1210" version="1.1" xmlns="http://www.w3.org/2000/svg" xmlns:xlink="http://www.w3.org/1999/xlink">
<defs>
<style type="text/css"><![CDATA[
.g1_461{
fill: #FFFFFF;
}
.g2_461{
}
]]></style>
</defs>
<path d="M68.9,1149.3l686.3,0l0,-21.2l-686.3,0l0,21.2Z" class="g1_461" />
<path d="M771.3,1149.3l83.7,0l0,-21.2l-83.7,0l0,21.2Z" class="g1_461" />
<path d="M70.1,192.1l0.8,0l0,-60.3l-0.8,0l0,60.3Z" class="g2_461" />
<path d="M179.1,192.9l0.8,0l0,-61.9l-0.8,0l0,61.9Z" class="g2_461" />
<path d="M394.4,192.9l0.8,0l0,-61.9l-0.8,0l0,61.9Z" class="g2_461" />
<path d="M454.3,192.9l0.7,0L455,131l-0.7,0l0,61.9Z" class="g2_461" />
<path d="M539.3,192.9l0.7,0L540,131l-0.7,0l0,61.9Z" class="g2_461" />
<path d="M851.9,192.1l0.7,0l0,-60.3l-0.7,0l0,60.3Z" class="g2_461" />
<path d="M70.1,131.7l782.5,0l0,-0.7L70.1,131l0,0.7Z" class="g2_461" />
<path d="M70.1,169.9l782.5,0l0,-0.7l-782.5,0l0,0.7Z" class="g2_461" />
<path d="M70.1,192.9l782.5,0l0,-0.8l-782.5,0l0,0.8Z" class="g2_461" />
</svg>