<?xml version="1.0" encoding="UTF-8" standalone="no"?>
<!DOCTYPE svg PUBLIC "-//W3C//DTD SVG 1.1//EN"
"http://www.w3.org/Graphics/SVG/1.1/DTD/svg11.dtd">
<svg viewBox="0 0 935 1210" version="1.1" xmlns="http://www.w3.org/2000/svg" xmlns:xlink="http://www.w3.org/1999/xlink">
<defs>
<style type="text/css"><![CDATA[
.g1_545{
fill: #FFFFFF;
}
.g2_545{
}
]]></style>
</defs>
<path d="M68.9,1149.3l686.3,0l0,-21.2l-686.3,0l0,21.2Z" class="g1_545" />
<path d="M771.3,1149.3l83.7,0l0,-21.2l-83.7,0l0,21.2Z" class="g1_545" />
<path d="M70.9,578.7l0.7,0l0,-453l-0.7,0l0,453Z" class="g2_545" />
<path d="M70.9,621.4l0.7,0l0,-42l-0.7,0l0,42Z" class="g2_545" />
<path d="M222,579.4l0.8,0l0,-454.5l-0.8,0l0,454.5Z" class="g2_545" />
<path d="M393.3,579.4l0.8,0l0,-454.5l-0.8,0l0,454.5Z" class="g2_545" />
<path d="M431,579.4l0.8,0l0,-454.5l-0.8,0l0,454.5Z" class="g2_545" />
<path d="M504.1,579.4l0.7,0l0,-454.5l-0.7,0l0,454.5Z" class="g2_545" />
<path d="M575.1,579.4l0.8,0l0,-454.5l-0.8,0l0,454.5Z" class="g2_545" />
<path d="M851.1,578.7l0.8,0l0,-453l-0.8,0l0,453Z" class="g2_545" />
<path d="M851.1,621.4l0.8,0l0,-42l-0.8,0l0,42Z" class="g2_545" />
<path d="M70.9,125.7l781,0l0,-0.8l-781,0l0,0.8Z" class="g2_545" />
<path d="M70.9,163.8l781,0l0,-0.7l-781,0l0,0.7Z" class="g2_545" />
<path d="M70.9,186.7l781,0l0,-0.7l-781,0l0,0.7Z" class="g2_545" />
<path d="M70.9,209.6l781,0l0,-0.7l-781,0l0,0.7Z" class="g2_545" />
<path d="M70.9,232.6l781,0l0,-0.8l-781,0l0,0.8Z" class="g2_545" />
<path d="M70.9,255.5l781,0l0,-0.8l-781,0l0,0.8Z" class="g2_545" />
<path d="M70.9,278.4l781,0l0,-0.7l-781,0l0,0.7Z" class="g2_545" />
<path d="M70.9,318.2l781,0l0,-0.8l-781,0l0,0.8Z" class="g2_545" />
<path d="M70.9,357.9l781,0l0,-0.8l-781,0l0,0.8Z" class="g2_545" />
<path d="M70.9,397.7l781,0l0,-0.8l-781,0l0,0.8Z" class="g2_545" />
<path d="M70.9,437.3l781,0l0,-0.7l-781,0l0,0.7Z" class="g2_545" />
<path d="M70.9,477l781,0l0,-0.7l-781,0l0,0.7Z" class="g2_545" />
<path d="M70.9,499.9l781,0l0,-0.7l-781,0l0,0.7Z" class="g2_545" />
<path d="M70.9,539.7l781,0l0,-0.7l-781,0l0,0.7Z" class="g2_545" />
<path d="M70.9,579.4l781,0l0,-0.7l-781,0l0,0.7Z" class="g2_545" />
<path d="M70.9,622.2l781,0l0,-0.7l-781,0l0,0.7Z" class="g2_545" />
<path d="M71.6,774.2l0.7,0l0,-97l-0.7,0l0,97Z" class="g2_545" />
<path d="M143.8,775l0.8,0l0,-98.6l-0.8,0l0,98.6Z" class="g2_545" />
<path d="M314.2,775l0.8,0l0,-98.6l-0.8,0l0,98.6Z" class="g2_545" />
<path d="M496.5,775l0.7,0l0,-98.6l-0.7,0l0,98.6Z" class="g2_545" />
<path d="M669.5,775l0.8,0l0,-98.6l-0.8,0l0,98.6Z" class="g2_545" />
<path d="M850.4,774.2l0.7,0l0,-97l-0.7,0l0,97Z" class="g2_545" />
<path d="M71.6,677.2l779.5,0l0,-0.7l-779.5,0l0,0.7Z" class="g2_545" />
<path d="M71.6,701.6l779.5,0l0,-0.7l-779.5,0l0,0.7Z" class="g2_545" />
<path d="M71.6,726.1l779.5,0l0,-0.7l-779.5,0l0,0.7Z" class="g2_545" />
<path d="M71.6,750.6l779.5,0l0,-0.8l-779.5,0l0,0.8Z" class="g2_545" />
<path d="M71.6,774.9l779.5,0l0,-0.7l-779.5,0l0,0.7Z" class="g2_545" />
</svg>