<?xml version="1.0" encoding="UTF-8" standalone="no"?>
<!DOCTYPE svg PUBLIC "-//W3C//DTD SVG 1.1//EN"
"http://www.w3.org/Graphics/SVG/1.1/DTD/svg11.dtd">
<svg viewBox="0 0 935 1210" version="1.1" xmlns="http://www.w3.org/2000/svg" xmlns:xlink="http://www.w3.org/1999/xlink">
<defs>
<style type="text/css"><![CDATA[
.g1_80{
fill: #FFFFFF;
}
.g2_80{
}
]]></style>
</defs>
<path d="M68.8,1149.3l783.7,0l0,-21.2l-783.7,0l0,21.2Z" class="g1_80" />
<path d="M66.8,997.9l0.8,0l0,-873.8l-0.8,0l0,873.8Z" class="g2_80" />
<path d="M175.6,998.7l0.8,0l0,-875.3l-0.8,0l0,875.3Z" class="g2_80" />
<path d="M853.6,997.9l0.7,0l0,-873.8l-0.7,0l0,873.8Z" class="g2_80" />
<path d="M66.8,124.1l787.5,0l0,-0.7l-787.5,0l0,0.7Z" class="g2_80" />
<path d="M66.8,148.6l787.5,0l0,-0.7l-787.5,0l0,0.7Z" class="g2_80" />
<path d="M66.8,315.1l787.5,0l0,-0.8l-787.5,0l0,0.8Z" class="g2_80" />
<path d="M66.8,440.4l787.5,0l0,-0.8l-787.5,0l0,0.8Z" class="g2_80" />
<path d="M66.8,539.7l787.5,0l0,-0.7L66.8,539l0,0.7Z" class="g2_80" />
<path d="M66.8,614.5l787.5,0l0,-0.7l-787.5,0l0,0.7Z" class="g2_80" />
<path d="M66.8,680.3l787.5,0l0,-0.8l-787.5,0l0,0.8Z" class="g2_80" />
<path d="M66.8,704.7l787.5,0l0,-0.7L66.8,704l0,0.7Z" class="g2_80" />
<path d="M66.8,837.7l787.5,0l0,-0.8l-787.5,0l0,0.8Z" class="g2_80" />
<path d="M66.8,912.5l787.5,0l0,-0.8l-787.5,0l0,0.8Z" class="g2_80" />
<path d="M66.8,957.4l787.5,0l0,-0.8l-787.5,0l0,0.8Z" class="g2_80" />
<path d="M66.8,998.6l787.5,0l0,-0.7l-787.5,0l0,0.7Z" class="g2_80" />
</svg>