<?xml version="1.0" encoding="UTF-8" standalone="no"?>
<!DOCTYPE svg PUBLIC "-//W3C//DTD SVG 1.1//EN"
"http://www.w3.org/Graphics/SVG/1.1/DTD/svg11.dtd">
<svg viewBox="0 0 935 1210" version="1.1" xmlns="http://www.w3.org/2000/svg" xmlns:xlink="http://www.w3.org/1999/xlink">
<defs>
<style type="text/css"><![CDATA[
.g1_1892{
fill: #FFFFFF;
}
.g2_1892{
}
]]></style>
</defs>
<path d="M165,1149.3l687.5,0l0,-21.2l-687.5,0l0,21.2Z" class="g1_1892" />
<path d="M68.8,1149.3l82.5,0l0,-21.2l-82.5,0l0,21.2Z" class="g1_1892" />
<path d="M159,311.3l0.7,0l0,-170.3l-0.7,0l0,170.3Z" class="g2_1892" />
<path d="M340.4,312l0.8,0l0,-171.8l-0.8,0l0,171.8Z" class="g2_1892" />
<path d="M500.2,312l0.8,0l0,-171.8l-0.8,0l0,171.8Z" class="g2_1892" />
<path d="M761.5,311.3l0.7,0l0,-170.3l-0.7,0l0,170.3Z" class="g2_1892" />
<path d="M159,140.9l603.2,0l0,-0.7l-603.2,0l0,0.7Z" class="g2_1892" />
<path d="M159,165.4l603.2,0l0,-0.8l-603.2,0l0,0.8Z" class="g2_1892" />
<path d="M159,189.8l603.2,0l0,-0.7l-603.2,0l0,0.7Z" class="g2_1892" />
<path d="M159,214.2l603.2,0l0,-0.7l-603.2,0l0,0.7Z" class="g2_1892" />
<path d="M159,238.7l603.2,0l0,-0.7L159,238l0,0.7Z" class="g2_1892" />
<path d="M159,263.2l603.2,0l0,-0.8l-603.2,0l0,0.8Z" class="g2_1892" />
<path d="M159,287.6l603.2,0l0,-0.8l-603.2,0l0,0.8Z" class="g2_1892" />
<path d="M159,312l603.2,0l0,-0.7l-603.2,0l0,0.7Z" class="g2_1892" />
</svg>