<?xml version="1.0" encoding="UTF-8" standalone="no"?>
<!DOCTYPE svg PUBLIC "-//W3C//DTD SVG 1.1//EN"
"http://www.w3.org/Graphics/SVG/1.1/DTD/svg11.dtd">
<svg viewBox="0 0 935 1210" version="1.1" xmlns="http://www.w3.org/2000/svg" xmlns:xlink="http://www.w3.org/1999/xlink">
<defs>
<style type="text/css"><![CDATA[
.g1_772{
fill: #FFFFFF;
}
.g2_772{
}
]]></style>
</defs>
<path d="M165,1149.3l687.5,0l0,-21.2l-687.5,0l0,21.2Z" class="g1_772" />
<path d="M68.8,1149.3l82.5,0l0,-21.2l-82.5,0l0,21.2Z" class="g1_772" />
<path d="M68.6,612.2l0.7,0l0,-486.5l-0.7,0l0,486.5Z" class="g2_772" />
<path d="M306,613.1l0.7,0l0,-488.2l-0.7,0l0,488.2Z" class="g2_772" />
<path d="M373.2,613.1l0.7,0l0,-488.2l-0.7,0l0,488.2Z" class="g2_772" />
<path d="M447.7,613.1l0.7,0l0,-488.2l-0.7,0l0,488.2Z" class="g2_772" />
<path d="M526.5,613.1l0.8,0l0,-488.2l-0.8,0l0,488.2Z" class="g2_772" />
<path d="M850.8,612.2l0.7,0l0,-486.5l-0.7,0l0,486.5Z" class="g2_772" />
<path d="M68.6,125.7l783,0l0,-0.8l-783,0l0,0.8Z" class="g2_772" />
<path d="M68.6,176.1l783,0l0,-0.7l-783,0l0,0.7Z" class="g2_772" />
<path d="M68.6,212.8l783,0l0,-0.8l-783,0l0,0.8Z" class="g2_772" />
<path d="M68.6,249.4l783,0l0,-0.7l-783,0l0,0.7Z" class="g2_772" />
<path d="M68.6,286.1l783,0l0,-0.7l-783,0l0,0.7Z" class="g2_772" />
<path d="M68.6,322.8l783,0l0,-0.8l-783,0l0,0.8Z" class="g2_772" />
<path d="M68.6,359.4l783,0l0,-0.7l-783,0l0,0.7Z" class="g2_772" />
<path d="M68.6,396.1l783,0l0,-0.7l-783,0l0,0.7Z" class="g2_772" />
<path d="M68.6,432.8l783,0l0,-0.8l-783,0l0,0.8Z" class="g2_772" />
<path d="M68.6,486.2l783,0l0,-0.7l-783,0l0,0.7Z" class="g2_772" />
<path d="M68.6,522.9l783,0l0,-0.8l-783,0l0,0.8Z" class="g2_772" />
<path d="M68.6,576.4l783,0l0,-0.7l-783,0l0,0.7Z" class="g2_772" />
<path d="M68.6,613.1l783,0l0,-0.8l-783,0l0,0.8Z" class="g2_772" />
<path d="M70.9,862.9l0.8,0l0,-194.8l-0.8,0l0,194.8Z" class="g2_772" />
<path d="M175.5,863.6l0.8,0l0,-196.4l-0.8,0l0,196.4Z" class="g2_772" />
<path d="M339.3,863.6l0.7,0l0,-196.4l-0.7,0l0,196.4Z" class="g2_772" />
<path d="M513.1,863.6l0.7,0l0,-196.4l-0.7,0l0,196.4Z" class="g2_772" />
<path d="M684.3,863.6l0.7,0l0,-196.4l-0.7,0l0,196.4Z" class="g2_772" />
<path d="M849.5,862.9l0.7,0l0,-194.8l-0.7,0l0,194.8Z" class="g2_772" />
<path d="M70.9,668.1l779.3,0l0,-0.8l-779.3,0l0,0.8Z" class="g2_772" />
<path d="M70.9,692.4l779.3,0l0,-0.7l-779.3,0l0,0.7Z" class="g2_772" />
<path d="M70.9,716.9l779.3,0l0,-0.7l-779.3,0l0,0.7Z" class="g2_772" />
<path d="M70.9,741.4l779.3,0l0,-0.7l-779.3,0l0,0.7Z" class="g2_772" />
<path d="M70.9,765.8l779.3,0l0,-0.7l-779.3,0l0,0.7Z" class="g2_772" />
<path d="M70.9,790.3l779.3,0l0,-0.8l-779.3,0l0,0.8Z" class="g2_772" />
<path d="M70.9,814.7l779.3,0l0,-0.7L70.9,814l0,0.7Z" class="g2_772" />
<path d="M70.9,839.1l779.3,0l0,-0.7l-779.3,0l0,0.7Z" class="g2_772" />
<path d="M70.9,863.6l779.3,0l0,-0.7l-779.3,0l0,0.7Z" class="g2_772" />
</svg>