<?xml version="1.0" encoding="UTF-8" standalone="no"?>
<!DOCTYPE svg PUBLIC "-//W3C//DTD SVG 1.1//EN"
"http://www.w3.org/Graphics/SVG/1.1/DTD/svg11.dtd">
<svg viewBox="0 0 935 1210" version="1.1" xmlns="http://www.w3.org/2000/svg" xmlns:xlink="http://www.w3.org/1999/xlink">
<defs>
<style type="text/css"><![CDATA[
.g1_1109{
fill: #FFFFFF;
}
.g2_1109{
}
]]></style>
</defs>
<path d="M68.9,1149.3l686.3,0l0,-21.2l-686.3,0l0,21.2Z" class="g1_1109" />
<path d="M771.3,1149.3l83.7,0l0,-21.2l-83.7,0l0,21.2Z" class="g1_1109" />
<path d="M67.5,1070.7l0.7,0l0,-938.9l-0.7,0l0,938.9Z" class="g2_1109" />
<path d="M373,1071.4l0.7,0l0,-940.4l-0.7,0l0,940.4Z" class="g2_1109" />
<path d="M417.7,1071.4l0.8,0l0,-940.4l-0.8,0l0,940.4Z" class="g2_1109" />
<path d="M491.1,1071.4l0.7,0l0,-940.4l-0.7,0l0,940.4Z" class="g2_1109" />
<path d="M576.2,1071.4l0.8,0L577,131l-0.8,0l0,940.4Z" class="g2_1109" />
<path d="M854.5,1070.7l0.7,0l0,-938.9l-0.7,0l0,938.9Z" class="g2_1109" />
<path d="M67.5,131.7l787.7,0l0,-0.7L67.5,131l0,0.7Z" class="g2_1109" />
<path d="M67.5,185.3l787.7,0l0,-0.8l-787.7,0l0,0.8Z" class="g2_1109" />
<path d="M67.5,229.5l787.7,0l0,-0.7l-787.7,0l0,0.7Z" class="g2_1109" />
<path d="M67.5,273.8l787.7,0l0,-0.7l-787.7,0l0,0.7Z" class="g2_1109" />
<path d="M67.5,318.2l787.7,0l0,-0.8l-787.7,0l0,0.8Z" class="g2_1109" />
<path d="M67.5,362.4l787.7,0l0,-0.7l-787.7,0l0,0.7Z" class="g2_1109" />
<path d="M67.5,406.8l787.7,0l0,-0.7l-787.7,0l0,0.7Z" class="g2_1109" />
<path d="M67.5,451.1l787.7,0l0,-0.7l-787.7,0l0,0.7Z" class="g2_1109" />
<path d="M67.5,495.4l787.7,0l0,-0.8l-787.7,0l0,0.8Z" class="g2_1109" />
<path d="M67.5,539.7l787.7,0l0,-0.7L67.5,539l0,0.7Z" class="g2_1109" />
<path d="M67.5,584l787.7,0l0,-0.7l-787.7,0l0,0.7Z" class="g2_1109" />
<path d="M67.5,628.3l787.7,0l0,-0.7l-787.7,0l0,0.7Z" class="g2_1109" />
<path d="M67.5,672.7l787.7,0l0,-0.8l-787.7,0l0,0.8Z" class="g2_1109" />
<path d="M67.5,716.9l787.7,0l0,-0.7l-787.7,0l0,0.7Z" class="g2_1109" />
<path d="M67.5,761.2l787.7,0l0,-0.7l-787.7,0l0,0.7Z" class="g2_1109" />
<path d="M67.5,805.6l787.7,0l0,-0.8l-787.7,0l0,0.8Z" class="g2_1109" />
<path d="M67.5,849.8l787.7,0l0,-0.7l-787.7,0l0,0.7Z" class="g2_1109" />
<path d="M67.5,894.1l787.7,0l0,-0.7l-787.7,0l0,0.7Z" class="g2_1109" />
<path d="M67.5,938.5l787.7,0l0,-0.7l-787.7,0l0,0.7Z" class="g2_1109" />
<path d="M67.5,982.8l787.7,0l0,-0.8L67.5,982l0,0.8Z" class="g2_1109" />
<path d="M67.5,1027l787.7,0l0,-0.7l-787.7,0l0,0.7Z" class="g2_1109" />
<path d="M67.5,1071.4l787.7,0l0,-0.7l-787.7,0l0,0.7Z" class="g2_1109" />
</svg>