<?xml version="1.0" encoding="UTF-8" standalone="no"?>
<!DOCTYPE svg PUBLIC "-//W3C//DTD SVG 1.1//EN"
"http://www.w3.org/Graphics/SVG/1.1/DTD/svg11.dtd">
<svg viewBox="0 0 935 1210" version="1.1" xmlns="http://www.w3.org/2000/svg" xmlns:xlink="http://www.w3.org/1999/xlink">
<defs>
<style type="text/css"><![CDATA[
.g1_1328{
fill: #FFFFFF;
}
.g2_1328{
}
]]></style>
</defs>
<path d="M165,1149.3l687.5,0l0,-21.2l-687.5,0l0,21.2Z" class="g1_1328" />
<path d="M68.8,1149.3l82.5,0l0,-21.2l-82.5,0l0,21.2Z" class="g1_1328" />
<path d="M68.9,1048l0,-0.7Z" class="g2_1328" />
<path d="M68.9,1048l220.4,0l0,-0.7l-220.4,0l0,0.7Z" class="g2_1328" />
<path d="M69.6,234.9l0.7,0l0,-100.1l-0.7,0l0,100.1Z" class="g2_1328" />
<path d="M220.7,235.7l0.8,0l0,-101.6l-0.8,0l0,101.6Z" class="g2_1328" />
<path d="M392.2,235.7l0.8,0l0,-101.6l-0.8,0l0,101.6Z" class="g2_1328" />
<path d="M430.1,235.7l0.7,0l0,-101.6l-0.7,0l0,101.6Z" class="g2_1328" />
<path d="M503.4,235.7l0.8,0l0,-101.6l-0.8,0l0,101.6Z" class="g2_1328" />
<path d="M574.8,235.7l0.8,0l0,-101.6l-0.8,0l0,101.6Z" class="g2_1328" />
<path d="M850.8,234.9l0.8,0l0,-100.1l-0.8,0l0,100.1Z" class="g2_1328" />
<path d="M69.5,134.8l782.1,0l0,-0.7l-782.1,0l0,0.7Z" class="g2_1328" />
<path d="M69.5,173l782.1,0l0,-0.8l-782.1,0l0,0.8Z" class="g2_1328" />
<path d="M69.5,212.8l782.1,0l0,-0.8L69.5,212l0,0.8Z" class="g2_1328" />
<path d="M69.5,235.7l782.1,0l0,-0.8l-782.1,0l0,0.8Z" class="g2_1328" />
<path d="M70.9,335.8l0.7,0l0,-48.1l-0.7,0l0,48.1Z" class="g2_1328" />
<path d="M133.2,336.5l0.7,0l0,-49.7l-0.7,0l0,49.7Z" class="g2_1328" />
<path d="M306.7,336.5l0.8,0l0,-49.7l-0.8,0l0,49.7Z" class="g2_1328" />
<path d="M491.3,336.5l0.8,0l0,-49.7l-0.8,0l0,49.7Z" class="g2_1328" />
<path d="M668.5,336.5l0.8,0l0,-49.7l-0.8,0l0,49.7Z" class="g2_1328" />
<path d="M849.6,335.8l0.7,0l0,-48.1l-0.7,0l0,48.1Z" class="g2_1328" />
<path d="M70.8,287.6l779.5,0l0,-0.8l-779.5,0l0,0.8Z" class="g2_1328" />
<path d="M70.8,312l779.5,0l0,-0.7l-779.5,0l0,0.7Z" class="g2_1328" />
<path d="M70.8,336.5l779.5,0l0,-0.7l-779.5,0l0,0.7Z" class="g2_1328" />
</svg>