<?xml version="1.0" encoding="UTF-8" standalone="no"?>
<!DOCTYPE svg PUBLIC "-//W3C//DTD SVG 1.1//EN"
"http://www.w3.org/Graphics/SVG/1.1/DTD/svg11.dtd">
<svg viewBox="0 0 935 1210" version="1.1" xmlns="http://www.w3.org/2000/svg" xmlns:xlink="http://www.w3.org/1999/xlink">
<defs>
<style type="text/css"><![CDATA[
.g1_1042{
fill: #FFFFFF;
}
.g2_1042{
}
]]></style>
</defs>
<path d="M165,1149.3l687.5,0l0,-21.2l-687.5,0l0,21.2Z" class="g1_1042" />
<path d="M68.8,1149.3l82.5,0l0,-21.2l-82.5,0l0,21.2Z" class="g1_1042" />
<path d="M69.6,208.9l0.7,0l0,-83.2l-0.7,0l0,83.2Z" class="g2_1042" />
<path d="M219.1,209.7l0.7,0l0,-84.8l-0.7,0l0,84.8Z" class="g2_1042" />
<path d="M388.9,209.7l0.7,0l0,-84.8l-0.7,0l0,84.8Z" class="g2_1042" />
<path d="M426.6,209.7l0.8,0l0,-84.8l-0.8,0l0,84.8Z" class="g2_1042" />
<path d="M500,209.7l0.8,0l0,-84.8l-0.8,0l0,84.8Z" class="g2_1042" />
<path d="M571.5,209.7l0.7,0l0,-84.8l-0.7,0l0,84.8Z" class="g2_1042" />
<path d="M850.8,208.9l0.8,0l0,-83.2l-0.8,0l0,83.2Z" class="g2_1042" />
<path d="M69.5,125.7l782.1,0l0,-0.8l-782.1,0l0,0.8Z" class="g2_1042" />
<path d="M69.5,163.8l782.1,0l0,-0.7l-782.1,0l0,0.7Z" class="g2_1042" />
<path d="M69.5,186.7l782.1,0l0,-0.7L69.5,186l0,0.7Z" class="g2_1042" />
<path d="M69.5,209.6l782.1,0l0,-0.7l-782.1,0l0,0.7Z" class="g2_1042" />
<path d="M69.7,312.9l0.7,0l0,-48.2l-0.7,0l0,48.2Z" class="g2_1042" />
<path d="M136.8,313.6l0.7,0l0,-49.7l-0.7,0l0,49.7Z" class="g2_1042" />
<path d="M313,313.6l0.8,0l0,-49.7l-0.8,0l0,49.7Z" class="g2_1042" />
<path d="M491.3,313.6l0.8,0l0,-49.7l-0.8,0l0,49.7Z" class="g2_1042" />
<path d="M669,313.6l0.7,0l0,-49.7l-0.7,0l0,49.7Z" class="g2_1042" />
<path d="M850.8,312.9l0.7,0l0,-48.2l-0.7,0l0,48.2Z" class="g2_1042" />
<path d="M69.7,264.6l781.8,0l0,-0.7l-781.8,0l0,0.7Z" class="g2_1042" />
<path d="M69.7,289.1l781.8,0l0,-0.7l-781.8,0l0,0.7Z" class="g2_1042" />
<path d="M69.7,313.6l781.8,0l0,-0.7l-781.8,0l0,0.7Z" class="g2_1042" />
</svg>