<?xml version="1.0" encoding="UTF-8" standalone="no"?>
<!DOCTYPE svg PUBLIC "-//W3C//DTD SVG 1.1//EN"
"http://www.w3.org/Graphics/SVG/1.1/DTD/svg11.dtd">
<svg viewBox="0 0 935 1210" version="1.1" xmlns="http://www.w3.org/2000/svg" xmlns:xlink="http://www.w3.org/1999/xlink">
<defs>
<clipPath id="c0_2070"><path d="M68.9,471.2l0,-29.6l781.5,0l0,29.6Z" /></clipPath>
<style type="text/css"><![CDATA[
.g1_2070{
fill: #FFFFFF;
}
.g2_2070{
}
]]></style>
</defs>
<path d="M68.8,1149.3l783.7,0l0,-21.2l-783.7,0l0,21.2Z" class="g1_2070" />
<g clip-path="url(#c0_2070)">
<path d="M68.9,471.2l781.5,0l0,-29.6l-781.5,0l0,29.6Z" class="g1_2070" />
</g>
<path d="M69.9,464.5l53.5,0l0,-12.5l-53.5,0l0,12.5Z" class="g1_2070" />
<path d="M68.6,441.2l0.7,0l0,-317.1l-0.7,0l0,317.1Z" class="g2_2070" />
<path d="M467,441.9l0.7,0l0,-318.5l-0.7,0l0,318.5Z" class="g2_2070" />
<path d="M850,441.2l0.8,0l0,-317.1l-0.8,0l0,317.1Z" class="g2_2070" />
<path d="M68.6,124.1l782.2,0l0,-0.7l-782.2,0l0,0.7Z" class="g2_2070" />
<path d="M68.6,148.6l782.2,0l0,-0.7l-782.2,0l0,0.7Z" class="g2_2070" />
<path d="M68.6,173l782.2,0l0,-0.8l-782.2,0l0,0.8Z" class="g2_2070" />
<path d="M68.6,197.4l782.2,0l0,-0.7l-782.2,0l0,0.7Z" class="g2_2070" />
<path d="M68.6,221.9l782.2,0l0,-0.7l-782.2,0l0,0.7Z" class="g2_2070" />
<path d="M68.6,246.3l782.2,0l0,-0.7l-782.2,0l0,0.7Z" class="g2_2070" />
<path d="M68.6,270.8l782.2,0l0,-0.7l-782.2,0l0,0.7Z" class="g2_2070" />
<path d="M68.6,295.3l782.2,0l0,-0.8l-782.2,0l0,0.8Z" class="g2_2070" />
<path d="M68.6,319.6l782.2,0l0,-0.7l-782.2,0l0,0.7Z" class="g2_2070" />
<path d="M68.6,344.1l782.2,0l0,-0.7l-782.2,0l0,0.7Z" class="g2_2070" />
<path d="M68.6,368.6l782.2,0l0,-0.7l-782.2,0l0,0.7Z" class="g2_2070" />
<path d="M68.6,393l782.2,0l0,-0.8l-782.2,0l0,0.8Z" class="g2_2070" />
<path d="M68.6,417.4l782.2,0l0,-0.7l-782.2,0l0,0.7Z" class="g2_2070" />
<path d="M68.6,441.9l782.2,0l0,-0.7l-782.2,0l0,0.7Z" class="g2_2070" />
<path d="M70.1,663.3l0.8,0l0,-72.6l-0.8,0l0,72.6Z" class="g2_2070" />
<path d="M167.7,664l0.7,0l0,-74l-0.7,0l0,74Z" class="g2_2070" />
<path d="M850.3,663.3l0.7,0l0,-72.6l-0.7,0l0,72.6Z" class="g2_2070" />
<path d="M70.1,590.7l780.9,0l0,-0.7L70.1,590l0,0.7Z" class="g2_2070" />
<path d="M70.1,615.2l780.9,0l0,-0.8l-780.9,0l0,0.8Z" class="g2_2070" />
<path d="M70.1,639.6l780.9,0l0,-0.8l-780.9,0l0,0.8Z" class="g2_2070" />
<path d="M70.1,664L851,664l0,-0.7l-780.9,0l0,0.7Z" class="g2_2070" />
<path d="M68.6,1086.5l0.7,0l0,-365.9l-0.7,0l0,365.9Z" class="g2_2070" />
<path d="M467.6,1087.3l0.7,0l0,-367.5l-0.7,0l0,367.5Z" class="g2_2070" />
<path d="M851.1,1086.5l0.8,0l0,-365.9l-0.8,0l0,365.9Z" class="g2_2070" />
<path d="M68.6,720.6l783.4,0l0,-0.7l-783.4,0l0,0.7Z" class="g2_2070" />
<path d="M68.6,745L852,745l0,-0.8l-783.4,0l0,0.8Z" class="g2_2070" />
<path d="M68.6,769.5l783.4,0l0,-0.8l-783.4,0l0,0.8Z" class="g2_2070" />
<path d="M68.6,793.9l783.4,0l0,-0.7l-783.4,0l0,0.7Z" class="g2_2070" />
<path d="M68.6,818.3l783.4,0l0,-0.7l-783.4,0l0,0.7Z" class="g2_2070" />
<path d="M68.6,842.8l783.4,0l0,-0.8L68.6,842l0,0.8Z" class="g2_2070" />
<path d="M68.6,867.3l783.4,0l0,-0.8l-783.4,0l0,0.8Z" class="g2_2070" />
<path d="M68.6,891.6l783.4,0l0,-0.7l-783.4,0l0,0.7Z" class="g2_2070" />
<path d="M68.6,916.1l783.4,0l0,-0.7l-783.4,0l0,0.7Z" class="g2_2070" />
<path d="M68.6,940.6l783.4,0l0,-0.7l-783.4,0l0,0.7Z" class="g2_2070" />
<path d="M68.6,965L852,965l0,-0.8l-783.4,0l0,0.8Z" class="g2_2070" />
<path d="M68.6,989.5l783.4,0l0,-0.8l-783.4,0l0,0.8Z" class="g2_2070" />
<path d="M68.6,1013.9l783.4,0l0,-0.7l-783.4,0l0,0.7Z" class="g2_2070" />
<path d="M68.6,1038.3l783.4,0l0,-0.7l-783.4,0l0,0.7Z" class="g2_2070" />
<path d="M68.6,1062.8l783.4,0l0,-0.8l-783.4,0l0,0.8Z" class="g2_2070" />
<path d="M68.6,1087.3l783.4,0l0,-0.8l-783.4,0l0,0.8Z" class="g2_2070" />
</svg>