<?xml version="1.0" encoding="UTF-8" standalone="no"?>
<!DOCTYPE svg PUBLIC "-//W3C//DTD SVG 1.1//EN"
"http://www.w3.org/Graphics/SVG/1.1/DTD/svg11.dtd">
<svg viewBox="0 0 935 1210" version="1.1" xmlns="http://www.w3.org/2000/svg" xmlns:xlink="http://www.w3.org/1999/xlink">
<defs>
<style type="text/css"><![CDATA[
.g1_74{
fill: #FFFFFF;
}
.g2_74{
}
]]></style>
</defs>
<path d="M68.8,1149.3l783.7,0l0,-21.2l-783.7,0l0,21.2Z" class="g1_74" />
<path d="M76.4,497.3l0.7,0l0,-173l-0.7,0l0,173Z" class="g2_74" />
<path d="M161.5,497.3l0.8,0l0,-173.8l-0.8,0l0,173.8Z" class="g2_74" />
<path d="M219.5,496.2l0.8,0l0,-172.7l-0.8,0l0,172.7Z" class="g2_74" />
<path d="M293.3,496.2l0.8,0l0,-172.7l-0.8,0l0,172.7Z" class="g2_74" />
<path d="M355.6,496.2l0.7,0l0,-172.7l-0.7,0l0,172.7Z" class="g2_74" />
<path d="M430.6,496.2l0.7,0l0,-172.7l-0.7,0l0,172.7Z" class="g2_74" />
<path d="M513.9,496.2l0.7,0l0,-172.7l-0.7,0l0,172.7Z" class="g2_74" />
<path d="M600.5,496.2l0.7,0l0,-172.7l-0.7,0l0,172.7Z" class="g2_74" />
<path d="M701.8,497.3l0.7,0l0,-173.8l-0.7,0l0,173.8Z" class="g2_74" />
<path d="M844.1,497.3l0.7,0l0,-173l-0.7,0l0,173Z" class="g2_74" />
<path d="M76.4,324.2l768.4,0l0,-0.7l-768.4,0l0,0.7Z" class="g2_74" />
<path d="M76.4,348.7l768.4,0l0,-0.7L76.4,348l0,0.7Z" class="g2_74" />
<path d="M161.5,373.2l541,0l0,-0.8l-541,0l0,0.8Z" class="g2_74" />
<path d="M161.5,398.5l541,0l0,-2.3l-541,0l0,2.3Z" class="g2_74" />
<path d="M161.5,422l541,0l0,-0.7l-541,0l0,0.7Z" class="g2_74" />
<path d="M77.1,444.6l767,0l0,-0.8l-767,0l0,0.8Z" class="g2_74" />
<path d="M77.1,448.4l767,0l0,-0.7l-767,0l0,0.7Z" class="g2_74" />
<path d="M161.5,471l541,0l0,-0.8l-541,0l0,0.8Z" class="g2_74" />
<path d="M77.1,493.4l84.4,0l0,-0.7l-84.4,0l0,0.7Z" class="g2_74" />
<path d="M77.1,497.3l84.4,0l0,-0.7l-84.4,0l0,0.7Z" class="g2_74" />
<path d="M162.3,496.2l539.4,0l0,-2.3l-539.4,0l0,2.3Z" class="g2_74" />
<path d="M702.5,493.4l141.6,0l0,-0.7l-141.6,0l0,0.7Z" class="g2_74" />
<path d="M702.5,497.3l141.6,0l0,-0.7l-141.6,0l0,0.7Z" class="g2_74" />
<path d="M73.2,986.6l0.8,0L74,547.3l-0.8,0l0,439.3Z" class="g2_74" />
<path d="M232.7,987.3l0.8,0l0,-440.7l-0.8,0l0,440.7Z" class="g2_74" />
<path d="M307.5,987.3l0.7,0l0,-440.7l-0.7,0l0,440.7Z" class="g2_74" />
<path d="M367.9,987.3l0.7,0l0,-440.7l-0.7,0l0,440.7Z" class="g2_74" />
<path d="M455.8,987.3l0.7,0l0,-440.7l-0.7,0l0,440.7Z" class="g2_74" />
<path d="M543.3,987.3l0.7,0l0,-440.7l-0.7,0l0,440.7Z" class="g2_74" />
<path d="M630.8,987.3l0.7,0l0,-440.7l-0.7,0l0,440.7Z" class="g2_74" />
<path d="M847.2,986.6l0.7,0l0,-439.3l-0.7,0l0,439.3Z" class="g2_74" />
<path d="M73.2,547.3l774.7,0l0,-0.7l-774.7,0l0,0.7Z" class="g2_74" />
<path d="M74,569.9l773.1,0l0,-0.7L74,569.2l0,0.7Z" class="g2_74" />
<path d="M74,573.7l773.1,0l0,-0.8L74,572.9l0,0.8Z" class="g2_74" />
<path d="M73.2,596.2l774.7,0l0,-0.7l-774.7,0l0,0.7Z" class="g2_74" />
<path d="M232.7,620.7l398.9,0l0,-0.8l-398.9,0l0,0.8Z" class="g2_74" />
<path d="M232.7,645.2l398.9,0l0,-0.8l-398.9,0l0,0.8Z" class="g2_74" />
<path d="M232.7,669.5l398.9,0l0,-0.7l-398.9,0l0,0.7Z" class="g2_74" />
<path d="M73.2,694l774.7,0l0,-0.7l-774.7,0l0,0.7Z" class="g2_74" />
<path d="M232.7,718.5l398.9,0l0,-0.7l-398.9,0l0,0.7Z" class="g2_74" />
<path d="M73.2,742.9l774.7,0l0,-0.8l-774.7,0l0,0.8Z" class="g2_74" />
<path d="M232.7,767.3l398.9,0l0,-0.7l-398.9,0l0,0.7Z" class="g2_74" />
<path d="M73.2,791.8l774.7,0l0,-0.7l-774.7,0l0,0.7Z" class="g2_74" />
<path d="M232.7,816.2l398.9,0l0,-0.7l-398.9,0l0,0.7Z" class="g2_74" />
<path d="M73.2,840.7l774.7,0l0,-0.8l-774.7,0l0,0.8Z" class="g2_74" />
<path d="M73.2,865.2l774.7,0l0,-0.8l-774.7,0l0,0.8Z" class="g2_74" />
<path d="M73.2,889.5l774.7,0l0,-0.7l-774.7,0l0,0.7Z" class="g2_74" />
<path d="M73.2,914l774.7,0l0,-0.7l-774.7,0l0,0.7Z" class="g2_74" />
<path d="M73.2,938.5l774.7,0l0,-0.7l-774.7,0l0,0.7Z" class="g2_74" />
<path d="M74,961l773.1,0l0,-0.7L74,960.3l0,0.7Z" class="g2_74" />
<path d="M74,964.8l773.1,0l0,-0.7L74,964.1l0,0.7Z" class="g2_74" />
<path d="M73.2,987.3l774.7,0l0,-0.7l-774.7,0l0,0.7Z" class="g2_74" />
</svg>