<?xml version="1.0" encoding="UTF-8" standalone="no"?>
<!DOCTYPE svg PUBLIC "-//W3C//DTD SVG 1.1//EN"
"http://www.w3.org/Graphics/SVG/1.1/DTD/svg11.dtd">
<svg viewBox="0 0 935 1210" version="1.1" xmlns="http://www.w3.org/2000/svg" xmlns:xlink="http://www.w3.org/1999/xlink">
<defs>
<style type="text/css"><![CDATA[
.g1_224{
fill: #FFFFFF;
}
.g2_224{
}
]]></style>
</defs>
<path d="M165,1149.3l687.5,0l0,-21.2l-687.5,0l0,21.2Z" class="g1_224" />
<path d="M68.8,1149.3l82.5,0l0,-21.2l-82.5,0l0,21.2Z" class="g1_224" />
<path d="M72.4,615.4l0.8,0l0,-489.7l-0.8,0l0,489.7Z" class="g2_224" />
<path d="M203.2,616.1l0.8,0l0,-491.2l-0.8,0l0,491.2Z" class="g2_224" />
<path d="M351.6,616.1l0.8,0l0,-491.2l-0.8,0l0,491.2Z" class="g2_224" />
<path d="M389.4,616.1l0.7,0l0,-491.2l-0.7,0l0,491.2Z" class="g2_224" />
<path d="M462.7,616.1l0.8,0l0,-491.2l-0.8,0l0,491.2Z" class="g2_224" />
<path d="M534.1,616.1l0.8,0l0,-491.2l-0.8,0l0,491.2Z" class="g2_224" />
<path d="M848,615.4l0.7,0l0,-489.7l-0.7,0l0,489.7Z" class="g2_224" />
<path d="M72.4,125.7l776.3,0l0,-0.8l-776.3,0l0,0.8Z" class="g2_224" />
<path d="M72.4,163.8l776.3,0l0,-0.7l-776.3,0l0,0.7Z" class="g2_224" />
<path d="M72.4,203.6l776.3,0l0,-0.7l-776.3,0l0,0.7Z" class="g2_224" />
<path d="M72.4,260.1l776.3,0l0,-0.8l-776.3,0l0,0.8Z" class="g2_224" />
<path d="M72.4,283l776.3,0l0,-0.8l-776.3,0l0,0.8Z" class="g2_224" />
<path d="M72.4,305.9l776.3,0l0,-0.7l-776.3,0l0,0.7Z" class="g2_224" />
<path d="M72.4,328.8l776.3,0l0,-0.7l-776.3,0l0,0.7Z" class="g2_224" />
<path d="M72.4,351.7l776.3,0l0,-0.7L72.4,351l0,0.7Z" class="g2_224" />
<path d="M72.4,374.6l776.3,0l0,-0.7l-776.3,0l0,0.7Z" class="g2_224" />
<path d="M72.4,469.4l776.3,0l0,-0.7l-776.3,0l0,0.7Z" class="g2_224" />
<path d="M72.4,542.8l776.3,0l0,-0.8L72.4,542l0,0.8Z" class="g2_224" />
<path d="M72.4,616.1l776.3,0l0,-0.7l-776.3,0l0,0.7Z" class="g2_224" />
<path d="M69.7,743.7l0.7,0l0,-72.6l-0.7,0l0,72.6Z" class="g2_224" />
<path d="M135,744.4l0.8,0l0,-74l-0.8,0l0,74Z" class="g2_224" />
<path d="M312.7,744.4l0.7,0l0,-74l-0.7,0l0,74Z" class="g2_224" />
<path d="M486.5,744.4l0.7,0l0,-74l-0.7,0l0,74Z" class="g2_224" />
<path d="M673.6,744.4l0.7,0l0,-74l-0.7,0l0,74Z" class="g2_224" />
<path d="M850.8,743.7l0.7,0l0,-72.6l-0.7,0l0,72.6Z" class="g2_224" />
<path d="M69.7,671.1l781.8,0l0,-0.7l-781.8,0l0,0.7Z" class="g2_224" />
<path d="M69.7,695.6l781.8,0l0,-0.8l-781.8,0l0,0.8Z" class="g2_224" />
<path d="M69.7,719.9l781.8,0l0,-0.7l-781.8,0l0,0.7Z" class="g2_224" />
<path d="M69.7,744.4l781.8,0l0,-0.7l-781.8,0l0,0.7Z" class="g2_224" />
</svg>