<?xml version="1.0" encoding="UTF-8" standalone="no"?>
<!DOCTYPE svg PUBLIC "-//W3C//DTD SVG 1.1//EN"
"http://www.w3.org/Graphics/SVG/1.1/DTD/svg11.dtd">
<svg viewBox="0 0 935 1210" version="1.1" xmlns="http://www.w3.org/2000/svg" xmlns:xlink="http://www.w3.org/1999/xlink">
<defs>
<style type="text/css"><![CDATA[
.g1_1060{
fill: #FFFFFF;
}
.g2_1060{
}
]]></style>
</defs>
<path d="M165,1149.3l687.5,0l0,-21.2l-687.5,0l0,21.2Z" class="g1_1060" />
<path d="M68.8,1149.3l82.5,0l0,-21.2l-82.5,0l0,21.2Z" class="g1_1060" />
<path d="M69.6,792.6l0.7,0l0,-666.9l-0.7,0l0,666.9Z" class="g2_1060" />
<path d="M360.2,793.4l0.7,0l0,-668.5l-0.7,0l0,668.5Z" class="g2_1060" />
<path d="M398,793.4l0.8,0l0,-668.5l-0.8,0l0,668.5Z" class="g2_1060" />
<path d="M471.3,793.4l0.8,0l0,-668.5l-0.8,0l0,668.5Z" class="g2_1060" />
<path d="M572.6,793.4l0.7,0l0,-668.5l-0.7,0l0,668.5Z" class="g2_1060" />
<path d="M850.8,792.6l0.8,0l0,-666.9l-0.8,0l0,666.9Z" class="g2_1060" />
<path d="M69.5,125.7l782.1,0l0,-0.8l-782.1,0l0,0.8Z" class="g2_1060" />
<path d="M69.5,179.1l782.1,0l0,-0.7l-782.1,0l0,0.7Z" class="g2_1060" />
<path d="M69.5,252.4l782.1,0l0,-0.7l-782.1,0l0,0.7Z" class="g2_1060" />
<path d="M69.5,342.6l782.1,0l0,-0.8l-782.1,0l0,0.8Z" class="g2_1060" />
<path d="M69.5,432.8l782.1,0l0,-0.8L69.5,432l0,0.8Z" class="g2_1060" />
<path d="M69.5,522.9l782.1,0l0,-0.8l-782.1,0l0,0.8Z" class="g2_1060" />
<path d="M69.5,613.1l782.1,0l0,-0.8l-782.1,0l0,0.8Z" class="g2_1060" />
<path d="M69.5,703.2l782.1,0l0,-0.8l-782.1,0l0,0.8Z" class="g2_1060" />
<path d="M69.5,793.3l782.1,0l0,-0.7l-782.1,0l0,0.7Z" class="g2_1060" />
<path d="M70.2,1023.3l0.8,0l0,-97l-0.8,0l0,97Z" class="g2_1060" />
<path d="M134.6,1024l0.7,0l0,-98.5l-0.7,0l0,98.5Z" class="g2_1060" />
<path d="M310.9,1024l0.8,0l0,-98.5l-0.8,0l0,98.5Z" class="g2_1060" />
<path d="M488.2,1024l0.8,0l0,-98.5l-0.8,0l0,98.5Z" class="g2_1060" />
<path d="M663.6,1024l0.7,0l0,-98.5l-0.7,0l0,98.5Z" class="g2_1060" />
<path d="M850.1,1023.3l0.7,0l0,-97l-0.7,0l0,97Z" class="g2_1060" />
<path d="M70.2,926.2l780.7,0l0,-0.7l-780.7,0l0,0.7Z" class="g2_1060" />
<path d="M70.2,950.7l780.7,0l0,-0.8l-780.7,0l0,0.8Z" class="g2_1060" />
<path d="M70.2,975.2l780.7,0l0,-0.8l-780.7,0l0,0.8Z" class="g2_1060" />
<path d="M70.2,999.5l780.7,0l0,-0.7l-780.7,0l0,0.7Z" class="g2_1060" />
<path d="M70.2,1024l780.7,0l0,-0.7l-780.7,0l0,0.7Z" class="g2_1060" />
</svg>