<?xml version="1.0" encoding="UTF-8" standalone="no"?>
<!DOCTYPE svg PUBLIC "-//W3C//DTD SVG 1.1//EN"
"http://www.w3.org/Graphics/SVG/1.1/DTD/svg11.dtd">
<svg viewBox="0 0 935 1210" version="1.1" xmlns="http://www.w3.org/2000/svg" xmlns:xlink="http://www.w3.org/1999/xlink">
<defs>
<style type="text/css"><![CDATA[
.g1_1811{
fill: #FFFFFF;
}
.g2_1811{
}
]]></style>
</defs>
<path d="M68.9,1149.3l686.3,0l0,-21.2l-686.3,0l0,21.2Z" class="g1_1811" />
<path d="M771.3,1149.3l83.7,0l0,-21.2l-83.7,0l0,21.2Z" class="g1_1811" />
<path d="M69.9,870.5l0.8,0l0,-744.8l-0.8,0l0,744.8Z" class="g2_1811" />
<path d="M311.9,871.3l0.8,0l0,-746.4l-0.8,0l0,746.4Z" class="g2_1811" />
<path d="M358.2,871.3l0.8,0l0,-746.4l-0.8,0l0,746.4Z" class="g2_1811" />
<path d="M430.4,871.3l0.7,0l0,-746.4l-0.7,0l0,746.4Z" class="g2_1811" />
<path d="M517.8,871.3l0.8,0l0,-746.4l-0.8,0l0,746.4Z" class="g2_1811" />
<path d="M854.8,870.5l0.7,0l0,-744.8l-0.7,0l0,744.8Z" class="g2_1811" />
<path d="M69.9,125.7l785.7,0l0,-0.8l-785.7,0l0,0.8Z" class="g2_1811" />
<path d="M69.9,176.1l785.7,0l0,-0.7l-785.7,0l0,0.7Z" class="g2_1811" />
<path d="M69.9,229.5l785.7,0l0,-0.7l-785.7,0l0,0.7Z" class="g2_1811" />
<path d="M69.9,283l785.7,0l0,-0.8l-785.7,0l0,0.8Z" class="g2_1811" />
<path d="M69.9,336.5l785.7,0l0,-0.7l-785.7,0l0,0.7Z" class="g2_1811" />
<path d="M69.9,389.9l785.7,0l0,-0.7l-785.7,0l0,0.7Z" class="g2_1811" />
<path d="M69.9,443.5l785.7,0l0,-0.8l-785.7,0l0,0.8Z" class="g2_1811" />
<path d="M69.9,496.9l785.7,0l0,-0.7l-785.7,0l0,0.7Z" class="g2_1811" />
<path d="M69.9,550.4l785.7,0l0,-0.8l-785.7,0l0,0.8Z" class="g2_1811" />
<path d="M69.9,603.9l785.7,0l0,-0.7l-785.7,0l0,0.7Z" class="g2_1811" />
<path d="M69.9,657.3l785.7,0l0,-0.7l-785.7,0l0,0.7Z" class="g2_1811" />
<path d="M69.9,710.8l785.7,0l0,-0.8L69.9,710l0,0.8Z" class="g2_1811" />
<path d="M69.9,764.3l785.7,0l0,-0.7l-785.7,0l0,0.7Z" class="g2_1811" />
<path d="M69.9,817.8l785.7,0l0,-0.8L69.9,817l0,0.8Z" class="g2_1811" />
<path d="M69.9,871.2l785.7,0l0,-0.7l-785.7,0l0,0.7Z" class="g2_1811" />
<path d="M71.1,1023.3l0.8,0l0,-97l-0.8,0l0,97Z" class="g2_1811" />
<path d="M187.8,1024l0.8,0l0,-98.5l-0.8,0l0,98.5Z" class="g2_1811" />
<path d="M350.2,1024l0.7,0l0,-98.5l-0.7,0l0,98.5Z" class="g2_1811" />
<path d="M519.5,1024l0.7,0l0,-98.5l-0.7,0l0,98.5Z" class="g2_1811" />
<path d="M686.5,1024l0.7,0l0,-98.5l-0.7,0l0,98.5Z" class="g2_1811" />
<path d="M850.8,1023.3l0.8,0l0,-97l-0.8,0l0,97Z" class="g2_1811" />
<path d="M71.1,926.2l780.5,0l0,-0.7l-780.5,0l0,0.7Z" class="g2_1811" />
<path d="M71.1,950.7l780.5,0l0,-0.8l-780.5,0l0,0.8Z" class="g2_1811" />
<path d="M71.1,975.2l780.5,0l0,-0.8l-780.5,0l0,0.8Z" class="g2_1811" />
<path d="M71.1,999.5l780.5,0l0,-0.7l-780.5,0l0,0.7Z" class="g2_1811" />
<path d="M71.1,1024l780.5,0l0,-0.7l-780.5,0l0,0.7Z" class="g2_1811" />
</svg>