<?xml version="1.0" encoding="UTF-8" standalone="no"?>
<!DOCTYPE svg PUBLIC "-//W3C//DTD SVG 1.1//EN"
"http://www.w3.org/Graphics/SVG/1.1/DTD/svg11.dtd">
<svg viewBox="0 0 935 1210" version="1.1" xmlns="http://www.w3.org/2000/svg" xmlns:xlink="http://www.w3.org/1999/xlink">
<defs>
<style type="text/css"><![CDATA[
.g1_1452{
fill: #FFFFFF;
}
.g2_1452{
}
]]></style>
</defs>
<path d="M165,1149.3l687.5,0l0,-21.2l-687.5,0l0,21.2Z" class="g1_1452" />
<path d="M68.8,1149.3l82.5,0l0,-21.2l-82.5,0l0,21.2Z" class="g1_1452" />
<path d="M136.4,288.3l0.7,0l0,-145.9l-0.7,0l0,145.9Z" class="g2_1452" />
<path d="M301.9,289l0.7,0l0,-147.4l-0.7,0l0,147.4Z" class="g2_1452" />
<path d="M574.5,289l0.7,0l0,-147.4l-0.7,0l0,147.4Z" class="g2_1452" />
<path d="M784,288.3l0.8,0l0,-145.9l-0.8,0l0,145.9Z" class="g2_1452" />
<path d="M136.4,142.4l648.4,0l0,-0.8l-648.4,0l0,0.8Z" class="g2_1452" />
<path d="M136.4,166.7l648.4,0l0,-0.7l-648.4,0l0,0.7Z" class="g2_1452" />
<path d="M136.4,191.2l648.4,0l0,-0.7l-648.4,0l0,0.7Z" class="g2_1452" />
<path d="M136.4,215.7l648.4,0l0,-0.7l-648.4,0l0,0.7Z" class="g2_1452" />
<path d="M136.4,240.1l648.4,0l0,-0.8l-648.4,0l0,0.8Z" class="g2_1452" />
<path d="M136.4,264.5l648.4,0l0,-0.7l-648.4,0l0,0.7Z" class="g2_1452" />
<path d="M136.4,289l648.4,0l0,-0.7l-648.4,0l0,0.7Z" class="g2_1452" />
</svg>