<?xml version="1.0" encoding="UTF-8" standalone="no"?>
<!DOCTYPE svg PUBLIC "-//W3C//DTD SVG 1.1//EN"
"http://www.w3.org/Graphics/SVG/1.1/DTD/svg11.dtd">
<svg viewBox="0 0 935 1210" version="1.1" xmlns="http://www.w3.org/2000/svg" xmlns:xlink="http://www.w3.org/1999/xlink">
<defs>
<style type="text/css"><![CDATA[
.g1_39{
fill: #FFFFFF;
}
.g2_39{
}
]]></style>
</defs>
<path d="M68.9,1149.3l783.8,0l0,-21.2l-783.8,0l0,21.2Z" class="g1_39" />
<path d="M69.6,736.8l2.3,0l0,-611.9l-2.3,0l0,611.9Z" class="g2_39" />
<path d="M275.4,739.1l0.7,0l0,-508.7l-0.7,0l0,508.7Z" class="g2_39" />
<path d="M332.8,739.1l0.7,0l0,-508.7l-0.7,0l0,508.7Z" class="g2_39" />
<path d="M389.3,739.1l2.3,0l0,-616.4l-2.3,0l0,616.4Z" class="g2_39" />
<path d="M450,231.1l0.7,0l0,-108.4l-0.7,0l0,108.4Z" class="g2_39" />
<path d="M450,739.1l0.7,0l0,-485.1l-0.7,0l0,485.1Z" class="g2_39" />
<path d="M507.4,231.1l0.7,0l0,-108.4l-0.7,0l0,108.4Z" class="g2_39" />
<path d="M507.4,739.1l0.7,0l0,-485.1l-0.7,0l0,485.1Z" class="g2_39" />
<path d="M564.8,231.1l0.7,0l0,-108.4l-0.7,0l0,108.4Z" class="g2_39" />
<path d="M564.8,739.1l0.7,0l0,-485.1l-0.7,0l0,485.1Z" class="g2_39" />
<path d="M622.1,231.1l0.8,0l0,-108.4l-0.8,0l0,108.4Z" class="g2_39" />
<path d="M622.1,739.1l0.8,0l0,-485.1l-0.8,0l0,485.1Z" class="g2_39" />
<path d="M679.5,231.1l0.8,0l0,-108.4l-0.8,0l0,108.4Z" class="g2_39" />
<path d="M679.5,739.1l0.8,0l0,-485.1l-0.8,0l0,485.1Z" class="g2_39" />
<path d="M736.9,231.1l0.7,0l0,-108.4l-0.7,0l0,108.4Z" class="g2_39" />
<path d="M736.9,739.1l0.7,0l0,-485.1l-0.7,0l0,485.1Z" class="g2_39" />
<path d="M794.3,231.1l0.7,0l0,-108.4l-0.7,0l0,108.4Z" class="g2_39" />
<path d="M794.3,739.1l0.7,0L795,254l-0.7,0l0,485.1Z" class="g2_39" />
<path d="M850.9,736.8l2.3,0l0,-611.9l-2.3,0l0,611.9Z" class="g2_39" />
<path d="M69.6,124.9l783.5,0l0,-2.2l-783.5,0l0,2.2Z" class="g2_39" />
<path d="M69.6,231.1l783.5,0l0,-0.7l-783.5,0l0,0.7Z" class="g2_39" />
<path d="M69.6,256.3l783.5,0l0,-2.3L69.6,254l0,2.3Z" class="g2_39" />
<path d="M69.6,376.2l783.5,0l0,-0.7l-783.5,0l0,0.7Z" class="g2_39" />
<path d="M69.6,496.9l783.5,0l0,-0.7l-783.5,0l0,0.7Z" class="g2_39" />
<path d="M69.6,617.7l783.5,0l0,-0.8l-783.5,0l0,0.8Z" class="g2_39" />
<path d="M69.6,739.1l783.5,0l0,-2.3l-783.5,0l0,2.3Z" class="g2_39" />
</svg>