<?xml version="1.0" encoding="UTF-8" standalone="no"?>
<!DOCTYPE svg PUBLIC "-//W3C//DTD SVG 1.1//EN"
"http://www.w3.org/Graphics/SVG/1.1/DTD/svg11.dtd">
<svg viewBox="0 0 935 1210" version="1.1" xmlns="http://www.w3.org/2000/svg" xmlns:xlink="http://www.w3.org/1999/xlink">
<defs>
<style type="text/css"><![CDATA[
.g1_65{
fill: #FFFFFF;
}
.g2_65{
}
]]></style>
</defs>
<path d="M68.9,1149.3l783.8,0l0,-21.2l-783.8,0l0,21.2Z" class="g1_65" />
<path d="M70.6,649.2l0.4,0L71,195.7l-0.4,0l0,453.5Z" class="g2_65" />
<path d="M210.3,649.6l0.3,0l0,-454.3l-0.3,0l0,454.3Z" class="g2_65" />
<path d="M247,649.6l0.3,0l0,-454.3l-0.3,0l0,454.3Z" class="g2_65" />
<path d="M288.9,649.6l0.4,0l0,-454.3l-0.4,0l0,454.3Z" class="g2_65" />
<path d="M328.4,649.6l0.3,0l0,-454.3l-0.3,0l0,454.3Z" class="g2_65" />
<path d="M363.8,649.6l0.4,0l0,-454.3l-0.4,0l0,454.3Z" class="g2_65" />
<path d="M851.8,649.2l0.3,0l0,-453.5l-0.3,0l0,453.5Z" class="g2_65" />
<path d="M70.6,195.7l781.5,0l0,-0.4l-781.5,0l0,0.4Z" class="g2_65" />
<path d="M70.6,305.7l781.5,0l0,-0.4l-781.5,0l0,0.4Z" class="g2_65" />
<path d="M210.3,327.2l641.8,0l0,-0.4l-641.8,0l0,0.4Z" class="g2_65" />
<path d="M210.3,368.4l641.8,0l0,-0.4l-641.8,0l0,0.4Z" class="g2_65" />
<path d="M210.3,389.8l641.8,0l0,-0.4l-641.8,0l0,0.4Z" class="g2_65" />
<path d="M210.3,411.2l641.8,0l0,-0.4l-641.8,0l0,0.4Z" class="g2_65" />
<path d="M70.6,432.6l781.5,0l0,-0.4l-781.5,0l0,0.4Z" class="g2_65" />
<path d="M70.6,470.8l781.5,0l0,-0.4l-781.5,0l0,0.4Z" class="g2_65" />
<path d="M210.3,492.2l641.8,0l0,-0.4l-641.8,0l0,0.4Z" class="g2_65" />
<path d="M70.6,513.5l781.5,0l0,-0.3l-781.5,0l0,0.3Z" class="g2_65" />
<path d="M210.3,551.7l641.8,0l0,-0.3l-641.8,0l0,0.3Z" class="g2_65" />
<path d="M70.6,573.1l781.5,0l0,-0.4l-781.5,0l0,0.4Z" class="g2_65" />
<path d="M70.6,611.3l781.5,0l0,-0.3L70.6,611l0,0.3Z" class="g2_65" />
<path d="M70.6,649.6l781.5,0l0,-0.4l-781.5,0l0,0.4Z" class="g2_65" />
</svg>