<?xml version="1.0" encoding="UTF-8" standalone="no"?>
<!DOCTYPE svg PUBLIC "-//W3C//DTD SVG 1.1//EN"
"http://www.w3.org/Graphics/SVG/1.1/DTD/svg11.dtd">
<svg viewBox="0 0 935 1210" version="1.1" xmlns="http://www.w3.org/2000/svg" xmlns:xlink="http://www.w3.org/1999/xlink">
<defs>
<style type="text/css"><![CDATA[
.g1_77{
fill: #FFFFFF;
}
.g2_77{
}
]]></style>
</defs>
<path d="M68.9,1149.3l783.8,0l0,-21.2l-783.8,0l0,21.2Z" class="g1_77" />
<path d="M71.8,885.2l779.1,0l0,-29.6l-779.1,0l0,29.6Z" class="g1_77" />
<path d="M72.7,878.5l53.5,0l0,-12.4l-53.5,0l0,12.4Z" class="g1_77" />
<path d="M67.8,580.2l0.8,0l0,-456.1l-0.8,0l0,456.1Z" class="g2_77" />
<path d="M161.2,581l0.8,0l0,-457.6l-0.8,0l0,457.6Z" class="g2_77" />
<path d="M233,581l0.8,0l0,-457.6l-0.8,0L233,581Z" class="g2_77" />
<path d="M569.7,581l0.7,0l0,-457.6l-0.7,0l0,457.6Z" class="g2_77" />
<path d="M710.1,581l0.8,0l0,-457.6l-0.8,0l0,457.6Z" class="g2_77" />
<path d="M854.2,580.2l0.7,0l0,-456.1l-0.7,0l0,456.1Z" class="g2_77" />
<path d="M67.8,124.1l787.1,0l0,-0.7l-787.1,0l0,0.7Z" class="g2_77" />
<path d="M233,148.6l478,0l0,-0.7l-478,0l0,0.7Z" class="g2_77" />
<path d="M233,173l478,0l0,-0.8l-478,0l0,0.8Z" class="g2_77" />
<path d="M67.8,197.4l643.2,0l0,-0.7l-643.2,0l0,0.7Z" class="g2_77" />
<path d="M233,221.9l478,0l0,-0.7l-478,0l0,0.7Z" class="g2_77" />
<path d="M233,246.3l478,0l0,-0.7l-478,0l0,0.7Z" class="g2_77" />
<path d="M233,270.8l478,0l0,-0.7l-478,0l0,0.7Z" class="g2_77" />
<path d="M67.8,295.3l787.1,0l0,-0.8l-787.1,0l0,0.8Z" class="g2_77" />
<path d="M233,319.6l478,0l0,-0.7l-478,0l0,0.7Z" class="g2_77" />
<path d="M233,344.1l478,0l0,-0.7l-478,0l0,0.7Z" class="g2_77" />
<path d="M233,368.6l478,0l0,-0.7l-478,0l0,0.7Z" class="g2_77" />
<path d="M67.8,393l787.1,0l0,-0.8l-787.1,0l0,0.8Z" class="g2_77" />
<path d="M233,417.4l478,0l0,-0.7l-478,0l0,0.7Z" class="g2_77" />
<path d="M233,441.9l478,0l0,-0.7l-478,0l0,0.7Z" class="g2_77" />
<path d="M67.8,466.4l787.1,0l0,-0.7l-787.1,0l0,0.7Z" class="g2_77" />
<path d="M233,507.7l621.9,0l0,-0.8l-621.9,0l0,0.8Z" class="g2_77" />
<path d="M67.8,532l787.1,0l0,-0.7l-787.1,0l0,0.7Z" class="g2_77" />
<path d="M233,556.5l621.9,0l0,-0.7l-621.9,0l0,0.7Z" class="g2_77" />
<path d="M67.8,581l787.1,0l0,-0.8l-787.1,0l0,0.8Z" class="g2_77" />
<path d="M71.4,855.3l0.7,0l0,-204.1l-0.7,0l0,204.1Z" class="g2_77" />
<path d="M164.8,856l0.8,0l0,-205.5l-0.8,0l0,205.5Z" class="g2_77" />
<path d="M236.6,856l0.7,0l0,-205.5l-0.7,0l0,205.5Z" class="g2_77" />
<path d="M590.6,856l0.7,0l0,-205.5l-0.7,0l0,205.5Z" class="g2_77" />
<path d="M717.8,856l0.8,0l0,-205.5l-0.8,0l0,205.5Z" class="g2_77" />
<path d="M850.6,855.3l0.7,0l0,-204.1l-0.7,0l0,204.1Z" class="g2_77" />
<path d="M71.4,651.2l779.9,0l0,-0.7l-779.9,0l0,0.7Z" class="g2_77" />
<path d="M71.4,675.7l779.9,0l0,-0.8l-779.9,0l0,0.8Z" class="g2_77" />
<path d="M236.5,700.2l614.8,0l0,-0.8l-614.8,0l0,0.8Z" class="g2_77" />
<path d="M236.5,741.4l614.8,0l0,-0.7l-614.8,0l0,0.7Z" class="g2_77" />
<path d="M71.4,765.8l779.9,0l0,-0.7l-779.9,0l0,0.7Z" class="g2_77" />
<path d="M236.5,790.3l614.8,0l0,-0.8l-614.8,0l0,0.8Z" class="g2_77" />
<path d="M236.5,814.7l614.8,0l0,-0.7l-614.8,0l0,0.7Z" class="g2_77" />
<path d="M71.4,856l779.9,0l0,-0.8l-779.9,0l0,0.8Z" class="g2_77" />
<path d="M72.3,1078.8l0.8,0l0,-23.6l-0.8,0l0,23.6Z" class="g2_77" />
<path d="M165.7,1079.7l0.8,0l0,-25.3l-0.8,0l0,25.3Z" class="g2_77" />
<path d="M237.5,1079.7l0.7,0l0,-25.3l-0.7,0l0,25.3Z" class="g2_77" />
<path d="M610.8,1079.7l0.7,0l0,-25.3l-0.7,0l0,25.3Z" class="g2_77" />
<path d="M733.4,1079.7l0.8,0l0,-25.3l-0.8,0l0,25.3Z" class="g2_77" />
<path d="M849.7,1078.8l0.7,0l0,-23.6l-0.7,0l0,23.6Z" class="g2_77" />
<path d="M72.3,1055.2l778.1,0l0,-0.8l-778.1,0l0,0.8Z" class="g2_77" />
<path d="M72.3,1079.6l778.1,0l0,-0.8l-778.1,0l0,0.8Z" class="g2_77" />
</svg>