<?xml version="1.0" encoding="UTF-8" standalone="no"?>
<!DOCTYPE svg PUBLIC "-//W3C//DTD SVG 1.1//EN"
"http://www.w3.org/Graphics/SVG/1.1/DTD/svg11.dtd">
<svg viewBox="0 0 935 1210" version="1.1" xmlns="http://www.w3.org/2000/svg" xmlns:xlink="http://www.w3.org/1999/xlink">
<defs>
<style type="text/css"><![CDATA[
.g1_82{
fill: #FFFFFF;
}
.g2_82{
}
]]></style>
</defs>
<path d="M68.8,1149.3l783.7,0l0,-21.2l-783.7,0l0,21.2Z" class="g1_82" />
<path d="M73.7,850.7l0.7,0L74.4,202l-0.7,0l0,648.7Z" class="g2_82" />
<path d="M200.5,851.4l0.7,0l0,-650.1l-0.7,0l0,650.1Z" class="g2_82" />
<path d="M237.1,851.4l0.7,0l0,-650.1l-0.7,0l0,650.1Z" class="g2_82" />
<path d="M279.1,851.4l0.8,0l0,-650.1l-0.8,0l0,650.1Z" class="g2_82" />
<path d="M318.5,851.4l0.7,0l0,-650.1l-0.7,0l0,650.1Z" class="g2_82" />
<path d="M353.9,851.4l0.8,0l0,-650.1l-0.8,0l0,650.1Z" class="g2_82" />
<path d="M846.7,850.7l0.8,0l0,-648.7l-0.8,0l0,648.7Z" class="g2_82" />
<path d="M73.7,202l773.8,0l0,-0.7l-773.8,0l0,0.7Z" class="g2_82" />
<path d="M73.7,305.9l773.8,0l0,-0.7l-773.8,0l0,0.7Z" class="g2_82" />
<path d="M200.5,330.4l647,0l0,-0.8l-647,0l0,0.8Z" class="g2_82" />
<path d="M200.5,464.8l647,0l0,-0.7l-647,0l0,0.7Z" class="g2_82" />
<path d="M200.5,489.3l647,0l0,-0.7l-647,0l0,0.7Z" class="g2_82" />
<path d="M200.5,513.7l647,0l0,-0.7l-647,0l0,0.7Z" class="g2_82" />
<path d="M73.7,538.2l773.8,0l0,-0.8l-773.8,0l0,0.8Z" class="g2_82" />
<path d="M73.7,579.4l773.8,0l0,-0.7l-773.8,0l0,0.7Z" class="g2_82" />
<path d="M200.5,603.9l647,0l0,-0.7l-647,0l0,0.7Z" class="g2_82" />
<path d="M73.7,645.2l773.8,0l0,-0.8l-773.8,0l0,0.8Z" class="g2_82" />
<path d="M200.5,703.2l647,0l0,-0.8l-647,0l0,0.8Z" class="g2_82" />
<path d="M200.5,744.4l647,0l0,-0.7l-647,0l0,0.7Z" class="g2_82" />
<path d="M200.5,768.9l647,0l0,-0.7l-647,0l0,0.7Z" class="g2_82" />
<path d="M73.7,810.2l773.8,0l0,-0.8l-773.8,0l0,0.8Z" class="g2_82" />
<path d="M73.7,851.4l773.8,0l0,-0.7l-773.8,0l0,0.7Z" class="g2_82" />
</svg>