<?xml version="1.0" encoding="UTF-8" standalone="no"?>
<!DOCTYPE svg PUBLIC "-//W3C//DTD SVG 1.1//EN"
"http://www.w3.org/Graphics/SVG/1.1/DTD/svg11.dtd">
<svg viewBox="0 0 935 1210" version="1.1" xmlns="http://www.w3.org/2000/svg" xmlns:xlink="http://www.w3.org/1999/xlink">
<defs>
<style type="text/css"><![CDATA[
.g1_1522{
fill: #FFFFFF;
}
.g2_1522{
}
]]></style>
</defs>
<path d="M165,1149.3l687.5,0l0,-21.2l-687.5,0l0,21.2Z" class="g1_1522" />
<path d="M68.8,1149.3l82.5,0l0,-21.2l-82.5,0l0,21.2Z" class="g1_1522" />
<path d="M68.6,367.9l0.7,0l0,-260.6l-0.7,0l0,260.6Z" class="g2_1522" />
<path d="M316.6,368.6l0.7,0l0,-262l-0.7,0l0,262Z" class="g2_1522" />
<path d="M362.5,368.6l0.7,0l0,-262l-0.7,0l0,262Z" class="g2_1522" />
<path d="M435.8,368.6l0.7,0l0,-262l-0.7,0l0,262Z" class="g2_1522" />
<path d="M519.7,368.6l0.7,0l0,-262l-0.7,0l0,262Z" class="g2_1522" />
<path d="M849.4,367.9l0.7,0l0,-260.6l-0.7,0l0,260.6Z" class="g2_1522" />
<path d="M68.6,107.3l781.5,0l0,-0.7l-781.5,0l0,0.7Z" class="g2_1522" />
<path d="M68.6,157.8l781.5,0l0,-0.8L68.6,157l0,0.8Z" class="g2_1522" />
<path d="M68.6,228l781.5,0l0,-0.8l-781.5,0l0,0.8Z" class="g2_1522" />
<path d="M68.6,298.3l781.5,0l0,-0.7l-781.5,0l0,0.7Z" class="g2_1522" />
<path d="M68.6,368.6l781.5,0l0,-0.7l-781.5,0l0,0.7Z" class="g2_1522" />
<path d="M70.7,493.1l0.7,0l0,-72.5l-0.7,0l0,72.5Z" class="g2_1522" />
<path d="M190.3,493.9l0.7,0l0,-74.2l-0.7,0l0,74.2Z" class="g2_1522" />
<path d="M353.8,493.9l0.8,0l0,-74.2l-0.8,0l0,74.2Z" class="g2_1522" />
<path d="M523,493.9l0.7,0l0,-74.2l-0.7,0l0,74.2Z" class="g2_1522" />
<path d="M684.9,493.9l0.8,0l0,-74.2l-0.8,0l0,74.2Z" class="g2_1522" />
<path d="M849.7,493.1l0.7,0l0,-72.5l-0.7,0l0,72.5Z" class="g2_1522" />
<path d="M70.7,420.6l779.8,0l0,-0.8l-779.8,0l0,0.8Z" class="g2_1522" />
<path d="M70.7,444.9l779.8,0l0,-0.7l-779.8,0l0,0.7Z" class="g2_1522" />
<path d="M70.7,469.4l779.8,0l0,-0.7l-779.8,0l0,0.7Z" class="g2_1522" />
<path d="M70.7,493.9l779.8,0l0,-0.7l-779.8,0l0,0.7Z" class="g2_1522" />
</svg>