<?xml version="1.0" encoding="UTF-8" standalone="no"?>
<!DOCTYPE svg PUBLIC "-//W3C//DTD SVG 1.1//EN"
"http://www.w3.org/Graphics/SVG/1.1/DTD/svg11.dtd">
<svg viewBox="0 0 935 1210" version="1.1" xmlns="http://www.w3.org/2000/svg" xmlns:xlink="http://www.w3.org/1999/xlink">
<defs>
<style type="text/css"><![CDATA[
.g1_1037{
fill: #FFFFFF;
}
.g2_1037{
}
]]></style>
</defs>
<path d="M68.9,1149.3l686.3,0l0,-21.2l-686.3,0l0,21.2Z" class="g1_1037" />
<path d="M771.3,1149.3l83.7,0l0,-21.2l-83.7,0l0,21.2Z" class="g1_1037" />
<path d="M70.3,774.2l0.7,0L71,131.8l-0.7,0l0,642.4Z" class="g2_1037" />
<path d="M219.9,775l0.7,0l0,-644l-0.7,0l0,644Z" class="g2_1037" />
<path d="M389.6,775l0.7,0l0,-644l-0.7,0l0,644Z" class="g2_1037" />
<path d="M427.4,775l0.8,0l0,-644l-0.8,0l0,644Z" class="g2_1037" />
<path d="M500.9,775l0.7,0l0,-644l-0.7,0l0,644Z" class="g2_1037" />
<path d="M572.2,775l0.7,0l0,-644l-0.7,0l0,644Z" class="g2_1037" />
<path d="M851.7,774.2l0.7,0l0,-642.4l-0.7,0l0,642.4Z" class="g2_1037" />
<path d="M70.3,131.7l782.1,0l0,-0.7L70.3,131l0,0.7Z" class="g2_1037" />
<path d="M70.3,169.9l782.1,0l0,-0.7l-782.1,0l0,0.7Z" class="g2_1037" />
<path d="M70.3,209.6l782.1,0l0,-0.7l-782.1,0l0,0.7Z" class="g2_1037" />
<path d="M70.3,249.4l782.1,0l0,-0.7l-782.1,0l0,0.7Z" class="g2_1037" />
<path d="M70.3,289.1l782.1,0l0,-0.7l-782.1,0l0,0.7Z" class="g2_1037" />
<path d="M70.3,328.8l782.1,0l0,-0.7l-782.1,0l0,0.7Z" class="g2_1037" />
<path d="M70.3,368.6l782.1,0l0,-0.7l-782.1,0l0,0.7Z" class="g2_1037" />
<path d="M70.3,408.3l782.1,0l0,-0.8l-782.1,0l0,0.8Z" class="g2_1037" />
<path d="M70.3,448.1l782.1,0l0,-0.8l-782.1,0l0,0.8Z" class="g2_1037" />
<path d="M70.3,487.8l782.1,0l0,-0.8L70.3,487l0,0.8Z" class="g2_1037" />
<path d="M70.3,527.4l782.1,0l0,-0.7l-782.1,0l0,0.7Z" class="g2_1037" />
<path d="M70.3,567.2l782.1,0l0,-0.7l-782.1,0l0,0.7Z" class="g2_1037" />
<path d="M70.3,606.9l782.1,0l0,-0.7l-782.1,0l0,0.7Z" class="g2_1037" />
<path d="M70.3,651.2l782.1,0l0,-0.7l-782.1,0l0,0.7Z" class="g2_1037" />
<path d="M70.3,691l782.1,0l0,-0.7l-782.1,0l0,0.7Z" class="g2_1037" />
<path d="M70.3,730.7l782.1,0l0,-0.8l-782.1,0l0,0.8Z" class="g2_1037" />
<path d="M70.3,774.9l782.1,0l0,-0.7l-782.1,0l0,0.7Z" class="g2_1037" />
<path d="M71,924l0.8,0l0,-97.1l-0.8,0L71,924Z" class="g2_1037" />
<path d="M140.4,924.7l0.8,0l0,-98.5l-0.8,0l0,98.5Z" class="g2_1037" />
<path d="M314,924.7l0.8,0l0,-98.5l-0.8,0l0,98.5Z" class="g2_1037" />
<path d="M492.1,924.7l0.7,0l0,-98.5l-0.7,0l0,98.5Z" class="g2_1037" />
<path d="M667.1,924.7l0.8,0l0,-98.5l-0.8,0l0,98.5Z" class="g2_1037" />
<path d="M850.9,924l0.8,0l0,-97.1l-0.8,0l0,97.1Z" class="g2_1037" />
<path d="M71,826.9l780.7,0l0,-0.7L71,826.2l0,0.7Z" class="g2_1037" />
<path d="M71,851.4l780.7,0l0,-0.7L71,850.7l0,0.7Z" class="g2_1037" />
<path d="M71,875.8l780.7,0l0,-0.7L71,875.1l0,0.7Z" class="g2_1037" />
<path d="M71,900.3l780.7,0l0,-0.8L71,899.5l0,0.8Z" class="g2_1037" />
<path d="M71,924.7l780.7,0l0,-0.7L71,924l0,0.7Z" class="g2_1037" />
</svg>