<?xml version="1.0" encoding="UTF-8" standalone="no"?>
<!DOCTYPE svg PUBLIC "-//W3C//DTD SVG 1.1//EN"
"http://www.w3.org/Graphics/SVG/1.1/DTD/svg11.dtd">
<svg viewBox="0 0 935 1210" version="1.1" xmlns="http://www.w3.org/2000/svg" xmlns:xlink="http://www.w3.org/1999/xlink">
<defs>
<style type="text/css"><![CDATA[
.g1_66{
fill: #FFFFFF;
}
.g2_66{
}
]]></style>
</defs>
<path d="M68.8,1149.3l783.7,0l0,-21.2l-783.7,0l0,21.2Z" class="g1_66" />
<path d="M69.2,520.8l0.4,0l0,-346.5l-0.4,0l0,346.5Z" class="g2_66" />
<path d="M209,521.2l0.4,0l0,-347.2l-0.4,0l0,347.2Z" class="g2_66" />
<path d="M245.6,521.2l0.3,0l0,-347.2l-0.3,0l0,347.2Z" class="g2_66" />
<path d="M287.6,521.2l0.3,0l0,-347.2l-0.3,0l0,347.2Z" class="g2_66" />
<path d="M327,521.2l0.3,0l0,-347.2l-0.3,0l0,347.2Z" class="g2_66" />
<path d="M362.5,521.2l0.3,0l0,-347.2l-0.3,0l0,347.2Z" class="g2_66" />
<path d="M851.5,520.8l0.4,0l0,-346.5l-0.4,0l0,346.5Z" class="g2_66" />
<path d="M69.2,174.3l782.7,0l0,-0.3L69.2,174l0,0.3Z" class="g2_66" />
<path d="M69.2,284.3l782.7,0l0,-0.3L69.2,284l0,0.3Z" class="g2_66" />
<path d="M208.9,305.7l643,0l0,-0.4l-643,0l0,0.4Z" class="g2_66" />
<path d="M208.9,363.8l643,0l0,-0.3l-643,0l0,0.3Z" class="g2_66" />
<path d="M208.9,418.8l643,0l0,-0.3l-643,0l0,0.3Z" class="g2_66" />
<path d="M208.9,440.2l643,0l0,-0.4l-643,0l0,0.4Z" class="g2_66" />
<path d="M208.9,461.6l643,0l0,-0.3l-643,0l0,0.3Z" class="g2_66" />
<path d="M69.2,483l782.7,0l0,-0.4l-782.7,0l0,0.4Z" class="g2_66" />
<path d="M69.2,521.2l782.7,0l0,-0.3l-782.7,0l0,0.3Z" class="g2_66" />
<path d="M68.8,896.7l0.3,0l0,-268.6l-0.3,0l0,268.6Z" class="g2_66" />
<path d="M208.5,897.1l0.3,0l0,-269.4l-0.3,0l0,269.4Z" class="g2_66" />
<path d="M245.1,897.1l0.4,0l0,-269.4l-0.4,0l0,269.4Z" class="g2_66" />
<path d="M287.1,897.1l0.4,0l0,-269.4l-0.4,0l0,269.4Z" class="g2_66" />
<path d="M326.4,897.1l0.4,0l0,-269.4l-0.4,0l0,269.4Z" class="g2_66" />
<path d="M362,897.1l0.4,0l0,-269.4l-0.4,0l0,269.4Z" class="g2_66" />
<path d="M849.8,896.7l0.4,0l0,-268.6l-0.4,0l0,268.6Z" class="g2_66" />
<path d="M68.8,628.1l781.4,0l0,-0.4l-781.4,0l0,0.4Z" class="g2_66" />
<path d="M68.8,738.1l781.4,0l0,-0.4l-781.4,0l0,0.4Z" class="g2_66" />
<path d="M208.5,759.6l641.7,0l0,-0.4l-641.7,0l0,0.4Z" class="g2_66" />
<path d="M208.5,837.5l641.7,0l0,-0.4l-641.7,0l0,0.4Z" class="g2_66" />
<path d="M68.8,858.8l781.4,0l0,-0.3l-781.4,0l0,0.3Z" class="g2_66" />
<path d="M68.8,897.1l781.4,0l0,-0.4l-781.4,0l0,0.4Z" class="g2_66" />
</svg>