<?xml version="1.0" encoding="UTF-8" standalone="no"?>
<!DOCTYPE svg PUBLIC "-//W3C//DTD SVG 1.1//EN"
"http://www.w3.org/Graphics/SVG/1.1/DTD/svg11.dtd">
<svg viewBox="0 0 935 1210" version="1.1" xmlns="http://www.w3.org/2000/svg" xmlns:xlink="http://www.w3.org/1999/xlink">
<defs>
<style type="text/css"><![CDATA[
.g1_1935{
fill: #FFFFFF;
}
.g2_1935{
}
]]></style>
</defs>
<path d="M68.9,1149.3l686.3,0l0,-21.2l-686.3,0l0,21.2Z" class="g1_1935" />
<path d="M771.3,1149.3l83.7,0l0,-21.2l-83.7,0l0,21.2Z" class="g1_1935" />
<path d="M69.9,215.1l0.8,0l0,-89.4l-0.8,0l0,89.4Z" class="g2_1935" />
<path d="M256.5,215.8l0.7,0l0,-90.9l-0.7,0l0,90.9Z" class="g2_1935" />
<path d="M298.6,215.8l0.7,0l0,-90.9l-0.7,0l0,90.9Z" class="g2_1935" />
<path d="M373,215.8l0.7,0l0,-90.9l-0.7,0l0,90.9Z" class="g2_1935" />
<path d="M440.6,215.8l0.8,0l0,-90.9l-0.8,0l0,90.9Z" class="g2_1935" />
<path d="M855.4,215.1l0.8,0l0,-89.4l-0.8,0l0,89.4Z" class="g2_1935" />
<path d="M69.9,125.7l786.3,0l0,-0.8l-786.3,0l0,0.8Z" class="g2_1935" />
<path d="M69.9,179.1l786.3,0l0,-0.7l-786.3,0l0,0.7Z" class="g2_1935" />
<path d="M69.9,215.8l786.3,0l0,-0.8L69.9,215l0,0.8Z" class="g2_1935" />
<path d="M69.3,318.9l0.7,0l0,-48.1l-0.7,0l0,48.1Z" class="g2_1935" />
<path d="M135.5,319.7l0.7,0l0,-49.6l-0.7,0l0,49.6Z" class="g2_1935" />
<path d="M305.8,319.7l0.7,0l0,-49.6l-0.7,0l0,49.6Z" class="g2_1935" />
<path d="M487.9,319.7l0.8,0l0,-49.6l-0.8,0l0,49.6Z" class="g2_1935" />
<path d="M668.2,319.7l0.8,0l0,-49.6l-0.8,0l0,49.6Z" class="g2_1935" />
<path d="M852.7,318.9l0.7,0l0,-48.1l-0.7,0l0,48.1Z" class="g2_1935" />
<path d="M69.3,270.8l784.1,0l0,-0.7l-784.1,0l0,0.7Z" class="g2_1935" />
<path d="M69.3,295.3l784.1,0l0,-0.8l-784.1,0l0,0.8Z" class="g2_1935" />
<path d="M69.3,319.6l784.1,0l0,-0.7l-784.1,0l0,0.7Z" class="g2_1935" />
</svg>