<?xml version="1.0" encoding="UTF-8" standalone="no"?>
<!DOCTYPE svg PUBLIC "-//W3C//DTD SVG 1.1//EN"
"http://www.w3.org/Graphics/SVG/1.1/DTD/svg11.dtd">
<svg viewBox="0 0 935 1210" version="1.1" xmlns="http://www.w3.org/2000/svg" xmlns:xlink="http://www.w3.org/1999/xlink">
<defs>
<style type="text/css"><![CDATA[
.g1_252{
fill: #FFFFFF;
}
.g2_252{
}
]]></style>
</defs>
<path d="M165,1149.3l687.5,0l0,-21.2l-687.5,0l0,21.2Z" class="g1_252" />
<path d="M68.8,1149.3l82.5,0l0,-21.2l-82.5,0l0,21.2Z" class="g1_252" />
<path d="M70.1,1084.4l0.8,0l0,-977.1l-0.8,0l0,977.1Z" class="g2_252" />
<path d="M216.9,1085.2l0.7,0l0,-978.6l-0.7,0l0,978.6Z" class="g2_252" />
<path d="M400.4,1085.2l0.7,0l0,-978.6l-0.7,0l0,978.6Z" class="g2_252" />
<path d="M438.3,1085.2l0.7,0l0,-978.6l-0.7,0l0,978.6Z" class="g2_252" />
<path d="M502.9,1085.2l0.7,0l0,-978.6l-0.7,0l0,978.6Z" class="g2_252" />
<path d="M574.2,1085.2l0.7,0l0,-978.6l-0.7,0l0,978.6Z" class="g2_252" />
<path d="M850.2,1084.4l0.7,0l0,-977.1l-0.7,0l0,977.1Z" class="g2_252" />
<path d="M70.1,107.3l780.9,0l0,-0.7l-780.9,0l0,0.7Z" class="g2_252" />
<path d="M70.1,145.5l780.9,0l0,-0.8l-780.9,0l0,0.8Z" class="g2_252" />
<path d="M70.1,168.4l780.9,0l0,-0.7l-780.9,0l0,0.7Z" class="g2_252" />
<path d="M70.1,191.3l780.9,0l0,-0.7l-780.9,0l0,0.7Z" class="g2_252" />
<path d="M70.1,214.2l780.9,0l0,-0.7l-780.9,0l0,0.7Z" class="g2_252" />
<path d="M70.1,237.1l780.9,0l0,-0.7l-780.9,0l0,0.7Z" class="g2_252" />
<path d="M70.1,260.1l780.9,0l0,-0.8l-780.9,0l0,0.8Z" class="g2_252" />
<path d="M70.1,283L851,283l0,-0.8l-780.9,0l0,0.8Z" class="g2_252" />
<path d="M70.1,305.9l780.9,0l0,-0.7l-780.9,0l0,0.7Z" class="g2_252" />
<path d="M70.1,328.8l780.9,0l0,-0.7l-780.9,0l0,0.7Z" class="g2_252" />
<path d="M70.1,351.7l780.9,0l0,-0.7L70.1,351l0,0.7Z" class="g2_252" />
<path d="M70.1,374.6l780.9,0l0,-0.7l-780.9,0l0,0.7Z" class="g2_252" />
<path d="M70.1,397.7l780.9,0l0,-0.8l-780.9,0l0,0.8Z" class="g2_252" />
<path d="M70.1,420.6l780.9,0l0,-0.8l-780.9,0l0,0.8Z" class="g2_252" />
<path d="M70.1,443.5l780.9,0l0,-0.8l-780.9,0l0,0.8Z" class="g2_252" />
<path d="M70.1,466.4l780.9,0l0,-0.7l-780.9,0l0,0.7Z" class="g2_252" />
<path d="M70.1,489.3l780.9,0l0,-0.7l-780.9,0l0,0.7Z" class="g2_252" />
<path d="M70.1,512.2l780.9,0l0,-0.7l-780.9,0l0,0.7Z" class="g2_252" />
<path d="M70.1,535.2l780.9,0l0,-0.8l-780.9,0l0,0.8Z" class="g2_252" />
<path d="M70.1,558.1l780.9,0l0,-0.8l-780.9,0l0,0.8Z" class="g2_252" />
<path d="M70.1,581L851,581l0,-0.8l-780.9,0l0,0.8Z" class="g2_252" />
<path d="M70.1,603.9l780.9,0l0,-0.7l-780.9,0l0,0.7Z" class="g2_252" />
<path d="M70.1,626.8l780.9,0l0,-0.7l-780.9,0l0,0.7Z" class="g2_252" />
<path d="M70.1,649.7l780.9,0l0,-0.7L70.1,649l0,0.7Z" class="g2_252" />
<path d="M70.1,672.7l780.9,0l0,-0.8l-780.9,0l0,0.8Z" class="g2_252" />
<path d="M70.1,695.6l780.9,0l0,-0.8l-780.9,0l0,0.8Z" class="g2_252" />
<path d="M70.1,718.5l780.9,0l0,-0.7l-780.9,0l0,0.7Z" class="g2_252" />
<path d="M70.1,741.4l780.9,0l0,-0.7l-780.9,0l0,0.7Z" class="g2_252" />
<path d="M70.1,764.3l780.9,0l0,-0.7l-780.9,0l0,0.7Z" class="g2_252" />
<path d="M70.1,787.2l780.9,0l0,-0.7l-780.9,0l0,0.7Z" class="g2_252" />
<path d="M70.1,810.2l780.9,0l0,-0.8l-780.9,0l0,0.8Z" class="g2_252" />
<path d="M70.1,833.1l780.9,0l0,-0.8l-780.9,0l0,0.8Z" class="g2_252" />
<path d="M70.1,856L851,856l0,-0.8l-780.9,0l0,0.8Z" class="g2_252" />
<path d="M70.1,878.9l780.9,0l0,-0.7l-780.9,0l0,0.7Z" class="g2_252" />
<path d="M70.1,901.8l780.9,0l0,-0.7l-780.9,0l0,0.7Z" class="g2_252" />
<path d="M70.1,924.7l780.9,0l0,-0.7L70.1,924l0,0.7Z" class="g2_252" />
<path d="M70.1,947.7l780.9,0l0,-0.8l-780.9,0l0,0.8Z" class="g2_252" />
<path d="M70.1,970.6l780.9,0l0,-0.8l-780.9,0l0,0.8Z" class="g2_252" />
<path d="M70.1,993.5l780.9,0l0,-0.7l-780.9,0l0,0.7Z" class="g2_252" />
<path d="M70.1,1016.4l780.9,0l0,-0.7l-780.9,0l0,0.7Z" class="g2_252" />
<path d="M70.1,1039.3l780.9,0l0,-0.7l-780.9,0l0,0.7Z" class="g2_252" />
<path d="M70.1,1062.2l780.9,0l0,-0.7l-780.9,0l0,0.7Z" class="g2_252" />
<path d="M70.1,1085.2l780.9,0l0,-0.8l-780.9,0l0,0.8Z" class="g2_252" />
</svg>