<?xml version="1.0" encoding="UTF-8" standalone="no"?>
<!DOCTYPE svg PUBLIC "-//W3C//DTD SVG 1.1//EN"
"http://www.w3.org/Graphics/SVG/1.1/DTD/svg11.dtd">
<svg viewBox="0 0 935 1210" version="1.1" xmlns="http://www.w3.org/2000/svg" xmlns:xlink="http://www.w3.org/1999/xlink">
<defs>
<style type="text/css"><![CDATA[
.g1_732{
fill: #FFFFFF;
}
.g2_732{
}
]]></style>
</defs>
<path d="M165,1149.3l687.5,0l0,-21.2l-687.5,0l0,21.2Z" class="g1_732" />
<path d="M68.8,1149.3l82.5,0l0,-21.2l-82.5,0l0,21.2Z" class="g1_732" />
<path d="M68.6,395.4l0.7,0l0,-269.7l-0.7,0l0,269.7Z" class="g2_732" />
<path d="M283.1,396.1l0.7,0l0,-271.2l-0.7,0l0,271.2Z" class="g2_732" />
<path d="M348.4,396.1l0.8,0l0,-271.2l-0.8,0l0,271.2Z" class="g2_732" />
<path d="M422.9,396.1l0.7,0l0,-271.2l-0.7,0l0,271.2Z" class="g2_732" />
<path d="M504.8,396.1l0.7,0l0,-271.2l-0.7,0l0,271.2Z" class="g2_732" />
<path d="M850.7,395.4l0.7,0l0,-269.7l-0.7,0l0,269.7Z" class="g2_732" />
<path d="M68.6,125.7l782.8,0l0,-0.8l-782.8,0l0,0.8Z" class="g2_732" />
<path d="M68.6,176.1l782.8,0l0,-0.7l-782.8,0l0,0.7Z" class="g2_732" />
<path d="M68.6,212.8l782.8,0l0,-0.8L68.6,212l0,0.8Z" class="g2_732" />
<path d="M68.6,249.4l782.8,0l0,-0.7l-782.8,0l0,0.7Z" class="g2_732" />
<path d="M68.6,286.1l782.8,0l0,-0.7l-782.8,0l0,0.7Z" class="g2_732" />
<path d="M68.6,322.8l782.8,0l0,-0.8L68.6,322l0,0.8Z" class="g2_732" />
<path d="M68.6,359.4l782.8,0l0,-0.7l-782.8,0l0,0.7Z" class="g2_732" />
<path d="M68.6,396.1l782.8,0l0,-0.7l-782.8,0l0,0.7Z" class="g2_732" />
<path d="M71.4,597l0.7,0l0,-145.9l-0.7,0l0,145.9Z" class="g2_732" />
<path d="M188.8,597.8l0.8,0l0,-147.4l-0.8,0l0,147.4Z" class="g2_732" />
<path d="M351.8,597.8l0.7,0l0,-147.4l-0.7,0l0,147.4Z" class="g2_732" />
<path d="M520.4,597.8l0.7,0l0,-147.4l-0.7,0l0,147.4Z" class="g2_732" />
<path d="M684,597.8l0.8,0l0,-147.4l-0.8,0l0,147.4Z" class="g2_732" />
<path d="M849,597l0.7,0l0,-145.9l-0.7,0L849,597Z" class="g2_732" />
<path d="M71.4,451.1l778.4,0l0,-0.7l-778.4,0l0,0.7Z" class="g2_732" />
<path d="M71.4,475.6l778.4,0l0,-0.8l-778.4,0l0,0.8Z" class="g2_732" />
<path d="M71.4,499.9l778.4,0l0,-0.7l-778.4,0l0,0.7Z" class="g2_732" />
<path d="M71.4,524.4l778.4,0l0,-0.7l-778.4,0l0,0.7Z" class="g2_732" />
<path d="M71.4,548.9l778.4,0l0,-0.7l-778.4,0l0,0.7Z" class="g2_732" />
<path d="M71.4,573.3l778.4,0l0,-0.7l-778.4,0l0,0.7Z" class="g2_732" />
<path d="M71.4,597.8l778.4,0l0,-0.8L71.4,597l0,0.8Z" class="g2_732" />
</svg>