<?xml version="1.0" encoding="UTF-8" standalone="no"?>
<!DOCTYPE svg PUBLIC "-//W3C//DTD SVG 1.1//EN"
"http://www.w3.org/Graphics/SVG/1.1/DTD/svg11.dtd">
<svg viewBox="0 0 935 1210" version="1.1" xmlns="http://www.w3.org/2000/svg" xmlns:xlink="http://www.w3.org/1999/xlink">
<defs>
<style type="text/css"><![CDATA[
.g1_1044{
fill: #FFFFFF;
}
.g2_1044{
}
]]></style>
</defs>
<path d="M165,1149.3l687.5,0l0,-21.2l-687.5,0l0,21.2Z" class="g1_1044" />
<path d="M68.8,1149.3l82.5,0l0,-21.2l-82.5,0l0,21.2Z" class="g1_1044" />
<path d="M70.1,231.8l0.8,0l0,-106.1l-0.8,0l0,106.1Z" class="g2_1044" />
<path d="M218.6,232.7l0.8,0l0,-107.8l-0.8,0l0,107.8Z" class="g2_1044" />
<path d="M387.1,232.7l0.7,0l0,-107.8l-0.7,0l0,107.8Z" class="g2_1044" />
<path d="M425,232.7l0.7,0l0,-107.8l-0.7,0l0,107.8Z" class="g2_1044" />
<path d="M498.3,232.7l0.7,0l0,-107.8l-0.7,0l0,107.8Z" class="g2_1044" />
<path d="M569.7,232.7l0.7,0l0,-107.8l-0.7,0l0,107.8Z" class="g2_1044" />
<path d="M850.3,231.8l0.7,0l0,-106.1l-0.7,0l0,106.1Z" class="g2_1044" />
<path d="M70.1,125.7l780.9,0l0,-0.8l-780.9,0l0,0.8Z" class="g2_1044" />
<path d="M70.1,163.8l780.9,0l0,-0.7l-780.9,0l0,0.7Z" class="g2_1044" />
<path d="M70.1,186.7l780.9,0l0,-0.7L70.1,186l0,0.7Z" class="g2_1044" />
<path d="M70.1,209.6l780.9,0l0,-0.7l-780.9,0l0,0.7Z" class="g2_1044" />
<path d="M70.1,232.6l780.9,0l0,-0.8l-780.9,0l0,0.8Z" class="g2_1044" />
<path d="M69.7,335.8l0.7,0l0,-48.1l-0.7,0l0,48.1Z" class="g2_1044" />
<path d="M136.3,336.5l0.7,0l0,-49.7l-0.7,0l0,49.7Z" class="g2_1044" />
<path d="M312,336.5l0.8,0l0,-49.7l-0.8,0l0,49.7Z" class="g2_1044" />
<path d="M492.3,336.5l0.7,0l0,-49.7l-0.7,0l0,49.7Z" class="g2_1044" />
<path d="M669.4,336.5l0.8,0l0,-49.7l-0.8,0l0,49.7Z" class="g2_1044" />
<path d="M850.8,335.8l0.7,0l0,-48.1l-0.7,0l0,48.1Z" class="g2_1044" />
<path d="M69.7,287.6l781.8,0l0,-0.8l-781.8,0l0,0.8Z" class="g2_1044" />
<path d="M69.7,312l781.8,0l0,-0.7l-781.8,0l0,0.7Z" class="g2_1044" />
<path d="M69.7,336.5l781.8,0l0,-0.7l-781.8,0l0,0.7Z" class="g2_1044" />
</svg>