<?xml version="1.0" encoding="UTF-8" standalone="no"?>
<!DOCTYPE svg PUBLIC "-//W3C//DTD SVG 1.1//EN"
"http://www.w3.org/Graphics/SVG/1.1/DTD/svg11.dtd">
<svg viewBox="0 0 935 1210" version="1.1" xmlns="http://www.w3.org/2000/svg" xmlns:xlink="http://www.w3.org/1999/xlink">
<defs>
<style type="text/css"><![CDATA[
.g1_2174{
fill: #FFFFFF;
}
.g2_2174{
}
]]></style>
</defs>
<path d="M68.8,1149.3l783.7,0l0,-21.2l-783.7,0l0,21.2Z" class="g1_2174" />
<path d="M69,1085.9l0.8,0l0,-961.8l-0.8,0l0,961.8Z" class="g2_2174" />
<path d="M260.9,1086.7l0.7,0l0,-963.3l-0.7,0l0,963.3Z" class="g2_2174" />
<path d="M851.4,1085.9l0.7,0l0,-961.8l-0.7,0l0,961.8Z" class="g2_2174" />
<path d="M69,124.1l783.1,0l0,-0.7L69,123.4l0,0.7Z" class="g2_2174" />
<path d="M69,147l783.1,0l0,-0.7L69,146.3l0,0.7Z" class="g2_2174" />
<path d="M260.9,169.9l591.2,0l0,-0.7l-591.2,0l0,0.7Z" class="g2_2174" />
<path d="M260.9,192.9l591.2,0l0,-0.8l-591.2,0l0,0.8Z" class="g2_2174" />
<path d="M260.9,215.8l591.2,0l0,-0.8l-591.2,0l0,0.8Z" class="g2_2174" />
<path d="M260.9,238.7l591.2,0l0,-0.7l-591.2,0l0,0.7Z" class="g2_2174" />
<path d="M260.9,261.6l591.2,0l0,-0.7l-591.2,0l0,0.7Z" class="g2_2174" />
<path d="M69,284.5l783.1,0l0,-0.7L69,283.8l0,0.7Z" class="g2_2174" />
<path d="M260.9,307.4l591.2,0l0,-0.7l-591.2,0l0,0.7Z" class="g2_2174" />
<path d="M260.9,330.4l591.2,0l0,-0.8l-591.2,0l0,0.8Z" class="g2_2174" />
<path d="M260.9,353.3l591.2,0l0,-0.7l-591.2,0l0,0.7Z" class="g2_2174" />
<path d="M260.9,376.2l591.2,0l0,-0.7l-591.2,0l0,0.7Z" class="g2_2174" />
<path d="M260.9,399.1l591.2,0l0,-0.7l-591.2,0l0,0.7Z" class="g2_2174" />
<path d="M69,422l783.1,0l0,-0.7L69,421.3l0,0.7Z" class="g2_2174" />
<path d="M260.9,444.9l591.2,0l0,-0.7l-591.2,0l0,0.7Z" class="g2_2174" />
<path d="M260.9,467.9l591.2,0l0,-0.8l-591.2,0l0,0.8Z" class="g2_2174" />
<path d="M260.9,490.8l591.2,0l0,-0.8l-591.2,0l0,0.8Z" class="g2_2174" />
<path d="M260.9,513.7l591.2,0l0,-0.7l-591.2,0l0,0.7Z" class="g2_2174" />
<path d="M69,559.5l783.1,0l0,-0.7L69,558.8l0,0.7Z" class="g2_2174" />
<path d="M260.9,582.4l591.2,0l0,-0.7l-591.2,0l0,0.7Z" class="g2_2174" />
<path d="M260.9,605.4l591.2,0l0,-0.8l-591.2,0l0,0.8Z" class="g2_2174" />
<path d="M260.9,628.3l591.2,0l0,-0.7l-591.2,0l0,0.7Z" class="g2_2174" />
<path d="M69,651.2l783.1,0l0,-0.7L69,650.5l0,0.7Z" class="g2_2174" />
<path d="M69,674.1l783.1,0l0,-0.7L69,673.4l0,0.7Z" class="g2_2174" />
<path d="M69,697l783.1,0l0,-0.7L69,696.3l0,0.7Z" class="g2_2174" />
<path d="M69,719.9l783.1,0l0,-0.7L69,719.2l0,0.7Z" class="g2_2174" />
<path d="M69,742.9l783.1,0l0,-0.8L69,742.1l0,0.8Z" class="g2_2174" />
<path d="M69,765.8l783.1,0l0,-0.7L69,765.1l0,0.7Z" class="g2_2174" />
<path d="M69,788.7l783.1,0l0,-0.7L69,788l0,0.7Z" class="g2_2174" />
<path d="M69,825.4l783.1,0l0,-0.8L69,824.6l0,0.8Z" class="g2_2174" />
<path d="M69,848.3l783.1,0l0,-0.7L69,847.6l0,0.7Z" class="g2_2174" />
<path d="M69,871.2l783.1,0l0,-0.7L69,870.5l0,0.7Z" class="g2_2174" />
<path d="M69,907.9l783.1,0l0,-0.8L69,907.1l0,0.8Z" class="g2_2174" />
<path d="M69,930.8l783.1,0l0,-0.7L69,930.1l0,0.7Z" class="g2_2174" />
<path d="M69,953.7l783.1,0l0,-0.7L69,953l0,0.7Z" class="g2_2174" />
<path d="M69,976.6l783.1,0l0,-0.7L69,975.9l0,0.7Z" class="g2_2174" />
<path d="M69,1027l783.1,0l0,-0.7l-783.1,0l0,0.7Z" class="g2_2174" />
<path d="M69,1050l783.1,0l0,-0.8l-783.1,0l0,0.8Z" class="g2_2174" />
<path d="M69,1086.6l783.1,0l0,-0.7l-783.1,0l0,0.7Z" class="g2_2174" />
</svg>