<?xml version="1.0" encoding="UTF-8" standalone="no"?>
<!DOCTYPE svg PUBLIC "-//W3C//DTD SVG 1.1//EN"
"http://www.w3.org/Graphics/SVG/1.1/DTD/svg11.dtd">
<svg viewBox="0 0 935 1210" version="1.1" xmlns="http://www.w3.org/2000/svg" xmlns:xlink="http://www.w3.org/1999/xlink">
<defs>
<style type="text/css"><![CDATA[
.g1_1170{
fill: #FFFFFF;
}
.g2_1170{
}
]]></style>
</defs>
<path d="M165,1149.3l687.5,0l0,-21.2l-687.5,0l0,21.2Z" class="g1_1170" />
<path d="M68.8,1149.3l82.5,0l0,-21.2l-82.5,0l0,21.2Z" class="g1_1170" />
<path d="M68.9,635.2l0.8,0l0,-509.5l-0.8,0l0,509.5Z" class="g2_1170" />
<path d="M389.4,636l0.7,0l0,-511.1l-0.7,0l0,511.1Z" class="g2_1170" />
<path d="M427.3,636l0.7,0l0,-511.1l-0.7,0l0,511.1Z" class="g2_1170" />
<path d="M500.6,636l0.7,0l0,-511.1l-0.7,0l0,511.1Z" class="g2_1170" />
<path d="M575.4,636l0.7,0l0,-511.1l-0.7,0l0,511.1Z" class="g2_1170" />
<path d="M851.4,635.2l0.7,0l0,-509.5l-0.7,0l0,509.5Z" class="g2_1170" />
<path d="M68.9,125.7l783.3,0l0,-0.8l-783.3,0l0,0.8Z" class="g2_1170" />
<path d="M68.9,179.1l783.3,0l0,-0.7l-783.3,0l0,0.7Z" class="g2_1170" />
<path d="M68.9,223.4l783.3,0l0,-0.7l-783.3,0l0,0.7Z" class="g2_1170" />
<path d="M68.9,267.8l783.3,0l0,-0.8L68.9,267l0,0.8Z" class="g2_1170" />
<path d="M68.9,307.4l783.3,0l0,-0.7l-783.3,0l0,0.7Z" class="g2_1170" />
<path d="M68.9,347.1l783.3,0l0,-0.7l-783.3,0l0,0.7Z" class="g2_1170" />
<path d="M68.9,386.9l783.3,0l0,-0.7l-783.3,0l0,0.7Z" class="g2_1170" />
<path d="M68.9,426.6l783.3,0l0,-0.7l-783.3,0l0,0.7Z" class="g2_1170" />
<path d="M68.9,483.2l783.3,0l0,-0.8l-783.3,0l0,0.8Z" class="g2_1170" />
<path d="M68.9,539.7l783.3,0l0,-0.7L68.9,539l0,0.7Z" class="g2_1170" />
<path d="M68.9,579.4l783.3,0l0,-0.7l-783.3,0l0,0.7Z" class="g2_1170" />
<path d="M68.9,636l783.3,0l0,-0.8l-783.3,0l0,0.8Z" class="g2_1170" />
<path d="M70.2,865.9l0.8,0l0,-97l-0.8,0l0,97Z" class="g2_1170" />
<path d="M138.3,866.7l0.8,0l0,-98.6l-0.8,0l0,98.6Z" class="g2_1170" />
<path d="M314.7,866.7l0.7,0l0,-98.6l-0.7,0l0,98.6Z" class="g2_1170" />
<path d="M489.6,866.7l0.7,0l0,-98.6l-0.7,0l0,98.6Z" class="g2_1170" />
<path d="M668.4,866.7l0.8,0l0,-98.6l-0.8,0l0,98.6Z" class="g2_1170" />
<path d="M850.1,865.9l0.7,0l0,-97l-0.7,0l0,97Z" class="g2_1170" />
<path d="M70.2,768.9l780.7,0l0,-0.7l-780.7,0l0,0.7Z" class="g2_1170" />
<path d="M70.2,793.3l780.7,0l0,-0.7l-780.7,0l0,0.7Z" class="g2_1170" />
<path d="M70.2,817.8l780.7,0l0,-0.8L70.2,817l0,0.8Z" class="g2_1170" />
<path d="M70.2,842.2l780.7,0l0,-0.7l-780.7,0l0,0.7Z" class="g2_1170" />
<path d="M70.2,866.6l780.7,0l0,-0.7l-780.7,0l0,0.7Z" class="g2_1170" />
</svg>