<?xml version="1.0" encoding="UTF-8" standalone="no"?>
<!DOCTYPE svg PUBLIC "-//W3C//DTD SVG 1.1//EN"
"http://www.w3.org/Graphics/SVG/1.1/DTD/svg11.dtd">
<svg viewBox="0 0 935 1210" version="1.1" xmlns="http://www.w3.org/2000/svg" xmlns:xlink="http://www.w3.org/1999/xlink">
<defs>
<style type="text/css"><![CDATA[
.g1_788{
fill: #FFFFFF;
}
.g2_788{
}
]]></style>
</defs>
<path d="M165,1149.3l687.5,0l0,-21.2l-687.5,0l0,21.2Z" class="g1_788" />
<path d="M68.8,1149.3l82.5,0l0,-21.2l-82.5,0l0,21.2Z" class="g1_788" />
<path d="M69.6,448.8l0.7,0l0,-323.1l-0.7,0l0,323.1Z" class="g2_788" />
<path d="M388.9,449.5l0.7,0l0,-324.6l-0.7,0l0,324.6Z" class="g2_788" />
<path d="M428.9,449.5l0.7,0l0,-324.6l-0.7,0l0,324.6Z" class="g2_788" />
<path d="M502.3,449.5l0.8,0l0,-324.6l-0.8,0l0,324.6Z" class="g2_788" />
<path d="M573.7,449.5l0.8,0l0,-324.6l-0.8,0l0,324.6Z" class="g2_788" />
<path d="M850.8,448.8l0.8,0l0,-323.1l-0.8,0l0,323.1Z" class="g2_788" />
<path d="M69.5,125.7l782.1,0l0,-0.8l-782.1,0l0,0.8Z" class="g2_788" />
<path d="M69.5,179.1l782.1,0l0,-0.7l-782.1,0l0,0.7Z" class="g2_788" />
<path d="M69.5,269.2l782.1,0l0,-0.7l-782.1,0l0,0.7Z" class="g2_788" />
<path d="M69.5,359.4l782.1,0l0,-0.7l-782.1,0l0,0.7Z" class="g2_788" />
<path d="M69.5,449.5l782.1,0l0,-0.7l-782.1,0l0,0.7Z" class="g2_788" />
<path d="M70.9,577.1l0.7,0l0,-72.6l-0.7,0l0,72.6Z" class="g2_788" />
<path d="M137.6,577.9l0.7,0l0,-74.1l-0.7,0l0,74.1Z" class="g2_788" />
<path d="M304.1,577.9l0.7,0l0,-74.1l-0.7,0l0,74.1Z" class="g2_788" />
<path d="M478.4,577.9l0.7,0l0,-74.1l-0.7,0l0,74.1Z" class="g2_788" />
<path d="M659.1,577.9l0.7,0l0,-74.1l-0.7,0l0,74.1Z" class="g2_788" />
<path d="M849.6,577.1l0.7,0l0,-72.6l-0.7,0l0,72.6Z" class="g2_788" />
<path d="M70.8,504.5l779.5,0l0,-0.7l-779.5,0l0,0.7Z" class="g2_788" />
<path d="M70.8,529l779.5,0l0,-0.7l-779.5,0l0,0.7Z" class="g2_788" />
<path d="M70.8,553.5l779.5,0l0,-0.8l-779.5,0l0,0.8Z" class="g2_788" />
<path d="M70.8,577.9l779.5,0l0,-0.8l-779.5,0l0,0.8Z" class="g2_788" />
</svg>