<?xml version="1.0" encoding="UTF-8" standalone="no"?>
<!DOCTYPE svg PUBLIC "-//W3C//DTD SVG 1.1//EN"
"http://www.w3.org/Graphics/SVG/1.1/DTD/svg11.dtd">
<svg viewBox="0 0 935 1210" version="1.1" xmlns="http://www.w3.org/2000/svg" xmlns:xlink="http://www.w3.org/1999/xlink">
<defs>
<style type="text/css"><![CDATA[
.g1_124{
fill: #FFFFFF;
}
.g2_124{
}
]]></style>
</defs>
<path d="M165,1149.3l687.5,0l0,-21.2l-687.5,0l0,21.2Z" class="g1_124" />
<path d="M68.8,1149.3l82.5,0l0,-21.2l-82.5,0l0,21.2Z" class="g1_124" />
<path d="M68.9,225.8l0.8,0l0,-100.1l-0.8,0l0,100.1Z" class="g2_124" />
<path d="M220.2,226.5l0.7,0l0,-101.6l-0.7,0l0,101.6Z" class="g2_124" />
<path d="M391.7,226.5l0.7,0l0,-101.6l-0.7,0l0,101.6Z" class="g2_124" />
<path d="M429.6,226.5l0.7,0l0,-101.6l-0.7,0l0,101.6Z" class="g2_124" />
<path d="M502.9,226.5l0.7,0l0,-101.6l-0.7,0l0,101.6Z" class="g2_124" />
<path d="M574.3,226.5l0.7,0l0,-101.6l-0.7,0l0,101.6Z" class="g2_124" />
<path d="M851.4,225.8l0.7,0l0,-100.1l-0.7,0l0,100.1Z" class="g2_124" />
<path d="M68.9,125.7l783.2,0l0,-0.8l-783.2,0l0,0.8Z" class="g2_124" />
<path d="M68.9,163.8l783.2,0l0,-0.7l-783.2,0l0,0.7Z" class="g2_124" />
<path d="M68.9,186.7l783.2,0l0,-0.7L68.9,186l0,0.7Z" class="g2_124" />
<path d="M68.9,226.5l783.2,0l0,-0.7l-783.2,0l0,0.7Z" class="g2_124" />
<path d="M69.1,329.6l0.8,0l0,-48.1l-0.8,0l0,48.1Z" class="g2_124" />
<path d="M134.9,330.4l0.8,0l0,-49.6l-0.8,0l0,49.6Z" class="g2_124" />
<path d="M310.6,330.4l0.7,0l0,-49.6l-0.7,0l0,49.6Z" class="g2_124" />
<path d="M491.9,330.4l0.7,0l0,-49.6l-0.7,0l0,49.6Z" class="g2_124" />
<path d="M667.7,330.4l0.7,0l0,-49.6l-0.7,0l0,49.6Z" class="g2_124" />
<path d="M851.3,329.6l0.7,0l0,-48.1l-0.7,0l0,48.1Z" class="g2_124" />
<path d="M69.1,281.5l782.9,0l0,-0.7l-782.9,0l0,0.7Z" class="g2_124" />
<path d="M69.1,305.9l782.9,0l0,-0.7l-782.9,0l0,0.7Z" class="g2_124" />
<path d="M69.1,330.4l782.9,0l0,-0.8l-782.9,0l0,0.8Z" class="g2_124" />
</svg>