<?xml version="1.0" encoding="UTF-8" standalone="no"?>
<!DOCTYPE svg PUBLIC "-//W3C//DTD SVG 1.1//EN"
"http://www.w3.org/Graphics/SVG/1.1/DTD/svg11.dtd">
<svg viewBox="0 0 935 1210" version="1.1" xmlns="http://www.w3.org/2000/svg" xmlns:xlink="http://www.w3.org/1999/xlink">
<defs>
<style type="text/css"><![CDATA[
.g1_2100{
fill: #FFFFFF;
}
.g2_2100{
}
]]></style>
</defs>
<path d="M68.8,1149.3l783.7,0l0,-21.2l-783.7,0l0,21.2Z" class="g1_2100" />
<path d="M68.6,432l0.7,0l0,-307.9l-0.7,0l0,307.9Z" class="g2_2100" />
<path d="M513.2,432.8l0.7,0l0,-309.4l-0.7,0l0,309.4Z" class="g2_2100" />
<path d="M852,432l0.7,0l0,-307.9l-0.7,0L852,432Z" class="g2_2100" />
<path d="M68.6,124.1l784.1,0l0,-0.7l-784.1,0l0,0.7Z" class="g2_2100" />
<path d="M68.6,148.6l784.1,0l0,-0.7l-784.1,0l0,0.7Z" class="g2_2100" />
<path d="M68.6,173l784.1,0l0,-0.8l-784.1,0l0,0.8Z" class="g2_2100" />
<path d="M68.6,197.4l784.1,0l0,-0.7l-784.1,0l0,0.7Z" class="g2_2100" />
<path d="M68.6,237.1l784.1,0l0,-0.7l-784.1,0l0,0.7Z" class="g2_2100" />
<path d="M68.6,261.6l784.1,0l0,-0.7l-784.1,0l0,0.7Z" class="g2_2100" />
<path d="M68.6,286.1l784.1,0l0,-0.7l-784.1,0l0,0.7Z" class="g2_2100" />
<path d="M68.6,310.5l784.1,0l0,-0.8l-784.1,0l0,0.8Z" class="g2_2100" />
<path d="M68.6,334.9l784.1,0l0,-0.7l-784.1,0l0,0.7Z" class="g2_2100" />
<path d="M68.6,359.4l784.1,0l0,-0.7l-784.1,0l0,0.7Z" class="g2_2100" />
<path d="M68.6,383.8l784.1,0l0,-0.7l-784.1,0l0,0.7Z" class="g2_2100" />
<path d="M68.6,408.3l784.1,0l0,-0.8l-784.1,0l0,0.8Z" class="g2_2100" />
<path d="M68.6,432.8l784.1,0l0,-0.8L68.6,432l0,0.8Z" class="g2_2100" />
<path d="M68.6,853.7l0.7,0l0,-121.5l-0.7,0l0,121.5Z" class="g2_2100" />
<path d="M443.8,854.4l0.8,0l0,-123l-0.8,0l0,123Z" class="g2_2100" />
<path d="M850.9,853.7l0.8,0l0,-121.5l-0.8,0l0,121.5Z" class="g2_2100" />
<path d="M68.6,732.2l783.1,0l0,-0.7l-783.1,0l0,0.7Z" class="g2_2100" />
<path d="M68.6,756.6l783.1,0l0,-0.7l-783.1,0l0,0.7Z" class="g2_2100" />
<path d="M68.6,781.1l783.1,0l0,-0.7l-783.1,0l0,0.7Z" class="g2_2100" />
<path d="M68.6,805.6l783.1,0l0,-0.8l-783.1,0l0,0.8Z" class="g2_2100" />
<path d="M68.6,830l783.1,0l0,-0.8l-783.1,0l0,0.8Z" class="g2_2100" />
<path d="M68.6,854.4l783.1,0l0,-0.7l-783.1,0l0,0.7Z" class="g2_2100" />
</svg>