<?xml version="1.0" encoding="UTF-8" standalone="no"?>
<!DOCTYPE svg PUBLIC "-//W3C//DTD SVG 1.1//EN"
"http://www.w3.org/Graphics/SVG/1.1/DTD/svg11.dtd">
<svg viewBox="0 0 935 1210" version="1.1" xmlns="http://www.w3.org/2000/svg" xmlns:xlink="http://www.w3.org/1999/xlink">
<defs>
<style type="text/css"><![CDATA[
.g1_283{
fill: #FFFFFF;
}
.g2_283{
}
]]></style>
</defs>
<path d="M68.9,1149.3l686.3,0l0,-21.2l-686.3,0l0,21.2Z" class="g1_283" />
<path d="M771.3,1149.3l83.7,0l0,-21.2l-83.7,0l0,21.2Z" class="g1_283" />
<path d="M70.1,390.8l0.8,0l0,-259l-0.8,0l0,259Z" class="g2_283" />
<path d="M297.5,391.5l0.7,0l0,-260.5l-0.7,0l0,260.5Z" class="g2_283" />
<path d="M335.3,391.5l0.8,0l0,-260.5l-0.8,0l0,260.5Z" class="g2_283" />
<path d="M408.7,391.5l0.7,0l0,-260.5l-0.7,0l0,260.5Z" class="g2_283" />
<path d="M480.1,391.5l0.7,0l0,-260.5l-0.7,0l0,260.5Z" class="g2_283" />
<path d="M851.9,390.8l0.7,0l0,-259l-0.7,0l0,259Z" class="g2_283" />
<path d="M70.1,131.7l782.6,0l0,-0.7L70.1,131l0,0.7Z" class="g2_283" />
<path d="M70.1,169.9l782.6,0l0,-0.7l-782.6,0l0,0.7Z" class="g2_283" />
<path d="M70.1,214.2l782.6,0l0,-0.7l-782.6,0l0,0.7Z" class="g2_283" />
<path d="M70.1,258.6l782.6,0l0,-0.7l-782.6,0l0,0.7Z" class="g2_283" />
<path d="M70.1,302.9l782.6,0l0,-0.8l-782.6,0l0,0.8Z" class="g2_283" />
<path d="M70.1,347.1l782.6,0l0,-0.7l-782.6,0l0,0.7Z" class="g2_283" />
<path d="M70.1,391.5l782.6,0l0,-0.7l-782.6,0l0,0.7Z" class="g2_283" />
<path d="M69.9,554.2l0.7,0l0,-48.1l-0.7,0l0,48.1Z" class="g2_283" />
<path d="M138.8,554.9l0.7,0l0,-49.5l-0.7,0l0,49.5Z" class="g2_283" />
<path d="M333.5,554.9l0.7,0l0,-49.5l-0.7,0l0,49.5Z" class="g2_283" />
<path d="M513.4,554.9l0.8,0l0,-49.5l-0.8,0l0,49.5Z" class="g2_283" />
<path d="M681.9,554.9l0.7,0l0,-49.5l-0.7,0l0,49.5Z" class="g2_283" />
<path d="M852.1,554.2l0.8,0l0,-48.1l-0.8,0l0,48.1Z" class="g2_283" />
<path d="M69.9,506.1l783,0l0,-0.7l-783,0l0,0.7Z" class="g2_283" />
<path d="M69.9,530.6l783,0l0,-0.8l-783,0l0,0.8Z" class="g2_283" />
<path d="M69.9,554.9l783,0l0,-0.7l-783,0l0,0.7Z" class="g2_283" />
</svg>