<?xml version="1.0" encoding="UTF-8" standalone="no"?>
<!DOCTYPE svg PUBLIC "-//W3C//DTD SVG 1.1//EN"
"http://www.w3.org/Graphics/SVG/1.1/DTD/svg11.dtd">
<svg viewBox="0 0 935 1210" version="1.1" xmlns="http://www.w3.org/2000/svg" xmlns:xlink="http://www.w3.org/1999/xlink">
<defs>
<style type="text/css"><![CDATA[
.g1_730{
fill: #FFFFFF;
}
.g2_730{
}
]]></style>
</defs>
<path d="M165,1149.3l687.5,0l0,-21.2l-687.5,0l0,21.2Z" class="g1_730" />
<path d="M68.8,1149.3l82.5,0l0,-21.2l-82.5,0l0,21.2Z" class="g1_730" />
<path d="M68.6,395.4l0.7,0l0,-269.7l-0.7,0l0,269.7Z" class="g2_730" />
<path d="M297.1,396.1l0.7,0l0,-271.2l-0.7,0l0,271.2Z" class="g2_730" />
<path d="M362.4,396.1l0.7,0l0,-271.2l-0.7,0l0,271.2Z" class="g2_730" />
<path d="M436.8,396.1l0.7,0l0,-271.2l-0.7,0l0,271.2Z" class="g2_730" />
<path d="M516.6,396.1l0.8,0l0,-271.2l-0.8,0l0,271.2Z" class="g2_730" />
<path d="M849.3,395.4l0.7,0l0,-269.7l-0.7,0l0,269.7Z" class="g2_730" />
<path d="M68.6,125.7l781.4,0l0,-0.8l-781.4,0l0,0.8Z" class="g2_730" />
<path d="M68.6,176.1l781.4,0l0,-0.7l-781.4,0l0,0.7Z" class="g2_730" />
<path d="M68.6,212.8l781.4,0l0,-0.8L68.6,212l0,0.8Z" class="g2_730" />
<path d="M68.6,249.4l781.4,0l0,-0.7l-781.4,0l0,0.7Z" class="g2_730" />
<path d="M68.6,286.1l781.4,0l0,-0.7l-781.4,0l0,0.7Z" class="g2_730" />
<path d="M68.6,322.8l781.4,0l0,-0.8L68.6,322l0,0.8Z" class="g2_730" />
<path d="M68.6,359.4l781.4,0l0,-0.7l-781.4,0l0,0.7Z" class="g2_730" />
<path d="M68.6,396.1l781.4,0l0,-0.7l-781.4,0l0,0.7Z" class="g2_730" />
<path d="M70.2,597l0.8,0L71,451.1l-0.8,0l0,145.9Z" class="g2_730" />
<path d="M197.4,597.8l0.7,0l0,-147.4l-0.7,0l0,147.4Z" class="g2_730" />
<path d="M364.4,597.8l0.7,0l0,-147.4l-0.7,0l0,147.4Z" class="g2_730" />
<path d="M529.4,597.8l0.7,0l0,-147.4l-0.7,0l0,147.4Z" class="g2_730" />
<path d="M690.6,597.8l0.7,0l0,-147.4l-0.7,0l0,147.4Z" class="g2_730" />
<path d="M850.1,597l0.7,0l0,-145.9l-0.7,0l0,145.9Z" class="g2_730" />
<path d="M70.2,451.1l780.6,0l0,-0.7l-780.6,0l0,0.7Z" class="g2_730" />
<path d="M70.2,475.6l780.6,0l0,-0.8l-780.6,0l0,0.8Z" class="g2_730" />
<path d="M70.2,499.9l780.6,0l0,-0.7l-780.6,0l0,0.7Z" class="g2_730" />
<path d="M70.2,524.4l780.6,0l0,-0.7l-780.6,0l0,0.7Z" class="g2_730" />
<path d="M70.2,548.9l780.6,0l0,-0.7l-780.6,0l0,0.7Z" class="g2_730" />
<path d="M70.2,573.3l780.6,0l0,-0.7l-780.6,0l0,0.7Z" class="g2_730" />
<path d="M70.2,597.8l780.6,0l0,-0.8L70.2,597l0,0.8Z" class="g2_730" />
</svg>