<?xml version="1.0" encoding="UTF-8" standalone="no"?>
<!DOCTYPE svg PUBLIC "-//W3C//DTD SVG 1.1//EN"
"http://www.w3.org/Graphics/SVG/1.1/DTD/svg11.dtd">
<svg viewBox="0 0 935 1210" version="1.1" xmlns="http://www.w3.org/2000/svg" xmlns:xlink="http://www.w3.org/1999/xlink">
<defs>
<style type="text/css"><![CDATA[
.g1_413{
fill: #FFFFFF;
}
.g2_413{
}
]]></style>
</defs>
<path d="M68.9,1149.3l686.3,0l0,-21.2l-686.3,0l0,21.2Z" class="g1_413" />
<path d="M771.3,1149.3l83.7,0l0,-21.2l-83.7,0l0,21.2Z" class="g1_413" />
<path d="M70.6,192.1l0.7,0l0,-60.3l-0.7,0l0,60.3Z" class="g2_413" />
<path d="M202.7,192.9l0.7,0l0,-61.9l-0.7,0l0,61.9Z" class="g2_413" />
<path d="M380.2,192.9l0.8,0L381,131l-0.8,0l0,61.9Z" class="g2_413" />
<path d="M434.8,192.9l0.7,0l0,-61.9l-0.7,0l0,61.9Z" class="g2_413" />
<path d="M520.2,192.9l0.7,0l0,-61.9l-0.7,0l0,61.9Z" class="g2_413" />
<path d="M851.5,192.1l0.7,0l0,-60.3l-0.7,0l0,60.3Z" class="g2_413" />
<path d="M70.5,131.7l781.7,0l0,-0.7L70.5,131l0,0.7Z" class="g2_413" />
<path d="M70.5,169.9l781.7,0l0,-0.7l-781.7,0l0,0.7Z" class="g2_413" />
<path d="M70.5,192.9l781.7,0l0,-0.8l-781.7,0l0,0.8Z" class="g2_413" />
<path d="M71.7,503.8l0.7,0l0,-181l-0.7,0l0,181Z" class="g2_413" />
<path d="M448.4,504.5l0.8,0l0,-182.5l-0.8,0l0,182.5Z" class="g2_413" />
<path d="M850.4,503.8l0.7,0l0,-181l-0.7,0l0,181Z" class="g2_413" />
<path d="M71.6,322.8l779.5,0l0,-0.8L71.6,322l0,0.8Z" class="g2_413" />
<path d="M71.6,345.7l779.5,0l0,-0.8l-779.5,0l0,0.8Z" class="g2_413" />
<path d="M71.6,368.6l779.5,0l0,-0.7l-779.5,0l0,0.7Z" class="g2_413" />
<path d="M71.6,389.9l779.5,0l0,-0.7l-779.5,0l0,0.7Z" class="g2_413" />
<path d="M71.6,412.9l779.5,0l0,-0.8l-779.5,0l0,0.8Z" class="g2_413" />
<path d="M71.6,435.8l779.5,0l0,-0.8L71.6,435l0,0.8Z" class="g2_413" />
<path d="M71.6,458.7l779.5,0l0,-0.7L71.6,458l0,0.7Z" class="g2_413" />
<path d="M71.6,481.6l779.5,0l0,-0.7l-779.5,0l0,0.7Z" class="g2_413" />
<path d="M71.6,504.5l779.5,0l0,-0.7l-779.5,0l0,0.7Z" class="g2_413" />
</svg>