<?xml version="1.0" encoding="UTF-8" standalone="no"?>
<!DOCTYPE svg PUBLIC "-//W3C//DTD SVG 1.1//EN"
"http://www.w3.org/Graphics/SVG/1.1/DTD/svg11.dtd">
<svg viewBox="0 0 935 1210" version="1.1" xmlns="http://www.w3.org/2000/svg" xmlns:xlink="http://www.w3.org/1999/xlink">
<defs>
<style type="text/css"><![CDATA[
.g1_320{
fill: #FFFFFF;
}
.g2_320{
}
.g3_320{
fill: none;
stroke: #000000;
stroke-width: 0.9731945;
stroke-linecap: round;
stroke-linejoin: round;
}
.g4_320{
fill: none;
stroke: #000000;
stroke-width: 0.27805558;
stroke-linecap: round;
stroke-linejoin: round;
}
]]></style>
</defs>
<path d="M165,1149.3l687.5,0l0,-21.2l-687.5,0l0,21.2Z" class="g1_320" />
<path d="M68.8,1149.3l82.5,0l0,-21.2l-82.5,0l0,21.2Z" class="g1_320" />
<path d="M69.2,453.4l0.7,0l0,-289.5l-0.7,0l0,289.5Z" class="g2_320" />
<path d="M276.7,454.1l0.8,0l0,-291l-0.8,0l0,291Z" class="g2_320" />
<path d="M591.3,454.1l0.8,0l0,-291l-0.8,0l0,291Z" class="g2_320" />
<path d="M851.2,453.4l0.7,0l0,-289.5l-0.7,0l0,289.5Z" class="g2_320" />
<path d="M69.1,163.8l782.9,0l0,-0.7l-782.9,0l0,0.7Z" class="g2_320" />
<path d="M69.1,188.3l782.9,0l0,-0.7l-782.9,0l0,0.7Z" class="g2_320" />
<path d="M69.1,276.9l782.9,0l0,-0.7l-782.9,0l0,0.7Z" class="g2_320" />
<path d="M69.1,365.5l782.9,0l0,-0.8l-782.9,0l0,0.8Z" class="g2_320" />
<path d="M69.1,454.1l782.9,0l0,-0.7l-782.9,0l0,0.7Z" class="g2_320" />
<path d="M170.5,1046.3l0.7,0l0,-494.4l-0.7,0l0,494.4Z" class="g2_320" />
<path d="M749.8,1046.3l0.8,0l0,-494.4l-0.8,0l0,494.4Z" class="g2_320" />
<path d="M170.5,551.9l580.1,0l0,-0.7l-580.1,0l0,0.7Z" class="g2_320" />
<path d="M170.5,1047.1l580.1,0l0,-0.7l-580.1,0l0,0.7Z" class="g2_320" />
<path d="M221.4,1038.1l475.2,0l0,-460.6l-475.2,0l0,460.6Z" class="g1_320" />
<path fill-rule="evenodd" d="M233.1,704.8l81.3,-37.7l81.4,37.7l-81.4,37.6L233.1,704.8Z" class="g1_320" />
<path d="M233.1,704.8l81.3,-37.7l81.4,37.7l-81.4,37.6L233.1,704.8Z" class="g3_320" />
<path d="M314.4,617.1l0,45.7" class="g4_320" />
<path fill-rule="evenodd" d="M314.4,667.1l-2.7,-5.5l0.7,0.3c2.2,0.5,2.1,0.4,4.3,0l0.7,-0.3l-3,5.5Z" class="g2_320" />
<path d="M314.4,839.5l0,33.2" class="g4_320" />
<path fill-rule="evenodd" d="M314.4,877l-2.7,-5.7l0.7,0.3c1.2,0.7,3.1,0.6,4.3,0l0.7,-0.3l-3,5.7Z" class="g2_320" />
<path d="M314.4,742.4l0,55.2" class="g4_320" />
<path fill-rule="evenodd" d="M314.4,801.9l-2.7,-5.7l0.7,0.3c2.8,0.5,1.5,0.4,4.3,0l0.7,-0.3l-3,5.7Z" class="g2_320" />
<path d="M251.8,848.7l125.2,0l0,-46.8l-125.2,0l0,46.8Z" class="g1_320" />
<path d="M251.8,848.7l125.2,0l0,-46.8l-125.2,0l0,46.8Z" class="g3_320" />
<path d="M251.8,617.1l125.2,0l0,-37.5l-125.2,0l0,37.5Z" class="g1_320" />
<path d="M251.8,617.1l125.2,0l0,-37.5l-125.2,0l0,37.5Z" class="g3_320" />
<path d="M508.7,728.2l125.2,0l0,-46.8l-125.2,0l0,46.8Z" class="g1_320" />
<path d="M508.7,728.2l125.2,0l0,-46.8l-125.2,0l0,46.8Z" class="g3_320" />
<path d="M395.8,704.8l19.6,0l0,16.9l93.3,0l0,-12.7" class="g4_320" />
<path fill-rule="evenodd" d="M508.7,704.8l2.7,5.6l0,0.2l-0.6,-0.5c-1,-0.3,-3.4,-0.4,-4.3,0l-0.7,0.5l-0.1,-0.2l3,-5.6Z" class="g2_320" />
<path d="M382.2,899.6l126.5,0" class="g4_320" />
<path fill-rule="evenodd" d="M377.9,899.6l5.7,-2.7l-0.3,0.7l-0.3,0.6l-0.1,0.8l0,1.4l0.1,0.8l0.3,0.7l0.3,0.6l-5.7,-2.9Z" class="g2_320" />
<path d="M314.4,914.6l0,33.3" class="g4_320" />
<path fill-rule="evenodd" d="M314.4,952.1l-2.7,-5.6l0.7,0.3c2.8,0.6,1.5,0.4,4.3,0l0.7,-0.3l-3,5.6Z" class="g2_320" />
<path d="M251.8,924L377,924l0,-47l-125.2,0l0,47Z" class="g1_320" />
<path d="M251.8,924L377,924l0,-47l-125.2,0l0,47Z" class="g3_320" />
<path fill-rule="evenodd" d="M508.7,899.6l81.4,-37.5l81.3,37.5l-81.3,37.7L508.7,899.6Z" class="g1_320" />
<path d="M508.7,899.6l81.4,-37.5l81.3,37.5l-81.3,37.7L508.7,899.6Z" class="g3_320" />
<path d="M251.8,999.1l125.2,0l0,-47l-125.2,0l0,47Z" class="g1_320" />
<path d="M251.8,999.1l125.2,0l0,-47l-125.2,0l0,47Z" class="g3_320" />
<path d="M527.4,1012.4l125.2,0l0,-47l-125.2,0l0,47Z" class="g1_320" />
<path d="M527.4,1012.4l125.2,0l0,-47l-125.2,0l0,47Z" class="g3_320" />
<path d="M590.1,937.3l0,23.8" class="g4_320" />
<path fill-rule="evenodd" d="M590.1,965.4l-2.9,-5.6l0.7,0.3c1,0.4,3.4,0.4,4.4,0l0.6,-0.3l-2.8,5.6Z" class="g2_320" />
<path d="M511.7,773.7l-78.2,0l-52,36.2" class="g3_320" />
<path fill-rule="evenodd" d="M377,812.7l3.8,-6.8l0.3,0.9c0.2,1.4,1.8,3.7,3.1,4.5l0.6,0.3l-7.8,1.1Z" class="g2_320" />
<path d="M511.7,804.9l-78.2,0l-51.4,18.7" class="g3_320" />
<path fill-rule="evenodd" d="M377,825.4l5.4,-5.7l0,1.8l0.2,0.8l0.3,0.9l0.4,0.8l0.4,0.8l1.1,1.5L377,825.4Z" class="g2_320" />
<path d="M511.7,837.1l-129.3,0" class="g3_320" />
<path fill-rule="evenodd" d="M377,837.1l7.2,-3.5l-0.5,0.8c-0.6,1.4,-0.6,4,0,5.4l0.5,0.8L377,837.1Z" class="g2_320" />
<path fill-rule="evenodd" d="M485.7,848.7l156.5,0l52.2,-25l-156.6,0l-52.1,25Z" class="g1_320" />
<path d="M485.7,848.7l156.5,0l52.2,-25l-156.6,0l-52.1,25Z" class="g3_320" />
<path fill-rule="evenodd" d="M485.7,817.5l156.5,0l52.2,-25l-156.6,0l-52.1,25Z" class="g1_320" />
<path d="M485.7,817.5l156.5,0l52.2,-25l-156.6,0l-52.1,25Z" class="g3_320" />
<path fill-rule="evenodd" d="M485.7,786.2l156.5,0l52.2,-25l-156.6,0l-52.1,25Z" class="g1_320" />
<path d="M485.7,786.2l156.5,0l52.2,-25l-156.6,0l-52.1,25Z" class="g3_320" />
</svg>