<?xml version="1.0" encoding="UTF-8" standalone="no"?>
<!DOCTYPE svg PUBLIC "-//W3C//DTD SVG 1.1//EN"
"http://www.w3.org/Graphics/SVG/1.1/DTD/svg11.dtd">
<svg viewBox="0 0 935 1210" version="1.1" xmlns="http://www.w3.org/2000/svg" xmlns:xlink="http://www.w3.org/1999/xlink">
<defs>
<style type="text/css"><![CDATA[
.g1_387{
fill: #FFFFFF;
}
.g2_387{
}
]]></style>
</defs>
<path d="M68.9,1149.3l686.3,0l0,-21.2l-686.3,0l0,21.2Z" class="g1_387" />
<path d="M771.3,1149.3l83.7,0l0,-21.2l-83.7,0l0,21.2Z" class="g1_387" />
<path d="M69.2,401.4l0.7,0l0,-269.6l-0.7,0l0,269.6Z" class="g2_387" />
<path d="M220.4,402.2l0.7,0l0,-271.2l-0.7,0l0,271.2Z" class="g2_387" />
<path d="M391.9,402.2l0.7,0l0,-271.2l-0.7,0l0,271.2Z" class="g2_387" />
<path d="M429.7,402.2l0.8,0l0,-271.2l-0.8,0l0,271.2Z" class="g2_387" />
<path d="M503.2,402.2l0.7,0l0,-271.2l-0.7,0l0,271.2Z" class="g2_387" />
<path d="M574.5,402.2l0.7,0l0,-271.2l-0.7,0l0,271.2Z" class="g2_387" />
<path d="M852.8,401.4l0.7,0l0,-269.6l-0.7,0l0,269.6Z" class="g2_387" />
<path d="M69.2,131.7l784.4,0l0,-0.7L69.2,131l0,0.7Z" class="g2_387" />
<path d="M69.2,169.9l784.4,0l0,-0.7l-784.4,0l0,0.7Z" class="g2_387" />
<path d="M69.2,209.6l784.4,0l0,-0.7l-784.4,0l0,0.7Z" class="g2_387" />
<path d="M69.2,249.4l784.4,0l0,-0.7l-784.4,0l0,0.7Z" class="g2_387" />
<path d="M69.2,289.1l784.4,0l0,-0.7l-784.4,0l0,0.7Z" class="g2_387" />
<path d="M69.2,345.7l784.4,0l0,-0.8l-784.4,0l0,0.8Z" class="g2_387" />
<path d="M69.2,402.2l784.4,0l0,-0.7l-784.4,0l0,0.7Z" class="g2_387" />
<path d="M69.9,545.1l0.7,0l0,-48.2l-0.7,0l0,48.2Z" class="g2_387" />
<path d="M147.1,545.8l0.8,0l0,-49.6l-0.8,0l0,49.6Z" class="g2_387" />
<path d="M318.5,545.8l0.7,0l0,-49.6l-0.7,0l0,49.6Z" class="g2_387" />
<path d="M495.5,545.8l0.7,0l0,-49.6l-0.7,0l0,49.6Z" class="g2_387" />
<path d="M674.1,545.8l0.7,0l0,-49.6l-0.7,0l0,49.6Z" class="g2_387" />
<path d="M852.1,545.1l0.8,0l0,-48.2l-0.8,0l0,48.2Z" class="g2_387" />
<path d="M69.9,496.9l783,0l0,-0.7l-783,0l0,0.7Z" class="g2_387" />
<path d="M69.9,521.4l783,0l0,-0.7l-783,0l0,0.7Z" class="g2_387" />
<path d="M69.9,545.8l783,0l0,-0.7l-783,0l0,0.7Z" class="g2_387" />
<path d="M70.2,982l0.8,0L71,823.9l-0.8,0l0,158.1Z" class="g2_387" />
<path d="M283.4,982.8l0.8,0l0,-159.6l-0.8,0l0,159.6Z" class="g2_387" />
<path d="M394.6,982.8l0.8,0l0,-159.6l-0.8,0l0,159.6Z" class="g2_387" />
<path d="M487.3,982.8l0.7,0l0,-159.6l-0.7,0l0,159.6Z" class="g2_387" />
<path d="M598.5,982.8l0.7,0l0,-159.6l-0.7,0l0,159.6Z" class="g2_387" />
<path d="M728.2,982.8l0.7,0l0,-159.6l-0.7,0l0,159.6Z" class="g2_387" />
<path d="M851.8,982l0.7,0l0,-158.1l-0.7,0l0,158.1Z" class="g2_387" />
<path d="M70.2,823.9l782.3,0l0,-0.7l-782.3,0l0,0.7Z" class="g2_387" />
<path d="M70.2,863.6l782.3,0l0,-0.7l-782.3,0l0,0.7Z" class="g2_387" />
<path d="M70.2,888.1l782.3,0l0,-0.8l-782.3,0l0,0.8Z" class="g2_387" />
<path d="M70.2,912.5l782.3,0l0,-0.8l-782.3,0l0,0.8Z" class="g2_387" />
<path d="M70.2,936.9l782.3,0l0,-0.7l-782.3,0l0,0.7Z" class="g2_387" />
<path d="M70.2,982.8l782.3,0l0,-0.8L70.2,982l0,0.8Z" class="g2_387" />
</svg>