<?xml version="1.0" encoding="UTF-8" standalone="no"?>
<!DOCTYPE svg PUBLIC "-//W3C//DTD SVG 1.1//EN"
"http://www.w3.org/Graphics/SVG/1.1/DTD/svg11.dtd">
<svg viewBox="0 0 935 1210" version="1.1" xmlns="http://www.w3.org/2000/svg" xmlns:xlink="http://www.w3.org/1999/xlink">
<defs>
<style type="text/css"><![CDATA[
.g1_1195{
fill: #FFFFFF;
}
.g2_1195{
}
]]></style>
</defs>
<path d="M68.9,1149.3l686.3,0l0,-21.2l-686.3,0l0,21.2Z" class="g1_1195" />
<path d="M771.3,1149.3l83.7,0l0,-21.2l-83.7,0l0,21.2Z" class="g1_1195" />
<path d="M69.9,331.2l0.8,0l0,-196.4l-0.8,0l0,196.4Z" class="g2_1195" />
<path d="M258.3,331.9l0.7,0l0,-197.8l-0.7,0l0,197.8Z" class="g2_1195" />
<path d="M299.6,331.9l0.7,0l0,-197.8l-0.7,0l0,197.8Z" class="g2_1195" />
<path d="M373,331.9l0.7,0l0,-197.8l-0.7,0l0,197.8Z" class="g2_1195" />
<path d="M461.1,331.9l0.7,0l0,-197.8l-0.7,0l0,197.8Z" class="g2_1195" />
<path d="M852.9,331.2l0.7,0l0,-196.4l-0.7,0l0,196.4Z" class="g2_1195" />
<path d="M69.9,134.8l783.7,0l0,-0.7l-783.7,0l0,0.7Z" class="g2_1195" />
<path d="M69.9,188.3l783.7,0l0,-0.7l-783.7,0l0,0.7Z" class="g2_1195" />
<path d="M69.9,241.7l783.7,0l0,-0.7L69.9,241l0,0.7Z" class="g2_1195" />
<path d="M69.9,295.3l783.7,0l0,-0.8l-783.7,0l0,0.8Z" class="g2_1195" />
<path d="M69.9,331.9l783.7,0l0,-0.7l-783.7,0l0,0.7Z" class="g2_1195" />
<path d="M70.8,432l0.7,0l0,-48.1l-0.7,0l0,48.1Z" class="g2_1195" />
<path d="M176.6,432.8l0.8,0l0,-49.7l-0.8,0l0,49.7Z" class="g2_1195" />
<path d="M344.3,432.8l0.7,0l0,-49.7l-0.7,0l0,49.7Z" class="g2_1195" />
<path d="M509.5,432.8l0.7,0l0,-49.7l-0.7,0l0,49.7Z" class="g2_1195" />
<path d="M678.4,432.8l0.8,0l0,-49.7l-0.8,0l0,49.7Z" class="g2_1195" />
<path d="M851.2,432l0.7,0l0,-48.1l-0.7,0l0,48.1Z" class="g2_1195" />
<path d="M70.8,383.8l781.2,0l0,-0.7l-781.2,0l0,0.7Z" class="g2_1195" />
<path d="M70.8,408.3l781.2,0l0,-0.8l-781.2,0l0,0.8Z" class="g2_1195" />
<path d="M70.8,432.8l781.2,0l0,-0.8L70.8,432l0,0.8Z" class="g2_1195" />
</svg>