<?xml version="1.0" encoding="UTF-8" standalone="no"?>
<!DOCTYPE svg PUBLIC "-//W3C//DTD SVG 1.1//EN"
"http://www.w3.org/Graphics/SVG/1.1/DTD/svg11.dtd">
<svg viewBox="0 0 935 1210" version="1.1" xmlns="http://www.w3.org/2000/svg" xmlns:xlink="http://www.w3.org/1999/xlink">
<defs>
<style type="text/css"><![CDATA[
.g1_2033{
fill: #FFFFFF;
}
.g2_2033{
fill: #E6E6E6;
}
.g3_2033{
}
]]></style>
</defs>
<path d="M68.9,1149l783.8,0l0,-21.4l-783.8,0l0,21.4Z" class="g1_2033" />
<path d="M763.1,440l88.5,0l0,-116.1l-88.5,0l0,116.1Z" class="g2_2033" />
<path d="M69.6,758.2l2.3,0l0,-625.6l-2.3,0l0,625.6Z" class="g3_2033" />
<path d="M99.7,760.5l0.8,0l0,-630.2l-0.8,0l0,630.2Z" class="g3_2033" />
<path d="M128.4,760.5l2.3,0l0,-630.2l-2.3,0l0,630.2Z" class="g3_2033" />
<path d="M228.2,150.2l0.7,0l0,-19.9l-0.7,0l0,19.9Z" class="g3_2033" />
<path d="M228.2,196.7l0.7,0l0,-30.1l-0.7,0l0,30.1Z" class="g3_2033" />
<path d="M228.2,278.5l0.7,0l0,-65.4l-0.7,0l0,65.4Z" class="g3_2033" />
<path d="M228.2,760.5l0.7,0l0,-465.6l-0.7,0l0,465.6Z" class="g3_2033" />
<path d="M316.6,150.2l0.7,0l0,-19.9l-0.7,0l0,19.9Z" class="g3_2033" />
<path d="M316.6,196.7l0.7,0l0,-30.1l-0.7,0l0,30.1Z" class="g3_2033" />
<path d="M316.6,760.5l0.7,0l0,-547.4l-0.7,0l0,547.4Z" class="g3_2033" />
<path d="M405.2,150.2l0.7,0l0,-19.9l-0.7,0l0,19.9Z" class="g3_2033" />
<path d="M405.2,196.7l0.7,0l0,-30.1l-0.7,0l0,30.1Z" class="g3_2033" />
<path d="M405.2,760.5l0.7,0l0,-547.4l-0.7,0l0,547.4Z" class="g3_2033" />
<path d="M493.6,150.2l0.8,0l0,-19.9l-0.8,0l0,19.9Z" class="g3_2033" />
<path d="M493.6,196.7l0.8,0l0,-30.1l-0.8,0l0,30.1Z" class="g3_2033" />
<path d="M493.6,760.5l0.8,0l0,-547.4l-0.8,0l0,547.4Z" class="g3_2033" />
<path d="M585.7,150.2l0.8,0l0,-19.9l-0.8,0l0,19.9Z" class="g3_2033" />
<path d="M585.7,196.7l0.8,0l0,-30.1l-0.8,0l0,30.1Z" class="g3_2033" />
<path d="M585.7,760.5l0.8,0l0,-547.4l-0.8,0l0,547.4Z" class="g3_2033" />
<path d="M674.3,150.2l0.7,0l0,-19.9l-0.7,0l0,19.9Z" class="g3_2033" />
<path d="M674.3,196.7l0.7,0l0,-30.1l-0.7,0l0,30.1Z" class="g3_2033" />
<path d="M674.3,760.5l0.7,0l0,-547.4l-0.7,0l0,547.4Z" class="g3_2033" />
<path d="M762.8,150.2l0.7,0l0,-19.9l-0.7,0l0,19.9Z" class="g3_2033" />
<path d="M762.8,196.7l0.7,0l0,-30.1l-0.7,0l0,30.1Z" class="g3_2033" />
<path d="M762.8,243.3l0.7,0l0,-30.2l-0.7,0l0,30.2Z" class="g3_2033" />
<path d="M762.8,760.5l0.7,0l0,-465.6l-0.7,0l0,465.6Z" class="g3_2033" />
<path d="M850.5,758.2l2.3,0l0,-625.6l-2.3,0l0,625.6Z" class="g3_2033" />
<path d="M69.6,132.6l783.2,0l0,-2.3l-783.2,0l0,2.3Z" class="g3_2033" />
<path d="M69.6,150.2l783.2,0l0,-2.3l-783.2,0l0,2.3Z" class="g3_2033" />
<path d="M69.6,196.7l783.2,0l0,-2.3l-783.2,0l0,2.3Z" class="g3_2033" />
<path d="M69.6,243.4l783.2,0l0,-2.3l-783.2,0l0,2.3Z" class="g3_2033" />
<path d="M69.6,278.5l783.2,0l0,-2.3l-783.2,0l0,2.3Z" class="g3_2033" />
<path d="M69.6,325.1l783.2,0l0,-2.3l-783.2,0l0,2.3Z" class="g3_2033" />
<path d="M99.7,353.3l663.8,0l0,-0.7l-663.8,0l0,0.7Z" class="g3_2033" />
<path d="M99.7,382.3l663.8,0l0,-0.7l-663.8,0l0,0.7Z" class="g3_2033" />
<path d="M99.7,411.3l663.8,0l0,-0.7l-663.8,0l0,0.7Z" class="g3_2033" />
<path d="M69.6,441.2l783.2,0l0,-2.3l-783.2,0l0,2.3Z" class="g3_2033" />
<path d="M99.7,469.4l753.1,0l0,-0.7l-753.1,0l0,0.7Z" class="g3_2033" />
<path d="M99.7,498.5l753.1,0l0,-0.8l-753.1,0l0,0.8Z" class="g3_2033" />
<path d="M99.7,527.4l753.1,0l0,-0.7l-753.1,0l0,0.7Z" class="g3_2033" />
<path d="M69.6,557.3l783.2,0l0,-2.3L69.6,555l0,2.3Z" class="g3_2033" />
<path d="M99.7,585.6l753.1,0l0,-0.8l-753.1,0l0,0.8Z" class="g3_2033" />
<path d="M99.7,614.5l753.1,0l0,-0.7l-753.1,0l0,0.7Z" class="g3_2033" />
<path d="M99.7,643.6l753.1,0l0,-0.7l-753.1,0l0,0.7Z" class="g3_2033" />
<path d="M69.6,673.5l783.2,0l0,-2.3l-783.2,0l0,2.3Z" class="g3_2033" />
<path d="M99.7,701.6l753.1,0l0,-0.7l-753.1,0l0,0.7Z" class="g3_2033" />
<path d="M99.7,730.7l753.1,0l0,-0.8l-753.1,0l0,0.8Z" class="g3_2033" />
<path d="M69.6,760.6l783.2,0l0,-2.3l-783.2,0l0,2.3Z" class="g3_2033" />
</svg>