<?xml version="1.0" encoding="UTF-8" standalone="no"?>
<!DOCTYPE svg PUBLIC "-//W3C//DTD SVG 1.1//EN"
"http://www.w3.org/Graphics/SVG/1.1/DTD/svg11.dtd">
<svg viewBox="0 0 935 1210" version="1.1" xmlns="http://www.w3.org/2000/svg" xmlns:xlink="http://www.w3.org/1999/xlink">
<defs>
<style type="text/css"><![CDATA[
.g1_1259{
fill: #FFFFFF;
}
.g2_1259{
}
]]></style>
</defs>
<path d="M68.9,1149.3l686.3,0l0,-21.2l-686.3,0l0,21.2Z" class="g1_1259" />
<path d="M771.3,1149.3l83.7,0l0,-21.2l-83.7,0l0,21.2Z" class="g1_1259" />
<path d="M69.9,282.2l0.8,0l0,-156.5l-0.8,0l0,156.5Z" class="g2_1259" />
<path d="M257.5,283.1l0.7,0l0,-158.2l-0.7,0l0,158.2Z" class="g2_1259" />
<path d="M314.8,283.1l0.7,0l0,-158.2l-0.7,0l0,158.2Z" class="g2_1259" />
<path d="M389.2,283.1l0.7,0l0,-158.2l-0.7,0l0,158.2Z" class="g2_1259" />
<path d="M456.9,283.1l0.7,0l0,-158.2l-0.7,0l0,158.2Z" class="g2_1259" />
<path d="M851.2,282.2l0.7,0l0,-156.5l-0.7,0l0,156.5Z" class="g2_1259" />
<path d="M69.9,125.7l782.1,0l0,-0.8l-782.1,0l0,0.8Z" class="g2_1259" />
<path d="M69.9,179.1l782.1,0l0,-0.7l-782.1,0l0,0.7Z" class="g2_1259" />
<path d="M69.9,283L852,283l0,-0.8l-782.1,0l0,0.8Z" class="g2_1259" />
<path d="M70.7,386.2l0.7,0l0,-48.1l-0.7,0l0,48.1Z" class="g2_1259" />
<path d="M171.4,386.9l0.8,0l0,-49.7l-0.8,0l0,49.7Z" class="g2_1259" />
<path d="M387.4,386.9l0.7,0l0,-49.7l-0.7,0l0,49.7Z" class="g2_1259" />
<path d="M619.7,386.9l0.7,0l0,-49.7l-0.7,0l0,49.7Z" class="g2_1259" />
<path d="M851.3,386.2l0.7,0l0,-48.1l-0.7,0l0,48.1Z" class="g2_1259" />
<path d="M70.7,338L852,338l0,-0.8l-781.3,0l0,0.8Z" class="g2_1259" />
<path d="M70.7,362.4l781.3,0l0,-0.7l-781.3,0l0,0.7Z" class="g2_1259" />
<path d="M70.7,386.9l781.3,0l0,-0.7l-781.3,0l0,0.7Z" class="g2_1259" />
</svg>