<?xml version="1.0" encoding="UTF-8" standalone="no"?>
<!DOCTYPE svg PUBLIC "-//W3C//DTD SVG 1.1//EN"
"http://www.w3.org/Graphics/SVG/1.1/DTD/svg11.dtd">
<svg viewBox="0 0 935 1210" version="1.1" xmlns="http://www.w3.org/2000/svg" xmlns:xlink="http://www.w3.org/1999/xlink">
<defs>
<style type="text/css"><![CDATA[
.g1_1822{
fill: #FFFFFF;
}
.g2_1822{
}
]]></style>
</defs>
<path d="M165,1149.3l687.5,0l0,-21.2l-687.5,0l0,21.2Z" class="g1_1822" />
<path d="M68.8,1149.3l82.5,0l0,-21.2l-82.5,0l0,21.2Z" class="g1_1822" />
<path d="M68.6,1018.7l0.7,0l0,-893l-0.7,0l0,893Z" class="g2_1822" />
<path d="M282.8,1019.4l0.7,0l0,-894.5l-0.7,0l0,894.5Z" class="g2_1822" />
<path d="M328.7,1019.4l0.8,0l0,-894.5l-0.8,0l0,894.5Z" class="g2_1822" />
<path d="M402.1,1019.4l0.7,0l0,-894.5l-0.7,0l0,894.5Z" class="g2_1822" />
<path d="M491.8,1019.4l0.7,0l0,-894.5l-0.7,0l0,894.5Z" class="g2_1822" />
<path d="M853,1018.7l0.8,0l0,-893l-0.8,0l0,893Z" class="g2_1822" />
<path d="M68.6,125.7l785.2,0l0,-0.8l-785.2,0l0,0.8Z" class="g2_1822" />
<path d="M68.6,176.1l785.2,0l0,-0.7l-785.2,0l0,0.7Z" class="g2_1822" />
<path d="M68.6,246.3l785.2,0l0,-0.7l-785.2,0l0,0.7Z" class="g2_1822" />
<path d="M68.6,316.6l785.2,0l0,-0.7l-785.2,0l0,0.7Z" class="g2_1822" />
<path d="M68.6,386.9l785.2,0l0,-0.7l-785.2,0l0,0.7Z" class="g2_1822" />
<path d="M68.6,457.2l785.2,0l0,-0.7l-785.2,0l0,0.7Z" class="g2_1822" />
<path d="M68.6,527.4l785.2,0l0,-0.7l-785.2,0l0,0.7Z" class="g2_1822" />
<path d="M68.6,597.8l785.2,0l0,-0.8L68.6,597l0,0.8Z" class="g2_1822" />
<path d="M68.6,668.1l785.2,0l0,-0.8l-785.2,0l0,0.8Z" class="g2_1822" />
<path d="M68.6,738.3l785.2,0l0,-0.8l-785.2,0l0,0.8Z" class="g2_1822" />
<path d="M68.6,808.6l785.2,0l0,-0.7l-785.2,0l0,0.7Z" class="g2_1822" />
<path d="M68.6,878.9l785.2,0l0,-0.7l-785.2,0l0,0.7Z" class="g2_1822" />
<path d="M68.6,949.1l785.2,0l0,-0.7l-785.2,0l0,0.7Z" class="g2_1822" />
<path d="M68.6,1019.4l785.2,0l0,-0.7l-785.2,0l0,0.7Z" class="g2_1822" />
</svg>