<?xml version="1.0" encoding="UTF-8" standalone="no"?>
<!DOCTYPE svg PUBLIC "-//W3C//DTD SVG 1.1//EN"
"http://www.w3.org/Graphics/SVG/1.1/DTD/svg11.dtd">
<svg viewBox="0 0 935 1210" version="1.1" xmlns="http://www.w3.org/2000/svg" xmlns:xlink="http://www.w3.org/1999/xlink">
<defs>
<style type="text/css"><![CDATA[
.g1_2056{
fill: #FFFFFF;
}
.g2_2056{
}
]]></style>
</defs>
<path d="M68.8,1149.3l783.7,0l0,-21.2l-783.7,0l0,21.2Z" class="g1_2056" />
<path d="M68.6,470.2l0.7,0l0,-236.1l-0.7,0l0,236.1Z" class="g2_2056" />
<path d="M210.6,471l0.7,0l0,-237.6l-0.7,0l0,237.6Z" class="g2_2056" />
<path d="M423.2,471l0.8,0l0,-237.6l-0.8,0l0,237.6Z" class="g2_2056" />
<path d="M637.2,471l0.7,0l0,-237.6l-0.7,0l0,237.6Z" class="g2_2056" />
<path d="M850.1,470.2l0.7,0l0,-236.1l-0.7,0l0,236.1Z" class="g2_2056" />
<path d="M68.6,234.1l782.2,0l0,-0.7l-782.2,0l0,0.7Z" class="g2_2056" />
<path d="M68.6,275.4l782.2,0l0,-0.8l-782.2,0l0,0.8Z" class="g2_2056" />
<path d="M68.6,471l782.2,0l0,-0.8l-782.2,0l0,0.8Z" class="g2_2056" />
<path d="M68.6,803.3l0.7,0l0,-285l-0.7,0l0,285Z" class="g2_2056" />
<path d="M150.2,804l0.8,0l0,-245.2l-0.8,0l0,245.2Z" class="g2_2056" />
<path d="M301.7,804l0.7,0l0,-220.7l-0.7,0l0,220.7Z" class="g2_2056" />
<path d="M453.2,803.3l0.7,0l0,-285l-0.7,0l0,285Z" class="g2_2056" />
<path d="M487.3,803.3l0.7,0l0,-285l-0.7,0l0,285Z" class="g2_2056" />
<path d="M557.1,804l0.8,0l0,-245.2l-0.8,0l0,245.2Z" class="g2_2056" />
<path d="M708.6,804l0.7,0l0,-220.7l-0.7,0l0,220.7Z" class="g2_2056" />
<path d="M851,803.3l0.8,0l0,-285l-0.8,0l0,285Z" class="g2_2056" />
<path d="M68.6,518.3l385.3,0l0,-0.7l-385.3,0l0,0.7Z" class="g2_2056" />
<path d="M487.3,518.3l364.5,0l0,-0.7l-364.5,0l0,0.7Z" class="g2_2056" />
<path d="M68.6,559.5l385.3,0l0,-0.7l-385.3,0l0,0.7Z" class="g2_2056" />
<path d="M487.3,559.5l364.5,0l0,-0.7l-364.5,0l0,0.7Z" class="g2_2056" />
<path d="M68.6,584l385.3,0l0,-0.7l-385.3,0l0,0.7Z" class="g2_2056" />
<path d="M557.1,584l294.7,0l0,-0.7l-294.7,0l0,0.7Z" class="g2_2056" />
<path d="M68.6,608.5l385.3,0l0,-0.8l-385.3,0l0,0.8Z" class="g2_2056" />
<path d="M487.3,608.5l364.5,0l0,-0.8l-364.5,0l0,0.8Z" class="g2_2056" />
<path d="M68.6,804l385.3,0l0,-0.7l-385.3,0l0,0.7Z" class="g2_2056" />
<path d="M487.3,804l364.5,0l0,-0.7l-364.5,0l0,0.7Z" class="g2_2056" />
<path d="M68.6,1097.3l0.7,0l0,-89.3l-0.7,0l0,89.3Z" class="g2_2056" />
<path d="M221.8,1098.2l0.8,0l0,-91l-0.8,0l0,91Z" class="g2_2056" />
<path d="M537.1,1098.2l0.7,0l0,-91l-0.7,0l0,91Z" class="g2_2056" />
<path d="M852.3,1097.3l0.8,0l0,-89.3l-0.8,0l0,89.3Z" class="g2_2056" />
<path d="M68.6,1008l784.4,0l0,-0.8l-784.4,0l0,0.8Z" class="g2_2056" />
<path d="M68.6,1049.2l784.4,0l0,-0.7l-784.4,0l0,0.7Z" class="g2_2056" />
<path d="M68.6,1098.1l784.4,0l0,-0.8l-784.4,0l0,0.8Z" class="g2_2056" />
</svg>