<?xml version="1.0" encoding="UTF-8" standalone="no"?>
<!DOCTYPE svg PUBLIC "-//W3C//DTD SVG 1.1//EN"
"http://www.w3.org/Graphics/SVG/1.1/DTD/svg11.dtd">
<svg viewBox="0 0 935 1210" version="1.1" xmlns="http://www.w3.org/2000/svg" xmlns:xlink="http://www.w3.org/1999/xlink">
<defs>
<style type="text/css"><![CDATA[
.g1_2020{
fill: #FFFFFF;
}
.g2_2020{
}
]]></style>
</defs>
<path d="M165,1149.3l687.5,0l0,-21.2l-687.5,0l0,21.2Z" class="g1_2020" />
<path d="M68.8,1149.3l82.5,0l0,-21.2l-82.5,0l0,21.2Z" class="g1_2020" />
<path d="M68.6,207.4l0.7,0l0,-66.4l-0.7,0l0,66.4Z" class="g2_2020" />
<path d="M849.8,207.4l0.8,0l0,-66.4l-0.8,0l0,66.4Z" class="g2_2020" />
<path d="M68.6,140.9l782,0l0,-0.7l-782,0l0,0.7Z" class="g2_2020" />
<path d="M68.6,208.2l782,0l0,-0.8l-782,0l0,0.8Z" class="g2_2020" />
<path d="M70.9,780.4l0.7,0L71.6,636l-0.7,0l0,144.4Z" class="g2_2020" />
<path d="M346.2,781.1l0.8,0l0,-145.9l-0.8,0l0,145.9Z" class="g2_2020" />
<path d="M849.6,780.4l0.7,0l0,-144.4l-0.7,0l0,144.4Z" class="g2_2020" />
<path d="M70.9,636l779.4,0l0,-0.8l-779.4,0l0,0.8Z" class="g2_2020" />
<path d="M70.9,664.9l779.4,0l0,-0.7l-779.4,0l0,0.7Z" class="g2_2020" />
<path d="M70.9,781.1l779.4,0l0,-0.7l-779.4,0l0,0.7Z" class="g2_2020" />
</svg>