<?xml version="1.0" encoding="UTF-8" standalone="no"?>
<!DOCTYPE svg PUBLIC "-//W3C//DTD SVG 1.1//EN"
"http://www.w3.org/Graphics/SVG/1.1/DTD/svg11.dtd">
<svg viewBox="0 0 935 1210" version="1.1" xmlns="http://www.w3.org/2000/svg" xmlns:xlink="http://www.w3.org/1999/xlink">
<defs>
<style type="text/css"><![CDATA[
.g1_520{
fill: #FFFFFF;
}
.g2_520{
fill: #F7F7F7;
}
.g3_520{
fill: #E6E6E6;
}
.g4_520{
}
]]></style>
</defs>
<path d="M165,1149.3l687.5,0l0,-21.2l-687.5,0l0,21.2Z" class="g1_520" />
<path d="M68.8,1149.3l82.5,0l0,-21.2l-82.5,0l0,21.2Z" class="g1_520" />
<path d="M71.4,171.1l84,0l0,-24.4l-84,0l0,24.4Z" class="g2_520" />
<path d="M477.3,171.1l68.1,0l0,-24.4l-68.1,0l0,24.4Z" class="g2_520" />
<path d="M409.8,195.5l67.5,0l0,-24.4l-67.5,0l0,24.4Z" class="g2_520" />
<path d="M71.4,220l251.8,0l0,-24.5l-251.8,0l0,24.5Z" class="g2_520" />
<path d="M71.4,244.5l251.8,0l0,-24.5L71.4,220l0,24.5Z" class="g2_520" />
<path d="M71.4,268.9l251.8,0l0,-24.4l-251.8,0l0,24.4Z" class="g2_520" />
<path d="M71.4,293.3l251.8,0l0,-24.4l-251.8,0l0,24.4Z" class="g2_520" />
<path d="M71.4,317.8l251.8,0l0,-24.5l-251.8,0l0,24.5Z" class="g2_520" />
<path d="M71.4,342.2l251.8,0l0,-24.4l-251.8,0l0,24.4Z" class="g2_520" />
<path d="M71.4,366.7l251.8,0l0,-24.5l-251.8,0l0,24.5Z" class="g2_520" />
<path d="M71.4,391.1l251.8,0l0,-24.4l-251.8,0l0,24.4Z" class="g2_520" />
<path d="M71.4,806.7l706.4,0l0,-24.4l-706.4,0l0,24.4Z" class="g3_520" />
<path d="M71.4,831.1l706.4,0l0,-24.4l-706.4,0l0,24.4Z" class="g3_520" />
<path d="M71.4,855.6l706.4,0l0,-24.5l-706.4,0l0,24.5Z" class="g3_520" />
<path d="M70.3,145.6l2.3,0l0,-20.7l-2.3,0l0,20.7Z" class="g4_520" />
<path d="M71,928.6l0.8,0l0,-780.7l-0.8,0l0,780.7Z" class="g4_520" />
<path d="M155,171.5l0.7,0l0,-48.8l-0.7,0l0,48.8Z" class="g4_520" />
<path d="M238.9,196l0.7,0l0,-73.3l-0.7,0l0,73.3Z" class="g4_520" />
<path d="M322.9,147.9l0.7,0l0,-25.2l-0.7,0l0,25.2Z" class="g4_520" />
<path d="M322.9,391.5l0.7,0l0,-196.3l-0.7,0l0,196.3Z" class="g4_520" />
<path d="M409.4,196l0.7,0l0,-73.3l-0.7,0l0,73.3Z" class="g4_520" />
<path d="M476.9,196l0.8,0l0,-73.3l-0.8,0l0,73.3Z" class="g4_520" />
<path d="M545.1,171.5l0.7,0l0,-48.8l-0.7,0l0,48.8Z" class="g4_520" />
<path d="M615.6,196l0.8,0l0,-73.3l-0.8,0l0,73.3Z" class="g4_520" />
<path d="M696.6,171.5l0.7,0l0,-48.8l-0.7,0l0,48.8Z" class="g4_520" />
<path d="M777.4,147.9l0.8,0l0,-25.2l-0.8,0l0,25.2Z" class="g4_520" />
<path d="M776.7,930l2.3,0l0,-784.4l-2.3,0l0,784.4Z" class="g4_520" />
<path d="M848.6,927.8l2.2,0l0,-802.9l-2.2,0l0,802.9Z" class="g4_520" />
<path d="M70.3,124.9l780.5,0l0,-2.2l-780.5,0l0,2.2Z" class="g4_520" />
<path d="M70.3,147.9l708.6,0l0,-2.3l-708.6,0l0,2.3Z" class="g4_520" />
<path d="M776.6,147l74.2,0l0,-0.7l-74.2,0l0,0.7Z" class="g4_520" />
<path d="M71,171.5l779.9,0l0,-0.7L71,170.8l0,0.7Z" class="g4_520" />
<path d="M71,195.9l779.9,0l0,-0.7L71,195.2l0,0.7Z" class="g4_520" />
<path d="M71,220.4l779.9,0l0,-0.8L71,219.6l0,0.8Z" class="g4_520" />
<path d="M71,244.8l779.9,0l0,-0.7L71,244.1l0,0.7Z" class="g4_520" />
<path d="M71,269.2l779.9,0l0,-0.7L71,268.5l0,0.7Z" class="g4_520" />
<path d="M71,293.7l779.9,0l0,-0.7L71,293l0,0.7Z" class="g4_520" />
<path d="M71,318.2l779.9,0l0,-0.8L71,317.4l0,0.8Z" class="g4_520" />
<path d="M71,342.6l779.9,0l0,-0.8L71,341.8l0,0.8Z" class="g4_520" />
<path d="M71,367l779.9,0l0,-0.7L71,366.3l0,0.7Z" class="g4_520" />
<path d="M71,391.5l779.9,0l0,-0.7L71,390.8l0,0.7Z" class="g4_520" />
<path d="M71,416l779.9,0l0,-0.7L71,415.3l0,0.7Z" class="g4_520" />
<path d="M71,440.4l779.9,0l0,-0.8L71,439.6l0,0.8Z" class="g4_520" />
<path d="M71,464.8l779.9,0l0,-0.7L71,464.1l0,0.7Z" class="g4_520" />
<path d="M71,489.3l779.9,0l0,-0.7L71,488.6l0,0.7Z" class="g4_520" />
<path d="M71,513.7l779.9,0l0,-0.7L71,513l0,0.7Z" class="g4_520" />
<path d="M71,538.2l779.9,0l0,-0.8L71,537.4l0,0.8Z" class="g4_520" />
<path d="M71,562.7l779.9,0l0,-0.8L71,561.9l0,0.8Z" class="g4_520" />
<path d="M71,587l779.9,0l0,-0.7L71,586.3l0,0.7Z" class="g4_520" />
<path d="M71,611.5l779.9,0l0,-0.7L71,610.8l0,0.7Z" class="g4_520" />
<path d="M71,636l779.9,0l0,-0.8L71,635.2l0,0.8Z" class="g4_520" />
<path d="M71,660.4l779.9,0l0,-0.8L71,659.6l0,0.8Z" class="g4_520" />
<path d="M71,684.8l779.9,0l0,-0.7L71,684.1l0,0.7Z" class="g4_520" />
<path d="M71,709.3l779.9,0l0,-0.7L71,708.6l0,0.7Z" class="g4_520" />
<path d="M71,733.7l779.9,0l0,-0.7L71,733l0,0.7Z" class="g4_520" />
<path d="M71,758.2l779.9,0l0,-0.8L71,757.4l0,0.8Z" class="g4_520" />
<path d="M71,782.7l779.9,0l0,-0.8L71,781.9l0,0.8Z" class="g4_520" />
<path d="M71,807l779.9,0l0,-0.7L71,806.3l0,0.7Z" class="g4_520" />
<path d="M71,831.5l779.9,0l0,-0.7L71,830.8l0,0.7Z" class="g4_520" />
<path d="M71,856l779.9,0l0,-0.8L71,855.2l0,0.8Z" class="g4_520" />
<path d="M71,880.4l779.9,0l0,-0.8L71,879.6l0,0.8Z" class="g4_520" />
<path d="M71,904.8l779.9,0l0,-0.7L71,904.1l0,0.7Z" class="g4_520" />
<path d="M71,929.3l705.6,0l0,-0.7L71,928.6l0,0.7Z" class="g4_520" />
<path d="M778.9,930.1l71.9,0l0,-2.2l-71.9,0l0,2.2Z" class="g4_520" />
</svg>