<?xml version="1.0" encoding="UTF-8" standalone="no"?>
<!DOCTYPE svg PUBLIC "-//W3C//DTD SVG 1.1//EN"
"http://www.w3.org/Graphics/SVG/1.1/DTD/svg11.dtd">
<svg viewBox="0 0 935 1210" version="1.1" xmlns="http://www.w3.org/2000/svg" xmlns:xlink="http://www.w3.org/1999/xlink">
<defs>
<style type="text/css"><![CDATA[
.g1_2119{
fill: #FFFFFF;
}
.g2_2119{
}
]]></style>
</defs>
<path d="M68.9,1149.3l783.8,0l0,-21.2l-783.8,0l0,21.2Z" class="g1_2119" />
<path d="M69.9,1084.4l0.8,0l0,-960.3l-0.8,0l0,960.3Z" class="g2_2119" />
<path d="M447.1,1085.2l0.7,0l0,-961.8l-0.7,0l0,961.8Z" class="g2_2119" />
<path d="M851.3,1084.4l0.7,0l0,-960.3l-0.7,0l0,960.3Z" class="g2_2119" />
<path d="M69.9,124.1l782.1,0l0,-0.7l-782.1,0l0,0.7Z" class="g2_2119" />
<path d="M69.9,148.6l782.1,0l0,-0.7l-782.1,0l0,0.7Z" class="g2_2119" />
<path d="M69.9,189.8l782.1,0l0,-0.7l-782.1,0l0,0.7Z" class="g2_2119" />
<path d="M69.9,214.2l782.1,0l0,-0.7l-782.1,0l0,0.7Z" class="g2_2119" />
<path d="M69.9,238.7l782.1,0l0,-0.7L69.9,238l0,0.7Z" class="g2_2119" />
<path d="M69.9,279.9l782.1,0l0,-0.7l-782.1,0l0,0.7Z" class="g2_2119" />
<path d="M69.9,304.4l782.1,0l0,-0.7l-782.1,0l0,0.7Z" class="g2_2119" />
<path d="M69.9,328.8l782.1,0l0,-0.7l-782.1,0l0,0.7Z" class="g2_2119" />
<path d="M69.9,370.1l782.1,0l0,-0.8l-782.1,0l0,0.8Z" class="g2_2119" />
<path d="M69.9,411.4l782.1,0l0,-0.7l-782.1,0l0,0.7Z" class="g2_2119" />
<path d="M69.9,435.8l782.1,0l0,-0.8L69.9,435l0,0.8Z" class="g2_2119" />
<path d="M69.9,477L852,477l0,-0.7l-782.1,0l0,0.7Z" class="g2_2119" />
<path d="M69.9,518.3l782.1,0l0,-0.7l-782.1,0l0,0.7Z" class="g2_2119" />
<path d="M69.9,542.8l782.1,0l0,-0.8L69.9,542l0,0.8Z" class="g2_2119" />
<path d="M69.9,584L852,584l0,-0.7l-782.1,0l0,0.7Z" class="g2_2119" />
<path d="M69.9,625.3l782.1,0l0,-0.8l-782.1,0l0,0.8Z" class="g2_2119" />
<path d="M69.9,649.7l782.1,0l0,-0.7L69.9,649l0,0.7Z" class="g2_2119" />
<path d="M69.9,691L852,691l0,-0.7l-782.1,0l0,0.7Z" class="g2_2119" />
<path d="M69.9,732.2l782.1,0l0,-0.7l-782.1,0l0,0.7Z" class="g2_2119" />
<path d="M69.9,773.5l782.1,0l0,-0.8l-782.1,0l0,0.8Z" class="g2_2119" />
<path d="M69.9,797.9l782.1,0l0,-0.8l-782.1,0l0,0.8Z" class="g2_2119" />
<path d="M69.9,822.3l782.1,0l0,-0.7l-782.1,0l0,0.7Z" class="g2_2119" />
<path d="M69.9,863.6l782.1,0l0,-0.7l-782.1,0l0,0.7Z" class="g2_2119" />
<path d="M69.9,904.8l782.1,0l0,-0.7l-782.1,0l0,0.7Z" class="g2_2119" />
<path d="M69.9,929.3l782.1,0l0,-0.7l-782.1,0l0,0.7Z" class="g2_2119" />
<path d="M69.9,970.6l782.1,0l0,-0.8l-782.1,0l0,0.8Z" class="g2_2119" />
<path d="M69.9,995L852,995l0,-0.8l-782.1,0l0,0.8Z" class="g2_2119" />
<path d="M69.9,1019.4l782.1,0l0,-0.7l-782.1,0l0,0.7Z" class="g2_2119" />
<path d="M69.9,1060.7l782.1,0l0,-0.8l-782.1,0l0,0.8Z" class="g2_2119" />
<path d="M69.9,1085.2l782.1,0l0,-0.8l-782.1,0l0,0.8Z" class="g2_2119" />
</svg>