<?xml version="1.0" encoding="UTF-8" standalone="no"?>
<!DOCTYPE svg PUBLIC "-//W3C//DTD SVG 1.1//EN"
"http://www.w3.org/Graphics/SVG/1.1/DTD/svg11.dtd">
<svg viewBox="0 0 935 1210" version="1.1" xmlns="http://www.w3.org/2000/svg" xmlns:xlink="http://www.w3.org/1999/xlink">
<defs>
<style type="text/css"><![CDATA[
.g1_183{
fill: #FFFFFF;
}
.g2_183{
}
]]></style>
</defs>
<path d="M68.9,1149.3l686.3,0l0,-21.2l-686.3,0l0,21.2Z" class="g1_183" />
<path d="M771.3,1149.3l83.7,0l0,-21.2l-83.7,0l0,21.2Z" class="g1_183" />
<path d="M70.9,364.7l0.8,0l0,-239l-0.8,0l0,239Z" class="g2_183" />
<path d="M390.2,365.6l0.8,0l0,-240.7l-0.8,0l0,240.7Z" class="g2_183" />
<path d="M429.2,365.6l0.7,0l0,-240.7l-0.7,0l0,240.7Z" class="g2_183" />
<path d="M502.5,365.6l0.7,0l0,-240.7l-0.7,0l0,240.7Z" class="g2_183" />
<path d="M573.9,365.6l0.8,0l0,-240.7l-0.8,0l0,240.7Z" class="g2_183" />
<path d="M851,364.7l0.8,0l0,-239l-0.8,0l0,239Z" class="g2_183" />
<path d="M70.9,125.7l781,0l0,-0.8l-781,0l0,0.8Z" class="g2_183" />
<path d="M70.9,179.1l781,0l0,-0.7l-781,0l0,0.7Z" class="g2_183" />
<path d="M70.9,252.4l781,0l0,-0.7l-781,0l0,0.7Z" class="g2_183" />
<path d="M70.9,309l781,0l0,-0.7l-781,0l0,0.7Z" class="g2_183" />
<path d="M70.9,365.5l781,0l0,-0.8l-781,0l0,0.8Z" class="g2_183" />
<path d="M71.6,493.1l0.7,0l0,-72.5l-0.7,0l0,72.5Z" class="g2_183" />
<path d="M136.3,493.9l0.7,0l0,-74.2l-0.7,0l0,74.2Z" class="g2_183" />
<path d="M311,493.9l0.8,0l0,-74.2l-0.8,0l0,74.2Z" class="g2_183" />
<path d="M492.7,493.9l0.7,0l0,-74.2l-0.7,0l0,74.2Z" class="g2_183" />
<path d="M668.9,493.9l0.7,0l0,-74.2l-0.7,0l0,74.2Z" class="g2_183" />
<path d="M850.4,493.1l0.7,0l0,-72.5l-0.7,0l0,72.5Z" class="g2_183" />
<path d="M71.6,420.6l779.5,0l0,-0.8l-779.5,0l0,0.8Z" class="g2_183" />
<path d="M71.6,444.9l779.5,0l0,-0.7l-779.5,0l0,0.7Z" class="g2_183" />
<path d="M71.6,469.4l779.5,0l0,-0.7l-779.5,0l0,0.7Z" class="g2_183" />
<path d="M71.6,493.9l779.5,0l0,-0.7l-779.5,0l0,0.7Z" class="g2_183" />
</svg>