<?xml version="1.0" encoding="UTF-8" standalone="no"?>
<!DOCTYPE svg PUBLIC "-//W3C//DTD SVG 1.1//EN"
"http://www.w3.org/Graphics/SVG/1.1/DTD/svg11.dtd">
<svg viewBox="0 0 935 1210" version="1.1" xmlns="http://www.w3.org/2000/svg" xmlns:xlink="http://www.w3.org/1999/xlink">
<defs>
<style type="text/css"><![CDATA[
.g1_1143{
fill: #FFFFFF;
}
.g2_1143{
}
]]></style>
</defs>
<path d="M68.9,1149.3l686.3,0l0,-21.2l-686.3,0l0,21.2Z" class="g1_1143" />
<path d="M771.3,1149.3l83.7,0l0,-21.2l-83.7,0l0,21.2Z" class="g1_1143" />
<path d="M69.8,1092l0.7,0l0,-966.3l-0.7,0l0,966.3Z" class="g2_1143" />
<path d="M384.5,1092.8l0.7,0l0,-967.9l-0.7,0l0,967.9Z" class="g2_1143" />
<path d="M422.3,1092.8l0.7,0l0,-967.9l-0.7,0l0,967.9Z" class="g2_1143" />
<path d="M495.6,1092.8l0.8,0l0,-967.9l-0.8,0l0,967.9Z" class="g2_1143" />
<path d="M575.1,1092.8l0.8,0l0,-967.9l-0.8,0l0,967.9Z" class="g2_1143" />
<path d="M852.2,1092l0.8,0l0,-966.3l-0.8,0l0,966.3Z" class="g2_1143" />
<path d="M69.8,125.7l783.2,0l0,-0.8l-783.2,0l0,0.8Z" class="g2_1143" />
<path d="M69.8,179.1l783.2,0l0,-0.7l-783.2,0l0,0.7Z" class="g2_1143" />
<path d="M69.8,223.4l783.2,0l0,-0.7l-783.2,0l0,0.7Z" class="g2_1143" />
<path d="M69.8,267.8l783.2,0l0,-0.8L69.8,267l0,0.8Z" class="g2_1143" />
<path d="M69.8,312L853,312l0,-0.7l-783.2,0l0,0.7Z" class="g2_1143" />
<path d="M69.8,356.3l783.2,0l0,-0.7l-783.2,0l0,0.7Z" class="g2_1143" />
<path d="M69.8,400.7l783.2,0l0,-0.8l-783.2,0l0,0.8Z" class="g2_1143" />
<path d="M69.8,457.2l783.2,0l0,-0.7l-783.2,0l0,0.7Z" class="g2_1143" />
<path d="M69.8,501.5l783.2,0l0,-0.7l-783.2,0l0,0.7Z" class="g2_1143" />
<path d="M69.8,545.8l783.2,0l0,-0.7l-783.2,0l0,0.7Z" class="g2_1143" />
<path d="M69.8,590.2l783.2,0l0,-0.8l-783.2,0l0,0.8Z" class="g2_1143" />
<path d="M69.8,634.4l783.2,0l0,-0.7l-783.2,0l0,0.7Z" class="g2_1143" />
<path d="M69.8,674.1l783.2,0l0,-0.7l-783.2,0l0,0.7Z" class="g2_1143" />
<path d="M69.8,713.9l783.2,0l0,-0.7l-783.2,0l0,0.7Z" class="g2_1143" />
<path d="M69.8,753.6l783.2,0l0,-0.7l-783.2,0l0,0.7Z" class="g2_1143" />
<path d="M69.8,793.3l783.2,0l0,-0.7l-783.2,0l0,0.7Z" class="g2_1143" />
<path d="M69.8,833.1l783.2,0l0,-0.8l-783.2,0l0,0.8Z" class="g2_1143" />
<path d="M69.8,906.4l783.2,0l0,-0.7l-783.2,0l0,0.7Z" class="g2_1143" />
<path d="M69.8,962.9l783.2,0l0,-0.8l-783.2,0l0,0.8Z" class="g2_1143" />
<path d="M69.8,1019.4l783.2,0l0,-0.7l-783.2,0l0,0.7Z" class="g2_1143" />
<path d="M69.8,1092.8l783.2,0l0,-0.8l-783.2,0l0,0.8Z" class="g2_1143" />
</svg>