<?xml version="1.0" encoding="UTF-8" standalone="no"?>
<!DOCTYPE svg PUBLIC "-//W3C//DTD SVG 1.1//EN"
"http://www.w3.org/Graphics/SVG/1.1/DTD/svg11.dtd">
<svg viewBox="0 0 935 1210" version="1.1" xmlns="http://www.w3.org/2000/svg" xmlns:xlink="http://www.w3.org/1999/xlink">
<defs>
<style type="text/css"><![CDATA[
.g1_2057{
fill: #FFFFFF;
}
.g2_2057{
}
]]></style>
</defs>
<path d="M68.9,1149.3l783.8,0l0,-21.2l-783.8,0l0,21.2Z" class="g1_2057" />
<path d="M69.9,299.1l0.8,0l0,-89.4l-0.8,0l0,89.4Z" class="g2_2057" />
<path d="M157.7,299.8l0.7,0l0,-90.9l-0.7,0l0,90.9Z" class="g2_2057" />
<path d="M566.6,299.8l0.7,0l0,-90.9l-0.7,0l0,90.9Z" class="g2_2057" />
<path d="M853.7,299.1l0.7,0l0,-89.4l-0.7,0l0,89.4Z" class="g2_2057" />
<path d="M69.9,209.6l784.5,0l0,-0.7l-784.5,0l0,0.7Z" class="g2_2057" />
<path d="M69.9,250.9l784.5,0l0,-0.7l-784.5,0l0,0.7Z" class="g2_2057" />
<path d="M69.9,299.8l784.5,0l0,-0.7l-784.5,0l0,0.7Z" class="g2_2057" />
<path d="M69.9,571.8l0.8,0l0,-138.3l-0.8,0l0,138.3Z" class="g2_2057" />
<path d="M256.4,572.6l0.7,0l0,-139.8l-0.7,0l0,139.8Z" class="g2_2057" />
<path d="M441.4,571.8l0.7,0l0,-138.3l-0.7,0l0,138.3Z" class="g2_2057" />
<path d="M481.1,669.5l0.7,0l0,-236l-0.7,0l0,236Z" class="g2_2057" />
<path d="M666.1,670.4l0.8,0l0,-237.6l-0.8,0l0,237.6Z" class="g2_2057" />
<path d="M851.1,669.5l0.8,0l0,-236l-0.8,0l0,236Z" class="g2_2057" />
<path d="M69.9,433.5l372.2,0l0,-0.7l-372.2,0l0,0.7Z" class="g2_2057" />
<path d="M481.1,433.5l370.8,0l0,-0.7l-370.8,0l0,0.7Z" class="g2_2057" />
<path d="M69.9,474.7l372.2,0l0,-0.7L69.9,474l0,0.7Z" class="g2_2057" />
<path d="M481.1,474.7l370.8,0l0,-0.7l-370.8,0l0,0.7Z" class="g2_2057" />
<path d="M69.9,572.6l372.2,0l0,-0.8l-372.2,0l0,0.8Z" class="g2_2057" />
<path d="M481.1,670.4l370.8,0l0,-0.8l-370.8,0l0,0.8Z" class="g2_2057" />
<path d="M69.9,1050.8l0.8,0l0,-219.3l-0.8,0l0,219.3Z" class="g2_2057" />
<path d="M293,1051.5l0.7,0l0,-220.7l-0.7,0l0,220.7Z" class="g2_2057" />
<path d="M572.6,1051.5l0.7,0l0,-220.7l-0.7,0l0,220.7Z" class="g2_2057" />
<path d="M852.1,1050.8l0.8,0l0,-219.3l-0.8,0l0,219.3Z" class="g2_2057" />
<path d="M69.9,831.5l783,0l0,-0.7l-783,0l0,0.7Z" class="g2_2057" />
<path d="M69.9,856l783,0l0,-0.8l-783,0l0,0.8Z" class="g2_2057" />
<path d="M69.9,1051.5l783,0l0,-0.7l-783,0l0,0.7Z" class="g2_2057" />
</svg>