<?xml version="1.0" encoding="UTF-8" standalone="no"?>
<!DOCTYPE svg PUBLIC "-//W3C//DTD SVG 1.1//EN"
"http://www.w3.org/Graphics/SVG/1.1/DTD/svg11.dtd">
<svg viewBox="0 0 935 1210" version="1.1" xmlns="http://www.w3.org/2000/svg" xmlns:xlink="http://www.w3.org/1999/xlink">
<defs>
<style type="text/css"><![CDATA[
.g1_1190{
fill: #FFFFFF;
}
.g2_1190{
}
]]></style>
</defs>
<path d="M165,1149.3l687.5,0l0,-21.2l-687.5,0l0,21.2Z" class="g1_1190" />
<path d="M68.8,1149.3l82.5,0l0,-21.2l-82.5,0l0,21.2Z" class="g1_1190" />
<path d="M67.3,616.8l0.7,0l0,-485l-0.7,0l0,485Z" class="g2_1190" />
<path d="M341.4,617.7l0.7,0l0,-486.7l-0.7,0l0,486.7Z" class="g2_1190" />
<path d="M548.5,617.7l0.8,0l0,-486.7l-0.8,0l0,486.7Z" class="g2_1190" />
<path d="M701.7,617.7l0.7,0l0,-486.7l-0.7,0l0,486.7Z" class="g2_1190" />
<path d="M853,616.8l0.8,0l0,-485l-0.8,0l0,485Z" class="g2_1190" />
<path d="M67.3,131.7l786.6,0l0,-0.7L67.3,131l0,0.7Z" class="g2_1190" />
<path d="M67.3,168.4l786.6,0l0,-0.7l-786.6,0l0,0.7Z" class="g2_1190" />
<path d="M67.3,223.4l786.6,0l0,-0.7l-786.6,0l0,0.7Z" class="g2_1190" />
<path d="M67.3,278.4l786.6,0l0,-0.7l-786.6,0l0,0.7Z" class="g2_1190" />
<path d="M67.3,333.4l786.6,0l0,-0.7l-786.6,0l0,0.7Z" class="g2_1190" />
<path d="M67.3,354.8l786.6,0l0,-0.7l-786.6,0l0,0.7Z" class="g2_1190" />
<path d="M67.3,393l786.6,0l0,-0.8l-786.6,0l0,0.8Z" class="g2_1190" />
<path d="M67.3,431.2l786.6,0l0,-0.7l-786.6,0l0,0.7Z" class="g2_1190" />
<path d="M67.3,469.4l786.6,0l0,-0.7l-786.6,0l0,0.7Z" class="g2_1190" />
<path d="M67.3,524.4l786.6,0l0,-0.7l-786.6,0l0,0.7Z" class="g2_1190" />
<path d="M67.3,562.7l786.6,0l0,-0.8l-786.6,0l0,0.8Z" class="g2_1190" />
<path d="M67.3,617.7l786.6,0l0,-0.8l-786.6,0l0,0.8Z" class="g2_1190" />
</svg>