<?xml version="1.0" encoding="UTF-8" standalone="no"?>
<!DOCTYPE svg PUBLIC "-//W3C//DTD SVG 1.1//EN"
"http://www.w3.org/Graphics/SVG/1.1/DTD/svg11.dtd">
<svg viewBox="0 0 935 1210" version="1.1" xmlns="http://www.w3.org/2000/svg" xmlns:xlink="http://www.w3.org/1999/xlink">
<defs>
<style type="text/css"><![CDATA[
.g1_347{
fill: #FFFFFF;
}
.g2_347{
}
]]></style>
</defs>
<path d="M68.9,1149.3l686.3,0l0,-21.2l-686.3,0l0,21.2Z" class="g1_347" />
<path d="M771.3,1149.3l83.7,0l0,-21.2l-83.7,0l0,21.2Z" class="g1_347" />
<path d="M68.6,219.6l0.7,0l0,-93.9l-0.7,0l0,93.9Z" class="g2_347" />
<path d="M394.8,220.4l0.7,0l0,-95.5l-0.7,0l0,95.5Z" class="g2_347" />
<path d="M432.6,220.4l0.7,0l0,-95.5l-0.7,0l0,95.5Z" class="g2_347" />
<path d="M506,220.4l0.7,0l0,-95.5l-0.7,0l0,95.5Z" class="g2_347" />
<path d="M577.4,220.4l0.7,0l0,-95.5l-0.7,0l0,95.5Z" class="g2_347" />
<path d="M853.4,219.6l0.7,0l0,-93.9l-0.7,0l0,93.9Z" class="g2_347" />
<path d="M68.6,125.7l785.6,0l0,-0.8l-785.6,0l0,0.8Z" class="g2_347" />
<path d="M68.6,163.8l785.6,0l0,-0.7l-785.6,0l0,0.7Z" class="g2_347" />
<path d="M68.6,220.4l785.6,0l0,-0.8l-785.6,0l0,0.8Z" class="g2_347" />
<path d="M71,323.5l0.8,0l0,-48.1l-0.8,0l0,48.1Z" class="g2_347" />
<path d="M137.1,324.3l0.8,0l0,-49.7l-0.8,0l0,49.7Z" class="g2_347" />
<path d="M313.7,324.3l0.7,0l0,-49.7l-0.7,0l0,49.7Z" class="g2_347" />
<path d="M495.8,324.3l0.8,0l0,-49.7l-0.8,0l0,49.7Z" class="g2_347" />
<path d="M670.1,324.3l0.7,0l0,-49.7l-0.7,0l0,49.7Z" class="g2_347" />
<path d="M850.9,323.5l0.8,0l0,-48.1l-0.8,0l0,48.1Z" class="g2_347" />
<path d="M71,275.4l780.7,0l0,-0.8L71,274.6l0,0.8Z" class="g2_347" />
<path d="M71,299.8l780.7,0l0,-0.7L71,299.1l0,0.7Z" class="g2_347" />
<path d="M71,324.2l780.7,0l0,-0.7L71,323.5l0,0.7Z" class="g2_347" />
</svg>