<?xml version="1.0" encoding="UTF-8" standalone="no"?>
<!DOCTYPE svg PUBLIC "-//W3C//DTD SVG 1.1//EN"
"http://www.w3.org/Graphics/SVG/1.1/DTD/svg11.dtd">
<svg viewBox="0 0 935 1210" version="1.1" xmlns="http://www.w3.org/2000/svg" xmlns:xlink="http://www.w3.org/1999/xlink">
<defs>
<style type="text/css"><![CDATA[
.g1_1993{
fill: #FFFFFF;
}
.g2_1993{
}
]]></style>
</defs>
<path d="M68.9,1149.3l686.3,0l0,-21.2l-686.3,0l0,21.2Z" class="g1_1993" />
<path d="M771.3,1149.3l83.7,0l0,-21.2l-83.7,0l0,21.2Z" class="g1_1993" />
<path d="M70,759.9l782.7,0l0,-29.6L70,730.3l0,29.6Z" class="g1_1993" />
<path d="M71,753.2l53.5,0l0,-12.4l-53.5,0l0,12.4Z" class="g1_1993" />
<path d="M69.7,729.9l0.7,0l0,-323.1l-0.7,0l0,323.1Z" class="g2_1993" />
<path d="M274.6,730.7l0.8,0l0,-324.7l-0.8,0l0,324.7Z" class="g2_1993" />
<path d="M405.1,730.7l0.7,0l0,-324.7l-0.7,0l0,324.7Z" class="g2_1993" />
<path d="M852.3,729.9l0.8,0l0,-323.1l-0.8,0l0,323.1Z" class="g2_1993" />
<path d="M69.7,406.8l783.3,0l0,-0.7l-783.3,0l0,0.7Z" class="g2_1993" />
<path d="M69.7,435.8l783.3,0l0,-0.8L69.7,435l0,0.8Z" class="g2_1993" />
<path d="M69.7,464.8l783.3,0l0,-0.7l-783.3,0l0,0.7Z" class="g2_1993" />
<path d="M69.7,510.7l783.3,0l0,-0.8l-783.3,0l0,0.8Z" class="g2_1993" />
<path d="M69.7,539.7l783.3,0l0,-0.7L69.7,539l0,0.7Z" class="g2_1993" />
<path d="M69.7,568.7l783.3,0l0,-0.7L69.7,568l0,0.7Z" class="g2_1993" />
<path d="M69.7,614.5l783.3,0l0,-0.7l-783.3,0l0,0.7Z" class="g2_1993" />
<path d="M69.7,643.6l783.3,0l0,-0.7l-783.3,0l0,0.7Z" class="g2_1993" />
<path d="M69.7,672.7l783.3,0l0,-0.8l-783.3,0l0,0.8Z" class="g2_1993" />
<path d="M69.7,701.6l783.3,0l0,-0.7l-783.3,0l0,0.7Z" class="g2_1993" />
<path d="M69.7,730.7l783.3,0l0,-0.8l-783.3,0l0,0.8Z" class="g2_1993" />
</svg>