<?xml version="1.0" encoding="UTF-8" standalone="no"?>
<!DOCTYPE svg PUBLIC "-//W3C//DTD SVG 1.1//EN"
"http://www.w3.org/Graphics/SVG/1.1/DTD/svg11.dtd">
<svg viewBox="0 0 935 1210" version="1.1" xmlns="http://www.w3.org/2000/svg" xmlns:xlink="http://www.w3.org/1999/xlink">
<defs>
<clipPath id="c0_533"><path d="M171.7,513.2l0,-371.1l579.3,0l0,371.1Z" /></clipPath>
<style type="text/css"><![CDATA[
.g1_533{
fill: #FFFFFF;
}
.g2_533{
fill: none;
stroke: #000000;
stroke-width: 1.0999999;
stroke-linecap: butt;
stroke-linejoin: miter;
stroke-miterlimit: 3;
}
.g3_533{
fill: #CECECE;
}
.g4_533{
fill: none;
stroke: #000000;
stroke-width: 0.36666667;
stroke-linecap: butt;
stroke-linejoin: miter;
stroke-miterlimit: 3;
}
.g5_533{
}
]]></style>
</defs>
<path d="M68.9,1149.3l686.3,0l0,-21.2l-686.3,0l0,21.2Z" class="g1_533" />
<path d="M771.3,1149.3l83.7,0l0,-21.2l-83.7,0l0,21.2Z" class="g1_533" />
<g clip-path="url(#c0_533)">
<path d="M180.7,513.3l561.3,0l0,-362l-561.3,0l0,362Z" class="g1_533" />
</g>
<path d="M181.8,482.4l551.7,0l0,-330l-551.7,0l0,330Z" class="g1_533" />
<path d="M181.8,152.4l551.7,0l0,330l-551.7,0l0,-330Z" class="g2_533" />
<path d="M547.9,445.6l103.1,0l0,-72.1l-103.1,0l0,72.1Z" class="g3_533" />
<path d="M547.9,373.5l103.1,0l0,72.1l-103.1,0l0,-72.1Z" class="g4_533" />
<path d="M547.9,234.9l103.1,0l0,-41.3l-103.1,0l0,41.3Z" class="g1_533" />
<path d="M547.9,193.6l103.1,0l0,41.3l-103.1,0l0,-41.3Z" class="g4_533" />
<path d="M444.8,445.6l103.1,0l0,-72.1l-103.1,0l0,72.1Z" class="g3_533" />
<path d="M444.8,373.5l103.1,0l0,72.1l-103.1,0l0,-72.1Z" class="g4_533" />
<path d="M444.8,234.9l103.1,0l0,-41.3l-103.1,0l0,41.3Z" class="g1_533" />
<path d="M444.8,193.6l103.1,0l0,41.3l-103.1,0l0,-41.3Z" class="g4_533" />
<path d="M547.9,325.6l103.1,0l0,-41.2l-103.1,0l0,41.2Z" class="g1_533" />
<path d="M547.9,284.4l103.1,0l0,41.2l-103.1,0l0,-41.2Z" class="g4_533" />
<path d="M444.8,325.6l103.1,0l0,-41.2l-103.1,0l0,41.2Z" class="g1_533" />
<path d="M444.8,284.4l103.1,0l0,41.2l-103.1,0l0,-41.2Z" class="g4_533" />
<path d="M341.6,445.6l103.2,0l0,-72.1l-103.2,0l0,72.1Z" class="g3_533" />
<path d="M341.6,373.5l103.2,0l0,72.1l-103.2,0l0,-72.1Z" class="g4_533" />
<path d="M341.6,234.9l103.2,0l0,-41.3l-103.2,0l0,41.3Z" class="g1_533" />
<path d="M341.6,193.6l103.2,0l0,41.3l-103.2,0l0,-41.3Z" class="g4_533" />
<path d="M236.8,445.6l104.8,0l0,-72.1l-104.8,0l0,72.1Z" class="g3_533" />
<path d="M236.8,373.5l104.8,0l0,72.1l-104.8,0l0,-72.1Z" class="g4_533" />
<path d="M236.8,234.9l104.8,0l0,-41.3l-104.8,0l0,41.3Z" class="g1_533" />
<path d="M236.8,193.6l104.8,0l0,41.3l-104.8,0l0,-41.3Z" class="g4_533" />
<path d="M341.6,325.6l103.2,0l0,-41.2l-103.2,0l0,41.2Z" class="g1_533" />
<path d="M341.6,284.4l103.2,0l0,41.2l-103.2,0l0,-41.2Z" class="g4_533" />
<path d="M236.8,325.6l104.8,0l0,-41.2l-104.8,0l0,41.2Z" class="g1_533" />
<path d="M236.8,284.4l104.8,0l0,41.2l-104.8,0l0,-41.2Z" class="g4_533" />
<path d="M496.3,325.6l0,12.4l103.2,0l0,29.3" class="g4_533" />
<path fill-rule="evenodd" d="M602.6,367.3l-3.1,6.2l-3.2,-6.2l6.3,0Z" class="g5_533" />
<path d="M599.5,341.2l0,-15.6" class="g4_533" />
<path d="M290.1,325.6l0,19.3l206.2,0l0,22.4" class="g4_533" />
<path fill-rule="evenodd" d="M499.4,367.3l-3.1,6.2l-3.1,-6.2l6.2,0Z" class="g5_533" />
<path d="M393.2,344.9l0,-19.3" class="g4_533" />
<path d="M393.2,234.9l0,30.9l-167.3,0c0,-2.5,-2.1,-4.6,-4.6,-4.6c-2.5,0,-4.6,2.1,-4.6,4.6l-12.6,0l0,92.8l86,0l0,8.9" class="g4_533" />
<path fill-rule="evenodd" d="M293.2,367.5l-3.1,6.2L287,367.5l6.2,0Z" class="g5_533" />
<path d="M496.3,234.9l0,17.1" class="g4_533" />
<path d="M599.5,234.9l0,17.1l-201.7,0c0,-2.5,-2.1,-4.5,-4.6,-4.5c-2.5,0,-4.6,2,-4.6,4.5l-93.9,0c0,-2.5,-2.1,-4.5,-4.6,-4.5c-2.6,0,-4.6,2,-4.6,4.5l-64.2,0l0,99.7l171.9,0l0,15.8" class="g4_533" />
<path fill-rule="evenodd" d="M396.3,367.5l-3.1,6.2l-3.1,-6.2l6.2,0Z" class="g5_533" />
<path d="M290.1,234.9l0,30.9" class="g4_533" />
<path fill-rule="evenodd" d="M392.1,723.6l0.2,-0.2l0.2,-0.2l0.2,-0.6l0,-0.5l-0.1,-0.3l-0.4,-0.6l-0.1,-0.1l-0.6,-0.2l-0.4,-0.1l-0.8,0.3l-0.2,0.2c-1.2,1,0.1,2.9,1.4,2.5l0.6,-0.2Z" class="g5_533" />
<path d="M391.1,722.3l5.4,-3.7l1,-0.6l0.2,1l7.6,22.7l1,2.5l-2.1,-1.7L385.7,727.4l-0.8,-0.7l0.8,-0.6l0.9,0.1l18.5,15.1l-0.9,1.2l-0.3,-0.4l-7.6,-22.6l1.4,-0.5l-0.2,0.9l-5.4,3.7Z" class="g5_533" />
<path d="M385.7,726.1l5.4,-3.8l1,1.3l-5.4,3.8Z" class="g5_533" />
<path fill-rule="evenodd" d="M391.6,723l5.4,-3.8l7.6,22.7L386.2,726.7Z" class="g5_533" />
<path d="M350.7,660.8l-2.5,1.8L390,723.3l2.5,-1.8Z" class="g5_533" />
<path fill-rule="evenodd" d="M386,729.5l0.2,-0.3l0.1,-0.3c0.2,-1.5,-1.4,-2.5,-2.6,-1.4l-0.2,0.2l-0.1,0.2c-0.8,1.3,1.1,2.8,2.2,2l0.2,-0.2l0.2,-0.2Z" class="g5_533" />
<path d="M384.8,728.6l4,-5.4l0.6,-0.7l0.6,0.7L404.5,742l1.7,2.2l-2.5,-1l-22.4,-8.1l-1,-0.4l0.7,-0.8l0.8,-0.3l22.4,8.2l-0.5,1.4L403.3,743L388.8,724.2l1.2,-1l0,1l-4,5.3Z" class="g5_533" />
<path d="M381,733.9l3.8,-5.3l1.2,0.9l-3.8,5.3Z" class="g5_533" />
<path fill-rule="evenodd" d="M385.4,729l3.9,-5.3l14.6,18.8l-22.4,-8.2Z" class="g5_533" />
<path d="M293.6,660.5l-1.7,2.4L384,729.8l1.7,-2.4Z" class="g5_533" />
<path fill-rule="evenodd" d="M608.1,729l0.1,-0.2l0.2,-0.3c0.2,-1.5,-1.3,-2.5,-2.6,-1.6l-0.3,0.6c-0.5,1.4,0.8,2.7,2.2,1.9l0.1,-0.2l0.3,-0.2Z" class="g5_533" />
<path d="M606.9,728.1l4,-5.2l0.5,-0.8l0.7,0.8L628,744.1l-2.6,-1l-22,-8.6l-1.1,-0.3l0.7,-0.9l0.8,-0.2l22.2,8.6l-0.6,1.4l-0.3,-0.2L610.9,723.8l1.2,-0.9l0,0.9l-4,5.2Z" class="g5_533" />
<path d="M603,733.3l3.9,-5.2l1.2,0.9l-3.9,5.3Z" class="g5_533" />
<path fill-rule="evenodd" d="M607.5,728.6l3.9,-5.3l14.3,19.1l-22.2,-8.6Z" class="g5_533" />
<path d="M520.5,660.5l-1.9,2.3l87.3,66.5l1.8,-2.4Z" class="g5_533" />
<path fill-rule="evenodd" d="M613.8,723.6l0.2,-0.2l0.2,-0.2c0.9,-1.2,-0.6,-2.9,-1.9,-2.2l-0.2,0.1l-0.3,0.2c-1,1.1,0.1,3,1.5,2.5l0.5,-0.2Z" class="g5_533" />
<path d="M612.9,722.3l5.4,-3.7l0.9,-0.6l0.3,1l7.6,22.7l0.9,2.4l-2.1,-1.6L607.5,727.4l-0.8,-0.7l0.8,-0.6l0.9,0.1l18.4,15.1l-0.9,1.2l-0.3,-0.4L618,719.5l1.5,-0.5l-0.3,0.9l-5.4,3.7Z" class="g5_533" />
<path d="M607.5,726.1l5.4,-3.8l0.9,1.3l-5.4,3.8Z" class="g5_533" />
<path fill-rule="evenodd" d="M613.3,723l5.5,-3.8l7.6,22.7L607.9,726.7Z" class="g5_533" />
<path d="M572.5,660.8l-2.5,1.8l41.7,60.7l2.5,-1.8Z" class="g5_533" />
<path fill-rule="evenodd" d="M462.9,719.2l0.3,0l0.3,-0.1l0.5,-0.3l0.2,-0.2l0.2,-0.6l0,-0.6c-0.1,-0.5,-0.4,-1,-0.9,-1.1l-0.3,-0.1l-0.6,0c-1.5,0.3,-1.7,2.3,-0.3,2.9l0.3,0.1l0.3,0Z" class="g5_533" />
<path d="M462.9,717.7l7.5,0l-0.2,1.1l-6.5,22.8l-0.8,2.5l-0.7,-2.5l-6.6,-22.8l-0.3,-1.1l1,0l0.8,0.6l6.6,22.8l-1.5,0.5l0,-0.5l6.5,-22.8l1.5,0.5l-0.8,0.5l-6.5,0Z" class="g5_533" />
<path d="M456.3,719.3l6.6,0l0,-1.5l-6.6,0l0,1.5Z" class="g5_533" />
<path fill-rule="evenodd" d="M462.9,718.5l6.5,0l-6.5,22.8l-6.6,-22.8Z" class="g5_533" />
<path d="M461.5,717.7l3,0l0,-56.1l-3,0l0,56.1Z" class="g5_533" />
<path fill-rule="evenodd" d="M448,724.2l0.2,-0.2l0.1,-0.3l0.1,-0.3l0.1,-0.2l0,-0.6l-0.1,-0.3l-0.2,-0.2l-0.1,-0.2c-0.5,-0.3,-0.8,-0.7,-1.4,-0.4l-0.3,0.1l-0.5,0.4c-1,1.1,0.1,2.8,1.5,2.4l0.3,-0.1l0.3,-0.1Z" class="g5_533" />
<path d="M447.1,723.1l5.2,-4l0.8,-0.6l0.4,1l8.5,22.3l1,2.4l-2.2,-1.6L441.7,728.2l-0.8,-0.6l0.8,-0.6l1,0l19,14.4l-0.9,1.2l-0.3,-0.4L452,719.9l1.5,-0.4l-0.3,0.8l-5.2,4Z" class="g5_533" />
<path d="M441.7,727l5.4,-3.9l0.9,1.2l-5.3,3.9Z" class="g5_533" />
<path fill-rule="evenodd" d="M447.5,723.6l5.2,-3.9l8.6,22.3L442.2,727.6Z" class="g5_533" />
<path d="M402.2,660.7l-2.3,1.9l46,61.3l2.3,-1.8Z" class="g5_533" />
<path d="M261.8,764.8l56.7,0l0,-20.7l-56.7,0l0,20.7Z" class="g1_533" />
<path d="M261.8,744.5l57.1,0l0,-0.7l-57.1,0l0,0.7Z" class="g5_533" />
<path d="M318.2,765.1l0.7,0l0,-20.9l-0.7,0l0,20.9Z" class="g5_533" />
<path d="M261.4,765.1l57.1,0l0,-0.7l-57.1,0l0,0.7Z" class="g5_533" />
<path d="M261.4,764.8l0.8,0l0,-21l-0.8,0l0,21Z" class="g5_533" />
<path d="M375.2,764.8l56.7,0l0,-20.7l-56.7,0l0,20.7Z" class="g1_533" />
<path d="M375.2,744.5l57.1,0l0,-0.7l-57.1,0l0,0.7Z" class="g5_533" />
<path d="M431.6,765.1l0.7,0l0,-20.9l-0.7,0l0,20.9Z" class="g5_533" />
<path d="M374.8,765.1l57.1,0l0,-0.7l-57.1,0l0,0.7Z" class="g5_533" />
<path d="M374.8,764.8l0.8,0l0,-21l-0.8,0l0,21Z" class="g5_533" />
<path d="M488.7,764.8l56.7,0l0,-20.7l-56.7,0l0,20.7Z" class="g1_533" />
<path d="M488.7,744.5l57.1,0l0,-0.7l-57.1,0l0,0.7Z" class="g5_533" />
<path d="M545.1,765.1l0.7,0l0,-20.9l-0.7,0l0,20.9Z" class="g5_533" />
<path d="M488.3,765.1l57.1,0l0,-0.7l-57.1,0l0,0.7Z" class="g5_533" />
<path d="M488.3,764.8l0.7,0l0,-21l-0.7,0l0,21Z" class="g5_533" />
<path d="M602.2,764.8l56.6,0l0,-20.7l-56.6,0l0,20.7Z" class="g1_533" />
<path d="M602.2,744.5l57,0l0,-0.7l-57,0l0,0.7Z" class="g5_533" />
<path d="M658.4,765.1l0.8,0l0,-20.9l-0.8,0l0,20.9Z" class="g5_533" />
<path d="M601.8,765.1l57,0l0,-0.7l-57,0l0,0.7Z" class="g5_533" />
<path d="M601.8,764.8l0.7,0l0,-21l-0.7,0l0,21Z" class="g5_533" />
<path d="M658.8,661.6l56.7,0l0,-20.6l-56.7,0l0,20.6Z" class="g1_533" />
<path d="M658.8,641.4l57.1,0l0,-0.7l-57.1,0l0,0.7Z" class="g5_533" />
<path d="M715.2,662l0.7,0l0,-21l-0.7,0l0,21Z" class="g5_533" />
<path d="M658.4,662l57.2,0l0,-0.7l-57.2,0l0,0.7Z" class="g5_533" />
<path d="M658.4,661.6l0.8,0l0,-20.9l-0.8,0l0,20.9Z" class="g5_533" />
<path fill-rule="evenodd" d="M684.7,719.2l0.2,0l0.3,-0.1c1.4,-0.6,1.2,-2.6,-0.3,-2.9l-0.6,0c-1.4,0.3,-1.7,2.3,-0.3,2.9l0.3,0.1l0.4,0Z" class="g5_533" />
<path d="M684.7,717.7l7.5,0l-0.3,1.1l-6.5,22.8l-0.7,2.5l-0.8,-2.5l-6.6,-22.8l-0.2,-1.1l1,0l0.7,0.6l6.6,22.8l-1.5,0.5l0,-0.5l6.5,-22.8l1.5,0.5l-0.7,0.5l-6.5,0Z" class="g5_533" />
<path d="M678.1,719.3l6.6,0l0,-1.5l-6.6,0l0,1.5Z" class="g5_533" />
<path fill-rule="evenodd" d="M684.7,718.5l6.5,0l-6.5,22.8l-6.6,-22.8Z" class="g5_533" />
<path d="M683.2,717.7l3,0l0,-56.1l-3,0l0,56.1Z" class="g5_533" />
<path fill-rule="evenodd" d="M670.5,723.6l0.2,-0.2l0.2,-0.2c1,-1.2,-0.6,-2.9,-1.8,-2.2l-0.3,0.1l-0.3,0.2c-0.9,1.1,0,2.9,1.5,2.5l0.5,-0.2Z" class="g5_533" />
<path d="M669.6,722.3l5.4,-3.7l1,-0.5l0.2,0.9l7.5,22.7l1,2.5l-2.2,-1.7L664.2,727.4l-0.8,-0.7l0.8,-0.6l0.9,0.1l18.4,15.1l-1,1.2l-0.2,-0.4l-7.5,-22.6l1.4,-0.5l-0.2,0.9l-5.5,3.7Z" class="g5_533" />
<path d="M664.2,726.1l5.4,-3.8l0.9,1.3l-5.4,3.8Z" class="g5_533" />
<path fill-rule="evenodd" d="M670.1,723l5.4,-3.8l7.5,22.7L664.7,726.7Z" class="g5_533" />
<path d="M629.2,660.8l-2.5,1.8l41.7,60.7l2.5,-1.8Z" class="g5_533" />
<path d="M602.2,661.6l56.6,0l0,-20.6l-56.6,0l0,20.6Z" class="g1_533" />
<path d="M602.2,641.4l57,0l0,-0.7l-57,0l0,0.7Z" class="g5_533" />
<path d="M658.4,662l0.8,0l0,-21l-0.8,0l0,21Z" class="g5_533" />
<path d="M601.8,662l57,0l0,-0.7l-57,0l0,0.7Z" class="g5_533" />
<path d="M601.8,661.6l0.7,0l0,-20.9l-0.7,0l0,20.9Z" class="g5_533" />
<path d="M545.4,661.6l56.8,0l0,-20.6l-56.8,0l0,20.6Z" class="g1_533" />
<path d="M545.4,641.4l57.1,0l0,-0.7l-57.1,0l0,0.7Z" class="g5_533" />
<path d="M601.8,662l0.7,0l0,-21l-0.7,0l0,21Z" class="g5_533" />
<path d="M545.1,662l57.1,0l0,-0.7l-57.1,0l0,0.7Z" class="g5_533" />
<path d="M545.1,661.6l0.7,0l0,-20.9l-0.7,0l0,20.9Z" class="g5_533" />
<path d="M488.7,661.6l56.7,0l0,-20.6l-56.7,0l0,20.6Z" class="g1_533" />
<path d="M488.7,641.4l57.1,0l0,-0.7l-57.1,0l0,0.7Z" class="g5_533" />
<path d="M545.1,662l0.7,0l0,-21l-0.7,0l0,21Z" class="g5_533" />
<path d="M488.3,662l57.1,0l0,-0.7l-57.1,0l0,0.7Z" class="g5_533" />
<path d="M488.3,661.6l0.7,0l0,-20.9l-0.7,0l0,20.9Z" class="g5_533" />
<path d="M431.9,661.6l56.8,0l0,-20.6l-56.8,0l0,20.6Z" class="g1_533" />
<path d="M431.9,641.4l57.1,0l0,-0.7l-57.1,0l0,0.7Z" class="g5_533" />
<path d="M488.3,662l0.7,0l0,-21l-0.7,0l0,21Z" class="g5_533" />
<path d="M431.6,662l57.1,0l0,-0.7l-57.1,0l0,0.7Z" class="g5_533" />
<path d="M431.6,661.6l0.7,0l0,-20.9l-0.7,0l0,20.9Z" class="g5_533" />
<path d="M375.2,661.6l56.7,0l0,-20.6l-56.7,0l0,20.6Z" class="g1_533" />
<path d="M375.2,641.4l57.1,0l0,-0.7l-57.1,0l0,0.7Z" class="g5_533" />
<path d="M431.6,662l0.7,0l0,-21l-0.7,0l0,21Z" class="g5_533" />
<path d="M374.8,662l57.1,0l0,-0.7l-57.1,0l0,0.7Z" class="g5_533" />
<path d="M374.8,661.6l0.8,0l0,-20.9l-0.8,0l0,20.9Z" class="g5_533" />
<path d="M318.5,661.6l56.7,0l0,-20.6l-56.7,0l0,20.6Z" class="g1_533" />
<path d="M318.5,641.4l57.1,0l0,-0.7l-57.1,0l0,0.7Z" class="g5_533" />
<path d="M374.8,662l0.8,0l0,-21l-0.8,0l0,21Z" class="g5_533" />
<path d="M318.2,662l57,0l0,-0.7l-57,0l0,0.7Z" class="g5_533" />
<path d="M318.2,661.6l0.7,0l0,-20.9l-0.7,0l0,20.9Z" class="g5_533" />
<path d="M261.8,661.6l56.7,0l0,-20.6l-56.7,0l0,20.6Z" class="g1_533" />
<path d="M261.8,641.4l57.1,0l0,-0.7l-57.1,0l0,0.7Z" class="g5_533" />
<path d="M318.2,662l0.7,0l0,-21l-0.7,0l0,21Z" class="g5_533" />
<path d="M261.4,662l57.1,0l0,-0.7l-57.1,0l0,0.7Z" class="g5_533" />
<path d="M261.4,661.6l0.8,0l0,-20.9l-0.8,0l0,20.9Z" class="g5_533" />
<path d="M658.8,708l56.7,0l0,-20.6l-56.7,0l0,20.6Z" class="g1_533" />
<path d="M658.8,687.8l57.1,0l0,-0.8l-57.1,0l0,0.8Z" class="g5_533" />
<path d="M715.2,708.4l0.7,0l0,-21l-0.7,0l0,21Z" class="g5_533" />
<path d="M658.4,708.4l57.2,0l0,-0.7l-57.2,0l0,0.7Z" class="g5_533" />
<path d="M658.4,708l0.8,0l0,-21l-0.8,0l0,21Z" class="g5_533" />
<path d="M602.2,708l56.6,0l0,-20.6l-56.6,0l0,20.6Z" class="g1_533" />
<path d="M602.2,687.8l57,0l0,-0.8l-57,0l0,0.8Z" class="g5_533" />
<path d="M658.4,708.4l0.8,0l0,-21l-0.8,0l0,21Z" class="g5_533" />
<path d="M601.8,708.4l57,0l0,-0.7l-57,0l0,0.7Z" class="g5_533" />
<path d="M601.8,708l0.7,0l0,-21l-0.7,0l0,21Z" class="g5_533" />
<path d="M545.4,708l56.8,0l0,-20.6l-56.8,0l0,20.6Z" class="g1_533" />
<path d="M545.4,687.8l57.1,0l0,-0.8l-57.1,0l0,0.8Z" class="g5_533" />
<path d="M601.8,708.4l0.7,0l0,-21l-0.7,0l0,21Z" class="g5_533" />
<path d="M545.1,708.4l57.1,0l0,-0.7l-57.1,0l0,0.7Z" class="g5_533" />
<path d="M545.1,708l0.7,0l0,-21l-0.7,0l0,21Z" class="g5_533" />
<path d="M488.7,708l56.7,0l0,-20.6l-56.7,0l0,20.6Z" class="g1_533" />
<path d="M488.7,687.8l57.1,0l0,-0.8l-57.1,0l0,0.8Z" class="g5_533" />
<path d="M545.1,708.4l0.7,0l0,-21l-0.7,0l0,21Z" class="g5_533" />
<path d="M488.3,708.4l57.1,0l0,-0.7l-57.1,0l0,0.7Z" class="g5_533" />
<path d="M488.3,708l0.7,0l0,-21l-0.7,0l0,21Z" class="g5_533" />
<path d="M431.9,708l56.8,0l0,-20.6l-56.8,0l0,20.6Z" class="g1_533" />
<path d="M431.9,687.8l57.1,0l0,-0.8l-57.1,0l0,0.8Z" class="g5_533" />
<path d="M488.3,708.4l0.7,0l0,-21l-0.7,0l0,21Z" class="g5_533" />
<path d="M431.6,708.4l57.1,0l0,-0.7l-57.1,0l0,0.7Z" class="g5_533" />
<path d="M431.6,708l0.7,0l0,-21l-0.7,0l0,21Z" class="g5_533" />
<path d="M375.2,708l56.7,0l0,-20.6l-56.7,0l0,20.6Z" class="g1_533" />
<path d="M375.2,687.8l57.1,0l0,-0.8l-57.1,0l0,0.8Z" class="g5_533" />
<path d="M431.6,708.4l0.7,0l0,-21l-0.7,0l0,21Z" class="g5_533" />
<path d="M374.8,708.4l57.1,0l0,-0.7l-57.1,0l0,0.7Z" class="g5_533" />
<path d="M374.8,708l0.8,0l0,-21l-0.8,0l0,21Z" class="g5_533" />
<path d="M318.5,708l56.7,0l0,-20.6l-56.7,0l0,20.6Z" class="g1_533" />
<path d="M318.5,687.8l57.1,0l0,-0.8l-57.1,0l0,0.8Z" class="g5_533" />
<path d="M374.8,708.4l0.8,0l0,-21l-0.8,0l0,21Z" class="g5_533" />
<path d="M318.2,708.4l57,0l0,-0.7l-57,0l0,0.7Z" class="g5_533" />
<path d="M318.2,708l0.7,0l0,-21l-0.7,0l0,21Z" class="g5_533" />
<path d="M261.8,708l56.7,0l0,-20.6l-56.7,0l0,20.6Z" class="g1_533" />
<path d="M261.8,687.8l57.1,0l0,-0.8l-57.1,0l0,0.8Z" class="g5_533" />
<path d="M318.2,708.4l0.7,0l0,-21l-0.7,0l0,21Z" class="g5_533" />
<path d="M261.4,708.4l57.1,0l0,-0.7l-57.1,0l0,0.7Z" class="g5_533" />
<path d="M261.4,708l0.8,0l0,-21l-0.8,0l0,21Z" class="g5_533" />
<path d="M658.8,764.8l56.7,0l0,-20.7l-56.7,0l0,20.7Z" class="g1_533" />
<path d="M658.8,744.5l57.1,0l0,-0.7l-57.1,0l0,0.7Z" class="g5_533" />
<path d="M715.2,765.1l0.7,0l0,-20.9l-0.7,0l0,20.9Z" class="g5_533" />
<path d="M658.4,765.1l57.2,0l0,-0.7l-57.2,0l0,0.7Z" class="g5_533" />
<path d="M658.4,764.8l0.8,0l0,-21l-0.8,0l0,21Z" class="g5_533" />
<path d="M318.5,764.8l56.7,0l0,-20.7l-56.7,0l0,20.7Z" class="g1_533" />
<path d="M318.5,744.5l57.1,0l0,-0.7l-57.1,0l0,0.7Z" class="g5_533" />
<path d="M374.8,765.1l0.8,0l0,-20.9l-0.8,0l0,20.9Z" class="g5_533" />
<path d="M318.2,765.1l57,0l0,-0.7l-57,0l0,0.7Z" class="g5_533" />
<path d="M318.2,764.8l0.7,0l0,-21l-0.7,0l0,21Z" class="g5_533" />
<path d="M431.9,764.8l56.8,0l0,-20.7l-56.8,0l0,20.7Z" class="g1_533" />
<path d="M431.9,744.5l57.1,0l0,-0.7l-57.1,0l0,0.7Z" class="g5_533" />
<path d="M488.3,765.1l0.7,0l0,-20.9l-0.7,0l0,20.9Z" class="g5_533" />
<path d="M431.6,765.1l57.1,0l0,-0.7l-57.1,0l0,0.7Z" class="g5_533" />
<path d="M431.6,764.8l0.7,0l0,-21l-0.7,0l0,21Z" class="g5_533" />
<path d="M545.4,764.8l56.8,0l0,-20.7l-56.8,0l0,20.7Z" class="g1_533" />
<path d="M545.4,744.5l57.1,0l0,-0.7l-57.1,0l0,0.7Z" class="g5_533" />
<path d="M601.8,765.1l0.7,0l0,-20.9l-0.7,0l0,20.9Z" class="g5_533" />
<path d="M545.1,765.1l57.1,0l0,-0.7l-57.1,0l0,0.7Z" class="g5_533" />
<path d="M545.1,764.8l0.7,0l0,-21l-0.7,0l0,21Z" class="g5_533" />
<path fill-rule="evenodd" d="M287.6,719.2l0.3,0l0.3,-0.1l0.2,-0.2l0.3,-0.1l0.1,-0.2l0.2,-0.3l0,-0.3l0.1,-0.3L289,717.4l0,-0.3l-0.2,-0.3l-0.4,-0.4l-0.2,-0.1l-0.3,-0.1l-0.6,0l-0.6,0.2l-0.4,0.4l-0.2,0.6l-0.1,0.3c0.2,0.5,0.1,0.9,0.7,1.2l0.3,0.2l0.3,0.1l0.3,0Z" class="g5_533" />
<path d="M287.6,717.7l7.6,0l-0.3,1.1l-6.6,22.8l-0.7,2.5l-0.8,-2.5l-6.5,-22.8L280,717.7l1.1,0l0.7,0.6l6.5,22.8l-1.5,0.5l0,-0.5l6.6,-22.8l1.5,0.5l-0.7,0.5l-6.6,0Z" class="g5_533" />
<path d="M281.1,719.3l6.5,0l0,-1.5l-6.5,0l0,1.5Z" class="g5_533" />
<path fill-rule="evenodd" d="M287.6,718.5l6.6,0l-6.6,22.8l-6.5,-22.8Z" class="g5_533" />
<path d="M286.1,717.7l3,0l0,-9.7l-3,0l0,9.7Z" class="g5_533" />
<path fill-rule="evenodd" d="M308.6,730.8l0.4,0.4l0.8,0.3l0.9,-0.3l0.2,-0.2c0.5,-0.6,0.5,-0.4,0.5,-1.3l-0.2,-0.6l-0.3,-0.3c-1.1,-1,-2.8,-0.1,-2.5,1.4l0.1,0.3l0.1,0.3Z" class="g5_533" />
<path d="M309.8,729.9l3.6,5.6l0.5,1l-1,0.1l-22.8,6.7l-2.5,0.8l1.7,-2l15.8,-17.8l0.7,-0.8l0.6,0.9l-0.1,1l-15.8,17.7l-1.2,-1l0.4,-0.2l22.8,-6.7l0.4,1.4L312,736.4l-3.5,-5.6Z" class="g5_533" />
<path d="M306.4,724.4l3.4,5.5l-1.3,0.9L305,725.3Z" class="g5_533" />
<path fill-rule="evenodd" d="M309.2,730.3l3.6,5.6l-22.9,6.7l15.8,-17.8Z" class="g5_533" />
<path d="M345.1,709.3l-1.6,-2.5L309,728.7l1.7,2.5Z" class="g5_533" />
<path fill-rule="evenodd" d="M373.1,736.3l0.1,0.2l0.2,0.3l0.2,0.2l0.2,0.1l0.3,0.2l0.6,0l0.6,-0.2l0.3,-0.2l0.1,-0.2l0.2,-0.2l0.1,-0.3l0,-0.9L375.8,735c-0.7,-1.3,-2.6,-0.9,-2.8,0.6l0,0.3l0.1,0.4Z" class="g5_533" />
<path d="M374.6,735.7l2.1,6.2l0.1,1.1l-0.9,0l-23.8,1.1l-2.7,0l2.2,-1.5l19.7,-13.5l0.8,-0.5l0.3,0.9l-0.3,0.9l-19.6,13.5l-0.9,-1.3l0.4,-0.1l23.8,-1l0.1,1.5l-0.8,-0.5L373,736.3Z" class="g5_533" />
<path d="M372.4,729.5l2.2,6.2l-1.6,0.6L370.9,730Z" class="g5_533" />
<path fill-rule="evenodd" d="M373.8,736l2.1,6.2l-23.8,1l19.6,-13.4Z" class="g5_533" />
<path d="M458.2,709.5l-1,-2.8l-83.1,27.6l0.9,2.9Z" class="g5_533" />
<path fill-rule="evenodd" d="M370.4,730.8l0.3,0.2l0.2,0.2l0.8,0.3l0.8,-0.3l0.3,-0.2c0.5,-0.6,0.5,-0.4,0.5,-1.3l-0.2,-0.6l-0.3,-0.3c-1.1,-1,-2.8,-0.1,-2.6,1.4l0.1,0.3l0.1,0.3Z" class="g5_533" />
<path d="M371.7,729.9l3.6,5.6l0.4,1l-0.9,0.1L352,743.3l-2.6,0.8l1.8,-2l15.7,-17.8l0.8,-0.8l0.5,0.9l-0.1,1l-15.7,17.7l-1.2,-1l0.3,-0.2l22.9,-6.7l0.4,1.4l-0.9,-0.2l-3.6,-5.6Z" class="g5_533" />
<path d="M368.2,724.4l3.5,5.5l-1.4,0.9l-3.4,-5.5Z" class="g5_533" />
<path fill-rule="evenodd" d="M371.1,730.3l3.5,5.6l-22.8,6.7l15.8,-17.8Z" class="g5_533" />
<path d="M407,709.3l-1.6,-2.5l-34.5,21.9l1.6,2.5Z" class="g5_533" />
<path fill-rule="evenodd" d="M511,719.5l0.2,-0.1l0.3,-0.2l0.3,-0.1l0.2,-0.3l0.1,-0.2l0.1,-0.3l0,-0.6l-0.1,-0.2l0,-0.3l-0.2,-0.3l-0.3,-0.2l-0.2,-0.1l-0.3,-0.1l-0.6,0l-0.6,0.2l-0.2,0.1l-0.2,0.2l-0.2,0.3l-0.1,0.3l0,0.6l0.2,0.6l0.2,0.1l0.2,0.3l0.8,0.3l0.4,0Z" class="g5_533" />
<path d="M510.8,717.9l6.5,-0.9l1,0l-0.2,0.9l-3.3,23.7l-0.4,2.6l-1,-2.4L503.7,720l-0.5,-0.9l1.1,-0.2l0.8,0.5l9.7,21.7l-1.4,0.7l-0.1,-0.5l3.3,-23.6l1.5,0.2l-0.6,0.7l-6.5,0.9Z" class="g5_533" />
<path d="M504.3,718.9l6.5,-1l0.2,1.6l-6.6,1Z" class="g5_533" />
<path fill-rule="evenodd" d="M510.9,718.7l6.5,-1l-3.3,23.7l-9.8,-21.7Z" class="g5_533" />
<path d="M510.9,707.9l-3.1,0.4l1.4,9.9l3,-0.4Z" class="g5_533" />
<path fill-rule="evenodd" d="M534.9,729.9l0.2,0.1l0.2,0.2c1.2,0.9,2.8,-0.4,2.2,-1.8l-0.3,-0.6c-1.2,-0.9,-2.9,-0.1,-2.6,1.5l0.1,0.3l0.2,0.3Z" class="g5_533" />
<path d="M536.2,728.9l3.7,5.4l0.5,1l-0.9,0.2l-22.6,7.7l-2.5,0.9l1.7,-2.1l15,-18.5l0.7,-0.8l0.6,0.8l-0.1,0.9l-15,18.6l-1.2,-1l0.4,-0.2L539,734.1l0.5,1.4l-0.9,-0.2l-3.7,-5.4Z" class="g5_533" />
<path d="M532.4,723.5l3.8,5.4l-1.3,1l-3.8,-5.5Z" class="g5_533" />
<path fill-rule="evenodd" d="M535.5,729.4l3.8,5.4l-22.6,7.7L531.8,724Z" class="g5_533" />
<path d="M567,709.3l-1.8,-2.5l-29.9,20.9l1.8,2.5Z" class="g5_533" />
<path fill-rule="evenodd" d="M594.8,736.3l0.1,0.2l0.2,0.3c1,1,2.9,0.3,2.7,-1.2l-0.1,-0.3L597.6,735l-0.2,-0.3l-0.2,-0.2l-0.3,-0.1l-0.2,-0.1l-0.6,0l-0.4,0l-0.2,0.1l-0.2,0.2l-0.3,0.2l-0.1,0.3l-0.2,0.5l0,0.3l0.1,0.4Z" class="g5_533" />
<path d="M596.3,735.7l2,6.2l0.2,1.1l-0.9,0l-23.8,1.1l-2.6,0l2.2,-1.5L593,729.1l0.8,-0.5l0.4,0.9l-0.4,0.9l-19.6,13.5l-0.8,-1.3l0.3,-0.1l23.8,-1l0.1,1.5l-0.9,-0.5l-2,-6.2Z" class="g5_533" />
<path d="M594.2,729.5l2.1,6.2l-1.6,0.6L592.6,730Z" class="g5_533" />
<path fill-rule="evenodd" d="M595.6,736l2,6.2l-23.8,1l19.7,-13.4Z" class="g5_533" />
<path d="M679.9,709.5L679,706.7l-83.2,27.6l0.9,2.9Z" class="g5_533" />
<path fill-rule="evenodd" d="M591.6,729.9l0.4,0.3c1.1,1,2.8,-0.5,2.3,-1.8l-0.4,-0.6c-1.2,-0.9,-2.8,-0.1,-2.6,1.5l0.1,0.3l0.2,0.3Z" class="g5_533" />
<path d="M592.8,728.9l3.9,5.4l0.4,1l-0.9,0.2l-22.6,7.7l-2.4,0.9l1.6,-2.1l15,-18.5l0.6,-0.8l0.7,0.8l-0.1,0.9L574,743l-1.2,-1l0.4,-0.2l22.5,-7.7l0.5,1.4l-0.8,-0.2l-3.9,-5.4Z" class="g5_533" />
<path d="M589.1,723.5l3.7,5.4l-1.3,1l-3.7,-5.5Z" class="g5_533" />
<path fill-rule="evenodd" d="M592.2,729.4l3.8,5.4l-22.5,7.7L588.4,724Z" class="g5_533" />
<path d="M623.7,709.3L622,706.8l-30,20.9l1.7,2.5Z" class="g5_533" />
</svg>