<?xml version="1.0" encoding="UTF-8" standalone="no"?>
<!DOCTYPE svg PUBLIC "-//W3C//DTD SVG 1.1//EN"
"http://www.w3.org/Graphics/SVG/1.1/DTD/svg11.dtd">
<svg viewBox="0 0 935 1210" version="1.1" xmlns="http://www.w3.org/2000/svg" xmlns:xlink="http://www.w3.org/1999/xlink">
<defs>
<style type="text/css"><![CDATA[
.g1_1003{
fill: #FFFFFF;
}
.g2_1003{
}
]]></style>
</defs>
<path d="M68.9,1149.3l686.3,0l0,-21.2l-686.3,0l0,21.2Z" class="g1_1003" />
<path d="M771.3,1149.3l83.7,0l0,-21.2l-83.7,0l0,21.2Z" class="g1_1003" />
<path d="M69.9,959.1l0.8,0l0,-851.8l-0.8,0l0,851.8Z" class="g2_1003" />
<path d="M324.6,959.8l0.7,0l0,-853.2l-0.7,0l0,853.2Z" class="g2_1003" />
<path d="M373,959.8l0.7,0l0,-853.2l-0.7,0l0,853.2Z" class="g2_1003" />
<path d="M446.3,959.8l0.8,0l0,-853.2l-0.8,0l0,853.2Z" class="g2_1003" />
<path d="M534.1,959.8l0.8,0l0,-853.2l-0.8,0l0,853.2Z" class="g2_1003" />
<path d="M854.4,959.1l0.8,0l0,-851.8l-0.8,0l0,851.8Z" class="g2_1003" />
<path d="M69.9,107.3l785.4,0l0,-0.7l-785.4,0l0,0.7Z" class="g2_1003" />
<path d="M69.9,157.8l785.4,0l0,-0.8L69.9,157l0,0.8Z" class="g2_1003" />
<path d="M69.9,211.2l785.4,0l0,-0.7l-785.4,0l0,0.7Z" class="g2_1003" />
<path d="M69.9,264.6l785.4,0l0,-0.7l-785.4,0l0,0.7Z" class="g2_1003" />
<path d="M69.9,318.2l785.4,0l0,-0.8l-785.4,0l0,0.8Z" class="g2_1003" />
<path d="M69.9,371.6l785.4,0l0,-0.7l-785.4,0l0,0.7Z" class="g2_1003" />
<path d="M69.9,425.2l785.4,0l0,-0.8l-785.4,0l0,0.8Z" class="g2_1003" />
<path d="M69.9,478.6l785.4,0l0,-0.7l-785.4,0l0,0.7Z" class="g2_1003" />
<path d="M69.9,532l785.4,0l0,-0.7l-785.4,0l0,0.7Z" class="g2_1003" />
<path d="M69.9,585.6l785.4,0l0,-0.8l-785.4,0l0,0.8Z" class="g2_1003" />
<path d="M69.9,639l785.4,0l0,-0.7l-785.4,0l0,0.7Z" class="g2_1003" />
<path d="M69.9,692.4l785.4,0l0,-0.7l-785.4,0l0,0.7Z" class="g2_1003" />
<path d="M69.9,746l785.4,0l0,-0.7l-785.4,0l0,0.7Z" class="g2_1003" />
<path d="M69.9,799.4l785.4,0l0,-0.7l-785.4,0l0,0.7Z" class="g2_1003" />
<path d="M69.9,852.9l785.4,0l0,-0.8l-785.4,0l0,0.8Z" class="g2_1003" />
<path d="M69.9,906.4l785.4,0l0,-0.7l-785.4,0l0,0.7Z" class="g2_1003" />
<path d="M69.9,959.8l785.4,0l0,-0.7l-785.4,0l0,0.7Z" class="g2_1003" />
</svg>