<?xml version="1.0" encoding="UTF-8" standalone="no"?>
<!DOCTYPE svg PUBLIC "-//W3C//DTD SVG 1.1//EN"
"http://www.w3.org/Graphics/SVG/1.1/DTD/svg11.dtd">
<svg viewBox="0 0 935 1210" version="1.1" xmlns="http://www.w3.org/2000/svg" xmlns:xlink="http://www.w3.org/1999/xlink">
<defs>
<style type="text/css"><![CDATA[
.g1_1284{
fill: #FFFFFF;
}
.g2_1284{
}
]]></style>
</defs>
<path d="M165,1149.3l687.5,0l0,-21.2l-687.5,0l0,21.2Z" class="g1_1284" />
<path d="M68.8,1149.3l82.5,0l0,-21.2l-82.5,0l0,21.2Z" class="g1_1284" />
<path d="M68.6,496.2l0.7,0l0,-370.5l-0.7,0l0,370.5Z" class="g2_1284" />
<path d="M290.6,496.9l0.7,0l0,-372l-0.7,0l0,372Z" class="g2_1284" />
<path d="M334.1,496.9l0.8,0l0,-372l-0.8,0l0,372Z" class="g2_1284" />
<path d="M408.7,496.9l0.7,0l0,-372l-0.7,0l0,372Z" class="g2_1284" />
<path d="M492.5,496.9l0.8,0l0,-372l-0.8,0l0,372Z" class="g2_1284" />
<path d="M850.7,496.2l0.7,0l0,-370.5l-0.7,0l0,370.5Z" class="g2_1284" />
<path d="M68.6,125.7l782.8,0l0,-0.8l-782.8,0l0,0.8Z" class="g2_1284" />
<path d="M68.6,176.1l782.8,0l0,-0.7l-782.8,0l0,0.7Z" class="g2_1284" />
<path d="M68.6,229.5l782.8,0l0,-0.7l-782.8,0l0,0.7Z" class="g2_1284" />
<path d="M68.6,283l782.8,0l0,-0.8l-782.8,0l0,0.8Z" class="g2_1284" />
<path d="M68.6,336.5l782.8,0l0,-0.7l-782.8,0l0,0.7Z" class="g2_1284" />
<path d="M68.6,389.9l782.8,0l0,-0.7l-782.8,0l0,0.7Z" class="g2_1284" />
<path d="M68.6,443.5l782.8,0l0,-0.8l-782.8,0l0,0.8Z" class="g2_1284" />
<path d="M68.6,496.9l782.8,0l0,-0.7l-782.8,0l0,0.7Z" class="g2_1284" />
<path d="M70.4,624.5l0.7,0l0,-72.6l-0.7,0l0,72.6Z" class="g2_1284" />
<path d="M195.2,625.3l0.7,0l0,-74.1l-0.7,0l0,74.1Z" class="g2_1284" />
<path d="M360.4,625.3l0.8,0l0,-74.1l-0.8,0l0,74.1Z" class="g2_1284" />
<path d="M532,625.3l0.8,0l0,-74.1l-0.8,0l0,74.1Z" class="g2_1284" />
<path d="M689.2,625.3l0.8,0l0,-74.1l-0.8,0l0,74.1Z" class="g2_1284" />
<path d="M849.9,624.5l0.8,0l0,-72.6l-0.8,0l0,72.6Z" class="g2_1284" />
<path d="M70.4,551.9l780.3,0l0,-0.7l-780.3,0l0,0.7Z" class="g2_1284" />
<path d="M70.4,576.4l780.3,0l0,-0.7l-780.3,0l0,0.7Z" class="g2_1284" />
<path d="M70.4,600.8l780.3,0l0,-0.7l-780.3,0l0,0.7Z" class="g2_1284" />
<path d="M70.4,625.3l780.3,0l0,-0.8l-780.3,0l0,0.8Z" class="g2_1284" />
</svg>