<?xml version="1.0" encoding="UTF-8" standalone="no"?>
<!DOCTYPE svg PUBLIC "-//W3C//DTD SVG 1.1//EN"
"http://www.w3.org/Graphics/SVG/1.1/DTD/svg11.dtd">
<svg viewBox="0 0 935 1210" version="1.1" xmlns="http://www.w3.org/2000/svg" xmlns:xlink="http://www.w3.org/1999/xlink">
<defs>
<style type="text/css"><![CDATA[
.g1_1864{
fill: #FFFFFF;
}
.g2_1864{
}
]]></style>
</defs>
<path d="M165,1149.3l687.5,0l0,-21.2l-687.5,0l0,21.2Z" class="g1_1864" />
<path d="M68.8,1149.3l82.5,0l0,-21.2l-82.5,0l0,21.2Z" class="g1_1864" />
<path d="M68.6,262.4l0.7,0l0,-136.7l-0.7,0l0,136.7Z" class="g2_1864" />
<path d="M261.8,263.2l0.7,0l0,-138.3l-0.7,0l0,138.3Z" class="g2_1864" />
<path d="M306.5,263.2l0.8,0l0,-138.3l-0.8,0l0,138.3Z" class="g2_1864" />
<path d="M378.7,263.2l0.7,0l0,-138.3l-0.7,0l0,138.3Z" class="g2_1864" />
<path d="M465.8,263.2l0.7,0l0,-138.3l-0.7,0l0,138.3Z" class="g2_1864" />
<path d="M855.4,262.4l0.8,0l0,-136.7l-0.8,0l0,136.7Z" class="g2_1864" />
<path d="M68.6,125.7l787.6,0l0,-0.8l-787.6,0l0,0.8Z" class="g2_1864" />
<path d="M68.6,176.1l787.6,0l0,-0.7l-787.6,0l0,0.7Z" class="g2_1864" />
<path d="M68.6,263.2l787.6,0l0,-0.8l-787.6,0l0,0.8Z" class="g2_1864" />
<path d="M69.3,366.3l0.7,0l0,-48.1l-0.7,0l0,48.1Z" class="g2_1864" />
<path d="M201,367l0.8,0l0,-49.6l-0.8,0l0,49.6Z" class="g2_1864" />
<path d="M378.6,367l0.7,0l0,-49.6l-0.7,0l0,49.6Z" class="g2_1864" />
<path d="M550.1,367l0.7,0l0,-49.6l-0.7,0l0,49.6Z" class="g2_1864" />
<path d="M713,367l0.7,0l0,-49.6l-0.7,0l0,49.6Z" class="g2_1864" />
<path d="M851,366.3l0.8,0l0,-48.1l-0.8,0l0,48.1Z" class="g2_1864" />
<path d="M69.3,318.2l782.6,0l0,-0.8l-782.6,0l0,0.8Z" class="g2_1864" />
<path d="M69.3,342.6l782.6,0l0,-0.8l-782.6,0l0,0.8Z" class="g2_1864" />
<path d="M69.3,367l782.6,0l0,-0.7l-782.6,0l0,0.7Z" class="g2_1864" />
</svg>