<?xml version="1.0" encoding="UTF-8" standalone="no"?>
<!DOCTYPE svg PUBLIC "-//W3C//DTD SVG 1.1//EN"
"http://www.w3.org/Graphics/SVG/1.1/DTD/svg11.dtd">
<svg viewBox="0 0 935 1210" version="1.1" xmlns="http://www.w3.org/2000/svg" xmlns:xlink="http://www.w3.org/1999/xlink">
<defs>
<style type="text/css"><![CDATA[
.g1_1737{
fill: #FFFFFF;
}
.g2_1737{
}
]]></style>
</defs>
<path d="M68.9,1149.3l686.3,0l0,-21.2l-686.3,0l0,21.2Z" class="g1_1737" />
<path d="M771.3,1149.3l83.7,0l0,-21.2l-83.7,0l0,21.2Z" class="g1_1737" />
<path d="M69.9,442.7l0.8,0l0,-317l-0.8,0l0,317Z" class="g2_1737" />
<path d="M310.3,443.5l0.7,0l0,-318.6l-0.7,0l0,318.6Z" class="g2_1737" />
<path d="M379.9,443.5l0.7,0l0,-318.6l-0.7,0l0,318.6Z" class="g2_1737" />
<path d="M452,443.5l0.7,0l0,-318.6l-0.7,0l0,318.6Z" class="g2_1737" />
<path d="M536.2,443.5l0.7,0l0,-318.6l-0.7,0l0,318.6Z" class="g2_1737" />
<path d="M855,442.7l0.7,0l0,-317l-0.7,0l0,317Z" class="g2_1737" />
<path d="M69.9,125.7l785.8,0l0,-0.8l-785.8,0l0,0.8Z" class="g2_1737" />
<path d="M69.9,176.1l785.8,0l0,-0.7l-785.8,0l0,0.7Z" class="g2_1737" />
<path d="M69.9,229.5l785.8,0l0,-0.7l-785.8,0l0,0.7Z" class="g2_1737" />
<path d="M69.9,283l785.8,0l0,-0.8l-785.8,0l0,0.8Z" class="g2_1737" />
<path d="M69.9,336.5l785.8,0l0,-0.7l-785.8,0l0,0.7Z" class="g2_1737" />
<path d="M69.9,389.9l785.8,0l0,-0.7l-785.8,0l0,0.7Z" class="g2_1737" />
<path d="M69.9,443.5l785.8,0l0,-0.8l-785.8,0l0,0.8Z" class="g2_1737" />
<path d="M70.5,595.5l0.7,0l0,-97l-0.7,0l0,97Z" class="g2_1737" />
<path d="M198.6,596.2l0.7,0l0,-98.5l-0.7,0l0,98.5Z" class="g2_1737" />
<path d="M359.4,596.2l0.8,0l0,-98.5l-0.8,0l0,98.5Z" class="g2_1737" />
<path d="M527,596.2l0.7,0l0,-98.5l-0.7,0l0,98.5Z" class="g2_1737" />
<path d="M688.6,596.2l0.7,0l0,-98.5l-0.7,0l0,98.5Z" class="g2_1737" />
<path d="M851.5,595.5l0.7,0l0,-97l-0.7,0l0,97Z" class="g2_1737" />
<path d="M70.5,498.5l781.7,0l0,-0.8l-781.7,0l0,0.8Z" class="g2_1737" />
<path d="M70.5,522.9l781.7,0l0,-0.8l-781.7,0l0,0.8Z" class="g2_1737" />
<path d="M70.5,547.3l781.7,0l0,-0.7l-781.7,0l0,0.7Z" class="g2_1737" />
<path d="M70.5,571.8l781.7,0l0,-0.7l-781.7,0l0,0.7Z" class="g2_1737" />
<path d="M70.5,596.2l781.7,0l0,-0.7l-781.7,0l0,0.7Z" class="g2_1737" />
</svg>