<?xml version="1.0" encoding="UTF-8" standalone="no"?>
<!DOCTYPE svg PUBLIC "-//W3C//DTD SVG 1.1//EN"
"http://www.w3.org/Graphics/SVG/1.1/DTD/svg11.dtd">
<svg viewBox="0 0 935 1210" version="1.1" xmlns="http://www.w3.org/2000/svg" xmlns:xlink="http://www.w3.org/1999/xlink">
<defs>
<style type="text/css"><![CDATA[
.g1_361{
fill: #FFFFFF;
}
.g2_361{
}
]]></style>
</defs>
<path d="M68.9,1149.3l686.3,0l0,-21.2l-686.3,0l0,21.2Z" class="g1_361" />
<path d="M771.3,1149.3l83.7,0l0,-21.2l-83.7,0l0,21.2Z" class="g1_361" />
<path d="M70.3,425.3l783,0l0,-29.6l-783,0l0,29.6Z" class="g1_361" />
<path d="M71.2,418.6l53.6,0l0,-12.4l-53.6,0l0,12.4Z" class="g1_361" />
<path d="M69.9,395.4l0.8,0l0,-269.7l-0.8,0l0,269.7Z" class="g2_361" />
<path d="M328,396.1l0.7,0l0,-271.2l-0.7,0l0,271.2Z" class="g2_361" />
<path d="M377.3,396.1l0.7,0l0,-271.2l-0.7,0l0,271.2Z" class="g2_361" />
<path d="M451.7,396.1l0.8,0l0,-271.2l-0.8,0l0,271.2Z" class="g2_361" />
<path d="M532.6,396.1l0.7,0l0,-271.2l-0.7,0l0,271.2Z" class="g2_361" />
<path d="M853,395.4l0.7,0l0,-269.7l-0.7,0l0,269.7Z" class="g2_361" />
<path d="M69.9,125.7l783.8,0l0,-0.8l-783.8,0l0,0.8Z" class="g2_361" />
<path d="M69.9,176.1l783.8,0l0,-0.7l-783.8,0l0,0.7Z" class="g2_361" />
<path d="M69.9,212.8l783.8,0l0,-0.8L69.9,212l0,0.8Z" class="g2_361" />
<path d="M69.9,249.4l783.8,0l0,-0.7l-783.8,0l0,0.7Z" class="g2_361" />
<path d="M69.9,286.1l783.8,0l0,-0.7l-783.8,0l0,0.7Z" class="g2_361" />
<path d="M69.9,322.8l783.8,0l0,-0.8L69.9,322l0,0.8Z" class="g2_361" />
<path d="M69.9,359.4l783.8,0l0,-0.7l-783.8,0l0,0.7Z" class="g2_361" />
<path d="M69.9,396.1l783.8,0l0,-0.7l-783.8,0l0,0.7Z" class="g2_361" />
<path d="M72.3,597.6l0.8,0l0,-97l-0.8,0l0,97Z" class="g2_361" />
<path d="M176.5,598.3l0.7,0l0,-98.5l-0.7,0l0,98.5Z" class="g2_361" />
<path d="M344.7,598.3l0.7,0l0,-98.5l-0.7,0l0,98.5Z" class="g2_361" />
<path d="M508.9,598.3l0.8,0l0,-98.5l-0.8,0l0,98.5Z" class="g2_361" />
<path d="M677.6,598.3l0.7,0l0,-98.5l-0.7,0l0,98.5Z" class="g2_361" />
<path d="M849.7,597.6l0.7,0l0,-97l-0.7,0l0,97Z" class="g2_361" />
<path d="M72.3,500.5l778.1,0l0,-0.7l-778.1,0l0,0.7Z" class="g2_361" />
<path d="M72.3,525l778.1,0l0,-0.8l-778.1,0l0,0.8Z" class="g2_361" />
<path d="M72.3,549.5l778.1,0l0,-0.8l-778.1,0l0,0.8Z" class="g2_361" />
<path d="M72.3,573.8l778.1,0l0,-0.7l-778.1,0l0,0.7Z" class="g2_361" />
<path d="M72.3,598.3l778.1,0l0,-0.7l-778.1,0l0,0.7Z" class="g2_361" />
</svg>