<?xml version="1.0" encoding="UTF-8" standalone="no"?>
<!DOCTYPE svg PUBLIC "-//W3C//DTD SVG 1.1//EN"
"http://www.w3.org/Graphics/SVG/1.1/DTD/svg11.dtd">
<svg viewBox="0 0 935 1210" version="1.1" xmlns="http://www.w3.org/2000/svg" xmlns:xlink="http://www.w3.org/1999/xlink">
<defs>
<style type="text/css"><![CDATA[
.g1_405{
fill: #FFFFFF;
}
.g2_405{
}
]]></style>
</defs>
<path d="M68.9,1149.3l686.3,0l0,-21.2l-686.3,0l0,21.2Z" class="g1_405" />
<path d="M771.3,1149.3l83.7,0l0,-21.2l-83.7,0l0,21.2Z" class="g1_405" />
<path d="M70.3,186l0.7,0l0,-60.3l-0.7,0l0,60.3Z" class="g2_405" />
<path d="M221,186.8l0.7,0l0,-61.9l-0.7,0l0,61.9Z" class="g2_405" />
<path d="M391.9,186.8l0.7,0l0,-61.9l-0.7,0l0,61.9Z" class="g2_405" />
<path d="M429.7,186.8l0.8,0l0,-61.9l-0.8,0l0,61.9Z" class="g2_405" />
<path d="M503.2,186.8l0.7,0l0,-61.9l-0.7,0l0,61.9Z" class="g2_405" />
<path d="M574.5,186.8l0.7,0l0,-61.9l-0.7,0l0,61.9Z" class="g2_405" />
<path d="M851.7,186l0.7,0l0,-60.3l-0.7,0l0,60.3Z" class="g2_405" />
<path d="M70.3,125.7l782.1,0l0,-0.8l-782.1,0l0,0.8Z" class="g2_405" />
<path d="M70.3,163.8l782.1,0l0,-0.7l-782.1,0l0,0.7Z" class="g2_405" />
<path d="M70.3,186.7l782.1,0l0,-0.7L70.3,186l0,0.7Z" class="g2_405" />
<path d="M71,289.9l0.8,0l0,-48.1l-0.8,0l0,48.1Z" class="g2_405" />
<path d="M154.6,290.7l0.8,0l0,-49.7l-0.8,0l0,49.7Z" class="g2_405" />
<path d="M324.8,290.7l0.7,0l0,-49.7l-0.7,0l0,49.7Z" class="g2_405" />
<path d="M502.8,290.7l0.7,0l0,-49.7l-0.7,0l0,49.7Z" class="g2_405" />
<path d="M670.6,290.7l0.8,0l0,-49.7l-0.8,0l0,49.7Z" class="g2_405" />
<path d="M850.9,289.9l0.8,0l0,-48.1l-0.8,0l0,48.1Z" class="g2_405" />
<path d="M71,241.7l780.7,0l0,-0.7L71,241l0,0.7Z" class="g2_405" />
<path d="M71,266.2l780.7,0l0,-0.7L71,265.5l0,0.7Z" class="g2_405" />
<path d="M71,290.7l780.7,0l0,-0.8L71,289.9l0,0.8Z" class="g2_405" />
</svg>