<?xml version="1.0" encoding="UTF-8" standalone="no"?>
<!DOCTYPE svg PUBLIC "-//W3C//DTD SVG 1.1//EN"
"http://www.w3.org/Graphics/SVG/1.1/DTD/svg11.dtd">
<svg viewBox="0 0 935 1210" version="1.1" xmlns="http://www.w3.org/2000/svg" xmlns:xlink="http://www.w3.org/1999/xlink">
<defs>
<style type="text/css"><![CDATA[
.g1_1987{
fill: #FFFFFF;
}
.g2_1987{
}
]]></style>
</defs>
<path d="M68.9,1149.3l686.3,0l0,-21.2l-686.3,0l0,21.2Z" class="g1_1987" />
<path d="M771.3,1149.3l83.7,0l0,-21.2l-83.7,0l0,21.2Z" class="g1_1987" />
<path d="M69.9,207.4l0.8,0l0,-66.4l-0.8,0l0,66.4Z" class="g2_1987" />
<path d="M852.3,207.4l0.8,0l0,-66.4l-0.8,0l0,66.4Z" class="g2_1987" />
<path d="M69.9,140.9l783.2,0l0,-0.7l-783.2,0l0,0.7Z" class="g2_1987" />
<path d="M69.9,208.2l783.2,0l0,-0.8l-783.2,0l0,0.8Z" class="g2_1987" />
<path d="M71.4,942.3l0.7,0l0,-347.6l-0.7,0l0,347.6Z" class="g2_1987" />
<path d="M275.5,943.1l0.7,0l0,-349.2l-0.7,0l0,349.2Z" class="g2_1987" />
<path d="M405.4,943.1l0.7,0l0,-349.2l-0.7,0l0,349.2Z" class="g2_1987" />
<path d="M850.6,942.3l0.7,0l0,-347.6l-0.7,0l0,347.6Z" class="g2_1987" />
<path d="M71.4,594.7l779.9,0l0,-0.7L71.4,594l0,0.7Z" class="g2_1987" />
<path d="M71.4,623.7l779.9,0l0,-0.7L71.4,623l0,0.7Z" class="g2_1987" />
<path d="M71.4,652.8l779.9,0l0,-0.8L71.4,652l0,0.8Z" class="g2_1987" />
<path d="M71.4,681.8l779.9,0l0,-0.7l-779.9,0l0,0.7Z" class="g2_1987" />
<path d="M71.4,710.8l779.9,0l0,-0.8L71.4,710l0,0.8Z" class="g2_1987" />
<path d="M71.4,739.8l779.9,0l0,-0.7l-779.9,0l0,0.7Z" class="g2_1987" />
<path d="M71.4,768.9l779.9,0l0,-0.7l-779.9,0l0,0.7Z" class="g2_1987" />
<path d="M71.4,797.9l779.9,0l0,-0.8l-779.9,0l0,0.8Z" class="g2_1987" />
<path d="M71.4,826.9l779.9,0l0,-0.7l-779.9,0l0,0.7Z" class="g2_1987" />
<path d="M71.4,856l779.9,0l0,-0.8l-779.9,0l0,0.8Z" class="g2_1987" />
<path d="M71.4,885l779.9,0l0,-0.8l-779.9,0l0,0.8Z" class="g2_1987" />
<path d="M71.4,914l779.9,0l0,-0.7l-779.9,0l0,0.7Z" class="g2_1987" />
<path d="M71.4,943.1l779.9,0l0,-0.8l-779.9,0l0,0.8Z" class="g2_1987" />
</svg>