<?xml version="1.0" encoding="UTF-8" standalone="no"?>
<!DOCTYPE svg PUBLIC "-//W3C//DTD SVG 1.1//EN"
"http://www.w3.org/Graphics/SVG/1.1/DTD/svg11.dtd">
<svg viewBox="0 0 935 1210" version="1.1" xmlns="http://www.w3.org/2000/svg" xmlns:xlink="http://www.w3.org/1999/xlink">
<defs>
<style type="text/css"><![CDATA[
.g1_746{
fill: #FFFFFF;
}
.g2_746{
}
]]></style>
</defs>
<path d="M165,1149.3l687.5,0l0,-21.2l-687.5,0l0,21.2Z" class="g1_746" />
<path d="M68.8,1149.3l82.5,0l0,-21.2l-82.5,0l0,21.2Z" class="g1_746" />
<path d="M68.9,1064.9l0,-0.7Z" class="g2_746" />
<path d="M68.9,1064.9l220.4,0l0,-0.7l-220.4,0l0,0.7Z" class="g2_746" />
<path d="M68.6,395.4l0.7,0l0,-269.7l-0.7,0l0,269.7Z" class="g2_746" />
<path d="M258.1,396.1l0.8,0l0,-271.2l-0.8,0l0,271.2Z" class="g2_746" />
<path d="M302.8,396.1l0.7,0l0,-271.2l-0.7,0l0,271.2Z" class="g2_746" />
<path d="M377.3,396.1l0.7,0l0,-271.2l-0.7,0l0,271.2Z" class="g2_746" />
<path d="M476.8,396.1l0.7,0l0,-271.2l-0.7,0l0,271.2Z" class="g2_746" />
<path d="M851.2,395.4l0.7,0l0,-269.7l-0.7,0l0,269.7Z" class="g2_746" />
<path d="M68.6,125.7l783.4,0l0,-0.8l-783.4,0l0,0.8Z" class="g2_746" />
<path d="M68.6,176.1l783.4,0l0,-0.7l-783.4,0l0,0.7Z" class="g2_746" />
<path d="M68.6,212.8l783.4,0l0,-0.8L68.6,212l0,0.8Z" class="g2_746" />
<path d="M68.6,249.4l783.4,0l0,-0.7l-783.4,0l0,0.7Z" class="g2_746" />
<path d="M68.6,286.1l783.4,0l0,-0.7l-783.4,0l0,0.7Z" class="g2_746" />
<path d="M68.6,322.8l783.4,0l0,-0.8L68.6,322l0,0.8Z" class="g2_746" />
<path d="M68.6,359.4l783.4,0l0,-0.7l-783.4,0l0,0.7Z" class="g2_746" />
<path d="M68.6,396.1l783.4,0l0,-0.7l-783.4,0l0,0.7Z" class="g2_746" />
<path d="M72,523.7l0.7,0l0,-72.6l-0.7,0l0,72.6Z" class="g2_746" />
<path d="M188.7,524.4l0.7,0l0,-74l-0.7,0l0,74Z" class="g2_746" />
<path d="M355.7,524.4l0.7,0l0,-74l-0.7,0l0,74Z" class="g2_746" />
<path d="M520.4,524.4l0.7,0l0,-74l-0.7,0l0,74Z" class="g2_746" />
<path d="M681.9,524.4l0.7,0l0,-74l-0.7,0l0,74Z" class="g2_746" />
<path d="M848.5,523.7l0.7,0l0,-72.6l-0.7,0l0,72.6Z" class="g2_746" />
<path d="M72,451.1l777.2,0l0,-0.7L72,450.4l0,0.7Z" class="g2_746" />
<path d="M72,475.6l777.2,0l0,-0.8L72,474.8l0,0.8Z" class="g2_746" />
<path d="M72,499.9l777.2,0l0,-0.7L72,499.2l0,0.7Z" class="g2_746" />
<path d="M72,524.4l777.2,0l0,-0.7L72,523.7l0,0.7Z" class="g2_746" />
</svg>