<?xml version="1.0" encoding="UTF-8" standalone="no"?>
<!DOCTYPE svg PUBLIC "-//W3C//DTD SVG 1.1//EN"
"http://www.w3.org/Graphics/SVG/1.1/DTD/svg11.dtd">
<svg viewBox="0 0 935 1210" version="1.1" xmlns="http://www.w3.org/2000/svg" xmlns:xlink="http://www.w3.org/1999/xlink">
<defs>
<style type="text/css"><![CDATA[
.g1_575{
fill: #FFFFFF;
}
.g2_575{
}
.g3_575{
fill: #B3B3B3;
}
]]></style>
</defs>
<path d="M68.9,1149.3l686.3,0l0,-21.2l-686.3,0l0,21.2Z" class="g1_575" />
<path d="M771.3,1149.3l83.7,0l0,-21.2l-83.7,0l0,21.2Z" class="g1_575" />
<path d="M70.3,1031.3l0,-0.8Z" class="g2_575" />
<path d="M70.3,1031.3l220.4,0l0,-0.8l-220.4,0l0,0.8Z" class="g2_575" />
<path d="M69.9,311.3l0.8,0l0,-185.6l-0.8,0l0,185.6Z" class="g2_575" />
<path d="M362,312l0.7,0l0,-187.1l-0.7,0L362,312Z" class="g2_575" />
<path d="M404,312l0.7,0l0,-187.1l-0.7,0L404,312Z" class="g2_575" />
<path d="M463.6,312l0.7,0l0,-187.1l-0.7,0l0,187.1Z" class="g2_575" />
<path d="M531.2,312l0.7,0l0,-187.1l-0.7,0l0,187.1Z" class="g2_575" />
<path d="M852,311.3l0.8,0l0,-185.6l-0.8,0l0,185.6Z" class="g2_575" />
<path d="M69.9,125.7l782.9,0l0,-0.8l-782.9,0l0,0.8Z" class="g2_575" />
<path d="M69.9,182.1l782.9,0l0,-0.7l-782.9,0l0,0.7Z" class="g2_575" />
<path d="M69.9,255.5l782.9,0l0,-0.8l-782.9,0l0,0.8Z" class="g2_575" />
<path d="M69.9,312l782.9,0l0,-0.7l-782.9,0l0,0.7Z" class="g2_575" />
<path d="M69.9,415.2l0.7,0l0,-48.2l-0.7,0l0,48.2Z" class="g2_575" />
<path d="M144.7,416l0.8,0l0,-49.7l-0.8,0l0,49.7Z" class="g2_575" />
<path d="M318.5,416l0.7,0l0,-49.7l-0.7,0l0,49.7Z" class="g2_575" />
<path d="M495.5,416l0.7,0l0,-49.7l-0.7,0l0,49.7Z" class="g2_575" />
<path d="M671.7,416l0.8,0l0,-49.7l-0.8,0l0,49.7Z" class="g2_575" />
<path d="M852.1,415.2l0.8,0l0,-48.2l-0.8,0l0,48.2Z" class="g2_575" />
<path d="M69.9,367l783,0l0,-0.7l-783,0l0,0.7Z" class="g2_575" />
<path d="M69.9,391.5l783,0l0,-0.7l-783,0l0,0.7Z" class="g2_575" />
<path d="M69.9,416l783,0l0,-0.7l-783,0l0,0.7Z" class="g2_575" />
<path d="M171.3,999.4l0.8,0l0,-114.4l-0.8,0l0,114.4Z" class="g2_575" />
<path d="M750.7,999.4l0.7,0l0,-114.4l-0.7,0l0,114.4Z" class="g2_575" />
<path d="M171.3,885l580.1,0l0,-0.8l-580.1,0l0,0.8Z" class="g2_575" />
<path d="M171.3,1000.2l580.1,0l0,-0.8l-580.1,0l0,0.8Z" class="g2_575" />
<path d="M234.7,956.4l467.6,0l0,-27.5l-467.6,0l0,27.5Z" class="g1_575" />
<path d="M234.7,929.8l468.4,0l0,-1.6l-468.4,0l0,1.6Z" class="g2_575" />
<path d="M701.5,957.3l1.6,0l0,-28.3l-1.6,0l0,28.3Z" class="g2_575" />
<path d="M233.9,957.3l468.4,0l0,-1.6l-468.4,0l0,1.6Z" class="g2_575" />
<path d="M233.9,956.4l1.6,0l0,-28.2l-1.6,0l0,28.2Z" class="g2_575" />
<path d="M468.5,956.4l189.9,0l0,-27.5l-189.9,0l0,27.5Z" class="g3_575" />
<path d="M468.5,929.8l190.7,0l0,-1.6l-190.7,0l0,1.6Z" class="g2_575" />
<path d="M657.6,957.3l1.6,0l0,-28.3l-1.6,0l0,28.3Z" class="g2_575" />
<path d="M467.8,957.3l190.5,0l0,-1.6l-190.5,0l0,1.6Z" class="g2_575" />
<path d="M467.8,956.4l1.5,0l0,-28.2l-1.5,0l0,28.2Z" class="g2_575" />
</svg>