<?xml version="1.0" encoding="UTF-8" standalone="no"?>
<!DOCTYPE svg PUBLIC "-//W3C//DTD SVG 1.1//EN"
"http://www.w3.org/Graphics/SVG/1.1/DTD/svg11.dtd">
<svg viewBox="0 0 935 1210" version="1.1" xmlns="http://www.w3.org/2000/svg" xmlns:xlink="http://www.w3.org/1999/xlink">
<defs>
<style type="text/css"><![CDATA[
.g1_532{
fill: #FFFFFF;
}
.g2_532{
}
]]></style>
</defs>
<path d="M165,1149.3l687.5,0l0,-21.2l-687.5,0l0,21.2Z" class="g1_532" />
<path d="M68.8,1149.3l82.5,0l0,-21.2l-82.5,0l0,21.2Z" class="g1_532" />
<path d="M68.9,348l0.8,0l0,-222.3l-0.8,0l0,222.3Z" class="g2_532" />
<path d="M389.4,348.7l0.7,0l0,-223.8l-0.7,0l0,223.8Z" class="g2_532" />
<path d="M427.3,348.7l0.7,0l0,-223.8l-0.7,0l0,223.8Z" class="g2_532" />
<path d="M500.6,348.7l0.7,0l0,-223.8l-0.7,0l0,223.8Z" class="g2_532" />
<path d="M572,348.7l0.7,0l0,-223.8l-0.7,0l0,223.8Z" class="g2_532" />
<path d="M851.4,348l0.7,0l0,-222.3l-0.7,0l0,222.3Z" class="g2_532" />
<path d="M68.9,125.7l783.3,0l0,-0.8l-783.3,0l0,0.8Z" class="g2_532" />
<path d="M68.9,179.1l783.3,0l0,-0.7l-783.3,0l0,0.7Z" class="g2_532" />
<path d="M68.9,235.7l783.3,0l0,-0.8l-783.3,0l0,0.8Z" class="g2_532" />
<path d="M68.9,292.1l783.3,0l0,-0.7l-783.3,0l0,0.7Z" class="g2_532" />
<path d="M68.9,348.7l783.3,0l0,-0.7L68.9,348l0,0.7Z" class="g2_532" />
<path d="M70.2,476.3l0.8,0l0,-72.6l-0.8,0l0,72.6Z" class="g2_532" />
<path d="M148.1,477l0.8,0l0,-74l-0.8,0l0,74Z" class="g2_532" />
<path d="M321.4,477l0.7,0l0,-74l-0.7,0l0,74Z" class="g2_532" />
<path d="M502.8,477l0.7,0l0,-74l-0.7,0l0,74Z" class="g2_532" />
<path d="M672.6,477l0.7,0l0,-74l-0.7,0l0,74Z" class="g2_532" />
<path d="M850.1,476.3l0.7,0l0,-72.6l-0.7,0l0,72.6Z" class="g2_532" />
<path d="M70.2,403.7l780.7,0l0,-0.7L70.2,403l0,0.7Z" class="g2_532" />
<path d="M70.2,428.2l780.7,0l0,-0.8l-780.7,0l0,0.8Z" class="g2_532" />
<path d="M70.2,452.7l780.7,0l0,-0.8l-780.7,0l0,0.8Z" class="g2_532" />
<path d="M70.2,477l780.7,0l0,-0.7l-780.7,0l0,0.7Z" class="g2_532" />
</svg>