<?xml version="1.0" encoding="UTF-8" standalone="no"?>
<!DOCTYPE svg PUBLIC "-//W3C//DTD SVG 1.1//EN"
"http://www.w3.org/Graphics/SVG/1.1/DTD/svg11.dtd">
<svg viewBox="0 0 935 1210" version="1.1" xmlns="http://www.w3.org/2000/svg" xmlns:xlink="http://www.w3.org/1999/xlink">
<defs>
<style type="text/css"><![CDATA[
.g1_618{
fill: #FFFFFF;
}
.g2_618{
}
]]></style>
</defs>
<path d="M165,1149.3l687.5,0l0,-21.2l-687.5,0l0,21.2Z" class="g1_618" />
<path d="M68.8,1149.3l82.5,0l0,-21.2l-82.5,0l0,21.2Z" class="g1_618" />
<path d="M70.6,587.9l0.7,0l0,-439.3l-0.7,0l0,439.3Z" class="g2_618" />
<path d="M177.6,588.6l0.8,0l0,-440.7l-0.8,0l0,440.7Z" class="g2_618" />
<path d="M395.6,588.6l0.8,0l0,-416.4l-0.8,0l0,416.4Z" class="g2_618" />
<path d="M513.8,588.6l0.7,0l0,-440.7l-0.7,0l0,440.7Z" class="g2_618" />
<path d="M731.7,588.6l0.7,0l0,-416.4l-0.7,0l0,416.4Z" class="g2_618" />
<path d="M849.8,587.9l0.8,0l0,-439.3l-0.8,0l0,439.3Z" class="g2_618" />
<path d="M70.6,148.6l780,0l0,-0.7l-780,0l0,0.7Z" class="g2_618" />
<path d="M177.6,173l673,0l0,-0.8l-673,0l0,0.8Z" class="g2_618" />
<path d="M70.6,197.4l780,0l0,-0.7l-780,0l0,0.7Z" class="g2_618" />
<path d="M70.6,588.6l780,0l0,-0.7l-780,0l0,0.7Z" class="g2_618" />
</svg>