<?xml version="1.0" encoding="UTF-8" standalone="no"?>
<!DOCTYPE svg PUBLIC "-//W3C//DTD SVG 1.1//EN"
"http://www.w3.org/Graphics/SVG/1.1/DTD/svg11.dtd">
<svg viewBox="0 0 935 1210" version="1.1" xmlns="http://www.w3.org/2000/svg" xmlns:xlink="http://www.w3.org/1999/xlink">
<defs>
<style type="text/css"><![CDATA[
.g1_786{
fill: #FFFFFF;
}
.g2_786{
}
]]></style>
</defs>
<path d="M165,1149.3l687.5,0l0,-21.2l-687.5,0l0,21.2Z" class="g1_786" />
<path d="M68.8,1149.3l82.5,0l0,-21.2l-82.5,0l0,21.2Z" class="g1_786" />
<path d="M71.2,277.7l0.8,0l0,-152l-0.8,0l0,152Z" class="g2_786" />
<path d="M220.8,278.5l0.8,0l0,-153.6l-0.8,0l0,153.6Z" class="g2_786" />
<path d="M390.5,278.5l0.7,0l0,-153.6l-0.7,0l0,153.6Z" class="g2_786" />
<path d="M428.4,278.5l0.7,0l0,-153.6l-0.7,0l0,153.6Z" class="g2_786" />
<path d="M501.8,278.5l0.7,0l0,-153.6l-0.7,0l0,153.6Z" class="g2_786" />
<path d="M573.1,278.5l0.7,0l0,-153.6l-0.7,0l0,153.6Z" class="g2_786" />
<path d="M849.1,277.7l0.7,0l0,-152l-0.7,0l0,152Z" class="g2_786" />
<path d="M71.2,125.7l778.7,0l0,-0.8l-778.7,0l0,0.8Z" class="g2_786" />
<path d="M71.2,163.8l778.7,0l0,-0.7l-778.7,0l0,0.7Z" class="g2_786" />
<path d="M71.2,186.7l778.7,0l0,-0.7L71.2,186l0,0.7Z" class="g2_786" />
<path d="M71.2,209.6l778.7,0l0,-0.7l-778.7,0l0,0.7Z" class="g2_786" />
<path d="M71.2,232.6l778.7,0l0,-0.8l-778.7,0l0,0.8Z" class="g2_786" />
<path d="M71.2,255.5l778.7,0l0,-0.8l-778.7,0l0,0.8Z" class="g2_786" />
<path d="M71.2,278.4l778.7,0l0,-0.7l-778.7,0l0,0.7Z" class="g2_786" />
<path d="M70.9,424.3l0.7,0l0,-48.1l-0.7,0l0,48.1Z" class="g2_786" />
<path d="M141.3,425.2l0.7,0l0,-49.7l-0.7,0l0,49.7Z" class="g2_786" />
<path d="M309.5,425.2l0.7,0l0,-49.7l-0.7,0l0,49.7Z" class="g2_786" />
<path d="M484.3,425.2l0.7,0l0,-49.7l-0.7,0l0,49.7Z" class="g2_786" />
<path d="M660.8,425.2l0.8,0l0,-49.7l-0.8,0l0,49.7Z" class="g2_786" />
<path d="M849.6,424.3l0.7,0l0,-48.1l-0.7,0l0,48.1Z" class="g2_786" />
<path d="M70.8,376.2l779.5,0l0,-0.7l-779.5,0l0,0.7Z" class="g2_786" />
<path d="M70.8,400.7l779.5,0l0,-0.8l-779.5,0l0,0.8Z" class="g2_786" />
<path d="M70.8,425.2l779.5,0l0,-0.8l-779.5,0l0,0.8Z" class="g2_786" />
</svg>