<?xml version="1.0" encoding="UTF-8" standalone="no"?>
<!DOCTYPE svg PUBLIC "-//W3C//DTD SVG 1.1//EN"
"http://www.w3.org/Graphics/SVG/1.1/DTD/svg11.dtd">
<svg viewBox="0 0 935 1210" version="1.1" xmlns="http://www.w3.org/2000/svg" xmlns:xlink="http://www.w3.org/1999/xlink">
<defs>
<style type="text/css"><![CDATA[
.g1_2028{
fill: #FFFFFF;
}
.g2_2028{
}
]]></style>
</defs>
<path d="M68.8,1149l784.5,0l0,-21.4l-784.5,0l0,21.4Z" class="g1_2028" />
<path d="M67.5,579.4l2.3,0l0,-375.1l-2.3,0l0,375.1Z" class="g2_2028" />
<path d="M168.8,581.7l2.3,0l0,-379.7l-2.3,0l0,379.7Z" class="g2_2028" />
<path d="M850.7,579.4l2.3,0l0,-375.1l-2.3,0l0,375.1Z" class="g2_2028" />
<path d="M67.4,204.4l785.6,0l0,-2.3l-785.6,0l0,2.3Z" class="g2_2028" />
<path d="M67.4,244.1l785.6,0l0,-2.3l-785.6,0l0,2.3Z" class="g2_2028" />
<path d="M67.4,284.5l785.6,0l0,-0.7l-785.6,0l0,0.7Z" class="g2_2028" />
<path d="M67.4,325.8l785.6,0l0,-0.7l-785.6,0l0,0.7Z" class="g2_2028" />
<path d="M67.4,384.6l785.6,0l0,-2.3l-785.6,0l0,2.3Z" class="g2_2028" />
<path d="M67.4,426L853,426l0,-2.3l-785.6,0l0,2.3Z" class="g2_2028" />
<path d="M67.4,450.4l785.6,0l0,-2.3l-785.6,0l0,2.3Z" class="g2_2028" />
<path d="M67.4,474.8l785.6,0l0,-2.3l-785.6,0l0,2.3Z" class="g2_2028" />
<path d="M67.4,516.1l785.6,0l0,-2.3l-785.6,0l0,2.3Z" class="g2_2028" />
<path d="M67.4,557.3l785.6,0l0,-2.3L67.4,555l0,2.3Z" class="g2_2028" />
<path d="M67.4,581.8l785.6,0l0,-2.3l-785.6,0l0,2.3Z" class="g2_2028" />
</svg>