<?xml version="1.0" encoding="UTF-8" standalone="no"?>
<!DOCTYPE svg PUBLIC "-//W3C//DTD SVG 1.1//EN"
"http://www.w3.org/Graphics/SVG/1.1/DTD/svg11.dtd">
<svg viewBox="0 0 935 1210" version="1.1" xmlns="http://www.w3.org/2000/svg" xmlns:xlink="http://www.w3.org/1999/xlink">
<defs>
<style type="text/css"><![CDATA[
.g1_60{
fill: #FFFFFF;
}
.g2_60{
}
]]></style>
</defs>
<path d="M68.8,1149.3l783.7,0l0,-21.2l-783.7,0l0,21.2Z" class="g1_60" />
<path d="M68.8,742.3l0.3,0l0,-568l-0.3,0l0,568Z" class="g2_60" />
<path d="M195.3,742.7l0.7,0L196,174l-0.7,0l0,568.7Z" class="g2_60" />
<path d="M231.9,742.7l0.8,0l0,-568.7l-0.8,0l0,568.7Z" class="g2_60" />
<path d="M273.9,742.7l0.7,0l0,-568.7l-0.7,0l0,568.7Z" class="g2_60" />
<path d="M313.3,742.7l0.7,0L314,174l-0.7,0l0,568.7Z" class="g2_60" />
<path d="M348.8,742.7l0.7,0l0,-568.7l-0.7,0l0,568.7Z" class="g2_60" />
<path d="M852,742.3l0.4,0l0,-568l-0.4,0l0,568Z" class="g2_60" />
<path d="M68.8,174.3l783.6,0l0,-0.3L68.8,174l0,0.3Z" class="g2_60" />
<path d="M68.8,284.3l783.6,0l0,-0.3L68.8,284l0,0.3Z" class="g2_60" />
<path d="M195.3,305.7l657.1,0l0,-0.4l-657.1,0l0,0.4Z" class="g2_60" />
<path d="M195.3,363.8l657.1,0l0,-0.3l-657.1,0l0,0.3Z" class="g2_60" />
<path d="M195.3,418.8l657.1,0l0,-0.3l-657.1,0l0,0.3Z" class="g2_60" />
<path d="M195.3,440.2l657.1,0l0,-0.4l-657.1,0l0,0.4Z" class="g2_60" />
<path d="M195.3,461.6l657.1,0l0,-0.3l-657.1,0l0,0.3Z" class="g2_60" />
<path d="M68.8,483l783.6,0l0,-0.4l-783.6,0l0,0.4Z" class="g2_60" />
<path d="M68.8,521.2l783.6,0l0,-0.3l-783.6,0l0,0.3Z" class="g2_60" />
<path d="M195.3,542.6l657.1,0l0,-0.4l-657.1,0l0,0.4Z" class="g2_60" />
<path d="M68.8,563.9l783.6,0l0,-0.3l-783.6,0l0,0.3Z" class="g2_60" />
<path d="M195.3,602.2l657.1,0l0,-0.4l-657.1,0l0,0.4Z" class="g2_60" />
<path d="M195.3,623.5l657.1,0l0,-0.3l-657.1,0l0,0.3Z" class="g2_60" />
<path d="M195.3,661.7l657.1,0l0,-0.3l-657.1,0l0,0.3Z" class="g2_60" />
<path d="M195.3,683.1l657.1,0l0,-0.4l-657.1,0l0,0.4Z" class="g2_60" />
<path d="M68.8,704.6l783.6,0l0,-0.4l-783.6,0l0,0.4Z" class="g2_60" />
<path d="M68.8,742.7l783.6,0l0,-0.4l-783.6,0l0,0.4Z" class="g2_60" />
</svg>