<?xml version="1.0" encoding="UTF-8" standalone="no"?>
<!DOCTYPE svg PUBLIC "-//W3C//DTD SVG 1.1//EN"
"http://www.w3.org/Graphics/SVG/1.1/DTD/svg11.dtd">
<svg viewBox="0 0 935 1210" version="1.1" xmlns="http://www.w3.org/2000/svg" xmlns:xlink="http://www.w3.org/1999/xlink">
<defs>
<style type="text/css"><![CDATA[
.g1_1532{
fill: #FFFFFF;
}
.g2_1532{
}
]]></style>
</defs>
<path d="M165,1149.3l687.5,0l0,-21.2l-687.5,0l0,21.2Z" class="g1_1532" />
<path d="M68.8,1149.3l82.5,0l0,-21.2l-82.5,0l0,21.2Z" class="g1_1532" />
<path d="M69.7,195.2l0.7,0l0,-72.6l-0.7,0l0,72.6Z" class="g2_1532" />
<path d="M188.3,196l0.7,0l0,-74.2l-0.7,0l0,74.2Z" class="g2_1532" />
<path d="M352.9,196l0.7,0l0,-74.2l-0.7,0l0,74.2Z" class="g2_1532" />
<path d="M522,196l0.8,0l0,-74.2l-0.8,0l0,74.2Z" class="g2_1532" />
<path d="M688,196l0.7,0l0,-74.2l-0.7,0l0,74.2Z" class="g2_1532" />
<path d="M850.8,195.2l0.7,0l0,-72.6l-0.7,0l0,72.6Z" class="g2_1532" />
<path d="M69.6,122.6l781.9,0l0,-0.8l-781.9,0l0,0.8Z" class="g2_1532" />
<path d="M69.6,147l781.9,0l0,-0.7l-781.9,0l0,0.7Z" class="g2_1532" />
<path d="M69.6,171.5l781.9,0l0,-0.7l-781.9,0l0,0.7Z" class="g2_1532" />
<path d="M69.6,195.9l781.9,0l0,-0.7l-781.9,0l0,0.7Z" class="g2_1532" />
</svg>