<?xml version="1.0" encoding="UTF-8" standalone="no"?>
<!DOCTYPE svg PUBLIC "-//W3C//DTD SVG 1.1//EN"
"http://www.w3.org/Graphics/SVG/1.1/DTD/svg11.dtd">
<svg viewBox="0 0 935 1210" version="1.1" xmlns="http://www.w3.org/2000/svg" xmlns:xlink="http://www.w3.org/1999/xlink">
<defs>
<style type="text/css"><![CDATA[
.g1_878{
fill: #FFFFFF;
}
.g2_878{
}
]]></style>
</defs>
<path d="M165,1149.3l687.5,0l0,-21.2l-687.5,0l0,21.2Z" class="g1_878" />
<path d="M68.8,1149.3l82.5,0l0,-21.2l-82.5,0l0,21.2Z" class="g1_878" />
<path d="M66.6,694.7l0.8,0l0,-569l-0.8,0l0,569Z" class="g2_878" />
<path d="M382.5,695.6l0.8,0l0,-570.7l-0.8,0l0,570.7Z" class="g2_878" />
<path d="M420.4,695.6l0.7,0l0,-570.7l-0.7,0l0,570.7Z" class="g2_878" />
<path d="M493.7,695.6l0.8,0l0,-570.7l-0.8,0l0,570.7Z" class="g2_878" />
<path d="M577.7,695.6l0.7,0l0,-570.7l-0.7,0l0,570.7Z" class="g2_878" />
<path d="M853.7,694.7l0.7,0l0,-569l-0.7,0l0,569Z" class="g2_878" />
<path d="M66.6,125.7l787.9,0l0,-0.8l-787.9,0l0,0.8Z" class="g2_878" />
<path d="M66.6,179.1l787.9,0l0,-0.7l-787.9,0l0,0.7Z" class="g2_878" />
<path d="M66.6,223.4l787.9,0l0,-0.7l-787.9,0l0,0.7Z" class="g2_878" />
<path d="M66.6,267.8l787.9,0l0,-0.8L66.6,267l0,0.8Z" class="g2_878" />
<path d="M66.6,312l787.9,0l0,-0.7l-787.9,0l0,0.7Z" class="g2_878" />
<path d="M66.6,356.3l787.9,0l0,-0.7l-787.9,0l0,0.7Z" class="g2_878" />
<path d="M66.6,412.9l787.9,0l0,-0.8l-787.9,0l0,0.8Z" class="g2_878" />
<path d="M66.6,469.4l787.9,0l0,-0.7l-787.9,0l0,0.7Z" class="g2_878" />
<path d="M66.6,526l787.9,0l0,-0.8l-787.9,0l0,0.8Z" class="g2_878" />
<path d="M66.6,582.4l787.9,0l0,-0.7l-787.9,0l0,0.7Z" class="g2_878" />
<path d="M66.6,639l787.9,0l0,-0.7l-787.9,0l0,0.7Z" class="g2_878" />
<path d="M66.6,695.6l787.9,0l0,-0.8l-787.9,0l0,0.8Z" class="g2_878" />
<path d="M70.2,925.5l0.8,0l0,-97l-0.8,0l0,97Z" class="g2_878" />
<path d="M137.3,926.3l0.8,0l0,-98.5l-0.8,0l0,98.5Z" class="g2_878" />
<path d="M311.1,926.3l0.7,0l0,-98.5l-0.7,0l0,98.5Z" class="g2_878" />
<path d="M483.4,926.3l0.7,0l0,-98.5l-0.7,0l0,98.5Z" class="g2_878" />
<path d="M661.9,926.3l0.8,0l0,-98.5l-0.8,0l0,98.5Z" class="g2_878" />
<path d="M850.1,925.5l0.7,0l0,-97l-0.7,0l0,97Z" class="g2_878" />
<path d="M70.2,828.5l780.7,0l0,-0.8l-780.7,0l0,0.8Z" class="g2_878" />
<path d="M70.2,852.9l780.7,0l0,-0.8l-780.7,0l0,0.8Z" class="g2_878" />
<path d="M70.2,877.3l780.7,0l0,-0.7l-780.7,0l0,0.7Z" class="g2_878" />
<path d="M70.2,901.8l780.7,0l0,-0.7l-780.7,0l0,0.7Z" class="g2_878" />
<path d="M70.2,926.2l780.7,0l0,-0.7l-780.7,0l0,0.7Z" class="g2_878" />
</svg>