<?xml version="1.0" encoding="UTF-8" standalone="no"?>
<!DOCTYPE svg PUBLIC "-//W3C//DTD SVG 1.1//EN"
"http://www.w3.org/Graphics/SVG/1.1/DTD/svg11.dtd">
<svg viewBox="0 0 935 1210" version="1.1" xmlns="http://www.w3.org/2000/svg" xmlns:xlink="http://www.w3.org/1999/xlink">
<defs>
<style type="text/css"><![CDATA[
.g1_100{
fill: #FFFFFF;
}
.g2_100{
}
]]></style>
</defs>
<path d="M68.8,1149.3l783.7,0l0,-21.2l-783.7,0l0,21.2Z" class="g1_100" />
<path d="M69.7,789.5l0.7,0l0,-630.2l-0.7,0l0,630.2Z" class="g2_100" />
<path d="M209.4,790.3l0.7,0l0,-631.8l-0.7,0l0,631.8Z" class="g2_100" />
<path d="M246,790.3l0.8,0l0,-631.8l-0.8,0l0,631.8Z" class="g2_100" />
<path d="M288,790.3l0.7,0l0,-631.8l-0.7,0l0,631.8Z" class="g2_100" />
<path d="M327.3,790.3l0.8,0l0,-631.8l-0.8,0l0,631.8Z" class="g2_100" />
<path d="M362.9,790.3l0.7,0l0,-631.8l-0.7,0l0,631.8Z" class="g2_100" />
<path d="M850.8,789.5l0.7,0l0,-630.2l-0.7,0l0,630.2Z" class="g2_100" />
<path d="M69.7,159.2l781.8,0l0,-0.7l-781.8,0l0,0.7Z" class="g2_100" />
<path d="M69.7,263.2l781.8,0l0,-0.8l-781.8,0l0,0.8Z" class="g2_100" />
<path d="M209.4,287.6l642.1,0l0,-0.8l-642.1,0l0,0.8Z" class="g2_100" />
<path d="M209.4,422l642.1,0l0,-0.7l-642.1,0l0,0.7Z" class="g2_100" />
<path d="M209.4,446.5l642.1,0l0,-0.7l-642.1,0l0,0.7Z" class="g2_100" />
<path d="M209.4,471l642.1,0l0,-0.8l-642.1,0l0,0.8Z" class="g2_100" />
<path d="M209.4,495.4l642.1,0l0,-0.8l-642.1,0l0,0.8Z" class="g2_100" />
<path d="M209.4,519.8l642.1,0l0,-0.7l-642.1,0l0,0.7Z" class="g2_100" />
<path d="M209.4,544.3l642.1,0l0,-0.7l-642.1,0l0,0.7Z" class="g2_100" />
<path d="M209.4,568.7l642.1,0l0,-0.7l-642.1,0l0,0.7Z" class="g2_100" />
<path d="M69.7,593.2l781.8,0l0,-0.8l-781.8,0l0,0.8Z" class="g2_100" />
<path d="M69.7,634.4l781.8,0l0,-0.7l-781.8,0l0,0.7Z" class="g2_100" />
<path d="M209.4,658.9l642.1,0l0,-0.7l-642.1,0l0,0.7Z" class="g2_100" />
<path d="M69.7,683.3l781.8,0l0,-0.7l-781.8,0l0,0.7Z" class="g2_100" />
<path d="M209.4,724.5l642.1,0l0,-0.7l-642.1,0l0,0.7Z" class="g2_100" />
<path d="M209.4,749l642.1,0l0,-0.7l-642.1,0l0,0.7Z" class="g2_100" />
<path d="M69.7,790.3l781.8,0l0,-0.8l-781.8,0l0,0.8Z" class="g2_100" />
</svg>