<?xml version="1.0" encoding="UTF-8" standalone="no"?>
<!DOCTYPE svg PUBLIC "-//W3C//DTD SVG 1.1//EN"
"http://www.w3.org/Graphics/SVG/1.1/DTD/svg11.dtd">
<svg viewBox="0 0 935 1210" version="1.1" xmlns="http://www.w3.org/2000/svg" xmlns:xlink="http://www.w3.org/1999/xlink">
<defs>
<style type="text/css"><![CDATA[
.g1_90{
fill: #FFFFFF;
}
.g2_90{
}
]]></style>
</defs>
<path d="M68.8,1149.3l783.7,0l0,-21.2l-783.7,0l0,21.2Z" class="g1_90" />
<path d="M68.5,736l0.7,0l0,-598.1l-0.7,0l0,598.1Z" class="g2_90" />
<path d="M208.2,736.8l0.7,0l0,-599.7l-0.7,0l0,599.7Z" class="g2_90" />
<path d="M244.8,736.8l0.8,0l0,-599.7l-0.8,0l0,599.7Z" class="g2_90" />
<path d="M286.8,736.8l0.8,0l0,-599.7l-0.8,0l0,599.7Z" class="g2_90" />
<path d="M326.1,736.8l0.8,0l0,-599.7l-0.8,0l0,599.7Z" class="g2_90" />
<path d="M361.7,736.8l0.8,0l0,-599.7l-0.8,0l0,599.7Z" class="g2_90" />
<path d="M852,736l0.7,0l0,-598.1l-0.7,0L852,736Z" class="g2_90" />
<path d="M68.5,137.9l784.2,0l0,-0.8l-784.2,0l0,0.8Z" class="g2_90" />
<path d="M68.5,241.7l784.2,0l0,-0.7L68.5,241l0,0.7Z" class="g2_90" />
<path d="M208.2,266.2l644.5,0l0,-0.7l-644.5,0l0,0.7Z" class="g2_90" />
<path d="M208.2,400.7l644.5,0l0,-0.8l-644.5,0l0,0.8Z" class="g2_90" />
<path d="M208.2,425.2l644.5,0l0,-0.8l-644.5,0l0,0.8Z" class="g2_90" />
<path d="M208.2,449.5l644.5,0l0,-0.7l-644.5,0l0,0.7Z" class="g2_90" />
<path d="M68.5,474l784.2,0l0,-0.7l-784.2,0l0,0.7Z" class="g2_90" />
<path d="M68.5,515.3l784.2,0l0,-0.8l-784.2,0l0,0.8Z" class="g2_90" />
<path d="M208.2,539.7l644.5,0l0,-0.7l-644.5,0l0,0.7Z" class="g2_90" />
<path d="M68.5,564.1l784.2,0l0,-0.7l-784.2,0l0,0.7Z" class="g2_90" />
<path d="M208.2,588.6l644.5,0l0,-0.7l-644.5,0l0,0.7Z" class="g2_90" />
<path d="M208.2,613.1l644.5,0l0,-0.8l-644.5,0l0,0.8Z" class="g2_90" />
<path d="M68.5,654.3l784.2,0l0,-0.7l-784.2,0l0,0.7Z" class="g2_90" />
<path d="M68.5,695.6l784.2,0l0,-0.8l-784.2,0l0,0.8Z" class="g2_90" />
<path d="M68.5,736.8l784.2,0l0,-0.7l-784.2,0l0,0.7Z" class="g2_90" />
</svg>