<?xml version="1.0" encoding="UTF-8" standalone="no"?>
<!DOCTYPE svg PUBLIC "-//W3C//DTD SVG 1.1//EN"
"http://www.w3.org/Graphics/SVG/1.1/DTD/svg11.dtd">
<svg viewBox="0 0 935 1210" version="1.1" xmlns="http://www.w3.org/2000/svg" xmlns:xlink="http://www.w3.org/1999/xlink">
<defs>
<style type="text/css"><![CDATA[
.g1_2104{
fill: #FFFFFF;
}
.g2_2104{
}
]]></style>
</defs>
<path d="M68.8,1149.3l783.7,0l0,-21.2l-783.7,0l0,21.2Z" class="g1_2104" />
<path d="M68.6,1067.6l0.7,0l0,-943.5l-0.7,0l0,943.5Z" class="g2_2104" />
<path d="M398.1,1068.4l0.7,0l0,-945l-0.7,0l0,945Z" class="g2_2104" />
<path d="M851.2,1067.6l0.7,0l0,-943.5l-0.7,0l0,943.5Z" class="g2_2104" />
<path d="M68.6,124.1l783.4,0l0,-0.7l-783.4,0l0,0.7Z" class="g2_2104" />
<path d="M68.6,148.6l783.4,0l0,-0.7l-783.4,0l0,0.7Z" class="g2_2104" />
<path d="M68.6,188.3l783.4,0l0,-0.7l-783.4,0l0,0.7Z" class="g2_2104" />
<path d="M68.6,212.8l783.4,0l0,-0.8L68.6,212l0,0.8Z" class="g2_2104" />
<path d="M68.6,237.1l783.4,0l0,-0.7l-783.4,0l0,0.7Z" class="g2_2104" />
<path d="M68.6,261.6l783.4,0l0,-0.7l-783.4,0l0,0.7Z" class="g2_2104" />
<path d="M68.6,286.1l783.4,0l0,-0.7l-783.4,0l0,0.7Z" class="g2_2104" />
<path d="M68.6,325.8l783.4,0l0,-0.7l-783.4,0l0,0.7Z" class="g2_2104" />
<path d="M68.6,350.3l783.4,0l0,-0.8l-783.4,0l0,0.8Z" class="g2_2104" />
<path d="M68.6,374.6l783.4,0l0,-0.7l-783.4,0l0,0.7Z" class="g2_2104" />
<path d="M68.6,414.4l783.4,0l0,-0.7l-783.4,0l0,0.7Z" class="g2_2104" />
<path d="M68.6,438.9l783.4,0l0,-0.7l-783.4,0l0,0.7Z" class="g2_2104" />
<path d="M68.6,463.3l783.4,0l0,-0.8l-783.4,0l0,0.8Z" class="g2_2104" />
<path d="M68.6,503.1l783.4,0l0,-0.8l-783.4,0l0,0.8Z" class="g2_2104" />
<path d="M68.6,527.4l783.4,0l0,-0.7l-783.4,0l0,0.7Z" class="g2_2104" />
<path d="M68.6,567.2l783.4,0l0,-0.7l-783.4,0l0,0.7Z" class="g2_2104" />
<path d="M68.6,591.6l783.4,0l0,-0.7l-783.4,0l0,0.7Z" class="g2_2104" />
<path d="M68.6,616.1l783.4,0l0,-0.7l-783.4,0l0,0.7Z" class="g2_2104" />
<path d="M68.6,640.6l783.4,0l0,-0.8l-783.4,0l0,0.8Z" class="g2_2104" />
<path d="M68.6,664.9l783.4,0l0,-0.7l-783.4,0l0,0.7Z" class="g2_2104" />
<path d="M68.6,704.7l783.4,0l0,-0.7L68.6,704l0,0.7Z" class="g2_2104" />
<path d="M68.6,729.1l783.4,0l0,-0.7l-783.4,0l0,0.7Z" class="g2_2104" />
<path d="M68.6,753.6l783.4,0l0,-0.7l-783.4,0l0,0.7Z" class="g2_2104" />
<path d="M68.6,778.1l783.4,0l0,-0.8l-783.4,0l0,0.8Z" class="g2_2104" />
<path d="M68.6,802.4l783.4,0l0,-0.7l-783.4,0l0,0.7Z" class="g2_2104" />
<path d="M68.6,842.2l783.4,0l0,-0.7l-783.4,0l0,0.7Z" class="g2_2104" />
<path d="M68.6,866.6l783.4,0l0,-0.7l-783.4,0l0,0.7Z" class="g2_2104" />
<path d="M68.6,891.1l783.4,0l0,-0.7l-783.4,0l0,0.7Z" class="g2_2104" />
<path d="M68.6,930.8l783.4,0l0,-0.7l-783.4,0l0,0.7Z" class="g2_2104" />
<path d="M68.6,955.3l783.4,0l0,-0.8l-783.4,0l0,0.8Z" class="g2_2104" />
<path d="M68.6,979.7l783.4,0l0,-0.7L68.6,979l0,0.7Z" class="g2_2104" />
<path d="M68.6,1019.4l783.4,0l0,-0.7l-783.4,0l0,0.7Z" class="g2_2104" />
<path d="M68.6,1043.9l783.4,0l0,-0.7l-783.4,0l0,0.7Z" class="g2_2104" />
<path d="M68.6,1068.3l783.4,0l0,-0.8l-783.4,0l0,0.8Z" class="g2_2104" />
</svg>