<?xml version="1.0" encoding="UTF-8" standalone="no"?>
<!DOCTYPE svg PUBLIC "-//W3C//DTD SVG 1.1//EN"
"http://www.w3.org/Graphics/SVG/1.1/DTD/svg11.dtd">
<svg viewBox="0 0 935 1210" version="1.1" xmlns="http://www.w3.org/2000/svg" xmlns:xlink="http://www.w3.org/1999/xlink">
<defs>
<style type="text/css"><![CDATA[
.g1_49{
fill: #FFFFFF;
}
.g2_49{
}
]]></style>
</defs>
<path d="M68.9,1149.3l783.8,0l0,-21.2l-783.8,0l0,21.2Z" class="g1_49" />
<path d="M675.3,222.2l31.6,0l0,-55l-31.6,0l0,55Z" class="g1_49" />
<path d="M675.3,168l32.5,0l0,-1.5l-32.5,0l0,1.5Z" class="g2_49" />
<path d="M706.2,223l1.6,0l0,-55.8l-1.6,0l0,55.8Z" class="g2_49" />
<path d="M674.6,223l32.3,0l0,-1.5l-32.3,0l0,1.5Z" class="g2_49" />
<path d="M674.6,222.2l1.5,0l0,-55.7l-1.5,0l0,55.7Z" class="g2_49" />
<path d="M247,222.2l149.8,0l0,-55l-149.8,0l0,55Z" class="g1_49" />
<path d="M247,168l150.7,0l0,-1.5l-150.7,0l0,1.5Z" class="g2_49" />
<path d="M396.1,223l1.6,0l0,-55.8l-1.6,0l0,55.8Z" class="g2_49" />
<path d="M246.3,223l150.5,0l0,-1.5l-150.5,0l0,1.5Z" class="g2_49" />
<path d="M246.3,222.2l1.6,0l0,-55.7l-1.6,0l0,55.7Z" class="g2_49" />
<path d="M573.6,222.2l26.1,0l0,-55l-26.1,0l0,55Z" class="g1_49" />
<path d="M573.6,168l26.9,0l0,-1.5l-26.9,0l0,1.5Z" class="g2_49" />
<path d="M599,223l1.5,0l0,-55.8l-1.5,0l0,55.8Z" class="g2_49" />
<path d="M572.8,223l26.9,0l0,-1.5l-26.9,0l0,1.5Z" class="g2_49" />
<path d="M572.8,222.2l1.6,0l0,-55.7l-1.6,0l0,55.7Z" class="g2_49" />
<path d="M600.5,222.2l74.8,0l0,-55l-74.8,0l0,55Z" class="g1_49" />
<path d="M600.5,168l75.6,0l0,-1.5l-75.6,0l0,1.5Z" class="g2_49" />
<path d="M674.6,223l1.5,0l0,-55.8l-1.5,0l0,55.8Z" class="g2_49" />
<path d="M599.8,223l75.5,0l0,-1.5l-75.5,0l0,1.5Z" class="g2_49" />
<path d="M599.8,222.2l1.5,0l0,-55.7l-1.5,0l0,55.7Z" class="g2_49" />
<path d="M696.8,222.2l31.6,0l0,-55l-31.6,0l0,55Z" class="g1_49" />
<path d="M696.8,168l32.4,0l0,-1.5l-32.4,0l0,1.5Z" class="g2_49" />
<path d="M727.7,223l1.5,0l0,-55.8l-1.5,0l0,55.8Z" class="g2_49" />
<path d="M696,223l32.4,0l0,-1.5l-32.4,0l0,1.5Z" class="g2_49" />
<path d="M696,222.2l1.6,0l0,-55.7l-1.6,0l0,55.7Z" class="g2_49" />
<path d="M408.1,222.2l50,0l0,-55l-50,0l0,55Z" class="g1_49" />
<path d="M408.1,168l50.8,0l0,-1.5l-50.8,0l0,1.5Z" class="g2_49" />
<path d="M457.3,223l1.6,0l0,-55.8l-1.6,0l0,55.8Z" class="g2_49" />
<path d="M407.4,223l50.7,0l0,-1.5l-50.7,0l0,1.5Z" class="g2_49" />
<path d="M407.4,222.2l1.5,0l0,-55.7l-1.5,0l0,55.7Z" class="g2_49" />
<path d="M457.2,222.2l97.7,0l0,-55l-97.7,0l0,55Z" class="g1_49" />
<path d="M457.2,168l98.6,0l0,-1.5l-98.6,0l0,1.5Z" class="g2_49" />
<path d="M554.2,223l1.6,0l0,-55.8l-1.6,0l0,55.8Z" class="g2_49" />
<path d="M456.5,223l98.4,0l0,-1.5l-98.4,0l0,1.5Z" class="g2_49" />
<path d="M456.5,222.2l1.6,0l0,-55.7l-1.6,0l0,55.7Z" class="g2_49" />
<path d="M499,311.4l31.7,0l0,-55l-31.7,0l0,55Z" class="g1_49" />
<path d="M499,257.2l32.5,0l0,-1.5l-32.5,0l0,1.5Z" class="g2_49" />
<path d="M529.9,312.2l1.6,0l0,-55.8l-1.6,0l0,55.8Z" class="g2_49" />
<path d="M498.3,312.2l32.4,0l0,-1.5l-32.4,0l0,1.5Z" class="g2_49" />
<path d="M498.3,311.4l1.6,0l0,-55.7l-1.6,0l0,55.7Z" class="g2_49" />
<path d="M246.9,311.4l149.7,0l0,-55l-149.7,0l0,55Z" class="g1_49" />
<path d="M246.9,257.2l150.6,0l0,-1.5l-150.6,0l0,1.5Z" class="g2_49" />
<path d="M395.9,312.2l1.6,0l0,-55.8l-1.6,0l0,55.8Z" class="g2_49" />
<path d="M246.1,312.2l150.5,0l0,-1.5l-150.5,0l0,1.5Z" class="g2_49" />
<path d="M246.1,311.4l1.6,0l0,-55.7l-1.6,0l0,55.7Z" class="g2_49" />
<path d="M406.8,311.4l26.1,0l0,-55l-26.1,0l0,55Z" class="g1_49" />
<path d="M406.8,257.2l27,0l0,-1.5l-27,0l0,1.5Z" class="g2_49" />
<path d="M432.2,312.2l1.6,0l0,-55.8l-1.6,0l0,55.8Z" class="g2_49" />
<path d="M406.1,312.2l26.8,0l0,-1.5l-26.8,0l0,1.5Z" class="g2_49" />
<path d="M406.1,311.4l1.5,0l0,-55.7l-1.5,0l0,55.7Z" class="g2_49" />
<path d="M433.8,311.4l66.2,0l0,-55l-66.2,0l0,55Z" class="g1_49" />
<path d="M433.8,257.2l67.1,0l0,-1.5l-67.1,0l0,1.5Z" class="g2_49" />
<path d="M499.3,312.2l1.6,0l0,-55.8l-1.6,0l0,55.8Z" class="g2_49" />
<path d="M433,312.2l67,0l0,-1.5l-67,0l0,1.5Z" class="g2_49" />
<path d="M433,311.4l1.6,0l0,-55.7l-1.6,0l0,55.7Z" class="g2_49" />
<path d="M520.5,311.4l31.6,0l0,-55l-31.6,0l0,55Z" class="g1_49" />
<path d="M520.5,257.2l32.4,0l0,-1.5l-32.4,0l0,1.5Z" class="g2_49" />
<path d="M551.4,312.2l1.5,0l0,-55.8l-1.5,0l0,55.8Z" class="g2_49" />
<path d="M519.8,312.2l32.3,0l0,-1.5l-32.3,0l0,1.5Z" class="g2_49" />
<path d="M519.8,311.4l1.5,0l0,-55.7l-1.5,0l0,55.7Z" class="g2_49" />
</svg>