<?xml version="1.0" encoding="UTF-8" standalone="no"?>
<!DOCTYPE svg PUBLIC "-//W3C//DTD SVG 1.1//EN"
"http://www.w3.org/Graphics/SVG/1.1/DTD/svg11.dtd">
<svg viewBox="0 0 935 1210" version="1.1" xmlns="http://www.w3.org/2000/svg" xmlns:xlink="http://www.w3.org/1999/xlink">
<defs>
<style type="text/css"><![CDATA[
.g1_811{
fill: #FFFFFF;
}
.g2_811{
}
]]></style>
</defs>
<path d="M68.9,1149.3l686.3,0l0,-21.2l-686.3,0l0,21.2Z" class="g1_811" />
<path d="M771.3,1149.3l83.7,0l0,-21.2l-83.7,0l0,21.2Z" class="g1_811" />
<path d="M71,427.4l0.8,0l0,-84.7l-0.8,0l0,84.7Z" class="g2_811" />
<path d="M203.4,428.2l0.7,0l0,-86.4l-0.7,0l0,86.4Z" class="g2_811" />
<path d="M850.9,427.4l0.8,0l0,-84.7l-0.8,0l0,84.7Z" class="g2_811" />
<path d="M71,342.6l780.8,0l0,-0.8L71,341.8l0,0.8Z" class="g2_811" />
<path d="M71,365.5l780.8,0l0,-0.8L71,364.7l0,0.8Z" class="g2_811" />
<path d="M71,405.3l780.8,0l0,-0.8L71,404.5l0,0.8Z" class="g2_811" />
<path d="M71,428.2l780.8,0l0,-0.8L71,427.4l0,0.8Z" class="g2_811" />
<path d="M71,661.2l0.8,0l0,-176.5l-0.8,0l0,176.5Z" class="g2_811" />
<path d="M203.4,661.9l0.7,0l0,-178l-0.7,0l0,178Z" class="g2_811" />
<path d="M850.9,661.2l0.8,0l0,-176.5l-0.8,0l0,176.5Z" class="g2_811" />
<path d="M71,484.7l780.8,0l0,-0.7L71,484l0,0.7Z" class="g2_811" />
<path d="M71,507.7l780.8,0l0,-0.8L71,506.9l0,0.8Z" class="g2_811" />
<path d="M71,530.6l780.8,0l0,-0.8L71,529.8l0,0.8Z" class="g2_811" />
<path d="M71,639l780.8,0l0,-0.7L71,638.3l0,0.7Z" class="g2_811" />
<path d="M71,661.9l780.8,0l0,-0.7L71,661.2l0,0.7Z" class="g2_811" />
</svg>