<?xml version="1.0" encoding="UTF-8" standalone="no"?>
<!DOCTYPE svg PUBLIC "-//W3C//DTD SVG 1.1//EN"
"http://www.w3.org/Graphics/SVG/1.1/DTD/svg11.dtd">
<svg viewBox="0 0 935 1210" version="1.1" xmlns="http://www.w3.org/2000/svg" xmlns:xlink="http://www.w3.org/1999/xlink">
<defs>
<style type="text/css"><![CDATA[
.g1_1598{
fill: #FFFFFF;
}
.g2_1598{
}
]]></style>
</defs>
<path d="M165,1149.3l687.5,0l0,-21.2l-687.5,0l0,21.2Z" class="g1_1598" />
<path d="M68.8,1149.3l82.5,0l0,-21.2l-82.5,0l0,21.2Z" class="g1_1598" />
<path d="M68.6,386.2l0.7,0l0,-260.5l-0.7,0l0,260.5Z" class="g2_1598" />
<path d="M269.2,386.9l0.8,0l0,-262l-0.8,0l0,262Z" class="g2_1598" />
<path d="M312.8,386.9l0.7,0l0,-262l-0.7,0l0,262Z" class="g2_1598" />
<path d="M385.1,386.9l0.7,0l0,-262l-0.7,0l0,262Z" class="g2_1598" />
<path d="M471,386.9l0.7,0l0,-262l-0.7,0l0,262Z" class="g2_1598" />
<path d="M853.1,386.2l0.8,0l0,-260.5l-0.8,0l0,260.5Z" class="g2_1598" />
<path d="M68.6,125.7l785.3,0l0,-0.8l-785.3,0l0,0.8Z" class="g2_1598" />
<path d="M68.6,176.1l785.3,0l0,-0.7l-785.3,0l0,0.7Z" class="g2_1598" />
<path d="M68.6,246.3l785.3,0l0,-0.7l-785.3,0l0,0.7Z" class="g2_1598" />
<path d="M68.6,316.6l785.3,0l0,-0.7l-785.3,0l0,0.7Z" class="g2_1598" />
<path d="M68.6,386.9l785.3,0l0,-0.7l-785.3,0l0,0.7Z" class="g2_1598" />
<path d="M70.7,490.1l0.7,0l0,-48.2l-0.7,0l0,48.2Z" class="g2_1598" />
<path d="M234.3,490.8l0.7,0l0,-49.6l-0.7,0l0,49.6Z" class="g2_1598" />
<path d="M375.8,490.8l0.8,0l0,-49.6l-0.8,0l0,49.6Z" class="g2_1598" />
<path d="M577.7,490.8l0.7,0l0,-49.6l-0.7,0l0,49.6Z" class="g2_1598" />
<path d="M720.9,490.8l0.7,0l0,-49.6l-0.7,0l0,49.6Z" class="g2_1598" />
<path d="M849.8,490.1l0.7,0l0,-48.2l-0.7,0l0,48.2Z" class="g2_1598" />
<path d="M70.7,441.9l779.8,0l0,-0.7l-779.8,0l0,0.7Z" class="g2_1598" />
<path d="M70.7,466.4l779.8,0l0,-0.7l-779.8,0l0,0.7Z" class="g2_1598" />
<path d="M70.7,490.8l779.8,0l0,-0.8L70.7,490l0,0.8Z" class="g2_1598" />
<path d="M79.3,779.7l0.7,0l0,-81.1l-0.7,0l0,81.1Z" class="g2_1598" />
<path d="M841.1,779.7l0.8,0l0,-81.1l-0.8,0l0,81.1Z" class="g2_1598" />
<path d="M79.2,698.6l762.7,0l0,-0.7l-762.7,0l0,0.7Z" class="g2_1598" />
<path d="M79.2,780.5l762.7,0l0,-0.7l-762.7,0l0,0.7Z" class="g2_1598" />
<path d="M67.1,967.6l0.7,0l0,-89.3l-0.7,0l0,89.3Z" class="g2_1598" />
<path d="M137.5,968.5l0.7,0l0,-91l-0.7,0l0,91Z" class="g2_1598" />
<path d="M222,968.5l0.8,0l0,-91l-0.8,0l0,91Z" class="g2_1598" />
<path d="M306.6,968.5l0.8,0l0,-91l-0.8,0l0,91Z" class="g2_1598" />
<path d="M391.2,968.5l0.8,0l0,-91l-0.8,0l0,91Z" class="g2_1598" />
<path d="M475.7,968.5l0.8,0l0,-91l-0.8,0l0,91Z" class="g2_1598" />
<path d="M560.4,968.5l0.7,0l0,-91l-0.7,0l0,91Z" class="g2_1598" />
<path d="M653.2,968.5l0.8,0l0,-91l-0.8,0l0,91Z" class="g2_1598" />
<path d="M768.7,968.5l0.8,0l0,-91l-0.8,0l0,91Z" class="g2_1598" />
<path d="M853.3,967.6l0.8,0l0,-89.3l-0.8,0l0,89.3Z" class="g2_1598" />
<path d="M67.1,878.3l787,0l0,-0.8l-787,0l0,0.8Z" class="g2_1598" />
<path d="M67.1,902.7l787,0l0,-0.7l-787,0l0,0.7Z" class="g2_1598" />
<path d="M67.1,927.2l787,0l0,-0.7l-787,0l0,0.7Z" class="g2_1598" />
<path d="M67.1,968.5l787,0l0,-0.8l-787,0l0,0.8Z" class="g2_1598" />
<path d="M234.4,740.3l456.5,0l0,-0.7l-456.5,0l0,0.7Z" class="g2_1598" />
<path d="M690.2,760.6l0.7,0l0,-20.7l-0.7,0l0,20.7Z" class="g2_1598" />
<path d="M234,760.6l456.5,0l0,-0.8l-456.5,0l0,0.8Z" class="g2_1598" />
<path d="M234,760.2l0.8,0l0,-20.6l-0.8,0l0,20.6Z" class="g2_1598" />
<path d="M576.1,740.3l0.8,0l0,-0.4l-0.8,0l0,0.4Z" class="g2_1598" />
<path d="M576.1,760.6l0.8,0l0,-20.3l-0.8,0l0,20.3Z" class="g2_1598" />
<path d="M462.1,740.3l0.7,0l0,-0.4l-0.7,0l0,0.4Z" class="g2_1598" />
<path d="M462.1,760.6l0.7,0l0,-20.3l-0.7,0l0,20.3Z" class="g2_1598" />
<path d="M348.1,740.3l0.7,0l0,-0.4l-0.7,0l0,0.4Z" class="g2_1598" />
<path d="M348.1,760.6l0.7,0l0,-20.3l-0.7,0l0,20.3Z" class="g2_1598" />
<path d="M633.1,740.3l0.8,0l0,-0.4l-0.8,0l0,0.4Z" class="g2_1598" />
<path d="M633.1,760.6l0.8,0l0,-20.3l-0.8,0l0,20.3Z" class="g2_1598" />
<path d="M519.1,740.3l0.7,0l0,-0.4l-0.7,0l0,0.4Z" class="g2_1598" />
<path d="M519.1,760.6l0.7,0l0,-20.3l-0.7,0l0,20.3Z" class="g2_1598" />
<path d="M405.1,740.3l0.7,0l0,-0.4l-0.7,0l0,0.4Z" class="g2_1598" />
<path d="M405.1,760.6l0.7,0l0,-20.3l-0.7,0l0,20.3Z" class="g2_1598" />
<path d="M291.1,740.3l0.8,0l0,-0.4l-0.8,0l0,0.4Z" class="g2_1598" />
<path d="M291.1,760.6l0.8,0l0,-20.3l-0.8,0l0,20.3Z" class="g2_1598" />
</svg>