<?xml version="1.0" encoding="UTF-8" standalone="no"?>
<!DOCTYPE svg PUBLIC "-//W3C//DTD SVG 1.1//EN"
"http://www.w3.org/Graphics/SVG/1.1/DTD/svg11.dtd">
<svg viewBox="0 0 935 1210" version="1.1" xmlns="http://www.w3.org/2000/svg" xmlns:xlink="http://www.w3.org/1999/xlink">
<defs>
<style type="text/css"><![CDATA[
.g1_2039{
fill: #FFFFFF;
}
.g2_2039{
}
]]></style>
</defs>
<path d="M68.9,1149l783.8,0l0,-21.4l-783.8,0l0,21.4Z" class="g1_2039" />
<path d="M69.9,216.6l0.8,0l0,-23.7l-0.8,0l0,23.7Z" class="g2_2039" />
<path d="M330.1,217.3l0.7,0l0,-25.2l-0.7,0l0,25.2Z" class="g2_2039" />
<path d="M591.8,217.3l0.7,0l0,-25.2l-0.7,0l0,25.2Z" class="g2_2039" />
<path d="M853.4,216.6l0.7,0l0,-23.7l-0.7,0l0,23.7Z" class="g2_2039" />
<path d="M69.9,192.9l784.2,0l0,-0.8l-784.2,0l0,0.8Z" class="g2_2039" />
<path d="M69.9,217.3l784.2,0l0,-0.7l-784.2,0l0,0.7Z" class="g2_2039" />
</svg>