<?xml version="1.0" encoding="UTF-8" standalone="no"?>
<!DOCTYPE svg PUBLIC "-//W3C//DTD SVG 1.1//EN"
"http://www.w3.org/Graphics/SVG/1.1/DTD/svg11.dtd">
<svg viewBox="0 0 935 1210" version="1.1" xmlns="http://www.w3.org/2000/svg" xmlns:xlink="http://www.w3.org/1999/xlink">
<defs>
<style type="text/css"><![CDATA[
.g1_1907{
fill: #FFFFFF;
}
.g2_1907{
}
]]></style>
</defs>
<path d="M68.9,1149.3l686.3,0l0,-21.2l-686.3,0l0,21.2Z" class="g1_1907" />
<path d="M771.3,1149.3l83.7,0l0,-21.2l-83.7,0l0,21.2Z" class="g1_1907" />
<path d="M69.9,432l0.8,0l0,-263.5l-0.8,0l0,263.5Z" class="g2_1907" />
<path d="M306.7,432.8l0.8,0l0,-265.1l-0.8,0l0,265.1Z" class="g2_1907" />
<path d="M350.1,432.8l0.7,0l0,-265.1l-0.7,0l0,265.1Z" class="g2_1907" />
<path d="M424.5,432.8l0.7,0l0,-265.1l-0.7,0l0,265.1Z" class="g2_1907" />
<path d="M509.5,432.8l0.7,0l0,-265.1l-0.7,0l0,265.1Z" class="g2_1907" />
<path d="M849.6,432l0.7,0l0,-263.5l-0.7,0l0,263.5Z" class="g2_1907" />
<path d="M69.9,168.4l780.4,0l0,-0.7l-780.4,0l0,0.7Z" class="g2_1907" />
<path d="M69.9,218.8l780.4,0l0,-0.7l-780.4,0l0,0.7Z" class="g2_1907" />
<path d="M69.9,272.3l780.4,0l0,-0.7l-780.4,0l0,0.7Z" class="g2_1907" />
<path d="M69.9,325.8l780.4,0l0,-0.7l-780.4,0l0,0.7Z" class="g2_1907" />
<path d="M69.9,379.2l780.4,0l0,-0.7l-780.4,0l0,0.7Z" class="g2_1907" />
<path d="M69.9,432.8l780.4,0l0,-0.8L69.9,432l0,0.8Z" class="g2_1907" />
<path d="M70.5,561.8l0.7,0l0,-64.9l-0.7,0l0,64.9Z" class="g2_1907" />
<path d="M178.3,562.7l0.7,0l0,-66.5l-0.7,0l0,66.5Z" class="g2_1907" />
<path d="M351.4,562.7l0.8,0l0,-66.5l-0.8,0l0,66.5Z" class="g2_1907" />
<path d="M519.6,562.7l0.7,0l0,-66.5l-0.7,0l0,66.5Z" class="g2_1907" />
<path d="M684.5,562.7l0.7,0l0,-66.5l-0.7,0l0,66.5Z" class="g2_1907" />
<path d="M851.5,561.8l0.7,0l0,-64.9l-0.7,0l0,64.9Z" class="g2_1907" />
<path d="M70.5,496.9l781.7,0l0,-0.7l-781.7,0l0,0.7Z" class="g2_1907" />
<path d="M70.5,521.4l781.7,0l0,-0.7l-781.7,0l0,0.7Z" class="g2_1907" />
<path d="M70.5,562.7l781.7,0l0,-0.8l-781.7,0l0,0.8Z" class="g2_1907" />
</svg>