<?xml version="1.0" encoding="UTF-8" standalone="no"?>
<!DOCTYPE svg PUBLIC "-//W3C//DTD SVG 1.1//EN"
"http://www.w3.org/Graphics/SVG/1.1/DTD/svg11.dtd">
<svg viewBox="0 0 935 1210" version="1.1" xmlns="http://www.w3.org/2000/svg" xmlns:xlink="http://www.w3.org/1999/xlink">
<defs>
<style type="text/css"><![CDATA[
.g1_553{
fill: #FFFFFF;
}
.g2_553{
}
]]></style>
</defs>
<path d="M68.9,1149.3l686.3,0l0,-21.2l-686.3,0l0,21.2Z" class="g1_553" />
<path d="M771.3,1149.3l83.7,0l0,-21.2l-83.7,0l0,21.2Z" class="g1_553" />
<path d="M71.5,461l0.7,0l0,-326.2l-0.7,0l0,326.2Z" class="g2_553" />
<path d="M220.6,461.8l0.7,0l0,-327.7l-0.7,0l0,327.7Z" class="g2_553" />
<path d="M389.6,461.8l0.7,0l0,-327.7l-0.7,0l0,327.7Z" class="g2_553" />
<path d="M427.4,461.8l0.8,0l0,-327.7l-0.8,0l0,327.7Z" class="g2_553" />
<path d="M500.9,461.8l0.7,0l0,-327.7l-0.7,0l0,327.7Z" class="g2_553" />
<path d="M572.2,461.8l0.7,0l0,-327.7l-0.7,0l0,327.7Z" class="g2_553" />
<path d="M850.5,461l0.7,0l0,-326.2l-0.7,0l0,326.2Z" class="g2_553" />
<path d="M71.5,134.8l779.8,0l0,-0.7l-779.8,0l0,0.7Z" class="g2_553" />
<path d="M71.5,173l779.8,0l0,-0.8l-779.8,0l0,0.8Z" class="g2_553" />
<path d="M71.5,212.8l779.8,0l0,-0.8L71.5,212l0,0.8Z" class="g2_553" />
<path d="M71.5,252.4l779.8,0l0,-0.7l-779.8,0l0,0.7Z" class="g2_553" />
<path d="M71.5,309l779.8,0l0,-0.7l-779.8,0l0,0.7Z" class="g2_553" />
<path d="M71.5,365.5l779.8,0l0,-0.8l-779.8,0l0,0.8Z" class="g2_553" />
<path d="M71.5,405.3l779.8,0l0,-0.8l-779.8,0l0,0.8Z" class="g2_553" />
<path d="M71.5,461.8l779.8,0l0,-0.7l-779.8,0l0,0.7Z" class="g2_553" />
<path d="M69.9,621.4l0.7,0l0,-48.1l-0.7,0l0,48.1Z" class="g2_553" />
<path d="M149.1,622.2l0.8,0l0,-49.6l-0.8,0l0,49.6Z" class="g2_553" />
<path d="M323.2,622.2l0.7,0l0,-49.6l-0.7,0l0,49.6Z" class="g2_553" />
<path d="M499.4,622.2l0.7,0l0,-49.6l-0.7,0l0,49.6Z" class="g2_553" />
<path d="M670.2,622.2l0.7,0l0,-49.6l-0.7,0l0,49.6Z" class="g2_553" />
<path d="M852.1,621.4l0.8,0l0,-48.1l-0.8,0l0,48.1Z" class="g2_553" />
<path d="M69.9,573.3l783,0l0,-0.7l-783,0l0,0.7Z" class="g2_553" />
<path d="M69.9,597.8l783,0l0,-0.8l-783,0l0,0.8Z" class="g2_553" />
<path d="M69.9,622.2l783,0l0,-0.7l-783,0l0,0.7Z" class="g2_553" />
</svg>