<?xml version="1.0" encoding="UTF-8" standalone="no"?>
<!DOCTYPE svg PUBLIC "-//W3C//DTD SVG 1.1//EN"
"http://www.w3.org/Graphics/SVG/1.1/DTD/svg11.dtd">
<svg viewBox="0 0 935 1210" version="1.1" xmlns="http://www.w3.org/2000/svg" xmlns:xlink="http://www.w3.org/1999/xlink">
<defs>
<style type="text/css"><![CDATA[
.g1_1574{
fill: #FFFFFF;
}
.g2_1574{
}
]]></style>
</defs>
<path d="M165,1149.3l687.5,0l0,-21.2l-687.5,0l0,21.2Z" class="g1_1574" />
<path d="M68.8,1149.3l82.5,0l0,-21.2l-82.5,0l0,21.2Z" class="g1_1574" />
<path d="M68.6,517.6l0.7,0L69.3,147l-0.7,0l0,370.6Z" class="g2_1574" />
<path d="M274.5,518.3l0.7,0l0,-372l-0.7,0l0,372Z" class="g2_1574" />
<path d="M322.8,518.3l0.7,0l0,-372l-0.7,0l0,372Z" class="g2_1574" />
<path d="M396.1,518.3l0.7,0l0,-372l-0.7,0l0,372Z" class="g2_1574" />
<path d="M477.9,518.3l0.7,0l0,-372l-0.7,0l0,372Z" class="g2_1574" />
<path d="M850.4,517.6l0.7,0l0,-370.6l-0.7,0l0,370.6Z" class="g2_1574" />
<path d="M68.6,147l782.5,0l0,-0.7l-782.5,0l0,0.7Z" class="g2_1574" />
<path d="M68.6,197.4l782.5,0l0,-0.7l-782.5,0l0,0.7Z" class="g2_1574" />
<path d="M68.6,250.9l782.5,0l0,-0.7l-782.5,0l0,0.7Z" class="g2_1574" />
<path d="M68.6,304.4l782.5,0l0,-0.7l-782.5,0l0,0.7Z" class="g2_1574" />
<path d="M68.6,357.9l782.5,0l0,-0.8l-782.5,0l0,0.8Z" class="g2_1574" />
<path d="M68.6,411.4l782.5,0l0,-0.7l-782.5,0l0,0.7Z" class="g2_1574" />
<path d="M68.6,464.8l782.5,0l0,-0.7l-782.5,0l0,0.7Z" class="g2_1574" />
<path d="M68.6,518.3l782.5,0l0,-0.7l-782.5,0l0,0.7Z" class="g2_1574" />
<path d="M71.8,645.9l0.7,0l0,-72.6l-0.7,0l0,72.6Z" class="g2_1574" />
<path d="M192.3,646.6l0.8,0l0,-74.1l-0.8,0l0,74.1Z" class="g2_1574" />
<path d="M353.6,646.6l0.7,0l0,-74.1l-0.7,0l0,74.1Z" class="g2_1574" />
<path d="M518.9,646.6l0.8,0l0,-74.1l-0.8,0l0,74.1Z" class="g2_1574" />
<path d="M684.4,646.6l0.7,0l0,-74.1l-0.7,0l0,74.1Z" class="g2_1574" />
<path d="M848.6,645.9l0.8,0l0,-72.6l-0.8,0l0,72.6Z" class="g2_1574" />
<path d="M71.8,573.3l777.6,0l0,-0.7l-777.6,0l0,0.7Z" class="g2_1574" />
<path d="M71.8,597.8l777.6,0l0,-0.8L71.8,597l0,0.8Z" class="g2_1574" />
<path d="M71.8,622.2l777.6,0l0,-0.7l-777.6,0l0,0.7Z" class="g2_1574" />
<path d="M71.8,646.6l777.6,0l0,-0.7l-777.6,0l0,0.7Z" class="g2_1574" />
</svg>