<?xml version="1.0" encoding="UTF-8" standalone="no"?>
<!DOCTYPE svg PUBLIC "-//W3C//DTD SVG 1.1//EN"
"http://www.w3.org/Graphics/SVG/1.1/DTD/svg11.dtd">
<svg viewBox="0 0 935 1210" version="1.1" xmlns="http://www.w3.org/2000/svg" xmlns:xlink="http://www.w3.org/1999/xlink">
<defs>
<style type="text/css"><![CDATA[
.g1_2101{
fill: #FFFFFF;
}
.g2_2101{
}
]]></style>
</defs>
<path d="M68.9,1149.3l783.8,0l0,-21.2l-783.8,0l0,21.2Z" class="g1_2101" />
<path d="M69.9,1090.5l0.8,0l0,-966.4l-0.8,0l0,966.4Z" class="g2_2101" />
<path d="M399.5,1091.3l0.7,0l0,-967.9l-0.7,0l0,967.9Z" class="g2_2101" />
<path d="M852.6,1090.5l0.7,0l0,-966.4l-0.7,0l0,966.4Z" class="g2_2101" />
<path d="M69.9,124.1l783.4,0l0,-0.7l-783.4,0l0,0.7Z" class="g2_2101" />
<path d="M69.9,148.6l783.4,0l0,-0.7l-783.4,0l0,0.7Z" class="g2_2101" />
<path d="M69.9,188.3l783.4,0l0,-0.7l-783.4,0l0,0.7Z" class="g2_2101" />
<path d="M69.9,212.8l783.4,0l0,-0.8L69.9,212l0,0.8Z" class="g2_2101" />
<path d="M69.9,237.1l783.4,0l0,-0.7l-783.4,0l0,0.7Z" class="g2_2101" />
<path d="M69.9,276.9l783.4,0l0,-0.7l-783.4,0l0,0.7Z" class="g2_2101" />
<path d="M69.9,301.3l783.4,0l0,-0.7l-783.4,0l0,0.7Z" class="g2_2101" />
<path d="M69.9,325.8l783.4,0l0,-0.7l-783.4,0l0,0.7Z" class="g2_2101" />
<path d="M69.9,365.5l783.4,0l0,-0.8l-783.4,0l0,0.8Z" class="g2_2101" />
<path d="M69.9,389.9l783.4,0l0,-0.7l-783.4,0l0,0.7Z" class="g2_2101" />
<path d="M69.9,414.4l783.4,0l0,-0.7l-783.4,0l0,0.7Z" class="g2_2101" />
<path d="M69.9,455.7l783.4,0l0,-0.8l-783.4,0l0,0.8Z" class="g2_2101" />
<path d="M69.9,480.2l783.4,0l0,-0.8l-783.4,0l0,0.8Z" class="g2_2101" />
<path d="M69.9,504.5l783.4,0l0,-0.7l-783.4,0l0,0.7Z" class="g2_2101" />
<path d="M69.9,544.3l783.4,0l0,-0.7l-783.4,0l0,0.7Z" class="g2_2101" />
<path d="M69.9,568.7l783.4,0l0,-0.7L69.9,568l0,0.7Z" class="g2_2101" />
<path d="M69.9,593.2l783.4,0l0,-0.8l-783.4,0l0,0.8Z" class="g2_2101" />
<path d="M69.9,632.9l783.4,0l0,-0.8l-783.4,0l0,0.8Z" class="g2_2101" />
<path d="M69.9,657.3l783.4,0l0,-0.7l-783.4,0l0,0.7Z" class="g2_2101" />
<path d="M69.9,681.8l783.4,0l0,-0.7l-783.4,0l0,0.7Z" class="g2_2101" />
<path d="M69.9,721.5l783.4,0l0,-0.7l-783.4,0l0,0.7Z" class="g2_2101" />
<path d="M69.9,746l783.4,0l0,-0.7l-783.4,0l0,0.7Z" class="g2_2101" />
<path d="M69.9,770.4l783.4,0l0,-0.8l-783.4,0l0,0.8Z" class="g2_2101" />
<path d="M69.9,810.2l783.4,0l0,-0.8l-783.4,0l0,0.8Z" class="g2_2101" />
<path d="M69.9,834.5l783.4,0l0,-0.7l-783.4,0l0,0.7Z" class="g2_2101" />
<path d="M69.9,859l783.4,0l0,-0.7l-783.4,0l0,0.7Z" class="g2_2101" />
<path d="M69.9,914l783.4,0l0,-0.7l-783.4,0l0,0.7Z" class="g2_2101" />
<path d="M69.9,938.5l783.4,0l0,-0.7l-783.4,0l0,0.7Z" class="g2_2101" />
<path d="M69.9,962.9l783.4,0l0,-0.8l-783.4,0l0,0.8Z" class="g2_2101" />
<path d="M69.9,1002.7l783.4,0l0,-0.8l-783.4,0l0,0.8Z" class="g2_2101" />
<path d="M69.9,1027l783.4,0l0,-0.7l-783.4,0l0,0.7Z" class="g2_2101" />
<path d="M69.9,1051.5l783.4,0l0,-0.7l-783.4,0l0,0.7Z" class="g2_2101" />
<path d="M69.9,1091.2l783.4,0l0,-0.7l-783.4,0l0,0.7Z" class="g2_2101" />
</svg>