<?xml version="1.0" encoding="UTF-8" standalone="no"?>
<!DOCTYPE svg PUBLIC "-//W3C//DTD SVG 1.1//EN"
"http://www.w3.org/Graphics/SVG/1.1/DTD/svg11.dtd">
<svg viewBox="0 0 935 1210" version="1.1" xmlns="http://www.w3.org/2000/svg" xmlns:xlink="http://www.w3.org/1999/xlink">
<defs>
<style type="text/css"><![CDATA[
.g1_2090{
fill: #FFFFFF;
}
.g2_2090{
}
]]></style>
</defs>
<path d="M68.8,1149.3l783.7,0l0,-21.2l-783.7,0l0,21.2Z" class="g1_2090" />
<path d="M68.6,561.8l0.7,0l0,-121.4l-0.7,0l0,121.4Z" class="g2_2090" />
<path d="M443.8,562.7l0.8,0l0,-123.1l-0.8,0l0,123.1Z" class="g2_2090" />
<path d="M850.9,561.8l0.8,0l0,-121.4l-0.8,0l0,121.4Z" class="g2_2090" />
<path d="M68.6,440.4l783.1,0l0,-0.8l-783.1,0l0,0.8Z" class="g2_2090" />
<path d="M68.6,464.8l783.1,0l0,-0.7l-783.1,0l0,0.7Z" class="g2_2090" />
<path d="M68.6,489.3l783.1,0l0,-0.7l-783.1,0l0,0.7Z" class="g2_2090" />
<path d="M68.6,513.7l783.1,0l0,-0.7L68.6,513l0,0.7Z" class="g2_2090" />
<path d="M68.6,538.2l783.1,0l0,-0.8l-783.1,0l0,0.8Z" class="g2_2090" />
<path d="M68.6,562.7l783.1,0l0,-0.8l-783.1,0l0,0.8Z" class="g2_2090" />
<path d="M68.6,1079.8l0.7,0l0,-268.1l-0.7,0l0,268.1Z" class="g2_2090" />
<path d="M444.9,1080.6l0.7,0l0,-269.7l-0.7,0l0,269.7Z" class="g2_2090" />
<path d="M850.2,1079.8l0.7,0l0,-268.1l-0.7,0l0,268.1Z" class="g2_2090" />
<path d="M68.6,811.6l782.4,0l0,-0.7l-782.4,0l0,0.7Z" class="g2_2090" />
<path d="M68.6,836.1l782.4,0l0,-0.7l-782.4,0l0,0.7Z" class="g2_2090" />
<path d="M68.6,860.6l782.4,0l0,-0.8l-782.4,0l0,0.8Z" class="g2_2090" />
<path d="M68.6,885L851,885l0,-0.8l-782.4,0l0,0.8Z" class="g2_2090" />
<path d="M68.6,909.4l782.4,0l0,-0.7l-782.4,0l0,0.7Z" class="g2_2090" />
<path d="M68.6,933.9l782.4,0l0,-0.7l-782.4,0l0,0.7Z" class="g2_2090" />
<path d="M68.6,958.3l782.4,0l0,-0.7l-782.4,0l0,0.7Z" class="g2_2090" />
<path d="M68.6,982.8l782.4,0l0,-0.8L68.6,982l0,0.8Z" class="g2_2090" />
<path d="M68.6,1007.2l782.4,0l0,-0.7l-782.4,0l0,0.7Z" class="g2_2090" />
<path d="M68.6,1031.6l782.4,0l0,-0.7l-782.4,0l0,0.7Z" class="g2_2090" />
<path d="M68.6,1056.1l782.4,0l0,-0.7l-782.4,0l0,0.7Z" class="g2_2090" />
<path d="M68.6,1080.6l782.4,0l0,-0.8l-782.4,0l0,0.8Z" class="g2_2090" />
</svg>