<?xml version="1.0" encoding="UTF-8" standalone="no"?>
<!DOCTYPE svg PUBLIC "-//W3C//DTD SVG 1.1//EN"
"http://www.w3.org/Graphics/SVG/1.1/DTD/svg11.dtd">
<svg viewBox="0 0 935 1210" version="1.1" xmlns="http://www.w3.org/2000/svg" xmlns:xlink="http://www.w3.org/1999/xlink">
<defs>
<style type="text/css"><![CDATA[
.g1_1881{
fill: #FFFFFF;
}
.g2_1881{
fill: #0860A8;
}
.g3_1881{
}
]]></style>
</defs>
<path d="M68.9,1149.3l686.3,0l0,-21.2l-686.3,0l0,21.2Z" class="g1_1881" />
<path d="M771.3,1149.3l83.7,0l0,-21.2l-83.7,0l0,21.2Z" class="g1_1881" />
<path d="M544.9,941.2l262.7,0l0,-0.8l-262.7,0l0,0.8Z" class="g2_1881" />
<path d="M70.3,958.1l738.9,0l0,-0.8l-738.9,0l0,0.8Z" class="g2_1881" />
<path d="M69.9,386.2l0.8,0l0,-260.5l-0.8,0l0,260.5Z" class="g3_1881" />
<path d="M274.6,386.9l0.8,0l0,-262l-0.8,0l0,262Z" class="g3_1881" />
<path d="M320.5,386.9l0.7,0l0,-262l-0.7,0l0,262Z" class="g3_1881" />
<path d="M395,386.9l0.7,0l0,-262l-0.7,0l0,262Z" class="g3_1881" />
<path d="M481.5,386.9l0.8,0l0,-262l-0.8,0l0,262Z" class="g3_1881" />
<path d="M853.3,386.2l0.8,0l0,-260.5l-0.8,0l0,260.5Z" class="g3_1881" />
<path d="M69.9,125.7l784.2,0l0,-0.8l-784.2,0l0,0.8Z" class="g3_1881" />
<path d="M69.9,176.1l784.2,0l0,-0.7l-784.2,0l0,0.7Z" class="g3_1881" />
<path d="M69.9,246.3l784.2,0l0,-0.7l-784.2,0l0,0.7Z" class="g3_1881" />
<path d="M69.9,316.6l784.2,0l0,-0.7l-784.2,0l0,0.7Z" class="g3_1881" />
<path d="M69.9,386.9l784.2,0l0,-0.7l-784.2,0l0,0.7Z" class="g3_1881" />
<path d="M71.7,490.1l0.7,0l0,-48.2l-0.7,0l0,48.2Z" class="g3_1881" />
<path d="M185.9,490.8l0.7,0l0,-49.6l-0.7,0l0,49.6Z" class="g3_1881" />
<path d="M354.1,490.8l0.7,0l0,-49.6l-0.7,0l0,49.6Z" class="g3_1881" />
<path d="M524.2,490.8l0.8,0l0,-49.6l-0.8,0l0,49.6Z" class="g3_1881" />
<path d="M688.6,490.8l0.7,0l0,-49.6l-0.7,0l0,49.6Z" class="g3_1881" />
<path d="M850.3,490.1l0.7,0l0,-48.2l-0.7,0l0,48.2Z" class="g3_1881" />
<path d="M71.7,441.9l779.3,0l0,-0.7l-779.3,0l0,0.7Z" class="g3_1881" />
<path d="M71.7,466.4l779.3,0l0,-0.7l-779.3,0l0,0.7Z" class="g3_1881" />
<path d="M71.7,490.8l779.3,0l0,-0.8L71.7,490l0,0.8Z" class="g3_1881" />
</svg>