<?xml version="1.0" encoding="UTF-8" standalone="no"?>
<!DOCTYPE svg PUBLIC "-//W3C//DTD SVG 1.1//EN"
"http://www.w3.org/Graphics/SVG/1.1/DTD/svg11.dtd">
<svg viewBox="0 0 935 1210" version="1.1" xmlns="http://www.w3.org/2000/svg" xmlns:xlink="http://www.w3.org/1999/xlink">
<defs>
<style type="text/css"><![CDATA[
.g1_1569{
fill: #FFFFFF;
}
.g2_1569{
}
]]></style>
</defs>
<path d="M68.9,1149.3l686.3,0l0,-21.2l-686.3,0l0,21.2Z" class="g1_1569" />
<path d="M771.3,1149.3l83.7,0l0,-21.2l-83.7,0l0,21.2Z" class="g1_1569" />
<path d="M71.8,195.2l0.7,0l0,-72.6l-0.7,0l0,72.6Z" class="g2_1569" />
<path d="M184.3,196l0.8,0l0,-74.2l-0.8,0l0,74.2Z" class="g2_1569" />
<path d="M342.6,196l0.7,0l0,-74.2l-0.7,0l0,74.2Z" class="g2_1569" />
<path d="M508.4,196l0.7,0l0,-74.2l-0.7,0l0,74.2Z" class="g2_1569" />
<path d="M682,196l0.7,0l0,-74.2l-0.7,0l0,74.2Z" class="g2_1569" />
<path d="M850.2,195.2l0.7,0l0,-72.6l-0.7,0l0,72.6Z" class="g2_1569" />
<path d="M71.8,122.6l779.1,0l0,-0.8l-779.1,0l0,0.8Z" class="g2_1569" />
<path d="M71.8,147l779.1,0l0,-0.7l-779.1,0l0,0.7Z" class="g2_1569" />
<path d="M71.8,171.5l779.1,0l0,-0.7l-779.1,0l0,0.7Z" class="g2_1569" />
<path d="M71.8,195.9l779.1,0l0,-0.7l-779.1,0l0,0.7Z" class="g2_1569" />
</svg>