<?xml version="1.0" encoding="UTF-8" standalone="no"?>
<!DOCTYPE svg PUBLIC "-//W3C//DTD SVG 1.1//EN"
"http://www.w3.org/Graphics/SVG/1.1/DTD/svg11.dtd">
<svg viewBox="0 0 935 1210" version="1.1" xmlns="http://www.w3.org/2000/svg" xmlns:xlink="http://www.w3.org/1999/xlink">
<defs>
<style type="text/css"><![CDATA[
.g1_128{
fill: #FFFFFF;
}
.g2_128{
}
]]></style>
</defs>
<path d="M165,1149.3l687.5,0l0,-21.2l-687.5,0l0,21.2Z" class="g1_128" />
<path d="M68.8,1149.3l82.5,0l0,-21.2l-82.5,0l0,21.2Z" class="g1_128" />
<path d="M67.8,700.9l0.8,0l0,-575.2l-0.8,0l0,575.2Z" class="g2_128" />
<path d="M218.5,701.6l0.8,0l0,-576.7l-0.8,0l0,576.7Z" class="g2_128" />
<path d="M389.4,701.6l0.7,0l0,-576.7l-0.7,0l0,576.7Z" class="g2_128" />
<path d="M427.3,701.6l0.7,0l0,-576.7l-0.7,0l0,576.7Z" class="g2_128" />
<path d="M500.6,701.6l0.7,0l0,-576.7l-0.7,0l0,576.7Z" class="g2_128" />
<path d="M572,701.6l0.7,0l0,-576.7l-0.7,0l0,576.7Z" class="g2_128" />
<path d="M852.6,700.9l0.7,0l0,-575.2l-0.7,0l0,575.2Z" class="g2_128" />
<path d="M67.8,125.7l785.5,0l0,-0.8l-785.5,0l0,0.8Z" class="g2_128" />
<path d="M67.8,163.8l785.5,0l0,-0.7l-785.5,0l0,0.7Z" class="g2_128" />
<path d="M67.8,186.7l785.5,0l0,-0.7L67.8,186l0,0.7Z" class="g2_128" />
<path d="M67.8,209.6l785.5,0l0,-0.7l-785.5,0l0,0.7Z" class="g2_128" />
<path d="M67.8,232.6l785.5,0l0,-0.8l-785.5,0l0,0.8Z" class="g2_128" />
<path d="M67.8,272.3l785.5,0l0,-0.7l-785.5,0l0,0.7Z" class="g2_128" />
<path d="M67.8,295.3l785.5,0l0,-0.8l-785.5,0l0,0.8Z" class="g2_128" />
<path d="M67.8,318.2l785.5,0l0,-0.8l-785.5,0l0,0.8Z" class="g2_128" />
<path d="M67.8,341.1l785.5,0l0,-0.7l-785.5,0l0,0.7Z" class="g2_128" />
<path d="M67.8,364l785.5,0l0,-0.7l-785.5,0l0,0.7Z" class="g2_128" />
<path d="M67.8,403.7l785.5,0l0,-0.7L67.8,403l0,0.7Z" class="g2_128" />
<path d="M67.8,426.6l785.5,0l0,-0.7l-785.5,0l0,0.7Z" class="g2_128" />
<path d="M67.8,449.5l785.5,0l0,-0.7l-785.5,0l0,0.7Z" class="g2_128" />
<path d="M67.8,472.4l785.5,0l0,-0.7l-785.5,0l0,0.7Z" class="g2_128" />
<path d="M67.8,495.4l785.5,0l0,-0.8l-785.5,0l0,0.8Z" class="g2_128" />
<path d="M67.8,518.3l785.5,0l0,-0.7l-785.5,0l0,0.7Z" class="g2_128" />
<path d="M67.8,541.2l785.5,0l0,-0.7l-785.5,0l0,0.7Z" class="g2_128" />
<path d="M67.8,564.1l785.5,0l0,-0.7l-785.5,0l0,0.7Z" class="g2_128" />
<path d="M67.8,587l785.5,0l0,-0.7l-785.5,0l0,0.7Z" class="g2_128" />
<path d="M67.8,609.9l785.5,0l0,-0.7l-785.5,0l0,0.7Z" class="g2_128" />
<path d="M67.8,632.9l785.5,0l0,-0.8l-785.5,0l0,0.8Z" class="g2_128" />
<path d="M67.8,655.8l785.5,0l0,-0.7l-785.5,0l0,0.7Z" class="g2_128" />
<path d="M67.8,678.7l785.5,0l0,-0.7L67.8,678l0,0.7Z" class="g2_128" />
<path d="M67.8,701.6l785.5,0l0,-0.7l-785.5,0l0,0.7Z" class="g2_128" />
<path d="M70.2,917.9l0.8,0L71,796.4l-0.8,0l0,121.5Z" class="g2_128" />
<path d="M137.1,918.6l0.8,0l0,-122.9l-0.8,0l0,122.9Z" class="g2_128" />
<path d="M306.5,918.6l0.8,0l0,-122.9l-0.8,0l0,122.9Z" class="g2_128" />
<path d="M487.6,918.6l0.7,0l0,-122.9l-0.7,0l0,122.9Z" class="g2_128" />
<path d="M668,918.6l0.7,0l0,-122.9l-0.7,0l0,122.9Z" class="g2_128" />
<path d="M850.1,917.9l0.7,0l0,-121.5l-0.7,0l0,121.5Z" class="g2_128" />
<path d="M70.2,796.4l780.7,0l0,-0.7l-780.7,0l0,0.7Z" class="g2_128" />
<path d="M70.2,820.8l780.7,0l0,-0.7l-780.7,0l0,0.7Z" class="g2_128" />
<path d="M70.2,845.3l780.7,0l0,-0.8l-780.7,0l0,0.8Z" class="g2_128" />
<path d="M70.2,869.7l780.7,0l0,-0.7L70.2,869l0,0.7Z" class="g2_128" />
<path d="M70.2,894.1l780.7,0l0,-0.7l-780.7,0l0,0.7Z" class="g2_128" />
<path d="M70.2,918.6l780.7,0l0,-0.7l-780.7,0l0,0.7Z" class="g2_128" />
</svg>