<?xml version="1.0" encoding="UTF-8" standalone="no"?>
<!DOCTYPE svg PUBLIC "-//W3C//DTD SVG 1.1//EN"
"http://www.w3.org/Graphics/SVG/1.1/DTD/svg11.dtd">
<svg viewBox="0 0 935 1210" version="1.1" xmlns="http://www.w3.org/2000/svg" xmlns:xlink="http://www.w3.org/1999/xlink">
<defs>
<style type="text/css"><![CDATA[
.g1_2122{
fill: #FFFFFF;
}
.g2_2122{
}
]]></style>
</defs>
<path d="M68.8,1149.3l783.7,0l0,-21.2l-783.7,0l0,21.2Z" class="g1_2122" />
<path d="M68.6,1098.2l0.7,0l0,-974.1l-0.7,0l0,974.1Z" class="g2_2122" />
<path d="M445.7,1098.9l0.7,0l0,-975.5l-0.7,0l0,975.5Z" class="g2_2122" />
<path d="M849.9,1098.2l0.8,0l0,-974.1l-0.8,0l0,974.1Z" class="g2_2122" />
<path d="M68.6,124.1l782.1,0l0,-0.7l-782.1,0l0,0.7Z" class="g2_2122" />
<path d="M68.6,148.6l782.1,0l0,-0.7l-782.1,0l0,0.7Z" class="g2_2122" />
<path d="M68.6,173l782.1,0l0,-0.8l-782.1,0l0,0.8Z" class="g2_2122" />
<path d="M68.6,197.4l782.1,0l0,-0.7l-782.1,0l0,0.7Z" class="g2_2122" />
<path d="M68.6,238.7l782.1,0l0,-0.7L68.6,238l0,0.7Z" class="g2_2122" />
<path d="M68.6,263.2l782.1,0l0,-0.8l-782.1,0l0,0.8Z" class="g2_2122" />
<path d="M68.6,287.6l782.1,0l0,-0.8l-782.1,0l0,0.8Z" class="g2_2122" />
<path d="M68.6,328.8l782.1,0l0,-0.7l-782.1,0l0,0.7Z" class="g2_2122" />
<path d="M68.6,353.3l782.1,0l0,-0.7l-782.1,0l0,0.7Z" class="g2_2122" />
<path d="M68.6,377.8l782.1,0l0,-0.8L68.6,377l0,0.8Z" class="g2_2122" />
<path d="M68.6,419l782.1,0l0,-0.7l-782.1,0l0,0.7Z" class="g2_2122" />
<path d="M68.6,443.5l782.1,0l0,-0.8l-782.1,0l0,0.8Z" class="g2_2122" />
<path d="M68.6,467.9l782.1,0l0,-0.8l-782.1,0l0,0.8Z" class="g2_2122" />
<path d="M68.6,509.1l782.1,0l0,-0.7l-782.1,0l0,0.7Z" class="g2_2122" />
<path d="M68.6,533.6l782.1,0l0,-0.7l-782.1,0l0,0.7Z" class="g2_2122" />
<path d="M68.6,558.1l782.1,0l0,-0.8l-782.1,0l0,0.8Z" class="g2_2122" />
<path d="M68.6,599.3l782.1,0l0,-0.7l-782.1,0l0,0.7Z" class="g2_2122" />
<path d="M68.6,623.7l782.1,0l0,-0.7L68.6,623l0,0.7Z" class="g2_2122" />
<path d="M68.6,648.2l782.1,0l0,-0.8l-782.1,0l0,0.8Z" class="g2_2122" />
<path d="M68.6,689.4l782.1,0l0,-0.7l-782.1,0l0,0.7Z" class="g2_2122" />
<path d="M68.6,713.9l782.1,0l0,-0.7l-782.1,0l0,0.7Z" class="g2_2122" />
<path d="M68.6,738.3l782.1,0l0,-0.8l-782.1,0l0,0.8Z" class="g2_2122" />
<path d="M68.6,779.5l782.1,0l0,-0.7l-782.1,0l0,0.7Z" class="g2_2122" />
<path d="M68.6,804l782.1,0l0,-0.7l-782.1,0l0,0.7Z" class="g2_2122" />
<path d="M68.6,828.5l782.1,0l0,-0.8l-782.1,0l0,0.8Z" class="g2_2122" />
<path d="M68.6,869.7l782.1,0l0,-0.7L68.6,869l0,0.7Z" class="g2_2122" />
<path d="M68.6,894.1l782.1,0l0,-0.7l-782.1,0l0,0.7Z" class="g2_2122" />
<path d="M68.6,918.6l782.1,0l0,-0.7l-782.1,0l0,0.7Z" class="g2_2122" />
<path d="M68.6,959.8l782.1,0l0,-0.7l-782.1,0l0,0.7Z" class="g2_2122" />
<path d="M68.6,984.3l782.1,0l0,-0.7l-782.1,0l0,0.7Z" class="g2_2122" />
<path d="M68.6,1008.7l782.1,0l0,-0.7l-782.1,0l0,0.7Z" class="g2_2122" />
<path d="M68.6,1050l782.1,0l0,-0.8l-782.1,0l0,0.8Z" class="g2_2122" />
<path d="M68.6,1074.4l782.1,0l0,-0.7l-782.1,0l0,0.7Z" class="g2_2122" />
<path d="M68.6,1098.9l782.1,0l0,-0.7l-782.1,0l0,0.7Z" class="g2_2122" />
</svg>