<?xml version="1.0" encoding="UTF-8" standalone="no"?>
<!DOCTYPE svg PUBLIC "-//W3C//DTD SVG 1.1//EN"
"http://www.w3.org/Graphics/SVG/1.1/DTD/svg11.dtd">
<svg viewBox="0 0 935 1210" version="1.1" xmlns="http://www.w3.org/2000/svg" xmlns:xlink="http://www.w3.org/1999/xlink">
<defs>
<style type="text/css"><![CDATA[
.g1_1011{
fill: #FFFFFF;
}
.g2_1011{
}
]]></style>
</defs>
<path d="M68.9,1149.3l686.3,0l0,-21.2l-686.3,0l0,21.2Z" class="g1_1011" />
<path d="M771.3,1149.3l83.7,0l0,-21.2l-83.7,0l0,21.2Z" class="g1_1011" />
<path d="M69.9,546.6l0.8,0l0,-420.9l-0.8,0l0,420.9Z" class="g2_1011" />
<path d="M284.2,547.3l0.7,0l0,-422.4l-0.7,0l0,422.4Z" class="g2_1011" />
<path d="M333.5,547.3l0.7,0l0,-422.4l-0.7,0l0,422.4Z" class="g2_1011" />
<path d="M407.9,547.3l0.8,0l0,-422.4l-0.8,0l0,422.4Z" class="g2_1011" />
<path d="M492.1,547.3l0.7,0l0,-422.4l-0.7,0l0,422.4Z" class="g2_1011" />
<path d="M854.8,546.6l0.7,0l0,-420.9l-0.7,0l0,420.9Z" class="g2_1011" />
<path d="M69.9,125.7l785.7,0l0,-0.8l-785.7,0l0,0.8Z" class="g2_1011" />
<path d="M69.9,176.1l785.7,0l0,-0.7l-785.7,0l0,0.7Z" class="g2_1011" />
<path d="M69.9,229.5l785.7,0l0,-0.7l-785.7,0l0,0.7Z" class="g2_1011" />
<path d="M69.9,283l785.7,0l0,-0.8l-785.7,0l0,0.8Z" class="g2_1011" />
<path d="M69.9,336.5l785.7,0l0,-0.7l-785.7,0l0,0.7Z" class="g2_1011" />
<path d="M69.9,406.8l785.7,0l0,-0.7l-785.7,0l0,0.7Z" class="g2_1011" />
<path d="M69.9,477l785.7,0l0,-0.7l-785.7,0l0,0.7Z" class="g2_1011" />
<path d="M69.9,547.3l785.7,0l0,-0.7l-785.7,0l0,0.7Z" class="g2_1011" />
<path d="M72,699.3l0.7,0l0,-97l-0.7,0l0,97Z" class="g2_1011" />
<path d="M187.6,700.2l0.8,0l0,-98.6l-0.8,0l0,98.6Z" class="g2_1011" />
<path d="M342.4,700.2l0.7,0l0,-98.6l-0.7,0l0,98.6Z" class="g2_1011" />
<path d="M518.6,700.2l0.7,0l0,-98.6l-0.7,0l0,98.6Z" class="g2_1011" />
<path d="M688.1,700.2l0.8,0l0,-98.6l-0.8,0l0,98.6Z" class="g2_1011" />
<path d="M850,699.3l0.8,0l0,-97l-0.8,0l0,97Z" class="g2_1011" />
<path d="M72,602.3l778.8,0l0,-0.7L72,601.6l0,0.7Z" class="g2_1011" />
<path d="M72,626.8l778.8,0l0,-0.7L72,626.1l0,0.7Z" class="g2_1011" />
<path d="M72,651.2l778.8,0l0,-0.7L72,650.5l0,0.7Z" class="g2_1011" />
<path d="M72,675.7l778.8,0l0,-0.8L72,674.9l0,0.8Z" class="g2_1011" />
<path d="M72,700.2l778.8,0l0,-0.8L72,699.4l0,0.8Z" class="g2_1011" />
</svg>