<?xml version="1.0" encoding="UTF-8" standalone="no"?>
<!DOCTYPE svg PUBLIC "-//W3C//DTD SVG 1.1//EN"
"http://www.w3.org/Graphics/SVG/1.1/DTD/svg11.dtd">
<svg viewBox="0 0 935 1210" version="1.1" xmlns="http://www.w3.org/2000/svg" xmlns:xlink="http://www.w3.org/1999/xlink">
<defs>
<style type="text/css"><![CDATA[
.g1_2044{
fill: #FFFFFF;
}
.g2_2044{
}
]]></style>
</defs>
<path d="M68.8,1149l784.5,0l0,-21.4l-784.5,0l0,21.4Z" class="g1_2044" />
<path d="M67.5,352.8l2.3,0l0,-180.6l-2.3,0l0,180.6Z" class="g2_2044" />
<path d="M67.5,556l2.3,0l0,-180.5l-2.3,0l0,180.5Z" class="g2_2044" />
<path d="M104,355.1l2.3,0l0,-185.2l-2.3,0l0,185.2Z" class="g2_2044" />
<path d="M104,558.3l2.3,0l0,-185.1l-2.3,0l0,185.1Z" class="g2_2044" />
<path d="M202.9,192.6l0.8,0l0,-22.7l-0.8,0l0,22.7Z" class="g2_2044" />
<path d="M202.9,355.1l0.8,0l0,-143.7l-0.8,0l0,143.7Z" class="g2_2044" />
<path d="M202.9,395.8l0.8,0l0,-22.6l-0.8,0l0,22.6Z" class="g2_2044" />
<path d="M202.9,435.7l0.8,0l0,-21.1l-0.8,0l0,21.1Z" class="g2_2044" />
<path d="M202.9,558.3l0.8,0l0,-103.1l-0.8,0l0,103.1Z" class="g2_2044" />
<path d="M294.8,192.6l0.7,0l0,-22.7l-0.7,0l0,22.7Z" class="g2_2044" />
<path d="M294.8,355.1l0.7,0l0,-143.7l-0.7,0l0,143.7Z" class="g2_2044" />
<path d="M294.8,395.8l0.7,0l0,-22.6l-0.7,0l0,22.6Z" class="g2_2044" />
<path d="M294.8,435.7l0.7,0l0,-21.1l-0.7,0l0,21.1Z" class="g2_2044" />
<path d="M294.8,558.3l0.7,0l0,-103.1l-0.7,0l0,103.1Z" class="g2_2044" />
<path d="M387,192.6l0.8,0l0,-22.7l-0.8,0l0,22.7Z" class="g2_2044" />
<path d="M387,355.1l0.8,0l0,-143.7l-0.8,0l0,143.7Z" class="g2_2044" />
<path d="M387,395.8l0.8,0l0,-22.6l-0.8,0l0,22.6Z" class="g2_2044" />
<path d="M387,435.7l0.8,0l0,-21.1l-0.8,0l0,21.1Z" class="g2_2044" />
<path d="M387,558.3l0.8,0l0,-103.1l-0.8,0l0,103.1Z" class="g2_2044" />
<path d="M479.1,192.6l0.8,0l0,-22.7l-0.8,0l0,22.7Z" class="g2_2044" />
<path d="M479.1,355.1l0.8,0l0,-143.7l-0.8,0l0,143.7Z" class="g2_2044" />
<path d="M479.1,395.8l0.8,0l0,-22.6l-0.8,0l0,22.6Z" class="g2_2044" />
<path d="M479.1,435.7l0.8,0l0,-21.1l-0.8,0l0,21.1Z" class="g2_2044" />
<path d="M479.1,558.3l0.8,0l0,-103.1l-0.8,0l0,103.1Z" class="g2_2044" />
<path d="M571.4,192.6l0.7,0l0,-22.7l-0.7,0l0,22.7Z" class="g2_2044" />
<path d="M571.4,355.1l0.7,0l0,-143.7l-0.7,0l0,143.7Z" class="g2_2044" />
<path d="M571.4,395.8l0.7,0l0,-22.6l-0.7,0l0,22.6Z" class="g2_2044" />
<path d="M571.4,435.7l0.7,0l0,-21.1l-0.7,0l0,21.1Z" class="g2_2044" />
<path d="M571.4,558.3l0.7,0l0,-103.1l-0.7,0l0,103.1Z" class="g2_2044" />
<path d="M663.5,192.6l0.7,0l0,-22.7l-0.7,0l0,22.7Z" class="g2_2044" />
<path d="M663.5,355.1l0.7,0l0,-143.7l-0.7,0l0,143.7Z" class="g2_2044" />
<path d="M663.5,395.8l0.7,0l0,-22.6l-0.7,0l0,22.6Z" class="g2_2044" />
<path d="M663.5,435.7l0.7,0l0,-21.1l-0.7,0l0,21.1Z" class="g2_2044" />
<path d="M663.5,558.3l0.7,0l0,-103.1l-0.7,0l0,103.1Z" class="g2_2044" />
<path d="M759.4,192.6l0.7,0l0,-22.7l-0.7,0l0,22.7Z" class="g2_2044" />
<path d="M759.4,355.1l0.7,0l0,-143.7l-0.7,0l0,143.7Z" class="g2_2044" />
<path d="M759.4,395.8l0.7,0l0,-22.6l-0.7,0l0,22.6Z" class="g2_2044" />
<path d="M759.4,435.7l0.7,0l0,-21.1l-0.7,0l0,21.1Z" class="g2_2044" />
<path d="M759.4,558.3l0.7,0l0,-103.1l-0.7,0l0,103.1Z" class="g2_2044" />
<path d="M851,352.8l2.3,0l0,-180.6l-2.3,0l0,180.6Z" class="g2_2044" />
<path d="M851,393.5l2.3,0l0,-18l-2.3,0l0,18Z" class="g2_2044" />
<path d="M851.8,414.6l0.7,0l0,-18.8l-0.7,0l0,18.8Z" class="g2_2044" />
<path d="M851,556l2.3,0l0,-140.7l-2.3,0L851,556Z" class="g2_2044" />
<path d="M67.4,172.3l785.8,0l0,-2.3L67.4,170l0,2.3Z" class="g2_2044" />
<path d="M67.4,192.6l785.8,0l0,-2.3l-785.8,0l0,2.3Z" class="g2_2044" />
<path d="M104,212.1l749.2,0l0,-0.7l-749.2,0l0,0.7Z" class="g2_2044" />
<path d="M67.4,232.5l785.8,0l0,-0.8l-785.8,0l0,0.8Z" class="g2_2044" />
<path d="M67.4,273.1l785.8,0l0,-0.8l-785.8,0l0,0.8Z" class="g2_2044" />
<path d="M67.4,313.7l785.8,0l0,-0.7L67.4,313l0,0.7Z" class="g2_2044" />
<path d="M67.4,355.2l785.8,0l0,-2.3l-785.8,0l0,2.3Z" class="g2_2044" />
<path d="M67.4,375.5l785.8,0l0,-2.3l-785.8,0l0,2.3Z" class="g2_2044" />
<path d="M67.4,395.8l785.8,0l0,-2.3l-785.8,0l0,2.3Z" class="g2_2044" />
<path d="M104,415.3l749.2,0l0,-0.7l-749.2,0l0,0.7Z" class="g2_2044" />
<path d="M67.4,435.7l785.8,0l0,-0.7L67.4,435l0,0.7Z" class="g2_2044" />
<path d="M104,456l749.2,0l0,-0.8l-749.2,0l0,0.8Z" class="g2_2044" />
<path d="M67.4,476.3l785.8,0l0,-0.7l-785.8,0l0,0.7Z" class="g2_2044" />
<path d="M67.4,516.9l785.8,0l0,-0.7l-785.8,0l0,0.7Z" class="g2_2044" />
<path d="M67.4,558.4l785.8,0l0,-2.3l-785.8,0l0,2.3Z" class="g2_2044" />
<path d="M67.5,801.7l2.3,0l0,-81.7l-2.3,0l0,81.7Z" class="g2_2044" />
<path d="M166.1,804l0.7,0l0,-62.6l-0.7,0l0,62.6Z" class="g2_2044" />
<path d="M264,804l0.7,0l0,-62.6l-0.7,0l0,62.6Z" class="g2_2044" />
<path d="M361.9,804l0.7,0l0,-62.6l-0.7,0l0,62.6Z" class="g2_2044" />
<path d="M459.9,804l0.7,0l0,-62.6l-0.7,0l0,62.6Z" class="g2_2044" />
<path d="M557.8,804l0.7,0l0,-62.6l-0.7,0l0,62.6Z" class="g2_2044" />
<path d="M655.7,804l0.7,0l0,-62.6l-0.7,0l0,62.6Z" class="g2_2044" />
<path d="M753.6,804l0.7,0l0,-62.6l-0.7,0l0,62.6Z" class="g2_2044" />
<path d="M850.8,801.7l2.3,0l0,-81.7l-2.3,0l0,81.7Z" class="g2_2044" />
<path d="M67.4,720L853,720l0,-2.3l-785.6,0l0,2.3Z" class="g2_2044" />
<path d="M67.4,742.1l785.6,0l0,-0.7l-785.6,0l0,0.7Z" class="g2_2044" />
<path d="M67.4,765.9l785.6,0l0,-2.3l-785.6,0l0,2.3Z" class="g2_2044" />
<path d="M67.4,804.1l785.6,0l0,-2.3l-785.6,0l0,2.3Z" class="g2_2044" />
</svg>