<?xml version="1.0" encoding="UTF-8" standalone="no"?>
<!DOCTYPE svg PUBLIC "-//W3C//DTD SVG 1.1//EN"
"http://www.w3.org/Graphics/SVG/1.1/DTD/svg11.dtd">
<svg viewBox="0 0 935 1210" version="1.1" xmlns="http://www.w3.org/2000/svg" xmlns:xlink="http://www.w3.org/1999/xlink">
<defs>
<style type="text/css"><![CDATA[
.g1_1173{
fill: #FFFFFF;
}
.g2_1173{
}
]]></style>
</defs>
<path d="M68.9,1149.3l686.3,0l0,-21.2l-686.3,0l0,21.2Z" class="g1_1173" />
<path d="M771.3,1149.3l83.7,0l0,-21.2l-83.7,0l0,21.2Z" class="g1_1173" />
<path d="M72.6,1092l0.7,0l0,-957.2l-0.7,0l0,957.2Z" class="g2_1173" />
<path d="M220.6,1092.8l0.8,0l0,-958.7l-0.8,0l0,958.7Z" class="g2_1173" />
<path d="M388.5,1092.8l0.7,0l0,-958.7l-0.7,0l0,958.7Z" class="g2_1173" />
<path d="M426.3,1092.8l0.8,0l0,-958.7l-0.8,0l0,958.7Z" class="g2_1173" />
<path d="M499.7,1092.8l0.7,0l0,-958.7l-0.7,0l0,958.7Z" class="g2_1173" />
<path d="M571.1,1092.8l0.7,0l0,-958.7l-0.7,0l0,958.7Z" class="g2_1173" />
<path d="M849.4,1092l0.7,0l0,-957.2l-0.7,0l0,957.2Z" class="g2_1173" />
<path d="M72.6,134.8l777.5,0l0,-0.7l-777.5,0l0,0.7Z" class="g2_1173" />
<path d="M72.6,173l777.5,0l0,-0.8l-777.5,0l0,0.8Z" class="g2_1173" />
<path d="M72.6,195.9l777.5,0l0,-0.7l-777.5,0l0,0.7Z" class="g2_1173" />
<path d="M72.6,218.8l777.5,0l0,-0.7l-777.5,0l0,0.7Z" class="g2_1173" />
<path d="M72.6,241.7l777.5,0l0,-0.7L72.6,241l0,0.7Z" class="g2_1173" />
<path d="M72.6,264.6l777.5,0l0,-0.7l-777.5,0l0,0.7Z" class="g2_1173" />
<path d="M72.6,287.6l777.5,0l0,-0.8l-777.5,0l0,0.8Z" class="g2_1173" />
<path d="M72.6,310.5l777.5,0l0,-0.8l-777.5,0l0,0.8Z" class="g2_1173" />
<path d="M72.6,333.4l777.5,0l0,-0.7l-777.5,0l0,0.7Z" class="g2_1173" />
<path d="M72.6,356.3l777.5,0l0,-0.7l-777.5,0l0,0.7Z" class="g2_1173" />
<path d="M72.6,379.2l777.5,0l0,-0.7l-777.5,0l0,0.7Z" class="g2_1173" />
<path d="M72.6,402.2l777.5,0l0,-0.7l-777.5,0l0,0.7Z" class="g2_1173" />
<path d="M72.6,441.9l777.5,0l0,-0.7l-777.5,0l0,0.7Z" class="g2_1173" />
<path d="M72.6,464.8l777.5,0l0,-0.7l-777.5,0l0,0.7Z" class="g2_1173" />
<path d="M72.6,504.5l777.5,0l0,-0.7l-777.5,0l0,0.7Z" class="g2_1173" />
<path d="M72.6,527.4l777.5,0l0,-0.7l-777.5,0l0,0.7Z" class="g2_1173" />
<path d="M72.6,567.2l777.5,0l0,-0.7l-777.5,0l0,0.7Z" class="g2_1173" />
<path d="M72.6,590.2l777.5,0l0,-0.8l-777.5,0l0,0.8Z" class="g2_1173" />
<path d="M72.6,613.1l777.5,0l0,-0.8l-777.5,0l0,0.8Z" class="g2_1173" />
<path d="M72.6,636l777.5,0l0,-0.8l-777.5,0l0,0.8Z" class="g2_1173" />
<path d="M72.6,658.9l777.5,0l0,-0.7l-777.5,0l0,0.7Z" class="g2_1173" />
<path d="M72.6,681.8l777.5,0l0,-0.7l-777.5,0l0,0.7Z" class="g2_1173" />
<path d="M72.6,704.7l777.5,0l0,-0.7L72.6,704l0,0.7Z" class="g2_1173" />
<path d="M72.6,727.7l777.5,0l0,-0.8l-777.5,0l0,0.8Z" class="g2_1173" />
<path d="M72.6,750.6l777.5,0l0,-0.8l-777.5,0l0,0.8Z" class="g2_1173" />
<path d="M72.6,773.5l777.5,0l0,-0.8l-777.5,0l0,0.8Z" class="g2_1173" />
<path d="M72.6,813.2l777.5,0l0,-0.8l-777.5,0l0,0.8Z" class="g2_1173" />
<path d="M72.6,852.9l777.5,0l0,-0.8l-777.5,0l0,0.8Z" class="g2_1173" />
<path d="M72.6,875.8l777.5,0l0,-0.7l-777.5,0l0,0.7Z" class="g2_1173" />
<path d="M72.6,915.6l777.5,0l0,-0.8l-777.5,0l0,0.8Z" class="g2_1173" />
<path d="M72.6,938.5l777.5,0l0,-0.7l-777.5,0l0,0.7Z" class="g2_1173" />
<path d="M72.6,978.2l777.5,0l0,-0.8l-777.5,0l0,0.8Z" class="g2_1173" />
<path d="M72.6,1001.1l777.5,0l0,-0.7l-777.5,0l0,0.7Z" class="g2_1173" />
<path d="M72.6,1024l777.5,0l0,-0.7l-777.5,0l0,0.7Z" class="g2_1173" />
<path d="M72.6,1046.9l777.5,0l0,-0.7l-777.5,0l0,0.7Z" class="g2_1173" />
<path d="M72.6,1069.8l777.5,0l0,-0.7l-777.5,0l0,0.7Z" class="g2_1173" />
<path d="M72.6,1092.8l777.5,0l0,-0.8l-777.5,0l0,0.8Z" class="g2_1173" />
</svg>