<?xml version="1.0" encoding="UTF-8" standalone="no"?>
<!DOCTYPE svg PUBLIC "-//W3C//DTD SVG 1.1//EN"
"http://www.w3.org/Graphics/SVG/1.1/DTD/svg11.dtd">
<svg viewBox="0 0 935 1210" version="1.1" xmlns="http://www.w3.org/2000/svg" xmlns:xlink="http://www.w3.org/1999/xlink">
<defs>
<style type="text/css"><![CDATA[
.g1_2047{
fill: #FFFFFF;
}
.g2_2047{
}
]]></style>
</defs>
<path d="M68.9,1149l783.8,0l0,-21.4l-783.8,0l0,21.4Z" class="g1_2047" />
<path d="M69.2,374.7l2.3,0l0,-203.9l-2.3,0l0,203.9Z" class="g2_2047" />
<path d="M69.2,603.9l2.3,0l0,-204l-2.3,0l0,204Z" class="g2_2047" />
<path d="M105.8,377l2.3,0l0,-208.5l-2.3,0l0,208.5Z" class="g2_2047" />
<path d="M105.8,606.2l2.3,0l0,-208.5l-2.3,0l0,208.5Z" class="g2_2047" />
<path d="M204.3,193.7l0.8,0l0,-25.2l-0.8,0l0,25.2Z" class="g2_2047" />
<path d="M204.3,238.7l0.8,0l0,-23.6l-0.8,0l0,23.6Z" class="g2_2047" />
<path d="M204.3,284.5l0.8,0l0,-23.6l-0.8,0l0,23.6Z" class="g2_2047" />
<path d="M204.3,330.4l0.8,0l0,-23.7l-0.8,0l0,23.7Z" class="g2_2047" />
<path d="M204.3,377l0.8,0l0,-24.4l-0.8,0l0,24.4Z" class="g2_2047" />
<path d="M204.3,422.9l0.8,0l0,-25.2l-0.8,0l0,25.2Z" class="g2_2047" />
<path d="M204.3,467.9l0.8,0l0,-23.7l-0.8,0l0,23.7Z" class="g2_2047" />
<path d="M204.3,513.7l0.8,0l0,-23.7l-0.8,0l0,23.7Z" class="g2_2047" />
<path d="M204.3,559.5l0.8,0l0,-23.6l-0.8,0l0,23.6Z" class="g2_2047" />
<path d="M204.3,606.2l0.8,0l0,-24.5l-0.8,0l0,24.5Z" class="g2_2047" />
<path d="M295.9,193.7l0.7,0l0,-25.2l-0.7,0l0,25.2Z" class="g2_2047" />
<path d="M295.9,238.7l0.7,0l0,-23.6l-0.7,0l0,23.6Z" class="g2_2047" />
<path d="M295.9,284.5l0.7,0l0,-23.6l-0.7,0l0,23.6Z" class="g2_2047" />
<path d="M295.9,330.4l0.7,0l0,-23.7l-0.7,0l0,23.7Z" class="g2_2047" />
<path d="M295.9,377l0.7,0l0,-24.4l-0.7,0l0,24.4Z" class="g2_2047" />
<path d="M295.9,422.9l0.7,0l0,-25.2l-0.7,0l0,25.2Z" class="g2_2047" />
<path d="M295.9,467.9l0.7,0l0,-23.7l-0.7,0l0,23.7Z" class="g2_2047" />
<path d="M295.9,513.7l0.7,0l0,-23.7l-0.7,0l0,23.7Z" class="g2_2047" />
<path d="M295.9,559.5l0.7,0l0,-23.6l-0.7,0l0,23.6Z" class="g2_2047" />
<path d="M295.9,606.2l0.7,0l0,-24.5l-0.7,0l0,24.5Z" class="g2_2047" />
<path d="M387.7,193.7l0.7,0l0,-25.2l-0.7,0l0,25.2Z" class="g2_2047" />
<path d="M387.7,238.7l0.7,0l0,-23.6l-0.7,0l0,23.6Z" class="g2_2047" />
<path d="M387.7,284.5l0.7,0l0,-23.6l-0.7,0l0,23.6Z" class="g2_2047" />
<path d="M387.7,330.4l0.7,0l0,-23.7l-0.7,0l0,23.7Z" class="g2_2047" />
<path d="M387.7,377l0.7,0l0,-24.4l-0.7,0l0,24.4Z" class="g2_2047" />
<path d="M387.7,422.9l0.7,0l0,-25.2l-0.7,0l0,25.2Z" class="g2_2047" />
<path d="M387.7,467.9l0.7,0l0,-23.7l-0.7,0l0,23.7Z" class="g2_2047" />
<path d="M387.7,513.7l0.7,0l0,-23.7l-0.7,0l0,23.7Z" class="g2_2047" />
<path d="M387.7,559.5l0.7,0l0,-23.6l-0.7,0l0,23.6Z" class="g2_2047" />
<path d="M387.7,606.2l0.7,0l0,-24.5l-0.7,0l0,24.5Z" class="g2_2047" />
<path d="M479.5,193.7l0.7,0l0,-25.2l-0.7,0l0,25.2Z" class="g2_2047" />
<path d="M479.5,238.7l0.7,0l0,-23.6l-0.7,0l0,23.6Z" class="g2_2047" />
<path d="M479.5,284.5l0.7,0l0,-23.6l-0.7,0l0,23.6Z" class="g2_2047" />
<path d="M479.5,330.4l0.7,0l0,-23.7l-0.7,0l0,23.7Z" class="g2_2047" />
<path d="M479.5,377l0.7,0l0,-24.4l-0.7,0l0,24.4Z" class="g2_2047" />
<path d="M479.5,422.9l0.7,0l0,-25.2l-0.7,0l0,25.2Z" class="g2_2047" />
<path d="M479.5,467.9l0.7,0l0,-23.7l-0.7,0l0,23.7Z" class="g2_2047" />
<path d="M479.5,513.7l0.7,0l0,-23.7l-0.7,0l0,23.7Z" class="g2_2047" />
<path d="M479.5,559.5l0.7,0l0,-23.6l-0.7,0l0,23.6Z" class="g2_2047" />
<path d="M479.5,606.2l0.7,0l0,-24.5l-0.7,0l0,24.5Z" class="g2_2047" />
<path d="M571.4,193.7l0.7,0l0,-25.2l-0.7,0l0,25.2Z" class="g2_2047" />
<path d="M571.4,238.7l0.7,0l0,-23.6l-0.7,0l0,23.6Z" class="g2_2047" />
<path d="M571.4,284.5l0.7,0l0,-23.6l-0.7,0l0,23.6Z" class="g2_2047" />
<path d="M571.4,330.4l0.7,0l0,-23.7l-0.7,0l0,23.7Z" class="g2_2047" />
<path d="M571.4,377l0.7,0l0,-24.4l-0.7,0l0,24.4Z" class="g2_2047" />
<path d="M571.4,422.9l0.7,0l0,-25.2l-0.7,0l0,25.2Z" class="g2_2047" />
<path d="M571.4,467.9l0.7,0l0,-23.7l-0.7,0l0,23.7Z" class="g2_2047" />
<path d="M571.4,513.7l0.7,0l0,-23.7l-0.7,0l0,23.7Z" class="g2_2047" />
<path d="M571.4,559.5l0.7,0l0,-23.6l-0.7,0l0,23.6Z" class="g2_2047" />
<path d="M571.4,606.2l0.7,0l0,-24.5l-0.7,0l0,24.5Z" class="g2_2047" />
<path d="M663.1,193.7l0.7,0l0,-25.2l-0.7,0l0,25.2Z" class="g2_2047" />
<path d="M663.1,238.7l0.7,0l0,-23.6l-0.7,0l0,23.6Z" class="g2_2047" />
<path d="M663.1,284.5l0.7,0l0,-23.6l-0.7,0l0,23.6Z" class="g2_2047" />
<path d="M663.1,330.4l0.7,0l0,-23.7l-0.7,0l0,23.7Z" class="g2_2047" />
<path d="M663.1,377l0.7,0l0,-24.4l-0.7,0l0,24.4Z" class="g2_2047" />
<path d="M663.1,422.9l0.7,0l0,-25.2l-0.7,0l0,25.2Z" class="g2_2047" />
<path d="M663.1,467.9l0.7,0l0,-23.7l-0.7,0l0,23.7Z" class="g2_2047" />
<path d="M663.1,513.7l0.7,0l0,-23.7l-0.7,0l0,23.7Z" class="g2_2047" />
<path d="M663.1,559.5l0.7,0l0,-23.6l-0.7,0l0,23.6Z" class="g2_2047" />
<path d="M663.1,606.2l0.7,0l0,-24.5l-0.7,0l0,24.5Z" class="g2_2047" />
<path d="M758.6,193.7l0.8,0l0,-25.2l-0.8,0l0,25.2Z" class="g2_2047" />
<path d="M758.6,238.7l0.8,0l0,-23.6l-0.8,0l0,23.6Z" class="g2_2047" />
<path d="M758.6,284.5l0.8,0l0,-23.6l-0.8,0l0,23.6Z" class="g2_2047" />
<path d="M758.6,330.4l0.8,0l0,-23.7l-0.8,0l0,23.7Z" class="g2_2047" />
<path d="M758.6,377l0.8,0l0,-24.4l-0.8,0l0,24.4Z" class="g2_2047" />
<path d="M758.6,422.9l0.8,0l0,-25.2l-0.8,0l0,25.2Z" class="g2_2047" />
<path d="M758.6,467.9l0.8,0l0,-23.7l-0.8,0l0,23.7Z" class="g2_2047" />
<path d="M758.6,513.7l0.8,0l0,-23.7l-0.8,0l0,23.7Z" class="g2_2047" />
<path d="M758.6,559.5l0.8,0l0,-23.6l-0.8,0l0,23.6Z" class="g2_2047" />
<path d="M758.6,606.2l0.8,0l0,-24.5l-0.8,0l0,24.5Z" class="g2_2047" />
<path d="M852,374.7l2.2,0l0,-203.9l-2.2,0l0,203.9Z" class="g2_2047" />
<path d="M852,603.9l2.2,0l0,-204l-2.2,0l0,204Z" class="g2_2047" />
<path d="M69.1,170.8l785.1,0l0,-2.3l-785.1,0l0,2.3Z" class="g2_2047" />
<path d="M69.1,193.7l785.1,0l0,-2.3l-785.1,0l0,2.3Z" class="g2_2047" />
<path d="M105.8,215.8l748.4,0l0,-0.8l-748.4,0l0,0.8Z" class="g2_2047" />
<path d="M69.1,238.7l785.1,0l0,-0.7L69.1,238l0,0.7Z" class="g2_2047" />
<path d="M105.8,261.6l748.4,0l0,-0.7l-748.4,0l0,0.7Z" class="g2_2047" />
<path d="M69.1,284.5l785.1,0l0,-0.7l-785.1,0l0,0.7Z" class="g2_2047" />
<path d="M105.8,307.4l748.4,0l0,-0.7l-748.4,0l0,0.7Z" class="g2_2047" />
<path d="M69.1,330.4l785.1,0l0,-0.8l-785.1,0l0,0.8Z" class="g2_2047" />
<path d="M105.8,353.3l748.4,0l0,-0.7l-748.4,0l0,0.7Z" class="g2_2047" />
<path d="M69.1,377l785.1,0l0,-2.3l-785.1,0l0,2.3Z" class="g2_2047" />
<path d="M69.1,399.9l785.1,0l0,-2.2l-785.1,0l0,2.2Z" class="g2_2047" />
<path d="M69.1,422.9l785.1,0l0,-2.3l-785.1,0l0,2.3Z" class="g2_2047" />
<path d="M105.8,444.9l748.4,0l0,-0.7l-748.4,0l0,0.7Z" class="g2_2047" />
<path d="M69.1,467.9l785.1,0l0,-0.8l-785.1,0l0,0.8Z" class="g2_2047" />
<path d="M105.8,490.8l748.4,0l0,-0.8l-748.4,0l0,0.8Z" class="g2_2047" />
<path d="M69.1,513.7l785.1,0l0,-0.7L69.1,513l0,0.7Z" class="g2_2047" />
<path d="M105.8,536.6l748.4,0l0,-0.7l-748.4,0l0,0.7Z" class="g2_2047" />
<path d="M69.1,559.5l785.1,0l0,-0.7l-785.1,0l0,0.7Z" class="g2_2047" />
<path d="M105.8,582.4l748.4,0l0,-0.7l-748.4,0l0,0.7Z" class="g2_2047" />
<path d="M69.1,606.2l785.1,0l0,-2.3l-785.1,0l0,2.3Z" class="g2_2047" />
<path d="M69.2,852.1l2.3,0l0,-81.7l-2.3,0l0,81.7Z" class="g2_2047" />
<path d="M167.8,854.4l0.8,0l0,-62.6l-0.8,0l0,62.6Z" class="g2_2047" />
<path d="M265.7,854.4l0.8,0l0,-62.6l-0.8,0l0,62.6Z" class="g2_2047" />
<path d="M363.7,854.4l0.8,0l0,-62.6l-0.8,0l0,62.6Z" class="g2_2047" />
<path d="M461.6,854.4l0.8,0l0,-62.6l-0.8,0l0,62.6Z" class="g2_2047" />
<path d="M559.5,854.4l0.8,0l0,-62.6l-0.8,0l0,62.6Z" class="g2_2047" />
<path d="M657.5,854.4l0.8,0l0,-62.6l-0.8,0l0,62.6Z" class="g2_2047" />
<path d="M755.4,854.4l0.8,0l0,-62.6l-0.8,0l0,62.6Z" class="g2_2047" />
<path d="M852.6,852.1l2.3,0l0,-81.7l-2.3,0l0,81.7Z" class="g2_2047" />
<path d="M69.1,770.5l785.8,0l0,-2.3l-785.8,0l0,2.3Z" class="g2_2047" />
<path d="M69.1,792.6l785.8,0l0,-0.8l-785.8,0l0,0.8Z" class="g2_2047" />
<path d="M69.1,816.3l785.8,0l0,-2.3L69.1,814l0,2.3Z" class="g2_2047" />
<path d="M69.1,854.5l785.8,0l0,-2.3l-785.8,0l0,2.3Z" class="g2_2047" />
</svg>