<?xml version="1.0" encoding="UTF-8" standalone="no"?>
<!DOCTYPE svg PUBLIC "-//W3C//DTD SVG 1.1//EN"
"http://www.w3.org/Graphics/SVG/1.1/DTD/svg11.dtd">
<svg viewBox="0 0 935 1210" version="1.1" xmlns="http://www.w3.org/2000/svg" xmlns:xlink="http://www.w3.org/1999/xlink">
<defs>
<style type="text/css"><![CDATA[
.g1_1270{
fill: #FFFFFF;
}
.g2_1270{
}
]]></style>
</defs>
<path d="M165,1149.3l687.5,0l0,-21.2l-687.5,0l0,21.2Z" class="g1_1270" />
<path d="M68.8,1149.3l82.5,0l0,-21.2l-82.5,0l0,21.2Z" class="g1_1270" />
<path d="M99.6,372.8l0.8,0l0,-175.4l-0.8,0l0,175.4Z" class="g2_1270" />
<path d="M820.8,372.8l0.7,0l0,-175.4l-0.7,0l0,175.4Z" class="g2_1270" />
<path d="M99.6,197.4l721.9,0l0,-0.7l-721.9,0l0,0.7Z" class="g2_1270" />
<path d="M99.6,373.6l721.9,0l0,-0.7l-721.9,0l0,0.7Z" class="g2_1270" />
<path d="M235.8,348.9l113.5,0l0,-20.6l-113.5,0l0,20.6Z" class="g1_1270" />
<path d="M235.8,328.6l113.8,0l0,-0.7l-113.8,0l0,0.7Z" class="g2_1270" />
<path d="M348.9,349.2l0.7,0l0,-20.9l-0.7,0l0,20.9Z" class="g2_1270" />
<path d="M235.4,349.2l113.9,0l0,-0.7l-113.9,0l0,0.7Z" class="g2_1270" />
<path d="M235.4,348.9l0.7,0l0,-21l-0.7,0l0,21Z" class="g2_1270" />
<path d="M349.3,348.9l113.3,0l0,-20.6l-113.3,0l0,20.6Z" class="g1_1270" />
<path d="M349.3,328.6l113.7,0l0,-0.7l-113.7,0l0,0.7Z" class="g2_1270" />
<path d="M462.3,349.2l0.7,0l0,-20.9l-0.7,0l0,20.9Z" class="g2_1270" />
<path d="M348.9,349.2l113.7,0l0,-0.7l-113.7,0l0,0.7Z" class="g2_1270" />
<path d="M348.9,348.9l0.7,0l0,-21l-0.7,0l0,21Z" class="g2_1270" />
<path d="M462.6,348.9l113.5,0l0,-20.6l-113.5,0l0,20.6Z" class="g1_1270" />
<path d="M462.6,328.6l113.9,0l0,-0.7l-113.9,0l0,0.7Z" class="g2_1270" />
<path d="M575.8,349.2l0.7,0l0,-20.9l-0.7,0l0,20.9Z" class="g2_1270" />
<path d="M462.3,349.2l113.8,0l0,-0.7l-113.8,0l0,0.7Z" class="g2_1270" />
<path d="M462.3,348.9l0.7,0l0,-21l-0.7,0l0,21Z" class="g2_1270" />
<path d="M576.1,348.9l113.4,0l0,-20.6l-113.4,0l0,20.6Z" class="g1_1270" />
<path d="M576.1,328.6l113.8,0l0,-0.7l-113.8,0l0,0.7Z" class="g2_1270" />
<path d="M689.1,349.2l0.8,0l0,-20.9l-0.8,0l0,20.9Z" class="g2_1270" />
<path d="M575.8,349.2l113.7,0l0,-0.7l-113.7,0l0,0.7Z" class="g2_1270" />
<path d="M575.8,348.9l0.7,0l0,-21l-0.7,0l0,21Z" class="g2_1270" />
<path d="M235.8,245.8l113.5,0l0,-20.7l-113.5,0l0,20.7Z" class="g1_1270" />
<path d="M235.8,225.5l113.8,0l0,-0.7l-113.8,0l0,0.7Z" class="g2_1270" />
<path d="M348.9,246.1l0.7,0l0,-21l-0.7,0l0,21Z" class="g2_1270" />
<path d="M235.4,246.1l113.9,0l0,-0.7l-113.9,0l0,0.7Z" class="g2_1270" />
<path d="M235.4,245.8l0.7,0l0,-21l-0.7,0l0,21Z" class="g2_1270" />
<path d="M349.3,245.8l113.3,0l0,-20.7l-113.3,0l0,20.7Z" class="g1_1270" />
<path d="M349.3,225.5l113.7,0l0,-0.7l-113.7,0l0,0.7Z" class="g2_1270" />
<path d="M462.3,246.1l0.7,0l0,-21l-0.7,0l0,21Z" class="g2_1270" />
<path d="M348.9,246.1l113.7,0l0,-0.7l-113.7,0l0,0.7Z" class="g2_1270" />
<path d="M348.9,245.8l0.7,0l0,-21l-0.7,0l0,21Z" class="g2_1270" />
<path fill-rule="evenodd" d="M524.5,303.3l0.4,0l0.3,-0.1c1.3,-0.6,1.1,-2.6,-0.3,-2.9l-0.7,0c-1.4,0.3,-1.7,2.3,-0.2,2.9l0.2,0.1l0.3,0Z" class="g2_1270" />
<path d="M524.5,301.9l7.6,0l-0.3,1l-6.5,22.8l-0.8,2.6l-0.7,-2.6l-6.5,-22.8l-0.3,-1l1,0l0.7,0.5l6.6,22.8l-1.5,0.5l0,-0.5l6.6,-22.8l1.4,0.5l-0.7,0.5l-6.6,0Z" class="g2_1270" />
<path d="M518,303.4l6.5,0l0,-1.5l-6.5,0l0,1.5Z" class="g2_1270" />
<path fill-rule="evenodd" d="M524.5,302.6l6.6,0l-6.6,22.8L518,302.6Z" class="g2_1270" />
<path d="M523,301.8l3.1,0l0,-9.7l-3.1,0l0,9.7Z" class="g2_1270" />
<path d="M462.6,245.8l113.5,0l0,-20.7l-113.5,0l0,20.7Z" class="g1_1270" />
<path d="M462.6,225.5l113.9,0l0,-0.7l-113.9,0l0,0.7Z" class="g2_1270" />
<path d="M575.8,246.1l0.7,0l0,-21l-0.7,0l0,21Z" class="g2_1270" />
<path d="M462.3,246.1l113.8,0l0,-0.7l-113.8,0l0,0.7Z" class="g2_1270" />
<path d="M462.3,245.8l0.7,0l0,-21l-0.7,0l0,21Z" class="g2_1270" />
<path d="M576.1,245.8l113.4,0l0,-20.7l-113.4,0l0,20.7Z" class="g1_1270" />
<path d="M576.1,225.5l113.8,0l0,-0.7l-113.8,0l0,0.7Z" class="g2_1270" />
<path d="M689.1,246.1l0.8,0l0,-21l-0.8,0l0,21Z" class="g2_1270" />
<path d="M575.8,246.1l113.7,0l0,-0.7l-113.7,0l0,0.7Z" class="g2_1270" />
<path d="M575.8,245.8l0.7,0l0,-21l-0.7,0l0,21Z" class="g2_1270" />
<path fill-rule="evenodd" d="M638,303.3l0.3,0l0.2,-0.1l0.6,-0.3l0.2,-0.2l0.1,-0.3l0.1,-0.3l0.1,-0.3l-0.1,-0.3c-0.1,-0.5,-0.4,-1,-1,-1.1l-0.2,-0.1l-0.6,0l-0.3,0.1l-0.2,0.1l-0.5,0.4l-0.2,0.6l-0.1,0.3c0.2,0.5,0.2,1,0.8,1.2l0.2,0.2l0.3,0.1l0.3,0Z" class="g2_1270" />
<path d="M638,301.9l7.5,0l-0.3,1l-6.5,22.8l-0.7,2.6l-0.7,-2.6l-6.6,-22.8l-0.3,-1l1,0l0.7,0.5l6.6,22.8l-1.4,0.5l0,-0.5l6.5,-22.8l1.4,0.5l-0.7,0.5l-6.5,0Z" class="g2_1270" />
<path d="M631.4,303.4l6.6,0l0,-1.5l-6.6,0l0,1.5Z" class="g2_1270" />
<path fill-rule="evenodd" d="M638,302.6l6.5,0L638,325.4l-6.6,-22.8Z" class="g2_1270" />
<path d="M636.5,301.8l3.1,0l0,-56l-3.1,0l0,56Z" class="g2_1270" />
<path d="M297.6,288.6l113.5,0l0,-3.1l-113.5,0l0,3.1Z" class="g2_1270" />
<path d="M524.5,288.6l113.5,0l0,-3.1l-113.5,0l0,3.1Z" class="g2_1270" />
<path d="M235.8,292.1l113.5,0l0,-20.6l-113.5,0l0,20.6Z" class="g1_1270" />
<path d="M235.8,271.9l113.8,0l0,-0.7l-113.8,0l0,0.7Z" class="g2_1270" />
<path d="M348.9,292.5l0.7,0l0,-21l-0.7,0l0,21Z" class="g2_1270" />
<path d="M235.4,292.5l113.9,0l0,-0.7l-113.9,0l0,0.7Z" class="g2_1270" />
<path d="M235.4,292.1l0.7,0l0,-21l-0.7,0l0,21Z" class="g2_1270" />
<path d="M349.3,292.1l113.3,0l0,-20.6l-113.3,0l0,20.6Z" class="g1_1270" />
<path d="M349.3,271.9l113.7,0l0,-0.7l-113.7,0l0,0.7Z" class="g2_1270" />
<path d="M462.3,292.5l0.7,0l0,-21l-0.7,0l0,21Z" class="g2_1270" />
<path d="M348.9,292.5l113.7,0l0,-0.7l-113.7,0l0,0.7Z" class="g2_1270" />
<path d="M348.9,292.1l0.7,0l0,-21l-0.7,0l0,21Z" class="g2_1270" />
<path d="M462.6,292.1l113.5,0l0,-20.6l-113.5,0l0,20.6Z" class="g1_1270" />
<path d="M462.6,271.9l113.9,0l0,-0.7l-113.9,0l0,0.7Z" class="g2_1270" />
<path d="M575.8,292.5l0.7,0l0,-21l-0.7,0l0,21Z" class="g2_1270" />
<path d="M462.3,292.5l113.8,0l0,-0.7l-113.8,0l0,0.7Z" class="g2_1270" />
<path d="M462.3,292.1l0.7,0l0,-21l-0.7,0l0,21Z" class="g2_1270" />
<path d="M576.1,292.1l113.4,0l0,-20.6l-113.4,0l0,20.6Z" class="g1_1270" />
<path d="M576.1,271.9l113.8,0l0,-0.7l-113.8,0l0,0.7Z" class="g2_1270" />
<path d="M689.1,292.5l0.8,0l0,-21l-0.8,0l0,21Z" class="g2_1270" />
<path d="M575.8,292.5l113.7,0l0,-0.7l-113.7,0l0,0.7Z" class="g2_1270" />
<path d="M575.8,292.1l0.7,0l0,-21l-0.7,0l0,21Z" class="g2_1270" />
<path fill-rule="evenodd" d="M617.6,314l0.1,-0.2l0,-0.4c0.6,-1.3,-1.6,-2.5,-2.4,-1.4l-0.3,0.2l-0.1,0.3l-0.1,0.4l-0.1,0.2l0.1,0.3l0.1,0.3L615,314l0.4,0.4l0.9,0.3l0.3,-0.1l0.2,0l0.6,-0.4l0.2,-0.2Z" class="g2_1270" />
<path d="M616.3,313.1l3.7,-5.4l0.7,-0.8l0.6,0.8l15.1,18.5l1.6,2.1l-2.5,-1L613,319.7l-1,-0.3l0.5,-0.9l0.9,-0.2l22.6,7.6l-0.5,1.4l-0.3,-0.2L620.1,308.6l1.2,-0.9l0,0.9l-3.7,5.4Z" class="g2_1270" />
<path d="M612.5,318.5l3.8,-5.4l1.3,0.9l-3.8,5.5Z" class="g2_1270" />
<path fill-rule="evenodd" d="M616.9,313.6l3.8,-5.4l15,18.4L613.2,319Z" class="g2_1270" />
<path d="M520.3,244.6l-1.7,2.4l96.8,67.4l1.8,-2.5Z" class="g2_1270" />
<path fill-rule="evenodd" d="M548.2,320.4l0.1,0.3l0.1,0.2l0.3,0.2l0.2,0.1l0.3,0.2l0.6,0l0.6,-0.2c0.6,-0.4,0.6,-0.6,0.8,-1.2l-0.1,-0.3l0,-0.3l-0.2,-0.3c-0.7,-1.3,-2.6,-0.8,-2.8,0.6l0,0.3l0.1,0.4Z" class="g2_1270" />
<path d="M549.6,319.8l2.1,6.3l0.2,1l-0.9,0.1l-23.8,1l-2.7,0.1l2.2,-1.6l19.6,-13.5l0.9,-0.5l0.3,0.9l-0.3,0.9L527.5,328l-0.8,-1.3l0.4,-0.1l23.8,-1l0.1,1.6l-0.8,-0.6l-2.1,-6.2Z" class="g2_1270" />
<path d="M547.5,313.6l2.1,6.2l-1.5,0.6L546,314.1Z" class="g2_1270" />
<path fill-rule="evenodd" d="M548.9,320.1l2.1,6.2l-23.8,1l19.6,-13.4Z" class="g2_1270" />
<path d="M633.3,293.6l-0.9,-2.8l-83.2,27.7l0.9,2.8Z" class="g2_1270" />
<path fill-rule="evenodd" d="M292.5,303.3l0.3,0l0.3,-0.1l0.5,-0.3l0.2,-0.2l0.1,-0.3l0.1,-0.3l0.1,-0.3L294,301.5c-0.1,-0.5,-0.4,-1,-0.9,-1.1l-0.3,-0.1l-0.6,0l-0.3,0.1l-0.2,0.1l-0.5,0.4l-0.1,0.3l-0.1,0.3l0,0.3c0.1,0.5,0.1,1,0.7,1.2l0.2,0.2l0.3,0.1l0.3,0Z" class="g2_1270" />
<path d="M292.5,301.9l7.6,0l-0.3,1l-6.6,22.8l-0.7,2.6l-0.7,-2.6l-6.6,-22.8l-0.3,-1l1,0l0.7,0.5l6.6,22.8l-1.4,0.5l0,-0.5l6.6,-22.8l1.4,0.5l-0.7,0.5l-6.6,0Z" class="g2_1270" />
<path d="M285.9,303.4l6.6,0l0,-1.5l-6.6,0l0,1.5Z" class="g2_1270" />
<path fill-rule="evenodd" d="M292.5,302.6l6.6,0l-6.6,22.8l-6.6,-22.8Z" class="g2_1270" />
<path d="M291,301.8l3.1,0l0,-9.7l-3.1,0l0,9.7Z" class="g2_1270" />
<path fill-rule="evenodd" d="M385.5,314l0.1,-0.2l0.1,-0.4c0.3,-1.5,-1.5,-2.3,-2.5,-1.4l-0.2,0.2l-0.2,0.3c-0.5,1.4,1,2.7,2.3,1.9l0.4,-0.4Z" class="g2_1270" />
<path d="M384.3,313.1l3.7,-5.4l0.7,-0.8l0.6,0.8l15,18.5l1.7,2.1l-2.5,-1L381,319.7l-1,-0.3l0.5,-0.9l0.9,-0.2l22.6,7.6l-0.5,1.4l-0.3,-0.2L388.1,308.6l1.2,-0.9l0,0.9l-3.7,5.4Z" class="g2_1270" />
<path d="M380.5,318.5l3.8,-5.4l1.3,0.9l-3.8,5.5Z" class="g2_1270" />
<path fill-rule="evenodd" d="M384.9,313.6l3.8,-5.4l15,18.4L381.1,319Z" class="g2_1270" />
<path d="M288.3,244.6l-1.8,2.4l96.9,67.4l1.8,-2.5Z" class="g2_1270" />
<path fill-rule="evenodd" d="M316.2,320.4l0.1,0.3l0.1,0.2c1,1,2.9,0.3,2.7,-1.2L319,319.4l-0.1,-0.3c-0.7,-1.3,-2.8,-0.8,-2.8,0.6l0,0.3l0.1,0.4Z" class="g2_1270" />
<path d="M317.6,319.8l2,6.3l0.2,1l-0.9,0.1l-23.7,1l-2.7,0.1l2.2,-1.6l19.6,-13.5l0.9,-0.5l0.3,0.9l-0.3,0.9L295.5,328l-0.8,-1.3l0.4,-0.1l23.7,-1l0.1,1.6l-0.8,-0.6l-2,-6.2Z" class="g2_1270" />
<path d="M315.5,313.6l2.1,6.2l-1.5,0.6L314,314.1Z" class="g2_1270" />
<path fill-rule="evenodd" d="M316.9,320.1l2,6.2l-23.7,1l19.6,-13.4Z" class="g2_1270" />
<path d="M401.2,293.6l-0.9,-2.8l-83.1,27.7l0.9,2.8Z" class="g2_1270" />
<path fill-rule="evenodd" d="M406,303.3l0.3,0l0.2,-0.1c1.4,-0.6,1.2,-2.6,-0.2,-2.9l-0.7,0c-1.4,0.3,-1.6,2.3,-0.3,2.9l0.3,0.1l0.4,0Z" class="g2_1270" />
<path d="M406,301.9l7.5,0l-0.3,1l-6.5,22.8l-0.7,2.6l-0.7,-2.6l-6.6,-22.8l-0.3,-1l1,0l0.7,0.5l6.6,22.8l-1.4,0.5l0,-0.5l6.5,-22.8l1.4,0.5l-0.7,0.5l-6.5,0Z" class="g2_1270" />
<path d="M399.4,303.4l6.6,0l0,-1.5l-6.6,0l0,1.5Z" class="g2_1270" />
<path fill-rule="evenodd" d="M406,302.6l6.5,0L406,325.4l-6.6,-22.8Z" class="g2_1270" />
<path d="M404.5,301.8l3.1,0l0,-56l-3.1,0l0,56Z" class="g2_1270" />
</svg>