<?xml version="1.0" encoding="UTF-8" standalone="no"?>
<!DOCTYPE svg PUBLIC "-//W3C//DTD SVG 1.1//EN"
"http://www.w3.org/Graphics/SVG/1.1/DTD/svg11.dtd">
<svg viewBox="0 0 935 1210" version="1.1" xmlns="http://www.w3.org/2000/svg" xmlns:xlink="http://www.w3.org/1999/xlink">
<defs>
<style type="text/css"><![CDATA[
.g1_2034{
fill: #FFFFFF;
}
.g2_2034{
fill: #E6E6E6;
}
.g3_2034{
}
]]></style>
</defs>
<path d="M68.8,1149l784.5,0l0,-21.4l-784.5,0l0,21.4Z" class="g1_2034" />
<path d="M670.3,275l88.6,0l0,-29.1l-88.6,0l0,29.1Z" class="g2_2034" />
<path d="M227.1,344.5l88.7,0l0,-69.5l-88.7,0l0,69.5Z" class="g2_2034" />
<path d="M315.8,344.5l88.6,0l0,-69.5l-88.6,0l0,69.5Z" class="g2_2034" />
<path d="M68.5,778.1l2.3,0l0,-630.2l-2.3,0l0,630.2Z" class="g3_2034" />
<path d="M103.7,780.4l0.7,0l0,-634.8l-0.7,0l0,634.8Z" class="g3_2034" />
<path d="M137.5,780.4l2.3,0l0,-634.8l-2.3,0l0,634.8Z" class="g3_2034" />
<path d="M226.8,165.4l0.7,0l0,-19.8l-0.7,0l0,19.8Z" class="g3_2034" />
<path d="M226.8,200.6l0.7,0l0,-18.8l-0.7,0l0,18.8Z" class="g3_2034" />
<path d="M226.8,345.7l0.7,0l0,-128.7l-0.7,0l0,128.7Z" class="g3_2034" />
<path d="M226.8,780.4l0.7,0l0,-418.3l-0.7,0l0,418.3Z" class="g3_2034" />
<path d="M315.4,165.4l0.8,0l0,-19.8l-0.8,0l0,19.8Z" class="g3_2034" />
<path d="M315.4,200.6l0.8,0l0,-18.8l-0.8,0l0,18.8Z" class="g3_2034" />
<path d="M315.4,345.7l0.8,0l0,-128.7l-0.8,0l0,128.7Z" class="g3_2034" />
<path d="M315.4,780.4l0.8,0l0,-418.3l-0.8,0l0,418.3Z" class="g3_2034" />
<path d="M404.1,165.4l0.7,0l0,-19.8l-0.7,0l0,19.8Z" class="g3_2034" />
<path d="M404.1,200.6l0.7,0l0,-18.8l-0.7,0l0,18.8Z" class="g3_2034" />
<path d="M404.1,345.7l0.7,0l0,-128.7l-0.7,0l0,128.7Z" class="g3_2034" />
<path d="M404.1,780.4l0.7,0l0,-418.3l-0.7,0l0,418.3Z" class="g3_2034" />
<path d="M492.7,165.4l0.7,0l0,-19.8l-0.7,0l0,19.8Z" class="g3_2034" />
<path d="M492.7,200.6l0.7,0l0,-18.8l-0.7,0l0,18.8Z" class="g3_2034" />
<path d="M492.7,345.7l0.7,0l0,-128.7l-0.7,0l0,128.7Z" class="g3_2034" />
<path d="M492.7,780.4l0.7,0l0,-418.3l-0.7,0l0,418.3Z" class="g3_2034" />
<path d="M581.3,165.4l0.8,0l0,-19.8l-0.8,0l0,19.8Z" class="g3_2034" />
<path d="M581.3,200.6l0.8,0l0,-18.8l-0.8,0l0,18.8Z" class="g3_2034" />
<path d="M581.3,345.7l0.8,0l0,-128.7l-0.8,0l0,128.7Z" class="g3_2034" />
<path d="M581.3,780.4l0.8,0l0,-418.3l-0.8,0l0,418.3Z" class="g3_2034" />
<path d="M669.9,165.4l0.7,0l0,-19.8l-0.7,0l0,19.8Z" class="g3_2034" />
<path d="M669.9,200.6l0.7,0l0,-18.8l-0.7,0l0,18.8Z" class="g3_2034" />
<path d="M669.9,345.7l0.7,0l0,-128.7l-0.7,0l0,128.7Z" class="g3_2034" />
<path d="M669.9,780.4l0.7,0l0,-418.3l-0.7,0l0,418.3Z" class="g3_2034" />
<path d="M758.5,165.4l0.8,0l0,-19.8l-0.8,0l0,19.8Z" class="g3_2034" />
<path d="M758.5,200.6l0.8,0l0,-18.8l-0.8,0l0,18.8Z" class="g3_2034" />
<path d="M758.5,276.2l0.8,0l0,-59.2l-0.8,0l0,59.2Z" class="g3_2034" />
<path d="M758.5,345.7l0.8,0l0,-53.1l-0.8,0l0,53.1Z" class="g3_2034" />
<path d="M758.5,780.4l0.8,0l0,-418.3l-0.8,0l0,418.3Z" class="g3_2034" />
<path d="M850.5,163.1l2.3,0l0,-15.2l-2.3,0l0,15.2Z" class="g3_2034" />
<path d="M851.2,778.1l0.7,0l0,-612.7l-0.7,0l0,612.7Z" class="g3_2034" />
<path d="M68.5,147.9l784.2,0l0,-2.3l-784.2,0l0,2.3Z" class="g3_2034" />
<path d="M68.5,165.5l784.2,0l0,-2.3l-784.2,0l0,2.3Z" class="g3_2034" />
<path d="M68.5,200.6l783.5,0l0,-2.3l-783.5,0l0,2.3Z" class="g3_2034" />
<path d="M68.5,247.1l783.5,0l0,-2.3l-783.5,0l0,2.3Z" class="g3_2034" />
<path d="M68.5,276.2l783.5,0l0,-2.3l-783.5,0l0,2.3Z" class="g3_2034" />
<path d="M103.7,315.9l123.9,0l0,-0.8l-123.9,0l0,0.8Z" class="g3_2034" />
<path d="M404.1,315.9l266.6,0l0,-0.8l-266.6,0l0,0.8Z" class="g3_2034" />
<path d="M68.5,345.7l783.5,0l0,-2.3l-783.5,0l0,2.3Z" class="g3_2034" />
<path d="M68.5,461.1l783.5,0l0,-2.3l-783.5,0l0,2.3Z" class="g3_2034" />
<path d="M103.7,489.3l748.3,0l0,-0.7l-748.3,0l0,0.7Z" class="g3_2034" />
<path d="M103.7,518.3l748.3,0l0,-0.7l-748.3,0l0,0.7Z" class="g3_2034" />
<path d="M103.7,547.3l748.3,0l0,-0.7l-748.3,0l0,0.7Z" class="g3_2034" />
<path d="M68.5,577.2l783.5,0l0,-2.3l-783.5,0l0,2.3Z" class="g3_2034" />
<path d="M103.7,605.4l748.3,0l0,-0.8l-748.3,0l0,0.8Z" class="g3_2034" />
<path d="M103.7,634.4l748.3,0l0,-0.7l-748.3,0l0,0.7Z" class="g3_2034" />
<path d="M103.7,663.5l748.3,0l0,-0.7l-748.3,0l0,0.7Z" class="g3_2034" />
<path d="M68.5,693.3l783.5,0l0,-2.3L68.5,691l0,2.3Z" class="g3_2034" />
<path d="M103.7,721.5l748.3,0l0,-0.7l-748.3,0l0,0.7Z" class="g3_2034" />
<path d="M103.7,750.6l748.3,0l0,-0.8l-748.3,0l0,0.8Z" class="g3_2034" />
<path d="M68.5,780.4l783.5,0l0,-2.3l-783.5,0l0,2.3Z" class="g3_2034" />
</svg>