<?xml version="1.0" encoding="UTF-8" standalone="no"?>
<!DOCTYPE svg PUBLIC "-//W3C//DTD SVG 1.1//EN"
"http://www.w3.org/Graphics/SVG/1.1/DTD/svg11.dtd">
<svg viewBox="0 0 935 1210" version="1.1" xmlns="http://www.w3.org/2000/svg" xmlns:xlink="http://www.w3.org/1999/xlink">
<defs>
<style type="text/css"><![CDATA[
.g1_1852{
fill: #FFFFFF;
}
.g2_1852{
}
]]></style>
</defs>
<path d="M165,1149.3l687.5,0l0,-21.2l-687.5,0l0,21.2Z" class="g1_1852" />
<path d="M68.8,1149.3l82.5,0l0,-21.2l-82.5,0l0,21.2Z" class="g1_1852" />
<path d="M126.6,384.6l0.7,0l0,-243.6l-0.7,0l0,243.6Z" class="g2_1852" />
<path d="M285,385.4l0.7,0l0,-245.2l-0.7,0l0,245.2Z" class="g2_1852" />
<path d="M430.6,385.4l0.7,0l0,-245.2l-0.7,0l0,245.2Z" class="g2_1852" />
<path d="M793.7,384.6l0.8,0l0,-243.6l-0.8,0l0,243.6Z" class="g2_1852" />
<path d="M126.6,140.9l667.9,0l0,-0.7l-667.9,0l0,0.7Z" class="g2_1852" />
<path d="M126.6,165.4l667.9,0l0,-0.8l-667.9,0l0,0.8Z" class="g2_1852" />
<path d="M126.6,189.8l667.9,0l0,-0.7l-667.9,0l0,0.7Z" class="g2_1852" />
<path d="M126.6,214.2l667.9,0l0,-0.7l-667.9,0l0,0.7Z" class="g2_1852" />
<path d="M126.6,238.7l667.9,0l0,-0.7l-667.9,0l0,0.7Z" class="g2_1852" />
<path d="M126.6,263.2l667.9,0l0,-0.8l-667.9,0l0,0.8Z" class="g2_1852" />
<path d="M126.6,287.6l667.9,0l0,-0.8l-667.9,0l0,0.8Z" class="g2_1852" />
<path d="M126.6,312l667.9,0l0,-0.7l-667.9,0l0,0.7Z" class="g2_1852" />
<path d="M126.6,336.5l667.9,0l0,-0.7l-667.9,0l0,0.7Z" class="g2_1852" />
<path d="M126.6,360.9l667.9,0l0,-0.7l-667.9,0l0,0.7Z" class="g2_1852" />
<path d="M126.6,385.4l667.9,0l0,-0.8l-667.9,0l0,0.8Z" class="g2_1852" />
</svg>