<?xml version="1.0" encoding="UTF-8" standalone="no"?>
<!DOCTYPE svg PUBLIC "-//W3C//DTD SVG 1.1//EN"
"http://www.w3.org/Graphics/SVG/1.1/DTD/svg11.dtd">
<svg viewBox="0 0 935 1210" version="1.1" xmlns="http://www.w3.org/2000/svg" xmlns:xlink="http://www.w3.org/1999/xlink">
<defs>
<style type="text/css"><![CDATA[
.g1_33{
fill: #FFFFFF;
}
.g2_33{
}
.g3_33{
fill: none;
stroke: #000000;
stroke-width: 0.30555555;
stroke-linecap: round;
stroke-linejoin: round;
}
.g4_33{
fill: none;
stroke: #000000;
stroke-width: 1.0694444;
stroke-linecap: round;
stroke-linejoin: round;
}
]]></style>
</defs>
<path d="M68.9,1149.3l783.8,0l0,-21.2l-783.8,0l0,21.2Z" class="g1_33" />
<path d="M169.9,796.9l0.8,0l0,-671.2l-0.8,0l0,671.2Z" class="g2_33" />
<path d="M752,796.9l0.8,0l0,-671.2l-0.8,0l0,671.2Z" class="g2_33" />
<path d="M169.9,125.7l582.9,0l0,-0.8l-582.9,0l0,0.8Z" class="g2_33" />
<path d="M169.9,797.6l582.9,0l0,-0.7l-582.9,0l0,0.7Z" class="g2_33" />
<path d="M206.3,785.8l510.1,0l0,-635.3l-510.1,0l0,635.3Z" class="g1_33" />
<path d="M680.8,294.1l-0.2,-88" class="g3_33" />
<path fill-rule="evenodd" d="M680.8,300.5L676.7,292l0.9,0.5l1.1,0.3l1,0.2l2.2,0l1.2,-0.2l0.9,-0.5l1.1,-0.3l-4.3,8.5Z" class="g2_33" />
<path d="M214.8,206.5l495.3,0l0,1.1" class="g3_33" />
<path fill-rule="evenodd" d="M217.2,207.3l0,-0.5l-0.1,-0.3l-0.2,-0.7l-0.3,-0.7L215.5,204l-0.6,-0.2l-0.8,-0.2l-0.2,-0.1l-0.9,0c-1.6,0.1,-3.1,1.4,-3.3,3l-0.1,0.3l0,0.9l0.1,0.4l0.1,0.7l0.5,0.7l0.9,0.9l0.8,0.4l0.6,0.1l0.4,0.2l0.4,0c1.4,-0.1,3,-0.9,3.5,-2.3l0.2,-0.7l0.1,-0.4l0,-0.4Z" class="g2_33" />
<path d="M217.2,207.3l0,-0.5l-0.1,-0.3l-0.2,-0.7l-0.3,-0.7L215.5,204l-0.6,-0.2l-0.8,-0.2l-0.2,-0.1l-0.9,0c-1.6,0.1,-3.1,1.4,-3.3,3l-0.1,0.3l0,0.9l0.1,0.4l0.1,0.7l0.5,0.7l0.9,0.9l0.8,0.4l0.6,0.1l0.4,0.2l0.4,0c1.4,-0.1,3,-0.9,3.5,-2.3l0.2,-0.7l0.1,-0.4l0,-0.4" class="g4_33" />
<path d="M461.5,228.3l0.3,-21.5" class="g3_33" />
<path fill-rule="evenodd" d="M461.4,234.7l-4.2,-8.5l1.1,0.5c2.1,0.8,4.4,0.7,6.5,0l1,-0.5l-4.4,8.5Z" class="g2_33" />
<path d="M571.4,255.3l0,-49" class="g3_33" />
<path fill-rule="evenodd" d="M571.4,261.7l-4.3,-8.3l1.1,0.4c1.9,0.6,4.5,0.7,6.4,0l0.9,-0.4l-4.1,8.3Z" class="g2_33" />
<path fill-rule="evenodd" d="M713.9,206.3l0,-0.7c-0.9,-4.3,-7,-3.9,-7.4,0.3l0,1.3c0.9,2,0.8,2,3,2.8l1.6,0l0.5,-0.3l0.7,-0.2l0.6,-0.5l0.5,-0.6l0.2,-0.7l0.3,-0.5l0,-0.9Z" class="g2_33" />
<path d="M713.9,206.3l0,-0.7c-0.9,-4.3,-7,-3.9,-7.4,0.3l0,1.3c0.9,2,0.8,2,3,2.8l1.6,0l0.5,-0.3l0.7,-0.2l0.6,-0.5l0.5,-0.6l0.2,-0.7l0.3,-0.5l0,-0.9" class="g4_33" />
<path d="M680.8,501.2l-0.2,-88" class="g3_33" />
<path fill-rule="evenodd" d="M680.8,507.7l-4.1,-8.5l0.9,0.5c1.8,0.6,4.7,0.7,6.4,0l1.1,-0.5l-4.3,8.5Z" class="g2_33" />
<path d="M214.8,413.7l495.3,0l0,1.1" class="g3_33" />
<path fill-rule="evenodd" d="M217.2,414.4l0,-0.2l-0.1,-0.5L216.9,413l-0.3,-0.7l-0.5,-0.4l-1.2,-1l-0.8,-0.1l-1.5,0l-0.6,0.1l-0.8,0.5l-0.9,0.9l-0.5,0.7l-0.1,0.7l-0.1,0.5l0,0.7l0.1,0.3l0.1,0.8l0.5,0.6l0.4,0.6l0.5,0.4L212,418l0.6,0.1l0.4,0.2l0.4,0c1.4,-0.1,3.1,-0.8,3.5,-2.3l0.3,-1.1l0,-0.5Z" class="g2_33" />
<path d="M217.2,414.4l0,-0.2l-0.1,-0.5L216.9,413l-0.3,-0.7l-0.5,-0.4l-1.2,-1l-0.8,-0.1l-1.5,0l-0.6,0.1l-0.8,0.5l-0.9,0.9l-0.5,0.7l-0.1,0.7l-0.1,0.5l0,0.7l0.1,0.3l0.1,0.8l0.5,0.6l0.4,0.6l0.5,0.4L212,418l0.6,0.1l0.4,0.2l0.4,0c1.4,-0.1,3.1,-0.8,3.5,-2.3l0.3,-1.1l0,-0.5" class="g4_33" />
<path d="M490.5,435l0.3,-21.6" class="g3_33" />
<path fill-rule="evenodd" d="M490.3,441.4l-3.9,-8.6l0.9,0.4c2.1,0.9,4.2,0.8,6.4,0.2l1.1,-0.5l-4.5,8.5Z" class="g2_33" />
<path d="M599.3,462.5l0,-49.1" class="g3_33" />
<path fill-rule="evenodd" d="M599.3,468.8l-4.1,-8.4l1.1,0.4c2.5,1,3.7,0.9,6.2,0l1.1,-0.4l-4.3,8.4Z" class="g2_33" />
<path fill-rule="evenodd" d="M713.9,413.5l0,-0.7c-0.8,-4.3,-7,-4.1,-7.4,0.2l0,0.9c0.3,4.1,6.2,4.8,7.4,0.4l0,-0.8Z" class="g2_33" />
<path d="M713.9,413.5l0,-0.7c-0.8,-4.3,-7,-4.1,-7.4,0.2l0,0.9c0.3,4.1,6.2,4.8,7.4,0.4l0,-0.8" class="g4_33" />
<path d="M679.9,707.4l-0.3,-87.9" class="g3_33" />
<path fill-rule="evenodd" d="M679.9,713.9l-4.2,-8.4l1,0.4c2,0.7,4.4,0.7,6.4,0l1.1,-0.4l-0.2,0l-4.1,8.4Z" class="g2_33" />
<path d="M213.7,619.9l495.3,0l0,1.1" class="g3_33" />
<path fill-rule="evenodd" d="M216.2,620.7l-0.1,-0.3l0,-0.5L216,619.3l-0.5,-0.7l-0.9,-0.9l-0.7,-0.5L213.2,617l-0.4,0l-0.3,-0.2L212,617l-0.3,0c-2.6,0.5,-4.1,3.6,-2.4,5.8l0.4,0.6l0.6,0.5c2.3,1.4,5.3,0.2,5.8,-2.5l0,-0.3l0.1,-0.4Z" class="g2_33" />
<path d="M216.2,620.7l-0.1,-0.3l0,-0.5L216,619.3l-0.5,-0.7l-0.9,-0.9l-0.7,-0.5L213.2,617l-0.4,0l-0.3,-0.2L212,617l-0.3,0c-2.6,0.5,-4.1,3.6,-2.4,5.8l0.4,0.6l0.6,0.5c2.3,1.4,5.3,0.2,5.8,-2.5l0,-0.3l0.1,-0.4" class="g4_33" />
<path d="M377.6,641.2l0.2,-21.6" class="g3_33" />
<path fill-rule="evenodd" d="M377.4,647.6L373.5,639l0.9,0.5c2.1,0.9,4.2,0.8,6.4,0.1l1.1,-0.4l-4.5,8.4Z" class="g2_33" />
<path d="M516.9,668.7l0,-49.1" class="g3_33" />
<path fill-rule="evenodd" d="M516.9,675l-4.3,-8.4l0.2,0c2.6,1.3,4.6,1.3,7.3,0.5l1.1,-0.5l-4.3,8.4Z" class="g2_33" />
<path fill-rule="evenodd" d="M713,619.8l0,-0.5L712.9,619l-0.2,-0.8l-0.3,-0.5L712,617l-0.7,-0.4l-0.6,-0.3L710,616.1l-0.3,-0.2l-0.8,0l-0.5,0.2l-0.7,0.2l-0.7,0.3l-0.4,0.4l-0.5,0.7l-0.4,0.5l-0.1,0.8l0,0.3l-0.2,0.5l0.2,0.2c0.2,4.6,6.9,4.7,7.4,0l0,-0.2Z" class="g2_33" />
<path d="M713,619.8l0,-0.5L712.9,619l-0.2,-0.8l-0.3,-0.5L712,617l-0.7,-0.4l-0.6,-0.3L710,616.1l-0.3,-0.2l-0.8,0l-0.5,0.2l-0.7,0.2l-0.7,0.3l-0.4,0.4l-0.5,0.7l-0.4,0.5l-0.1,0.8l0,0.3l-0.2,0.5l0.2,0.2c0.2,4.6,6.9,4.7,7.4,0l0,-0.2" class="g4_33" />
</svg>