<?xml version="1.0" encoding="UTF-8" standalone="no"?>
<!DOCTYPE svg PUBLIC "-//W3C//DTD SVG 1.1//EN"
"http://www.w3.org/Graphics/SVG/1.1/DTD/svg11.dtd">
<svg viewBox="0 0 935 1210" version="1.1" xmlns="http://www.w3.org/2000/svg" xmlns:xlink="http://www.w3.org/1999/xlink">
<defs>
<style type="text/css"><![CDATA[
.g1_1709{
fill: #FFFFFF;
}
.g2_1709{
}
]]></style>
</defs>
<path d="M68.9,1149.3l686.3,0l0,-21.2l-686.3,0l0,21.2Z" class="g1_1709" />
<path d="M771.3,1149.3l83.7,0l0,-21.2l-83.7,0l0,21.2Z" class="g1_1709" />
<path d="M69.9,285.4l0.8,0l0,-159.7l-0.8,0l0,159.7Z" class="g2_1709" />
<path d="M342.1,286.1l0.7,0l0,-161.2l-0.7,0l0,161.2Z" class="g2_1709" />
<path d="M388.1,286.1l0.7,0l0,-161.2l-0.7,0l0,161.2Z" class="g2_1709" />
<path d="M460.6,286.1l0.8,0l0,-161.2l-0.8,0l0,161.2Z" class="g2_1709" />
<path d="M544.5,286.1l0.7,0l0,-161.2l-0.7,0l0,161.2Z" class="g2_1709" />
<path d="M854.1,285.4l0.7,0l0,-159.7l-0.7,0l0,159.7Z" class="g2_1709" />
<path d="M69.9,125.7l784.9,0l0,-0.8l-784.9,0l0,0.8Z" class="g2_1709" />
<path d="M69.9,176.1l784.9,0l0,-0.7l-784.9,0l0,0.7Z" class="g2_1709" />
<path d="M69.9,212.8l784.9,0l0,-0.8L69.9,212l0,0.8Z" class="g2_1709" />
<path d="M69.9,249.4l784.9,0l0,-0.7l-784.9,0l0,0.7Z" class="g2_1709" />
<path d="M69.9,286.1l784.9,0l0,-0.7l-784.9,0l0,0.7Z" class="g2_1709" />
<path d="M71.3,389.2l0.8,0l0,-48.1l-0.8,0l0,48.1Z" class="g2_1709" />
<path d="M175.8,389.9l0.8,0l0,-49.5l-0.8,0l0,49.5Z" class="g2_1709" />
<path d="M337.4,389.9l0.8,0l0,-49.5l-0.8,0l0,49.5Z" class="g2_1709" />
<path d="M514.8,389.9l0.7,0l0,-49.5l-0.7,0l0,49.5Z" class="g2_1709" />
<path d="M684.4,389.9l0.7,0l0,-49.5l-0.7,0l0,49.5Z" class="g2_1709" />
<path d="M850.7,389.2l0.7,0l0,-48.1l-0.7,0l0,48.1Z" class="g2_1709" />
<path d="M71.3,341.1l780.1,0l0,-0.7l-780.1,0l0,0.7Z" class="g2_1709" />
<path d="M71.3,365.5l780.1,0l0,-0.8l-780.1,0l0,0.8Z" class="g2_1709" />
<path d="M71.3,389.9l780.1,0l0,-0.7l-780.1,0l0,0.7Z" class="g2_1709" />
</svg>