<?xml version="1.0" encoding="UTF-8" standalone="no"?>
<!DOCTYPE svg PUBLIC "-//W3C//DTD SVG 1.1//EN"
"http://www.w3.org/Graphics/SVG/1.1/DTD/svg11.dtd">
<svg viewBox="0 0 935 1210" version="1.1" xmlns="http://www.w3.org/2000/svg" xmlns:xlink="http://www.w3.org/1999/xlink">
<defs>
<style type="text/css"><![CDATA[
.g1_253{
fill: #FFFFFF;
}
.g2_253{
}
]]></style>
</defs>
<path d="M68.9,1149.3l686.3,0l0,-21.2l-686.3,0l0,21.2Z" class="g1_253" />
<path d="M771.3,1149.3l83.7,0l0,-21.2l-83.7,0l0,21.2Z" class="g1_253" />
<path d="M70.9,351l0.8,0l0,-243.7l-0.8,0l0,243.7Z" class="g2_253" />
<path d="M217.7,351.8l0.7,0l0,-245.2l-0.7,0l0,245.2Z" class="g2_253" />
<path d="M401.2,351.8l0.8,0l0,-245.2l-0.8,0l0,245.2Z" class="g2_253" />
<path d="M439,351.8l0.7,0l0,-245.2l-0.7,0l0,245.2Z" class="g2_253" />
<path d="M503.6,351.8l0.7,0l0,-245.2l-0.7,0l0,245.2Z" class="g2_253" />
<path d="M575,351.8l0.8,0l0,-245.2l-0.8,0l0,245.2Z" class="g2_253" />
<path d="M851,351l0.8,0l0,-243.7l-0.8,0L851,351Z" class="g2_253" />
<path d="M70.9,107.3l780.9,0l0,-0.7l-780.9,0l0,0.7Z" class="g2_253" />
<path d="M70.9,145.5l780.9,0l0,-0.8l-780.9,0l0,0.8Z" class="g2_253" />
<path d="M70.9,168.4l780.9,0l0,-0.7l-780.9,0l0,0.7Z" class="g2_253" />
<path d="M70.9,191.3l780.9,0l0,-0.7l-780.9,0l0,0.7Z" class="g2_253" />
<path d="M70.9,214.2l780.9,0l0,-0.7l-780.9,0l0,0.7Z" class="g2_253" />
<path d="M70.9,237.1l780.9,0l0,-0.7l-780.9,0l0,0.7Z" class="g2_253" />
<path d="M70.9,260.1l780.9,0l0,-0.8l-780.9,0l0,0.8Z" class="g2_253" />
<path d="M70.9,283l780.9,0l0,-0.8l-780.9,0l0,0.8Z" class="g2_253" />
<path d="M70.9,305.9l780.9,0l0,-0.7l-780.9,0l0,0.7Z" class="g2_253" />
<path d="M70.9,328.8l780.9,0l0,-0.7l-780.9,0l0,0.7Z" class="g2_253" />
<path d="M70.9,351.7l780.9,0l0,-0.7L70.9,351l0,0.7Z" class="g2_253" />
<path d="M69.3,451.8l0.7,0l0,-48.1l-0.7,0l0,48.1Z" class="g2_253" />
<path d="M135.8,452.7l0.8,0l0,-49.7l-0.8,0l0,49.7Z" class="g2_253" />
<path d="M312.1,452.7l0.8,0l0,-49.7l-0.8,0l0,49.7Z" class="g2_253" />
<path d="M495.5,452.7l0.7,0l0,-49.7l-0.7,0l0,49.7Z" class="g2_253" />
<path d="M667.1,452.7l0.7,0l0,-49.7l-0.7,0l0,49.7Z" class="g2_253" />
<path d="M852.7,451.8l0.7,0l0,-48.1l-0.7,0l0,48.1Z" class="g2_253" />
<path d="M69.3,403.7l784.1,0l0,-0.7L69.3,403l0,0.7Z" class="g2_253" />
<path d="M69.3,428.2l784.1,0l0,-0.8l-784.1,0l0,0.8Z" class="g2_253" />
<path d="M69.3,452.7l784.1,0l0,-0.8l-784.1,0l0,0.8Z" class="g2_253" />
</svg>