<?xml version="1.0" encoding="UTF-8" standalone="no"?>
<!DOCTYPE svg PUBLIC "-//W3C//DTD SVG 1.1//EN"
"http://www.w3.org/Graphics/SVG/1.1/DTD/svg11.dtd">
<svg viewBox="0 0 935 1210" version="1.1" xmlns="http://www.w3.org/2000/svg" xmlns:xlink="http://www.w3.org/1999/xlink">
<defs>
<style type="text/css"><![CDATA[
.g1_2102{
fill: #FFFFFF;
}
.g2_2102{
}
]]></style>
</defs>
<path d="M68.8,1149.3l783.7,0l0,-21.2l-783.7,0l0,21.2Z" class="g1_2102" />
<path d="M68.6,1092l0.7,0l0,-967.9l-0.7,0l0,967.9Z" class="g2_2102" />
<path d="M398.1,1092.8l0.7,0l0,-969.4l-0.7,0l0,969.4Z" class="g2_2102" />
<path d="M851.2,1092l0.7,0l0,-967.9l-0.7,0l0,967.9Z" class="g2_2102" />
<path d="M68.6,124.1l783.4,0l0,-0.7l-783.4,0l0,0.7Z" class="g2_2102" />
<path d="M68.6,148.6l783.4,0l0,-0.7l-783.4,0l0,0.7Z" class="g2_2102" />
<path d="M68.6,173L852,173l0,-0.8l-783.4,0l0,0.8Z" class="g2_2102" />
<path d="M68.6,197.4l783.4,0l0,-0.7l-783.4,0l0,0.7Z" class="g2_2102" />
<path d="M68.6,252.4l783.4,0l0,-0.7l-783.4,0l0,0.7Z" class="g2_2102" />
<path d="M68.6,276.9l783.4,0l0,-0.7l-783.4,0l0,0.7Z" class="g2_2102" />
<path d="M68.6,301.3l783.4,0l0,-0.7l-783.4,0l0,0.7Z" class="g2_2102" />
<path d="M68.6,356.3l783.4,0l0,-0.7l-783.4,0l0,0.7Z" class="g2_2102" />
<path d="M68.6,380.8l783.4,0l0,-0.8L68.6,380l0,0.8Z" class="g2_2102" />
<path d="M68.6,405.3l783.4,0l0,-0.8l-783.4,0l0,0.8Z" class="g2_2102" />
<path d="M68.6,460.3l783.4,0l0,-0.8l-783.4,0l0,0.8Z" class="g2_2102" />
<path d="M68.6,484.7l783.4,0l0,-0.7L68.6,484l0,0.7Z" class="g2_2102" />
<path d="M68.6,530.6l783.4,0l0,-0.8l-783.4,0l0,0.8Z" class="g2_2102" />
<path d="M68.6,585.6l783.4,0l0,-0.8l-783.4,0l0,0.8Z" class="g2_2102" />
<path d="M68.6,609.9l783.4,0l0,-0.7l-783.4,0l0,0.7Z" class="g2_2102" />
<path d="M68.6,655.8l783.4,0l0,-0.7l-783.4,0l0,0.7Z" class="g2_2102" />
<path d="M68.6,710.8l783.4,0l0,-0.8L68.6,710l0,0.8Z" class="g2_2102" />
<path d="M68.6,735.3l783.4,0l0,-0.8l-783.4,0l0,0.8Z" class="g2_2102" />
<path d="M68.6,781.1l783.4,0l0,-0.7l-783.4,0l0,0.7Z" class="g2_2102" />
<path d="M68.6,836.1l783.4,0l0,-0.7l-783.4,0l0,0.7Z" class="g2_2102" />
<path d="M68.6,860.6l783.4,0l0,-0.8l-783.4,0l0,0.8Z" class="g2_2102" />
<path d="M68.6,885L852,885l0,-0.8l-783.4,0l0,0.8Z" class="g2_2102" />
<path d="M68.6,940L852,940l0,-0.8l-783.4,0l0,0.8Z" class="g2_2102" />
<path d="M68.6,964.4l783.4,0l0,-0.7l-783.4,0l0,0.7Z" class="g2_2102" />
<path d="M68.6,988.9l783.4,0l0,-0.7l-783.4,0l0,0.7Z" class="g2_2102" />
<path d="M68.6,1043.9l783.4,0l0,-0.7l-783.4,0l0,0.7Z" class="g2_2102" />
<path d="M68.6,1068.3l783.4,0l0,-0.8l-783.4,0l0,0.8Z" class="g2_2102" />
<path d="M68.6,1092.8l783.4,0l0,-0.8l-783.4,0l0,0.8Z" class="g2_2102" />
</svg>