<?xml version="1.0" encoding="UTF-8" standalone="no"?>
<!DOCTYPE svg PUBLIC "-//W3C//DTD SVG 1.1//EN"
"http://www.w3.org/Graphics/SVG/1.1/DTD/svg11.dtd">
<svg viewBox="0 0 935 1210" version="1.1" xmlns="http://www.w3.org/2000/svg" xmlns:xlink="http://www.w3.org/1999/xlink">
<defs>
<style type="text/css"><![CDATA[
.g1_517{
fill: #FFFFFF;
}
.g2_517{
}
]]></style>
</defs>
<path d="M68.9,1149.3l686.3,0l0,-21.2l-686.3,0l0,21.2Z" class="g1_517" />
<path d="M771.3,1149.3l83.7,0l0,-21.2l-83.7,0l0,21.2Z" class="g1_517" />
<path d="M70.1,152.4l0.4,0l0,-20.9l-0.4,0l0,20.9Z" class="g2_517" />
<path d="M69.9,728.4l0.8,0l0,-575.2l-0.8,0l0,575.2Z" class="g2_517" />
<path d="M240.5,153.2l0.4,0l0,-22l-0.4,0l0,22Z" class="g2_517" />
<path d="M240.4,729.1l0.7,0l0,-576.7l-0.7,0l0,576.7Z" class="g2_517" />
<path d="M852.3,152.4l0.4,0l0,-20.9l-0.4,0l0,20.9Z" class="g2_517" />
<path d="M852.1,728.4l0.8,0l0,-575.2l-0.8,0l0,575.2Z" class="g2_517" />
<path d="M70,131.5l782.7,0l0,-0.3L70,131.2l0,0.3Z" class="g2_517" />
<path d="M69.9,153.2l783,0l0,-0.8l-783,0l0,0.8Z" class="g2_517" />
<path d="M69.9,191.3l783,0l0,-0.7l-783,0l0,0.7Z" class="g2_517" />
<path d="M69.9,386.9l783,0l0,-0.7l-783,0l0,0.7Z" class="g2_517" />
<path d="M69.9,425.2l783,0l0,-0.8l-783,0l0,0.8Z" class="g2_517" />
<path d="M69.9,496.9l783,0l0,-0.7l-783,0l0,0.7Z" class="g2_517" />
<path d="M69.9,585.6l783,0l0,-0.8l-783,0l0,0.8Z" class="g2_517" />
<path d="M69.9,691l783,0l0,-0.7l-783,0l0,0.7Z" class="g2_517" />
<path d="M69.9,729.1l783,0l0,-0.7l-783,0l0,0.7Z" class="g2_517" />
</svg>