<?xml version="1.0" encoding="UTF-8" standalone="no"?>
<!DOCTYPE svg PUBLIC "-//W3C//DTD SVG 1.1//EN"
"http://www.w3.org/Graphics/SVG/1.1/DTD/svg11.dtd">
<svg viewBox="0 0 935 1210" version="1.1" xmlns="http://www.w3.org/2000/svg" xmlns:xlink="http://www.w3.org/1999/xlink">
<defs>
<style type="text/css"><![CDATA[
.g1_1721{
fill: #FFFFFF;
}
.g2_1721{
}
]]></style>
</defs>
<path d="M68.9,1149.3l686.3,0l0,-21.2l-686.3,0l0,21.2Z" class="g1_1721" />
<path d="M771.3,1149.3l83.7,0l0,-21.2l-83.7,0l0,21.2Z" class="g1_1721" />
<path d="M69.9,968.3l0.8,0l0,-842.6l-0.8,0l0,842.6Z" class="g2_1721" />
<path d="M316.2,969l0.7,0l0,-844.1l-0.7,0l0,844.1Z" class="g2_1721" />
<path d="M361.3,969l0.7,0l0,-844.1l-0.7,0l0,844.1Z" class="g2_1721" />
<path d="M434.6,969l0.7,0l0,-844.1l-0.7,0l0,844.1Z" class="g2_1721" />
<path d="M521.5,969l0.7,0l0,-844.1l-0.7,0l0,844.1Z" class="g2_1721" />
<path d="M855.1,968.3l0.7,0l0,-842.6l-0.7,0l0,842.6Z" class="g2_1721" />
<path d="M69.9,125.7l785.9,0l0,-0.8l-785.9,0l0,0.8Z" class="g2_1721" />
<path d="M69.9,176.1l785.9,0l0,-0.7l-785.9,0l0,0.7Z" class="g2_1721" />
<path d="M69.9,229.5l785.9,0l0,-0.7l-785.9,0l0,0.7Z" class="g2_1721" />
<path d="M69.9,283l785.9,0l0,-0.8l-785.9,0l0,0.8Z" class="g2_1721" />
<path d="M69.9,336.5l785.9,0l0,-0.7l-785.9,0l0,0.7Z" class="g2_1721" />
<path d="M69.9,406.8l785.9,0l0,-0.7l-785.9,0l0,0.7Z" class="g2_1721" />
<path d="M69.9,477l785.9,0l0,-0.7l-785.9,0l0,0.7Z" class="g2_1721" />
<path d="M69.9,547.3l785.9,0l0,-0.7l-785.9,0l0,0.7Z" class="g2_1721" />
<path d="M69.9,617.7l785.9,0l0,-0.8l-785.9,0l0,0.8Z" class="g2_1721" />
<path d="M69.9,687.9l785.9,0l0,-0.8l-785.9,0l0,0.8Z" class="g2_1721" />
<path d="M69.9,758.2l785.9,0l0,-0.8l-785.9,0l0,0.8Z" class="g2_1721" />
<path d="M69.9,828.5l785.9,0l0,-0.8l-785.9,0l0,0.8Z" class="g2_1721" />
<path d="M69.9,898.7l785.9,0l0,-0.7L69.9,898l0,0.7Z" class="g2_1721" />
<path d="M69.9,969l785.9,0l0,-0.7l-785.9,0l0,0.7Z" class="g2_1721" />
</svg>