<?xml version="1.0" encoding="UTF-8" standalone="no"?>
<!DOCTYPE svg PUBLIC "-//W3C//DTD SVG 1.1//EN"
"http://www.w3.org/Graphics/SVG/1.1/DTD/svg11.dtd">
<svg viewBox="0 0 935 1210" version="1.1" xmlns="http://www.w3.org/2000/svg" xmlns:xlink="http://www.w3.org/1999/xlink">
<defs>
<style type="text/css"><![CDATA[
.g1_1353{
fill: #FFFFFF;
}
.g2_1353{
}
]]></style>
</defs>
<path d="M68.9,1149.3l686.3,0l0,-21.2l-686.3,0l0,21.2Z" class="g1_1353" />
<path d="M771.3,1149.3l83.7,0l0,-21.2l-83.7,0l0,21.2Z" class="g1_1353" />
<path d="M158.5,355.8l0.7,0l0,-231.7l-0.7,0l0,231.7Z" class="g2_1353" />
<path d="M763.5,355.8l0.7,0l0,-231.7l-0.7,0l0,231.7Z" class="g2_1353" />
<path d="M158.5,124.1l605.7,0l0,-0.7l-605.7,0l0,0.7Z" class="g2_1353" />
<path d="M158.5,356.6l605.7,0l0,-0.7l-605.7,0l0,0.7Z" class="g2_1353" />
<path fill-rule="evenodd" d="M664.8,253.2l0.8,-0.3l0.3,-0.2l0.1,-0.3l0.1,-0.1l0.1,-0.4l0.1,-0.3l-0.1,-0.3c-0.2,-0.5,-0.2,-0.9,-0.9,-1.1l-0.5,-0.1l-0.3,0.1c-1.5,0.1,-1.7,2.3,-0.4,2.8l0.4,0.1l0.3,0.1Z" class="g2_1353" />
<path d="M664.8,251.6l7.6,0l-0.3,1l-6.6,22.9l-0.7,2.6L664,275.5l-6.6,-22.9l-0.2,-1l1,0l0.7,0.6l6.6,22.9l-1.5,0.4l0,-0.4l6.6,-22.9l1.5,0.4l-0.7,0.6l-6.6,0Z" class="g2_1353" />
<path d="M658.2,253.2l6.6,0l0,-1.6l-6.6,0l0,1.6Z" class="g2_1353" />
<path fill-rule="evenodd" d="M664.8,252.4l6.6,0l-6.6,22.9l-6.6,-22.9Z" class="g2_1353" />
<path d="M663.3,251.6l3,0l0,-56.1l-3,0l0,56.1Z" class="g2_1353" />
<path fill-rule="evenodd" d="M631.8,261.5l0.5,0.4c1.2,0.6,2.8,-0.9,1.9,-2.1l-0.1,-0.3l-0.2,-0.2c-1.2,-1,-2.8,0.3,-2.4,1.7l0.1,0.3l0.2,0.2Z" class="g2_1353" />
<path d="M633,260.5l4.3,5l0.6,0.8l-0.9,0.4l-21.5,10.2l-2.3,1.2l1.3,-2.3l12.8,-20l0.6,-1l0.7,0.9l0,0.9l-12.7,20.1l-1.4,-0.9l0.4,-0.2l21.4,-10.3l0.7,1.4l-0.9,-0.2l-4.3,-5Z" class="g2_1353" />
<path d="M628.6,255.7l4.4,4.8l-1.2,1l-4.4,-4.8Z" class="g2_1353" />
<path fill-rule="evenodd" d="M632.4,261l4.3,4.9l-21.4,10.3L628,256.1Z" class="g2_1353" />
<path d="M660.6,238l-2,-2.3L632,259.4l2,2.3Z" class="g2_1353" />
<path d="M639,195.5l56.7,0l0,-20.6l-56.7,0l0,20.6Z" class="g1_1353" />
<path d="M639,175.3l57,0l0,-0.8l-57,0l0,0.8Z" class="g2_1353" />
<path d="M695.3,195.9l0.7,0l0,-21l-0.7,0l0,21Z" class="g2_1353" />
<path d="M638.6,195.9l57.1,0l0,-0.7l-57.1,0l0,0.7Z" class="g2_1353" />
<path d="M638.6,195.5l0.8,0l0,-21l-0.8,0l0,21Z" class="g2_1353" />
<path d="M582.3,195.5l56.7,0l0,-20.6l-56.7,0l0,20.6Z" class="g1_1353" />
<path d="M582.3,175.3l57.1,0l0,-0.8l-57.1,0l0,0.8Z" class="g2_1353" />
<path d="M638.6,195.9l0.8,0l0,-21l-0.8,0l0,21Z" class="g2_1353" />
<path d="M581.9,195.9l57.1,0l0,-0.7l-57.1,0l0,0.7Z" class="g2_1353" />
<path d="M581.9,195.5l0.7,0l0,-21l-0.7,0l0,21Z" class="g2_1353" />
<path d="M525.5,195.5l56.8,0l0,-20.6l-56.8,0l0,20.6Z" class="g1_1353" />
<path d="M525.5,175.3l57.1,0l0,-0.8l-57.1,0l0,0.8Z" class="g2_1353" />
<path d="M581.9,195.9l0.7,0l0,-21l-0.7,0l0,21Z" class="g2_1353" />
<path d="M525.2,195.9l57.1,0l0,-0.7l-57.1,0l0,0.7Z" class="g2_1353" />
<path d="M525.2,195.5l0.7,0l0,-21l-0.7,0l0,21Z" class="g2_1353" />
<path d="M468.8,195.5l56.7,0l0,-20.6l-56.7,0l0,20.6Z" class="g1_1353" />
<path d="M468.8,175.3l57.1,0l0,-0.8l-57.1,0l0,0.8Z" class="g2_1353" />
<path d="M525.2,195.9l0.7,0l0,-21l-0.7,0l0,21Z" class="g2_1353" />
<path d="M468.4,195.9l57.1,0l0,-0.7l-57.1,0l0,0.7Z" class="g2_1353" />
<path d="M468.4,195.5l0.7,0l0,-21l-0.7,0l0,21Z" class="g2_1353" />
<path d="M639,236.8l56.7,0l0,-20.7l-56.7,0l0,20.7Z" class="g1_1353" />
<path d="M639,216.5l57,0l0,-0.7l-57,0l0,0.7Z" class="g2_1353" />
<path d="M695.3,237.1l0.7,0l0,-21l-0.7,0l0,21Z" class="g2_1353" />
<path d="M638.6,237.1l57.1,0l0,-0.7l-57.1,0l0,0.7Z" class="g2_1353" />
<path d="M638.6,236.8l0.8,0l0,-21l-0.8,0l0,21Z" class="g2_1353" />
<path d="M582.3,236.8l56.7,0l0,-20.7l-56.7,0l0,20.7Z" class="g1_1353" />
<path d="M582.3,216.5l57.1,0l0,-0.7l-57.1,0l0,0.7Z" class="g2_1353" />
<path d="M638.6,237.1l0.8,0l0,-21l-0.8,0l0,21Z" class="g2_1353" />
<path d="M581.9,237.1l57.1,0l0,-0.7l-57.1,0l0,0.7Z" class="g2_1353" />
<path d="M581.9,236.8l0.7,0l0,-21l-0.7,0l0,21Z" class="g2_1353" />
<path d="M525.5,236.8l56.8,0l0,-20.7l-56.8,0l0,20.7Z" class="g1_1353" />
<path d="M525.5,216.5l57.1,0l0,-0.7l-57.1,0l0,0.7Z" class="g2_1353" />
<path d="M581.9,237.1l0.7,0l0,-21l-0.7,0l0,21Z" class="g2_1353" />
<path d="M525.2,237.1l57.1,0l0,-0.7l-57.1,0l0,0.7Z" class="g2_1353" />
<path d="M525.2,236.8l0.7,0l0,-21l-0.7,0l0,21Z" class="g2_1353" />
<path d="M468.8,236.8l56.7,0l0,-20.7l-56.7,0l0,20.7Z" class="g1_1353" />
<path d="M468.8,216.5l57.1,0l0,-0.7l-57.1,0l0,0.7Z" class="g2_1353" />
<path d="M525.2,237.1l0.7,0l0,-21l-0.7,0l0,21Z" class="g2_1353" />
<path d="M468.4,237.1l57.1,0l0,-0.7l-57.1,0l0,0.7Z" class="g2_1353" />
<path d="M468.4,236.8l0.7,0l0,-21l-0.7,0l0,21Z" class="g2_1353" />
<path d="M639,298.6l56.7,0l0,-20.6L639,278l0,20.6Z" class="g1_1353" />
<path d="M639,278.4l57,0l0,-0.7l-57,0l0,0.7Z" class="g2_1353" />
<path d="M695.3,299l0.7,0l0,-21l-0.7,0l0,21Z" class="g2_1353" />
<path d="M638.6,299l57.1,0l0,-0.7l-57.1,0l0,0.7Z" class="g2_1353" />
<path d="M638.6,298.6l0.8,0l0,-20.9l-0.8,0l0,20.9Z" class="g2_1353" />
<path d="M582.3,298.6l56.7,0L639,278l-56.7,0l0,20.6Z" class="g1_1353" />
<path d="M582.3,278.4l57.1,0l0,-0.7l-57.1,0l0,0.7Z" class="g2_1353" />
<path d="M638.6,299l0.8,0l0,-21l-0.8,0l0,21Z" class="g2_1353" />
<path d="M581.9,299l57.1,0l0,-0.7l-57.1,0l0,0.7Z" class="g2_1353" />
<path d="M581.9,298.6l0.7,0l0,-20.9l-0.7,0l0,20.9Z" class="g2_1353" />
<path d="M525.5,298.6l56.8,0l0,-20.6l-56.8,0l0,20.6Z" class="g1_1353" />
<path d="M525.5,278.4l57.1,0l0,-0.7l-57.1,0l0,0.7Z" class="g2_1353" />
<path d="M581.9,299l0.7,0l0,-21l-0.7,0l0,21Z" class="g2_1353" />
<path d="M525.2,299l57.1,0l0,-0.7l-57.1,0l0,0.7Z" class="g2_1353" />
<path d="M525.2,298.6l0.7,0l0,-20.9l-0.7,0l0,20.9Z" class="g2_1353" />
<path d="M468.8,298.6l56.7,0l0,-20.6l-56.7,0l0,20.6Z" class="g1_1353" />
<path d="M468.8,278.4l57.1,0l0,-0.7l-57.1,0l0,0.7Z" class="g2_1353" />
<path d="M525.2,299l0.7,0l0,-21l-0.7,0l0,21Z" class="g2_1353" />
<path d="M468.4,299l57.1,0l0,-0.7l-57.1,0l0,0.7Z" class="g2_1353" />
<path d="M468.4,298.6l0.7,0l0,-20.9l-0.7,0l0,20.9Z" class="g2_1353" />
<path d="M412.1,298.6l56.7,0l0,-20.6l-56.7,0l0,20.6Z" class="g1_1353" />
<path d="M412.1,278.4l57.1,0l0,-0.7l-57.1,0l0,0.7Z" class="g2_1353" />
<path d="M468.4,299l0.7,0l0,-21l-0.7,0l0,21Z" class="g2_1353" />
<path d="M411.8,299l57,0l0,-0.7l-57,0l0,0.7Z" class="g2_1353" />
<path d="M411.8,298.6l0.7,0l0,-20.9l-0.7,0l0,20.9Z" class="g2_1353" />
<path d="M355.4,298.6l56.7,0l0,-20.6l-56.7,0l0,20.6Z" class="g1_1353" />
<path d="M355.4,278.4l57.1,0l0,-0.7l-57.1,0l0,0.7Z" class="g2_1353" />
<path d="M411.8,299l0.7,0l0,-21l-0.7,0l0,21Z" class="g2_1353" />
<path d="M355,299l57.1,0l0,-0.7l-57.1,0l0,0.7Z" class="g2_1353" />
<path d="M355,298.6l0.8,0l0,-20.9l-0.8,0l0,20.9Z" class="g2_1353" />
<path d="M298.6,298.6l56.8,0l0,-20.6l-56.8,0l0,20.6Z" class="g1_1353" />
<path d="M298.6,278.4l57.2,0l0,-0.7l-57.2,0l0,0.7Z" class="g2_1353" />
<path d="M355,299l0.8,0l0,-21l-0.8,0l0,21Z" class="g2_1353" />
<path d="M298.3,299l57.1,0l0,-0.7l-57.1,0l0,0.7Z" class="g2_1353" />
<path d="M298.3,298.6l0.7,0l0,-20.9l-0.7,0l0,20.9Z" class="g2_1353" />
<path d="M241.9,298.6l56.7,0l0,-20.6l-56.7,0l0,20.6Z" class="g1_1353" />
<path d="M241.9,278.4l57.1,0l0,-0.7l-57.1,0l0,0.7Z" class="g2_1353" />
<path d="M298.3,299l0.7,0l0,-21l-0.7,0l0,21Z" class="g2_1353" />
<path d="M241.5,299l57.2,0l0,-0.7l-57.2,0l0,0.7Z" class="g2_1353" />
<path d="M241.5,298.6l0.8,0l0,-20.9l-0.8,0l0,20.9Z" class="g2_1353" />
<path d="M412.1,195.5l56.7,0l0,-20.6l-56.7,0l0,20.6Z" class="g1_1353" />
<path d="M412.1,175.3l57.1,0l0,-0.8l-57.1,0l0,0.8Z" class="g2_1353" />
<path d="M468.4,195.9l0.7,0l0,-21l-0.7,0l0,21Z" class="g2_1353" />
<path d="M411.8,195.9l57,0l0,-0.7l-57,0l0,0.7Z" class="g2_1353" />
<path d="M411.8,195.5l0.7,0l0,-21l-0.7,0l0,21Z" class="g2_1353" />
<path d="M355.4,195.5l56.7,0l0,-20.6l-56.7,0l0,20.6Z" class="g1_1353" />
<path d="M355.4,175.3l57.1,0l0,-0.8l-57.1,0l0,0.8Z" class="g2_1353" />
<path d="M411.8,195.9l0.7,0l0,-21l-0.7,0l0,21Z" class="g2_1353" />
<path d="M355,195.9l57.1,0l0,-0.7l-57.1,0l0,0.7Z" class="g2_1353" />
<path d="M355,195.5l0.8,0l0,-21l-0.8,0l0,21Z" class="g2_1353" />
<path d="M298.6,195.5l56.8,0l0,-20.6l-56.8,0l0,20.6Z" class="g1_1353" />
<path d="M298.6,175.3l57.2,0l0,-0.8l-57.2,0l0,0.8Z" class="g2_1353" />
<path d="M355,195.9l0.8,0l0,-21l-0.8,0l0,21Z" class="g2_1353" />
<path d="M298.3,195.9l57.1,0l0,-0.7l-57.1,0l0,0.7Z" class="g2_1353" />
<path d="M298.3,195.5l0.7,0l0,-21l-0.7,0l0,21Z" class="g2_1353" />
<path d="M241.9,195.5l56.7,0l0,-20.6l-56.7,0l0,20.6Z" class="g1_1353" />
<path d="M241.9,175.3l57.1,0l0,-0.8l-57.1,0l0,0.8Z" class="g2_1353" />
<path d="M298.3,195.9l0.7,0l0,-21l-0.7,0l0,21Z" class="g2_1353" />
<path d="M241.5,195.9l57.2,0l0,-0.7l-57.2,0l0,0.7Z" class="g2_1353" />
<path d="M241.5,195.5l0.8,0l0,-21l-0.8,0l0,21Z" class="g2_1353" />
<path d="M412.1,236.8l56.7,0l0,-20.7l-56.7,0l0,20.7Z" class="g1_1353" />
<path d="M412.1,216.5l57.1,0l0,-0.7l-57.1,0l0,0.7Z" class="g2_1353" />
<path d="M468.4,237.1l0.7,0l0,-21l-0.7,0l0,21Z" class="g2_1353" />
<path d="M411.8,237.1l57,0l0,-0.7l-57,0l0,0.7Z" class="g2_1353" />
<path d="M411.8,236.8l0.7,0l0,-21l-0.7,0l0,21Z" class="g2_1353" />
<path d="M355.4,236.8l56.7,0l0,-20.7l-56.7,0l0,20.7Z" class="g1_1353" />
<path d="M355.4,216.5l57.1,0l0,-0.7l-57.1,0l0,0.7Z" class="g2_1353" />
<path d="M411.8,237.1l0.7,0l0,-21l-0.7,0l0,21Z" class="g2_1353" />
<path d="M355,237.1l57.1,0l0,-0.7l-57.1,0l0,0.7Z" class="g2_1353" />
<path d="M355,236.8l0.8,0l0,-21l-0.8,0l0,21Z" class="g2_1353" />
<path d="M298.6,236.8l56.8,0l0,-20.7l-56.8,0l0,20.7Z" class="g1_1353" />
<path d="M298.6,216.5l57.2,0l0,-0.7l-57.2,0l0,0.7Z" class="g2_1353" />
<path d="M355,237.1l0.8,0l0,-21l-0.8,0l0,21Z" class="g2_1353" />
<path d="M298.3,237.1l57.1,0l0,-0.7l-57.1,0l0,0.7Z" class="g2_1353" />
<path d="M298.3,236.8l0.7,0l0,-21l-0.7,0l0,21Z" class="g2_1353" />
<path d="M241.9,236.8l56.7,0l0,-20.7l-56.7,0l0,20.7Z" class="g1_1353" />
<path d="M241.9,216.5l57.1,0l0,-0.7l-57.1,0l0,0.7Z" class="g2_1353" />
<path d="M298.3,237.1l0.7,0l0,-21l-0.7,0l0,21Z" class="g2_1353" />
<path d="M241.5,237.1l57.2,0l0,-0.7l-57.2,0l0,0.7Z" class="g2_1353" />
<path d="M241.5,236.8l0.8,0l0,-21l-0.8,0l0,21Z" class="g2_1353" />
<path fill-rule="evenodd" d="M566.2,258.1l0.3,0.2l0.3,0.1c1.5,0.2,2.5,-1.3,1.5,-2.5l-0.2,-0.2l-0.3,-0.1c-1.4,-0.7,-2.6,0.7,-1.9,2.1L566,258l0.2,0.1Z" class="g2_1353" />
<path d="M567.1,256.9l5.4,4l0.7,0.6l-0.7,0.6l-19.1,14.4l-2.2,1.6l1,-2.5l8.5,-22.2l0.4,-1l0.8,0.6l0.3,0.8l-8.5,22.3l-1.5,-0.5l0.3,-0.3l19,-14.4l1,1.2l-1,0l-5.3,-4Z" class="g2_1353" />
<path d="M561.9,253l5.2,3.9l-0.9,1.2L561,254.2Z" class="g2_1353" />
<path fill-rule="evenodd" d="M566.7,257.5l5.3,3.9l-19.1,14.4l8.6,-22.3Z" class="g2_1353" />
<path d="M614.3,196.4L612,194.6L566,256l2.3,1.9Z" class="g2_1353" />
<path fill-rule="evenodd" d="M523,269.2l0.1,0.3l0.2,0.2l0.3,0.2l0.2,0.1l0.3,0.1l0.6,0L525,270l0.2,0l0.3,-0.2l0.2,-0.3l0.2,-0.2L526,269l0,-0.6l-0.1,-0.3l-0.2,-0.3c-0.7,-1.2,-2.8,-0.7,-2.7,0.8l0,0.3l0,0.3Z" class="g2_1353" />
<path d="M524.4,268.7l2.3,6.1l0.3,1l-0.9,0.1l-23.8,2l-2.6,0.2l2.1,-1.5l19.1,-14.3l0.9,-0.7l0.2,0.9l-0.1,1l-19.1,14.2l-1,-1.1l0.4,-0.2l23.8,-2l0.1,1.5l-0.8,-0.5l-2.2,-6.2Z" class="g2_1353" />
<path d="M522,262.5l2.4,6.2l-1.3,0.5l-2.4,-6.1Z" class="g2_1353" />
<path fill-rule="evenodd" d="M523.8,268.9l2.3,6.2l-23.8,2l19.1,-14.3Z" class="g2_1353" />
<path d="M608.6,238.2l-1.1,-2.8l-83.6,31.9l1.1,2.8Z" class="g2_1353" />
<path fill-rule="evenodd" d="M443,253.2l0.3,-0.1l0.4,-0.1c1.3,-0.5,1,-2.7,-0.4,-2.8L443,250.1l-0.8,0.2l-0.3,0.2l-0.2,0.3l0,0.3l-0.2,0.5c0.1,0.5,0.1,1.1,0.7,1.3l0.8,0.3Z" class="g2_1353" />
<path d="M443,251.6l7.6,0l-0.2,1l-6.6,22.9l-0.8,2.6l-0.7,-2.6l-6.6,-22.9l-0.3,-1l1,0l0.8,0.6l6.6,22.9l-1.5,0.4l0,-0.4l6.6,-22.9l1.5,0.4l-0.8,0.6l-6.6,0Z" class="g2_1353" />
<path d="M436.4,253.2l6.6,0l0,-1.6l-6.6,0l0,1.6Z" class="g2_1353" />
<path fill-rule="evenodd" d="M443,252.4l6.6,0L443,275.3l-6.6,-22.9Z" class="g2_1353" />
<path d="M441.6,251.6l3,0l0,-56.1l-3,0l0,56.1Z" class="g2_1353" />
<path fill-rule="evenodd" d="M410.1,261.5l0.2,0.2l0.3,0.2l0.3,0.1l0.8,0l0.5,-0.4l0.2,-0.2l0.2,-0.2l0.1,-0.3l0.1,-0.3l0,-0.3l-0.2,-0.5l-0.2,-0.3l-0.3,-0.3L411.3,259l-0.3,0l-0.5,0.1l-0.3,0.2l-0.4,0.6l0,0.2l-0.1,0.3l0.1,0.3l0,0.3l0.1,0.3l0.2,0.2Z" class="g2_1353" />
<path d="M411.2,260.5l4.3,5l0.7,0.8l-0.9,0.4l-21.5,10.2l-2.4,1.2l1.4,-2.3l12.7,-20l0.7,-1l0.6,0.9l0.1,0.9l-12.7,20.1l-1.4,-0.9l0.4,-0.2l21.4,-10.3l0.7,1.4l-1,-0.2l-4.3,-5Z" class="g2_1353" />
<path d="M406.8,255.7l4.4,4.8l-1.2,1l-4.4,-4.8Z" class="g2_1353" />
<path fill-rule="evenodd" d="M410.7,261l4.3,4.9l-21.5,10.3l12.8,-20.1Z" class="g2_1353" />
<path d="M438.9,238l-2,-2.3l-26.7,23.7l2,2.3Z" class="g2_1353" />
<path fill-rule="evenodd" d="M344.6,258.1l0.2,0.2l0.3,0.1c1.5,0.2,2.5,-1.3,1.5,-2.5l-0.2,-0.2l-0.3,-0.1c-1.4,-0.7,-2.7,0.7,-2,2.1l0.2,0.3l0.3,0.1Z" class="g2_1353" />
<path d="M345.5,256.9l5.2,4l0.7,0.6l-0.7,0.6l-19,14.4l-2.2,1.6l1.1,-2.5L339,253.4l0.3,-1l0.9,0.6l0.2,0.8L332,276.1l-1.4,-0.5l0.2,-0.3l19,-14.4l0.9,1.2l-0.9,0l-5.2,-4Z" class="g2_1353" />
<path d="M340.2,253l5.3,3.9l-0.9,1.2l-5.3,-3.9Z" class="g2_1353" />
<path fill-rule="evenodd" d="M345,257.5l5.3,3.9l-19,14.4l8.4,-22.3Z" class="g2_1353" />
<path d="M392.7,196.4l-2.4,-1.8l-46,61.4l2.4,1.9Z" class="g2_1353" />
<path fill-rule="evenodd" d="M301.3,269.2l0.1,0.3l0.2,0.2l0.5,0.3l0.3,0.1l0.6,0l0.2,-0.1l0.3,0l0.3,-0.2l0.2,-0.3l0.2,-0.2l0,-0.3l0,-0.6l0,-0.3l-0.1,-0.3c-0.9,-1.2,-2.9,-0.6,-2.9,0.8l0,0.3l0.1,0.3Z" class="g2_1353" />
<path d="M302.7,268.7l2.3,6.1l0.2,1l-0.9,0.1l-23.7,2l-2.7,0.2l2.1,-1.5l19.1,-14.3l0.9,-0.7l0.3,0.9l-0.2,1L281,277.7l-1,-1.1l0.5,-0.2l23.7,-2l0.1,1.5l-0.7,-0.5l-2.3,-6.2Z" class="g2_1353" />
<path d="M300.3,262.5l2.4,6.2l-1.4,0.5l-2.4,-6.1Z" class="g2_1353" />
<path fill-rule="evenodd" d="M302,268.9l2.3,6.2l-23.7,2l19.1,-14.3Z" class="g2_1353" />
<path d="M386.8,238.2l-1.1,-2.8l-83.6,31.9l1.1,2.8Z" class="g2_1353" />
</svg>