<?xml version="1.0" encoding="UTF-8" standalone="no"?>
<!DOCTYPE svg PUBLIC "-//W3C//DTD SVG 1.1//EN"
"http://www.w3.org/Graphics/SVG/1.1/DTD/svg11.dtd">
<svg viewBox="0 0 935 1210" version="1.1" xmlns="http://www.w3.org/2000/svg" xmlns:xlink="http://www.w3.org/1999/xlink">
<defs>
<style type="text/css"><![CDATA[
.g1_1704{
fill: #FFFFFF;
}
.g2_1704{
}
]]></style>
</defs>
<path d="M165,1149.3l687.5,0l0,-21.2l-687.5,0l0,21.2Z" class="g1_1704" />
<path d="M68.8,1149.3l82.5,0l0,-21.2l-82.5,0l0,21.2Z" class="g1_1704" />
<path d="M68.6,597l0.7,0l0,-471.3l-0.7,0l0,471.3Z" class="g2_1704" />
<path d="M296,597.8l0.7,0l0,-472.9l-0.7,0l0,472.9Z" class="g2_1704" />
<path d="M341.1,597.8l0.7,0l0,-472.9l-0.7,0l0,472.9Z" class="g2_1704" />
<path d="M414.6,597.8l0.7,0l0,-472.9l-0.7,0l0,472.9Z" class="g2_1704" />
<path d="M503.6,597.8l0.7,0l0,-472.9l-0.7,0l0,472.9Z" class="g2_1704" />
<path d="M848.5,597l0.7,0l0,-471.3l-0.7,0l0,471.3Z" class="g2_1704" />
<path d="M68.6,125.7l780.6,0l0,-0.8l-780.6,0l0,0.8Z" class="g2_1704" />
<path d="M68.6,176.1l780.6,0l0,-0.7l-780.6,0l0,0.7Z" class="g2_1704" />
<path d="M68.6,246.3l780.6,0l0,-0.7l-780.6,0l0,0.7Z" class="g2_1704" />
<path d="M68.6,316.6l780.6,0l0,-0.7l-780.6,0l0,0.7Z" class="g2_1704" />
<path d="M68.6,386.9l780.6,0l0,-0.7l-780.6,0l0,0.7Z" class="g2_1704" />
<path d="M68.6,457.2l780.6,0l0,-0.7l-780.6,0l0,0.7Z" class="g2_1704" />
<path d="M68.6,527.4l780.6,0l0,-0.7l-780.6,0l0,0.7Z" class="g2_1704" />
<path d="M68.6,597.8l780.6,0l0,-0.8L68.6,597l0,0.8Z" class="g2_1704" />
<path d="M69.6,700.9l0.7,0l0,-48.1l-0.7,0l0,48.1Z" class="g2_1704" />
<path d="M204,701.6l0.8,0l0,-49.6l-0.8,0l0,49.6Z" class="g2_1704" />
<path d="M352.8,701.6l0.8,0l0,-49.6l-0.8,0l0,49.6Z" class="g2_1704" />
<path d="M564.9,701.6l0.8,0l0,-49.6l-0.8,0l0,49.6Z" class="g2_1704" />
<path d="M715.5,701.6l0.7,0l0,-49.6l-0.7,0l0,49.6Z" class="g2_1704" />
<path d="M850.8,700.9l0.8,0l0,-48.1l-0.8,0l0,48.1Z" class="g2_1704" />
<path d="M69.5,652.8l782.1,0l0,-0.8L69.5,652l0,0.8Z" class="g2_1704" />
<path d="M69.5,677.2l782.1,0l0,-0.7l-782.1,0l0,0.7Z" class="g2_1704" />
<path d="M69.5,701.6l782.1,0l0,-0.7l-782.1,0l0,0.7Z" class="g2_1704" />
</svg>