<?xml version="1.0" encoding="UTF-8" standalone="no"?>
<!DOCTYPE svg PUBLIC "-//W3C//DTD SVG 1.1//EN"
"http://www.w3.org/Graphics/SVG/1.1/DTD/svg11.dtd">
<svg viewBox="0 0 935 1210" version="1.1" xmlns="http://www.w3.org/2000/svg" xmlns:xlink="http://www.w3.org/1999/xlink">
<defs>
<style type="text/css"><![CDATA[
.g1_2076{
fill: #FFFFFF;
}
.g2_2076{
}
]]></style>
</defs>
<path d="M68.8,1149.3l783.7,0l0,-21.2l-783.7,0l0,21.2Z" class="g1_2076" />
<path d="M68.6,1082.9l0.7,0l0,-958.8l-0.7,0l0,958.8Z" class="g2_2076" />
<path d="M467.6,1083.6l0.7,0l0,-960.2l-0.7,0l0,960.2Z" class="g2_2076" />
<path d="M851.1,1082.9l0.8,0l0,-958.8l-0.8,0l0,958.8Z" class="g2_2076" />
<path d="M68.6,124.1l783.4,0l0,-0.7l-783.4,0l0,0.7Z" class="g2_2076" />
<path d="M68.6,148.6l783.4,0l0,-0.7l-783.4,0l0,0.7Z" class="g2_2076" />
<path d="M68.6,173L852,173l0,-0.8l-783.4,0l0,0.8Z" class="g2_2076" />
<path d="M68.6,197.4l783.4,0l0,-0.7l-783.4,0l0,0.7Z" class="g2_2076" />
<path d="M68.6,243.3l783.4,0l0,-0.7l-783.4,0l0,0.7Z" class="g2_2076" />
<path d="M68.6,267.8l783.4,0l0,-0.8L68.6,267l0,0.8Z" class="g2_2076" />
<path d="M68.6,292.1l783.4,0l0,-0.7l-783.4,0l0,0.7Z" class="g2_2076" />
<path d="M68.6,333.4l783.4,0l0,-0.7l-783.4,0l0,0.7Z" class="g2_2076" />
<path d="M68.6,357.9l783.4,0l0,-0.8l-783.4,0l0,0.8Z" class="g2_2076" />
<path d="M68.6,382.3l783.4,0l0,-0.7l-783.4,0l0,0.7Z" class="g2_2076" />
<path d="M68.6,406.8l783.4,0l0,-0.7l-783.4,0l0,0.7Z" class="g2_2076" />
<path d="M68.6,431.2l783.4,0l0,-0.7l-783.4,0l0,0.7Z" class="g2_2076" />
<path d="M68.6,455.7l783.4,0l0,-0.8l-783.4,0l0,0.8Z" class="g2_2076" />
<path d="M68.6,480.2l783.4,0l0,-0.8l-783.4,0l0,0.8Z" class="g2_2076" />
<path d="M68.6,504.5l783.4,0l0,-0.7l-783.4,0l0,0.7Z" class="g2_2076" />
<path d="M68.6,529L852,529l0,-0.7l-783.4,0l0,0.7Z" class="g2_2076" />
<path d="M68.6,553.5l783.4,0l0,-0.8l-783.4,0l0,0.8Z" class="g2_2076" />
<path d="M68.6,577.9l783.4,0l0,-0.8l-783.4,0l0,0.8Z" class="g2_2076" />
<path d="M68.6,602.3l783.4,0l0,-0.7l-783.4,0l0,0.7Z" class="g2_2076" />
<path d="M68.6,626.8l783.4,0l0,-0.7l-783.4,0l0,0.7Z" class="g2_2076" />
<path d="M68.6,651.2l783.4,0l0,-0.7l-783.4,0l0,0.7Z" class="g2_2076" />
<path d="M68.6,675.7l783.4,0l0,-0.8l-783.4,0l0,0.8Z" class="g2_2076" />
<path d="M68.6,700.2l783.4,0l0,-0.8l-783.4,0l0,0.8Z" class="g2_2076" />
<path d="M68.6,724.5l783.4,0l0,-0.7l-783.4,0l0,0.7Z" class="g2_2076" />
<path d="M68.6,749L852,749l0,-0.7l-783.4,0l0,0.7Z" class="g2_2076" />
<path d="M68.6,773.5l783.4,0l0,-0.8l-783.4,0l0,0.8Z" class="g2_2076" />
<path d="M68.6,797.9l783.4,0l0,-0.8l-783.4,0l0,0.8Z" class="g2_2076" />
<path d="M68.6,822.3l783.4,0l0,-0.7l-783.4,0l0,0.7Z" class="g2_2076" />
<path d="M68.6,846.8l783.4,0l0,-0.7l-783.4,0l0,0.7Z" class="g2_2076" />
<path d="M68.6,871.2l783.4,0l0,-0.7l-783.4,0l0,0.7Z" class="g2_2076" />
<path d="M68.6,895.7l783.4,0l0,-0.8l-783.4,0l0,0.8Z" class="g2_2076" />
<path d="M68.6,920.2l783.4,0l0,-0.8l-783.4,0l0,0.8Z" class="g2_2076" />
<path d="M68.6,944.5l783.4,0l0,-0.7l-783.4,0l0,0.7Z" class="g2_2076" />
<path d="M68.6,969L852,969l0,-0.7l-783.4,0l0,0.7Z" class="g2_2076" />
<path d="M68.6,993.5l783.4,0l0,-0.7l-783.4,0l0,0.7Z" class="g2_2076" />
<path d="M68.6,1017.9l783.4,0l0,-0.8l-783.4,0l0,0.8Z" class="g2_2076" />
<path d="M68.6,1042.3l783.4,0l0,-0.7l-783.4,0l0,0.7Z" class="g2_2076" />
<path d="M68.6,1083.6l783.4,0l0,-0.7l-783.4,0l0,0.7Z" class="g2_2076" />
</svg>