<?xml version="1.0" encoding="UTF-8" standalone="no"?>
<!DOCTYPE svg PUBLIC "-//W3C//DTD SVG 1.1//EN"
"http://www.w3.org/Graphics/SVG/1.1/DTD/svg11.dtd">
<svg viewBox="0 0 935 1210" version="1.1" xmlns="http://www.w3.org/2000/svg" xmlns:xlink="http://www.w3.org/1999/xlink">
<defs>
<style type="text/css"><![CDATA[
.g1_2161{
fill: #FFFFFF;
}
.g2_2161{
}
]]></style>
</defs>
<path d="M68.9,1149.3l783.8,0l0,-21.2l-783.8,0l0,21.2Z" class="g1_2161" />
<path d="M69.9,1095.1l0.8,0l0,-987.8l-0.8,0l0,987.8Z" class="g2_2161" />
<path d="M445.2,1095.9l0.8,0l0,-989.3l-0.8,0l0,989.3Z" class="g2_2161" />
<path d="M851.3,1095.1l0.7,0l0,-987.8l-0.7,0l0,987.8Z" class="g2_2161" />
<path d="M69.9,107.3l782.1,0l0,-0.7l-782.1,0l0,0.7Z" class="g2_2161" />
<path d="M69.9,131.7l782.1,0l0,-0.7L69.9,131l0,0.7Z" class="g2_2161" />
<path d="M69.9,156.2l782.1,0l0,-0.7l-782.1,0l0,0.7Z" class="g2_2161" />
<path d="M69.9,197.4l782.1,0l0,-0.7l-782.1,0l0,0.7Z" class="g2_2161" />
<path d="M69.9,221.9l782.1,0l0,-0.7l-782.1,0l0,0.7Z" class="g2_2161" />
<path d="M69.9,246.3l782.1,0l0,-0.7l-782.1,0l0,0.7Z" class="g2_2161" />
<path d="M69.9,270.8l782.1,0l0,-0.7l-782.1,0l0,0.7Z" class="g2_2161" />
<path d="M69.9,295.3l782.1,0l0,-0.8l-782.1,0l0,0.8Z" class="g2_2161" />
<path d="M69.9,336.5l782.1,0l0,-0.7l-782.1,0l0,0.7Z" class="g2_2161" />
<path d="M69.9,360.9l782.1,0l0,-0.7l-782.1,0l0,0.7Z" class="g2_2161" />
<path d="M69.9,385.4l782.1,0l0,-0.8l-782.1,0l0,0.8Z" class="g2_2161" />
<path d="M69.9,409.8l782.1,0l0,-0.7l-782.1,0l0,0.7Z" class="g2_2161" />
<path d="M69.9,434.3l782.1,0l0,-0.7l-782.1,0l0,0.7Z" class="g2_2161" />
<path d="M69.9,458.7l782.1,0l0,-0.7L69.9,458l0,0.7Z" class="g2_2161" />
<path d="M69.9,483.2l782.1,0l0,-0.8l-782.1,0l0,0.8Z" class="g2_2161" />
<path d="M69.9,507.7l782.1,0l0,-0.8l-782.1,0l0,0.8Z" class="g2_2161" />
<path d="M69.9,532L852,532l0,-0.7l-782.1,0l0,0.7Z" class="g2_2161" />
<path d="M69.9,573.3l782.1,0l0,-0.7l-782.1,0l0,0.7Z" class="g2_2161" />
<path d="M69.9,597.8l782.1,0l0,-0.8L69.9,597l0,0.8Z" class="g2_2161" />
<path d="M69.9,622.2l782.1,0l0,-0.7l-782.1,0l0,0.7Z" class="g2_2161" />
<path d="M69.9,646.6l782.1,0l0,-0.7l-782.1,0l0,0.7Z" class="g2_2161" />
<path d="M69.9,671.1l782.1,0l0,-0.7l-782.1,0l0,0.7Z" class="g2_2161" />
<path d="M69.9,712.3l782.1,0l0,-0.7l-782.1,0l0,0.7Z" class="g2_2161" />
<path d="M69.9,736.8l782.1,0l0,-0.7l-782.1,0l0,0.7Z" class="g2_2161" />
<path d="M69.9,761.2l782.1,0l0,-0.7l-782.1,0l0,0.7Z" class="g2_2161" />
<path d="M69.9,785.7l782.1,0l0,-0.8l-782.1,0l0,0.8Z" class="g2_2161" />
<path d="M69.9,810.2l782.1,0l0,-0.8l-782.1,0l0,0.8Z" class="g2_2161" />
<path d="M69.9,834.5l782.1,0l0,-0.7l-782.1,0l0,0.7Z" class="g2_2161" />
<path d="M69.9,859L852,859l0,-0.7l-782.1,0l0,0.7Z" class="g2_2161" />
<path d="M69.9,883.5l782.1,0l0,-0.8l-782.1,0l0,0.8Z" class="g2_2161" />
<path d="M69.9,907.9l782.1,0l0,-0.8l-782.1,0l0,0.8Z" class="g2_2161" />
<path d="M69.9,949.1l782.1,0l0,-0.7l-782.1,0l0,0.7Z" class="g2_2161" />
<path d="M69.9,973.6l782.1,0l0,-0.7l-782.1,0l0,0.7Z" class="g2_2161" />
<path d="M69.9,998.1l782.1,0l0,-0.8l-782.1,0l0,0.8Z" class="g2_2161" />
<path d="M69.9,1022.5l782.1,0l0,-0.8l-782.1,0l0,0.8Z" class="g2_2161" />
<path d="M69.9,1046.9l782.1,0l0,-0.7l-782.1,0l0,0.7Z" class="g2_2161" />
<path d="M69.9,1071.4l782.1,0l0,-0.7l-782.1,0l0,0.7Z" class="g2_2161" />
<path d="M69.9,1095.8l782.1,0l0,-0.8l-782.1,0l0,0.8Z" class="g2_2161" />
</svg>