<?xml version="1.0" encoding="UTF-8" standalone="no"?>
<!DOCTYPE svg PUBLIC "-//W3C//DTD SVG 1.1//EN"
"http://www.w3.org/Graphics/SVG/1.1/DTD/svg11.dtd">
<svg viewBox="0 0 935 1210" version="1.1" xmlns="http://www.w3.org/2000/svg" xmlns:xlink="http://www.w3.org/1999/xlink">
<defs>
<style type="text/css"><![CDATA[
.g1_175{
fill: #FFFFFF;
}
.g2_175{
}
]]></style>
</defs>
<path d="M68.9,1149.3l686.3,0l0,-21.2l-686.3,0l0,21.2Z" class="g1_175" />
<path d="M771.3,1149.3l83.7,0l0,-21.2l-83.7,0l0,21.2Z" class="g1_175" />
<path d="M69.9,479.3l0.8,0l0,-353.6l-0.8,0l0,353.6Z" class="g2_175" />
<path d="M268.7,480.2l0.7,0l0,-355.3l-0.7,0l0,355.3Z" class="g2_175" />
<path d="M316.1,480.2l0.7,0l0,-355.3l-0.7,0l0,355.3Z" class="g2_175" />
<path d="M390.6,480.2l0.7,0l0,-355.3l-0.7,0l0,355.3Z" class="g2_175" />
<path d="M476.5,480.2l0.7,0l0,-355.3l-0.7,0l0,355.3Z" class="g2_175" />
<path d="M854.7,479.3l0.7,0l0,-353.6l-0.7,0l0,353.6Z" class="g2_175" />
<path d="M69.9,125.7l785.5,0l0,-0.8l-785.5,0l0,0.8Z" class="g2_175" />
<path d="M69.9,176.1l785.5,0l0,-0.7l-785.5,0l0,0.7Z" class="g2_175" />
<path d="M69.9,212.8l785.5,0l0,-0.8L69.9,212l0,0.8Z" class="g2_175" />
<path d="M69.9,266.2l785.5,0l0,-0.7l-785.5,0l0,0.7Z" class="g2_175" />
<path d="M69.9,319.6l785.5,0l0,-0.7l-785.5,0l0,0.7Z" class="g2_175" />
<path d="M69.9,373.2l785.5,0l0,-0.8l-785.5,0l0,0.8Z" class="g2_175" />
<path d="M69.9,426.6l785.5,0l0,-0.7l-785.5,0l0,0.7Z" class="g2_175" />
<path d="M69.9,480.2l785.5,0l0,-0.8l-785.5,0l0,0.8Z" class="g2_175" />
<path d="M73.6,632.1l0.7,0l0,-96.9l-0.7,0l0,96.9Z" class="g2_175" />
<path d="M216.6,632.9l0.7,0l0,-98.6l-0.7,0l0,98.6Z" class="g2_175" />
<path d="M362,632.9l0.7,0l0,-98.6l-0.7,0l0,98.6Z" class="g2_175" />
<path d="M569.2,632.9l0.7,0l0,-98.6l-0.7,0l0,98.6Z" class="g2_175" />
<path d="M716.1,632.9l0.7,0l0,-98.6l-0.7,0l0,98.6Z" class="g2_175" />
<path d="M848.4,632.1l0.7,0l0,-96.9l-0.7,0l0,96.9Z" class="g2_175" />
<path d="M73.6,535.2l775.5,0l0,-0.8l-775.5,0l0,0.8Z" class="g2_175" />
<path d="M73.6,559.5l775.5,0l0,-0.7l-775.5,0l0,0.7Z" class="g2_175" />
<path d="M73.6,584l775.5,0l0,-0.7l-775.5,0l0,0.7Z" class="g2_175" />
<path d="M73.6,608.5l775.5,0l0,-0.8l-775.5,0l0,0.8Z" class="g2_175" />
<path d="M73.6,632.9l775.5,0l0,-0.8l-775.5,0l0,0.8Z" class="g2_175" />
</svg>