<?xml version="1.0" encoding="UTF-8" standalone="no"?>
<!DOCTYPE svg PUBLIC "-//W3C//DTD SVG 1.1//EN"
"http://www.w3.org/Graphics/SVG/1.1/DTD/svg11.dtd">
<svg viewBox="0 0 935 1210" version="1.1" xmlns="http://www.w3.org/2000/svg" xmlns:xlink="http://www.w3.org/1999/xlink">
<defs>
<style type="text/css"><![CDATA[
.g1_1937{
fill: #FFFFFF;
}
.g2_1937{
}
]]></style>
</defs>
<path d="M68.9,1149.3l686.3,0l0,-21.2l-686.3,0l0,21.2Z" class="g1_1937" />
<path d="M771.3,1149.3l83.7,0l0,-21.2l-83.7,0l0,21.2Z" class="g1_1937" />
<path d="M72.1,283.8l0.7,0l0,-152l-0.7,0l0,152Z" class="g2_1937" />
<path d="M221.1,284.5l0.7,0l0,-153.5l-0.7,0l0,153.5Z" class="g2_1937" />
<path d="M390.2,284.5l0.8,0L391,131l-0.8,0l0,153.5Z" class="g2_1937" />
<path d="M428,284.5l0.7,0l0,-153.5l-0.7,0l0,153.5Z" class="g2_1937" />
<path d="M501.4,284.5l0.7,0l0,-153.5l-0.7,0l0,153.5Z" class="g2_1937" />
<path d="M572.8,284.5l0.8,0l0,-153.5l-0.8,0l0,153.5Z" class="g2_1937" />
<path d="M849.9,283.8l0.8,0l0,-152l-0.8,0l0,152Z" class="g2_1937" />
<path d="M72.1,131.7l778.6,0l0,-0.7L72.1,131l0,0.7Z" class="g2_1937" />
<path d="M72.1,169.9l778.6,0l0,-0.7l-778.6,0l0,0.7Z" class="g2_1937" />
<path d="M72.1,192.9l778.6,0l0,-0.8l-778.6,0l0,0.8Z" class="g2_1937" />
<path d="M72.1,215.8l778.6,0l0,-0.8L72.1,215l0,0.8Z" class="g2_1937" />
<path d="M72.1,238.7l778.6,0l0,-0.7L72.1,238l0,0.7Z" class="g2_1937" />
<path d="M72.1,261.6l778.6,0l0,-0.7l-778.6,0l0,0.7Z" class="g2_1937" />
<path d="M72.1,284.5l778.6,0l0,-0.7l-778.6,0l0,0.7Z" class="g2_1937" />
<path d="M71.6,427.4l0.7,0l0,-48.1l-0.7,0l0,48.1Z" class="g2_1937" />
<path d="M140.7,428.2l0.7,0l0,-49.7l-0.7,0l0,49.7Z" class="g2_1937" />
<path d="M309.1,428.2l0.7,0l0,-49.7l-0.7,0l0,49.7Z" class="g2_1937" />
<path d="M480.6,428.2l0.7,0l0,-49.7l-0.7,0l0,49.7Z" class="g2_1937" />
<path d="M660.7,428.2l0.8,0l0,-49.7l-0.8,0l0,49.7Z" class="g2_1937" />
<path d="M850.4,427.4l0.7,0l0,-48.1l-0.7,0l0,48.1Z" class="g2_1937" />
<path d="M71.6,379.2l779.5,0l0,-0.7l-779.5,0l0,0.7Z" class="g2_1937" />
<path d="M71.6,403.7l779.5,0l0,-0.7L71.6,403l0,0.7Z" class="g2_1937" />
<path d="M71.6,428.2l779.5,0l0,-0.8l-779.5,0l0,0.8Z" class="g2_1937" />
</svg>