<?xml version="1.0" encoding="UTF-8" standalone="no"?>
<!DOCTYPE svg PUBLIC "-//W3C//DTD SVG 1.1//EN"
"http://www.w3.org/Graphics/SVG/1.1/DTD/svg11.dtd">
<svg viewBox="0 0 935 1210" version="1.1" xmlns="http://www.w3.org/2000/svg" xmlns:xlink="http://www.w3.org/1999/xlink">
<defs>
<style type="text/css"><![CDATA[
.g1_881{
fill: #FFFFFF;
}
.g2_881{
}
]]></style>
</defs>
<path d="M68.9,1149.3l686.3,0l0,-21.2l-686.3,0l0,21.2Z" class="g1_881" />
<path d="M771.3,1149.3l83.7,0l0,-21.2l-83.7,0l0,21.2Z" class="g1_881" />
<path d="M70.3,202.9l0.7,0l0,-77.2l-0.7,0l0,77.2Z" class="g2_881" />
<path d="M221.7,203.6l0.7,0l0,-78.7l-0.7,0l0,78.7Z" class="g2_881" />
<path d="M393.2,203.6l0.8,0l0,-78.7l-0.8,0l0,78.7Z" class="g2_881" />
<path d="M431,203.6l0.8,0l0,-78.7l-0.8,0l0,78.7Z" class="g2_881" />
<path d="M504.2,203.6l0.7,0l0,-78.7l-0.7,0l0,78.7Z" class="g2_881" />
<path d="M575.3,203.6l0.7,0l0,-78.7l-0.7,0l0,78.7Z" class="g2_881" />
<path d="M851.7,202.9l0.7,0l0,-77.2l-0.7,0l0,77.2Z" class="g2_881" />
<path d="M70.3,125.7l782.1,0l0,-0.8l-782.1,0l0,0.8Z" class="g2_881" />
<path d="M70.3,163.8l782.1,0l0,-0.7l-782.1,0l0,0.7Z" class="g2_881" />
<path d="M70.3,203.6l782.1,0l0,-0.7l-782.1,0l0,0.7Z" class="g2_881" />
<path d="M70.5,306.7l0.7,0l0,-48.1l-0.7,0l0,48.1Z" class="g2_881" />
<path d="M141.9,307.4l0.7,0l0,-49.5l-0.7,0l0,49.5Z" class="g2_881" />
<path d="M319.5,307.4l0.7,0l0,-49.5l-0.7,0l0,49.5Z" class="g2_881" />
<path d="M493.3,307.4l0.7,0l0,-49.5l-0.7,0l0,49.5Z" class="g2_881" />
<path d="M671,307.4l0.7,0l0,-49.5l-0.7,0l0,49.5Z" class="g2_881" />
<path d="M851.5,306.7l0.7,0l0,-48.1l-0.7,0l0,48.1Z" class="g2_881" />
<path d="M70.5,258.6l781.8,0l0,-0.7l-781.8,0l0,0.7Z" class="g2_881" />
<path d="M70.5,283l781.8,0l0,-0.8l-781.8,0l0,0.8Z" class="g2_881" />
<path d="M70.5,307.4l781.8,0l0,-0.7l-781.8,0l0,0.7Z" class="g2_881" />
</svg>