<?xml version="1.0" encoding="UTF-8" standalone="no"?>
<!DOCTYPE svg PUBLIC "-//W3C//DTD SVG 1.1//EN"
"http://www.w3.org/Graphics/SVG/1.1/DTD/svg11.dtd">
<svg viewBox="0 0 935 1210" version="1.1" xmlns="http://www.w3.org/2000/svg" xmlns:xlink="http://www.w3.org/1999/xlink">
<defs>
<style type="text/css"><![CDATA[
.g1_1083{
fill: #FFFFFF;
}
.g2_1083{
}
]]></style>
</defs>
<path d="M68.9,1149.3l686.3,0l0,-21.2l-686.3,0l0,21.2Z" class="g1_1083" />
<path d="M771.3,1149.3l83.7,0l0,-21.2l-83.7,0l0,21.2Z" class="g1_1083" />
<path d="M66.9,430.5l0.8,0l0,-304.8l-0.8,0l0,304.8Z" class="g2_1083" />
<path d="M381.6,431.2l0.7,0l0,-306.3l-0.7,0l0,306.3Z" class="g2_1083" />
<path d="M424,431.2l0.8,0l0,-306.3l-0.8,0l0,306.3Z" class="g2_1083" />
<path d="M497.4,431.2l0.7,0l0,-306.3l-0.7,0l0,306.3Z" class="g2_1083" />
<path d="M578,431.2l0.7,0l0,-306.3l-0.7,0l0,306.3Z" class="g2_1083" />
<path d="M855.1,430.5l0.7,0l0,-304.8l-0.7,0l0,304.8Z" class="g2_1083" />
<path d="M66.9,125.7l789,0l0,-0.8l-789,0l0,0.8Z" class="g2_1083" />
<path d="M66.9,179.1l789,0l0,-0.7l-789,0l0,0.7Z" class="g2_1083" />
<path d="M66.9,223.4l789,0l0,-0.7l-789,0l0,0.7Z" class="g2_1083" />
<path d="M66.9,267.8l789,0l0,-0.8l-789,0l0,0.8Z" class="g2_1083" />
<path d="M66.9,312l789,0l0,-0.7l-789,0l0,0.7Z" class="g2_1083" />
<path d="M66.9,351.7l789,0l0,-0.7l-789,0l0,0.7Z" class="g2_1083" />
<path d="M66.9,391.5l789,0l0,-0.7l-789,0l0,0.7Z" class="g2_1083" />
<path d="M66.9,431.2l789,0l0,-0.7l-789,0l0,0.7Z" class="g2_1083" />
<path d="M71.6,583.3l0.7,0l0,-97.1l-0.7,0l0,97.1Z" class="g2_1083" />
<path d="M139.2,584l0.7,0l0,-98.5l-0.7,0l0,98.5Z" class="g2_1083" />
<path d="M318.5,584l0.8,0l0,-98.5l-0.8,0l0,98.5Z" class="g2_1083" />
<path d="M491.8,584l0.7,0l0,-98.5l-0.7,0l0,98.5Z" class="g2_1083" />
<path d="M673.8,584l0.7,0l0,-98.5l-0.7,0l0,98.5Z" class="g2_1083" />
<path d="M850.4,583.3l0.7,0l0,-97.1l-0.7,0l0,97.1Z" class="g2_1083" />
<path d="M71.6,486.2l779.5,0l0,-0.7l-779.5,0l0,0.7Z" class="g2_1083" />
<path d="M71.6,510.7l779.5,0l0,-0.8l-779.5,0l0,0.8Z" class="g2_1083" />
<path d="M71.6,535.2l779.5,0l0,-0.8l-779.5,0l0,0.8Z" class="g2_1083" />
<path d="M71.6,559.5l779.5,0l0,-0.7l-779.5,0l0,0.7Z" class="g2_1083" />
<path d="M71.6,584l779.5,0l0,-0.7l-779.5,0l0,0.7Z" class="g2_1083" />
</svg>