<?xml version="1.0" encoding="UTF-8" standalone="no"?>
<!DOCTYPE svg PUBLIC "-//W3C//DTD SVG 1.1//EN"
"http://www.w3.org/Graphics/SVG/1.1/DTD/svg11.dtd">
<svg viewBox="0 0 935 1210" version="1.1" xmlns="http://www.w3.org/2000/svg" xmlns:xlink="http://www.w3.org/1999/xlink">
<defs>
<style type="text/css"><![CDATA[
.g1_1851{
fill: #FFFFFF;
}
.g2_1851{
fill: #0860A8;
}
.g3_1851{
}
]]></style>
</defs>
<path d="M68.9,1149.3l686.3,0l0,-21.2l-686.3,0l0,21.2Z" class="g1_1851" />
<path d="M771.3,1149.3l83.7,0l0,-21.2l-83.7,0l0,21.2Z" class="g1_1851" />
<path d="M524.5,669.3l327.9,0l0,-0.8l-327.9,0l0,0.8Z" class="g2_1851" />
<path d="M70.3,686.1l673.5,0l0,-0.8l-673.5,0l0,0.8Z" class="g2_1851" />
<path d="M69.9,300.6l0.8,0L70.7,147l-0.8,0l0,153.6Z" class="g3_1851" />
<path d="M296.1,301.4l0.7,0l0,-155.1l-0.7,0l0,155.1Z" class="g3_1851" />
<path d="M339.5,301.4l0.8,0l0,-155.1l-0.8,0l0,155.1Z" class="g3_1851" />
<path d="M414.1,301.4l0.7,0l0,-155.1l-0.7,0l0,155.1Z" class="g3_1851" />
<path d="M498.9,301.4l0.8,0l0,-155.1l-0.8,0l0,155.1Z" class="g3_1851" />
<path d="M851.1,300.6l0.8,0l0,-153.6l-0.8,0l0,153.6Z" class="g3_1851" />
<path d="M69.9,147l782,0l0,-0.7l-782,0l0,0.7Z" class="g3_1851" />
<path d="M69.9,197.4l782,0l0,-0.7l-782,0l0,0.7Z" class="g3_1851" />
<path d="M69.9,301.3l782,0l0,-0.7l-782,0l0,0.7Z" class="g3_1851" />
<path d="M70.5,404.5l0.7,0l0,-48.1l-0.7,0l0,48.1Z" class="g3_1851" />
<path d="M169.6,405.3l0.7,0l0,-49.7l-0.7,0l0,49.7Z" class="g3_1851" />
<path d="M334.3,405.3l0.7,0l0,-49.7l-0.7,0l0,49.7Z" class="g3_1851" />
<path d="M506.7,405.3l0.8,0l0,-49.7l-0.8,0l0,49.7Z" class="g3_1851" />
<path d="M681.5,405.3l0.8,0l0,-49.7l-0.8,0l0,49.7Z" class="g3_1851" />
<path d="M851.5,404.5l0.7,0l0,-48.1l-0.7,0l0,48.1Z" class="g3_1851" />
<path d="M70.5,356.3l781.8,0l0,-0.7l-781.8,0l0,0.7Z" class="g3_1851" />
<path d="M70.5,380.8l781.8,0l0,-0.8L70.5,380l0,0.8Z" class="g3_1851" />
<path d="M70.5,405.3l781.8,0l0,-0.8l-781.8,0l0,0.8Z" class="g3_1851" />
</svg>