<?xml version="1.0" encoding="UTF-8" standalone="no"?>
<!DOCTYPE svg PUBLIC "-//W3C//DTD SVG 1.1//EN"
"http://www.w3.org/Graphics/SVG/1.1/DTD/svg11.dtd">
<svg viewBox="0 0 935 1210" version="1.1" xmlns="http://www.w3.org/2000/svg" xmlns:xlink="http://www.w3.org/1999/xlink">
<defs>
<style type="text/css"><![CDATA[
.g1_1047{
fill: #FFFFFF;
}
.g2_1047{
fill: #E4E4E4;
}
.g3_1047{
fill: #F4F4F4;
}
.g4_1047{
fill: #B3B3B3;
}
.g5_1047{
fill: #ECECEC;
}
.g6_1047{
}
]]></style>
</defs>
<path d="M68.9,1149.3l686.3,0l0,-21.2l-686.3,0l0,21.2Z" class="g1_1047" />
<path d="M771.3,1149.3l83.7,0l0,-21.2l-83.7,0l0,21.2Z" class="g1_1047" />
<path d="M295.1,215.4l30.2,0l0,-22.9l-30.2,0l0,22.9Z" class="g2_1047" />
<path d="M325.3,215.4l31.2,0l0,-22.9l-31.2,0l0,22.9Z" class="g2_1047" />
<path d="M356.5,215.4l32.1,0l0,-22.9l-32.1,0l0,22.9Z" class="g2_1047" />
<path d="M388.6,215.4l28.8,0l0,-22.9l-28.8,0l0,22.9Z" class="g2_1047" />
<path d="M417.4,215.4l30.5,0l0,-22.9l-30.5,0l0,22.9Z" class="g2_1047" />
<path d="M476.7,215.4l29.3,0l0,-22.9l-29.3,0l0,22.9Z" class="g3_1047" />
<path d="M506,215.4l46.8,0l0,-22.9l-46.8,0l0,22.9Z" class="g3_1047" />
<path d="M552.7,215.4l30.3,0l0,-22.9l-30.3,0l0,22.9Z" class="g3_1047" />
<path d="M583,215.4l30.2,0l0,-22.9l-30.2,0l0,22.9Z" class="g3_1047" />
<path d="M613.2,215.4l27.5,0l0,-22.9l-27.5,0l0,22.9Z" class="g3_1047" />
<path d="M640.7,215.4l28,0l0,-22.9l-28,0l0,22.9Z" class="g3_1047" />
<path d="M668.7,215.4l27.1,0l0,-22.9l-27.1,0l0,22.9Z" class="g3_1047" />
<path d="M695.7,215.4l26.6,0l0,-22.9l-26.6,0l0,22.9Z" class="g3_1047" />
<path d="M722.3,215.4l28.4,0l0,-22.9l-28.4,0l0,22.9Z" class="g3_1047" />
<path d="M750.7,215.4l30.3,0l0,-22.9l-30.3,0l0,22.9Z" class="g3_1047" />
<path d="M781,215.4l28.4,0l0,-22.9l-28.4,0l0,22.9Z" class="g3_1047" />
<path d="M295.1,245.9l30.2,0l0,-30.5l-30.2,0l0,30.5Z" class="g3_1047" />
<path d="M325.3,245.9l31.2,0l0,-30.5l-31.2,0l0,30.5Z" class="g2_1047" />
<path d="M356.5,245.9l32.1,0l0,-30.5l-32.1,0l0,30.5Z" class="g2_1047" />
<path d="M388.6,245.9l28.8,0l0,-30.5l-28.8,0l0,30.5Z" class="g3_1047" />
<path d="M417.4,245.9l30.5,0l0,-30.5l-30.5,0l0,30.5Z" class="g2_1047" />
<path d="M476.7,245.9l29.3,0l0,-30.5l-29.3,0l0,30.5Z" class="g3_1047" />
<path d="M506,245.9l46.8,0l0,-30.5l-46.8,0l0,30.5Z" class="g3_1047" />
<path d="M552.7,245.9l30.3,0l0,-30.5l-30.3,0l0,30.5Z" class="g3_1047" />
<path d="M583,245.9l30.2,0l0,-30.5l-30.2,0l0,30.5Z" class="g3_1047" />
<path d="M613.2,245.9l27.5,0l0,-30.5l-27.5,0l0,30.5Z" class="g3_1047" />
<path d="M640.7,245.9l28,0l0,-30.5l-28,0l0,30.5Z" class="g3_1047" />
<path d="M668.7,245.9l27.1,0l0,-30.5l-27.1,0l0,30.5Z" class="g3_1047" />
<path d="M695.7,245.9l26.6,0l0,-30.5l-26.6,0l0,30.5Z" class="g3_1047" />
<path d="M722.3,245.9l28.4,0l0,-30.5l-28.4,0l0,30.5Z" class="g3_1047" />
<path d="M750.7,245.9l30.3,0l0,-30.5l-30.3,0l0,30.5Z" class="g3_1047" />
<path d="M781,245.9l28.4,0l0,-30.5l-28.4,0l0,30.5Z" class="g3_1047" />
<path d="M295.1,268.9l30.2,0l0,-23l-30.2,0l0,23Z" class="g2_1047" />
<path d="M325.3,268.9l31.2,0l0,-23l-31.2,0l0,23Z" class="g2_1047" />
<path d="M356.5,268.9l32.1,0l0,-23l-32.1,0l0,23Z" class="g2_1047" />
<path d="M388.6,268.9l28.8,0l0,-23l-28.8,0l0,23Z" class="g2_1047" />
<path d="M417.4,268.9l30.5,0l0,-23l-30.5,0l0,23Z" class="g2_1047" />
<path d="M476.7,268.9l29.3,0l0,-23l-29.3,0l0,23Z" class="g3_1047" />
<path d="M506,268.9l46.8,0l0,-23l-46.8,0l0,23Z" class="g3_1047" />
<path d="M552.7,268.9l30.3,0l0,-23l-30.3,0l0,23Z" class="g3_1047" />
<path d="M583,268.9l30.2,0l0,-23l-30.2,0l0,23Z" class="g3_1047" />
<path d="M613.2,268.9l27.5,0l0,-23l-27.5,0l0,23Z" class="g3_1047" />
<path d="M640.7,268.9l28,0l0,-23l-28,0l0,23Z" class="g3_1047" />
<path d="M668.7,268.9l27.1,0l0,-23l-27.1,0l0,23Z" class="g3_1047" />
<path d="M695.7,268.9l26.6,0l0,-23l-26.6,0l0,23Z" class="g3_1047" />
<path d="M722.3,268.9l28.4,0l0,-23l-28.4,0l0,23Z" class="g3_1047" />
<path d="M750.7,268.9l30.3,0l0,-23l-30.3,0l0,23Z" class="g3_1047" />
<path d="M781,268.9l28.4,0l0,-23l-28.4,0l0,23Z" class="g3_1047" />
<path d="M295.1,291.8l30.2,0l0,-22.9l-30.2,0l0,22.9Z" class="g2_1047" />
<path d="M325.3,291.8l31.2,0l0,-22.9l-31.2,0l0,22.9Z" class="g2_1047" />
<path d="M356.5,291.8l32.1,0l0,-22.9l-32.1,0l0,22.9Z" class="g2_1047" />
<path d="M388.6,291.8l28.8,0l0,-22.9l-28.8,0l0,22.9Z" class="g2_1047" />
<path d="M417.4,291.8l30.5,0l0,-22.9l-30.5,0l0,22.9Z" class="g2_1047" />
<path d="M476.7,291.8l29.3,0l0,-22.9l-29.3,0l0,22.9Z" class="g3_1047" />
<path d="M506,291.8l46.8,0l0,-22.9l-46.8,0l0,22.9Z" class="g2_1047" />
<path d="M552.7,291.8l30.3,0l0,-22.9l-30.3,0l0,22.9Z" class="g3_1047" />
<path d="M583,291.8l30.2,0l0,-22.9l-30.2,0l0,22.9Z" class="g3_1047" />
<path d="M613.2,291.8l27.5,0l0,-22.9l-27.5,0l0,22.9Z" class="g2_1047" />
<path d="M640.7,291.8l28,0l0,-22.9l-28,0l0,22.9Z" class="g3_1047" />
<path d="M668.7,291.8l27.1,0l0,-22.9l-27.1,0l0,22.9Z" class="g3_1047" />
<path d="M695.7,291.8l26.6,0l0,-22.9l-26.6,0l0,22.9Z" class="g3_1047" />
<path d="M722.3,291.8l28.4,0l0,-22.9l-28.4,0l0,22.9Z" class="g3_1047" />
<path d="M750.7,291.8l30.3,0l0,-22.9l-30.3,0l0,22.9Z" class="g3_1047" />
<path d="M781,291.8l28.4,0l0,-22.9l-28.4,0l0,22.9Z" class="g3_1047" />
<path d="M295.1,314.7l30.2,0l0,-22.9l-30.2,0l0,22.9Z" class="g2_1047" />
<path d="M325.3,314.7l31.2,0l0,-22.9l-31.2,0l0,22.9Z" class="g2_1047" />
<path d="M356.5,314.7l32.1,0l0,-22.9l-32.1,0l0,22.9Z" class="g2_1047" />
<path d="M388.6,314.7l28.8,0l0,-22.9l-28.8,0l0,22.9Z" class="g2_1047" />
<path d="M417.4,314.7l30.5,0l0,-22.9l-30.5,0l0,22.9Z" class="g2_1047" />
<path d="M476.7,314.7l29.3,0l0,-22.9l-29.3,0l0,22.9Z" class="g3_1047" />
<path d="M506,314.7l46.8,0l0,-22.9l-46.8,0l0,22.9Z" class="g2_1047" />
<path d="M552.7,314.7l30.3,0l0,-22.9l-30.3,0l0,22.9Z" class="g3_1047" />
<path d="M583,314.7l30.2,0l0,-22.9l-30.2,0l0,22.9Z" class="g3_1047" />
<path d="M613.2,314.7l27.5,0l0,-22.9l-27.5,0l0,22.9Z" class="g3_1047" />
<path d="M640.7,314.7l28,0l0,-22.9l-28,0l0,22.9Z" class="g3_1047" />
<path d="M668.7,314.7l27.1,0l0,-22.9l-27.1,0l0,22.9Z" class="g3_1047" />
<path d="M695.7,314.7l26.6,0l0,-22.9l-26.6,0l0,22.9Z" class="g3_1047" />
<path d="M722.3,314.7l28.4,0l0,-22.9l-28.4,0l0,22.9Z" class="g3_1047" />
<path d="M750.7,314.7l30.3,0l0,-22.9l-30.3,0l0,22.9Z" class="g3_1047" />
<path d="M781,314.7l28.4,0l0,-22.9l-28.4,0l0,22.9Z" class="g3_1047" />
<path d="M295.1,337.6l30.2,0l0,-22.9l-30.2,0l0,22.9Z" class="g3_1047" />
<path d="M325.3,337.6l31.2,0l0,-22.9l-31.2,0l0,22.9Z" class="g2_1047" />
<path d="M356.5,337.6l32.1,0l0,-22.9l-32.1,0l0,22.9Z" class="g2_1047" />
<path d="M388.6,337.6l28.8,0l0,-22.9l-28.8,0l0,22.9Z" class="g3_1047" />
<path d="M417.4,337.6l30.5,0l0,-22.9l-30.5,0l0,22.9Z" class="g2_1047" />
<path d="M476.7,337.6l29.3,0l0,-22.9l-29.3,0l0,22.9Z" class="g3_1047" />
<path d="M506,337.6l46.8,0l0,-22.9l-46.8,0l0,22.9Z" class="g3_1047" />
<path d="M552.7,337.6l30.3,0l0,-22.9l-30.3,0l0,22.9Z" class="g3_1047" />
<path d="M583,337.6l30.2,0l0,-22.9l-30.2,0l0,22.9Z" class="g3_1047" />
<path d="M613.2,337.6l27.5,0l0,-22.9l-27.5,0l0,22.9Z" class="g3_1047" />
<path d="M640.7,337.6l28,0l0,-22.9l-28,0l0,22.9Z" class="g3_1047" />
<path d="M668.7,337.6l27.1,0l0,-22.9l-27.1,0l0,22.9Z" class="g3_1047" />
<path d="M695.7,337.6l26.6,0l0,-22.9l-26.6,0l0,22.9Z" class="g3_1047" />
<path d="M722.3,337.6l28.4,0l0,-22.9l-28.4,0l0,22.9Z" class="g3_1047" />
<path d="M750.7,337.6l30.3,0l0,-22.9l-30.3,0l0,22.9Z" class="g3_1047" />
<path d="M781,337.6l28.4,0l0,-22.9l-28.4,0l0,22.9Z" class="g3_1047" />
<path d="M295.1,360.5l30.2,0l0,-22.9l-30.2,0l0,22.9Z" class="g3_1047" />
<path d="M325.3,360.5l31.2,0l0,-22.9l-31.2,0l0,22.9Z" class="g2_1047" />
<path d="M356.5,360.5l32.1,0l0,-22.9l-32.1,0l0,22.9Z" class="g2_1047" />
<path d="M388.6,360.5l28.8,0l0,-22.9l-28.8,0l0,22.9Z" class="g3_1047" />
<path d="M417.4,360.5l30.5,0l0,-22.9l-30.5,0l0,22.9Z" class="g2_1047" />
<path d="M476.7,360.5l29.3,0l0,-22.9l-29.3,0l0,22.9Z" class="g3_1047" />
<path d="M506,360.5l46.8,0l0,-22.9l-46.8,0l0,22.9Z" class="g2_1047" />
<path d="M552.7,360.5l30.3,0l0,-22.9l-30.3,0l0,22.9Z" class="g3_1047" />
<path d="M583,360.5l30.2,0l0,-22.9l-30.2,0l0,22.9Z" class="g3_1047" />
<path d="M613.2,360.5l27.5,0l0,-22.9l-27.5,0l0,22.9Z" class="g2_1047" />
<path d="M640.7,360.5l28,0l0,-22.9l-28,0l0,22.9Z" class="g3_1047" />
<path d="M668.7,360.5l27.1,0l0,-22.9l-27.1,0l0,22.9Z" class="g3_1047" />
<path d="M695.7,360.5l26.6,0l0,-22.9l-26.6,0l0,22.9Z" class="g3_1047" />
<path d="M722.3,360.5l28.4,0l0,-22.9l-28.4,0l0,22.9Z" class="g3_1047" />
<path d="M750.7,360.5l30.3,0l0,-22.9l-30.3,0l0,22.9Z" class="g3_1047" />
<path d="M781,360.5l28.4,0l0,-22.9l-28.4,0l0,22.9Z" class="g3_1047" />
<path d="M295.1,383.4l30.2,0l0,-22.9l-30.2,0l0,22.9Z" class="g3_1047" />
<path d="M325.3,383.4l31.2,0l0,-22.9l-31.2,0l0,22.9Z" class="g2_1047" />
<path d="M356.5,383.4l32.1,0l0,-22.9l-32.1,0l0,22.9Z" class="g2_1047" />
<path d="M388.6,383.4l28.8,0l0,-22.9l-28.8,0l0,22.9Z" class="g3_1047" />
<path d="M417.4,383.4l30.5,0l0,-22.9l-30.5,0l0,22.9Z" class="g2_1047" />
<path d="M476.7,383.4l29.3,0l0,-22.9l-29.3,0l0,22.9Z" class="g3_1047" />
<path d="M506,383.4l46.8,0l0,-22.9l-46.8,0l0,22.9Z" class="g2_1047" />
<path d="M552.7,383.4l30.3,0l0,-22.9l-30.3,0l0,22.9Z" class="g3_1047" />
<path d="M583,383.4l30.2,0l0,-22.9l-30.2,0l0,22.9Z" class="g3_1047" />
<path d="M613.2,383.4l27.5,0l0,-22.9l-27.5,0l0,22.9Z" class="g3_1047" />
<path d="M640.7,383.4l28,0l0,-22.9l-28,0l0,22.9Z" class="g3_1047" />
<path d="M668.7,383.4l27.1,0l0,-22.9l-27.1,0l0,22.9Z" class="g3_1047" />
<path d="M695.7,383.4l26.6,0l0,-22.9l-26.6,0l0,22.9Z" class="g3_1047" />
<path d="M722.3,383.4l28.4,0l0,-22.9l-28.4,0l0,22.9Z" class="g3_1047" />
<path d="M750.7,383.4l30.3,0l0,-22.9l-30.3,0l0,22.9Z" class="g3_1047" />
<path d="M781,383.4l28.4,0l0,-22.9l-28.4,0l0,22.9Z" class="g3_1047" />
<path d="M159.7,406.4l60.4,0l0,-23l-60.4,0l0,23Z" class="g4_1047" />
<path d="M220.1,406.4l34.9,0l0,-23l-34.9,0l0,23Z" class="g4_1047" />
<path d="M255,406.4l40.1,0l0,-23l-40.1,0l0,23Z" class="g4_1047" />
<path d="M295.1,406.4l30.2,0l0,-23l-30.2,0l0,23Z" class="g4_1047" />
<path d="M325.3,406.4l31.2,0l0,-23l-31.2,0l0,23Z" class="g4_1047" />
<path d="M356.5,406.4l32.1,0l0,-23l-32.1,0l0,23Z" class="g4_1047" />
<path d="M388.6,406.4l28.8,0l0,-23l-28.8,0l0,23Z" class="g4_1047" />
<path d="M417.4,406.4l30.5,0l0,-23l-30.5,0l0,23Z" class="g4_1047" />
<path d="M447.9,406.4l28.8,0l0,-23l-28.8,0l0,23Z" class="g4_1047" />
<path d="M476.7,406.4l29.3,0l0,-23l-29.3,0l0,23Z" class="g4_1047" />
<path d="M506,406.4l46.8,0l0,-23l-46.8,0l0,23Z" class="g4_1047" />
<path d="M552.7,406.4l30.3,0l0,-23l-30.3,0l0,23Z" class="g4_1047" />
<path d="M583,406.4l30.2,0l0,-23l-30.2,0l0,23Z" class="g4_1047" />
<path d="M613.2,406.4l27.5,0l0,-23l-27.5,0l0,23Z" class="g4_1047" />
<path d="M640.7,406.4l28,0l0,-23l-28,0l0,23Z" class="g4_1047" />
<path d="M668.7,406.4l27.1,0l0,-23l-27.1,0l0,23Z" class="g4_1047" />
<path d="M695.7,406.4l26.6,0l0,-23l-26.6,0l0,23Z" class="g4_1047" />
<path d="M722.3,406.4l28.4,0l0,-23l-28.4,0l0,23Z" class="g4_1047" />
<path d="M750.7,406.4l30.3,0l0,-23l-30.3,0l0,23Z" class="g4_1047" />
<path d="M781,406.4l28.4,0l0,-23l-28.4,0l0,23Z" class="g4_1047" />
<path d="M295.1,429.4l30.2,0l0,-23l-30.2,0l0,23Z" class="g2_1047" />
<path d="M325.3,429.4l31.2,0l0,-23l-31.2,0l0,23Z" class="g2_1047" />
<path d="M356.5,429.4l32.1,0l0,-23l-32.1,0l0,23Z" class="g2_1047" />
<path d="M388.6,429.4l28.8,0l0,-23l-28.8,0l0,23Z" class="g2_1047" />
<path d="M417.4,429.4l30.5,0l0,-23l-30.5,0l0,23Z" class="g2_1047" />
<path d="M476.7,429.4l29.3,0l0,-23l-29.3,0l0,23Z" class="g3_1047" />
<path d="M506,429.4l46.8,0l0,-23l-46.8,0l0,23Z" class="g2_1047" />
<path d="M552.7,429.4l30.3,0l0,-23l-30.3,0l0,23Z" class="g3_1047" />
<path d="M583,429.4l30.2,0l0,-23l-30.2,0l0,23Z" class="g3_1047" />
<path d="M613.2,429.4l27.5,0l0,-23l-27.5,0l0,23Z" class="g3_1047" />
<path d="M640.7,429.4l28,0l0,-23l-28,0l0,23Z" class="g3_1047" />
<path d="M668.7,429.4l27.1,0l0,-23l-27.1,0l0,23Z" class="g3_1047" />
<path d="M695.7,429.4l26.6,0l0,-23l-26.6,0l0,23Z" class="g3_1047" />
<path d="M722.3,429.4l28.4,0l0,-23l-28.4,0l0,23Z" class="g3_1047" />
<path d="M750.7,429.4l30.3,0l0,-23l-30.3,0l0,23Z" class="g3_1047" />
<path d="M781,429.4l28.4,0l0,-23l-28.4,0l0,23Z" class="g3_1047" />
<path d="M159.7,452.3l60.4,0l0,-22.9l-60.4,0l0,22.9Z" class="g4_1047" />
<path d="M220.1,452.3l34.9,0l0,-22.9l-34.9,0l0,22.9Z" class="g4_1047" />
<path d="M255,452.3l40.1,0l0,-22.9l-40.1,0l0,22.9Z" class="g4_1047" />
<path d="M295.1,452.3l30.2,0l0,-22.9l-30.2,0l0,22.9Z" class="g4_1047" />
<path d="M325.3,452.3l31.2,0l0,-22.9l-31.2,0l0,22.9Z" class="g4_1047" />
<path d="M356.5,452.3l32.1,0l0,-22.9l-32.1,0l0,22.9Z" class="g4_1047" />
<path d="M388.6,452.3l28.8,0l0,-22.9l-28.8,0l0,22.9Z" class="g4_1047" />
<path d="M417.4,452.3l30.5,0l0,-22.9l-30.5,0l0,22.9Z" class="g4_1047" />
<path d="M447.9,452.3l28.8,0l0,-22.9l-28.8,0l0,22.9Z" class="g4_1047" />
<path d="M476.7,452.3l29.3,0l0,-22.9l-29.3,0l0,22.9Z" class="g4_1047" />
<path d="M506,452.3l46.8,0l0,-22.9l-46.8,0l0,22.9Z" class="g4_1047" />
<path d="M552.7,452.3l30.3,0l0,-22.9l-30.3,0l0,22.9Z" class="g4_1047" />
<path d="M583,452.3l30.2,0l0,-22.9l-30.2,0l0,22.9Z" class="g4_1047" />
<path d="M613.2,452.3l27.5,0l0,-22.9l-27.5,0l0,22.9Z" class="g4_1047" />
<path d="M640.7,452.3l28,0l0,-22.9l-28,0l0,22.9Z" class="g4_1047" />
<path d="M668.7,452.3l27.1,0l0,-22.9l-27.1,0l0,22.9Z" class="g4_1047" />
<path d="M695.7,452.3l26.6,0l0,-22.9l-26.6,0l0,22.9Z" class="g4_1047" />
<path d="M722.3,452.3l28.4,0l0,-22.9l-28.4,0l0,22.9Z" class="g4_1047" />
<path d="M750.7,452.3l30.3,0l0,-22.9l-30.3,0l0,22.9Z" class="g4_1047" />
<path d="M781,452.3l28.4,0l0,-22.9l-28.4,0l0,22.9Z" class="g4_1047" />
<path d="M295.1,475.2l30.2,0l0,-22.9l-30.2,0l0,22.9Z" class="g3_1047" />
<path d="M325.3,475.2l31.2,0l0,-22.9l-31.2,0l0,22.9Z" class="g2_1047" />
<path d="M356.5,475.2l32.1,0l0,-22.9l-32.1,0l0,22.9Z" class="g2_1047" />
<path d="M388.6,475.2l28.8,0l0,-22.9l-28.8,0l0,22.9Z" class="g3_1047" />
<path d="M417.4,475.2l30.5,0l0,-22.9l-30.5,0l0,22.9Z" class="g2_1047" />
<path d="M476.7,475.2l29.3,0l0,-22.9l-29.3,0l0,22.9Z" class="g3_1047" />
<path d="M506,475.2l46.8,0l0,-22.9l-46.8,0l0,22.9Z" class="g2_1047" />
<path d="M552.7,475.2l30.3,0l0,-22.9l-30.3,0l0,22.9Z" class="g3_1047" />
<path d="M583,475.2l30.2,0l0,-22.9l-30.2,0l0,22.9Z" class="g3_1047" />
<path d="M613.2,475.2l27.5,0l0,-22.9l-27.5,0l0,22.9Z" class="g3_1047" />
<path d="M640.7,475.2l28,0l0,-22.9l-28,0l0,22.9Z" class="g3_1047" />
<path d="M668.7,475.2l27.1,0l0,-22.9l-27.1,0l0,22.9Z" class="g3_1047" />
<path d="M695.7,475.2l26.6,0l0,-22.9l-26.6,0l0,22.9Z" class="g3_1047" />
<path d="M722.3,475.2l28.4,0l0,-22.9l-28.4,0l0,22.9Z" class="g3_1047" />
<path d="M750.7,475.2l30.3,0l0,-22.9l-30.3,0l0,22.9Z" class="g3_1047" />
<path d="M781,475.2l28.4,0l0,-22.9l-28.4,0l0,22.9Z" class="g3_1047" />
<path d="M295.1,513.3l30.2,0l0,-38.1l-30.2,0l0,38.1Z" class="g2_1047" />
<path d="M325.3,513.3l31.2,0l0,-38.1l-31.2,0l0,38.1Z" class="g2_1047" />
<path d="M356.5,513.3l32.1,0l0,-38.1l-32.1,0l0,38.1Z" class="g3_1047" />
<path d="M388.6,513.3l28.8,0l0,-38.1l-28.8,0l0,38.1Z" class="g2_1047" />
<path d="M417.4,513.3l30.5,0l0,-38.1l-30.5,0l0,38.1Z" class="g2_1047" />
<path d="M476.7,513.3l29.3,0l0,-38.1l-29.3,0l0,38.1Z" class="g3_1047" />
<path d="M506,513.3l46.8,0l0,-38.1l-46.8,0l0,38.1Z" class="g2_1047" />
<path d="M552.7,513.3l30.3,0l0,-38.1l-30.3,0l0,38.1Z" class="g3_1047" />
<path d="M583,513.3l30.2,0l0,-38.1l-30.2,0l0,38.1Z" class="g3_1047" />
<path d="M613.2,513.3l27.5,0l0,-38.1l-27.5,0l0,38.1Z" class="g2_1047" />
<path d="M640.7,513.3l28,0l0,-38.1l-28,0l0,38.1Z" class="g3_1047" />
<path d="M668.7,513.3l27.1,0l0,-38.1l-27.1,0l0,38.1Z" class="g3_1047" />
<path d="M695.7,513.3l26.6,0l0,-38.1l-26.6,0l0,38.1Z" class="g3_1047" />
<path d="M722.3,513.3l28.4,0l0,-38.1l-28.4,0l0,38.1Z" class="g3_1047" />
<path d="M750.7,513.3l30.3,0l0,-38.1l-30.3,0l0,38.1Z" class="g3_1047" />
<path d="M781,513.3l28.4,0l0,-38.1l-28.4,0l0,38.1Z" class="g3_1047" />
<path d="M295.1,536.3l30.2,0l0,-23l-30.2,0l0,23Z" class="g2_1047" />
<path d="M325.3,536.3l31.2,0l0,-23l-31.2,0l0,23Z" class="g2_1047" />
<path d="M356.5,536.3l32.1,0l0,-23l-32.1,0l0,23Z" class="g5_1047" />
<path d="M388.6,536.3l28.8,0l0,-23l-28.8,0l0,23Z" class="g2_1047" />
<path d="M417.4,536.3l30.5,0l0,-23l-30.5,0l0,23Z" class="g2_1047" />
<path d="M476.7,536.3l29.3,0l0,-23l-29.3,0l0,23Z" class="g3_1047" />
<path d="M506,536.3l46.8,0l0,-23l-46.8,0l0,23Z" class="g2_1047" />
<path d="M552.7,536.3l30.3,0l0,-23l-30.3,0l0,23Z" class="g3_1047" />
<path d="M583,536.3l30.2,0l0,-23l-30.2,0l0,23Z" class="g3_1047" />
<path d="M613.2,536.3l27.5,0l0,-23l-27.5,0l0,23Z" class="g3_1047" />
<path d="M640.7,536.3l28,0l0,-23l-28,0l0,23Z" class="g3_1047" />
<path d="M668.7,536.3l27.1,0l0,-23l-27.1,0l0,23Z" class="g3_1047" />
<path d="M695.7,536.3l26.6,0l0,-23l-26.6,0l0,23Z" class="g3_1047" />
<path d="M722.3,536.3l28.4,0l0,-23l-28.4,0l0,23Z" class="g3_1047" />
<path d="M750.7,536.3l30.3,0l0,-23l-30.3,0l0,23Z" class="g3_1047" />
<path d="M781,536.3l28.4,0l0,-23l-28.4,0l0,23Z" class="g3_1047" />
<path d="M159.7,559.2l60.4,0l0,-22.9l-60.4,0l0,22.9Z" class="g4_1047" />
<path d="M220.1,559.2l34.9,0l0,-22.9l-34.9,0l0,22.9Z" class="g4_1047" />
<path d="M255,559.2l40.1,0l0,-22.9l-40.1,0l0,22.9Z" class="g4_1047" />
<path d="M295.1,559.2l30.2,0l0,-22.9l-30.2,0l0,22.9Z" class="g4_1047" />
<path d="M325.3,559.2l31.2,0l0,-22.9l-31.2,0l0,22.9Z" class="g4_1047" />
<path d="M356.5,559.2l32.1,0l0,-22.9l-32.1,0l0,22.9Z" class="g4_1047" />
<path d="M388.6,559.2l28.8,0l0,-22.9l-28.8,0l0,22.9Z" class="g4_1047" />
<path d="M417.4,559.2l30.5,0l0,-22.9l-30.5,0l0,22.9Z" class="g4_1047" />
<path d="M447.9,559.2l28.8,0l0,-22.9l-28.8,0l0,22.9Z" class="g4_1047" />
<path d="M476.7,559.2l29.3,0l0,-22.9l-29.3,0l0,22.9Z" class="g4_1047" />
<path d="M506,559.2l46.8,0l0,-22.9l-46.8,0l0,22.9Z" class="g4_1047" />
<path d="M552.7,559.2l30.3,0l0,-22.9l-30.3,0l0,22.9Z" class="g4_1047" />
<path d="M583,559.2l30.2,0l0,-22.9l-30.2,0l0,22.9Z" class="g4_1047" />
<path d="M613.2,559.2l27.5,0l0,-22.9l-27.5,0l0,22.9Z" class="g4_1047" />
<path d="M640.7,559.2l28,0l0,-22.9l-28,0l0,22.9Z" class="g4_1047" />
<path d="M668.7,559.2l27.1,0l0,-22.9l-27.1,0l0,22.9Z" class="g4_1047" />
<path d="M695.7,559.2l26.6,0l0,-22.9l-26.6,0l0,22.9Z" class="g4_1047" />
<path d="M722.3,559.2l28.4,0l0,-22.9l-28.4,0l0,22.9Z" class="g4_1047" />
<path d="M750.7,559.2l30.3,0l0,-22.9l-30.3,0l0,22.9Z" class="g4_1047" />
<path d="M781,559.2l28.4,0l0,-22.9l-28.4,0l0,22.9Z" class="g4_1047" />
<path d="M295.1,582.1l30.2,0l0,-22.9l-30.2,0l0,22.9Z" class="g3_1047" />
<path d="M325.3,582.1l31.2,0l0,-22.9l-31.2,0l0,22.9Z" class="g2_1047" />
<path d="M356.5,582.1l32.1,0l0,-22.9l-32.1,0l0,22.9Z" class="g2_1047" />
<path d="M388.6,582.1l28.8,0l0,-22.9l-28.8,0l0,22.9Z" class="g3_1047" />
<path d="M417.4,582.1l30.5,0l0,-22.9l-30.5,0l0,22.9Z" class="g2_1047" />
<path d="M476.7,582.1l29.3,0l0,-22.9l-29.3,0l0,22.9Z" class="g3_1047" />
<path d="M506,582.1l46.8,0l0,-22.9l-46.8,0l0,22.9Z" class="g2_1047" />
<path d="M552.7,582.1l30.3,0l0,-22.9l-30.3,0l0,22.9Z" class="g3_1047" />
<path d="M583,582.1l30.2,0l0,-22.9l-30.2,0l0,22.9Z" class="g3_1047" />
<path d="M613.2,582.1l27.5,0l0,-22.9l-27.5,0l0,22.9Z" class="g3_1047" />
<path d="M640.7,582.1l28,0l0,-22.9l-28,0l0,22.9Z" class="g3_1047" />
<path d="M668.7,582.1l27.1,0l0,-22.9l-27.1,0l0,22.9Z" class="g3_1047" />
<path d="M695.7,582.1l26.6,0l0,-22.9l-26.6,0l0,22.9Z" class="g3_1047" />
<path d="M722.3,582.1l28.4,0l0,-22.9l-28.4,0l0,22.9Z" class="g3_1047" />
<path d="M750.7,582.1l30.3,0l0,-22.9l-30.3,0l0,22.9Z" class="g3_1047" />
<path d="M781,582.1l28.4,0l0,-22.9l-28.4,0l0,22.9Z" class="g3_1047" />
<path d="M70.3,611.7l785,0l0,-29.6l-785,0l0,29.6Z" class="g1_1047" />
<path d="M71.2,605l53.6,0l0,-12.4l-53.6,0l0,12.4Z" class="g1_1047" />
<path d="M70.3,718.7l89.4,0l0,-24.5l-89.4,0l0,24.5Z" class="g3_1047" />
<path d="M70.3,743.1l89.4,0l0,-24.4l-89.4,0l0,24.4Z" class="g3_1047" />
<path d="M70.3,767.5l89.4,0l0,-24.4l-89.4,0l0,24.4Z" class="g2_1047" />
<path d="M70.3,792l89.4,0l0,-24.5l-89.4,0l0,24.5Z" class="g4_1047" />
<path d="M69.9,581.7l0.8,0l0,-457.6l-0.8,0l0,457.6Z" class="g6_1047" />
<path d="M159.3,582.4l0.8,0l0,-459l-0.8,0l0,459Z" class="g6_1047" />
<path d="M219.9,582.4l0.4,0l0,-459l-0.4,0l0,459Z" class="g6_1047" />
<path d="M254.8,582.4l0.4,0l0,-459l-0.4,0l0,459Z" class="g6_1047" />
<path d="M294.9,582.4l0.4,0l0,-459l-0.4,0l0,459Z" class="g6_1047" />
<path d="M325.1,582.4l0.4,0l0,-435.9l-0.4,0l0,435.9Z" class="g6_1047" />
<path d="M356.3,582.4l0.4,0l0,-435.9l-0.4,0l0,435.9Z" class="g6_1047" />
<path d="M388.4,582.4l0.4,0l0,-435.9l-0.4,0l0,435.9Z" class="g6_1047" />
<path d="M417.2,582.4l0.3,0l0,-435.9l-0.3,0l0,435.9Z" class="g6_1047" />
<path d="M447.7,582.4l0.4,0l0,-435.9l-0.4,0l0,435.9Z" class="g6_1047" />
<path d="M476.5,582.4l0.3,0l0,-435.9l-0.3,0l0,435.9Z" class="g6_1047" />
<path d="M505.8,582.4l0.4,0l0,-435.9l-0.4,0l0,435.9Z" class="g6_1047" />
<path d="M552.6,582.4l0.3,0l0,-435.9l-0.3,0l0,435.9Z" class="g6_1047" />
<path d="M582.8,582.4l0.4,0l0,-435.9l-0.4,0l0,435.9Z" class="g6_1047" />
<path d="M613.1,582.4l0.3,0l0,-435.9l-0.3,0l0,435.9Z" class="g6_1047" />
<path d="M640.6,582.4l0.3,0l0,-435.9l-0.3,0l0,435.9Z" class="g6_1047" />
<path d="M668.5,582.4l0.4,0l0,-435.9l-0.4,0l0,435.9Z" class="g6_1047" />
<path d="M695.6,582.4l0.3,0l0,-435.9l-0.3,0l0,435.9Z" class="g6_1047" />
<path d="M722.1,582.4l0.4,0l0,-435.9l-0.4,0l0,435.9Z" class="g6_1047" />
<path d="M750.6,582.4l0.3,0l0,-435.9l-0.3,0l0,435.9Z" class="g6_1047" />
<path d="M780.8,582.4l0.4,0l0,-435.9l-0.4,0l0,435.9Z" class="g6_1047" />
<path d="M809.2,582.4l0.4,0l0,-459l-0.4,0l0,459Z" class="g6_1047" />
<path d="M854.9,581.7l0.7,0l0,-457.6l-0.7,0l0,457.6Z" class="g6_1047" />
<path d="M69.9,124.1l785.8,0l0,-0.7l-785.8,0l0,0.7Z" class="g6_1047" />
<path d="M294.9,146.8l514.7,0l0,-0.3l-514.7,0l0,0.3Z" class="g6_1047" />
<path d="M294.9,169.8l514.7,0l0,-0.4l-514.7,0l0,0.4Z" class="g6_1047" />
<path d="M69.9,192.9l681,0l0,-0.8l-681,0l0,0.8Z" class="g6_1047" />
<path d="M750.6,192.7l105.1,0l0,-0.4l-105.1,0l0,0.4Z" class="g6_1047" />
<path d="M159.3,215.6l696.4,0l0,-0.4l-696.4,0l0,0.4Z" class="g6_1047" />
<path d="M69.9,246.1l785.8,0l0,-0.3l-785.8,0l0,0.3Z" class="g6_1047" />
<path d="M159.3,269l696.4,0l0,-0.3l-696.4,0l0,0.3Z" class="g6_1047" />
<path d="M159.3,292l696.4,0l0,-0.4l-696.4,0l0,0.4Z" class="g6_1047" />
<path d="M159.3,314.9l696.4,0l0,-0.4l-696.4,0l0,0.4Z" class="g6_1047" />
<path d="M159.3,337.8l696.4,0l0,-0.4l-696.4,0l0,0.4Z" class="g6_1047" />
<path d="M159.3,360.7l696.4,0l0,-0.4l-696.4,0l0,0.4Z" class="g6_1047" />
<path d="M69.9,383.6l785.8,0l0,-0.3l-785.8,0l0,0.3Z" class="g6_1047" />
<path d="M159.3,406.5l696.4,0l0,-0.3l-696.4,0l0,0.3Z" class="g6_1047" />
<path d="M159.3,429.6l696.4,0l0,-0.4l-696.4,0l0,0.4Z" class="g6_1047" />
<path d="M159.3,452.5l696.4,0l0,-0.4l-696.4,0l0,0.4Z" class="g6_1047" />
<path d="M69.9,475.4l785.8,0l0,-0.4L69.9,475l0,0.4Z" class="g6_1047" />
<path d="M159.3,513.5l696.4,0l0,-0.3l-696.4,0l0,0.3Z" class="g6_1047" />
<path d="M159.3,536.4l696.4,0l0,-0.3l-696.4,0l0,0.3Z" class="g6_1047" />
<path d="M159.3,559.3l696.4,0l0,-0.3l-696.4,0l0,0.3Z" class="g6_1047" />
<path d="M69.9,582.4l785.8,0l0,-0.7l-785.8,0l0,0.7Z" class="g6_1047" />
<path d="M69.9,694l0.8,0l0,-23.8l-0.8,0l0,23.8Z" class="g6_1047" />
<path d="M70.1,791.8l0.4,0l0,-97.4l-0.4,0l0,97.4Z" class="g6_1047" />
<path d="M69.9,816l0.8,0l0,-23.8l-0.8,0l0,23.8Z" class="g6_1047" />
<path d="M159.5,792.4l0.4,0l0,-98.6l-0.4,0l0,98.6Z" class="g6_1047" />
<path d="M159.3,816.8l0.8,0l0,-25.2l-0.8,0l0,25.2Z" class="g6_1047" />
<path d="M494.5,816l0.7,0l0,-145.8l-0.7,0l0,145.8Z" class="g6_1047" />
<path d="M69.9,670.2l425.3,0l0,-0.8l-425.3,0l0,0.8Z" class="g6_1047" />
<path d="M69.9,694.4l89.6,0l0,-0.4l-89.6,0l0,0.4Z" class="g6_1047" />
<path d="M159.9,694.6l335.3,0l0,-0.8l-335.3,0l0,0.8Z" class="g6_1047" />
<path d="M70.1,718.8l89.8,0l0,-0.3l-89.8,0l0,0.3Z" class="g6_1047" />
<path d="M159.5,719l335.7,0l0,-0.7l-335.7,0l0,0.7Z" class="g6_1047" />
<path d="M70.1,743.3l89.8,0l0,-0.3l-89.8,0l0,0.3Z" class="g6_1047" />
<path d="M159.5,743.5l335.7,0l0,-0.7l-335.7,0l0,0.7Z" class="g6_1047" />
<path d="M70.1,767.7l89.8,0l0,-0.4l-89.8,0l0,0.4Z" class="g6_1047" />
<path d="M159.5,767.9l335.7,0l0,-0.7l-335.7,0l0,0.7Z" class="g6_1047" />
<path d="M69.9,792.2l90.1,0l0,-0.4l-90.1,0l0,0.4Z" class="g6_1047" />
<path d="M159.3,792.4l335.9,0l0,-0.8l-335.9,0l0,0.8Z" class="g6_1047" />
<path d="M69.9,816.8l425.3,0l0,-0.7l-425.3,0l0,0.7Z" class="g6_1047" />
</svg>