<?xml version="1.0" encoding="UTF-8" standalone="no"?>
<!DOCTYPE svg PUBLIC "-//W3C//DTD SVG 1.1//EN"
"http://www.w3.org/Graphics/SVG/1.1/DTD/svg11.dtd">
<svg viewBox="0 0 935 1210" version="1.1" xmlns="http://www.w3.org/2000/svg" xmlns:xlink="http://www.w3.org/1999/xlink">
<defs>
<style type="text/css"><![CDATA[
.g1_863{
fill: #FFFFFF;
}
.g2_863{
}
]]></style>
</defs>
<path d="M68.9,1149.3l686.3,0l0,-21.2l-686.3,0l0,21.2Z" class="g1_863" />
<path d="M771.3,1149.3l83.7,0l0,-21.2l-83.7,0l0,21.2Z" class="g1_863" />
<path d="M69.2,916.3l0.7,0l0,-790.6l-0.7,0l0,790.6Z" class="g2_863" />
<path d="M378.1,917.1l0.8,0l0,-792.2l-0.8,0l0,792.2Z" class="g2_863" />
<path d="M416,917.1l0.7,0l0,-792.2l-0.7,0l0,792.2Z" class="g2_863" />
<path d="M489.4,917.1l0.7,0l0,-792.2l-0.7,0l0,792.2Z" class="g2_863" />
<path d="M575.7,917.1l0.7,0l0,-792.2l-0.7,0l0,792.2Z" class="g2_863" />
<path d="M852.8,916.3l0.7,0l0,-790.6l-0.7,0l0,790.6Z" class="g2_863" />
<path d="M69.2,125.7l784.4,0l0,-0.8l-784.4,0l0,0.8Z" class="g2_863" />
<path d="M69.2,179.1l784.4,0l0,-0.7l-784.4,0l0,0.7Z" class="g2_863" />
<path d="M69.2,223.4l784.4,0l0,-0.7l-784.4,0l0,0.7Z" class="g2_863" />
<path d="M69.2,267.8l784.4,0l0,-0.8L69.2,267l0,0.8Z" class="g2_863" />
<path d="M69.2,312l784.4,0l0,-0.7l-784.4,0l0,0.7Z" class="g2_863" />
<path d="M69.2,368.6l784.4,0l0,-0.7l-784.4,0l0,0.7Z" class="g2_863" />
<path d="M69.2,408.3l784.4,0l0,-0.8l-784.4,0l0,0.8Z" class="g2_863" />
<path d="M69.2,464.8l784.4,0l0,-0.7l-784.4,0l0,0.7Z" class="g2_863" />
<path d="M69.2,521.4l784.4,0l0,-0.7l-784.4,0l0,0.7Z" class="g2_863" />
<path d="M69.2,577.9l784.4,0l0,-0.8l-784.4,0l0,0.8Z" class="g2_863" />
<path d="M69.2,634.4l784.4,0l0,-0.7l-784.4,0l0,0.7Z" class="g2_863" />
<path d="M69.2,691l784.4,0l0,-0.7l-784.4,0l0,0.7Z" class="g2_863" />
<path d="M69.2,747.4l784.4,0l0,-0.7l-784.4,0l0,0.7Z" class="g2_863" />
<path d="M69.2,804l784.4,0l0,-0.7l-784.4,0l0,0.7Z" class="g2_863" />
<path d="M69.2,860.6l784.4,0l0,-0.8l-784.4,0l0,0.8Z" class="g2_863" />
<path d="M69.2,917l784.4,0l0,-0.7l-784.4,0l0,0.7Z" class="g2_863" />
</svg>