<?xml version="1.0" encoding="UTF-8" standalone="no"?>
<!DOCTYPE svg PUBLIC "-//W3C//DTD SVG 1.1//EN"
"http://www.w3.org/Graphics/SVG/1.1/DTD/svg11.dtd">
<svg viewBox="0 0 935 1210" version="1.1" xmlns="http://www.w3.org/2000/svg" xmlns:xlink="http://www.w3.org/1999/xlink">
<defs>
<style type="text/css"><![CDATA[
.g1_2124{
fill: #FFFFFF;
}
.g2_2124{
}
]]></style>
</defs>
<path d="M68.8,1149.3l783.7,0l0,-21.2l-783.7,0l0,21.2Z" class="g1_2124" />
<path d="M68.6,1043.2l0.7,0L69.3,141l-0.7,0l0,902.2Z" class="g2_2124" />
<path d="M444,1043.9l0.8,0l0,-903.7l-0.8,0l0,903.7Z" class="g2_2124" />
<path d="M849.9,1043.2l0.8,0l0,-902.2l-0.8,0l0,902.2Z" class="g2_2124" />
<path d="M68.6,140.9l782.1,0l0,-0.7l-782.1,0l0,0.7Z" class="g2_2124" />
<path d="M68.6,165.4l782.1,0l0,-0.8l-782.1,0l0,0.8Z" class="g2_2124" />
<path d="M68.6,189.8l782.1,0l0,-0.7l-782.1,0l0,0.7Z" class="g2_2124" />
<path d="M68.6,214.2l782.1,0l0,-0.7l-782.1,0l0,0.7Z" class="g2_2124" />
<path d="M68.6,238.7l782.1,0l0,-0.7L68.6,238l0,0.7Z" class="g2_2124" />
<path d="M68.6,279.9l782.1,0l0,-0.7l-782.1,0l0,0.7Z" class="g2_2124" />
<path d="M68.6,321.2l782.1,0l0,-0.7l-782.1,0l0,0.7Z" class="g2_2124" />
<path d="M68.6,362.4l782.1,0l0,-0.7l-782.1,0l0,0.7Z" class="g2_2124" />
<path d="M68.6,403.7l782.1,0l0,-0.7L68.6,403l0,0.7Z" class="g2_2124" />
<path d="M68.6,444.9l782.1,0l0,-0.7l-782.1,0l0,0.7Z" class="g2_2124" />
<path d="M68.6,486.2l782.1,0l0,-0.7l-782.1,0l0,0.7Z" class="g2_2124" />
<path d="M68.6,510.7l782.1,0l0,-0.8l-782.1,0l0,0.8Z" class="g2_2124" />
<path d="M68.6,551.9l782.1,0l0,-0.7l-782.1,0l0,0.7Z" class="g2_2124" />
<path d="M68.6,593.2l782.1,0l0,-0.8l-782.1,0l0,0.8Z" class="g2_2124" />
<path d="M68.6,617.7l782.1,0l0,-0.8l-782.1,0l0,0.8Z" class="g2_2124" />
<path d="M68.6,658.9l782.1,0l0,-0.7l-782.1,0l0,0.7Z" class="g2_2124" />
<path d="M68.6,700.2l782.1,0l0,-0.8l-782.1,0l0,0.8Z" class="g2_2124" />
<path d="M68.6,724.5l782.1,0l0,-0.7l-782.1,0l0,0.7Z" class="g2_2124" />
<path d="M68.6,765.8l782.1,0l0,-0.7l-782.1,0l0,0.7Z" class="g2_2124" />
<path d="M68.6,807l782.1,0l0,-0.7l-782.1,0l0,0.7Z" class="g2_2124" />
<path d="M68.6,831.5l782.1,0l0,-0.7l-782.1,0l0,0.7Z" class="g2_2124" />
<path d="M68.6,856l782.1,0l0,-0.8l-782.1,0l0,0.8Z" class="g2_2124" />
<path d="M68.6,897.2l782.1,0l0,-0.7l-782.1,0l0,0.7Z" class="g2_2124" />
<path d="M68.6,921.6l782.1,0l0,-0.7l-782.1,0l0,0.7Z" class="g2_2124" />
<path d="M68.6,946.1l782.1,0l0,-0.7l-782.1,0l0,0.7Z" class="g2_2124" />
<path d="M68.6,970.6l782.1,0l0,-0.8l-782.1,0l0,0.8Z" class="g2_2124" />
<path d="M68.6,995l782.1,0l0,-0.8l-782.1,0l0,0.8Z" class="g2_2124" />
<path d="M68.6,1019.4l782.1,0l0,-0.7l-782.1,0l0,0.7Z" class="g2_2124" />
<path d="M68.6,1043.9l782.1,0l0,-0.7l-782.1,0l0,0.7Z" class="g2_2124" />
</svg>