<?xml version="1.0" encoding="UTF-8" standalone="no"?>
<!DOCTYPE svg PUBLIC "-//W3C//DTD SVG 1.1//EN"
"http://www.w3.org/Graphics/SVG/1.1/DTD/svg11.dtd">
<svg viewBox="0 0 935 1210" version="1.1" xmlns="http://www.w3.org/2000/svg" xmlns:xlink="http://www.w3.org/1999/xlink">
<defs>
<style type="text/css"><![CDATA[
.g1_1626{
fill: #FFFFFF;
}
.g2_1626{
}
]]></style>
</defs>
<path d="M165,1149.3l687.5,0l0,-21.2l-687.5,0l0,21.2Z" class="g1_1626" />
<path d="M68.8,1149.3l82.5,0l0,-21.2l-82.5,0l0,21.2Z" class="g1_1626" />
<path d="M68.6,445.8l0.7,0l0,-320.1l-0.7,0l0,320.1Z" class="g2_1626" />
<path d="M282.4,446.5l0.8,0l0,-321.6l-0.8,0l0,321.6Z" class="g2_1626" />
<path d="M325.8,446.5l0.7,0l0,-321.6l-0.7,0l0,321.6Z" class="g2_1626" />
<path d="M400.2,446.5l0.8,0l0,-321.6l-0.8,0l0,321.6Z" class="g2_1626" />
<path d="M489.2,446.5l0.8,0l0,-321.6l-0.8,0l0,321.6Z" class="g2_1626" />
<path d="M850.7,445.8l0.7,0l0,-320.1l-0.7,0l0,320.1Z" class="g2_1626" />
<path d="M68.6,125.7l782.9,0l0,-0.8l-782.9,0l0,0.8Z" class="g2_1626" />
<path d="M68.6,176.1l782.9,0l0,-0.7l-782.9,0l0,0.7Z" class="g2_1626" />
<path d="M68.6,229.5l782.9,0l0,-0.7l-782.9,0l0,0.7Z" class="g2_1626" />
<path d="M68.6,283l782.9,0l0,-0.8l-782.9,0l0,0.8Z" class="g2_1626" />
<path d="M68.6,336.5l782.9,0l0,-0.7l-782.9,0l0,0.7Z" class="g2_1626" />
<path d="M68.6,373.2l782.9,0l0,-0.8l-782.9,0l0,0.8Z" class="g2_1626" />
<path d="M68.6,409.8l782.9,0l0,-0.7l-782.9,0l0,0.7Z" class="g2_1626" />
<path d="M68.6,446.5l782.9,0l0,-0.7l-782.9,0l0,0.7Z" class="g2_1626" />
<path d="M69.9,575.6l0.7,0l0,-64.9l-0.7,0l0,64.9Z" class="g2_1626" />
<path d="M186.4,576.4l0.7,0l0,-66.5l-0.7,0l0,66.5Z" class="g2_1626" />
<path d="M351,576.4l0.7,0l0,-66.5l-0.7,0l0,66.5Z" class="g2_1626" />
<path d="M525.7,576.4l0.7,0l0,-66.5l-0.7,0l0,66.5Z" class="g2_1626" />
<path d="M689.1,576.4l0.8,0l0,-66.5l-0.8,0l0,66.5Z" class="g2_1626" />
<path d="M850.6,575.6l0.7,0l0,-64.9l-0.7,0l0,64.9Z" class="g2_1626" />
<path d="M69.8,510.7l781.5,0l0,-0.8l-781.5,0l0,0.8Z" class="g2_1626" />
<path d="M69.8,535.2l781.5,0l0,-0.8l-781.5,0l0,0.8Z" class="g2_1626" />
<path d="M69.8,576.4l781.5,0l0,-0.7l-781.5,0l0,0.7Z" class="g2_1626" />
</svg>