<?xml version="1.0" encoding="UTF-8" standalone="no"?>
<!DOCTYPE svg PUBLIC "-//W3C//DTD SVG 1.1//EN"
"http://www.w3.org/Graphics/SVG/1.1/DTD/svg11.dtd">
<svg viewBox="0 0 935 1210" version="1.1" xmlns="http://www.w3.org/2000/svg" xmlns:xlink="http://www.w3.org/1999/xlink">
<defs>
<style type="text/css"><![CDATA[
.g1_2145{
fill: #FFFFFF;
}
.g2_2145{
}
]]></style>
</defs>
<path d="M68.9,1149.3l783.8,0l0,-21.2l-783.8,0l0,21.2Z" class="g1_2145" />
<path d="M69.9,1093.6l0.8,0l0,-986.3l-0.8,0l0,986.3Z" class="g2_2145" />
<path d="M445.2,1094.3l0.8,0l0,-987.7l-0.8,0l0,987.7Z" class="g2_2145" />
<path d="M851.3,1093.6l0.7,0l0,-986.3l-0.7,0l0,986.3Z" class="g2_2145" />
<path d="M69.9,107.3l782.1,0l0,-0.7l-782.1,0l0,0.7Z" class="g2_2145" />
<path d="M69.9,131.7l782.1,0l0,-0.7L69.9,131l0,0.7Z" class="g2_2145" />
<path d="M69.9,173L852,173l0,-0.8l-782.1,0l0,0.8Z" class="g2_2145" />
<path d="M69.9,197.4l782.1,0l0,-0.7l-782.1,0l0,0.7Z" class="g2_2145" />
<path d="M69.9,221.9l782.1,0l0,-0.7l-782.1,0l0,0.7Z" class="g2_2145" />
<path d="M69.9,246.3l782.1,0l0,-0.7l-782.1,0l0,0.7Z" class="g2_2145" />
<path d="M69.9,270.8l782.1,0l0,-0.7l-782.1,0l0,0.7Z" class="g2_2145" />
<path d="M69.9,312L852,312l0,-0.7l-782.1,0l0,0.7Z" class="g2_2145" />
<path d="M69.9,336.5l782.1,0l0,-0.7l-782.1,0l0,0.7Z" class="g2_2145" />
<path d="M69.9,360.9l782.1,0l0,-0.7l-782.1,0l0,0.7Z" class="g2_2145" />
<path d="M69.9,385.4l782.1,0l0,-0.8l-782.1,0l0,0.8Z" class="g2_2145" />
<path d="M69.9,409.8l782.1,0l0,-0.7l-782.1,0l0,0.7Z" class="g2_2145" />
<path d="M69.9,434.3l782.1,0l0,-0.7l-782.1,0l0,0.7Z" class="g2_2145" />
<path d="M69.9,458.7l782.1,0l0,-0.7L69.9,458l0,0.7Z" class="g2_2145" />
<path d="M69.9,483.2l782.1,0l0,-0.8l-782.1,0l0,0.8Z" class="g2_2145" />
<path d="M69.9,507.7l782.1,0l0,-0.8l-782.1,0l0,0.8Z" class="g2_2145" />
<path d="M69.9,532L852,532l0,-0.7l-782.1,0l0,0.7Z" class="g2_2145" />
<path d="M69.9,556.5l782.1,0l0,-0.7l-782.1,0l0,0.7Z" class="g2_2145" />
<path d="M69.9,581L852,581l0,-0.8l-782.1,0l0,0.8Z" class="g2_2145" />
<path d="M69.9,605.4l782.1,0l0,-0.8l-782.1,0l0,0.8Z" class="g2_2145" />
<path d="M69.9,629.8l782.1,0l0,-0.7l-782.1,0l0,0.7Z" class="g2_2145" />
<path d="M69.9,654.3l782.1,0l0,-0.7l-782.1,0l0,0.7Z" class="g2_2145" />
<path d="M69.9,678.7l782.1,0l0,-0.7L69.9,678l0,0.7Z" class="g2_2145" />
<path d="M69.9,703.2l782.1,0l0,-0.8l-782.1,0l0,0.8Z" class="g2_2145" />
<path d="M69.9,727.7l782.1,0l0,-0.8l-782.1,0l0,0.8Z" class="g2_2145" />
<path d="M69.9,752L852,752l0,-0.7l-782.1,0l0,0.7Z" class="g2_2145" />
<path d="M69.9,776.5l782.1,0l0,-0.7l-782.1,0l0,0.7Z" class="g2_2145" />
<path d="M69.9,801L852,801l0,-0.8l-782.1,0l0,0.8Z" class="g2_2145" />
<path d="M69.9,825.4l782.1,0l0,-0.8l-782.1,0l0,0.8Z" class="g2_2145" />
<path d="M69.9,849.8l782.1,0l0,-0.7l-782.1,0l0,0.7Z" class="g2_2145" />
<path d="M69.9,874.3l782.1,0l0,-0.7l-782.1,0l0,0.7Z" class="g2_2145" />
<path d="M69.9,898.7l782.1,0l0,-0.7L69.9,898l0,0.7Z" class="g2_2145" />
<path d="M69.9,923.2l782.1,0l0,-0.8l-782.1,0l0,0.8Z" class="g2_2145" />
<path d="M69.9,947.7l782.1,0l0,-0.8l-782.1,0l0,0.8Z" class="g2_2145" />
<path d="M69.9,972L852,972l0,-0.7l-782.1,0l0,0.7Z" class="g2_2145" />
<path d="M69.9,996.5l782.1,0l0,-0.7l-782.1,0l0,0.7Z" class="g2_2145" />
<path d="M69.9,1021l782.1,0l0,-0.7l-782.1,0l0,0.7Z" class="g2_2145" />
<path d="M69.9,1045.4l782.1,0l0,-0.8l-782.1,0l0,0.8Z" class="g2_2145" />
<path d="M69.9,1069.8l782.1,0l0,-0.7l-782.1,0l0,0.7Z" class="g2_2145" />
<path d="M69.9,1094.3l782.1,0l0,-0.7l-782.1,0l0,0.7Z" class="g2_2145" />
</svg>