<?xml version="1.0" encoding="UTF-8" standalone="no"?>
<!DOCTYPE svg PUBLIC "-//W3C//DTD SVG 1.1//EN"
"http://www.w3.org/Graphics/SVG/1.1/DTD/svg11.dtd">
<svg viewBox="0 0 935 1210" version="1.1" xmlns="http://www.w3.org/2000/svg" xmlns:xlink="http://www.w3.org/1999/xlink">
<defs>
<style type="text/css"><![CDATA[
.g1_1308{
fill: #FFFFFF;
}
.g2_1308{
}
]]></style>
</defs>
<path d="M165,1149.3l687.5,0l0,-21.2l-687.5,0l0,21.2Z" class="g1_1308" />
<path d="M68.8,1149.3l82.5,0l0,-21.2l-82.5,0l0,21.2Z" class="g1_1308" />
<path d="M68.6,445.8l0.7,0l0,-320.1l-0.7,0l0,320.1Z" class="g2_1308" />
<path d="M306.9,446.5l0.7,0l0,-321.6l-0.7,0l0,321.6Z" class="g2_1308" />
<path d="M352.1,446.5l0.7,0l0,-321.6l-0.7,0l0,321.6Z" class="g2_1308" />
<path d="M426.5,446.5l0.8,0l0,-321.6l-0.8,0l0,321.6Z" class="g2_1308" />
<path d="M511.2,446.5l0.8,0l0,-321.6l-0.8,0l0,321.6Z" class="g2_1308" />
<path d="M852.5,445.8l0.7,0l0,-320.1l-0.7,0l0,320.1Z" class="g2_1308" />
<path d="M68.6,125.7l784.7,0l0,-0.8l-784.7,0l0,0.8Z" class="g2_1308" />
<path d="M68.6,176.1l784.7,0l0,-0.7l-784.7,0l0,0.7Z" class="g2_1308" />
<path d="M68.6,212.8l784.7,0l0,-0.8L68.6,212l0,0.8Z" class="g2_1308" />
<path d="M68.6,249.4l784.7,0l0,-0.7l-784.7,0l0,0.7Z" class="g2_1308" />
<path d="M68.6,286.1l784.7,0l0,-0.7l-784.7,0l0,0.7Z" class="g2_1308" />
<path d="M68.6,339.5l784.7,0l0,-0.7l-784.7,0l0,0.7Z" class="g2_1308" />
<path d="M68.6,393l784.7,0l0,-0.8l-784.7,0l0,0.8Z" class="g2_1308" />
<path d="M68.6,446.5l784.7,0l0,-0.7l-784.7,0l0,0.7Z" class="g2_1308" />
<path d="M68.5,598.5l0.7,0l0,-97l-0.7,0l0,97Z" class="g2_1308" />
<path d="M174.3,599.3l0.7,0l0,-98.5l-0.7,0l0,98.5Z" class="g2_1308" />
<path d="M342.4,599.3l0.7,0l0,-98.5l-0.7,0l0,98.5Z" class="g2_1308" />
<path d="M510.8,599.3l0.7,0l0,-98.5l-0.7,0l0,98.5Z" class="g2_1308" />
<path d="M679.9,599.3l0.7,0l0,-98.5l-0.7,0l0,98.5Z" class="g2_1308" />
<path d="M852,598.5l0.7,0l0,-97l-0.7,0l0,97Z" class="g2_1308" />
<path d="M68.5,501.5l784.2,0l0,-0.7l-784.2,0l0,0.7Z" class="g2_1308" />
<path d="M68.5,526l784.2,0l0,-0.8l-784.2,0l0,0.8Z" class="g2_1308" />
<path d="M68.5,550.4l784.2,0l0,-0.8l-784.2,0l0,0.8Z" class="g2_1308" />
<path d="M68.5,574.8l784.2,0l0,-0.7l-784.2,0l0,0.7Z" class="g2_1308" />
<path d="M68.5,599.3l784.2,0l0,-0.7l-784.2,0l0,0.7Z" class="g2_1308" />
</svg>