<?xml version="1.0" encoding="UTF-8" standalone="no"?>
<!DOCTYPE svg PUBLIC "-//W3C//DTD SVG 1.1//EN"
"http://www.w3.org/Graphics/SVG/1.1/DTD/svg11.dtd">
<svg viewBox="0 0 935 1210" version="1.1" xmlns="http://www.w3.org/2000/svg" xmlns:xlink="http://www.w3.org/1999/xlink">
<defs>
<style type="text/css"><![CDATA[
.g1_86{
fill: #FFFFFF;
}
.g2_86{
}
]]></style>
</defs>
<path d="M68.8,1149.3l783.7,0l0,-21.2l-783.7,0l0,21.2Z" class="g1_86" />
<path d="M72.5,841.5l0.7,0l0,-665.4l-0.7,0l0,665.4Z" class="g2_86" />
<path d="M212.2,842.2l0.7,0l0,-666.8l-0.7,0l0,666.8Z" class="g2_86" />
<path d="M248.9,842.2l0.7,0l0,-666.8l-0.7,0l0,666.8Z" class="g2_86" />
<path d="M290.9,842.2l0.7,0l0,-666.8l-0.7,0l0,666.8Z" class="g2_86" />
<path d="M330.2,842.2l0.7,0l0,-666.8l-0.7,0l0,666.8Z" class="g2_86" />
<path d="M365.7,842.2l0.8,0l0,-666.8l-0.8,0l0,666.8Z" class="g2_86" />
<path d="M847.9,841.5l0.8,0l0,-665.4l-0.8,0l0,665.4Z" class="g2_86" />
<path d="M72.5,176.1l776.1,0l0,-0.7l-776.1,0l0,0.7Z" class="g2_86" />
<path d="M72.5,279.9l776.1,0l0,-0.7l-776.1,0l0,0.7Z" class="g2_86" />
<path d="M212.2,304.4l636.4,0l0,-0.7l-636.4,0l0,0.7Z" class="g2_86" />
<path d="M212.2,328.8l636.4,0l0,-0.7l-636.4,0l0,0.7Z" class="g2_86" />
<path d="M212.2,448.1l636.4,0l0,-0.8l-636.4,0l0,0.8Z" class="g2_86" />
<path d="M212.2,472.4l636.4,0l0,-0.7l-636.4,0l0,0.7Z" class="g2_86" />
<path d="M212.2,496.9l636.4,0l0,-0.7l-636.4,0l0,0.7Z" class="g2_86" />
<path d="M72.5,521.4l776.1,0l0,-0.7l-776.1,0l0,0.7Z" class="g2_86" />
<path d="M72.5,562.7l776.1,0l0,-0.8l-776.1,0l0,0.8Z" class="g2_86" />
<path d="M212.2,587l636.4,0l0,-0.7l-636.4,0l0,0.7Z" class="g2_86" />
<path d="M72.5,611.5l776.1,0l0,-0.7l-776.1,0l0,0.7Z" class="g2_86" />
<path d="M212.2,652.8l636.4,0l0,-0.8l-636.4,0l0,0.8Z" class="g2_86" />
<path d="M212.2,677.2l636.4,0l0,-0.7l-636.4,0l0,0.7Z" class="g2_86" />
<path d="M72.5,718.5l776.1,0l0,-0.7l-776.1,0l0,0.7Z" class="g2_86" />
<path d="M72.5,759.7l776.1,0l0,-0.7L72.5,759l0,0.7Z" class="g2_86" />
<path d="M72.5,801l776.1,0l0,-0.8l-776.1,0l0,0.8Z" class="g2_86" />
<path d="M72.5,842.2l776.1,0l0,-0.7l-776.1,0l0,0.7Z" class="g2_86" />
</svg>