<?xml version="1.0" encoding="UTF-8" standalone="no"?>
<!DOCTYPE svg PUBLIC "-//W3C//DTD SVG 1.1//EN"
"http://www.w3.org/Graphics/SVG/1.1/DTD/svg11.dtd">
<svg viewBox="0 0 935 1210" version="1.1" xmlns="http://www.w3.org/2000/svg" xmlns:xlink="http://www.w3.org/1999/xlink">
<defs>
<style type="text/css"><![CDATA[
.g1_1656{
fill: #FFFFFF;
}
.g2_1656{
}
]]></style>
</defs>
<path d="M165,1149.3l687.5,0l0,-21.2l-687.5,0l0,21.2Z" class="g1_1656" />
<path d="M68.8,1149.3l82.5,0l0,-21.2l-82.5,0l0,21.2Z" class="g1_1656" />
<path d="M155.8,584.8l0.8,0l0,-254.3l-0.8,0l0,254.3Z" class="g2_1656" />
<path d="M229.7,585.7l0.7,0l0,-256l-0.7,0l0,256Z" class="g2_1656" />
<path d="M555,585.7l0.8,0l0,-256l-0.8,0l0,256Z" class="g2_1656" />
<path d="M764.5,584.8l0.7,0l0,-254.3l-0.7,0l0,254.3Z" class="g2_1656" />
<path d="M155.8,330.5l609.5,0l0,-0.8l-609.5,0l0,0.8Z" class="g2_1656" />
<path d="M155.8,354.9l609.5,0l0,-0.7l-609.5,0l0,0.7Z" class="g2_1656" />
<path d="M155.8,396.2l609.5,0l0,-0.7l-609.5,0l0,0.7Z" class="g2_1656" />
<path d="M155.8,420.7l609.5,0l0,-0.8l-609.5,0l0,0.8Z" class="g2_1656" />
<path d="M155.8,445l609.5,0l0,-0.7l-609.5,0l0,0.7Z" class="g2_1656" />
<path d="M155.8,486.3l609.5,0l0,-0.7l-609.5,0l0,0.7Z" class="g2_1656" />
<path d="M155.8,561.2l609.5,0l0,-0.8l-609.5,0l0,0.8Z" class="g2_1656" />
<path d="M155.8,585.7l609.5,0l0,-0.8l-609.5,0l0,0.8Z" class="g2_1656" />
</svg>