<?xml version="1.0" encoding="UTF-8" standalone="no"?>
<!DOCTYPE svg PUBLIC "-//W3C//DTD SVG 1.1//EN"
"http://www.w3.org/Graphics/SVG/1.1/DTD/svg11.dtd">
<svg viewBox="0 0 935 1210" version="1.1" xmlns="http://www.w3.org/2000/svg" xmlns:xlink="http://www.w3.org/1999/xlink">
<defs>
<style type="text/css"><![CDATA[
.g1_769{
fill: #FFFFFF;
}
.g2_769{
}
]]></style>
</defs>
<path d="M68.9,1149.3l686.3,0l0,-21.2l-686.3,0l0,21.2Z" class="g1_769" />
<path d="M771.3,1149.3l83.7,0l0,-21.2l-83.7,0l0,21.2Z" class="g1_769" />
<path d="M69.9,445.8l0.8,0l0,-320.1l-0.8,0l0,320.1Z" class="g2_769" />
<path d="M287.9,446.5l0.8,0l0,-321.6l-0.8,0l0,321.6Z" class="g2_769" />
<path d="M333.8,446.5l0.7,0l0,-321.6l-0.7,0l0,321.6Z" class="g2_769" />
<path d="M406.2,446.5l0.7,0l0,-321.6l-0.7,0l0,321.6Z" class="g2_769" />
<path d="M491.1,446.5l0.7,0l0,-321.6l-0.7,0l0,321.6Z" class="g2_769" />
<path d="M853.3,445.8l0.8,0l0,-320.1l-0.8,0l0,320.1Z" class="g2_769" />
<path d="M69.9,125.7l784.2,0l0,-0.8l-784.2,0l0,0.8Z" class="g2_769" />
<path d="M69.9,176.1l784.2,0l0,-0.7l-784.2,0l0,0.7Z" class="g2_769" />
<path d="M69.9,212.8l784.2,0l0,-0.8L69.9,212l0,0.8Z" class="g2_769" />
<path d="M69.9,249.4l784.2,0l0,-0.7l-784.2,0l0,0.7Z" class="g2_769" />
<path d="M69.9,286.1l784.2,0l0,-0.7l-784.2,0l0,0.7Z" class="g2_769" />
<path d="M69.9,339.5l784.2,0l0,-0.7l-784.2,0l0,0.7Z" class="g2_769" />
<path d="M69.9,393l784.2,0l0,-0.8l-784.2,0l0,0.8Z" class="g2_769" />
<path d="M69.9,446.5l784.2,0l0,-0.7l-784.2,0l0,0.7Z" class="g2_769" />
<path d="M70.5,574.1l0.7,0l0,-72.6l-0.7,0l0,72.6Z" class="g2_769" />
<path d="M196.2,574.8l0.7,0l0,-74l-0.7,0l0,74Z" class="g2_769" />
<path d="M360.9,574.8l0.7,0l0,-74l-0.7,0l0,74Z" class="g2_769" />
<path d="M527,574.8l0.7,0l0,-74l-0.7,0l0,74Z" class="g2_769" />
<path d="M687.5,574.8l0.7,0l0,-74l-0.7,0l0,74Z" class="g2_769" />
<path d="M851.5,574.1l0.7,0l0,-72.6l-0.7,0l0,72.6Z" class="g2_769" />
<path d="M70.5,501.5l781.7,0l0,-0.7l-781.7,0l0,0.7Z" class="g2_769" />
<path d="M70.5,526l781.7,0l0,-0.8l-781.7,0l0,0.8Z" class="g2_769" />
<path d="M70.5,550.4l781.7,0l0,-0.8l-781.7,0l0,0.8Z" class="g2_769" />
<path d="M70.5,574.8l781.7,0l0,-0.7l-781.7,0l0,0.7Z" class="g2_769" />
<path d="M158.5,965.3l0.7,0l0,-158.2l-0.7,0l0,158.2Z" class="g2_769" />
<path d="M763.5,965.3l0.7,0l0,-158.2l-0.7,0l0,158.2Z" class="g2_769" />
<path d="M158.5,807l605.7,0l0,-0.7l-605.7,0l0,0.7Z" class="g2_769" />
<path d="M158.5,966l605.7,0l0,-0.7l-605.7,0l0,0.7Z" class="g2_769" />
<path fill-rule="evenodd" d="M672.7,907.9l0.4,-0.1l0.3,-0.1c1.4,-0.5,1.1,-2.6,-0.3,-2.9l-0.4,0l-0.2,0c-1.5,0.3,-1.7,2.4,-0.3,2.9l0.5,0.2Z" class="g2_769" />
<path d="M672.7,906.3l7.7,0l-0.3,1l-6.6,22.9l-0.8,2.6L672,930.2l-6.5,-22.9l-0.3,-1l1,0l0.8,0.6l6.5,22.9l-1.5,0.4l0,-0.4l6.6,-22.9l1.5,0.4l-0.8,0.6l-6.6,0Z" class="g2_769" />
<path d="M666.2,907.9l6.5,0l0,-1.6l-6.5,0l0,1.6Z" class="g2_769" />
<path fill-rule="evenodd" d="M672.7,907l6.6,0l-6.6,23l-6.5,-23Z" class="g2_769" />
<path d="M671.3,906.3l3,0l0,-56.1l-3,0l0,56.1Z" class="g2_769" />
<path d="M420.1,850.2l56.7,0l0,-20.6l-56.7,0l0,20.6Z" class="g1_769" />
<path d="M420.1,830l57.1,0l0,-0.8l-57.1,0l0,0.8Z" class="g2_769" />
<path d="M476.5,850.6l0.7,0l0,-21l-0.7,0l0,21Z" class="g2_769" />
<path d="M419.7,850.6l57.1,0l0,-0.8l-57.1,0l0,0.8Z" class="g2_769" />
<path d="M419.7,850.2l0.8,0l0,-21l-0.8,0l0,21Z" class="g2_769" />
<path d="M363.4,850.2l56.7,0l0,-20.6l-56.7,0l0,20.6Z" class="g1_769" />
<path d="M363.4,830l57.1,0l0,-0.8l-57.1,0l0,0.8Z" class="g2_769" />
<path d="M419.7,850.6l0.8,0l0,-21l-0.8,0l0,21Z" class="g2_769" />
<path d="M363,850.6l57.1,0l0,-0.8l-57.1,0l0,0.8Z" class="g2_769" />
<path d="M363,850.2l0.7,0l0,-21l-0.7,0l0,21Z" class="g2_769" />
<path d="M306.6,850.2l56.8,0l0,-20.6l-56.8,0l0,20.6Z" class="g1_769" />
<path d="M306.6,830l57.1,0l0,-0.8l-57.1,0l0,0.8Z" class="g2_769" />
<path d="M363,850.6l0.7,0l0,-21l-0.7,0l0,21Z" class="g2_769" />
<path d="M306.3,850.6l57.1,0l0,-0.8l-57.1,0l0,0.8Z" class="g2_769" />
<path d="M306.3,850.2l0.7,0l0,-21l-0.7,0l0,21Z" class="g2_769" />
<path d="M250,850.2l56.6,0l0,-20.6l-56.6,0l0,20.6Z" class="g1_769" />
<path d="M250,830l57,0l0,-0.8l-57,0l0,0.8Z" class="g2_769" />
<path d="M306.3,850.6l0.7,0l0,-21l-0.7,0l0,21Z" class="g2_769" />
<path d="M249.6,850.6l57,0l0,-0.8l-57,0l0,0.8Z" class="g2_769" />
<path d="M249.6,850.2l0.7,0l0,-21l-0.7,0l0,21Z" class="g2_769" />
<path d="M647,953.3l56.7,0l0,-20.6l-56.7,0l0,20.6Z" class="g1_769" />
<path d="M647,933.1l57.1,0l0,-0.8l-57.1,0l0,0.8Z" class="g2_769" />
<path d="M703.4,953.7l0.7,0l0,-21l-0.7,0l0,21Z" class="g2_769" />
<path d="M646.6,953.7l57.1,0l0,-0.7l-57.1,0l0,0.7Z" class="g2_769" />
<path d="M646.6,953.3l0.7,0l0,-21l-0.7,0l0,21Z" class="g2_769" />
<path d="M590.2,953.3l56.8,0l0,-20.6l-56.8,0l0,20.6Z" class="g1_769" />
<path d="M590.2,933.1l57.2,0l0,-0.8l-57.2,0l0,0.8Z" class="g2_769" />
<path d="M646.6,953.7l0.7,0l0,-21l-0.7,0l0,21Z" class="g2_769" />
<path d="M589.9,953.7l57.1,0l0,-0.7l-57.1,0l0,0.7Z" class="g2_769" />
<path d="M589.9,953.3l0.7,0l0,-21l-0.7,0l0,21Z" class="g2_769" />
<path d="M533.6,953.3l56.6,0l0,-20.6l-56.6,0l0,20.6Z" class="g1_769" />
<path d="M533.6,933.1l57,0l0,-0.8l-57,0l0,0.8Z" class="g2_769" />
<path d="M589.9,953.7l0.7,0l0,-21l-0.7,0l0,21Z" class="g2_769" />
<path d="M533.2,953.7l57,0l0,-0.7l-57,0l0,0.7Z" class="g2_769" />
<path d="M533.2,953.3l0.8,0l0,-21l-0.8,0l0,21Z" class="g2_769" />
<path d="M476.8,953.3l56.8,0l0,-20.6l-56.8,0l0,20.6Z" class="g1_769" />
<path d="M476.8,933.1l57.2,0l0,-0.8l-57.2,0l0,0.8Z" class="g2_769" />
<path d="M533.2,953.7l0.8,0l0,-21l-0.8,0l0,21Z" class="g2_769" />
<path d="M476.5,953.7l57.1,0l0,-0.7l-57.1,0l0,0.7Z" class="g2_769" />
<path d="M476.5,953.3l0.7,0l0,-21l-0.7,0l0,21Z" class="g2_769" />
<path d="M420.1,953.3l56.7,0l0,-20.6l-56.7,0l0,20.6Z" class="g1_769" />
<path d="M420.1,933.1l57.1,0l0,-0.8l-57.1,0l0,0.8Z" class="g2_769" />
<path d="M476.5,953.7l0.7,0l0,-21l-0.7,0l0,21Z" class="g2_769" />
<path d="M419.7,953.7l57.1,0l0,-0.7l-57.1,0l0,0.7Z" class="g2_769" />
<path d="M419.7,953.3l0.8,0l0,-21l-0.8,0l0,21Z" class="g2_769" />
<path d="M363.4,953.3l56.7,0l0,-20.6l-56.7,0l0,20.6Z" class="g1_769" />
<path d="M363.4,933.1l57.1,0l0,-0.8l-57.1,0l0,0.8Z" class="g2_769" />
<path d="M419.7,953.7l0.8,0l0,-21l-0.8,0l0,21Z" class="g2_769" />
<path d="M363,953.7l57.1,0l0,-0.7L363,953l0,0.7Z" class="g2_769" />
<path d="M363,953.3l0.7,0l0,-21l-0.7,0l0,21Z" class="g2_769" />
<path d="M306.6,953.3l56.8,0l0,-20.6l-56.8,0l0,20.6Z" class="g1_769" />
<path d="M306.6,933.1l57.1,0l0,-0.8l-57.1,0l0,0.8Z" class="g2_769" />
<path d="M363,953.7l0.7,0l0,-21l-0.7,0l0,21Z" class="g2_769" />
<path d="M306.3,953.7l57.1,0l0,-0.7l-57.1,0l0,0.7Z" class="g2_769" />
<path d="M306.3,953.3l0.7,0l0,-21l-0.7,0l0,21Z" class="g2_769" />
<path d="M250,953.3l56.6,0l0,-20.6l-56.6,0l0,20.6Z" class="g1_769" />
<path d="M250,933.1l57,0l0,-0.8l-57,0l0,0.8Z" class="g2_769" />
<path d="M306.3,953.7l0.7,0l0,-21l-0.7,0l0,21Z" class="g2_769" />
<path d="M249.6,953.7l57,0l0,-0.7l-57,0l0,0.7Z" class="g2_769" />
<path d="M249.6,953.3l0.7,0l0,-21l-0.7,0l0,21Z" class="g2_769" />
<path d="M647,850.2l56.7,0l0,-20.6l-56.7,0l0,20.6Z" class="g1_769" />
<path d="M647,830l57.1,0l0,-0.8l-57.1,0l0,0.8Z" class="g2_769" />
<path d="M703.4,850.6l0.7,0l0,-21l-0.7,0l0,21Z" class="g2_769" />
<path d="M646.6,850.6l57.1,0l0,-0.8l-57.1,0l0,0.8Z" class="g2_769" />
<path d="M646.6,850.2l0.7,0l0,-21l-0.7,0l0,21Z" class="g2_769" />
<path d="M590.2,850.2l56.8,0l0,-20.6l-56.8,0l0,20.6Z" class="g1_769" />
<path d="M590.2,830l57.2,0l0,-0.8l-57.2,0l0,0.8Z" class="g2_769" />
<path d="M646.6,850.6l0.7,0l0,-21l-0.7,0l0,21Z" class="g2_769" />
<path d="M589.9,850.6l57.1,0l0,-0.8l-57.1,0l0,0.8Z" class="g2_769" />
<path d="M589.9,850.2l0.7,0l0,-21l-0.7,0l0,21Z" class="g2_769" />
<path d="M533.6,850.2l56.6,0l0,-20.6l-56.6,0l0,20.6Z" class="g1_769" />
<path d="M533.6,830l57,0l0,-0.8l-57,0l0,0.8Z" class="g2_769" />
<path d="M589.9,850.6l0.7,0l0,-21l-0.7,0l0,21Z" class="g2_769" />
<path d="M533.2,850.6l57,0l0,-0.8l-57,0l0,0.8Z" class="g2_769" />
<path d="M533.2,850.2l0.8,0l0,-21l-0.8,0l0,21Z" class="g2_769" />
<path d="M476.8,850.2l56.8,0l0,-20.6l-56.8,0l0,20.6Z" class="g1_769" />
<path d="M476.8,830l57.2,0l0,-0.8l-57.2,0l0,0.8Z" class="g2_769" />
<path d="M533.2,850.6l0.8,0l0,-21l-0.8,0l0,21Z" class="g2_769" />
<path d="M476.5,850.6l57.1,0l0,-0.8l-57.1,0l0,0.8Z" class="g2_769" />
<path d="M476.5,850.2l0.7,0l0,-21l-0.7,0l0,21Z" class="g2_769" />
<path fill-rule="evenodd" d="M621.2,907.9l0.9,-0.3l0.2,-0.2l0.2,-0.3l0.1,-0.1l0.1,-0.4l0.1,-0.3L622.7,906c-0.2,-0.6,-0.2,-0.9,-0.9,-1.1l-0.6,-0.1l-0.2,0c-1.5,0.2,-1.7,2.4,-0.4,2.9l0.4,0.1l0.2,0.1Z" class="g2_769" />
<path d="M621.2,906.3l7.6,0l-0.2,1L622,930.2l-0.8,2.6l-0.7,-2.6l-6.6,-22.9l-0.3,-1l1,0l0.8,0.6l6.6,22.9l-1.5,0.4l0,-0.4l6.6,-22.9l1.5,0.4l-0.8,0.6l-6.6,0Z" class="g2_769" />
<path d="M614.6,907.9l6.6,0l0,-1.6l-6.6,0l0,1.6Z" class="g2_769" />
<path fill-rule="evenodd" d="M621.2,907l6.6,0l-6.6,23l-6.6,-23Z" class="g2_769" />
<path d="M619.8,906.3l3,0l0,-14.8l-3,0l0,14.8Z" class="g2_769" />
<path d="M621.2,893l51.5,0l0,-3l-51.5,0l0,3Z" class="g2_769" />
<path fill-rule="evenodd" d="M559.3,907.9l0.9,-0.3l0.2,-0.2l0.2,-0.3l0.1,-0.1l0.1,-0.4l0.1,-0.3L560.8,906c-0.2,-0.6,-0.2,-0.9,-0.9,-1.1l-0.6,-0.1l-0.3,0c-1.4,0.3,-1.6,2.4,-0.3,2.9l0.3,0.1l0.3,0.1Z" class="g2_769" />
<path d="M559.3,906.3l7.6,0l-0.3,1l-6.5,22.9l-0.8,2.6l-0.7,-2.6L552,907.3l-0.3,-1l1,0l0.8,0.6l6.6,22.9l-1.5,0.4l0,-0.4l6.5,-22.9l1.5,0.4l-0.7,0.6l-6.6,0Z" class="g2_769" />
<path d="M552.7,907.9l6.6,0l0,-1.6l-6.6,0l0,1.6Z" class="g2_769" />
<path fill-rule="evenodd" d="M559.3,907l6.6,0l-6.6,23l-6.6,-23Z" class="g2_769" />
<path d="M557.9,906.3l3,0l0,-56.1l-3,0l0,56.1Z" class="g2_769" />
<path fill-rule="evenodd" d="M507.7,907.9l0.4,-0.1l0.3,-0.1c1.4,-0.5,1.1,-2.6,-0.3,-2.9l-0.4,0l-0.2,0c-1.5,0.3,-1.7,2.4,-0.3,2.9l0.5,0.2Z" class="g2_769" />
<path d="M507.7,906.3l7.7,0l-0.3,1l-6.6,22.9l-0.8,2.6L507,930.2l-6.5,-22.9l-0.3,-1l1,0l0.8,0.6l6.5,22.9l-1.5,0.4l0,-0.4l6.6,-22.9l1.5,0.4l-0.8,0.6l-6.6,0Z" class="g2_769" />
<path d="M501.2,907.9l6.5,0l0,-1.6l-6.5,0l0,1.6Z" class="g2_769" />
<path fill-rule="evenodd" d="M507.7,907l6.6,0l-6.6,23l-6.5,-23Z" class="g2_769" />
<path d="M506.3,906.3l3,0l0,-14.8l-3,0l0,14.8Z" class="g2_769" />
<path d="M507.7,893l51.6,0l0,-3l-51.6,0l0,3Z" class="g2_769" />
<path fill-rule="evenodd" d="M445.9,907.9l0.3,-0.1l0.3,-0.1c1.4,-0.5,1.2,-2.6,-0.3,-2.9l-0.3,0l-0.3,0c-1.5,0.3,-1.6,2.5,-0.3,2.9l0.6,0.2Z" class="g2_769" />
<path d="M445.9,906.3l7.6,0l-0.3,1l-6.6,22.9l-0.7,2.6l-0.8,-2.6l-6.5,-22.9l-0.3,-1l1.1,0l0.7,0.6l6.5,22.9l-1.5,0.4l0,-0.4l6.6,-22.9l1.5,0.4l-0.7,0.6l-6.6,0Z" class="g2_769" />
<path d="M439.4,907.9l6.5,0l0,-1.6l-6.5,0l0,1.6Z" class="g2_769" />
<path fill-rule="evenodd" d="M445.9,907l6.6,0l-6.6,23l-6.5,-23Z" class="g2_769" />
<path d="M444.4,906.3l3,0l0,-56.1l-3,0l0,56.1Z" class="g2_769" />
<path fill-rule="evenodd" d="M394.3,907.9l0.9,-0.3l0.2,-0.2l0.2,-0.3l0.1,-0.1l0.1,-0.4l0,-0.6c-0.2,-0.6,-0.2,-0.9,-0.9,-1.1l-0.6,-0.1l-0.3,0c-1.4,0.3,-1.7,2.4,-0.3,2.9l0.3,0.1l0.3,0.1Z" class="g2_769" />
<path d="M394.3,906.3l7.6,0l-0.3,1l-6.5,22.9l-0.8,2.6l-0.7,-2.6L387,907.3l-0.3,-1l1,0l0.8,0.6l6.6,22.9l-1.5,0.4l0,-0.4l6.5,-22.9l1.5,0.4l-0.7,0.6l-6.6,0Z" class="g2_769" />
<path d="M387.8,907.9l6.5,0l0,-1.6l-6.5,0l0,1.6Z" class="g2_769" />
<path fill-rule="evenodd" d="M394.3,907l6.6,0l-6.6,23l-6.6,-23Z" class="g2_769" />
<path d="M392.9,906.3l3,0l0,-14.8l-3,0l0,14.8Z" class="g2_769" />
<path d="M394.3,893l51.6,0l0,-3l-51.6,0l0,3Z" class="g2_769" />
<path fill-rule="evenodd" d="M332.5,907.9l0.8,-0.3l0.3,-0.2l0.2,-0.3l0,-0.1l0.1,-0.4l0,-0.6c-0.2,-0.6,-0.2,-0.9,-0.9,-1.1l-0.5,-0.1l-0.4,0c-1.4,0.3,-1.7,2.4,-0.3,2.9l0.3,0.1l0.4,0.1Z" class="g2_769" />
<path d="M332.5,906.3l7.5,0l-0.3,1l-6.5,22.9l-0.7,2.6l-0.8,-2.6l-6.6,-22.9l-0.2,-1l1,0l0.7,0.6l6.6,22.9l-1.5,0.4l0,-0.4l6.5,-22.9l1.5,0.4l-0.7,0.6l-6.5,0Z" class="g2_769" />
<path d="M325.9,907.9l6.6,0l0,-1.6l-6.6,0l0,1.6Z" class="g2_769" />
<path fill-rule="evenodd" d="M332.5,907l6.5,0l-6.5,23l-6.6,-23Z" class="g2_769" />
<path d="M331,906.3l3,0l0,-56.1l-3,0l0,56.1Z" class="g2_769" />
<path fill-rule="evenodd" d="M280.9,907.9l0.3,-0.1l0.3,-0.1c1.4,-0.5,1.2,-2.6,-0.3,-2.9l-0.3,0L280,905l-0.2,0.2l-0.2,0.3l-0.2,0.5l0,0.6l0.1,0.4l0.1,0.1l0.2,0.3l0.2,0.2l0.9,0.3Z" class="g2_769" />
<path d="M280.9,906.3l7.6,0l-0.3,1l-6.6,22.9l-0.7,2.6l-0.8,-2.6l-6.5,-22.9l-0.3,-1l1.1,0l0.7,0.6l6.5,22.9l-1.5,0.4l0,-0.4l6.6,-22.9l1.5,0.4l-0.7,0.6l-6.6,0Z" class="g2_769" />
<path d="M274.4,907.9l6.5,0l0,-1.6l-6.5,0l0,1.6Z" class="g2_769" />
<path fill-rule="evenodd" d="M280.9,907l6.6,0l-6.6,23l-6.5,-23Z" class="g2_769" />
<path d="M279.4,906.3l3,0l0,-14.8l-3,0l0,14.8Z" class="g2_769" />
<path d="M280.9,893l51.6,0l0,-3l-51.6,0l0,3Z" class="g2_769" />
</svg>