<?xml version="1.0" encoding="UTF-8" standalone="no"?>
<!DOCTYPE svg PUBLIC "-//W3C//DTD SVG 1.1//EN"
"http://www.w3.org/Graphics/SVG/1.1/DTD/svg11.dtd">
<svg viewBox="0 0 935 1210" version="1.1" xmlns="http://www.w3.org/2000/svg" xmlns:xlink="http://www.w3.org/1999/xlink">
<defs>
<style type="text/css"><![CDATA[
.g1_1019{
fill: #FFFFFF;
}
.g2_1019{
}
]]></style>
</defs>
<path d="M68.9,1149.3l686.3,0l0,-21.2l-686.3,0l0,21.2Z" class="g1_1019" />
<path d="M771.3,1149.3l83.7,0l0,-21.2l-83.7,0l0,21.2Z" class="g1_1019" />
<path d="M171.3,474.6l0.8,0l0,-180.9l-0.8,0l0,180.9Z" class="g2_1019" />
<path d="M750.7,474.6l0.7,0l0,-180.9l-0.7,0l0,180.9Z" class="g2_1019" />
<path d="M171.3,293.7l580.1,0l0,-0.7l-580.1,0l0,0.7Z" class="g2_1019" />
<path d="M171.3,475.4l580.1,0l0,-0.8l-580.1,0l0,0.8Z" class="g2_1019" />
<path d="M260.6,422.7l110,0l0,-27.5l-110,0l0,27.5Z" class="g1_1019" />
<path d="M260.6,395.5l110.4,0l0,-0.7l-110.4,0l0,0.7Z" class="g2_1019" />
<path d="M370.2,423l0.8,0l0,-27.8l-0.8,0l0,27.8Z" class="g2_1019" />
<path d="M260.2,423l110.4,0l0,-0.7l-110.4,0l0,0.7Z" class="g2_1019" />
<path d="M260.2,422.7l0.8,0l0,-27.9l-0.8,0l0,27.9Z" class="g2_1019" />
<path d="M370.6,422.7l110,0l0,-27.5l-110,0l0,27.5Z" class="g1_1019" />
<path d="M370.6,395.5l110.4,0l0,-0.7l-110.4,0l0,0.7Z" class="g2_1019" />
<path d="M480.2,423l0.8,0l0,-27.8l-0.8,0l0,27.8Z" class="g2_1019" />
<path d="M370.2,423l110.4,0l0,-0.7l-110.4,0l0,0.7Z" class="g2_1019" />
<path d="M370.2,422.7l0.8,0l0,-27.9l-0.8,0l0,27.9Z" class="g2_1019" />
<path d="M480.6,422.7l110,0l0,-27.5l-110,0l0,27.5Z" class="g1_1019" />
<path d="M480.6,395.5l110.4,0l0,-0.7l-110.4,0l0,0.7Z" class="g2_1019" />
<path d="M590.2,423l0.8,0l0,-27.8l-0.8,0l0,27.8Z" class="g2_1019" />
<path d="M480.2,423l110.4,0l0,-0.7l-110.4,0l0,0.7Z" class="g2_1019" />
<path d="M480.2,422.7l0.8,0l0,-27.9l-0.8,0l0,27.9Z" class="g2_1019" />
<path d="M590.6,395.2l110,0l0,27.5l-110,0Z" class="g1_1019" />
<path d="M590.6,395.5l110.4,0l0,-0.7l-110.4,0l0,0.7Z" class="g2_1019" />
<path d="M700.2,423l0.8,0l0,-27.8l-0.8,0l0,27.8Z" class="g2_1019" />
<path d="M590.2,423l110.4,0l0,-0.7l-110.4,0l0,0.7Z" class="g2_1019" />
<path d="M590.2,422.7l0.8,0l0,-27.9l-0.8,0l0,27.9Z" class="g2_1019" />
<path d="M369,337.1l55.7,0l0,-27.5l-55.7,0l0,27.5Z" class="g1_1019" />
<path d="M369,309.9l56.1,0l0,-0.7l-56.1,0l0,0.7Z" class="g2_1019" />
<path d="M424.3,337.4l0.8,0l0,-27.8l-0.8,0l0,27.8Z" class="g2_1019" />
<path d="M368.7,337.4l56,0l0,-0.7l-56,0l0,0.7Z" class="g2_1019" />
<path d="M368.7,337.1l0.7,0l0,-27.9l-0.7,0l0,27.9Z" class="g2_1019" />
<path d="M424.7,337.1l55.5,0l0,-27.5l-55.5,0l0,27.5Z" class="g1_1019" />
<path d="M424.7,309.9l55.9,0l0,-0.7l-55.9,0l0,0.7Z" class="g2_1019" />
<path d="M479.9,337.4l0.7,0l0,-27.8l-0.7,0l0,27.8Z" class="g2_1019" />
<path d="M424.3,337.4l55.9,0l0,-0.7l-55.9,0l0,0.7Z" class="g2_1019" />
<path d="M424.3,337.1l0.8,0l0,-27.9l-0.8,0l0,27.9Z" class="g2_1019" />
<path d="M480.2,337.1l55.6,0l0,-27.5l-55.6,0l0,27.5Z" class="g1_1019" />
<path d="M480.2,309.9l56,0l0,-0.7l-56,0l0,0.7Z" class="g2_1019" />
<path d="M535.4,337.4l0.8,0l0,-27.8l-0.8,0l0,27.8Z" class="g2_1019" />
<path d="M479.9,337.4l55.9,0l0,-0.7l-55.9,0l0,0.7Z" class="g2_1019" />
<path d="M479.9,337.1l0.7,0l0,-27.9l-0.7,0l0,27.9Z" class="g2_1019" />
<path d="M535.8,337.1l55.5,0l0,-27.5l-55.5,0l0,27.5Z" class="g1_1019" />
<path d="M535.8,309.9l55.9,0l0,-0.7l-55.9,0l0,0.7Z" class="g2_1019" />
<path d="M591,337.4l0.7,0l0,-27.8l-0.7,0l0,27.8Z" class="g2_1019" />
<path d="M535.4,337.4l55.9,0l0,-0.7l-55.9,0l0,0.7Z" class="g2_1019" />
<path d="M535.4,337.1l0.8,0l0,-27.9l-0.8,0l0,27.9Z" class="g2_1019" />
<path d="M369,377.1l55.6,0l0,-27.5l-55.6,0l0,27.5Z" class="g1_1019" />
<path d="M369,350l56,0l0,-0.7l-56,0l0,0.7Z" class="g2_1019" />
<path d="M424.2,377.5l0.8,0l0,-27.9l-0.8,0l0,27.9Z" class="g2_1019" />
<path d="M368.7,377.5l55.9,0l0,-0.7l-55.9,0l0,0.7Z" class="g2_1019" />
<path d="M368.7,377.1l0.7,0l0,-27.8l-0.7,0l0,27.8Z" class="g2_1019" />
<path d="M424.6,377.1l55.6,0l0,-27.5l-55.6,0l0,27.5Z" class="g1_1019" />
<path d="M424.6,350l55.9,0l0,-0.7l-55.9,0l0,0.7Z" class="g2_1019" />
<path d="M479.8,377.5l0.7,0l0,-27.9l-0.7,0l0,27.9Z" class="g2_1019" />
<path d="M424.2,377.5l56,0l0,-0.7l-56,0l0,0.7Z" class="g2_1019" />
<path d="M424.2,377.1l0.8,0l0,-27.8l-0.8,0l0,27.8Z" class="g2_1019" />
<path d="M480.2,377.1l55.6,0l0,-27.5l-55.6,0l0,27.5Z" class="g1_1019" />
<path d="M480.2,350l56,0l0,-0.7l-56,0l0,0.7Z" class="g2_1019" />
<path d="M535.4,377.5l0.8,0l0,-27.9l-0.8,0l0,27.9Z" class="g2_1019" />
<path d="M479.8,377.5l56,0l0,-0.7l-56,0l0,0.7Z" class="g2_1019" />
<path d="M479.8,377.1l0.7,0l0,-27.8l-0.7,0l0,27.8Z" class="g2_1019" />
<path d="M535.8,377.1l55.5,0l0,-27.5l-55.5,0l0,27.5Z" class="g1_1019" />
<path d="M535.8,350l55.9,0l0,-0.7l-55.9,0l0,0.7Z" class="g2_1019" />
<path d="M591,377.5l0.7,0l0,-27.9l-0.7,0l0,27.9Z" class="g2_1019" />
<path d="M535.4,377.5l55.9,0l0,-0.7l-55.9,0l0,0.7Z" class="g2_1019" />
<path d="M535.4,377.1l0.8,0l0,-27.8l-0.8,0l0,27.8Z" class="g2_1019" />
<path d="M369,463l55.5,0l0,-27.5l-55.5,0l0,27.5Z" class="g1_1019" />
<path d="M369,435.9l55.9,0l0,-0.8l-55.9,0l0,0.8Z" class="g2_1019" />
<path d="M424.1,463.4l0.8,0l0,-27.9l-0.8,0l0,27.9Z" class="g2_1019" />
<path d="M368.6,463.4l55.9,0l0,-0.8l-55.9,0l0,0.8Z" class="g2_1019" />
<path d="M368.6,463l0.7,0l0,-27.9l-0.7,0l0,27.9Z" class="g2_1019" />
<path d="M424.5,463l55.6,0l0,-27.5l-55.6,0l0,27.5Z" class="g1_1019" />
<path d="M424.5,435.9l56,0l0,-0.8l-56,0l0,0.8Z" class="g2_1019" />
<path d="M479.8,463.4l0.7,0l0,-27.9l-0.7,0l0,27.9Z" class="g2_1019" />
<path d="M424.1,463.4l56.1,0l0,-0.8l-56.1,0l0,0.8Z" class="g2_1019" />
<path d="M424.1,463l0.8,0l0,-27.9l-0.8,0l0,27.9Z" class="g2_1019" />
<path d="M480.2,463l55.5,0l0,-27.5l-55.5,0l0,27.5Z" class="g1_1019" />
<path d="M480.2,435.9l55.9,0l0,-0.8l-55.9,0l0,0.8Z" class="g2_1019" />
<path d="M535.3,463.4l0.8,0l0,-27.9l-0.8,0l0,27.9Z" class="g2_1019" />
<path d="M479.8,463.4l55.9,0l0,-0.8l-55.9,0l0,0.8Z" class="g2_1019" />
<path d="M479.8,463l0.7,0l0,-27.9l-0.7,0l0,27.9Z" class="g2_1019" />
<path d="M535.7,463l55.6,0l0,-27.5l-55.6,0l0,27.5Z" class="g1_1019" />
<path d="M535.7,435.9l55.9,0l0,-0.8l-55.9,0l0,0.8Z" class="g2_1019" />
<path d="M590.9,463.4l0.7,0l0,-27.9l-0.7,0l0,27.9Z" class="g2_1019" />
<path d="M535.3,463.4l56,0l0,-0.8l-56,0l0,0.8Z" class="g2_1019" />
<path d="M535.3,463l0.8,0l0,-27.9l-0.8,0l0,27.9Z" class="g2_1019" />
</svg>