<?xml version="1.0" encoding="UTF-8" standalone="no"?>
<!DOCTYPE svg PUBLIC "-//W3C//DTD SVG 1.1//EN"
"http://www.w3.org/Graphics/SVG/1.1/DTD/svg11.dtd">
<svg viewBox="0 0 935 1210" version="1.1" xmlns="http://www.w3.org/2000/svg" xmlns:xlink="http://www.w3.org/1999/xlink">
<defs>
<style type="text/css"><![CDATA[
.g1_657{
fill: #FFFFFF;
}
.g2_657{
}
]]></style>
</defs>
<path d="M68.9,1149.3l686.3,0l0,-21.2l-686.3,0l0,21.2Z" class="g1_657" />
<path d="M771.3,1149.3l83.7,0l0,-21.2l-83.7,0l0,21.2Z" class="g1_657" />
<path d="M69.9,618.4l0.8,0l0,-457.6l-0.8,0l0,457.6Z" class="g2_657" />
<path d="M193.7,619.1l0.7,0l0,-459l-0.7,0l0,459Z" class="g2_657" />
<path d="M851.4,618.4l0.7,0l0,-457.6l-0.7,0l0,457.6Z" class="g2_657" />
<path d="M69.9,160.8l782.2,0l0,-0.7l-782.2,0l0,0.7Z" class="g2_657" />
<path d="M69.9,185.3l782.2,0l0,-0.8l-782.2,0l0,0.8Z" class="g2_657" />
<path d="M69.9,209.6l782.2,0l0,-0.7l-782.2,0l0,0.7Z" class="g2_657" />
<path d="M69.9,234.1l782.2,0l0,-0.7l-782.2,0l0,0.7Z" class="g2_657" />
<path d="M69.9,258.6l782.2,0l0,-0.7l-782.2,0l0,0.7Z" class="g2_657" />
<path d="M69.9,283l782.2,0l0,-0.8l-782.2,0l0,0.8Z" class="g2_657" />
<path d="M69.9,307.4l782.2,0l0,-0.7l-782.2,0l0,0.7Z" class="g2_657" />
<path d="M69.9,331.9l782.2,0l0,-0.7l-782.2,0l0,0.7Z" class="g2_657" />
<path d="M69.9,356.3l782.2,0l0,-0.7l-782.2,0l0,0.7Z" class="g2_657" />
<path d="M69.9,380.8l782.2,0l0,-0.8L69.9,380l0,0.8Z" class="g2_657" />
<path d="M69.9,405.3l782.2,0l0,-0.8l-782.2,0l0,0.8Z" class="g2_657" />
<path d="M69.9,429.7l782.2,0l0,-0.7L69.9,429l0,0.7Z" class="g2_657" />
<path d="M69.9,454.1l782.2,0l0,-0.7l-782.2,0l0,0.7Z" class="g2_657" />
<path d="M69.9,478.6l782.2,0l0,-0.7l-782.2,0l0,0.7Z" class="g2_657" />
<path d="M69.9,524.4l782.2,0l0,-0.7l-782.2,0l0,0.7Z" class="g2_657" />
<path d="M69.9,570.3l782.2,0l0,-0.8l-782.2,0l0,0.8Z" class="g2_657" />
<path d="M69.9,594.7l782.2,0l0,-0.7L69.9,594l0,0.7Z" class="g2_657" />
<path d="M69.9,619.1l782.2,0l0,-0.7l-782.2,0l0,0.7Z" class="g2_657" />
</svg>