<?xml version="1.0" encoding="UTF-8" standalone="no"?>
<!DOCTYPE svg PUBLIC "-//W3C//DTD SVG 1.1//EN"
"http://www.w3.org/Graphics/SVG/1.1/DTD/svg11.dtd">
<svg viewBox="0 0 935 1210" version="1.1" xmlns="http://www.w3.org/2000/svg" xmlns:xlink="http://www.w3.org/1999/xlink">
<defs>
<style type="text/css"><![CDATA[
.g1_714{
fill: #FFFFFF;
}
.g2_714{
}
]]></style>
</defs>
<path d="M165,1149.3l687.5,0l0,-21.2l-687.5,0l0,21.2Z" class="g1_714" />
<path d="M68.8,1149.3l82.5,0l0,-21.2l-82.5,0l0,21.2Z" class="g1_714" />
<path d="M68.6,1037l0.7,0l0,-911.3l-0.7,0l0,911.3Z" class="g2_714" />
<path d="M317.3,1037.8l0.7,0l0,-912.9l-0.7,0l0,912.9Z" class="g2_714" />
<path d="M393.9,1037.8l0.7,0l0,-912.9l-0.7,0l0,912.9Z" class="g2_714" />
<path d="M468.4,1037.8l0.7,0l0,-912.9l-0.7,0l0,912.9Z" class="g2_714" />
<path d="M555.3,1037.8l0.7,0l0,-912.9l-0.7,0l0,912.9Z" class="g2_714" />
<path d="M852.4,1037l0.7,0l0,-911.3l-0.7,0l0,911.3Z" class="g2_714" />
<path d="M68.6,125.7l784.5,0l0,-0.8l-784.5,0l0,0.8Z" class="g2_714" />
<path d="M68.6,176.1l784.5,0l0,-0.7l-784.5,0l0,0.7Z" class="g2_714" />
<path d="M68.6,212.8l784.5,0l0,-0.8L68.6,212l0,0.8Z" class="g2_714" />
<path d="M68.6,249.4l784.5,0l0,-0.7l-784.5,0l0,0.7Z" class="g2_714" />
<path d="M68.6,286.1l784.5,0l0,-0.7l-784.5,0l0,0.7Z" class="g2_714" />
<path d="M68.6,322.8l784.5,0l0,-0.8L68.6,322l0,0.8Z" class="g2_714" />
<path d="M68.6,359.4l784.5,0l0,-0.7l-784.5,0l0,0.7Z" class="g2_714" />
<path d="M68.6,396.1l784.5,0l0,-0.7l-784.5,0l0,0.7Z" class="g2_714" />
<path d="M68.6,449.5l784.5,0l0,-0.7l-784.5,0l0,0.7Z" class="g2_714" />
<path d="M68.6,503.1l784.5,0l0,-0.8l-784.5,0l0,0.8Z" class="g2_714" />
<path d="M68.6,556.5l784.5,0l0,-0.7l-784.5,0l0,0.7Z" class="g2_714" />
<path d="M68.6,609.9l784.5,0l0,-0.7l-784.5,0l0,0.7Z" class="g2_714" />
<path d="M68.6,663.5l784.5,0l0,-0.7l-784.5,0l0,0.7Z" class="g2_714" />
<path d="M68.6,716.9l784.5,0l0,-0.7l-784.5,0l0,0.7Z" class="g2_714" />
<path d="M68.6,770.4l784.5,0l0,-0.8l-784.5,0l0,0.8Z" class="g2_714" />
<path d="M68.6,823.9l784.5,0l0,-0.7l-784.5,0l0,0.7Z" class="g2_714" />
<path d="M68.6,877.3l784.5,0l0,-0.7l-784.5,0l0,0.7Z" class="g2_714" />
<path d="M68.6,930.8l784.5,0l0,-0.7l-784.5,0l0,0.7Z" class="g2_714" />
<path d="M68.6,984.3l784.5,0l0,-0.7l-784.5,0l0,0.7Z" class="g2_714" />
<path d="M68.6,1037.8l784.5,0l0,-0.8l-784.5,0l0,0.8Z" class="g2_714" />
</svg>