<?xml version="1.0" encoding="UTF-8" standalone="no"?>
<!DOCTYPE svg PUBLIC "-//W3C//DTD SVG 1.1//EN"
"http://www.w3.org/Graphics/SVG/1.1/DTD/svg11.dtd">
<svg viewBox="0 0 935 1210" version="1.1" xmlns="http://www.w3.org/2000/svg" xmlns:xlink="http://www.w3.org/1999/xlink">
<defs>
<style type="text/css"><![CDATA[
.g1_133{
fill: #FFFFFF;
}
.g2_133{
}
]]></style>
</defs>
<path d="M68.9,1149.3l686.3,0l0,-21.2l-686.3,0l0,21.2Z" class="g1_133" />
<path d="M771.3,1149.3l83.7,0l0,-21.2l-83.7,0l0,21.2Z" class="g1_133" />
<path d="M70.4,684.1l0.7,0l0,-558.4l-0.7,0l0,558.4Z" class="g2_133" />
<path d="M221,684.8l0.7,0l0,-559.9l-0.7,0l0,559.9Z" class="g2_133" />
<path d="M392,684.8l0.7,0l0,-559.9l-0.7,0l0,559.9Z" class="g2_133" />
<path d="M429.7,684.8l0.8,0l0,-559.9l-0.8,0l0,559.9Z" class="g2_133" />
<path d="M503.1,684.8l0.7,0l0,-559.9l-0.7,0l0,559.9Z" class="g2_133" />
<path d="M574.5,684.8l0.7,0l0,-559.9l-0.7,0l0,559.9Z" class="g2_133" />
<path d="M851.7,684.1l0.7,0l0,-558.4l-0.7,0l0,558.4Z" class="g2_133" />
<path d="M70.3,125.7l782.1,0l0,-0.8l-782.1,0l0,0.8Z" class="g2_133" />
<path d="M70.3,163.8l782.1,0l0,-0.7l-782.1,0l0,0.7Z" class="g2_133" />
<path d="M70.3,186.7l782.1,0l0,-0.7L70.3,186l0,0.7Z" class="g2_133" />
<path d="M70.3,209.6l782.1,0l0,-0.7l-782.1,0l0,0.7Z" class="g2_133" />
<path d="M70.3,232.6l782.1,0l0,-0.8l-782.1,0l0,0.8Z" class="g2_133" />
<path d="M70.3,255.5l782.1,0l0,-0.8l-782.1,0l0,0.8Z" class="g2_133" />
<path d="M70.3,278.4l782.1,0l0,-0.7l-782.1,0l0,0.7Z" class="g2_133" />
<path d="M70.3,301.3l782.1,0l0,-0.7l-782.1,0l0,0.7Z" class="g2_133" />
<path d="M70.3,324.2l782.1,0l0,-0.7l-782.1,0l0,0.7Z" class="g2_133" />
<path d="M70.3,347.1l782.1,0l0,-0.7l-782.1,0l0,0.7Z" class="g2_133" />
<path d="M70.3,386.9l782.1,0l0,-0.7l-782.1,0l0,0.7Z" class="g2_133" />
<path d="M70.3,409.8l782.1,0l0,-0.7l-782.1,0l0,0.7Z" class="g2_133" />
<path d="M70.3,432.8l782.1,0l0,-0.8L70.3,432l0,0.8Z" class="g2_133" />
<path d="M70.3,455.7l782.1,0l0,-0.8l-782.1,0l0,0.8Z" class="g2_133" />
<path d="M70.3,478.6l782.1,0l0,-0.7l-782.1,0l0,0.7Z" class="g2_133" />
<path d="M70.3,501.5l782.1,0l0,-0.7l-782.1,0l0,0.7Z" class="g2_133" />
<path d="M70.3,524.4l782.1,0l0,-0.7l-782.1,0l0,0.7Z" class="g2_133" />
<path d="M70.3,547.3l782.1,0l0,-0.7l-782.1,0l0,0.7Z" class="g2_133" />
<path d="M70.3,570.3l782.1,0l0,-0.8l-782.1,0l0,0.8Z" class="g2_133" />
<path d="M70.3,593.2l782.1,0l0,-0.8l-782.1,0l0,0.8Z" class="g2_133" />
<path d="M70.3,616.1l782.1,0l0,-0.7l-782.1,0l0,0.7Z" class="g2_133" />
<path d="M70.3,639l782.1,0l0,-0.7l-782.1,0l0,0.7Z" class="g2_133" />
<path d="M70.3,661.9l782.1,0l0,-0.7l-782.1,0l0,0.7Z" class="g2_133" />
<path d="M70.3,684.8l782.1,0l0,-0.7l-782.1,0l0,0.7Z" class="g2_133" />
<path d="M71.6,901.1l0.7,0l0,-121.5l-0.7,0l0,121.5Z" class="g2_133" />
<path d="M134,901.8l0.8,0l0,-123l-0.8,0l0,123Z" class="g2_133" />
<path d="M308.2,901.8l0.7,0l0,-123l-0.7,0l0,123Z" class="g2_133" />
<path d="M486.8,901.8l0.8,0l0,-123l-0.8,0l0,123Z" class="g2_133" />
<path d="M661.2,901.8l0.7,0l0,-123l-0.7,0l0,123Z" class="g2_133" />
<path d="M850.4,901.1l0.7,0l0,-121.5l-0.7,0l0,121.5Z" class="g2_133" />
<path d="M71.6,779.5l779.5,0l0,-0.7l-779.5,0l0,0.7Z" class="g2_133" />
<path d="M71.6,804l779.5,0l0,-0.7l-779.5,0l0,0.7Z" class="g2_133" />
<path d="M71.6,828.5l779.5,0l0,-0.8l-779.5,0l0,0.8Z" class="g2_133" />
<path d="M71.6,852.9l779.5,0l0,-0.8l-779.5,0l0,0.8Z" class="g2_133" />
<path d="M71.6,877.3l779.5,0l0,-0.7l-779.5,0l0,0.7Z" class="g2_133" />
<path d="M71.6,901.8l779.5,0l0,-0.7l-779.5,0l0,0.7Z" class="g2_133" />
</svg>