<?xml version="1.0" encoding="UTF-8" standalone="no"?>
<!DOCTYPE svg PUBLIC "-//W3C//DTD SVG 1.1//EN"
"http://www.w3.org/Graphics/SVG/1.1/DTD/svg11.dtd">
<svg viewBox="0 0 935 1210" version="1.1" xmlns="http://www.w3.org/2000/svg" xmlns:xlink="http://www.w3.org/1999/xlink">
<defs>
<style type="text/css"><![CDATA[
.g1_857{
fill: #FFFFFF;
}
.g2_857{
}
]]></style>
</defs>
<path d="M68.9,1149.3l686.3,0l0,-21.2l-686.3,0l0,21.2Z" class="g1_857" />
<path d="M771.3,1149.3l83.7,0l0,-21.2l-83.7,0l0,21.2Z" class="g1_857" />
<path d="M69.9,499.2l0.8,0l0,-391.9l-0.8,0l0,391.9Z" class="g2_857" />
<path d="M315.4,425.2l0.8,0l0,-318.6l-0.8,0l0,318.6Z" class="g2_857" />
<path d="M361.3,425.2l0.7,0l0,-318.6l-0.7,0l0,318.6Z" class="g2_857" />
<path d="M433.5,425.2l0.7,0l0,-318.6l-0.7,0l0,318.6Z" class="g2_857" />
<path d="M523.3,425.2l0.8,0l0,-318.6l-0.8,0l0,318.6Z" class="g2_857" />
<path d="M853.7,499.2l0.7,0l0,-391.9l-0.7,0l0,391.9Z" class="g2_857" />
<path d="M69.9,107.3l784.5,0l0,-0.7l-784.5,0l0,0.7Z" class="g2_857" />
<path d="M69.9,157.8l784.5,0l0,-0.8L69.9,157l0,0.8Z" class="g2_857" />
<path d="M69.9,211.2l784.5,0l0,-0.7l-784.5,0l0,0.7Z" class="g2_857" />
<path d="M69.9,264.6l784.5,0l0,-0.7l-784.5,0l0,0.7Z" class="g2_857" />
<path d="M69.9,318.2l784.5,0l0,-0.8l-784.5,0l0,0.8Z" class="g2_857" />
<path d="M69.9,371.6l784.5,0l0,-0.7l-784.5,0l0,0.7Z" class="g2_857" />
<path d="M69.9,425.2l784.5,0l0,-0.8l-784.5,0l0,0.8Z" class="g2_857" />
<path d="M69.9,499.9l784.5,0l0,-0.7l-784.5,0l0,0.7Z" class="g2_857" />
<path d="M70.9,673.4l0.8,0l0,-121.5l-0.8,0l0,121.5Z" class="g2_857" />
<path d="M175.4,674.1l0.7,0l0,-122.9l-0.7,0l0,122.9Z" class="g2_857" />
<path d="M339.6,674.1l0.8,0l0,-122.9l-0.8,0l0,122.9Z" class="g2_857" />
<path d="M509.6,674.1l0.7,0l0,-122.9l-0.7,0l0,122.9Z" class="g2_857" />
<path d="M679.5,674.1l0.8,0l0,-122.9l-0.8,0l0,122.9Z" class="g2_857" />
<path d="M851,673.4l0.8,0l0,-121.5l-0.8,0l0,121.5Z" class="g2_857" />
<path d="M70.9,551.9l780.9,0l0,-0.7l-780.9,0l0,0.7Z" class="g2_857" />
<path d="M70.9,576.4l780.9,0l0,-0.7l-780.9,0l0,0.7Z" class="g2_857" />
<path d="M70.9,600.8l780.9,0l0,-0.7l-780.9,0l0,0.7Z" class="g2_857" />
<path d="M70.9,625.3l780.9,0l0,-0.8l-780.9,0l0,0.8Z" class="g2_857" />
<path d="M70.9,649.7l780.9,0l0,-0.7L70.9,649l0,0.7Z" class="g2_857" />
<path d="M70.9,674.1l780.9,0l0,-0.7l-780.9,0l0,0.7Z" class="g2_857" />
</svg>