<?xml version="1.0" encoding="UTF-8" standalone="no"?>
<!DOCTYPE svg PUBLIC "-//W3C//DTD SVG 1.1//EN"
"http://www.w3.org/Graphics/SVG/1.1/DTD/svg11.dtd">
<svg viewBox="0 0 935 1210" version="1.1" xmlns="http://www.w3.org/2000/svg" xmlns:xlink="http://www.w3.org/1999/xlink">
<defs>
<style type="text/css"><![CDATA[
.g1_1759{
fill: #FFFFFF;
}
.g2_1759{
}
]]></style>
</defs>
<path d="M68.9,1149.3l686.3,0l0,-21.2l-686.3,0l0,21.2Z" class="g1_1759" />
<path d="M771.3,1149.3l83.7,0l0,-21.2l-83.7,0l0,21.2Z" class="g1_1759" />
<path d="M69.9,615.4l0.8,0l0,-489.7l-0.8,0l0,489.7Z" class="g2_1759" />
<path d="M260.2,616.1l0.8,0l0,-491.2l-0.8,0l0,491.2Z" class="g2_1759" />
<path d="M304.4,616.1l0.8,0l0,-491.2l-0.8,0l0,491.2Z" class="g2_1759" />
<path d="M378.9,616.1l0.8,0l0,-491.2l-0.8,0l0,491.2Z" class="g2_1759" />
<path d="M466,616.1l0.8,0l0,-491.2l-0.8,0l0,491.2Z" class="g2_1759" />
<path d="M859.1,615.4l0.7,0l0,-489.7l-0.7,0l0,489.7Z" class="g2_1759" />
<path d="M69.9,125.7l789.9,0l0,-0.8l-789.9,0l0,0.8Z" class="g2_1759" />
<path d="M69.9,176.1l789.9,0l0,-0.7l-789.9,0l0,0.7Z" class="g2_1759" />
<path d="M69.9,212.8l789.9,0l0,-0.8L69.9,212l0,0.8Z" class="g2_1759" />
<path d="M69.9,249.4l789.9,0l0,-0.7l-789.9,0l0,0.7Z" class="g2_1759" />
<path d="M69.9,286.1l789.9,0l0,-0.7l-789.9,0l0,0.7Z" class="g2_1759" />
<path d="M69.9,322.8l789.9,0l0,-0.8L69.9,322l0,0.8Z" class="g2_1759" />
<path d="M69.9,359.4l789.9,0l0,-0.7l-789.9,0l0,0.7Z" class="g2_1759" />
<path d="M69.9,396.1l789.9,0l0,-0.7l-789.9,0l0,0.7Z" class="g2_1759" />
<path d="M69.9,432.8l789.9,0l0,-0.8L69.9,432l0,0.8Z" class="g2_1759" />
<path d="M69.9,469.4l789.9,0l0,-0.7l-789.9,0l0,0.7Z" class="g2_1759" />
<path d="M69.9,506.1l789.9,0l0,-0.7l-789.9,0l0,0.7Z" class="g2_1759" />
<path d="M69.9,542.8l789.9,0l0,-0.8L69.9,542l0,0.8Z" class="g2_1759" />
<path d="M69.9,579.4l789.9,0l0,-0.7l-789.9,0l0,0.7Z" class="g2_1759" />
<path d="M69.9,616.1l789.9,0l0,-0.7l-789.9,0l0,0.7Z" class="g2_1759" />
<path d="M68.8,719.2l0.7,0l0,-48.1l-0.7,0l0,48.1Z" class="g2_1759" />
<path d="M188.3,719.9l0.7,0l0,-49.5l-0.7,0l0,49.5Z" class="g2_1759" />
<path d="M341.5,719.9l0.8,0l0,-49.5l-0.8,0l0,49.5Z" class="g2_1759" />
<path d="M514.3,719.9l0.7,0l0,-49.5l-0.7,0l0,49.5Z" class="g2_1759" />
<path d="M681.2,719.9l0.7,0l0,-49.5l-0.7,0l0,49.5Z" class="g2_1759" />
<path d="M853.2,719.2l0.8,0l0,-48.1l-0.8,0l0,48.1Z" class="g2_1759" />
<path d="M68.8,671.1l785.2,0l0,-0.7l-785.2,0l0,0.7Z" class="g2_1759" />
<path d="M68.8,695.6l785.2,0l0,-0.8l-785.2,0l0,0.8Z" class="g2_1759" />
<path d="M68.8,719.9l785.2,0l0,-0.7l-785.2,0l0,0.7Z" class="g2_1759" />
</svg>