<?xml version="1.0" encoding="UTF-8" standalone="no"?>
<!DOCTYPE svg PUBLIC "-//W3C//DTD SVG 1.1//EN"
"http://www.w3.org/Graphics/SVG/1.1/DTD/svg11.dtd">
<svg viewBox="0 0 935 1210" version="1.1" xmlns="http://www.w3.org/2000/svg" xmlns:xlink="http://www.w3.org/1999/xlink">
<defs>
<style type="text/css"><![CDATA[
.g1_1141{
fill: #FFFFFF;
}
.g2_1141{
}
]]></style>
</defs>
<path d="M68.9,1149.3l686.3,0l0,-21.2l-686.3,0l0,21.2Z" class="g1_1141" />
<path d="M771.3,1149.3l83.7,0l0,-21.2l-83.7,0l0,21.2Z" class="g1_1141" />
<path d="M72.1,291.4l0.7,0l0,-165.7l-0.7,0l0,165.7Z" class="g2_1141" />
<path d="M390.2,292.2l0.8,0l0,-167.3l-0.8,0l0,167.3Z" class="g2_1141" />
<path d="M428,292.2l0.7,0l0,-167.3l-0.7,0l0,167.3Z" class="g2_1141" />
<path d="M501.4,292.2l0.7,0l0,-167.3l-0.7,0l0,167.3Z" class="g2_1141" />
<path d="M572.8,292.2l0.8,0l0,-167.3l-0.8,0l0,167.3Z" class="g2_1141" />
<path d="M849.9,291.4l0.8,0l0,-165.7l-0.8,0l0,165.7Z" class="g2_1141" />
<path d="M72.1,125.7l778.6,0l0,-0.8l-778.6,0l0,0.8Z" class="g2_1141" />
<path d="M72.1,179.1l778.6,0l0,-0.7l-778.6,0l0,0.7Z" class="g2_1141" />
<path d="M72.1,235.7l778.6,0l0,-0.8l-778.6,0l0,0.8Z" class="g2_1141" />
<path d="M72.1,292.1l778.6,0l0,-0.7l-778.6,0l0,0.7Z" class="g2_1141" />
<path d="M71.6,395.4l0.7,0l0,-48.2l-0.7,0l0,48.2Z" class="g2_1141" />
<path d="M140.6,396.1l0.8,0l0,-49.7l-0.8,0l0,49.7Z" class="g2_1141" />
<path d="M316.2,396.1l0.7,0l0,-49.7l-0.7,0l0,49.7Z" class="g2_1141" />
<path d="M490.2,396.1l0.8,0l0,-49.7l-0.8,0l0,49.7Z" class="g2_1141" />
<path d="M664.9,396.1l0.7,0l0,-49.7l-0.7,0l0,49.7Z" class="g2_1141" />
<path d="M850.4,395.4l0.7,0l0,-48.2l-0.7,0l0,48.2Z" class="g2_1141" />
<path d="M71.6,347.1l779.5,0l0,-0.7l-779.5,0l0,0.7Z" class="g2_1141" />
<path d="M71.6,371.6l779.5,0l0,-0.7l-779.5,0l0,0.7Z" class="g2_1141" />
<path d="M71.6,396.1l779.5,0l0,-0.7l-779.5,0l0,0.7Z" class="g2_1141" />
</svg>