<?xml version="1.0" encoding="UTF-8" standalone="no"?>
<!DOCTYPE svg PUBLIC "-//W3C//DTD SVG 1.1//EN"
"http://www.w3.org/Graphics/SVG/1.1/DTD/svg11.dtd">
<svg viewBox="0 0 935 1210" version="1.1" xmlns="http://www.w3.org/2000/svg" xmlns:xlink="http://www.w3.org/1999/xlink">
<defs>
<style type="text/css"><![CDATA[
.g1_902{
fill: #FFFFFF;
}
.g2_902{
}
]]></style>
</defs>
<path d="M165,1149.3l687.5,0l0,-21.2l-687.5,0l0,21.2Z" class="g1_902" />
<path d="M68.8,1149.3l82.5,0l0,-21.2l-82.5,0l0,21.2Z" class="g1_902" />
<path d="M68.4,568l0.7,0l0,-442.3l-0.7,0l0,442.3Z" class="g2_902" />
<path d="M385.4,568.7l0.7,0l0,-443.8l-0.7,0l0,443.8Z" class="g2_902" />
<path d="M423.2,568.7l0.8,0l0,-443.8l-0.8,0l0,443.8Z" class="g2_902" />
<path d="M496.6,568.7l0.7,0l0,-443.8l-0.7,0l0,443.8Z" class="g2_902" />
<path d="M572.6,568.7l0.7,0l0,-443.8l-0.7,0l0,443.8Z" class="g2_902" />
<path d="M852,568l0.8,0l0,-442.3l-0.8,0L852,568Z" class="g2_902" />
<path d="M68.4,125.7l784.4,0l0,-0.8l-784.4,0l0,0.8Z" class="g2_902" />
<path d="M68.4,179.1l784.4,0l0,-0.7l-784.4,0l0,0.7Z" class="g2_902" />
<path d="M68.4,218.8l784.4,0l0,-0.7l-784.4,0l0,0.7Z" class="g2_902" />
<path d="M68.4,258.6l784.4,0l0,-0.7l-784.4,0l0,0.7Z" class="g2_902" />
<path d="M68.4,298.3l784.4,0l0,-0.7l-784.4,0l0,0.7Z" class="g2_902" />
<path d="M68.4,388.4l784.4,0l0,-0.7l-784.4,0l0,0.7Z" class="g2_902" />
<path d="M68.4,478.6l784.4,0l0,-0.7l-784.4,0l0,0.7Z" class="g2_902" />
<path d="M68.4,568.7l784.4,0l0,-0.7L68.4,568l0,0.7Z" class="g2_902" />
<path d="M70.9,720.8l0.7,0l0,-97.1l-0.7,0l0,97.1Z" class="g2_902" />
<path d="M142.2,721.5l0.7,0l0,-98.5l-0.7,0l0,98.5Z" class="g2_902" />
<path d="M306.8,721.5l0.7,0l0,-98.5l-0.7,0l0,98.5Z" class="g2_902" />
<path d="M486.8,721.5l0.8,0l0,-98.5l-0.8,0l0,98.5Z" class="g2_902" />
<path d="M663.8,721.5l0.7,0l0,-98.5l-0.7,0l0,98.5Z" class="g2_902" />
<path d="M849.6,720.8l0.7,0l0,-97.1l-0.7,0l0,97.1Z" class="g2_902" />
<path d="M70.8,623.7l779.5,0l0,-0.7L70.8,623l0,0.7Z" class="g2_902" />
<path d="M70.8,648.2l779.5,0l0,-0.8l-779.5,0l0,0.8Z" class="g2_902" />
<path d="M70.8,672.7l779.5,0l0,-0.8l-779.5,0l0,0.8Z" class="g2_902" />
<path d="M70.8,697l779.5,0l0,-0.7l-779.5,0l0,0.7Z" class="g2_902" />
<path d="M70.8,721.5l779.5,0l0,-0.7l-779.5,0l0,0.7Z" class="g2_902" />
</svg>