<?xml version="1.0" encoding="UTF-8" standalone="no"?>
<!DOCTYPE svg PUBLIC "-//W3C//DTD SVG 1.1//EN"
"http://www.w3.org/Graphics/SVG/1.1/DTD/svg11.dtd">
<svg viewBox="0 0 935 1210" version="1.1" xmlns="http://www.w3.org/2000/svg" xmlns:xlink="http://www.w3.org/1999/xlink">
<defs>
<style type="text/css"><![CDATA[
.g1_293{
fill: #FFFFFF;
}
.g2_293{
}
]]></style>
</defs>
<path d="M68.9,1149.3l686.3,0l0,-21.2l-686.3,0l0,21.2Z" class="g1_293" />
<path d="M771.3,1149.3l83.7,0l0,-21.2l-83.7,0l0,21.2Z" class="g1_293" />
<path d="M71.6,1043.4l0.7,0L72.3,127l-0.7,0l0,916.4Z" class="g2_293" />
<path d="M158.9,168.5l0.3,0l0,-41.9l-0.3,0l0,41.9Z" class="g2_293" />
<path d="M158.7,806.8l0.7,0l0,-614.5l-0.7,0l0,614.5Z" class="g2_293" />
<path d="M158.7,1043.7l0.7,0l0,-188.3l-0.7,0l0,188.3Z" class="g2_293" />
<path d="M850.4,167.8l0.7,0l0,-40.8l-0.7,0l0,40.8Z" class="g2_293" />
<path d="M850.6,192.3l0.3,0l0,-24.1l-0.3,0l0,24.1Z" class="g2_293" />
<path d="M850.4,1043.4l0.7,0l0,-850.7l-0.7,0l0,850.7Z" class="g2_293" />
<path d="M71.6,127l779.5,0l0,-0.4l-779.5,0l0,0.4Z" class="g2_293" />
<path d="M71.6,168.4l87.3,0l0,-0.7l-87.3,0l0,0.7Z" class="g2_293" />
<path d="M159.2,168.2l691.9,0l0,-0.4l-691.9,0l0,0.4Z" class="g2_293" />
<path d="M71.6,192.7l779.5,0l0,-0.4l-779.5,0l0,0.4Z" class="g2_293" />
<path d="M71.6,290.7l779.5,0l0,-0.8l-779.5,0l0,0.8Z" class="g2_293" />
<path d="M71.6,516.6l779.5,0l0,-0.3l-779.5,0l0,0.3Z" class="g2_293" />
<path d="M71.6,614.3l779.5,0l0,-0.3L71.6,614l0,0.3Z" class="g2_293" />
<path d="M71.6,806.8l779.5,0l0,-0.3l-779.5,0l0,0.3Z" class="g2_293" />
<path d="M71.6,831.5l779.5,0l0,-0.7l-779.5,0l0,0.7Z" class="g2_293" />
<path d="M71.6,855.8l779.5,0l0,-0.4l-779.5,0l0,0.4Z" class="g2_293" />
<path d="M71.6,1043.7l779.5,0l0,-0.3l-779.5,0l0,0.3Z" class="g2_293" />
</svg>