<?xml version="1.0" encoding="UTF-8" standalone="no"?>
<!DOCTYPE svg PUBLIC "-//W3C//DTD SVG 1.1//EN"
"http://www.w3.org/Graphics/SVG/1.1/DTD/svg11.dtd">
<svg viewBox="0 0 935 1210" version="1.1" xmlns="http://www.w3.org/2000/svg" xmlns:xlink="http://www.w3.org/1999/xlink">
<defs>
<style type="text/css"><![CDATA[
.g1_1562{
fill: #FFFFFF;
}
.g2_1562{
}
]]></style>
</defs>
<path d="M165,1149.3l687.5,0l0,-21.2l-687.5,0l0,21.2Z" class="g1_1562" />
<path d="M68.8,1149.3l82.5,0l0,-21.2l-82.5,0l0,21.2Z" class="g1_1562" />
<path d="M70.5,195.2l0.7,0l0,-72.6l-0.7,0l0,72.6Z" class="g2_1562" />
<path d="M191.1,196l0.8,0l0,-74.2l-0.8,0l0,74.2Z" class="g2_1562" />
<path d="M350.4,196l0.7,0l0,-74.2l-0.7,0l0,74.2Z" class="g2_1562" />
<path d="M512.6,196l0.7,0l0,-74.2l-0.7,0l0,74.2Z" class="g2_1562" />
<path d="M683.3,196l0.7,0l0,-74.2l-0.7,0l0,74.2Z" class="g2_1562" />
<path d="M849.9,195.2l0.8,0l0,-72.6l-0.8,0l0,72.6Z" class="g2_1562" />
<path d="M70.5,122.6l780.2,0l0,-0.8l-780.2,0l0,0.8Z" class="g2_1562" />
<path d="M70.5,147l780.2,0l0,-0.7l-780.2,0l0,0.7Z" class="g2_1562" />
<path d="M70.5,171.5l780.2,0l0,-0.7l-780.2,0l0,0.7Z" class="g2_1562" />
<path d="M70.5,195.9l780.2,0l0,-0.7l-780.2,0l0,0.7Z" class="g2_1562" />
</svg>