<?xml version="1.0" encoding="UTF-8" standalone="no"?>
<!DOCTYPE svg PUBLIC "-//W3C//DTD SVG 1.1//EN"
"http://www.w3.org/Graphics/SVG/1.1/DTD/svg11.dtd">
<svg viewBox="0 0 935 1210" version="1.1" xmlns="http://www.w3.org/2000/svg" xmlns:xlink="http://www.w3.org/1999/xlink">
<defs>
<style type="text/css"><![CDATA[
.g1_1845{
fill: #FFFFFF;
}
.g2_1845{
fill: #0860A8;
}
.g3_1845{
}
]]></style>
</defs>
<path d="M68.9,1149.3l686.3,0l0,-21.2l-686.3,0l0,21.2Z" class="g1_1845" />
<path d="M771.3,1149.3l83.7,0l0,-21.2l-83.7,0l0,21.2Z" class="g1_1845" />
<path d="M524.5,1032.9l327.9,0l0,-0.8l-327.9,0l0,0.8Z" class="g2_1845" />
<path d="M70.3,1049.8l673.5,0l0,-0.9l-673.5,0l0,0.9Z" class="g2_1845" />
<path d="M69.9,335.8l0.8,0l0,-210.1l-0.8,0l0,210.1Z" class="g3_1845" />
<path d="M277.8,336.5l0.7,0l0,-211.6l-0.7,0l0,211.6Z" class="g3_1845" />
<path d="M321.2,336.5l0.7,0l0,-211.6l-0.7,0l0,211.6Z" class="g3_1845" />
<path d="M395.7,336.5l0.8,0l0,-211.6l-0.8,0l0,211.6Z" class="g3_1845" />
<path d="M482.4,336.5l0.8,0l0,-211.6l-0.8,0l0,211.6Z" class="g3_1845" />
<path d="M852.1,335.8l0.8,0l0,-210.1l-0.8,0l0,210.1Z" class="g3_1845" />
<path d="M69.9,125.7l783.1,0l0,-0.8l-783.1,0l0,0.8Z" class="g3_1845" />
<path d="M69.9,176.1l783.1,0l0,-0.7l-783.1,0l0,0.7Z" class="g3_1845" />
<path d="M69.9,229.5l783.1,0l0,-0.7l-783.1,0l0,0.7Z" class="g3_1845" />
<path d="M69.9,283L853,283l0,-0.8l-783.1,0l0,0.8Z" class="g3_1845" />
<path d="M69.9,336.5l783.1,0l0,-0.7l-783.1,0l0,0.7Z" class="g3_1845" />
<path d="M70.5,439.6l0.7,0l0,-48.1l-0.7,0l0,48.1Z" class="g3_1845" />
<path d="M183,440.4l0.7,0l0,-49.6l-0.7,0l0,49.6Z" class="g3_1845" />
<path d="M344.9,440.4l0.7,0l0,-49.6l-0.7,0l0,49.6Z" class="g3_1845" />
<path d="M509.5,440.4l0.7,0l0,-49.6l-0.7,0l0,49.6Z" class="g3_1845" />
<path d="M681,440.4l0.7,0l0,-49.6l-0.7,0l0,49.6Z" class="g3_1845" />
<path d="M851.5,439.6l0.7,0l0,-48.1l-0.7,0l0,48.1Z" class="g3_1845" />
<path d="M70.5,391.5l781.7,0l0,-0.7l-781.7,0l0,0.7Z" class="g3_1845" />
<path d="M70.5,416l781.7,0l0,-0.7l-781.7,0l0,0.7Z" class="g3_1845" />
<path d="M70.5,440.4l781.7,0l0,-0.8l-781.7,0l0,0.8Z" class="g3_1845" />
<path d="M75.2,954.5l0.7,0l0,-170.3l-0.7,0l0,170.3Z" class="g3_1845" />
<path d="M261.2,955.3l0.7,0l0,-171.9l-0.7,0l0,171.9Z" class="g3_1845" />
<path d="M410.5,955.3l0.7,0l0,-171.9l-0.7,0l0,171.9Z" class="g3_1845" />
<path d="M846.8,954.5l0.8,0l0,-170.3l-0.8,0l0,170.3Z" class="g3_1845" />
<path d="M75.2,784.1l772.4,0l0,-0.7l-772.4,0l0,0.7Z" class="g3_1845" />
<path d="M75.2,808.6l772.4,0l0,-0.7l-772.4,0l0,0.7Z" class="g3_1845" />
<path d="M75.2,833.1l772.4,0l0,-0.8l-772.4,0l0,0.8Z" class="g3_1845" />
<path d="M75.2,857.5l772.4,0l0,-0.8l-772.4,0l0,0.8Z" class="g3_1845" />
<path d="M75.2,881.9l772.4,0l0,-0.7l-772.4,0l0,0.7Z" class="g3_1845" />
<path d="M75.2,906.4l772.4,0l0,-0.7l-772.4,0l0,0.7Z" class="g3_1845" />
<path d="M75.2,930.8l772.4,0l0,-0.7l-772.4,0l0,0.7Z" class="g3_1845" />
<path d="M75.2,955.3l772.4,0l0,-0.8l-772.4,0l0,0.8Z" class="g3_1845" />
</svg>