<?xml version="1.0" encoding="UTF-8" standalone="no"?>
<!DOCTYPE svg PUBLIC "-//W3C//DTD SVG 1.1//EN"
"http://www.w3.org/Graphics/SVG/1.1/DTD/svg11.dtd">
<svg viewBox="0 0 935 1210" version="1.1" xmlns="http://www.w3.org/2000/svg" xmlns:xlink="http://www.w3.org/1999/xlink">
<defs>
<style type="text/css"><![CDATA[
.g1_1110{
fill: #FFFFFF;
}
.g2_1110{
}
]]></style>
</defs>
<path d="M165,1149.3l687.5,0l0,-21.2l-687.5,0l0,21.2Z" class="g1_1110" />
<path d="M68.8,1149.3l82.5,0l0,-21.2l-82.5,0l0,21.2Z" class="g1_1110" />
<path d="M66.6,1081.3l0.8,0l0,-974l-0.8,0l0,974Z" class="g2_1110" />
<path d="M372.2,1082.1l0.7,0l0,-975.5l-0.7,0l0,975.5Z" class="g2_1110" />
<path d="M416.9,1082.1l0.7,0l0,-975.5l-0.7,0l0,975.5Z" class="g2_1110" />
<path d="M490.3,1082.1l0.8,0l0,-975.5l-0.8,0l0,975.5Z" class="g2_1110" />
<path d="M575.4,1082.1l0.7,0l0,-975.5l-0.7,0l0,975.5Z" class="g2_1110" />
<path d="M853.7,1081.3l0.7,0l0,-974l-0.7,0l0,974Z" class="g2_1110" />
<path d="M66.6,107.3l787.9,0l0,-0.7l-787.9,0l0,0.7Z" class="g2_1110" />
<path d="M66.6,151.6l787.9,0l0,-0.7l-787.9,0l0,0.7Z" class="g2_1110" />
<path d="M66.6,195.9l787.9,0l0,-0.7l-787.9,0l0,0.7Z" class="g2_1110" />
<path d="M66.6,240.3l787.9,0l0,-0.8l-787.9,0l0,0.8Z" class="g2_1110" />
<path d="M66.6,284.5l787.9,0l0,-0.7l-787.9,0l0,0.7Z" class="g2_1110" />
<path d="M66.6,341.1l787.9,0l0,-0.7l-787.9,0l0,0.7Z" class="g2_1110" />
<path d="M66.6,397.7l787.9,0l0,-0.8l-787.9,0l0,0.8Z" class="g2_1110" />
<path d="M66.6,454.1l787.9,0l0,-0.7l-787.9,0l0,0.7Z" class="g2_1110" />
<path d="M66.6,493.9l787.9,0l0,-0.7l-787.9,0l0,0.7Z" class="g2_1110" />
<path d="M66.6,533.6l787.9,0l0,-0.7l-787.9,0l0,0.7Z" class="g2_1110" />
<path d="M66.6,573.3l787.9,0l0,-0.7l-787.9,0l0,0.7Z" class="g2_1110" />
<path d="M66.6,629.8l787.9,0l0,-0.7l-787.9,0l0,0.7Z" class="g2_1110" />
<path d="M66.6,686.4l787.9,0l0,-0.7l-787.9,0l0,0.7Z" class="g2_1110" />
<path d="M66.6,742.9l787.9,0l0,-0.8l-787.9,0l0,0.8Z" class="g2_1110" />
<path d="M66.6,799.4l787.9,0l0,-0.7l-787.9,0l0,0.7Z" class="g2_1110" />
<path d="M66.6,856l787.9,0l0,-0.8l-787.9,0l0,0.8Z" class="g2_1110" />
<path d="M66.6,912.5l787.9,0l0,-0.8l-787.9,0l0,0.8Z" class="g2_1110" />
<path d="M66.6,969l787.9,0l0,-0.7l-787.9,0l0,0.7Z" class="g2_1110" />
<path d="M66.6,1025.6l787.9,0l0,-0.8l-787.9,0l0,0.8Z" class="g2_1110" />
<path d="M66.6,1082l787.9,0l0,-0.7l-787.9,0l0,0.7Z" class="g2_1110" />
</svg>