<?xml version="1.0" encoding="UTF-8" standalone="no"?>
<!DOCTYPE svg PUBLIC "-//W3C//DTD SVG 1.1//EN"
"http://www.w3.org/Graphics/SVG/1.1/DTD/svg11.dtd">
<svg viewBox="0 0 935 1210" version="1.1" xmlns="http://www.w3.org/2000/svg" xmlns:xlink="http://www.w3.org/1999/xlink">
<defs>
<style type="text/css"><![CDATA[
.g1_247{
fill: #FFFFFF;
}
.g2_247{
}
]]></style>
</defs>
<path d="M68.9,1149.3l686.3,0l0,-21.2l-686.3,0l0,21.2Z" class="g1_247" />
<path d="M771.3,1149.3l83.7,0l0,-21.2l-83.7,0l0,21.2Z" class="g1_247" />
<path d="M70.9,186l0.8,0l0,-60.3l-0.8,0l0,60.3Z" class="g2_247" />
<path d="M222.1,186.8l0.7,0l0,-61.9l-0.7,0l0,61.9Z" class="g2_247" />
<path d="M393.6,186.8l0.8,0l0,-61.9l-0.8,0l0,61.9Z" class="g2_247" />
<path d="M431.5,186.8l0.7,0l0,-61.9l-0.7,0l0,61.9Z" class="g2_247" />
<path d="M504.8,186.8l0.7,0l0,-61.9l-0.7,0l0,61.9Z" class="g2_247" />
<path d="M576.2,186.8l0.8,0l0,-61.9l-0.8,0l0,61.9Z" class="g2_247" />
<path d="M851,186l0.8,0l0,-60.3l-0.8,0l0,60.3Z" class="g2_247" />
<path d="M70.9,125.7l781,0l0,-0.8l-781,0l0,0.8Z" class="g2_247" />
<path d="M70.9,163.8l781,0l0,-0.7l-781,0l0,0.7Z" class="g2_247" />
<path d="M70.9,186.7l781,0l0,-0.7l-781,0l0,0.7Z" class="g2_247" />
<path d="M71.6,289.9l0.7,0l0,-48.1l-0.7,0l0,48.1Z" class="g2_247" />
<path d="M137.3,290.7l0.8,0l0,-49.7l-0.8,0l0,49.7Z" class="g2_247" />
<path d="M311.8,290.7l0.8,0l0,-49.7l-0.8,0l0,49.7Z" class="g2_247" />
<path d="M489.7,290.7l0.7,0l0,-49.7l-0.7,0l0,49.7Z" class="g2_247" />
<path d="M666.8,290.7l0.7,0l0,-49.7l-0.7,0l0,49.7Z" class="g2_247" />
<path d="M850.4,289.9l0.7,0l0,-48.1l-0.7,0l0,48.1Z" class="g2_247" />
<path d="M71.6,241.7l779.5,0l0,-0.7L71.6,241l0,0.7Z" class="g2_247" />
<path d="M71.6,266.2l779.5,0l0,-0.7l-779.5,0l0,0.7Z" class="g2_247" />
<path d="M71.6,290.7l779.5,0l0,-0.8l-779.5,0l0,0.8Z" class="g2_247" />
</svg>