<?xml version="1.0" encoding="UTF-8" standalone="no"?>
<!DOCTYPE svg PUBLIC "-//W3C//DTD SVG 1.1//EN"
"http://www.w3.org/Graphics/SVG/1.1/DTD/svg11.dtd">
<svg viewBox="0 0 935 1210" version="1.1" xmlns="http://www.w3.org/2000/svg" xmlns:xlink="http://www.w3.org/1999/xlink">
<defs>
<style type="text/css"><![CDATA[
.g1_1352{
fill: #FFFFFF;
}
.g2_1352{
}
]]></style>
</defs>
<path d="M165,1149.3l687.5,0l0,-21.2l-687.5,0l0,21.2Z" class="g1_1352" />
<path d="M68.8,1149.3l82.5,0l0,-21.2l-82.5,0l0,21.2Z" class="g1_1352" />
<path d="M68.6,496.2l0.7,0l0,-370.5l-0.7,0l0,370.5Z" class="g2_1352" />
<path d="M286.5,496.9l0.8,0l0,-372l-0.8,0l0,372Z" class="g2_1352" />
<path d="M332.8,496.9l0.8,0l0,-372l-0.8,0l0,372Z" class="g2_1352" />
<path d="M407.3,496.9l0.7,0l0,-372l-0.7,0l0,372Z" class="g2_1352" />
<path d="M495.7,496.9l0.8,0l0,-372l-0.8,0l0,372Z" class="g2_1352" />
<path d="M851,496.2l0.8,0l0,-370.5l-0.8,0l0,370.5Z" class="g2_1352" />
<path d="M68.6,125.7l783.2,0l0,-0.8l-783.2,0l0,0.8Z" class="g2_1352" />
<path d="M68.6,176.1l783.2,0l0,-0.7l-783.2,0l0,0.7Z" class="g2_1352" />
<path d="M68.6,212.8l783.2,0l0,-0.8L68.6,212l0,0.8Z" class="g2_1352" />
<path d="M68.6,266.2l783.2,0l0,-0.7l-783.2,0l0,0.7Z" class="g2_1352" />
<path d="M68.6,319.6l783.2,0l0,-0.7l-783.2,0l0,0.7Z" class="g2_1352" />
<path d="M68.6,373.2l783.2,0l0,-0.8l-783.2,0l0,0.8Z" class="g2_1352" />
<path d="M68.6,426.6l783.2,0l0,-0.7l-783.2,0l0,0.7Z" class="g2_1352" />
<path d="M68.6,496.9l783.2,0l0,-0.7l-783.2,0l0,0.7Z" class="g2_1352" />
<path d="M69.7,648.9l0.7,0l0,-97l-0.7,0l0,97Z" class="g2_1352" />
<path d="M183.3,649.7l0.8,0l0,-98.5l-0.8,0l0,98.5Z" class="g2_1352" />
<path d="M342.5,649.7l0.7,0l0,-98.5l-0.7,0l0,98.5Z" class="g2_1352" />
<path d="M511.6,649.7l0.7,0l0,-98.5l-0.7,0l0,98.5Z" class="g2_1352" />
<path d="M681.1,649.7l0.7,0l0,-98.5l-0.7,0l0,98.5Z" class="g2_1352" />
<path d="M850.7,648.9l0.7,0l0,-97l-0.7,0l0,97Z" class="g2_1352" />
<path d="M69.7,551.9l781.7,0l0,-0.7l-781.7,0l0,0.7Z" class="g2_1352" />
<path d="M69.7,576.4l781.7,0l0,-0.7l-781.7,0l0,0.7Z" class="g2_1352" />
<path d="M69.7,600.8l781.7,0l0,-0.7l-781.7,0l0,0.7Z" class="g2_1352" />
<path d="M69.7,625.3l781.7,0l0,-0.8l-781.7,0l0,0.8Z" class="g2_1352" />
<path d="M69.7,649.7l781.7,0l0,-0.7L69.7,649l0,0.7Z" class="g2_1352" />
</svg>