<?xml version="1.0" encoding="UTF-8" standalone="no"?>
<!DOCTYPE svg PUBLIC "-//W3C//DTD SVG 1.1//EN"
"http://www.w3.org/Graphics/SVG/1.1/DTD/svg11.dtd">
<svg viewBox="0 0 935 1210" version="1.1" xmlns="http://www.w3.org/2000/svg" xmlns:xlink="http://www.w3.org/1999/xlink">
<defs>
<style type="text/css"><![CDATA[
.g1_2172{
fill: #FFFFFF;
}
.g2_2172{
}
]]></style>
</defs>
<path d="M68.8,1149.3l783.7,0l0,-21.2l-783.7,0l0,21.2Z" class="g1_2172" />
<path d="M69,1082.9l0.8,0l0,-526.4l-0.8,0l0,526.4Z" class="g2_2172" />
<path d="M260.9,1083.6l0.7,0l0,-527.8l-0.7,0l0,527.8Z" class="g2_2172" />
<path d="M851.4,1082.9l0.7,0l0,-526.4l-0.7,0l0,526.4Z" class="g2_2172" />
<path d="M69,556.5l783.1,0l0,-0.7L69,555.8l0,0.7Z" class="g2_2172" />
<path d="M69,579.4l783.1,0l0,-0.7L69,578.7l0,0.7Z" class="g2_2172" />
<path d="M69,602.3l783.1,0l0,-0.7L69,601.6l0,0.7Z" class="g2_2172" />
<path d="M69,625.3l783.1,0l0,-0.8L69,624.5l0,0.8Z" class="g2_2172" />
<path d="M69,648.2l783.1,0l0,-0.8L69,647.4l0,0.8Z" class="g2_2172" />
<path d="M69,671.1l783.1,0l0,-0.7L69,670.4l0,0.7Z" class="g2_2172" />
<path d="M69,694l783.1,0l0,-0.7L69,693.3l0,0.7Z" class="g2_2172" />
<path d="M69,716.9l783.1,0l0,-0.7L69,716.2l0,0.7Z" class="g2_2172" />
<path d="M69,739.8l783.1,0l0,-0.7L69,739.1l0,0.7Z" class="g2_2172" />
<path d="M69,762.8l783.1,0l0,-0.8L69,762l0,0.8Z" class="g2_2172" />
<path d="M69,785.7l783.1,0l0,-0.8L69,784.9l0,0.8Z" class="g2_2172" />
<path d="M69,808.6l783.1,0l0,-0.7L69,807.9l0,0.7Z" class="g2_2172" />
<path d="M69,831.5l783.1,0l0,-0.7L69,830.8l0,0.7Z" class="g2_2172" />
<path d="M69,854.4l783.1,0l0,-0.7L69,853.7l0,0.7Z" class="g2_2172" />
<path d="M69,877.3l783.1,0l0,-0.7L69,876.6l0,0.7Z" class="g2_2172" />
<path d="M69,900.3l783.1,0l0,-0.8L69,899.5l0,0.8Z" class="g2_2172" />
<path d="M69,923.2l783.1,0l0,-0.8L69,922.4l0,0.8Z" class="g2_2172" />
<path d="M69,946.1l783.1,0l0,-0.7L69,945.4l0,0.7Z" class="g2_2172" />
<path d="M69,969l783.1,0l0,-0.7L69,968.3l0,0.7Z" class="g2_2172" />
<path d="M69,991.9l783.1,0l0,-0.7L69,991.2l0,0.7Z" class="g2_2172" />
<path d="M69,1014.8l783.1,0l0,-0.7l-783.1,0l0,0.7Z" class="g2_2172" />
<path d="M69,1037.8l783.1,0l0,-0.8L69,1037l0,0.8Z" class="g2_2172" />
<path d="M69,1060.7l783.1,0l0,-0.8l-783.1,0l0,0.8Z" class="g2_2172" />
<path d="M69,1083.6l783.1,0l0,-0.7l-783.1,0l0,0.7Z" class="g2_2172" />
</svg>