<?xml version="1.0" encoding="UTF-8" standalone="no"?>
<!DOCTYPE svg PUBLIC "-//W3C//DTD SVG 1.1//EN"
"http://www.w3.org/Graphics/SVG/1.1/DTD/svg11.dtd">
<svg viewBox="0 0 935 1210" version="1.1" xmlns="http://www.w3.org/2000/svg" xmlns:xlink="http://www.w3.org/1999/xlink">
<defs>
<style type="text/css"><![CDATA[
.g1_512{
fill: #FFFFFF;
}
.g2_512{
}
]]></style>
</defs>
<path d="M165,1149.3l687.5,0l0,-21.2l-687.5,0l0,21.2Z" class="g1_512" />
<path d="M68.8,1149.3l82.5,0l0,-21.2l-82.5,0l0,21.2Z" class="g1_512" />
<path d="M70.1,251.7l0.8,0l0,-126l-0.8,0l0,126Z" class="g2_512" />
<path d="M390.5,252.4l0.7,0l0,-127.5l-0.7,0l0,127.5Z" class="g2_512" />
<path d="M428.4,252.4l0.7,0l0,-127.5l-0.7,0l0,127.5Z" class="g2_512" />
<path d="M501.8,252.4l0.7,0l0,-127.5l-0.7,0l0,127.5Z" class="g2_512" />
<path d="M573.1,252.4l0.7,0l0,-127.5l-0.7,0l0,127.5Z" class="g2_512" />
<path d="M850.3,251.7l0.7,0l0,-126l-0.7,0l0,126Z" class="g2_512" />
<path d="M70.1,125.7l780.9,0l0,-0.8l-780.9,0l0,0.8Z" class="g2_512" />
<path d="M70.1,163.8l780.9,0l0,-0.7l-780.9,0l0,0.7Z" class="g2_512" />
<path d="M70.1,208.2l780.9,0l0,-0.8l-780.9,0l0,0.8Z" class="g2_512" />
<path d="M70.1,252.4l780.9,0l0,-0.7l-780.9,0l0,0.7Z" class="g2_512" />
<path d="M68.6,355.6l0.7,0l0,-48.2l-0.7,0l0,48.2Z" class="g2_512" />
<path d="M851.9,355.6l0.7,0l0,-48.2l-0.7,0l0,48.2Z" class="g2_512" />
<path d="M68.5,307.4l784.1,0l0,-0.7l-784.1,0l0,0.7Z" class="g2_512" />
<path d="M68.5,356.3l784.1,0l0,-0.7l-784.1,0l0,0.7Z" class="g2_512" />
</svg>