<?xml version="1.0" encoding="UTF-8" standalone="no"?>
<!DOCTYPE svg PUBLIC "-//W3C//DTD SVG 1.1//EN"
"http://www.w3.org/Graphics/SVG/1.1/DTD/svg11.dtd">
<svg viewBox="0 0 935 1210" version="1.1" xmlns="http://www.w3.org/2000/svg" xmlns:xlink="http://www.w3.org/1999/xlink">
<defs>
<style type="text/css"><![CDATA[
.g1_178{
fill: #FFFFFF;
}
.g2_178{
}
]]></style>
</defs>
<path d="M165,1149.3l687.5,0l0,-21.2l-687.5,0l0,21.2Z" class="g1_178" />
<path d="M68.8,1149.3l82.5,0l0,-21.2l-82.5,0l0,21.2Z" class="g1_178" />
<path d="M69.6,202.9l0.7,0l0,-77.2l-0.7,0l0,77.2Z" class="g2_178" />
<path d="M220.2,203.6l0.7,0l0,-78.7l-0.7,0l0,78.7Z" class="g2_178" />
<path d="M391.1,203.6l0.8,0l0,-78.7l-0.8,0l0,78.7Z" class="g2_178" />
<path d="M429,203.6l0.7,0l0,-78.7l-0.7,0l0,78.7Z" class="g2_178" />
<path d="M502.3,203.6l0.8,0l0,-78.7l-0.8,0l0,78.7Z" class="g2_178" />
<path d="M573.7,203.6l0.7,0l0,-78.7l-0.7,0l0,78.7Z" class="g2_178" />
<path d="M850.8,202.9l0.8,0l0,-77.2l-0.8,0l0,77.2Z" class="g2_178" />
<path d="M69.6,125.7l782,0l0,-0.8l-782,0l0,0.8Z" class="g2_178" />
<path d="M69.6,163.8l782,0l0,-0.7l-782,0l0,0.7Z" class="g2_178" />
<path d="M69.6,203.6l782,0l0,-0.7l-782,0l0,0.7Z" class="g2_178" />
<path d="M69.7,306.7l0.7,0l0,-48.1l-0.7,0l0,48.1Z" class="g2_178" />
<path d="M135.6,307.4l0.7,0l0,-49.5l-0.7,0l0,49.5Z" class="g2_178" />
<path d="M305.4,307.4l0.8,0l0,-49.5l-0.8,0l0,49.5Z" class="g2_178" />
<path d="M487,307.4l0.8,0l0,-49.5l-0.8,0l0,49.5Z" class="g2_178" />
<path d="M666.8,307.4l0.7,0l0,-49.5l-0.7,0l0,49.5Z" class="g2_178" />
<path d="M850.8,306.7l0.7,0l0,-48.1l-0.7,0l0,48.1Z" class="g2_178" />
<path d="M69.7,258.6l781.8,0l0,-0.7l-781.8,0l0,0.7Z" class="g2_178" />
<path d="M69.7,283l781.8,0l0,-0.8l-781.8,0l0,0.8Z" class="g2_178" />
<path d="M69.7,307.4l781.8,0l0,-0.7l-781.8,0l0,0.7Z" class="g2_178" />
</svg>