<?xml version="1.0" encoding="UTF-8" standalone="no"?>
<!DOCTYPE svg PUBLIC "-//W3C//DTD SVG 1.1//EN"
"http://www.w3.org/Graphics/SVG/1.1/DTD/svg11.dtd">
<svg viewBox="0 0 935 1210" version="1.1" xmlns="http://www.w3.org/2000/svg" xmlns:xlink="http://www.w3.org/1999/xlink">
<defs>
<style type="text/css"><![CDATA[
.g1_1297{
fill: #FFFFFF;
}
.g2_1297{
}
]]></style>
</defs>
<path d="M68.9,1149.3l686.3,0l0,-21.2l-686.3,0l0,21.2Z" class="g1_1297" />
<path d="M771.3,1149.3l83.7,0l0,-21.2l-83.7,0l0,21.2Z" class="g1_1297" />
<path d="M70.3,959.5l0,-0.8Z" class="g2_1297" />
<path d="M70.3,959.5l220.4,0l0,-0.8l-220.4,0l0,0.8Z" class="g2_1297" />
<path d="M70.3,219.6l0.7,0l0,-93.9l-0.7,0l0,93.9Z" class="g2_1297" />
<path d="M221.6,220.4l0.7,0l0,-95.5l-0.7,0l0,95.5Z" class="g2_1297" />
<path d="M393.1,220.4l0.7,0l0,-95.5l-0.7,0l0,95.5Z" class="g2_1297" />
<path d="M430.9,220.4l0.8,0l0,-95.5l-0.8,0l0,95.5Z" class="g2_1297" />
<path d="M504.3,220.4l0.7,0l0,-95.5l-0.7,0l0,95.5Z" class="g2_1297" />
<path d="M575.7,220.4l0.7,0l0,-95.5l-0.7,0l0,95.5Z" class="g2_1297" />
<path d="M851.7,219.6l0.7,0l0,-93.9l-0.7,0l0,93.9Z" class="g2_1297" />
<path d="M70.3,125.7l782.1,0l0,-0.8l-782.1,0l0,0.8Z" class="g2_1297" />
<path d="M70.3,163.8l782.1,0l0,-0.7l-782.1,0l0,0.7Z" class="g2_1297" />
<path d="M70.3,220.4l782.1,0l0,-0.8l-782.1,0l0,0.8Z" class="g2_1297" />
<path d="M71.6,323.5l0.7,0l0,-48.1l-0.7,0l0,48.1Z" class="g2_1297" />
<path d="M140.2,324.3l0.7,0l0,-49.7l-0.7,0l0,49.7Z" class="g2_1297" />
<path d="M313.6,324.3l0.7,0l0,-49.7l-0.7,0l0,49.7Z" class="g2_1297" />
<path d="M486.6,324.3l0.7,0l0,-49.7l-0.7,0l0,49.7Z" class="g2_1297" />
<path d="M668.2,324.3l0.8,0l0,-49.7l-0.8,0l0,49.7Z" class="g2_1297" />
<path d="M850.4,323.5l0.7,0l0,-48.1l-0.7,0l0,48.1Z" class="g2_1297" />
<path d="M71.6,275.4l779.5,0l0,-0.8l-779.5,0l0,0.8Z" class="g2_1297" />
<path d="M71.6,299.8l779.5,0l0,-0.7l-779.5,0l0,0.7Z" class="g2_1297" />
<path d="M71.6,324.2l779.5,0l0,-0.7l-779.5,0l0,0.7Z" class="g2_1297" />
<path d="M72.3,907.1l0.8,0l0,-251.3l-0.8,0l0,251.3Z" class="g2_1297" />
<path d="M161,908l0.7,0l0,-252.9l-0.7,0L161,908Z" class="g2_1297" />
<path d="M249.7,908l0.7,0l0,-252.9l-0.7,0l0,252.9Z" class="g2_1297" />
<path d="M338.3,908l0.8,0l0,-252.9l-0.8,0l0,252.9Z" class="g2_1297" />
<path d="M427,908l0.7,0l0,-252.9l-0.7,0L427,908Z" class="g2_1297" />
<path d="M515.7,908l0.8,0l0,-252.9l-0.8,0l0,252.9Z" class="g2_1297" />
<path d="M604.4,908l0.7,0l0,-252.9l-0.7,0l0,252.9Z" class="g2_1297" />
<path d="M693,908l0.7,0l0,-252.9l-0.7,0L693,908Z" class="g2_1297" />
<path d="M849.7,907.1l0.7,0l0,-251.3l-0.7,0l0,251.3Z" class="g2_1297" />
<path d="M72.3,655.8l778.1,0l0,-0.7l-778.1,0l0,0.7Z" class="g2_1297" />
<path d="M72.3,678.7l778.1,0l0,-0.7L72.3,678l0,0.7Z" class="g2_1297" />
<path d="M72.3,701.6l778.1,0l0,-0.7l-778.1,0l0,0.7Z" class="g2_1297" />
<path d="M72.3,724.5l778.1,0l0,-0.7l-778.1,0l0,0.7Z" class="g2_1297" />
<path d="M72.3,747.4l778.1,0l0,-0.7l-778.1,0l0,0.7Z" class="g2_1297" />
<path d="M72.3,770.4l778.1,0l0,-0.8l-778.1,0l0,0.8Z" class="g2_1297" />
<path d="M72.3,793.3l778.1,0l0,-0.7l-778.1,0l0,0.7Z" class="g2_1297" />
<path d="M72.3,816.2l778.1,0l0,-0.7l-778.1,0l0,0.7Z" class="g2_1297" />
<path d="M72.3,839.1l778.1,0l0,-0.7l-778.1,0l0,0.7Z" class="g2_1297" />
<path d="M72.3,862l778.1,0l0,-0.7l-778.1,0l0,0.7Z" class="g2_1297" />
<path d="M72.3,885l778.1,0l0,-0.8l-778.1,0l0,0.8Z" class="g2_1297" />
<path d="M72.3,907.9l778.1,0l0,-0.8l-778.1,0l0,0.8Z" class="g2_1297" />
</svg>