<?xml version="1.0" encoding="UTF-8" standalone="no"?>
<!DOCTYPE svg PUBLIC "-//W3C//DTD SVG 1.1//EN"
"http://www.w3.org/Graphics/SVG/1.1/DTD/svg11.dtd">
<svg viewBox="0 0 935 1210" version="1.1" xmlns="http://www.w3.org/2000/svg" xmlns:xlink="http://www.w3.org/1999/xlink">
<defs>
<style type="text/css"><![CDATA[
.g1_839{
fill: #FFFFFF;
}
.g2_839{
}
]]></style>
</defs>
<path d="M68.9,1149.3l686.3,0l0,-21.2l-686.3,0l0,21.2Z" class="g1_839" />
<path d="M771.3,1149.3l83.7,0l0,-21.2l-83.7,0l0,21.2Z" class="g1_839" />
<path d="M68,253.3l0.8,0l0,-146l-0.8,0l0,146Z" class="g2_839" />
<path d="M377,254l0.8,0l0,-147.4l-0.8,0L377,254Z" class="g2_839" />
<path d="M414.9,254l0.7,0l0,-147.4l-0.7,0l0,147.4Z" class="g2_839" />
<path d="M488.2,254l0.8,0l0,-147.4l-0.8,0l0,147.4Z" class="g2_839" />
<path d="M576.8,254l0.7,0l0,-147.4l-0.7,0l0,147.4Z" class="g2_839" />
<path d="M854,253.3l0.7,0l0,-146l-0.7,0l0,146Z" class="g2_839" />
<path d="M68,107.3l786.7,0l0,-0.7L68,106.6l0,0.7Z" class="g2_839" />
<path d="M68,180.7l786.7,0l0,-0.8L68,179.9l0,0.8Z" class="g2_839" />
<path d="M68,254l786.7,0l0,-0.7L68,253.3l0,0.7Z" class="g2_839" />
<path d="M71,505.4l0.8,0l0,-121.5l-0.8,0l0,121.5Z" class="g2_839" />
<path d="M137.9,506.1l0.7,0l0,-123l-0.7,0l0,123Z" class="g2_839" />
<path d="M309.6,506.1l0.8,0l0,-123l-0.8,0l0,123Z" class="g2_839" />
<path d="M481.2,506.1l0.7,0l0,-123l-0.7,0l0,123Z" class="g2_839" />
<path d="M665.9,506.1l0.7,0l0,-123l-0.7,0l0,123Z" class="g2_839" />
<path d="M850.9,505.4l0.8,0l0,-121.5l-0.8,0l0,121.5Z" class="g2_839" />
<path d="M71,383.8l780.7,0l0,-0.7L71,383.1l0,0.7Z" class="g2_839" />
<path d="M71,408.3l780.7,0l0,-0.8L71,407.5l0,0.8Z" class="g2_839" />
<path d="M71,432.8l780.7,0l0,-0.8L71,432l0,0.8Z" class="g2_839" />
<path d="M71,457.2l780.7,0l0,-0.7L71,456.5l0,0.7Z" class="g2_839" />
<path d="M71,481.6l780.7,0l0,-0.7L71,480.9l0,0.7Z" class="g2_839" />
<path d="M71,506.1l780.7,0l0,-0.7L71,505.4l0,0.7Z" class="g2_839" />
<path d="M171.3,765.1l0.8,0l0,-142.9l-0.8,0l0,142.9Z" class="g2_839" />
<path d="M750.7,765.1l0.7,0l0,-142.9l-0.7,0l0,142.9Z" class="g2_839" />
<path d="M171.3,622.2l580.1,0l0,-0.7l-580.1,0l0,0.7Z" class="g2_839" />
<path d="M171.3,765.8l580.1,0l0,-0.7l-580.1,0l0,0.7Z" class="g2_839" />
<path d="M323,680.7l110,0l0,-27.5l-110,0l0,27.5Z" class="g1_839" />
<path d="M323,653.6l110.4,0l0,-0.8l-110.4,0l0,0.8Z" class="g2_839" />
<path d="M432.7,681.1l0.7,0l0,-27.9l-0.7,0l0,27.9Z" class="g2_839" />
<path d="M322.7,681.1l110.3,0l0,-0.8l-110.3,0l0,0.8Z" class="g2_839" />
<path d="M322.7,680.7l0.7,0l0,-27.8l-0.7,0l0,27.8Z" class="g2_839" />
<path d="M377.7,653.2l0.7,0l0,-0.3l-0.7,0l0,0.3Z" class="g2_839" />
<path d="M377.7,681.1l0.7,0l0,-27.9l-0.7,0l0,27.9Z" class="g2_839" />
<path d="M401.7,741l110,0l0,-27.5l-110,0l0,27.5Z" class="g1_839" />
<path d="M401.7,713.9l110.4,0l0,-0.7l-110.4,0l0,0.7Z" class="g2_839" />
<path d="M511.3,741.4l0.8,0l0,-27.9l-0.8,0l0,27.9Z" class="g2_839" />
<path d="M401.3,741.4l110.4,0l0,-0.7l-110.4,0l0,0.7Z" class="g2_839" />
<path d="M401.3,741l0.8,0l0,-27.8l-0.8,0l0,27.8Z" class="g2_839" />
<path d="M428.8,713.5l0.8,0l0,-0.3l-0.8,0l0,0.3Z" class="g2_839" />
<path d="M428.8,741.4l0.8,0l0,-27.9l-0.8,0l0,27.9Z" class="g2_839" />
<path d="M456.3,713.5l0.8,0l0,-0.3l-0.8,0l0,0.3Z" class="g2_839" />
<path d="M456.3,741.4l0.8,0l0,-27.9l-0.8,0l0,27.9Z" class="g2_839" />
<path d="M483.8,713.5l0.8,0l0,-0.3l-0.8,0l0,0.3Z" class="g2_839" />
<path d="M483.8,741.4l0.8,0l0,-27.9l-0.8,0l0,27.9Z" class="g2_839" />
<path d="M435.5,702.4l-0.4,0.6l1.4,1.1l0.4,-0.6Z" class="g2_839" />
<path d="M436,703.6l0.8,-2.8l0.3,-1.6l1.1,1.3l6.2,7.9l1.6,2.1l-2.4,-0.9l-9.5,-3.4l-1.5,-0.5l1.3,-0.9l0.7,-0.1l9.4,3.4l-0.4,1.5l-0.4,-0.3L437,701.4l1.2,-0.9l0.1,0.7l-0.9,2.8Z" class="g2_839" />
<path d="M433.9,704.8l2.3,-1.6l1.2,0.8l-0.1,0.3l-0.1,0.2l-2.4,1.6Z" class="g2_839" />
<path fill-rule="evenodd" d="M436.7,703.8l0.8,-2.8l6.3,7.9l-9.5,-3.4Z" class="g2_839" />
<path d="M405.9,681.1l-0.3,-0.2l-0.4,0.5l0.2,0.2Z" class="g2_839" />
<path d="M435.6,702.4l0.3,0.2l-0.5,0.6L435.1,703Z" class="g2_839" />
<path d="M405.9,681.1l-0.5,0.5L435.1,703l0.5,-0.6Z" class="g2_839" />
<path d="M406.7,704.6l-0.3,0.7l1.5,0.8l0.4,-0.7Z" class="g2_839" />
<path d="M407.3,705.7l0.2,-3.1l0.2,-1.5l1.2,1.1l7.6,6.6l2,1.7l-2.6,-0.4L406,708.6l-1.6,-0.3l1.1,-1.1l0.8,-0.2l9.9,1.6l-0.3,1.5l-0.4,-0.2l-7.6,-6.6l1,-1.1l0.3,0.6l-0.3,3Z" class="g2_839" />
<path d="M405.5,707.2l2.1,-2l1.3,0.6l-0.1,0.3l-2.2,2.2Z" class="g2_839" />
<path fill-rule="evenodd" d="M408.1,705.7l0.3,-3l7.6,6.6l-9.9,-1.5Z" class="g2_839" />
<path d="M352.4,679.6l-0.3,-0.1l-0.3,0.7l0.3,0.1Z" class="g2_839" />
<path d="M406.7,704.6l0.3,0.1l-0.3,0.7l-0.2,-0.1Z" class="g2_839" />
<path d="M352.4,679.6l-0.3,0.7l54.4,25l0.2,-0.7Z" class="g2_839" />
<path d="M484.6,703.3l-0.3,-0.6l-1.5,1l0.4,0.6Z" class="g2_839" />
<path d="M483.5,703.4l2.3,1.7l1.4,0.8l-1.6,0.6l-9.6,3.2l-2.5,0.9l1.7,-2.1l6.4,-7.8l1,-1.3L483,701l-0.2,0.6l-6.4,7.8l-1.2,-0.9l0.4,-0.3l9.5,-3.2l0.5,1.5l-0.7,-0.1l-2.4,-1.8Z" class="g2_839" />
<path d="M483,701l0.7,2.8l-1.2,0.8l-0.1,-0.1l-0.1,-0.3l-0.8,-2.9Z" class="g2_839" />
<path fill-rule="evenodd" d="M483,704l2.4,1.7l-9.6,3.2l6.5,-7.7Z" class="g2_839" />
<path d="M515.2,682.6l0.2,-0.2L515,681.7l-0.3,0.2Z" class="g2_839" />
<path d="M484.7,703.4l-0.2,0.1L484,702.9l0.3,-0.2Z" class="g2_839" />
<path d="M515.2,682.6l-0.5,-0.7l-30.4,20.8l0.4,0.7Z" class="g2_839" />
<path d="M513.4,705.9l-0.3,-0.7l-1.6,0.6l0.3,0.8Z" class="g2_839" />
<path d="M512.1,705.7l2.1,2.2l1.1,1.1l-1.7,0.2l-10,1l-2.6,0.3l2.1,-1.6l7.9,-6.2l1.2,-1l0.1,1.6l-0.3,0.6l-7.9,6.2l-1,-1.2l0.4,-0.2l10,-1l0.1,1.5L513.1,709L511,706.8Z" class="g2_839" />
<path d="M512.3,703.3l0.1,2.9l-1.4,0.6l-0.1,-0.3l-0.1,-0.3l-0.1,-2.9Z" class="g2_839" />
<path fill-rule="evenodd" d="M511.6,706.2l2,2.2l-10,1l7.9,-6.1Z" class="g2_839" />
<path d="M569.3,683.3l0.3,-0.1l-0.3,-0.7l-0.2,0.1Z" class="g2_839" />
<path d="M513.4,705.9l-0.2,0.1l-0.3,-0.6l0.3,-0.1Z" class="g2_839" />
<path d="M569.3,683.3l-0.2,-0.7l-55.9,22.7l0.2,0.6Z" class="g2_839" />
<path d="M488.2,682.2l110,0l0,-27.5l-110,0l0,27.5Z" class="g1_839" />
<path d="M488.2,655.1l110.4,0l0,-0.8l-110.4,0l0,0.8Z" class="g2_839" />
<path d="M597.9,682.6l0.7,0l0,-27.9l-0.7,0l0,27.9Z" class="g2_839" />
<path d="M487.9,682.6l110.3,0l0,-0.8l-110.3,0l0,0.8Z" class="g2_839" />
<path d="M487.9,682.2l0.7,0l0,-27.9l-0.7,0l0,27.9Z" class="g2_839" />
<path d="M542.9,654.7l0.7,0l0,-0.4l-0.7,0l0,0.4Z" class="g2_839" />
<path d="M542.9,682.6l0.7,0l0,-27.9l-0.7,0l0,27.9Z" class="g2_839" />
</svg>