<?xml version="1.0" encoding="UTF-8" standalone="no"?>
<!DOCTYPE svg PUBLIC "-//W3C//DTD SVG 1.1//EN"
"http://www.w3.org/Graphics/SVG/1.1/DTD/svg11.dtd">
<svg viewBox="0 0 935 1210" version="1.1" xmlns="http://www.w3.org/2000/svg" xmlns:xlink="http://www.w3.org/1999/xlink">
<defs>
<style type="text/css"><![CDATA[
.g1_1219{
fill: #FFFFFF;
}
.g2_1219{
}
]]></style>
</defs>
<path d="M68.9,1149.3l686.3,0l0,-21.2l-686.3,0l0,21.2Z" class="g1_1219" />
<path d="M771.3,1149.3l83.7,0l0,-21.2l-83.7,0l0,21.2Z" class="g1_1219" />
<path d="M69.2,398.4l0.7,0l0,-272.7l-0.7,0l0,272.7Z" class="g2_1219" />
<path d="M393.1,399.1l0.7,0l0,-274.2l-0.7,0l0,274.2Z" class="g2_1219" />
<path d="M430.9,399.1l0.8,0l0,-274.2l-0.8,0l0,274.2Z" class="g2_1219" />
<path d="M504.3,399.1l0.7,0l0,-274.2l-0.7,0l0,274.2Z" class="g2_1219" />
<path d="M575.7,399.1l0.7,0l0,-274.2l-0.7,0l0,274.2Z" class="g2_1219" />
<path d="M852.8,398.4l0.7,0l0,-272.7l-0.7,0l0,272.7Z" class="g2_1219" />
<path d="M69.2,125.7l784.4,0l0,-0.8l-784.4,0l0,0.8Z" class="g2_1219" />
<path d="M69.2,179.1l784.4,0l0,-0.7l-784.4,0l0,0.7Z" class="g2_1219" />
<path d="M69.2,252.4l784.4,0l0,-0.7l-784.4,0l0,0.7Z" class="g2_1219" />
<path d="M69.2,325.8l784.4,0l0,-0.7l-784.4,0l0,0.7Z" class="g2_1219" />
<path d="M69.2,399.1l784.4,0l0,-0.7l-784.4,0l0,0.7Z" class="g2_1219" />
<path d="M71,502.2l0.8,0l0,-48.1l-0.8,0l0,48.1Z" class="g2_1219" />
<path d="M134.6,503.1l0.7,0l0,-49.7l-0.7,0l0,49.7Z" class="g2_1219" />
<path d="M312.4,503.1l0.7,0l0,-49.7l-0.7,0l0,49.7Z" class="g2_1219" />
<path d="M487.5,503.1l0.7,0l0,-49.7l-0.7,0l0,49.7Z" class="g2_1219" />
<path d="M666,503.1l0.7,0l0,-49.7l-0.7,0l0,49.7Z" class="g2_1219" />
<path d="M850.9,502.2l0.8,0l0,-48.1l-0.8,0l0,48.1Z" class="g2_1219" />
<path d="M71,454.1l780.7,0l0,-0.7L71,453.4l0,0.7Z" class="g2_1219" />
<path d="M71,478.6l780.7,0l0,-0.7L71,477.9l0,0.7Z" class="g2_1219" />
<path d="M71,503.1l780.7,0l0,-0.8L71,502.3l0,0.8Z" class="g2_1219" />
</svg>