<?xml version="1.0" encoding="UTF-8" standalone="no"?>
<!DOCTYPE svg PUBLIC "-//W3C//DTD SVG 1.1//EN"
"http://www.w3.org/Graphics/SVG/1.1/DTD/svg11.dtd">
<svg viewBox="0 0 935 1210" version="1.1" xmlns="http://www.w3.org/2000/svg" xmlns:xlink="http://www.w3.org/1999/xlink">
<defs>
<style type="text/css"><![CDATA[
.g1_1718{
fill: #FFFFFF;
}
.g2_1718{
}
]]></style>
</defs>
<path d="M165,1149.3l687.5,0l0,-21.2l-687.5,0l0,21.2Z" class="g1_1718" />
<path d="M68.8,1149.3l82.5,0l0,-21.2l-82.5,0l0,21.2Z" class="g1_1718" />
<path d="M68.6,513l0.7,0l0,-387.3l-0.7,0l0,387.3Z" class="g2_1718" />
<path d="M302,513.7l0.8,0l0,-388.8l-0.8,0l0,388.8Z" class="g2_1718" />
<path d="M355.5,513.7l0.7,0l0,-388.8l-0.7,0l0,388.8Z" class="g2_1718" />
<path d="M430.2,513.7l0.7,0l0,-388.8l-0.7,0l0,388.8Z" class="g2_1718" />
<path d="M519.2,513.7l0.7,0l0,-388.8l-0.7,0l0,388.8Z" class="g2_1718" />
<path d="M855.1,513l0.7,0l0,-387.3l-0.7,0l0,387.3Z" class="g2_1718" />
<path d="M68.6,125.7l787.2,0l0,-0.8l-787.2,0l0,0.8Z" class="g2_1718" />
<path d="M68.6,176.1l787.2,0l0,-0.7l-787.2,0l0,0.7Z" class="g2_1718" />
<path d="M68.6,212.8l787.2,0l0,-0.8L68.6,212l0,0.8Z" class="g2_1718" />
<path d="M68.6,266.2l787.2,0l0,-0.7l-787.2,0l0,0.7Z" class="g2_1718" />
<path d="M68.6,319.6l787.2,0l0,-0.7l-787.2,0l0,0.7Z" class="g2_1718" />
<path d="M68.6,389.9l787.2,0l0,-0.7l-787.2,0l0,0.7Z" class="g2_1718" />
<path d="M68.6,460.3l787.2,0l0,-0.8l-787.2,0l0,0.8Z" class="g2_1718" />
<path d="M68.6,513.7l787.2,0l0,-0.7L68.6,513l0,0.7Z" class="g2_1718" />
<path d="M69.6,665.8l0.7,0l0,-97.1l-0.7,0l0,97.1Z" class="g2_1718" />
<path d="M186.5,666.5l0.8,0l0,-98.5l-0.8,0l0,98.5Z" class="g2_1718" />
<path d="M347.2,666.5l0.8,0L348,568l-0.8,0l0,98.5Z" class="g2_1718" />
<path d="M516.9,666.5l0.7,0l0,-98.5l-0.7,0l0,98.5Z" class="g2_1718" />
<path d="M685.5,666.5l0.7,0l0,-98.5l-0.7,0l0,98.5Z" class="g2_1718" />
<path d="M850.8,665.8l0.8,0l0,-97.1l-0.8,0l0,97.1Z" class="g2_1718" />
<path d="M69.6,568.7l782,0l0,-0.7l-782,0l0,0.7Z" class="g2_1718" />
<path d="M69.6,593.2l782,0l0,-0.8l-782,0l0,0.8Z" class="g2_1718" />
<path d="M69.6,617.7l782,0l0,-0.8l-782,0l0,0.8Z" class="g2_1718" />
<path d="M69.6,642l782,0l0,-0.7l-782,0l0,0.7Z" class="g2_1718" />
<path d="M69.6,666.5l782,0l0,-0.7l-782,0l0,0.7Z" class="g2_1718" />
</svg>