<?xml version="1.0" encoding="UTF-8" standalone="no"?>
<!DOCTYPE svg PUBLIC "-//W3C//DTD SVG 1.1//EN"
"http://www.w3.org/Graphics/SVG/1.1/DTD/svg11.dtd">
<svg viewBox="0 0 935 1210" version="1.1" xmlns="http://www.w3.org/2000/svg" xmlns:xlink="http://www.w3.org/1999/xlink">
<defs>
<style type="text/css"><![CDATA[
.g1_1555{
fill: #FFFFFF;
}
.g2_1555{
}
]]></style>
</defs>
<path d="M68.9,1149.3l686.3,0l0,-21.2l-686.3,0l0,21.2Z" class="g1_1555" />
<path d="M771.3,1149.3l83.7,0l0,-21.2l-83.7,0l0,21.2Z" class="g1_1555" />
<path d="M69.9,517.6l0.8,0L70.7,147l-0.8,0l0,370.6Z" class="g2_1555" />
<path d="M293.5,518.3l0.7,0l0,-372l-0.7,0l0,372Z" class="g2_1555" />
<path d="M341.4,518.3l0.7,0l0,-372l-0.7,0l0,372Z" class="g2_1555" />
<path d="M415.8,518.3l0.7,0l0,-372l-0.7,0l0,372Z" class="g2_1555" />
<path d="M495.5,518.3l0.8,0l0,-372l-0.8,0l0,372Z" class="g2_1555" />
<path d="M851.7,517.6l0.7,0l0,-370.6l-0.7,0l0,370.6Z" class="g2_1555" />
<path d="M69.9,147l782.5,0l0,-0.7l-782.5,0l0,0.7Z" class="g2_1555" />
<path d="M69.9,197.4l782.5,0l0,-0.7l-782.5,0l0,0.7Z" class="g2_1555" />
<path d="M69.9,250.9l782.5,0l0,-0.7l-782.5,0l0,0.7Z" class="g2_1555" />
<path d="M69.9,304.4l782.5,0l0,-0.7l-782.5,0l0,0.7Z" class="g2_1555" />
<path d="M69.9,357.9l782.5,0l0,-0.8l-782.5,0l0,0.8Z" class="g2_1555" />
<path d="M69.9,411.4l782.5,0l0,-0.7l-782.5,0l0,0.7Z" class="g2_1555" />
<path d="M69.9,464.8l782.5,0l0,-0.7l-782.5,0l0,0.7Z" class="g2_1555" />
<path d="M69.9,518.3l782.5,0l0,-0.7l-782.5,0l0,0.7Z" class="g2_1555" />
<path d="M69.4,645.9l0.7,0l0,-72.6l-0.7,0l0,72.6Z" class="g2_1555" />
<path d="M182.1,646.6l0.7,0l0,-74.1l-0.7,0l0,74.1Z" class="g2_1555" />
<path d="M336.1,646.6l0.8,0l0,-74.1l-0.8,0l0,74.1Z" class="g2_1555" />
<path d="M512.8,646.6l0.7,0l0,-74.1l-0.7,0l0,74.1Z" class="g2_1555" />
<path d="M680.4,646.6l0.7,0l0,-74.1l-0.7,0l0,74.1Z" class="g2_1555" />
<path d="M852.6,645.9l0.7,0l0,-72.6l-0.7,0l0,72.6Z" class="g2_1555" />
<path d="M69.4,573.3l783.9,0l0,-0.7l-783.9,0l0,0.7Z" class="g2_1555" />
<path d="M69.4,597.8l783.9,0l0,-0.8L69.4,597l0,0.8Z" class="g2_1555" />
<path d="M69.4,622.2l783.9,0l0,-0.7l-783.9,0l0,0.7Z" class="g2_1555" />
<path d="M69.4,646.6l783.9,0l0,-0.7l-783.9,0l0,0.7Z" class="g2_1555" />
</svg>