<?xml version="1.0" encoding="UTF-8" standalone="no"?>
<!DOCTYPE svg PUBLIC "-//W3C//DTD SVG 1.1//EN"
"http://www.w3.org/Graphics/SVG/1.1/DTD/svg11.dtd">
<svg viewBox="0 0 935 1210" version="1.1" xmlns="http://www.w3.org/2000/svg" xmlns:xlink="http://www.w3.org/1999/xlink">
<defs>
<style type="text/css"><![CDATA[
.g1_1393{
fill: #FFFFFF;
}
.g2_1393{
}
.g3_1393{
fill: none;
stroke: #000000;
stroke-width: 0.6065278;
stroke-linecap: round;
stroke-linejoin: round;
}
.g4_1393{
fill: #C0C0C0;
}
]]></style>
</defs>
<path d="M68.9,1149.3l686.3,0l0,-21.2l-686.3,0l0,21.2Z" class="g1_1393" />
<path d="M771.3,1149.3l83.7,0l0,-21.2l-83.7,0l0,21.2Z" class="g1_1393" />
<path d="M69.9,459.5l0.8,0l0,-333.8l-0.8,0l0,333.8Z" class="g2_1393" />
<path d="M294.1,460.3l0.7,0l0,-335.4l-0.7,0l0,335.4Z" class="g2_1393" />
<path d="M341.3,460.3l0.7,0l0,-335.4l-0.7,0l0,335.4Z" class="g2_1393" />
<path d="M413.4,460.3l0.7,0l0,-335.4l-0.7,0l0,335.4Z" class="g2_1393" />
<path d="M499.7,460.3l0.7,0l0,-335.4l-0.7,0l0,335.4Z" class="g2_1393" />
<path d="M855,459.5l0.7,0l0,-333.8l-0.7,0l0,333.8Z" class="g2_1393" />
<path d="M69.9,125.7l785.8,0l0,-0.8l-785.8,0l0,0.8Z" class="g2_1393" />
<path d="M69.9,176.1l785.8,0l0,-0.7l-785.8,0l0,0.7Z" class="g2_1393" />
<path d="M69.9,229.5l785.8,0l0,-0.7l-785.8,0l0,0.7Z" class="g2_1393" />
<path d="M69.9,283l785.8,0l0,-0.8l-785.8,0l0,0.8Z" class="g2_1393" />
<path d="M69.9,336.5l785.8,0l0,-0.7l-785.8,0l0,0.7Z" class="g2_1393" />
<path d="M69.9,389.9l785.8,0l0,-0.7l-785.8,0l0,0.7Z" class="g2_1393" />
<path d="M69.9,460.3l785.8,0l0,-0.8l-785.8,0l0,0.8Z" class="g2_1393" />
<path d="M71.8,587.9l0.7,0l0,-72.6l-0.7,0l0,72.6Z" class="g2_1393" />
<path d="M850.2,587.9l0.7,0l0,-72.6l-0.7,0l0,72.6Z" class="g2_1393" />
<path d="M71.8,515.3l779.1,0l0,-0.8l-779.1,0l0,0.8Z" class="g2_1393" />
<path d="M71.8,588.6l779.1,0l0,-0.7l-779.1,0l0,0.7Z" class="g2_1393" />
<path d="M158.5,957.6l0.7,0l0,-211.6l-0.7,0l0,211.6Z" class="g2_1393" />
<path d="M763.5,957.6l0.7,0l0,-211.6l-0.7,0l0,211.6Z" class="g2_1393" />
<path d="M158.5,746l605.7,0l0,-0.7l-605.7,0l0,0.7Z" class="g2_1393" />
<path d="M158.5,958.5l605.7,0l0,-0.8l-605.7,0l0,0.8Z" class="g2_1393" />
<path d="M598.8,944.2l61.1,0l0,-15.8l-61.1,0l0,15.8Z" class="g1_1393" />
<path d="M598.8,944.2l61.1,0l0,-15.8l-61.1,0l0,15.8Z" class="g3_1393" />
<path d="M537.7,944.2l61.1,0l0,-15.8l-61.1,0l0,15.8Z" class="g1_1393" />
<path d="M537.7,944.2l61.1,0l0,-15.8l-61.1,0l0,15.8Z" class="g3_1393" />
<path d="M476.6,944.2l61.1,0l0,-15.8l-61.1,0l0,15.8Z" class="g1_1393" />
<path d="M476.6,944.2l61.1,0l0,-15.8l-61.1,0l0,15.8Z" class="g3_1393" />
<path d="M415.5,944.2l61.1,0l0,-15.8l-61.1,0l0,15.8Z" class="g1_1393" />
<path d="M415.5,944.2l61.1,0l0,-15.8l-61.1,0l0,15.8Z" class="g3_1393" />
<path d="M293.3,944.2l122.2,0l0,-15.8l-122.2,0l0,15.8Z" class="g4_1393" />
<path d="M293.3,944.2l122.2,0l0,-15.8l-122.2,0l0,15.8Z" class="g3_1393" />
<path d="M171.1,944.2l122.2,0l0,-15.8l-122.2,0l0,15.8Z" class="g4_1393" />
<path d="M171.1,944.2l122.2,0l0,-15.8l-122.2,0l0,15.8Z" class="g3_1393" />
<path d="M537.7,817.6l122.2,0l0,-15.8l-122.2,0l0,15.8Z" class="g1_1393" />
<path d="M537.7,817.6l122.2,0l0,-15.8l-122.2,0l0,15.8Z" class="g3_1393" />
<path d="M415.5,817.6l122.2,0l0,-15.8l-122.2,0l0,15.8Z" class="g1_1393" />
<path d="M415.5,817.6l122.2,0l0,-15.8l-122.2,0l0,15.8Z" class="g3_1393" />
<path d="M293.3,817.6l122.2,0l0,-15.8l-122.2,0l0,15.8Z" class="g1_1393" />
<path d="M293.3,817.6l122.2,0l0,-15.8l-122.2,0l0,15.8Z" class="g3_1393" />
<path d="M171.1,817.6l122.2,0l0,-15.8l-122.2,0l0,15.8Z" class="g1_1393" />
<path d="M171.1,817.6l122.2,0l0,-15.8l-122.2,0l0,15.8Z" class="g3_1393" />
<path d="M598.8,817.6l0,15.8l30.6,0l0,94.7" class="g3_1393" />
<path d="M476.6,817.6l0,31.7l91.6,0l0,79.1" class="g3_1393" />
<path d="M354.4,817.6l0,47.5l152.8,0l0,63.3" class="g3_1393" />
<path d="M232.2,817.6l0,63.3l213.8,0l0,47.5" class="g3_1393" />
<path d="M607.6,853.2l43.5,0l0,-15.8l-43.5,0l0,15.8Z" class="g1_1393" />
<path d="M211.2,849.3l43.5,0l0,-15.9l-43.5,0l0,15.9Z" class="g1_1393" />
<path d="M454.9,845.3l43.4,0l0,-15.8l-43.4,0l0,15.8Z" class="g1_1393" />
<path d="M332.7,849.3l43.4,0l0,-15.9l-43.4,0l0,15.9Z" class="g1_1393" />
</svg>