<?xml version="1.0" encoding="UTF-8" standalone="no"?>
<!DOCTYPE svg PUBLIC "-//W3C//DTD SVG 1.1//EN"
"http://www.w3.org/Graphics/SVG/1.1/DTD/svg11.dtd">
<svg viewBox="0 0 935 1210" version="1.1" xmlns="http://www.w3.org/2000/svg" xmlns:xlink="http://www.w3.org/1999/xlink">
<defs>
<style type="text/css"><![CDATA[
.g1_922{
fill: #FFFFFF;
}
.g2_922{
}
]]></style>
</defs>
<path d="M165,1149.3l687.5,0l0,-21.2l-687.5,0l0,21.2Z" class="g1_922" />
<path d="M68.8,1149.3l82.5,0l0,-21.2l-82.5,0l0,21.2Z" class="g1_922" />
<path d="M68.6,251.7l0.7,0l0,-126l-0.7,0l0,126Z" class="g2_922" />
<path d="M262,252.4l0.7,0l0,-127.5l-0.7,0l0,127.5Z" class="g2_922" />
<path d="M310.2,252.4l0.7,0l0,-127.5l-0.7,0l0,127.5Z" class="g2_922" />
<path d="M369.8,252.4l0.7,0l0,-127.5l-0.7,0l0,127.5Z" class="g2_922" />
<path d="M437.3,252.4l0.8,0l0,-127.5l-0.8,0l0,127.5Z" class="g2_922" />
<path d="M854.5,251.7l0.7,0l0,-126l-0.7,0l0,126Z" class="g2_922" />
<path d="M68.6,125.7l786.6,0l0,-0.8l-786.6,0l0,0.8Z" class="g2_922" />
<path d="M68.6,179.1l786.6,0l0,-0.7l-786.6,0l0,0.7Z" class="g2_922" />
<path d="M68.6,215.8l786.6,0l0,-0.8L68.6,215l0,0.8Z" class="g2_922" />
<path d="M68.6,252.4l786.6,0l0,-0.7l-786.6,0l0,0.7Z" class="g2_922" />
<path d="M70.2,355.6l0.8,0l0,-48.2l-0.8,0l0,48.2Z" class="g2_922" />
<path d="M138.2,356.4l0.8,0l0,-49.7l-0.8,0l0,49.7Z" class="g2_922" />
<path d="M308.9,356.4l0.8,0l0,-49.7l-0.8,0l0,49.7Z" class="g2_922" />
<path d="M486.5,356.4l0.7,0l0,-49.7l-0.7,0l0,49.7Z" class="g2_922" />
<path d="M668.1,356.4l0.7,0l0,-49.7l-0.7,0l0,49.7Z" class="g2_922" />
<path d="M850.1,355.6l0.7,0l0,-48.2l-0.7,0l0,48.2Z" class="g2_922" />
<path d="M70.2,307.4l780.7,0l0,-0.7l-780.7,0l0,0.7Z" class="g2_922" />
<path d="M70.2,331.9l780.7,0l0,-0.7l-780.7,0l0,0.7Z" class="g2_922" />
<path d="M70.2,356.3l780.7,0l0,-0.7l-780.7,0l0,0.7Z" class="g2_922" />
<path d="M566.6,541.8l29.6,0l0,-27.7l-29.6,0l0,27.7Z" class="g1_922" />
<path d="M566.6,514.4l30,0l0,-0.7l-30,0l0,0.7Z" class="g2_922" />
<path d="M595.8,542.1l0.8,0l0,-28l-0.8,0l0,28Z" class="g2_922" />
<path d="M566.2,542.1l30,0l0,-0.7l-30,0l0,0.7Z" class="g2_922" />
<path d="M566.2,541.8l0.8,0l0,-28.1l-0.8,0l0,28.1Z" class="g2_922" />
<path d="M477.9,541.7l29.7,0l0,-27.7l-29.7,0l0,27.7Z" class="g1_922" />
<path d="M477.9,514.3l30,0l0,-0.7l-30,0l0,0.7Z" class="g2_922" />
<path d="M507.2,542l0.7,0l0,-28l-0.7,0l0,28Z" class="g2_922" />
<path d="M477.6,542l30,0l0,-0.7l-30,0l0,0.7Z" class="g2_922" />
<path d="M477.6,541.7l0.7,0l0,-28.1l-0.7,0l0,28.1Z" class="g2_922" />
<path d="M507.6,541.7l29.6,0l0,-27.7l-29.6,0l0,27.7Z" class="g1_922" />
<path d="M507.6,514.3l29.9,0l0,-0.7l-29.9,0l0,0.7Z" class="g2_922" />
<path d="M536.8,542l0.7,0l0,-28l-0.7,0l0,28Z" class="g2_922" />
<path d="M507.2,542l30,0l0,-0.7l-30,0l0,0.7Z" class="g2_922" />
<path d="M507.2,541.7l0.7,0l0,-28.1l-0.7,0l0,28.1Z" class="g2_922" />
<path d="M537.2,541.7l29.6,0l0,-27.7l-29.6,0l0,27.7Z" class="g1_922" />
<path d="M537.2,514.3l29.9,0l0,-0.7l-29.9,0l0,0.7Z" class="g2_922" />
<path d="M566.4,542l0.7,0l0,-28l-0.7,0l0,28Z" class="g2_922" />
<path d="M536.8,542l30,0l0,-0.7l-30,0l0,0.7Z" class="g2_922" />
<path d="M536.8,541.7l0.7,0l0,-28.1l-0.7,0l0,28.1Z" class="g2_922" />
<path d="M360.1,541.7l29.6,0l0,-27.7l-29.6,0l0,27.7Z" class="g1_922" />
<path d="M360.1,514.3l29.9,0l0,-0.7l-29.9,0l0,0.7Z" class="g2_922" />
<path d="M389.3,542l0.7,0l0,-28l-0.7,0l0,28Z" class="g2_922" />
<path d="M359.7,542l30,0l0,-0.7l-30,0l0,0.7Z" class="g2_922" />
<path d="M359.7,541.7l0.7,0l0,-28.1l-0.7,0l0,28.1Z" class="g2_922" />
<path d="M330.4,541.8l29.6,0l0,-27.7l-29.6,0l0,27.7Z" class="g1_922" />
<path d="M330.4,514.4l29.9,0l0,-0.7l-29.9,0l0,0.7Z" class="g2_922" />
<path d="M359.6,542.1l0.7,0l0,-28l-0.7,0l0,28Z" class="g2_922" />
<path d="M330,542.1l30,0l0,-0.7l-30,0l0,0.7Z" class="g2_922" />
<path d="M330,541.8l0.7,0l0,-28.1l-0.7,0l0,28.1Z" class="g2_922" />
<path d="M241.7,541.7l29.5,0l0,-27.7l-29.5,0l0,27.7Z" class="g1_922" />
<path d="M241.7,514.3l29.9,0l0,-0.7l-29.9,0l0,0.7Z" class="g2_922" />
<path d="M270.9,542l0.7,0l0,-28l-0.7,0l0,28Z" class="g2_922" />
<path d="M241.4,542l29.8,0l0,-0.7l-29.8,0l0,0.7Z" class="g2_922" />
<path d="M241.4,541.7l0.7,0l0,-28.1l-0.7,0l0,28.1Z" class="g2_922" />
<path d="M271.2,541.7l29.6,0l0,-27.7l-29.6,0l0,27.7Z" class="g1_922" />
<path d="M271.2,514.3l30,0l0,-0.7l-30,0l0,0.7Z" class="g2_922" />
<path d="M300.5,542l0.7,0l0,-28l-0.7,0l0,28Z" class="g2_922" />
<path d="M270.9,542l29.9,0l0,-0.7l-29.9,0l0,0.7Z" class="g2_922" />
<path d="M270.9,541.7l0.7,0l0,-28.1l-0.7,0l0,28.1Z" class="g2_922" />
<path d="M300.8,541.7l29.7,0l0,-27.7l-29.7,0l0,27.7Z" class="g1_922" />
<path d="M300.8,514.3l30,0l0,-0.7l-30,0l0,0.7Z" class="g2_922" />
<path d="M330.1,542l0.7,0l0,-28l-0.7,0l0,28Z" class="g2_922" />
<path d="M300.5,542l30,0l0,-0.7l-30,0l0,0.7Z" class="g2_922" />
<path d="M300.5,541.7l0.7,0l0,-28.1l-0.7,0l0,28.1Z" class="g2_922" />
<path d="M684.6,541.8l29.6,0l0,-27.7l-29.6,0l0,27.7Z" class="g1_922" />
<path d="M684.6,514.4l29.9,0l0,-0.7l-29.9,0l0,0.7Z" class="g2_922" />
<path d="M713.8,542.1l0.7,0l0,-28l-0.7,0l0,28Z" class="g2_922" />
<path d="M684.2,542.1l30,0l0,-0.7l-30,0l0,0.7Z" class="g2_922" />
<path d="M684.2,541.8l0.7,0l0,-28.1l-0.7,0l0,28.1Z" class="g2_922" />
<path d="M595.9,541.8l29.6,0l0,-27.6l-29.6,0l0,27.6Z" class="g1_922" />
<path d="M595.9,514.5l30,0l0,-0.7l-30,0l0,0.7Z" class="g2_922" />
<path d="M625.2,542.2l0.7,0l0,-28l-0.7,0l0,28Z" class="g2_922" />
<path d="M595.6,542.2l29.9,0l0,-0.7l-29.9,0l0,0.7Z" class="g2_922" />
<path d="M595.6,541.8l0.7,0l0,-28l-0.7,0l0,28Z" class="g2_922" />
<path d="M625.5,541.7l29.6,0l0,-27.7l-29.6,0l0,27.7Z" class="g1_922" />
<path d="M625.5,514.3l30,0l0,-0.7l-30,0l0,0.7Z" class="g2_922" />
<path d="M654.8,542l0.7,0l0,-28l-0.7,0l0,28Z" class="g2_922" />
<path d="M625.2,542l29.9,0l0,-0.7l-29.9,0l0,0.7Z" class="g2_922" />
<path d="M625.2,541.7l0.7,0l0,-28.1l-0.7,0l0,28.1Z" class="g2_922" />
<path d="M655.1,540.9l29.7,0l0,-27.7l-29.7,0l0,27.7Z" class="g1_922" />
<path d="M655.1,513.6l30,0l0,-0.7l-30,0l0,0.7Z" class="g2_922" />
<path d="M684.4,541.3l0.7,0l0,-28.1l-0.7,0l0,28.1Z" class="g2_922" />
<path d="M654.8,541.3l29.9,0l0,-0.7l-29.9,0l0,0.7Z" class="g2_922" />
<path d="M654.8,540.9l0.7,0l0,-28l-0.7,0l0,28Z" class="g2_922" />
<path d="M570,614.3l29.6,0l0,-28.2l-29.6,0l0,28.2Z" class="g1_922" />
<path d="M570,586.5l30,0l0,-0.8l-30,0l0,0.8Z" class="g2_922" />
<path d="M599.2,614.7l0.8,0l0,-28.6l-0.8,0l0,28.6Z" class="g2_922" />
<path d="M569.6,614.7l30,0l0,-0.7l-30,0l0,0.7Z" class="g2_922" />
<path d="M569.6,614.3l0.8,0l0,-28.6l-0.8,0l0,28.6Z" class="g2_922" />
<path d="M481.3,614.3l29.6,0l0,-27.7l-29.6,0l0,27.7Z" class="g1_922" />
<path d="M481.3,586.9l29.9,0l0,-0.7l-29.9,0l0,0.7Z" class="g2_922" />
<path d="M510.5,614.6l0.7,0l0,-28l-0.7,0l0,28Z" class="g2_922" />
<path d="M480.9,614.6l30,0l0,-0.7l-30,0l0,0.7Z" class="g2_922" />
<path d="M480.9,614.3l0.7,0l0,-28.1l-0.7,0l0,28.1Z" class="g2_922" />
<path d="M510.9,614.3l29.6,0l0,-27.7l-29.6,0l0,27.7Z" class="g1_922" />
<path d="M510.9,586.9l29.9,0l0,-0.7l-29.9,0l0,0.7Z" class="g2_922" />
<path d="M540.1,614.6l0.7,0l0,-28l-0.7,0l0,28Z" class="g2_922" />
<path d="M510.5,614.6l30,0l0,-0.7l-30,0l0,0.7Z" class="g2_922" />
<path d="M510.5,614.3l0.7,0l0,-28.1l-0.7,0l0,28.1Z" class="g2_922" />
<path d="M540.5,614.3l29.6,0l0,-27.7l-29.6,0l0,27.7Z" class="g1_922" />
<path d="M540.5,586.9l29.9,0l0,-0.7l-29.9,0l0,0.7Z" class="g2_922" />
<path d="M569.7,614.6l0.7,0l0,-28l-0.7,0l0,28Z" class="g2_922" />
<path d="M540.1,614.6l30,0l0,-0.7l-30,0l0,0.7Z" class="g2_922" />
<path d="M540.1,614.3l0.7,0l0,-28.1l-0.7,0l0,28.1Z" class="g2_922" />
<path d="M363.5,614.2l29.6,0l0,-27.7l-29.6,0l0,27.7Z" class="g1_922" />
<path d="M363.5,586.8l29.9,0l0,-0.7l-29.9,0l0,0.7Z" class="g2_922" />
<path d="M392.7,614.5l0.7,0l0,-28l-0.7,0l0,28Z" class="g2_922" />
<path d="M363.1,614.5l30,0l0,-0.7l-30,0l0,0.7Z" class="g2_922" />
<path d="M363.1,614.2l0.7,0l0,-28.1l-0.7,0l0,28.1Z" class="g2_922" />
<path d="M333.7,614.3l29.6,0l0,-27.7l-29.6,0l0,27.7Z" class="g1_922" />
<path d="M333.7,586.9l29.9,0l0,-0.7l-29.9,0l0,0.7Z" class="g2_922" />
<path d="M362.9,614.6l0.7,0l0,-28l-0.7,0l0,28Z" class="g2_922" />
<path d="M333.3,614.6l30,0l0,-0.7l-30,0l0,0.7Z" class="g2_922" />
<path d="M333.3,614.3l0.7,0l0,-28.1l-0.7,0l0,28.1Z" class="g2_922" />
<path d="M245,614.2l29.6,0l0,-27.7l-29.6,0l0,27.7Z" class="g1_922" />
<path d="M245,586.8l30,0l0,-0.7l-30,0l0,0.7Z" class="g2_922" />
<path d="M274.3,614.5l0.7,0l0,-28l-0.7,0l0,28Z" class="g2_922" />
<path d="M244.7,614.5l29.9,0l0,-0.7l-29.9,0l0,0.7Z" class="g2_922" />
<path d="M244.7,614.2l0.7,0l0,-28.1l-0.7,0l0,28.1Z" class="g2_922" />
<path d="M274.6,614.2l29.6,0l0,-27.7l-29.6,0l0,27.7Z" class="g1_922" />
<path d="M274.6,586.8l30,0l0,-0.7l-30,0l0,0.7Z" class="g2_922" />
<path d="M303.9,614.5l0.7,0l0,-28l-0.7,0l0,28Z" class="g2_922" />
<path d="M274.3,614.5l29.9,0l0,-0.7l-29.9,0l0,0.7Z" class="g2_922" />
<path d="M274.3,614.2l0.7,0l0,-28.1l-0.7,0l0,28.1Z" class="g2_922" />
<path d="M304.2,614.2l29.7,0l0,-27.7l-29.7,0l0,27.7Z" class="g1_922" />
<path d="M304.2,586.8l30,0l0,-0.7l-30,0l0,0.7Z" class="g2_922" />
<path d="M333.5,614.5l0.7,0l0,-28l-0.7,0l0,28Z" class="g2_922" />
<path d="M303.9,614.5l29.9,0l0,-0.7l-29.9,0l0,0.7Z" class="g2_922" />
<path d="M303.9,614.2l0.7,0l0,-28.1l-0.7,0l0,28.1Z" class="g2_922" />
<path d="M688,614.3l29.6,0l0,-28.3L688,586l0,28.3Z" class="g1_922" />
<path d="M688,586.4l29.9,0l0,-0.7l-29.9,0l0,0.7Z" class="g2_922" />
<path d="M717.2,614.6l0.7,0l0,-28.6l-0.7,0l0,28.6Z" class="g2_922" />
<path d="M687.6,614.6l30,0l0,-0.7l-30,0l0,0.7Z" class="g2_922" />
<path d="M687.6,614.3l0.7,0l0,-28.6l-0.7,0l0,28.6Z" class="g2_922" />
<path d="M599.3,614.2l29.6,0l0,-27.7l-29.6,0l0,27.7Z" class="g1_922" />
<path d="M599.3,586.8l30,0l0,-0.7l-30,0l0,0.7Z" class="g2_922" />
<path d="M628.6,614.5l0.7,0l0,-28l-0.7,0l0,28Z" class="g2_922" />
<path d="M599,614.5l29.9,0l0,-0.7l-29.9,0l0,0.7Z" class="g2_922" />
<path d="M599,614.2l0.7,0l0,-28.1l-0.7,0l0,28.1Z" class="g2_922" />
<path d="M628.9,614.2l29.6,0l0,-27.7l-29.6,0l0,27.7Z" class="g1_922" />
<path d="M628.9,586.8l30,0l0,-0.7l-30,0l0,0.7Z" class="g2_922" />
<path d="M658.2,614.5l0.7,0l0,-28l-0.7,0l0,28Z" class="g2_922" />
<path d="M628.6,614.5l29.9,0l0,-0.7l-29.9,0l0,0.7Z" class="g2_922" />
<path d="M628.6,614.2l0.7,0l0,-28.1l-0.7,0l0,28.1Z" class="g2_922" />
<path d="M658.5,614.2l29.6,0l0,-27.7l-29.6,0l0,27.7Z" class="g1_922" />
<path d="M658.5,586.8l30,0l0,-0.7l-30,0l0,0.7Z" class="g2_922" />
<path d="M687.8,614.5l0.7,0l0,-28l-0.7,0l0,28Z" class="g2_922" />
<path d="M658.2,614.5l29.9,0l0,-0.7l-29.9,0l0,0.7Z" class="g2_922" />
<path d="M658.2,614.2l0.7,0l0,-28.1l-0.7,0l0,28.1Z" class="g2_922" />
<path d="M570,676.4l29.6,0l0,-27.7l-29.6,0l0,27.7Z" class="g1_922" />
<path d="M570,649.1l30,0l0,-0.7l-30,0l0,0.7Z" class="g2_922" />
<path d="M599.2,676.8l0.8,0l0,-28.1l-0.8,0l0,28.1Z" class="g2_922" />
<path d="M569.6,676.8l30,0l0,-0.8l-30,0l0,0.8Z" class="g2_922" />
<path d="M569.6,676.4l0.8,0l0,-28l-0.8,0l0,28Z" class="g2_922" />
<path d="M481.3,676.3l29.6,0l0,-27.7l-29.6,0l0,27.7Z" class="g1_922" />
<path d="M481.3,649l29.9,0l0,-0.7l-29.9,0l0,0.7Z" class="g2_922" />
<path d="M510.5,676.7l0.7,0l0,-28.1l-0.7,0l0,28.1Z" class="g2_922" />
<path d="M480.9,676.7l30,0l0,-0.7l-30,0l0,0.7Z" class="g2_922" />
<path d="M480.9,676.3l0.7,0l0,-28l-0.7,0l0,28Z" class="g2_922" />
<path d="M510.9,676.3l29.6,0l0,-27.7l-29.6,0l0,27.7Z" class="g1_922" />
<path d="M510.9,649l29.9,0l0,-0.7l-29.9,0l0,0.7Z" class="g2_922" />
<path d="M540.1,676.7l0.7,0l0,-28.1l-0.7,0l0,28.1Z" class="g2_922" />
<path d="M510.5,676.7l30,0l0,-0.7l-30,0l0,0.7Z" class="g2_922" />
<path d="M510.5,676.3l0.7,0l0,-28l-0.7,0l0,28Z" class="g2_922" />
<path d="M540.5,676.3l29.6,0l0,-27.7l-29.6,0l0,27.7Z" class="g1_922" />
<path d="M540.5,649l29.9,0l0,-0.7l-29.9,0l0,0.7Z" class="g2_922" />
<path d="M569.7,676.7l0.7,0l0,-28.1l-0.7,0l0,28.1Z" class="g2_922" />
<path d="M540.1,676.7l30,0l0,-0.7l-30,0l0,0.7Z" class="g2_922" />
<path d="M540.1,676.3l0.7,0l0,-28l-0.7,0l0,28Z" class="g2_922" />
<path d="M363.5,676.2l29.6,0l0,-27.7l-29.6,0l0,27.7Z" class="g1_922" />
<path d="M363.5,648.9l29.9,0l0,-0.7l-29.9,0l0,0.7Z" class="g2_922" />
<path d="M392.7,676.6l0.7,0l0,-28.1l-0.7,0l0,28.1Z" class="g2_922" />
<path d="M363.1,676.6l30,0l0,-0.7l-30,0l0,0.7Z" class="g2_922" />
<path d="M363.1,676.2l0.7,0l0,-28l-0.7,0l0,28Z" class="g2_922" />
<path d="M333.7,676.3l29.6,0l0,-27.7l-29.6,0l0,27.7Z" class="g1_922" />
<path d="M333.7,649l29.9,0l0,-0.7l-29.9,0l0,0.7Z" class="g2_922" />
<path d="M362.9,676.7l0.7,0l0,-28.1l-0.7,0l0,28.1Z" class="g2_922" />
<path d="M333.3,676.7l30,0l0,-0.7l-30,0l0,0.7Z" class="g2_922" />
<path d="M333.3,676.3l0.7,0l0,-28l-0.7,0l0,28Z" class="g2_922" />
<path d="M245,676.2l29.6,0l0,-27.7l-29.6,0l0,27.7Z" class="g1_922" />
<path d="M245,648.9l30,0l0,-0.7l-30,0l0,0.7Z" class="g2_922" />
<path d="M274.3,676.6l0.7,0l0,-28.1l-0.7,0l0,28.1Z" class="g2_922" />
<path d="M244.7,676.6l29.9,0l0,-0.7l-29.9,0l0,0.7Z" class="g2_922" />
<path d="M244.7,676.2l0.7,0l0,-28l-0.7,0l0,28Z" class="g2_922" />
<path d="M274.6,676.2l29.6,0l0,-27.7l-29.6,0l0,27.7Z" class="g1_922" />
<path d="M274.6,648.9l30,0l0,-0.7l-30,0l0,0.7Z" class="g2_922" />
<path d="M303.9,676.6l0.7,0l0,-28.1l-0.7,0l0,28.1Z" class="g2_922" />
<path d="M274.3,676.6l29.9,0l0,-0.7l-29.9,0l0,0.7Z" class="g2_922" />
<path d="M274.3,676.2l0.7,0l0,-28l-0.7,0l0,28Z" class="g2_922" />
<path d="M304.2,676.2l29.7,0l0,-27.7l-29.7,0l0,27.7Z" class="g1_922" />
<path d="M304.2,648.9l30,0l0,-0.7l-30,0l0,0.7Z" class="g2_922" />
<path d="M333.5,676.6l0.7,0l0,-28.1l-0.7,0l0,28.1Z" class="g2_922" />
<path d="M303.9,676.6l29.9,0l0,-0.7l-29.9,0l0,0.7Z" class="g2_922" />
<path d="M303.9,676.2l0.7,0l0,-28l-0.7,0l0,28Z" class="g2_922" />
<path d="M688,676.3l29.6,0l0,-27.7l-29.6,0l0,27.7Z" class="g1_922" />
<path d="M688,649l29.9,0l0,-0.7l-29.9,0l0,0.7Z" class="g2_922" />
<path d="M717.2,676.7l0.7,0l0,-28.1l-0.7,0l0,28.1Z" class="g2_922" />
<path d="M687.6,676.7l30,0l0,-0.7l-30,0l0,0.7Z" class="g2_922" />
<path d="M687.6,676.3l0.7,0l0,-28l-0.7,0l0,28Z" class="g2_922" />
<path d="M599.3,676.2l29.6,0l0,-27.7l-29.6,0l0,27.7Z" class="g1_922" />
<path d="M599.3,648.9l30,0l0,-0.7l-30,0l0,0.7Z" class="g2_922" />
<path d="M628.6,676.6l0.7,0l0,-28.1l-0.7,0l0,28.1Z" class="g2_922" />
<path d="M599,676.6l29.9,0l0,-0.7l-29.9,0l0,0.7Z" class="g2_922" />
<path d="M599,676.2l0.7,0l0,-28l-0.7,0l0,28Z" class="g2_922" />
<path d="M628.9,676.2l29.6,0l0,-27.7l-29.6,0l0,27.7Z" class="g1_922" />
<path d="M628.9,648.9l30,0l0,-0.7l-30,0l0,0.7Z" class="g2_922" />
<path d="M658.2,676.6l0.7,0l0,-28.1l-0.7,0l0,28.1Z" class="g2_922" />
<path d="M628.6,676.6l29.9,0l0,-0.7l-29.9,0l0,0.7Z" class="g2_922" />
<path d="M628.6,676.2l0.7,0l0,-28l-0.7,0l0,28Z" class="g2_922" />
<path d="M658.5,676.2l29.6,0l0,-27.7l-29.6,0l0,27.7Z" class="g1_922" />
<path d="M658.5,648.9l30,0l0,-0.7l-30,0l0,0.7Z" class="g2_922" />
<path d="M687.8,676.6l0.7,0l0,-28.1l-0.7,0l0,28.1Z" class="g2_922" />
<path d="M658.2,676.6l29.9,0l0,-0.7l-29.9,0l0,0.7Z" class="g2_922" />
<path d="M658.2,676.2l0.7,0l0,-28l-0.7,0l0,28Z" class="g2_922" />
<path d="M510.1,638.4l2.4,3.2l0.6,0.9l-1,0.3l-13.7,5l-2.5,0.9l1.7,-2.1l9.6,-12.4l0.5,0.9l0,0.9l-8.9,11.5l-1.2,-0.9l0.3,-0.3l13.8,-5l0.4,1.5l-0.8,-0.3l-2.4,-3.2Z" class="g2_922" />
<path d="M507.7,635.1l2.4,3.3l-1.2,0.9L506.6,636Z" class="g2_922" />
<path fill-rule="evenodd" d="M509.6,638.8L512,642l-13.8,5.1l9,-11.6Z" class="g2_922" />
<path d="M641.4,542.9l0.3,-0.2l-0.5,-0.6l-0.3,0.2Z" class="g2_922" />
<path d="M510.4,638.6l-0.3,0.2l-0.4,-0.5l0.2,-0.2Z" class="g2_922" />
<path d="M641.4,542.9l-0.5,-0.6l-131,95.8l0.5,0.5Z" class="g2_922" />
<path d="M364.5,644.6l1.5,3.8l0.5,0.9l-1.1,0.2l-14.6,1.7l-2.6,0.3l2.1,-1.7l11.4,-9.1l0.8,-0.7l0.4,0.9l-0.2,1L351.3,651l-1,-1.2l0.4,-0.2l14.6,-1.7l0.1,1.6l-0.8,-0.6l-1.5,-3.7Z" class="g2_922" />
<path d="M362.9,640.9l1.6,3.7l-1.4,0.6l-1.6,-3.7Z" class="g2_922" />
<path fill-rule="evenodd" d="M363.8,644.9l1.6,3.7l-14.6,1.8l11.5,-9.2Z" class="g2_922" />
<path d="M610.7,541.9l0.3,-0.1l-0.3,-0.6l-0.3,0.1Z" class="g2_922" />
<path d="M364.6,645l-0.2,0.1l-0.3,-0.7l0.3,-0.1Z" class="g2_922" />
<path d="M610.7,541.9l-0.3,-0.6l-246,103l0.3,0.7Z" class="g2_922" />
<path d="M570.3,637.5l2.8,3l0.6,0.7l-0.9,0.5l-13.1,6.7l-2.4,1.1l1.4,-2.2l7.5,-12.6l0.6,-0.8l0.7,0.7l0.1,0.8L560.1,648l-1.4,-0.7l0.4,-0.3l13.1,-6.7l0.6,1.4l-0.9,-0.2l-2.8,-3Z" class="g2_922" />
<path d="M567.5,634.6l2.8,2.9l-1.2,1l-2.8,-2.9Z" class="g2_922" />
<path fill-rule="evenodd" d="M569.7,638l2.8,2.9l-13.1,6.7L567,635.1Z" class="g2_922" />
<path d="M671,543.8l0.3,-0.2L670.8,543l-0.3,0.2Z" class="g2_922" />
<path d="M570.6,637.7l-0.2,0.2l-0.5,-0.5l0.3,-0.2Z" class="g2_922" />
<path d="M671,543.8l-0.5,-0.6l-100.3,94l0.4,0.5Z" class="g2_922" />
<path d="M652.4,633l3.6,1.9l0.8,0.5l-0.7,0.7L646,646.6l-1.9,1.9l0.6,-2.5l3,-14.3l0.2,-1l0.9,0.4l0.4,0.8l-3,14.4L644.7,646l0.2,-0.5L655,635l1.1,1.1l-0.9,0.2l-3.5,-1.9Z" class="g2_922" />
<path d="M648.8,631.1l3.6,2l-0.7,1.3l-3.6,-1.9Z" class="g2_922" />
<path fill-rule="evenodd" d="M652,633.7l3.6,1.8l-10.2,10.6l3.1,-14.3Z" class="g2_922" />
<path d="M700.7,542.8l0.2,-0.3l-0.7,-0.4l-0.1,0.3Z" class="g2_922" />
<path d="M652.8,633.1l-0.2,0.3l-0.7,-0.3l0.2,-0.3Z" class="g2_922" />
<path d="M700.7,542.8l-0.6,-0.4l-48,90.4l0.7,0.3Z" class="g2_922" />
<path d="M642.7,648.9l0.7,0l0,-36l-0.7,0l0,36Z" class="g2_922" />
<path d="M558.2,649.7l0.8,0l0,-36l-0.8,0l0,36Z" class="g2_922" />
<path d="M495.3,649.7l0.7,0l0,-36l-0.7,0l0,36Z" class="g2_922" />
<path d="M343.4,649.7l0.7,0l0,-36l-0.7,0l0,36Z" class="g2_922" />
<path d="M398.8,530l6.8,0l0,-1.5l-6.8,0l0,1.5Z" class="g2_922" />
<path d="M415.2,530l12.4,0l0,-1.5l-12.4,0l0,1.5Z" class="g2_922" />
<path d="M437.3,530l12.4,0l0,-1.5l-12.4,0l0,1.5Z" class="g2_922" />
<path d="M459.3,530l6.8,0l0,-1.5l-6.8,0l0,1.5Z" class="g2_922" />
<path d="M403.7,600.1l6.8,0l0,-1.5l-6.8,0l0,1.5Z" class="g2_922" />
<path d="M420.1,600.1l12.5,0l0,-1.5l-12.5,0l0,1.5Z" class="g2_922" />
<path d="M442.1,600.1l12.6,0l0,-1.5l-12.6,0l0,1.5Z" class="g2_922" />
<path d="M464.2,600.1l6.9,0l0,-1.5l-6.9,0l0,1.5Z" class="g2_922" />
<path d="M406.5,664l6.8,0l0,-1.5l-6.8,0l0,1.5Z" class="g2_922" />
<path d="M422.9,664l12.5,0l0,-1.5l-12.5,0l0,1.5Z" class="g2_922" />
<path d="M445,664l12.5,0l0,-1.5l-12.5,0l0,1.5Z" class="g2_922" />
<path d="M467.1,664l6.8,0l0,-1.5l-6.8,0l0,1.5Z" class="g2_922" />
<path d="M298.6,690.5l0,5.1l-1,-0.3l-14,-4L281,690.5l2.6,-0.7l14,-4l1,-0.3l0,1l-0.5,0.7l-14,4.1l-0.5,-1.5l0.5,0l14,4l-0.5,1.5l-0.5,-0.7l0,-4.1Z" class="g2_922" />
<path d="M297.1,690.5l1.6,0l0,-4l-1.6,0l0,4Z" class="g2_922" />
<path fill-rule="evenodd" d="M297.9,690.5l0,4.1l-14,-4.1l14,-4Z" class="g2_922" />
<path d="M675.1,690.9l6.4,0l0,-0.7l-6.4,0l0,0.7Z" class="g2_922" />
<path d="M653.9,690.9l12.1,0l0,-0.7l-12.1,0l0,0.7Z" class="g2_922" />
<path d="M632.6,690.9l12.1,0l0,-0.7l-12.1,0l0,0.7Z" class="g2_922" />
<path d="M611.3,690.9l12.2,0l0,-0.7l-12.2,0l0,0.7Z" class="g2_922" />
<path d="M590.2,690.9l12.1,0l0,-0.7l-12.1,0l0,0.7Z" class="g2_922" />
<path d="M568.9,690.9l12.1,0l0,-0.7l-12.1,0l0,0.7Z" class="g2_922" />
<path d="M547.6,690.9l12.1,0l0,-0.7l-12.1,0l0,0.7Z" class="g2_922" />
<path d="M538.2,690.9l0.3,0l0,-0.7l-0.3,0l0,0.7Z" class="g2_922" />
<path d="M526.3,690.9l11.9,0l0,-0.7l-11.9,0l0,0.7Z" class="g2_922" />
<path d="M516.9,690.9l0.4,0l0,-0.7l-0.4,0l0,0.7Z" class="g2_922" />
<path d="M505.2,690.9l11.7,0l0,-0.7l-11.7,0l0,0.7Z" class="g2_922" />
<path d="M495.6,690.9l0.4,0l0,-0.7l-0.4,0l0,0.7Z" class="g2_922" />
<path d="M483.9,690.9l11.7,0l0,-0.7l-11.7,0l0,0.7Z" class="g2_922" />
<path d="M474.4,690.9l0.3,0l0,-0.7l-0.3,0l0,0.7Z" class="g2_922" />
<path d="M462.6,690.9l11.8,0l0,-0.7l-11.8,0l0,0.7Z" class="g2_922" />
<path d="M453.2,690.9l0.4,0l0,-0.7l-0.4,0l0,0.7Z" class="g2_922" />
<path d="M441.4,690.9l11.8,0l0,-0.7l-11.8,0l0,0.7Z" class="g2_922" />
<path d="M431.9,690.9l0.4,0l0,-0.7l-0.4,0l0,0.7Z" class="g2_922" />
<path d="M420.2,690.9l11.7,0l0,-0.7l-11.7,0l0,0.7Z" class="g2_922" />
<path d="M410.7,690.9l0.3,0l0,-0.7l-0.3,0l0,0.7Z" class="g2_922" />
<path d="M398.9,690.9l11.8,0l0,-0.7l-11.8,0l0,0.7Z" class="g2_922" />
<path d="M389.4,690.9l0.4,0l0,-0.7l-0.4,0l0,0.7Z" class="g2_922" />
<path d="M377.7,690.9l11.7,0l0,-0.7l-11.7,0l0,0.7Z" class="g2_922" />
<path d="M368.2,690.9l0.4,0l0,-0.7l-0.4,0l0,0.7Z" class="g2_922" />
<path d="M356.4,690.9l11.8,0l0,-0.7l-11.8,0l0,0.7Z" class="g2_922" />
<path d="M347,690.9l0.3,0l0,-0.7l-0.3,0l0,0.7Z" class="g2_922" />
<path d="M335.2,690.9l11.8,0l0,-0.7l-11.8,0l0,0.7Z" class="g2_922" />
<path d="M325.7,690.9l0.4,0l0,-0.7l-0.4,0l0,0.7Z" class="g2_922" />
<path d="M314,690.9l11.7,0l0,-0.7l-11.7,0l0,0.7Z" class="g2_922" />
<path d="M304.4,690.9l0.4,0l0,-0.7l-0.4,0l0,0.7Z" class="g2_922" />
<path d="M298.4,690.9l6,0l0,-0.7l-6,0l0,0.7Z" class="g2_922" />
</svg>