<?xml version="1.0" encoding="UTF-8" standalone="no"?>
<!DOCTYPE svg PUBLIC "-//W3C//DTD SVG 1.1//EN"
"http://www.w3.org/Graphics/SVG/1.1/DTD/svg11.dtd">
<svg viewBox="0 0 935 1210" version="1.1" xmlns="http://www.w3.org/2000/svg" xmlns:xlink="http://www.w3.org/1999/xlink">
<defs>
<style type="text/css"><![CDATA[
.g1_46{
fill: #FFFFFF;
}
.g2_46{
}
]]></style>
</defs>
<path d="M68.8,1149.3l783.7,0l0,-21.2l-783.7,0l0,21.2Z" class="g1_46" />
<path d="M71,538.9l0.8,0l0,-161.1l-0.8,0l0,161.1Z" class="g2_46" />
<path d="M164.7,539.7l0.8,0l0,-123l-0.8,0l0,123Z" class="g2_46" />
<path d="M308.4,539.7l0.7,0l0,-162.7l-0.7,0l0,162.7Z" class="g2_46" />
<path d="M439.3,539.7l0.7,0L440,377l-0.7,0l0,162.7Z" class="g2_46" />
<path d="M544.6,539.7l0.7,0l0,-162.7l-0.7,0l0,162.7Z" class="g2_46" />
<path d="M849.4,538.9l0.7,0l0,-161.1l-0.7,0l0,161.1Z" class="g2_46" />
<path d="M70.9,377.8l779.2,0l0,-0.8L70.9,377l0,0.8Z" class="g2_46" />
<path d="M70.9,417.4l779.2,0l0,-0.7l-779.2,0l0,0.7Z" class="g2_46" />
<path d="M164.7,441.9l144.4,0l0,-0.7l-144.4,0l0,0.7Z" class="g2_46" />
<path d="M70.9,466.4l779.2,0l0,-0.7l-779.2,0l0,0.7Z" class="g2_46" />
<path d="M164.7,490.8l144.4,0l0,-0.8l-144.4,0l0,0.8Z" class="g2_46" />
<path d="M164.7,515.3l144.4,0l0,-0.8l-144.4,0l0,0.8Z" class="g2_46" />
<path d="M70.9,539.7l779.2,0l0,-0.7L70.9,539l0,0.7Z" class="g2_46" />
</svg>