<?xml version="1.0" encoding="UTF-8" standalone="no"?>
<!DOCTYPE svg PUBLIC "-//W3C//DTD SVG 1.1//EN"
"http://www.w3.org/Graphics/SVG/1.1/DTD/svg11.dtd">
<svg viewBox="0 0 935 1210" version="1.1" xmlns="http://www.w3.org/2000/svg" xmlns:xlink="http://www.w3.org/1999/xlink">
<defs>
<style type="text/css"><![CDATA[
.g1_68{
fill: #FFFFFF;
}
.g2_68{
}
]]></style>
</defs>
<path d="M68.8,1149.3l783.7,0l0,-21.2l-783.7,0l0,21.2Z" class="g1_68" />
<path d="M69.7,781.9l0.7,0l0,-618l-0.7,0l0,618Z" class="g2_68" />
<path d="M209.4,782.7l0.7,0l0,-619.6l-0.7,0l0,619.6Z" class="g2_68" />
<path d="M246,782.7l0.8,0l0,-619.6l-0.8,0l0,619.6Z" class="g2_68" />
<path d="M288,782.7l0.7,0l0,-619.6l-0.7,0l0,619.6Z" class="g2_68" />
<path d="M327.3,782.7l0.8,0l0,-619.6l-0.8,0l0,619.6Z" class="g2_68" />
<path d="M362.9,782.7l0.7,0l0,-619.6l-0.7,0l0,619.6Z" class="g2_68" />
<path d="M850.8,781.9l0.7,0l0,-618l-0.7,0l0,618Z" class="g2_68" />
<path d="M69.7,163.8l781.8,0l0,-0.7l-781.8,0l0,0.7Z" class="g2_68" />
<path d="M69.7,267.8l781.8,0l0,-0.8L69.7,267l0,0.8Z" class="g2_68" />
<path d="M209.4,292.1l642.1,0l0,-0.7l-642.1,0l0,0.7Z" class="g2_68" />
<path d="M209.4,353.3l642.1,0l0,-0.7l-642.1,0l0,0.7Z" class="g2_68" />
<path d="M209.4,377.8l642.1,0l0,-0.8l-642.1,0l0,0.8Z" class="g2_68" />
<path d="M209.4,402.2l642.1,0l0,-0.7l-642.1,0l0,0.7Z" class="g2_68" />
<path d="M209.4,426.6l642.1,0l0,-0.7l-642.1,0l0,0.7Z" class="g2_68" />
<path d="M209.4,451.1l642.1,0l0,-0.7l-642.1,0l0,0.7Z" class="g2_68" />
<path d="M209.4,478.6l642.1,0l0,-0.7l-642.1,0l0,0.7Z" class="g2_68" />
<path d="M209.4,503.1l642.1,0l0,-0.8l-642.1,0l0,0.8Z" class="g2_68" />
<path d="M69.7,544.3l781.8,0l0,-0.7l-781.8,0l0,0.7Z" class="g2_68" />
<path d="M69.7,585.6l781.8,0l0,-0.8l-781.8,0l0,0.8Z" class="g2_68" />
<path d="M209.4,609.9l642.1,0l0,-0.7l-642.1,0l0,0.7Z" class="g2_68" />
<path d="M69.7,634.4l781.8,0l0,-0.7l-781.8,0l0,0.7Z" class="g2_68" />
<path d="M209.4,675.7l642.1,0l0,-0.8l-642.1,0l0,0.8Z" class="g2_68" />
<path d="M209.4,700.2l642.1,0l0,-0.8l-642.1,0l0,0.8Z" class="g2_68" />
<path d="M69.7,741.4l781.8,0l0,-0.7l-781.8,0l0,0.7Z" class="g2_68" />
<path d="M69.7,782.7l781.8,0l0,-0.8l-781.8,0l0,0.8Z" class="g2_68" />
</svg>