<?xml version="1.0" encoding="UTF-8" standalone="no"?>
<!DOCTYPE svg PUBLIC "-//W3C//DTD SVG 1.1//EN"
"http://www.w3.org/Graphics/SVG/1.1/DTD/svg11.dtd">
<svg viewBox="0 0 935 1210" version="1.1" xmlns="http://www.w3.org/2000/svg" xmlns:xlink="http://www.w3.org/1999/xlink">
<defs>
<style type="text/css"><![CDATA[
.g1_1636{
fill: #FFFFFF;
}
.g2_1636{
}
]]></style>
</defs>
<path d="M165,1149.3l687.5,0l0,-21.2l-687.5,0l0,21.2Z" class="g1_1636" />
<path d="M68.8,1149.3l82.5,0l0,-21.2l-82.5,0l0,21.2Z" class="g1_1636" />
<path d="M68.6,480.9l0.7,0L69.3,147l-0.7,0l0,333.9Z" class="g2_1636" />
<path d="M327.8,481.6l0.7,0l0,-335.3l-0.7,0l0,335.3Z" class="g2_1636" />
<path d="M373.6,481.6l0.8,0l0,-335.3l-0.8,0l0,335.3Z" class="g2_1636" />
<path d="M432.1,481.6l0.8,0l0,-335.3l-0.8,0l0,335.3Z" class="g2_1636" />
<path d="M499.7,481.6l0.7,0l0,-335.3l-0.7,0l0,335.3Z" class="g2_1636" />
<path d="M853.3,480.9l0.8,0l0,-333.9l-0.8,0l0,333.9Z" class="g2_1636" />
<path d="M68.6,147l785.5,0l0,-0.7l-785.5,0l0,0.7Z" class="g2_1636" />
<path d="M68.6,200.5l785.5,0l0,-0.8l-785.5,0l0,0.8Z" class="g2_1636" />
<path d="M68.6,270.8l785.5,0l0,-0.7l-785.5,0l0,0.7Z" class="g2_1636" />
<path d="M68.6,341.1l785.5,0l0,-0.7l-785.5,0l0,0.7Z" class="g2_1636" />
<path d="M68.6,411.4l785.5,0l0,-0.7l-785.5,0l0,0.7Z" class="g2_1636" />
<path d="M68.6,481.6l785.5,0l0,-0.7l-785.5,0l0,0.7Z" class="g2_1636" />
<path d="M70.2,601.6l0.8,0l0,-65l-0.8,0l0,65Z" class="g2_1636" />
<path d="M146.2,602.3l0.7,0l0,-66.4l-0.7,0l0,66.4Z" class="g2_1636" />
<path d="M315.8,602.3l0.7,0l0,-66.4l-0.7,0l0,66.4Z" class="g2_1636" />
<path d="M497.6,602.3l0.7,0l0,-66.4l-0.7,0l0,66.4Z" class="g2_1636" />
<path d="M674.2,602.3l0.7,0l0,-66.4l-0.7,0l0,66.4Z" class="g2_1636" />
<path d="M850.1,601.6l0.7,0l0,-65l-0.7,0l0,65Z" class="g2_1636" />
<path d="M70.2,536.6l780.7,0l0,-0.7l-780.7,0l0,0.7Z" class="g2_1636" />
<path d="M70.2,561.1l780.7,0l0,-0.7l-780.7,0l0,0.7Z" class="g2_1636" />
<path d="M70.2,602.3l780.7,0l0,-0.7l-780.7,0l0,0.7Z" class="g2_1636" />
</svg>