<?xml version="1.0" encoding="UTF-8" standalone="no"?>
<!DOCTYPE svg PUBLIC "-//W3C//DTD SVG 1.1//EN"
"http://www.w3.org/Graphics/SVG/1.1/DTD/svg11.dtd">
<svg viewBox="0 0 935 1210" version="1.1" xmlns="http://www.w3.org/2000/svg" xmlns:xlink="http://www.w3.org/1999/xlink">
<defs>
<style type="text/css"><![CDATA[
.g1_585{
fill: #FFFFFF;
}
.g2_585{
}
]]></style>
</defs>
<path d="M68.9,1149.3l686.3,0l0,-21.2l-686.3,0l0,21.2Z" class="g1_585" />
<path d="M771.3,1149.3l83.7,0l0,-21.2l-83.7,0l0,21.2Z" class="g1_585" />
<path d="M69.8,1085.9l0.7,0l0,-951.1l-0.7,0l0,951.1Z" class="g2_585" />
<path d="M220.9,1086.7l0.8,0l0,-952.6l-0.8,0l0,952.6Z" class="g2_585" />
<path d="M392.5,1086.7l0.7,0l0,-952.6l-0.7,0l0,952.6Z" class="g2_585" />
<path d="M430.3,1086.7l0.7,0l0,-952.6l-0.7,0l0,952.6Z" class="g2_585" />
<path d="M503.7,1086.7l0.7,0l0,-952.6l-0.7,0l0,952.6Z" class="g2_585" />
<path d="M575.1,1086.7l0.8,0l0,-952.6l-0.8,0l0,952.6Z" class="g2_585" />
<path d="M852.2,1085.9l0.8,0l0,-951.1l-0.8,0l0,951.1Z" class="g2_585" />
<path d="M69.8,134.8l783.2,0l0,-0.7l-783.2,0l0,0.7Z" class="g2_585" />
<path d="M69.8,173L853,173l0,-0.8l-783.2,0l0,0.8Z" class="g2_585" />
<path d="M69.8,195.9l783.2,0l0,-0.7l-783.2,0l0,0.7Z" class="g2_585" />
<path d="M69.8,218.8l783.2,0l0,-0.7l-783.2,0l0,0.7Z" class="g2_585" />
<path d="M69.8,241.7l783.2,0l0,-0.7L69.8,241l0,0.7Z" class="g2_585" />
<path d="M69.8,264.6l783.2,0l0,-0.7l-783.2,0l0,0.7Z" class="g2_585" />
<path d="M69.8,287.6l783.2,0l0,-0.8l-783.2,0l0,0.8Z" class="g2_585" />
<path d="M69.8,310.5l783.2,0l0,-0.8l-783.2,0l0,0.8Z" class="g2_585" />
<path d="M69.8,333.4l783.2,0l0,-0.7l-783.2,0l0,0.7Z" class="g2_585" />
<path d="M69.8,356.3l783.2,0l0,-0.7l-783.2,0l0,0.7Z" class="g2_585" />
<path d="M69.8,379.2l783.2,0l0,-0.7l-783.2,0l0,0.7Z" class="g2_585" />
<path d="M69.8,402.2l783.2,0l0,-0.7l-783.2,0l0,0.7Z" class="g2_585" />
<path d="M69.8,425.2l783.2,0l0,-0.8l-783.2,0l0,0.8Z" class="g2_585" />
<path d="M69.8,448.1l783.2,0l0,-0.8l-783.2,0l0,0.8Z" class="g2_585" />
<path d="M69.8,471L853,471l0,-0.8l-783.2,0l0,0.8Z" class="g2_585" />
<path d="M69.8,493.9l783.2,0l0,-0.7l-783.2,0l0,0.7Z" class="g2_585" />
<path d="M69.8,516.8l783.2,0l0,-0.7l-783.2,0l0,0.7Z" class="g2_585" />
<path d="M69.8,539.7l783.2,0l0,-0.7L69.8,539l0,0.7Z" class="g2_585" />
<path d="M69.8,579.4l783.2,0l0,-0.7l-783.2,0l0,0.7Z" class="g2_585" />
<path d="M69.8,602.3l783.2,0l0,-0.7l-783.2,0l0,0.7Z" class="g2_585" />
<path d="M69.8,625.3l783.2,0l0,-0.8l-783.2,0l0,0.8Z" class="g2_585" />
<path d="M69.8,648.2l783.2,0l0,-0.8l-783.2,0l0,0.8Z" class="g2_585" />
<path d="M69.8,671.1l783.2,0l0,-0.7l-783.2,0l0,0.7Z" class="g2_585" />
<path d="M69.8,694L853,694l0,-0.7l-783.2,0l0,0.7Z" class="g2_585" />
<path d="M69.8,733.7l783.2,0l0,-0.7L69.8,733l0,0.7Z" class="g2_585" />
<path d="M69.8,756.6l783.2,0l0,-0.7l-783.2,0l0,0.7Z" class="g2_585" />
<path d="M69.8,779.5l783.2,0l0,-0.7l-783.2,0l0,0.7Z" class="g2_585" />
<path d="M69.8,823.9l783.2,0l0,-0.7l-783.2,0l0,0.7Z" class="g2_585" />
<path d="M69.8,846.8l783.2,0l0,-0.7l-783.2,0l0,0.7Z" class="g2_585" />
<path d="M69.8,869.7l783.2,0l0,-0.7L69.8,869l0,0.7Z" class="g2_585" />
<path d="M69.8,892.7l783.2,0l0,-0.8l-783.2,0l0,0.8Z" class="g2_585" />
<path d="M69.8,915.6l783.2,0l0,-0.8l-783.2,0l0,0.8Z" class="g2_585" />
<path d="M69.8,938.5l783.2,0l0,-0.7l-783.2,0l0,0.7Z" class="g2_585" />
<path d="M69.8,961.4l783.2,0l0,-0.7l-783.2,0l0,0.7Z" class="g2_585" />
<path d="M69.8,984.3l783.2,0l0,-0.7l-783.2,0l0,0.7Z" class="g2_585" />
<path d="M69.8,1024l783.2,0l0,-0.7l-783.2,0l0,0.7Z" class="g2_585" />
<path d="M69.8,1046.9l783.2,0l0,-0.7l-783.2,0l0,0.7Z" class="g2_585" />
<path d="M69.8,1086.6l783.2,0l0,-0.7l-783.2,0l0,0.7Z" class="g2_585" />
</svg>