<?xml version="1.0" encoding="UTF-8" standalone="no"?>
<!DOCTYPE svg PUBLIC "-//W3C//DTD SVG 1.1//EN"
"http://www.w3.org/Graphics/SVG/1.1/DTD/svg11.dtd">
<svg viewBox="0 0 935 1210" version="1.1" xmlns="http://www.w3.org/2000/svg" xmlns:xlink="http://www.w3.org/1999/xlink">
<defs>
<style type="text/css"><![CDATA[
.g1_72{
fill: #FFFFFF;
}
.g2_72{
}
]]></style>
</defs>
<path d="M68.8,1149.3l783.7,0l0,-21.2l-783.7,0l0,21.2Z" class="g1_72" />
<path d="M76.5,440.3l212.8,0l0,-27.8l-212.8,0l0,27.8Z" class="g1_72" />
<path d="M76.5,616.6l768,0l0,-29.7l-768,0l0,29.7Z" class="g1_72" />
<path d="M77.5,609.9l53.5,0l0,-12.4l-53.5,0l0,12.4Z" class="g1_72" />
<path d="M289.3,440.3l89.8,0l0,-27.8l-89.8,0l0,27.8Z" class="g1_72" />
<path d="M379.1,440.3l111.3,0l0,-27.8l-111.3,0l0,27.8Z" class="g1_72" />
<path d="M490.4,440.3l119.5,0l0,-27.8l-119.5,0l0,27.8Z" class="g1_72" />
<path d="M609.9,412.5l234.6,0l0,27.8l-234.6,0Z" class="g1_72" />
<path d="M76.5,464.8l114.6,0l0,-24.5l-114.6,0l0,24.5Z" class="g1_72" />
<path d="M191.1,464.8l98.2,0l0,-24.5l-98.2,0l0,24.5Z" class="g1_72" />
<path d="M289.3,464.8l89.8,0l0,-24.5l-89.8,0l0,24.5Z" class="g1_72" />
<path d="M379.1,464.8l111.3,0l0,-24.5l-111.3,0l0,24.5Z" class="g1_72" />
<path d="M490.4,464.8l119.5,0l0,-24.5l-119.5,0l0,24.5Z" class="g1_72" />
<path d="M609.9,440.3l234.6,0l0,24.4l-234.6,0Z" class="g1_72" />
<path d="M76.5,489.1l114.6,0l0,-24.3l-114.6,0l0,24.3Z" class="g1_72" />
<path d="M191.1,489.1l98.2,0l0,-24.3l-98.2,0l0,24.3Z" class="g1_72" />
<path d="M289.3,489.1l201.1,0l0,-24.3l-201.1,0l0,24.3Z" class="g1_72" />
<path d="M490.4,489.1l119.5,0l0,-24.3l-119.5,0l0,24.3Z" class="g1_72" />
<path d="M609.9,464.8l234.6,0l0,24.3l-234.6,0Z" class="g1_72" />
<path d="M76.5,513.6l114.6,0l0,-24.5l-114.6,0l0,24.5Z" class="g1_72" />
<path d="M191.1,513.6l98.2,0l0,-24.5l-98.2,0l0,24.5Z" class="g1_72" />
<path d="M289.3,513.6l89.8,0l0,-24.5l-89.8,0l0,24.5Z" class="g1_72" />
<path d="M379.1,513.6l111.3,0l0,-24.5l-111.3,0l0,24.5Z" class="g1_72" />
<path d="M490.4,513.6l119.5,0l0,-24.5l-119.5,0l0,24.5Z" class="g1_72" />
<path d="M609.9,489.1l234.6,0l0,24.5l-234.6,0Z" class="g1_72" />
<path d="M76.5,538.1l114.6,0l0,-24.5l-114.6,0l0,24.5Z" class="g1_72" />
<path d="M191.1,538.1l98.2,0l0,-24.5l-98.2,0l0,24.5Z" class="g1_72" />
<path d="M289.3,538.1l89.8,0l0,-24.5l-89.8,0l0,24.5Z" class="g1_72" />
<path d="M379.1,538.1l111.3,0l0,-24.5l-111.3,0l0,24.5Z" class="g1_72" />
<path d="M490.4,538.1l119.5,0l0,-24.5l-119.5,0l0,24.5Z" class="g1_72" />
<path d="M609.9,513.6l234.6,0l0,24.5l-234.6,0Z" class="g1_72" />
<path d="M76.5,562.5l114.6,0l0,-24.4l-114.6,0l0,24.4Z" class="g1_72" />
<path d="M191.1,562.5l98.2,0l0,-24.4l-98.2,0l0,24.4Z" class="g1_72" />
<path d="M289.3,562.5l89.8,0l0,-24.4l-89.8,0l0,24.4Z" class="g1_72" />
<path d="M379.1,562.5l111.3,0l0,-24.4l-111.3,0l0,24.4Z" class="g1_72" />
<path d="M490.4,562.5l119.5,0l0,-24.4l-119.5,0l0,24.4Z" class="g1_72" />
<path d="M609.9,538.1l234.6,0l0,24.4l-234.6,0Z" class="g1_72" />
<path d="M76.5,586.9l114.6,0l0,-24.4l-114.6,0l0,24.4Z" class="g1_72" />
<path d="M191.1,586.9l98.2,0l0,-24.4l-98.2,0l0,24.4Z" class="g1_72" />
<path d="M289.3,586.9l89.8,0l0,-24.4l-89.8,0l0,24.4Z" class="g1_72" />
<path d="M379.1,586.9l111.3,0l0,-24.4l-111.3,0l0,24.4Z" class="g1_72" />
<path d="M490.4,586.9l119.5,0l0,-24.4l-119.5,0l0,24.4Z" class="g1_72" />
<path d="M609.9,562.5l234.6,0l0,24.4l-234.6,0Z" class="g1_72" />
<path d="M76.5,754.3l252.6,0l0,-27.7l-252.6,0l0,27.7Z" class="g1_72" />
<path d="M329.1,754.3l131.1,0l0,-27.7l-131.1,0l0,27.7Z" class="g1_72" />
<path d="M460.2,754.3l384.5,0l0,-27.7l-384.5,0l0,27.7Z" class="g1_72" />
<path d="M76.5,778.7l118.7,0l0,-24.4l-118.7,0l0,24.4Z" class="g1_72" />
<path d="M195.2,778.7l133.9,0l0,-24.4l-133.9,0l0,24.4Z" class="g1_72" />
<path d="M329.1,778.7l131.1,0l0,-24.4l-131.1,0l0,24.4Z" class="g1_72" />
<path d="M460.2,778.7l384.5,0l0,-24.4l-384.5,0l0,24.4Z" class="g1_72" />
<path d="M76.5,803.2l118.7,0l0,-24.5l-118.7,0l0,24.5Z" class="g1_72" />
<path d="M195.2,803.2l133.9,0l0,-24.5l-133.9,0l0,24.5Z" class="g1_72" />
<path d="M329.1,803.2l131.1,0l0,-24.5l-131.1,0l0,24.5Z" class="g1_72" />
<path d="M460.2,803.2l384.5,0l0,-24.5l-384.5,0l0,24.5Z" class="g1_72" />
<path d="M76.5,827.7l118.7,0l0,-24.5l-118.7,0l0,24.5Z" class="g1_72" />
<path d="M195.2,827.7l133.9,0l0,-24.5l-133.9,0l0,24.5Z" class="g1_72" />
<path d="M329.1,827.7l131.1,0l0,-24.5l-131.1,0l0,24.5Z" class="g1_72" />
<path d="M460.2,827.7l384.5,0l0,-24.5l-384.5,0l0,24.5Z" class="g1_72" />
<path d="M76.5,852l118.7,0l0,-24.3l-118.7,0l0,24.3Z" class="g1_72" />
<path d="M195.2,852l133.9,0l0,-24.3l-133.9,0l0,24.3Z" class="g1_72" />
<path d="M329.1,852l131.1,0l0,-24.3l-131.1,0l0,24.3Z" class="g1_72" />
<path d="M460.2,852l384.5,0l0,-24.3l-384.5,0l0,24.3Z" class="g1_72" />
<path d="M76.5,876.5l118.7,0l0,-24.5L76.5,852l0,24.5Z" class="g1_72" />
<path d="M195.2,876.5l133.9,0l0,-24.5l-133.9,0l0,24.5Z" class="g1_72" />
<path d="M329.1,876.5l131.1,0l0,-24.5l-131.1,0l0,24.5Z" class="g1_72" />
<path d="M460.2,876.5l384.5,0l0,-24.5l-384.5,0l0,24.5Z" class="g1_72" />
<path d="M76.5,901l118.7,0l0,-24.5l-118.7,0l0,24.5Z" class="g1_72" />
<path d="M195.2,901l133.9,0l0,-24.5l-133.9,0l0,24.5Z" class="g1_72" />
<path d="M329.1,901l131.1,0l0,-24.5l-131.1,0l0,24.5Z" class="g1_72" />
<path d="M460.2,901l384.5,0l0,-24.5l-384.5,0l0,24.5Z" class="g1_72" />
<path d="M76.2,586.6l0.7,0l0,-173.7l-0.7,0l0,173.7Z" class="g2_72" />
<path d="M190.8,587.3l0.7,0l0,-175.2l-0.7,0l0,175.2Z" class="g2_72" />
<path d="M288.9,587.3l0.8,0l0,-175.2l-0.8,0l0,175.2Z" class="g2_72" />
<path d="M378.8,465.1l0.7,0l0,-53l-0.7,0l0,53Z" class="g2_72" />
<path d="M378.8,587.3l0.7,0l0,-98.5l-0.7,0l0,98.5Z" class="g2_72" />
<path d="M490.1,587.3l0.7,0l0,-175.2l-0.7,0l0,175.2Z" class="g2_72" />
<path d="M609.5,587.3l0.7,0l0,-175.2l-0.7,0l0,175.2Z" class="g2_72" />
<path d="M844.2,586.6l0.7,0l0,-173.7l-0.7,0l0,173.7Z" class="g2_72" />
<path d="M76.2,412.9l768.7,0l0,-0.8l-768.7,0l0,0.8Z" class="g2_72" />
<path d="M76.2,440.6l768.7,0l0,-0.7l-768.7,0l0,0.7Z" class="g2_72" />
<path d="M76.2,465.1l768.7,0l0,-0.7l-768.7,0l0,0.7Z" class="g2_72" />
<path d="M76.2,489.5l768.7,0l0,-0.7l-768.7,0l0,0.7Z" class="g2_72" />
<path d="M76.2,514l768.7,0l0,-0.8l-768.7,0l0,0.8Z" class="g2_72" />
<path d="M76.2,538.5l768.7,0l0,-0.8l-768.7,0l0,0.8Z" class="g2_72" />
<path d="M76.2,562.8l768.7,0l0,-0.7l-768.7,0l0,0.7Z" class="g2_72" />
<path d="M76.2,587.3l768.7,0l0,-0.7l-768.7,0l0,0.7Z" class="g2_72" />
<path d="M76.1,900.6l0.7,0l0,-173.7l-0.7,0l0,173.7Z" class="g2_72" />
<path d="M194.8,901.4l0.7,0l0,-175.2l-0.7,0l0,175.2Z" class="g2_72" />
<path d="M328.7,901.4l0.8,0l0,-175.2l-0.8,0l0,175.2Z" class="g2_72" />
<path d="M459.8,901.4l0.7,0l0,-175.2l-0.7,0l0,175.2Z" class="g2_72" />
<path d="M844.3,900.6l0.8,0l0,-173.7l-0.8,0l0,173.7Z" class="g2_72" />
<path d="M76.1,726.9l769,0l0,-0.7l-769,0l0,0.7Z" class="g2_72" />
<path d="M76.1,754.7l769,0l0,-0.7l-769,0l0,0.7Z" class="g2_72" />
<path d="M76.1,779.1l769,0l0,-0.8l-769,0l0,0.8Z" class="g2_72" />
<path d="M76.1,803.5l769,0l0,-0.7l-769,0l0,0.7Z" class="g2_72" />
<path d="M76.1,828l769,0l0,-0.7l-769,0l0,0.7Z" class="g2_72" />
<path d="M76.1,852.4l769,0l0,-0.7l-769,0l0,0.7Z" class="g2_72" />
<path d="M76.1,876.9l769,0l0,-0.7l-769,0l0,0.7Z" class="g2_72" />
<path d="M76.1,901.4l769,0l0,-0.8l-769,0l0,0.8Z" class="g2_72" />
</svg>