<?xml version="1.0" encoding="UTF-8" standalone="no"?>
<!DOCTYPE svg PUBLIC "-//W3C//DTD SVG 1.1//EN"
"http://www.w3.org/Graphics/SVG/1.1/DTD/svg11.dtd">
<svg viewBox="0 0 935 1210" version="1.1" xmlns="http://www.w3.org/2000/svg" xmlns:xlink="http://www.w3.org/1999/xlink">
<defs>
<style type="text/css"><![CDATA[
.g1_1806{
fill: #FFFFFF;
}
.g2_1806{
}
]]></style>
</defs>
<path d="M165,1149.3l687.5,0l0,-21.2l-687.5,0l0,21.2Z" class="g1_1806" />
<path d="M68.8,1149.3l82.5,0l0,-21.2l-82.5,0l0,21.2Z" class="g1_1806" />
<path d="M68.6,864.4l0.7,0l0,-738.7l-0.7,0l0,738.7Z" class="g2_1806" />
<path d="M315.2,865.2l0.7,0l0,-740.3l-0.7,0l0,740.3Z" class="g2_1806" />
<path d="M361.3,865.2l0.7,0l0,-740.3l-0.7,0l0,740.3Z" class="g2_1806" />
<path d="M435.7,865.2l0.7,0l0,-740.3l-0.7,0l0,740.3Z" class="g2_1806" />
<path d="M524.1,865.2l0.7,0l0,-740.3l-0.7,0l0,740.3Z" class="g2_1806" />
<path d="M852.4,864.4l0.7,0l0,-738.7l-0.7,0l0,738.7Z" class="g2_1806" />
<path d="M68.6,125.7l784.5,0l0,-0.8l-784.5,0l0,0.8Z" class="g2_1806" />
<path d="M68.6,176.1l784.5,0l0,-0.7l-784.5,0l0,0.7Z" class="g2_1806" />
<path d="M68.6,229.5l784.5,0l0,-0.7l-784.5,0l0,0.7Z" class="g2_1806" />
<path d="M68.6,283l784.5,0l0,-0.8l-784.5,0l0,0.8Z" class="g2_1806" />
<path d="M68.6,336.5l784.5,0l0,-0.7l-784.5,0l0,0.7Z" class="g2_1806" />
<path d="M68.6,389.9l784.5,0l0,-0.7l-784.5,0l0,0.7Z" class="g2_1806" />
<path d="M68.6,443.5l784.5,0l0,-0.8l-784.5,0l0,0.8Z" class="g2_1806" />
<path d="M68.6,513.7l784.5,0l0,-0.7L68.6,513l0,0.7Z" class="g2_1806" />
<path d="M68.6,584l784.5,0l0,-0.7l-784.5,0l0,0.7Z" class="g2_1806" />
<path d="M68.6,654.3l784.5,0l0,-0.7l-784.5,0l0,0.7Z" class="g2_1806" />
<path d="M68.6,724.5l784.5,0l0,-0.7l-784.5,0l0,0.7Z" class="g2_1806" />
<path d="M68.6,811.6l784.5,0l0,-0.7l-784.5,0l0,0.7Z" class="g2_1806" />
<path d="M68.6,865.2l784.5,0l0,-0.8l-784.5,0l0,0.8Z" class="g2_1806" />
<path d="M70.7,1017.1l0.7,0l0,-96.9l-0.7,0l0,96.9Z" class="g2_1806" />
<path d="M180.7,1018l0.7,0l0,-98.6l-0.7,0l0,98.6Z" class="g2_1806" />
<path d="M343.7,1018l0.7,0l0,-98.6l-0.7,0l0,98.6Z" class="g2_1806" />
<path d="M515.2,1018l0.7,0l0,-98.6l-0.7,0l0,98.6Z" class="g2_1806" />
<path d="M682.4,1018l0.7,0l0,-98.6l-0.7,0l0,98.6Z" class="g2_1806" />
<path d="M849.7,1017.1l0.7,0l0,-96.9l-0.7,0l0,96.9Z" class="g2_1806" />
<path d="M70.7,920.2l779.7,0l0,-0.8l-779.7,0l0,0.8Z" class="g2_1806" />
<path d="M70.7,944.5l779.7,0l0,-0.7l-779.7,0l0,0.7Z" class="g2_1806" />
<path d="M70.7,969l779.7,0l0,-0.7l-779.7,0l0,0.7Z" class="g2_1806" />
<path d="M70.7,993.5l779.7,0l0,-0.7l-779.7,0l0,0.7Z" class="g2_1806" />
<path d="M70.7,1017.9l779.7,0l0,-0.8l-779.7,0l0,0.8Z" class="g2_1806" />
</svg>