<?xml version="1.0" encoding="UTF-8" standalone="no"?>
<!DOCTYPE svg PUBLIC "-//W3C//DTD SVG 1.1//EN"
"http://www.w3.org/Graphics/SVG/1.1/DTD/svg11.dtd">
<svg viewBox="0 0 935 1210" version="1.1" xmlns="http://www.w3.org/2000/svg" xmlns:xlink="http://www.w3.org/1999/xlink">
<defs>
<style type="text/css"><![CDATA[
.g1_497{
fill: #FFFFFF;
}
.g2_497{
}
]]></style>
</defs>
<path d="M68.9,1149.3l686.3,0l0,-21.2l-686.3,0l0,21.2Z" class="g1_497" />
<path d="M771.3,1149.3l83.7,0l0,-21.2l-83.7,0l0,21.2Z" class="g1_497" />
<path d="M69.3,389.2l0.7,0L70,134.8l-0.7,0l0,254.4Z" class="g2_497" />
<path d="M185.7,389.9l0.8,0l0,-255.8l-0.8,0l0,255.8Z" class="g2_497" />
<path d="M365,389.9l0.8,0l0,-255.8l-0.8,0l0,255.8Z" class="g2_497" />
<path d="M444.1,389.9l0.8,0l0,-255.8l-0.8,0l0,255.8Z" class="g2_497" />
<path d="M534.6,389.9l0.7,0l0,-255.8l-0.7,0l0,255.8Z" class="g2_497" />
<path d="M852.7,389.2l0.7,0l0,-254.4l-0.7,0l0,254.4Z" class="g2_497" />
<path d="M69.3,134.8l784.1,0l0,-0.7l-784.1,0l0,0.7Z" class="g2_497" />
<path d="M69.3,173l784.1,0l0,-0.8l-784.1,0l0,0.8Z" class="g2_497" />
<path d="M69.3,195.9l784.1,0l0,-0.7l-784.1,0l0,0.7Z" class="g2_497" />
<path d="M69.3,218.8l784.1,0l0,-0.7l-784.1,0l0,0.7Z" class="g2_497" />
<path d="M69.3,241.7l784.1,0l0,-0.7L69.3,241l0,0.7Z" class="g2_497" />
<path d="M69.3,264.6l784.1,0l0,-0.7l-784.1,0l0,0.7Z" class="g2_497" />
<path d="M69.3,304.4l784.1,0l0,-0.7l-784.1,0l0,0.7Z" class="g2_497" />
<path d="M69.3,344.1l784.1,0l0,-0.7l-784.1,0l0,0.7Z" class="g2_497" />
<path d="M69.3,367l784.1,0l0,-0.7l-784.1,0l0,0.7Z" class="g2_497" />
<path d="M69.3,389.9l784.1,0l0,-0.7l-784.1,0l0,0.7Z" class="g2_497" />
</svg>