<?xml version="1.0" encoding="UTF-8" standalone="no"?>
<!DOCTYPE svg PUBLIC "-//W3C//DTD SVG 1.1//EN"
"http://www.w3.org/Graphics/SVG/1.1/DTD/svg11.dtd">
<svg viewBox="0 0 935 1210" version="1.1" xmlns="http://www.w3.org/2000/svg" xmlns:xlink="http://www.w3.org/1999/xlink">
<defs>
<style type="text/css"><![CDATA[
.g1_551{
fill: #FFFFFF;
}
.g2_551{
}
]]></style>
</defs>
<path d="M68.9,1149.3l686.3,0l0,-21.2l-686.3,0l0,21.2Z" class="g1_551" />
<path d="M771.3,1149.3l83.7,0l0,-21.2l-83.7,0l0,21.2Z" class="g1_551" />
<path d="M72.1,332.7l0.7,0l0,-197.9l-0.7,0l0,197.9Z" class="g2_551" />
<path d="M219.5,333.5l0.7,0l0,-199.4l-0.7,0l0,199.4Z" class="g2_551" />
<path d="M386.7,333.5l0.8,0l0,-199.4l-0.8,0l0,199.4Z" class="g2_551" />
<path d="M424.6,333.5l0.7,0l0,-199.4l-0.7,0l0,199.4Z" class="g2_551" />
<path d="M497.9,333.5l0.8,0l0,-199.4l-0.8,0l0,199.4Z" class="g2_551" />
<path d="M569.3,333.5l0.8,0l0,-199.4l-0.8,0l0,199.4Z" class="g2_551" />
<path d="M849.9,332.7l0.8,0l0,-197.9l-0.8,0l0,197.9Z" class="g2_551" />
<path d="M72.1,134.8l778.6,0l0,-0.7l-778.6,0l0,0.7Z" class="g2_551" />
<path d="M72.1,173l778.6,0l0,-0.8l-778.6,0l0,0.8Z" class="g2_551" />
<path d="M72.1,195.9l778.6,0l0,-0.7l-778.6,0l0,0.7Z" class="g2_551" />
<path d="M72.1,218.8l778.6,0l0,-0.7l-778.6,0l0,0.7Z" class="g2_551" />
<path d="M72.1,241.7l778.6,0l0,-0.7L72.1,241l0,0.7Z" class="g2_551" />
<path d="M72.1,264.6l778.6,0l0,-0.7l-778.6,0l0,0.7Z" class="g2_551" />
<path d="M72.1,287.6l778.6,0l0,-0.8l-778.6,0l0,0.8Z" class="g2_551" />
<path d="M72.1,310.5l778.6,0l0,-0.8l-778.6,0l0,0.8Z" class="g2_551" />
<path d="M72.1,333.4l778.6,0l0,-0.7l-778.6,0l0,0.7Z" class="g2_551" />
<path d="M69.9,520.6l0.7,0l0,-72.5l-0.7,0l0,72.5Z" class="g2_551" />
<path d="M139.3,521.4l0.8,0l0,-74.2l-0.8,0l0,74.2Z" class="g2_551" />
<path d="M313.8,521.4l0.7,0l0,-74.2l-0.7,0l0,74.2Z" class="g2_551" />
<path d="M495.1,521.4l0.7,0l0,-74.2l-0.7,0l0,74.2Z" class="g2_551" />
<path d="M675.8,521.4l0.7,0l0,-74.2l-0.7,0l0,74.2Z" class="g2_551" />
<path d="M852.1,520.6l0.8,0l0,-72.5l-0.8,0l0,72.5Z" class="g2_551" />
<path d="M69.9,448.1l783,0l0,-0.8l-783,0l0,0.8Z" class="g2_551" />
<path d="M69.9,472.4l783,0l0,-0.7l-783,0l0,0.7Z" class="g2_551" />
<path d="M69.9,496.9l783,0l0,-0.7l-783,0l0,0.7Z" class="g2_551" />
<path d="M69.9,521.4l783,0l0,-0.7l-783,0l0,0.7Z" class="g2_551" />
</svg>