<?xml version="1.0" encoding="UTF-8" standalone="no"?>
<!DOCTYPE svg PUBLIC "-//W3C//DTD SVG 1.1//EN"
"http://www.w3.org/Graphics/SVG/1.1/DTD/svg11.dtd">
<svg viewBox="0 0 935 1210" version="1.1" xmlns="http://www.w3.org/2000/svg" xmlns:xlink="http://www.w3.org/1999/xlink">
<defs>
<style type="text/css"><![CDATA[
.g1_1633{
fill: #FFFFFF;
}
.g2_1633{
}
]]></style>
</defs>
<path d="M68.9,1149.3l686.3,0l0,-21.2l-686.3,0l0,21.2Z" class="g1_1633" />
<path d="M771.3,1149.3l83.7,0l0,-21.2l-83.7,0l0,21.2Z" class="g1_1633" />
<path d="M69.9,395.4l0.8,0l0,-269.7l-0.8,0l0,269.7Z" class="g2_1633" />
<path d="M290.4,396.1l0.7,0l0,-271.2l-0.7,0l0,271.2Z" class="g2_1633" />
<path d="M337.4,396.1l0.8,0l0,-271.2l-0.8,0l0,271.2Z" class="g2_1633" />
<path d="M412,396.1l0.7,0l0,-271.2l-0.7,0l0,271.2Z" class="g2_1633" />
<path d="M498.4,396.1l0.7,0l0,-271.2l-0.7,0l0,271.2Z" class="g2_1633" />
<path d="M855.7,395.4l0.7,0l0,-269.7l-0.7,0l0,269.7Z" class="g2_1633" />
<path d="M69.9,125.7l786.6,0l0,-0.8l-786.6,0l0,0.8Z" class="g2_1633" />
<path d="M69.9,176.1l786.6,0l0,-0.7l-786.6,0l0,0.7Z" class="g2_1633" />
<path d="M69.9,212.8l786.6,0l0,-0.8L69.9,212l0,0.8Z" class="g2_1633" />
<path d="M69.9,249.4l786.6,0l0,-0.7l-786.6,0l0,0.7Z" class="g2_1633" />
<path d="M69.9,286.1l786.6,0l0,-0.7l-786.6,0l0,0.7Z" class="g2_1633" />
<path d="M69.9,322.8l786.6,0l0,-0.8L69.9,322l0,0.8Z" class="g2_1633" />
<path d="M69.9,359.4l786.6,0l0,-0.7l-786.6,0l0,0.7Z" class="g2_1633" />
<path d="M69.9,396.1l786.6,0l0,-0.7l-786.6,0l0,0.7Z" class="g2_1633" />
<path d="M70.1,516l0.8,0l0,-64.9l-0.8,0l0,64.9Z" class="g2_1633" />
<path d="M172.3,516.8l0.8,0l0,-66.4l-0.8,0l0,66.4Z" class="g2_1633" />
<path d="M331.7,516.8l0.8,0l0,-66.4l-0.8,0l0,66.4Z" class="g2_1633" />
<path d="M503.6,516.8l0.7,0l0,-66.4l-0.7,0l0,66.4Z" class="g2_1633" />
<path d="M677,516.8l0.7,0l0,-66.4l-0.7,0l0,66.4Z" class="g2_1633" />
<path d="M851.9,516l0.7,0l0,-64.9l-0.7,0l0,64.9Z" class="g2_1633" />
<path d="M70.1,451.1l782.5,0l0,-0.7l-782.5,0l0,0.7Z" class="g2_1633" />
<path d="M70.1,475.6l782.5,0l0,-0.8l-782.5,0l0,0.8Z" class="g2_1633" />
<path d="M70.1,516.8l782.5,0l0,-0.7l-782.5,0l0,0.7Z" class="g2_1633" />
</svg>