<?xml version="1.0" encoding="UTF-8" standalone="no"?>
<!DOCTYPE svg PUBLIC "-//W3C//DTD SVG 1.1//EN"
"http://www.w3.org/Graphics/SVG/1.1/DTD/svg11.dtd">
<svg viewBox="0 0 935 1210" version="1.1" xmlns="http://www.w3.org/2000/svg" xmlns:xlink="http://www.w3.org/1999/xlink">
<defs>
<style type="text/css"><![CDATA[
.g1_519{
fill: #FFFFFF;
}
.g2_519{
fill: #F7F7F7;
}
.g3_519{
}
]]></style>
</defs>
<path d="M68.9,1149.3l686.3,0l0,-21.2l-686.3,0l0,21.2Z" class="g1_519" />
<path d="M771.3,1149.3l83.7,0l0,-21.2l-83.7,0l0,21.2Z" class="g1_519" />
<path d="M478,189.5l65.9,0l0,-24.5L478,165l0,24.5Z" class="g2_519" />
<path d="M71.6,238.3l243.8,0l0,-24.4l-243.8,0l0,24.4Z" class="g2_519" />
<path d="M71.6,262.8l243.8,0l0,-24.5l-243.8,0l0,24.5Z" class="g2_519" />
<path d="M71.6,287.2l243.8,0l0,-24.4l-243.8,0l0,24.4Z" class="g2_519" />
<path d="M71.6,311.7l243.8,0l0,-24.5l-243.8,0l0,24.5Z" class="g2_519" />
<path d="M71.6,336.1l243.8,0l0,-24.4l-243.8,0l0,24.4Z" class="g2_519" />
<path d="M71.6,360.5l243.8,0l0,-24.4l-243.8,0l0,24.4Z" class="g2_519" />
<path d="M71.6,385l243.8,0l0,-24.5l-243.8,0l0,24.5Z" class="g2_519" />
<path d="M71.6,409.5l243.8,0l0,-24.5L71.6,385l0,24.5Z" class="g2_519" />
<path d="M71.6,825l704.6,0l0,-24.4l-704.6,0l0,24.4Z" class="g2_519" />
<path d="M71.6,849.5l704.6,0l0,-24.5L71.6,825l0,24.5Z" class="g2_519" />
<path d="M71.6,873.9l704.6,0l0,-24.4l-704.6,0l0,24.4Z" class="g2_519" />
<path d="M70.5,163.9l2.3,0l0,-20.6l-2.3,0l0,20.6Z" class="g3_519" />
<path d="M71.2,946.9l0.8,0L72,166.2l-0.8,0l0,780.7Z" class="g3_519" />
<path d="M152.5,166.2l0.8,0l0,-25.2l-0.8,0l0,25.2Z" class="g3_519" />
<path d="M233.8,166.2l0.7,0l0,-25.2l-0.7,0l0,25.2Z" class="g3_519" />
<path d="M233.8,214.3l0.7,0l0,-25.2l-0.7,0l0,25.2Z" class="g3_519" />
<path d="M315.1,166.2l0.7,0l0,-25.2l-0.7,0l0,25.2Z" class="g3_519" />
<path d="M315.1,409.8l0.7,0l0,-196.3l-0.7,0l0,196.3Z" class="g3_519" />
<path d="M396.4,214.3l0.7,0l0,-73.3l-0.7,0l0,73.3Z" class="g3_519" />
<path d="M477.7,189.8l0.7,0l0,-48.8l-0.7,0l0,48.8Z" class="g3_519" />
<path d="M543.6,189.8l0.7,0l0,-48.8l-0.7,0l0,48.8Z" class="g3_519" />
<path d="M613.3,189.8l0.8,0l0,-48.8l-0.8,0l0,48.8Z" class="g3_519" />
<path d="M694.6,189.8l0.8,0l0,-48.8l-0.8,0l0,48.8Z" class="g3_519" />
<path d="M775.9,166.2l0.7,0l0,-25.2l-0.7,0l0,25.2Z" class="g3_519" />
<path d="M775.1,947.7l2.3,0l0,-783.8l-2.3,0l0,783.8Z" class="g3_519" />
<path d="M850,946.9l2.3,0l0,-803.6l-2.3,0l0,803.6Z" class="g3_519" />
<path d="M70.4,143.3l781.9,0l0,-2.3L70.4,141l0,2.3Z" class="g3_519" />
<path d="M70.4,166.2l781.9,0l0,-2.3l-781.9,0l0,2.3Z" class="g3_519" />
<path d="M71.2,189.8l781.1,0l0,-0.7l-781.1,0l0,0.7Z" class="g3_519" />
<path d="M71.2,214.2l781.1,0l0,-0.7l-781.1,0l0,0.7Z" class="g3_519" />
<path d="M71.2,238.7l781.1,0l0,-0.7L71.2,238l0,0.7Z" class="g3_519" />
<path d="M71.2,263.2l781.1,0l0,-0.8l-781.1,0l0,0.8Z" class="g3_519" />
<path d="M71.2,287.6l781.1,0l0,-0.8l-781.1,0l0,0.8Z" class="g3_519" />
<path d="M71.2,312l781.1,0l0,-0.7l-781.1,0l0,0.7Z" class="g3_519" />
<path d="M71.2,336.5l781.1,0l0,-0.7l-781.1,0l0,0.7Z" class="g3_519" />
<path d="M71.2,360.9l781.1,0l0,-0.7l-781.1,0l0,0.7Z" class="g3_519" />
<path d="M71.2,385.4l781.1,0l0,-0.8l-781.1,0l0,0.8Z" class="g3_519" />
<path d="M71.2,409.8l781.1,0l0,-0.7l-781.1,0l0,0.7Z" class="g3_519" />
<path d="M71.2,434.3l781.1,0l0,-0.7l-781.1,0l0,0.7Z" class="g3_519" />
<path d="M71.2,458.7l781.1,0l0,-0.7L71.2,458l0,0.7Z" class="g3_519" />
<path d="M71.2,483.2l781.1,0l0,-0.8l-781.1,0l0,0.8Z" class="g3_519" />
<path d="M71.2,507.7l781.1,0l0,-0.8l-781.1,0l0,0.8Z" class="g3_519" />
<path d="M71.2,532l781.1,0l0,-0.7l-781.1,0l0,0.7Z" class="g3_519" />
<path d="M71.2,556.5l781.1,0l0,-0.7l-781.1,0l0,0.7Z" class="g3_519" />
<path d="M71.2,581l781.1,0l0,-0.8l-781.1,0l0,0.8Z" class="g3_519" />
<path d="M71.2,605.4l781.1,0l0,-0.8l-781.1,0l0,0.8Z" class="g3_519" />
<path d="M71.2,629.8l781.1,0l0,-0.7l-781.1,0l0,0.7Z" class="g3_519" />
<path d="M71.2,654.3l781.1,0l0,-0.7l-781.1,0l0,0.7Z" class="g3_519" />
<path d="M71.2,678.7l781.1,0l0,-0.7L71.2,678l0,0.7Z" class="g3_519" />
<path d="M71.2,703.2l781.1,0l0,-0.8l-781.1,0l0,0.8Z" class="g3_519" />
<path d="M71.2,727.7l781.1,0l0,-0.8l-781.1,0l0,0.8Z" class="g3_519" />
<path d="M71.2,752l781.1,0l0,-0.7l-781.1,0l0,0.7Z" class="g3_519" />
<path d="M71.2,776.5l781.1,0l0,-0.7l-781.1,0l0,0.7Z" class="g3_519" />
<path d="M71.2,801l781.1,0l0,-0.8l-781.1,0l0,0.8Z" class="g3_519" />
<path d="M71.2,825.4l781.1,0l0,-0.8l-781.1,0l0,0.8Z" class="g3_519" />
<path d="M71.2,849.8l781.1,0l0,-0.7l-781.1,0l0,0.7Z" class="g3_519" />
<path d="M71.2,874.3l781.1,0l0,-0.7l-781.1,0l0,0.7Z" class="g3_519" />
<path d="M71.2,898.7l781.1,0l0,-0.7L71.2,898l0,0.7Z" class="g3_519" />
<path d="M71.2,923.2l781.1,0l0,-0.8l-781.1,0l0,0.8Z" class="g3_519" />
<path d="M71.2,947.7l781.1,0l0,-0.8l-781.1,0l0,0.8Z" class="g3_519" />
</svg>