<?xml version="1.0" encoding="UTF-8" standalone="no"?>
<!DOCTYPE svg PUBLIC "-//W3C//DTD SVG 1.1//EN"
"http://www.w3.org/Graphics/SVG/1.1/DTD/svg11.dtd">
<svg viewBox="0 0 935 1210" version="1.1" xmlns="http://www.w3.org/2000/svg" xmlns:xlink="http://www.w3.org/1999/xlink">
<defs>
<style type="text/css"><![CDATA[
.g1_442{
fill: #FFFFFF;
}
.g2_442{
}
]]></style>
</defs>
<path d="M165,1149.3l687.5,0l0,-21.2l-687.5,0l0,21.2Z" class="g1_442" />
<path d="M68.8,1149.3l82.5,0l0,-21.2l-82.5,0l0,21.2Z" class="g1_442" />
<path d="M69.1,192.1l0.8,0l0,-60.3l-0.8,0l0,60.3Z" class="g2_442" />
<path d="M194.2,192.9l0.8,0L195,131l-0.8,0l0,61.9Z" class="g2_442" />
<path d="M357.8,192.9l0.7,0l0,-61.9l-0.7,0l0,61.9Z" class="g2_442" />
<path d="M428.5,192.9l0.8,0l0,-61.9l-0.8,0l0,61.9Z" class="g2_442" />
<path d="M520.2,192.9l0.7,0l0,-61.9l-0.7,0l0,61.9Z" class="g2_442" />
<path d="M851.2,192.1l0.7,0l0,-60.3l-0.7,0l0,60.3Z" class="g2_442" />
<path d="M69.1,131.7l782.9,0l0,-0.7L69.1,131l0,0.7Z" class="g2_442" />
<path d="M69.1,169.9l782.9,0l0,-0.7l-782.9,0l0,0.7Z" class="g2_442" />
<path d="M69.1,192.9l782.9,0l0,-0.8l-782.9,0l0,0.8Z" class="g2_442" />
</svg>