<?xml version="1.0" encoding="UTF-8" standalone="no"?>
<!DOCTYPE svg PUBLIC "-//W3C//DTD SVG 1.1//EN"
"http://www.w3.org/Graphics/SVG/1.1/DTD/svg11.dtd">
<svg viewBox="0 0 935 1210" version="1.1" xmlns="http://www.w3.org/2000/svg" xmlns:xlink="http://www.w3.org/1999/xlink">
<defs>
<style type="text/css"><![CDATA[
.g1_467{
fill: #FFFFFF;
}
.g2_467{
}
]]></style>
</defs>
<path d="M68.9,1149.3l686.3,0l0,-21.2l-686.3,0l0,21.2Z" class="g1_467" />
<path d="M771.3,1149.3l83.7,0l0,-21.2l-83.7,0l0,21.2Z" class="g1_467" />
<path d="M69.9,192.1l0.7,0l0,-60.3l-0.7,0l0,60.3Z" class="g2_467" />
<path d="M182.7,192.9l0.7,0l0,-61.9l-0.7,0l0,61.9Z" class="g2_467" />
<path d="M319.9,192.9l0.7,0l0,-61.9l-0.7,0l0,61.9Z" class="g2_467" />
<path d="M384.7,192.9l0.8,0l0,-61.9l-0.8,0l0,61.9Z" class="g2_467" />
<path d="M462.3,192.9l0.7,0L463,131l-0.7,0l0,61.9Z" class="g2_467" />
<path d="M852.1,192.1l0.8,0l0,-60.3l-0.8,0l0,60.3Z" class="g2_467" />
<path d="M69.9,131.7l783,0l0,-0.7l-783,0l0,0.7Z" class="g2_467" />
<path d="M69.9,169.9l783,0l0,-0.7l-783,0l0,0.7Z" class="g2_467" />
<path d="M69.9,192.9l783,0l0,-0.8l-783,0l0,0.8Z" class="g2_467" />
<path d="M71.2,723.8l0.8,0L72,504.5l-0.8,0l0,219.3Z" class="g2_467" />
<path d="M144.2,724.5l2.3,0l0,-194.8l-2.3,0l0,194.8Z" class="g2_467" />
<path d="M227,724.5l2.3,0l0,-197.1l-2.3,0l0,197.1Z" class="g2_467" />
<path d="M310.6,724.5l0.7,0l0,-197.1l-0.7,0l0,197.1Z" class="g2_467" />
<path d="M424,724.5l0.7,0l0,-197.1l-0.7,0l0,197.1Z" class="g2_467" />
<path d="M506.7,724.5l0.8,0l0,-197.1l-0.8,0l0,197.1Z" class="g2_467" />
<path d="M589.6,724.5l0.7,0l0,-197.1l-0.7,0l0,197.1Z" class="g2_467" />
<path d="M685.1,724.5l0.8,0l0,-197.1l-0.8,0l0,197.1Z" class="g2_467" />
<path d="M768,724.5l0.7,0l0,-197.1l-0.7,0l0,197.1Z" class="g2_467" />
<path d="M850.8,723.8l0.7,0l0,-219.3l-0.7,0l0,219.3Z" class="g2_467" />
<path d="M71.2,504.5l780.3,0l0,-0.7l-780.3,0l0,0.7Z" class="g2_467" />
<path d="M144.2,529.8l707.3,0l0,-2.3l-707.3,0l0,2.3Z" class="g2_467" />
<path d="M144.2,554.3l707.3,0l0,-2.3l-707.3,0l0,2.3Z" class="g2_467" />
<path d="M144.2,577.9l707.3,0l0,-0.8l-707.3,0l0,0.8Z" class="g2_467" />
<path d="M144.2,602.3l707.3,0l0,-0.7l-707.3,0l0,0.7Z" class="g2_467" />
<path d="M144.2,626.8l707.3,0l0,-0.7l-707.3,0l0,0.7Z" class="g2_467" />
<path d="M144.2,651.2l707.3,0l0,-0.7l-707.3,0l0,0.7Z" class="g2_467" />
<path d="M144.2,675.7l707.3,0l0,-0.8l-707.3,0l0,0.8Z" class="g2_467" />
<path d="M144.2,700.2l707.3,0l0,-0.8l-707.3,0l0,0.8Z" class="g2_467" />
<path d="M71.2,724.5l780.3,0l0,-0.7l-780.3,0l0,0.7Z" class="g2_467" />
</svg>