<?xml version="1.0" encoding="UTF-8" standalone="no"?>
<!DOCTYPE svg PUBLIC "-//W3C//DTD SVG 1.1//EN"
"http://www.w3.org/Graphics/SVG/1.1/DTD/svg11.dtd">
<svg viewBox="0 0 935 1210" version="1.1" xmlns="http://www.w3.org/2000/svg" xmlns:xlink="http://www.w3.org/1999/xlink">
<defs>
<style type="text/css"><![CDATA[
.g1_893{
fill: #FFFFFF;
}
.g2_893{
}
]]></style>
</defs>
<path d="M68.9,1149.3l686.3,0l0,-21.2l-686.3,0l0,21.2Z" class="g1_893" />
<path d="M771.3,1149.3l83.7,0l0,-21.2l-83.7,0l0,21.2Z" class="g1_893" />
<path d="M72,778.2l778.8,0l0,-29.6L72,748.6l0,29.6Z" class="g1_893" />
<path d="M73,771.6l53.4,0l0,-12.4l-53.4,0l0,12.4Z" class="g1_893" />
<path d="M72.1,358.7l0.7,0l0,-233l-0.7,0l0,233Z" class="g2_893" />
<path d="M389,359.4l0.8,0l0,-234.5l-0.8,0l0,234.5Z" class="g2_893" />
<path d="M428.1,359.4l0.7,0l0,-234.5l-0.7,0l0,234.5Z" class="g2_893" />
<path d="M501.4,359.4l0.7,0l0,-234.5l-0.7,0l0,234.5Z" class="g2_893" />
<path d="M572.7,359.4l0.8,0l0,-234.5l-0.8,0l0,234.5Z" class="g2_893" />
<path d="M849.9,358.7l0.8,0l0,-233l-0.8,0l0,233Z" class="g2_893" />
<path d="M72.1,125.7l778.6,0l0,-0.8l-778.6,0l0,0.8Z" class="g2_893" />
<path d="M72.1,179.1l778.6,0l0,-0.7l-778.6,0l0,0.7Z" class="g2_893" />
<path d="M72.1,269.2l778.6,0l0,-0.7l-778.6,0l0,0.7Z" class="g2_893" />
<path d="M72.1,359.4l778.6,0l0,-0.7l-778.6,0l0,0.7Z" class="g2_893" />
<path d="M71.6,487l0.7,0l0,-72.6l-0.7,0l0,72.6Z" class="g2_893" />
<path d="M140.3,487.8l0.7,0l0,-74.1l-0.7,0l0,74.1Z" class="g2_893" />
<path d="M309.6,487.8l0.8,0l0,-74.1l-0.8,0l0,74.1Z" class="g2_893" />
<path d="M492.4,487.8l0.8,0l0,-74.1l-0.8,0l0,74.1Z" class="g2_893" />
<path d="M662.1,487.8l0.7,0l0,-74.1l-0.7,0l0,74.1Z" class="g2_893" />
<path d="M850.4,487l0.7,0l0,-72.6l-0.7,0l0,72.6Z" class="g2_893" />
<path d="M71.6,414.4l779.5,0l0,-0.7l-779.5,0l0,0.7Z" class="g2_893" />
<path d="M71.6,438.9l779.5,0l0,-0.7l-779.5,0l0,0.7Z" class="g2_893" />
<path d="M71.6,463.3l779.5,0l0,-0.8l-779.5,0l0,0.8Z" class="g2_893" />
<path d="M71.6,487.8l779.5,0l0,-0.8L71.6,487l0,0.8Z" class="g2_893" />
<path d="M71.6,748.3l0.7,0l0,-121.5l-0.7,0l0,121.5Z" class="g2_893" />
<path d="M195,749l0.7,0l0,-123l-0.7,0l0,123Z" class="g2_893" />
<path d="M318.4,749l0.7,0l0,-123l-0.7,0l0,123Z" class="g2_893" />
<path d="M850.4,748.3l0.7,0l0,-121.5l-0.7,0l0,121.5Z" class="g2_893" />
<path d="M71.6,626.8l779.5,0l0,-0.7l-779.5,0l0,0.7Z" class="g2_893" />
<path d="M71.6,651.2l779.5,0l0,-0.7l-779.5,0l0,0.7Z" class="g2_893" />
<path d="M71.6,675.7l779.5,0l0,-0.8l-779.5,0l0,0.8Z" class="g2_893" />
<path d="M71.6,700.2l779.5,0l0,-0.8l-779.5,0l0,0.8Z" class="g2_893" />
<path d="M71.6,724.5l779.5,0l0,-0.7l-779.5,0l0,0.7Z" class="g2_893" />
<path d="M71.6,749l779.5,0l0,-0.7l-779.5,0l0,0.7Z" class="g2_893" />
<path d="M69.9,1089.6l0.8,0l0,-121.5l-0.8,0l0,121.5Z" class="g2_893" />
<path d="M693.7,1090.3l0.8,0l0,-122.9l-0.8,0l0,122.9Z" class="g2_893" />
<path d="M851.3,1089.6l0.7,0l0,-121.5l-0.7,0l0,121.5Z" class="g2_893" />
<path d="M69.9,968.1l782.1,0l0,-0.7l-782.1,0l0,0.7Z" class="g2_893" />
<path d="M69.9,992.5l782.1,0l0,-0.8l-782.1,0l0,0.8Z" class="g2_893" />
<path d="M69.9,1017l782.1,0l0,-0.8l-782.1,0l0,0.8Z" class="g2_893" />
<path d="M69.9,1041.4l782.1,0l0,-0.7l-782.1,0l0,0.7Z" class="g2_893" />
<path d="M69.9,1065.8l782.1,0l0,-0.7l-782.1,0l0,0.7Z" class="g2_893" />
<path d="M69.9,1090.3l782.1,0l0,-0.8l-782.1,0l0,0.8Z" class="g2_893" />
</svg>