<?xml version="1.0" encoding="UTF-8" standalone="no"?>
<!DOCTYPE svg PUBLIC "-//W3C//DTD SVG 1.1//EN"
"http://www.w3.org/Graphics/SVG/1.1/DTD/svg11.dtd">
<svg viewBox="0 0 935 1210" version="1.1" xmlns="http://www.w3.org/2000/svg" xmlns:xlink="http://www.w3.org/1999/xlink">
<defs>
<style type="text/css"><![CDATA[
.g1_439{
fill: #FFFFFF;
}
.g2_439{
}
]]></style>
</defs>
<path d="M68.9,1149.3l686.3,0l0,-21.2l-686.3,0l0,21.2Z" class="g1_439" />
<path d="M771.3,1149.3l83.7,0l0,-21.2l-83.7,0l0,21.2Z" class="g1_439" />
<path d="M69.1,386.2l0.8,0l0,-254.4l-0.8,0l0,254.4Z" class="g2_439" />
<path d="M193.3,386.9l0.8,0l0,-255.9l-0.8,0l0,255.9Z" class="g2_439" />
<path d="M371.4,386.9l0.8,0l0,-255.9l-0.8,0l0,255.9Z" class="g2_439" />
<path d="M428.3,386.9l0.7,0L429,131l-0.7,0l0,255.9Z" class="g2_439" />
<path d="M510.7,386.9l0.7,0l0,-255.9l-0.7,0l0,255.9Z" class="g2_439" />
<path d="M852.9,386.2l0.7,0l0,-254.4l-0.7,0l0,254.4Z" class="g2_439" />
<path d="M69.1,131.7l784.5,0l0,-0.7L69.1,131l0,0.7Z" class="g2_439" />
<path d="M69.1,169.9l784.5,0l0,-0.7l-784.5,0l0,0.7Z" class="g2_439" />
<path d="M69.1,192.9l784.5,0l0,-0.8l-784.5,0l0,0.8Z" class="g2_439" />
<path d="M69.1,215.8l784.5,0l0,-0.8L69.1,215l0,0.8Z" class="g2_439" />
<path d="M69.1,238.7l784.5,0l0,-0.7L69.1,238l0,0.7Z" class="g2_439" />
<path d="M69.1,261.6l784.5,0l0,-0.7l-784.5,0l0,0.7Z" class="g2_439" />
<path d="M69.1,301.3l784.5,0l0,-0.7l-784.5,0l0,0.7Z" class="g2_439" />
<path d="M69.1,341.1l784.5,0l0,-0.7l-784.5,0l0,0.7Z" class="g2_439" />
<path d="M69.1,364l784.5,0l0,-0.7l-784.5,0l0,0.7Z" class="g2_439" />
<path d="M69.1,386.9l784.5,0l0,-0.7l-784.5,0l0,0.7Z" class="g2_439" />
</svg>