<?xml version="1.0" encoding="UTF-8" standalone="no"?>
<!DOCTYPE svg PUBLIC "-//W3C//DTD SVG 1.1//EN"
"http://www.w3.org/Graphics/SVG/1.1/DTD/svg11.dtd">
<svg viewBox="0 0 935 1210" version="1.1" xmlns="http://www.w3.org/2000/svg" xmlns:xlink="http://www.w3.org/1999/xlink">
<defs>
<style type="text/css"><![CDATA[
.g1_202{
fill: #FFFFFF;
}
.g2_202{
}
]]></style>
</defs>
<path d="M165,1149.3l687.5,0l0,-21.2l-687.5,0l0,21.2Z" class="g1_202" />
<path d="M68.8,1149.3l82.5,0l0,-21.2l-82.5,0l0,21.2Z" class="g1_202" />
<path d="M68.6,325.1l0.7,0l0,-199.4l-0.7,0l0,199.4Z" class="g2_202" />
<path d="M256.1,325.8l0.7,0l0,-200.9l-0.7,0l0,200.9Z" class="g2_202" />
<path d="M313.4,325.8l0.7,0l0,-200.9l-0.7,0l0,200.9Z" class="g2_202" />
<path d="M387.8,325.8l0.8,0l0,-200.9l-0.8,0l0,200.9Z" class="g2_202" />
<path d="M455.5,325.8l0.7,0l0,-200.9l-0.7,0l0,200.9Z" class="g2_202" />
<path d="M851.7,325.1l0.7,0l0,-199.4l-0.7,0l0,199.4Z" class="g2_202" />
<path d="M68.6,125.7l783.8,0l0,-0.8l-783.8,0l0,0.8Z" class="g2_202" />
<path d="M68.6,179.1l783.8,0l0,-0.7l-783.8,0l0,0.7Z" class="g2_202" />
<path d="M68.6,215.8l783.8,0l0,-0.8L68.6,215l0,0.8Z" class="g2_202" />
<path d="M68.6,252.4l783.8,0l0,-0.7l-783.8,0l0,0.7Z" class="g2_202" />
<path d="M68.6,289.1l783.8,0l0,-0.7l-783.8,0l0,0.7Z" class="g2_202" />
<path d="M68.6,325.8l783.8,0l0,-0.7l-783.8,0l0,0.7Z" class="g2_202" />
<path d="M69,453.4l0.8,0l0,-72.6l-0.8,0l0,72.6Z" class="g2_202" />
<path d="M168.8,454.1l0.7,0l0,-74l-0.7,0l0,74Z" class="g2_202" />
<path d="M386.1,454.1l0.7,0l0,-74l-0.7,0l0,74Z" class="g2_202" />
<path d="M617,454.1l0.7,0l0,-74l-0.7,0l0,74Z" class="g2_202" />
<path d="M851.4,453.4l0.7,0l0,-72.6l-0.7,0l0,72.6Z" class="g2_202" />
<path d="M68.9,380.8l783.2,0l0,-0.8L68.9,380l0,0.8Z" class="g2_202" />
<path d="M68.9,405.3l783.2,0l0,-0.8l-783.2,0l0,0.8Z" class="g2_202" />
<path d="M68.9,429.7l783.2,0l0,-0.7L68.9,429l0,0.7Z" class="g2_202" />
<path d="M68.9,454.1l783.2,0l0,-0.7l-783.2,0l0,0.7Z" class="g2_202" />
<path d="M80.7,849.8l0.7,0l0,-278l-0.7,0l0,278Z" class="g2_202" />
<path d="M839.8,849.8l0.7,0l0,-278l-0.7,0l0,278Z" class="g2_202" />
<path d="M80.7,571.8l759.8,0l0,-0.7l-759.8,0l0,0.7Z" class="g2_202" />
<path d="M80.7,850.6l759.8,0l0,-0.8l-759.8,0l0,0.8Z" class="g2_202" />
<path d="M127.6,628.5l436.8,0l0,-20.7l-436.8,0l0,20.7Z" class="g1_202" />
<path d="M127.6,608.2l437.2,0l0,-0.7l-437.2,0l0,0.7Z" class="g2_202" />
<path d="M564,628.8l0.8,0l0,-21l-0.8,0l0,21Z" class="g2_202" />
<path d="M127.2,628.8l437.2,0l0,-0.7l-437.2,0l0,0.7Z" class="g2_202" />
<path d="M127.2,628.5l0.8,0l0,-21l-0.8,0l0,21Z" class="g2_202" />
<path d="M355.2,607.6l0.7,0l0,-0.4l-0.7,0l0,0.4Z" class="g2_202" />
<path d="M355.2,628.6l0.7,0l0,-21l-0.7,0l0,21Z" class="g2_202" />
<path d="M219.5,693.8l489.1,0l0,-20.6l-489.1,0l0,20.6Z" class="g1_202" />
<path d="M219.5,673.6l489.4,0l0,-0.8l-489.4,0l0,0.8Z" class="g2_202" />
<path d="M708.2,694.2l0.7,0l0,-21l-0.7,0l0,21Z" class="g2_202" />
<path d="M219.2,694.2l489.4,0l0,-0.7l-489.4,0l0,0.7Z" class="g2_202" />
<path d="M219.2,693.8l0.7,0l0,-21l-0.7,0l0,21Z" class="g2_202" />
<path d="M478.4,673l0.7,0l0,-0.3l-0.7,0l0,0.3Z" class="g2_202" />
<path d="M478.4,694l0.7,0l0,-21l-0.7,0l0,21Z" class="g2_202" />
<path d="M661.1,665.2l0.8,-3.9l0.3,-0.9l0.9,0.4l12.9,6.8l2.3,1.2l-2.6,0.2l-14.6,1.1l-1,0.1l0.2,-1l0.7,-0.6l14.6,-1.1l0.1,1.5l-0.5,-0.1l-12.9,-6.8l0.8,-1.3l0.4,0.9l-0.8,3.9Z" class="g2_202" />
<path d="M660.3,669.2l0.8,-4l1.6,0.4l-0.9,3.9Z" class="g2_202" />
<path fill-rule="evenodd" d="M661.8,665.4l0.9,-3.9l12.9,6.7L661,669.3Z" class="g2_202" />
<path d="M528.1,637.4l-0.4,-0.1l-0.2,0.7l0.4,0.1Z" class="g2_202" />
<path d="M661.2,664.9l0.4,0.1l-0.2,0.8L661,665.7Z" class="g2_202" />
<path d="M528.1,637.4l-0.2,0.7L661,665.7l0.2,-0.8Z" class="g2_202" />
<path d="M434,661.9l0.9,-4l0.2,-0.9l1,0.4l13,6.9l2.3,1.2l-2.7,0.2L434,666.8l-1,0.1l0.2,-1l0.8,-0.6l14.6,-1.1l0.1,1.5l-0.5,-0.1l-13,-6.9l0.9,-1.3l0.3,0.9l-0.8,4Z" class="g2_202" />
<path d="M433.2,665.9l0.8,-4l1.6,0.4l-0.8,3.9Z" class="g2_202" />
<path fill-rule="evenodd" d="M434.8,662.1l0.8,-4l13,6.8L433.9,666Z" class="g2_202" />
<path d="M301,634l-0.3,-0.1l-0.2,0.7l0.3,0.1Z" class="g2_202" />
<path d="M434.1,661.6l0.4,0l-0.2,0.8L434,662.3Z" class="g2_202" />
<path d="M301,634l-0.2,0.7l133.1,27.6l0.2,-0.7Z" class="g2_202" />
<path d="M116,757.1l436.7,0l0,-20.6l-436.7,0l0,20.6Z" class="g1_202" />
<path d="M116,736.8l437.1,0l0,-0.7l-437.1,0l0,0.7Z" class="g2_202" />
<path d="M552.4,757.4l0.7,0l0,-20.9l-0.7,0l0,20.9Z" class="g2_202" />
<path d="M115.6,757.4l437.2,0l0,-0.7l-437.2,0l0,0.7Z" class="g2_202" />
<path d="M115.6,757.1l0.7,0l0,-21l-0.7,0l0,21Z" class="g2_202" />
<path d="M343.7,736.3l0.7,0l0,-0.4l-0.7,0l0,0.4Z" class="g2_202" />
<path d="M343.7,757.3l0.7,0l0,-21l-0.7,0l0,21Z" class="g2_202" />
<path d="M208,822.4l489,0l0,-20.6l-489,0l0,20.6Z" class="g1_202" />
<path d="M208,802.2l489.4,0l0,-0.8l-489.4,0l0,0.8Z" class="g2_202" />
<path d="M696.7,822.8l0.7,0l0,-21l-0.7,0l0,21Z" class="g2_202" />
<path d="M207.6,822.8l489.4,0l0,-0.7l-489.4,0l0,0.7Z" class="g2_202" />
<path d="M207.6,822.4l0.8,0l0,-21l-0.8,0l0,21Z" class="g2_202" />
<path d="M466.8,801.6l0.7,0l0,-0.3l-0.7,0l0,0.3Z" class="g2_202" />
<path d="M466.8,822.6l0.7,0l0,-21l-0.7,0l0,21Z" class="g2_202" />
<path d="M652.2,805.3l1.8,-4.6l0.9,0.7l11.5,9l2.1,1.7l-2.6,-0.3l-14.6,-1.6L650.2,810l0.5,-0.9l0.7,-0.5l14.6,1.6l-0.1,1.6l-0.5,-0.2l-11.5,-9.1l1,-1.1l0.1,0.8l-1.4,3.6Z" class="g2_202" />
<path d="M650.7,809.1l1.5,-3.8l1.4,0.5l-1.6,3.8Z" class="g2_202" />
<path fill-rule="evenodd" d="M652.9,805.6l1.4,-3.7l11.6,9.1l-14.6,-1.7Z" class="g2_202" />
<path d="M522,751.4l-0.3,-0.1l-0.3,0.6l0.3,0.1Z" class="g2_202" />
<path d="M652.3,805l0.3,0.1l-0.3,0.7L652,805.7Z" class="g2_202" />
<path d="M522,751.4l-0.3,0.6L652,805.7l0.3,-0.7Z" class="g2_202" />
<path d="M554.1,806.1l0.9,-3.9l0.1,-0.9l1,0.4l13.1,6.8l2.2,1.2l-2.6,0.2l-14.7,1.2l-1,0.1l0.2,-1l0.7,-0.6l14.7,-1.2l0.1,1.5l-0.5,-0.1l-13,-6.8l0.8,-1.3l0.4,0.8l-0.8,4Z" class="g2_202" />
<path d="M553.3,810.2l0.8,-4.1l1.6,0.4l-0.8,4Z" class="g2_202" />
<path fill-rule="evenodd" d="M554.9,806.3l0.8,-3.9l13,6.7L554,810.3Z" class="g2_202" />
<path d="M292.7,752l-0.4,-0.1l-0.2,0.8l0.4,0.1Z" class="g2_202" />
<path d="M554.2,805.8l0.4,0.1l-0.2,0.8L554,806.6Z" class="g2_202" />
<path d="M292.7,752l-0.2,0.8L554,806.6l0.2,-0.8Z" class="g2_202" />
<path d="M588.2,802.4l0.8,0l0,-0.4l-0.8,0l0,0.4Z" class="g2_202" />
<path d="M588.2,823.4l0.8,0l0,-21l-0.8,0l0,21Z" class="g2_202" />
<path d="M341.5,803.2l0.7,0l0,-0.4l-0.7,0l0,0.4Z" class="g2_202" />
<path d="M341.5,824.2l0.7,0l0,-21l-0.7,0l0,21Z" class="g2_202" />
</svg>