<?xml version="1.0" encoding="UTF-8" standalone="no"?>
<!DOCTYPE svg PUBLIC "-//W3C//DTD SVG 1.1//EN"
"http://www.w3.org/Graphics/SVG/1.1/DTD/svg11.dtd">
<svg viewBox="0 0 935 1210" version="1.1" xmlns="http://www.w3.org/2000/svg" xmlns:xlink="http://www.w3.org/1999/xlink">
<defs>
<style type="text/css"><![CDATA[
.g1_264{
fill: #FFFFFF;
}
.g2_264{
}
]]></style>
</defs>
<path d="M165,1149.3l687.5,0l0,-21.2l-687.5,0l0,21.2Z" class="g1_264" />
<path d="M68.8,1149.3l82.5,0l0,-21.2l-82.5,0l0,21.2Z" class="g1_264" />
<path d="M68.6,546.6l0.7,0l0,-420.9l-0.7,0l0,420.9Z" class="g2_264" />
<path d="M285.3,547.3l0.7,0l0,-422.4l-0.7,0l0,422.4Z" class="g2_264" />
<path d="M333.6,547.3l0.7,0l0,-422.4l-0.7,0l0,422.4Z" class="g2_264" />
<path d="M408.1,547.3l0.7,0l0,-422.4l-0.7,0l0,422.4Z" class="g2_264" />
<path d="M492.3,547.3l0.7,0l0,-422.4l-0.7,0l0,422.4Z" class="g2_264" />
<path d="M853.4,546.6l0.7,0l0,-420.9l-0.7,0l0,420.9Z" class="g2_264" />
<path d="M68.6,125.7l785.6,0l0,-0.8l-785.6,0l0,0.8Z" class="g2_264" />
<path d="M68.6,176.1l785.6,0l0,-0.7l-785.6,0l0,0.7Z" class="g2_264" />
<path d="M68.6,229.5l785.6,0l0,-0.7l-785.6,0l0,0.7Z" class="g2_264" />
<path d="M68.6,283l785.6,0l0,-0.8l-785.6,0l0,0.8Z" class="g2_264" />
<path d="M68.6,336.5l785.6,0l0,-0.7l-785.6,0l0,0.7Z" class="g2_264" />
<path d="M68.6,406.8l785.6,0l0,-0.7l-785.6,0l0,0.7Z" class="g2_264" />
<path d="M68.6,477l785.6,0l0,-0.7l-785.6,0l0,0.7Z" class="g2_264" />
<path d="M68.6,547.3l785.6,0l0,-0.7l-785.6,0l0,0.7Z" class="g2_264" />
<path d="M70.9,699.3l0.7,0l0,-97l-0.7,0l0,97Z" class="g2_264" />
<path d="M166.3,700.2l0.7,0l0,-98.6l-0.7,0l0,98.6Z" class="g2_264" />
<path d="M335.4,700.2l0.7,0l0,-98.6l-0.7,0l0,98.6Z" class="g2_264" />
<path d="M508.5,700.2l0.7,0l0,-98.6l-0.7,0l0,98.6Z" class="g2_264" />
<path d="M675.1,700.2l0.8,0l0,-98.6l-0.8,0l0,98.6Z" class="g2_264" />
<path d="M849.6,699.3l0.7,0l0,-97l-0.7,0l0,97Z" class="g2_264" />
<path d="M70.9,602.3l779.4,0l0,-0.7l-779.4,0l0,0.7Z" class="g2_264" />
<path d="M70.9,626.8l779.4,0l0,-0.7l-779.4,0l0,0.7Z" class="g2_264" />
<path d="M70.9,651.2l779.4,0l0,-0.7l-779.4,0l0,0.7Z" class="g2_264" />
<path d="M70.9,675.7l779.4,0l0,-0.8l-779.4,0l0,0.8Z" class="g2_264" />
<path d="M70.9,700.2l779.4,0l0,-0.8l-779.4,0l0,0.8Z" class="g2_264" />
</svg>