<?xml version="1.0" encoding="UTF-8" standalone="no"?>
<!DOCTYPE svg PUBLIC "-//W3C//DTD SVG 1.1//EN"
"http://www.w3.org/Graphics/SVG/1.1/DTD/svg11.dtd">
<svg viewBox="0 0 935 1210" version="1.1" xmlns="http://www.w3.org/2000/svg" xmlns:xlink="http://www.w3.org/1999/xlink">
<defs>
<style type="text/css"><![CDATA[
.g1_2185{
fill: #FFFFFF;
}
.g2_2185{
}
]]></style>
</defs>
<path d="M68.9,1149.3l783.8,0l0,-21.2l-783.8,0l0,21.2Z" class="g1_2185" />
<path d="M70,370.9l0.8,0l0,-246.8l-0.8,0l0,246.8Z" class="g2_2185" />
<path d="M187.6,371.6l0.8,0l0,-248.2l-0.8,0l0,248.2Z" class="g2_2185" />
<path d="M852,370.9l0.7,0l0,-246.8l-0.7,0l0,246.8Z" class="g2_2185" />
<path d="M70,124.1l782.7,0l0,-0.7L70,123.4l0,0.7Z" class="g2_2185" />
<path d="M70,147l782.7,0l0,-0.7L70,146.3l0,0.7Z" class="g2_2185" />
<path d="M70,183.7l782.7,0l0,-0.7L70,183l0,0.7Z" class="g2_2185" />
<path d="M70,220.4l782.7,0l0,-0.8L70,219.6l0,0.8Z" class="g2_2185" />
<path d="M70,243.3l782.7,0l0,-0.7L70,242.6l0,0.7Z" class="g2_2185" />
<path d="M70,266.2l782.7,0l0,-0.7L70,265.5l0,0.7Z" class="g2_2185" />
<path d="M70,289.1l782.7,0l0,-0.7L70,288.4l0,0.7Z" class="g2_2185" />
<path d="M70,325.8l782.7,0l0,-0.7L70,325.1l0,0.7Z" class="g2_2185" />
<path d="M70,348.7l782.7,0l0,-0.7L70,348l0,0.7Z" class="g2_2185" />
<path d="M70,371.6l782.7,0l0,-0.7L70,370.9l0,0.7Z" class="g2_2185" />
</svg>