<?xml version="1.0" encoding="UTF-8" standalone="no"?>
<!DOCTYPE svg PUBLIC "-//W3C//DTD SVG 1.1//EN"
"http://www.w3.org/Graphics/SVG/1.1/DTD/svg11.dtd">
<svg viewBox="0 0 935 1210" version="1.1" xmlns="http://www.w3.org/2000/svg" xmlns:xlink="http://www.w3.org/1999/xlink">
<defs>
<style type="text/css"><![CDATA[
.g1_687{
fill: #FFFFFF;
}
.g2_687{
}
]]></style>
</defs>
<path d="M68.9,1149.3l686.3,0l0,-21.2l-686.3,0l0,21.2Z" class="g1_687" />
<path d="M771.3,1149.3l83.7,0l0,-21.2l-83.7,0l0,21.2Z" class="g1_687" />
<path d="M72.1,998.8l0.7,0l0,-867l-0.7,0l0,867Z" class="g2_687" />
<path d="M221.1,999.6l0.7,0l0,-868.6l-0.7,0l0,868.6Z" class="g2_687" />
<path d="M390.2,999.6l0.8,0L391,131l-0.8,0l0,868.6Z" class="g2_687" />
<path d="M428,999.6l0.7,0l0,-868.6l-0.7,0l0,868.6Z" class="g2_687" />
<path d="M501.4,999.6l0.7,0l0,-868.6l-0.7,0l0,868.6Z" class="g2_687" />
<path d="M572.8,999.6l0.8,0l0,-868.6l-0.8,0l0,868.6Z" class="g2_687" />
<path d="M849.9,998.8l0.8,0l0,-867l-0.8,0l0,867Z" class="g2_687" />
<path d="M72.1,131.7l778.6,0l0,-0.7L72.1,131l0,0.7Z" class="g2_687" />
<path d="M72.1,169.9l778.6,0l0,-0.7l-778.6,0l0,0.7Z" class="g2_687" />
<path d="M72.1,192.9l778.6,0l0,-0.8l-778.6,0l0,0.8Z" class="g2_687" />
<path d="M72.1,215.8l778.6,0l0,-0.8L72.1,215l0,0.8Z" class="g2_687" />
<path d="M72.1,238.7l778.6,0l0,-0.7L72.1,238l0,0.7Z" class="g2_687" />
<path d="M72.1,261.6l778.6,0l0,-0.7l-778.6,0l0,0.7Z" class="g2_687" />
<path d="M72.1,284.5l778.6,0l0,-0.7l-778.6,0l0,0.7Z" class="g2_687" />
<path d="M72.1,307.4l778.6,0l0,-0.7l-778.6,0l0,0.7Z" class="g2_687" />
<path d="M72.1,330.4l778.6,0l0,-0.8l-778.6,0l0,0.8Z" class="g2_687" />
<path d="M72.1,353.3l778.6,0l0,-0.7l-778.6,0l0,0.7Z" class="g2_687" />
<path d="M72.1,376.2l778.6,0l0,-0.7l-778.6,0l0,0.7Z" class="g2_687" />
<path d="M72.1,399.1l778.6,0l0,-0.7l-778.6,0l0,0.7Z" class="g2_687" />
<path d="M72.1,422l778.6,0l0,-0.7l-778.6,0l0,0.7Z" class="g2_687" />
<path d="M72.1,461.8l778.6,0l0,-0.7l-778.6,0l0,0.7Z" class="g2_687" />
<path d="M72.1,484.7l778.6,0l0,-0.7L72.1,484l0,0.7Z" class="g2_687" />
<path d="M72.1,524.4l778.6,0l0,-0.7l-778.6,0l0,0.7Z" class="g2_687" />
<path d="M72.1,547.3l778.6,0l0,-0.7l-778.6,0l0,0.7Z" class="g2_687" />
<path d="M72.1,570.3l778.6,0l0,-0.8l-778.6,0l0,0.8Z" class="g2_687" />
<path d="M72.1,593.2l778.6,0l0,-0.8l-778.6,0l0,0.8Z" class="g2_687" />
<path d="M72.1,616.1l778.6,0l0,-0.7l-778.6,0l0,0.7Z" class="g2_687" />
<path d="M72.1,639l778.6,0l0,-0.7l-778.6,0l0,0.7Z" class="g2_687" />
<path d="M72.1,661.9l778.6,0l0,-0.7l-778.6,0l0,0.7Z" class="g2_687" />
<path d="M72.1,684.8l778.6,0l0,-0.7l-778.6,0l0,0.7Z" class="g2_687" />
<path d="M72.1,707.8l778.6,0l0,-0.8L72.1,707l0,0.8Z" class="g2_687" />
<path d="M72.1,730.7l778.6,0l0,-0.8l-778.6,0l0,0.8Z" class="g2_687" />
<path d="M72.1,753.6l778.6,0l0,-0.7l-778.6,0l0,0.7Z" class="g2_687" />
<path d="M72.1,776.5l778.6,0l0,-0.7l-778.6,0l0,0.7Z" class="g2_687" />
<path d="M72.1,799.4l778.6,0l0,-0.7l-778.6,0l0,0.7Z" class="g2_687" />
<path d="M72.1,822.3l778.6,0l0,-0.7l-778.6,0l0,0.7Z" class="g2_687" />
<path d="M72.1,845.3l778.6,0l0,-0.8l-778.6,0l0,0.8Z" class="g2_687" />
<path d="M72.1,868.2l778.6,0l0,-0.8l-778.6,0l0,0.8Z" class="g2_687" />
<path d="M72.1,891.1l778.6,0l0,-0.7l-778.6,0l0,0.7Z" class="g2_687" />
<path d="M72.1,914l778.6,0l0,-0.7l-778.6,0l0,0.7Z" class="g2_687" />
<path d="M72.1,936.9l778.6,0l0,-0.7l-778.6,0l0,0.7Z" class="g2_687" />
<path d="M72.1,959.8l778.6,0l0,-0.7l-778.6,0l0,0.7Z" class="g2_687" />
<path d="M72.1,999.5l778.6,0l0,-0.7l-778.6,0l0,0.7Z" class="g2_687" />
</svg>