<?xml version="1.0" encoding="UTF-8" standalone="no"?>
<!DOCTYPE svg PUBLIC "-//W3C//DTD SVG 1.1//EN"
"http://www.w3.org/Graphics/SVG/1.1/DTD/svg11.dtd">
<svg viewBox="0 0 935 1210" version="1.1" xmlns="http://www.w3.org/2000/svg" xmlns:xlink="http://www.w3.org/1999/xlink">
<defs>
<clipPath id="c0_259"><path d="M69.2,388.7l0,-29.6l784.3,0l0,29.6Z" /></clipPath>
<style type="text/css"><![CDATA[
.g1_259{
fill: #FFFFFF;
}
.g2_259{
}
]]></style>
</defs>
<path d="M68.9,1149.3l686.3,0l0,-21.2l-686.3,0l0,21.2Z" class="g1_259" />
<path d="M771.3,1149.3l83.7,0l0,-21.2l-83.7,0l0,21.2Z" class="g1_259" />
<g clip-path="url(#c0_259)">
<path d="M69.2,388.7l784.3,0l0,-29.6l-784.3,0l0,29.6Z" class="g1_259" />
</g>
<path d="M70.1,382l53.5,0l0,-12.5l-53.5,0l0,12.5Z" class="g1_259" />
<path d="M68.8,358.7l0.8,0l0,-234.6l-0.8,0l0,234.6Z" class="g2_259" />
<path d="M194.2,359.4l0.8,0l0,-236l-0.8,0l0,236Z" class="g2_259" />
<path d="M243.6,359.4l0.8,0l0,-236l-0.8,0l0,236Z" class="g2_259" />
<path d="M516.1,359.4l0.7,0l0,-236l-0.7,0l0,236Z" class="g2_259" />
<path d="M583.5,359.4l0.7,0l0,-211.5l-0.7,0l0,211.5Z" class="g2_259" />
<path d="M642.4,359.4l0.7,0l0,-211.5l-0.7,0l0,211.5Z" class="g2_259" />
<path d="M705,359.4l0.7,0l0,-211.5l-0.7,0l0,211.5Z" class="g2_259" />
<path d="M789.6,359.4l0.8,0l0,-236l-0.8,0l0,236Z" class="g2_259" />
<path d="M853.1,358.7l0.8,0l0,-234.6l-0.8,0l0,234.6Z" class="g2_259" />
<path d="M68.8,124.1l785.2,0l0,-0.7l-785.2,0l0,0.7Z" class="g2_259" />
<path d="M516.1,148.6l274.3,0l0,-0.7l-274.3,0l0,0.7Z" class="g2_259" />
<path d="M68.8,179.1l785.2,0l0,-0.7l-785.2,0l0,0.7Z" class="g2_259" />
<path d="M68.8,203.6l785.2,0l0,-0.7l-785.2,0l0,0.7Z" class="g2_259" />
<path d="M68.8,228L854,228l0,-0.8l-785.2,0l0,0.8Z" class="g2_259" />
<path d="M68.8,252.4l785.2,0l0,-0.7l-785.2,0l0,0.7Z" class="g2_259" />
<path d="M68.8,293.7l785.2,0l0,-0.7L68.8,293l0,0.7Z" class="g2_259" />
<path d="M68.8,318.2l785.2,0l0,-0.8l-785.2,0l0,0.8Z" class="g2_259" />
<path d="M68.8,359.4l785.2,0l0,-0.7l-785.2,0l0,0.7Z" class="g2_259" />
<path d="M72.3,942.9l0.8,0l0,-219.3l-0.8,0l0,219.3Z" class="g2_259" />
<path d="M465.9,943.6l0.7,0l0,-220.7l-0.7,0l0,220.7Z" class="g2_259" />
<path d="M849.7,942.9l0.7,0l0,-219.3l-0.7,0l0,219.3Z" class="g2_259" />
<path d="M72.3,723.6l778.1,0l0,-0.7l-778.1,0l0,0.7Z" class="g2_259" />
<path d="M72.3,748.1l778.1,0l0,-0.7l-778.1,0l0,0.7Z" class="g2_259" />
<path d="M72.3,772.5l778.1,0l0,-0.8l-778.1,0l0,0.8Z" class="g2_259" />
<path d="M72.3,797l778.1,0l0,-0.8l-778.1,0l0,0.8Z" class="g2_259" />
<path d="M72.3,821.4l778.1,0l0,-0.7l-778.1,0l0,0.7Z" class="g2_259" />
<path d="M72.3,845.8l778.1,0l0,-0.7l-778.1,0l0,0.7Z" class="g2_259" />
<path d="M72.3,870.3l778.1,0l0,-0.8l-778.1,0l0,0.8Z" class="g2_259" />
<path d="M72.3,894.8l778.1,0l0,-0.8L72.3,894l0,0.8Z" class="g2_259" />
<path d="M72.3,919.1l778.1,0l0,-0.7l-778.1,0l0,0.7Z" class="g2_259" />
<path d="M72.3,943.6l778.1,0l0,-0.7l-778.1,0l0,0.7Z" class="g2_259" />
</svg>