<?xml version="1.0" encoding="UTF-8" standalone="no"?>
<!DOCTYPE svg PUBLIC "-//W3C//DTD SVG 1.1//EN"
"http://www.w3.org/Graphics/SVG/1.1/DTD/svg11.dtd">
<svg viewBox="0 0 935 1210" version="1.1" xmlns="http://www.w3.org/2000/svg" xmlns:xlink="http://www.w3.org/1999/xlink">
<defs>
<style type="text/css"><![CDATA[
.g1_2106{
fill: #FFFFFF;
}
.g2_2106{
}
]]></style>
</defs>
<path d="M68.8,1149.3l783.7,0l0,-21.2l-783.7,0l0,21.2Z" class="g1_2106" />
<path d="M68.6,1081.3l0.7,0l0,-957.2l-0.7,0l0,957.2Z" class="g2_2106" />
<path d="M397.6,1082.1l0.7,0l0,-958.7l-0.7,0l0,958.7Z" class="g2_2106" />
<path d="M849.9,1081.3l0.8,0l0,-957.2l-0.8,0l0,957.2Z" class="g2_2106" />
<path d="M68.6,124.1l782.1,0l0,-0.7l-782.1,0l0,0.7Z" class="g2_2106" />
<path d="M68.6,148.6l782.1,0l0,-0.7l-782.1,0l0,0.7Z" class="g2_2106" />
<path d="M68.6,173l782.1,0l0,-0.8l-782.1,0l0,0.8Z" class="g2_2106" />
<path d="M68.6,197.4l782.1,0l0,-0.7l-782.1,0l0,0.7Z" class="g2_2106" />
<path d="M68.6,221.9l782.1,0l0,-0.7l-782.1,0l0,0.7Z" class="g2_2106" />
<path d="M68.6,246.3l782.1,0l0,-0.7l-782.1,0l0,0.7Z" class="g2_2106" />
<path d="M68.6,270.8l782.1,0l0,-0.7l-782.1,0l0,0.7Z" class="g2_2106" />
<path d="M68.6,295.3l782.1,0l0,-0.8l-782.1,0l0,0.8Z" class="g2_2106" />
<path d="M68.6,319.6l782.1,0l0,-0.7l-782.1,0l0,0.7Z" class="g2_2106" />
<path d="M68.6,344.1l782.1,0l0,-0.7l-782.1,0l0,0.7Z" class="g2_2106" />
<path d="M68.6,368.6l782.1,0l0,-0.7l-782.1,0l0,0.7Z" class="g2_2106" />
<path d="M68.6,393l782.1,0l0,-0.8l-782.1,0l0,0.8Z" class="g2_2106" />
<path d="M68.6,417.4l782.1,0l0,-0.7l-782.1,0l0,0.7Z" class="g2_2106" />
<path d="M68.6,441.9l782.1,0l0,-0.7l-782.1,0l0,0.7Z" class="g2_2106" />
<path d="M68.6,466.4l782.1,0l0,-0.7l-782.1,0l0,0.7Z" class="g2_2106" />
<path d="M68.6,490.8l782.1,0l0,-0.8L68.6,490l0,0.8Z" class="g2_2106" />
<path d="M68.6,515.3l782.1,0l0,-0.8l-782.1,0l0,0.8Z" class="g2_2106" />
<path d="M68.6,554.9l782.1,0l0,-0.7l-782.1,0l0,0.7Z" class="g2_2106" />
<path d="M68.6,579.4l782.1,0l0,-0.7l-782.1,0l0,0.7Z" class="g2_2106" />
<path d="M68.6,619.1l782.1,0l0,-0.7l-782.1,0l0,0.7Z" class="g2_2106" />
<path d="M68.6,643.6l782.1,0l0,-0.7l-782.1,0l0,0.7Z" class="g2_2106" />
<path d="M68.6,668.1l782.1,0l0,-0.8l-782.1,0l0,0.8Z" class="g2_2106" />
<path d="M68.6,692.4l782.1,0l0,-0.7l-782.1,0l0,0.7Z" class="g2_2106" />
<path d="M68.6,716.9l782.1,0l0,-0.7l-782.1,0l0,0.7Z" class="g2_2106" />
<path d="M68.6,741.4l782.1,0l0,-0.7l-782.1,0l0,0.7Z" class="g2_2106" />
<path d="M68.6,765.8l782.1,0l0,-0.7l-782.1,0l0,0.7Z" class="g2_2106" />
<path d="M68.6,807l782.1,0l0,-0.7l-782.1,0l0,0.7Z" class="g2_2106" />
<path d="M68.6,831.5l782.1,0l0,-0.7l-782.1,0l0,0.7Z" class="g2_2106" />
<path d="M68.6,856l782.1,0l0,-0.8l-782.1,0l0,0.8Z" class="g2_2106" />
<path d="M68.6,895.7l782.1,0l0,-0.8l-782.1,0l0,0.8Z" class="g2_2106" />
<path d="M68.6,920.2l782.1,0l0,-0.8l-782.1,0l0,0.8Z" class="g2_2106" />
<path d="M68.6,944.5l782.1,0l0,-0.7l-782.1,0l0,0.7Z" class="g2_2106" />
<path d="M68.6,984.3l782.1,0l0,-0.7l-782.1,0l0,0.7Z" class="g2_2106" />
<path d="M68.6,1008.7l782.1,0l0,-0.7l-782.1,0l0,0.7Z" class="g2_2106" />
<path d="M68.6,1033.2l782.1,0l0,-0.8l-782.1,0l0,0.8Z" class="g2_2106" />
<path d="M68.6,1057.7l782.1,0l0,-0.8l-782.1,0l0,0.8Z" class="g2_2106" />
<path d="M68.6,1082l782.1,0l0,-0.7l-782.1,0l0,0.7Z" class="g2_2106" />
</svg>