<?xml version="1.0" encoding="UTF-8" standalone="no"?>
<!DOCTYPE svg PUBLIC "-//W3C//DTD SVG 1.1//EN"
"http://www.w3.org/Graphics/SVG/1.1/DTD/svg11.dtd">
<svg viewBox="0 0 935 1210" version="1.1" xmlns="http://www.w3.org/2000/svg" xmlns:xlink="http://www.w3.org/1999/xlink">
<defs>
<style type="text/css"><![CDATA[
.g1_160{
fill: #FFFFFF;
}
.g2_160{
}
]]></style>
</defs>
<path d="M165,1149.3l687.5,0l0,-21.2l-687.5,0l0,21.2Z" class="g1_160" />
<path d="M68.8,1149.3l82.5,0l0,-21.2l-82.5,0l0,21.2Z" class="g1_160" />
<path d="M68.4,291.4l0.7,0l0,-165.7l-0.7,0l0,165.7Z" class="g2_160" />
<path d="M391.1,292.2l0.8,0l0,-167.3l-0.8,0l0,167.3Z" class="g2_160" />
<path d="M429,292.2l0.7,0l0,-167.3l-0.7,0l0,167.3Z" class="g2_160" />
<path d="M502.3,292.2l0.8,0l0,-167.3l-0.8,0l0,167.3Z" class="g2_160" />
<path d="M573.7,292.2l0.7,0l0,-167.3l-0.7,0l0,167.3Z" class="g2_160" />
<path d="M852,291.4l0.7,0l0,-165.7l-0.7,0l0,165.7Z" class="g2_160" />
<path d="M68.4,125.7l784.4,0l0,-0.8l-784.4,0l0,0.8Z" class="g2_160" />
<path d="M68.4,179.1l784.4,0l0,-0.7l-784.4,0l0,0.7Z" class="g2_160" />
<path d="M68.4,235.7l784.4,0l0,-0.8l-784.4,0l0,0.8Z" class="g2_160" />
<path d="M68.4,292.1l784.4,0l0,-0.7l-784.4,0l0,0.7Z" class="g2_160" />
<path d="M68.6,395.4l0.7,0l0,-48.2l-0.7,0l0,48.2Z" class="g2_160" />
<path d="M137,396.1l0.8,0l0,-49.7l-0.8,0l0,49.7Z" class="g2_160" />
<path d="M314.7,396.1l0.7,0l0,-49.7l-0.7,0l0,49.7Z" class="g2_160" />
<path d="M496.8,396.1l0.8,0l0,-49.7l-0.8,0l0,49.7Z" class="g2_160" />
<path d="M674.8,396.1l0.7,0l0,-49.7l-0.7,0l0,49.7Z" class="g2_160" />
<path d="M851.9,395.4l0.7,0l0,-48.2l-0.7,0l0,48.2Z" class="g2_160" />
<path d="M68.5,347.1l784.1,0l0,-0.7l-784.1,0l0,0.7Z" class="g2_160" />
<path d="M68.5,371.6l784.1,0l0,-0.7l-784.1,0l0,0.7Z" class="g2_160" />
<path d="M68.5,396.1l784.1,0l0,-0.7l-784.1,0l0,0.7Z" class="g2_160" />
</svg>