<?xml version="1.0" encoding="UTF-8" standalone="no"?>
<!DOCTYPE svg PUBLIC "-//W3C//DTD SVG 1.1//EN"
"http://www.w3.org/Graphics/SVG/1.1/DTD/svg11.dtd">
<svg viewBox="0 0 935 1210" version="1.1" xmlns="http://www.w3.org/2000/svg" xmlns:xlink="http://www.w3.org/1999/xlink">
<defs>
<style type="text/css"><![CDATA[
.g1_217{
fill: #FFFFFF;
}
.g2_217{
}
]]></style>
</defs>
<path d="M68.9,1149.3l686.3,0l0,-21.2l-686.3,0l0,21.2Z" class="g1_217" />
<path d="M771.3,1149.3l83.7,0l0,-21.2l-83.7,0l0,21.2Z" class="g1_217" />
<path d="M70.3,300.6l0.7,0L71,125.7l-0.7,0l0,174.9Z" class="g2_217" />
<path d="M221,301.4l0.7,0l0,-176.5l-0.7,0l0,176.5Z" class="g2_217" />
<path d="M391.9,301.4l0.7,0l0,-176.5l-0.7,0l0,176.5Z" class="g2_217" />
<path d="M429.7,301.4l0.8,0l0,-176.5l-0.8,0l0,176.5Z" class="g2_217" />
<path d="M503.1,301.4l0.7,0l0,-176.5l-0.7,0l0,176.5Z" class="g2_217" />
<path d="M574.5,301.4l0.7,0l0,-176.5l-0.7,0l0,176.5Z" class="g2_217" />
<path d="M851.7,300.6l0.7,0l0,-174.9l-0.7,0l0,174.9Z" class="g2_217" />
<path d="M70.3,125.7l782.1,0l0,-0.8l-782.1,0l0,0.8Z" class="g2_217" />
<path d="M70.3,163.8l782.1,0l0,-0.7l-782.1,0l0,0.7Z" class="g2_217" />
<path d="M70.3,186.7l782.1,0l0,-0.7L70.3,186l0,0.7Z" class="g2_217" />
<path d="M70.3,209.6l782.1,0l0,-0.7l-782.1,0l0,0.7Z" class="g2_217" />
<path d="M70.3,232.6l782.1,0l0,-0.8l-782.1,0l0,0.8Z" class="g2_217" />
<path d="M70.3,255.5l782.1,0l0,-0.8l-782.1,0l0,0.8Z" class="g2_217" />
<path d="M70.3,278.4l782.1,0l0,-0.7l-782.1,0l0,0.7Z" class="g2_217" />
<path d="M70.3,301.3l782.1,0l0,-0.7l-782.1,0l0,0.7Z" class="g2_217" />
<path d="M70.5,428.9l0.7,0l0,-72.5l-0.7,0l0,72.5Z" class="g2_217" />
<path d="M134.7,429.7l0.8,0l0,-74.1l-0.8,0l0,74.1Z" class="g2_217" />
<path d="M311.5,429.7l0.7,0l0,-74.1l-0.7,0l0,74.1Z" class="g2_217" />
<path d="M485.6,429.7l0.7,0l0,-74.1l-0.7,0l0,74.1Z" class="g2_217" />
<path d="M663.7,429.7l0.7,0l0,-74.1l-0.7,0l0,74.1Z" class="g2_217" />
<path d="M851.5,428.9l0.7,0l0,-72.5l-0.7,0l0,72.5Z" class="g2_217" />
<path d="M70.5,356.3l781.8,0l0,-0.7l-781.8,0l0,0.7Z" class="g2_217" />
<path d="M70.5,380.8l781.8,0l0,-0.8L70.5,380l0,0.8Z" class="g2_217" />
<path d="M70.5,405.3l781.8,0l0,-0.8l-781.8,0l0,0.8Z" class="g2_217" />
<path d="M70.5,429.7l781.8,0l0,-0.7L70.5,429l0,0.7Z" class="g2_217" />
</svg>