<?xml version="1.0" encoding="UTF-8" standalone="no"?>
<!DOCTYPE svg PUBLIC "-//W3C//DTD SVG 1.1//EN"
"http://www.w3.org/Graphics/SVG/1.1/DTD/svg11.dtd">
<svg viewBox="0 0 935 1210" version="1.1" xmlns="http://www.w3.org/2000/svg" xmlns:xlink="http://www.w3.org/1999/xlink">
<defs>
<style type="text/css"><![CDATA[
.g1_2085{
fill: #FFFFFF;
}
.g2_2085{
}
]]></style>
</defs>
<path d="M68.9,1149.3l783.8,0l0,-21.2l-783.8,0l0,21.2Z" class="g1_2085" />
<path d="M69.9,1095.1l0.8,0l0,-971l-0.8,0l0,971Z" class="g2_2085" />
<path d="M469,1095.9l0.7,0l0,-972.5l-0.7,0l0,972.5Z" class="g2_2085" />
<path d="M852.5,1095.1l0.7,0l0,-971l-0.7,0l0,971Z" class="g2_2085" />
<path d="M69.9,124.1l783.4,0l0,-0.7l-783.4,0l0,0.7Z" class="g2_2085" />
<path d="M69.9,148.6l783.4,0l0,-0.7l-783.4,0l0,0.7Z" class="g2_2085" />
<path d="M69.9,173l783.4,0l0,-0.8l-783.4,0l0,0.8Z" class="g2_2085" />
<path d="M69.9,197.4l783.4,0l0,-0.7l-783.4,0l0,0.7Z" class="g2_2085" />
<path d="M69.9,221.9l783.4,0l0,-0.7l-783.4,0l0,0.7Z" class="g2_2085" />
<path d="M69.9,246.3l783.4,0l0,-0.7l-783.4,0l0,0.7Z" class="g2_2085" />
<path d="M69.9,287.6l783.4,0l0,-0.8l-783.4,0l0,0.8Z" class="g2_2085" />
<path d="M69.9,312l783.4,0l0,-0.7l-783.4,0l0,0.7Z" class="g2_2085" />
<path d="M69.9,353.3l783.4,0l0,-0.7l-783.4,0l0,0.7Z" class="g2_2085" />
<path d="M69.9,377.8l783.4,0l0,-0.8L69.9,377l0,0.8Z" class="g2_2085" />
<path d="M69.9,402.2l783.4,0l0,-0.7l-783.4,0l0,0.7Z" class="g2_2085" />
<path d="M69.9,426.6l783.4,0l0,-0.7l-783.4,0l0,0.7Z" class="g2_2085" />
<path d="M69.9,451.1l783.4,0l0,-0.7l-783.4,0l0,0.7Z" class="g2_2085" />
<path d="M69.9,475.6l783.4,0l0,-0.8l-783.4,0l0,0.8Z" class="g2_2085" />
<path d="M69.9,499.9l783.4,0l0,-0.7l-783.4,0l0,0.7Z" class="g2_2085" />
<path d="M69.9,524.4l783.4,0l0,-0.7l-783.4,0l0,0.7Z" class="g2_2085" />
<path d="M69.9,548.9l783.4,0l0,-0.7l-783.4,0l0,0.7Z" class="g2_2085" />
<path d="M69.9,573.3l783.4,0l0,-0.7l-783.4,0l0,0.7Z" class="g2_2085" />
<path d="M69.9,597.8l783.4,0l0,-0.8L69.9,597l0,0.8Z" class="g2_2085" />
<path d="M69.9,622.2l783.4,0l0,-0.7l-783.4,0l0,0.7Z" class="g2_2085" />
<path d="M69.9,646.6l783.4,0l0,-0.7l-783.4,0l0,0.7Z" class="g2_2085" />
<path d="M69.9,671.1l783.4,0l0,-0.7l-783.4,0l0,0.7Z" class="g2_2085" />
<path d="M69.9,695.6l783.4,0l0,-0.8l-783.4,0l0,0.8Z" class="g2_2085" />
<path d="M69.9,719.9l783.4,0l0,-0.7l-783.4,0l0,0.7Z" class="g2_2085" />
<path d="M69.9,744.4l783.4,0l0,-0.7l-783.4,0l0,0.7Z" class="g2_2085" />
<path d="M69.9,768.9l783.4,0l0,-0.7l-783.4,0l0,0.7Z" class="g2_2085" />
<path d="M69.9,793.3l783.4,0l0,-0.7l-783.4,0l0,0.7Z" class="g2_2085" />
<path d="M69.9,817.8l783.4,0l0,-0.8L69.9,817l0,0.8Z" class="g2_2085" />
<path d="M69.9,842.2l783.4,0l0,-0.7l-783.4,0l0,0.7Z" class="g2_2085" />
<path d="M69.9,866.6l783.4,0l0,-0.7l-783.4,0l0,0.7Z" class="g2_2085" />
<path d="M69.9,891.1l783.4,0l0,-0.7l-783.4,0l0,0.7Z" class="g2_2085" />
<path d="M69.9,915.6l783.4,0l0,-0.8l-783.4,0l0,0.8Z" class="g2_2085" />
<path d="M69.9,940l783.4,0l0,-0.8l-783.4,0l0,0.8Z" class="g2_2085" />
<path d="M69.9,964.4l783.4,0l0,-0.7l-783.4,0l0,0.7Z" class="g2_2085" />
<path d="M69.9,1005.7l783.4,0l0,-0.8l-783.4,0l0,0.8Z" class="g2_2085" />
<path d="M69.9,1030.2l783.4,0l0,-0.8l-783.4,0l0,0.8Z" class="g2_2085" />
<path d="M69.9,1071.4l783.4,0l0,-0.7l-783.4,0l0,0.7Z" class="g2_2085" />
<path d="M69.9,1095.8l783.4,0l0,-0.8l-783.4,0l0,0.8Z" class="g2_2085" />
</svg>