<?xml version="1.0" encoding="UTF-8" standalone="no"?>
<!DOCTYPE svg PUBLIC "-//W3C//DTD SVG 1.1//EN"
"http://www.w3.org/Graphics/SVG/1.1/DTD/svg11.dtd">
<svg viewBox="0 0 935 1210" version="1.1" xmlns="http://www.w3.org/2000/svg" xmlns:xlink="http://www.w3.org/1999/xlink">
<defs>
<style type="text/css"><![CDATA[
.g1_52{
fill: #FFFFFF;
}
.g2_52{
}
]]></style>
</defs>
<path d="M68.8,1149.3l783.7,0l0,-21.2l-783.7,0l0,21.2Z" class="g1_52" />
<path d="M71.3,602.5l0.4,0l0,-149.3l-0.4,0l0,149.3Z" class="g2_52" />
<path d="M468.3,602.9l0.4,0l0,-150.1l-0.4,0l0,150.1Z" class="g2_52" />
<path d="M849.4,602.5l0.4,0l0,-149.3l-0.4,0l0,149.3Z" class="g2_52" />
<path d="M71.3,453.2l778.5,0l0,-0.4l-778.5,0l0,0.4Z" class="g2_52" />
<path d="M71.3,474.6l778.5,0l0,-0.4l-778.5,0l0,0.4Z" class="g2_52" />
<path d="M71.3,496l778.5,0l0,-0.4l-778.5,0l0,0.4Z" class="g2_52" />
<path d="M71.3,517.4l778.5,0l0,-0.4L71.3,517l0,0.4Z" class="g2_52" />
<path d="M71.3,538.7l778.5,0l0,-0.3l-778.5,0l0,0.3Z" class="g2_52" />
<path d="M71.3,560.2l778.5,0l0,-0.4l-778.5,0l0,0.4Z" class="g2_52" />
<path d="M71.3,581.5l778.5,0l0,-0.3l-778.5,0l0,0.3Z" class="g2_52" />
<path d="M71.3,602.9l778.5,0l0,-0.4l-778.5,0l0,0.4Z" class="g2_52" />
<path d="M70.5,904.3l0.4,0l0,-63.8l-0.4,0l0,63.8Z" class="g2_52" />
<path d="M321.7,904.7l0.3,0l0,-64.6l-0.3,0l0,64.6Z" class="g2_52" />
<path d="M850.3,904.3l0.4,0l0,-63.8l-0.4,0l0,63.8Z" class="g2_52" />
<path d="M70.5,840.5l780.2,0l0,-0.4l-780.2,0l0,0.4Z" class="g2_52" />
<path d="M70.5,861.9l780.2,0l0,-0.4l-780.2,0l0,0.4Z" class="g2_52" />
<path d="M70.5,883.3l780.2,0l0,-0.4l-780.2,0l0,0.4Z" class="g2_52" />
<path d="M70.5,904.7l780.2,0l0,-0.4l-780.2,0l0,0.4Z" class="g2_52" />
</svg>