<?xml version="1.0" encoding="UTF-8" standalone="no"?>
<!DOCTYPE svg PUBLIC "-//W3C//DTD SVG 1.1//EN"
"http://www.w3.org/Graphics/SVG/1.1/DTD/svg11.dtd">
<svg viewBox="0 0 935 1210" version="1.1" xmlns="http://www.w3.org/2000/svg" xmlns:xlink="http://www.w3.org/1999/xlink">
<defs>
<style type="text/css"><![CDATA[
.g1_2120{
fill: #FFFFFF;
}
.g2_2120{
}
]]></style>
</defs>
<path d="M68.8,1149.3l783.7,0l0,-21.2l-783.7,0l0,21.2Z" class="g1_2120" />
<path d="M68.6,1069.1l0.7,0l0,-945l-0.7,0l0,945Z" class="g2_2120" />
<path d="M445.7,1069.8l0.7,0l0,-946.4l-0.7,0l0,946.4Z" class="g2_2120" />
<path d="M849.9,1069.1l0.8,0l0,-945l-0.8,0l0,945Z" class="g2_2120" />
<path d="M68.6,124.1l782.1,0l0,-0.7l-782.1,0l0,0.7Z" class="g2_2120" />
<path d="M68.6,148.6l782.1,0l0,-0.7l-782.1,0l0,0.7Z" class="g2_2120" />
<path d="M68.6,173l782.1,0l0,-0.8l-782.1,0l0,0.8Z" class="g2_2120" />
<path d="M68.6,214.2l782.1,0l0,-0.7l-782.1,0l0,0.7Z" class="g2_2120" />
<path d="M68.6,255.5l782.1,0l0,-0.8l-782.1,0l0,0.8Z" class="g2_2120" />
<path d="M68.6,279.9l782.1,0l0,-0.7l-782.1,0l0,0.7Z" class="g2_2120" />
<path d="M68.6,321.2l782.1,0l0,-0.7l-782.1,0l0,0.7Z" class="g2_2120" />
<path d="M68.6,379.2l782.1,0l0,-0.7l-782.1,0l0,0.7Z" class="g2_2120" />
<path d="M68.6,403.7l782.1,0l0,-0.7L68.6,403l0,0.7Z" class="g2_2120" />
<path d="M68.6,444.9l782.1,0l0,-0.7l-782.1,0l0,0.7Z" class="g2_2120" />
<path d="M68.6,486.2l782.1,0l0,-0.7l-782.1,0l0,0.7Z" class="g2_2120" />
<path d="M68.6,510.7l782.1,0l0,-0.8l-782.1,0l0,0.8Z" class="g2_2120" />
<path d="M68.6,551.9l782.1,0l0,-0.7l-782.1,0l0,0.7Z" class="g2_2120" />
<path d="M68.6,593.2l782.1,0l0,-0.8l-782.1,0l0,0.8Z" class="g2_2120" />
<path d="M68.6,617.7l782.1,0l0,-0.8l-782.1,0l0,0.8Z" class="g2_2120" />
<path d="M68.6,658.9l782.1,0l0,-0.7l-782.1,0l0,0.7Z" class="g2_2120" />
<path d="M68.6,700.2l782.1,0l0,-0.8l-782.1,0l0,0.8Z" class="g2_2120" />
<path d="M68.6,724.5l782.1,0l0,-0.7l-782.1,0l0,0.7Z" class="g2_2120" />
<path d="M68.6,765.8l782.1,0l0,-0.7l-782.1,0l0,0.7Z" class="g2_2120" />
<path d="M68.6,807l782.1,0l0,-0.7l-782.1,0l0,0.7Z" class="g2_2120" />
<path d="M68.6,831.5l782.1,0l0,-0.7l-782.1,0l0,0.7Z" class="g2_2120" />
<path d="M68.6,872.8l782.1,0l0,-0.8L68.6,872l0,0.8Z" class="g2_2120" />
<path d="M68.6,897.2l782.1,0l0,-0.7l-782.1,0l0,0.7Z" class="g2_2120" />
<path d="M68.6,921.6l782.1,0l0,-0.7l-782.1,0l0,0.7Z" class="g2_2120" />
<path d="M68.6,962.9l782.1,0l0,-0.8l-782.1,0l0,0.8Z" class="g2_2120" />
<path d="M68.6,1004.1l782.1,0l0,-0.7l-782.1,0l0,0.7Z" class="g2_2120" />
<path d="M68.6,1028.6l782.1,0l0,-0.7l-782.1,0l0,0.7Z" class="g2_2120" />
<path d="M68.6,1069.8l782.1,0l0,-0.7l-782.1,0l0,0.7Z" class="g2_2120" />
</svg>