<?xml version="1.0" encoding="UTF-8" standalone="no"?>
<!DOCTYPE svg PUBLIC "-//W3C//DTD SVG 1.1//EN"
"http://www.w3.org/Graphics/SVG/1.1/DTD/svg11.dtd">
<svg viewBox="0 0 935 1210" version="1.1" xmlns="http://www.w3.org/2000/svg" xmlns:xlink="http://www.w3.org/1999/xlink">
<defs>
<style type="text/css"><![CDATA[
.g1_1132{
fill: #FFFFFF;
}
.g2_1132{
}
]]></style>
</defs>
<path d="M165,1149.3l687.5,0l0,-21.2l-687.5,0l0,21.2Z" class="g1_1132" />
<path d="M68.8,1149.3l82.5,0l0,-21.2l-82.5,0l0,21.2Z" class="g1_1132" />
<path d="M68.9,179.9l0.8,0l0,-72.6l-0.8,0l0,72.6Z" class="g2_1132" />
<path d="M374.5,180.7l0.7,0l0,-74.1l-0.7,0l0,74.1Z" class="g2_1132" />
<path d="M412.3,180.7l0.8,0l0,-74.1l-0.8,0l0,74.1Z" class="g2_1132" />
<path d="M485.7,180.7l0.8,0l0,-74.1l-0.8,0l0,74.1Z" class="g2_1132" />
<path d="M565.1,180.7l0.8,0l0,-74.1l-0.8,0l0,74.1Z" class="g2_1132" />
<path d="M851.4,179.9l0.7,0l0,-72.6l-0.7,0l0,72.6Z" class="g2_1132" />
<path d="M68.9,107.3l783.3,0l0,-0.7l-783.3,0l0,0.7Z" class="g2_1132" />
<path d="M68.9,180.7l783.3,0l0,-0.8l-783.3,0l0,0.8Z" class="g2_1132" />
<path d="M70.2,407.6l0.8,0l0,-97l-0.8,0l0,97Z" class="g2_1132" />
<path d="M138.7,408.3l0.7,0l0,-98.6l-0.7,0l0,98.6Z" class="g2_1132" />
<path d="M316.7,408.3l0.7,0l0,-98.6l-0.7,0l0,98.6Z" class="g2_1132" />
<path d="M495.6,408.3l0.8,0l0,-98.6l-0.8,0l0,98.6Z" class="g2_1132" />
<path d="M670.3,408.3l0.7,0l0,-98.6l-0.7,0l0,98.6Z" class="g2_1132" />
<path d="M850.1,407.6l0.7,0l0,-97l-0.7,0l0,97Z" class="g2_1132" />
<path d="M70.2,310.5l780.7,0l0,-0.8l-780.7,0l0,0.8Z" class="g2_1132" />
<path d="M70.2,334.9l780.7,0l0,-0.7l-780.7,0l0,0.7Z" class="g2_1132" />
<path d="M70.2,359.4l780.7,0l0,-0.7l-780.7,0l0,0.7Z" class="g2_1132" />
<path d="M70.2,383.8l780.7,0l0,-0.7l-780.7,0l0,0.7Z" class="g2_1132" />
<path d="M70.2,408.3l780.7,0l0,-0.8l-780.7,0l0,0.8Z" class="g2_1132" />
</svg>