<?xml version="1.0" encoding="UTF-8" standalone="no"?>
<!DOCTYPE svg PUBLIC "-//W3C//DTD SVG 1.1//EN"
"http://www.w3.org/Graphics/SVG/1.1/DTD/svg11.dtd">
<svg viewBox="0 0 935 1210" version="1.1" xmlns="http://www.w3.org/2000/svg" xmlns:xlink="http://www.w3.org/1999/xlink">
<defs>
<style type="text/css"><![CDATA[
.g1_51{
fill: #FFFFFF;
}
.g2_51{
}
]]></style>
</defs>
<path d="M68.9,1149.3l783.8,0l0,-21.2l-783.8,0l0,21.2Z" class="g1_51" />
<path d="M70.4,485.7l0.4,0l0,-363.3l-0.4,0l0,363.3Z" class="g2_51" />
<path d="M234.9,486l0.3,0l0,-364l-0.3,0l0,364Z" class="g2_51" />
<path d="M491.6,486l0.4,0l0,-364l-0.4,0l0,364Z" class="g2_51" />
<path d="M852,485.7l0.3,0l0,-363.3l-0.3,0l0,363.3Z" class="g2_51" />
<path d="M70.4,122.4l781.9,0l0,-0.4L70.4,122l0,0.4Z" class="g2_51" />
<path d="M70.4,143.8l781.9,0l0,-0.3l-781.9,0l0,0.3Z" class="g2_51" />
<path d="M70.4,165.2l781.9,0l0,-0.4l-781.9,0l0,0.4Z" class="g2_51" />
<path d="M70.4,186.5l781.9,0l0,-0.3l-781.9,0l0,0.3Z" class="g2_51" />
<path d="M70.4,208l781.9,0l0,-0.4l-781.9,0l0,0.4Z" class="g2_51" />
<path d="M70.4,229.3l781.9,0l0,-0.3L70.4,229l0,0.3Z" class="g2_51" />
<path d="M70.4,250.7l781.9,0l0,-0.4l-781.9,0l0,0.4Z" class="g2_51" />
<path d="M70.4,272.2l781.9,0l0,-0.4l-781.9,0l0,0.4Z" class="g2_51" />
<path d="M70.4,293.5l781.9,0l0,-0.3l-781.9,0l0,0.3Z" class="g2_51" />
<path d="M70.4,314.9l781.9,0l0,-0.4l-781.9,0l0,0.4Z" class="g2_51" />
<path d="M70.4,336.3l781.9,0l0,-0.3L70.4,336l0,0.3Z" class="g2_51" />
<path d="M70.4,357.7l781.9,0l0,-0.4l-781.9,0l0,0.4Z" class="g2_51" />
<path d="M70.4,379l781.9,0l0,-0.3l-781.9,0l0,0.3Z" class="g2_51" />
<path d="M70.4,400.5l781.9,0l0,-0.4l-781.9,0l0,0.4Z" class="g2_51" />
<path d="M70.4,421.8l781.9,0l0,-0.3l-781.9,0l0,0.3Z" class="g2_51" />
<path d="M70.4,443.3l781.9,0l0,-0.4l-781.9,0l0,0.4Z" class="g2_51" />
<path d="M70.4,464.7l781.9,0l0,-0.4l-781.9,0l0,0.4Z" class="g2_51" />
<path d="M70.4,486l781.9,0l0,-0.3l-781.9,0l0,0.3Z" class="g2_51" />
<path d="M71.3,1087.6l0.4,0l0,-234.9l-0.4,0l0,234.9Z" class="g2_51" />
<path d="M509.6,1088l0.3,0l0,-235.7l-0.3,0l0,235.7Z" class="g2_51" />
<path d="M851,1087.6l0.4,0l0,-234.9l-0.4,0l0,234.9Z" class="g2_51" />
<path d="M71.3,852.7l780.1,0l0,-0.4l-780.1,0l0,0.4Z" class="g2_51" />
<path d="M71.3,874.1l780.1,0l0,-0.3l-780.1,0l0,0.3Z" class="g2_51" />
<path d="M71.3,895.5l780.1,0l0,-0.4l-780.1,0l0,0.4Z" class="g2_51" />
<path d="M71.3,916.9l780.1,0l0,-0.4l-780.1,0l0,0.4Z" class="g2_51" />
<path d="M71.3,938.3l780.1,0l0,-0.4l-780.1,0l0,0.4Z" class="g2_51" />
<path d="M71.3,959.7l780.1,0l0,-0.4l-780.1,0l0,0.4Z" class="g2_51" />
<path d="M71.3,981l780.1,0l0,-0.4l-780.1,0l0,0.4Z" class="g2_51" />
<path d="M71.3,1002.5l780.1,0l0,-0.4l-780.1,0l0,0.4Z" class="g2_51" />
<path d="M71.3,1023.8l780.1,0l0,-0.3l-780.1,0l0,0.3Z" class="g2_51" />
<path d="M71.3,1045.2l780.1,0l0,-0.4l-780.1,0l0,0.4Z" class="g2_51" />
<path d="M71.3,1066.6l780.1,0l0,-0.3l-780.1,0l0,0.3Z" class="g2_51" />
<path d="M71.3,1088l780.1,0l0,-0.4l-780.1,0l0,0.4Z" class="g2_51" />
</svg>