<?xml version="1.0" encoding="UTF-8" standalone="no"?>
<!DOCTYPE svg PUBLIC "-//W3C//DTD SVG 1.1//EN"
"http://www.w3.org/Graphics/SVG/1.1/DTD/svg11.dtd">
<svg viewBox="0 0 935 1210" version="1.1" xmlns="http://www.w3.org/2000/svg" xmlns:xlink="http://www.w3.org/1999/xlink">
<defs>
<style type="text/css"><![CDATA[
.g1_2046{
fill: #FFFFFF;
}
.g2_2046{
}
]]></style>
</defs>
<path d="M68.8,1149l784.5,0l0,-21.4l-784.5,0l0,21.4Z" class="g1_2046" />
<path d="M67.5,374.7l2.3,0l0,-203.9l-2.3,0l0,203.9Z" class="g2_2046" />
<path d="M67.5,603.9l2.3,0l0,-204l-2.3,0l0,204Z" class="g2_2046" />
<path d="M104,377l2.2,0l0,-208.5l-2.2,0L104,377Z" class="g2_2046" />
<path d="M104,606.2l2.2,0l0,-208.5l-2.2,0l0,208.5Z" class="g2_2046" />
<path d="M202.6,193.7l0.7,0l0,-25.2l-0.7,0l0,25.2Z" class="g2_2046" />
<path d="M202.6,238.7l0.7,0l0,-23.6l-0.7,0l0,23.6Z" class="g2_2046" />
<path d="M202.6,330.4l0.7,0l0,-69.5l-0.7,0l0,69.5Z" class="g2_2046" />
<path d="M202.6,377l0.7,0l0,-24.4l-0.7,0l0,24.4Z" class="g2_2046" />
<path d="M202.6,422.9l0.7,0l0,-25.2l-0.7,0l0,25.2Z" class="g2_2046" />
<path d="M202.6,467.9l0.7,0l0,-23.7l-0.7,0l0,23.7Z" class="g2_2046" />
<path d="M202.6,513.7l0.7,0l0,-23.7l-0.7,0l0,23.7Z" class="g2_2046" />
<path d="M202.6,606.2l0.7,0l0,-70.3l-0.7,0l0,70.3Z" class="g2_2046" />
<path d="M294.3,193.7l0.8,0l0,-25.2l-0.8,0l0,25.2Z" class="g2_2046" />
<path d="M294.3,238.7l0.8,0l0,-23.6l-0.8,0l0,23.6Z" class="g2_2046" />
<path d="M294.3,330.4l0.8,0l0,-69.5l-0.8,0l0,69.5Z" class="g2_2046" />
<path d="M294.3,377l0.8,0l0,-24.4l-0.8,0l0,24.4Z" class="g2_2046" />
<path d="M294.3,422.9l0.8,0l0,-25.2l-0.8,0l0,25.2Z" class="g2_2046" />
<path d="M294.3,467.9l0.8,0l0,-23.7l-0.8,0l0,23.7Z" class="g2_2046" />
<path d="M294.3,513.7l0.8,0l0,-23.7l-0.8,0l0,23.7Z" class="g2_2046" />
<path d="M294.3,606.2l0.8,0l0,-70.3l-0.8,0l0,70.3Z" class="g2_2046" />
<path d="M386.3,193.7l0.7,0l0,-25.2l-0.7,0l0,25.2Z" class="g2_2046" />
<path d="M386.3,238.7l0.7,0l0,-23.6l-0.7,0l0,23.6Z" class="g2_2046" />
<path d="M386.3,330.4l0.7,0l0,-69.5l-0.7,0l0,69.5Z" class="g2_2046" />
<path d="M386.3,377l0.7,0l0,-24.4l-0.7,0l0,24.4Z" class="g2_2046" />
<path d="M386.3,422.9l0.7,0l0,-25.2l-0.7,0l0,25.2Z" class="g2_2046" />
<path d="M386.3,467.9l0.7,0l0,-23.7l-0.7,0l0,23.7Z" class="g2_2046" />
<path d="M386.3,513.7l0.7,0L387,490l-0.7,0l0,23.7Z" class="g2_2046" />
<path d="M386.3,606.2l0.7,0l0,-70.3l-0.7,0l0,70.3Z" class="g2_2046" />
<path d="M478.3,193.7l0.8,0l0,-25.2l-0.8,0l0,25.2Z" class="g2_2046" />
<path d="M478.3,238.7l0.8,0l0,-23.6l-0.8,0l0,23.6Z" class="g2_2046" />
<path d="M478.3,330.4l0.8,0l0,-69.5l-0.8,0l0,69.5Z" class="g2_2046" />
<path d="M478.3,377l0.8,0l0,-24.4l-0.8,0l0,24.4Z" class="g2_2046" />
<path d="M478.3,422.9l0.8,0l0,-25.2l-0.8,0l0,25.2Z" class="g2_2046" />
<path d="M478.3,467.9l0.8,0l0,-23.7l-0.8,0l0,23.7Z" class="g2_2046" />
<path d="M478.3,513.7l0.8,0l0,-23.7l-0.8,0l0,23.7Z" class="g2_2046" />
<path d="M478.3,606.2l0.8,0l0,-70.3l-0.8,0l0,70.3Z" class="g2_2046" />
<path d="M570.3,193.7l0.7,0l0,-25.2l-0.7,0l0,25.2Z" class="g2_2046" />
<path d="M570.3,238.7l0.7,0l0,-23.6l-0.7,0l0,23.6Z" class="g2_2046" />
<path d="M570.3,330.4l0.7,0l0,-69.5l-0.7,0l0,69.5Z" class="g2_2046" />
<path d="M570.3,377l0.7,0l0,-24.4l-0.7,0l0,24.4Z" class="g2_2046" />
<path d="M570.3,422.9l0.7,0l0,-25.2l-0.7,0l0,25.2Z" class="g2_2046" />
<path d="M570.3,467.9l0.7,0l0,-23.7l-0.7,0l0,23.7Z" class="g2_2046" />
<path d="M570.3,513.7l0.7,0L571,490l-0.7,0l0,23.7Z" class="g2_2046" />
<path d="M570.3,606.2l0.7,0l0,-70.3l-0.7,0l0,70.3Z" class="g2_2046" />
<path d="M662.2,193.7l0.7,0l0,-25.2l-0.7,0l0,25.2Z" class="g2_2046" />
<path d="M662.2,238.7l0.7,0l0,-23.6l-0.7,0l0,23.6Z" class="g2_2046" />
<path d="M662.2,330.4l0.7,0l0,-69.5l-0.7,0l0,69.5Z" class="g2_2046" />
<path d="M662.2,377l0.7,0l0,-24.4l-0.7,0l0,24.4Z" class="g2_2046" />
<path d="M662.2,422.9l0.7,0l0,-25.2l-0.7,0l0,25.2Z" class="g2_2046" />
<path d="M662.2,467.9l0.7,0l0,-23.7l-0.7,0l0,23.7Z" class="g2_2046" />
<path d="M662.2,513.7l0.7,0l0,-23.7l-0.7,0l0,23.7Z" class="g2_2046" />
<path d="M662.2,606.2l0.7,0l0,-70.3l-0.7,0l0,70.3Z" class="g2_2046" />
<path d="M757.9,193.7l0.7,0l0,-25.2l-0.7,0l0,25.2Z" class="g2_2046" />
<path d="M757.9,238.7l0.7,0l0,-23.6l-0.7,0l0,23.6Z" class="g2_2046" />
<path d="M757.9,330.4l0.7,0l0,-69.5l-0.7,0l0,69.5Z" class="g2_2046" />
<path d="M757.9,377l0.7,0l0,-24.4l-0.7,0l0,24.4Z" class="g2_2046" />
<path d="M757.9,422.9l0.7,0l0,-25.2l-0.7,0l0,25.2Z" class="g2_2046" />
<path d="M757.9,467.9l0.7,0l0,-23.7l-0.7,0l0,23.7Z" class="g2_2046" />
<path d="M757.9,513.7l0.7,0l0,-23.7l-0.7,0l0,23.7Z" class="g2_2046" />
<path d="M757.9,606.2l0.7,0l0,-70.3l-0.7,0l0,70.3Z" class="g2_2046" />
<path d="M851.4,374.7l2.3,0l0,-203.9l-2.3,0l0,203.9Z" class="g2_2046" />
<path d="M851.4,603.9l2.3,0l0,-204l-2.3,0l0,204Z" class="g2_2046" />
<path d="M67.4,170.8l786.2,0l0,-2.3l-786.2,0l0,2.3Z" class="g2_2046" />
<path d="M67.4,193.7l786.2,0l0,-2.3l-786.2,0l0,2.3Z" class="g2_2046" />
<path d="M104,215.8l749.6,0l0,-0.8L104,215l0,0.8Z" class="g2_2046" />
<path d="M67.4,238.7l786.2,0l0,-0.7L67.4,238l0,0.7Z" class="g2_2046" />
<path d="M104,261.6l749.6,0l0,-0.7l-749.6,0l0,0.7Z" class="g2_2046" />
<path d="M67.4,284.5l786.2,0l0,-0.7l-786.2,0l0,0.7Z" class="g2_2046" />
<path d="M67.4,330.4l786.2,0l0,-0.8l-786.2,0l0,0.8Z" class="g2_2046" />
<path d="M104,353.3l749.6,0l0,-0.7l-749.6,0l0,0.7Z" class="g2_2046" />
<path d="M67.4,377l786.2,0l0,-2.3l-786.2,0l0,2.3Z" class="g2_2046" />
<path d="M67.4,399.9l786.2,0l0,-2.2l-786.2,0l0,2.2Z" class="g2_2046" />
<path d="M67.4,422.9l786.2,0l0,-2.3l-786.2,0l0,2.3Z" class="g2_2046" />
<path d="M104,444.9l749.6,0l0,-0.7l-749.6,0l0,0.7Z" class="g2_2046" />
<path d="M67.4,467.9l786.2,0l0,-0.8l-786.2,0l0,0.8Z" class="g2_2046" />
<path d="M104,490.8l749.6,0l0,-0.8L104,490l0,0.8Z" class="g2_2046" />
<path d="M67.4,513.7l786.2,0l0,-0.7L67.4,513l0,0.7Z" class="g2_2046" />
<path d="M104,536.6l749.6,0l0,-0.7l-749.6,0l0,0.7Z" class="g2_2046" />
<path d="M67.4,559.5l786.2,0l0,-0.7l-786.2,0l0,0.7Z" class="g2_2046" />
<path d="M67.4,606.2l786.2,0l0,-2.3l-786.2,0l0,2.3Z" class="g2_2046" />
<path d="M67.5,852.1l2.3,0l0,-81.7l-2.3,0l0,81.7Z" class="g2_2046" />
<path d="M166.1,854.4l0.7,0l0,-62.6l-0.7,0l0,62.6Z" class="g2_2046" />
<path d="M264,854.4l0.7,0l0,-62.6l-0.7,0l0,62.6Z" class="g2_2046" />
<path d="M362,854.4l0.7,0l0,-62.6l-0.7,0l0,62.6Z" class="g2_2046" />
<path d="M459.9,854.4l0.7,0l0,-62.6l-0.7,0l0,62.6Z" class="g2_2046" />
<path d="M557.8,854.4l0.7,0l0,-62.6l-0.7,0l0,62.6Z" class="g2_2046" />
<path d="M655.8,854.4l0.7,0l0,-62.6l-0.7,0l0,62.6Z" class="g2_2046" />
<path d="M753.7,854.4l0.7,0l0,-62.6l-0.7,0l0,62.6Z" class="g2_2046" />
<path d="M850.8,852.1l2.3,0l0,-81.7l-2.3,0l0,81.7Z" class="g2_2046" />
<path d="M67.4,770.5l785.7,0l0,-2.3l-785.7,0l0,2.3Z" class="g2_2046" />
<path d="M67.4,792.6l785.7,0l0,-0.8l-785.7,0l0,0.8Z" class="g2_2046" />
<path d="M67.4,816.3l785.7,0l0,-2.3L67.4,814l0,2.3Z" class="g2_2046" />
<path d="M67.4,854.5l785.7,0l0,-2.3l-785.7,0l0,2.3Z" class="g2_2046" />
</svg>