<?xml version="1.0" encoding="UTF-8" standalone="no"?>
<!DOCTYPE svg PUBLIC "-//W3C//DTD SVG 1.1//EN"
"http://www.w3.org/Graphics/SVG/1.1/DTD/svg11.dtd">
<svg viewBox="0 0 935 1210" version="1.1" xmlns="http://www.w3.org/2000/svg" xmlns:xlink="http://www.w3.org/1999/xlink">
<defs>
<style type="text/css"><![CDATA[
.g1_587{
fill: #FFFFFF;
}
.g2_587{
}
]]></style>
</defs>
<path d="M68.9,1149.3l686.3,0l0,-21.2l-686.3,0l0,21.2Z" class="g1_587" />
<path d="M771.3,1149.3l83.7,0l0,-21.2l-83.7,0l0,21.2Z" class="g1_587" />
<path d="M69.8,1037l0.7,0l0,-929.7l-0.7,0l0,929.7Z" class="g2_587" />
<path d="M220.9,1037.8l0.8,0l0,-931.2l-0.8,0l0,931.2Z" class="g2_587" />
<path d="M392.5,1037.8l0.7,0l0,-931.2l-0.7,0l0,931.2Z" class="g2_587" />
<path d="M430.3,1037.8l0.7,0l0,-931.2l-0.7,0l0,931.2Z" class="g2_587" />
<path d="M503.7,1037.8l0.7,0l0,-931.2l-0.7,0l0,931.2Z" class="g2_587" />
<path d="M575.1,1037.8l0.8,0l0,-931.2l-0.8,0l0,931.2Z" class="g2_587" />
<path d="M852.2,1037l0.8,0l0,-929.7l-0.8,0l0,929.7Z" class="g2_587" />
<path d="M69.8,107.3l783.2,0l0,-0.7l-783.2,0l0,0.7Z" class="g2_587" />
<path d="M69.8,145.5l783.2,0l0,-0.8l-783.2,0l0,0.8Z" class="g2_587" />
<path d="M69.8,185.3l783.2,0l0,-0.8l-783.2,0l0,0.8Z" class="g2_587" />
<path d="M69.8,208.2l783.2,0l0,-0.8l-783.2,0l0,0.8Z" class="g2_587" />
<path d="M69.8,247.9l783.2,0l0,-0.8l-783.2,0l0,0.8Z" class="g2_587" />
<path d="M69.8,270.8l783.2,0l0,-0.7l-783.2,0l0,0.7Z" class="g2_587" />
<path d="M69.8,310.5l783.2,0l0,-0.8l-783.2,0l0,0.8Z" class="g2_587" />
<path d="M69.8,333.4l783.2,0l0,-0.7l-783.2,0l0,0.7Z" class="g2_587" />
<path d="M69.8,373.2l783.2,0l0,-0.8l-783.2,0l0,0.8Z" class="g2_587" />
<path d="M69.8,396.1l783.2,0l0,-0.7l-783.2,0l0,0.7Z" class="g2_587" />
<path d="M69.8,435.8l783.2,0l0,-0.8L69.8,435l0,0.8Z" class="g2_587" />
<path d="M69.8,475.6l783.2,0l0,-0.8l-783.2,0l0,0.8Z" class="g2_587" />
<path d="M69.8,515.3l783.2,0l0,-0.8l-783.2,0l0,0.8Z" class="g2_587" />
<path d="M69.8,538.2l783.2,0l0,-0.8l-783.2,0l0,0.8Z" class="g2_587" />
<path d="M69.8,577.9l783.2,0l0,-0.8l-783.2,0l0,0.8Z" class="g2_587" />
<path d="M69.8,600.8l783.2,0l0,-0.7l-783.2,0l0,0.7Z" class="g2_587" />
<path d="M69.8,640.6l783.2,0l0,-0.8l-783.2,0l0,0.8Z" class="g2_587" />
<path d="M69.8,663.5l783.2,0l0,-0.7l-783.2,0l0,0.7Z" class="g2_587" />
<path d="M69.8,703.2l783.2,0l0,-0.8l-783.2,0l0,0.8Z" class="g2_587" />
<path d="M69.8,726.1l783.2,0l0,-0.7l-783.2,0l0,0.7Z" class="g2_587" />
<path d="M69.8,765.8l783.2,0l0,-0.7l-783.2,0l0,0.7Z" class="g2_587" />
<path d="M69.8,788.7l783.2,0l0,-0.7L69.8,788l0,0.7Z" class="g2_587" />
<path d="M69.8,828.5l783.2,0l0,-0.8l-783.2,0l0,0.8Z" class="g2_587" />
<path d="M69.8,851.4l783.2,0l0,-0.7l-783.2,0l0,0.7Z" class="g2_587" />
<path d="M69.8,891.1l783.2,0l0,-0.7l-783.2,0l0,0.7Z" class="g2_587" />
<path d="M69.8,914L853,914l0,-0.7l-783.2,0l0,0.7Z" class="g2_587" />
<path d="M69.8,953.7l783.2,0l0,-0.7L69.8,953l0,0.7Z" class="g2_587" />
<path d="M69.8,976.6l783.2,0l0,-0.7l-783.2,0l0,0.7Z" class="g2_587" />
<path d="M69.8,1037.8l783.2,0l0,-0.8l-783.2,0l0,0.8Z" class="g2_587" />
</svg>