<?xml version="1.0" encoding="UTF-8" standalone="no"?>
<!DOCTYPE svg PUBLIC "-//W3C//DTD SVG 1.1//EN"
"http://www.w3.org/Graphics/SVG/1.1/DTD/svg11.dtd">
<svg viewBox="0 0 935 1210" version="1.1" xmlns="http://www.w3.org/2000/svg" xmlns:xlink="http://www.w3.org/1999/xlink">
<defs>
<style type="text/css"><![CDATA[
.g1_1766{
fill: #FFFFFF;
}
.g2_1766{
}
]]></style>
</defs>
<path d="M165,1149.3l687.5,0l0,-21.2l-687.5,0l0,21.2Z" class="g1_1766" />
<path d="M68.8,1149.3l82.5,0l0,-21.2l-82.5,0l0,21.2Z" class="g1_1766" />
<path d="M68.6,757.4l0.7,0l0,-631.7l-0.7,0l0,631.7Z" class="g2_1766" />
<path d="M323,758.2l0.8,0l0,-633.3l-0.8,0l0,633.3Z" class="g2_1766" />
<path d="M370.2,758.2l0.8,0l0,-633.3l-0.8,0l0,633.3Z" class="g2_1766" />
<path d="M442.5,758.2l0.7,0l0,-633.3l-0.7,0l0,633.3Z" class="g2_1766" />
<path d="M526.9,758.2l0.7,0l0,-633.3l-0.7,0l0,633.3Z" class="g2_1766" />
<path d="M856.5,757.4l0.8,0l0,-631.7l-0.8,0l0,631.7Z" class="g2_1766" />
<path d="M68.6,125.7l788.7,0l0,-0.8l-788.7,0l0,0.8Z" class="g2_1766" />
<path d="M68.6,176.1l788.7,0l0,-0.7l-788.7,0l0,0.7Z" class="g2_1766" />
<path d="M68.6,229.5l788.7,0l0,-0.7l-788.7,0l0,0.7Z" class="g2_1766" />
<path d="M68.6,299.8l788.7,0l0,-0.7l-788.7,0l0,0.7Z" class="g2_1766" />
<path d="M68.6,370.1l788.7,0l0,-0.8l-788.7,0l0,0.8Z" class="g2_1766" />
<path d="M68.6,423.6l788.7,0l0,-0.7l-788.7,0l0,0.7Z" class="g2_1766" />
<path d="M68.6,493.9l788.7,0l0,-0.7l-788.7,0l0,0.7Z" class="g2_1766" />
<path d="M68.6,564.1l788.7,0l0,-0.7l-788.7,0l0,0.7Z" class="g2_1766" />
<path d="M68.6,617.7l788.7,0l0,-0.8l-788.7,0l0,0.8Z" class="g2_1766" />
<path d="M68.6,687.9l788.7,0l0,-0.8l-788.7,0l0,0.8Z" class="g2_1766" />
<path d="M68.6,758.2l788.7,0l0,-0.8l-788.7,0l0,0.8Z" class="g2_1766" />
<path d="M70.8,861.3l0.7,0l0,-48.1l-0.7,0l0,48.1Z" class="g2_1766" />
<path d="M182.4,862.1l0.8,0l0,-49.7l-0.8,0l0,49.7Z" class="g2_1766" />
<path d="M340.6,862.1l0.8,0l0,-49.7l-0.8,0l0,49.7Z" class="g2_1766" />
<path d="M509.9,862.1l0.8,0l0,-49.7l-0.8,0l0,49.7Z" class="g2_1766" />
<path d="M678.6,862.1l0.7,0l0,-49.7l-0.7,0l0,49.7Z" class="g2_1766" />
<path d="M849.6,861.3l0.7,0l0,-48.1l-0.7,0l0,48.1Z" class="g2_1766" />
<path d="M70.8,813.2l779.6,0l0,-0.8l-779.6,0l0,0.8Z" class="g2_1766" />
<path d="M70.8,837.7l779.6,0l0,-0.8l-779.6,0l0,0.8Z" class="g2_1766" />
<path d="M70.8,862l779.6,0l0,-0.7l-779.6,0l0,0.7Z" class="g2_1766" />
</svg>