<?xml version="1.0" encoding="UTF-8" standalone="no"?>
<!DOCTYPE svg PUBLIC "-//W3C//DTD SVG 1.1//EN"
"http://www.w3.org/Graphics/SVG/1.1/DTD/svg11.dtd">
<svg viewBox="0 0 935 1210" version="1.1" xmlns="http://www.w3.org/2000/svg" xmlns:xlink="http://www.w3.org/1999/xlink">
<defs>
<style type="text/css"><![CDATA[
.g1_2156{
fill: #FFFFFF;
}
.g2_2156{
}
]]></style>
</defs>
<path d="M68.8,1149.3l783.7,0l0,-21.2l-783.7,0l0,21.2Z" class="g1_2156" />
<path d="M68.6,1095.1l0.7,0l0,-987.8l-0.7,0l0,987.8Z" class="g2_2156" />
<path d="M443.8,1095.9l0.8,0l0,-989.3l-0.8,0l0,989.3Z" class="g2_2156" />
<path d="M849.9,1095.1l0.8,0l0,-987.8l-0.8,0l0,987.8Z" class="g2_2156" />
<path d="M68.6,107.3l782.1,0l0,-0.7l-782.1,0l0,0.7Z" class="g2_2156" />
<path d="M68.6,131.7l782.1,0l0,-0.7L68.6,131l0,0.7Z" class="g2_2156" />
<path d="M68.6,156.2l782.1,0l0,-0.7l-782.1,0l0,0.7Z" class="g2_2156" />
<path d="M68.6,180.7l782.1,0l0,-0.8l-782.1,0l0,0.8Z" class="g2_2156" />
<path d="M68.6,205.1l782.1,0l0,-0.8l-782.1,0l0,0.8Z" class="g2_2156" />
<path d="M68.6,229.5l782.1,0l0,-0.7l-782.1,0l0,0.7Z" class="g2_2156" />
<path d="M68.6,254l782.1,0l0,-0.7l-782.1,0l0,0.7Z" class="g2_2156" />
<path d="M68.6,278.4l782.1,0l0,-0.7l-782.1,0l0,0.7Z" class="g2_2156" />
<path d="M68.6,302.9l782.1,0l0,-0.8l-782.1,0l0,0.8Z" class="g2_2156" />
<path d="M68.6,344.1l782.1,0l0,-0.7l-782.1,0l0,0.7Z" class="g2_2156" />
<path d="M68.6,368.6l782.1,0l0,-0.7l-782.1,0l0,0.7Z" class="g2_2156" />
<path d="M68.6,393l782.1,0l0,-0.8l-782.1,0l0,0.8Z" class="g2_2156" />
<path d="M68.6,417.4l782.1,0l0,-0.7l-782.1,0l0,0.7Z" class="g2_2156" />
<path d="M68.6,441.9l782.1,0l0,-0.7l-782.1,0l0,0.7Z" class="g2_2156" />
<path d="M68.6,483.2l782.1,0l0,-0.8l-782.1,0l0,0.8Z" class="g2_2156" />
<path d="M68.6,507.7l782.1,0l0,-0.8l-782.1,0l0,0.8Z" class="g2_2156" />
<path d="M68.6,532l782.1,0l0,-0.7l-782.1,0l0,0.7Z" class="g2_2156" />
<path d="M68.6,556.5l782.1,0l0,-0.7l-782.1,0l0,0.7Z" class="g2_2156" />
<path d="M68.6,581l782.1,0l0,-0.8l-782.1,0l0,0.8Z" class="g2_2156" />
<path d="M68.6,622.2l782.1,0l0,-0.7l-782.1,0l0,0.7Z" class="g2_2156" />
<path d="M68.6,646.6l782.1,0l0,-0.7l-782.1,0l0,0.7Z" class="g2_2156" />
<path d="M68.6,671.1l782.1,0l0,-0.7l-782.1,0l0,0.7Z" class="g2_2156" />
<path d="M68.6,695.6l782.1,0l0,-0.8l-782.1,0l0,0.8Z" class="g2_2156" />
<path d="M68.6,719.9l782.1,0l0,-0.7l-782.1,0l0,0.7Z" class="g2_2156" />
<path d="M68.6,744.4l782.1,0l0,-0.7l-782.1,0l0,0.7Z" class="g2_2156" />
<path d="M68.6,768.9l782.1,0l0,-0.7l-782.1,0l0,0.7Z" class="g2_2156" />
<path d="M68.6,810.2l782.1,0l0,-0.8l-782.1,0l0,0.8Z" class="g2_2156" />
<path d="M68.6,834.5l782.1,0l0,-0.7l-782.1,0l0,0.7Z" class="g2_2156" />
<path d="M68.6,859l782.1,0l0,-0.7l-782.1,0l0,0.7Z" class="g2_2156" />
<path d="M68.6,883.5l782.1,0l0,-0.8l-782.1,0l0,0.8Z" class="g2_2156" />
<path d="M68.6,907.9l782.1,0l0,-0.8l-782.1,0l0,0.8Z" class="g2_2156" />
<path d="M68.6,932.3l782.1,0l0,-0.7l-782.1,0l0,0.7Z" class="g2_2156" />
<path d="M68.6,956.8l782.1,0l0,-0.7l-782.1,0l0,0.7Z" class="g2_2156" />
<path d="M68.6,998.1l782.1,0l0,-0.8l-782.1,0l0,0.8Z" class="g2_2156" />
<path d="M68.6,1022.5l782.1,0l0,-0.8l-782.1,0l0,0.8Z" class="g2_2156" />
<path d="M68.6,1046.9l782.1,0l0,-0.7l-782.1,0l0,0.7Z" class="g2_2156" />
<path d="M68.6,1071.4l782.1,0l0,-0.7l-782.1,0l0,0.7Z" class="g2_2156" />
<path d="M68.6,1095.8l782.1,0l0,-0.8l-782.1,0l0,0.8Z" class="g2_2156" />
</svg>