<?xml version="1.0" encoding="UTF-8" standalone="no"?>
<!DOCTYPE svg PUBLIC "-//W3C//DTD SVG 1.1//EN"
"http://www.w3.org/Graphics/SVG/1.1/DTD/svg11.dtd">
<svg viewBox="0 0 935 1210" version="1.1" xmlns="http://www.w3.org/2000/svg" xmlns:xlink="http://www.w3.org/1999/xlink">
<defs>
<style type="text/css"><![CDATA[
.g1_437{
fill: #FFFFFF;
}
.g2_437{
}
]]></style>
</defs>
<path d="M68.9,1149.3l686.3,0l0,-21.2l-686.3,0l0,21.2Z" class="g1_437" />
<path d="M771.3,1149.3l83.7,0l0,-21.2l-83.7,0l0,21.2Z" class="g1_437" />
<path d="M74.5,392.2l0.8,0l0,-268.1l-0.8,0l0,268.1Z" class="g2_437" />
<path d="M150.1,393.8l2.3,0l0,-244.5l-2.3,0l0,244.5Z" class="g2_437" />
<path d="M235.9,393.8l2.3,0l0,-246.8l-2.3,0l0,246.8Z" class="g2_437" />
<path d="M322.3,393.8l0.7,0L323,147l-0.7,0l0,246.8Z" class="g2_437" />
<path d="M414,393.8l0.7,0l0,-246.8l-0.7,0l0,246.8Z" class="g2_437" />
<path d="M499.8,393.8l0.7,0l0,-246.8l-0.7,0l0,246.8Z" class="g2_437" />
<path d="M585.5,393.8l0.7,0l0,-246.8l-0.7,0l0,246.8Z" class="g2_437" />
<path d="M676,393.8l0.7,0l0,-246.8l-0.7,0l0,246.8Z" class="g2_437" />
<path d="M761.8,393.8l0.7,0l0,-246.8l-0.7,0l0,246.8Z" class="g2_437" />
<path d="M847.5,147l0.7,0l0,-22.9l-0.7,0l0,22.9Z" class="g2_437" />
<path d="M846.7,391.5l2.3,0l0,-242.2l-2.3,0l0,242.2Z" class="g2_437" />
<path d="M74.5,124.1l773.7,0l0,-0.7l-773.7,0l0,0.7Z" class="g2_437" />
<path d="M150.1,149.4l698.9,0l0,-2.3l-698.9,0l0,2.3Z" class="g2_437" />
<path d="M150.1,173.8l698.9,0l0,-2.3l-698.9,0l0,2.3Z" class="g2_437" />
<path d="M150.1,197.4l698.9,0l0,-0.7l-698.9,0l0,0.7Z" class="g2_437" />
<path d="M150.1,221.9l698.9,0l0,-0.7l-698.9,0l0,0.7Z" class="g2_437" />
<path d="M150.1,246.3l698.9,0l0,-0.7l-698.9,0l0,0.7Z" class="g2_437" />
<path d="M150.1,270.8l698.9,0l0,-0.7l-698.9,0l0,0.7Z" class="g2_437" />
<path d="M150.1,295.3l698.9,0l0,-0.8l-698.9,0l0,0.8Z" class="g2_437" />
<path d="M150.1,319.6l698.9,0l0,-0.7l-698.9,0l0,0.7Z" class="g2_437" />
<path d="M150.1,344.1l698.9,0l0,-0.7l-698.9,0l0,0.7Z" class="g2_437" />
<path d="M150.1,368.6l698.9,0l0,-0.7l-698.9,0l0,0.7Z" class="g2_437" />
<path d="M74.5,393l75.6,0l0,-0.8l-75.6,0l0,0.8Z" class="g2_437" />
<path d="M152.4,393.8l696.6,0l0,-2.3l-696.6,0l0,2.3Z" class="g2_437" />
</svg>