<?xml version="1.0" encoding="UTF-8" standalone="no"?>
<!DOCTYPE svg PUBLIC "-//W3C//DTD SVG 1.1//EN"
"http://www.w3.org/Graphics/SVG/1.1/DTD/svg11.dtd">
<svg viewBox="0 0 935 1210" version="1.1" xmlns="http://www.w3.org/2000/svg" xmlns:xlink="http://www.w3.org/1999/xlink">
<defs>
<style type="text/css"><![CDATA[
.g1_2059{
fill: #FFFFFF;
}
.g2_2059{
}
]]></style>
</defs>
<path d="M68.9,1149.3l783.8,0l0,-21.2l-783.8,0l0,21.2Z" class="g1_2059" />
<path d="M70.9,195.2l0.7,0l0,-72.6l-0.7,0l0,72.6Z" class="g2_2059" />
<path d="M164.7,196l0.8,0l0,-74.2l-0.8,0l0,74.2Z" class="g2_2059" />
<path d="M851.1,195.2l0.8,0l0,-72.6l-0.8,0l0,72.6Z" class="g2_2059" />
<path d="M70.9,122.6l781,0l0,-0.8l-781,0l0,0.8Z" class="g2_2059" />
<path d="M70.9,147l781,0l0,-0.7l-781,0l0,0.7Z" class="g2_2059" />
<path d="M70.9,171.5l781,0l0,-0.7l-781,0l0,0.7Z" class="g2_2059" />
<path d="M70.9,195.9l781,0l0,-0.7l-781,0l0,0.7Z" class="g2_2059" />
<path d="M69.9,1075.3l0.8,0L70.7,367l-0.8,0l0,708.3Z" class="g2_2059" />
<path d="M468.3,1076l0.8,0l0,-709.7l-0.8,0l0,709.7Z" class="g2_2059" />
<path d="M851.4,1075.3l0.7,0l0,-708.3l-0.7,0l0,708.3Z" class="g2_2059" />
<path d="M69.9,367l782.2,0l0,-0.7l-782.2,0l0,0.7Z" class="g2_2059" />
<path d="M69.9,391.5l782.2,0l0,-0.7l-782.2,0l0,0.7Z" class="g2_2059" />
<path d="M69.9,416l782.2,0l0,-0.7l-782.2,0l0,0.7Z" class="g2_2059" />
<path d="M69.9,440.4l782.2,0l0,-0.8l-782.2,0l0,0.8Z" class="g2_2059" />
<path d="M69.9,464.8l782.2,0l0,-0.7l-782.2,0l0,0.7Z" class="g2_2059" />
<path d="M69.9,489.3l782.2,0l0,-0.7l-782.2,0l0,0.7Z" class="g2_2059" />
<path d="M69.9,513.7l782.2,0l0,-0.7L69.9,513l0,0.7Z" class="g2_2059" />
<path d="M69.9,538.2l782.2,0l0,-0.8l-782.2,0l0,0.8Z" class="g2_2059" />
<path d="M69.9,562.7l782.2,0l0,-0.8l-782.2,0l0,0.8Z" class="g2_2059" />
<path d="M69.9,587l782.2,0l0,-0.7l-782.2,0l0,0.7Z" class="g2_2059" />
<path d="M69.9,611.5l782.2,0l0,-0.7l-782.2,0l0,0.7Z" class="g2_2059" />
<path d="M69.9,636l782.2,0l0,-0.8l-782.2,0l0,0.8Z" class="g2_2059" />
<path d="M69.9,660.4l782.2,0l0,-0.8l-782.2,0l0,0.8Z" class="g2_2059" />
<path d="M69.9,684.8l782.2,0l0,-0.7l-782.2,0l0,0.7Z" class="g2_2059" />
<path d="M69.9,709.3l782.2,0l0,-0.7l-782.2,0l0,0.7Z" class="g2_2059" />
<path d="M69.9,733.7l782.2,0l0,-0.7L69.9,733l0,0.7Z" class="g2_2059" />
<path d="M69.9,758.2l782.2,0l0,-0.8l-782.2,0l0,0.8Z" class="g2_2059" />
<path d="M69.9,782.7l782.2,0l0,-0.8l-782.2,0l0,0.8Z" class="g2_2059" />
<path d="M69.9,807l782.2,0l0,-0.7l-782.2,0l0,0.7Z" class="g2_2059" />
<path d="M69.9,831.5l782.2,0l0,-0.7l-782.2,0l0,0.7Z" class="g2_2059" />
<path d="M69.9,856l782.2,0l0,-0.8l-782.2,0l0,0.8Z" class="g2_2059" />
<path d="M69.9,880.4l782.2,0l0,-0.8l-782.2,0l0,0.8Z" class="g2_2059" />
<path d="M69.9,904.8l782.2,0l0,-0.7l-782.2,0l0,0.7Z" class="g2_2059" />
<path d="M69.9,929.3l782.2,0l0,-0.7l-782.2,0l0,0.7Z" class="g2_2059" />
<path d="M69.9,953.7l782.2,0l0,-0.7L69.9,953l0,0.7Z" class="g2_2059" />
<path d="M69.9,978.2l782.2,0l0,-0.8l-782.2,0l0,0.8Z" class="g2_2059" />
<path d="M69.9,1002.7l782.2,0l0,-0.8l-782.2,0l0,0.8Z" class="g2_2059" />
<path d="M69.9,1027l782.2,0l0,-0.7l-782.2,0l0,0.7Z" class="g2_2059" />
<path d="M69.9,1051.5l782.2,0l0,-0.7l-782.2,0l0,0.7Z" class="g2_2059" />
<path d="M69.9,1076l782.2,0l0,-0.8l-782.2,0l0,0.8Z" class="g2_2059" />
</svg>