<?xml version="1.0" encoding="UTF-8" standalone="no"?>
<!DOCTYPE svg PUBLIC "-//W3C//DTD SVG 1.1//EN"
"http://www.w3.org/Graphics/SVG/1.1/DTD/svg11.dtd">
<svg viewBox="0 0 935 1210" version="1.1" xmlns="http://www.w3.org/2000/svg" xmlns:xlink="http://www.w3.org/1999/xlink">
<defs>
<style type="text/css"><![CDATA[
.g1_2098{
fill: #FFFFFF;
}
.g2_2098{
}
]]></style>
</defs>
<path d="M68.8,1149.3l783.7,0l0,-21.2l-783.7,0l0,21.2Z" class="g1_2098" />
<path d="M68.6,865.9l0.7,0l0,-741.8l-0.7,0l0,741.8Z" class="g2_2098" />
<path d="M416,866.7l0.7,0l0,-743.3l-0.7,0l0,743.3Z" class="g2_2098" />
<path d="M851.9,865.9l0.7,0l0,-741.8l-0.7,0l0,741.8Z" class="g2_2098" />
<path d="M68.6,124.1l784.1,0l0,-0.7l-784.1,0l0,0.7Z" class="g2_2098" />
<path d="M68.6,148.6l784.1,0l0,-0.7l-784.1,0l0,0.7Z" class="g2_2098" />
<path d="M68.6,173l784.1,0l0,-0.8l-784.1,0l0,0.8Z" class="g2_2098" />
<path d="M68.6,197.4l784.1,0l0,-0.7l-784.1,0l0,0.7Z" class="g2_2098" />
<path d="M68.6,237.1l784.1,0l0,-0.7l-784.1,0l0,0.7Z" class="g2_2098" />
<path d="M68.6,261.6l784.1,0l0,-0.7l-784.1,0l0,0.7Z" class="g2_2098" />
<path d="M68.6,286.1l784.1,0l0,-0.7l-784.1,0l0,0.7Z" class="g2_2098" />
<path d="M68.6,310.5l784.1,0l0,-0.8l-784.1,0l0,0.8Z" class="g2_2098" />
<path d="M68.6,334.9l784.1,0l0,-0.7l-784.1,0l0,0.7Z" class="g2_2098" />
<path d="M68.6,374.6l784.1,0l0,-0.7l-784.1,0l0,0.7Z" class="g2_2098" />
<path d="M68.6,399.1l784.1,0l0,-0.7l-784.1,0l0,0.7Z" class="g2_2098" />
<path d="M68.6,423.6l784.1,0l0,-0.7l-784.1,0l0,0.7Z" class="g2_2098" />
<path d="M68.6,463.3l784.1,0l0,-0.8l-784.1,0l0,0.8Z" class="g2_2098" />
<path d="M68.6,487.8l784.1,0l0,-0.8L68.6,487l0,0.8Z" class="g2_2098" />
<path d="M68.6,512.2l784.1,0l0,-0.7l-784.1,0l0,0.7Z" class="g2_2098" />
<path d="M68.6,551.9l784.1,0l0,-0.7l-784.1,0l0,0.7Z" class="g2_2098" />
<path d="M68.6,576.4l784.1,0l0,-0.7l-784.1,0l0,0.7Z" class="g2_2098" />
<path d="M68.6,600.8l784.1,0l0,-0.7l-784.1,0l0,0.7Z" class="g2_2098" />
<path d="M68.6,640.6l784.1,0l0,-0.8l-784.1,0l0,0.8Z" class="g2_2098" />
<path d="M68.6,664.9l784.1,0l0,-0.7l-784.1,0l0,0.7Z" class="g2_2098" />
<path d="M68.6,689.4l784.1,0l0,-0.7l-784.1,0l0,0.7Z" class="g2_2098" />
<path d="M68.6,729.1l784.1,0l0,-0.7l-784.1,0l0,0.7Z" class="g2_2098" />
<path d="M68.6,753.6l784.1,0l0,-0.7l-784.1,0l0,0.7Z" class="g2_2098" />
<path d="M68.6,778.1l784.1,0l0,-0.8l-784.1,0l0,0.8Z" class="g2_2098" />
<path d="M68.6,817.8l784.1,0l0,-0.8L68.6,817l0,0.8Z" class="g2_2098" />
<path d="M68.6,842.2l784.1,0l0,-0.7l-784.1,0l0,0.7Z" class="g2_2098" />
<path d="M68.6,866.6l784.1,0l0,-0.7l-784.1,0l0,0.7Z" class="g2_2098" />
</svg>