<?xml version="1.0" encoding="UTF-8" standalone="no"?>
<!DOCTYPE svg PUBLIC "-//W3C//DTD SVG 1.1//EN"
"http://www.w3.org/Graphics/SVG/1.1/DTD/svg11.dtd">
<svg viewBox="0 0 935 1210" version="1.1" xmlns="http://www.w3.org/2000/svg" xmlns:xlink="http://www.w3.org/1999/xlink">
<defs>
<style type="text/css"><![CDATA[
.g1_55{
fill: #FFFFFF;
}
.g2_55{
}
]]></style>
</defs>
<path d="M68.9,1149.3l783.8,0l0,-21.2l-783.8,0l0,21.2Z" class="g1_55" />
<path d="M70.3,393.3l782.8,0l0,-29.7l-782.8,0l0,29.7Z" class="g1_55" />
<path d="M71.2,386.6l53.6,0l0,-12.5l-53.6,0l0,12.5Z" class="g1_55" />
<path d="M69.2,362.4l2.3,0l0,-239.8l-2.3,0l0,239.8Z" class="g2_55" />
<path d="M210.1,364.7l0.7,0l0,-242.9l-0.7,0l0,242.9Z" class="g2_55" />
<path d="M249.6,364.7l0.7,0l0,-242.9l-0.7,0l0,242.9Z" class="g2_55" />
<path d="M293.7,364.7l0.7,0l0,-242.9l-0.7,0l0,242.9Z" class="g2_55" />
<path d="M355,364.7l2.3,0l0,-242.9l-2.3,0l0,242.9Z" class="g2_55" />
<path d="M417.9,364.7l0.7,0l0,-242.9l-0.7,0l0,242.9Z" class="g2_55" />
<path d="M480.1,364.7l0.7,0l0,-242.9l-0.7,0l0,242.9Z" class="g2_55" />
<path d="M542.2,364.7l0.7,0l0,-242.9l-0.7,0l0,242.9Z" class="g2_55" />
<path d="M604.3,364.7l0.7,0l0,-242.9l-0.7,0l0,242.9Z" class="g2_55" />
<path d="M666.4,364.7l0.8,0l0,-242.9l-0.8,0l0,242.9Z" class="g2_55" />
<path d="M728.6,364.7l0.7,0l0,-242.9l-0.7,0l0,242.9Z" class="g2_55" />
<path d="M790.6,364.7l0.8,0l0,-242.9l-0.8,0l0,242.9Z" class="g2_55" />
<path d="M852,362.4l2.3,0l0,-239.8l-2.3,0l0,239.8Z" class="g2_55" />
<path d="M69.1,122.6l785.2,0l0,-0.8l-785.2,0l0,0.8Z" class="g2_55" />
<path d="M69.1,243.3l785.2,0l0,-0.7l-785.2,0l0,0.7Z" class="g2_55" />
<path d="M69.1,364.8l785.2,0l0,-2.3l-785.2,0l0,2.3Z" class="g2_55" />
</svg>