<?xml version="1.0" encoding="UTF-8" standalone="no"?>
<!DOCTYPE svg PUBLIC "-//W3C//DTD SVG 1.1//EN"
"http://www.w3.org/Graphics/SVG/1.1/DTD/svg11.dtd">
<svg viewBox="0 0 935 1210" version="1.1" xmlns="http://www.w3.org/2000/svg" xmlns:xlink="http://www.w3.org/1999/xlink">
<defs>
<style type="text/css"><![CDATA[
.g1_986{
fill: #FFFFFF;
}
.g2_986{
}
]]></style>
</defs>
<path d="M165,1149.3l687.5,0l0,-21.2l-687.5,0l0,21.2Z" class="g1_986" />
<path d="M68.8,1149.3l82.5,0l0,-21.2l-82.5,0l0,21.2Z" class="g1_986" />
<path d="M68.6,639.7l0.7,0l0,-514l-0.7,0l0,514Z" class="g2_986" />
<path d="M292.2,640.6l0.8,0l0,-515.7l-0.8,0l0,515.7Z" class="g2_986" />
<path d="M338.2,640.6l0.8,0l0,-515.7l-0.8,0l0,515.7Z" class="g2_986" />
<path d="M412.8,640.6l0.7,0l0,-515.7l-0.7,0l0,515.7Z" class="g2_986" />
<path d="M497.7,640.6l0.7,0l0,-515.7l-0.7,0l0,515.7Z" class="g2_986" />
<path d="M851.5,639.7l0.7,0l0,-514l-0.7,0l0,514Z" class="g2_986" />
<path d="M68.6,125.7l783.7,0l0,-0.8l-783.7,0l0,0.8Z" class="g2_986" />
<path d="M68.6,176.1l783.7,0l0,-0.7l-783.7,0l0,0.7Z" class="g2_986" />
<path d="M68.6,212.8l783.7,0l0,-0.8L68.6,212l0,0.8Z" class="g2_986" />
<path d="M68.6,266.2l783.7,0l0,-0.7l-783.7,0l0,0.7Z" class="g2_986" />
<path d="M68.6,319.6l783.7,0l0,-0.7l-783.7,0l0,0.7Z" class="g2_986" />
<path d="M68.6,373.2l783.7,0l0,-0.8l-783.7,0l0,0.8Z" class="g2_986" />
<path d="M68.6,426.6l783.7,0l0,-0.7l-783.7,0l0,0.7Z" class="g2_986" />
<path d="M68.6,480.2l783.7,0l0,-0.8l-783.7,0l0,0.8Z" class="g2_986" />
<path d="M68.6,533.6l783.7,0l0,-0.7l-783.7,0l0,0.7Z" class="g2_986" />
<path d="M68.6,587l783.7,0l0,-0.7l-783.7,0l0,0.7Z" class="g2_986" />
<path d="M68.6,640.6l783.7,0l0,-0.8l-783.7,0l0,0.8Z" class="g2_986" />
<path d="M70.2,792.6l0.8,0l0,-97l-0.8,0l0,97Z" class="g2_986" />
<path d="M189.7,793.4l0.8,0l0,-98.7l-0.8,0l0,98.7Z" class="g2_986" />
<path d="M344.8,793.4l0.7,0l0,-98.7l-0.7,0l0,98.7Z" class="g2_986" />
<path d="M515.7,793.4l0.8,0l0,-98.7l-0.8,0l0,98.7Z" class="g2_986" />
<path d="M682,793.4l0.7,0l0,-98.7l-0.7,0l0,98.7Z" class="g2_986" />
<path d="M850.1,792.6l0.7,0l0,-97l-0.7,0l0,97Z" class="g2_986" />
<path d="M70.2,695.6l780.7,0l0,-0.8l-780.7,0l0,0.8Z" class="g2_986" />
<path d="M70.2,719.9l780.7,0l0,-0.7l-780.7,0l0,0.7Z" class="g2_986" />
<path d="M70.2,744.4l780.7,0l0,-0.7l-780.7,0l0,0.7Z" class="g2_986" />
<path d="M70.2,768.9l780.7,0l0,-0.7l-780.7,0l0,0.7Z" class="g2_986" />
<path d="M70.2,793.3l780.7,0l0,-0.7l-780.7,0l0,0.7Z" class="g2_986" />
</svg>