<?xml version="1.0" encoding="UTF-8" standalone="no"?>
<!DOCTYPE svg PUBLIC "-//W3C//DTD SVG 1.1//EN"
"http://www.w3.org/Graphics/SVG/1.1/DTD/svg11.dtd">
<svg viewBox="0 0 935 1210" version="1.1" xmlns="http://www.w3.org/2000/svg" xmlns:xlink="http://www.w3.org/1999/xlink">
<defs>
<style type="text/css"><![CDATA[
.g1_41{
fill: #FFFFFF;
}
.g2_41{
}
]]></style>
</defs>
<path d="M68.9,1149.3l783.8,0l0,-21.2l-783.8,0l0,21.2Z" class="g1_41" />
<path d="M85,767l171.6,0l0,-0.9L85,766.1l0,0.9Z" class="g2_41" />
<path d="M69.6,680.3l2.3,0l0,-556.9l-2.3,0l0,556.9Z" class="g2_41" />
<path d="M214.1,682.6l0.8,0l0,-508.8l-0.8,0l0,508.8Z" class="g2_41" />
<path d="M277.8,682.6l0.8,0l0,-508.8l-0.8,0l0,508.8Z" class="g2_41" />
<path d="M340.9,682.6l2.3,0l0,-561.5l-2.3,0l0,561.5Z" class="g2_41" />
<path d="M405.4,174.5l0.7,0l0,-53.4l-0.7,0l0,53.4Z" class="g2_41" />
<path d="M405.4,682.6l0.7,0l0,-485.2l-0.7,0l0,485.2Z" class="g2_41" />
<path d="M469.1,174.5l0.8,0l0,-53.4l-0.8,0l0,53.4Z" class="g2_41" />
<path d="M469.1,682.6l0.8,0l0,-485.2l-0.8,0l0,485.2Z" class="g2_41" />
<path d="M532.9,174.5l0.8,0l0,-53.4l-0.8,0l0,53.4Z" class="g2_41" />
<path d="M532.9,682.6l0.8,0l0,-485.2l-0.8,0l0,485.2Z" class="g2_41" />
<path d="M596.7,174.5l0.7,0l0,-53.4l-0.7,0l0,53.4Z" class="g2_41" />
<path d="M596.7,682.6l0.7,0l0,-485.2l-0.7,0l0,485.2Z" class="g2_41" />
<path d="M660.5,174.5l0.7,0l0,-53.4l-0.7,0l0,53.4Z" class="g2_41" />
<path d="M660.5,682.6l0.7,0l0,-485.2l-0.7,0l0,485.2Z" class="g2_41" />
<path d="M724.2,174.5l0.7,0l0,-53.4l-0.7,0l0,53.4Z" class="g2_41" />
<path d="M724.2,682.6l0.7,0l0,-485.2l-0.7,0l0,485.2Z" class="g2_41" />
<path d="M788,174.5l0.7,0l0,-53.4l-0.7,0l0,53.4Z" class="g2_41" />
<path d="M788,682.6l0.7,0l0,-485.2l-0.7,0l0,485.2Z" class="g2_41" />
<path d="M850.9,680.3l2.3,0l0,-556.9l-2.3,0l0,556.9Z" class="g2_41" />
<path d="M69.5,123.4l783.7,0l0,-2.3l-783.7,0l0,2.3Z" class="g2_41" />
<path d="M69.5,174.5l783.7,0l0,-0.7l-783.7,0l0,0.7Z" class="g2_41" />
<path d="M69.5,199.8l783.7,0l0,-2.3l-783.7,0l0,2.3Z" class="g2_41" />
<path d="M69.5,319.6l783.7,0l0,-0.7l-783.7,0l0,0.7Z" class="g2_41" />
<path d="M69.5,440.4l783.7,0l0,-0.8l-783.7,0l0,0.8Z" class="g2_41" />
<path d="M69.5,561.1l783.7,0l0,-0.7l-783.7,0l0,0.7Z" class="g2_41" />
<path d="M69.5,682.6l783.7,0l0,-2.2l-783.7,0l0,2.2Z" class="g2_41" />
</svg>