<?xml version="1.0" encoding="UTF-8" standalone="no"?>
<!DOCTYPE svg PUBLIC "-//W3C//DTD SVG 1.1//EN"
"http://www.w3.org/Graphics/SVG/1.1/DTD/svg11.dtd">
<svg viewBox="0 0 935 1210" version="1.1" xmlns="http://www.w3.org/2000/svg" xmlns:xlink="http://www.w3.org/1999/xlink">
<defs>
<style type="text/css"><![CDATA[
.g1_1248{
fill: #FFFFFF;
}
.g2_1248{
}
]]></style>
</defs>
<path d="M165,1149.3l687.5,0l0,-21.2l-687.5,0l0,21.2Z" class="g1_1248" />
<path d="M68.8,1149.3l82.5,0l0,-21.2l-82.5,0l0,21.2Z" class="g1_1248" />
<path d="M71.2,1096.6l0.8,0L72,131.8l-0.8,0l0,964.8Z" class="g2_1248" />
<path d="M219.7,1097.3l0.8,0l0,-966.3l-0.8,0l0,966.3Z" class="g2_1248" />
<path d="M388.2,1097.3l0.7,0l0,-966.3l-0.7,0l0,966.3Z" class="g2_1248" />
<path d="M426.1,1097.3l0.7,0l0,-966.3l-0.7,0l0,966.3Z" class="g2_1248" />
<path d="M499.5,1097.3l0.7,0l0,-966.3l-0.7,0l0,966.3Z" class="g2_1248" />
<path d="M570.8,1097.3l0.7,0l0,-966.3l-0.7,0l0,966.3Z" class="g2_1248" />
<path d="M849.1,1096.6l0.7,0l0,-964.8l-0.7,0l0,964.8Z" class="g2_1248" />
<path d="M71.2,131.7l778.7,0l0,-0.7L71.2,131l0,0.7Z" class="g2_1248" />
<path d="M71.2,169.9l778.7,0l0,-0.7l-778.7,0l0,0.7Z" class="g2_1248" />
<path d="M71.2,192.9l778.7,0l0,-0.8l-778.7,0l0,0.8Z" class="g2_1248" />
<path d="M71.2,215.8l778.7,0l0,-0.8L71.2,215l0,0.8Z" class="g2_1248" />
<path d="M71.2,238.7l778.7,0l0,-0.7L71.2,238l0,0.7Z" class="g2_1248" />
<path d="M71.2,261.6l778.7,0l0,-0.7l-778.7,0l0,0.7Z" class="g2_1248" />
<path d="M71.2,284.5l778.7,0l0,-0.7l-778.7,0l0,0.7Z" class="g2_1248" />
<path d="M71.2,307.4l778.7,0l0,-0.7l-778.7,0l0,0.7Z" class="g2_1248" />
<path d="M71.2,330.4l778.7,0l0,-0.8l-778.7,0l0,0.8Z" class="g2_1248" />
<path d="M71.2,353.3l778.7,0l0,-0.7l-778.7,0l0,0.7Z" class="g2_1248" />
<path d="M71.2,376.2l778.7,0l0,-0.7l-778.7,0l0,0.7Z" class="g2_1248" />
<path d="M71.2,399.1l778.7,0l0,-0.7l-778.7,0l0,0.7Z" class="g2_1248" />
<path d="M71.2,422l778.7,0l0,-0.7l-778.7,0l0,0.7Z" class="g2_1248" />
<path d="M71.2,444.9l778.7,0l0,-0.7l-778.7,0l0,0.7Z" class="g2_1248" />
<path d="M71.2,467.9l778.7,0l0,-0.8l-778.7,0l0,0.8Z" class="g2_1248" />
<path d="M71.2,490.8l778.7,0l0,-0.8L71.2,490l0,0.8Z" class="g2_1248" />
<path d="M71.2,513.7l778.7,0l0,-0.7L71.2,513l0,0.7Z" class="g2_1248" />
<path d="M71.2,536.6l778.7,0l0,-0.7l-778.7,0l0,0.7Z" class="g2_1248" />
<path d="M71.2,559.5l778.7,0l0,-0.7l-778.7,0l0,0.7Z" class="g2_1248" />
<path d="M71.2,582.4l778.7,0l0,-0.7l-778.7,0l0,0.7Z" class="g2_1248" />
<path d="M71.2,605.4l778.7,0l0,-0.8l-778.7,0l0,0.8Z" class="g2_1248" />
<path d="M71.2,628.3l778.7,0l0,-0.7l-778.7,0l0,0.7Z" class="g2_1248" />
<path d="M71.2,651.2l778.7,0l0,-0.7l-778.7,0l0,0.7Z" class="g2_1248" />
<path d="M71.2,674.1l778.7,0l0,-0.7l-778.7,0l0,0.7Z" class="g2_1248" />
<path d="M71.2,697l778.7,0l0,-0.7l-778.7,0l0,0.7Z" class="g2_1248" />
<path d="M71.2,719.9l778.7,0l0,-0.7l-778.7,0l0,0.7Z" class="g2_1248" />
<path d="M71.2,742.9l778.7,0l0,-0.8l-778.7,0l0,0.8Z" class="g2_1248" />
<path d="M71.2,765.8l778.7,0l0,-0.7l-778.7,0l0,0.7Z" class="g2_1248" />
<path d="M71.2,805.6l778.7,0l0,-0.8l-778.7,0l0,0.8Z" class="g2_1248" />
<path d="M71.2,845.3l778.7,0l0,-0.8l-778.7,0l0,0.8Z" class="g2_1248" />
<path d="M71.2,868.2l778.7,0l0,-0.8l-778.7,0l0,0.8Z" class="g2_1248" />
<path d="M71.2,891.1l778.7,0l0,-0.7l-778.7,0l0,0.7Z" class="g2_1248" />
<path d="M71.2,914l778.7,0l0,-0.7l-778.7,0l0,0.7Z" class="g2_1248" />
<path d="M71.2,936.9l778.7,0l0,-0.7l-778.7,0l0,0.7Z" class="g2_1248" />
<path d="M71.2,959.8l778.7,0l0,-0.7l-778.7,0l0,0.7Z" class="g2_1248" />
<path d="M71.2,982.8l778.7,0l0,-0.8L71.2,982l0,0.8Z" class="g2_1248" />
<path d="M71.2,1005.7l778.7,0l0,-0.8l-778.7,0l0,0.8Z" class="g2_1248" />
<path d="M71.2,1028.6l778.7,0l0,-0.7l-778.7,0l0,0.7Z" class="g2_1248" />
<path d="M71.2,1051.5l778.7,0l0,-0.7l-778.7,0l0,0.7Z" class="g2_1248" />
<path d="M71.2,1074.4l778.7,0l0,-0.7l-778.7,0l0,0.7Z" class="g2_1248" />
<path d="M71.2,1097.3l778.7,0l0,-0.7l-778.7,0l0,0.7Z" class="g2_1248" />
</svg>