<?xml version="1.0" encoding="UTF-8" standalone="no"?>
<!DOCTYPE svg PUBLIC "-//W3C//DTD SVG 1.1//EN"
"http://www.w3.org/Graphics/SVG/1.1/DTD/svg11.dtd">
<svg viewBox="0 0 935 1210" version="1.1" xmlns="http://www.w3.org/2000/svg" xmlns:xlink="http://www.w3.org/1999/xlink">
<defs>
<style type="text/css"><![CDATA[
.g1_271{
fill: #FFFFFF;
}
.g2_271{
}
]]></style>
</defs>
<path d="M68.9,1149.3l686.3,0l0,-21.2l-686.3,0l0,21.2Z" class="g1_271" />
<path d="M771.3,1149.3l83.7,0l0,-21.2l-83.7,0l0,21.2Z" class="g1_271" />
<path d="M72,688.7l0.7,0l0,-556.9l-0.7,0l0,556.9Z" class="g2_271" />
<path d="M196,689.4l0.7,0l0,-558.4l-0.7,0l0,558.4Z" class="g2_271" />
<path d="M336.7,689.4l0.7,0l0,-558.4l-0.7,0l0,558.4Z" class="g2_271" />
<path d="M374.6,689.4l0.7,0l0,-558.4l-0.7,0l0,558.4Z" class="g2_271" />
<path d="M447.9,689.4l0.7,0l0,-558.4l-0.7,0l0,558.4Z" class="g2_271" />
<path d="M519.3,689.4l0.7,0L520,131l-0.7,0l0,558.4Z" class="g2_271" />
<path d="M850,688.7l0.8,0l0,-556.9l-0.8,0l0,556.9Z" class="g2_271" />
<path d="M72,131.7l778.8,0l0,-0.7L72,131l0,0.7Z" class="g2_271" />
<path d="M72,169.9l778.8,0l0,-0.7L72,169.2l0,0.7Z" class="g2_271" />
<path d="M72,243.3l778.8,0l0,-0.7L72,242.6l0,0.7Z" class="g2_271" />
<path d="M72,316.6l778.8,0l0,-0.7L72,315.9l0,0.7Z" class="g2_271" />
<path d="M72,389.9l778.8,0l0,-0.7L72,389.2l0,0.7Z" class="g2_271" />
<path d="M72,429.7l778.8,0l0,-0.7L72,429l0,0.7Z" class="g2_271" />
<path d="M72,503.1l778.8,0l0,-0.8L72,502.3l0,0.8Z" class="g2_271" />
<path d="M72,576.4l778.8,0l0,-0.7L72,575.7l0,0.7Z" class="g2_271" />
<path d="M72,649.7l778.8,0l0,-0.7L72,649l0,0.7Z" class="g2_271" />
<path d="M72,689.4l778.8,0l0,-0.7L72,688.7l0,0.7Z" class="g2_271" />
<path d="M70.5,789.5l0.7,0l0,-48.1l-0.7,0l0,48.1Z" class="g2_271" />
<path d="M140.7,790.3l0.7,0l0,-49.7l-0.7,0l0,49.7Z" class="g2_271" />
<path d="M313.3,790.3l0.7,0l0,-49.7l-0.7,0l0,49.7Z" class="g2_271" />
<path d="M496.6,790.3l0.8,0l0,-49.7l-0.8,0l0,49.7Z" class="g2_271" />
<path d="M669.5,790.3l0.8,0l0,-49.7l-0.8,0l0,49.7Z" class="g2_271" />
<path d="M851.5,789.5l0.7,0l0,-48.1l-0.7,0l0,48.1Z" class="g2_271" />
<path d="M70.5,741.4l781.8,0l0,-0.7l-781.8,0l0,0.7Z" class="g2_271" />
<path d="M70.5,765.8l781.8,0l0,-0.7l-781.8,0l0,0.7Z" class="g2_271" />
<path d="M70.5,790.3l781.8,0l0,-0.8l-781.8,0l0,0.8Z" class="g2_271" />
</svg>