<?xml version="1.0" encoding="UTF-8" standalone="no"?>
<!DOCTYPE svg PUBLIC "-//W3C//DTD SVG 1.1//EN"
"http://www.w3.org/Graphics/SVG/1.1/DTD/svg11.dtd">
<svg viewBox="0 0 935 1210" version="1.1" xmlns="http://www.w3.org/2000/svg" xmlns:xlink="http://www.w3.org/1999/xlink">
<defs>
<style type="text/css"><![CDATA[
.g1_53{
fill: #FFFFFF;
}
.g2_53{
}
]]></style>
</defs>
<path d="M68.9,1149.3l783.8,0l0,-21.2l-783.8,0l0,21.2Z" class="g1_53" />
<path d="M70.9,229l0.3,0l0,-106.6l-0.3,0l0,106.6Z" class="g2_53" />
<path d="M298.3,229.3l0.3,0l0,-107.3l-0.3,0l0,107.3Z" class="g2_53" />
<path d="M851.5,229l0.4,0l0,-106.6l-0.4,0l0,106.6Z" class="g2_53" />
<path d="M70.9,122.4l781,0l0,-0.4l-781,0l0,0.4Z" class="g2_53" />
<path d="M70.9,143.8l781,0l0,-0.3l-781,0l0,0.3Z" class="g2_53" />
<path d="M70.9,165.2l781,0l0,-0.4l-781,0l0,0.4Z" class="g2_53" />
<path d="M70.9,186.5l781,0l0,-0.3l-781,0l0,0.3Z" class="g2_53" />
<path d="M70.9,208l781,0l0,-0.4l-781,0l0,0.4Z" class="g2_53" />
<path d="M70.9,229.3l781,0l0,-0.3l-781,0l0,0.3Z" class="g2_53" />
</svg>