<?xml version="1.0" encoding="UTF-8" standalone="no"?>
<!DOCTYPE svg PUBLIC "-//W3C//DTD SVG 1.1//EN"
"http://www.w3.org/Graphics/SVG/1.1/DTD/svg11.dtd">
<svg viewBox="0 0 935 1210" version="1.1" xmlns="http://www.w3.org/2000/svg" xmlns:xlink="http://www.w3.org/1999/xlink">
<defs>
<style type="text/css"><![CDATA[
.g1_616{
fill: #FFFFFF;
}
.g2_616{
}
]]></style>
</defs>
<path d="M165,1149.3l687.5,0l0,-21.2l-687.5,0l0,21.2Z" class="g1_616" />
<path d="M68.8,1149.3l82.5,0l0,-21.2l-82.5,0l0,21.2Z" class="g1_616" />
<path d="M70.1,186l0.8,0l0,-60.3l-0.8,0l0,60.3Z" class="g2_616" />
<path d="M218.6,186.8l0.8,0l0,-61.9l-0.8,0l0,61.9Z" class="g2_616" />
<path d="M387.1,186.8l0.7,0l0,-61.9l-0.7,0l0,61.9Z" class="g2_616" />
<path d="M425,186.8l0.7,0l0,-61.9l-0.7,0l0,61.9Z" class="g2_616" />
<path d="M489.1,186.8l0.8,0l0,-61.9l-0.8,0l0,61.9Z" class="g2_616" />
<path d="M560.5,186.8l0.8,0l0,-61.9l-0.8,0l0,61.9Z" class="g2_616" />
<path d="M850.3,186l0.7,0l0,-60.3l-0.7,0l0,60.3Z" class="g2_616" />
<path d="M70.1,125.7l780.9,0l0,-0.8l-780.9,0l0,0.8Z" class="g2_616" />
<path d="M70.1,163.8l780.9,0l0,-0.7l-780.9,0l0,0.7Z" class="g2_616" />
<path d="M70.1,186.7l780.9,0l0,-0.7L70.1,186l0,0.7Z" class="g2_616" />
<path d="M69.7,329.6l0.7,0l0,-48.1l-0.7,0l0,48.1Z" class="g2_616" />
<path d="M143.5,330.4l0.7,0l0,-49.6l-0.7,0l0,49.6Z" class="g2_616" />
<path d="M317.4,330.4l0.8,0l0,-49.6l-0.8,0l0,49.6Z" class="g2_616" />
<path d="M494.7,330.4l0.8,0l0,-49.6l-0.8,0l0,49.6Z" class="g2_616" />
<path d="M670.1,330.4l0.7,0l0,-49.6l-0.7,0l0,49.6Z" class="g2_616" />
<path d="M850.8,329.6l0.7,0l0,-48.1l-0.7,0l0,48.1Z" class="g2_616" />
<path d="M69.7,281.5l781.8,0l0,-0.7l-781.8,0l0,0.7Z" class="g2_616" />
<path d="M69.7,305.9l781.8,0l0,-0.7l-781.8,0l0,0.7Z" class="g2_616" />
<path d="M69.7,330.4l781.8,0l0,-0.8l-781.8,0l0,0.8Z" class="g2_616" />
</svg>