<?xml version="1.0" encoding="UTF-8" standalone="no"?>
<!DOCTYPE svg PUBLIC "-//W3C//DTD SVG 1.1//EN"
"http://www.w3.org/Graphics/SVG/1.1/DTD/svg11.dtd">
<svg viewBox="0 0 935 1210" version="1.1" xmlns="http://www.w3.org/2000/svg" xmlns:xlink="http://www.w3.org/1999/xlink">
<defs>
<style type="text/css"><![CDATA[
.g1_720{
fill: #FFFFFF;
}
.g2_720{
}
]]></style>
</defs>
<path d="M165,1149.3l687.5,0l0,-21.2l-687.5,0l0,21.2Z" class="g1_720" />
<path d="M68.8,1149.3l82.5,0l0,-21.2l-82.5,0l0,21.2Z" class="g1_720" />
<path d="M68.6,745.2l0.7,0l0,-637.9l-0.7,0l0,637.9Z" class="g2_720" />
<path d="M334.1,746l0.8,0l0,-639.4l-0.8,0l0,639.4Z" class="g2_720" />
<path d="M405.7,746l0.8,0l0,-639.4l-0.8,0l0,639.4Z" class="g2_720" />
<path d="M478.3,746l0.8,0l0,-639.4l-0.8,0l0,639.4Z" class="g2_720" />
<path d="M565.2,746l0.8,0l0,-639.4l-0.8,0l0,639.4Z" class="g2_720" />
<path d="M854.2,745.2l0.7,0l0,-637.9l-0.7,0l0,637.9Z" class="g2_720" />
<path d="M68.6,107.3l786.3,0l0,-0.7l-786.3,0l0,0.7Z" class="g2_720" />
<path d="M68.6,157.8l786.3,0l0,-0.8L68.6,157l0,0.8Z" class="g2_720" />
<path d="M68.6,211.2l786.3,0l0,-0.7l-786.3,0l0,0.7Z" class="g2_720" />
<path d="M68.6,264.6l786.3,0l0,-0.7l-786.3,0l0,0.7Z" class="g2_720" />
<path d="M68.6,318.2l786.3,0l0,-0.8l-786.3,0l0,0.8Z" class="g2_720" />
<path d="M68.6,371.6l786.3,0l0,-0.7l-786.3,0l0,0.7Z" class="g2_720" />
<path d="M68.6,425.2l786.3,0l0,-0.8l-786.3,0l0,0.8Z" class="g2_720" />
<path d="M68.6,478.6l786.3,0l0,-0.7l-786.3,0l0,0.7Z" class="g2_720" />
<path d="M68.6,532l786.3,0l0,-0.7l-786.3,0l0,0.7Z" class="g2_720" />
<path d="M68.6,585.6l786.3,0l0,-0.8l-786.3,0l0,0.8Z" class="g2_720" />
<path d="M68.6,639l786.3,0l0,-0.7l-786.3,0l0,0.7Z" class="g2_720" />
<path d="M68.6,692.4l786.3,0l0,-0.7l-786.3,0l0,0.7Z" class="g2_720" />
<path d="M68.6,746l786.3,0l0,-0.7l-786.3,0l0,0.7Z" class="g2_720" />
<path d="M70.7,919.4l0.7,0L71.4,798l-0.7,0l0,121.4Z" class="g2_720" />
<path d="M184.1,920.2l0.7,0l0,-123.1l-0.7,0l0,123.1Z" class="g2_720" />
<path d="M351.2,920.2l0.7,0l0,-123.1l-0.7,0l0,123.1Z" class="g2_720" />
<path d="M519.7,920.2l0.7,0l0,-123.1l-0.7,0l0,123.1Z" class="g2_720" />
<path d="M684.8,920.2l0.8,0l0,-123.1l-0.8,0l0,123.1Z" class="g2_720" />
<path d="M849.7,919.4l0.7,0l0,-121.4l-0.7,0l0,121.4Z" class="g2_720" />
<path d="M70.7,797.9l779.8,0l0,-0.8l-779.8,0l0,0.8Z" class="g2_720" />
<path d="M70.7,822.3l779.8,0l0,-0.7l-779.8,0l0,0.7Z" class="g2_720" />
<path d="M70.7,846.8l779.8,0l0,-0.7l-779.8,0l0,0.7Z" class="g2_720" />
<path d="M70.7,871.2l779.8,0l0,-0.7l-779.8,0l0,0.7Z" class="g2_720" />
<path d="M70.7,895.7l779.8,0l0,-0.8l-779.8,0l0,0.8Z" class="g2_720" />
<path d="M70.7,920.2l779.8,0l0,-0.8l-779.8,0l0,0.8Z" class="g2_720" />
</svg>