<?xml version="1.0" encoding="UTF-8" standalone="no"?>
<!DOCTYPE svg PUBLIC "-//W3C//DTD SVG 1.1//EN"
"http://www.w3.org/Graphics/SVG/1.1/DTD/svg11.dtd">
<svg viewBox="0 0 935 1210" version="1.1" xmlns="http://www.w3.org/2000/svg" xmlns:xlink="http://www.w3.org/1999/xlink">
<defs>
<style type="text/css"><![CDATA[
.g1_2123{
fill: #FFFFFF;
}
.g2_2123{
}
]]></style>
</defs>
<path d="M68.9,1149.3l783.8,0l0,-21.2l-783.8,0l0,21.2Z" class="g1_2123" />
<path d="M69.9,927l0.8,0l0,-802.9l-0.8,0l0,802.9Z" class="g2_2123" />
<path d="M447.1,927.8l0.7,0l0,-804.4l-0.7,0l0,804.4Z" class="g2_2123" />
<path d="M851.3,927l0.7,0l0,-802.9l-0.7,0l0,802.9Z" class="g2_2123" />
<path d="M69.9,124.1l782.1,0l0,-0.7l-782.1,0l0,0.7Z" class="g2_2123" />
<path d="M69.9,148.6l782.1,0l0,-0.7l-782.1,0l0,0.7Z" class="g2_2123" />
<path d="M69.9,189.8l782.1,0l0,-0.7l-782.1,0l0,0.7Z" class="g2_2123" />
<path d="M69.9,214.2l782.1,0l0,-0.7l-782.1,0l0,0.7Z" class="g2_2123" />
<path d="M69.9,238.7l782.1,0l0,-0.7L69.9,238l0,0.7Z" class="g2_2123" />
<path d="M69.9,279.9l782.1,0l0,-0.7l-782.1,0l0,0.7Z" class="g2_2123" />
<path d="M69.9,304.4l782.1,0l0,-0.7l-782.1,0l0,0.7Z" class="g2_2123" />
<path d="M69.9,344.1l782.1,0l0,-0.7l-782.1,0l0,0.7Z" class="g2_2123" />
<path d="M69.9,385.4l782.1,0l0,-0.8l-782.1,0l0,0.8Z" class="g2_2123" />
<path d="M69.9,409.8l782.1,0l0,-0.7l-782.1,0l0,0.7Z" class="g2_2123" />
<path d="M69.9,434.3l782.1,0l0,-0.7l-782.1,0l0,0.7Z" class="g2_2123" />
<path d="M69.9,475.6l782.1,0l0,-0.8l-782.1,0l0,0.8Z" class="g2_2123" />
<path d="M69.9,499.9l782.1,0l0,-0.7l-782.1,0l0,0.7Z" class="g2_2123" />
<path d="M69.9,524.4l782.1,0l0,-0.7l-782.1,0l0,0.7Z" class="g2_2123" />
<path d="M69.9,565.7l782.1,0l0,-0.8l-782.1,0l0,0.8Z" class="g2_2123" />
<path d="M69.9,606.9l782.1,0l0,-0.7l-782.1,0l0,0.7Z" class="g2_2123" />
<path d="M69.9,631.4l782.1,0l0,-0.7l-782.1,0l0,0.7Z" class="g2_2123" />
<path d="M69.9,672.7l782.1,0l0,-0.8l-782.1,0l0,0.8Z" class="g2_2123" />
<path d="M69.9,713.9l782.1,0l0,-0.7l-782.1,0l0,0.7Z" class="g2_2123" />
<path d="M69.9,738.3l782.1,0l0,-0.8l-782.1,0l0,0.8Z" class="g2_2123" />
<path d="M69.9,779.5l782.1,0l0,-0.7l-782.1,0l0,0.7Z" class="g2_2123" />
<path d="M69.9,820.8l782.1,0l0,-0.7l-782.1,0l0,0.7Z" class="g2_2123" />
<path d="M69.9,845.3l782.1,0l0,-0.8l-782.1,0l0,0.8Z" class="g2_2123" />
<path d="M69.9,886.5l782.1,0l0,-0.7l-782.1,0l0,0.7Z" class="g2_2123" />
<path d="M69.9,927.8l782.1,0l0,-0.8L69.9,927l0,0.8Z" class="g2_2123" />
</svg>