<?xml version="1.0" encoding="UTF-8" standalone="no"?>
<!DOCTYPE svg PUBLIC "-//W3C//DTD SVG 1.1//EN"
"http://www.w3.org/Graphics/SVG/1.1/DTD/svg11.dtd">
<svg viewBox="0 0 935 1210" version="1.1" xmlns="http://www.w3.org/2000/svg" xmlns:xlink="http://www.w3.org/1999/xlink">
<defs>
<style type="text/css"><![CDATA[
.g1_2094{
fill: #FFFFFF;
}
.g2_2094{
}
]]></style>
</defs>
<path d="M68.8,1149.3l783.7,0l0,-21.2l-783.7,0l0,21.2Z" class="g1_2094" />
<path d="M68.6,318.9l0.7,0l0,-194.8l-0.7,0l0,194.8Z" class="g2_2094" />
<path d="M448.2,319.7l0.7,0l0,-196.3l-0.7,0l0,196.3Z" class="g2_2094" />
<path d="M853,318.9l0.8,0l0,-194.8l-0.8,0l0,194.8Z" class="g2_2094" />
<path d="M68.6,124.1l785.2,0l0,-0.7l-785.2,0l0,0.7Z" class="g2_2094" />
<path d="M68.6,148.6l785.2,0l0,-0.7l-785.2,0l0,0.7Z" class="g2_2094" />
<path d="M68.6,173l785.2,0l0,-0.8l-785.2,0l0,0.8Z" class="g2_2094" />
<path d="M68.6,197.4l785.2,0l0,-0.7l-785.2,0l0,0.7Z" class="g2_2094" />
<path d="M68.6,221.9l785.2,0l0,-0.7l-785.2,0l0,0.7Z" class="g2_2094" />
<path d="M68.6,246.3l785.2,0l0,-0.7l-785.2,0l0,0.7Z" class="g2_2094" />
<path d="M68.6,270.8l785.2,0l0,-0.7l-785.2,0l0,0.7Z" class="g2_2094" />
<path d="M68.6,295.3l785.2,0l0,-0.8l-785.2,0l0,0.8Z" class="g2_2094" />
<path d="M68.6,319.6l785.2,0l0,-0.7l-785.2,0l0,0.7Z" class="g2_2094" />
<path d="M68.6,1087.4l0.7,0L69.3,581l-0.7,0l0,506.4Z" class="g2_2094" />
<path d="M416,1088.2l0.7,0l0,-508l-0.7,0l0,508Z" class="g2_2094" />
<path d="M851.9,1087.4l0.7,0l0,-506.4l-0.7,0l0,506.4Z" class="g2_2094" />
<path d="M68.6,581l784.1,0l0,-0.8l-784.1,0l0,0.8Z" class="g2_2094" />
<path d="M68.6,605.4l784.1,0l0,-0.8l-784.1,0l0,0.8Z" class="g2_2094" />
<path d="M68.6,645.2l784.1,0l0,-0.8l-784.1,0l0,0.8Z" class="g2_2094" />
<path d="M68.6,669.5l784.1,0l0,-0.7l-784.1,0l0,0.7Z" class="g2_2094" />
<path d="M68.6,694l784.1,0l0,-0.7l-784.1,0l0,0.7Z" class="g2_2094" />
<path d="M68.6,733.7l784.1,0l0,-0.7L68.6,733l0,0.7Z" class="g2_2094" />
<path d="M68.6,758.2l784.1,0l0,-0.8l-784.1,0l0,0.8Z" class="g2_2094" />
<path d="M68.6,782.7l784.1,0l0,-0.8l-784.1,0l0,0.8Z" class="g2_2094" />
<path d="M68.6,822.3l784.1,0l0,-0.7l-784.1,0l0,0.7Z" class="g2_2094" />
<path d="M68.6,846.8l784.1,0l0,-0.7l-784.1,0l0,0.7Z" class="g2_2094" />
<path d="M68.6,871.2l784.1,0l0,-0.7l-784.1,0l0,0.7Z" class="g2_2094" />
<path d="M68.6,911l784.1,0l0,-0.8l-784.1,0l0,0.8Z" class="g2_2094" />
<path d="M68.6,935.4l784.1,0l0,-0.8l-784.1,0l0,0.8Z" class="g2_2094" />
<path d="M68.6,959.8l784.1,0l0,-0.7l-784.1,0l0,0.7Z" class="g2_2094" />
<path d="M68.6,999.5l784.1,0l0,-0.7l-784.1,0l0,0.7Z" class="g2_2094" />
<path d="M68.6,1024l784.1,0l0,-0.7l-784.1,0l0,0.7Z" class="g2_2094" />
<path d="M68.6,1048.5l784.1,0l0,-0.7l-784.1,0l0,0.7Z" class="g2_2094" />
<path d="M68.6,1088.2l784.1,0l0,-0.8l-784.1,0l0,0.8Z" class="g2_2094" />
</svg>