<?xml version="1.0" encoding="UTF-8" standalone="no"?>
<!DOCTYPE svg PUBLIC "-//W3C//DTD SVG 1.1//EN"
"http://www.w3.org/Graphics/SVG/1.1/DTD/svg11.dtd">
<svg viewBox="0 0 935 1210" version="1.1" xmlns="http://www.w3.org/2000/svg" xmlns:xlink="http://www.w3.org/1999/xlink">
<defs>
<style type="text/css"><![CDATA[
.g1_867{
fill: #FFFFFF;
}
.g2_867{
}
]]></style>
</defs>
<path d="M68.9,1149.3l686.3,0l0,-21.2l-686.3,0l0,21.2Z" class="g1_867" />
<path d="M771.3,1149.3l83.7,0l0,-21.2l-83.7,0l0,21.2Z" class="g1_867" />
<path d="M67.5,960.7l0.7,0l0,-835l-0.7,0l0,835Z" class="g2_867" />
<path d="M375.3,961.4l0.7,0l0,-836.5l-0.7,0l0,836.5Z" class="g2_867" />
<path d="M413.1,961.4l0.8,0l0,-836.5l-0.8,0l0,836.5Z" class="g2_867" />
<path d="M486.5,961.4l0.7,0l0,-836.5l-0.7,0l0,836.5Z" class="g2_867" />
<path d="M576.2,961.4l0.8,0l0,-836.5l-0.8,0l0,836.5Z" class="g2_867" />
<path d="M854.5,960.7l0.7,0l0,-835l-0.7,0l0,835Z" class="g2_867" />
<path d="M67.5,125.7l787.7,0l0,-0.8l-787.7,0l0,0.8Z" class="g2_867" />
<path d="M67.5,179.1l787.7,0l0,-0.7l-787.7,0l0,0.7Z" class="g2_867" />
<path d="M67.5,223.4l787.7,0l0,-0.7l-787.7,0l0,0.7Z" class="g2_867" />
<path d="M67.5,267.8l787.7,0l0,-0.8L67.5,267l0,0.8Z" class="g2_867" />
<path d="M67.5,312l787.7,0l0,-0.7l-787.7,0l0,0.7Z" class="g2_867" />
<path d="M67.5,368.6l787.7,0l0,-0.7l-787.7,0l0,0.7Z" class="g2_867" />
<path d="M67.5,425.2l787.7,0l0,-0.8l-787.7,0l0,0.8Z" class="g2_867" />
<path d="M67.5,481.6l787.7,0l0,-0.7l-787.7,0l0,0.7Z" class="g2_867" />
<path d="M67.5,538.2l787.7,0l0,-0.8l-787.7,0l0,0.8Z" class="g2_867" />
<path d="M67.5,594.7l787.7,0l0,-0.7L67.5,594l0,0.7Z" class="g2_867" />
<path d="M67.5,668.1l787.7,0l0,-0.8l-787.7,0l0,0.8Z" class="g2_867" />
<path d="M67.5,741.4l787.7,0l0,-0.7l-787.7,0l0,0.7Z" class="g2_867" />
<path d="M67.5,814.7l787.7,0l0,-0.7L67.5,814l0,0.7Z" class="g2_867" />
<path d="M67.5,888.1l787.7,0l0,-0.8l-787.7,0l0,0.8Z" class="g2_867" />
<path d="M67.5,961.4l787.7,0l0,-0.7l-787.7,0l0,0.7Z" class="g2_867" />
</svg>