<?xml version="1.0" encoding="UTF-8" standalone="no"?>
<!DOCTYPE svg PUBLIC "-//W3C//DTD SVG 1.1//EN"
"http://www.w3.org/Graphics/SVG/1.1/DTD/svg11.dtd">
<svg viewBox="0 0 935 1210" version="1.1" xmlns="http://www.w3.org/2000/svg" xmlns:xlink="http://www.w3.org/1999/xlink">
<defs>
<style type="text/css"><![CDATA[
.g1_1069{
fill: #FFFFFF;
}
.g2_1069{
}
]]></style>
</defs>
<path d="M68.9,1149.3l686.3,0l0,-21.2l-686.3,0l0,21.2Z" class="g1_1069" />
<path d="M771.3,1149.3l83.7,0l0,-21.2l-83.7,0l0,21.2Z" class="g1_1069" />
<path d="M282.4,195l55.6,0l0,-27.5l-55.6,0l0,27.5Z" class="g1_1069" />
<path d="M282.4,167.8l55.9,0l0,-0.7l-55.9,0l0,0.7Z" class="g2_1069" />
<path d="M337.6,195.3l0.7,0l0,-27.8l-0.7,0l0,27.8Z" class="g2_1069" />
<path d="M282.1,195.3l55.9,0l0,-0.7l-55.9,0l0,0.7Z" class="g2_1069" />
<path d="M282.1,195l0.7,0l0,-27.9l-0.7,0l0,27.9Z" class="g2_1069" />
<path d="M338,195l55.5,0l0,-27.5l-55.5,0l0,27.5Z" class="g1_1069" />
<path d="M338,167.8l55.9,0l0,-0.7l-55.9,0l0,0.7Z" class="g2_1069" />
<path d="M393.2,195.3l0.7,0l0,-27.8l-0.7,0l0,27.8Z" class="g2_1069" />
<path d="M337.6,195.3l55.9,0l0,-0.7l-55.9,0l0,0.7Z" class="g2_1069" />
<path d="M337.6,195l0.7,0l0,-27.9l-0.7,0l0,27.9Z" class="g2_1069" />
<path d="M393.5,195l55.7,0l0,-27.5l-55.7,0l0,27.5Z" class="g1_1069" />
<path d="M393.5,167.8l56,0l0,-0.7l-56,0l0,0.7Z" class="g2_1069" />
<path d="M448.8,195.3l0.7,0l0,-27.8l-0.7,0l0,27.8Z" class="g2_1069" />
<path d="M393.2,195.3l56,0l0,-0.7l-56,0l0,0.7Z" class="g2_1069" />
<path d="M393.2,195l0.7,0l0,-27.9l-0.7,0l0,27.9Z" class="g2_1069" />
<path d="M449.2,195l55.5,0l0,-27.5l-55.5,0l0,27.5Z" class="g1_1069" />
<path d="M449.2,167.8l55.9,0l0,-0.7l-55.9,0l0,0.7Z" class="g2_1069" />
<path d="M504.3,195.3l0.8,0l0,-27.8l-0.8,0l0,27.8Z" class="g2_1069" />
<path d="M448.8,195.3l55.9,0l0,-0.7l-55.9,0l0,0.7Z" class="g2_1069" />
<path d="M448.8,195l0.7,0l0,-27.9l-0.7,0l0,27.9Z" class="g2_1069" />
<path d="M282.3,276.2l55.6,0l0,-27.5l-55.6,0l0,27.5Z" class="g1_1069" />
<path d="M282.3,249.1l55.9,0l0,-0.8l-55.9,0l0,0.8Z" class="g2_1069" />
<path d="M337.5,276.6l0.7,0l0,-27.9l-0.7,0l0,27.9Z" class="g2_1069" />
<path d="M282,276.6l55.9,0l0,-0.8l-55.9,0l0,0.8Z" class="g2_1069" />
<path d="M282,276.2l0.7,0l0,-27.9l-0.7,0l0,27.9Z" class="g2_1069" />
<path d="M337.9,276.2l55.6,0l0,-27.5l-55.6,0l0,27.5Z" class="g1_1069" />
<path d="M337.9,249.1l56,0l0,-0.8l-56,0l0,0.8Z" class="g2_1069" />
<path d="M393.2,276.6l0.7,0l0,-27.9l-0.7,0l0,27.9Z" class="g2_1069" />
<path d="M337.5,276.6l56,0l0,-0.8l-56,0l0,0.8Z" class="g2_1069" />
<path d="M337.5,276.2l0.7,0l0,-27.9l-0.7,0l0,27.9Z" class="g2_1069" />
<path d="M393.5,276.2l55.6,0l0,-27.5l-55.6,0l0,27.5Z" class="g1_1069" />
<path d="M393.5,249.1l55.9,0l0,-0.8l-55.9,0l0,0.8Z" class="g2_1069" />
<path d="M448.7,276.6l0.7,0l0,-27.9l-0.7,0l0,27.9Z" class="g2_1069" />
<path d="M393.2,276.6l55.9,0l0,-0.8l-55.9,0l0,0.8Z" class="g2_1069" />
<path d="M393.2,276.2l0.7,0l0,-27.9l-0.7,0l0,27.9Z" class="g2_1069" />
<path d="M449.1,276.2l55.5,0l0,-27.5l-55.5,0l0,27.5Z" class="g1_1069" />
<path d="M449.1,249.1l55.9,0l0,-0.8l-55.9,0l0,0.8Z" class="g2_1069" />
<path d="M504.3,276.6l0.7,0l0,-27.9l-0.7,0l0,27.9Z" class="g2_1069" />
<path d="M448.7,276.6l55.9,0l0,-0.8l-55.9,0l0,0.8Z" class="g2_1069" />
<path d="M448.7,276.2l0.7,0l0,-27.9l-0.7,0l0,27.9Z" class="g2_1069" />
<path d="M715.3,237.2l-0.8,0.2l0.4,1.6l0.7,-0.2Z" class="g2_1069" />
<path d="M714.8,238.2l2.1,-1.3l1.4,-0.9l-0.2,1.6l-0.5,8.5l-0.1,2.8l-1.3,-2.4l-4,-7.5l-0.9,-1.5l1.6,0.3l0.5,0.4l4.1,7.5l-1.3,0.8L716.1,246l0.6,-8.5l1.4,0.1l-0.3,0.6l-2.1,1.3Z" class="g2_1069" />
<path d="M712.9,237.8l2.5,0.4l0.3,1.3l-0.2,0.2l-0.3,-0.1l-2.5,-0.3Z" class="g2_1069" />
<path fill-rule="evenodd" d="M715.3,238.9l2.1,-1.4l-0.6,8.5l-4,-7.5Z" class="g2_1069" />
<path d="M706.4,197.5l-0.1,-0.3l-0.7,0.2l0,0.3Z" class="g2_1069" />
<path d="M715.3,237.2l0.1,0.4l-0.8,0.2l-0.1,-0.4Z" class="g2_1069" />
<path d="M706.4,197.5l-0.8,0.2l8.9,39.7l0.8,-0.2Z" class="g2_1069" />
<path d="M453.5,310.4l110.3,0l0,-0.8l-110.3,0l0,0.8Z" class="g2_1069" />
<path d="M563.1,337.9l0.7,0l0,-27.9l-0.7,0l0,27.9Z" class="g2_1069" />
<path d="M453.1,337.9l110.4,0l0,-0.8l-110.4,0l0,0.8Z" class="g2_1069" />
<path d="M453.1,337.5l0.7,0l0,-27.9l-0.7,0l0,27.9Z" class="g2_1069" />
<path d="M508.1,310l0.7,0l0,-0.4l-0.7,0l0,0.4Z" class="g2_1069" />
<path d="M508.1,337.9l0.7,0l0,-27.9l-0.7,0l0,27.9Z" class="g2_1069" />
<path d="M535.6,310l0.7,0l0,-0.4l-0.7,0l0,0.4Z" class="g2_1069" />
<path d="M535.6,337.9l0.7,0l0,-27.9l-0.7,0l0,27.9Z" class="g2_1069" />
<path d="M480.6,310l0.7,0l0,-0.4l-0.7,0l0,0.4Z" class="g2_1069" />
<path d="M480.6,337.9l0.7,0l0,-27.9l-0.7,0l0,27.9Z" class="g2_1069" />
<path d="M695.7,279.7l0.2,0.7l1.6,-0.3l-0.2,-0.7Z" class="g2_1069" />
<path d="M696.8,280.2l-1.3,-2.1l-0.9,-1.4l1.6,0.2l8.5,0.7l2.7,0.1l-2.3,1.2l-7.6,4l-1.5,0.8l0.3,-1.6l0.4,-0.5l7.6,-3.9l0.8,1.2l-0.5,0.1l-8.5,-0.6l0.1,-1.5l0.6,0.3l1.2,2.1Z" class="g2_1069" />
<path d="M696.3,282.1l0.4,-2.4l1.3,-0.4l0.2,0.3l-0.1,0.3l-0.3,2.4Z" class="g2_1069" />
<path fill-rule="evenodd" d="M697.4,279.8l-1.3,-2.1l8.5,0.6l-7.6,3.9Z" class="g2_1069" />
<path d="M548.9,309.7l-0.4,0.1l0.2,0.8l0.4,-0.1Z" class="g2_1069" />
<path d="M695.7,279.7l0.4,-0.1l0.2,0.7l-0.4,0.1Z" class="g2_1069" />
<path d="M548.9,309.7l0.2,0.8L695.9,280.4l-0.2,-0.7Z" class="g2_1069" />
<path d="M624.5,280.7l0.2,0.7l1.5,-0.4L626,280.2Z" class="g2_1069" />
<path d="M625.4,281.1L624,279l-1,-1.2l1.7,0l8.5,-0.1l2.6,0.1l-2.2,1.3l-7.1,4.6l-1.3,0.8l0.1,-1.4l0.3,-0.7l7.2,-4.6l0.8,1.3l-0.5,0.1l-8.5,0.1l0.1,-1.5l0.6,0.3l1.4,2Z" class="g2_1069" />
<path d="M625.3,283.1l0.1,-2.5l1.3,-0.5l0.2,0.2l0,0.4l-0.1,2.5Z" class="g2_1069" />
<path fill-rule="evenodd" d="M626.1,280.6l-1.5,-2l8.5,-0.1l-7.1,4.6Z" class="g2_1069" />
<path d="M522.7,310.6l-0.4,0.1l0.2,0.7l0.4,-0.1Z" class="g2_1069" />
<path d="M624.5,280.7l0.4,-0.1l0.2,0.7l-0.4,0.1Z" class="g2_1069" />
<path d="M522.7,310.6l0.2,0.7L624.7,281.4l-0.2,-0.7Z" class="g2_1069" />
<path d="M489.3,283.3l0.4,-0.8l-1.5,-0.7l-0.3,0.7Z" class="g2_1069" />
<path d="M488.9,282.2l-0.3,2.5l-0.1,1.6l-7.7,-6.6l-2,-1.8l2.6,0.4l8.5,1.3l1.5,0.3l-1.1,1.1l-0.7,0.1l-8.3,-1.2l0.1,-1.6l0.4,0.3l6.4,5.5l-1,1.1L487,284.4l0.3,-2.4Z" class="g2_1069" />
<path d="M490.3,281l-1.7,1.7L487.3,282l0,-0.3l0.2,-0.1l1.7,-1.7Z" class="g2_1069" />
<path fill-rule="evenodd" d="M488,282.1l-0.2,2.5l-6.5,-5.5l8.5,1.3Z" class="g2_1069" />
<path d="M545.9,309.3l0.2,0.1l0.3,-0.7l-0.3,-0.1Z" class="g2_1069" />
<path d="M489.4,283.3l-0.3,-0.1l0.3,-0.7l0.3,0.1Z" class="g2_1069" />
<path d="M545.9,309.3l0.2,-0.7l-56.4,-26l-0.3,0.7Z" class="g2_1069" />
<path d="M439.8,284.5l0.2,-0.7l-1.6,-0.5l-0.1,0.8Z" class="g2_1069" />
<path d="M439.2,283.7l0.1,2.5l0.1,1.5L438,286.8l-7.2,-4.7l-2.3,-1.4l2.8,0l8.5,0.2l1.5,0l-0.8,1.2l-0.7,0.3l-8.5,-0.2l0,-1.5l0.4,0.2l7.1,4.6l-0.8,1.3l-0.4,-0.6l-0.1,-2.5Z" class="g2_1069" />
<path d="M440.5,282.1l-1.5,2l-1.5,-0.4l0,-0.3l0.2,-0.1l1.5,-2.1Z" class="g2_1069" />
<path fill-rule="evenodd" d="M438.4,283.7l0,2.5l-7.1,-4.7l8.5,0.2Z" class="g2_1069" />
<path d="M519.3,309.3l0.4,0.1l0.1,-0.8l-0.3,0Z" class="g2_1069" />
<path d="M439.8,284.5l-0.3,-0.1l0.1,-0.7l0.4,0.1Z" class="g2_1069" />
<path d="M519.3,309.3l0.2,-0.7L440,283.8l-0.2,0.7Z" class="g2_1069" />
<path d="M705.1,238.2l-0.5,0.6l1.2,1l0.6,-0.6Z" class="g2_1069" />
<path d="M705.4,239.2l0.8,-2.3l0.5,-1.5l0.9,1.4l4.7,7l1.6,2.2l-2.5,-1.1l-7.8,-3.4l-1.4,-0.6l1.3,-0.7l0.8,0l7.8,3.4l-0.7,1.3l-0.3,-0.2l-4.8,-7.1l1.3,-0.8l0.1,0.6l-0.9,2.4Z" class="g2_1069" />
<path d="M703.5,240.2l2.2,-1.3l1.1,0.9l0,0.3l-0.3,0.1l-2.2,1.3Z" class="g2_1069" />
<path fill-rule="evenodd" d="M706.1,239.5l0.8,-2.4l4.8,7.1l-7.8,-3.4Z" class="g2_1069" />
<path d="M652.8,195l-0.3,-0.2l-0.5,0.5l0.3,0.2Z" class="g2_1069" />
<path d="M705.1,238.2l0.3,0.2l-0.5,0.6l-0.3,-0.2Z" class="g2_1069" />
<path d="M652.8,195l-0.5,0.5l52.3,43.3l0.5,-0.6Z" class="g2_1069" />
<path d="M695.7,244.6l-0.4,0.7l1.5,0.8l0.3,-0.7Z" class="g2_1069" />
<path d="M696.2,245.7l0.3,-2.6l0.2,-1.6l1.1,1.1l6.2,6l1.9,1.8l-2.5,-0.5l-8.5,-1.8l-1.5,-0.2l1.1,-1l0.7,-0.2l8.4,1.7l-0.2,1.5L703,249.7l-6.2,-6l1,-1.1l0.2,0.7l-0.3,2.5Z" class="g2_1069" />
<path d="M694.5,246.9l1.9,-1.7l1.3,0.7l0,0.2l-0.2,0.2l-1.9,1.7Z" class="g2_1069" />
<path fill-rule="evenodd" d="M696.9,245.8l0.3,-2.6l6.3,5.9L695,247.4Z" class="g2_1069" />
<path d="M603.7,196.9l-0.3,-0.2l-0.3,0.7l0.3,0.1Z" class="g2_1069" />
<path d="M695.7,244.7l0.2,0.1l-0.3,0.7l-0.3,-0.2Z" class="g2_1069" />
<path d="M603.7,196.9l-0.3,0.6l91.9,47.8l0.4,-0.6Z" class="g2_1069" />
<path d="M675.5,244.6l-0.2,0.7l1.5,0.5L677,245Z" class="g2_1069" />
<path d="M676,245.4l0,-4l1.3,0.9l7,4.9l2.2,1.6l-2.7,-0.1l-8.5,-0.5l-1.5,-0.1l0.9,-1.1l0.7,-0.3l8.5,0.4l-0.1,1.6l-0.4,-0.2l-7,-4.9l0.9,-1.3l0.4,0.6l0,2.5Z" class="g2_1069" />
<path d="M674.7,247l1.5,-2.1l1.5,0.5l0,0.3l-0.2,0.2l-1.5,2Z" class="g2_1069" />
<path fill-rule="evenodd" d="M676.9,245.4l0,-2.5l6.9,5l-8.5,-0.5Z" class="g2_1069" />
<path d="M540.2,197.6l-0.4,-0.1l-0.3,0.8l0.4,0.1Z" class="g2_1069" />
<path d="M675.6,244.6l0.4,0.1l-0.3,0.7l-0.4,-0.1Z" class="g2_1069" />
<path d="M540.2,197.6l-0.3,0.8l135.4,46.9l0.3,-0.7Z" class="g2_1069" />
<path d="M505.4,275.5l55.6,0L561,248l-55.6,0l0,27.5Z" class="g1_1069" />
<path d="M505.4,248.4l56,0l0,-0.7l-56,0l0,0.7Z" class="g2_1069" />
<path d="M560.6,275.9l0.8,0l0,-27.9l-0.8,0l0,27.9Z" class="g2_1069" />
<path d="M505.1,275.9l55.9,0l0,-0.7l-55.9,0l0,0.7Z" class="g2_1069" />
<path d="M505.1,275.5l0.7,0l0,-27.8l-0.7,0l0,27.8Z" class="g2_1069" />
<path d="M561,275.5l55.6,0l0,-27.5L561,248l0,27.5Z" class="g1_1069" />
<path d="M561,248.4l55.9,0l0,-0.7l-55.9,0l0,0.7Z" class="g2_1069" />
<path d="M616.2,275.9l0.7,0l0,-27.9l-0.7,0l0,27.9Z" class="g2_1069" />
<path d="M560.6,275.9l56,0l0,-0.7l-56,0l0,0.7Z" class="g2_1069" />
<path d="M560.6,275.5l0.8,0l0,-27.8l-0.8,0l0,27.8Z" class="g2_1069" />
<path d="M616.6,275.5l55.5,0l0,-27.5l-55.5,0l0,27.5Z" class="g1_1069" />
<path d="M616.6,248.4l55.9,0l0,-0.7l-55.9,0l0,0.7Z" class="g2_1069" />
<path d="M671.7,275.9l0.8,0l0,-27.9l-0.8,0l0,27.9Z" class="g2_1069" />
<path d="M616.2,275.9l55.9,0l0,-0.7l-55.9,0l0,0.7Z" class="g2_1069" />
<path d="M616.2,275.5l0.7,0l0,-27.8l-0.7,0l0,27.8Z" class="g2_1069" />
<path d="M672.1,275.5l55.6,0l0,-27.5l-55.6,0l0,27.5Z" class="g1_1069" />
<path d="M672.1,248.4l56,0l0,-0.7l-56,0l0,0.7Z" class="g2_1069" />
<path d="M727.4,275.9l0.7,0l0,-27.9l-0.7,0l0,27.9Z" class="g2_1069" />
<path d="M671.7,275.9l56,0l0,-0.7l-56,0l0,0.7Z" class="g2_1069" />
<path d="M671.7,275.5l0.8,0l0,-27.8l-0.8,0l0,27.8Z" class="g2_1069" />
<path d="M505.7,195.2l55.6,0l0,-27.5l-55.6,0l0,27.5Z" class="g1_1069" />
<path d="M505.7,168.1l55.9,0l0,-0.7l-55.9,0l0,0.7Z" class="g2_1069" />
<path d="M560.9,195.6l0.7,0l0,-27.9l-0.7,0l0,27.9Z" class="g2_1069" />
<path d="M505.4,195.6l55.9,0l0,-0.7l-55.9,0l0,0.7Z" class="g2_1069" />
<path d="M505.4,195.2l0.7,0l0,-27.8l-0.7,0l0,27.8Z" class="g2_1069" />
<path d="M561.3,195.2l55.5,0l0,-27.5l-55.5,0l0,27.5Z" class="g1_1069" />
<path d="M561.3,168.1l55.9,0l0,-0.7l-55.9,0l0,0.7Z" class="g2_1069" />
<path d="M616.5,195.6l0.7,0l0,-27.9l-0.7,0l0,27.9Z" class="g2_1069" />
<path d="M560.9,195.6l55.9,0l0,-0.7l-55.9,0l0,0.7Z" class="g2_1069" />
<path d="M560.9,195.2l0.7,0l0,-27.8l-0.7,0l0,27.8Z" class="g2_1069" />
<path d="M616.8,195.2l55.7,0l0,-27.5l-55.7,0l0,27.5Z" class="g1_1069" />
<path d="M616.8,168.1l56,0l0,-0.7l-56,0l0,0.7Z" class="g2_1069" />
<path d="M672.1,195.6l0.7,0l0,-27.9l-0.7,0l0,27.9Z" class="g2_1069" />
<path d="M616.5,195.6l56,0l0,-0.7l-56,0l0,0.7Z" class="g2_1069" />
<path d="M616.5,195.2l0.7,0l0,-27.8l-0.7,0l0,27.8Z" class="g2_1069" />
<path d="M672.5,195.2l55.5,0l0,-27.5l-55.5,0l0,27.5Z" class="g1_1069" />
<path d="M672.5,168.1l55.9,0l0,-0.7l-55.9,0l0,0.7Z" class="g2_1069" />
<path d="M727.7,195.6l0.7,0l0,-27.9l-0.7,0l0,27.9Z" class="g2_1069" />
<path d="M672.1,195.6l55.9,0l0,-0.7l-55.9,0l0,0.7Z" class="g2_1069" />
<path d="M672.1,195.2l0.7,0l0,-27.8l-0.7,0l0,27.8Z" class="g2_1069" />
<path d="M584.6,278.5l0.1,0.7l1.6,-0.4L586.1,278Z" class="g2_1069" />
<path d="M585.6,278.9L584,276.8l-0.9,-1.2l1.5,0l8.6,-0.3l2.6,-0.1l-2.2,1.5l-7,4.8l-1.3,0.9l0,-1.5l0.4,-0.7l7.1,-4.7l0.8,1.2l-0.3,0.1l-8.6,0.3l-0.1,-1.5l0.7,0.3l1.5,2Z" class="g2_1069" />
<path d="M585.3,280.9l0.1,-2.5l1.4,-0.5l0.2,0.2l0,0.3l-0.1,2.5Z" class="g2_1069" />
<path fill-rule="evenodd" d="M586.2,278.4l-1.5,-2l8.5,-0.3l-7.1,4.8Z" class="g2_1069" />
<path d="M497.3,306.7l-0.4,0.1l0.2,0.7l0.4,-0.1Z" class="g2_1069" />
<path d="M584.6,278.5l0.3,-0.1l0.2,0.7l-0.4,0.1Z" class="g2_1069" />
<path d="M497.3,306.7l0.2,0.7l87.2,-28.2l-0.1,-0.7Z" class="g2_1069" />
<path d="M532.2,280.4l0.4,0.7l1.5,-0.7l-0.4,-0.7Z" class="g2_1069" />
<path d="M533.3,280.6l-1.8,-1.8l-1.1,-1l1.5,-0.2l8.5,-1.5l2.6,-0.6l-2,1.9l-6.3,5.7l-1.2,1.1l-0.2,-1.6l0.4,-0.6l6.3,-5.7l1,1.1l-0.4,0.2l-8.4,1.4l-0.3,-1.4l0.7,0.1l1.8,1.8Z" class="g2_1069" />
<path d="M533.3,282.6L533,280.1l1.4,-0.6l0.2,0.2l0,0.2l0.3,2.5Z" class="g2_1069" />
<path fill-rule="evenodd" d="M533.9,280L532,278.3l8.5,-1.5l-6.4,5.7Z" class="g2_1069" />
<path d="M477,307.7l-0.2,0.2l0.3,0.6l0.3,-0.1Z" class="g2_1069" />
<path d="M532.2,280.5l0.3,-0.2l0.4,0.7l-0.3,0.1Z" class="g2_1069" />
<path d="M477,307.7l0.4,0.7l55.2,-27.3l-0.4,-0.6Z" class="g2_1069" />
<path d="M327.6,279.3l0.2,-0.7l-1.7,-0.4l-0.1,0.7Z" class="g2_1069" />
<path d="M326.8,278.5l0.4,2.6l0.2,1.5L326,281.8l-7.6,-4.1l-2.1,-1.3l2.5,-0.1l8.5,-0.6l1.7,-0.1l-0.9,1.3l-0.7,0.3l-8.5,0.6l-0.1,-1.5l0.5,0.1l7.5,4.1l-0.8,1.3l-0.3,-0.6l-0.4,-2.5Z" class="g2_1069" />
<path d="M328.1,276.9l-1.4,2.1l-1.4,-0.3l-0.1,-0.3l0.2,-0.3l1.4,-2.1Z" class="g2_1069" />
<path fill-rule="evenodd" d="M326.1,278.6l0.3,2.5L318.9,277l8.5,-0.5Z" class="g2_1069" />
<path d="M464.3,310.2l0.4,0.1l0.1,-0.7l-0.3,-0.1Z" class="g2_1069" />
<path d="M327.6,279.3l-0.4,-0.1l0.2,-0.7l0.4,0.1Z" class="g2_1069" />
<path d="M464.3,310.2l0.2,-0.7L327.8,278.6l-0.2,0.7Z" class="g2_1069" />
<path d="M381,280.8l0.1,-0.8l-1.5,-0.3l-0.2,0.7Z" class="g2_1069" />
<path d="M380.2,279.9l0.3,2.5l0.3,1.6l-1.5,-0.8l-7.4,-4.3l-2.2,-1.2l2.6,-0.2l8.5,-0.3l1.6,-0.1l-0.9,1.3l-0.6,0.3l-8.5,0.3l-0.1,-1.5l0.4,0.2l7.4,4.2l-0.8,1.3L379,282.6l-0.2,-2.5Z" class="g2_1069" />
<path d="M381.5,278.4l-1.4,2.1l-1.3,-0.4l-0.1,-0.2l0.2,-0.3l1.3,-2.1Z" class="g2_1069" />
<path fill-rule="evenodd" d="M379.5,280l0.3,2.5l-7.4,-4.2l8.5,-0.4Z" class="g2_1069" />
<path d="M491.8,308.4l0.4,0.1l0.1,-0.8L492,307.6Z" class="g2_1069" />
<path d="M381,280.8l-0.4,-0.1l0.2,-0.7l0.3,0Z" class="g2_1069" />
<path d="M491.8,308.4l0.2,-0.8L381.1,280l-0.1,0.8Z" class="g2_1069" />
<path d="M489.1,236.6l-0.7,0.2l0.4,1.5l0.7,-0.1Z" class="g2_1069" />
<path d="M488.7,237.6l2.1,-1.4l1.3,-0.9L492,237l-0.5,8.5l-0.1,2.6l-1.3,-2.2L486,238.4l-0.8,-1.3l1.5,0.1l0.6,0.4l4.1,7.4l-1.3,0.9L490,245.4l0.5,-8.5L492,237l-0.3,0.5l-2.1,1.4Z" class="g2_1069" />
<path d="M486.8,237.2l2.4,0.3l0.4,1.4l-0.3,0.2L489,239l-2.4,-0.3Z" class="g2_1069" />
<path fill-rule="evenodd" d="M489.1,238.2l2.1,-1.3l-0.4,8.5L486.7,238Z" class="g2_1069" />
<path d="M480.2,196.9l0,-0.4l-0.8,0.2l0.1,0.4Z" class="g2_1069" />
<path d="M489.1,236.6l0.1,0.4l-0.7,0.1l-0.1,-0.3Z" class="g2_1069" />
<path d="M480.2,196.9l-0.7,0.2l8.9,39.7l0.7,-0.2Z" class="g2_1069" />
<path d="M479,237.6l-0.6,0.6l1.3,1.1l0.5,-0.6Z" class="g2_1069" />
<path d="M479.2,238.7l0.9,-2.4l0.4,-1.5l0.9,1.4l4.9,7.1l1.6,2.2l-2.5,-1.1l-7.9,-3.5L476,240.3l1.4,-0.8l0.7,0L486,243l-0.6,1.4L485,244.1L480.2,237l1.2,-0.8l0.1,0.7l-0.8,2.3Z" class="g2_1069" />
<path d="M477.4,239.5l2.2,-1.2l1.1,1l-0.1,0.2l-0.3,0.1l-2.2,1.2Z" class="g2_1069" />
<path fill-rule="evenodd" d="M480,239l0.8,-2.4l4.9,7l-7.9,-3.4Z" class="g2_1069" />
<path d="M426.6,194.3l-0.3,-0.1l-0.4,0.5l0.3,0.2Z" class="g2_1069" />
<path d="M479,237.6l0.2,0.2l-0.4,0.5l-0.3,-0.1Z" class="g2_1069" />
<path d="M426.6,194.3l-0.4,0.6l52.3,43.3l0.5,-0.6Z" class="g2_1069" />
<path d="M469.5,244l-0.3,0.7l1.4,0.8l0.4,-0.8Z" class="g2_1069" />
<path d="M470.1,245l0.2,-2.4l0.1,-1.6l1.2,1.1l6.3,5.9l1.9,1.8l-2.6,-0.6l-8.3,-1.7l-1.6,-0.3l1.1,-1l0.7,-0.2l8.4,1.8l-0.3,1.4l-0.4,-0.1l-6.2,-5.9l1,-1.1l0.2,0.6l-0.3,2.5Z" class="g2_1069" />
<path d="M468.4,246.2l1.9,-1.6l1.2,0.6l0,0.3l-0.1,0.2l-1.9,1.6Z" class="g2_1069" />
<path fill-rule="evenodd" d="M470.8,245.1l0.3,-2.5l6.2,5.9L469,246.8Z" class="g2_1069" />
<path d="M377.7,196.3l-0.3,-0.2l-0.4,0.6l0.3,0.2Z" class="g2_1069" />
<path d="M469.5,244.1l0.3,0.2l-0.4,0.6l-0.2,-0.1Z" class="g2_1069" />
<path d="M377.7,196.3l-0.4,0.6l91.8,47.9l0.4,-0.7Z" class="g2_1069" />
<path d="M449.3,243.9l-0.1,0.8l1.5,0.5l0.2,-0.7Z" class="g2_1069" />
<path d="M450,244.8l-0.1,-2.5l0,-1.6l1.3,0.9l7,5l2.2,1.5L457.7,248l-8.5,-0.4l-1.6,-0.1l0.9,-1.2l0.8,-0.3l8.5,0.5l-0.1,1.5l-0.5,-0.1l-6.9,-5l0.9,-1.3l0.4,0.7l0,2.5Z" class="g2_1069" />
<path d="M448.5,246.3l1.7,-1.9l1.4,0.4l0,0.3l-0.1,0.2l-1.7,1.9Z" class="g2_1069" />
<path fill-rule="evenodd" d="M450.8,244.8l-0.1,-2.5l7,4.9l-8.5,-0.4Z" class="g2_1069" />
<path d="M314,197l-0.3,-0.1l-0.3,0.7l0.4,0.1Z" class="g2_1069" />
<path d="M449.4,243.9l0.4,0.1l-0.3,0.7l-0.3,0Z" class="g2_1069" />
<path d="M314,197l-0.2,0.7l135.4,47l0.2,-0.8Z" class="g2_1069" />
</svg>