<?xml version="1.0" encoding="UTF-8" standalone="no"?>
<!DOCTYPE svg PUBLIC "-//W3C//DTD SVG 1.1//EN"
"http://www.w3.org/Graphics/SVG/1.1/DTD/svg11.dtd">
<svg viewBox="0 0 935 1210" version="1.1" xmlns="http://www.w3.org/2000/svg" xmlns:xlink="http://www.w3.org/1999/xlink">
<defs>
<style type="text/css"><![CDATA[
.g1_182{
fill: #FFFFFF;
}
.g2_182{
}
]]></style>
</defs>
<path d="M165,1149.3l687.5,0l0,-21.2l-687.5,0l0,21.2Z" class="g1_182" />
<path d="M68.8,1149.3l82.5,0l0,-21.2l-82.5,0l0,21.2Z" class="g1_182" />
<path d="M68.6,251.7l0.7,0l0,-126l-0.7,0l0,126Z" class="g2_182" />
<path d="M257,252.4l0.8,0l0,-127.5l-0.8,0l0,127.5Z" class="g2_182" />
<path d="M302.7,252.4l0.7,0l0,-127.5l-0.7,0l0,127.5Z" class="g2_182" />
<path d="M361.2,252.4l0.7,0l0,-127.5l-0.7,0l0,127.5Z" class="g2_182" />
<path d="M428.7,252.4l0.8,0l0,-127.5l-0.8,0l0,127.5Z" class="g2_182" />
<path d="M855,251.7l0.7,0l0,-126l-0.7,0l0,126Z" class="g2_182" />
<path d="M68.6,125.7l787.2,0l0,-0.8l-787.2,0l0,0.8Z" class="g2_182" />
<path d="M68.6,179.1l787.2,0l0,-0.7l-787.2,0l0,0.7Z" class="g2_182" />
<path d="M68.6,215.8l787.2,0l0,-0.8L68.6,215l0,0.8Z" class="g2_182" />
<path d="M68.6,252.4l787.2,0l0,-0.7l-787.2,0l0,0.7Z" class="g2_182" />
<path d="M69.1,355.6l0.8,0l0,-48.2l-0.8,0l0,48.2Z" class="g2_182" />
<path d="M140.1,356.4l0.7,0l0,-49.7l-0.7,0l0,49.7Z" class="g2_182" />
<path d="M317.1,356.4l0.7,0l0,-49.7l-0.7,0l0,49.7Z" class="g2_182" />
<path d="M502.4,356.4l0.8,0l0,-49.7l-0.8,0l0,49.7Z" class="g2_182" />
<path d="M677.2,356.4l0.8,0l0,-49.7l-0.8,0l0,49.7Z" class="g2_182" />
<path d="M851.3,355.6l0.7,0l0,-48.2l-0.7,0l0,48.2Z" class="g2_182" />
<path d="M69.1,307.4l782.9,0l0,-0.7l-782.9,0l0,0.7Z" class="g2_182" />
<path d="M69.1,331.9l782.9,0l0,-0.7l-782.9,0l0,0.7Z" class="g2_182" />
<path d="M69.1,356.3l782.9,0l0,-0.7l-782.9,0l0,0.7Z" class="g2_182" />
</svg>