<?xml version="1.0" encoding="UTF-8" standalone="no"?>
<!DOCTYPE svg PUBLIC "-//W3C//DTD SVG 1.1//EN"
"http://www.w3.org/Graphics/SVG/1.1/DTD/svg11.dtd">
<svg viewBox="0 0 935 1210" version="1.1" xmlns="http://www.w3.org/2000/svg" xmlns:xlink="http://www.w3.org/1999/xlink">
<defs>
<style type="text/css"><![CDATA[
.g1_1186{
fill: #FFFFFF;
}
.g2_1186{
}
]]></style>
</defs>
<path d="M165,1149.3l687.5,0l0,-21.2l-687.5,0l0,21.2Z" class="g1_1186" />
<path d="M68.8,1149.3l82.5,0l0,-21.2l-82.5,0l0,21.2Z" class="g1_1186" />
<path d="M65.8,267l0.8,0l0,-135.2l-0.8,0l0,135.2Z" class="g2_1186" />
<path d="M355.1,267.8l0.8,0l0,-136.8l-0.8,0l0,136.8Z" class="g2_1186" />
<path d="M397.5,267.8l0.7,0l0,-136.8l-0.7,0l0,136.8Z" class="g2_1186" />
<path d="M458.3,267.8l0.8,0l0,-136.8l-0.8,0l0,136.8Z" class="g2_1186" />
<path d="M547.6,267.8l0.8,0l0,-136.8l-0.8,0l0,136.8Z" class="g2_1186" />
<path d="M854.6,267l0.7,0l0,-135.2l-0.7,0l0,135.2Z" class="g2_1186" />
<path d="M65.8,131.7l789.5,0l0,-0.7L65.8,131l0,0.7Z" class="g2_1186" />
<path d="M65.8,188.3l789.5,0l0,-0.7l-789.5,0l0,0.7Z" class="g2_1186" />
<path d="M65.8,228l789.5,0l0,-0.8l-789.5,0l0,0.8Z" class="g2_1186" />
<path d="M65.8,267.8l789.5,0l0,-0.8L65.8,267l0,0.8Z" class="g2_1186" />
<path d="M69.1,367.9l0.8,0l0,-48.2l-0.8,0l0,48.2Z" class="g2_1186" />
<path d="M134.4,368.6l0.7,0l0,-49.7l-0.7,0l0,49.7Z" class="g2_1186" />
<path d="M305.5,368.6l0.8,0l0,-49.7l-0.8,0l0,49.7Z" class="g2_1186" />
<path d="M482.2,368.6l0.7,0l0,-49.7l-0.7,0l0,49.7Z" class="g2_1186" />
<path d="M664.1,368.6l0.8,0l0,-49.7l-0.8,0l0,49.7Z" class="g2_1186" />
<path d="M851.3,367.9l0.7,0l0,-48.2l-0.7,0l0,48.2Z" class="g2_1186" />
<path d="M69.1,319.6l782.9,0l0,-0.7l-782.9,0l0,0.7Z" class="g2_1186" />
<path d="M69.1,344.1l782.9,0l0,-0.7l-782.9,0l0,0.7Z" class="g2_1186" />
<path d="M69.1,368.6l782.9,0l0,-0.7l-782.9,0l0,0.7Z" class="g2_1186" />
</svg>