<?xml version="1.0" encoding="UTF-8" standalone="no"?>
<!DOCTYPE svg PUBLIC "-//W3C//DTD SVG 1.1//EN"
"http://www.w3.org/Graphics/SVG/1.1/DTD/svg11.dtd">
<svg viewBox="0 0 935 1210" version="1.1" xmlns="http://www.w3.org/2000/svg" xmlns:xlink="http://www.w3.org/1999/xlink">
<defs>
<style type="text/css"><![CDATA[
.g1_447{
fill: #FFFFFF;
}
.g2_447{
}
]]></style>
</defs>
<path d="M68.9,1149.3l686.3,0l0,-21.2l-686.3,0l0,21.2Z" class="g1_447" />
<path d="M771.3,1149.3l83.7,0l0,-21.2l-83.7,0l0,21.2Z" class="g1_447" />
<path d="M70.4,192.1l0.7,0l0,-60.3l-0.7,0l0,60.3Z" class="g2_447" />
<path d="M206.2,192.9l0.7,0l0,-61.9l-0.7,0l0,61.9Z" class="g2_447" />
<path d="M338.3,192.9l0.8,0l0,-61.9l-0.8,0l0,61.9Z" class="g2_447" />
<path d="M412.7,192.9l0.7,0l0,-61.9l-0.7,0l0,61.9Z" class="g2_447" />
<path d="M508.1,192.9l0.7,0l0,-61.9l-0.7,0l0,61.9Z" class="g2_447" />
<path d="M851.6,192.1l0.7,0l0,-60.3l-0.7,0l0,60.3Z" class="g2_447" />
<path d="M70.4,131.7l781.9,0l0,-0.7L70.4,131l0,0.7Z" class="g2_447" />
<path d="M70.4,169.9l781.9,0l0,-0.7l-781.9,0l0,0.7Z" class="g2_447" />
<path d="M70.4,192.9l781.9,0l0,-0.8l-781.9,0l0,0.8Z" class="g2_447" />
</svg>