<?xml version="1.0" encoding="UTF-8" standalone="no"?>
<!DOCTYPE svg PUBLIC "-//W3C//DTD SVG 1.1//EN"
"http://www.w3.org/Graphics/SVG/1.1/DTD/svg11.dtd">
<svg viewBox="0 0 935 1210" version="1.1" xmlns="http://www.w3.org/2000/svg" xmlns:xlink="http://www.w3.org/1999/xlink">
<defs>
<style type="text/css"><![CDATA[
.g1_2049{
fill: #FFFFFF;
}
.g2_2049{
}
]]></style>
</defs>
<path d="M68.9,1149l783.8,0l0,-21.4l-783.8,0l0,21.4Z" class="g1_2049" />
<path d="M69.2,374.7l2.3,0l0,-203.9l-2.3,0l0,203.9Z" class="g2_2049" />
<path d="M69.2,603.9l2.3,0l0,-204l-2.3,0l0,204Z" class="g2_2049" />
<path d="M105.7,377l2.3,0l0,-208.5l-2.3,0l0,208.5Z" class="g2_2049" />
<path d="M105.7,606.2l2.3,0l0,-208.5l-2.3,0l0,208.5Z" class="g2_2049" />
<path d="M204.3,193.7l0.8,0l0,-25.2l-0.8,0l0,25.2Z" class="g2_2049" />
<path d="M204.3,238.7l0.8,0l0,-23.6l-0.8,0l0,23.6Z" class="g2_2049" />
<path d="M204.3,284.5l0.8,0l0,-23.6l-0.8,0l0,23.6Z" class="g2_2049" />
<path d="M204.3,330.4l0.8,0l0,-23.7l-0.8,0l0,23.7Z" class="g2_2049" />
<path d="M204.3,377l0.8,0l0,-24.4l-0.8,0l0,24.4Z" class="g2_2049" />
<path d="M204.3,422.9l0.8,0l0,-25.2l-0.8,0l0,25.2Z" class="g2_2049" />
<path d="M204.3,513.7l0.8,0l0,-69.5l-0.8,0l0,69.5Z" class="g2_2049" />
<path d="M204.3,559.5l0.8,0l0,-23.6l-0.8,0l0,23.6Z" class="g2_2049" />
<path d="M204.3,606.2l0.8,0l0,-24.5l-0.8,0l0,24.5Z" class="g2_2049" />
<path d="M296.1,193.7l0.7,0l0,-25.2l-0.7,0l0,25.2Z" class="g2_2049" />
<path d="M296.1,238.7l0.7,0l0,-23.6l-0.7,0l0,23.6Z" class="g2_2049" />
<path d="M296.1,284.5l0.7,0l0,-23.6l-0.7,0l0,23.6Z" class="g2_2049" />
<path d="M296.1,330.4l0.7,0l0,-23.7l-0.7,0l0,23.7Z" class="g2_2049" />
<path d="M296.1,377l0.7,0l0,-24.4l-0.7,0l0,24.4Z" class="g2_2049" />
<path d="M296.1,422.9l0.7,0l0,-25.2l-0.7,0l0,25.2Z" class="g2_2049" />
<path d="M296.1,513.7l0.7,0l0,-69.5l-0.7,0l0,69.5Z" class="g2_2049" />
<path d="M296.1,559.5l0.7,0l0,-23.6l-0.7,0l0,23.6Z" class="g2_2049" />
<path d="M296.1,606.2l0.7,0l0,-24.5l-0.7,0l0,24.5Z" class="g2_2049" />
<path d="M388.1,193.7l0.7,0l0,-25.2l-0.7,0l0,25.2Z" class="g2_2049" />
<path d="M388.1,238.7l0.7,0l0,-23.6l-0.7,0l0,23.6Z" class="g2_2049" />
<path d="M388.1,284.5l0.7,0l0,-23.6l-0.7,0l0,23.6Z" class="g2_2049" />
<path d="M388.1,330.4l0.7,0l0,-23.7l-0.7,0l0,23.7Z" class="g2_2049" />
<path d="M388.1,377l0.7,0l0,-24.4l-0.7,0l0,24.4Z" class="g2_2049" />
<path d="M388.1,422.9l0.7,0l0,-25.2l-0.7,0l0,25.2Z" class="g2_2049" />
<path d="M388.1,513.7l0.7,0l0,-69.5l-0.7,0l0,69.5Z" class="g2_2049" />
<path d="M388.1,559.5l0.7,0l0,-23.6l-0.7,0l0,23.6Z" class="g2_2049" />
<path d="M388.1,606.2l0.7,0l0,-24.5l-0.7,0l0,24.5Z" class="g2_2049" />
<path d="M480.1,193.7l0.7,0l0,-25.2l-0.7,0l0,25.2Z" class="g2_2049" />
<path d="M480.1,238.7l0.7,0l0,-23.6l-0.7,0l0,23.6Z" class="g2_2049" />
<path d="M480.1,284.5l0.7,0l0,-23.6l-0.7,0l0,23.6Z" class="g2_2049" />
<path d="M480.1,330.4l0.7,0l0,-23.7l-0.7,0l0,23.7Z" class="g2_2049" />
<path d="M480.1,377l0.7,0l0,-24.4l-0.7,0l0,24.4Z" class="g2_2049" />
<path d="M480.1,422.9l0.7,0l0,-25.2l-0.7,0l0,25.2Z" class="g2_2049" />
<path d="M480.1,513.7l0.7,0l0,-69.5l-0.7,0l0,69.5Z" class="g2_2049" />
<path d="M480.1,559.5l0.7,0l0,-23.6l-0.7,0l0,23.6Z" class="g2_2049" />
<path d="M480.1,606.2l0.7,0l0,-24.5l-0.7,0l0,24.5Z" class="g2_2049" />
<path d="M572,193.7l0.7,0l0,-25.2l-0.7,0l0,25.2Z" class="g2_2049" />
<path d="M572,238.7l0.7,0l0,-23.6l-0.7,0l0,23.6Z" class="g2_2049" />
<path d="M572,284.5l0.7,0l0,-23.6l-0.7,0l0,23.6Z" class="g2_2049" />
<path d="M572,330.4l0.7,0l0,-23.7l-0.7,0l0,23.7Z" class="g2_2049" />
<path d="M572,377l0.7,0l0,-24.4l-0.7,0l0,24.4Z" class="g2_2049" />
<path d="M572,422.9l0.7,0l0,-25.2l-0.7,0l0,25.2Z" class="g2_2049" />
<path d="M572,513.7l0.7,0l0,-69.5l-0.7,0l0,69.5Z" class="g2_2049" />
<path d="M572,559.5l0.7,0l0,-23.6l-0.7,0l0,23.6Z" class="g2_2049" />
<path d="M572,606.2l0.7,0l0,-24.5l-0.7,0l0,24.5Z" class="g2_2049" />
<path d="M663.9,193.7l0.8,0l0,-25.2l-0.8,0l0,25.2Z" class="g2_2049" />
<path d="M663.9,238.7l0.8,0l0,-23.6l-0.8,0l0,23.6Z" class="g2_2049" />
<path d="M663.9,284.5l0.8,0l0,-23.6l-0.8,0l0,23.6Z" class="g2_2049" />
<path d="M663.9,330.4l0.8,0l0,-23.7l-0.8,0l0,23.7Z" class="g2_2049" />
<path d="M663.9,377l0.8,0l0,-24.4l-0.8,0l0,24.4Z" class="g2_2049" />
<path d="M663.9,422.9l0.8,0l0,-25.2l-0.8,0l0,25.2Z" class="g2_2049" />
<path d="M663.9,513.7l0.8,0l0,-69.5l-0.8,0l0,69.5Z" class="g2_2049" />
<path d="M663.9,559.5l0.8,0l0,-23.6l-0.8,0l0,23.6Z" class="g2_2049" />
<path d="M663.9,606.2l0.8,0l0,-24.5l-0.8,0l0,24.5Z" class="g2_2049" />
<path d="M759.6,193.7l0.8,0l0,-25.2l-0.8,0l0,25.2Z" class="g2_2049" />
<path d="M759.6,238.7l0.8,0l0,-23.6l-0.8,0l0,23.6Z" class="g2_2049" />
<path d="M759.6,284.5l0.8,0l0,-23.6l-0.8,0l0,23.6Z" class="g2_2049" />
<path d="M759.6,330.4l0.8,0l0,-23.7l-0.8,0l0,23.7Z" class="g2_2049" />
<path d="M759.6,377l0.8,0l0,-24.4l-0.8,0l0,24.4Z" class="g2_2049" />
<path d="M759.6,422.9l0.8,0l0,-25.2l-0.8,0l0,25.2Z" class="g2_2049" />
<path d="M759.6,513.7l0.8,0l0,-69.5l-0.8,0l0,69.5Z" class="g2_2049" />
<path d="M759.6,559.5l0.8,0l0,-23.6l-0.8,0l0,23.6Z" class="g2_2049" />
<path d="M759.6,606.2l0.8,0l0,-24.5l-0.8,0l0,24.5Z" class="g2_2049" />
<path d="M853.1,374.7l2.3,0l0,-203.9l-2.3,0l0,203.9Z" class="g2_2049" />
<path d="M853.1,603.9l2.3,0l0,-204l-2.3,0l0,204Z" class="g2_2049" />
<path d="M69.1,170.8l786.2,0l0,-2.3l-786.2,0l0,2.3Z" class="g2_2049" />
<path d="M69.1,193.7l786.2,0l0,-2.3l-786.2,0l0,2.3Z" class="g2_2049" />
<path d="M105.7,215.8l749.6,0l0,-0.8l-749.6,0l0,0.8Z" class="g2_2049" />
<path d="M69.1,238.7l786.2,0l0,-0.7L69.1,238l0,0.7Z" class="g2_2049" />
<path d="M105.7,261.6l749.6,0l0,-0.7l-749.6,0l0,0.7Z" class="g2_2049" />
<path d="M69.1,284.5l786.2,0l0,-0.7l-786.2,0l0,0.7Z" class="g2_2049" />
<path d="M105.7,307.4l749.6,0l0,-0.7l-749.6,0l0,0.7Z" class="g2_2049" />
<path d="M69.1,330.4l786.2,0l0,-0.8l-786.2,0l0,0.8Z" class="g2_2049" />
<path d="M105.7,353.3l749.6,0l0,-0.7l-749.6,0l0,0.7Z" class="g2_2049" />
<path d="M69.1,377l786.2,0l0,-2.3l-786.2,0l0,2.3Z" class="g2_2049" />
<path d="M69.1,399.9l786.2,0l0,-2.2l-786.2,0l0,2.2Z" class="g2_2049" />
<path d="M69.1,422.9l786.2,0l0,-2.3l-786.2,0l0,2.3Z" class="g2_2049" />
<path d="M105.7,444.9l749.6,0l0,-0.7l-749.6,0l0,0.7Z" class="g2_2049" />
<path d="M69.1,467.9l786.2,0l0,-0.8l-786.2,0l0,0.8Z" class="g2_2049" />
<path d="M69.1,513.7l786.2,0l0,-0.7L69.1,513l0,0.7Z" class="g2_2049" />
<path d="M105.7,536.6l749.6,0l0,-0.7l-749.6,0l0,0.7Z" class="g2_2049" />
<path d="M69.1,559.5l786.2,0l0,-0.7l-786.2,0l0,0.7Z" class="g2_2049" />
<path d="M105.7,582.4l749.6,0l0,-0.7l-749.6,0l0,0.7Z" class="g2_2049" />
<path d="M69.1,606.2l786.2,0l0,-2.3l-786.2,0l0,2.3Z" class="g2_2049" />
<path d="M69.2,867.4l2.3,0l0,-81.7l-2.3,0l0,81.7Z" class="g2_2049" />
<path d="M171.9,869.7l0.7,0l0,-62.6l-0.7,0l0,62.6Z" class="g2_2049" />
<path d="M270,869.7l0.7,0l0,-62.6l-0.7,0l0,62.6Z" class="g2_2049" />
<path d="M365.7,869.7l0.8,0l0,-62.6l-0.8,0l0,62.6Z" class="g2_2049" />
<path d="M461.5,869.7l0.8,0l0,-62.6l-0.8,0l0,62.6Z" class="g2_2049" />
<path d="M557.2,869.7l0.8,0l0,-62.6l-0.8,0l0,62.6Z" class="g2_2049" />
<path d="M655.7,869.7l0.7,0l0,-62.6l-0.7,0l0,62.6Z" class="g2_2049" />
<path d="M751.5,869.7l0.7,0l0,-62.6l-0.7,0l0,62.6Z" class="g2_2049" />
<path d="M852.7,867.4l2.3,0l0,-81.7l-2.3,0l0,81.7Z" class="g2_2049" />
<path d="M69.1,785.8l785.9,0l0,-2.3l-785.9,0l0,2.3Z" class="g2_2049" />
<path d="M69.1,807.9l785.9,0l0,-0.8l-785.9,0l0,0.8Z" class="g2_2049" />
<path d="M69.1,831.6l785.9,0l0,-2.3l-785.9,0l0,2.3Z" class="g2_2049" />
<path d="M69.1,869.7l785.9,0l0,-2.3l-785.9,0l0,2.3Z" class="g2_2049" />
</svg>