<?xml version="1.0" encoding="UTF-8" standalone="no"?>
<!DOCTYPE svg PUBLIC "-//W3C//DTD SVG 1.1//EN"
"http://www.w3.org/Graphics/SVG/1.1/DTD/svg11.dtd">
<svg viewBox="0 0 935 1210" version="1.1" xmlns="http://www.w3.org/2000/svg" xmlns:xlink="http://www.w3.org/1999/xlink">
<defs>
<style type="text/css"><![CDATA[
.g1_1254{
fill: #FFFFFF;
}
.g2_1254{
}
]]></style>
</defs>
<path d="M165,1149.3l687.5,0l0,-21.2l-687.5,0l0,21.2Z" class="g1_1254" />
<path d="M68.8,1149.3l82.5,0l0,-21.2l-82.5,0l0,21.2Z" class="g1_1254" />
<path d="M68.6,248.7l0.7,0l0,-123l-0.7,0l0,123Z" class="g2_1254" />
<path d="M256.1,249.4l0.7,0l0,-124.5l-0.7,0l0,124.5Z" class="g2_1254" />
<path d="M313.4,249.4l0.7,0l0,-124.5l-0.7,0l0,124.5Z" class="g2_1254" />
<path d="M387.8,249.4l0.8,0l0,-124.5l-0.8,0l0,124.5Z" class="g2_1254" />
<path d="M455.5,249.4l0.7,0l0,-124.5l-0.7,0l0,124.5Z" class="g2_1254" />
<path d="M852.3,248.7l0.8,0l0,-123l-0.8,0l0,123Z" class="g2_1254" />
<path d="M68.6,125.7l784.4,0l0,-0.8l-784.4,0l0,0.8Z" class="g2_1254" />
<path d="M68.6,179.1l784.4,0l0,-0.7l-784.4,0l0,0.7Z" class="g2_1254" />
<path d="M68.6,249.4l784.4,0l0,-0.7l-784.4,0l0,0.7Z" class="g2_1254" />
<path d="M69.9,352.6l0.8,0l0,-48.2l-0.8,0l0,48.2Z" class="g2_1254" />
<path d="M171.5,353.3l0.7,0l0,-49.6l-0.7,0l0,49.6Z" class="g2_1254" />
<path d="M402.1,353.3l0.7,0l0,-49.6l-0.7,0l0,49.6Z" class="g2_1254" />
<path d="M629.6,353.3l0.7,0l0,-49.6l-0.7,0l0,49.6Z" class="g2_1254" />
<path d="M850.5,352.6l0.7,0l0,-48.2l-0.7,0l0,48.2Z" class="g2_1254" />
<path d="M69.9,304.4l781.3,0l0,-0.7l-781.3,0l0,0.7Z" class="g2_1254" />
<path d="M69.9,328.8l781.3,0l0,-0.7l-781.3,0l0,0.7Z" class="g2_1254" />
<path d="M69.9,353.3l781.3,0l0,-0.7l-781.3,0l0,0.7Z" class="g2_1254" />
</svg>