<?xml version="1.0" encoding="UTF-8" standalone="no"?>
<!DOCTYPE svg PUBLIC "-//W3C//DTD SVG 1.1//EN"
"http://www.w3.org/Graphics/SVG/1.1/DTD/svg11.dtd">
<svg viewBox="0 0 935 1210" version="1.1" xmlns="http://www.w3.org/2000/svg" xmlns:xlink="http://www.w3.org/1999/xlink">
<defs>
<style type="text/css"><![CDATA[
.g1_516{
fill: #FFFFFF;
}
.g2_516{
fill: #E6E6E6;
}
.g3_516{
}
]]></style>
</defs>
<path d="M165,1149.3l687.5,0l0,-21.2l-687.5,0l0,21.2Z" class="g1_516" />
<path d="M68.8,1149.3l82.5,0l0,-21.2l-82.5,0l0,21.2Z" class="g1_516" />
<path d="M70.1,190.9l721.7,0l0,-24.3l-721.7,0l0,24.3Z" class="g2_516" />
<path d="M70.1,215.4l721.7,0l0,-24.5l-721.7,0l0,24.5Z" class="g2_516" />
<path d="M70.1,239.9l721.7,0l0,-24.5l-721.7,0l0,24.5Z" class="g2_516" />
<path d="M70.1,264.3l721.7,0l0,-24.4l-721.7,0l0,24.4Z" class="g2_516" />
<path d="M70.1,288.8l721.7,0l0,-24.5l-721.7,0l0,24.5Z" class="g2_516" />
<path d="M70.1,313.2l721.7,0l0,-24.4l-721.7,0l0,24.4Z" class="g2_516" />
<path d="M70.1,337.6l721.7,0l0,-24.4l-721.7,0l0,24.4Z" class="g2_516" />
<path d="M70.1,362.1l721.7,0l0,-24.5l-721.7,0l0,24.5Z" class="g2_516" />
<path d="M70.1,386.6l721.7,0l0,-24.5l-721.7,0l0,24.5Z" class="g2_516" />
<path d="M70.1,411l721.7,0l0,-24.4l-721.7,0l0,24.4Z" class="g2_516" />
<path d="M69,166.2l2.3,0l0,-22.9l-2.3,0l0,22.9Z" class="g3_516" />
<path d="M69.8,483.9l0.7,0l0,-317l-0.7,0l0,317Z" class="g3_516" />
<path d="M158.5,166.9l0.7,0l0,-25.9l-0.7,0l0,25.9Z" class="g3_516" />
<path d="M247.3,166.9l0.8,0l0,-25.9l-0.8,0l0,25.9Z" class="g3_516" />
<path d="M336.1,166.9l0.8,0l0,-25.9l-0.8,0l0,25.9Z" class="g3_516" />
<path d="M424.9,166.9l0.7,0l0,-25.9l-0.7,0l0,25.9Z" class="g3_516" />
<path d="M513.7,166.9l0.7,0l0,-25.9l-0.7,0l0,25.9Z" class="g3_516" />
<path d="M558.1,166.9l0.7,0l0,-25.9l-0.7,0l0,25.9Z" class="g3_516" />
<path d="M613.9,166.9l0.7,0l0,-25.9l-0.7,0l0,25.9Z" class="g3_516" />
<path d="M702.7,166.9l0.8,0l0,-25.9l-0.8,0l0,25.9Z" class="g3_516" />
<path d="M791.4,166.9l0.8,0l0,-25.9l-0.8,0l0,25.9Z" class="g3_516" />
<path d="M790.7,484.7l2.3,0l0,-318.5l-2.3,0l0,318.5Z" class="g3_516" />
<path d="M849.9,483.9l2.3,0l0,-340.6l-2.3,0l0,340.6Z" class="g3_516" />
<path d="M68.9,143.3l783.3,0l0,-2.3L68.9,141l0,2.3Z" class="g3_516" />
<path d="M68.9,166.9l783.3,0l0,-0.7l-783.3,0l0,0.7Z" class="g3_516" />
<path d="M69.7,191.3l782.5,0l0,-0.7l-782.5,0l0,0.7Z" class="g3_516" />
<path d="M69.7,215.8l782.5,0l0,-0.8L69.7,215l0,0.8Z" class="g3_516" />
<path d="M69.7,240.3l782.5,0l0,-0.8l-782.5,0l0,0.8Z" class="g3_516" />
<path d="M69.7,264.6l782.5,0l0,-0.7l-782.5,0l0,0.7Z" class="g3_516" />
<path d="M69.7,289.1l782.5,0l0,-0.7l-782.5,0l0,0.7Z" class="g3_516" />
<path d="M69.7,313.6l782.5,0l0,-0.7l-782.5,0l0,0.7Z" class="g3_516" />
<path d="M69.7,338l782.5,0l0,-0.8l-782.5,0l0,0.8Z" class="g3_516" />
<path d="M69.7,362.4l782.5,0l0,-0.7l-782.5,0l0,0.7Z" class="g3_516" />
<path d="M69.7,386.9l782.5,0l0,-0.7l-782.5,0l0,0.7Z" class="g3_516" />
<path d="M69.7,411.4l782.5,0l0,-0.7l-782.5,0l0,0.7Z" class="g3_516" />
<path d="M69.7,435.8l782.5,0l0,-0.8L69.7,435l0,0.8Z" class="g3_516" />
<path d="M69.7,460.3l782.5,0l0,-0.8l-782.5,0l0,0.8Z" class="g3_516" />
<path d="M69.7,484.7l721,0l0,-0.7l-721,0l0,0.7Z" class="g3_516" />
<path d="M793,484.7l59.2,0l0,-0.7L793,484l0,0.7Z" class="g3_516" />
<path d="M69.3,707l0.4,0l0,-20.8l-0.4,0l0,20.8Z" class="g3_516" />
<path d="M69.1,1072.1l0.8,0l0,-364.3l-0.8,0l0,364.3Z" class="g3_516" />
<path d="M239.7,707.8l0.4,0l0,-21.9l-0.4,0l0,21.9Z" class="g3_516" />
<path d="M239.5,1073l0.8,0l0,-366l-0.8,0l0,366Z" class="g3_516" />
<path d="M851.5,707l0.4,0l0,-20.8l-0.4,0l0,20.8Z" class="g3_516" />
<path d="M851.3,1072.1l0.7,0l0,-364.3l-0.7,0l0,364.3Z" class="g3_516" />
<path d="M69.3,686.2l782.6,0l0,-0.3l-782.6,0l0,0.3Z" class="g3_516" />
<path d="M69.1,707.8l782.9,0l0,-0.8L69.1,707l0,0.8Z" class="g3_516" />
<path d="M69.1,746L852,746l0,-0.7l-782.9,0l0,0.7Z" class="g3_516" />
<path d="M69.1,784.1l782.9,0l0,-0.7l-782.9,0l0,0.7Z" class="g3_516" />
<path d="M69.1,822.3l782.9,0l0,-0.7l-782.9,0l0,0.7Z" class="g3_516" />
<path d="M69.1,877.3l782.9,0l0,-0.7l-782.9,0l0,0.7Z" class="g3_516" />
<path d="M69.1,1072.9l782.9,0l0,-0.8l-782.9,0l0,0.8Z" class="g3_516" />
</svg>