<?xml version="1.0" encoding="UTF-8" standalone="no"?>
<!DOCTYPE svg PUBLIC "-//W3C//DTD SVG 1.1//EN"
"http://www.w3.org/Graphics/SVG/1.1/DTD/svg11.dtd">
<svg viewBox="0 0 935 1210" version="1.1" xmlns="http://www.w3.org/2000/svg" xmlns:xlink="http://www.w3.org/1999/xlink">
<defs>
<style type="text/css"><![CDATA[
.g1_2181{
fill: #FFFFFF;
}
.g2_2181{
}
]]></style>
</defs>
<path d="M68.9,1149.3l783.8,0l0,-21.2l-783.8,0l0,21.2Z" class="g1_2181" />
<path d="M69.8,146.4l0.7,0l0,-22.3l-0.7,0l0,22.3Z" class="g2_2181" />
<path d="M69.9,192.1l0.5,0l0,-45.2l-0.5,0l0,45.2Z" class="g2_2181" />
<path d="M69.8,306.7l0.7,0l0,-113.8l-0.7,0l0,113.8Z" class="g2_2181" />
<path d="M69.9,352.6l0.5,0l0,-45.2l-0.5,0l0,45.2Z" class="g2_2181" />
<path d="M69.8,444.2l0.7,0l0,-90.9l-0.7,0l0,90.9Z" class="g2_2181" />
<path d="M69.9,581.7l0.5,0L70.4,445l-0.5,0l0,136.7Z" class="g2_2181" />
<path d="M69.8,1085.9l0.7,0l0,-503.4l-0.7,0l0,503.4Z" class="g2_2181" />
<path d="M261.7,147l0.7,0l0,-23.6l-0.7,0l0,23.6Z" class="g2_2181" />
<path d="M261.8,192.9l0.6,0l0,-46.6l-0.6,0l0,46.6Z" class="g2_2181" />
<path d="M261.7,307.4l0.7,0l0,-115.3l-0.7,0l0,115.3Z" class="g2_2181" />
<path d="M261.8,353.3l0.6,0l0,-46.6l-0.6,0l0,46.6Z" class="g2_2181" />
<path d="M261.7,444.9l0.7,0l0,-92.3l-0.7,0l0,92.3Z" class="g2_2181" />
<path d="M261.8,582.4l0.6,0l0,-138.2l-0.6,0l0,138.2Z" class="g2_2181" />
<path d="M261.7,1086.7l0.7,0l0,-505l-0.7,0l0,505Z" class="g2_2181" />
<path d="M852.2,306.7l0.8,0l0,-182.6l-0.8,0l0,182.6Z" class="g2_2181" />
<path d="M852.3,352.6l0.6,0l0,-45.2l-0.6,0l0,45.2Z" class="g2_2181" />
<path d="M852.2,444.2l0.8,0l0,-90.9l-0.8,0l0,90.9Z" class="g2_2181" />
<path d="M852.3,581.7l0.6,0l0,-136.7l-0.6,0l0,136.7Z" class="g2_2181" />
<path d="M852.2,1085.9l0.8,0l0,-503.4l-0.8,0l0,503.4Z" class="g2_2181" />
<path d="M69.8,124.1l783.2,0l0,-0.7l-783.2,0l0,0.7Z" class="g2_2181" />
<path d="M69.8,146.9l192.6,0l0,-0.5l-192.6,0l0,0.5Z" class="g2_2181" />
<path d="M261.7,147L853,147l0,-0.7l-591.3,0l0,0.7Z" class="g2_2181" />
<path d="M261.8,169.9l591.2,0l0,-0.7l-591.2,0l0,0.7Z" class="g2_2181" />
<path d="M69.8,192.9l783.2,0l0,-0.8l-783.2,0l0,0.8Z" class="g2_2181" />
<path d="M69.8,215.8l783.2,0l0,-0.8L69.8,215l0,0.8Z" class="g2_2181" />
<path d="M69.8,238.7l783.2,0l0,-0.7L69.8,238l0,0.7Z" class="g2_2181" />
<path d="M69.8,261.6l783.2,0l0,-0.7l-783.2,0l0,0.7Z" class="g2_2181" />
<path d="M69.8,284.5l783.2,0l0,-0.7l-783.2,0l0,0.7Z" class="g2_2181" />
<path d="M69.8,307.4l783.2,0l0,-0.7l-783.2,0l0,0.7Z" class="g2_2181" />
<path d="M261.8,330.3l591.1,0l0,-0.6l-591.1,0l0,0.6Z" class="g2_2181" />
<path d="M69.8,353.3l783.2,0l0,-0.7l-783.2,0l0,0.7Z" class="g2_2181" />
<path d="M69.8,376.2l783.2,0l0,-0.7l-783.2,0l0,0.7Z" class="g2_2181" />
<path d="M69.8,399.1l783.2,0l0,-0.7l-783.2,0l0,0.7Z" class="g2_2181" />
<path d="M69.8,422L853,422l0,-0.7l-783.2,0l0,0.7Z" class="g2_2181" />
<path d="M69.8,444.9l783.2,0l0,-0.7l-783.2,0l0,0.7Z" class="g2_2181" />
<path d="M261.8,467.8l591.1,0l0,-0.6l-591.1,0l0,0.6Z" class="g2_2181" />
<path d="M69.9,490.7l783,0l0,-0.6l-783,0l0,0.6Z" class="g2_2181" />
<path d="M261.8,513.6l591.1,0l0,-0.5l-591.1,0l0,0.5Z" class="g2_2181" />
<path d="M69.9,536.5l783,0l0,-0.5l-783,0l0,0.5Z" class="g2_2181" />
<path d="M261.8,559.4l591.1,0l0,-0.5l-591.1,0l0,0.5Z" class="g2_2181" />
<path d="M69.8,582.4l783.2,0l0,-0.7l-783.2,0l0,0.7Z" class="g2_2181" />
<path d="M69.8,605.4l783.2,0l0,-0.8l-783.2,0l0,0.8Z" class="g2_2181" />
<path d="M69.8,628.3l783.2,0l0,-0.7l-783.2,0l0,0.7Z" class="g2_2181" />
<path d="M261.7,651.2l591.3,0l0,-0.7l-591.3,0l0,0.7Z" class="g2_2181" />
<path d="M69.8,674.1l783.2,0l0,-0.7l-783.2,0l0,0.7Z" class="g2_2181" />
<path d="M261.7,697L853,697l0,-0.7l-591.3,0l0,0.7Z" class="g2_2181" />
<path d="M69.8,719.9l783.2,0l0,-0.7l-783.2,0l0,0.7Z" class="g2_2181" />
<path d="M261.7,742.9l591.3,0l0,-0.8l-591.3,0l0,0.8Z" class="g2_2181" />
<path d="M69.8,765.8l783.2,0l0,-0.7l-783.2,0l0,0.7Z" class="g2_2181" />
<path d="M261.7,788.7l591.3,0l0,-0.7l-591.3,0l0,0.7Z" class="g2_2181" />
<path d="M69.8,811.6l783.2,0l0,-0.7l-783.2,0l0,0.7Z" class="g2_2181" />
<path d="M261.7,834.5l591.3,0l0,-0.7l-591.3,0l0,0.7Z" class="g2_2181" />
<path d="M69.8,857.5l783.2,0l0,-0.8l-783.2,0l0,0.8Z" class="g2_2181" />
<path d="M69.8,880.4l783.2,0l0,-0.8l-783.2,0l0,0.8Z" class="g2_2181" />
<path d="M261.7,903.3l591.3,0l0,-0.7l-591.3,0l0,0.7Z" class="g2_2181" />
<path d="M69.8,926.2l783.2,0l0,-0.7l-783.2,0l0,0.7Z" class="g2_2181" />
<path d="M261.7,949.1l591.3,0l0,-0.7l-591.3,0l0,0.7Z" class="g2_2181" />
<path d="M69.8,972L853,972l0,-0.7l-783.2,0l0,0.7Z" class="g2_2181" />
<path d="M261.7,995L853,995l0,-0.8l-591.3,0l0,0.8Z" class="g2_2181" />
<path d="M69.8,1017.9l783.2,0l0,-0.8l-783.2,0l0,0.8Z" class="g2_2181" />
<path d="M261.7,1040.8l591.3,0l0,-0.8l-591.3,0l0,0.8Z" class="g2_2181" />
<path d="M69.8,1063.7l783.2,0l0,-0.7l-783.2,0l0,0.7Z" class="g2_2181" />
<path d="M69.8,1086.6l783.2,0l0,-0.7l-783.2,0l0,0.7Z" class="g2_2181" />
</svg>