<?xml version="1.0" encoding="UTF-8" standalone="no"?>
<!DOCTYPE svg PUBLIC "-//W3C//DTD SVG 1.1//EN"
"http://www.w3.org/Graphics/SVG/1.1/DTD/svg11.dtd">
<svg viewBox="0 0 935 1210" version="1.1" xmlns="http://www.w3.org/2000/svg" xmlns:xlink="http://www.w3.org/1999/xlink">
<defs>
<style type="text/css"><![CDATA[
.g1_1066{
fill: #FFFFFF;
}
.g2_1066{
}
.g3_1066{
fill: none;
stroke: #000000;
stroke-width: 0.29333335;
stroke-linecap: round;
stroke-linejoin: round;
stroke-miterlimit: 3;
}
.g4_1066{
fill: none;
stroke: #000000;
stroke-width: 1.4666667;
stroke-linecap: round;
stroke-linejoin: round;
stroke-miterlimit: 3;
}
.g5_1066{
fill: none;
stroke: #FFFFFF;
stroke-width: 0.29333335;
stroke-linecap: round;
stroke-linejoin: round;
stroke-miterlimit: 3;
}
]]></style>
</defs>
<path d="M165,1149.3l687.5,0l0,-21.2l-687.5,0l0,21.2Z" class="g1_1066" />
<path d="M68.8,1149.3l82.5,0l0,-21.2l-82.5,0l0,21.2Z" class="g1_1066" />
<path d="M167.4,718.7l0.7,0l0,-256.9l-0.7,0l0,256.9Z" class="g2_1066" />
<path d="M753,718.7l0.7,0l0,-256.9l-0.7,0l0,256.9Z" class="g2_1066" />
<path d="M167.4,461.8l586.3,0l0,-0.7l-586.3,0l0,0.7Z" class="g2_1066" />
<path d="M167.4,719.4l586.3,0l0,-0.7l-586.3,0l0,0.7Z" class="g2_1066" />
<path d="M176.3,713.2l563.9,0l0,-231.6l-563.9,0l0,231.6Z" class="g1_1066" />
<path d="M181.1,652.9l1.7,1.8" class="g3_1066" />
<path d="M735.4,509.2l-554.3,0" class="g3_1066" />
<path d="M735.4,547.3l-554.3,0" class="g3_1066" />
<path d="M319.7,509.2l0,38.1" class="g3_1066" />
<path d="M250.4,509.2l0,38.1" class="g3_1066" />
<path d="M735.4,509.2l0,38.1" class="g3_1066" />
<path d="M666.1,509.2l0,38.1" class="g3_1066" />
<path d="M389,509.2l0,38.1" class="g3_1066" />
<path d="M458.3,509.2l0,38.1" class="g3_1066" />
<path d="M527.5,509.2l0,38.1" class="g3_1066" />
<path d="M596.8,509.2l0,38.1" class="g3_1066" />
<path d="M181.1,509.2l0,38.1" class="g3_1066" />
<path d="M735.4,569.8l-554.3,0" class="g3_1066" />
<path d="M735.4,607.9l-554.3,0" class="g3_1066" />
<path d="M319.7,569.8l0,38.1" class="g3_1066" />
<path d="M250.4,569.8l0,38.1" class="g3_1066" />
<path d="M735.4,569.8l0,38.1" class="g3_1066" />
<path d="M666.1,569.8l0,38.1" class="g3_1066" />
<path d="M389,569.8l0,38.1" class="g3_1066" />
<path d="M458.3,569.8l0,38.1" class="g3_1066" />
<path d="M527.6,569.8l0,38.1" class="g3_1066" />
<path d="M596.8,569.8l0,38.1" class="g3_1066" />
<path d="M181.1,569.8l0,38.1" class="g3_1066" />
<path d="M735.4,651.2l-554.3,0" class="g3_1066" />
<path d="M735.4,689.3l-554.3,0" class="g3_1066" />
<path d="M319.7,651.2l0,38.1" class="g3_1066" />
<path d="M250.4,651.2l0,38.1" class="g3_1066" />
<path d="M735.4,651.2l0,38.1" class="g3_1066" />
<path d="M666.1,651.2l0,38.1" class="g3_1066" />
<path d="M389,651.2l0,38.1" class="g3_1066" />
<path d="M458.3,651.2l0,38.1" class="g3_1066" />
<path d="M527.6,651.2l0,38.1" class="g3_1066" />
<path d="M596.8,651.2l0,38.1" class="g3_1066" />
<path d="M181.1,651.2l0,38.1" class="g3_1066" />
<path d="M631.5,607.9l-118.7,39" class="g4_1066" />
<path fill-rule="evenodd" d="M514.2,651.3l-14.4,-0.1l11.6,-8.6l2.8,8.7Z" class="g2_1066" />
<path d="M659,642.7l0.3,-0.2l41.5,-34.6L572.6,651.2" class="g4_1066" />
<path fill-rule="evenodd" d="M662.2,646l-13.4,5.1L656.4,639l5.8,7Z" class="g2_1066" />
<path d="M700.8,651.2l-2,-41.7" class="g4_1066" />
<path d="M617.5,636l-29.1,9.9" class="g4_1066" />
<path fill-rule="evenodd" d="M589.8,650.2l-14.4,0l11.5,-8.6l2.9,8.6Z" class="g2_1066" />
<path d="M699.8,630.4l0.6,16.5" class="g3_1066" />
<path fill-rule="evenodd" d="M703.8,646.8l-3,10.2L697,647l6.8,-0.2Z" class="g2_1066" />
<path d="M278.1,651.2L215.7,607.9l0,29.7" class="g4_1066" />
<path fill-rule="evenodd" d="M220.3,637.6l-4.6,13.6l-4.5,-13.6l9.1,0Z" class="g2_1066" />
<path d="M258.3,637.5l14.5,8.6" class="g3_1066" />
<path fill-rule="evenodd" d="M274.6,643.2l7,8L271.1,649l3.5,-5.8Z" class="g2_1066" />
<path d="M181.1,704.9l5.2,0" class="g5_1066" />
<path d="M184.5,701.5l-3.4,3.4l3.4,3.4" class="g5_1066" />
<path d="M735.4,708.4l-4.3,0" class="g5_1066" />
<path d="M732.1,711.7l3.3,-3.3L732.1,705" class="g5_1066" />
<path d="M181.1,497l5.2,0" class="g5_1066" />
<path d="M184.5,493.7l-3.4,3.3l3.4,3.4" class="g5_1066" />
</svg>