<?xml version="1.0" encoding="UTF-8" standalone="no"?>
<!DOCTYPE svg PUBLIC "-//W3C//DTD SVG 1.1//EN"
"http://www.w3.org/Graphics/SVG/1.1/DTD/svg11.dtd">
<svg viewBox="0 0 935 1210" version="1.1" xmlns="http://www.w3.org/2000/svg" xmlns:xlink="http://www.w3.org/1999/xlink">
<defs>
<style type="text/css"><![CDATA[
.g1_1054{
fill: #FFFFFF;
}
.g2_1054{
}
]]></style>
</defs>
<path d="M165,1149.3l687.5,0l0,-21.2l-687.5,0l0,21.2Z" class="g1_1054" />
<path d="M68.8,1149.3l82.5,0l0,-21.2l-82.5,0l0,21.2Z" class="g1_1054" />
<path d="M70.1,322l0.8,0l0,-196.3l-0.8,0l0,196.3Z" class="g2_1054" />
<path d="M220.3,322.8l0.7,0l0,-197.9l-0.7,0l0,197.9Z" class="g2_1054" />
<path d="M390.5,322.8l0.7,0l0,-197.9l-0.7,0l0,197.9Z" class="g2_1054" />
<path d="M428.4,322.8l0.7,0l0,-197.9l-0.7,0l0,197.9Z" class="g2_1054" />
<path d="M501.8,322.8l0.7,0l0,-197.9l-0.7,0l0,197.9Z" class="g2_1054" />
<path d="M573.1,322.8l0.7,0l0,-197.9l-0.7,0l0,197.9Z" class="g2_1054" />
<path d="M850.3,322l0.7,0l0,-196.3l-0.7,0l0,196.3Z" class="g2_1054" />
<path d="M70.1,125.7l780.9,0l0,-0.8l-780.9,0l0,0.8Z" class="g2_1054" />
<path d="M70.1,163.8l780.9,0l0,-0.7l-780.9,0l0,0.7Z" class="g2_1054" />
<path d="M70.1,203.6l780.9,0l0,-0.7l-780.9,0l0,0.7Z" class="g2_1054" />
<path d="M70.1,243.3l780.9,0l0,-0.7l-780.9,0l0,0.7Z" class="g2_1054" />
<path d="M70.1,283L851,283l0,-0.8l-780.9,0l0,0.8Z" class="g2_1054" />
<path d="M70.1,322.8l780.9,0l0,-0.8L70.1,322l0,0.8Z" class="g2_1054" />
<path d="M70.9,425.9l0.7,0l0,-48.1l-0.7,0l0,48.1Z" class="g2_1054" />
<path d="M142.5,426.6l0.8,0l0,-49.6l-0.8,0l0,49.6Z" class="g2_1054" />
<path d="M314.5,426.6l0.7,0l0,-49.6l-0.7,0l0,49.6Z" class="g2_1054" />
<path d="M489.6,426.6l0.7,0l0,-49.6l-0.7,0l0,49.6Z" class="g2_1054" />
<path d="M667.6,426.6l0.7,0l0,-49.6l-0.7,0l0,49.6Z" class="g2_1054" />
<path d="M849.6,425.9l0.7,0l0,-48.1l-0.7,0l0,48.1Z" class="g2_1054" />
<path d="M70.8,377.8l779.5,0l0,-0.8L70.8,377l0,0.8Z" class="g2_1054" />
<path d="M70.8,402.2l779.5,0l0,-0.7l-779.5,0l0,0.7Z" class="g2_1054" />
<path d="M70.8,426.6l779.5,0l0,-0.7l-779.5,0l0,0.7Z" class="g2_1054" />
</svg>