<?xml version="1.0" encoding="UTF-8" standalone="no"?>
<!DOCTYPE svg PUBLIC "-//W3C//DTD SVG 1.1//EN"
"http://www.w3.org/Graphics/SVG/1.1/DTD/svg11.dtd">
<svg viewBox="0 0 935 1210" version="1.1" xmlns="http://www.w3.org/2000/svg" xmlns:xlink="http://www.w3.org/1999/xlink">
<defs>
<style type="text/css"><![CDATA[
.g1_1617{
fill: #FFFFFF;
}
.g2_1617{
}
]]></style>
</defs>
<path d="M68.9,1149.3l686.3,0l0,-21.2l-686.3,0l0,21.2Z" class="g1_1617" />
<path d="M771.3,1149.3l83.7,0l0,-21.2l-83.7,0l0,21.2Z" class="g1_1617" />
<path d="M69.9,428.9l0.8,0l0,-303.2l-0.8,0l0,303.2Z" class="g2_1617" />
<path d="M282,429.7l0.7,0l0,-304.8l-0.7,0l0,304.8Z" class="g2_1617" />
<path d="M325.3,429.7l0.8,0l0,-304.8l-0.8,0l0,304.8Z" class="g2_1617" />
<path d="M399.8,429.7l0.7,0l0,-304.8l-0.7,0l0,304.8Z" class="g2_1617" />
<path d="M484.7,429.7l0.8,0l0,-304.8l-0.8,0l0,304.8Z" class="g2_1617" />
<path d="M851.5,428.9l0.7,0l0,-303.2l-0.7,0l0,303.2Z" class="g2_1617" />
<path d="M69.9,125.7l782.3,0l0,-0.8l-782.3,0l0,0.8Z" class="g2_1617" />
<path d="M69.9,176.1l782.3,0l0,-0.7l-782.3,0l0,0.7Z" class="g2_1617" />
<path d="M69.9,212.8l782.3,0l0,-0.8L69.9,212l0,0.8Z" class="g2_1617" />
<path d="M69.9,249.4l782.3,0l0,-0.7l-782.3,0l0,0.7Z" class="g2_1617" />
<path d="M69.9,286.1l782.3,0l0,-0.7l-782.3,0l0,0.7Z" class="g2_1617" />
<path d="M69.9,339.5l782.3,0l0,-0.7l-782.3,0l0,0.7Z" class="g2_1617" />
<path d="M69.9,393l782.3,0l0,-0.8l-782.3,0l0,0.8Z" class="g2_1617" />
<path d="M69.9,429.7l782.3,0l0,-0.7L69.9,429l0,0.7Z" class="g2_1617" />
<path d="M70.7,549.6l0.7,0l0,-64.9l-0.7,0l0,64.9Z" class="g2_1617" />
<path d="M178.9,550.4l0.8,0l0,-66.5l-0.8,0l0,66.5Z" class="g2_1617" />
<path d="M356.9,550.4l0.7,0l0,-66.5l-0.7,0l0,66.5Z" class="g2_1617" />
<path d="M528.5,550.4l0.7,0l0,-66.5l-0.7,0l0,66.5Z" class="g2_1617" />
<path d="M686.5,550.4l0.7,0l0,-66.5l-0.7,0l0,66.5Z" class="g2_1617" />
<path d="M851.3,549.6l0.7,0l0,-64.9l-0.7,0l0,64.9Z" class="g2_1617" />
<path d="M70.7,484.7l781.3,0l0,-0.7L70.7,484l0,0.7Z" class="g2_1617" />
<path d="M70.7,509.1l781.3,0l0,-0.7l-781.3,0l0,0.7Z" class="g2_1617" />
<path d="M70.7,550.4l781.3,0l0,-0.8l-781.3,0l0,0.8Z" class="g2_1617" />
</svg>