<?xml version="1.0" encoding="UTF-8" standalone="no"?>
<!DOCTYPE svg PUBLIC "-//W3C//DTD SVG 1.1//EN"
"http://www.w3.org/Graphics/SVG/1.1/DTD/svg11.dtd">
<svg viewBox="0 0 935 1210" version="1.1" xmlns="http://www.w3.org/2000/svg" xmlns:xlink="http://www.w3.org/1999/xlink">
<defs>
<style type="text/css"><![CDATA[
.g1_1256{
fill: #FFFFFF;
}
.g2_1256{
}
]]></style>
</defs>
<path d="M165,1149.3l687.5,0l0,-21.2l-687.5,0l0,21.2Z" class="g1_1256" />
<path d="M68.8,1149.3l82.5,0l0,-21.2l-82.5,0l0,21.2Z" class="g1_1256" />
<path d="M68.6,265.5l0.7,0l0,-139.8l-0.7,0l0,139.8Z" class="g2_1256" />
<path d="M258.9,266.2l0.7,0l0,-141.3l-0.7,0l0,141.3Z" class="g2_1256" />
<path d="M316.2,266.2l0.7,0l0,-141.3l-0.7,0l0,141.3Z" class="g2_1256" />
<path d="M390.6,266.2l0.7,0l0,-141.3l-0.7,0l0,141.3Z" class="g2_1256" />
<path d="M458.2,266.2l0.8,0l0,-141.3l-0.8,0l0,141.3Z" class="g2_1256" />
<path d="M852.6,265.5l0.7,0l0,-139.8l-0.7,0l0,139.8Z" class="g2_1256" />
<path d="M68.6,125.7l784.7,0l0,-0.8l-784.7,0l0,0.8Z" class="g2_1256" />
<path d="M68.6,179.1l784.7,0l0,-0.7l-784.7,0l0,0.7Z" class="g2_1256" />
<path d="M68.6,266.2l784.7,0l0,-0.7l-784.7,0l0,0.7Z" class="g2_1256" />
<path d="M69.9,369.3l0.8,0l0,-48.1l-0.8,0l0,48.1Z" class="g2_1256" />
<path d="M165.1,370.2l0.7,0l0,-49.7l-0.7,0l0,49.7Z" class="g2_1256" />
<path d="M391.5,370.2l0.7,0l0,-49.7l-0.7,0l0,49.7Z" class="g2_1256" />
<path d="M623.9,370.2l0.7,0l0,-49.7l-0.7,0l0,49.7Z" class="g2_1256" />
<path d="M850.5,369.3l0.7,0l0,-48.1l-0.7,0l0,48.1Z" class="g2_1256" />
<path d="M69.9,321.2l781.3,0l0,-0.7l-781.3,0l0,0.7Z" class="g2_1256" />
<path d="M69.9,345.7l781.3,0l0,-0.8l-781.3,0l0,0.8Z" class="g2_1256" />
<path d="M69.9,370.1l781.3,0l0,-0.8l-781.3,0l0,0.8Z" class="g2_1256" />
</svg>