<?xml version="1.0" encoding="UTF-8" standalone="no"?>
<!DOCTYPE svg PUBLIC "-//W3C//DTD SVG 1.1//EN"
"http://www.w3.org/Graphics/SVG/1.1/DTD/svg11.dtd">
<svg viewBox="0 0 935 1210" version="1.1" xmlns="http://www.w3.org/2000/svg" xmlns:xlink="http://www.w3.org/1999/xlink">
<defs>
<style type="text/css"><![CDATA[
.g1_1358{
fill: #FFFFFF;
}
.g2_1358{
}
]]></style>
</defs>
<path d="M165,1149.3l687.5,0l0,-21.2l-687.5,0l0,21.2Z" class="g1_1358" />
<path d="M68.8,1149.3l82.5,0l0,-21.2l-82.5,0l0,21.2Z" class="g1_1358" />
<path d="M66.7,798.7l0.8,0l0,-640.9l-0.8,0l0,640.9Z" class="g2_1358" />
<path d="M113.6,799.4l0.7,0l0,-642.4l-0.7,0l0,642.4Z" class="g2_1358" />
<path d="M206.1,799.4l0.7,0l0,-618l-0.7,0l0,618Z" class="g2_1358" />
<path d="M298.6,799.4l0.7,0l0,-618l-0.7,0l0,618Z" class="g2_1358" />
<path d="M391.1,799.4l0.8,0l0,-618l-0.8,0l0,618Z" class="g2_1358" />
<path d="M483.6,799.4l0.8,0l0,-618l-0.8,0l0,618Z" class="g2_1358" />
<path d="M576.1,799.4l0.8,0l0,-618l-0.8,0l0,618Z" class="g2_1358" />
<path d="M668.6,799.4l0.8,0l0,-618l-0.8,0l0,618Z" class="g2_1358" />
<path d="M761.2,799.4l0.7,0l0,-618l-0.7,0l0,618Z" class="g2_1358" />
<path d="M853.7,798.7l0.7,0l0,-640.9l-0.7,0l0,640.9Z" class="g2_1358" />
<path d="M66.7,157.8l787.7,0l0,-0.8L66.7,157l0,0.8Z" class="g2_1358" />
<path d="M66.7,182.1l787.7,0l0,-0.7l-787.7,0l0,0.7Z" class="g2_1358" />
<path d="M66.7,206.6l787.7,0l0,-0.7l-787.7,0l0,0.7Z" class="g2_1358" />
<path d="M66.7,231.1l787.7,0l0,-0.7l-787.7,0l0,0.7Z" class="g2_1358" />
<path d="M66.7,272.3l787.7,0l0,-0.7l-787.7,0l0,0.7Z" class="g2_1358" />
<path d="M66.7,313.6l787.7,0l0,-0.7l-787.7,0l0,0.7Z" class="g2_1358" />
<path d="M66.7,354.8l787.7,0l0,-0.7l-787.7,0l0,0.7Z" class="g2_1358" />
<path d="M66.7,396.1l787.7,0l0,-0.7l-787.7,0l0,0.7Z" class="g2_1358" />
<path d="M66.7,437.3l787.7,0l0,-0.7l-787.7,0l0,0.7Z" class="g2_1358" />
<path d="M66.7,478.6l787.7,0l0,-0.7l-787.7,0l0,0.7Z" class="g2_1358" />
<path d="M66.7,519.8l787.7,0l0,-0.7l-787.7,0l0,0.7Z" class="g2_1358" />
<path d="M66.7,561.1l787.7,0l0,-0.7l-787.7,0l0,0.7Z" class="g2_1358" />
<path d="M66.7,602.3l787.7,0l0,-0.7l-787.7,0l0,0.7Z" class="g2_1358" />
<path d="M66.7,626.8l787.7,0l0,-0.7l-787.7,0l0,0.7Z" class="g2_1358" />
<path d="M66.7,668.1l787.7,0l0,-0.8l-787.7,0l0,0.8Z" class="g2_1358" />
<path d="M66.7,692.4l787.7,0l0,-0.7l-787.7,0l0,0.7Z" class="g2_1358" />
<path d="M66.7,733.7l787.7,0l0,-0.7L66.7,733l0,0.7Z" class="g2_1358" />
<path d="M66.7,774.9l787.7,0l0,-0.7l-787.7,0l0,0.7Z" class="g2_1358" />
<path d="M66.7,799.4l787.7,0l0,-0.7l-787.7,0l0,0.7Z" class="g2_1358" />
</svg>