<?xml version="1.0" encoding="UTF-8" standalone="no"?>
<!DOCTYPE svg PUBLIC "-//W3C//DTD SVG 1.1//EN"
"http://www.w3.org/Graphics/SVG/1.1/DTD/svg11.dtd">
<svg viewBox="0 0 935 1210" version="1.1" xmlns="http://www.w3.org/2000/svg" xmlns:xlink="http://www.w3.org/1999/xlink">
<defs>
<style type="text/css"><![CDATA[
.g1_1696{
fill: #FFFFFF;
}
.g2_1696{
}
]]></style>
</defs>
<path d="M165,1149.3l687.5,0l0,-21.2l-687.5,0l0,21.2Z" class="g1_1696" />
<path d="M68.8,1149.3l82.5,0l0,-21.2l-82.5,0l0,21.2Z" class="g1_1696" />
<path d="M170.1,377l0.8,0l0,-170.4l-0.8,0l0,170.4Z" class="g2_1696" />
<path d="M467,377.8l0.8,0l0,-171.9l-0.8,0l0,171.9Z" class="g2_1696" />
<path d="M750.3,377l0.7,0l0,-170.4l-0.7,0l0,170.4Z" class="g2_1696" />
<path d="M170.1,206.6l580.9,0l0,-0.7l-580.9,0l0,0.7Z" class="g2_1696" />
<path d="M170.1,231.1l580.9,0l0,-0.7l-580.9,0l0,0.7Z" class="g2_1696" />
<path d="M170.1,255.5l580.9,0l0,-0.8l-580.9,0l0,0.8Z" class="g2_1696" />
<path d="M170.1,279.9l580.9,0l0,-0.7l-580.9,0l0,0.7Z" class="g2_1696" />
<path d="M170.1,304.4l580.9,0l0,-0.7l-580.9,0l0,0.7Z" class="g2_1696" />
<path d="M170.1,328.8l580.9,0l0,-0.7l-580.9,0l0,0.7Z" class="g2_1696" />
<path d="M170.1,353.3l580.9,0l0,-0.7l-580.9,0l0,0.7Z" class="g2_1696" />
<path d="M170.1,377.8l580.9,0l0,-0.8l-580.9,0l0,0.8Z" class="g2_1696" />
</svg>