<?xml version="1.0" encoding="UTF-8" standalone="no"?>
<!DOCTYPE svg PUBLIC "-//W3C//DTD SVG 1.1//EN"
"http://www.w3.org/Graphics/SVG/1.1/DTD/svg11.dtd">
<svg viewBox="0 0 935 1210" version="1.1" xmlns="http://www.w3.org/2000/svg" xmlns:xlink="http://www.w3.org/1999/xlink">
<defs>
<style type="text/css"><![CDATA[
.g1_2159{
fill: #FFFFFF;
}
.g2_2159{
}
]]></style>
</defs>
<path d="M68.9,1149.3l783.8,0l0,-21.2l-783.8,0l0,21.2Z" class="g1_2159" />
<path d="M69.9,1095.1l0.8,0l0,-987.8l-0.8,0l0,987.8Z" class="g2_2159" />
<path d="M445.2,1095.9l0.8,0l0,-989.3l-0.8,0l0,989.3Z" class="g2_2159" />
<path d="M851.3,1095.1l0.7,0l0,-987.8l-0.7,0l0,987.8Z" class="g2_2159" />
<path d="M69.9,107.3l782.1,0l0,-0.7l-782.1,0l0,0.7Z" class="g2_2159" />
<path d="M69.9,131.7l782.1,0l0,-0.7L69.9,131l0,0.7Z" class="g2_2159" />
<path d="M69.9,173L852,173l0,-0.8l-782.1,0l0,0.8Z" class="g2_2159" />
<path d="M69.9,197.4l782.1,0l0,-0.7l-782.1,0l0,0.7Z" class="g2_2159" />
<path d="M69.9,221.9l782.1,0l0,-0.7l-782.1,0l0,0.7Z" class="g2_2159" />
<path d="M69.9,246.3l782.1,0l0,-0.7l-782.1,0l0,0.7Z" class="g2_2159" />
<path d="M69.9,270.8l782.1,0l0,-0.7l-782.1,0l0,0.7Z" class="g2_2159" />
<path d="M69.9,312L852,312l0,-0.7l-782.1,0l0,0.7Z" class="g2_2159" />
<path d="M69.9,336.5l782.1,0l0,-0.7l-782.1,0l0,0.7Z" class="g2_2159" />
<path d="M69.9,360.9l782.1,0l0,-0.7l-782.1,0l0,0.7Z" class="g2_2159" />
<path d="M69.9,385.4l782.1,0l0,-0.8l-782.1,0l0,0.8Z" class="g2_2159" />
<path d="M69.9,409.8l782.1,0l0,-0.7l-782.1,0l0,0.7Z" class="g2_2159" />
<path d="M69.9,451.1l782.1,0l0,-0.7l-782.1,0l0,0.7Z" class="g2_2159" />
<path d="M69.9,475.6l782.1,0l0,-0.8l-782.1,0l0,0.8Z" class="g2_2159" />
<path d="M69.9,499.9l782.1,0l0,-0.7l-782.1,0l0,0.7Z" class="g2_2159" />
<path d="M69.9,524.4l782.1,0l0,-0.7l-782.1,0l0,0.7Z" class="g2_2159" />
<path d="M69.9,548.9l782.1,0l0,-0.7l-782.1,0l0,0.7Z" class="g2_2159" />
<path d="M69.9,590.2l782.1,0l0,-0.8l-782.1,0l0,0.8Z" class="g2_2159" />
<path d="M69.9,614.5l782.1,0l0,-0.7l-782.1,0l0,0.7Z" class="g2_2159" />
<path d="M69.9,639L852,639l0,-0.7l-782.1,0l0,0.7Z" class="g2_2159" />
<path d="M69.9,663.5l782.1,0l0,-0.7l-782.1,0l0,0.7Z" class="g2_2159" />
<path d="M69.9,687.9l782.1,0l0,-0.8l-782.1,0l0,0.8Z" class="g2_2159" />
<path d="M69.9,712.3l782.1,0l0,-0.7l-782.1,0l0,0.7Z" class="g2_2159" />
<path d="M69.9,736.8l782.1,0l0,-0.7l-782.1,0l0,0.7Z" class="g2_2159" />
<path d="M69.9,761.2l782.1,0l0,-0.7l-782.1,0l0,0.7Z" class="g2_2159" />
<path d="M69.9,785.7l782.1,0l0,-0.8l-782.1,0l0,0.8Z" class="g2_2159" />
<path d="M69.9,826.9l782.1,0l0,-0.7l-782.1,0l0,0.7Z" class="g2_2159" />
<path d="M69.9,851.4l782.1,0l0,-0.7l-782.1,0l0,0.7Z" class="g2_2159" />
<path d="M69.9,875.8l782.1,0l0,-0.7l-782.1,0l0,0.7Z" class="g2_2159" />
<path d="M69.9,900.3l782.1,0l0,-0.8l-782.1,0l0,0.8Z" class="g2_2159" />
<path d="M69.9,924.7l782.1,0l0,-0.7L69.9,924l0,0.7Z" class="g2_2159" />
<path d="M69.9,949.1l782.1,0l0,-0.7l-782.1,0l0,0.7Z" class="g2_2159" />
<path d="M69.9,973.6l782.1,0l0,-0.7l-782.1,0l0,0.7Z" class="g2_2159" />
<path d="M69.9,998.1l782.1,0l0,-0.8l-782.1,0l0,0.8Z" class="g2_2159" />
<path d="M69.9,1022.5l782.1,0l0,-0.8l-782.1,0l0,0.8Z" class="g2_2159" />
<path d="M69.9,1046.9l782.1,0l0,-0.7l-782.1,0l0,0.7Z" class="g2_2159" />
<path d="M69.9,1071.4l782.1,0l0,-0.7l-782.1,0l0,0.7Z" class="g2_2159" />
<path d="M69.9,1095.8l782.1,0l0,-0.8l-782.1,0l0,0.8Z" class="g2_2159" />
</svg>