<?xml version="1.0" encoding="UTF-8" standalone="no"?>
<!DOCTYPE svg PUBLIC "-//W3C//DTD SVG 1.1//EN"
"http://www.w3.org/Graphics/SVG/1.1/DTD/svg11.dtd">
<svg viewBox="0 0 935 1210" version="1.1" xmlns="http://www.w3.org/2000/svg" xmlns:xlink="http://www.w3.org/1999/xlink">
<defs>
<style type="text/css"><![CDATA[
.g1_99{
fill: #FFFFFF;
}
.g2_99{
}
]]></style>
</defs>
<path d="M68.9,1149.3l783.8,0l0,-21.2l-783.8,0l0,21.2Z" class="g1_99" />
<path d="M70.4,875l0.7,0l0,-711.1l-0.7,0l0,711.1Z" class="g2_99" />
<path d="M210.1,875.9l0.7,0l0,-712.8l-0.7,0l0,712.8Z" class="g2_99" />
<path d="M246.8,875.9l0.7,0l0,-712.8l-0.7,0l0,712.8Z" class="g2_99" />
<path d="M288.8,875.9l0.7,0l0,-712.8l-0.7,0l0,712.8Z" class="g2_99" />
<path d="M328.2,875.9l0.7,0l0,-712.8l-0.7,0l0,712.8Z" class="g2_99" />
<path d="M363.6,875.9l0.8,0l0,-712.8l-0.8,0l0,712.8Z" class="g2_99" />
<path d="M851.6,875l0.7,0l0,-711.1l-0.7,0l0,711.1Z" class="g2_99" />
<path d="M70.4,163.8l781.9,0l0,-0.7l-781.9,0l0,0.7Z" class="g2_99" />
<path d="M70.4,267.8l781.9,0l0,-0.8L70.4,267l0,0.8Z" class="g2_99" />
<path d="M210.1,292.1l642.2,0l0,-0.7l-642.2,0l0,0.7Z" class="g2_99" />
<path d="M210.1,441.9l642.2,0l0,-0.7l-642.2,0l0,0.7Z" class="g2_99" />
<path d="M210.1,466.4l642.2,0l0,-0.7l-642.2,0l0,0.7Z" class="g2_99" />
<path d="M210.1,490.8l642.2,0l0,-0.8l-642.2,0l0,0.8Z" class="g2_99" />
<path d="M210.1,515.3l642.2,0l0,-0.8l-642.2,0l0,0.8Z" class="g2_99" />
<path d="M210.1,539.7l642.2,0l0,-0.7l-642.2,0l0,0.7Z" class="g2_99" />
<path d="M210.1,564.1l642.2,0l0,-0.7l-642.2,0l0,0.7Z" class="g2_99" />
<path d="M210.1,588.6l642.2,0l0,-0.7l-642.2,0l0,0.7Z" class="g2_99" />
<path d="M210.1,613.1l642.2,0l0,-0.8l-642.2,0l0,0.8Z" class="g2_99" />
<path d="M70.4,637.4l781.9,0l0,-0.7l-781.9,0l0,0.7Z" class="g2_99" />
<path d="M70.4,678.7l781.9,0l0,-0.7L70.4,678l0,0.7Z" class="g2_99" />
<path d="M210.1,703.2l642.2,0l0,-0.8l-642.2,0l0,0.8Z" class="g2_99" />
<path d="M70.4,727.7l781.9,0l0,-0.8l-781.9,0l0,0.8Z" class="g2_99" />
<path d="M210.1,768.9l642.2,0l0,-0.7l-642.2,0l0,0.7Z" class="g2_99" />
<path d="M210.1,793.3l642.2,0l0,-0.7l-642.2,0l0,0.7Z" class="g2_99" />
<path d="M70.4,834.5l781.9,0l0,-0.7l-781.9,0l0,0.7Z" class="g2_99" />
<path d="M70.4,875.8l781.9,0l0,-0.7l-781.9,0l0,0.7Z" class="g2_99" />
</svg>