<?xml version="1.0" encoding="UTF-8" standalone="no"?>
<!DOCTYPE svg PUBLIC "-//W3C//DTD SVG 1.1//EN"
"http://www.w3.org/Graphics/SVG/1.1/DTD/svg11.dtd">
<svg viewBox="0 0 935 1210" version="1.1" xmlns="http://www.w3.org/2000/svg" xmlns:xlink="http://www.w3.org/1999/xlink">
<defs>
<style type="text/css"><![CDATA[
.g1_752{
fill: #FFFFFF;
}
.g2_752{
}
]]></style>
</defs>
<path d="M165,1149.3l687.5,0l0,-21.2l-687.5,0l0,21.2Z" class="g1_752" />
<path d="M68.8,1149.3l82.5,0l0,-21.2l-82.5,0l0,21.2Z" class="g1_752" />
<path d="M68.9,1064.9l0,-0.7Z" class="g2_752" />
<path d="M68.9,1064.9l220.4,0l0,-0.7l-220.4,0l0,0.7Z" class="g2_752" />
<path d="M68.6,395.4l0.7,0l0,-269.7l-0.7,0l0,269.7Z" class="g2_752" />
<path d="M281.1,396.1l0.7,0l0,-271.2l-0.7,0l0,271.2Z" class="g2_752" />
<path d="M325.7,396.1l0.7,0l0,-271.2l-0.7,0l0,271.2Z" class="g2_752" />
<path d="M400.2,396.1l0.8,0l0,-271.2l-0.8,0l0,271.2Z" class="g2_752" />
<path d="M493.9,396.1l0.7,0l0,-271.2l-0.7,0l0,271.2Z" class="g2_752" />
<path d="M849.7,395.4l0.7,0l0,-269.7l-0.7,0l0,269.7Z" class="g2_752" />
<path d="M68.6,125.7l781.8,0l0,-0.8l-781.8,0l0,0.8Z" class="g2_752" />
<path d="M68.6,176.1l781.8,0l0,-0.7l-781.8,0l0,0.7Z" class="g2_752" />
<path d="M68.6,212.8l781.8,0l0,-0.8L68.6,212l0,0.8Z" class="g2_752" />
<path d="M68.6,249.4l781.8,0l0,-0.7l-781.8,0l0,0.7Z" class="g2_752" />
<path d="M68.6,286.1l781.8,0l0,-0.7l-781.8,0l0,0.7Z" class="g2_752" />
<path d="M68.6,322.8l781.8,0l0,-0.8L68.6,322l0,0.8Z" class="g2_752" />
<path d="M68.6,359.4l781.8,0l0,-0.7l-781.8,0l0,0.7Z" class="g2_752" />
<path d="M68.6,396.1l781.8,0l0,-0.7l-781.8,0l0,0.7Z" class="g2_752" />
<path d="M70.2,523.7l0.8,0l0,-72.6l-0.8,0l0,72.6Z" class="g2_752" />
<path d="M191.9,524.4l0.7,0l0,-74l-0.7,0l0,74Z" class="g2_752" />
<path d="M357.8,524.4l0.7,0l0,-74l-0.7,0l0,74Z" class="g2_752" />
<path d="M521.4,524.4l0.7,0l0,-74l-0.7,0l0,74Z" class="g2_752" />
<path d="M683.4,524.4l0.7,0l0,-74l-0.7,0l0,74Z" class="g2_752" />
<path d="M850.2,523.7l0.7,0l0,-72.6l-0.7,0l0,72.6Z" class="g2_752" />
<path d="M70.2,451.1l780.7,0l0,-0.7l-780.7,0l0,0.7Z" class="g2_752" />
<path d="M70.2,475.6l780.7,0l0,-0.8l-780.7,0l0,0.8Z" class="g2_752" />
<path d="M70.2,499.9l780.7,0l0,-0.7l-780.7,0l0,0.7Z" class="g2_752" />
<path d="M70.2,524.4l780.7,0l0,-0.7l-780.7,0l0,0.7Z" class="g2_752" />
</svg>