<?xml version="1.0" encoding="UTF-8" standalone="no"?>
<!DOCTYPE svg PUBLIC "-//W3C//DTD SVG 1.1//EN"
"http://www.w3.org/Graphics/SVG/1.1/DTD/svg11.dtd">
<svg viewBox="0 0 935 1210" version="1.1" xmlns="http://www.w3.org/2000/svg" xmlns:xlink="http://www.w3.org/1999/xlink">
<defs>
<style type="text/css"><![CDATA[
.g1_2103{
fill: #FFFFFF;
}
.g2_2103{
}
]]></style>
</defs>
<path d="M68.9,1149.3l783.8,0l0,-21.2l-783.8,0l0,21.2Z" class="g1_2103" />
<path d="M69.9,1064.5l0.8,0l0,-940.4l-0.8,0l0,940.4Z" class="g2_2103" />
<path d="M399.5,1065.3l0.7,0l0,-941.9l-0.7,0l0,941.9Z" class="g2_2103" />
<path d="M852.6,1064.5l0.7,0l0,-940.4l-0.7,0l0,940.4Z" class="g2_2103" />
<path d="M69.9,124.1l783.4,0l0,-0.7l-783.4,0l0,0.7Z" class="g2_2103" />
<path d="M69.9,148.6l783.4,0l0,-0.7l-783.4,0l0,0.7Z" class="g2_2103" />
<path d="M69.9,188.3l783.4,0l0,-0.7l-783.4,0l0,0.7Z" class="g2_2103" />
<path d="M69.9,212.8l783.4,0l0,-0.8L69.9,212l0,0.8Z" class="g2_2103" />
<path d="M69.9,237.1l783.4,0l0,-0.7l-783.4,0l0,0.7Z" class="g2_2103" />
<path d="M69.9,292.1l783.4,0l0,-0.7l-783.4,0l0,0.7Z" class="g2_2103" />
<path d="M69.9,316.6l783.4,0l0,-0.7l-783.4,0l0,0.7Z" class="g2_2103" />
<path d="M69.9,341.1l783.4,0l0,-0.7l-783.4,0l0,0.7Z" class="g2_2103" />
<path d="M69.9,396.1l783.4,0l0,-0.7l-783.4,0l0,0.7Z" class="g2_2103" />
<path d="M69.9,420.6l783.4,0l0,-0.8l-783.4,0l0,0.8Z" class="g2_2103" />
<path d="M69.9,444.9l783.4,0l0,-0.7l-783.4,0l0,0.7Z" class="g2_2103" />
<path d="M69.9,484.7l783.4,0l0,-0.7L69.9,484l0,0.7Z" class="g2_2103" />
<path d="M69.9,509.1l783.4,0l0,-0.7l-783.4,0l0,0.7Z" class="g2_2103" />
<path d="M69.9,533.6l783.4,0l0,-0.7l-783.4,0l0,0.7Z" class="g2_2103" />
<path d="M69.9,573.3l783.4,0l0,-0.7l-783.4,0l0,0.7Z" class="g2_2103" />
<path d="M69.9,597.8l783.4,0l0,-0.8L69.9,597l0,0.8Z" class="g2_2103" />
<path d="M69.9,622.2l783.4,0l0,-0.7l-783.4,0l0,0.7Z" class="g2_2103" />
<path d="M69.9,661.9l783.4,0l0,-0.7l-783.4,0l0,0.7Z" class="g2_2103" />
<path d="M69.9,686.4l783.4,0l0,-0.7l-783.4,0l0,0.7Z" class="g2_2103" />
<path d="M69.9,710.8l783.4,0l0,-0.8L69.9,710l0,0.8Z" class="g2_2103" />
<path d="M69.9,750.6l783.4,0l0,-0.8l-783.4,0l0,0.8Z" class="g2_2103" />
<path d="M69.9,774.9l783.4,0l0,-0.7l-783.4,0l0,0.7Z" class="g2_2103" />
<path d="M69.9,799.4l783.4,0l0,-0.7l-783.4,0l0,0.7Z" class="g2_2103" />
<path d="M69.9,839.1l783.4,0l0,-0.7l-783.4,0l0,0.7Z" class="g2_2103" />
<path d="M69.9,863.6l783.4,0l0,-0.7l-783.4,0l0,0.7Z" class="g2_2103" />
<path d="M69.9,888.1l783.4,0l0,-0.8l-783.4,0l0,0.8Z" class="g2_2103" />
<path d="M69.9,927.8l783.4,0l0,-0.8L69.9,927l0,0.8Z" class="g2_2103" />
<path d="M69.9,952.2l783.4,0l0,-0.7l-783.4,0l0,0.7Z" class="g2_2103" />
<path d="M69.9,976.6l783.4,0l0,-0.7l-783.4,0l0,0.7Z" class="g2_2103" />
<path d="M69.9,1016.4l783.4,0l0,-0.7l-783.4,0l0,0.7Z" class="g2_2103" />
<path d="M69.9,1040.8l783.4,0l0,-0.8l-783.4,0l0,0.8Z" class="g2_2103" />
<path d="M69.9,1065.3l783.4,0l0,-0.8l-783.4,0l0,0.8Z" class="g2_2103" />
</svg>