<?xml version="1.0" encoding="UTF-8" standalone="no"?>
<!DOCTYPE svg PUBLIC "-//W3C//DTD SVG 1.1//EN"
"http://www.w3.org/Graphics/SVG/1.1/DTD/svg11.dtd">
<svg viewBox="0 0 935 1210" version="1.1" xmlns="http://www.w3.org/2000/svg" xmlns:xlink="http://www.w3.org/1999/xlink">
<defs>
<style type="text/css"><![CDATA[
.g1_1199{
fill: #FFFFFF;
}
.g2_1199{
}
]]></style>
</defs>
<path d="M68.9,1149.3l686.3,0l0,-21.2l-686.3,0l0,21.2Z" class="g1_1199" />
<path d="M771.3,1149.3l83.7,0l0,-21.2l-83.7,0l0,21.2Z" class="g1_1199" />
<path d="M69.2,202.9l0.7,0l0,-77.2l-0.7,0l0,77.2Z" class="g2_1199" />
<path d="M220.4,203.6l0.7,0l0,-78.7l-0.7,0l0,78.7Z" class="g2_1199" />
<path d="M391.9,203.6l0.7,0l0,-78.7l-0.7,0l0,78.7Z" class="g2_1199" />
<path d="M429.7,203.6l0.8,0l0,-78.7l-0.8,0l0,78.7Z" class="g2_1199" />
<path d="M503.2,203.6l0.7,0l0,-78.7l-0.7,0l0,78.7Z" class="g2_1199" />
<path d="M574.5,203.6l0.7,0l0,-78.7l-0.7,0l0,78.7Z" class="g2_1199" />
<path d="M852.8,202.9l0.7,0l0,-77.2l-0.7,0l0,77.2Z" class="g2_1199" />
<path d="M69.2,125.7l784.4,0l0,-0.8l-784.4,0l0,0.8Z" class="g2_1199" />
<path d="M69.2,163.8l784.4,0l0,-0.7l-784.4,0l0,0.7Z" class="g2_1199" />
<path d="M69.2,203.6l784.4,0l0,-0.7l-784.4,0l0,0.7Z" class="g2_1199" />
<path d="M69.9,306.7l0.7,0l0,-48.1l-0.7,0l0,48.1Z" class="g2_1199" />
<path d="M142.7,307.4l0.8,0l0,-49.5l-0.8,0l0,49.5Z" class="g2_1199" />
<path d="M315.4,307.4l0.8,0l0,-49.5l-0.8,0l0,49.5Z" class="g2_1199" />
<path d="M496.2,307.4l0.7,0l0,-49.5l-0.7,0l0,49.5Z" class="g2_1199" />
<path d="M667.9,307.4l0.7,0l0,-49.5l-0.7,0l0,49.5Z" class="g2_1199" />
<path d="M852.1,306.7l0.8,0l0,-48.1l-0.8,0l0,48.1Z" class="g2_1199" />
<path d="M69.9,258.6l783,0l0,-0.7l-783,0l0,0.7Z" class="g2_1199" />
<path d="M69.9,283l783,0l0,-0.8l-783,0l0,0.8Z" class="g2_1199" />
<path d="M69.9,307.4l783,0l0,-0.7l-783,0l0,0.7Z" class="g2_1199" />
</svg>