<?xml version="1.0" encoding="UTF-8" standalone="no"?>
<!DOCTYPE svg PUBLIC "-//W3C//DTD SVG 1.1//EN"
"http://www.w3.org/Graphics/SVG/1.1/DTD/svg11.dtd">
<svg viewBox="0 0 935 1210" version="1.1" xmlns="http://www.w3.org/2000/svg" xmlns:xlink="http://www.w3.org/1999/xlink">
<defs>
<style type="text/css"><![CDATA[
.g1_101{
fill: #FFFFFF;
}
.g2_101{
}
]]></style>
</defs>
<path d="M68.9,1149.3l783.8,0l0,-21.2l-783.8,0l0,21.2Z" class="g1_101" />
<path d="M72.1,542l0.7,0l0,-330.8l-0.7,0l0,330.8Z" class="g2_101" />
<path d="M211.8,542.8l0.7,0l0,-332.3l-0.7,0l0,332.3Z" class="g2_101" />
<path d="M248.4,542.8l0.8,0l0,-332.3l-0.8,0l0,332.3Z" class="g2_101" />
<path d="M290.4,542.8l0.7,0l0,-332.3l-0.7,0l0,332.3Z" class="g2_101" />
<path d="M329.7,542.8l0.8,0l0,-332.3l-0.8,0l0,332.3Z" class="g2_101" />
<path d="M365.3,542.8l0.7,0l0,-332.3l-0.7,0l0,332.3Z" class="g2_101" />
<path d="M849.9,542l0.8,0l0,-330.8l-0.8,0l0,330.8Z" class="g2_101" />
<path d="M72.1,211.2l778.7,0l0,-0.7l-778.7,0l0,0.7Z" class="g2_101" />
<path d="M72.1,315.1l778.7,0l0,-0.8l-778.7,0l0,0.8Z" class="g2_101" />
<path d="M72.1,339.5l778.7,0l0,-0.7l-778.7,0l0,0.7Z" class="g2_101" />
<path d="M72.1,364l778.7,0l0,-0.7l-778.7,0l0,0.7Z" class="g2_101" />
<path d="M72.1,452.7l778.7,0l0,-0.8l-778.7,0l0,0.8Z" class="g2_101" />
<path d="M72.1,477l778.7,0l0,-0.7l-778.7,0l0,0.7Z" class="g2_101" />
<path d="M72.1,501.5l778.7,0l0,-0.7l-778.7,0l0,0.7Z" class="g2_101" />
<path d="M72.1,542.8l778.7,0l0,-0.8L72.1,542l0,0.8Z" class="g2_101" />
</svg>