<?xml version="1.0" encoding="UTF-8" standalone="no"?>
<!DOCTYPE svg PUBLIC "-//W3C//DTD SVG 1.1//EN"
"http://www.w3.org/Graphics/SVG/1.1/DTD/svg11.dtd">
<svg viewBox="0 0 935 1210" version="1.1" xmlns="http://www.w3.org/2000/svg" xmlns:xlink="http://www.w3.org/1999/xlink">
<defs>
<style type="text/css"><![CDATA[
.g1_1819{
fill: #FFFFFF;
}
.g2_1819{
}
]]></style>
</defs>
<path d="M68.9,1149.3l686.3,0l0,-21.2l-686.3,0l0,21.2Z" class="g1_1819" />
<path d="M771.3,1149.3l83.7,0l0,-21.2l-83.7,0l0,21.2Z" class="g1_1819" />
<path d="M69.9,917.9l0.8,0l0,-792.2l-0.8,0l0,792.2Z" class="g2_1819" />
<path d="M280.1,918.6l0.8,0l0,-793.7l-0.8,0l0,793.7Z" class="g2_1819" />
<path d="M325.3,918.6l0.8,0l0,-793.7l-0.8,0l0,793.7Z" class="g2_1819" />
<path d="M397.9,918.6l0.8,0l0,-793.7l-0.8,0l0,793.7Z" class="g2_1819" />
<path d="M487.7,918.6l0.7,0l0,-793.7l-0.7,0l0,793.7Z" class="g2_1819" />
<path d="M854.5,917.9l0.7,0l0,-792.2l-0.7,0l0,792.2Z" class="g2_1819" />
<path d="M69.9,125.7l785.4,0l0,-0.8l-785.4,0l0,0.8Z" class="g2_1819" />
<path d="M69.9,176.1l785.4,0l0,-0.7l-785.4,0l0,0.7Z" class="g2_1819" />
<path d="M69.9,229.5l785.4,0l0,-0.7l-785.4,0l0,0.7Z" class="g2_1819" />
<path d="M69.9,283l785.4,0l0,-0.8l-785.4,0l0,0.8Z" class="g2_1819" />
<path d="M69.9,336.5l785.4,0l0,-0.7l-785.4,0l0,0.7Z" class="g2_1819" />
<path d="M69.9,389.9l785.4,0l0,-0.7l-785.4,0l0,0.7Z" class="g2_1819" />
<path d="M69.9,443.5l785.4,0l0,-0.8l-785.4,0l0,0.8Z" class="g2_1819" />
<path d="M69.9,496.9l785.4,0l0,-0.7l-785.4,0l0,0.7Z" class="g2_1819" />
<path d="M69.9,567.2l785.4,0l0,-0.7l-785.4,0l0,0.7Z" class="g2_1819" />
<path d="M69.9,637.4l785.4,0l0,-0.7l-785.4,0l0,0.7Z" class="g2_1819" />
<path d="M69.9,707.8l785.4,0l0,-0.8L69.9,707l0,0.8Z" class="g2_1819" />
<path d="M69.9,778.1l785.4,0l0,-0.8l-785.4,0l0,0.8Z" class="g2_1819" />
<path d="M69.9,848.3l785.4,0l0,-0.7l-785.4,0l0,0.7Z" class="g2_1819" />
<path d="M69.9,918.6l785.4,0l0,-0.7l-785.4,0l0,0.7Z" class="g2_1819" />
<path d="M71.6,1046.2l0.7,0l0,-72.6l-0.7,0l0,72.6Z" class="g2_1819" />
<path d="M178.1,1046.9l0.7,0l0,-74l-0.7,0l0,74Z" class="g2_1819" />
<path d="M345,1046.9l0.8,0l0,-74l-0.8,0l0,74Z" class="g2_1819" />
<path d="M513.8,1046.9l0.7,0l0,-74l-0.7,0l0,74Z" class="g2_1819" />
<path d="M683.7,1046.9l0.8,0l0,-74l-0.8,0l0,74Z" class="g2_1819" />
<path d="M850.4,1046.2l0.7,0l0,-72.6l-0.7,0l0,72.6Z" class="g2_1819" />
<path d="M71.6,973.6l779.5,0l0,-0.7l-779.5,0l0,0.7Z" class="g2_1819" />
<path d="M71.6,998.1l779.5,0l0,-0.8l-779.5,0l0,0.8Z" class="g2_1819" />
<path d="M71.6,1022.5l779.5,0l0,-0.8l-779.5,0l0,0.8Z" class="g2_1819" />
<path d="M71.6,1046.9l779.5,0l0,-0.7l-779.5,0l0,0.7Z" class="g2_1819" />
</svg>