<?xml version="1.0" encoding="UTF-8" standalone="no"?>
<!DOCTYPE svg PUBLIC "-//W3C//DTD SVG 1.1//EN"
"http://www.w3.org/Graphics/SVG/1.1/DTD/svg11.dtd">
<svg viewBox="0 0 935 1210" version="1.1" xmlns="http://www.w3.org/2000/svg" xmlns:xlink="http://www.w3.org/1999/xlink">
<defs>
<style type="text/css"><![CDATA[
.g1_302{
fill: #FFFFFF;
}
.g2_302{
}
]]></style>
</defs>
<path d="M165,1149.3l687.5,0l0,-21.2l-687.5,0l0,21.2Z" class="g1_302" />
<path d="M68.8,1149.3l82.5,0l0,-21.2l-82.5,0l0,21.2Z" class="g1_302" />
<path d="M70.8,1053.8l0.7,0l0,-929.9l-0.7,0l0,929.9Z" class="g2_302" />
<path d="M158,165.4l0.4,0l0,-41.8l-0.4,0l0,41.8Z" class="g2_302" />
<path d="M158,636l0.4,0l0,-446.9l-0.4,0L158,636Z" class="g2_302" />
<path d="M158,808.4l0.4,0l0,-148.8l-0.4,0l0,148.8Z" class="g2_302" />
<path d="M158,1054.6l0.4,0l0,-222.3l-0.4,0l0,222.3Z" class="g2_302" />
<path d="M849.7,1053.8l0.7,0l0,-929.9l-0.7,0l0,929.9Z" class="g2_302" />
<path d="M70.8,123.9l779.6,0l0,-0.3l-779.6,0l0,0.3Z" class="g2_302" />
<path d="M70.8,165.4l779.6,0l0,-0.8l-779.6,0l0,0.8Z" class="g2_302" />
<path d="M70.8,189.8l779.6,0l0,-0.7l-779.6,0l0,0.7Z" class="g2_302" />
<path d="M70.8,636l779.6,0l0,-0.8l-779.6,0l0,0.8Z" class="g2_302" />
<path d="M70.8,660.4l779.6,0l0,-0.8l-779.6,0l0,0.8Z" class="g2_302" />
<path d="M70.8,808.4l779.6,0l0,-0.4L70.8,808l0,0.4Z" class="g2_302" />
<path d="M70.8,833.1l779.6,0l0,-0.8l-779.6,0l0,0.8Z" class="g2_302" />
<path d="M70.8,1054.5l779.6,0l0,-0.7l-779.6,0l0,0.7Z" class="g2_302" />
</svg>