<?xml version="1.0" encoding="UTF-8" standalone="no"?>
<!DOCTYPE svg PUBLIC "-//W3C//DTD SVG 1.1//EN"
"http://www.w3.org/Graphics/SVG/1.1/DTD/svg11.dtd">
<svg viewBox="0 0 935 1210" version="1.1" xmlns="http://www.w3.org/2000/svg" xmlns:xlink="http://www.w3.org/1999/xlink">
<defs>
<style type="text/css"><![CDATA[
.g1_826{
fill: #FFFFFF;
}
.g2_826{
}
]]></style>
</defs>
<path d="M165,1149.3l687.5,0l0,-21.2l-687.5,0l0,21.2Z" class="g1_826" />
<path d="M68.8,1149.3l82.5,0l0,-21.2l-82.5,0l0,21.2Z" class="g1_826" />
<path d="M71.2,343.4l0.8,0L72,134.8l-0.8,0l0,208.6Z" class="g2_826" />
<path d="M220.8,344.1l0.8,0l0,-210l-0.8,0l0,210Z" class="g2_826" />
<path d="M390.6,344.1l0.7,0l0,-210l-0.7,0l0,210Z" class="g2_826" />
<path d="M428.4,344.1l0.7,0l0,-210l-0.7,0l0,210Z" class="g2_826" />
<path d="M501.7,344.1l0.7,0l0,-210l-0.7,0l0,210Z" class="g2_826" />
<path d="M573.1,344.1l0.7,0l0,-210l-0.7,0l0,210Z" class="g2_826" />
<path d="M849.1,343.4l0.7,0l0,-208.6l-0.7,0l0,208.6Z" class="g2_826" />
<path d="M71.2,134.8l778.6,0l0,-0.7l-778.6,0l0,0.7Z" class="g2_826" />
<path d="M71.2,173l778.6,0l0,-0.8l-778.6,0l0,0.8Z" class="g2_826" />
<path d="M71.2,195.9l778.6,0l0,-0.7l-778.6,0l0,0.7Z" class="g2_826" />
<path d="M71.2,218.8l778.6,0l0,-0.7l-778.6,0l0,0.7Z" class="g2_826" />
<path d="M71.2,258.6l778.6,0l0,-0.7l-778.6,0l0,0.7Z" class="g2_826" />
<path d="M71.2,281.5l778.6,0l0,-0.7l-778.6,0l0,0.7Z" class="g2_826" />
<path d="M71.2,304.4l778.6,0l0,-0.7l-778.6,0l0,0.7Z" class="g2_826" />
<path d="M71.2,344.1l778.6,0l0,-0.7l-778.6,0l0,0.7Z" class="g2_826" />
<path d="M70.9,511.4l0.7,0l0,-72.5l-0.7,0l0,72.5Z" class="g2_826" />
<path d="M135,512.2l0.8,0l0,-74.1l-0.8,0l0,74.1Z" class="g2_826" />
<path d="M315,512.2l0.7,0l0,-74.1l-0.7,0l0,74.1Z" class="g2_826" />
<path d="M488.8,512.2l0.7,0l0,-74.1l-0.7,0l0,74.1Z" class="g2_826" />
<path d="M664.3,512.2l0.7,0l0,-74.1l-0.7,0l0,74.1Z" class="g2_826" />
<path d="M849.6,511.4l0.7,0l0,-72.5l-0.7,0l0,72.5Z" class="g2_826" />
<path d="M70.8,438.9l779.5,0l0,-0.7l-779.5,0l0,0.7Z" class="g2_826" />
<path d="M70.8,463.3l779.5,0l0,-0.8l-779.5,0l0,0.8Z" class="g2_826" />
<path d="M70.8,487.8l779.5,0l0,-0.8L70.8,487l0,0.8Z" class="g2_826" />
<path d="M70.8,512.2l779.5,0l0,-0.7l-779.5,0l0,0.7Z" class="g2_826" />
</svg>