<?xml version="1.0" encoding="UTF-8" standalone="no"?>
<!DOCTYPE svg PUBLIC "-//W3C//DTD SVG 1.1//EN"
"http://www.w3.org/Graphics/SVG/1.1/DTD/svg11.dtd">
<svg viewBox="0 0 935 1210" version="1.1" xmlns="http://www.w3.org/2000/svg" xmlns:xlink="http://www.w3.org/1999/xlink">
<defs>
<style type="text/css"><![CDATA[
.g1_1894{
fill: #FFFFFF;
}
.g2_1894{
}
]]></style>
</defs>
<path d="M165,1149.3l687.5,0l0,-21.2l-687.5,0l0,21.2Z" class="g1_1894" />
<path d="M68.8,1149.3l82.5,0l0,-21.2l-82.5,0l0,21.2Z" class="g1_1894" />
<path d="M69.3,213.5l0.7,0L70,141l-0.7,0l0,72.5Z" class="g2_1894" />
<path d="M273.9,214.3l0.7,0l0,-74.1l-0.7,0l0,74.1Z" class="g2_1894" />
<path d="M682.3,214.3l0.7,0l0,-74.1l-0.7,0l0,74.1Z" class="g2_1894" />
<path d="M851,213.5l0.8,0l0,-72.5l-0.8,0l0,72.5Z" class="g2_1894" />
<path d="M69.3,140.9l782.5,0l0,-0.7l-782.5,0l0,0.7Z" class="g2_1894" />
<path d="M69.3,165.4l782.5,0l0,-0.8l-782.5,0l0,0.8Z" class="g2_1894" />
<path d="M69.3,189.8l782.5,0l0,-0.7l-782.5,0l0,0.7Z" class="g2_1894" />
<path d="M69.3,214.2l782.5,0l0,-0.7l-782.5,0l0,0.7Z" class="g2_1894" />
</svg>