<?xml version="1.0" encoding="UTF-8" standalone="no"?>
<!DOCTYPE svg PUBLIC "-//W3C//DTD SVG 1.1//EN"
"http://www.w3.org/Graphics/SVG/1.1/DTD/svg11.dtd">
<svg viewBox="0 0 935 1210" version="1.1" xmlns="http://www.w3.org/2000/svg" xmlns:xlink="http://www.w3.org/1999/xlink">
<defs>
<style type="text/css"><![CDATA[
.g1_896{
fill: #FFFFFF;
}
.g2_896{
}
]]></style>
</defs>
<path d="M165,1149.3l687.5,0l0,-21.2l-687.5,0l0,21.2Z" class="g1_896" />
<path d="M68.8,1149.3l82.5,0l0,-21.2l-82.5,0l0,21.2Z" class="g1_896" />
<path d="M68.9,1032.4l0.8,0l0,-906.7l-0.8,0l0,906.7Z" class="g2_896" />
<path d="M391.7,1033.2l0.7,0l0,-908.3l-0.7,0l0,908.3Z" class="g2_896" />
<path d="M429.6,1033.2l0.7,0l0,-908.3l-0.7,0l0,908.3Z" class="g2_896" />
<path d="M502.9,1033.2l0.7,0l0,-908.3l-0.7,0l0,908.3Z" class="g2_896" />
<path d="M574.3,1033.2l0.7,0l0,-908.3l-0.7,0l0,908.3Z" class="g2_896" />
<path d="M851.4,1032.4l0.7,0l0,-906.7l-0.7,0l0,906.7Z" class="g2_896" />
<path d="M68.9,125.7l783.3,0l0,-0.8l-783.3,0l0,0.8Z" class="g2_896" />
<path d="M68.9,179.1l783.3,0l0,-0.7l-783.3,0l0,0.7Z" class="g2_896" />
<path d="M68.9,223.4l783.3,0l0,-0.7l-783.3,0l0,0.7Z" class="g2_896" />
<path d="M68.9,267.8l783.3,0l0,-0.8L68.9,267l0,0.8Z" class="g2_896" />
<path d="M68.9,312l783.3,0l0,-0.7l-783.3,0l0,0.7Z" class="g2_896" />
<path d="M68.9,356.3l783.3,0l0,-0.7l-783.3,0l0,0.7Z" class="g2_896" />
<path d="M68.9,400.7l783.3,0l0,-0.8l-783.3,0l0,0.8Z" class="g2_896" />
<path d="M68.9,444.9l783.3,0l0,-0.7l-783.3,0l0,0.7Z" class="g2_896" />
<path d="M68.9,489.3l783.3,0l0,-0.7l-783.3,0l0,0.7Z" class="g2_896" />
<path d="M68.9,533.6l783.3,0l0,-0.7l-783.3,0l0,0.7Z" class="g2_896" />
<path d="M68.9,577.9l783.3,0l0,-0.8l-783.3,0l0,0.8Z" class="g2_896" />
<path d="M68.9,617.7l783.3,0l0,-0.8l-783.3,0l0,0.8Z" class="g2_896" />
<path d="M68.9,661.9l783.3,0l0,-0.7l-783.3,0l0,0.7Z" class="g2_896" />
<path d="M68.9,706.2l783.3,0l0,-0.7l-783.3,0l0,0.7Z" class="g2_896" />
<path d="M68.9,796.4l783.3,0l0,-0.7l-783.3,0l0,0.7Z" class="g2_896" />
<path d="M68.9,886.5l783.3,0l0,-0.7l-783.3,0l0,0.7Z" class="g2_896" />
<path d="M68.9,959.8l783.3,0l0,-0.7l-783.3,0l0,0.7Z" class="g2_896" />
<path d="M68.9,1033.2l783.3,0l0,-0.8l-783.3,0l0,0.8Z" class="g2_896" />
</svg>