<?xml version="1.0" encoding="UTF-8" standalone="no"?>
<!DOCTYPE svg PUBLIC "-//W3C//DTD SVG 1.1//EN"
"http://www.w3.org/Graphics/SVG/1.1/DTD/svg11.dtd">
<svg viewBox="0 0 935 1210" version="1.1" xmlns="http://www.w3.org/2000/svg" xmlns:xlink="http://www.w3.org/1999/xlink">
<defs>
<style type="text/css"><![CDATA[
.g1_806{
fill: #FFFFFF;
}
.g2_806{
}
]]></style>
</defs>
<path d="M165,1149.3l687.5,0l0,-21.2l-687.5,0l0,21.2Z" class="g1_806" />
<path d="M68.8,1149.3l82.5,0l0,-21.2l-82.5,0l0,21.2Z" class="g1_806" />
<path d="M68.6,335.8l0.7,0l0,-210.1l-0.7,0l0,210.1Z" class="g2_806" />
<path d="M305,336.5l0.7,0l0,-211.6l-0.7,0l0,211.6Z" class="g2_806" />
<path d="M354.3,336.5l0.7,0l0,-211.6l-0.7,0l0,211.6Z" class="g2_806" />
<path d="M428.7,336.5l0.8,0l0,-211.6l-0.8,0l0,211.6Z" class="g2_806" />
<path d="M509.6,336.5l0.7,0l0,-211.6l-0.7,0l0,211.6Z" class="g2_806" />
<path d="M852,335.8l0.8,0l0,-210.1l-0.8,0l0,210.1Z" class="g2_806" />
<path d="M68.6,125.7l784.2,0l0,-0.8l-784.2,0l0,0.8Z" class="g2_806" />
<path d="M68.6,176.1l784.2,0l0,-0.7l-784.2,0l0,0.7Z" class="g2_806" />
<path d="M68.6,229.5l784.2,0l0,-0.7l-784.2,0l0,0.7Z" class="g2_806" />
<path d="M68.6,283l784.2,0l0,-0.8l-784.2,0l0,0.8Z" class="g2_806" />
<path d="M68.6,336.5l784.2,0l0,-0.7l-784.2,0l0,0.7Z" class="g2_806" />
<path d="M70.7,488.5l0.7,0l0,-97l-0.7,0l0,97Z" class="g2_806" />
<path d="M189.3,489.3l0.7,0l0,-98.5l-0.7,0l0,98.5Z" class="g2_806" />
<path d="M354.2,489.3l0.7,0l0,-98.5l-0.7,0l0,98.5Z" class="g2_806" />
<path d="M523.9,489.3l0.7,0l0,-98.5l-0.7,0l0,98.5Z" class="g2_806" />
<path d="M685.6,489.3l0.7,0l0,-98.5l-0.7,0l0,98.5Z" class="g2_806" />
<path d="M849.8,488.5l0.7,0l0,-97l-0.7,0l0,97Z" class="g2_806" />
<path d="M70.7,391.5l779.8,0l0,-0.7l-779.8,0l0,0.7Z" class="g2_806" />
<path d="M70.7,416l779.8,0l0,-0.7l-779.8,0l0,0.7Z" class="g2_806" />
<path d="M70.7,440.4l779.8,0l0,-0.8l-779.8,0l0,0.8Z" class="g2_806" />
<path d="M70.7,464.8l779.8,0l0,-0.7l-779.8,0l0,0.7Z" class="g2_806" />
<path d="M70.7,489.3l779.8,0l0,-0.7l-779.8,0l0,0.7Z" class="g2_806" />
</svg>