<?xml version="1.0" encoding="UTF-8" standalone="no"?>
<!DOCTYPE svg PUBLIC "-//W3C//DTD SVG 1.1//EN"
"http://www.w3.org/Graphics/SVG/1.1/DTD/svg11.dtd">
<svg viewBox="0 0 935 1210" version="1.1" xmlns="http://www.w3.org/2000/svg" xmlns:xlink="http://www.w3.org/1999/xlink">
<defs>
<style type="text/css"><![CDATA[
.g1_89{
fill: #FFFFFF;
}
.g2_89{
}
]]></style>
</defs>
<path d="M68.9,1149.3l783.8,0l0,-21.2l-783.8,0l0,21.2Z" class="g1_89" />
<path d="M69.3,833.8l0.7,0L70,202l-0.7,0l0,631.8Z" class="g2_89" />
<path d="M209,834.6l0.7,0l0,-633.3l-0.7,0l0,633.3Z" class="g2_89" />
<path d="M245.7,834.6l0.7,0l0,-633.3l-0.7,0l0,633.3Z" class="g2_89" />
<path d="M287.7,834.6l0.7,0l0,-633.3l-0.7,0l0,633.3Z" class="g2_89" />
<path d="M327,834.6l0.7,0l0,-633.3l-0.7,0l0,633.3Z" class="g2_89" />
<path d="M362.5,834.6l0.8,0l0,-633.3l-0.8,0l0,633.3Z" class="g2_89" />
<path d="M852.7,833.8l0.7,0l0,-631.8l-0.7,0l0,631.8Z" class="g2_89" />
<path d="M69.3,202l784.1,0l0,-0.7l-784.1,0l0,0.7Z" class="g2_89" />
<path d="M69.3,305.9l784.1,0l0,-0.7l-784.1,0l0,0.7Z" class="g2_89" />
<path d="M209,330.4l644.4,0l0,-0.8l-644.4,0l0,0.8Z" class="g2_89" />
<path d="M209,464.8l644.4,0l0,-0.7l-644.4,0l0,0.7Z" class="g2_89" />
<path d="M209,489.3l644.4,0l0,-0.7l-644.4,0l0,0.7Z" class="g2_89" />
<path d="M209,513.7l644.4,0l0,-0.7L209,513l0,0.7Z" class="g2_89" />
<path d="M69.3,538.2l784.1,0l0,-0.8l-784.1,0l0,0.8Z" class="g2_89" />
<path d="M69.3,579.4l784.1,0l0,-0.7l-784.1,0l0,0.7Z" class="g2_89" />
<path d="M209,603.9l644.4,0l0,-0.7l-644.4,0l0,0.7Z" class="g2_89" />
<path d="M69.3,645.2l784.1,0l0,-0.8l-784.1,0l0,0.8Z" class="g2_89" />
<path d="M209,686.4l644.4,0l0,-0.7l-644.4,0l0,0.7Z" class="g2_89" />
<path d="M209,710.8l644.4,0l0,-0.8L209,710l0,0.8Z" class="g2_89" />
<path d="M69.3,752l784.1,0l0,-0.7l-784.1,0l0,0.7Z" class="g2_89" />
<path d="M69.3,793.3l784.1,0l0,-0.7l-784.1,0l0,0.7Z" class="g2_89" />
<path d="M69.3,834.5l784.1,0l0,-0.7l-784.1,0l0,0.7Z" class="g2_89" />
</svg>