<?xml version="1.0" encoding="UTF-8" standalone="no"?>
<!DOCTYPE svg PUBLIC "-//W3C//DTD SVG 1.1//EN"
"http://www.w3.org/Graphics/SVG/1.1/DTD/svg11.dtd">
<svg viewBox="0 0 935 1210" version="1.1" xmlns="http://www.w3.org/2000/svg" xmlns:xlink="http://www.w3.org/1999/xlink">
<defs>
<style type="text/css"><![CDATA[
.g1_1490{
fill: #FFFFFF;
}
.g2_1490{
}
]]></style>
</defs>
<path d="M165,1149.3l687.5,0l0,-21.2l-687.5,0l0,21.2Z" class="g1_1490" />
<path d="M68.8,1149.3l82.5,0l0,-21.2l-82.5,0l0,21.2Z" class="g1_1490" />
<path d="M70.7,195.2l0.7,0l0,-72.6l-0.7,0l0,72.6Z" class="g2_1490" />
<path d="M182.9,196l0.7,0l0,-74.2l-0.7,0l0,74.2Z" class="g2_1490" />
<path d="M336.9,196l0.7,0l0,-74.2l-0.7,0l0,74.2Z" class="g2_1490" />
<path d="M503.7,196l0.7,0l0,-74.2l-0.7,0l0,74.2Z" class="g2_1490" />
<path d="M676.2,196l0.8,0l0,-74.2l-0.8,0l0,74.2Z" class="g2_1490" />
<path d="M849.8,195.2l0.7,0l0,-72.6l-0.7,0l0,72.6Z" class="g2_1490" />
<path d="M70.7,122.6l779.8,0l0,-0.8l-779.8,0l0,0.8Z" class="g2_1490" />
<path d="M70.7,147l779.8,0l0,-0.7l-779.8,0l0,0.7Z" class="g2_1490" />
<path d="M70.7,171.5l779.8,0l0,-0.7l-779.8,0l0,0.7Z" class="g2_1490" />
<path d="M70.7,195.9l779.8,0l0,-0.7l-779.8,0l0,0.7Z" class="g2_1490" />
</svg>