<?xml version="1.0" encoding="UTF-8" standalone="no"?>
<!DOCTYPE svg PUBLIC "-//W3C//DTD SVG 1.1//EN"
"http://www.w3.org/Graphics/SVG/1.1/DTD/svg11.dtd">
<svg viewBox="0 0 935 1210" version="1.1" xmlns="http://www.w3.org/2000/svg" xmlns:xlink="http://www.w3.org/1999/xlink">
<defs>
<style type="text/css"><![CDATA[
.g1_92{
fill: #FFFFFF;
}
.g2_92{
}
]]></style>
</defs>
<path d="M68.8,1149.3l783.7,0l0,-21.2l-783.7,0l0,21.2Z" class="g1_92" />
<path d="M69,766.6l0.8,0l0,-590.5l-0.8,0l0,590.5Z" class="g2_92" />
<path d="M208.8,767.3l0.7,0l0,-591.9l-0.7,0l0,591.9Z" class="g2_92" />
<path d="M245.4,767.3l0.7,0l0,-591.9l-0.7,0l0,591.9Z" class="g2_92" />
<path d="M287.4,767.3l0.7,0l0,-591.9l-0.7,0l0,591.9Z" class="g2_92" />
<path d="M326.8,767.3l0.7,0l0,-591.9l-0.7,0l0,591.9Z" class="g2_92" />
<path d="M362.3,767.3l0.7,0l0,-591.9l-0.7,0l0,591.9Z" class="g2_92" />
<path d="M851.3,766.6l0.7,0l0,-590.5l-0.7,0l0,590.5Z" class="g2_92" />
<path d="M69,176.1l783,0l0,-0.7l-783,0l0,0.7Z" class="g2_92" />
<path d="M69,279.9l783,0l0,-0.7l-783,0l0,0.7Z" class="g2_92" />
<path d="M69,304.4l783,0l0,-0.7l-783,0l0,0.7Z" class="g2_92" />
<path d="M69,438.9l783,0l0,-0.7l-783,0l0,0.7Z" class="g2_92" />
<path d="M69,463.3l783,0l0,-0.8l-783,0l0,0.8Z" class="g2_92" />
<path d="M69,487.8l783,0l0,-0.8L69,487l0,0.8Z" class="g2_92" />
<path d="M69,512.2l783,0l0,-0.7l-783,0l0,0.7Z" class="g2_92" />
<path d="M69,553.5l783,0l0,-0.8l-783,0l0,0.8Z" class="g2_92" />
<path d="M208.7,577.9l643.3,0l0,-0.8l-643.3,0l0,0.8Z" class="g2_92" />
<path d="M69,602.3l783,0l0,-0.7l-783,0l0,0.7Z" class="g2_92" />
<path d="M208.7,643.6l643.3,0l0,-0.7l-643.3,0l0,0.7Z" class="g2_92" />
<path d="M69,668.1l783,0l0,-0.8l-783,0l0,0.8Z" class="g2_92" />
<path d="M69,709.3l783,0l0,-0.7l-783,0l0,0.7Z" class="g2_92" />
<path d="M69,767.3l783,0l0,-0.7l-783,0l0,0.7Z" class="g2_92" />
</svg>