<?xml version="1.0" encoding="UTF-8" standalone="no"?>
<!DOCTYPE svg PUBLIC "-//W3C//DTD SVG 1.1//EN"
"http://www.w3.org/Graphics/SVG/1.1/DTD/svg11.dtd">
<svg viewBox="0 0 935 1210" version="1.1" xmlns="http://www.w3.org/2000/svg" xmlns:xlink="http://www.w3.org/1999/xlink">
<defs>
<style type="text/css"><![CDATA[
.g1_1058{
fill: #FFFFFF;
}
.g2_1058{
}
]]></style>
</defs>
<path d="M165,1149.3l687.5,0l0,-21.2l-687.5,0l0,21.2Z" class="g1_1058" />
<path d="M68.8,1149.3l82.5,0l0,-21.2l-82.5,0l0,21.2Z" class="g1_1058" />
<path d="M68.6,224.2l0.7,0l0,-89.4l-0.7,0l0,89.4Z" class="g2_1058" />
<path d="M253.6,224.9l0.7,0l0,-90.8l-0.7,0l0,90.8Z" class="g2_1058" />
<path d="M294.8,224.9l0.7,0l0,-90.8l-0.7,0l0,90.8Z" class="g2_1058" />
<path d="M375.1,224.9l0.7,0l0,-90.8l-0.7,0l0,90.8Z" class="g2_1058" />
<path d="M483.6,224.9l0.8,0l0,-90.8l-0.8,0l0,90.8Z" class="g2_1058" />
<path d="M850.6,224.2l0.7,0l0,-89.4l-0.7,0l0,89.4Z" class="g2_1058" />
<path d="M68.6,134.8l782.7,0l0,-0.7l-782.7,0l0,0.7Z" class="g2_1058" />
<path d="M68.6,188.3l782.7,0l0,-0.7l-782.7,0l0,0.7Z" class="g2_1058" />
<path d="M68.6,224.9l782.7,0l0,-0.7l-782.7,0l0,0.7Z" class="g2_1058" />
<path d="M70,325.1l0.8,0l0,-48.2l-0.8,0l0,48.2Z" class="g2_1058" />
<path d="M160.7,325.8l0.7,0l0,-49.6l-0.7,0l0,49.6Z" class="g2_1058" />
<path d="M327,325.8l0.7,0l0,-49.6l-0.7,0l0,49.6Z" class="g2_1058" />
<path d="M498.6,325.8l0.7,0l0,-49.6l-0.7,0l0,49.6Z" class="g2_1058" />
<path d="M674.3,325.8l0.7,0l0,-49.6l-0.7,0l0,49.6Z" class="g2_1058" />
<path d="M850.4,325.1l0.7,0l0,-48.2l-0.7,0l0,48.2Z" class="g2_1058" />
<path d="M70,276.9l781.1,0l0,-0.7L70,276.2l0,0.7Z" class="g2_1058" />
<path d="M70,301.3l781.1,0l0,-0.7L70,300.6l0,0.7Z" class="g2_1058" />
<path d="M70,325.8l781.1,0l0,-0.7L70,325.1l0,0.7Z" class="g2_1058" />
</svg>