<?xml version="1.0" encoding="UTF-8" standalone="no"?>
<!DOCTYPE svg PUBLIC "-//W3C//DTD SVG 1.1//EN"
"http://www.w3.org/Graphics/SVG/1.1/DTD/svg11.dtd">
<svg viewBox="0 0 935 1210" version="1.1" xmlns="http://www.w3.org/2000/svg" xmlns:xlink="http://www.w3.org/1999/xlink">
<defs>
<style type="text/css"><![CDATA[
.g1_368{
fill: #FFFFFF;
}
.g2_368{
}
]]></style>
</defs>
<path d="M165,1149.3l687.5,0l0,-21.2l-687.5,0l0,21.2Z" class="g1_368" />
<path d="M68.8,1149.3l82.5,0l0,-21.2l-82.5,0l0,21.2Z" class="g1_368" />
<path d="M157.7,366.5l0.7,0l0,-242.4l-0.7,0l0,242.4Z" class="g2_368" />
<path d="M762.7,366.5l0.7,0l0,-242.4l-0.7,0l0,242.4Z" class="g2_368" />
<path d="M157.7,124.1l605.8,0l0,-0.7l-605.8,0l0,0.7Z" class="g2_368" />
<path d="M157.7,367.2l605.8,0l0,-0.7l-605.8,0l0,0.7Z" class="g2_368" />
<path fill-rule="evenodd" d="M438.2,285.5l0.1,-0.3l0,-0.7l-0.1,-0.2L438,284.1l-0.2,-0.3l-0.2,-0.2l-0.3,-0.1L437,283.4c-0.6,0,-0.8,0,-1.3,0.5l-0.2,0.2l-0.2,0.3l-0.1,0.3c0,1.5,1.5,2.3,2.7,1.3l0.2,-0.3l0.1,-0.2Z" class="g2_368" />
<path d="M436.9,284.9l2.3,-6.1l0.3,-1l0.9,0.7l19,14.2l2.1,1.5l-2.6,-0.1l-23.8,-2l-1,-0.1l0.4,-1l0.7,-0.4l23.8,1.9l-0.1,1.6l-0.5,-0.2l-19,-14.2l1,-1.2l0.1,0.8l-2.2,6.1Z" class="g2_368" />
<path d="M434.5,291l2.4,-6.1l1.4,0.6l-2.4,6.1Z" class="g2_368" />
<path fill-rule="evenodd" d="M437.5,285.2l2.3,-6.2l19.1,14.2l-23.8,-1.9Z" class="g2_368" />
<path d="M255.8,215.5l-1.1,2.8l181.5,68.1l1.1,-2.9Z" class="g2_368" />
<path d="M600.8,314.9l56.6,0l0,-20.7l-56.6,0l0,20.7Z" class="g1_368" />
<path d="M600.8,294.5l57,0l0,-0.7l-57,0l0,0.7Z" class="g2_368" />
<path d="M657.1,315.2l0.7,0l0,-21l-0.7,0l0,21Z" class="g2_368" />
<path d="M600.4,315.2l57,0l0,-0.7l-57,0l0,0.7Z" class="g2_368" />
<path d="M600.4,314.9l0.8,0l0,-21.1l-0.8,0l0,21.1Z" class="g2_368" />
<path fill-rule="evenodd" d="M618.7,270.6l0.5,-0.4c1,-0.8,0.3,-2.7,-1.2,-2.6l-0.3,0.1l-0.3,0.1c-1.2,0.9,-0.9,2.6,0.6,2.9l0.4,-0.1l0.3,0Z" class="g2_368" />
<path d="M618.1,269.1l6.2,-2.1l1,-0.2l0.1,1l1,23.8l0.1,2.6L625,292L611.5,272.3L611,271.5l0.9,-0.4l0.9,0.4l13.5,19.7L625,292l-0.1,-0.3l-1,-23.9l1.5,0l-0.5,0.8l-6.2,2.1Z" class="g2_368" />
<path d="M611.9,271.1l6.2,-2l0.6,1.6l-6.3,2Z" class="g2_368" />
<path fill-rule="evenodd" d="M618.4,269.9l6.2,-2.1l1,23.8L612.2,271.9Z" class="g2_368" />
<path d="M602.3,216.4l-2.9,0.9l17.4,52.3l2.9,-0.9Z" class="g2_368" />
<path fill-rule="evenodd" d="M552.8,276l0.4,-0.5c0.5,-1.5,-0.8,-2.6,-2.2,-2l-0.3,0.2l-0.2,0.3c-0.8,1.1,0.3,2.8,1.8,2.3l0.3,-0.1l0.2,-0.2Z" class="g2_368" />
<path d="M551.8,274.9l4.8,-4.5l0.7,-0.6l0.5,0.9l10.8,21.2l1.2,2.3l-2.3,-1.3L547.2,280.7l-0.9,-0.6l0.8,-0.7l0.8,-0.1l20.3,12.2l-0.7,1.4l-0.3,-0.4L556.4,271.3l1.4,-0.6l-0.2,0.9l-4.8,4.5Z" class="g2_368" />
<path d="M547.1,279.4l4.7,-4.5l1,1.2l-4.7,4.5Z" class="g2_368" />
<path fill-rule="evenodd" d="M552.3,275.5l4.8,-4.5l10.8,21.1L547.5,279.9Z" class="g2_368" />
<path d="M498.8,215.9l-2.2,2.1l54,58l2.2,-2.1Z" class="g2_368" />
<path fill-rule="evenodd" d="M496.5,282.1l0.1,-0.3l0,-0.3c0.3,-1.5,-1.9,-2.2,-2.6,-1.1l-0.2,0.2l-0.1,0.3l-0.1,0.3l0,0.6l0.2,0.3l0.1,0.2l0.3,0.2l0.2,0.2c0.8,0.3,0.7,0.3,1.4,0l0.3,-0.1l0.2,-0.3l0.2,-0.2Z" class="g2_368" />
<path d="M495.2,281.4l3.6,-6.6l0.9,0.7l16.7,16.8l1.9,2l-2.6,-0.7l-23.2,-5.4l-1,-0.2l0.5,-0.9l0.8,-0.4l23.2,5.4l-0.3,1.5l-0.4,-0.2L498.5,276.6l1.2,-1.1l0.1,0.9l-3.2,5.7Z" class="g2_368" />
<path d="M492,287.1l3.2,-5.7l1.4,0.7l-3.3,5.7Z" class="g2_368" />
<path fill-rule="evenodd" d="M495.8,281.8L499,276l16.8,16.9l-23.2,-5.4Z" class="g2_368" />
<path d="M379.8,215.6l-1.5,2.7l116.1,64.4l1.4,-2.7Z" class="g2_368" />
<path d="M544,314.9l56.8,0l0,-20.7l-56.8,0l0,20.7Z" class="g1_368" />
<path d="M544,294.5l57.2,0l0,-0.7l-57.2,0l0,0.7Z" class="g2_368" />
<path d="M600.4,315.2l0.8,0l0,-21l-0.8,0l0,21Z" class="g2_368" />
<path d="M543.7,315.2l57.1,0l0,-0.7l-57.1,0l0,0.7Z" class="g2_368" />
<path d="M543.7,314.9l0.7,0l0,-21.1l-0.7,0l0,21.1Z" class="g2_368" />
<path d="M487.3,314.9l56.7,0l0,-20.7l-56.7,0l0,20.7Z" class="g1_368" />
<path d="M487.3,294.5l57.1,0l0,-0.7l-57.1,0l0,0.7Z" class="g2_368" />
<path d="M543.7,315.2l0.7,0l0,-21l-0.7,0l0,21Z" class="g2_368" />
<path d="M486.9,315.2l57.1,0l0,-0.7l-57.1,0l0,0.7Z" class="g2_368" />
<path d="M486.9,314.9l0.8,0l0,-21.1l-0.8,0l0,21.1Z" class="g2_368" />
<path d="M430.6,314.9l56.7,0l0,-20.7l-56.7,0l0,20.7Z" class="g1_368" />
<path d="M430.6,294.5l57.1,0l0,-0.7l-57.1,0l0,0.7Z" class="g2_368" />
<path d="M486.9,315.2l0.8,0l0,-21l-0.8,0l0,21Z" class="g2_368" />
<path d="M430.2,315.2l57.1,0l0,-0.7l-57.1,0l0,0.7Z" class="g2_368" />
<path d="M430.2,314.9l0.7,0l0,-21.1l-0.7,0l0,21.1Z" class="g2_368" />
<path d="M544,216.9l113.4,0l0,-20.6l-113.4,0l0,20.6Z" class="g1_368" />
<path d="M544,196.6l113.8,0l0,-0.7l-113.8,0l0,0.7Z" class="g2_368" />
<path d="M657.1,217.3l0.7,0l0,-21l-0.7,0l0,21Z" class="g2_368" />
<path d="M543.7,217.3l113.7,0l0,-0.8l-113.7,0l0,0.8Z" class="g2_368" />
<path d="M543.7,216.9l0.7,0l0,-21l-0.7,0l0,21Z" class="g2_368" />
<path d="M203.7,216.9l113.5,0l0,-20.6l-113.5,0l0,20.6Z" class="g1_368" />
<path d="M203.7,196.6l113.8,0l0,-0.7l-113.8,0l0,0.7Z" class="g2_368" />
<path d="M316.8,217.3l0.7,0l0,-21l-0.7,0l0,21Z" class="g2_368" />
<path d="M203.3,217.3l113.9,0l0,-0.8l-113.9,0l0,0.8Z" class="g2_368" />
<path d="M203.3,216.9l0.8,0l0,-21l-0.8,0l0,21Z" class="g2_368" />
<path d="M317.2,216.9l113.4,0l0,-20.6l-113.4,0l0,20.6Z" class="g1_368" />
<path d="M317.2,196.6l113.7,0l0,-0.7l-113.7,0l0,0.7Z" class="g2_368" />
<path d="M430.2,217.3l0.7,0l0,-21l-0.7,0l0,21Z" class="g2_368" />
<path d="M316.8,217.3l113.8,0l0,-0.8l-113.8,0l0,0.8Z" class="g2_368" />
<path d="M316.8,216.9l0.7,0l0,-21l-0.7,0l0,21Z" class="g2_368" />
<path d="M430.6,216.9l113.4,0l0,-20.6l-113.4,0l0,20.6Z" class="g1_368" />
<path d="M430.6,196.6l113.8,0l0,-0.7l-113.8,0l0,0.7Z" class="g2_368" />
<path d="M543.7,217.3l0.7,0l0,-21l-0.7,0l0,21Z" class="g2_368" />
<path d="M430.2,217.3l113.8,0l0,-0.8l-113.8,0l0,0.8Z" class="g2_368" />
<path d="M430.2,216.9l0.7,0l0,-21l-0.7,0l0,21Z" class="g2_368" />
<path d="M206.9,314.9l222.3,0l0,-20.7l-222.3,0l0,20.7Z" class="g1_368" />
<path d="M206.9,294.5l222.7,0l0,-0.7l-222.7,0l0,0.7Z" class="g2_368" />
<path d="M428.8,315.2l0.8,0l0,-21l-0.8,0l0,21Z" class="g2_368" />
<path d="M206.5,315.2l222.7,0l0,-0.7l-222.7,0l0,0.7Z" class="g2_368" />
<path d="M206.5,314.9l0.8,0l0,-21.1l-0.8,0l0,21.1Z" class="g2_368" />
</svg>