<?xml version="1.0" encoding="UTF-8" standalone="no"?>
<!DOCTYPE svg PUBLIC "-//W3C//DTD SVG 1.1//EN"
"http://www.w3.org/Graphics/SVG/1.1/DTD/svg11.dtd">
<svg viewBox="0 0 935 1210" version="1.1" xmlns="http://www.w3.org/2000/svg" xmlns:xlink="http://www.w3.org/1999/xlink">
<defs>
<style type="text/css"><![CDATA[
.g1_2050{
fill: #FFFFFF;
}
.g2_2050{
}
]]></style>
</defs>
<path d="M68.8,1149l784.5,0l0,-21.4l-784.5,0l0,21.4Z" class="g1_2050" />
<path d="M67.5,374.7l2.3,0l0,-203.9l-2.3,0l0,203.9Z" class="g2_2050" />
<path d="M67.5,603.9l2.3,0l0,-204l-2.3,0l0,204Z" class="g2_2050" />
<path d="M104.1,377l2.3,0l0,-208.5l-2.3,0l0,208.5Z" class="g2_2050" />
<path d="M104.1,606.2l2.3,0l0,-208.5l-2.3,0l0,208.5Z" class="g2_2050" />
<path d="M203,193.7l0.8,0l0,-25.2l-0.8,0l0,25.2Z" class="g2_2050" />
<path d="M203,238.7l0.8,0l0,-23.6l-0.8,0l0,23.6Z" class="g2_2050" />
<path d="M203,330.4l0.8,0l0,-69.5l-0.8,0l0,69.5Z" class="g2_2050" />
<path d="M203,377l0.8,0l0,-24.4l-0.8,0l0,24.4Z" class="g2_2050" />
<path d="M203,422.9l0.8,0l0,-25.2l-0.8,0l0,25.2Z" class="g2_2050" />
<path d="M203,467.9l0.8,0l0,-23.7l-0.8,0l0,23.7Z" class="g2_2050" />
<path d="M203,513.7l0.8,0l0,-23.7l-0.8,0l0,23.7Z" class="g2_2050" />
<path d="M203,606.2l0.8,0l0,-70.3l-0.8,0l0,70.3Z" class="g2_2050" />
<path d="M295,193.7l0.7,0l0,-25.2l-0.7,0l0,25.2Z" class="g2_2050" />
<path d="M295,238.7l0.7,0l0,-23.6l-0.7,0l0,23.6Z" class="g2_2050" />
<path d="M295,330.4l0.7,0l0,-69.5l-0.7,0l0,69.5Z" class="g2_2050" />
<path d="M295,377l0.7,0l0,-24.4l-0.7,0l0,24.4Z" class="g2_2050" />
<path d="M295,422.9l0.7,0l0,-25.2l-0.7,0l0,25.2Z" class="g2_2050" />
<path d="M295,467.9l0.7,0l0,-23.7l-0.7,0l0,23.7Z" class="g2_2050" />
<path d="M295,513.7l0.7,0l0,-23.7l-0.7,0l0,23.7Z" class="g2_2050" />
<path d="M295,606.2l0.7,0l0,-70.3l-0.7,0l0,70.3Z" class="g2_2050" />
<path d="M387.3,193.7l0.7,0l0,-25.2l-0.7,0l0,25.2Z" class="g2_2050" />
<path d="M387.3,238.7l0.7,0l0,-23.6l-0.7,0l0,23.6Z" class="g2_2050" />
<path d="M387.3,330.4l0.7,0l0,-69.5l-0.7,0l0,69.5Z" class="g2_2050" />
<path d="M387.3,377l0.7,0l0,-24.4l-0.7,0l0,24.4Z" class="g2_2050" />
<path d="M387.3,422.9l0.7,0l0,-25.2l-0.7,0l0,25.2Z" class="g2_2050" />
<path d="M387.3,467.9l0.7,0l0,-23.7l-0.7,0l0,23.7Z" class="g2_2050" />
<path d="M387.3,513.7l0.7,0L388,490l-0.7,0l0,23.7Z" class="g2_2050" />
<path d="M387.3,606.2l0.7,0l0,-70.3l-0.7,0l0,70.3Z" class="g2_2050" />
<path d="M479.5,193.7l0.7,0l0,-25.2l-0.7,0l0,25.2Z" class="g2_2050" />
<path d="M479.5,238.7l0.7,0l0,-23.6l-0.7,0l0,23.6Z" class="g2_2050" />
<path d="M479.5,330.4l0.7,0l0,-69.5l-0.7,0l0,69.5Z" class="g2_2050" />
<path d="M479.5,377l0.7,0l0,-24.4l-0.7,0l0,24.4Z" class="g2_2050" />
<path d="M479.5,422.9l0.7,0l0,-25.2l-0.7,0l0,25.2Z" class="g2_2050" />
<path d="M479.5,467.9l0.7,0l0,-23.7l-0.7,0l0,23.7Z" class="g2_2050" />
<path d="M479.5,513.7l0.7,0l0,-23.7l-0.7,0l0,23.7Z" class="g2_2050" />
<path d="M479.5,606.2l0.7,0l0,-70.3l-0.7,0l0,70.3Z" class="g2_2050" />
<path d="M571.7,193.7l0.8,0l0,-25.2l-0.8,0l0,25.2Z" class="g2_2050" />
<path d="M571.7,238.7l0.8,0l0,-23.6l-0.8,0l0,23.6Z" class="g2_2050" />
<path d="M571.7,330.4l0.8,0l0,-69.5l-0.8,0l0,69.5Z" class="g2_2050" />
<path d="M571.7,377l0.8,0l0,-24.4l-0.8,0l0,24.4Z" class="g2_2050" />
<path d="M571.7,422.9l0.8,0l0,-25.2l-0.8,0l0,25.2Z" class="g2_2050" />
<path d="M571.7,467.9l0.8,0l0,-23.7l-0.8,0l0,23.7Z" class="g2_2050" />
<path d="M571.7,513.7l0.8,0l0,-23.7l-0.8,0l0,23.7Z" class="g2_2050" />
<path d="M571.7,606.2l0.8,0l0,-70.3l-0.8,0l0,70.3Z" class="g2_2050" />
<path d="M663.9,193.7l0.8,0l0,-25.2l-0.8,0l0,25.2Z" class="g2_2050" />
<path d="M663.9,238.7l0.8,0l0,-23.6l-0.8,0l0,23.6Z" class="g2_2050" />
<path d="M663.9,330.4l0.8,0l0,-69.5l-0.8,0l0,69.5Z" class="g2_2050" />
<path d="M663.9,377l0.8,0l0,-24.4l-0.8,0l0,24.4Z" class="g2_2050" />
<path d="M663.9,422.9l0.8,0l0,-25.2l-0.8,0l0,25.2Z" class="g2_2050" />
<path d="M663.9,467.9l0.8,0l0,-23.7l-0.8,0l0,23.7Z" class="g2_2050" />
<path d="M663.9,513.7l0.8,0l0,-23.7l-0.8,0l0,23.7Z" class="g2_2050" />
<path d="M663.9,606.2l0.8,0l0,-70.3l-0.8,0l0,70.3Z" class="g2_2050" />
<path d="M759.9,193.7l0.7,0l0,-25.2l-0.7,0l0,25.2Z" class="g2_2050" />
<path d="M759.9,238.7l0.7,0l0,-23.6l-0.7,0l0,23.6Z" class="g2_2050" />
<path d="M759.9,330.4l0.7,0l0,-69.5l-0.7,0l0,69.5Z" class="g2_2050" />
<path d="M759.9,377l0.7,0l0,-24.4l-0.7,0l0,24.4Z" class="g2_2050" />
<path d="M759.9,422.9l0.7,0l0,-25.2l-0.7,0l0,25.2Z" class="g2_2050" />
<path d="M759.9,467.9l0.7,0l0,-23.7l-0.7,0l0,23.7Z" class="g2_2050" />
<path d="M759.9,513.7l0.7,0l0,-23.7l-0.7,0l0,23.7Z" class="g2_2050" />
<path d="M759.9,606.2l0.7,0l0,-70.3l-0.7,0l0,70.3Z" class="g2_2050" />
<path d="M853.7,374.7l2.3,0l0,-203.9l-2.3,0l0,203.9Z" class="g2_2050" />
<path d="M853.7,603.9l2.3,0l0,-204l-2.3,0l0,204Z" class="g2_2050" />
<path d="M67.4,170.8l788.5,0l0,-2.3l-788.5,0l0,2.3Z" class="g2_2050" />
<path d="M67.4,193.7l788.5,0l0,-2.3l-788.5,0l0,2.3Z" class="g2_2050" />
<path d="M104,215.8l751.9,0l0,-0.8L104,215l0,0.8Z" class="g2_2050" />
<path d="M67.4,238.7l788.5,0l0,-0.7L67.4,238l0,0.7Z" class="g2_2050" />
<path d="M104,261.6l751.9,0l0,-0.7l-751.9,0l0,0.7Z" class="g2_2050" />
<path d="M67.4,284.5l788.5,0l0,-0.7l-788.5,0l0,0.7Z" class="g2_2050" />
<path d="M67.4,330.4l788.5,0l0,-0.8l-788.5,0l0,0.8Z" class="g2_2050" />
<path d="M104,353.3l751.9,0l0,-0.7l-751.9,0l0,0.7Z" class="g2_2050" />
<path d="M67.4,377l788.5,0l0,-2.3l-788.5,0l0,2.3Z" class="g2_2050" />
<path d="M67.4,399.9l788.5,0l0,-2.2l-788.5,0l0,2.2Z" class="g2_2050" />
<path d="M67.4,422.9l788.5,0l0,-2.3l-788.5,0l0,2.3Z" class="g2_2050" />
<path d="M104,444.9l751.9,0l0,-0.7l-751.9,0l0,0.7Z" class="g2_2050" />
<path d="M67.4,467.9l788.5,0l0,-0.8l-788.5,0l0,0.8Z" class="g2_2050" />
<path d="M104,490.8l751.9,0l0,-0.8L104,490l0,0.8Z" class="g2_2050" />
<path d="M67.4,513.7l788.5,0l0,-0.7L67.4,513l0,0.7Z" class="g2_2050" />
<path d="M104,536.6l751.9,0l0,-0.7l-751.9,0l0,0.7Z" class="g2_2050" />
<path d="M67.4,559.5l788.5,0l0,-0.7l-788.5,0l0,0.7Z" class="g2_2050" />
<path d="M67.4,606.2l788.5,0l0,-2.3l-788.5,0l0,2.3Z" class="g2_2050" />
</svg>