<?xml version="1.0" encoding="UTF-8" standalone="no"?>
<!DOCTYPE svg PUBLIC "-//W3C//DTD SVG 1.1//EN"
"http://www.w3.org/Graphics/SVG/1.1/DTD/svg11.dtd">
<svg viewBox="0 0 935 1210" version="1.1" xmlns="http://www.w3.org/2000/svg" xmlns:xlink="http://www.w3.org/1999/xlink">
<defs>
<style type="text/css"><![CDATA[
.g1_1982{
fill: #FFFFFF;
}
.g2_1982{
}
]]></style>
</defs>
<path d="M165,1149.3l687.5,0l0,-21.2l-687.5,0l0,21.2Z" class="g1_1982" />
<path d="M68.8,1149.3l82.5,0l0,-21.2l-82.5,0l0,21.2Z" class="g1_1982" />
<path d="M68.4,393.8l0.7,0L69.1,147l-0.7,0l0,246.8Z" class="g2_1982" />
<path d="M169.2,394.5l0.8,0l0,-248.2l-0.8,0l0,248.2Z" class="g2_1982" />
<path d="M852,393.8l0.7,0l0,-246.8l-0.7,0l0,246.8Z" class="g2_1982" />
<path d="M68.4,147l784.3,0l0,-0.7l-784.3,0l0,0.7Z" class="g2_1982" />
<path d="M68.4,176.1l784.3,0l0,-0.7l-784.3,0l0,0.7Z" class="g2_1982" />
<path d="M68.4,205.1l784.3,0l0,-0.8l-784.3,0l0,0.8Z" class="g2_1982" />
<path d="M68.4,234.1l784.3,0l0,-0.7l-784.3,0l0,0.7Z" class="g2_1982" />
<path d="M68.4,263.2l784.3,0l0,-0.8l-784.3,0l0,0.8Z" class="g2_1982" />
<path d="M68.4,292.1l784.3,0l0,-0.7l-784.3,0l0,0.7Z" class="g2_1982" />
<path d="M68.4,336.5l784.3,0l0,-0.7l-784.3,0l0,0.7Z" class="g2_1982" />
<path d="M68.4,365.5l784.3,0l0,-0.8l-784.3,0l0,0.8Z" class="g2_1982" />
<path d="M68.4,394.5l784.3,0l0,-0.7l-784.3,0l0,0.7Z" class="g2_1982" />
</svg>