<?xml version="1.0" encoding="UTF-8" standalone="no"?>
<!DOCTYPE svg PUBLIC "-//W3C//DTD SVG 1.1//EN"
"http://www.w3.org/Graphics/SVG/1.1/DTD/svg11.dtd">
<svg viewBox="0 0 935 1210" version="1.1" xmlns="http://www.w3.org/2000/svg" xmlns:xlink="http://www.w3.org/1999/xlink">
<defs>
<style type="text/css"><![CDATA[
.g1_1786{
fill: #FFFFFF;
}
.g2_1786{
}
]]></style>
</defs>
<path d="M165,1149.3l687.5,0l0,-21.2l-687.5,0l0,21.2Z" class="g1_1786" />
<path d="M68.8,1149.3l82.5,0l0,-21.2l-82.5,0l0,21.2Z" class="g1_1786" />
<path d="M68.6,833.8l0.7,0l0,-708.1l-0.7,0l0,708.1Z" class="g2_1786" />
<path d="M317.6,834.6l0.8,0l0,-709.7l-0.8,0l0,709.7Z" class="g2_1786" />
<path d="M388,834.6l0.8,0l0,-709.7l-0.8,0l0,709.7Z" class="g2_1786" />
<path d="M460.4,834.6l0.8,0l0,-709.7l-0.8,0l0,709.7Z" class="g2_1786" />
<path d="M544.6,834.6l0.7,0l0,-709.7l-0.7,0l0,709.7Z" class="g2_1786" />
<path d="M851.2,833.8l0.7,0l0,-708.1l-0.7,0l0,708.1Z" class="g2_1786" />
<path d="M68.6,125.7l783.4,0l0,-0.8l-783.4,0l0,0.8Z" class="g2_1786" />
<path d="M68.6,176.1l783.4,0l0,-0.7l-783.4,0l0,0.7Z" class="g2_1786" />
<path d="M68.6,229.5l783.4,0l0,-0.7l-783.4,0l0,0.7Z" class="g2_1786" />
<path d="M68.6,283L852,283l0,-0.8l-783.4,0l0,0.8Z" class="g2_1786" />
<path d="M68.6,336.5l783.4,0l0,-0.7l-783.4,0l0,0.7Z" class="g2_1786" />
<path d="M68.6,389.9l783.4,0l0,-0.7l-783.4,0l0,0.7Z" class="g2_1786" />
<path d="M68.6,443.5l783.4,0l0,-0.8l-783.4,0l0,0.8Z" class="g2_1786" />
<path d="M68.6,496.9l783.4,0l0,-0.7l-783.4,0l0,0.7Z" class="g2_1786" />
<path d="M68.6,550.4l783.4,0l0,-0.8l-783.4,0l0,0.8Z" class="g2_1786" />
<path d="M68.6,603.9l783.4,0l0,-0.7l-783.4,0l0,0.7Z" class="g2_1786" />
<path d="M68.6,674.1l783.4,0l0,-0.7l-783.4,0l0,0.7Z" class="g2_1786" />
<path d="M68.6,727.7l783.4,0l0,-0.8l-783.4,0l0,0.8Z" class="g2_1786" />
<path d="M68.6,781.1l783.4,0l0,-0.7l-783.4,0l0,0.7Z" class="g2_1786" />
<path d="M68.6,834.5l783.4,0l0,-0.7l-783.4,0l0,0.7Z" class="g2_1786" />
<path d="M72.8,962.1l0.7,0l0,-72.5l-0.7,0l0,72.5Z" class="g2_1786" />
<path d="M200,963l0.7,0l0,-74.2l-0.7,0l0,74.2Z" class="g2_1786" />
<path d="M367.9,963l0.7,0l0,-74.2l-0.7,0l0,74.2Z" class="g2_1786" />
<path d="M527.3,963l0.7,0l0,-74.2l-0.7,0l0,74.2Z" class="g2_1786" />
<path d="M687.4,963l0.7,0l0,-74.2l-0.7,0l0,74.2Z" class="g2_1786" />
<path d="M847.6,962.1l0.7,0l0,-72.5l-0.7,0l0,72.5Z" class="g2_1786" />
<path d="M72.8,889.5l775.6,0l0,-0.7l-775.6,0l0,0.7Z" class="g2_1786" />
<path d="M72.8,914l775.6,0l0,-0.7l-775.6,0l0,0.7Z" class="g2_1786" />
<path d="M72.8,938.5l775.6,0l0,-0.7l-775.6,0l0,0.7Z" class="g2_1786" />
<path d="M72.8,962.9l775.6,0l0,-0.8l-775.6,0l0,0.8Z" class="g2_1786" />
</svg>