<?xml version="1.0" encoding="UTF-8" standalone="no"?>
<!DOCTYPE svg PUBLIC "-//W3C//DTD SVG 1.1//EN"
"http://www.w3.org/Graphics/SVG/1.1/DTD/svg11.dtd">
<svg viewBox="0 0 935 1210" version="1.1" xmlns="http://www.w3.org/2000/svg" xmlns:xlink="http://www.w3.org/1999/xlink">
<defs>
<style type="text/css"><![CDATA[
.g1_651{
fill: #FFFFFF;
}
.g2_651{
}
]]></style>
</defs>
<path d="M68.9,1149.3l686.3,0l0,-21.2l-686.3,0l0,21.2Z" class="g1_651" />
<path d="M771.3,1149.3l83.7,0l0,-21.2l-83.7,0l0,21.2Z" class="g1_651" />
<path d="M69.9,331.2l0.8,0l0,-205.5l-0.8,0l0,205.5Z" class="g2_651" />
<path d="M259.4,331.9l0.8,0l0,-207l-0.8,0l0,207Z" class="g2_651" />
<path d="M304.2,331.9l0.8,0l0,-207l-0.8,0l0,207Z" class="g2_651" />
<path d="M362.7,331.9l0.8,0l0,-207l-0.8,0l0,207Z" class="g2_651" />
<path d="M430.3,331.9l0.7,0l0,-207l-0.7,0l0,207Z" class="g2_651" />
<path d="M853.1,331.2l0.8,0l0,-205.5l-0.8,0l0,205.5Z" class="g2_651" />
<path d="M69.9,125.7l784,0l0,-0.8l-784,0l0,0.8Z" class="g2_651" />
<path d="M69.9,179.1l784,0l0,-0.7l-784,0l0,0.7Z" class="g2_651" />
<path d="M69.9,199L431,199l0,-0.7l-361.1,0l0,0.7Z" class="g2_651" />
<path d="M69.9,235.7l784,0l0,-0.8l-784,0l0,0.8Z" class="g2_651" />
<path d="M69.9,255.5l361.1,0l0,-0.8l-361.1,0l0,0.8Z" class="g2_651" />
<path d="M69.9,292.1l784,0l0,-0.7l-784,0l0,0.7Z" class="g2_651" />
<path d="M69.9,312L431,312l0,-0.7l-361.1,0l0,0.7Z" class="g2_651" />
<path d="M69.9,331.9l784,0l0,-0.7l-784,0l0,0.7Z" class="g2_651" />
<path d="M70.5,435.1l0.7,0l0,-48.2l-0.7,0l0,48.2Z" class="g2_651" />
<path d="M136.1,435.8l0.8,0l0,-49.6l-0.8,0l0,49.6Z" class="g2_651" />
<path d="M305.8,435.8l0.7,0l0,-49.6l-0.7,0l0,49.6Z" class="g2_651" />
<path d="M479.9,435.8l0.7,0l0,-49.6l-0.7,0l0,49.6Z" class="g2_651" />
<path d="M660.2,435.8l0.7,0l0,-49.6l-0.7,0l0,49.6Z" class="g2_651" />
<path d="M851.5,435.1l0.7,0l0,-48.2l-0.7,0l0,48.2Z" class="g2_651" />
<path d="M70.5,386.9l781.8,0l0,-0.7l-781.8,0l0,0.7Z" class="g2_651" />
<path d="M70.5,411.4l781.8,0l0,-0.7l-781.8,0l0,0.7Z" class="g2_651" />
<path d="M70.5,435.8l781.8,0l0,-0.8L70.5,435l0,0.8Z" class="g2_651" />
</svg>