<?xml version="1.0" encoding="UTF-8" standalone="no"?>
<!DOCTYPE svg PUBLIC "-//W3C//DTD SVG 1.1//EN"
"http://www.w3.org/Graphics/SVG/1.1/DTD/svg11.dtd">
<svg viewBox="0 0 935 1210" version="1.1" xmlns="http://www.w3.org/2000/svg" xmlns:xlink="http://www.w3.org/1999/xlink">
<defs>
<style type="text/css"><![CDATA[
.g1_1145{
fill: #FFFFFF;
}
.g2_1145{
}
]]></style>
</defs>
<path d="M68.9,1149.3l686.3,0l0,-21.2l-686.3,0l0,21.2Z" class="g1_1145" />
<path d="M771.3,1149.3l83.7,0l0,-21.2l-83.7,0l0,21.2Z" class="g1_1145" />
<path d="M171.3,273.4l0.8,0l0,-147.7l-0.8,0l0,147.7Z" class="g2_1145" />
<path d="M750.7,273.4l0.7,0l0,-147.7l-0.7,0l0,147.7Z" class="g2_1145" />
<path d="M171.3,125.7l580.1,0l0,-0.8l-580.1,0l0,0.8Z" class="g2_1145" />
<path d="M171.3,274.3l580.1,0l0,-0.8l-580.1,0l0,0.8Z" class="g2_1145" />
<path d="M251.2,263.9l220,0l0,-27.5l-220,0l0,27.5Z" class="g1_1145" />
<path d="M251.2,236.8l220.3,0l0,-0.8l-220.3,0l0,0.8Z" class="g2_1145" />
<path d="M470.8,264.3l0.7,0l0,-27.9l-0.7,0l0,27.9Z" class="g2_1145" />
<path d="M250.8,264.3l220.4,0l0,-0.8l-220.4,0l0,0.8Z" class="g2_1145" />
<path d="M250.8,263.9l0.7,0l0,-27.9l-0.7,0l0,27.9Z" class="g2_1145" />
<path d="M305.5,236.4l0.8,0l0,-0.4l-0.8,0l0,0.4Z" class="g2_1145" />
<path d="M305.5,264.3l0.8,0l0,-27.9l-0.8,0l0,27.9Z" class="g2_1145" />
<path d="M360.6,236.4l0.8,0l0,-0.4l-0.8,0l0,0.4Z" class="g2_1145" />
<path d="M360.6,264.3l0.8,0l0,-27.9l-0.8,0l0,27.9Z" class="g2_1145" />
<path d="M415.7,236.4l0.7,0l0,-0.4l-0.7,0l0,0.4Z" class="g2_1145" />
<path d="M415.7,264.3l0.7,0l0,-27.9l-0.7,0l0,27.9Z" class="g2_1145" />
<path d="M443.3,236.4l0.7,0l0,-0.4l-0.7,0l0,0.4Z" class="g2_1145" />
<path d="M443.3,264.3l0.7,0l0,-27.9l-0.7,0l0,27.9Z" class="g2_1145" />
<path d="M333.3,236.4l0.7,0l0,-0.4l-0.7,0l0,0.4Z" class="g2_1145" />
<path d="M333.3,264.3l0.7,0l0,-27.9l-0.7,0l0,27.9Z" class="g2_1145" />
<path d="M388.3,236.4l0.7,0l0,-0.4l-0.7,0l0,0.4Z" class="g2_1145" />
<path d="M388.3,264.3l0.7,0l0,-27.9l-0.7,0l0,27.9Z" class="g2_1145" />
<path d="M278.3,236.4l0.7,0l0,-0.4l-0.7,0l0,0.4Z" class="g2_1145" />
<path d="M278.3,264.3l0.7,0l0,-27.9l-0.7,0l0,27.9Z" class="g2_1145" />
<path d="M471.3,168l220,0l0,-27.5l-220,0l0,27.5Z" class="g1_1145" />
<path d="M471.3,140.9l220.3,0l0,-0.7l-220.3,0l0,0.7Z" class="g2_1145" />
<path d="M690.9,168.4l0.7,0l0,-27.9l-0.7,0l0,27.9Z" class="g2_1145" />
<path d="M470.9,168.4l220.4,0l0,-0.7l-220.4,0l0,0.7Z" class="g2_1145" />
<path d="M470.9,168l0.7,0l0,-27.8l-0.7,0l0,27.8Z" class="g2_1145" />
<path d="M525.7,140.5l0.7,0l0,-0.3l-0.7,0l0,0.3Z" class="g2_1145" />
<path d="M525.7,168.4l0.7,0l0,-27.9l-0.7,0l0,27.9Z" class="g2_1145" />
<path d="M580.7,140.5l0.7,0l0,-0.3l-0.7,0l0,0.3Z" class="g2_1145" />
<path d="M580.7,168.4l0.7,0l0,-27.9l-0.7,0l0,27.9Z" class="g2_1145" />
<path d="M635.8,140.5l0.7,0l0,-0.3l-0.7,0l0,0.3Z" class="g2_1145" />
<path d="M635.8,168.4l0.7,0l0,-27.9l-0.7,0l0,27.9Z" class="g2_1145" />
<path d="M663.4,140.5l0.7,0l0,-0.3l-0.7,0l0,0.3Z" class="g2_1145" />
<path d="M663.4,168.4l0.7,0l0,-27.9l-0.7,0l0,27.9Z" class="g2_1145" />
<path d="M553.4,140.5l0.7,0l0,-0.3l-0.7,0l0,0.3Z" class="g2_1145" />
<path d="M553.4,168.4l0.7,0l0,-27.9l-0.7,0l0,27.9Z" class="g2_1145" />
<path d="M608.4,140.5l0.7,0l0,-0.3l-0.7,0l0,0.3Z" class="g2_1145" />
<path d="M608.4,168.4l0.7,0l0,-27.9l-0.7,0l0,27.9Z" class="g2_1145" />
<path d="M498.4,140.5l0.7,0l0,-0.3l-0.7,0l0,0.3Z" class="g2_1145" />
<path d="M498.4,168.4l0.7,0l0,-27.9l-0.7,0l0,27.9Z" class="g2_1145" />
<path d="M223.4,168.2l220,0l0,-27.5l-220,0l0,27.5Z" class="g1_1145" />
<path d="M223.4,141.1l220.4,0l0,-0.8l-220.4,0l0,0.8Z" class="g2_1145" />
<path d="M443,168.6l0.8,0l0,-27.9l-0.8,0l0,27.9Z" class="g2_1145" />
<path d="M223,168.6l220.4,0l0,-0.8l-220.4,0l0,0.8Z" class="g2_1145" />
<path d="M223,168.2l0.8,0l0,-27.9l-0.8,0l0,27.9Z" class="g2_1145" />
<path d="M277.8,140.7l0.7,0l0,-0.4l-0.7,0l0,0.4Z" class="g2_1145" />
<path d="M277.8,168.6l0.7,0l0,-27.9l-0.7,0l0,27.9Z" class="g2_1145" />
<path d="M332.8,140.7l0.8,0l0,-0.4l-0.8,0l0,0.4Z" class="g2_1145" />
<path d="M332.8,168.6l0.8,0l0,-27.9l-0.8,0l0,27.9Z" class="g2_1145" />
<path d="M387.9,140.7l0.8,0l0,-0.4l-0.8,0l0,0.4Z" class="g2_1145" />
<path d="M387.9,168.6l0.8,0l0,-27.9l-0.8,0l0,27.9Z" class="g2_1145" />
<path d="M415.5,140.7l0.8,0l0,-0.4l-0.8,0l0,0.4Z" class="g2_1145" />
<path d="M415.5,168.6l0.8,0l0,-27.9l-0.8,0l0,27.9Z" class="g2_1145" />
<path d="M305.5,140.7l0.8,0l0,-0.4l-0.8,0l0,0.4Z" class="g2_1145" />
<path d="M305.5,168.6l0.8,0l0,-27.9l-0.8,0l0,27.9Z" class="g2_1145" />
<path d="M360.5,140.7l0.8,0l0,-0.4l-0.8,0l0,0.4Z" class="g2_1145" />
<path d="M360.5,168.6l0.8,0l0,-27.9l-0.8,0l0,27.9Z" class="g2_1145" />
<path d="M250.5,140.7l0.8,0l0,-0.4l-0.8,0l0,0.4Z" class="g2_1145" />
<path d="M250.5,168.6l0.8,0l0,-27.9l-0.8,0l0,27.9Z" class="g2_1145" />
<path d="M303.7,232.8l-0.2,-0.7l-1.5,0.6l0.1,0.7Z" class="g2_1145" />
<path d="M302.7,232.5l1.5,1.9l1,1.3l-1.6,0.1l-8.5,0.5l-2.7,0.1l2.2,-1.6l6.9,-4.9l1.4,-0.9l0,1.5l-0.4,0.7l-7,4.9l-0.9,-1.3l0.4,0l8.5,-0.6l0.1,1.6L303,235.5l-1.6,-1.9Z" class="g2_1145" />
<path d="M302.9,230.5l0,2.5l-1.5,0.6L301.2,233l0,-2.5Z" class="g2_1145" />
<path fill-rule="evenodd" d="M302,233l1.6,1.9l-8.5,0.6l6.9,-5Z" class="g2_1145" />
<path d="M485,168l0.4,-0.1l-0.3,-0.7l-0.4,0.1Z" class="g2_1145" />
<path d="M303.8,232.8l-0.4,0.1l-0.3,-0.7l0.4,-0.1Z" class="g2_1145" />
<path d="M485,168l-0.3,-0.7L303.5,232.1l0.3,0.7Z" class="g2_1145" />
<path d="M360,232.3l-0.4,-0.8l-1.5,0.6l0.4,0.7Z" class="g2_1145" />
<path d="M358.9,231.9l1.7,1.9l1.1,1.2l-1.6,0.2l-8.6,1l-2.6,0.3l2.1,-1.7l6.7,-5.4l1.3,-1l0.1,1.6l-0.4,0.6L352,236l-1,-1.2l0.4,-0.1l8.6,-1l0.1,1.5l-0.6,-0.3L357.8,233Z" class="g2_1145" />
<path d="M359.1,230l0.1,2.5l-1.4,0.5l-0.2,-0.3l-0.1,-0.2L357.4,230Z" class="g2_1145" />
<path fill-rule="evenodd" d="M358.3,232.5l1.8,1.9l-8.6,1l6.7,-5.4Z" class="g2_1145" />
<path d="M512.1,168l0.2,-0.1l-0.2,-0.6l-0.3,0.1Z" class="g2_1145" />
<path d="M360,232.3l-0.3,0.1l-0.3,-0.7l0.3,-0.1Z" class="g2_1145" />
<path d="M512.1,168l-0.3,-0.6L359.7,231.6l0.3,0.7Z" class="g2_1145" />
<path d="M412.9,231.5l-0.4,-0.7l-1.5,0.7l0.4,0.8Z" class="g2_1145" />
<path d="M411.8,231.4l1.8,1.7l1.2,1l-1.7,0.3l-8.3,1.6l-2.6,0.4l2,-1.7l6.2,-5.8l1.2,-1.1l0.1,1.5l-0.3,0.7l-6.2,5.8l-1,-1.1l0.3,-0.2l8.4,-1.6l0.2,1.5l-0.6,-0.2l-1.8,-1.7Z" class="g2_1145" />
<path d="M411.7,229.3l0.3,2.5l-1.3,0.7l-0.2,-0.2l0,-0.3l-0.3,-2.5Z" class="g2_1145" />
<path fill-rule="evenodd" d="M411.2,231.9l1.9,1.8l-8.4,1.5l6.2,-5.8Z" class="g2_1145" />
<path d="M540.7,168l0.3,-0.2l-0.3,-0.6l-0.3,0.2Z" class="g2_1145" />
<path d="M412.9,231.5l-0.3,0.2l-0.4,-0.6l0.3,-0.2Z" class="g2_1145" />
<path d="M540.7,168l-0.3,-0.6L412.5,230.9l0.4,0.6Z" class="g2_1145" />
<path d="M466.4,230.5L466,230l-1.3,0.8l0.3,0.6Z" class="g2_1145" />
<path d="M465.3,230.5l1.9,1.5l1.3,1l-1.6,0.4l-8.2,2.3l-2.6,0.7l1.8,-1.9l5.8,-6.3l1.1,-1.2l0.2,1.4l-0.2,0.8l-5.7,6.3l-1.2,-1l0.3,-0.3l8.3,-2.3l0.4,1.5l-0.6,-0.1l-1.9,-1.6Z" class="g2_1145" />
<path d="M465,228.4l0.6,2.5l-1.2,0.8l-0.3,-0.2l0,-0.2l-0.5,-2.5Z" class="g2_1145" />
<path fill-rule="evenodd" d="M464.8,231.1l2,1.6l-8.3,2.2l5.8,-6.3Z" class="g2_1145" />
<path d="M566.9,168l0.2,-0.2l-0.3,-0.6l-0.3,0.2Z" class="g2_1145" />
<path d="M466.4,230.6l-0.3,0.2l-0.3,-0.6L466,230Z" class="g2_1145" />
<path d="M566.9,168l-0.4,-0.6L466,230l0.4,0.6Z" class="g2_1145" />
<path d="M418.5,230l-0.3,0.5l1.4,0.9l0.3,-0.6Z" class="g2_1145" />
<path d="M419,230.9l0.6,-2.5l0.2,-1.4l1.1,1.2l5.8,6.4l1.8,1.9l-2.6,-0.7l-8.3,-2.4L416.1,233l1.3,-1l0.7,-0.1l8.2,2.4l-0.4,1.5l-0.4,-0.2l-5.8,-6.4l1.2,-1l0.1,0.6l-0.5,2.5Z" class="g2_1145" />
<path d="M417.4,232l1.9,-1.6l1.2,0.9l0,0.2l-0.3,0.2l-1.9,1.6Z" class="g2_1145" />
<path fill-rule="evenodd" d="M419.7,231.1l0.6,-2.5l5.8,6.4l-8.3,-2.3Z" class="g2_1145" />
<path d="M320.6,169l-0.3,-0.1l-0.4,0.6l0.3,0.2Z" class="g2_1145" />
<path d="M418.5,230l0.3,0.2l-0.3,0.6l-0.3,-0.2Z" class="g2_1145" />
<path d="M320.6,169l-0.4,0.7l98,60.9l0.4,-0.6Z" class="g2_1145" />
<path d="M366.3,228.8l-0.6,0.5l1.3,1.1l0.6,-0.6Z" class="g2_1145" />
<path d="M366.6,229.8l0.8,-2.4l0.5,-1.4l0.9,1.3l4.8,7l1.6,2.1l-2.5,-1l-7.9,-3.3l-1.4,-0.6l1.3,-0.8l0.7,0l7.9,3.3l-0.6,1.4l-0.3,-0.3l-4.9,-6.9l1.3,-0.9l0.1,0.7l-0.9,2.4Z" class="g2_1145" />
<path d="M364.7,230.7l2.2,-1.3l1.1,1l0,0.2l-0.3,0.1l-2.2,1.3Z" class="g2_1145" />
<path fill-rule="evenodd" d="M367.3,230.1l0.8,-2.4l4.9,7l-7.9,-3.3Z" class="g2_1145" />
<path d="M291.1,168.2L290.9,168l-0.5,0.6l0.3,0.2Z" class="g2_1145" />
<path d="M366.3,228.8l0.3,0.2l-0.5,0.5l-0.3,-0.2Z" class="g2_1145" />
<path d="M291.1,168.2l-0.4,0.6l75.1,60.5l0.5,-0.5Z" class="g2_1145" />
<path d="M312.3,227.1l-0.5,0.6l1,1.2l0.5,-0.6Z" class="g2_1145" />
<path d="M312.4,228.3l1.3,-2.2l0.7,-1.3l0.7,1.4l3.4,7.8l1,2.4l-2.1,-1.5l-7.1,-4.7L309,229.3l1.3,-0.4l0.8,0l7.1,4.8l-0.8,1.2l-0.3,-0.2l-3.4,-7.8l1.4,-0.7l-0.1,0.7l-1.3,2.1Z" class="g2_1145" />
<path d="M310.3,228.9l2.4,-0.9l1,1l-0.1,0.3l-0.3,0l-2.4,1Z" class="g2_1145" />
<path fill-rule="evenodd" d="M313,228.6l1.3,-2.1l3.4,7.8l-7,-4.8Z" class="g2_1145" />
<path d="M263.4,168.3L263.2,168l-0.6,0.5l0.2,0.3Z" class="g2_1145" />
<path d="M312.3,227.2l0.2,0.3l-0.6,0.5l-0.1,-0.3Z" class="g2_1145" />
<path d="M263.4,168.3l-0.6,0.5l49,58.9l0.5,-0.5Z" class="g2_1145" />
<path d="M261.5,225.4l-0.7,0.2l0.6,1.5l0.8,-0.1Z" class="g2_1145" />
<path d="M261.3,226.5l1.8,-1.6l1.2,-1.1l0.2,1.6l0.8,8.4l0.2,2.6l-1.6,-2l-5.2,-6.7l-1,-1.3l1.5,-0.1l0.7,0.4l5.2,6.7l-1.2,1l-0.2,-0.5l-0.8,-8.4l1.6,-0.1l-0.3,0.6l-1.8,1.6Z" class="g2_1145" />
<path d="M259.2,226.3l2.6,-0.1l0.5,1.4l-0.2,0.2l-0.3,0.1l-2.6,0.1Z" class="g2_1145" />
<path fill-rule="evenodd" d="M261.8,227.1l1.8,-1.7l0.9,8.4l-5.3,-6.7Z" class="g2_1145" />
<path d="M238.9,168.4l-0.1,-0.3l-0.6,0.3l0,0.3Z" class="g2_1145" />
<path d="M261.5,225.4l0.1,0.3L261,226l-0.1,-0.3Z" class="g2_1145" />
<path d="M238.9,168.4l-0.7,0.3l22.7,57l0.6,-0.3Z" class="g2_1145" />
<path d="M426.1,512.4l220,0l0,-27.5l-220,0l0,27.5Z" class="g1_1145" />
<path d="M426.1,485.3l220.3,0l0,-0.7l-220.3,0l0,0.7Z" class="g2_1145" />
<path d="M645.7,512.8l0.7,0l0,-27.9l-0.7,0l0,27.9Z" class="g2_1145" />
<path d="M425.7,512.8l220.4,0l0,-0.7l-220.4,0l0,0.7Z" class="g2_1145" />
<path d="M425.7,512.4l0.7,0l0,-27.8l-0.7,0l0,27.8Z" class="g2_1145" />
<path d="M480.4,512.8l0.8,0l0,-28.2l-0.8,0l0,28.2Z" class="g2_1145" />
<path d="M535.5,512.8l0.8,0l0,-28.2l-0.8,0l0,28.2Z" class="g2_1145" />
<path d="M590.6,512.8l0.7,0l0,-28.2l-0.7,0l0,28.2Z" class="g2_1145" />
<path d="M618.2,512.8l0.7,0l0,-28.2l-0.7,0l0,28.2Z" class="g2_1145" />
<path d="M508.2,512.8l0.7,0l0,-28.2l-0.7,0l0,28.2Z" class="g2_1145" />
<path d="M563.2,512.8l0.7,0l0,-28.2l-0.7,0l0,28.2Z" class="g2_1145" />
<path d="M453.2,512.8l0.7,0l0,-28.2l-0.7,0l0,28.2Z" class="g2_1145" />
<path d="M473.7,416.5l220,0l0,-27.5l-220,0l0,27.5Z" class="g1_1145" />
<path d="M473.7,389.4l220.4,0l0,-0.7l-220.4,0l0,0.7Z" class="g2_1145" />
<path d="M693.4,416.9l0.7,0l0,-27.9l-0.7,0l0,27.9Z" class="g2_1145" />
<path d="M473.4,416.9l220.3,0l0,-0.7l-220.3,0l0,0.7Z" class="g2_1145" />
<path d="M473.4,416.5l0.7,0l0,-27.8l-0.7,0l0,27.8Z" class="g2_1145" />
<path d="M528.1,416.9l0.7,0l0,-28.2l-0.7,0l0,28.2Z" class="g2_1145" />
<path d="M583.2,416.9l0.7,0l0,-28.2l-0.7,0l0,28.2Z" class="g2_1145" />
<path d="M638.3,416.9l0.7,0l0,-28.2l-0.7,0l0,28.2Z" class="g2_1145" />
<path d="M665.9,416.9l0.7,0l0,-28.2l-0.7,0l0,28.2Z" class="g2_1145" />
<path d="M555.9,416.9l0.7,0l0,-28.2l-0.7,0l0,28.2Z" class="g2_1145" />
<path d="M610.9,416.9l0.7,0l0,-28.2l-0.7,0l0,28.2Z" class="g2_1145" />
<path d="M500.9,416.9l0.7,0l0,-28.2l-0.7,0l0,28.2Z" class="g2_1145" />
<path d="M225.9,416.7l220,0l0,-27.5l-220,0l0,27.5Z" class="g1_1145" />
<path d="M225.9,389.6l220.3,0l0,-0.8l-220.3,0l0,0.8Z" class="g2_1145" />
<path d="M445.5,417.1l0.7,0l0,-27.9l-0.7,0l0,27.9Z" class="g2_1145" />
<path d="M225.5,417.1l220.4,0l0,-0.8l-220.4,0l0,0.8Z" class="g2_1145" />
<path d="M225.5,416.7l0.7,0l0,-27.8l-0.7,0l0,27.8Z" class="g2_1145" />
<path d="M280.2,417.1l0.8,0l0,-28.2l-0.8,0l0,28.2Z" class="g2_1145" />
<path d="M335.3,417.1l0.8,0l0,-28.2l-0.8,0l0,28.2Z" class="g2_1145" />
<path d="M390.4,417.1l0.7,0l0,-28.2l-0.7,0l0,28.2Z" class="g2_1145" />
<path d="M418,417.1l0.7,0l0,-28.2l-0.7,0l0,28.2Z" class="g2_1145" />
<path d="M308,417.1l0.7,0l0,-28.2l-0.7,0l0,28.2Z" class="g2_1145" />
<path d="M363,417.1l0.7,0l0,-28.2l-0.7,0l0,28.2Z" class="g2_1145" />
<path d="M253,417.1l0.7,0l0,-28.2l-0.7,0l0,28.2Z" class="g2_1145" />
<path d="M469.8,473.4l-0.7,-0.2l-0.4,1.6l0.7,0.2Z" class="g2_1145" />
<path d="M469,474.2l2.4,-0.4l1.6,-0.3l-0.8,1.5l-4.1,7.5l-1.2,2.2l-0.1,-2.5l-0.6,-8.6L466,472l1.4,0.9l0.3,0.6l0.5,8.6l-1.4,0.1l0.1,-0.5l4,-7.5l1.3,0.8l-0.6,0.3l-2.5,0.4Z" class="g2_1145" />
<path d="M467.4,472.9l2.1,1.4l-0.3,1.4l-0.3,0l-0.3,-0.1l-2.1,-1.4Z" class="g2_1145" />
<path fill-rule="evenodd" d="M469.1,474.9l2.4,-0.3l-4,7.5l-0.6,-8.6Z" class="g2_1145" />
<path d="M482.2,418.5l0.1,-0.4l-0.8,-0.2l-0.1,0.4Z" class="g2_1145" />
<path d="M469.8,473.4l-0.1,0.3L469,473.5l0.1,-0.3Z" class="g2_1145" />
<path d="M482.2,418.5l-0.8,-0.2l-12.3,54.9l0.7,0.2Z" class="g2_1145" />
<path d="M520.9,473.1l-0.8,0l0.2,1.5l0.7,0Z" class="g2_1145" />
<path d="M520.3,473.9l2.3,-1.1l1.5,-0.6l-0.4,1.5l-1.6,8.5l-0.4,2.6l-1,-2.4l-3.1,-7.9L517,473l1.4,0.4l0.6,0.4l3.1,7.9l-1.4,0.7l0,-0.5l1.5,-8.4l1.5,0.2l-0.4,0.6l-2.3,1.1Z" class="g2_1145" />
<path d="M518.4,473.4l2.4,0.5l0.2,1.5l-0.2,0.1l-0.3,-0.1l-2.4,-0.6Z" class="g2_1145" />
<path fill-rule="evenodd" d="M520.7,474.6l2.3,-1.1l-1.6,8.5l-3.1,-7.9Z" class="g2_1145" />
<path d="M515.2,416.5l0,-0.3l-0.8,0.1l0,0.3Z" class="g2_1145" />
<path d="M520.9,473.1l0,0.4l-0.8,0l0,-0.3Z" class="g2_1145" />
<path d="M515.2,416.5l-0.8,0.1l5.7,56.6l0.8,-0.1Z" class="g2_1145" />
<path d="M581.5,473.7l-0.7,-0.2l-0.5,1.6l0.8,0.2Z" class="g2_1145" />
<path d="M580.7,474.4l4,0l-0.9,1.3l-4.9,6.9l-1.6,2.2l0.1,-2.6l0.5,-8.6l0.1,-1.5l1.2,0.9l0.2,0.7l-0.4,8.6l-1.6,-0.1l0.2,-0.5l4.9,-7l1.3,1l-0.6,0.3l-2.5,0Z" class="g2_1145" />
<path d="M579.1,473l2.1,1.6l-0.5,1.4l-0.3,-0.1l-0.2,-0.1l-2,-1.5Z" class="g2_1145" />
<path fill-rule="evenodd" d="M580.7,475.2l2.5,0l-5,7l0.5,-8.6Z" class="g2_1145" />
<path d="M600.4,419.5l0.1,-0.4l-0.7,-0.3l-0.1,0.4Z" class="g2_1145" />
<path d="M581.5,473.8l-0.1,0.4l-0.7,-0.3l0.1,-0.3Z" class="g2_1145" />
<path d="M600.4,419.5l-0.7,-0.3l-18.9,54.3l0.7,0.3Z" class="g2_1145" />
<path d="M630,473l-0.7,0l0.2,1.6l0.7,0Z" class="g2_1145" />
<path d="M629.5,473.9l2.3,-1l1.4,-0.7l-0.3,1.6l-1.8,8.4l-0.5,2.5l-0.9,-2.3l-3.1,-8l-0.5,-1.5l1.4,0.4l0.6,0.4l3,8l-1.4,0.7l0,-0.5l1.7,-8.3l1.5,0.2l-0.4,0.6l-2.3,1Z" class="g2_1145" />
<path d="M627.5,473.3l2.4,0.6l0.3,1.5l-0.3,0.1l-0.2,-0.1l-2.5,-0.7Z" class="g2_1145" />
<path fill-rule="evenodd" d="M629.8,474.6l2.3,-1l-1.7,8.4l-3,-8Z" class="g2_1145" />
<path d="M626.1,418.4l0,-0.4l-0.8,0.1l0,0.4Z" class="g2_1145" />
<path d="M630,473l0,0.4l-0.7,0.1l0,-0.4Z" class="g2_1145" />
<path d="M626.1,418.4l-0.8,0.1l4,54.6L630,473Z" class="g2_1145" />
<path d="M594,481.1l-0.2,0.7l1.6,0.5l0.2,-0.8Z" class="g2_1145" />
<path d="M594.6,482l-0.1,-2.5l-0.2,-1.6l1.4,0.9l7.3,4.6l2.3,1.4l-2.7,0l-8.5,-0.1l-1.7,-0.1l1,-1.1l0.6,-0.3l8.5,0.1l0.1,1.5l-0.4,-0.2l-7.3,-4.5l0.8,-1.3l0.4,0.5l0.2,2.5Z" class="g2_1145" />
<path d="M593.4,483.5l1.4,-2.1l1.5,0.4l0,0.4l-0.2,0.2l-1.5,2Z" class="g2_1145" />
<path fill-rule="evenodd" d="M595.5,481.9l-0.2,-2.5l7.2,4.6L594,483.9Z" class="g2_1145" />
<path d="M382,418l-0.4,-0.1l-0.2,0.7l0.4,0.1Z" class="g2_1145" />
<path d="M594,481.1l0.4,0.1l-0.2,0.7l-0.4,-0.1Z" class="g2_1145" />
<path d="M382,418l-0.2,0.7l212,63.1l0.2,-0.7Z" class="g2_1145" />
<path d="M537.6,480.6l-0.2,0.7l1.6,0.6l0.2,-0.7Z" class="g2_1145" />
<path d="M538.3,481.5l-0.1,-2.4l-0.1,-1.6l1.4,0.9l7,4.9l2.3,1.5l-2.7,-0.1l-8.6,-0.4L536,484.2l0.9,-1.2l0.7,-0.3l8.6,0.5l-0.1,1.5l-0.4,-0.1l-7.1,-4.9l0.9,-1.3l0.3,0.7l0.1,2.4Z" class="g2_1145" />
<path d="M536.9,483l1.6,-1.9l1.4,0.4l0,0.3l-0.2,0.2l-1.5,1.9Z" class="g2_1145" />
<path fill-rule="evenodd" d="M539.1,481.5L539,479.1l7.1,4.8l-8.6,-0.4Z" class="g2_1145" />
<path d="M351.8,418l-0.4,-0.1l-0.2,0.7l0.3,0.1Z" class="g2_1145" />
<path d="M537.7,480.6l0.4,0.1l-0.3,0.7l-0.4,-0.1Z" class="g2_1145" />
<path d="M351.8,418l-0.3,0.7l185.9,62.6l0.3,-0.7Z" class="g2_1145" />
<path d="M482.7,481.8l-0.2,0.7l1.6,0.5l0.2,-0.7Z" class="g2_1145" />
<path d="M483.4,482.7l-0.2,-2.5L483,478.6l1.5,0.9l7.2,4.6l2.2,1.5l-2.6,0l-8.6,-0.1l-1.6,-0.1l0.9,-1.2l0.6,-0.3l8.6,0.1l0.1,1.6l-0.4,-0.2l-7.3,-4.6l0.9,-1.3l0.3,0.6l0.2,2.4Z" class="g2_1145" />
<path d="M482,484.2l1.5,-2l1.5,0.3l0,0.4l-0.2,0.2l-1.5,2Z" class="g2_1145" />
<path fill-rule="evenodd" d="M484.2,482.6L484,480.2l7.2,4.5l-8.6,-0.1Z" class="g2_1145" />
<path d="M273.8,418l-0.4,-0.1l-0.1,0.7l0.3,0.1Z" class="g2_1145" />
<path d="M482.7,481.8l0.4,0.1l-0.2,0.7l-0.4,-0.1Z" class="g2_1145" />
<path d="M273.8,418l-0.2,0.7l208.9,63.8l0.2,-0.7Z" class="g2_1145" />
<path d="M428,480.6l-0.2,0.7l1.6,0.6l0.2,-0.7Z" class="g2_1145" />
<path d="M428.6,481.5L428.5,479l0,-1.6l1.3,0.9l7.1,5l2.3,1.5l-2.8,-0.1l-8.5,-0.4l-1.6,-0.1l1,-1.2l0.7,-0.3l8.5,0.5l-0.1,1.5l-0.3,-0.1l-7.1,-5l0.8,-1.3l0.4,0.7l0.1,2.5Z" class="g2_1145" />
<path d="M427.3,483l1.5,-1.9l1.5,0.4l0,0.3l-0.2,0.2l-1.6,1.9Z" class="g2_1145" />
<path fill-rule="evenodd" d="M429.5,481.5L429.4,479l7,4.9l-8.5,-0.4Z" class="g2_1145" />
<path d="M240.9,417.1L240.5,417l-0.2,0.7l0.3,0.1Z" class="g2_1145" />
<path d="M428.1,480.6l0.4,0.1l-0.3,0.7l-0.4,-0.1Z" class="g2_1145" />
<path d="M240.9,417.1l-0.3,0.7l187.2,63.5l0.3,-0.7Z" class="g2_1145" />
</svg>