<?xml version="1.0" encoding="UTF-8" standalone="no"?>
<!DOCTYPE svg PUBLIC "-//W3C//DTD SVG 1.1//EN"
"http://www.w3.org/Graphics/SVG/1.1/DTD/svg11.dtd">
<svg viewBox="0 0 935 1210" version="1.1" xmlns="http://www.w3.org/2000/svg" xmlns:xlink="http://www.w3.org/1999/xlink">
<defs>
<style type="text/css"><![CDATA[
.g1_1581{
fill: #FFFFFF;
}
.g2_1581{
}
]]></style>
</defs>
<path d="M68.9,1149.3l686.3,0l0,-21.2l-686.3,0l0,21.2Z" class="g1_1581" />
<path d="M771.3,1149.3l83.7,0l0,-21.2l-83.7,0l0,21.2Z" class="g1_1581" />
<path d="M70.9,195.2l0.7,0l0,-72.6l-0.7,0l0,72.6Z" class="g2_1581" />
<path d="M194.5,196l0.8,0l0,-74.2l-0.8,0l0,74.2Z" class="g2_1581" />
<path d="M347.9,196l0.7,0l0,-74.2l-0.7,0l0,74.2Z" class="g2_1581" />
<path d="M515.4,196l0.8,0l0,-74.2l-0.8,0l0,74.2Z" class="g2_1581" />
<path d="M687.8,196l0.7,0l0,-74.2l-0.7,0l0,74.2Z" class="g2_1581" />
<path d="M851.1,195.2l0.8,0l0,-72.6l-0.8,0l0,72.6Z" class="g2_1581" />
<path d="M70.9,122.6l781.1,0l0,-0.8l-781.1,0l0,0.8Z" class="g2_1581" />
<path d="M70.9,147L852,147l0,-0.7l-781.1,0l0,0.7Z" class="g2_1581" />
<path d="M70.9,171.5l781.1,0l0,-0.7l-781.1,0l0,0.7Z" class="g2_1581" />
<path d="M70.9,195.9l781.1,0l0,-0.7l-781.1,0l0,0.7Z" class="g2_1581" />
</svg>