<?xml version="1.0" encoding="UTF-8" standalone="no"?>
<!DOCTYPE svg PUBLIC "-//W3C//DTD SVG 1.1//EN"
"http://www.w3.org/Graphics/SVG/1.1/DTD/svg11.dtd">
<svg viewBox="0 0 935 1210" version="1.1" xmlns="http://www.w3.org/2000/svg" xmlns:xlink="http://www.w3.org/1999/xlink">
<defs>
<style type="text/css"><![CDATA[
.g1_1368{
fill: #FFFFFF;
}
.g2_1368{
}
]]></style>
</defs>
<path d="M165,1149.3l687.5,0l0,-21.2l-687.5,0l0,21.2Z" class="g1_1368" />
<path d="M68.8,1149.3l82.5,0l0,-21.2l-82.5,0l0,21.2Z" class="g1_1368" />
<path d="M68.6,1032.4l0.7,0l0,-906.7l-0.7,0l0,906.7Z" class="g2_1368" />
<path d="M318,1033.2l0.7,0l0,-908.3l-0.7,0l0,908.3Z" class="g2_1368" />
<path d="M362.2,1033.2l0.7,0l0,-908.3l-0.7,0l0,908.3Z" class="g2_1368" />
<path d="M433,1033.2l0.8,0l0,-908.3l-0.8,0l0,908.3Z" class="g2_1368" />
<path d="M518.7,1033.2l0.8,0l0,-908.3l-0.8,0l0,908.3Z" class="g2_1368" />
<path d="M851.8,1032.4l0.7,0l0,-906.7l-0.7,0l0,906.7Z" class="g2_1368" />
<path d="M68.6,125.7l784,0l0,-0.8l-784,0l0,0.8Z" class="g2_1368" />
<path d="M68.6,191.3l784,0l0,-0.7l-784,0l0,0.7Z" class="g2_1368" />
<path d="M68.6,228l784,0l0,-0.8l-784,0l0,0.8Z" class="g2_1368" />
<path d="M68.6,264.6l784,0l0,-0.7l-784,0l0,0.7Z" class="g2_1368" />
<path d="M68.6,301.3l784,0l0,-0.7l-784,0l0,0.7Z" class="g2_1368" />
<path d="M68.6,338l784,0l0,-0.8l-784,0l0,0.8Z" class="g2_1368" />
<path d="M68.6,391.5l784,0l0,-0.7l-784,0l0,0.7Z" class="g2_1368" />
<path d="M68.6,444.9l784,0l0,-0.7l-784,0l0,0.7Z" class="g2_1368" />
<path d="M68.6,498.5l784,0l0,-0.8l-784,0l0,0.8Z" class="g2_1368" />
<path d="M68.6,551.9l784,0l0,-0.7l-784,0l0,0.7Z" class="g2_1368" />
<path d="M68.6,605.4l784,0l0,-0.8l-784,0l0,0.8Z" class="g2_1368" />
<path d="M68.6,658.9l784,0l0,-0.7l-784,0l0,0.7Z" class="g2_1368" />
<path d="M68.6,712.3l784,0l0,-0.7l-784,0l0,0.7Z" class="g2_1368" />
<path d="M68.6,765.8l784,0l0,-0.7l-784,0l0,0.7Z" class="g2_1368" />
<path d="M68.6,819.3l784,0l0,-0.7l-784,0l0,0.7Z" class="g2_1368" />
<path d="M68.6,872.8l784,0l0,-0.8l-784,0l0,0.8Z" class="g2_1368" />
<path d="M68.6,926.2l784,0l0,-0.7l-784,0l0,0.7Z" class="g2_1368" />
<path d="M68.6,979.7l784,0l0,-0.7l-784,0l0,0.7Z" class="g2_1368" />
<path d="M68.6,1033.2l784,0l0,-0.8l-784,0l0,0.8Z" class="g2_1368" />
</svg>