<?xml version="1.0" encoding="UTF-8" standalone="no"?>
<!DOCTYPE svg PUBLIC "-//W3C//DTD SVG 1.1//EN"
"http://www.w3.org/Graphics/SVG/1.1/DTD/svg11.dtd">
<svg viewBox="0 0 935 1210" version="1.1" xmlns="http://www.w3.org/2000/svg" xmlns:xlink="http://www.w3.org/1999/xlink">
<defs>
<style type="text/css"><![CDATA[
.g1_1942{
fill: #FFFFFF;
}
.g2_1942{
}
]]></style>
</defs>
<path d="M165,1149.3l687.5,0l0,-21.2l-687.5,0l0,21.2Z" class="g1_1942" />
<path d="M68.8,1149.3l82.5,0l0,-21.2l-82.5,0l0,21.2Z" class="g1_1942" />
<path d="M70.7,603.1l0.7,0l0,-471.3l-0.7,0l0,471.3Z" class="g2_1942" />
<path d="M221.4,603.9l0.7,0l0,-472.9l-0.7,0l0,472.9Z" class="g2_1942" />
<path d="M392.2,603.9l0.8,0L393,131l-0.8,0l0,472.9Z" class="g2_1942" />
<path d="M430.1,603.9l0.7,0l0,-472.9l-0.7,0l0,472.9Z" class="g2_1942" />
<path d="M503.4,603.9l0.8,0l0,-472.9l-0.8,0l0,472.9Z" class="g2_1942" />
<path d="M574.8,603.9l0.8,0l0,-472.9l-0.8,0l0,472.9Z" class="g2_1942" />
<path d="M849.8,603.1l0.7,0l0,-471.3l-0.7,0l0,471.3Z" class="g2_1942" />
<path d="M70.7,131.7l779.8,0l0,-0.7L70.7,131l0,0.7Z" class="g2_1942" />
<path d="M70.7,169.9l779.8,0l0,-0.7l-779.8,0l0,0.7Z" class="g2_1942" />
<path d="M70.7,192.9l779.8,0l0,-0.8l-779.8,0l0,0.8Z" class="g2_1942" />
<path d="M70.7,215.8l779.8,0l0,-0.8L70.7,215l0,0.8Z" class="g2_1942" />
<path d="M70.7,238.7l779.8,0l0,-0.7L70.7,238l0,0.7Z" class="g2_1942" />
<path d="M70.7,261.6l779.8,0l0,-0.7l-779.8,0l0,0.7Z" class="g2_1942" />
<path d="M70.7,284.5l779.8,0l0,-0.7l-779.8,0l0,0.7Z" class="g2_1942" />
<path d="M70.7,307.4l779.8,0l0,-0.7l-779.8,0l0,0.7Z" class="g2_1942" />
<path d="M70.7,347.1l779.8,0l0,-0.7l-779.8,0l0,0.7Z" class="g2_1942" />
<path d="M70.7,386.9l779.8,0l0,-0.7l-779.8,0l0,0.7Z" class="g2_1942" />
<path d="M70.7,426.6l779.8,0l0,-0.7l-779.8,0l0,0.7Z" class="g2_1942" />
<path d="M70.7,466.4l779.8,0l0,-0.7l-779.8,0l0,0.7Z" class="g2_1942" />
<path d="M70.7,489.3l779.8,0l0,-0.7l-779.8,0l0,0.7Z" class="g2_1942" />
<path d="M70.7,512.2l779.8,0l0,-0.7l-779.8,0l0,0.7Z" class="g2_1942" />
<path d="M70.7,535.2l779.8,0l0,-0.8l-779.8,0l0,0.8Z" class="g2_1942" />
<path d="M70.7,558.1l779.8,0l0,-0.8l-779.8,0l0,0.8Z" class="g2_1942" />
<path d="M70.7,581l779.8,0l0,-0.8l-779.8,0l0,0.8Z" class="g2_1942" />
<path d="M70.7,603.9l779.8,0l0,-0.7l-779.8,0l0,0.7Z" class="g2_1942" />
<path d="M70.9,820l0.7,0l0,-121.4l-0.7,0l0,121.4Z" class="g2_1942" />
<path d="M143.8,820.9l0.8,0l0,-123l-0.8,0l0,123Z" class="g2_1942" />
<path d="M321.4,820.9l0.7,0l0,-123l-0.7,0l0,123Z" class="g2_1942" />
<path d="M499.7,820.9l0.7,0l0,-123l-0.7,0l0,123Z" class="g2_1942" />
<path d="M670.2,820.9l0.7,0l0,-123l-0.7,0l0,123Z" class="g2_1942" />
<path d="M849.6,820l0.7,0l0,-121.4l-0.7,0l0,121.4Z" class="g2_1942" />
<path d="M70.8,698.6l779.5,0l0,-0.7l-779.5,0l0,0.7Z" class="g2_1942" />
<path d="M70.8,723.1l779.5,0l0,-0.8l-779.5,0l0,0.8Z" class="g2_1942" />
<path d="M70.8,747.4l779.5,0l0,-0.7l-779.5,0l0,0.7Z" class="g2_1942" />
<path d="M70.8,771.9l779.5,0l0,-0.7l-779.5,0l0,0.7Z" class="g2_1942" />
<path d="M70.8,796.4l779.5,0l0,-0.7l-779.5,0l0,0.7Z" class="g2_1942" />
<path d="M70.8,820.8l779.5,0l0,-0.7l-779.5,0l0,0.7Z" class="g2_1942" />
</svg>