<?xml version="1.0" encoding="UTF-8" standalone="no"?>
<!DOCTYPE svg PUBLIC "-//W3C//DTD SVG 1.1//EN"
"http://www.w3.org/Graphics/SVG/1.1/DTD/svg11.dtd">
<svg viewBox="0 0 935 1210" version="1.1" xmlns="http://www.w3.org/2000/svg" xmlns:xlink="http://www.w3.org/1999/xlink">
<defs>
<style type="text/css"><![CDATA[
.g1_1266{
fill: #FFFFFF;
}
.g2_1266{
}
]]></style>
</defs>
<path d="M165,1149.3l687.5,0l0,-21.2l-687.5,0l0,21.2Z" class="g1_1266" />
<path d="M68.8,1149.3l82.5,0l0,-21.2l-82.5,0l0,21.2Z" class="g1_1266" />
<path d="M70.1,401.4l0.8,0l0,-275.7l-0.8,0l0,275.7Z" class="g2_1266" />
<path d="M220.3,402.2l0.7,0l0,-277.3l-0.7,0l0,277.3Z" class="g2_1266" />
<path d="M390.5,402.2l0.7,0l0,-277.3l-0.7,0l0,277.3Z" class="g2_1266" />
<path d="M428.4,402.2l0.7,0l0,-277.3l-0.7,0l0,277.3Z" class="g2_1266" />
<path d="M501.8,402.2l0.7,0l0,-277.3l-0.7,0l0,277.3Z" class="g2_1266" />
<path d="M573.1,402.2l0.7,0l0,-277.3l-0.7,0l0,277.3Z" class="g2_1266" />
<path d="M850.3,401.4l0.7,0l0,-275.7l-0.7,0l0,275.7Z" class="g2_1266" />
<path d="M70.1,125.7l780.9,0l0,-0.8l-780.9,0l0,0.8Z" class="g2_1266" />
<path d="M70.1,163.8l780.9,0l0,-0.7l-780.9,0l0,0.7Z" class="g2_1266" />
<path d="M70.1,203.6l780.9,0l0,-0.7l-780.9,0l0,0.7Z" class="g2_1266" />
<path d="M70.1,243.3l780.9,0l0,-0.7l-780.9,0l0,0.7Z" class="g2_1266" />
<path d="M70.1,283L851,283l0,-0.8l-780.9,0l0,0.8Z" class="g2_1266" />
<path d="M70.1,322.8l780.9,0l0,-0.8L70.1,322l0,0.8Z" class="g2_1266" />
<path d="M70.1,362.4l780.9,0l0,-0.7l-780.9,0l0,0.7Z" class="g2_1266" />
<path d="M70.1,402.2l780.9,0l0,-0.7l-780.9,0l0,0.7Z" class="g2_1266" />
<path d="M70.2,529.7l0.8,0l0,-72.5l-0.8,0l0,72.5Z" class="g2_1266" />
<path d="M137.8,530.6l0.7,0l0,-74.2l-0.7,0l0,74.2Z" class="g2_1266" />
<path d="M311,530.6l0.8,0l0,-74.2l-0.8,0l0,74.2Z" class="g2_1266" />
<path d="M487.5,530.6l0.7,0l0,-74.2l-0.7,0l0,74.2Z" class="g2_1266" />
<path d="M666.8,530.6l0.7,0l0,-74.2l-0.7,0l0,74.2Z" class="g2_1266" />
<path d="M850.1,529.7l0.7,0l0,-72.5l-0.7,0l0,72.5Z" class="g2_1266" />
<path d="M70.2,457.2l780.7,0l0,-0.7l-780.7,0l0,0.7Z" class="g2_1266" />
<path d="M70.2,481.6l780.7,0l0,-0.7l-780.7,0l0,0.7Z" class="g2_1266" />
<path d="M70.2,506.1l780.7,0l0,-0.7l-780.7,0l0,0.7Z" class="g2_1266" />
<path d="M70.2,530.6l780.7,0l0,-0.8l-780.7,0l0,0.8Z" class="g2_1266" />
</svg>