<?xml version="1.0" encoding="UTF-8" standalone="no"?>
<!DOCTYPE svg PUBLIC "-//W3C//DTD SVG 1.1//EN"
"http://www.w3.org/Graphics/SVG/1.1/DTD/svg11.dtd">
<svg viewBox="0 0 935 1210" version="1.1" xmlns="http://www.w3.org/2000/svg" xmlns:xlink="http://www.w3.org/1999/xlink">
<defs>
<style type="text/css"><![CDATA[
.g1_348{
fill: #FFFFFF;
}
.g2_348{
}
]]></style>
</defs>
<path d="M165,1149.3l687.5,0l0,-21.2l-687.5,0l0,21.2Z" class="g1_348" />
<path d="M68.8,1149.3l82.5,0l0,-21.2l-82.5,0l0,21.2Z" class="g1_348" />
<path d="M68.6,534.3l0.7,0L69.3,147l-0.7,0l0,387.3Z" class="g2_348" />
<path d="M295.2,535.2l0.7,0l0,-388.9l-0.7,0l0,388.9Z" class="g2_348" />
<path d="M341,535.2l0.7,0l0,-388.9l-0.7,0l0,388.9Z" class="g2_348" />
<path d="M415.5,535.2l0.8,0l0,-388.9l-0.8,0l0,388.9Z" class="g2_348" />
<path d="M499.4,535.2l0.7,0l0,-388.9l-0.7,0l0,388.9Z" class="g2_348" />
<path d="M853.5,534.3l0.7,0l0,-387.3l-0.7,0l0,387.3Z" class="g2_348" />
<path d="M68.6,147l785.6,0l0,-0.7l-785.6,0l0,0.7Z" class="g2_348" />
<path d="M68.6,197.4l785.6,0l0,-0.7l-785.6,0l0,0.7Z" class="g2_348" />
<path d="M68.6,250.9l785.6,0l0,-0.7l-785.6,0l0,0.7Z" class="g2_348" />
<path d="M68.6,304.4l785.6,0l0,-0.7l-785.6,0l0,0.7Z" class="g2_348" />
<path d="M68.6,357.9l785.6,0l0,-0.8l-785.6,0l0,0.8Z" class="g2_348" />
<path d="M68.6,411.4l785.6,0l0,-0.7l-785.6,0l0,0.7Z" class="g2_348" />
<path d="M68.6,464.8l785.6,0l0,-0.7l-785.6,0l0,0.7Z" class="g2_348" />
<path d="M68.6,535.2l785.6,0l0,-0.8l-785.6,0l0,0.8Z" class="g2_348" />
<path d="M68.9,662.7l0.8,0l0,-72.5l-0.8,0l0,72.5Z" class="g2_348" />
<path d="M173.7,663.5l0.7,0l0,-74.2l-0.7,0l0,74.2Z" class="g2_348" />
<path d="M341,663.5l0.7,0l0,-74.2l-0.7,0l0,74.2Z" class="g2_348" />
<path d="M515.2,663.5l0.7,0l0,-74.2l-0.7,0l0,74.2Z" class="g2_348" />
<path d="M680,663.5l0.7,0l0,-74.2l-0.7,0l0,74.2Z" class="g2_348" />
<path d="M851.5,662.7l0.7,0l0,-72.5l-0.7,0l0,72.5Z" class="g2_348" />
<path d="M68.9,590.2l783.3,0l0,-0.8l-783.3,0l0,0.8Z" class="g2_348" />
<path d="M68.9,614.5l783.3,0l0,-0.7l-783.3,0l0,0.7Z" class="g2_348" />
<path d="M68.9,639l783.3,0l0,-0.7l-783.3,0l0,0.7Z" class="g2_348" />
<path d="M68.9,663.5l783.3,0l0,-0.7l-783.3,0l0,0.7Z" class="g2_348" />
</svg>