<?xml version="1.0" encoding="UTF-8" standalone="no"?>
<!DOCTYPE svg PUBLIC "-//W3C//DTD SVG 1.1//EN"
"http://www.w3.org/Graphics/SVG/1.1/DTD/svg11.dtd">
<svg viewBox="0 0 935 1210" version="1.1" xmlns="http://www.w3.org/2000/svg" xmlns:xlink="http://www.w3.org/1999/xlink">
<defs>
<style type="text/css"><![CDATA[
.g1_1320{
fill: #FFFFFF;
}
.g2_1320{
}
]]></style>
</defs>
<path d="M165,1149.3l687.5,0l0,-21.2l-687.5,0l0,21.2Z" class="g1_1320" />
<path d="M68.8,1149.3l82.5,0l0,-21.2l-82.5,0l0,21.2Z" class="g1_1320" />
<path d="M70.7,202.9l0.7,0l0,-77.2l-0.7,0l0,77.2Z" class="g2_1320" />
<path d="M220.3,203.6l0.7,0l0,-78.7l-0.7,0l0,78.7Z" class="g2_1320" />
<path d="M390,203.6l0.7,0l0,-78.7l-0.7,0l0,78.7Z" class="g2_1320" />
<path d="M427.8,203.6l0.7,0l0,-78.7l-0.7,0l0,78.7Z" class="g2_1320" />
<path d="M501.1,203.6l0.8,0l0,-78.7l-0.8,0l0,78.7Z" class="g2_1320" />
<path d="M572.6,203.6l0.7,0l0,-78.7l-0.7,0l0,78.7Z" class="g2_1320" />
<path d="M849.8,202.9l0.7,0l0,-77.2l-0.7,0l0,77.2Z" class="g2_1320" />
<path d="M70.7,125.7l779.8,0l0,-0.8l-779.8,0l0,0.8Z" class="g2_1320" />
<path d="M70.7,163.8l779.8,0l0,-0.7l-779.8,0l0,0.7Z" class="g2_1320" />
<path d="M70.7,203.6l779.8,0l0,-0.7l-779.8,0l0,0.7Z" class="g2_1320" />
<path d="M70.9,306.7l0.7,0l0,-48.1l-0.7,0l0,48.1Z" class="g2_1320" />
<path d="M136.4,307.4l0.7,0l0,-49.5l-0.7,0l0,49.5Z" class="g2_1320" />
<path d="M315.4,307.4l0.8,0l0,-49.5l-0.8,0l0,49.5Z" class="g2_1320" />
<path d="M493,307.4l0.7,0l0,-49.5l-0.7,0l0,49.5Z" class="g2_1320" />
<path d="M668.6,307.4l0.8,0l0,-49.5l-0.8,0l0,49.5Z" class="g2_1320" />
<path d="M849.6,306.7l0.7,0l0,-48.1l-0.7,0l0,48.1Z" class="g2_1320" />
<path d="M70.8,258.6l779.5,0l0,-0.7l-779.5,0l0,0.7Z" class="g2_1320" />
<path d="M70.8,283l779.5,0l0,-0.8l-779.5,0l0,0.8Z" class="g2_1320" />
<path d="M70.8,307.4l779.5,0l0,-0.7l-779.5,0l0,0.7Z" class="g2_1320" />
</svg>