<?xml version="1.0" encoding="UTF-8" standalone="no"?>
<!DOCTYPE svg PUBLIC "-//W3C//DTD SVG 1.1//EN"
"http://www.w3.org/Graphics/SVG/1.1/DTD/svg11.dtd">
<svg viewBox="0 0 935 1210" version="1.1" xmlns="http://www.w3.org/2000/svg" xmlns:xlink="http://www.w3.org/1999/xlink">
<defs>
<style type="text/css"><![CDATA[
.g1_2121{
fill: #FFFFFF;
}
.g2_2121{
}
]]></style>
</defs>
<path d="M68.9,1149.3l783.8,0l0,-21.2l-783.8,0l0,21.2Z" class="g1_2121" />
<path d="M69.9,1082.9l0.8,0l0,-958.8l-0.8,0l0,958.8Z" class="g2_2121" />
<path d="M447.1,1083.6l0.7,0l0,-960.2l-0.7,0l0,960.2Z" class="g2_2121" />
<path d="M851.3,1082.9l0.7,0l0,-958.8l-0.7,0l0,958.8Z" class="g2_2121" />
<path d="M69.9,124.1l782.1,0l0,-0.7l-782.1,0l0,0.7Z" class="g2_2121" />
<path d="M69.9,148.6l782.1,0l0,-0.7l-782.1,0l0,0.7Z" class="g2_2121" />
<path d="M69.9,189.8l782.1,0l0,-0.7l-782.1,0l0,0.7Z" class="g2_2121" />
<path d="M69.9,214.2l782.1,0l0,-0.7l-782.1,0l0,0.7Z" class="g2_2121" />
<path d="M69.9,255.5l782.1,0l0,-0.8l-782.1,0l0,0.8Z" class="g2_2121" />
<path d="M69.9,296.7l782.1,0l0,-0.7L69.9,296l0,0.7Z" class="g2_2121" />
<path d="M69.9,321.2l782.1,0l0,-0.7l-782.1,0l0,0.7Z" class="g2_2121" />
<path d="M69.9,362.4l782.1,0l0,-0.7l-782.1,0l0,0.7Z" class="g2_2121" />
<path d="M69.9,386.9l782.1,0l0,-0.7l-782.1,0l0,0.7Z" class="g2_2121" />
<path d="M69.9,411.4l782.1,0l0,-0.7l-782.1,0l0,0.7Z" class="g2_2121" />
<path d="M69.9,452.7l782.1,0l0,-0.8l-782.1,0l0,0.8Z" class="g2_2121" />
<path d="M69.9,477L852,477l0,-0.7l-782.1,0l0,0.7Z" class="g2_2121" />
<path d="M69.9,501.5l782.1,0l0,-0.7l-782.1,0l0,0.7Z" class="g2_2121" />
<path d="M69.9,542.8l782.1,0l0,-0.8L69.9,542l0,0.8Z" class="g2_2121" />
<path d="M69.9,567.2l782.1,0l0,-0.7l-782.1,0l0,0.7Z" class="g2_2121" />
<path d="M69.9,591.6l782.1,0l0,-0.7l-782.1,0l0,0.7Z" class="g2_2121" />
<path d="M69.9,632.9l782.1,0l0,-0.8l-782.1,0l0,0.8Z" class="g2_2121" />
<path d="M69.9,657.3l782.1,0l0,-0.7l-782.1,0l0,0.7Z" class="g2_2121" />
<path d="M69.9,681.8l782.1,0l0,-0.7l-782.1,0l0,0.7Z" class="g2_2121" />
<path d="M69.9,723.1l782.1,0l0,-0.8l-782.1,0l0,0.8Z" class="g2_2121" />
<path d="M69.9,747.4l782.1,0l0,-0.7l-782.1,0l0,0.7Z" class="g2_2121" />
<path d="M69.9,771.9l782.1,0l0,-0.7l-782.1,0l0,0.7Z" class="g2_2121" />
<path d="M69.9,813.2l782.1,0l0,-0.8l-782.1,0l0,0.8Z" class="g2_2121" />
<path d="M69.9,837.7l782.1,0l0,-0.8l-782.1,0l0,0.8Z" class="g2_2121" />
<path d="M69.9,862L852,862l0,-0.7l-782.1,0l0,0.7Z" class="g2_2121" />
<path d="M69.9,903.3l782.1,0l0,-0.7l-782.1,0l0,0.7Z" class="g2_2121" />
<path d="M69.9,927.8l782.1,0l0,-0.8L69.9,927l0,0.8Z" class="g2_2121" />
<path d="M69.9,952.2l782.1,0l0,-0.7l-782.1,0l0,0.7Z" class="g2_2121" />
<path d="M69.9,993.5l782.1,0l0,-0.7l-782.1,0l0,0.7Z" class="g2_2121" />
<path d="M69.9,1017.9l782.1,0l0,-0.8l-782.1,0l0,0.8Z" class="g2_2121" />
<path d="M69.9,1042.3l782.1,0l0,-0.7l-782.1,0l0,0.7Z" class="g2_2121" />
<path d="M69.9,1083.6l782.1,0l0,-0.7l-782.1,0l0,0.7Z" class="g2_2121" />
</svg>