<?xml version="1.0" encoding="UTF-8" standalone="no"?>
<!DOCTYPE svg PUBLIC "-//W3C//DTD SVG 1.1//EN"
"http://www.w3.org/Graphics/SVG/1.1/DTD/svg11.dtd">
<svg viewBox="0 0 935 1210" version="1.1" xmlns="http://www.w3.org/2000/svg" xmlns:xlink="http://www.w3.org/1999/xlink">
<defs>
<style type="text/css"><![CDATA[
.g1_2080{
fill: #FFFFFF;
}
.g2_2080{
}
]]></style>
</defs>
<path d="M68.8,1149.3l783.7,0l0,-21.2l-783.7,0l0,21.2Z" class="g1_2080" />
<path d="M68.6,1092l0.7,0l0,-967.9l-0.7,0l0,967.9Z" class="g2_2080" />
<path d="M467.6,1092.8l0.7,0l0,-969.4l-0.7,0l0,969.4Z" class="g2_2080" />
<path d="M851.1,1092l0.8,0l0,-967.9l-0.8,0l0,967.9Z" class="g2_2080" />
<path d="M68.6,124.1l783.4,0l0,-0.7l-783.4,0l0,0.7Z" class="g2_2080" />
<path d="M68.6,148.6l783.4,0l0,-0.7l-783.4,0l0,0.7Z" class="g2_2080" />
<path d="M68.6,173L852,173l0,-0.8l-783.4,0l0,0.8Z" class="g2_2080" />
<path d="M68.6,197.4l783.4,0l0,-0.7l-783.4,0l0,0.7Z" class="g2_2080" />
<path d="M68.6,221.9l783.4,0l0,-0.7l-783.4,0l0,0.7Z" class="g2_2080" />
<path d="M68.6,246.3l783.4,0l0,-0.7l-783.4,0l0,0.7Z" class="g2_2080" />
<path d="M68.6,270.8l783.4,0l0,-0.7l-783.4,0l0,0.7Z" class="g2_2080" />
<path d="M68.6,295.3l783.4,0l0,-0.8l-783.4,0l0,0.8Z" class="g2_2080" />
<path d="M68.6,319.6l783.4,0l0,-0.7l-783.4,0l0,0.7Z" class="g2_2080" />
<path d="M68.6,344.1l783.4,0l0,-0.7l-783.4,0l0,0.7Z" class="g2_2080" />
<path d="M68.6,368.6l783.4,0l0,-0.7l-783.4,0l0,0.7Z" class="g2_2080" />
<path d="M68.6,393L852,393l0,-0.8l-783.4,0l0,0.8Z" class="g2_2080" />
<path d="M68.6,417.4l783.4,0l0,-0.7l-783.4,0l0,0.7Z" class="g2_2080" />
<path d="M68.6,441.9l783.4,0l0,-0.7l-783.4,0l0,0.7Z" class="g2_2080" />
<path d="M68.6,466.4l783.4,0l0,-0.7l-783.4,0l0,0.7Z" class="g2_2080" />
<path d="M68.6,490.8l783.4,0l0,-0.8L68.6,490l0,0.8Z" class="g2_2080" />
<path d="M68.6,515.3l783.4,0l0,-0.8l-783.4,0l0,0.8Z" class="g2_2080" />
<path d="M68.6,554.9l783.4,0l0,-0.7l-783.4,0l0,0.7Z" class="g2_2080" />
<path d="M68.6,579.4l783.4,0l0,-0.7l-783.4,0l0,0.7Z" class="g2_2080" />
<path d="M68.6,603.9l783.4,0l0,-0.7l-783.4,0l0,0.7Z" class="g2_2080" />
<path d="M68.6,628.3l783.4,0l0,-0.7l-783.4,0l0,0.7Z" class="g2_2080" />
<path d="M68.6,652.8l783.4,0l0,-0.8L68.6,652l0,0.8Z" class="g2_2080" />
<path d="M68.6,677.2l783.4,0l0,-0.7l-783.4,0l0,0.7Z" class="g2_2080" />
<path d="M68.6,701.6l783.4,0l0,-0.7l-783.4,0l0,0.7Z" class="g2_2080" />
<path d="M68.6,726.1l783.4,0l0,-0.7l-783.4,0l0,0.7Z" class="g2_2080" />
<path d="M68.6,750.6l783.4,0l0,-0.8l-783.4,0l0,0.8Z" class="g2_2080" />
<path d="M68.6,774.9l783.4,0l0,-0.7l-783.4,0l0,0.7Z" class="g2_2080" />
<path d="M68.6,799.4l783.4,0l0,-0.7l-783.4,0l0,0.7Z" class="g2_2080" />
<path d="M68.6,823.9l783.4,0l0,-0.7l-783.4,0l0,0.7Z" class="g2_2080" />
<path d="M68.6,848.3l783.4,0l0,-0.7l-783.4,0l0,0.7Z" class="g2_2080" />
<path d="M68.6,872.8l783.4,0l0,-0.8L68.6,872l0,0.8Z" class="g2_2080" />
<path d="M68.6,897.2l783.4,0l0,-0.7l-783.4,0l0,0.7Z" class="g2_2080" />
<path d="M68.6,921.6l783.4,0l0,-0.7l-783.4,0l0,0.7Z" class="g2_2080" />
<path d="M68.6,946.1l783.4,0l0,-0.7l-783.4,0l0,0.7Z" class="g2_2080" />
<path d="M68.6,970.6l783.4,0l0,-0.8l-783.4,0l0,0.8Z" class="g2_2080" />
<path d="M68.6,995L852,995l0,-0.8l-783.4,0l0,0.8Z" class="g2_2080" />
<path d="M68.6,1019.4l783.4,0l0,-0.7l-783.4,0l0,0.7Z" class="g2_2080" />
<path d="M68.6,1043.9l783.4,0l0,-0.7l-783.4,0l0,0.7Z" class="g2_2080" />
<path d="M68.6,1068.3l783.4,0l0,-0.8l-783.4,0l0,0.8Z" class="g2_2080" />
<path d="M68.6,1092.8l783.4,0l0,-0.8l-783.4,0l0,0.8Z" class="g2_2080" />
</svg>