<?xml version="1.0" encoding="UTF-8" standalone="no"?>
<!DOCTYPE svg PUBLIC "-//W3C//DTD SVG 1.1//EN"
"http://www.w3.org/Graphics/SVG/1.1/DTD/svg11.dtd">
<svg viewBox="0 0 935 1210" version="1.1" xmlns="http://www.w3.org/2000/svg" xmlns:xlink="http://www.w3.org/1999/xlink">
<defs>
<style type="text/css"><![CDATA[
.g1_856{
fill: #FFFFFF;
}
.g2_856{
}
]]></style>
</defs>
<path d="M165,1149.3l687.5,0l0,-21.2l-687.5,0l0,21.2Z" class="g1_856" />
<path d="M68.8,1149.3l82.5,0l0,-21.2l-82.5,0l0,21.2Z" class="g1_856" />
<path d="M68.6,1072.1l0.7,0l0,-946.4l-0.7,0l0,946.4Z" class="g2_856" />
<path d="M314,1073l0.8,0l0,-948.1l-0.8,0l0,948.1Z" class="g2_856" />
<path d="M359.9,1073l0.7,0l0,-948.1l-0.7,0l0,948.1Z" class="g2_856" />
<path d="M432.1,1073l0.8,0l0,-948.1l-0.8,0l0,948.1Z" class="g2_856" />
<path d="M522,1073l0.7,0l0,-948.1l-0.7,0l0,948.1Z" class="g2_856" />
<path d="M852.3,1072.1l0.8,0l0,-946.4l-0.8,0l0,946.4Z" class="g2_856" />
<path d="M68.6,125.7l784.4,0l0,-0.8l-784.4,0l0,0.8Z" class="g2_856" />
<path d="M68.6,176.1l784.4,0l0,-0.7l-784.4,0l0,0.7Z" class="g2_856" />
<path d="M68.6,217.3l784.4,0l0,-0.7l-784.4,0l0,0.7Z" class="g2_856" />
<path d="M68.6,258.6l784.4,0l0,-0.7l-784.4,0l0,0.7Z" class="g2_856" />
<path d="M68.6,295.3l784.4,0l0,-0.8l-784.4,0l0,0.8Z" class="g2_856" />
<path d="M68.6,331.9l784.4,0l0,-0.7l-784.4,0l0,0.7Z" class="g2_856" />
<path d="M68.6,368.6l784.4,0l0,-0.7l-784.4,0l0,0.7Z" class="g2_856" />
<path d="M68.6,405.3l784.4,0l0,-0.8l-784.4,0l0,0.8Z" class="g2_856" />
<path d="M68.6,441.9l784.4,0l0,-0.7l-784.4,0l0,0.7Z" class="g2_856" />
<path d="M68.6,478.6l784.4,0l0,-0.7l-784.4,0l0,0.7Z" class="g2_856" />
<path d="M68.6,515.3l784.4,0l0,-0.8l-784.4,0l0,0.8Z" class="g2_856" />
<path d="M68.6,551.9l784.4,0l0,-0.7l-784.4,0l0,0.7Z" class="g2_856" />
<path d="M68.6,588.6l784.4,0l0,-0.7l-784.4,0l0,0.7Z" class="g2_856" />
<path d="M68.6,625.3l784.4,0l0,-0.8l-784.4,0l0,0.8Z" class="g2_856" />
<path d="M68.6,661.9l784.4,0l0,-0.7l-784.4,0l0,0.7Z" class="g2_856" />
<path d="M68.6,698.6l784.4,0l0,-0.7l-784.4,0l0,0.7Z" class="g2_856" />
<path d="M68.6,752L853,752l0,-0.7l-784.4,0l0,0.7Z" class="g2_856" />
<path d="M68.6,805.6l784.4,0l0,-0.8l-784.4,0l0,0.8Z" class="g2_856" />
<path d="M68.6,859L853,859l0,-0.7l-784.4,0l0,0.7Z" class="g2_856" />
<path d="M68.6,912.5l784.4,0l0,-0.8l-784.4,0l0,0.8Z" class="g2_856" />
<path d="M68.6,966L853,966l0,-0.7l-784.4,0l0,0.7Z" class="g2_856" />
<path d="M68.6,1019.4l784.4,0l0,-0.7l-784.4,0l0,0.7Z" class="g2_856" />
<path d="M68.6,1072.9l784.4,0l0,-0.8l-784.4,0l0,0.8Z" class="g2_856" />
</svg>