<?xml version="1.0" encoding="UTF-8" standalone="no"?>
<!DOCTYPE svg PUBLIC "-//W3C//DTD SVG 1.1//EN"
"http://www.w3.org/Graphics/SVG/1.1/DTD/svg11.dtd">
<svg viewBox="0 0 935 1210" version="1.1" xmlns="http://www.w3.org/2000/svg" xmlns:xlink="http://www.w3.org/1999/xlink">
<defs>
<style type="text/css"><![CDATA[
.g1_2163{
fill: #FFFFFF;
}
.g2_2163{
}
]]></style>
</defs>
<path d="M68.9,1149.3l783.8,0l0,-21.2l-783.8,0l0,21.2Z" class="g1_2163" />
<path d="M69.9,1085.9l0.8,0l0,-978.6l-0.8,0l0,978.6Z" class="g2_2163" />
<path d="M445.2,1086.7l0.8,0l0,-980.1l-0.8,0l0,980.1Z" class="g2_2163" />
<path d="M851.3,1085.9l0.7,0l0,-978.6l-0.7,0l0,978.6Z" class="g2_2163" />
<path d="M69.9,107.3l782.1,0l0,-0.7l-782.1,0l0,0.7Z" class="g2_2163" />
<path d="M69.9,131.7l782.1,0l0,-0.7L69.9,131l0,0.7Z" class="g2_2163" />
<path d="M69.9,156.2l782.1,0l0,-0.7l-782.1,0l0,0.7Z" class="g2_2163" />
<path d="M69.9,180.7l782.1,0l0,-0.8l-782.1,0l0,0.8Z" class="g2_2163" />
<path d="M69.9,205.1l782.1,0l0,-0.8l-782.1,0l0,0.8Z" class="g2_2163" />
<path d="M69.9,229.5l782.1,0l0,-0.7l-782.1,0l0,0.7Z" class="g2_2163" />
<path d="M69.9,270.8l782.1,0l0,-0.7l-782.1,0l0,0.7Z" class="g2_2163" />
<path d="M69.9,295.3l782.1,0l0,-0.8l-782.1,0l0,0.8Z" class="g2_2163" />
<path d="M69.9,319.6l782.1,0l0,-0.7l-782.1,0l0,0.7Z" class="g2_2163" />
<path d="M69.9,344.1l782.1,0l0,-0.7l-782.1,0l0,0.7Z" class="g2_2163" />
<path d="M69.9,368.6l782.1,0l0,-0.7l-782.1,0l0,0.7Z" class="g2_2163" />
<path d="M69.9,393L852,393l0,-0.8l-782.1,0l0,0.8Z" class="g2_2163" />
<path d="M69.9,417.4l782.1,0l0,-0.7l-782.1,0l0,0.7Z" class="g2_2163" />
<path d="M69.9,441.9l782.1,0l0,-0.7l-782.1,0l0,0.7Z" class="g2_2163" />
<path d="M69.9,466.4l782.1,0l0,-0.7l-782.1,0l0,0.7Z" class="g2_2163" />
<path d="M69.9,490.8l782.1,0l0,-0.8L69.9,490l0,0.8Z" class="g2_2163" />
<path d="M69.9,515.3l782.1,0l0,-0.8l-782.1,0l0,0.8Z" class="g2_2163" />
<path d="M69.9,539.7l782.1,0l0,-0.7L69.9,539l0,0.7Z" class="g2_2163" />
<path d="M69.9,564.1l782.1,0l0,-0.7l-782.1,0l0,0.7Z" class="g2_2163" />
<path d="M69.9,588.6l782.1,0l0,-0.7l-782.1,0l0,0.7Z" class="g2_2163" />
<path d="M69.9,613.1l782.1,0l0,-0.8l-782.1,0l0,0.8Z" class="g2_2163" />
<path d="M69.9,637.4l782.1,0l0,-0.7l-782.1,0l0,0.7Z" class="g2_2163" />
<path d="M69.9,661.9l782.1,0l0,-0.7l-782.1,0l0,0.7Z" class="g2_2163" />
<path d="M69.9,686.4l782.1,0l0,-0.7l-782.1,0l0,0.7Z" class="g2_2163" />
<path d="M69.9,710.8l782.1,0l0,-0.8L69.9,710l0,0.8Z" class="g2_2163" />
<path d="M69.9,735.3l782.1,0l0,-0.8l-782.1,0l0,0.8Z" class="g2_2163" />
<path d="M69.9,776.5l782.1,0l0,-0.7l-782.1,0l0,0.7Z" class="g2_2163" />
<path d="M69.9,801L852,801l0,-0.8l-782.1,0l0,0.8Z" class="g2_2163" />
<path d="M69.9,825.4l782.1,0l0,-0.8l-782.1,0l0,0.8Z" class="g2_2163" />
<path d="M69.9,849.8l782.1,0l0,-0.7l-782.1,0l0,0.7Z" class="g2_2163" />
<path d="M69.9,874.3l782.1,0l0,-0.7l-782.1,0l0,0.7Z" class="g2_2163" />
<path d="M69.9,898.7l782.1,0l0,-0.7L69.9,898l0,0.7Z" class="g2_2163" />
<path d="M69.9,923.2l782.1,0l0,-0.8l-782.1,0l0,0.8Z" class="g2_2163" />
<path d="M69.9,947.7l782.1,0l0,-0.8l-782.1,0l0,0.8Z" class="g2_2163" />
<path d="M69.9,972L852,972l0,-0.7l-782.1,0l0,0.7Z" class="g2_2163" />
<path d="M69.9,1013.3l782.1,0l0,-0.7l-782.1,0l0,0.7Z" class="g2_2163" />
<path d="M69.9,1037.8l782.1,0l0,-0.8l-782.1,0l0,0.8Z" class="g2_2163" />
<path d="M69.9,1062.2l782.1,0l0,-0.7l-782.1,0l0,0.7Z" class="g2_2163" />
<path d="M69.9,1086.6l782.1,0l0,-0.7l-782.1,0l0,0.7Z" class="g2_2163" />
</svg>